<?xml version="1.0" encoding="UTF-8"?>
<svg xmlns:xlink="http://www.w3.org/1999/xlink" xmlns="http://www.w3.org/2000/svg" contentScriptType="text/ecmascript" width="392mm" zoomAndPan="magnify" contentStyleType="text/css" height="593mm" viewBox="0 0 785 1187" preserveAspectRatio="xMidYMid meet" version="1.0">
    <title>6673462991_4abcf87349_o</title>
    <svg contentScriptType="text/ecmascript" xmlns:xlink="http://www.w3.org/1999/xlink" zoomAndPan="magnify" class="Page" contentStyleType="text/css" preserveAspectRatio="xMidYMid meet" xmlns="http://www.w3.org/2000/svg" version="1.0">
        <image x="0" y="0" fill-opacity="0.5" width="785" xmlns:xlink="http://www.w3.org/1999/xlink" xlink:href="../JPG/6673462991_4abcf87349_o.jpg" xlink:type="simple" xlink:actuate="onLoad" opacity="0.5" height="1187" preserveAspectRatio="xMidYMid meet" xlink:show="embed"/>
    </svg>
    <style type="text/css" xml:space="preserve"><![CDATA[
		* { stroke-width: 1; stroke-linejoin: round; }
		.Panel { fill: none; stroke: red; opacity: 1.0; visibility: visible; }
		.Text { fill: green; stroke: none; opacity: 0.5; visibility: visible; }
		.Balloon { fill: none; stroke: cyan; opacity: 1.0; visibility: visible; }
		.Letter { fill: none; stroke: blue; opacity: 1.0; visibility: visible; }
		.Object { fill: none; stroke: yellow; opacity: 1.0; visibility: visible; }
		.Page { fill: none; stroke: white; opacity: 0.5; visibility: visible; image-rendering: optimizeSpeed; }
		.Noise { fill: none; stroke: pink; opacity: 1.0; visibility: hidden; }
		.Unclassified { fill: none; stroke: orange; opacity: 1.0; visibility: hidden; }
]]></style>
    <svg contentScriptType="text/ecmascript" xmlns:xlink="http://www.w3.org/1999/xlink" zoomAndPan="magnify" class="Panel" contentStyleType="text/css" preserveAspectRatio="xMidYMid meet" xmlns="http://www.w3.org/2000/svg" version="1.0"/>
    <svg contentScriptType="text/ecmascript" xmlns:xlink="http://www.w3.org/1999/xlink" zoomAndPan="magnify" class="Text" contentStyleType="text/css" preserveAspectRatio="xMidYMid meet" xmlns="http://www.w3.org/2000/svg" version="1.0">
        <polygon class="Text" points="142,22 611,22 611,54 142,54 142,22"/>
        <polygon class="Text" points="139,52 592,52 592,80 139,80 139,52"/>
        <polygon class="Text" points="275,156 362,156 362,204 275,204 275,156"/>
        <polygon class="Text" points="369,230 382,230 382,246 369,246 369,230"/>
        <polygon class="Text" points="94,478 647,478 647,502 94,502 94,478"/>
        <polygon class="Text" points="115,506 502,506 502,539 115,539 115,506"/>
        <polygon class="Text" points="524,596 551,596 551,612 524,612 524,596"/>
        <polygon class="Text" points="421,588 490,588 490,617 421,617 421,588"/>
        <polygon class="Text" points="418,608 500,608 500,653 418,653 418,608"/>
        <polygon class="Text" points="434,633 542,633 542,772 434,772 434,633"/>
        <polygon class="Text" points="199,665 208,665 208,673 199,673 199,665"/>
        <polygon class="Text" points="690,754 736,754 736,771 690,771 690,754"/>
        <polygon class="Text" points="697,788 741,788 741,808 697,808 697,788"/>
        <polygon class="Text" points="637,795 672,795 672,807 637,807 637,795"/>
        <polygon class="Text" points="389,865 479,865 479,903 389,903 389,865"/>
        <polygon class="Text" points="350,933 421,933 421,976 350,976 350,933"/>
        <polygon class="Text" points="357,969 389,969 389,990 357,990 357,969"/>
        <polygon class="Text" points="612,984 705,984 705,1014 612,1014 612,984"/>
        <polygon class="Text" points="119,1000 166,1000 166,1019 119,1019 119,1000"/>
        <polygon class="Text" points="195,1000 370,1000 370,1091 195,1091 195,1000"/>
        <polygon class="Text" points="582,1055 687,1055 687,1097 582,1097 582,1055"/>
        <polygon class="Text" points="272,1086 343,1086 343,1107 272,1107 272,1086"/>
        <polygon class="Text" points="268,1103 363,1103 363,1127 268,1127 268,1103"/>
        <polygon class="Text" points="574,1079 678,1079 678,1162 574,1162 574,1079"/>
    </svg>
    <svg contentScriptType="text/ecmascript" xmlns:xlink="http://www.w3.org/1999/xlink" zoomAndPan="magnify" class="Balloon" contentStyleType="text/css" preserveAspectRatio="xMidYMid meet" xmlns="http://www.w3.org/2000/svg" version="1.0"/>
    <svg contentScriptType="text/ecmascript" xmlns:xlink="http://www.w3.org/1999/xlink" zoomAndPan="magnify" class="Letter" contentStyleType="text/css" preserveAspectRatio="xMidYMid meet" xmlns="http://www.w3.org/2000/svg" version="1.0">
        <polygon class="Letter" points="519,22 537,22 537,42 519,42 519,22"/>
        <polygon class="Letter" points="142,24 156,24 156,49 142,49 142,24"/>
        <polygon class="Letter" points="546,24 572,24 572,42 546,42 546,24"/>
        <polygon class="Letter" points="573,25 592,25 592,42 573,42 573,25"/>
        <polygon class="Letter" points="593,25 611,25 611,40 593,40 593,25"/>
        <polygon class="Letter" points="469,26 485,26 485,42 469,42 469,26"/>
        <polygon class="Letter" points="424,28 439,28 439,44 424,44 424,28"/>
        <polygon class="Letter" points="486,28 507,28 507,42 486,42 486,28"/>
        <polygon class="Letter" points="536,28 542,28 542,41 536,41 536,28"/>
        <polygon class="Letter" points="174,29 187,29 187,49 174,49 174,29"/>
        <polygon class="Letter" points="386,29 421,29 421,45 386,45 386,29"/>
        <polygon class="Letter" points="441,30 456,30 456,44 441,44 441,30"/>
        <polygon class="Letter" points="354,32 384,32 384,47 354,47 354,32"/>
        <polygon class="Letter" points="209,33 220,33 220,50 209,50 209,33"/>
        <polygon class="Letter" points="318,33 336,33 336,50 318,50 318,33"/>
        <polygon class="Letter" points="186,34 200,34 200,49 186,49 186,34"/>
        <polygon class="Letter" points="239,34 253,34 253,51 239,51 239,34"/>
        <polygon class="Letter" points="257,34 311,34 311,54 257,54 257,34"/>
        <polygon class="Letter" points="337,35 351,35 351,47 337,47 337,35"/>
        <polygon class="Letter" points="202,36 207,36 207,49 202,49 202,36"/>
        <polygon class="Letter" points="233,36 238,36 238,52 233,52 233,36"/>
        <polygon class="Letter" points="399,52 436,52 436,74 399,74 399,52"/>
        <polygon class="Letter" points="334,53 384,53 384,72 334,72 334,53"/>
        <polygon class="Letter" points="457,57 470,57 470,70 457,70 457,57"/>
        <polygon class="Letter" points="471,57 486,57 486,73 471,73 471,57"/>
        <polygon class="Letter" points="540,57 557,57 557,74 540,74 540,57"/>
        <polygon class="Letter" points="561,57 576,57 576,73 561,73 561,57"/>
        <polygon class="Letter" points="574,57 592,57 592,73 574,73 574,57"/>
        <polygon class="Letter" points="497,58 510,58 510,74 497,74 497,58"/>
        <polygon class="Letter" points="303,59 326,59 326,73 303,73 303,59"/>
        <polygon class="Letter" points="435,59 454,59 454,74 435,74 435,59"/>
        <polygon class="Letter" points="510,59 537,59 537,73 510,73 510,59"/>
        <polygon class="Letter" points="253,61 268,61 268,77 253,77 253,61"/>
        <polygon class="Letter" points="273,61 301,61 301,75 273,75 273,61"/>
        <polygon class="Letter" points="325,61 331,61 331,72 325,72 325,61"/>
        <polygon class="Letter" points="488,61 493,61 493,72 488,72 488,61"/>
        <polygon class="Letter" points="193,62 207,62 207,78 193,78 193,62"/>
        <polygon class="Letter" points="214,63 234,63 234,75 214,75 214,63"/>
        <polygon class="Letter" points="139,64 192,64 192,80 139,80 139,64"/>
        <polygon class="Letter" points="234,64 251,64 251,76 234,76 234,64"/>
        <polygon class="Letter" points="364,147 370,147 370,164 364,164 364,147"/>
        <polygon class="Letter" points="349,156 362,156 362,184 349,184 349,156"/>
        <polygon class="Letter" points="303,162 322,162 322,195 303,195 303,162"/>
        <polygon class="Letter" points="324,163 336,163 336,191 324,191 324,163"/>
        <polygon class="Letter" points="340,166 345,166 345,187 340,187 340,166"/>
        <polygon class="Letter" points="284,168 300,168 300,198 284,198 284,168"/>
        <polygon class="Letter" points="275,182 285,182 285,204 275,204 275,182"/>
        <polygon class="Letter" points="369,230 376,230 376,242 369,242 369,230"/>
        <polygon class="Letter" points="378,238 382,238 382,246 378,246 378,238"/>
        <polygon class="Letter" points="301,474 309,474 309,483 301,483 301,474"/>
        <polygon class="Letter" points="94,478 108,478 108,502 94,502 94,478"/>
        <polygon class="Letter" points="496,479 510,479 510,498 496,498 496,479"/>
        <polygon class="Letter" points="119,480 133,480 133,502 119,502 119,480"/>
        <polygon class="Letter" points="179,480 198,480 198,497 179,497 179,480"/>
        <polygon class="Letter" points="246,480 274,480 274,498 246,498 246,480"/>
        <polygon class="Letter" points="198,481 245,481 245,499 198,499 198,481"/>
        <polygon class="Letter" points="469,481 481,481 481,499 469,499 469,481"/>
        <polygon class="Letter" points="508,481 538,481 538,502 508,502 508,481"/>
        <polygon class="Letter" points="561,481 591,481 591,500 561,500 561,481"/>
        <polygon class="Letter" points="592,481 608,481 608,501 592,501 592,481"/>
        <polygon class="Letter" points="145,482 174,482 174,500 145,500 145,482"/>
        <polygon class="Letter" points="283,482 298,482 298,499 283,499 283,482"/>
        <polygon class="Letter" points="322,482 338,482 338,498 322,498 322,482"/>
        <polygon class="Letter" points="367,482 381,482 381,500 367,500 367,482"/>
        <polygon class="Letter" points="384,482 396,482 396,499 384,499 384,482"/>
        <polygon class="Letter" points="397,482 445,482 445,502 397,502 397,482"/>
        <polygon class="Letter" points="339,483 358,483 358,499 339,499 339,483"/>
        <polygon class="Letter" points="539,483 553,483 553,500 539,500 539,483"/>
        <polygon class="Letter" points="617,483 647,483 647,502 617,502 617,483"/>
        <polygon class="Letter" points="298,484 311,484 311,500 298,500 298,484"/>
        <polygon class="Letter" points="461,484 466,484 466,496 461,496 461,484"/>
        <polygon class="Letter" points="165,506 206,506 206,532 165,532 165,506"/>
        <polygon class="Letter" points="115,509 130,509 130,526 115,526 115,509"/>
        <polygon class="Letter" points="130,509 153,509 153,527 130,527 130,509"/>
        <polygon class="Letter" points="369,509 383,509 383,525 369,525 369,509"/>
        <polygon class="Letter" points="397,510 434,510 434,529 397,529 397,510"/>
        <polygon class="Letter" points="318,511 348,511 348,527 318,527 318,511"/>
        <polygon class="Letter" points="350,511 368,511 368,527 350,527 350,511"/>
        <polygon class="Letter" points="207,512 223,512 223,532 207,532 207,512"/>
        <polygon class="Letter" points="233,512 277,512 277,533 233,533 233,512"/>
        <polygon class="Letter" points="289,513 317,513 317,533 289,533 289,513"/>
        <polygon class="Letter" points="443,515 459,515 459,539 443,539 443,515"/>
        <polygon class="Letter" points="224,516 229,516 229,529 224,529 224,516"/>
        <polygon class="Letter" points="458,516 472,516 472,534 458,534 458,516"/>
        <polygon class="Letter" points="474,517 486,517 486,530 474,530 474,517"/>
        <polygon class="Letter" points="488,517 502,517 502,534 488,534 488,517"/>
        <polygon class="Letter" points="526,584 544,584 544,595 526,595 526,584"/>
        <polygon class="Letter" points="474,588 484,588 484,600 474,600 474,588"/>
        <polygon class="Letter" points="461,589 474,589 474,603 461,603 461,589"/>
        <polygon class="Letter" points="484,590 488,590 488,598 484,598 484,590"/>
        <polygon class="Letter" points="431,592 465,592 465,613 431,613 431,592"/>
        <polygon class="Letter" points="524,596 542,596 542,612 524,612 524,596"/>
        <polygon class="Letter" points="543,596 551,596 551,610 543,610 543,596"/>
        <polygon class="Letter" points="426,598 430,598 430,604 426,604 426,598"/>
        <polygon class="Letter" points="482,601 490,601 490,613 482,613 482,601"/>
        <polygon class="Letter" points="467,605 475,605 475,615 467,615 467,605"/>
        <polygon class="Letter" points="421,606 427,606 427,617 421,617 421,606"/>
        <polygon class="Letter" points="456,608 465,608 465,620 456,620 456,608"/>
        <polygon class="Letter" points="447,610 456,610 456,625 447,625 447,610"/>
        <polygon class="Letter" points="664,613 688,613 688,645 664,645 664,613"/>
        <polygon class="Letter" points="491,614 495,614 495,626 491,626 491,614"/>
        <polygon class="Letter" points="418,615 446,615 446,634 418,634 418,615"/>
        <polygon class="Letter" points="484,615 491,615 491,628 484,628 484,615"/>
        <polygon class="Letter" points="471,618 483,618 483,631 471,631 471,618"/>
        <polygon class="Letter" points="449,621 465,621 465,637 449,637 449,621"/>
        <polygon class="Letter" points="466,622 469,622 469,630 466,630 466,622"/>
        <polygon class="Letter" points="470,626 497,626 497,647 470,647 470,626"/>
        <polygon class="Letter" points="488,633 542,633 542,769 488,769 488,633"/>
        <polygon class="Letter" points="680,641 685,641 685,659 680,659 680,641"/>
        <polygon class="Letter" points="490,642 500,642 500,653 490,653 490,642"/>
        <polygon class="Letter" points="434,654 492,654 492,772 434,772 434,654"/>
        <polygon class="Letter" points="199,665 203,665 203,670 199,670 199,665"/>
        <polygon class="Letter" points="204,668 208,668 208,673 204,673 204,668"/>
        <polygon class="Letter" points="637,695 662,695 662,711 637,711 637,695"/>
        <polygon class="Letter" points="627,697 635,697 635,711 627,711 627,697"/>
        <polygon class="Letter" points="604,698 613,698 613,715 604,715 604,698"/>
        <polygon class="Letter" points="613,698 626,698 626,714 613,714 613,698"/>
        <polygon class="Letter" points="669,712 678,712 678,729 669,729 669,712"/>
        <polygon class="Letter" points="637,713 659,713 659,729 637,729 637,713"/>
        <polygon class="Letter" points="660,713 671,713 671,726 660,726 660,713"/>
        <polygon class="Letter" points="618,715 637,715 637,732 618,732 618,715"/>
        <polygon class="Letter" points="692,739 711,739 711,755 692,755 692,739"/>
        <polygon class="Letter" points="673,745 688,745 688,761 673,761 673,745"/>
        <polygon class="Letter" points="705,754 736,754 736,770 705,770 705,754"/>
        <polygon class="Letter" points="701,757 704,757 704,764 701,764 701,757"/>
        <polygon class="Letter" points="690,758 700,758 700,771 690,771 690,758"/>
        <polygon class="Letter" points="699,772 723,772 723,787 699,787 699,772"/>
        <polygon class="Letter" points="645,778 651,778 651,792 645,792 645,778"/>
        <polygon class="Letter" points="729,788 736,788 736,802 729,802 729,788"/>
        <polygon class="Letter" points="734,789 741,789 741,803 734,803 734,789"/>
        <polygon class="Letter" points="697,791 727,791 727,808 697,808 697,791"/>
        <polygon class="Letter" points="657,795 672,795 672,807 657,807 657,795"/>
        <polygon class="Letter" points="637,796 653,796 653,807 637,807 637,796"/>
        <polygon class="Letter" points="404,799 447,799 447,847 404,847 404,799"/>
        <polygon class="Letter" points="693,809 720,809 720,823 693,823 693,809"/>
        <polygon class="Letter" points="402,845 442,845 442,870 402,870 402,845"/>
        <polygon class="Letter" points="488,856 520,856 520,862 488,862 488,856"/>
        <polygon class="Letter" points="514,864 521,864 521,869 514,869 514,864"/>
        <polygon class="Letter" points="443,865 479,865 479,885 443,885 443,865"/>
        <polygon class="Letter" points="389,868 464,868 464,900 389,900 389,868"/>
        <polygon class="Letter" points="471,885 475,885 475,903 471,903 471,885"/>
        <polygon class="Letter" points="697,922 725,922 725,953 697,953 697,922"/>
        <polygon class="Letter" points="350,933 377,933 377,951 350,951 350,933"/>
        <polygon class="Letter" points="379,933 392,933 392,970 379,970 379,933"/>
        <polygon class="Letter" points="579,945 620,945 620,965 579,965 579,945"/>
        <polygon class="Letter" points="351,949 357,949 357,961 351,961 351,949"/>
        <polygon class="Letter" points="358,952 380,952 380,966 358,966 358,952"/>
        <polygon class="Letter" points="712,952 723,952 723,971 712,971 712,952"/>
        <polygon class="Letter" points="400,956 407,956 407,972 400,972 400,956"/>
        <polygon class="Letter" points="565,956 603,956 603,976 565,976 565,956"/>
        <polygon class="Letter" points="387,957 398,957 398,971 387,971 387,957"/>
        <polygon class="Letter" points="409,957 421,957 421,976 409,976 409,957"/>
        <polygon class="Letter" points="357,969 366,969 366,984 357,984 357,969"/>
        <polygon class="Letter" points="371,971 379,971 379,984 371,984 371,971"/>
        <polygon class="Letter" points="383,976 389,976 389,990 383,990 383,976"/>
        <polygon class="Letter" points="378,978 381,978 381,988 378,988 378,978"/>
        <polygon class="Letter" points="612,984 625,984 625,1006 612,1006 612,984"/>
        <polygon class="Letter" points="622,986 646,986 646,1007 622,1007 622,986"/>
        <polygon class="Letter" points="646,988 688,988 688,1012 646,1012 646,988"/>
        <polygon class="Letter" points="686,994 705,994 705,1014 686,1014 686,994"/>
        <polygon class="Letter" points="162,1000 166,1000 166,1011 162,1011 162,1000"/>
        <polygon class="Letter" points="198,1000 288,1000 288,1056 198,1056 198,1000"/>
        <polygon class="Letter" points="119,1002 161,1002 161,1019 119,1019 119,1002"/>
        <polygon class="Letter" points="195,1026 241,1026 241,1091 195,1091 195,1026"/>
        <polygon class="Letter" points="277,1033 294,1033 294,1075 277,1075 277,1033"/>
        <polygon class="Letter" points="295,1034 333,1034 333,1053 295,1053 295,1034"/>
        <polygon class="Letter" points="339,1036 370,1036 370,1056 339,1056 339,1036"/>
        <polygon class="Letter" points="582,1055 638,1055 638,1097 582,1097 582,1055"/>
        <polygon class="Letter" points="294,1056 314,1056 314,1072 294,1072 294,1056"/>
        <polygon class="Letter" points="318,1056 360,1056 360,1076 318,1076 318,1056"/>
        <polygon class="Letter" points="646,1061 655,1061 655,1069 646,1069 646,1061"/>
        <polygon class="Letter" points="657,1064 672,1064 672,1073 657,1073 657,1064"/>
        <polygon class="Letter" points="595,1079 647,1079 647,1142 595,1142 595,1079"/>
        <polygon class="Letter" points="667,1079 687,1079 687,1095 667,1095 667,1079"/>
        <polygon class="Letter" points="640,1080 661,1080 661,1089 640,1089 640,1080"/>
        <polygon class="Letter" points="272,1086 310,1086 310,1104 272,1104 272,1086"/>
        <polygon class="Letter" points="314,1091 343,1091 343,1107 314,1107 314,1091"/>
        <polygon class="Letter" points="646,1099 678,1099 678,1134 646,1134 646,1099"/>
        <polygon class="Letter" points="268,1103 302,1103 302,1122 268,1122 268,1103"/>
        <polygon class="Letter" points="307,1108 318,1108 318,1121 307,1121 307,1108"/>
        <polygon class="Letter" points="320,1109 328,1109 328,1123 320,1123 320,1109"/>
        <polygon class="Letter" points="574,1110 648,1110 648,1162 574,1162 574,1110"/>
        <polygon class="Letter" points="329,1111 340,1111 340,1125 329,1125 329,1111"/>
        <polygon class="Letter" points="360,1112 363,1112 363,1121 360,1121 360,1112"/>
        <polygon class="Letter" points="341,1113 358,1113 358,1127 341,1127 341,1113"/>
    </svg>
    <svg contentScriptType="text/ecmascript" xmlns:xlink="http://www.w3.org/1999/xlink" zoomAndPan="magnify" class="Object" contentStyleType="text/css" preserveAspectRatio="xMidYMid meet" xmlns="http://www.w3.org/2000/svg" version="1.0"/>
    <desc method="Christophe's extractor" lastModificationDate="Fri Aug 24 11:03:19 CEST 2012"/>
</svg>
