<?xml version="1.0" encoding="UTF-8"?>
<svg xmlns:xlink="http://www.w3.org/1999/xlink" xmlns="http://www.w3.org/2000/svg" contentScriptType="text/ecmascript" width="375mm" zoomAndPan="magnify" contentStyleType="text/css" height="530mm" viewBox="0 0 750 1060" preserveAspectRatio="xMidYMid meet" version="1.0">
    <title>CYB_BUBBLEGOM_T01_008</title>
    <svg contentScriptType="text/ecmascript" xmlns:xlink="http://www.w3.org/1999/xlink" zoomAndPan="magnify" class="Page" contentStyleType="text/css" preserveAspectRatio="xMidYMid meet" xmlns="http://www.w3.org/2000/svg" version="1.0">
        <image x="0" y="0" fill-opacity="0.5" width="750" xmlns:xlink="http://www.w3.org/1999/xlink" xlink:href="../JPG/CYB_BUBBLEGOM_T01_008.jpg" xlink:type="simple" xlink:actuate="onLoad" opacity="0.5" height="1060" preserveAspectRatio="xMidYMid meet" xlink:show="embed"/>
    </svg>
    <style type="text/css" xml:space="preserve"><![CDATA[
		* { stroke-width: 1; stroke-linejoin: round; }
		.Panel { fill: none; stroke: red; opacity: 1.0; visibility: visible; }
		.Text { fill: green; stroke: none; opacity: 0.5; visibility: visible; }
		.Balloon { fill: none; stroke: cyan; opacity: 1.0; visibility: visible; }
		.Letter { fill: none; stroke: blue; opacity: 1.0; visibility: visible; }
		.Object { fill: none; stroke: yellow; opacity: 1.0; visibility: visible; }
		.Page { fill: none; stroke: white; opacity: 0.5; visibility: visible; image-rendering: optimizeSpeed; }
		.Noise { fill: none; stroke: pink; opacity: 1.0; visibility: hidden; }
		.Unclassified { fill: none; stroke: orange; opacity: 1.0; visibility: hidden; }
]]></style>
    <svg contentScriptType="text/ecmascript" xmlns:xlink="http://www.w3.org/1999/xlink" zoomAndPan="magnify" class="Panel" contentStyleType="text/css" preserveAspectRatio="xMidYMid meet" xmlns="http://www.w3.org/2000/svg" version="1.0"/>
    <svg contentScriptType="text/ecmascript" xmlns:xlink="http://www.w3.org/1999/xlink" zoomAndPan="magnify" class="Text" contentStyleType="text/css" preserveAspectRatio="xMidYMid meet" xmlns="http://www.w3.org/2000/svg" version="1.0">
        <polygon class="Text" points="468,68 664,68 664,78 468,78 468,68"/>
        <polygon class="Text" points="462,80 669,80 669,90 462,90 462,80"/>
        <polygon class="Text" points="460,92 672,92 672,104 460,104 460,92"/>
        <polygon class="Text" points="295,93 369,93 369,105 295,105 295,93"/>
        <polygon class="Text" points="116,92 170,92 170,107 116,107 116,92"/>
        <polygon class="Text" points="596,104 669,104 669,114 596,114 596,104"/>
        <polygon class="Text" points="460,104 585,104 585,114 460,114 460,104"/>
        <polygon class="Text" points="273,107 322,107 322,118 273,118 273,107"/>
        <polygon class="Text" points="333,107 391,107 391,118 333,118 333,107"/>
        <polygon class="Text" points="104,110 179,110 179,121 104,121 104,110"/>
        <polygon class="Text" points="506,117 655,117 655,126 506,126 506,117"/>
        <polygon class="Text" points="291,121 374,121 374,132 291,132 291,121"/>
        <polygon class="Text" points="593,129 608,129 608,136 593,136 593,129"/>
        <polygon class="Text" points="277,134 387,134 387,145 277,145 277,134"/>
        <polygon class="Text" points="639,145 659,145 659,157 639,157 639,145"/>
        <polygon class="Text" points="455,149 483,149 483,170 455,170 455,149"/>
        <polygon class="Text" points="434,164 479,164 479,211 434,211 434,164"/>
        <polygon class="Text" points="462,213 468,213 468,218 462,218 462,213"/>
        <polygon class="Text" points="425,220 435,220 435,237 425,237 425,220"/>
        <polygon class="Text" points="218,247 228,247 228,257 218,257 218,247"/>
        <polygon class="Text" points="80,285 120,285 120,296 80,296 80,285"/>
        <polygon class="Text" points="86,295 112,295 112,306 86,306 86,295"/>
        <polygon class="Text" points="573,300 626,300 626,310 573,310 573,300"/>
        <polygon class="Text" points="451,300 531,300 531,310 451,310 451,300"/>
        <polygon class="Text" points="258,305 302,305 302,314 258,314 258,305"/>
        <polygon class="Text" points="82,306 108,306 108,317 82,317 82,306"/>
        <polygon class="Text" points="564,312 622,312 622,322 564,322 564,312"/>
        <polygon class="Text" points="455,312 555,312 555,323 455,323 455,312"/>
        <polygon class="Text" points="436,324 641,324 641,333 436,333 436,324"/>
        <polygon class="Text" points="444,336 633,336 633,345 444,345 444,336"/>
        <polygon class="Text" points="505,348 628,348 628,357 505,357 505,348"/>
        <polygon class="Text" points="504,359 572,359 572,369 504,369 504,359"/>
        <polygon class="Text" points="449,399 508,399 508,410 449,410 449,399"/>
        <polygon class="Text" points="447,411 499,411 499,419 447,419 447,411"/>
        <polygon class="Text" points="200,433 208,433 208,439 200,439 200,433"/>
        <polygon class="Text" points="169,439 211,439 211,468 169,468 169,439"/>
        <polygon class="Text" points="166,452 184,452 184,469 166,469 166,452"/>
        <polygon class="Text" points="444,471 492,471 492,512 444,512 444,471"/>
        <polygon class="Text" points="83,531 127,531 127,561 83,561 83,531"/>
        <polygon class="Text" points="492,564 499,564 499,571 492,571 492,564"/>
        <polygon class="Text" points="323,570 330,570 330,575 323,575 323,570"/>
        <polygon class="Text" points="555,570 611,570 611,583 555,583 555,570"/>
        <polygon class="Text" points="101,582 109,582 109,589 101,589 101,582"/>
        <polygon class="Text" points="556,587 571,587 571,595 556,595 556,587"/>
        <polygon class="Text" points="482,589 495,589 495,608 482,608 482,589"/>
        <polygon class="Text" points="288,591 296,591 296,598 288,598 288,591"/>
        <polygon class="Text" points="325,598 333,598 333,605 325,605 325,598"/>
        <polygon class="Text" points="674,600 688,600 688,609 674,609 674,600"/>
        <polygon class="Text" points="246,642 383,642 383,652 246,652 246,642"/>
        <polygon class="Text" points="246,655 382,655 382,666 246,666 246,655"/>
        <polygon class="Text" points="246,667 383,667 383,678 246,678 246,667"/>
        <polygon class="Text" points="235,679 383,679 383,689 235,689 235,679"/>
        <polygon class="Text" points="91,684 184,684 184,696 91,696 91,684"/>
        <polygon class="Text" points="255,692 371,692 371,701 255,701 255,692"/>
        <polygon class="Text" points="108,702 167,702 167,714 108,714 108,702"/>
        <polygon class="Text" points="247,704 382,704 382,713 247,713 247,704"/>
        <polygon class="Text" points="250,717 318,717 318,726 250,726 250,717"/>
        <polygon class="Text" points="328,717 366,717 366,726 328,726 328,717"/>
        <polygon class="Text" points="94,719 180,719 180,731 94,731 94,719"/>
        <polygon class="Text" points="131,737 146,737 146,750 131,750 131,737"/>
        <polygon class="Text" points="619,764 631,764 631,780 619,780 619,764"/>
        <polygon class="Text" points="219,770 229,770 229,780 219,780 219,770"/>
        <polygon class="Text" points="238,782 293,782 293,834 238,834 238,782"/>
        <polygon class="Text" points="506,804 528,804 528,815 506,815 506,804"/>
        <polygon class="Text" points="432,816 477,816 477,838 432,838 432,816"/>
        <polygon class="Text" points="703,837 710,837 710,844 703,844 703,837"/>
        <polygon class="Text" points="590,840 600,840 600,846 590,846 590,840"/>
        <polygon class="Text" points="442,861 467,861 467,870 442,870 442,861"/>
        <polygon class="Text" points="480,861 496,861 496,870 480,870 480,861"/>
        <polygon class="Text" points="413,866 419,866 419,872 413,872 413,866"/>
        <polygon class="Text" points="540,868 554,868 554,877 540,877 540,868"/>
        <polygon class="Text" points="437,873 502,873 502,882 437,882 437,873"/>
        <polygon class="Text" points="582,877 667,877 667,886 582,886 582,877"/>
        <polygon class="Text" points="430,884 509,884 509,893 430,893 430,884"/>
        <polygon class="Text" points="549,885 701,885 701,899 549,899 549,885"/>
        <polygon class="Text" points="445,896 494,896 494,905 445,905 445,896"/>
        <polygon class="Text" points="257,897 265,897 265,906 257,906 257,897"/>
        <polygon class="Text" points="554,900 696,900 696,910 554,910 554,900"/>
        <polygon class="Text" points="269,903 286,903 286,919 269,919 269,903"/>
        <polygon class="Text" points="447,908 485,908 485,917 447,917 447,908"/>
        <polygon class="Text" points="552,911 698,911 698,920 552,920 552,911"/>
        <polygon class="Text" points="557,922 692,922 692,931 557,931 557,922"/>
        <polygon class="Text" points="240,910 277,910 277,937 240,937 240,910"/>
        <polygon class="Text" points="291,928 299,928 299,936 291,936 291,928"/>
        <polygon class="Text" points="547,934 702,934 702,943 547,943 547,934"/>
        <polygon class="Text" points="254,941 266,941 266,948 254,948 254,941"/>
        <polygon class="Text" points="565,945 684,945 684,954 565,954 565,945"/>
        <polygon class="Text" points="539,957 548,957 548,970 539,970 539,957"/>
    </svg>
    <svg contentScriptType="text/ecmascript" xmlns:xlink="http://www.w3.org/1999/xlink" zoomAndPan="magnify" class="Balloon" contentStyleType="text/css" preserveAspectRatio="xMidYMid meet" xmlns="http://www.w3.org/2000/svg" version="1.0"/>
    <svg contentScriptType="text/ecmascript" xmlns:xlink="http://www.w3.org/1999/xlink" zoomAndPan="magnify" class="Letter" contentStyleType="text/css" preserveAspectRatio="xMidYMid meet" xmlns="http://www.w3.org/2000/svg" version="1.0">
        <polygon class="Letter" points="468,68 502,68 502,77 468,77 468,68"/>
        <polygon class="Letter" points="502,68 510,68 510,77 502,77 502,68"/>
        <polygon class="Letter" points="518,68 522,68 522,77 518,77 518,68"/>
        <polygon class="Letter" points="529,68 545,68 545,77 529,77 529,68"/>
        <polygon class="Letter" points="545,68 554,68 554,77 545,77 545,68"/>
        <polygon class="Letter" points="561,68 568,68 568,77 561,77 561,68"/>
        <polygon class="Letter" points="568,68 592,68 592,77 568,77 568,68"/>
        <polygon class="Letter" points="592,68 601,68 601,77 592,77 592,68"/>
        <polygon class="Letter" points="608,68 624,68 624,77 608,77 608,68"/>
        <polygon class="Letter" points="625,68 632,68 632,78 625,78 625,68"/>
        <polygon class="Letter" points="633,68 648,68 648,77 633,77 633,68"/>
        <polygon class="Letter" points="649,68 656,68 656,78 649,78 649,68"/>
        <polygon class="Letter" points="657,68 664,68 664,77 657,77 657,68"/>
        <polygon class="Letter" points="462,80 480,80 480,90 462,90 462,80"/>
        <polygon class="Letter" points="496,80 524,80 524,90 496,90 496,80"/>
        <polygon class="Letter" points="532,80 574,80 574,90 532,90 532,80"/>
        <polygon class="Letter" points="575,80 582,80 582,90 575,90 575,80"/>
        <polygon class="Letter" points="583,80 601,80 601,90 583,90 583,80"/>
        <polygon class="Letter" points="609,80 617,80 617,90 609,90 609,80"/>
        <polygon class="Letter" points="617,80 635,80 635,90 617,90 617,80"/>
        <polygon class="Letter" points="643,80 652,80 652,90 643,90 643,80"/>
        <polygon class="Letter" points="653,80 669,80 669,90 653,90 653,80"/>
        <polygon class="Letter" points="488,81 495,81 495,90 488,90 488,81"/>
        <polygon class="Letter" points="125,92 133,92 133,107 125,107 125,92"/>
        <polygon class="Letter" points="143,92 151,92 151,107 143,107 143,92"/>
        <polygon class="Letter" points="152,92 170,92 170,107 152,107 152,92"/>
        <polygon class="Letter" points="460,92 497,92 497,102 460,102 460,92"/>
        <polygon class="Letter" points="497,92 514,92 514,102 497,102 497,92"/>
        <polygon class="Letter" points="539,92 548,92 548,104 539,104 539,92"/>
        <polygon class="Letter" points="556,92 564,92 564,102 556,102 556,92"/>
        <polygon class="Letter" points="579,92 618,92 618,102 579,102 579,92"/>
        <polygon class="Letter" points="619,92 627,92 627,102 619,102 619,92"/>
        <polygon class="Letter" points="627,92 635,92 635,102 627,102 627,92"/>
        <polygon class="Letter" points="643,92 655,92 655,102 643,102 643,92"/>
        <polygon class="Letter" points="656,92 664,92 664,102 656,102 656,92"/>
        <polygon class="Letter" points="306,93 317,93 317,105 306,105 306,93"/>
        <polygon class="Letter" points="522,93 539,93 539,102 522,102 522,93"/>
        <polygon class="Letter" points="564,93 571,93 571,102 564,102 564,93"/>
        <polygon class="Letter" points="665,93 672,93 672,102 665,102 665,93"/>
        <polygon class="Letter" points="295,94 305,94 305,104 295,104 295,94"/>
        <polygon class="Letter" points="318,94 327,94 327,105 318,105 318,94"/>
        <polygon class="Letter" points="336,94 350,94 350,104 336,104 336,94"/>
        <polygon class="Letter" points="350,94 369,94 369,105 350,105 350,94"/>
        <polygon class="Letter" points="134,96 142,96 142,107 134,107 134,96"/>
        <polygon class="Letter" points="116,97 124,97 124,107 116,107 116,97"/>
        <polygon class="Letter" points="470,104 480,104 480,114 470,114 470,104"/>
        <polygon class="Letter" points="596,104 617,104 617,114 596,114 596,104"/>
        <polygon class="Letter" points="460,105 469,105 469,114 460,114 460,105"/>
        <polygon class="Letter" points="480,105 497,105 497,114 480,114 480,105"/>
        <polygon class="Letter" points="497,105 505,105 505,114 497,114 497,105"/>
        <polygon class="Letter" points="504,105 511,105 511,114 504,114 504,105"/>
        <polygon class="Letter" points="519,105 523,105 523,114 519,114 519,105"/>
        <polygon class="Letter" points="530,105 540,105 540,114 530,114 530,105"/>
        <polygon class="Letter" points="541,105 548,105 548,114 541,114 541,105"/>
        <polygon class="Letter" points="549,105 560,105 560,114 549,114 549,105"/>
        <polygon class="Letter" points="561,105 569,105 569,114 561,114 561,105"/>
        <polygon class="Letter" points="570,105 577,105 577,114 570,114 570,105"/>
        <polygon class="Letter" points="578,105 585,105 585,114 578,114 578,105"/>
        <polygon class="Letter" points="618,105 625,105 625,114 618,114 618,105"/>
        <polygon class="Letter" points="633,105 651,105 651,114 633,114 633,105"/>
        <polygon class="Letter" points="652,105 660,105 660,114 652,114 652,105"/>
        <polygon class="Letter" points="661,105 669,105 669,114 661,114 661,105"/>
        <polygon class="Letter" points="225,106 236,106 236,120 225,120 225,106"/>
        <polygon class="Letter" points="273,107 294,107 294,118 273,118 273,107"/>
        <polygon class="Letter" points="294,107 306,107 306,118 294,118 294,107"/>
        <polygon class="Letter" points="307,107 314,107 314,118 307,118 307,107"/>
        <polygon class="Letter" points="315,107 322,107 322,118 315,118 315,107"/>
        <polygon class="Letter" points="333,107 336,107 336,115 333,115 333,107"/>
        <polygon class="Letter" points="338,107 341,107 341,115 338,115 338,107"/>
        <polygon class="Letter" points="343,107 346,107 346,115 343,115 343,107"/>
        <polygon class="Letter" points="355,107 378,107 378,118 355,118 355,107"/>
        <polygon class="Letter" points="381,107 391,107 391,118 381,118 381,107"/>
        <polygon class="Letter" points="378,108 380,108 380,118 378,118 378,108"/>
        <polygon class="Letter" points="104,110 111,110 111,120 104,120 104,110"/>
        <polygon class="Letter" points="112,110 130,110 130,120 112,120 112,110"/>
        <polygon class="Letter" points="138,110 168,110 168,121 138,121 138,110"/>
        <polygon class="Letter" points="169,110 179,110 179,120 169,120 169,110"/>
        <polygon class="Letter" points="506,117 517,117 517,126 506,126 506,117"/>
        <polygon class="Letter" points="518,117 544,117 544,126 518,126 518,117"/>
        <polygon class="Letter" points="551,117 560,117 560,126 551,126 551,117"/>
        <polygon class="Letter" points="561,117 577,117 577,126 561,126 561,117"/>
        <polygon class="Letter" points="578,117 585,117 585,126 578,126 578,117"/>
        <polygon class="Letter" points="593,117 608,117 608,126 593,126 593,117"/>
        <polygon class="Letter" points="615,117 655,117 655,126 615,126 615,117"/>
        <polygon class="Letter" points="65,120 73,120 73,132 65,132 65,120"/>
        <polygon class="Letter" points="291,121 322,121 322,132 291,132 291,121"/>
        <polygon class="Letter" points="332,121 340,121 340,132 332,132 332,121"/>
        <polygon class="Letter" points="341,121 363,121 363,132 341,132 341,121"/>
        <polygon class="Letter" points="364,121 374,121 374,132 364,132 364,121"/>
        <polygon class="Letter" points="140,123 148,123 148,136 140,136 140,123"/>
        <polygon class="Letter" points="216,123 226,123 226,134 216,134 216,123"/>
        <polygon class="Letter" points="593,129 595,129 595,136 593,136 593,129"/>
        <polygon class="Letter" points="597,129 600,129 600,136 597,136 597,129"/>
        <polygon class="Letter" points="601,129 604,129 604,136 601,136 601,129"/>
        <polygon class="Letter" points="605,129 608,129 608,136 605,136 605,129"/>
        <polygon class="Letter" points="374,134 387,134 387,145 374,145 374,134"/>
        <polygon class="Letter" points="277,135 286,135 286,145 277,145 277,135"/>
        <polygon class="Letter" points="287,135 298,135 298,145 287,145 287,135"/>
        <polygon class="Letter" points="298,135 310,135 310,145 298,145 298,135"/>
        <polygon class="Letter" points="311,135 322,135 322,145 311,145 311,135"/>
        <polygon class="Letter" points="323,135 332,135 332,145 323,145 323,135"/>
        <polygon class="Letter" points="339,135 347,135 347,145 339,145 339,135"/>
        <polygon class="Letter" points="354,135 365,135 365,145 354,145 354,135"/>
        <polygon class="Letter" points="560,135 572,135 572,146 560,146 560,135"/>
        <polygon class="Letter" points="60,137 69,137 69,146 60,146 60,137"/>
        <polygon class="Letter" points="639,145 656,145 656,157 639,157 639,145"/>
        <polygon class="Letter" points="646,145 659,145 659,155 646,155 646,145"/>
        <polygon class="Letter" points="455,149 464,149 464,157 455,157 455,149"/>
        <polygon class="Letter" points="460,150 473,150 473,159 460,159 460,150"/>
        <polygon class="Letter" points="458,152 483,152 483,170 458,170 458,152"/>
        <polygon class="Letter" points="434,164 446,164 446,189 434,189 434,164"/>
        <polygon class="Letter" points="439,164 453,164 453,186 439,186 439,164"/>
        <polygon class="Letter" points="468,167 479,167 479,187 468,187 468,167"/>
        <polygon class="Letter" points="444,168 466,168 466,205 444,205 444,168"/>
        <polygon class="Letter" points="459,192 469,192 469,211 459,211 459,192"/>
        <polygon class="Letter" points="426,202 438,202 438,214 426,214 426,202"/>
        <polygon class="Letter" points="462,213 465,213 465,218 462,218 462,213"/>
        <polygon class="Letter" points="466,213 468,213 468,218 466,218 466,213"/>
        <polygon class="Letter" points="425,220 430,220 430,235 425,235 425,220"/>
        <polygon class="Letter" points="428,222 435,222 435,237 428,237 428,222"/>
        <polygon class="Letter" points="221,247 228,247 228,254 221,254 221,247"/>
        <polygon class="Letter" points="218,252 224,252 224,257 218,257 218,252"/>
        <polygon class="Letter" points="80,285 95,285 95,296 80,296 80,285"/>
        <polygon class="Letter" points="100,285 120,285 120,295 100,295 100,285"/>
        <polygon class="Letter" points="86,295 106,295 106,305 86,305 86,295"/>
        <polygon class="Letter" points="106,296 112,296 112,306 106,306 106,296"/>
        <polygon class="Letter" points="495,300 511,300 511,310 495,310 495,300"/>
        <polygon class="Letter" points="573,300 601,300 601,310 573,310 573,300"/>
        <polygon class="Letter" points="451,301 468,301 468,310 451,310 451,301"/>
        <polygon class="Letter" points="469,301 479,301 479,310 469,310 469,301"/>
        <polygon class="Letter" points="479,301 488,301 488,310 479,310 479,301"/>
        <polygon class="Letter" points="512,301 522,301 522,310 512,310 512,301"/>
        <polygon class="Letter" points="522,301 531,301 531,310 522,310 522,301"/>
        <polygon class="Letter" points="601,301 608,301 608,310 601,310 601,301"/>
        <polygon class="Letter" points="608,301 618,301 618,310 608,310 608,301"/>
        <polygon class="Letter" points="619,301 626,301 626,310 619,310 619,301"/>
        <polygon class="Letter" points="258,305 284,305 284,314 258,314 258,305"/>
        <polygon class="Letter" points="291,305 302,305 302,314 291,314 291,305"/>
        <polygon class="Letter" points="95,306 108,306 108,316 95,316 95,306"/>
        <polygon class="Letter" points="82,307 89,307 89,317 82,317 82,307"/>
        <polygon class="Letter" points="88,307 94,307 94,316 88,316 88,307"/>
        <polygon class="Letter" points="463,312 471,312 471,322 463,322 463,312"/>
        <polygon class="Letter" points="472,312 479,312 479,321 472,321 472,312"/>
        <polygon class="Letter" points="480,312 497,312 497,323 480,323 480,312"/>
        <polygon class="Letter" points="504,312 531,312 531,321 504,321 504,312"/>
        <polygon class="Letter" points="531,312 539,312 539,322 531,322 531,312"/>
        <polygon class="Letter" points="546,312 555,312 555,321 546,321 546,312"/>
        <polygon class="Letter" points="564,312 582,312 582,321 564,321 564,312"/>
        <polygon class="Letter" points="583,312 592,312 592,321 583,321 583,312"/>
        <polygon class="Letter" points="593,312 622,312 622,322 593,322 593,312"/>
        <polygon class="Letter" points="455,313 462,313 462,322 455,322 455,313"/>
        <polygon class="Letter" points="436,324 442,324 442,333 436,333 436,324"/>
        <polygon class="Letter" points="443,324 473,324 473,333 443,333 443,324"/>
        <polygon class="Letter" points="473,324 479,324 479,333 473,333 473,324"/>
        <polygon class="Letter" points="480,324 487,324 487,333 480,333 480,324"/>
        <polygon class="Letter" points="499,324 506,324 506,333 499,333 499,324"/>
        <polygon class="Letter" points="513,324 522,324 522,333 513,333 513,324"/>
        <polygon class="Letter" points="523,324 530,324 530,333 523,333 523,324"/>
        <polygon class="Letter" points="538,324 545,324 545,333 538,333 538,324"/>
        <polygon class="Letter" points="546,324 555,324 555,333 546,333 546,324"/>
        <polygon class="Letter" points="555,324 562,324 562,333 555,333 555,324"/>
        <polygon class="Letter" points="563,324 572,324 572,333 563,333 563,324"/>
        <polygon class="Letter" points="573,324 580,324 580,333 573,333 573,324"/>
        <polygon class="Letter" points="587,324 595,324 595,333 587,333 587,324"/>
        <polygon class="Letter" points="596,324 604,324 604,333 596,333 596,324"/>
        <polygon class="Letter" points="605,324 612,324 612,333 605,333 605,324"/>
        <polygon class="Letter" points="611,324 641,324 641,333 611,333 611,324"/>
        <polygon class="Letter" points="488,325 498,325 498,333 488,333 488,325"/>
        <polygon class="Letter" points="444,336 461,336 461,345 444,345 444,336"/>
        <polygon class="Letter" points="462,336 480,336 480,345 462,345 462,336"/>
        <polygon class="Letter" points="480,336 495,336 495,345 480,345 480,336"/>
        <polygon class="Letter" points="496,336 503,336 503,345 496,345 496,336"/>
        <polygon class="Letter" points="511,336 519,336 519,345 511,345 511,336"/>
        <polygon class="Letter" points="520,336 538,336 538,345 520,345 520,336"/>
        <polygon class="Letter" points="545,336 551,336 551,345 545,345 545,336"/>
        <polygon class="Letter" points="552,336 559,336 559,345 552,345 552,336"/>
        <polygon class="Letter" points="567,336 576,336 576,345 567,345 567,336"/>
        <polygon class="Letter" points="577,336 584,336 584,345 577,345 577,336"/>
        <polygon class="Letter" points="584,336 592,336 592,345 584,345 584,336"/>
        <polygon class="Letter" points="593,336 600,336 600,345 593,345 593,336"/>
        <polygon class="Letter" points="601,336 608,336 608,345 601,345 601,336"/>
        <polygon class="Letter" points="615,336 624,336 624,345 615,345 615,336"/>
        <polygon class="Letter" points="625,336 633,336 633,345 625,345 625,336"/>
        <polygon class="Letter" points="449,348 495,348 495,357 449,357 449,348"/>
        <polygon class="Letter" points="505,348 512,348 512,357 505,357 505,348"/>
        <polygon class="Letter" points="513,348 520,348 520,357 513,357 513,348"/>
        <polygon class="Letter" points="527,348 543,348 543,357 527,357 527,348"/>
        <polygon class="Letter" points="550,348 557,348 557,357 550,357 550,348"/>
        <polygon class="Letter" points="558,348 575,348 575,357 558,357 558,348"/>
        <polygon class="Letter" points="576,348 583,348 583,357 576,357 576,348"/>
        <polygon class="Letter" points="584,348 592,348 592,357 584,357 584,348"/>
        <polygon class="Letter" points="593,348 601,348 601,357 593,357 593,348"/>
        <polygon class="Letter" points="601,348 607,348 607,357 601,357 601,348"/>
        <polygon class="Letter" points="608,348 628,348 628,357 608,357 608,348"/>
        <polygon class="Letter" points="504,359 518,359 518,369 504,369 504,359"/>
        <polygon class="Letter" points="518,359 526,359 526,369 518,369 518,359"/>
        <polygon class="Letter" points="556,359 572,359 572,369 556,369 556,359"/>
        <polygon class="Letter" points="533,360 542,360 542,368 533,368 533,360"/>
        <polygon class="Letter" points="543,360 555,360 555,369 543,369 543,360"/>
        <polygon class="Letter" points="466,388 490,388 490,397 466,397 466,388"/>
        <polygon class="Letter" points="449,399 481,399 481,410 449,410 449,399"/>
        <polygon class="Letter" points="482,399 499,399 499,408 482,408 482,399"/>
        <polygon class="Letter" points="500,399 508,399 508,408 500,408 500,399"/>
        <polygon class="Letter" points="447,411 453,411 453,419 447,419 447,411"/>
        <polygon class="Letter" points="454,411 461,411 461,419 454,419 454,411"/>
        <polygon class="Letter" points="462,411 490,411 490,419 462,419 462,411"/>
        <polygon class="Letter" points="491,411 499,411 499,419 491,419 491,411"/>
        <polygon class="Letter" points="507,411 509,411 509,417 507,417 507,411"/>
        <polygon class="Letter" points="206,433 208,433 208,438 206,438 206,433"/>
        <polygon class="Letter" points="200,434 205,434 205,439 200,439 200,434"/>
        <polygon class="Letter" points="93,437 104,437 104,451 93,451 93,437"/>
        <polygon class="Letter" points="184,439 198,439 198,463 184,463 184,439"/>
        <polygon class="Letter" points="169,441 183,441 183,456 169,456 169,441"/>
        <polygon class="Letter" points="93,447 101,447 101,463 93,463 93,447"/>
        <polygon class="Letter" points="198,448 211,448 211,465 198,465 198,448"/>
        <polygon class="Letter" points="173,452 184,452 184,469 173,469 173,452"/>
        <polygon class="Letter" points="166,456 173,456 173,464 166,464 166,456"/>
        <polygon class="Letter" points="191,457 201,457 201,468 191,468 191,457"/>
        <polygon class="Letter" points="462,471 492,471 492,505 462,505 462,471"/>
        <polygon class="Letter" points="444,477 461,477 461,512 444,512 444,477"/>
        <polygon class="Letter" points="93,531 117,531 117,558 93,558 93,531"/>
        <polygon class="Letter" points="83,541 97,541 97,561 83,561 83,541"/>
        <polygon class="Letter" points="114,541 127,541 127,556 114,556 114,541"/>
        <polygon class="Letter" points="492,564 497,564 497,571 492,571 492,564"/>
        <polygon class="Letter" points="496,565 499,565 499,570 496,570 496,565"/>
        <polygon class="Letter" points="323,570 327,570 327,575 323,575 323,570"/>
        <polygon class="Letter" points="328,570 330,570 330,575 328,575 328,570"/>
        <polygon class="Letter" points="567,570 571,570 571,580 567,580 567,570"/>
        <polygon class="Letter" points="572,570 592,570 592,583 572,583 572,570"/>
        <polygon class="Letter" points="593,571 600,571 600,583 593,583 593,571"/>
        <polygon class="Letter" points="601,571 611,571 611,582 601,582 601,571"/>
        <polygon class="Letter" points="561,572 564,572 564,577 561,577 561,572"/>
        <polygon class="Letter" points="560,572 568,572 568,581 560,581 560,572"/>
        <polygon class="Letter" points="555,573 559,573 559,580 555,580 555,573"/>
        <polygon class="Letter" points="101,582 107,582 107,589 101,589 101,582"/>
        <polygon class="Letter" points="106,582 109,582 109,587 106,587 106,582"/>
        <polygon class="Letter" points="559,587 564,587 564,595 559,595 559,587"/>
        <polygon class="Letter" points="564,587 567,587 567,595 564,595 564,587"/>
        <polygon class="Letter" points="556,588 561,588 561,594 556,594 556,588"/>
        <polygon class="Letter" points="482,589 493,589 493,606 482,606 482,589"/>
        <polygon class="Letter" points="568,589 571,589 571,594 568,594 568,589"/>
        <polygon class="Letter" points="288,591 293,591 293,598 288,598 288,591"/>
        <polygon class="Letter" points="293,591 296,591 296,597 293,597 293,591"/>
        <polygon class="Letter" points="485,592 495,592 495,608 485,608 485,592"/>
        <polygon class="Letter" points="325,598 330,598 330,605 325,605 325,598"/>
        <polygon class="Letter" points="330,598 333,598 333,605 330,605 330,598"/>
        <polygon class="Letter" points="682,600 685,600 685,608 682,608 682,600"/>
        <polygon class="Letter" points="677,601 682,601 682,609 677,609 677,601"/>
        <polygon class="Letter" points="686,602 688,602 688,608 686,608 686,602"/>
        <polygon class="Letter" points="674,603 678,603 678,608 674,608 674,603"/>
        <polygon class="Letter" points="246,642 254,642 254,651 246,651 246,642"/>
        <polygon class="Letter" points="255,642 262,642 262,651 255,651 255,642"/>
        <polygon class="Letter" points="270,642 288,642 288,651 270,651 270,642"/>
        <polygon class="Letter" points="295,642 322,642 322,651 295,651 295,642"/>
        <polygon class="Letter" points="330,642 340,642 340,652 330,652 330,642"/>
        <polygon class="Letter" points="341,642 349,642 349,651 341,651 341,642"/>
        <polygon class="Letter" points="356,642 366,642 366,652 356,652 356,642"/>
        <polygon class="Letter" points="367,642 383,642 383,651 367,651 367,642"/>
        <polygon class="Letter" points="323,643 330,643 330,651 323,651 323,643"/>
        <polygon class="Letter" points="489,649 504,649 504,667 489,667 489,649"/>
        <polygon class="Letter" points="246,655 263,655 263,666 246,666 246,655"/>
        <polygon class="Letter" points="264,655 281,655 281,664 264,664 264,655"/>
        <polygon class="Letter" points="288,655 333,655 333,664 288,664 288,655"/>
        <polygon class="Letter" points="341,655 348,655 348,664 341,664 341,655"/>
        <polygon class="Letter" points="349,655 357,655 357,664 349,664 349,655"/>
        <polygon class="Letter" points="358,655 382,655 382,664 358,664 358,655"/>
        <polygon class="Letter" points="501,662 510,662 510,685 501,685 501,662"/>
        <polygon class="Letter" points="246,667 263,667 263,676 246,676 246,667"/>
        <polygon class="Letter" points="264,667 281,667 281,676 264,676 264,667"/>
        <polygon class="Letter" points="282,667 298,667 298,676 282,676 282,667"/>
        <polygon class="Letter" points="305,667 322,667 322,676 305,676 305,667"/>
        <polygon class="Letter" points="323,667 341,667 341,676 323,676 323,667"/>
        <polygon class="Letter" points="348,667 383,667 383,678 348,678 348,667"/>
        <polygon class="Letter" points="235,679 269,679 269,689 235,689 235,679"/>
        <polygon class="Letter" points="270,680 277,680 277,689 270,689 270,680"/>
        <polygon class="Letter" points="278,680 287,680 287,689 278,689 278,680"/>
        <polygon class="Letter" points="295,680 313,680 313,689 295,689 295,680"/>
        <polygon class="Letter" points="314,680 321,680 321,689 314,689 314,680"/>
        <polygon class="Letter" points="322,680 338,680 338,689 322,689 322,680"/>
        <polygon class="Letter" points="346,680 383,680 383,689 346,689 346,680"/>
        <polygon class="Letter" points="91,684 104,684 104,696 91,696 91,684"/>
        <polygon class="Letter" points="105,684 126,684 126,696 105,696 105,684"/>
        <polygon class="Letter" points="127,684 139,684 139,696 127,696 127,684"/>
        <polygon class="Letter" points="140,684 150,684 150,696 140,696 140,684"/>
        <polygon class="Letter" points="161,684 173,684 173,696 161,696 161,684"/>
        <polygon class="Letter" points="174,684 184,684 184,696 174,696 174,684"/>
        <polygon class="Letter" points="501,689 508,689 508,728 501,728 501,689"/>
        <polygon class="Letter" points="255,692 262,692 262,701 255,701 255,692"/>
        <polygon class="Letter" points="263,692 276,692 276,701 263,701 263,692"/>
        <polygon class="Letter" points="284,692 290,692 290,701 284,701 284,692"/>
        <polygon class="Letter" points="290,692 298,692 298,701 290,701 290,692"/>
        <polygon class="Letter" points="305,692 314,692 314,701 305,701 305,692"/>
        <polygon class="Letter" points="315,692 371,692 371,701 315,701 315,692"/>
        <polygon class="Letter" points="108,702 119,702 119,714 108,714 108,702"/>
        <polygon class="Letter" points="120,702 130,702 130,714 120,714 120,702"/>
        <polygon class="Letter" points="131,702 141,702 141,714 131,714 131,702"/>
        <polygon class="Letter" points="145,702 154,702 154,714 145,714 145,702"/>
        <polygon class="Letter" points="155,702 167,702 167,714 155,714 155,702"/>
        <polygon class="Letter" points="141,703 144,703 144,714 141,714 141,703"/>
        <polygon class="Letter" points="247,704 253,704 253,713 247,713 247,704"/>
        <polygon class="Letter" points="254,704 268,704 268,713 254,713 254,704"/>
        <polygon class="Letter" points="269,704 276,704 276,713 269,713 269,704"/>
        <polygon class="Letter" points="277,704 284,704 284,713 277,713 277,704"/>
        <polygon class="Letter" points="292,704 306,704 306,713 292,713 292,704"/>
        <polygon class="Letter" points="313,704 332,704 332,713 313,713 313,704"/>
        <polygon class="Letter" points="332,704 341,704 341,713 332,713 332,704"/>
        <polygon class="Letter" points="349,704 357,704 357,713 349,713 349,704"/>
        <polygon class="Letter" points="365,704 382,704 382,713 365,713 365,704"/>
        <polygon class="Letter" points="341,705 348,705 348,713 341,713 341,705"/>
        <polygon class="Letter" points="509,711 513,711 513,763 509,763 509,711"/>
        <polygon class="Letter" points="250,717 268,717 268,726 250,726 250,717"/>
        <polygon class="Letter" points="275,717 302,717 302,726 275,726 275,717"/>
        <polygon class="Letter" points="303,717 318,717 318,726 303,726 303,717"/>
        <polygon class="Letter" points="328,717 336,717 336,726 328,726 328,717"/>
        <polygon class="Letter" points="337,717 356,717 356,726 337,726 337,717"/>
        <polygon class="Letter" points="357,717 366,717 366,726 357,726 357,717"/>
        <polygon class="Letter" points="94,719 120,719 120,731 94,731 94,719"/>
        <polygon class="Letter" points="121,720 133,720 133,731 121,731 121,720"/>
        <polygon class="Letter" points="134,720 144,720 144,731 134,731 134,720"/>
        <polygon class="Letter" points="144,720 157,720 157,731 144,731 144,720"/>
        <polygon class="Letter" points="158,720 168,720 168,731 158,731 158,720"/>
        <polygon class="Letter" points="169,720 180,720 180,731 169,731 169,720"/>
        <polygon class="Letter" points="131,737 134,737 134,746 131,746 131,737"/>
        <polygon class="Letter" points="135,737 140,737 140,750 135,750 135,737"/>
        <polygon class="Letter" points="142,737 146,737 146,746 142,746 142,737"/>
        <polygon class="Letter" points="619,764 620,764 620,772 619,772 619,764"/>
        <polygon class="Letter" points="622,764 625,764 625,777 622,777 622,764"/>
        <polygon class="Letter" points="621,769 631,769 631,780 621,780 621,769"/>
        <polygon class="Letter" points="219,770 228,770 228,776 219,776 219,770"/>
        <polygon class="Letter" points="223,773 229,773 229,780 223,780 223,773"/>
        <polygon class="Letter" points="238,782 253,782 253,812 238,812 238,782"/>
        <polygon class="Letter" points="323,782 331,782 331,790 323,790 323,782"/>
        <polygon class="Letter" points="332,782 348,782 348,790 332,790 332,782"/>
        <polygon class="Letter" points="264,784 293,784 293,834 264,834 264,784"/>
        <polygon class="Letter" points="506,804 509,804 509,809 506,809 506,804"/>
        <polygon class="Letter" points="510,804 512,804 512,809 510,809 510,804"/>
        <polygon class="Letter" points="332,806 336,806 336,812 332,812 332,806"/>
        <polygon class="Letter" points="337,806 343,806 343,812 337,812 337,806"/>
        <polygon class="Letter" points="519,806 528,806 528,815 519,815 519,806"/>
        <polygon class="Letter" points="329,808 333,808 333,813 329,813 329,808"/>
        <polygon class="Letter" points="432,816 442,816 442,830 432,830 432,816"/>
        <polygon class="Letter" points="445,816 451,816 451,826 445,826 445,816"/>
        <polygon class="Letter" points="452,817 467,817 467,833 452,833 452,817"/>
        <polygon class="Letter" points="463,818 477,818 477,835 463,835 463,818"/>
        <polygon class="Letter" points="474,826 476,826 476,838 474,838 474,826"/>
        <polygon class="Letter" points="437,829 442,829 442,843 437,843 437,829"/>
        <polygon class="Letter" points="706,837 710,837 710,843 706,843 706,837"/>
        <polygon class="Letter" points="703,839 707,839 707,844 703,844 703,839"/>
        <polygon class="Letter" points="590,840 595,840 595,846 590,846 590,840"/>
        <polygon class="Letter" points="596,840 600,840 600,846 596,846 596,840"/>
        <polygon class="Letter" points="442,861 449,861 449,870 442,870 442,861"/>
        <polygon class="Letter" points="450,861 457,861 457,870 450,870 450,861"/>
        <polygon class="Letter" points="458,861 467,861 467,870 458,870 458,861"/>
        <polygon class="Letter" points="480,861 488,861 488,870 480,870 480,861"/>
        <polygon class="Letter" points="489,861 496,861 496,870 489,870 489,861"/>
        <polygon class="Letter" points="416,866 419,866 419,871 416,871 416,866"/>
        <polygon class="Letter" points="413,867 416,867 416,872 413,872 413,867"/>
        <polygon class="Letter" points="550,868 554,868 554,875 550,875 550,868"/>
        <polygon class="Letter" points="540,869 546,869 546,877 540,877 540,869"/>
        <polygon class="Letter" points="546,869 550,869 550,875 546,875 546,869"/>
        <polygon class="Letter" points="437,873 446,873 446,882 437,882 437,873"/>
        <polygon class="Letter" points="447,873 463,873 463,882 447,882 447,873"/>
        <polygon class="Letter" points="463,873 470,873 470,882 463,882 463,873"/>
        <polygon class="Letter" points="478,873 485,873 485,882 478,882 478,873"/>
        <polygon class="Letter" points="486,873 493,873 493,882 486,882 486,873"/>
        <polygon class="Letter" points="494,873 502,873 502,882 494,882 494,873"/>
        <polygon class="Letter" points="582,877 591,877 591,886 582,886 582,877"/>
        <polygon class="Letter" points="591,877 598,877 598,886 591,886 591,877"/>
        <polygon class="Letter" points="604,877 618,877 618,886 604,886 604,877"/>
        <polygon class="Letter" points="619,877 629,877 629,886 619,886 619,877"/>
        <polygon class="Letter" points="635,877 667,877 667,886 635,886 635,877"/>
        <polygon class="Letter" points="455,884 479,884 479,893 455,893 455,884"/>
        <polygon class="Letter" points="430,885 439,885 439,893 430,893 430,885"/>
        <polygon class="Letter" points="439,885 447,885 447,893 439,893 439,885"/>
        <polygon class="Letter" points="480,885 487,885 487,893 480,893 480,885"/>
        <polygon class="Letter" points="494,885 509,885 509,893 494,893 494,885"/>
        <polygon class="Letter" points="549,885 574,885 574,897 549,897 549,885"/>
        <polygon class="Letter" points="574,888 601,888 601,897 574,897 574,888"/>
        <polygon class="Letter" points="607,888 622,888 622,899 607,899 607,888"/>
        <polygon class="Letter" points="628,888 662,888 662,897 628,897 628,888"/>
        <polygon class="Letter" points="663,888 678,888 678,897 663,897 663,888"/>
        <polygon class="Letter" points="685,888 693,888 693,897 685,897 685,888"/>
        <polygon class="Letter" points="694,888 701,888 701,897 694,897 694,888"/>
        <polygon class="Letter" points="445,896 471,896 471,905 445,905 445,896"/>
        <polygon class="Letter" points="478,896 494,896 494,905 478,905 478,896"/>
        <polygon class="Letter" points="262,897 265,897 265,903 262,903 262,897"/>
        <polygon class="Letter" points="257,900 259,900 259,905 257,905 257,900"/>
        <polygon class="Letter" points="260,900 262,900 262,906 260,906 260,900"/>
        <polygon class="Letter" points="554,900 560,900 560,908 554,908 554,900"/>
        <polygon class="Letter" points="561,900 576,900 576,908 561,908 561,900"/>
        <polygon class="Letter" points="576,900 613,900 613,908 576,908 576,900"/>
        <polygon class="Letter" points="614,900 623,900 623,908 614,908 614,900"/>
        <polygon class="Letter" points="623,900 632,900 632,908 623,908 623,900"/>
        <polygon class="Letter" points="633,900 649,900 649,908 633,908 633,900"/>
        <polygon class="Letter" points="655,900 679,900 679,910 655,910 655,900"/>
        <polygon class="Letter" points="680,900 687,900 687,908 680,908 680,900"/>
        <polygon class="Letter" points="687,900 696,900 696,910 687,910 687,900"/>
        <polygon class="Letter" points="269,903 271,903 271,909 269,909 269,903"/>
        <polygon class="Letter" points="273,904 280,904 280,915 273,915 273,904"/>
        <polygon class="Letter" points="447,908 453,908 453,917 447,917 447,908"/>
        <polygon class="Letter" points="454,908 463,908 463,917 454,917 454,908"/>
        <polygon class="Letter" points="464,908 473,908 473,917 464,917 464,908"/>
        <polygon class="Letter" points="474,908 485,908 485,917 474,917 474,908"/>
        <polygon class="Letter" points="267,910 277,910 277,928 267,928 267,910"/>
        <polygon class="Letter" points="552,911 560,911 560,920 552,920 552,911"/>
        <polygon class="Letter" points="560,911 574,911 574,920 560,920 560,911"/>
        <polygon class="Letter" points="573,911 583,911 583,920 573,920 573,911"/>
        <polygon class="Letter" points="590,911 599,911 599,920 590,920 590,911"/>
        <polygon class="Letter" points="599,911 653,911 653,920 599,920 599,911"/>
        <polygon class="Letter" points="659,911 667,911 667,920 659,920 659,911"/>
        <polygon class="Letter" points="673,911 698,911 698,920 673,920 673,911"/>
        <polygon class="Letter" points="282,912 286,912 286,919 282,919 282,912"/>
        <polygon class="Letter" points="278,914 281,914 281,920 278,920 278,914"/>
        <polygon class="Letter" points="254,922 258,922 258,933 254,933 254,922"/>
        <polygon class="Letter" points="260,922 266,922 266,929 260,929 260,922"/>
        <polygon class="Letter" points="557,922 589,922 589,931 557,931 557,922"/>
        <polygon class="Letter" points="596,922 653,922 653,931 596,931 596,922"/>
        <polygon class="Letter" points="660,922 692,922 692,931 660,931 660,922"/>
        <polygon class="Letter" points="242,924 249,924 249,936 242,936 242,924"/>
        <polygon class="Letter" points="258,927 260,927 260,933 258,933 258,927"/>
        <polygon class="Letter" points="240,928 245,928 245,937 240,937 240,928"/>
        <polygon class="Letter" points="291,928 295,928 295,936 291,936 291,928"/>
        <polygon class="Letter" points="296,930 299,930 299,936 296,936 296,930"/>
        <polygon class="Letter" points="547,934 585,934 585,942 547,942 547,934"/>
        <polygon class="Letter" points="592,934 613,934 613,942 592,942 592,934"/>
        <polygon class="Letter" points="620,934 655,934 655,942 620,942 620,934"/>
        <polygon class="Letter" points="662,934 702,934 702,943 662,943 662,934"/>
        <polygon class="Letter" points="259,941 262,941 262,948 259,948 259,941"/>
        <polygon class="Letter" points="263,942 266,942 266,948 263,948 263,942"/>
        <polygon class="Letter" points="254,943 258,943 258,948 254,948 254,943"/>
        <polygon class="Letter" points="565,945 600,945 600,954 565,954 565,945"/>
        <polygon class="Letter" points="607,945 623,945 623,954 607,954 607,945"/>
        <polygon class="Letter" points="629,945 684,945 684,954 629,954 629,945"/>
        <polygon class="Letter" points="539,957 544,957 544,970 539,970 539,957"/>
        <polygon class="Letter" points="545,959 548,959 548,969 545,969 545,959"/>
    </svg>
    <svg contentScriptType="text/ecmascript" xmlns:xlink="http://www.w3.org/1999/xlink" zoomAndPan="magnify" class="Object" contentStyleType="text/css" preserveAspectRatio="xMidYMid meet" xmlns="http://www.w3.org/2000/svg" version="1.0"/>
    <desc method="Christophe's extractor" lastModificationDate="Fri Aug 24 11:03:22 CEST 2012"/>
</svg>
