<?xml version="1.0" encoding="UTF-8"?>
<svg xmlns:xlink="http://www.w3.org/1999/xlink" xmlns="http://www.w3.org/2000/svg" contentScriptType="text/ecmascript" width="1163mm" zoomAndPan="magnify" contentStyleType="text/css" height="1648mm" viewBox="0 0 2326 3297" preserveAspectRatio="xMidYMid meet" version="1.0">
    <title>JOLIVET_BOSTONPOLICEAFFAIREPRADI_021</title>
    <svg contentScriptType="text/ecmascript" xmlns:xlink="http://www.w3.org/1999/xlink" zoomAndPan="magnify" class="Page" contentStyleType="text/css" preserveAspectRatio="xMidYMid meet" xmlns="http://www.w3.org/2000/svg" version="1.0">
        <image x="0" y="0" fill-opacity="0.5" width="2326" xmlns:xlink="http://www.w3.org/1999/xlink" xlink:href="../JPG/JOLIVET_BOSTONPOLICEAFFAIREPRADI_021.jpg" xlink:type="simple" xlink:actuate="onLoad" opacity="0.5" height="3297" preserveAspectRatio="xMidYMid meet" xlink:show="embed"/>
    </svg>
    <style type="text/css" xml:space="preserve"><![CDATA[
		* { stroke-width: 1; stroke-linejoin: round; }
		.Panel { fill: none; stroke: red; opacity: 1.0; visibility: visible; }
		.Text { fill: green; stroke: none; opacity: 0.5; visibility: visible; }
		.Balloon { fill: none; stroke: cyan; opacity: 1.0; visibility: visible; }
		.Letter { fill: none; stroke: blue; opacity: 1.0; visibility: visible; }
		.Object { fill: none; stroke: yellow; opacity: 1.0; visibility: visible; }
		.Page { fill: none; stroke: white; opacity: 0.5; visibility: visible; image-rendering: optimizeSpeed; }
		.Noise { fill: none; stroke: pink; opacity: 1.0; visibility: hidden; }
		.Unclassified { fill: none; stroke: orange; opacity: 1.0; visibility: hidden; }
]]></style>
    <svg contentScriptType="text/ecmascript" xmlns:xlink="http://www.w3.org/1999/xlink" zoomAndPan="magnify" class="Panel" contentStyleType="text/css" preserveAspectRatio="xMidYMid meet" xmlns="http://www.w3.org/2000/svg" version="1.0"/>
    <svg contentScriptType="text/ecmascript" xmlns:xlink="http://www.w3.org/1999/xlink" zoomAndPan="magnify" class="Text" contentStyleType="text/css" preserveAspectRatio="xMidYMid meet" xmlns="http://www.w3.org/2000/svg" version="1.0">
        <polygon class="Text" points="1289,217 1461,217 1461,240 1289,240 1289,217"/>
        <polygon class="Text" points="1244,244 1500,244 1500,272 1244,272 1244,244"/>
        <polygon class="Text" points="1905,825 2017,825 2017,846 1905,846 1905,825"/>
        <polygon class="Text" points="1836,852 2085,852 2085,875 1836,875 1836,852"/>
        <polygon class="Text" points="1810,877 2114,877 2114,901 1810,901 1810,877"/>
        <polygon class="Text" points="1901,907 2023,907 2023,935 1901,935 1901,907"/>
        <polygon class="Text" points="192,1494 398,1494 398,1523 192,1523 192,1494"/>
        <polygon class="Text" points="232,1528 359,1528 359,1556 232,1556 232,1528"/>
        <polygon class="Text" points="216,1563 350,1563 350,1590 216,1590 216,1563"/>
        <polygon class="Text" points="185,2438 361,2438 361,2462 185,2462 185,2438"/>
        <polygon class="Text" points="196,2460 352,2460 352,2488 196,2488 196,2460"/>
        <polygon class="Text" points="1114,3157 1142,3157 1142,3186 1114,3186 1114,3157"/>
    </svg>
    <svg contentScriptType="text/ecmascript" xmlns:xlink="http://www.w3.org/1999/xlink" zoomAndPan="magnify" class="Balloon" contentStyleType="text/css" preserveAspectRatio="xMidYMid meet" xmlns="http://www.w3.org/2000/svg" version="1.0"/>
    <svg contentScriptType="text/ecmascript" xmlns:xlink="http://www.w3.org/1999/xlink" zoomAndPan="magnify" class="Letter" contentStyleType="text/css" preserveAspectRatio="xMidYMid meet" xmlns="http://www.w3.org/2000/svg" version="1.0">
        <polygon class="Letter" points="1442,217 1446,217 1446,239 1442,239 1442,217"/>
        <polygon class="Letter" points="1371,218 1384,218 1384,240 1371,240 1371,218"/>
        <polygon class="Letter" points="1448,219 1461,219 1461,239 1448,239 1448,219"/>
        <polygon class="Letter" points="1304,220 1318,220 1318,240 1304,240 1304,220"/>
        <polygon class="Letter" points="1343,220 1359,220 1359,240 1343,240 1343,220"/>
        <polygon class="Letter" points="1384,220 1398,220 1398,239 1384,239 1384,220"/>
        <polygon class="Letter" points="1399,220 1427,220 1427,239 1399,239 1399,220"/>
        <polygon class="Letter" points="1426,220 1441,220 1441,238 1426,238 1426,220"/>
        <polygon class="Letter" points="1289,221 1303,221 1303,239 1289,239 1289,221"/>
        <polygon class="Letter" points="1330,221 1344,221 1344,239 1330,239 1330,221"/>
        <polygon class="Letter" points="1481,244 1485,244 1485,266 1481,266 1481,244"/>
        <polygon class="Letter" points="1451,245 1465,245 1465,265 1451,265 1451,245"/>
        <polygon class="Letter" points="1308,246 1321,246 1321,266 1308,266 1308,246"/>
        <polygon class="Letter" points="1367,246 1379,246 1379,272 1367,272 1367,246"/>
        <polygon class="Letter" points="1408,246 1423,246 1423,265 1408,265 1408,246"/>
        <polygon class="Letter" points="1487,246 1500,246 1500,266 1487,266 1487,246"/>
        <polygon class="Letter" points="1244,247 1260,247 1260,268 1244,268 1244,247"/>
        <polygon class="Letter" points="1323,247 1336,247 1336,267 1323,267 1323,247"/>
        <polygon class="Letter" points="1339,247 1353,247 1353,267 1339,267 1339,247"/>
        <polygon class="Letter" points="1379,247 1395,247 1395,267 1379,267 1379,247"/>
        <polygon class="Letter" points="1424,247 1437,247 1437,266 1424,266 1424,247"/>
        <polygon class="Letter" points="1466,247 1480,247 1480,265 1466,265 1466,247"/>
        <polygon class="Letter" points="1261,248 1275,248 1275,267 1261,267 1261,248"/>
        <polygon class="Letter" points="1277,248 1291,248 1291,267 1277,267 1277,248"/>
        <polygon class="Letter" points="1292,248 1307,248 1307,266 1292,266 1292,248"/>
        <polygon class="Letter" points="2010,825 2017,825 2017,846 2010,846 2010,825"/>
        <polygon class="Letter" points="1905,826 1936,826 1936,846 1905,846 1905,826"/>
        <polygon class="Letter" points="1938,826 1953,826 1953,846 1938,846 1938,826"/>
        <polygon class="Letter" points="1971,826 1985,826 1985,846 1971,846 1971,826"/>
        <polygon class="Letter" points="1986,826 1999,826 1999,846 1986,846 1986,826"/>
        <polygon class="Letter" points="1953,827 1970,827 1970,846 1953,846 1953,827"/>
        <polygon class="Letter" points="1836,852 1891,852 1891,875 1836,875 1836,852"/>
        <polygon class="Letter" points="1904,852 1941,852 1941,874 1904,874 1904,852"/>
        <polygon class="Letter" points="1956,852 1986,852 1986,873 1956,873 1956,852"/>
        <polygon class="Letter" points="1984,852 2009,852 2009,872 1984,872 1984,852"/>
        <polygon class="Letter" points="2038,852 2085,852 2085,873 2038,873 2038,852"/>
        <polygon class="Letter" points="1941,853 1955,853 1955,873 1941,873 1941,853"/>
        <polygon class="Letter" points="2009,853 2024,853 2024,873 2009,873 2009,853"/>
        <polygon class="Letter" points="2099,877 2114,877 2114,899 2099,899 2099,877"/>
        <polygon class="Letter" points="1991,879 2055,879 2055,901 1991,901 1991,879"/>
        <polygon class="Letter" points="2072,879 2086,879 2086,900 2072,900 2072,879"/>
        <polygon class="Letter" points="1810,880 1830,880 1830,901 1810,901 1810,880"/>
        <polygon class="Letter" points="1845,880 1875,880 1875,901 1845,901 1845,880"/>
        <polygon class="Letter" points="1887,880 1934,880 1934,901 1887,901 1887,880"/>
        <polygon class="Letter" points="1948,880 1963,880 1963,900 1948,900 1948,880"/>
        <polygon class="Letter" points="1963,880 1978,880 1978,900 1963,900 1963,880"/>
        <polygon class="Letter" points="1830,881 1844,881 1844,901 1830,901 1830,881"/>
        <polygon class="Letter" points="2053,881 2071,881 2071,899 2053,899 2053,881"/>
        <polygon class="Letter" points="1957,907 1980,907 1980,935 1957,935 1957,907"/>
        <polygon class="Letter" points="1901,908 1917,908 1917,935 1901,935 1901,908"/>
        <polygon class="Letter" points="2016,908 2023,908 2023,934 2016,934 2016,908"/>
        <polygon class="Letter" points="1938,909 1955,909 1955,934 1938,934 1938,909"/>
        <polygon class="Letter" points="1981,909 1998,909 1998,934 1981,934 1981,909"/>
        <polygon class="Letter" points="1919,910 1936,910 1936,935 1919,935 1919,910"/>
        <polygon class="Letter" points="1131,1428 2186,1428 2186,2004 1131,2004 1131,1428"/>
        <polygon class="Letter" points="349,1494 355,1494 355,1521 349,1521 349,1494"/>
        <polygon class="Letter" points="292,1496 310,1496 310,1521 292,1521 292,1496"/>
        <polygon class="Letter" points="356,1496 373,1496 373,1521 356,1521 356,1496"/>
        <polygon class="Letter" points="192,1497 210,1497 210,1523 192,1523 192,1497"/>
        <polygon class="Letter" points="211,1497 229,1497 229,1521 211,1521 211,1497"/>
        <polygon class="Letter" points="229,1497 254,1497 254,1522 229,1522 229,1497"/>
        <polygon class="Letter" points="327,1497 348,1497 348,1521 327,1521 327,1497"/>
        <polygon class="Letter" points="375,1497 398,1497 398,1523 375,1523 375,1497"/>
        <polygon class="Letter" points="269,1498 291,1498 291,1521 269,1521 269,1498"/>
        <polygon class="Letter" points="323,1528 359,1528 359,1555 323,1555 323,1528"/>
        <polygon class="Letter" points="251,1530 269,1530 269,1556 251,1556 251,1530"/>
        <polygon class="Letter" points="285,1530 303,1530 303,1556 285,1556 285,1530"/>
        <polygon class="Letter" points="304,1530 322,1530 322,1554 304,1554 304,1530"/>
        <polygon class="Letter" points="232,1531 251,1531 251,1555 232,1555 232,1531"/>
        <polygon class="Letter" points="236,1563 272,1563 272,1589 236,1589 236,1563"/>
        <polygon class="Letter" points="270,1563 291,1563 291,1590 270,1590 270,1563"/>
        <polygon class="Letter" points="291,1563 332,1563 332,1589 291,1589 291,1563"/>
        <polygon class="Letter" points="333,1563 350,1563 350,1588 333,1588 333,1563"/>
        <polygon class="Letter" points="216,1564 237,1564 237,1590 216,1590 216,1564"/>
        <polygon class="Letter" points="1135,2020 2189,2020 2189,2356 1135,2356 1135,2020"/>
        <polygon class="Letter" points="1137,2370 2195,2370 2195,3089 1137,3089 1137,2370"/>
        <polygon class="Letter" points="185,2438 225,2438 225,2460 185,2460 185,2438"/>
        <polygon class="Letter" points="301,2438 331,2438 331,2460 301,2460 301,2438"/>
        <polygon class="Letter" points="346,2438 361,2438 361,2459 346,2459 346,2438"/>
        <polygon class="Letter" points="225,2439 239,2439 239,2459 225,2459 225,2439"/>
        <polygon class="Letter" points="271,2439 285,2439 285,2459 271,2459 271,2439"/>
        <polygon class="Letter" points="286,2439 300,2439 300,2459 286,2459 286,2439"/>
        <polygon class="Letter" points="331,2439 345,2439 345,2459 331,2459 331,2439"/>
        <polygon class="Letter" points="240,2440 257,2440 257,2462 240,2462 240,2440"/>
        <polygon class="Letter" points="196,2460 233,2460 233,2487 196,2487 196,2460"/>
        <polygon class="Letter" points="282,2465 327,2465 327,2488 282,2488 282,2465"/>
        <polygon class="Letter" points="345,2465 352,2465 352,2486 345,2486 345,2465"/>
        <polygon class="Letter" points="250,2466 283,2466 283,2486 250,2486 250,2466"/>
        <polygon class="Letter" points="232,2467 250,2467 250,2486 232,2486 232,2467"/>
        <polygon class="Letter" points="1131,3157 1142,3157 1142,3185 1131,3185 1131,3157"/>
        <polygon class="Letter" points="1114,3158 1129,3158 1129,3186 1114,3186 1114,3158"/>
    </svg>
    <svg contentScriptType="text/ecmascript" xmlns:xlink="http://www.w3.org/1999/xlink" zoomAndPan="magnify" class="Object" contentStyleType="text/css" preserveAspectRatio="xMidYMid meet" xmlns="http://www.w3.org/2000/svg" version="1.0"/>
    <desc method="Christophe's extractor" lastModificationDate="Fri Aug 24 11:04:28 CEST 2012"/>
</svg>
