<?xml version="1.0" encoding="UTF-8"?>
<svg xmlns:xlink="http://www.w3.org/1999/xlink" xmlns="http://www.w3.org/2000/svg" contentScriptType="text/ecmascript" width="1203mm" zoomAndPan="magnify" contentStyleType="text/css" height="1682mm" viewBox="0 0 2407 3364" preserveAspectRatio="xMidYMid meet" version="1.0">
    <title>JOLIVET_BOSTONPOLICEAFFAIREPRADI_005</title>
    <svg contentScriptType="text/ecmascript" xmlns:xlink="http://www.w3.org/1999/xlink" zoomAndPan="magnify" class="Page" contentStyleType="text/css" preserveAspectRatio="xMidYMid meet" xmlns="http://www.w3.org/2000/svg" version="1.0">
        <image x="0" y="0" fill-opacity="0.5" width="2407" xmlns:xlink="http://www.w3.org/1999/xlink" xlink:href="../JPG/JOLIVET_BOSTONPOLICEAFFAIREPRADI_005.jpg" xlink:type="simple" xlink:actuate="onLoad" opacity="0.5" height="3364" preserveAspectRatio="xMidYMid meet" xlink:show="embed"/>
    </svg>
    <style type="text/css" xml:space="preserve"><![CDATA[
		* { stroke-width: 1; stroke-linejoin: round; }
		.Panel { fill: none; stroke: red; opacity: 1.0; visibility: visible; }
		.Text { fill: green; stroke: none; opacity: 0.5; visibility: visible; }
		.Balloon { fill: none; stroke: cyan; opacity: 1.0; visibility: visible; }
		.Letter { fill: none; stroke: blue; opacity: 1.0; visibility: visible; }
		.Object { fill: none; stroke: yellow; opacity: 1.0; visibility: visible; }
		.Page { fill: none; stroke: white; opacity: 0.5; visibility: visible; image-rendering: optimizeSpeed; }
		.Noise { fill: none; stroke: pink; opacity: 1.0; visibility: hidden; }
		.Unclassified { fill: none; stroke: orange; opacity: 1.0; visibility: hidden; }
]]></style>
    <svg contentScriptType="text/ecmascript" xmlns:xlink="http://www.w3.org/1999/xlink" zoomAndPan="magnify" class="Panel" contentStyleType="text/css" preserveAspectRatio="xMidYMid meet" xmlns="http://www.w3.org/2000/svg" version="1.0"/>
    <svg contentScriptType="text/ecmascript" xmlns:xlink="http://www.w3.org/1999/xlink" zoomAndPan="magnify" class="Text" contentStyleType="text/css" preserveAspectRatio="xMidYMid meet" xmlns="http://www.w3.org/2000/svg" version="1.0">
        <polygon class="Text" points="87,95 180,95 180,118 87,118 87,95"/>
        <polygon class="Text" points="0,122 257,122 257,148 0,148 0,122"/>
        <polygon class="Text" points="1237,230 1256,230 1256,237 1237,237 1237,230"/>
        <polygon class="Text" points="1213,239 1229,239 1229,244 1213,244 1213,239"/>
        <polygon class="Text" points="759,287 818,287 818,302 759,302 759,287"/>
        <polygon class="Text" points="758,296 842,296 842,310 758,310 758,296"/>
        <polygon class="Text" points="758,309 779,309 779,325 758,325 758,309"/>
        <polygon class="Text" points="759,324 820,324 820,331 759,331 759,324"/>
        <polygon class="Text" points="759,330 821,330 821,353 759,353 759,330"/>
        <polygon class="Text" points="759,353 813,353 813,365 759,365 759,353"/>
        <polygon class="Text" points="787,364 821,364 821,370 787,370 787,364"/>
        <polygon class="Text" points="781,370 821,370 821,377 781,377 781,370"/>
        <polygon class="Text" points="781,376 821,376 821,389 781,389 781,376"/>
        <polygon class="Text" points="787,390 801,390 801,395 787,395 787,390"/>
        <polygon class="Text" points="781,396 809,396 809,402 781,402 781,396"/>
        <polygon class="Text" points="2132,408 2163,408 2163,416 2132,416 2132,408"/>
        <polygon class="Text" points="782,409 820,409 820,415 782,415 782,409"/>
        <polygon class="Text" points="781,415 801,415 801,420 781,420 781,415"/>
        <polygon class="Text" points="2144,417 2156,417 2156,423 2144,423 2144,417"/>
        <polygon class="Text" points="2144,424 2156,424 2156,430 2144,430 2144,424"/>
        <polygon class="Text" points="859,429 877,429 877,439 859,439 859,429"/>
        <polygon class="Text" points="2317,431 2337,431 2337,439 2317,439 2317,431"/>
        <polygon class="Text" points="2319,441 2337,441 2337,446 2319,446 2319,441"/>
        <polygon class="Text" points="1295,441 1322,441 1322,449 1295,449 1295,441"/>
        <polygon class="Text" points="1741,467 1757,467 1757,477 1741,477 1741,467"/>
        <polygon class="Text" points="527,471 545,471 545,485 527,485 527,471"/>
        <polygon class="Text" points="780,476 799,476 799,482 780,482 780,476"/>
        <polygon class="Text" points="1858,1390 2160,1390 2160,1412 1858,1412 1858,1390"/>
        <polygon class="Text" points="1837,1415 2177,1415 2177,1438 1837,1438 1837,1415"/>
        <polygon class="Text" points="441,1423 512,1423 512,1444 441,1444 441,1423"/>
        <polygon class="Text" points="1845,1440 2171,1440 2171,1463 1845,1463 1845,1440"/>
        <polygon class="Text" points="430,1450 505,1450 505,1472 430,1472 430,1450"/>
        <polygon class="Text" points="1836,1465 2182,1465 2182,1489 1836,1489 1836,1465"/>
        <polygon class="Text" points="185,1489 337,1489 337,1511 185,1511 185,1489"/>
        <polygon class="Text" points="1837,1491 2181,1491 2181,1513 1837,1513 1837,1491"/>
        <polygon class="Text" points="1870,1515 2148,1515 2148,1538 1870,1538 1870,1515"/>
        <polygon class="Text" points="147,1517 378,1517 378,1541 147,1541 147,1517"/>
        <polygon class="Text" points="1904,1541 2116,1541 2116,1563 1904,1563 1904,1541"/>
        <polygon class="Text" points="122,1539 402,1539 402,1569 122,1569 122,1539"/>
        <polygon class="Text" points="117,1571 405,1571 405,1595 117,1595 117,1571"/>
        <polygon class="Text" points="112,1599 413,1599 413,1622 112,1622 112,1599"/>
        <polygon class="Text" points="157,1626 361,1626 361,1649 157,1649 157,1626"/>
        <polygon class="Text" points="187,1654 336,1654 336,1676 187,1676 187,1654"/>
        <polygon class="Text" points="201,1681 324,1681 324,1703 201,1703 201,1681"/>
        <polygon class="Text" points="1128,1802 1393,1802 1393,1824 1128,1824 1128,1802"/>
        <polygon class="Text" points="1152,1829 1371,1829 1371,1851 1152,1851 1152,1829"/>
        <polygon class="Text" points="1133,1855 1389,1855 1389,1878 1133,1878 1133,1855"/>
        <polygon class="Text" points="1167,1883 1349,1883 1349,1906 1167,1906 1167,1883"/>
        <polygon class="Text" points="1805,1965 2071,1965 2071,1989 1805,1989 1805,1965"/>
        <polygon class="Text" points="1793,1992 2083,1992 2083,2017 1793,2017 1793,1992"/>
        <polygon class="Text" points="320,2003 344,2003 344,2014 320,2014 320,2003"/>
        <polygon class="Text" points="321,2016 344,2016 344,2029 321,2029 321,2016"/>
        <polygon class="Text" points="1834,2020 2043,2020 2043,2044 1834,2044 1834,2020"/>
        <polygon class="Text" points="1834,2047 2044,2047 2044,2070 1834,2070 1834,2047"/>
        <polygon class="Text" points="1888,2075 1990,2075 1990,2097 1888,2097 1888,2075"/>
        <polygon class="Text" points="829,2367 1030,2367 1030,2389 829,2389 829,2367"/>
        <polygon class="Text" points="429,2393 723,2393 723,2417 429,2417 429,2393"/>
        <polygon class="Text" points="819,2395 1040,2395 1040,2417 819,2417 819,2395"/>
        <polygon class="Text" points="437,2420 716,2420 716,2444 437,2444 437,2420"/>
        <polygon class="Text" points="1670,2424 1711,2424 1711,2458 1670,2458 1670,2424"/>
        <polygon class="Text" points="845,2423 1014,2423 1014,2443 845,2443 845,2423"/>
        <polygon class="Text" points="1932,2432 2172,2432 2172,2453 1932,2453 1932,2432"/>
        <polygon class="Text" points="432,2446 720,2446 720,2471 432,2471 432,2446"/>
        <polygon class="Text" points="811,2449 1050,2449 1050,2472 811,2472 811,2449"/>
        <polygon class="Text" points="1962,2458 2143,2458 2143,2480 1962,2480 1962,2458"/>
        <polygon class="Text" points="1178,2476 1249,2476 1249,2497 1178,2497 1178,2476"/>
        <polygon class="Text" points="431,2474 723,2474 723,2502 431,2502 431,2474"/>
        <polygon class="Text" points="800,2475 1045,2475 1045,2499 800,2499 800,2475"/>
        <polygon class="Text" points="1976,2485 2129,2485 2129,2507 1976,2507 1976,2485"/>
        <polygon class="Text" points="426,2501 728,2501 728,2525 426,2525 426,2501"/>
        <polygon class="Text" points="1118,2503 1300,2503 1300,2524 1118,2524 1118,2503"/>
        <polygon class="Text" points="1093,2528 1333,2528 1333,2552 1093,2552 1093,2528"/>
        <polygon class="Text" points="498,2529 656,2529 656,2552 498,2552 498,2529"/>
        <polygon class="Text" points="1087,2556 1340,2556 1340,2583 1087,2583 1087,2556"/>
        <polygon class="Text" points="522,2556 634,2556 634,2580 522,2580 522,2556"/>
        <polygon class="Text" points="1101,2583 1327,2583 1327,2606 1101,2606 1101,2583"/>
        <polygon class="Text" points="1112,2611 1316,2611 1316,2634 1112,2634 1112,2611"/>
        <polygon class="Text" points="1361,2633 1467,2633 1467,2653 1361,2653 1361,2633"/>
        <polygon class="Text" points="1336,2659 1490,2659 1490,2679 1336,2679 1336,2659"/>
        <polygon class="Text" points="1320,2684 1508,2684 1508,2705 1320,2705 1320,2684"/>
        <polygon class="Text" points="1348,2709 1478,2709 1478,2730 1348,2730 1348,2709"/>
        <polygon class="Text" points="1374,2734 1454,2734 1454,2754 1374,2754 1374,2734"/>
    </svg>
    <svg contentScriptType="text/ecmascript" xmlns:xlink="http://www.w3.org/1999/xlink" zoomAndPan="magnify" class="Balloon" contentStyleType="text/css" preserveAspectRatio="xMidYMid meet" xmlns="http://www.w3.org/2000/svg" version="1.0"/>
    <svg contentScriptType="text/ecmascript" xmlns:xlink="http://www.w3.org/1999/xlink" zoomAndPan="magnify" class="Letter" contentStyleType="text/css" preserveAspectRatio="xMidYMid meet" xmlns="http://www.w3.org/2000/svg" version="1.0">
        <polygon class="Letter" points="132,95 147,95 147,117 132,117 132,95"/>
        <polygon class="Letter" points="118,96 131,96 131,116 118,116 118,96"/>
        <polygon class="Letter" points="161,96 175,96 175,116 161,116 161,96"/>
        <polygon class="Letter" points="87,97 101,97 101,118 87,118 87,97"/>
        <polygon class="Letter" points="146,97 160,97 160,116 146,116 146,97"/>
        <polygon class="Letter" points="103,98 117,98 117,117 103,117 103,98"/>
        <polygon class="Letter" points="175,106 180,106 180,118 175,118 175,106"/>
        <polygon class="Letter" points="185,122 191,122 191,143 185,143 185,122"/>
        <polygon class="Letter" points="192,123 208,123 208,142 192,142 192,123"/>
        <polygon class="Letter" points="209,123 221,123 221,143 209,143 209,123"/>
        <polygon class="Letter" points="121,124 136,124 136,144 121,144 121,124"/>
        <polygon class="Letter" points="138,124 151,124 151,144 138,144 138,124"/>
        <polygon class="Letter" points="154,124 167,124 167,143 154,143 154,124"/>
        <polygon class="Letter" points="223,124 239,124 239,142 223,142 223,124"/>
        <polygon class="Letter" points="240,124 257,124 257,142 240,142 240,124"/>
        <polygon class="Letter" points="71,125 86,125 86,145 71,145 71,125"/>
        <polygon class="Letter" points="87,126 100,126 100,145 87,145 87,126"/>
        <polygon class="Letter" points="101,126 121,126 121,145 101,145 101,126"/>
        <polygon class="Letter" points="57,127 70,127 70,146 57,146 57,127"/>
        <polygon class="Letter" points="12,129 26,129 26,148 12,148 12,129"/>
        <polygon class="Letter" points="38,129 55,129 55,147 38,147 38,129"/>
        <polygon class="Letter" points="0,130 11,130 11,148 0,148 0,130"/>
        <polygon class="Letter" points="168,133 173,133 173,145 168,145 168,133"/>
        <polygon class="Letter" points="258,137 262,137 262,142 258,142 258,137"/>
        <polygon class="Letter" points="263,137 267,137 267,142 263,142 263,137"/>
        <polygon class="Letter" points="269,137 273,137 273,142 269,142 269,137"/>
        <polygon class="Letter" points="1237,230 1246,230 1246,237 1237,237 1237,230"/>
        <polygon class="Letter" points="1247,231 1256,231 1256,236 1247,236 1247,231"/>
        <polygon class="Letter" points="1213,239 1220,239 1220,244 1213,244 1213,239"/>
        <polygon class="Letter" points="1221,239 1229,239 1229,244 1221,244 1221,239"/>
        <polygon class="Letter" points="1238,239 1246,239 1246,244 1238,244 1238,239"/>
        <polygon class="Letter" points="1205,245 1229,245 1229,251 1205,251 1205,245"/>
        <polygon class="Letter" points="786,287 791,287 791,299 786,299 786,287"/>
        <polygon class="Letter" points="799,287 804,287 804,302 799,302 799,287"/>
        <polygon class="Letter" points="812,287 818,287 818,298 812,298 812,287"/>
        <polygon class="Letter" points="792,288 798,288 798,299 792,299 792,288"/>
        <polygon class="Letter" points="805,288 811,288 811,299 805,299 805,288"/>
        <polygon class="Letter" points="764,289 770,289 770,300 764,300 764,289"/>
        <polygon class="Letter" points="771,289 778,289 778,299 771,299 771,289"/>
        <polygon class="Letter" points="779,289 784,289 784,299 779,299 779,289"/>
        <polygon class="Letter" points="759,291 763,291 763,301 759,301 759,291"/>
        <polygon class="Letter" points="828,296 842,296 842,310 828,310 828,296"/>
        <polygon class="Letter" points="1199,296 1215,296 1215,306 1199,306 1199,296"/>
        <polygon class="Letter" points="801,300 821,300 821,307 801,307 801,300"/>
        <polygon class="Letter" points="758,301 778,301 778,308 758,308 758,301"/>
        <polygon class="Letter" points="779,301 802,301 802,308 779,308 779,301"/>
        <polygon class="Letter" points="1199,307 1215,307 1215,313 1199,313 1199,307"/>
        <polygon class="Letter" points="758,309 764,309 764,325 758,325 758,309"/>
        <polygon class="Letter" points="765,309 779,309 779,319 765,319 765,309"/>
        <polygon class="Letter" points="786,318 816,318 816,324 786,324 786,318"/>
        <polygon class="Letter" points="765,320 770,320 770,325 765,325 765,320"/>
        <polygon class="Letter" points="779,320 785,320 785,325 779,325 779,320"/>
        <polygon class="Letter" points="808,324 814,324 814,329 808,329 808,324"/>
        <polygon class="Letter" points="815,324 820,324 820,329 815,329 815,324"/>
        <polygon class="Letter" points="779,325 785,325 785,330 779,330 779,325"/>
        <polygon class="Letter" points="787,325 793,325 793,330 787,330 787,325"/>
        <polygon class="Letter" points="795,325 801,325 801,330 795,330 795,325"/>
        <polygon class="Letter" points="801,325 807,325 807,330 801,330 801,325"/>
        <polygon class="Letter" points="759,326 764,326 764,331 759,331 759,326"/>
        <polygon class="Letter" points="766,326 778,326 778,331 766,331 766,326"/>
        <polygon class="Letter" points="787,330 793,330 793,336 787,336 787,330"/>
        <polygon class="Letter" points="809,330 821,330 821,336 809,336 809,330"/>
        <polygon class="Letter" points="778,331 786,331 786,337 778,337 778,331"/>
        <polygon class="Letter" points="794,331 800,331 800,336 794,336 794,331"/>
        <polygon class="Letter" points="759,332 765,332 765,337 759,337 759,332"/>
        <polygon class="Letter" points="765,332 777,332 777,348 765,348 765,332"/>
        <polygon class="Letter" points="786,337 799,337 799,346 786,346 786,337"/>
        <polygon class="Letter" points="801,337 819,337 819,347 801,347 801,337"/>
        <polygon class="Letter" points="759,338 771,338 771,353 759,353 759,338"/>
        <polygon class="Letter" points="778,338 785,338 785,347 778,347 778,338"/>
        <polygon class="Letter" points="772,343 784,343 784,353 772,353 772,343"/>
        <polygon class="Letter" points="793,347 800,347 800,352 793,352 793,347"/>
        <polygon class="Letter" points="801,347 807,347 807,352 801,352 801,347"/>
        <polygon class="Letter" points="808,347 821,347 821,352 808,352 808,347"/>
        <polygon class="Letter" points="779,353 790,353 790,359 779,359 779,353"/>
        <polygon class="Letter" points="791,353 799,353 799,358 791,358 791,353"/>
        <polygon class="Letter" points="800,353 807,353 807,358 800,358 800,353"/>
        <polygon class="Letter" points="808,353 813,353 813,358 808,358 808,353"/>
        <polygon class="Letter" points="759,354 771,354 771,365 759,365 759,354"/>
        <polygon class="Letter" points="773,354 778,354 778,359 773,359 773,354"/>
        <polygon class="Letter" points="807,359 821,359 821,364 807,364 807,359"/>
        <polygon class="Letter" points="772,360 792,360 792,365 772,365 772,360"/>
        <polygon class="Letter" points="815,364 821,364 821,369 815,369 815,364"/>
        <polygon class="Letter" points="787,365 793,365 793,370 787,370 787,365"/>
        <polygon class="Letter" points="794,365 814,365 814,370 794,370 794,365"/>
        <polygon class="Letter" points="773,366 779,366 779,371 773,371 773,366"/>
        <polygon class="Letter" points="815,370 821,370 821,376 815,376 815,370"/>
        <polygon class="Letter" points="781,371 792,371 792,377 781,377 781,371"/>
        <polygon class="Letter" points="795,371 801,371 801,376 795,376 795,371"/>
        <polygon class="Letter" points="802,371 807,371 807,376 802,376 802,371"/>
        <polygon class="Letter" points="808,371 814,371 814,376 808,376 808,371"/>
        <polygon class="Letter" points="814,376 820,376 820,382 814,382 814,376"/>
        <polygon class="Letter" points="794,377 807,377 807,388 794,388 794,377"/>
        <polygon class="Letter" points="781,378 793,378 793,389 781,389 781,378"/>
        <polygon class="Letter" points="802,383 808,383 808,388 802,388 802,383"/>
        <polygon class="Letter" points="809,383 821,383 821,388 809,388 809,383"/>
        <polygon class="Letter" points="787,390 793,390 793,395 787,395 787,390"/>
        <polygon class="Letter" points="796,390 801,390 801,395 796,395 796,390"/>
        <polygon class="Letter" points="529,394 541,394 541,399 529,399 529,394"/>
        <polygon class="Letter" points="781,396 794,396 794,402 781,402 781,396"/>
        <polygon class="Letter" points="796,396 802,396 802,402 796,402 796,396"/>
        <polygon class="Letter" points="804,396 809,396 809,401 804,401 804,396"/>
        <polygon class="Letter" points="529,400 541,400 541,405 529,405 529,400"/>
        <polygon class="Letter" points="795,403 801,403 801,408 795,408 795,403"/>
        <polygon class="Letter" points="811,403 822,403 822,408 811,408 811,403"/>
        <polygon class="Letter" points="529,406 541,406 541,411 529,411 529,406"/>
        <polygon class="Letter" points="2132,408 2137,408 2137,416 2132,416 2132,408"/>
        <polygon class="Letter" points="2138,408 2143,408 2143,415 2138,415 2138,408"/>
        <polygon class="Letter" points="2144,408 2150,408 2150,415 2144,415 2144,408"/>
        <polygon class="Letter" points="2151,408 2156,408 2156,415 2151,415 2151,408"/>
        <polygon class="Letter" points="2157,408 2163,408 2163,415 2157,415 2157,408"/>
        <polygon class="Letter" points="794,409 801,409 801,414 794,414 794,409"/>
        <polygon class="Letter" points="803,409 809,409 809,414 803,414 803,409"/>
        <polygon class="Letter" points="810,409 820,409 820,414 810,414 810,409"/>
        <polygon class="Letter" points="782,410 793,410 793,415 782,415 782,410"/>
        <polygon class="Letter" points="529,411 541,411 541,416 529,416 529,411"/>
        <polygon class="Letter" points="781,415 794,415 794,420 781,420 781,415"/>
        <polygon class="Letter" points="795,415 801,415 801,420 795,420 795,415"/>
        <polygon class="Letter" points="2144,417 2149,417 2149,423 2144,423 2144,417"/>
        <polygon class="Letter" points="2150,417 2156,417 2156,423 2150,423 2150,417"/>
        <polygon class="Letter" points="2144,424 2149,424 2149,430 2144,430 2144,424"/>
        <polygon class="Letter" points="2150,425 2156,425 2156,430 2150,430 2150,425"/>
        <polygon class="Letter" points="859,429 877,429 877,438 859,438 859,429"/>
        <polygon class="Letter" points="2317,431 2327,431 2327,436 2317,436 2317,431"/>
        <polygon class="Letter" points="2326,431 2337,431 2337,439 2326,439 2326,431"/>
        <polygon class="Letter" points="868,434 876,434 876,439 868,439 868,434"/>
        <polygon class="Letter" points="859,438 867,438 867,444 859,444 859,438"/>
        <polygon class="Letter" points="1309,441 1322,441 1322,448 1309,448 1309,441"/>
        <polygon class="Letter" points="2319,441 2327,441 2327,446 2319,446 2319,441"/>
        <polygon class="Letter" points="2329,441 2337,441 2337,446 2329,446 2329,441"/>
        <polygon class="Letter" points="1295,442 1309,442 1309,449 1295,449 1295,442"/>
        <polygon class="Letter" points="859,445 876,445 876,450 859,450 859,445"/>
        <polygon class="Letter" points="859,450 866,450 866,455 859,455 859,450"/>
        <polygon class="Letter" points="860,456 867,456 867,461 860,461 860,456"/>
        <polygon class="Letter" points="860,467 866,467 866,472 860,472 860,467"/>
        <polygon class="Letter" points="1750,467 1757,467 1757,476 1750,476 1750,467"/>
        <polygon class="Letter" points="1741,469 1748,469 1748,477 1741,477 1741,469"/>
        <polygon class="Letter" points="527,471 538,471 538,485 527,485 527,471"/>
        <polygon class="Letter" points="866,471 876,471 876,477 866,477 866,471"/>
        <polygon class="Letter" points="539,472 545,472 545,480 539,480 539,472"/>
        <polygon class="Letter" points="780,476 789,476 789,482 780,482 780,476"/>
        <polygon class="Letter" points="790,476 799,476 799,482 790,482 790,476"/>
        <polygon class="Letter" points="1742,478 1749,478 1749,484 1742,484 1742,478"/>
        <polygon class="Letter" points="653,641 672,641 672,646 653,646 653,641"/>
        <polygon class="Letter" points="653,646 672,646 672,651 653,651 653,646"/>
        <polygon class="Letter" points="2036,1390 2040,1390 2040,1410 2036,1410 2036,1390"/>
        <polygon class="Letter" points="2082,1390 2088,1390 2088,1410 2082,1410 2082,1390"/>
        <polygon class="Letter" points="2099,1390 2114,1390 2114,1409 2099,1409 2099,1390"/>
        <polygon class="Letter" points="2113,1390 2118,1390 2118,1401 2113,1401 2113,1390"/>
        <polygon class="Letter" points="2132,1390 2146,1390 2146,1409 2132,1409 2132,1390"/>
        <polygon class="Letter" points="2146,1390 2160,1390 2160,1409 2146,1409 2146,1390"/>
        <polygon class="Letter" points="1870,1391 1889,1391 1889,1412 1870,1412 1870,1391"/>
        <polygon class="Letter" points="1942,1391 1956,1391 1956,1411 1942,1411 1942,1391"/>
        <polygon class="Letter" points="1984,1391 1996,1391 1996,1410 1984,1410 1984,1391"/>
        <polygon class="Letter" points="2009,1391 2023,1391 2023,1409 2009,1409 2009,1391"/>
        <polygon class="Letter" points="2118,1391 2131,1391 2131,1409 2118,1409 2118,1391"/>
        <polygon class="Letter" points="1858,1392 1871,1392 1871,1412 1858,1412 1858,1392"/>
        <polygon class="Letter" points="1889,1392 1903,1392 1903,1411 1889,1411 1889,1392"/>
        <polygon class="Letter" points="1917,1392 1930,1392 1930,1410 1917,1410 1917,1392"/>
        <polygon class="Letter" points="2024,1392 2035,1392 2035,1411 2024,1411 2024,1392"/>
        <polygon class="Letter" points="2041,1392 2054,1392 2054,1410 2041,1410 2041,1392"/>
        <polygon class="Letter" points="2057,1392 2069,1392 2069,1410 2057,1410 2057,1392"/>
        <polygon class="Letter" points="1902,1393 1915,1393 1915,1411 1902,1411 1902,1393"/>
        <polygon class="Letter" points="1955,1393 1969,1393 1969,1410 1955,1410 1955,1393"/>
        <polygon class="Letter" points="1970,1393 1983,1393 1983,1411 1970,1411 1970,1393"/>
        <polygon class="Letter" points="2020,1415 2039,1415 2039,1435 2020,1435 2020,1415"/>
        <polygon class="Letter" points="2163,1415 2177,1415 2177,1434 2163,1434 2163,1415"/>
        <polygon class="Letter" points="1970,1416 1981,1416 1981,1437 1970,1437 1970,1416"/>
        <polygon class="Letter" points="1981,1416 2009,1416 2009,1436 1981,1436 1981,1416"/>
        <polygon class="Letter" points="2007,1416 2022,1416 2022,1436 2007,1436 2007,1416"/>
        <polygon class="Letter" points="2068,1416 2081,1416 2081,1435 2068,1435 2068,1416"/>
        <polygon class="Letter" points="2094,1416 2108,1416 2108,1435 2094,1435 2094,1416"/>
        <polygon class="Letter" points="2109,1416 2123,1416 2123,1434 2109,1434 2109,1416"/>
        <polygon class="Letter" points="2138,1416 2148,1416 2148,1434 2138,1434 2138,1416"/>
        <polygon class="Letter" points="2148,1416 2162,1416 2162,1434 2148,1434 2148,1416"/>
        <polygon class="Letter" points="1929,1417 1943,1417 1943,1435 1929,1435 1929,1417"/>
        <polygon class="Letter" points="1944,1417 1957,1417 1957,1436 1944,1436 1944,1417"/>
        <polygon class="Letter" points="2124,1417 2137,1417 2137,1435 2124,1435 2124,1417"/>
        <polygon class="Letter" points="1837,1418 1851,1418 1851,1436 1837,1436 1837,1418"/>
        <polygon class="Letter" points="1865,1418 1902,1418 1902,1438 1865,1438 1865,1418"/>
        <polygon class="Letter" points="1903,1418 1916,1418 1916,1436 1903,1436 1903,1418"/>
        <polygon class="Letter" points="2051,1418 2067,1418 2067,1435 2051,1435 2051,1418"/>
        <polygon class="Letter" points="1852,1419 1865,1419 1865,1436 1852,1436 1852,1419"/>
        <polygon class="Letter" points="441,1423 454,1423 454,1444 441,1444 441,1423"/>
        <polygon class="Letter" points="484,1423 499,1423 499,1444 484,1444 484,1423"/>
        <polygon class="Letter" points="454,1425 469,1425 469,1443 454,1443 454,1425"/>
        <polygon class="Letter" points="470,1425 484,1425 484,1444 470,1444 470,1425"/>
        <polygon class="Letter" points="498,1425 512,1425 512,1444 498,1444 498,1425"/>
        <polygon class="Letter" points="2078,1440 2104,1440 2104,1461 2078,1461 2078,1440"/>
        <polygon class="Letter" points="1964,1441 1975,1441 1975,1460 1964,1460 1964,1441"/>
        <polygon class="Letter" points="2019,1441 2032,1441 2032,1460 2019,1460 2019,1441"/>
        <polygon class="Letter" points="2048,1441 2079,1441 2079,1463 2048,1463 2048,1441"/>
        <polygon class="Letter" points="2105,1441 2117,1441 2117,1460 2105,1460 2105,1441"/>
        <polygon class="Letter" points="2120,1441 2133,1441 2133,1460 2120,1460 2120,1441"/>
        <polygon class="Letter" points="2146,1441 2157,1441 2157,1459 2146,1459 2146,1441"/>
        <polygon class="Letter" points="2158,1441 2171,1441 2171,1459 2158,1459 2158,1441"/>
        <polygon class="Letter" points="1874,1442 1900,1442 1900,1462 1874,1462 1874,1442"/>
        <polygon class="Letter" points="1939,1442 1952,1442 1952,1461 1939,1461 1939,1442"/>
        <polygon class="Letter" points="2005,1442 2017,1442 2017,1461 2005,1461 2005,1442"/>
        <polygon class="Letter" points="1845,1443 1860,1443 1860,1462 1845,1462 1845,1443"/>
        <polygon class="Letter" points="1913,1443 1924,1443 1924,1461 1913,1461 1913,1443"/>
        <polygon class="Letter" points="1925,1443 1937,1443 1937,1461 1925,1461 1925,1443"/>
        <polygon class="Letter" points="1976,1443 1989,1443 1989,1460 1976,1460 1976,1443"/>
        <polygon class="Letter" points="1990,1443 2003,1443 2003,1461 1990,1461 1990,1443"/>
        <polygon class="Letter" points="1859,1444 1873,1444 1873,1461 1859,1461 1859,1444"/>
        <polygon class="Letter" points="479,1450 492,1450 492,1472 479,1472 479,1450"/>
        <polygon class="Letter" points="491,1450 505,1450 505,1470 491,1470 491,1450"/>
        <polygon class="Letter" points="430,1451 445,1451 445,1471 430,1471 430,1451"/>
        <polygon class="Letter" points="2032,1451 2037,1451 2037,1463 2032,1463 2032,1451"/>
        <polygon class="Letter" points="445,1452 458,1452 458,1471 445,1471 445,1452"/>
        <polygon class="Letter" points="460,1452 479,1452 479,1472 460,1472 460,1452"/>
        <polygon class="Letter" points="2116,1465 2128,1465 2128,1486 2116,1486 2116,1465"/>
        <polygon class="Letter" points="2142,1465 2156,1465 2156,1485 2142,1485 2142,1465"/>
        <polygon class="Letter" points="1915,1466 1919,1466 1919,1487 1915,1487 1915,1466"/>
        <polygon class="Letter" points="1919,1466 1936,1466 1936,1486 1919,1486 1919,1466"/>
        <polygon class="Letter" points="1979,1466 1998,1466 1998,1487 1979,1487 1979,1466"/>
        <polygon class="Letter" points="2167,1466 2182,1466 2182,1485 2167,1485 2167,1466"/>
        <polygon class="Letter" points="2014,1467 2027,1467 2027,1486 2014,1486 2014,1467"/>
        <polygon class="Letter" points="2061,1467 2074,1467 2074,1486 2061,1486 2061,1467"/>
        <polygon class="Letter" points="2103,1467 2116,1467 2116,1485 2103,1485 2103,1467"/>
        <polygon class="Letter" points="2128,1467 2142,1467 2142,1484 2128,1484 2128,1467"/>
        <polygon class="Letter" points="1889,1468 1902,1468 1902,1487 1889,1487 1889,1468"/>
        <polygon class="Letter" points="1936,1468 1949,1468 1949,1487 1936,1487 1936,1468"/>
        <polygon class="Letter" points="1950,1468 1963,1468 1963,1486 1950,1486 1950,1468"/>
        <polygon class="Letter" points="1965,1468 1978,1468 1978,1486 1965,1486 1965,1468"/>
        <polygon class="Letter" points="1999,1468 2012,1468 2012,1486 1999,1486 1999,1468"/>
        <polygon class="Letter" points="2044,1468 2059,1468 2059,1485 2044,1485 2044,1468"/>
        <polygon class="Letter" points="2084,1468 2101,1468 2101,1485 2084,1485 2084,1468"/>
        <polygon class="Letter" points="1836,1469 1855,1469 1855,1488 1836,1488 1836,1469"/>
        <polygon class="Letter" points="1856,1469 1869,1469 1869,1487 1856,1487 1856,1469"/>
        <polygon class="Letter" points="1869,1469 1888,1469 1888,1489 1869,1489 1869,1469"/>
        <polygon class="Letter" points="2028,1476 2032,1476 2032,1488 2028,1488 2028,1476"/>
        <polygon class="Letter" points="333,1489 337,1489 337,1510 333,1510 333,1489"/>
        <polygon class="Letter" points="280,1490 294,1490 294,1510 280,1510 280,1490"/>
        <polygon class="Letter" points="303,1490 318,1490 318,1510 303,1510 303,1490"/>
        <polygon class="Letter" points="218,1491 233,1491 233,1511 218,1511 218,1491"/>
        <polygon class="Letter" points="318,1491 332,1491 332,1510 318,1510 318,1491"/>
        <polygon class="Letter" points="2094,1491 2109,1491 2109,1510 2094,1510 2094,1491"/>
        <polygon class="Letter" points="2108,1491 2136,1491 2136,1511 2108,1511 2108,1491"/>
        <polygon class="Letter" points="2137,1491 2167,1491 2167,1510 2137,1510 2137,1491"/>
        <polygon class="Letter" points="2168,1491 2181,1491 2181,1509 2168,1509 2168,1491"/>
        <polygon class="Letter" points="204,1492 217,1492 217,1511 204,1511 204,1492"/>
        <polygon class="Letter" points="233,1492 246,1492 246,1511 233,1511 233,1492"/>
        <polygon class="Letter" points="248,1492 262,1492 262,1511 248,1511 248,1492"/>
        <polygon class="Letter" points="262,1492 279,1492 279,1511 262,1511 262,1492"/>
        <polygon class="Letter" points="1989,1492 2003,1492 2003,1511 1989,1511 1989,1492"/>
        <polygon class="Letter" points="2030,1492 2043,1492 2043,1511 2030,1511 2030,1492"/>
        <polygon class="Letter" points="2056,1492 2082,1492 2082,1511 2056,1511 2056,1492"/>
        <polygon class="Letter" points="185,1493 202,1493 202,1511 185,1511 185,1493"/>
        <polygon class="Letter" points="1837,1493 1862,1493 1862,1513 1837,1513 1837,1493"/>
        <polygon class="Letter" points="1873,1493 1888,1493 1888,1512 1873,1512 1873,1493"/>
        <polygon class="Letter" points="1888,1493 1916,1493 1916,1513 1888,1513 1888,1493"/>
        <polygon class="Letter" points="1917,1493 1934,1493 1934,1512 1917,1512 1917,1493"/>
        <polygon class="Letter" points="1934,1493 1947,1493 1947,1512 1934,1512 1934,1493"/>
        <polygon class="Letter" points="1949,1493 1961,1493 1961,1511 1949,1511 1949,1493"/>
        <polygon class="Letter" points="1974,1493 1988,1493 1988,1511 1974,1511 1974,1493"/>
        <polygon class="Letter" points="2013,1493 2029,1493 2029,1511 2013,1511 2013,1493"/>
        <polygon class="Letter" points="2081,1515 2105,1515 2105,1536 2081,1536 2081,1515"/>
        <polygon class="Letter" points="313,1517 329,1517 329,1537 313,1537 313,1517"/>
        <polygon class="Letter" points="328,1517 333,1517 333,1529 328,1529 328,1517"/>
        <polygon class="Letter" points="349,1517 362,1517 362,1537 349,1537 349,1517"/>
        <polygon class="Letter" points="363,1517 378,1517 378,1538 363,1538 363,1517"/>
        <polygon class="Letter" points="1941,1517 1953,1517 1953,1538 1941,1538 1941,1517"/>
        <polygon class="Letter" points="1967,1517 1981,1517 1981,1536 1967,1536 1967,1517"/>
        <polygon class="Letter" points="1991,1517 1997,1517 1997,1536 1991,1536 1991,1517"/>
        <polygon class="Letter" points="2008,1517 2023,1517 2023,1537 2008,1537 2008,1517"/>
        <polygon class="Letter" points="2052,1517 2066,1517 2066,1536 2052,1536 2052,1517"/>
        <polygon class="Letter" points="2106,1517 2119,1517 2119,1535 2106,1535 2106,1517"/>
        <polygon class="Letter" points="2120,1517 2134,1517 2134,1536 2120,1536 2120,1517"/>
        <polygon class="Letter" points="2135,1517 2148,1517 2148,1536 2135,1536 2135,1517"/>
        <polygon class="Letter" points="187,1518 200,1518 200,1540 187,1540 187,1518"/>
        <polygon class="Letter" points="247,1518 260,1518 260,1538 247,1538 247,1518"/>
        <polygon class="Letter" points="261,1518 296,1518 296,1539 261,1539 261,1518"/>
        <polygon class="Letter" points="333,1518 347,1518 347,1538 333,1538 333,1518"/>
        <polygon class="Letter" points="1870,1518 1885,1518 1885,1538 1870,1538 1870,1518"/>
        <polygon class="Letter" points="1928,1518 1940,1518 1940,1536 1928,1536 1928,1518"/>
        <polygon class="Letter" points="2024,1518 2035,1518 2035,1537 2024,1537 2024,1518"/>
        <polygon class="Letter" points="2067,1518 2080,1518 2080,1535 2067,1535 2067,1518"/>
        <polygon class="Letter" points="200,1519 214,1519 214,1539 200,1539 200,1519"/>
        <polygon class="Letter" points="1910,1519 1926,1519 1926,1537 1910,1537 1910,1519"/>
        <polygon class="Letter" points="1952,1519 1967,1519 1967,1536 1952,1536 1952,1519"/>
        <polygon class="Letter" points="147,1520 175,1520 175,1540 147,1540 147,1520"/>
        <polygon class="Letter" points="216,1520 234,1520 234,1541 216,1541 216,1520"/>
        <polygon class="Letter" points="1885,1520 1898,1520 1898,1537 1885,1537 1885,1520"/>
        <polygon class="Letter" points="2036,1527 2040,1527 2040,1538 2036,1538 2036,1527"/>
        <polygon class="Letter" points="296,1528 301,1528 301,1540 296,1540 296,1528"/>
        <polygon class="Letter" points="386,1539 402,1539 402,1565 386,1565 386,1539"/>
        <polygon class="Letter" points="2110,1541 2116,1541 2116,1561 2110,1561 2110,1541"/>
        <polygon class="Letter" points="1972,1542 1984,1542 1984,1563 1972,1563 1972,1542"/>
        <polygon class="Letter" points="1983,1542 1998,1542 1998,1562 1983,1562 1983,1542"/>
        <polygon class="Letter" points="2011,1542 2024,1542 2024,1561 2011,1561 2011,1542"/>
        <polygon class="Letter" points="2059,1542 2071,1542 2071,1561 2059,1561 2059,1542"/>
        <polygon class="Letter" points="2073,1542 2100,1542 2100,1561 2073,1561 2073,1542"/>
        <polygon class="Letter" points="1959,1543 1972,1543 1972,1562 1959,1562 1959,1543"/>
        <polygon class="Letter" points="1998,1543 2011,1543 2011,1563 1998,1563 1998,1543"/>
        <polygon class="Letter" points="2025,1543 2038,1543 2038,1561 2025,1561 2025,1543"/>
        <polygon class="Letter" points="2039,1543 2057,1543 2057,1562 2039,1562 2039,1543"/>
        <polygon class="Letter" points="344,1544 357,1544 357,1564 344,1564 344,1544"/>
        <polygon class="Letter" points="1904,1544 1915,1544 1915,1562 1904,1562 1904,1544"/>
        <polygon class="Letter" points="1916,1544 1928,1544 1928,1562 1916,1562 1916,1544"/>
        <polygon class="Letter" points="1940,1544 1957,1544 1957,1562 1940,1562 1940,1544"/>
        <polygon class="Letter" points="301,1545 313,1545 313,1567 301,1567 301,1545"/>
        <polygon class="Letter" points="329,1545 343,1545 343,1565 329,1565 329,1545"/>
        <polygon class="Letter" points="359,1545 372,1545 372,1565 359,1565 359,1545"/>
        <polygon class="Letter" points="137,1546 141,1546 141,1567 137,1567 137,1546"/>
        <polygon class="Letter" points="171,1546 186,1546 186,1567 171,1567 171,1546"/>
        <polygon class="Letter" points="200,1546 215,1546 215,1566 200,1566 200,1546"/>
        <polygon class="Letter" points="227,1546 240,1546 240,1567 227,1567 227,1546"/>
        <polygon class="Letter" points="258,1546 271,1546 271,1565 258,1565 258,1546"/>
        <polygon class="Letter" points="273,1546 289,1546 289,1569 273,1569 273,1546"/>
        <polygon class="Letter" points="314,1546 327,1546 327,1565 314,1565 314,1546"/>
        <polygon class="Letter" points="122,1547 136,1547 136,1567 122,1567 122,1547"/>
        <polygon class="Letter" points="142,1547 155,1547 155,1567 142,1567 142,1547"/>
        <polygon class="Letter" points="157,1547 171,1547 171,1567 157,1567 157,1547"/>
        <polygon class="Letter" points="185,1547 200,1547 200,1566 185,1566 185,1547"/>
        <polygon class="Letter" points="242,1547 256,1547 256,1565 242,1565 242,1547"/>
        <polygon class="Letter" points="377,1571 392,1571 392,1592 377,1592 377,1571"/>
        <polygon class="Letter" points="225,1572 229,1572 229,1594 225,1594 225,1572"/>
        <polygon class="Letter" points="286,1572 301,1572 301,1593 286,1593 286,1572"/>
        <polygon class="Letter" points="391,1572 405,1572 405,1592 391,1592 391,1572"/>
        <polygon class="Letter" points="147,1573 161,1573 161,1594 147,1594 147,1573"/>
        <polygon class="Letter" points="244,1573 257,1573 257,1593 244,1593 244,1573"/>
        <polygon class="Letter" points="271,1573 285,1573 285,1593 271,1593 271,1573"/>
        <polygon class="Letter" points="313,1573 329,1573 329,1594 313,1594 313,1573"/>
        <polygon class="Letter" points="330,1573 344,1573 344,1593 330,1593 330,1573"/>
        <polygon class="Letter" points="347,1573 360,1573 360,1592 347,1592 347,1573"/>
        <polygon class="Letter" points="363,1573 376,1573 376,1592 363,1592 363,1573"/>
        <polygon class="Letter" points="117,1574 132,1574 132,1594 117,1594 117,1574"/>
        <polygon class="Letter" points="175,1574 189,1574 189,1594 175,1594 175,1574"/>
        <polygon class="Letter" points="189,1574 224,1574 224,1595 189,1595 189,1574"/>
        <polygon class="Letter" points="229,1574 243,1574 243,1594 229,1594 229,1574"/>
        <polygon class="Letter" points="132,1575 145,1575 145,1594 132,1594 132,1575"/>
        <polygon class="Letter" points="289,1599 293,1599 293,1620 289,1620 289,1599"/>
        <polygon class="Letter" points="398,1599 413,1599 413,1618 398,1618 398,1599"/>
        <polygon class="Letter" points="202,1600 216,1600 216,1620 202,1620 202,1600"/>
        <polygon class="Letter" points="229,1600 244,1600 244,1621 229,1621 229,1600"/>
        <polygon class="Letter" points="244,1600 274,1600 274,1622 244,1622 244,1600"/>
        <polygon class="Letter" points="275,1600 288,1600 288,1620 275,1620 275,1600"/>
        <polygon class="Letter" points="294,1600 307,1600 307,1621 294,1621 294,1600"/>
        <polygon class="Letter" points="309,1600 322,1600 322,1620 309,1620 309,1600"/>
        <polygon class="Letter" points="353,1600 369,1600 369,1621 353,1621 353,1600"/>
        <polygon class="Letter" points="382,1600 396,1600 396,1619 382,1619 382,1600"/>
        <polygon class="Letter" points="325,1601 339,1601 339,1620 325,1620 325,1601"/>
        <polygon class="Letter" points="368,1601 382,1601 382,1620 368,1620 368,1601"/>
        <polygon class="Letter" points="130,1602 143,1602 143,1622 130,1622 130,1602"/>
        <polygon class="Letter" points="157,1602 171,1602 171,1622 157,1622 157,1602"/>
        <polygon class="Letter" points="172,1602 186,1602 186,1621 172,1621 172,1602"/>
        <polygon class="Letter" points="188,1602 201,1602 201,1621 188,1621 188,1602"/>
        <polygon class="Letter" points="112,1603 128,1603 128,1622 112,1622 112,1603"/>
        <polygon class="Letter" points="214,1626 226,1626 226,1648 214,1648 214,1626"/>
        <polygon class="Letter" points="294,1626 298,1626 298,1648 294,1648 294,1626"/>
        <polygon class="Letter" points="347,1626 361,1626 361,1646 347,1646 347,1626"/>
        <polygon class="Letter" points="298,1627 314,1627 314,1649 298,1649 298,1627"/>
        <polygon class="Letter" points="157,1628 172,1628 172,1649 157,1649 157,1628"/>
        <polygon class="Letter" points="187,1628 201,1628 201,1648 187,1648 187,1628"/>
        <polygon class="Letter" points="228,1628 241,1628 241,1648 228,1648 228,1628"/>
        <polygon class="Letter" points="260,1628 273,1628 273,1648 260,1648 260,1628"/>
        <polygon class="Letter" points="274,1628 293,1628 293,1648 274,1648 274,1628"/>
        <polygon class="Letter" points="332,1628 345,1628 345,1647 332,1647 332,1628"/>
        <polygon class="Letter" points="172,1629 185,1629 185,1648 172,1648 172,1629"/>
        <polygon class="Letter" points="243,1629 257,1629 257,1648 243,1648 243,1629"/>
        <polygon class="Letter" points="314,1629 330,1629 330,1647 314,1647 314,1629"/>
        <polygon class="Letter" points="248,1654 260,1654 260,1676 248,1676 248,1654"/>
        <polygon class="Letter" points="290,1654 294,1654 294,1675 290,1675 290,1654"/>
        <polygon class="Letter" points="187,1655 205,1655 205,1676 187,1676 187,1655"/>
        <polygon class="Letter" points="221,1655 235,1655 235,1675 221,1675 221,1655"/>
        <polygon class="Letter" points="276,1655 289,1655 289,1675 276,1675 276,1655"/>
        <polygon class="Letter" points="294,1655 309,1655 309,1675 294,1675 294,1655"/>
        <polygon class="Letter" points="310,1655 321,1655 321,1675 310,1675 310,1655"/>
        <polygon class="Letter" points="322,1655 336,1655 336,1674 322,1674 322,1655"/>
        <polygon class="Letter" points="206,1656 219,1656 219,1675 206,1675 206,1656"/>
        <polygon class="Letter" points="261,1656 274,1656 274,1675 261,1675 261,1656"/>
        <polygon class="Letter" points="318,1681 324,1681 324,1702 318,1702 318,1681"/>
        <polygon class="Letter" points="230,1682 243,1682 243,1703 230,1703 230,1682"/>
        <polygon class="Letter" points="274,1682 290,1682 290,1702 274,1702 274,1682"/>
        <polygon class="Letter" points="201,1683 217,1683 217,1703 201,1703 201,1683"/>
        <polygon class="Letter" points="243,1683 257,1683 257,1702 243,1702 243,1683"/>
        <polygon class="Letter" points="260,1683 273,1683 273,1703 260,1703 260,1683"/>
        <polygon class="Letter" points="290,1683 304,1683 304,1702 290,1702 290,1683"/>
        <polygon class="Letter" points="1168,1802 1180,1802 1180,1824 1168,1824 1168,1802"/>
        <polygon class="Letter" points="1284,1802 1303,1802 1303,1822 1284,1822 1284,1802"/>
        <polygon class="Letter" points="1318,1802 1332,1802 1332,1823 1318,1823 1318,1802"/>
        <polygon class="Letter" points="1334,1802 1347,1802 1347,1822 1334,1822 1334,1802"/>
        <polygon class="Letter" points="1347,1802 1364,1802 1364,1823 1347,1823 1347,1802"/>
        <polygon class="Letter" points="1364,1802 1378,1802 1378,1821 1364,1821 1364,1802"/>
        <polygon class="Letter" points="1379,1802 1393,1802 1393,1821 1379,1821 1379,1802"/>
        <polygon class="Letter" points="1227,1803 1241,1803 1241,1823 1227,1823 1227,1803"/>
        <polygon class="Letter" points="1258,1803 1271,1803 1271,1823 1258,1823 1258,1803"/>
        <polygon class="Letter" points="1303,1803 1317,1803 1317,1822 1303,1822 1303,1803"/>
        <polygon class="Letter" points="1128,1804 1140,1804 1140,1823 1128,1823 1128,1804"/>
        <polygon class="Letter" points="1141,1804 1154,1804 1154,1823 1141,1823 1141,1804"/>
        <polygon class="Letter" points="1181,1804 1195,1804 1195,1823 1181,1823 1181,1804"/>
        <polygon class="Letter" points="1196,1804 1210,1804 1210,1823 1196,1823 1196,1804"/>
        <polygon class="Letter" points="1212,1804 1226,1804 1226,1823 1212,1823 1212,1804"/>
        <polygon class="Letter" points="1242,1804 1257,1804 1257,1822 1242,1822 1242,1804"/>
        <polygon class="Letter" points="1298,1829 1312,1829 1312,1849 1298,1849 1298,1829"/>
        <polygon class="Letter" points="1312,1829 1327,1829 1327,1849 1312,1849 1312,1829"/>
        <polygon class="Letter" points="1341,1829 1371,1829 1371,1849 1341,1849 1341,1829"/>
        <polygon class="Letter" points="1152,1830 1165,1830 1165,1850 1152,1850 1152,1830"/>
        <polygon class="Letter" points="1210,1830 1224,1830 1224,1849 1210,1849 1210,1830"/>
        <polygon class="Letter" points="1238,1830 1254,1830 1254,1851 1238,1851 1238,1830"/>
        <polygon class="Letter" points="1271,1830 1282,1830 1282,1849 1271,1849 1271,1830"/>
        <polygon class="Letter" points="1283,1830 1297,1830 1297,1849 1283,1849 1283,1830"/>
        <polygon class="Letter" points="1327,1830 1341,1830 1341,1849 1327,1849 1327,1830"/>
        <polygon class="Letter" points="1182,1831 1196,1831 1196,1851 1182,1851 1182,1831"/>
        <polygon class="Letter" points="1225,1831 1237,1831 1237,1851 1225,1851 1225,1831"/>
        <polygon class="Letter" points="1255,1831 1269,1831 1269,1850 1255,1850 1255,1831"/>
        <polygon class="Letter" points="1167,1832 1180,1832 1180,1851 1167,1851 1167,1832"/>
        <polygon class="Letter" points="1341,1855 1359,1855 1359,1876 1341,1876 1341,1855"/>
        <polygon class="Letter" points="1326,1856 1342,1856 1342,1875 1326,1875 1326,1856"/>
        <polygon class="Letter" points="1375,1856 1389,1856 1389,1876 1375,1876 1375,1856"/>
        <polygon class="Letter" points="1165,1857 1169,1857 1169,1878 1165,1878 1165,1857"/>
        <polygon class="Letter" points="1296,1857 1309,1857 1309,1877 1296,1877 1296,1857"/>
        <polygon class="Letter" points="1311,1857 1325,1857 1325,1876 1311,1876 1311,1857"/>
        <polygon class="Letter" points="1360,1857 1374,1857 1374,1876 1360,1876 1360,1857"/>
        <polygon class="Letter" points="1133,1858 1148,1858 1148,1878 1133,1878 1133,1858"/>
        <polygon class="Letter" points="1187,1858 1201,1858 1201,1877 1187,1877 1187,1858"/>
        <polygon class="Letter" points="1203,1858 1216,1858 1216,1877 1203,1877 1203,1858"/>
        <polygon class="Letter" points="1231,1858 1244,1858 1244,1877 1231,1877 1231,1858"/>
        <polygon class="Letter" points="1246,1858 1260,1858 1260,1878 1246,1878 1246,1858"/>
        <polygon class="Letter" points="1272,1858 1289,1858 1289,1877 1272,1877 1272,1858"/>
        <polygon class="Letter" points="1150,1859 1164,1859 1164,1878 1150,1878 1150,1859"/>
        <polygon class="Letter" points="1169,1859 1186,1859 1186,1877 1169,1877 1169,1859"/>
        <polygon class="Letter" points="1356,1860 1359,1860 1359,1877 1356,1877 1356,1860"/>
        <polygon class="Letter" points="1290,1861 1294,1861 1294,1877 1290,1877 1290,1861"/>
        <polygon class="Letter" points="1320,1883 1335,1883 1335,1903 1320,1903 1320,1883"/>
        <polygon class="Letter" points="1200,1884 1214,1884 1214,1904 1200,1904 1200,1884"/>
        <polygon class="Letter" points="1260,1884 1274,1884 1274,1906 1260,1906 1260,1884"/>
        <polygon class="Letter" points="1335,1884 1349,1884 1349,1904 1335,1904 1335,1884"/>
        <polygon class="Letter" points="1246,1885 1259,1885 1259,1904 1246,1904 1246,1885"/>
        <polygon class="Letter" points="1305,1885 1319,1885 1319,1903 1305,1903 1305,1885"/>
        <polygon class="Letter" points="1185,1886 1199,1886 1199,1905 1185,1905 1185,1886"/>
        <polygon class="Letter" points="1227,1886 1244,1886 1244,1904 1227,1904 1227,1886"/>
        <polygon class="Letter" points="1287,1886 1304,1886 1304,1904 1287,1904 1287,1886"/>
        <polygon class="Letter" points="1167,1887 1184,1887 1184,1905 1167,1905 1167,1887"/>
        <polygon class="Letter" points="321,1950 333,1950 333,1961 321,1961 321,1950"/>
        <polygon class="Letter" points="320,1961 332,1961 332,1975 320,1975 320,1961"/>
        <polygon class="Letter" points="1879,1965 1898,1965 1898,1987 1879,1987 1879,1965"/>
        <polygon class="Letter" points="2021,1965 2036,1965 2036,1986 2021,1986 2021,1965"/>
        <polygon class="Letter" points="1941,1966 1956,1966 1956,1987 1941,1987 1941,1966"/>
        <polygon class="Letter" points="2035,1966 2049,1966 2049,1986 2035,1986 2035,1966"/>
        <polygon class="Letter" points="2052,1966 2065,1966 2065,1986 2052,1986 2052,1966"/>
        <polygon class="Letter" points="1805,1967 1822,1967 1822,1988 1805,1988 1805,1967"/>
        <polygon class="Letter" points="1838,1967 1867,1967 1867,1987 1838,1987 1838,1967"/>
        <polygon class="Letter" points="1914,1967 1928,1967 1928,1987 1914,1987 1914,1967"/>
        <polygon class="Letter" points="1958,1967 1971,1967 1971,1986 1958,1986 1958,1967"/>
        <polygon class="Letter" points="1973,1967 1991,1967 1991,1986 1973,1986 1973,1967"/>
        <polygon class="Letter" points="2006,1967 2020,1967 2020,1986 2006,1986 2006,1967"/>
        <polygon class="Letter" points="1822,1968 1838,1968 1838,1989 1822,1989 1822,1968"/>
        <polygon class="Letter" points="1899,1968 1913,1968 1913,1987 1899,1987 1899,1968"/>
        <polygon class="Letter" points="1991,1968 2005,1968 2005,1986 1991,1986 1991,1968"/>
        <polygon class="Letter" points="2067,1976 2071,1976 2071,1988 2067,1988 2067,1976"/>
        <polygon class="Letter" points="334,1991 344,1991 344,2002 334,2002 334,1991"/>
        <polygon class="Letter" points="1986,1992 1990,1992 1990,2014 1986,2014 1986,1992"/>
        <polygon class="Letter" points="2049,1992 2069,1992 2069,2014 2049,2014 2049,1992"/>
        <polygon class="Letter" points="2070,1992 2083,1992 2083,2012 2070,2012 2070,1992"/>
        <polygon class="Letter" points="1913,1993 1926,1993 1926,2015 1913,2015 1913,1993"/>
        <polygon class="Letter" points="1945,1993 1958,1993 1958,2013 1945,2013 1945,1993"/>
        <polygon class="Letter" points="1971,1993 1985,1993 1985,2013 1971,2013 1971,1993"/>
        <polygon class="Letter" points="2003,1993 2021,1993 2021,2013 2003,2013 2003,1993"/>
        <polygon class="Letter" points="2020,1993 2036,1993 2036,2014 2020,2014 2020,1993"/>
        <polygon class="Letter" points="1793,1994 1811,1994 1811,2015 1793,2015 1793,1994"/>
        <polygon class="Letter" points="1887,1994 1902,1994 1902,2014 1887,2014 1887,1994"/>
        <polygon class="Letter" points="1812,1995 1825,1995 1825,2015 1812,2015 1812,1995"/>
        <polygon class="Letter" points="1841,1995 1859,1995 1859,2017 1841,2017 1841,1995"/>
        <polygon class="Letter" points="1872,1995 1886,1995 1886,2014 1872,2014 1872,1995"/>
        <polygon class="Letter" points="1926,1995 1944,1995 1944,2014 1926,2014 1926,1995"/>
        <polygon class="Letter" points="2035,1995 2050,1995 2050,2013 2035,2013 2035,1995"/>
        <polygon class="Letter" points="1827,1996 1841,1996 1841,2015 1827,2015 1827,1996"/>
        <polygon class="Letter" points="320,2003 332,2003 332,2014 320,2014 320,2003"/>
        <polygon class="Letter" points="334,2004 344,2004 344,2014 334,2014 334,2004"/>
        <polygon class="Letter" points="321,2016 332,2016 332,2028 321,2028 321,2016"/>
        <polygon class="Letter" points="334,2016 344,2016 344,2029 334,2029 334,2016"/>
        <polygon class="Letter" points="1834,2020 1847,2020 1847,2044 1834,2044 1834,2020"/>
        <polygon class="Letter" points="2014,2020 2029,2020 2029,2040 2014,2040 2014,2020"/>
        <polygon class="Letter" points="1863,2021 1876,2021 1876,2041 1863,2041 1863,2021"/>
        <polygon class="Letter" points="1923,2021 1953,2021 1953,2041 1923,2041 1923,2021"/>
        <polygon class="Letter" points="1953,2021 1967,2021 1967,2041 1953,2041 1953,2021"/>
        <polygon class="Letter" points="1968,2021 1982,2021 1982,2041 1968,2041 1968,2021"/>
        <polygon class="Letter" points="1984,2021 1997,2021 1997,2040 1984,2040 1984,2021"/>
        <polygon class="Letter" points="2029,2021 2043,2021 2043,2040 2029,2040 2029,2021"/>
        <polygon class="Letter" points="1846,2022 1862,2022 1862,2043 1846,2043 1846,2022"/>
        <polygon class="Letter" points="1908,2022 1922,2022 1922,2041 1908,2041 1908,2022"/>
        <polygon class="Letter" points="1889,2023 1906,2023 1906,2041 1889,2041 1889,2023"/>
        <polygon class="Letter" points="319,2028 332,2028 332,2041 319,2041 319,2028"/>
        <polygon class="Letter" points="1997,2031 2002,2031 2002,2043 1997,2043 1997,2031"/>
        <polygon class="Letter" points="1880,2047 1900,2047 1900,2070 1880,2070 1880,2047"/>
        <polygon class="Letter" points="1972,2047 1983,2047 1983,2068 1972,2068 1972,2047"/>
        <polygon class="Letter" points="2030,2047 2044,2047 2044,2067 2030,2067 2030,2047"/>
        <polygon class="Letter" points="1901,2048 1915,2048 1915,2068 1901,2068 1901,2048"/>
        <polygon class="Letter" points="1927,2048 1942,2048 1942,2068 1927,2068 1927,2048"/>
        <polygon class="Letter" points="1834,2049 1848,2049 1848,2069 1834,2069 1834,2049"/>
        <polygon class="Letter" points="1942,2049 1956,2049 1956,2068 1942,2068 1942,2049"/>
        <polygon class="Letter" points="1958,2049 1971,2049 1971,2068 1958,2068 1958,2049"/>
        <polygon class="Letter" points="1984,2049 1998,2049 1998,2068 1984,2068 1984,2049"/>
        <polygon class="Letter" points="1999,2049 2013,2049 2013,2068 1999,2068 1999,2049"/>
        <polygon class="Letter" points="2015,2049 2029,2049 2029,2068 2015,2068 2015,2049"/>
        <polygon class="Letter" points="1849,2050 1863,2050 1863,2069 1849,2069 1849,2050"/>
        <polygon class="Letter" points="1865,2050 1879,2050 1879,2069 1865,2069 1865,2050"/>
        <polygon class="Letter" points="1888,2075 1901,2075 1901,2097 1888,2097 1888,2075"/>
        <polygon class="Letter" points="1958,2075 1973,2075 1973,2095 1958,2095 1958,2075"/>
        <polygon class="Letter" points="1984,2075 1990,2075 1990,2096 1984,2096 1984,2075"/>
        <polygon class="Letter" points="1931,2076 1942,2076 1942,2095 1931,2095 1931,2076"/>
        <polygon class="Letter" points="1943,2076 1957,2076 1957,2095 1943,2095 1943,2076"/>
        <polygon class="Letter" points="1900,2077 1915,2077 1915,2095 1900,2095 1900,2077"/>
        <polygon class="Letter" points="1916,2077 1930,2077 1930,2096 1916,2096 1916,2077"/>
        <polygon class="Letter" points="983,2367 987,2367 987,2388 983,2388 983,2367"/>
        <polygon class="Letter" points="914,2368 918,2368 918,2388 914,2388 914,2368"/>
        <polygon class="Letter" points="957,2369 971,2369 971,2388 957,2388 957,2369"/>
        <polygon class="Letter" points="972,2369 983,2369 983,2388 972,2388 972,2369"/>
        <polygon class="Letter" points="987,2369 1000,2369 1000,2388 987,2388 987,2369"/>
        <polygon class="Letter" points="1018,2369 1030,2369 1030,2387 1018,2387 1018,2369"/>
        <polygon class="Letter" points="867,2370 881,2370 881,2388 867,2388 867,2370"/>
        <polygon class="Letter" points="880,2370 913,2370 913,2389 880,2389 880,2370"/>
        <polygon class="Letter" points="919,2370 932,2370 932,2388 919,2388 919,2370"/>
        <polygon class="Letter" points="932,2370 945,2370 945,2388 932,2388 932,2370"/>
        <polygon class="Letter" points="1001,2370 1016,2370 1016,2387 1001,2387 1001,2370"/>
        <polygon class="Letter" points="829,2371 840,2371 840,2389 829,2389 829,2371"/>
        <polygon class="Letter" points="841,2371 853,2371 853,2389 841,2389 841,2371"/>
        <polygon class="Letter" points="555,2393 567,2393 567,2415 555,2415 555,2393"/>
        <polygon class="Letter" points="583,2393 586,2393 586,2414 583,2414 583,2393"/>
        <polygon class="Letter" points="631,2393 646,2393 646,2414 631,2414 631,2393"/>
        <polygon class="Letter" points="693,2393 706,2393 706,2413 693,2413 693,2393"/>
        <polygon class="Letter" points="709,2393 723,2393 723,2413 709,2413 709,2393"/>
        <polygon class="Letter" points="501,2394 505,2394 505,2415 501,2415 501,2394"/>
        <polygon class="Letter" points="506,2394 519,2394 519,2414 506,2414 506,2394"/>
        <polygon class="Letter" points="536,2394 555,2394 555,2414 536,2414 536,2394"/>
        <polygon class="Letter" points="604,2394 617,2394 617,2414 604,2414 604,2394"/>
        <polygon class="Letter" points="647,2394 660,2394 660,2414 647,2414 647,2394"/>
        <polygon class="Letter" points="662,2394 676,2394 676,2413 662,2413 662,2394"/>
        <polygon class="Letter" points="678,2394 692,2394 692,2413 678,2413 678,2394"/>
        <polygon class="Letter" points="429,2395 444,2395 444,2416 429,2416 429,2395"/>
        <polygon class="Letter" points="470,2395 484,2395 484,2415 470,2415 470,2395"/>
        <polygon class="Letter" points="485,2395 500,2395 500,2416 485,2416 485,2395"/>
        <polygon class="Letter" points="567,2395 582,2395 582,2415 567,2415 567,2395"/>
        <polygon class="Letter" points="589,2395 602,2395 602,2414 589,2414 589,2395"/>
        <polygon class="Letter" points="957,2395 961,2395 961,2415 957,2415 957,2395"/>
        <polygon class="Letter" points="973,2395 985,2395 985,2415 973,2415 973,2395"/>
        <polygon class="Letter" points="1028,2395 1040,2395 1040,2414 1028,2414 1028,2395"/>
        <polygon class="Letter" points="899,2396 911,2396 911,2416 899,2416 899,2396"/>
        <polygon class="Letter" points="985,2396 1011,2396 1011,2415 985,2415 985,2396"/>
        <polygon class="Letter" points="443,2397 457,2397 457,2415 443,2415 443,2397"/>
        <polygon class="Letter" points="863,2397 888,2397 888,2417 863,2417 863,2397"/>
        <polygon class="Letter" points="926,2397 941,2397 941,2416 926,2416 926,2397"/>
        <polygon class="Letter" points="1011,2397 1027,2397 1027,2414 1011,2414 1011,2397"/>
        <polygon class="Letter" points="837,2398 849,2398 849,2416 837,2416 837,2398"/>
        <polygon class="Letter" points="912,2398 925,2398 925,2416 912,2416 912,2398"/>
        <polygon class="Letter" points="940,2398 956,2398 956,2415 940,2415 940,2398"/>
        <polygon class="Letter" points="819,2399 835,2399 835,2416 819,2416 819,2399"/>
        <polygon class="Letter" points="519,2405 524,2405 524,2417 519,2417 519,2405"/>
        <polygon class="Letter" points="657,2420 670,2420 670,2442 657,2442 657,2420"/>
        <polygon class="Letter" points="546,2421 559,2421 559,2443 546,2443 546,2421"/>
        <polygon class="Letter" points="630,2421 644,2421 644,2441 630,2441 630,2421"/>
        <polygon class="Letter" points="670,2421 684,2421 684,2440 670,2440 670,2421"/>
        <polygon class="Letter" points="686,2421 700,2421 700,2440 686,2440 686,2421"/>
        <polygon class="Letter" points="702,2421 716,2421 716,2440 702,2440 702,2421"/>
        <polygon class="Letter" points="476,2422 489,2422 489,2444 476,2444 476,2422"/>
        <polygon class="Letter" points="504,2422 520,2422 520,2443 504,2443 504,2422"/>
        <polygon class="Letter" points="590,2422 604,2422 604,2442 590,2442 590,2422"/>
        <polygon class="Letter" points="618,2422 629,2422 629,2441 618,2441 618,2422"/>
        <polygon class="Letter" points="437,2423 448,2423 448,2443 437,2443 437,2423"/>
        <polygon class="Letter" points="448,2423 464,2423 464,2444 448,2444 448,2423"/>
        <polygon class="Letter" points="489,2423 503,2423 503,2442 489,2442 489,2423"/>
        <polygon class="Letter" points="520,2423 534,2423 534,2442 520,2442 520,2423"/>
        <polygon class="Letter" points="559,2423 573,2423 573,2441 559,2441 559,2423"/>
        <polygon class="Letter" points="575,2423 588,2423 588,2442 575,2442 575,2423"/>
        <polygon class="Letter" points="973,2423 986,2423 986,2442 973,2442 973,2423"/>
        <polygon class="Letter" points="876,2424 890,2424 890,2443 876,2443 876,2424"/>
        <polygon class="Letter" points="919,2424 933,2424 933,2442 919,2442 919,2424"/>
        <polygon class="Letter" points="934,2424 945,2424 945,2443 934,2443 934,2424"/>
        <polygon class="Letter" points="947,2424 960,2424 960,2443 947,2443 947,2424"/>
        <polygon class="Letter" points="1002,2424 1014,2424 1014,2442 1002,2442 1002,2424"/>
        <polygon class="Letter" points="1670,2424 1698,2424 1698,2457 1670,2457 1670,2424"/>
        <polygon class="Letter" points="863,2425 876,2425 876,2443 863,2443 863,2425"/>
        <polygon class="Letter" points="891,2425 905,2425 905,2443 891,2443 891,2425"/>
        <polygon class="Letter" points="906,2425 919,2425 919,2443 906,2443 906,2425"/>
        <polygon class="Letter" points="987,2425 1000,2425 1000,2442 987,2442 987,2425"/>
        <polygon class="Letter" points="845,2426 861,2426 861,2443 845,2443 845,2426"/>
        <polygon class="Letter" points="1703,2426 1711,2426 1711,2458 1703,2458 1703,2426"/>
        <polygon class="Letter" points="2013,2432 2025,2432 2025,2452 2013,2452 2013,2432"/>
        <polygon class="Letter" points="2055,2432 2069,2432 2069,2452 2055,2452 2055,2432"/>
        <polygon class="Letter" points="2083,2432 2102,2432 2102,2452 2083,2452 2083,2432"/>
        <polygon class="Letter" points="2104,2432 2117,2432 2117,2452 2104,2452 2104,2432"/>
        <polygon class="Letter" points="2120,2432 2134,2432 2134,2452 2120,2452 2120,2432"/>
        <polygon class="Letter" points="2153,2432 2166,2432 2166,2451 2153,2451 2153,2432"/>
        <polygon class="Letter" points="1932,2433 1947,2433 1947,2453 1932,2453 1932,2433"/>
        <polygon class="Letter" points="1965,2433 1978,2433 1978,2453 1965,2453 1965,2433"/>
        <polygon class="Letter" points="1997,2433 2011,2433 2011,2452 1997,2452 1997,2433"/>
        <polygon class="Letter" points="2037,2433 2054,2433 2054,2452 2037,2452 2037,2433"/>
        <polygon class="Letter" points="2135,2433 2151,2433 2151,2451 2135,2451 2135,2433"/>
        <polygon class="Letter" points="1948,2434 1962,2434 1962,2452 1948,2452 1948,2434"/>
        <polygon class="Letter" points="1979,2434 1996,2434 1996,2452 1979,2452 1979,2434"/>
        <polygon class="Letter" points="2167,2441 2172,2441 2172,2453 2167,2453 2167,2441"/>
        <polygon class="Letter" points="677,2446 681,2446 681,2468 677,2468 677,2446"/>
        <polygon class="Letter" points="494,2448 498,2448 498,2470 494,2470 494,2448"/>
        <polygon class="Letter" points="553,2448 566,2448 566,2470 553,2470 553,2448"/>
        <polygon class="Letter" points="625,2448 652,2448 652,2469 625,2469 625,2448"/>
        <polygon class="Letter" points="682,2448 693,2448 693,2467 682,2467 682,2448"/>
        <polygon class="Letter" points="694,2448 705,2448 705,2467 694,2467 694,2448"/>
        <polygon class="Letter" points="706,2448 720,2448 720,2467 706,2467 706,2448"/>
        <polygon class="Letter" points="432,2449 445,2449 445,2471 432,2471 432,2449"/>
        <polygon class="Letter" points="597,2449 610,2449 610,2469 597,2469 597,2449"/>
        <polygon class="Letter" points="664,2449 678,2449 678,2467 664,2467 664,2449"/>
        <polygon class="Letter" points="1046,2449 1050,2449 1050,2469 1046,2469 1046,2449"/>
        <polygon class="Letter" points="461,2450 477,2450 477,2471 461,2471 461,2450"/>
        <polygon class="Letter" points="511,2450 526,2450 526,2469 511,2469 511,2450"/>
        <polygon class="Letter" points="527,2450 541,2450 541,2469 527,2469 527,2450"/>
        <polygon class="Letter" points="566,2450 580,2450 580,2468 566,2468 566,2450"/>
        <polygon class="Letter" points="581,2450 595,2450 595,2469 581,2469 581,2450"/>
        <polygon class="Letter" points="990,2450 1004,2450 1004,2469 990,2469 990,2450"/>
        <polygon class="Letter" points="446,2451 460,2451 460,2470 446,2470 446,2451"/>
        <polygon class="Letter" points="476,2451 493,2451 493,2469 476,2469 476,2451"/>
        <polygon class="Letter" points="854,2451 877,2451 877,2471 854,2471 854,2451"/>
        <polygon class="Letter" points="919,2451 932,2451 932,2470 919,2470 919,2451"/>
        <polygon class="Letter" points="933,2451 947,2451 947,2470 933,2470 933,2451"/>
        <polygon class="Letter" points="962,2451 974,2451 974,2470 962,2470 962,2451"/>
        <polygon class="Letter" points="976,2451 989,2451 989,2470 976,2470 976,2451"/>
        <polygon class="Letter" points="1016,2451 1046,2451 1046,2469 1016,2469 1016,2451"/>
        <polygon class="Letter" points="811,2452 825,2452 825,2471 811,2471 811,2452"/>
        <polygon class="Letter" points="879,2452 891,2452 891,2470 879,2470 879,2452"/>
        <polygon class="Letter" points="892,2452 907,2452 907,2472 892,2472 892,2452"/>
        <polygon class="Letter" points="947,2452 960,2452 960,2470 947,2470 947,2452"/>
        <polygon class="Letter" points="826,2453 838,2453 838,2472 826,2472 826,2453"/>
        <polygon class="Letter" points="839,2453 852,2453 852,2471 839,2471 839,2453"/>
        <polygon class="Letter" points="2028,2458 2043,2458 2043,2480 2028,2480 2028,2458"/>
        <polygon class="Letter" points="1980,2459 1998,2459 1998,2480 1980,2480 1980,2459"/>
        <polygon class="Letter" points="2014,2459 2028,2459 2028,2479 2014,2479 2014,2459"/>
        <polygon class="Letter" points="2041,2459 2066,2459 2066,2478 2041,2478 2041,2459"/>
        <polygon class="Letter" points="2067,2459 2081,2459 2081,2479 2067,2479 2067,2459"/>
        <polygon class="Letter" points="2096,2459 2128,2459 2128,2479 2096,2479 2096,2459"/>
        <polygon class="Letter" points="2129,2459 2143,2459 2143,2479 2129,2479 2129,2459"/>
        <polygon class="Letter" points="1962,2460 1980,2460 1980,2479 1962,2479 1962,2460"/>
        <polygon class="Letter" points="1998,2460 2012,2460 2012,2479 1998,2479 1998,2460"/>
        <polygon class="Letter" points="623,2474 636,2474 636,2496 623,2496 623,2474"/>
        <polygon class="Letter" points="651,2474 655,2474 655,2495 651,2495 651,2474"/>
        <polygon class="Letter" points="656,2474 670,2474 670,2495 656,2495 656,2474"/>
        <polygon class="Letter" points="681,2474 694,2474 694,2496 681,2496 681,2474"/>
        <polygon class="Letter" points="693,2474 709,2474 709,2496 693,2496 693,2474"/>
        <polygon class="Letter" points="709,2474 723,2474 723,2494 709,2494 709,2474"/>
        <polygon class="Letter" points="582,2475 611,2475 611,2502 582,2502 582,2475"/>
        <polygon class="Letter" points="635,2475 651,2475 651,2496 635,2496 635,2475"/>
        <polygon class="Letter" points="1033,2475 1045,2475 1045,2496 1033,2496 1033,2475"/>
        <polygon class="Letter" points="508,2476 521,2476 521,2496 508,2496 508,2476"/>
        <polygon class="Letter" points="522,2476 537,2476 537,2496 522,2496 522,2476"/>
        <polygon class="Letter" points="1218,2476 1231,2476 1231,2496 1218,2496 1218,2476"/>
        <polygon class="Letter" points="477,2477 491,2477 491,2497 477,2497 477,2477"/>
        <polygon class="Letter" points="536,2477 550,2477 550,2496 536,2496 536,2477"/>
        <polygon class="Letter" points="551,2477 565,2477 565,2497 551,2497 551,2477"/>
        <polygon class="Letter" points="1019,2477 1032,2477 1032,2496 1019,2496 1019,2477"/>
        <polygon class="Letter" points="1178,2477 1193,2477 1193,2497 1178,2497 1178,2477"/>
        <polygon class="Letter" points="1194,2477 1217,2477 1217,2496 1194,2496 1194,2477"/>
        <polygon class="Letter" points="1233,2477 1249,2477 1249,2497 1233,2497 1233,2477"/>
        <polygon class="Letter" points="449,2478 462,2478 462,2497 449,2497 449,2478"/>
        <polygon class="Letter" points="492,2478 506,2478 506,2496 492,2496 492,2478"/>
        <polygon class="Letter" points="906,2478 919,2478 919,2497 906,2497 906,2478"/>
        <polygon class="Letter" points="963,2478 975,2478 975,2498 963,2498 963,2478"/>
        <polygon class="Letter" points="1004,2478 1018,2478 1018,2496 1004,2496 1004,2478"/>
        <polygon class="Letter" points="431,2479 447,2479 447,2497 431,2497 431,2479"/>
        <polygon class="Letter" points="880,2479 891,2479 891,2498 880,2498 880,2479"/>
        <polygon class="Letter" points="892,2479 905,2479 905,2498 892,2498 892,2479"/>
        <polygon class="Letter" points="949,2479 962,2479 962,2497 949,2497 949,2479"/>
        <polygon class="Letter" points="987,2479 1003,2479 1003,2496 987,2496 987,2479"/>
        <polygon class="Letter" points="800,2480 811,2480 811,2499 800,2499 800,2480"/>
        <polygon class="Letter" points="826,2480 839,2480 839,2499 826,2499 826,2480"/>
        <polygon class="Letter" points="840,2480 853,2480 853,2498 840,2498 840,2480"/>
        <polygon class="Letter" points="854,2480 867,2480 867,2498 854,2498 854,2480"/>
        <polygon class="Letter" points="931,2480 947,2480 947,2497 931,2497 931,2480"/>
        <polygon class="Letter" points="812,2481 825,2481 825,2498 812,2498 812,2481"/>
        <polygon class="Letter" points="2116,2485 2129,2485 2129,2506 2116,2506 2116,2485"/>
        <polygon class="Letter" points="1990,2486 1995,2486 1995,2498 1990,2498 1990,2486"/>
        <polygon class="Letter" points="2011,2486 2025,2486 2025,2506 2011,2506 2011,2486"/>
        <polygon class="Letter" points="2025,2486 2040,2486 2040,2507 2025,2507 2025,2486"/>
        <polygon class="Letter" points="1976,2487 1991,2487 1991,2506 1976,2506 1976,2487"/>
        <polygon class="Letter" points="1996,2487 2009,2487 2009,2507 1996,2507 1996,2487"/>
        <polygon class="Letter" points="2053,2487 2085,2487 2085,2506 2053,2506 2053,2487"/>
        <polygon class="Letter" points="2086,2487 2100,2487 2100,2506 2086,2506 2086,2487"/>
        <polygon class="Letter" points="1052,2491 1056,2491 1056,2496 1052,2496 1052,2491"/>
        <polygon class="Letter" points="1058,2491 1061,2491 1061,2496 1058,2496 1058,2491"/>
        <polygon class="Letter" points="699,2501 713,2501 713,2521 699,2521 699,2501"/>
        <polygon class="Letter" points="2101,2501 2105,2501 2105,2506 2101,2506 2101,2501"/>
        <polygon class="Letter" points="2106,2501 2110,2501 2110,2506 2106,2506 2106,2501"/>
        <polygon class="Letter" points="2112,2501 2116,2501 2116,2506 2112,2506 2112,2501"/>
        <polygon class="Letter" points="607,2502 611,2502 611,2523 607,2523 607,2502"/>
        <polygon class="Letter" points="612,2502 636,2502 636,2523 612,2523 612,2502"/>
        <polygon class="Letter" points="684,2502 698,2502 698,2522 684,2522 684,2502"/>
        <polygon class="Letter" points="714,2502 728,2502 728,2522 714,2522 714,2502"/>
        <polygon class="Letter" points="638,2503 651,2503 651,2522 638,2522 638,2503"/>
        <polygon class="Letter" points="654,2503 667,2503 667,2522 654,2522 654,2503"/>
        <polygon class="Letter" points="669,2503 683,2503 683,2522 669,2522 669,2503"/>
        <polygon class="Letter" points="1175,2503 1192,2503 1192,2524 1175,2524 1175,2503"/>
        <polygon class="Letter" points="1204,2503 1220,2503 1220,2524 1204,2524 1204,2503"/>
        <polygon class="Letter" points="1252,2503 1283,2503 1283,2523 1252,2523 1252,2503"/>
        <polygon class="Letter" points="1287,2503 1300,2503 1300,2522 1287,2522 1287,2503"/>
        <polygon class="Letter" points="484,2504 497,2504 497,2524 484,2524 484,2504"/>
        <polygon class="Letter" points="514,2504 544,2504 544,2525 514,2525 514,2504"/>
        <polygon class="Letter" points="562,2504 576,2504 576,2523 562,2523 562,2504"/>
        <polygon class="Letter" points="1136,2504 1150,2504 1150,2524 1136,2524 1136,2504"/>
        <polygon class="Letter" points="1221,2504 1235,2504 1235,2523 1221,2523 1221,2504"/>
        <polygon class="Letter" points="1237,2504 1251,2504 1251,2523 1237,2523 1237,2504"/>
        <polygon class="Letter" points="426,2505 454,2505 454,2525 426,2525 426,2505"/>
        <polygon class="Letter" points="455,2505 468,2505 468,2524 455,2524 455,2505"/>
        <polygon class="Letter" points="500,2505 513,2505 513,2524 500,2524 500,2505"/>
        <polygon class="Letter" points="544,2505 561,2505 561,2523 544,2523 544,2505"/>
        <polygon class="Letter" points="589,2505 606,2505 606,2523 589,2523 589,2505"/>
        <polygon class="Letter" points="1118,2505 1135,2505 1135,2523 1118,2523 1118,2505"/>
        <polygon class="Letter" points="1162,2505 1177,2505 1177,2523 1162,2523 1162,2505"/>
        <polygon class="Letter" points="1283,2528 1287,2528 1287,2550 1283,2550 1283,2528"/>
        <polygon class="Letter" points="596,2529 612,2529 612,2551 596,2551 596,2529"/>
        <polygon class="Letter" points="613,2530 627,2530 627,2549 613,2549 613,2530"/>
        <polygon class="Letter" points="643,2530 656,2530 656,2550 643,2550 643,2530"/>
        <polygon class="Letter" points="1093,2530 1123,2530 1123,2552 1093,2552 1093,2530"/>
        <polygon class="Letter" points="1150,2530 1162,2530 1162,2552 1150,2552 1150,2530"/>
        <polygon class="Letter" points="1267,2530 1282,2530 1282,2550 1267,2550 1267,2530"/>
        <polygon class="Letter" points="1288,2530 1302,2530 1302,2549 1288,2549 1288,2530"/>
        <polygon class="Letter" points="1304,2530 1318,2530 1318,2550 1304,2550 1304,2530"/>
        <polygon class="Letter" points="1320,2530 1333,2530 1333,2549 1320,2549 1320,2530"/>
        <polygon class="Letter" points="498,2531 511,2531 511,2551 498,2551 498,2531"/>
        <polygon class="Letter" points="556,2531 583,2531 583,2552 556,2552 556,2531"/>
        <polygon class="Letter" points="629,2531 641,2531 641,2551 629,2551 629,2531"/>
        <polygon class="Letter" points="1162,2531 1177,2531 1177,2552 1162,2552 1162,2531"/>
        <polygon class="Letter" points="1183,2531 1196,2531 1196,2550 1183,2550 1183,2531"/>
        <polygon class="Letter" points="1225,2531 1239,2531 1239,2550 1225,2550 1225,2531"/>
        <polygon class="Letter" points="1240,2531 1253,2531 1253,2550 1240,2550 1240,2531"/>
        <polygon class="Letter" points="513,2532 526,2532 526,2551 513,2551 513,2532"/>
        <polygon class="Letter" points="528,2532 542,2532 542,2551 528,2551 528,2532"/>
        <polygon class="Letter" points="1123,2532 1136,2532 1136,2551 1123,2551 1123,2532"/>
        <polygon class="Letter" points="1211,2532 1224,2532 1224,2550 1211,2550 1211,2532"/>
        <polygon class="Letter" points="1178,2535 1181,2535 1181,2551 1178,2551 1178,2535"/>
        <polygon class="Letter" points="595,2556 599,2556 599,2578 595,2578 595,2556"/>
        <polygon class="Letter" points="1311,2556 1327,2556 1327,2576 1311,2576 1311,2556"/>
        <polygon class="Letter" points="567,2557 580,2557 580,2580 567,2580 567,2557"/>
        <polygon class="Letter" points="628,2557 634,2557 634,2577 628,2577 628,2557"/>
        <polygon class="Letter" points="1156,2557 1167,2557 1167,2578 1156,2578 1156,2557"/>
        <polygon class="Letter" points="1230,2557 1243,2557 1243,2583 1230,2583 1230,2557"/>
        <polygon class="Letter" points="1243,2557 1259,2557 1259,2578 1243,2578 1243,2557"/>
        <polygon class="Letter" points="1283,2557 1299,2557 1299,2578 1283,2578 1283,2557"/>
        <polygon class="Letter" points="1326,2557 1340,2557 1340,2576 1326,2576 1326,2557"/>
        <polygon class="Letter" points="579,2558 595,2558 595,2579 579,2579 579,2558"/>
        <polygon class="Letter" points="600,2558 614,2558 614,2577 600,2577 600,2558"/>
        <polygon class="Letter" points="1087,2558 1102,2558 1102,2578 1087,2578 1087,2558"/>
        <polygon class="Letter" points="1184,2558 1198,2558 1198,2578 1184,2578 1184,2558"/>
        <polygon class="Letter" points="1199,2558 1213,2558 1213,2580 1199,2580 1199,2558"/>
        <polygon class="Letter" points="1270,2558 1285,2558 1285,2576 1270,2576 1270,2558"/>
        <polygon class="Letter" points="540,2559 554,2559 554,2578 540,2578 540,2559"/>
        <polygon class="Letter" points="1103,2559 1115,2559 1115,2580 1103,2580 1103,2559"/>
        <polygon class="Letter" points="1117,2559 1130,2559 1130,2578 1117,2578 1117,2559"/>
        <polygon class="Letter" points="1169,2559 1183,2559 1183,2578 1169,2578 1169,2559"/>
        <polygon class="Letter" points="522,2560 539,2560 539,2578 522,2578 522,2560"/>
        <polygon class="Letter" points="1131,2560 1144,2560 1144,2579 1131,2579 1131,2560"/>
        <polygon class="Letter" points="1213,2568 1218,2568 1218,2580 1213,2580 1213,2568"/>
        <polygon class="Letter" points="1280,2583 1293,2583 1293,2605 1280,2605 1280,2583"/>
        <polygon class="Letter" points="1134,2585 1149,2585 1149,2606 1134,2606 1134,2585"/>
        <polygon class="Letter" points="1212,2585 1226,2585 1226,2605 1212,2605 1212,2585"/>
        <polygon class="Letter" points="1240,2585 1268,2585 1268,2605 1240,2605 1240,2585"/>
        <polygon class="Letter" points="1294,2585 1307,2585 1307,2604 1294,2604 1294,2585"/>
        <polygon class="Letter" points="1309,2585 1327,2585 1327,2606 1309,2606 1309,2585"/>
        <polygon class="Letter" points="1120,2586 1134,2586 1134,2605 1120,2605 1120,2586"/>
        <polygon class="Letter" points="1149,2586 1162,2586 1162,2606 1149,2606 1149,2586"/>
        <polygon class="Letter" points="1164,2586 1178,2586 1178,2606 1164,2606 1164,2586"/>
        <polygon class="Letter" points="1196,2586 1210,2586 1210,2605 1196,2605 1196,2586"/>
        <polygon class="Letter" points="1101,2587 1118,2587 1118,2606 1101,2606 1101,2587"/>
        <polygon class="Letter" points="1178,2587 1195,2587 1195,2605 1178,2605 1178,2587"/>
        <polygon class="Letter" points="1253,2611 1268,2611 1268,2631 1253,2631 1253,2611"/>
        <polygon class="Letter" points="1310,2611 1316,2611 1316,2631 1310,2631 1310,2611"/>
        <polygon class="Letter" points="1207,2612 1222,2612 1222,2632 1207,2632 1207,2612"/>
        <polygon class="Letter" points="1284,2612 1297,2612 1297,2631 1284,2631 1284,2612"/>
        <polygon class="Letter" points="1133,2613 1160,2613 1160,2634 1133,2634 1133,2613"/>
        <polygon class="Letter" points="1173,2613 1187,2613 1187,2632 1173,2632 1173,2613"/>
        <polygon class="Letter" points="1188,2613 1207,2613 1207,2633 1188,2633 1188,2613"/>
        <polygon class="Letter" points="1223,2613 1238,2613 1238,2631 1223,2631 1223,2613"/>
        <polygon class="Letter" points="1239,2613 1253,2613 1253,2632 1239,2632 1239,2613"/>
        <polygon class="Letter" points="1269,2613 1281,2613 1281,2633 1269,2633 1269,2613"/>
        <polygon class="Letter" points="1112,2614 1132,2614 1132,2634 1112,2634 1112,2614"/>
        <polygon class="Letter" points="1453,2633 1467,2633 1467,2653 1453,2653 1453,2633"/>
        <polygon class="Letter" points="1439,2634 1452,2634 1452,2652 1439,2652 1439,2634"/>
        <polygon class="Letter" points="1361,2635 1374,2635 1374,2653 1361,2653 1361,2635"/>
        <polygon class="Letter" points="1376,2635 1398,2635 1398,2653 1376,2653 1376,2635"/>
        <polygon class="Letter" points="1399,2635 1411,2635 1411,2653 1399,2653 1399,2635"/>
        <polygon class="Letter" points="1425,2635 1438,2635 1438,2653 1425,2653 1425,2635"/>
        <polygon class="Letter" points="1424,2659 1449,2659 1449,2679 1424,2679 1424,2659"/>
        <polygon class="Letter" points="1449,2659 1462,2659 1462,2678 1449,2678 1449,2659"/>
        <polygon class="Letter" points="1463,2659 1475,2659 1475,2678 1463,2678 1463,2659"/>
        <polygon class="Letter" points="1477,2659 1490,2659 1490,2678 1477,2678 1477,2659"/>
        <polygon class="Letter" points="1368,2660 1381,2660 1381,2679 1368,2679 1368,2660"/>
        <polygon class="Letter" points="1396,2660 1408,2660 1408,2678 1396,2678 1396,2660"/>
        <polygon class="Letter" points="1353,2661 1366,2661 1366,2679 1353,2679 1353,2661"/>
        <polygon class="Letter" points="1382,2661 1395,2661 1395,2679 1382,2679 1382,2661"/>
        <polygon class="Letter" points="1410,2661 1423,2661 1423,2678 1410,2678 1410,2661"/>
        <polygon class="Letter" points="1336,2662 1352,2662 1352,2679 1336,2679 1336,2662"/>
        <polygon class="Letter" points="1374,2684 1378,2684 1378,2704 1374,2704 1374,2684"/>
        <polygon class="Letter" points="1482,2684 1508,2684 1508,2704 1482,2704 1482,2684"/>
        <polygon class="Letter" points="1320,2685 1333,2685 1333,2704 1320,2704 1320,2685"/>
        <polygon class="Letter" points="1333,2685 1348,2685 1348,2705 1333,2705 1333,2685"/>
        <polygon class="Letter" points="1359,2685 1374,2685 1374,2704 1359,2704 1359,2685"/>
        <polygon class="Letter" points="1380,2685 1392,2685 1392,2704 1380,2704 1380,2685"/>
        <polygon class="Letter" points="1409,2685 1422,2685 1422,2703 1409,2703 1409,2685"/>
        <polygon class="Letter" points="1456,2685 1468,2685 1468,2703 1456,2703 1456,2685"/>
        <polygon class="Letter" points="1394,2686 1407,2686 1407,2704 1394,2704 1394,2686"/>
        <polygon class="Letter" points="1438,2686 1454,2686 1454,2703 1438,2703 1438,2686"/>
        <polygon class="Letter" points="1423,2694 1427,2694 1427,2705 1423,2705 1423,2694"/>
        <polygon class="Letter" points="1391,2709 1395,2709 1395,2729 1391,2729 1391,2709"/>
        <polygon class="Letter" points="1421,2709 1437,2709 1437,2729 1421,2729 1421,2709"/>
        <polygon class="Letter" points="1437,2709 1450,2709 1450,2728 1437,2728 1437,2709"/>
        <polygon class="Letter" points="1451,2709 1463,2709 1463,2728 1451,2728 1451,2709"/>
        <polygon class="Letter" points="1376,2710 1391,2710 1391,2730 1376,2730 1376,2710"/>
        <polygon class="Letter" points="1465,2710 1478,2710 1478,2728 1465,2728 1465,2710"/>
        <polygon class="Letter" points="1362,2711 1375,2711 1375,2729 1362,2729 1362,2711"/>
        <polygon class="Letter" points="1396,2711 1409,2711 1409,2729 1396,2729 1396,2711"/>
        <polygon class="Letter" points="1348,2712 1362,2712 1362,2729 1348,2729 1348,2712"/>
        <polygon class="Letter" points="1448,2734 1454,2734 1454,2754 1448,2754 1448,2734"/>
        <polygon class="Letter" points="1374,2735 1394,2735 1394,2754 1374,2754 1374,2735"/>
        <polygon class="Letter" points="1393,2735 1421,2735 1421,2754 1393,2754 1393,2735"/>
        <polygon class="Letter" points="1423,2735 1436,2735 1436,2754 1423,2754 1423,2735"/>
    </svg>
    <svg contentScriptType="text/ecmascript" xmlns:xlink="http://www.w3.org/1999/xlink" zoomAndPan="magnify" class="Object" contentStyleType="text/css" preserveAspectRatio="xMidYMid meet" xmlns="http://www.w3.org/2000/svg" version="1.0"/>
    <desc method="Christophe's extractor" lastModificationDate="Fri Aug 24 11:04:15 CEST 2012"/>
</svg>
