<svg xmlns="http://www.w3.org/2000/svg" width="750" version="1.0" height="1060"><title>CYB_BUBBLEGOM_T01_030</title><svg contentScriptType="text/ecmascript" zoomAndPan="magnify" contentStyleType="text/css" class="Page" preserveAspectRatio="xMidYMid meet" version="1.0"><image xmlns:xlink="http://www.w3.org/1999/xlink" x="0" y="0" width="750" height="1060" xlink:href="../Pages/CYB_BUBBLEGOM_T01_030.jpg" xlink:type="simple" xlink:actuate="onLoad" preserveAspectRatio="xMidYMid meet" xlink:show="embed"/></svg><style type="text/css" xml:space="preserve">
            * { stroke-width: 0; stroke-linejoin: round; }
            .Unclassified { fill: orange; stroke: none; opacity: 1.0; visibility: hidden; }
            .Noise { fill: pink; stroke: none; opacity: 0.2; visibility: hidden; }
            .Panel { fill: red; stroke: none; opacity: 0.5; visibility: visible; image-rendering: optimizeSpeed; }
            .Line { fill: green; stroke: none; opacity: 0.5; visibility: visible; image-rendering: optimizeSpeed; }
            .TextArea { fill: grey; stroke: none; opacity: 0.2; visibility: visible; image-rendering: optimizeSpeed; }
            .Balloon { fill: cyan; stroke: none; opacity: 0.5; visibility: visible; image-rendering: optimizeSpeed; }
            .Letter { fill: blue; stroke: none; opacity: 0.2; visibility: hidden; }
            .Object { fill: yellow; stroke: none; opacity: 0.2; visibility: visible; image-rendering: optimizeSpeed; }
            .Page { fill: white; stroke: none; opacity: 0.5; visibility: visible; }
            polygon:hover { opacity:0.2; }
    </style><ns0:svg xmlns:ns0="http://www.w3.org/2000/svg" contentScriptType="text/ecmascript" zoomAndPan="magnify" class="Panel" contentStyleType="text/css" preserveAspectRatio="xMidYMid meet" version="1.0">
        <ns0:polygon points="248,961 54,961 54,639 248,639 248,961">
            <ns0:metadata id="CYB_BUBBLEGOM_T01_030_panel_1" rank="2"/>
        </ns0:polygon>
        <ns0:polygon points="694,944 491,944 491,640 694,640 694,944">
            <ns0:metadata id="CYB_BUBBLEGOM_T01_030_panel_3" rank="4"/>
        </ns0:polygon>
        <ns0:polygon points="465,641 464,965 266,962 267,640 465,641">
            <ns0:metadata id="CYB_BUBBLEGOM_T01_030_panel_2" rank="3"/>
        </ns0:polygon>
        <ns0:polygon points="692,602 54,602 54,82 692,82 692,602">
            <ns0:metadata id="CYB_BUBBLEGOM_T01_030_panel_0" rank="1"/>
        </ns0:polygon>
    </ns0:svg>
    <ns1:svg xmlns:ns1="http://www.w3.org/2000/svg" contentScriptType="text/ecmascript" zoomAndPan="magnify" class="Balloon" contentStyleType="text/css" preserveAspectRatio="xMidYMid meet" version="1.0">
        <ns1:polygon points="695,717 685,741 667,760 637,771 601,777 521,787 511,779 493,719 489,703 490,697 494,674 506,660 527,649 553,641 575,638 620,641 633,644 652,650 660,653 676,663 689,677 693,697 695,717">
            <ns1:metadata id="CYB_BUBBLEGOM_T01_030_balloon_3" tailTip="521,787" tailDirection="SE" rank="7"/>
        </ns1:polygon>
        <ns1:polygon points="442,706 439,717 424,746 316,846 266,754 267,637 413,637 423,648 430,657 437,670 442,681 442,706">
            <ns1:metadata id="CYB_BUBBLEGOM_T01_030_balloon_2" tailTip="316,846" tailDirection="S" rank="5"/>
        </ns1:polygon>
        <ns1:polygon points="534,427 523,451 520,454 498,463 407,488 387,444 382,428 382,417 383,414 387,406 393,397 410,384 440,374 462,372 484,375 503,380 515,389 525,399 532,414 534,427">
            <ns1:metadata id="CYB_BUBBLEGOM_T01_030_balloon_1" tailTip="407,488" tailDirection="SW" rank="3"/>
        </ns1:polygon>
        <ns1:polygon points="249,174 247,189 231,204 166,242 152,235 117,206 106,193 102,182 104,169 114,158 125,147 150,138 167,136 199,137 218,140 227,144 230,146 240,154 247,164 249,174">
            <ns1:metadata id="CYB_BUBBLEGOM_T01_030_balloon_0" tailTip="166,242" tailDirection="SE" rank="1"/>
        </ns1:polygon>
    </ns1:svg>
    <ns2:svg xmlns:ns2="http://www.w3.org/2000/svg" contentScriptType="text/ecmascript" zoomAndPan="magnify" class="Line" contentStyleType="text/css" preserveAspectRatio="xMidYMid meet" version="1.0">
        <ns2:polygon points="618,750 563,750 563,740 618,740 618,750">
            <ns2:metadata id="CYB_BUBBLEGOM_T01_030_line_28" rank="57"/>
        </ns2:polygon>
        <ns2:polygon points="386,731 307,731 307,722 386,722 386,731">
            <ns2:metadata id="CYB_BUBBLEGOM_T01_030_line_21" rank="43"/>
        </ns2:polygon>
        <ns2:polygon points="647,725 535,725 535,713 647,713 647,725">
            <ns2:metadata id="CYB_BUBBLEGOM_T01_030_line_26" rank="53"/>
        </ns2:polygon>
        <ns2:polygon points="412,719 281,719 281,709 412,709 412,719">
            <ns2:metadata id="CYB_BUBBLEGOM_T01_030_line_20" rank="41"/>
        </ns2:polygon>
        <ns2:polygon points="402,693 291,693 291,684 402,684 402,693">
            <ns2:metadata id="CYB_BUBBLEGOM_T01_030_line_18" rank="37"/>
        </ns2:polygon>
        <ns2:polygon points="402,680 291,680 291,670 402,670 402,680">
            <ns2:metadata id="CYB_BUBBLEGOM_T01_030_line_17" rank="35"/>
        </ns2:polygon>
        <ns2:polygon points="230,189 126,189 126,179 230,179 230,189">
            <ns2:metadata id="CYB_BUBBLEGOM_T01_030_line_1" rank="3"/>
        </ns2:polygon>
        <ns2:polygon points="182,201 173,201 173,196 182,196 182,201">
            <ns2:metadata id="CYB_BUBBLEGOM_T01_030_line_2" rank="5"/>
        </ns2:polygon>
        <ns2:polygon points="659,713 523,713 523,704 659,704 659,713">
            <ns2:metadata id="CYB_BUBBLEGOM_T01_030_line_25" rank="51"/>
        </ns2:polygon>
        <ns2:polygon points="489,407 425,407 425,396 489,396 489,407">
            <ns2:metadata id="CYB_BUBBLEGOM_T01_030_line_3" rank="7"/>
        </ns2:polygon>
        <ns2:polygon points="512,431 401,431 401,421 512,421 512,431">
            <ns2:metadata id="CYB_BUBBLEGOM_T01_030_line_5" rank="11"/>
        </ns2:polygon>
        <ns2:polygon points="507,444 406,444 406,430 507,430 507,444">
            <ns2:metadata id="CYB_BUBBLEGOM_T01_030_line_6" rank="13"/>
        </ns2:polygon>
        <ns2:polygon points="660,701 521,701 521,691 660,691 660,701">
            <ns2:metadata id="CYB_BUBBLEGOM_T01_030_line_24" rank="49"/>
        </ns2:polygon>
        <ns2:polygon points="498,419 415,419 415,405 498,405 498,419">
            <ns2:metadata id="CYB_BUBBLEGOM_T01_030_line_4" rank="9"/>
        </ns2:polygon>
        <ns2:polygon points="651,737 530,737 530,725 651,725 651,737">
            <ns2:metadata id="CYB_BUBBLEGOM_T01_030_line_27" rank="55"/>
        </ns2:polygon>
        <ns2:polygon points="646,676 536,676 536,666 646,666 646,676">
            <ns2:metadata id="CYB_BUBBLEGOM_T01_030_line_22" rank="45"/>
        </ns2:polygon>
        <ns2:polygon points="411,706 283,706 283,693 410,693 411,706">
            <ns2:metadata id="CYB_BUBBLEGOM_T01_030_line_19" rank="39"/>
        </ns2:polygon>
        <ns2:polygon points="660,689 523,689 523,679 660,679 660,689">
            <ns2:metadata id="CYB_BUBBLEGOM_T01_030_line_23" rank="47"/>
        </ns2:polygon>
        <ns2:polygon points="224,177 131,177 131,166 224,166 224,177">
            <ns2:metadata id="CYB_BUBBLEGOM_T01_030_line_0" rank="1"/>
        </ns2:polygon>
    </ns2:svg>
    <svg xmlns="http://www.w3.org/2000/svg" contentScriptType="text/ecmascript" zoomAndPan="magnify" contentStyleType="text/css" class="Object" preserveAspectRatio="xMidYMid meet" version="1.0"><polygon points="515,786 662,786 662,938 515,938 515,786"><metadata id="CYB_BUBBLEGOM_T01_030_character_2" idBalloon="CYB_BUBBLEGOM_T01_030_balloon_3" idPanel="CYB_BUBBLEGOM_T01_030_panel_3"/>
        </polygon><polygon points="266,493 382,493 382,598 266,598 266,493"><metadata id="CYB_BUBBLEGOM_T01_030_character_4" idBalloon="CYB_BUBBLEGOM_T01_030_balloon_1" idPanel="CYB_BUBBLEGOM_T01_030_panel_0"/>
        </polygon><polygon points="164,231 340,231 340,402 164,402 164,231"><metadata id="CYB_BUBBLEGOM_T01_030_character_3" idBalloon="CYB_BUBBLEGOM_T01_030_balloon_0" idPanel="CYB_BUBBLEGOM_T01_030_panel_0"/>
        </polygon><polygon points="270,861 463,861 463,962 270,962 270,861"><metadata id="CYB_BUBBLEGOM_T01_030_character_1" idBalloon="CYB_BUBBLEGOM_T01_030_balloon_2" idPanel="CYB_BUBBLEGOM_T01_030_panel_2"/>
        </polygon></svg><metadata lastModificationDate="Wed, 07 May 2014 11+:40:17 +0000" method="Christophe Rigaud's extractor"/></svg>
