<svg xmlns="http://www.w3.org/2000/svg" width="3054" version="1.0" height="4196"><title>MCCAY_LITTLENEMO_168</title><svg contentScriptType="text/ecmascript" zoomAndPan="magnify" contentStyleType="text/css" class="Page" preserveAspectRatio="xMidYMid meet" version="1.0"><image xmlns:xlink="http://www.w3.org/1999/xlink" x="0" y="0" width="3054" height="4196" xlink:href="../Pages/MCCAY_LITTLENEMO_168.jpg" xlink:type="simple" xlink:actuate="onLoad" preserveAspectRatio="xMidYMid meet" xlink:show="embed"/></svg><style type="text/css" xml:space="preserve">
            * { stroke-width: 0; stroke-linejoin: round; }
            .Unclassified { fill: orange; stroke: none; opacity: 1.0; visibility: hidden; }
            .Noise { fill: pink; stroke: none; opacity: 0.2; visibility: hidden; }
            .Panel { fill: red; stroke: none; opacity: 0.5; visibility: visible; image-rendering: optimizeSpeed; }
            .Line { fill: green; stroke: none; opacity: 0.5; visibility: visible; image-rendering: optimizeSpeed; }
            .TextArea { fill: grey; stroke: none; opacity: 0.2; visibility: visible; image-rendering: optimizeSpeed; }
            .Balloon { fill: cyan; stroke: none; opacity: 0.5; visibility: visible; image-rendering: optimizeSpeed; }
            .Letter { fill: blue; stroke: none; opacity: 0.2; visibility: hidden; }
            .Object { fill: yellow; stroke: none; opacity: 0.2; visibility: visible; image-rendering: optimizeSpeed; }
            .Page { fill: white; stroke: none; opacity: 0.5; visibility: visible; }
            polygon:hover { opacity:0.2; }
    </style><ns0:svg xmlns:ns0="http://www.w3.org/2000/svg" contentScriptType="text/ecmascript" zoomAndPan="magnify" class="Panel" contentStyleType="text/css" preserveAspectRatio="xMidYMid meet" version="1.0">
        <ns0:polygon points="1548,2979 810,2979 810,2059 1548,2059 1548,2979">
            <ns0:metadata id="MCCAY_LITTLENEMO_168_panel_9" rank="10"/>
        </ns0:polygon>
        <ns0:polygon points="806,2036 71,2036 71,1106 806,1106 806,2036">
            <ns0:metadata id="MCCAY_LITTLENEMO_168_panel_4" rank="5"/>
        </ns0:polygon>
        <ns0:polygon points="1539,1091 815,1091 815,143 1539,143 1539,1091">
            <ns0:metadata id="MCCAY_LITTLENEMO_168_panel_1" rank="2"/>
        </ns0:polygon>
        <ns0:polygon points="794,3943 69,3943 69,2998 794,2998 794,3943">
            <ns0:metadata id="MCCAY_LITTLENEMO_168_panel_12" rank="13"/>
        </ns0:polygon>
        <ns0:polygon points="3009,2036 2276,2036 2276,1101 3009,1101 3009,2036">
            <ns0:metadata id="MCCAY_LITTLENEMO_168_panel_7" rank="8"/>
        </ns0:polygon>
        <ns0:polygon points="1537,3939 806,3939 806,2994 1537,2994 1537,3939">
            <ns0:metadata id="MCCAY_LITTLENEMO_168_panel_13" rank="14"/>
        </ns0:polygon>
        <ns0:polygon points="2272,2977 1554,2977 1554,2061 2272,2061 2272,2977">
            <ns0:metadata id="MCCAY_LITTLENEMO_168_panel_10" rank="11"/>
        </ns0:polygon>
        <ns0:polygon points="3005,1087 2279,1087 2279,145 3005,145 3005,1087">
            <ns0:metadata id="MCCAY_LITTLENEMO_168_panel_3" rank="4"/>
        </ns0:polygon>
        <ns0:polygon points="3001,2973 2283,2973 2283,2065 3001,2065 3001,2973">
            <ns0:metadata id="MCCAY_LITTLENEMO_168_panel_11" rank="12"/>
        </ns0:polygon>
        <ns0:polygon points="796,2981 73,2981 73,2061 796,2061 796,2981">
            <ns0:metadata id="MCCAY_LITTLENEMO_168_panel_8" rank="9"/>
        </ns0:polygon>
        <ns0:polygon points="1537,2034 815,2034 815,1104 1537,1104 1537,2034">
            <ns0:metadata id="MCCAY_LITTLENEMO_168_panel_5" rank="6"/>
        </ns0:polygon>
        <ns0:polygon points="2277,1089 1555,1089 1555,147 2277,147 2277,1089">
            <ns0:metadata id="MCCAY_LITTLENEMO_168_panel_2" rank="3"/>
        </ns0:polygon>
        <ns0:polygon points="3003,3947 1550,3947 1550,3004 3003,3004 3003,3947">
            <ns0:metadata id="MCCAY_LITTLENEMO_168_panel_14" rank="15"/>
        </ns0:polygon>
        <ns0:polygon points="807,1089 79,1089 79,141 807,141 807,1089">
            <ns0:metadata id="MCCAY_LITTLENEMO_168_panel_0" rank="1"/>
        </ns0:polygon>
        <ns0:polygon points="2270,2032 1552,2032 1552,1106 2270,1106 2270,2032">
            <ns0:metadata id="MCCAY_LITTLENEMO_168_panel_6" rank="7"/>
        </ns0:polygon>
    </ns0:svg>
    <ns1:svg xmlns:ns1="http://www.w3.org/2000/svg" contentScriptType="text/ecmascript" zoomAndPan="magnify" class="Balloon" contentStyleType="text/css" preserveAspectRatio="xMidYMid meet" version="1.0">
        <ns1:polygon points="1418,1197 1417,1265 1416,1295 1401,1322 1302,1372 1215,1317 1206,1303 1203,1256 1201,1173 1220,1154 1349,1153 1383,1154 1405,1162 1415,1170 1418,1197">
            <ns1:metadata id="MCCAY_LITTLENEMO_168_balloon_11" tailTip="1302,1372" tailDirection="S" rank="23"/>
        </ns1:polygon>
        <ns1:polygon points="981,3141 978,3206 974,3287 959,3308 866,3349 821,3306 817,3281 817,3259 822,3111 828,3079 866,3074 968,3074 980,3090 981,3141">
            <ns1:metadata id="MCCAY_LITTLENEMO_168_balloon_26" tailTip="866,3349" tailDirection="S" rank="53"/>
        </ns1:polygon>
        <ns1:polygon points="2753,2445 2750,2483 2717,2503 2623,2525 2603,2493 2600,2456 2601,2400 2618,2374 2636,2372 2742,2373 2752,2392 2753,2445">
            <ns1:metadata id="MCCAY_LITTLENEMO_168_balloon_23" tailTip="2623,2525" tailDirection="SW" rank="47"/>
        </ns1:polygon>
        <ns1:polygon points="330,1286 315,1312 230,1352 158,1324 149,1315 140,1251 143,1199 160,1176 293,1176 322,1185 326,1203 330,1286">
            <ns1:metadata id="MCCAY_LITTLENEMO_168_balloon_8" tailTip="230,1352" tailDirection="S" rank="17"/>
        </ns1:polygon>
        <ns1:polygon points="2145,436 2142,557 2138,576 2121,590 2014,628 1930,586 1917,570 1917,445 1924,423 1938,414 2105,409 2127,410 2142,419 2145,436">
            <ns1:metadata id="MCCAY_LITTLENEMO_168_balloon_5" tailTip="2014,628" tailDirection="S" rank="11"/>
        </ns1:polygon>
        <ns1:polygon points="2796,365 2791,463 2790,477 2777,492 2651,536 2647,534 2586,484 2581,401 2579,360 2588,333 2597,321 2759,322 2782,323 2792,345 2796,365">
            <ns1:metadata id="MCCAY_LITTLENEMO_168_balloon_7" tailTip="2651,536" tailDirection="S" rank="15"/>
        </ns1:polygon>
        <ns1:polygon points="783,3311 771,3330 680,3383 609,3345 597,3327 595,3302 597,3229 611,3201 724,3195 767,3198 780,3217 782,3273 783,3311">
            <ns1:metadata id="MCCAY_LITTLENEMO_168_balloon_25" tailTip="680,3383" tailDirection="S" rank="51"/>
        </ns1:polygon>
        <ns1:polygon points="2770,3458 2746,3518 2736,3536 2707,3538 2566,3543 2540,3541 2527,3528 2510,3309 2531,3290 2602,3291 2704,3293 2735,3294 2746,3324 2770,3458">
            <ns1:metadata id="MCCAY_LITTLENEMO_168_balloon_31" tailTip="2770,3458" tailDirection="E" rank="63"/>
        </ns1:polygon>
        <ns1:polygon points="2284,3748 2282,3832 2281,3862 2269,3882 2163,3888 2107,3888 2079,3879 2045,3770 2083,3734 2099,3720 2259,3716 2280,3725 2284,3748">
            <ns1:metadata id="MCCAY_LITTLENEMO_168_balloon_30" tailTip="2045,3770" tailDirection="W" rank="61"/>
        </ns1:polygon>
        <ns1:polygon points="1026,2279 1000,2316 940,2358 869,2323 839,2308 839,2166 853,2146 881,2142 985,2134 1011,2140 1024,2162 1026,2226 1026,2279">
            <ns1:metadata id="MCCAY_LITTLENEMO_168_balloon_18" tailTip="940,2358" tailDirection="S" rank="37"/>
        </ns1:polygon>
        <ns1:polygon points="1832,441 1828,514 1807,533 1742,578 1652,543 1637,535 1631,527 1630,513 1630,406 1637,390 1673,386 1777,387 1819,390 1832,403 1832,441">
            <ns1:metadata id="MCCAY_LITTLENEMO_168_balloon_4" tailTip="1742,578" tailDirection="SE" rank="9"/>
        </ns1:polygon>
        <ns1:polygon points="1739,2173 1735,2270 1698,2315 1678,2311 1579,2287 1573,2267 1572,2234 1572,2153 1582,2124 1623,2118 1714,2113 1733,2126 1739,2173">
            <ns1:metadata id="MCCAY_LITTLENEMO_168_balloon_20" tailTip="1698,2315" tailDirection="SE" rank="41"/>
        </ns1:polygon>
        <ns1:polygon points="2183,1342 2178,1405 2171,1450 2074,1484 2030,1451 2017,1440 2015,1425 2016,1362 2017,1339 2038,1321 2055,1321 2167,1323 2183,1342">
            <ns1:metadata id="MCCAY_LITTLENEMO_168_balloon_13" tailTip="2074,1484" tailDirection="S" rank="27"/>
        </ns1:polygon>
        <ns1:polygon points="1468,480 1467,511 1462,561 1445,573 1361,623 1289,563 1289,549 1291,462 1304,451 1361,448 1389,448 1448,452 1464,460 1468,480">
            <ns1:metadata id="MCCAY_LITTLENEMO_168_balloon_3" tailTip="1361,623" tailDirection="S" rank="7"/>
        </ns1:polygon>
        <ns1:polygon points="1090,359 1086,424 1083,440 1063,457 977,488 892,457 871,439 869,381 870,350 873,328 882,315 901,309 999,308 1064,311 1079,317 1087,328 1090,359">
            <ns1:metadata id="MCCAY_LITTLENEMO_168_balloon_2" tailTip="977,488" tailDirection="S" rank="5"/>
        </ns1:polygon>
        <ns1:polygon points="1511,3847 1510,3898 1501,3918 1449,3923 1400,3924 1351,3918 1346,3908 1346,3790 1351,3763 1387,3738 1467,3745 1500,3757 1511,3778 1511,3847">
            <ns1:metadata id="MCCAY_LITTLENEMO_168_balloon_27" tailTip="1387,3738" tailDirection="N" rank="55"/>
        </ns1:polygon>
        <ns1:polygon points="1918,3268 1867,3295 1826,3309 1646,3306 1618,3276 1621,3079 1636,3058 1687,3054 1865,3056 1879,3083 1918,3268">
            <ns1:metadata id="MCCAY_LITTLENEMO_168_balloon_28" tailTip="1918,3268" tailDirection="E" rank="57"/>
        </ns1:polygon>
        <ns1:polygon points="2412,2121 2409,2197 2400,2209 2356,2251 2297,2199 2295,2155 2295,2116 2299,2092 2339,2090 2381,2088 2408,2094 2412,2121">
            <ns1:metadata id="MCCAY_LITTLENEMO_168_balloon_22" tailTip="2356,2251" tailDirection="S" rank="45"/>
        </ns1:polygon>
        <ns1:polygon points="1090,1164 1089,1199 1086,1274 1075,1299 995,1338 894,1292 890,1274 889,1181 898,1145 934,1144 1006,1144 1077,1147 1090,1164">
            <ns1:metadata id="MCCAY_LITTLENEMO_168_balloon_10" tailTip="988,1332" tailDirection="S" rank="21"/>
        </ns1:polygon>
        <ns1:polygon points="724,1183 719,1256 716,1281 696,1297 548,1344 462,1300 441,1283 440,1237 440,1177 446,1158 475,1146 696,1146 718,1157 724,1183">
            <ns1:metadata id="MCCAY_LITTLENEMO_168_balloon_9" tailTip="548,1344" tailDirection="S" rank="19"/>
        </ns1:polygon>
        <ns1:polygon points="2522,1166 2519,1219 2509,1230 2431,1269 2386,1240 2367,1217 2368,1147 2373,1130 2386,1121 2446,1120 2503,1122 2521,1130 2522,1166">
            <ns1:metadata id="MCCAY_LITTLENEMO_168_balloon_14" tailTip="2431,1269" tailDirection="S" rank="29"/>
        </ns1:polygon>
        <ns1:polygon points="238,3385 198,3460 185,3477 113,3479 95,3468 87,3442 85,3273 112,3262 155,3263 183,3269 194,3288 238,3385">
            <ns1:metadata id="MCCAY_LITTLENEMO_168_balloon_24" tailTip="238,3385" tailDirection="E" rank="49"/>
        </ns1:polygon>
        <ns1:polygon points="1253,2206 1251,2231 1220,2249 1140,2282 1090,2248 1072,2231 1071,2194 1072,2108 1078,2087 1104,2079 1239,2082 1251,2101 1253,2151 1253,2206">
            <ns1:metadata id="MCCAY_LITTLENEMO_168_balloon_19" tailTip="1140,2282" tailDirection="S" rank="39"/>
        </ns1:polygon>
        <ns1:polygon points="744,432 740,463 726,481 615,529 525,489 504,478 496,455 492,362 496,325 508,307 532,303 707,302 734,306 742,323 743,364 744,432">
            <ns1:metadata id="MCCAY_LITTLENEMO_168_balloon_1" tailTip="615,529" tailDirection="S" rank="3"/>
        </ns1:polygon>
        <ns1:polygon points="356,2435 317,2437 121,2439 97,2423 98,2360 103,2274 125,2263 296,2259 321,2266 326,2290 356,2435">
            <ns1:metadata id="MCCAY_LITTLENEMO_168_balloon_16" tailTip="356,2435" tailDirection="E" rank="33"/>
        </ns1:polygon>
        <ns1:polygon points="2868,1169 2857,1224 2830,1242 2737,1273 2651,1243 2645,1230 2643,1137 2651,1121 2675,1116 2851,1121 2868,1139 2868,1169">
            <ns1:metadata id="MCCAY_LITTLENEMO_168_balloon_15" tailTip="2737,1273" tailDirection="S" rank="31"/>
        </ns1:polygon>
        <ns1:polygon points="2542,345 2540,442 2538,466 2507,487 2465,512 2457,510 2372,481 2357,462 2363,320 2376,313 2514,313 2530,324 2542,345">
            <ns1:metadata id="MCCAY_LITTLENEMO_168_balloon_6" tailTip="2465,512" tailDirection="SE" rank="13"/>
        </ns1:polygon>
        <ns1:polygon points="1783,3428 1777,3474 1757,3498 1715,3538 1592,3515 1567,3484 1567,3371 1570,3340 1592,3325 1644,3323 1753,3325 1779,3337 1781,3361 1783,3428">
            <ns1:metadata id="MCCAY_LITTLENEMO_168_balloon_29" tailTip="1715,3538" tailDirection="SE" rank="59"/>
        </ns1:polygon>
        <ns1:polygon points="475,2096 472,2190 432,2236 333,2207 320,2194 316,2154 314,2090 326,2075 430,2073 463,2074 475,2096">
            <ns1:metadata id="MCCAY_LITTLENEMO_168_balloon_17" tailTip="432,2236" tailDirection="E" rank="35"/>
        </ns1:polygon>
        <ns1:polygon points="329,340 326,432 321,448 297,462 204,508 197,505 127,470 119,456 118,417 116,333 123,311 168,302 308,301 322,316 329,340">
            <ns1:metadata id="MCCAY_LITTLENEMO_168_balloon_0" tailTip="204,508" tailDirection="S" rank="1"/>
        </ns1:polygon>
        <ns1:polygon points="2168,2179 2167,2197 2145,2209 2033,2203 2007,2192 2020,2099 2036,2083 2064,2081 2115,2084 2166,2092 2168,2179">
            <ns1:metadata id="MCCAY_LITTLENEMO_168_balloon_21" tailTip="2007,2192" tailDirection="SW" rank="43"/>
        </ns1:polygon>
        <ns1:polygon points="1797,1253 1796,1295 1793,1319 1691,1375 1685,1373 1626,1319 1625,1268 1625,1210 1634,1200 1683,1195 1765,1195 1788,1200 1797,1214 1797,1253">
            <ns1:metadata id="MCCAY_LITTLENEMO_168_balloon_12" tailTip="1691,1375" tailDirection="S" rank="25"/>
        </ns1:polygon>
    </ns1:svg>
    <ns2:svg xmlns:ns2="http://www.w3.org/2000/svg" contentScriptType="text/ecmascript" zoomAndPan="magnify" class="Line" contentStyleType="text/css" preserveAspectRatio="xMidYMid meet" version="1.0">
        <ns2:polygon points="1088,350 890,350 890,325 1088,325 1088,350">
            <ns2:metadata id="MCCAY_LITTLENEMO_168_line_15" rank="31"/>
        </ns2:polygon>
        <ns2:polygon points="1424,1252 1217,1252 1217,1225 1424,1225 1424,1252">
            <ns2:metadata id="MCCAY_LITTLENEMO_168_line_60" rank="121"/>
        </ns2:polygon>
        <ns2:polygon points="725,372 514,372 514,346 725,346 725,372">
            <ns2:metadata id="MCCAY_LITTLENEMO_168_line_11" rank="23"/>
        </ns2:polygon>
        <ns2:polygon points="1741,2229 1594,2229 1594,2204 1741,2204 1741,2229">
            <ns2:metadata id="MCCAY_LITTLENEMO_168_line_103" rank="207"/>
        </ns2:polygon>
        <ns2:polygon points="337,1246 159,1246 159,1217 337,1217 337,1246">
            <ns2:metadata id="MCCAY_LITTLENEMO_168_line_45" rank="91"/>
        </ns2:polygon>
        <ns2:polygon points="2731,2499 2627,2499 2627,2474 2731,2474 2731,2499">
            <ns2:metadata id="MCCAY_LITTLENEMO_168_line_118" rank="237"/>
        </ns2:polygon>
        <ns2:polygon points="1403,1223 1222,1223 1222,1194 1403,1194 1403,1223">
            <ns2:metadata id="MCCAY_LITTLENEMO_168_line_59" rank="119"/>
        </ns2:polygon>
        <ns2:polygon points="1408,1191 1234,1191 1234,1167 1408,1167 1408,1191">
            <ns2:metadata id="MCCAY_LITTLENEMO_168_line_58" rank="117"/>
        </ns2:polygon>
        <ns2:polygon points="320,2392 110,2392 110,2362 320,2362 320,2392">
            <ns2:metadata id="MCCAY_LITTLENEMO_168_line_89" rank="179"/>
        </ns2:polygon>
        <ns2:polygon points="1776,3408 1586,3408 1586,3376 1776,3376 1776,3408">
            <ns2:metadata id="MCCAY_LITTLENEMO_168_line_151" rank="303"/>
        </ns2:polygon>
        <ns2:polygon points="766,3231 614,3231 614,3208 766,3208 766,3231">
            <ns2:metadata id="MCCAY_LITTLENEMO_168_line_128" rank="257"/>
        </ns2:polygon>
        <ns2:polygon points="2533,1163 2388,1163 2388,1135 2533,1135 2533,1163">
            <ns2:metadata id="MCCAY_LITTLENEMO_168_line_74" rank="149"/>
        </ns2:polygon>
        <ns2:polygon points="2192,1359 2040,1359 2040,1337 2192,1337 2192,1359">
            <ns2:metadata id="MCCAY_LITTLENEMO_168_line_69" rank="139"/>
        </ns2:polygon>
        <ns2:polygon points="1858,3239 1645,3239 1645,3213 1858,3213 1858,3239">
            <ns2:metadata id="MCCAY_LITTLENEMO_168_line_148" rank="297"/>
        </ns2:polygon>
        <ns2:polygon points="460,2108 331,2108 331,2086 460,2086 460,2108">
            <ns2:metadata id="MCCAY_LITTLENEMO_168_line_82" rank="165"/>
        </ns2:polygon>
        <ns2:polygon points="1827,3210 1645,3210 1645,3176 1827,3176 1827,3210">
            <ns2:metadata id="MCCAY_LITTLENEMO_168_line_147" rank="295"/>
        </ns2:polygon>
        <ns2:polygon points="2275,3825 2095,3825 2095,3799 2275,3799 2275,3825">
            <ns2:metadata id="MCCAY_LITTLENEMO_168_line_156" rank="313"/>
        </ns2:polygon>
        <ns2:polygon points="1787,1305 1650,1305 1650,1284 1787,1284 1787,1305">
            <ns2:metadata id="MCCAY_LITTLENEMO_168_line_67" rank="135"/>
        </ns2:polygon>
        <ns2:polygon points="2742,3437 2541,3437 2541,3408 2742,3408 2742,3437">
            <ns2:metadata id="MCCAY_LITTLENEMO_168_line_161" rank="323"/>
        </ns2:polygon>
        <ns2:polygon points="2782,429 2610,429 2610,402 2782,402 2782,429">
            <ns2:metadata id="MCCAY_LITTLENEMO_168_line_40" rank="81"/>
        </ns2:polygon>
        <ns2:polygon points="464,2136 331,2136 331,2113 464,2113 464,2136">
            <ns2:metadata id="MCCAY_LITTLENEMO_168_line_83" rank="167"/>
        </ns2:polygon>
        <ns2:polygon points="331,408 136,408 136,382 331,382 331,408">
            <ns2:metadata id="MCCAY_LITTLENEMO_168_line_8" rank="17"/>
        </ns2:polygon>
        <ns2:polygon points="1019,2276 862,2276 862,2250 1019,2250 1019,2276">
            <ns2:metadata id="MCCAY_LITTLENEMO_168_line_95" rank="191"/>
        </ns2:polygon>
        <ns2:polygon points="1844,435 1654,435 1654,407 1844,407 1844,435">
            <ns2:metadata id="MCCAY_LITTLENEMO_168_line_22" rank="45"/>
        </ns2:polygon>
        <ns2:polygon points="2852,1164 2676,1164 2676,1133 2852,1133 2852,1164">
            <ns2:metadata id="MCCAY_LITTLENEMO_168_line_78" rank="157"/>
        </ns2:polygon>
        <ns2:polygon points="470,2161 330,2161 330,2136 470,2136 470,2161">
            <ns2:metadata id="MCCAY_LITTLENEMO_168_line_84" rank="169"/>
        </ns2:polygon>
        <ns2:polygon points="1005,2179 859,2179 859,2154 1005,2154 1005,2179">
            <ns2:metadata id="MCCAY_LITTLENEMO_168_line_92" rank="185"/>
        </ns2:polygon>
        <ns2:polygon points="1392,1280 1219,1280 1219,1256 1392,1256 1392,1280">
            <ns2:metadata id="MCCAY_LITTLENEMO_168_line_61" rank="123"/>
        </ns2:polygon>
        <ns2:polygon points="1100,411 1092,445 885,445 885,419 1100,411">
            <ns2:metadata id="MCCAY_LITTLENEMO_168_line_18" rank="37"/>
        </ns2:polygon>
        <ns2:polygon points="1839,3105 1637,3105 1637,3071 1839,3071 1839,3105">
            <ns2:metadata id="MCCAY_LITTLENEMO_168_line_144" rank="289"/>
        </ns2:polygon>
        <ns2:polygon points="718,439 512,439 512,407 718,407 718,439">
            <ns2:metadata id="MCCAY_LITTLENEMO_168_line_13" rank="27"/>
        </ns2:polygon>
        <ns2:polygon points="2182,1424 2042,1424 2042,1393 2182,1393 2182,1424">
            <ns2:metadata id="MCCAY_LITTLENEMO_168_line_71" rank="143"/>
        </ns2:polygon>
        <ns2:polygon points="2151,2177 2046,2177 2046,2149 2151,2149 2151,2177">
            <ns2:metadata id="MCCAY_LITTLENEMO_168_line_108" rank="217"/>
        </ns2:polygon>
        <ns2:polygon points="1740,3368 1584,3368 1584,3338 1740,3338 1740,3368">
            <ns2:metadata id="MCCAY_LITTLENEMO_168_line_150" rank="301"/>
        </ns2:polygon>
        <ns2:polygon points="331,439 135,439 135,412 331,412 331,439">
            <ns2:metadata id="MCCAY_LITTLENEMO_168_line_9" rank="19"/>
        </ns2:polygon>
        <ns2:polygon points="2702,3339 2536,3339 2536,3307 2702,3307 2702,3339">
            <ns2:metadata id="MCCAY_LITTLENEMO_168_line_158" rank="317"/>
        </ns2:polygon>
        <ns2:polygon points="195,3361 97,3361 97,3334 195,3334 195,3361">
            <ns2:metadata id="MCCAY_LITTLENEMO_168_line_124" rank="249"/>
        </ns2:polygon>
        <ns2:polygon points="270,2326 115,2326 115,2303 270,2303 270,2326">
            <ns2:metadata id="MCCAY_LITTLENEMO_168_line_87" rank="175"/>
        </ns2:polygon>
        <ns2:polygon points="2783,367 2605,367 2605,339 2783,339 2783,367">
            <ns2:metadata id="MCCAY_LITTLENEMO_168_line_38" rank="77"/>
        </ns2:polygon>
        <ns2:polygon points="1730,2169 1593,2169 1593,2137 1730,2137 1730,2169">
            <ns2:metadata id="MCCAY_LITTLENEMO_168_line_101" rank="203"/>
        </ns2:polygon>
        <ns2:polygon points="950,3151 844,3151 844,3121 950,3121 950,3151">
            <ns2:metadata id="MCCAY_LITTLENEMO_168_line_133" rank="267"/>
        </ns2:polygon>
        <ns2:polygon points="2167,2122 2038,2122 2038,2092 2167,2092 2167,2122">
            <ns2:metadata id="MCCAY_LITTLENEMO_168_line_106" rank="213"/>
        </ns2:polygon>
        <ns2:polygon points="2414,2163 2319,2163 2319,2140 2414,2140 2414,2163">
            <ns2:metadata id="MCCAY_LITTLENEMO_168_line_112" rank="225"/>
        </ns2:polygon>
        <ns2:polygon points="1825,3280 1638,3280 1638,3244 1825,3244 1825,3280">
            <ns2:metadata id="MCCAY_LITTLENEMO_168_line_149" rank="299"/>
        </ns2:polygon>
        <ns2:polygon points="2154,561 1942,561 1942,528 2154,528 2154,561">
            <ns2:metadata id="MCCAY_LITTLENEMO_168_line_29" rank="59"/>
        </ns2:polygon>
        <ns2:polygon points="1472,491 1313,491 1313,462 1472,462 1472,491">
            <ns2:metadata id="MCCAY_LITTLENEMO_168_line_19" rank="39"/>
        </ns2:polygon>
        <ns2:polygon points="915,3291 847,3291 847,3244 915,3244 915,3291">
            <ns2:metadata id="MCCAY_LITTLENEMO_168_line_136" rank="273"/>
        </ns2:polygon>
        <ns2:polygon points="2273,3761 2102,3761 2102,3739 2273,3739 2273,3761">
            <ns2:metadata id="MCCAY_LITTLENEMO_168_line_154" rank="309"/>
        </ns2:polygon>
        <ns2:polygon points="136,3417 104,3417 104,3391 136,3391 136,3417">
            <ns2:metadata id="MCCAY_LITTLENEMO_168_line_126" rank="253"/>
        </ns2:polygon>
        <ns2:polygon points="1688,2260 1591,2260 1591,2234 1688,2234 1688,2260">
            <ns2:metadata id="MCCAY_LITTLENEMO_168_line_104" rank="209"/>
        </ns2:polygon>
        <ns2:polygon points="912,3189 843,3189 843,3159 912,3159 912,3189">
            <ns2:metadata id="MCCAY_LITTLENEMO_168_line_134" rank="269"/>
        </ns2:polygon>
        <ns2:polygon points="1083,1238 916,1238 916,1216 1083,1216 1083,1238">
            <ns2:metadata id="MCCAY_LITTLENEMO_168_line_55" rank="111"/>
        </ns2:polygon>
        <ns2:polygon points="1093,1209 912,1209 912,1185 1093,1185 1093,1209">
            <ns2:metadata id="MCCAY_LITTLENEMO_168_line_54" rank="109"/>
        </ns2:polygon>
        <ns2:polygon points="969,3118 844,3118 844,3088 969,3088 969,3118">
            <ns2:metadata id="MCCAY_LITTLENEMO_168_line_132" rank="265"/>
        </ns2:polygon>
        <ns2:polygon points="1028,2210 858,2210 858,2184 1028,2184 1028,2210">
            <ns2:metadata id="MCCAY_LITTLENEMO_168_line_93" rank="187"/>
        </ns2:polygon>
        <ns2:polygon points="1228,2228 1088,2228 1088,2201 1228,2201 1228,2228">
            <ns2:metadata id="MCCAY_LITTLENEMO_168_line_99" rank="199"/>
        </ns2:polygon>
        <ns2:polygon points="2763,2415 2623,2415 2623,2385 2763,2385 2763,2415">
            <ns2:metadata id="MCCAY_LITTLENEMO_168_line_115" rank="231"/>
        </ns2:polygon>
        <ns2:polygon points="1797,1283 1651,1283 1651,1262 1797,1262 1797,1283">
            <ns2:metadata id="MCCAY_LITTLENEMO_168_line_66" rank="133"/>
        </ns2:polygon>
        <ns2:polygon points="2534,1192 2388,1192 2388,1163 2534,1163 2534,1192">
            <ns2:metadata id="MCCAY_LITTLENEMO_168_line_75" rank="151"/>
        </ns2:polygon>
        <ns2:polygon points="726,1180 461,1180 461,1162 726,1162 726,1180">
            <ns2:metadata id="MCCAY_LITTLENEMO_168_line_48" rank="97"/>
        </ns2:polygon>
        <ns2:polygon points="2801,399 2613,399 2613,371 2801,371 2801,399">
            <ns2:metadata id="MCCAY_LITTLENEMO_168_line_39" rank="79"/>
        </ns2:polygon>
        <ns2:polygon points="2492,454 2404,454 2404,426 2492,426 2492,454">
            <ns2:metadata id="MCCAY_LITTLENEMO_168_line_36" rank="73"/>
        </ns2:polygon>
        <ns2:polygon points="2409,2207 2322,2207 2322,2176 2409,2176 2409,2207">
            <ns2:metadata id="MCCAY_LITTLENEMO_168_line_114" rank="229"/>
        </ns2:polygon>
        <ns2:polygon points="180,3452 110,3452 110,3408 180,3408 180,3452">
            <ns2:metadata id="MCCAY_LITTLENEMO_168_line_127" rank="255"/>
        </ns2:polygon>
        <ns2:polygon points="2162,1452 2071,1452 2071,1425 2162,1425 2162,1452">
            <ns2:metadata id="MCCAY_LITTLENEMO_168_line_72" rank="145"/>
        </ns2:polygon>
        <ns2:polygon points="1782,3441 1591,3441 1591,3414 1782,3414 1782,3441">
            <ns2:metadata id="MCCAY_LITTLENEMO_168_line_152" rank="305"/>
        </ns2:polygon>
        <ns2:polygon points="314,344 134,344 134,314 314,314 314,344">
            <ns2:metadata id="MCCAY_LITTLENEMO_168_line_6" rank="13"/>
        </ns2:polygon>
        <ns2:polygon points="1759,1235 1645,1235 1645,1206 1759,1206 1759,1235">
            <ns2:metadata id="MCCAY_LITTLENEMO_168_line_64" rank="129"/>
        </ns2:polygon>
        <ns2:polygon points="2416,2130 2314,2130 2314,2105 2416,2105 2416,2130">
            <ns2:metadata id="MCCAY_LITTLENEMO_168_line_111" rank="223"/>
        </ns2:polygon>
        <ns2:polygon points="1864,3138 1639,3138 1639,3106 1864,3106 1864,3138">
            <ns2:metadata id="MCCAY_LITTLENEMO_168_line_145" rank="291"/>
        </ns2:polygon>
        <ns2:polygon points="1498,3783 1368,3783 1368,3759 1498,3759 1498,3783">
            <ns2:metadata id="MCCAY_LITTLENEMO_168_line_137" rank="275"/>
        </ns2:polygon>
        <ns2:polygon points="1072,416 890,416 890,384 1072,384 1072,416">
            <ns2:metadata id="MCCAY_LITTLENEMO_168_line_17" rank="35"/>
        </ns2:polygon>
        <ns2:polygon points="2150,528 1935,528 1935,498 2150,498 2150,528">
            <ns2:metadata id="MCCAY_LITTLENEMO_168_line_28" rank="57"/>
        </ns2:polygon>
        <ns2:polygon points="2115,585 1942,585 1942,559 2115,559 2115,585">
            <ns2:metadata id="MCCAY_LITTLENEMO_168_line_30" rank="61"/>
        </ns2:polygon>
        <ns2:polygon points="2677,3470 2542,3470 2542,3437 2677,3437 2677,3470">
            <ns2:metadata id="MCCAY_LITTLENEMO_168_line_162" rank="325"/>
        </ns2:polygon>
        <ns2:polygon points="323,2360 110,2360 110,2332 323,2332 323,2360">
            <ns2:metadata id="MCCAY_LITTLENEMO_168_line_88" rank="177"/>
        </ns2:polygon>
        <ns2:polygon points="269,2420 120,2420 120,2391 269,2391 269,2420">
            <ns2:metadata id="MCCAY_LITTLENEMO_168_line_90" rank="181"/>
        </ns2:polygon>
        <ns2:polygon points="992,2244 852,2244 852,2213 992,2213 992,2244">
            <ns2:metadata id="MCCAY_LITTLENEMO_168_line_94" rank="189"/>
        </ns2:polygon>
        <ns2:polygon points="187,3386 99,3386 99,3361 187,3361 187,3386">
            <ns2:metadata id="MCCAY_LITTLENEMO_168_line_125" rank="251"/>
        </ns2:polygon>
        <ns2:polygon points="775,3265 615,3265 615,3233 775,3233 775,3265">
            <ns2:metadata id="MCCAY_LITTLENEMO_168_line_129" rank="259"/>
        </ns2:polygon>
        <ns2:polygon points="2154,2201 2067,2201 2067,2175 2154,2175 2154,2201">
            <ns2:metadata id="MCCAY_LITTLENEMO_168_line_109" rank="219"/>
        </ns2:polygon>
        <ns2:polygon points="2883,1192 2670,1192 2670,1165 2883,1165 2883,1192">
            <ns2:metadata id="MCCAY_LITTLENEMO_168_line_79" rank="159"/>
        </ns2:polygon>
        <ns2:polygon points="1258,2164 1089,2164 1089,2136 1258,2136 1258,2164">
            <ns2:metadata id="MCCAY_LITTLENEMO_168_line_97" rank="195"/>
        </ns2:polygon>
        <ns2:polygon points="651,3304 609,3304 609,3268 651,3268 651,3304">
            <ns2:metadata id="MCCAY_LITTLENEMO_168_line_130" rank="261"/>
        </ns2:polygon>
        <ns2:polygon points="1478,3846 1357,3846 1357,3822 1478,3822 1478,3846">
            <ns2:metadata id="MCCAY_LITTLENEMO_168_line_139" rank="279"/>
        </ns2:polygon>
        <ns2:polygon points="183,3308 96,3308 96,3275 183,3275 183,3308">
            <ns2:metadata id="MCCAY_LITTLENEMO_168_line_122" rank="245"/>
        </ns2:polygon>
        <ns2:polygon points="1088,386 896,386 896,355 1088,355 1088,386">
            <ns2:metadata id="MCCAY_LITTLENEMO_168_line_16" rank="33"/>
        </ns2:polygon>
        <ns2:polygon points="1877,3172 1639,3172 1639,3145 1877,3145 1877,3172">
            <ns2:metadata id="MCCAY_LITTLENEMO_168_line_146" rank="293"/>
        </ns2:polygon>
        <ns2:polygon points="2487,1235 2426,1235 2426,1212 2487,1212 2487,1235">
            <ns2:metadata id="MCCAY_LITTLENEMO_168_line_77" rank="155"/>
        </ns2:polygon>
        <ns2:polygon points="2261,3860 2097,3860 2097,3831 2261,3831 2261,3860">
            <ns2:metadata id="MCCAY_LITTLENEMO_168_line_157" rank="315"/>
        </ns2:polygon>
        <ns2:polygon points="2514,481 2423,481 2423,447 2514,447 2514,481">
            <ns2:metadata id="MCCAY_LITTLENEMO_168_line_37" rank="75"/>
        </ns2:polygon>
        <ns2:polygon points="1487,3817 1356,3817 1356,3793 1487,3793 1487,3817">
            <ns2:metadata id="MCCAY_LITTLENEMO_168_line_138" rank="277"/>
        </ns2:polygon>
        <ns2:polygon points="1398,1313 1228,1313 1228,1284 1398,1284 1398,1313">
            <ns2:metadata id="MCCAY_LITTLENEMO_168_line_62" rank="125"/>
        </ns2:polygon>
        <ns2:polygon points="1797,526 1708,526 1708,498 1797,498 1797,526">
            <ns2:metadata id="MCCAY_LITTLENEMO_168_line_25" rank="51"/>
        </ns2:polygon>
        <ns2:polygon points="2525,394 2382,394 2382,360 2525,360 2525,394">
            <ns2:metadata id="MCCAY_LITTLENEMO_168_line_34" rank="69"/>
        </ns2:polygon>
        <ns2:polygon points="319,2300 111,2300 111,2273 319,2273 319,2300">
            <ns2:metadata id="MCCAY_LITTLENEMO_168_line_86" rank="173"/>
        </ns2:polygon>
        <ns2:polygon points="326,374 133,374 133,346 326,346 326,374">
            <ns2:metadata id="MCCAY_LITTLENEMO_168_line_7" rank="15"/>
        </ns2:polygon>
        <ns2:polygon points="2538,354 2386,354 2386,328 2538,328 2538,354">
            <ns2:metadata id="MCCAY_LITTLENEMO_168_line_33" rank="67"/>
        </ns2:polygon>
        <ns2:polygon points="419,2190 372,2190 372,2165 419,2165 419,2190">
            <ns2:metadata id="MCCAY_LITTLENEMO_168_line_85" rank="171"/>
        </ns2:polygon>
        <ns2:polygon points="167,3337 94,3337 94,3308 167,3308 167,3337">
            <ns2:metadata id="MCCAY_LITTLENEMO_168_line_123" rank="247"/>
        </ns2:polygon>
        <ns2:polygon points="953,3238 841,3238 841,3201 953,3201 953,3238">
            <ns2:metadata id="MCCAY_LITTLENEMO_168_line_135" rank="271"/>
        </ns2:polygon>
        <ns2:polygon points="710,1283 455,1283 455,1251 710,1251 710,1283">
            <ns2:metadata id="MCCAY_LITTLENEMO_168_line_51" rank="103"/>
        </ns2:polygon>
        <ns2:polygon points="740,338 526,338 526,315 740,315 740,338">
            <ns2:metadata id="MCCAY_LITTLENEMO_168_line_10" rank="21"/>
        </ns2:polygon>
        <ns2:polygon points="1507,3873 1357,3873 1357,3850 1507,3850 1507,3873">
            <ns2:metadata id="MCCAY_LITTLENEMO_168_line_140" rank="281"/>
        </ns2:polygon>
        <ns2:polygon points="333,1272 156,1272 156,1247 333,1247 333,1272">
            <ns2:metadata id="MCCAY_LITTLENEMO_168_line_46" rank="93"/>
        </ns2:polygon>
        <ns2:polygon points="2281,3795 2092,3795 2092,3769 2281,3769 2281,3795">
            <ns2:metadata id="MCCAY_LITTLENEMO_168_line_155" rank="311"/>
        </ns2:polygon>
        <ns2:polygon points="1093,1181 912,1181 912,1152 1093,1152 1093,1181">
            <ns2:metadata id="MCCAY_LITTLENEMO_168_line_53" rank="107"/>
        </ns2:polygon>
        <ns2:polygon points="1762,1328 1683,1328 1683,1304 1762,1304 1762,1328">
            <ns2:metadata id="MCCAY_LITTLENEMO_168_line_68" rank="137"/>
        </ns2:polygon>
        <ns2:polygon points="764,3339 626,3339 626,3271 764,3271 764,3339">
            <ns2:metadata id="MCCAY_LITTLENEMO_168_line_131" rank="263"/>
        </ns2:polygon>
        <ns2:polygon points="2772,485 2672,485 2672,460 2772,460 2772,485">
            <ns2:metadata id="MCCAY_LITTLENEMO_168_line_42" rank="85"/>
        </ns2:polygon>
        <ns2:polygon points="1479,554 1308,554 1308,509 1479,509 1479,554">
            <ns2:metadata id="MCCAY_LITTLENEMO_168_line_21" rank="43"/>
        </ns2:polygon>
        <ns2:polygon points="2156,460 1942,460 1942,431 2156,431 2156,460">
            <ns2:metadata id="MCCAY_LITTLENEMO_168_line_26" rank="53"/>
        </ns2:polygon>
        <ns2:polygon points="2861,1227 2674,1227 2674,1195 2861,1195 2861,1227">
            <ns2:metadata id="MCCAY_LITTLENEMO_168_line_80" rank="161"/>
        </ns2:polygon>
        <ns2:polygon points="1780,471 1657,471 1657,441 1780,441 1780,471">
            <ns2:metadata id="MCCAY_LITTLENEMO_168_line_23" rank="47"/>
        </ns2:polygon>
        <ns2:polygon points="1244,2128 1090,2128 1090,2099 1244,2099 1244,2128">
            <ns2:metadata id="MCCAY_LITTLENEMO_168_line_96" rank="193"/>
        </ns2:polygon>
        <ns2:polygon points="2693,3533 2589,3533 2589,3499 2693,3499 2693,3533">
            <ns2:metadata id="MCCAY_LITTLENEMO_168_line_164" rank="329"/>
        </ns2:polygon>
        <ns2:polygon points="2747,3373 2535,3373 2535,3350 2747,3350 2747,3373">
            <ns2:metadata id="MCCAY_LITTLENEMO_168_line_159" rank="319"/>
        </ns2:polygon>
        <ns2:polygon points="2533,1212 2386,1212 2386,1192 2533,1192 2533,1212">
            <ns2:metadata id="MCCAY_LITTLENEMO_168_line_76" rank="153"/>
        </ns2:polygon>
        <ns2:polygon points="713,1209 459,1209 459,1188 713,1188 713,1209">
            <ns2:metadata id="MCCAY_LITTLENEMO_168_line_49" rank="99"/>
        </ns2:polygon>
        <ns2:polygon points="2799,457 2617,457 2617,431 2799,431 2799,457">
            <ns2:metadata id="MCCAY_LITTLENEMO_168_line_41" rank="83"/>
        </ns2:polygon>
        <ns2:polygon points="2399,2183 2320,2183 2320,2165 2399,2165 2399,2183">
            <ns2:metadata id="MCCAY_LITTLENEMO_168_line_113" rank="227"/>
        </ns2:polygon>
        <ns2:polygon points="1454,3896 1355,3896 1355,3876 1454,3876 1454,3896">
            <ns2:metadata id="MCCAY_LITTLENEMO_168_line_141" rank="283"/>
        </ns2:polygon>
        <ns2:polygon points="1704,2289 1626,2289 1626,2254 1704,2254 1704,2289">
            <ns2:metadata id="MCCAY_LITTLENEMO_168_line_105" rank="211"/>
        </ns2:polygon>
        <ns2:polygon points="686,1245 461,1245 461,1215 686,1215 686,1245">
            <ns2:metadata id="MCCAY_LITTLENEMO_168_line_50" rank="101"/>
        </ns2:polygon>
        <ns2:polygon points="2157,2148 2049,2148 2049,2124 2157,2124 2157,2148">
            <ns2:metadata id="MCCAY_LITTLENEMO_168_line_107" rank="215"/>
        </ns2:polygon>
        <ns2:polygon points="2666,3500 2557,3500 2557,3473 2666,3473 2666,3500">
            <ns2:metadata id="MCCAY_LITTLENEMO_168_line_163" rank="327"/>
        </ns2:polygon>
        <ns2:polygon points="2107,493 1944,493 1944,471 2107,471 2107,493">
            <ns2:metadata id="MCCAY_LITTLENEMO_168_line_27" rank="55"/>
        </ns2:polygon>
        <ns2:polygon points="1082,1293 916,1293 916,1270 1082,1270 1082,1293">
            <ns2:metadata id="MCCAY_LITTLENEMO_168_line_57" rank="115"/>
        </ns2:polygon>
        <ns2:polygon points="1741,2199 1594,2199 1594,2170 1741,2170 1741,2199">
            <ns2:metadata id="MCCAY_LITTLENEMO_168_line_102" rank="205"/>
        </ns2:polygon>
        <ns2:polygon points="2189,1392 2037,1392 2037,1369 2189,1369 2189,1392">
            <ns2:metadata id="MCCAY_LITTLENEMO_168_line_70" rank="141"/>
        </ns2:polygon>
        <ns2:polygon points="1469,3923 1406,3923 1406,3893 1469,3893 1469,3923">
            <ns2:metadata id="MCCAY_LITTLENEMO_168_line_142" rank="285"/>
        </ns2:polygon>
        <ns2:polygon points="2761,2441 2621,2441 2621,2419 2761,2419 2761,2441">
            <ns2:metadata id="MCCAY_LITTLENEMO_168_line_116" rank="233"/>
        </ns2:polygon>
        <ns2:polygon points="1794,1262 1640,1262 1640,1238 1794,1238 1794,1262">
            <ns2:metadata id="MCCAY_LITTLENEMO_168_line_65" rank="131"/>
        </ns2:polygon>
        <ns2:polygon points="276,1306 203,1306 203,1276 276,1276 276,1306">
            <ns2:metadata id="MCCAY_LITTLENEMO_168_line_47" rank="95"/>
        </ns2:polygon>
        <ns2:polygon points="2755,2474 2616,2474 2616,2449 2755,2449 2755,2474">
            <ns2:metadata id="MCCAY_LITTLENEMO_168_line_117" rank="235"/>
        </ns2:polygon>
        <ns2:polygon points="322,1212 164,1212 164,1185 322,1185 322,1212">
            <ns2:metadata id="MCCAY_LITTLENEMO_168_line_44" rank="89"/>
        </ns2:polygon>
        <ns2:polygon points="1669,3481 1582,3481 1582,3452 1669,3452 1669,3481">
            <ns2:metadata id="MCCAY_LITTLENEMO_168_line_153" rank="307"/>
        </ns2:polygon>
        <ns2:polygon points="1798,504 1652,504 1652,471 1798,471 1798,504">
            <ns2:metadata id="MCCAY_LITTLENEMO_168_line_24" rank="49"/>
        </ns2:polygon>
        <ns2:polygon points="2497,426 2393,426 2393,399 2497,399 2497,426">
            <ns2:metadata id="MCCAY_LITTLENEMO_168_line_35" rank="71"/>
        </ns2:polygon>
        <ns2:polygon points="1069,1268 912,1268 912,1242 1069,1242 1069,1268">
            <ns2:metadata id="MCCAY_LITTLENEMO_168_line_56" rank="113"/>
        </ns2:polygon>
        <ns2:polygon points="708,469 526,469 526,435 708,435 708,469">
            <ns2:metadata id="MCCAY_LITTLENEMO_168_line_14" rank="29"/>
        </ns2:polygon>
        <ns2:polygon points="2723,3405 2539,3405 2539,3378 2723,3378 2723,3405">
            <ns2:metadata id="MCCAY_LITTLENEMO_168_line_160" rank="321"/>
        </ns2:polygon>
        <ns2:polygon points="751,407 512,407 512,377 751,377 751,407">
            <ns2:metadata id="MCCAY_LITTLENEMO_168_line_12" rank="25"/>
        </ns2:polygon>
        <ns2:polygon points="1443,520 1308,520 1308,491 1443,491 1443,520">
            <ns2:metadata id="MCCAY_LITTLENEMO_168_line_20" rank="41"/>
        </ns2:polygon>
        <ns2:polygon points="1247,2198 1087,2198 1087,2169 1247,2169 1247,2198">
            <ns2:metadata id="MCCAY_LITTLENEMO_168_line_98" rank="197"/>
        </ns2:polygon>
    </ns2:svg>
    <svg xmlns="http://www.w3.org/2000/svg" contentScriptType="text/ecmascript" zoomAndPan="magnify" contentStyleType="text/css" class="Object" preserveAspectRatio="xMidYMid meet" version="1.0"><polygon points="98,582 296,582 296,916 98,916 98,582"><metadata id="MCCAY_LITTLENEMO_168_character_8" idBalloon="MCCAY_LITTLENEMO_168_balloon_0" idPanel="MCCAY_LITTLENEMO_168_panel_0"/>
        </polygon><polygon points="261,3254 439,3254 439,3584 261,3584 261,3254"><metadata id="MCCAY_LITTLENEMO_168_character_6" idBalloon="MCCAY_LITTLENEMO_168_balloon_24" idPanel="MCCAY_LITTLENEMO_168_panel_12"/>
        </polygon><polygon points="2585,563 2992,563 2992,908 2585,908 2585,563"><metadata id="MCCAY_LITTLENEMO_168_character_25" idBalloon="MCCAY_LITTLENEMO_168_balloon_7" idPanel="MCCAY_LITTLENEMO_168_panel_3"/>
        </polygon><polygon points="1869,2220 1990,2220 1990,2370 1869,2370 1869,2220"><metadata id="MCCAY_LITTLENEMO_168_character_1" idBalloon="MCCAY_LITTLENEMO_168_balloon_21" idPanel="MCCAY_LITTLENEMO_168_panel_10"/>
        </polygon><polygon points="457,557 798,557 798,927 457,927 457,557"><metadata id="MCCAY_LITTLENEMO_168_character_7" idBalloon="MCCAY_LITTLENEMO_168_balloon_1" idPanel="MCCAY_LITTLENEMO_168_panel_0"/>
        </polygon><polygon points="1730,3549 1918,3549 1918,3728 1730,3728 1730,3549"><metadata id="MCCAY_LITTLENEMO_168_character_30" idBalloon="MCCAY_LITTLENEMO_168_balloon_29" idPanel="MCCAY_LITTLENEMO_168_panel_14"/>
        </polygon><polygon points="815,3351 979,3351 979,3709 815,3709 815,3351"><metadata id="MCCAY_LITTLENEMO_168_character_27" idBalloon="MCCAY_LITTLENEMO_168_balloon_26" idPanel="MCCAY_LITTLENEMO_168_panel_13"/>
        </polygon><polygon points="400,2257 555,2257 555,2548 400,2548 400,2257"><metadata id="MCCAY_LITTLENEMO_168_character_10" idBalloon="MCCAY_LITTLENEMO_168_balloon_16" idPanel="MCCAY_LITTLENEMO_168_panel_8"/>
        </polygon><polygon points="1282,667 1535,667 1535,964 1282,964 1282,667"><metadata id="MCCAY_LITTLENEMO_168_character_11" idBalloon="MCCAY_LITTLENEMO_168_balloon_3" idPanel="MCCAY_LITTLENEMO_168_panel_1"/>
        </polygon><polygon points="1188,1426 1388,1426 1388,1785 1188,1785 1188,1426"><metadata id="MCCAY_LITTLENEMO_168_character_23" idBalloon="MCCAY_LITTLENEMO_168_balloon_11" idPanel="MCCAY_LITTLENEMO_168_panel_5"/>
        </polygon><polygon points="2819,3365 2900,3365 2900,3671 2819,3671 2819,3365"><metadata id="MCCAY_LITTLENEMO_168_character_32" idBalloon="MCCAY_LITTLENEMO_168_balloon_31" idPanel="MCCAY_LITTLENEMO_168_panel_14"/>
        </polygon><polygon points="839,525 1117,525 1117,870 839,870 839,525"><metadata id="MCCAY_LITTLENEMO_168_character_12" idBalloon="MCCAY_LITTLENEMO_168_balloon_2" idPanel="MCCAY_LITTLENEMO_168_panel_1"/>
        </polygon><polygon points="999999,999999 0,999999 0,0 999999,0 999999,999999"><metadata id="MCCAY_LITTLENEMO_168_character_15" idBalloon="MCCAY_LITTLENEMO_168_balloon_4" idPanel="MCCAY_LITTLENEMO_168_panel_2"/>
        </polygon><polygon points="999999,999999 0,999999 0,0 999999,0 999999,999999"><metadata id="MCCAY_LITTLENEMO_168_character_19" idBalloon="MCCAY_LITTLENEMO_168_balloon_22" idPanel="MCCAY_LITTLENEMO_168_panel_11"/>
        </polygon><polygon points="1591,1448 1742,1448 1742,1759 1591,1759 1591,1448"><metadata id="MCCAY_LITTLENEMO_168_character_3" idBalloon="MCCAY_LITTLENEMO_168_balloon_12" idPanel="MCCAY_LITTLENEMO_168_panel_6"/>
        </polygon><polygon points="535,1447 801,1447 801,1726 535,1726 535,1447"><metadata id="MCCAY_LITTLENEMO_168_character_22" idBalloon="MCCAY_LITTLENEMO_168_balloon_9" idPanel="MCCAY_LITTLENEMO_168_panel_4"/>
        </polygon><polygon points="1914,704 2261,704 2261,1028 1914,1028 1914,704"><metadata id="MCCAY_LITTLENEMO_168_character_16" idBalloon="MCCAY_LITTLENEMO_168_balloon_5" idPanel="MCCAY_LITTLENEMO_168_panel_2"/>
        </polygon><polygon points="2024,1498 2261,1498 2261,1852 2024,1852 2024,1498"><metadata id="MCCAY_LITTLENEMO_168_character_4" idBalloon="MCCAY_LITTLENEMO_168_balloon_13" idPanel="MCCAY_LITTLENEMO_168_panel_6"/>
        </polygon><polygon points="864,2457 1018,2457 1018,2676 864,2676 864,2457"><metadata id="MCCAY_LITTLENEMO_168_character_14" idBalloon="MCCAY_LITTLENEMO_168_balloon_18" idPanel="MCCAY_LITTLENEMO_168_panel_9"/>
        </polygon><polygon points="2028,3142 2115,3142 2115,3339 2028,3339 2028,3142"><metadata id="MCCAY_LITTLENEMO_168_character_29" idBalloon="MCCAY_LITTLENEMO_168_balloon_28" idPanel="MCCAY_LITTLENEMO_168_panel_14"/>
        </polygon><polygon points="611,3385 788,3385 788,3735 611,3735 611,3385"><metadata id="MCCAY_LITTLENEMO_168_character_5" idBalloon="MCCAY_LITTLENEMO_168_balloon_25" idPanel="MCCAY_LITTLENEMO_168_panel_12"/>
        </polygon><polygon points="2505,2523 2558,2523 2558,2560 2505,2560 2505,2523"><metadata id="MCCAY_LITTLENEMO_168_character_20" idBalloon="MCCAY_LITTLENEMO_168_balloon_23" idPanel="MCCAY_LITTLENEMO_168_panel_11"/>
        </polygon><polygon points="1844,3593 2061,3593 2061,3934 1844,3934 1844,3593"><metadata id="MCCAY_LITTLENEMO_168_character_31" idBalloon="MCCAY_LITTLENEMO_168_balloon_30" idPanel="MCCAY_LITTLENEMO_168_panel_14"/>
        </polygon><polygon points="1686,2316 1857,2316 1857,2470 1686,2470 1686,2316"><metadata id="MCCAY_LITTLENEMO_168_character_2" idBalloon="MCCAY_LITTLENEMO_168_balloon_20" idPanel="MCCAY_LITTLENEMO_168_panel_10"/>
        </polygon><polygon points="98,1490 330,1490 330,1751 98,1751 98,1490"><metadata id="MCCAY_LITTLENEMO_168_character_21" idBalloon="MCCAY_LITTLENEMO_168_balloon_8" idPanel="MCCAY_LITTLENEMO_168_panel_4"/>
        </polygon><polygon points="838,1434 1105,1434 1105,1681 838,1681 838,1434"><metadata id="MCCAY_LITTLENEMO_168_character_24" idBalloon="MCCAY_LITTLENEMO_168_balloon_10" idPanel="MCCAY_LITTLENEMO_168_panel_5"/>
        </polygon><polygon points="2660,1327 2990,1327 2990,1672 2660,1672 2660,1327"><metadata id="MCCAY_LITTLENEMO_168_character_17" idBalloon="MCCAY_LITTLENEMO_168_balloon_15" idPanel="MCCAY_LITTLENEMO_168_panel_7"/>
        </polygon><polygon points="494,2204 564,2204 564,2277 494,2277 494,2204"><metadata id="MCCAY_LITTLENEMO_168_character_9" idBalloon="MCCAY_LITTLENEMO_168_balloon_17" idPanel="MCCAY_LITTLENEMO_168_panel_8"/>
        </polygon><polygon points="1189,3533 1398,3533 1398,3705 1189,3705 1189,3533"><metadata id="MCCAY_LITTLENEMO_168_character_28" idBalloon="MCCAY_LITTLENEMO_168_balloon_27" idPanel="MCCAY_LITTLENEMO_168_panel_13"/>
        </polygon><polygon points="2301,1595 2517,1595 2517,1669 2301,1669 2301,1595"><metadata id="MCCAY_LITTLENEMO_168_character_18" idBalloon="MCCAY_LITTLENEMO_168_balloon_14" idPanel="MCCAY_LITTLENEMO_168_panel_7"/>
        </polygon><polygon points="2475,563 2666,563 2666,702 2475,702 2475,563"><metadata id="MCCAY_LITTLENEMO_168_character_26" idBalloon="MCCAY_LITTLENEMO_168_balloon_6" idPanel="MCCAY_LITTLENEMO_168_panel_3"/>
        </polygon><polygon points="864,2338 1299,2338 1299,2676 864,2676 864,2338"><metadata id="MCCAY_LITTLENEMO_168_character_13" idBalloon="MCCAY_LITTLENEMO_168_balloon_19" idPanel="MCCAY_LITTLENEMO_168_panel_9"/>
        </polygon></svg><metadata lastModificationDate="Wed, 07 May 2014 11+:40:19 +0000" method="Christophe Rigaud's extractor"/></svg>
