<svg xmlns="http://www.w3.org/2000/svg" width="2461" version="1.0" height="3519"><title>SAINTOGAN_ZIGPUCE_MILLIONAIRES_015</title><svg contentScriptType="text/ecmascript" zoomAndPan="magnify" contentStyleType="text/css" class="Page" preserveAspectRatio="xMidYMid meet" version="1.0"><image xmlns:xlink="http://www.w3.org/1999/xlink" x="0" y="0" width="2461" height="3519" xlink:href="../Pages/SAINTOGAN_ZIGPUCE_MILLIONAIRES_015.jpg" xlink:type="simple" xlink:actuate="onLoad" preserveAspectRatio="xMidYMid meet" xlink:show="embed"/></svg><style type="text/css" xml:space="preserve">
            * { stroke-width: 0; stroke-linejoin: round; }
            .Unclassified { fill: orange; stroke: none; opacity: 1.0; visibility: hidden; }
            .Noise { fill: pink; stroke: none; opacity: 0.2; visibility: hidden; }
            .Panel { fill: red; stroke: none; opacity: 0.5; visibility: visible; image-rendering: optimizeSpeed; }
            .Line { fill: green; stroke: none; opacity: 0.5; visibility: visible; image-rendering: optimizeSpeed; }
            .TextArea { fill: grey; stroke: none; opacity: 0.2; visibility: visible; image-rendering: optimizeSpeed; }
            .Balloon { fill: cyan; stroke: none; opacity: 0.5; visibility: visible; image-rendering: optimizeSpeed; }
            .Letter { fill: blue; stroke: none; opacity: 0.2; visibility: hidden; }
            .Object { fill: yellow; stroke: none; opacity: 0.2; visibility: visible; image-rendering: optimizeSpeed; }
            .Page { fill: white; stroke: none; opacity: 0.5; visibility: visible; }
            polygon:hover { opacity:0.2; }
    </style><ns0:svg xmlns:ns0="http://www.w3.org/2000/svg" contentScriptType="text/ecmascript" zoomAndPan="magnify" class="Panel" contentStyleType="text/css" preserveAspectRatio="xMidYMid meet" version="1.0">
        <ns0:polygon points="796,1854 62,1854 62,1181 796,1181 796,1854">
            <ns0:metadata id="SAINTOGAN_ZIGPUCE_MILLIONAIRES_015_panel_4" rank="6"/>
        </ns0:polygon>
        <ns0:polygon points="1537,2582 813,2582 813,1892 1537,1892 1537,2582">
            <ns0:metadata id="SAINTOGAN_ZIGPUCE_MILLIONAIRES_015_panel_8" rank="10"/>
        </ns0:polygon>
        <ns0:polygon points="2312,465 78,465 78,122 2312,122 2312,465">
            <ns0:metadata id="SAINTOGAN_ZIGPUCE_MILLIONAIRES_015_panel_0" rank="1"/>
        </ns0:polygon>
        <ns0:polygon points="1539,1864 820,1864 820,1183 1539,1183 1539,1864">
            <ns0:metadata id="SAINTOGAN_ZIGPUCE_MILLIONAIRES_015_panel_5" rank="7"/>
        </ns0:polygon>
        <ns0:polygon points="2281,3307 1555,3307 1555,2609 2281,2609 2281,3307">
            <ns0:metadata id="SAINTOGAN_ZIGPUCE_MILLIONAIRES_015_panel_12" rank="14"/>
        </ns0:polygon>
        <ns0:polygon points="789,2574 64,2574 64,1880 789,1880 789,2574">
            <ns0:metadata id="SAINTOGAN_ZIGPUCE_MILLIONAIRES_015_panel_7" rank="9"/>
        </ns0:polygon>
        <ns0:polygon points="1550,1159 827,1159 827,489 1550,489 1550,1159">
            <ns0:metadata id="SAINTOGAN_ZIGPUCE_MILLIONAIRES_015_panel_2" rank="4"/>
        </ns0:polygon>
        <ns0:polygon points="1529,3307 803,3307 803,2603 1529,2603 1529,3307">
            <ns0:metadata id="SAINTOGAN_ZIGPUCE_MILLIONAIRES_015_panel_11" rank="13"/>
        </ns0:polygon>
        <ns0:polygon points="796,1148 71,1148 71,476 796,476 796,1148">
            <ns0:metadata id="SAINTOGAN_ZIGPUCE_MILLIONAIRES_015_panel_1" rank="3"/>
        </ns0:polygon>
        <ns0:polygon points="2292,1878 1567,1878 1567,1199 2292,1199 2292,1878">
            <ns0:metadata id="SAINTOGAN_ZIGPUCE_MILLIONAIRES_015_panel_6" rank="8"/>
        </ns0:polygon>
        <ns0:polygon points="774,3310 50,3310 50,2593 774,2593 774,3310">
            <ns0:metadata id="SAINTOGAN_ZIGPUCE_MILLIONAIRES_015_panel_10" rank="12"/>
        </ns0:polygon>
        <ns0:polygon points="2308,1179 1580,1179 1580,496 2308,496 2308,1179">
            <ns0:metadata id="SAINTOGAN_ZIGPUCE_MILLIONAIRES_015_panel_3" rank="5"/>
        </ns0:polygon>
        <ns0:polygon points="2289,2589 1561,2589 1561,1902 2289,1902 2289,2589">
            <ns0:metadata id="SAINTOGAN_ZIGPUCE_MILLIONAIRES_015_panel_9" rank="11"/>
        </ns0:polygon>
    </ns0:svg>
    <ns1:svg xmlns:ns1="http://www.w3.org/2000/svg" contentScriptType="text/ecmascript" zoomAndPan="magnify" class="Balloon" contentStyleType="text/css" preserveAspectRatio="xMidYMid meet" version="1.0">
        <ns1:polygon points="2111,1914 2106,2023 2097,2051 1886,2076 1687,2046 1678,2028 1675,1962 1677,1904 1684,1883 1701,1882 1758,1879 1859,1881 2094,1887 2110,1891 2111,1914">
            <ns1:metadata id="SAINTOGAN_ZIGPUCE_MILLIONAIRES_015_balloon_12" tailTip="1886,2076" tailDirection="S" rank="25"/>
        </ns1:polygon>
        <ns1:polygon points="1206,1927 1204,1939 1186,1999 1095,2157 1090,2159 1012,1956 1010,1939 1018,1902 1026,1890 1034,1883 1047,1880 1089,1871 1126,1866 1139,1866 1154,1872 1193,1889 1202,1900 1206,1927">
            <ns1:metadata id="SAINTOGAN_ZIGPUCE_MILLIONAIRES_015_balloon_10" tailTip="1090,2159" tailDirection="S" rank="21"/>
        </ns1:polygon>
        <ns1:polygon points="780,517 777,764 773,839 769,864 719,869 631,866 599,862 559,846 461,778 450,754 449,726 450,710 458,584 464,520 467,502 491,497 525,495 629,490 756,491 776,504 780,517">
            <ns1:metadata id="SAINTOGAN_ZIGPUCE_MILLIONAIRES_015_balloon_1" tailTip="474,776" tailDirection="S" rank="3"/>
        </ns1:polygon>
        <ns1:polygon points="1655,2787 1653,2796 1597,2882 1551,2823 1545,2813 1537,2768 1539,2752 1546,2740 1570,2718 1579,2710 1593,2707 1606,2707 1616,2713 1643,2735 1649,2746 1653,2769 1655,2787">
            <ns1:metadata id="SAINTOGAN_ZIGPUCE_MILLIONAIRES_015_balloon_15" tailTip="1597,2882" tailDirection="S" rank="31"/>
        </ns1:polygon>
        <ns1:polygon points="1584,1943 1581,2148 1575,2168 1558,2173 1302,2226 1188,2166 1179,2152 1181,2090 1187,1949 1203,1937 1320,1934 1417,1932 1561,1930 1584,1943">
            <ns1:metadata id="SAINTOGAN_ZIGPUCE_MILLIONAIRES_015_balloon_11" tailTip="1315,2222" tailDirection="W" rank="23"/>
        </ns1:polygon>
        <ns1:polygon points="2260,2706 2257,2732 2242,2751 2007,2879 1983,2885 1860,2887 1832,2877 1827,2817 1821,2611 1824,2594 1830,2589 1845,2585 2228,2589 2243,2594 2257,2600 2259,2669 2260,2706">
            <ns1:metadata id="SAINTOGAN_ZIGPUCE_MILLIONAIRES_015_balloon_19" tailTip="2052,2817" tailDirection="NE" rank="39"/>
        </ns1:polygon>
        <ns1:polygon points="590,1291 560,1408 554,1430 446,1473 432,1477 414,1476 275,1392 268,1386 262,1331 254,1195 266,1178 274,1176 307,1175 369,1174 547,1173 585,1181 590,1291">
            <ns1:metadata id="SAINTOGAN_ZIGPUCE_MILLIONAIRES_015_balloon_6" tailTip="414,1476" tailDirection="SW" rank="13"/>
        </ns1:polygon>
        <ns1:polygon points="1739,2720 1729,2758 1726,2766 1679,2859 1622,2738 1619,2710 1625,2690 1664,2660 1697,2659 1710,2666 1731,2696 1737,2706 1739,2720">
            <ns1:metadata id="SAINTOGAN_ZIGPUCE_MILLIONAIRES_015_balloon_16" tailTip="1679,2859" tailDirection="S" rank="33"/>
        </ns1:polygon>
        <ns1:polygon points="617,1971 612,2014 581,2106 548,2106 104,1976 89,1967 84,1950 86,1884 93,1869 165,1867 481,1872 544,1876 561,1879 609,1949 617,1971">
            <ns1:metadata id="SAINTOGAN_ZIGPUCE_MILLIONAIRES_015_balloon_9" tailTip="585,2089" tailDirection="E" rank="19"/>
        </ns1:polygon>
        <ns1:polygon points="1563,1261 1556,1318 1546,1333 1363,1437 1316,1449 1000,1413 932,1270 930,1254 929,1209 930,1187 934,1173 953,1162 1507,1183 1550,1185 1559,1199 1563,1261">
            <ns1:metadata id="SAINTOGAN_ZIGPUCE_MILLIONAIRES_015_balloon_7" tailTip="1363,1437" tailDirection="E" rank="15"/>
        </ns1:polygon>
        <ns1:polygon points="2268,1250 2265,1297 2260,1356 2240,1384 1999,1437 1654,1362 1648,1341 1653,1248 1657,1196 1665,1185 1673,1183 2015,1183 2234,1184 2259,1199 2264,1220 2268,1250">
            <ns1:metadata id="SAINTOGAN_ZIGPUCE_MILLIONAIRES_015_balloon_8" tailTip="1999,1437" tailDirection="S" rank="17"/>
        </ns1:polygon>
        <ns1:polygon points="1841,597 1828,659 1819,677 1737,782 1714,797 1636,793 1572,788 1570,726 1573,525 1575,509 1590,500 1754,500 1813,503 1832,514 1841,536 1841,597">
            <ns1:metadata id="SAINTOGAN_ZIGPUCE_MILLIONAIRES_015_balloon_4" tailTip="1797,681" tailDirection="SW" rank="9"/>
        </ns1:polygon>
        <ns1:polygon points="1825,2761 1778,2840 1768,2835 1734,2777 1732,2764 1729,2736 1732,2728 1753,2694 1765,2692 1779,2694 1792,2696 1812,2709 1815,2717 1817,2723 1823,2742 1825,2751 1825,2761">
            <ns1:metadata id="SAINTOGAN_ZIGPUCE_MILLIONAIRES_015_balloon_17" tailTip="1778,2840" tailDirection="S" rank="35"/>
        </ns1:polygon>
        <ns1:polygon points="1551,602 1541,623 1377,713 1349,710 1331,696 1277,610 1278,573 1281,488 1296,473 1525,473 1549,487 1551,602">
            <ns1:metadata id="SAINTOGAN_ZIGPUCE_MILLIONAIRES_015_balloon_3" tailTip="1377,713" tailDirection="SE" rank="7"/>
        </ns1:polygon>
        <ns1:polygon points="456,474 451,822 449,952 434,968 396,973 275,971 226,970 204,968 183,959 95,567 97,502 99,483 103,447 127,443 150,442 433,444 451,449 456,474">
            <ns1:metadata id="SAINTOGAN_ZIGPUCE_MILLIONAIRES_015_balloon_0" tailDirection="none" rank="1"/>
        </ns1:polygon>
        <ns1:polygon points="765,2731 761,2844 758,2865 732,2874 607,2900 527,2867 352,2761 311,2729 306,2709 305,2673 309,2619 313,2602 321,2583 727,2587 758,2594 765,2731">
            <ns1:metadata id="SAINTOGAN_ZIGPUCE_MILLIONAIRES_015_balloon_14" tailTip="607,2900" tailDirection="S" rank="29"/>
        </ns1:polygon>
        <ns1:polygon points="2290,1964 2285,2199 2280,2202 2127,2242 2116,2238 2066,2188 2062,2140 2064,2080 2111,1969 2120,1954 2138,1951 2255,1954 2272,1958 2290,1964">
            <ns1:metadata id="SAINTOGAN_ZIGPUCE_MILLIONAIRES_015_balloon_13" tailTip="2116,2238" tailDirection="SW" rank="27"/>
        </ns1:polygon>
        <ns1:polygon points="1278,525 1272,615 1251,633 1103,719 841,615 837,585 839,539 842,499 844,491 863,488 908,488 1181,490 1211,493 1257,499 1274,505 1278,525">
            <ns1:metadata id="SAINTOGAN_ZIGPUCE_MILLIONAIRES_015_balloon_2" tailTip="1103,719" tailDirection="S" rank="5"/>
        </ns1:polygon>
        <ns1:polygon points="2139,615 2135,667 2132,684 1941,732 1883,677 1879,657 1877,610 1879,567 1887,561 1919,554 2126,560 2138,577 2139,615">
            <ns1:metadata id="SAINTOGAN_ZIGPUCE_MILLIONAIRES_015_balloon_5" tailTip="1941,732" tailDirection="SW" rank="11"/>
        </ns1:polygon>
    </ns1:svg>
    <ns2:svg xmlns:ns2="http://www.w3.org/2000/svg" contentScriptType="text/ecmascript" zoomAndPan="magnify" class="Line" contentStyleType="text/css" preserveAspectRatio="xMidYMid meet" version="1.0">
        <ns2:polygon points="1997,2867 1846,2867 1846,2840 1997,2840 1997,2867">
            <ns2:metadata id="SAINTOGAN_ZIGPUCE_MILLIONAIRES_015_line_98" rank="197"/>
        </ns2:polygon>
        <ns2:polygon points="1544,1303 1010,1303 1010,1272 1544,1272 1544,1303">
            <ns2:metadata id="SAINTOGAN_ZIGPUCE_MILLIONAIRES_015_line_49" rank="99"/>
        </ns2:polygon>
        <ns2:polygon points="565,1223 282,1223 282,1192 565,1192 565,1223">
            <ns2:metadata id="SAINTOGAN_ZIGPUCE_MILLIONAIRES_015_line_41" rank="83"/>
        </ns2:polygon>
        <ns2:polygon points="2209,1316 1669,1316 1669,1274 2209,1274 2209,1316">
            <ns2:metadata id="SAINTOGAN_ZIGPUCE_MILLIONAIRES_015_line_55" rank="111"/>
        </ns2:polygon>
        <ns2:polygon points="541,1332 285,1332 285,1298 541,1298 541,1332">
            <ns2:metadata id="SAINTOGAN_ZIGPUCE_MILLIONAIRES_015_line_44" rank="89"/>
        </ns2:polygon>
        <ns2:polygon points="431,656 302,656 302,632 431,632 431,656">
            <ns2:metadata id="SAINTOGAN_ZIGPUCE_MILLIONAIRES_015_line_7" rank="15"/>
        </ns2:polygon>
        <ns2:polygon points="1800,2033 1694,2033 1694,1999 1800,1999 1800,2033">
            <ns2:metadata id="SAINTOGAN_ZIGPUCE_MILLIONAIRES_015_line_72" rank="145"/>
        </ns2:polygon>
        <ns2:polygon points="1715,703 1592,703 1592,680 1715,680 1715,703">
            <ns2:metadata id="SAINTOGAN_ZIGPUCE_MILLIONAIRES_015_line_35" rank="71"/>
        </ns2:polygon>
        <ns2:polygon points="429,690 288,690 288,658 429,658 429,690">
            <ns2:metadata id="SAINTOGAN_ZIGPUCE_MILLIONAIRES_015_line_8" rank="17"/>
        </ns2:polygon>
        <ns2:polygon points="1546,2086 1201,2086 1201,2058 1546,2058 1546,2086">
            <ns2:metadata id="SAINTOGAN_ZIGPUCE_MILLIONAIRES_015_line_66" rank="133"/>
        </ns2:polygon>
        <ns2:polygon points="1250,602 850,602 850,562 1250,562 1250,602">
            <ns2:metadata id="SAINTOGAN_ZIGPUCE_MILLIONAIRES_015_line_26" rank="53"/>
        </ns2:polygon>
        <ns2:polygon points="432,943 207,943 207,913 432,913 432,943">
            <ns2:metadata id="SAINTOGAN_ZIGPUCE_MILLIONAIRES_015_line_15" rank="31"/>
        </ns2:polygon>
        <ns2:polygon points="1996,2838 1839,2838 1839,2813 1996,2813 1996,2838">
            <ns2:metadata id="SAINTOGAN_ZIGPUCE_MILLIONAIRES_015_line_97" rank="195"/>
        </ns2:polygon>
        <ns2:polygon points="742,2754 353,2754 353,2720 742,2720 742,2754">
            <ns2:metadata id="SAINTOGAN_ZIGPUCE_MILLIONAIRES_015_line_82" rank="165"/>
        </ns2:polygon>
        <ns2:polygon points="2117,667 1898,667 1898,637 2117,637 2117,667">
            <ns2:metadata id="SAINTOGAN_ZIGPUCE_MILLIONAIRES_015_line_40" rank="81"/>
        </ns2:polygon>
        <ns2:polygon points="2250,2120 2078,2120 2078,2087 2250,2087 2250,2120">
            <ns2:metadata id="SAINTOGAN_ZIGPUCE_MILLIONAIRES_015_line_76" rank="153"/>
        </ns2:polygon>
        <ns2:polygon points="755,2786 529,2786 529,2761 755,2761 755,2786">
            <ns2:metadata id="SAINTOGAN_ZIGPUCE_MILLIONAIRES_015_line_83" rank="167"/>
        </ns2:polygon>
        <ns2:polygon points="443,623 303,623 303,598 443,598 443,623">
            <ns2:metadata id="SAINTOGAN_ZIGPUCE_MILLIONAIRES_015_line_6" rank="13"/>
        </ns2:polygon>
        <ns2:polygon points="428,798 234,798 234,773 428,773 428,798">
            <ns2:metadata id="SAINTOGAN_ZIGPUCE_MILLIONAIRES_015_line_11" rank="23"/>
        </ns2:polygon>
        <ns2:polygon points="1711,775 1590,775 1590,747 1711,747 1711,775">
            <ns2:metadata id="SAINTOGAN_ZIGPUCE_MILLIONAIRES_015_line_37" rank="75"/>
        </ns2:polygon>
        <ns2:polygon points="2121,637 1894,637 1894,599 2121,599 2121,637">
            <ns2:metadata id="SAINTOGAN_ZIGPUCE_MILLIONAIRES_015_line_39" rank="79"/>
        </ns2:polygon>
        <ns2:polygon points="2248,1277 1673,1277 1673,1230 2248,1230 2248,1277">
            <ns2:metadata id="SAINTOGAN_ZIGPUCE_MILLIONAIRES_015_line_54" rank="109"/>
        </ns2:polygon>
        <ns2:polygon points="740,2684 322,2684 322,2634 740,2634 740,2684">
            <ns2:metadata id="SAINTOGAN_ZIGPUCE_MILLIONAIRES_015_line_80" rank="161"/>
        </ns2:polygon>
        <ns2:polygon points="765,713 561,713 561,675 765,675 765,713">
            <ns2:metadata id="SAINTOGAN_ZIGPUCE_MILLIONAIRES_015_line_20" rank="41"/>
        </ns2:polygon>
        <ns2:polygon points="723,2719 317,2719 317,2684 723,2684 723,2719">
            <ns2:metadata id="SAINTOGAN_ZIGPUCE_MILLIONAIRES_015_line_81" rank="163"/>
        </ns2:polygon>
        <ns2:polygon points="1317,1412 1136,1412 1136,1386 1317,1386 1317,1412">
            <ns2:metadata id="SAINTOGAN_ZIGPUCE_MILLIONAIRES_015_line_52" rank="105"/>
        </ns2:polygon>
        <ns2:polygon points="2283,2036 2124,2036 2124,2009 2283,2009 2283,2036">
            <ns2:metadata id="SAINTOGAN_ZIGPUCE_MILLIONAIRES_015_line_74" rank="149"/>
        </ns2:polygon>
        <ns2:polygon points="735,2642 325,2642 325,2601 735,2601 735,2642">
            <ns2:metadata id="SAINTOGAN_ZIGPUCE_MILLIONAIRES_015_line_79" rank="159"/>
        </ns2:polygon>
        <ns2:polygon points="2283,2073 2123,2073 2123,2050 2283,2050 2283,2073">
            <ns2:metadata id="SAINTOGAN_ZIGPUCE_MILLIONAIRES_015_line_75" rank="151"/>
        </ns2:polygon>
        <ns2:polygon points="1815,603 1595,603 1595,572 1815,572 1815,603">
            <ns2:metadata id="SAINTOGAN_ZIGPUCE_MILLIONAIRES_015_line_32" rank="65"/>
        </ns2:polygon>
        <ns2:polygon points="2246,2706 1837,2706 1837,2668 2246,2668 2246,2706">
            <ns2:metadata id="SAINTOGAN_ZIGPUCE_MILLIONAIRES_015_line_93" rank="187"/>
        </ns2:polygon>
        <ns2:polygon points="406,904 267,904 267,878 406,878 406,904">
            <ns2:metadata id="SAINTOGAN_ZIGPUCE_MILLIONAIRES_015_line_14" rank="29"/>
        </ns2:polygon>
        <ns2:polygon points="1966,2801 1840,2801 1840,2777 1966,2777 1966,2801">
            <ns2:metadata id="SAINTOGAN_ZIGPUCE_MILLIONAIRES_015_line_96" rank="193"/>
        </ns2:polygon>
        <ns2:polygon points="547,1951 97,1951 97,1914 547,1914 547,1951">
            <ns2:metadata id="SAINTOGAN_ZIGPUCE_MILLIONAIRES_015_line_58" rank="117"/>
        </ns2:polygon>
        <ns2:polygon points="2111,605 1897,605 1897,571 2111,571 2111,605">
            <ns2:metadata id="SAINTOGAN_ZIGPUCE_MILLIONAIRES_015_line_38" rank="77"/>
        </ns2:polygon>
        <ns2:polygon points="2216,1229 1676,1229 1676,1194 2216,1194 2216,1229">
            <ns2:metadata id="SAINTOGAN_ZIGPUCE_MILLIONAIRES_015_line_53" rank="107"/>
        </ns2:polygon>
        <ns2:polygon points="754,2854 569,2854 569,2834 754,2834 754,2854">
            <ns2:metadata id="SAINTOGAN_ZIGPUCE_MILLIONAIRES_015_line_85" rank="171"/>
        </ns2:polygon>
        <ns2:polygon points="443,836 261,836 261,803 443,803 443,836">
            <ns2:metadata id="SAINTOGAN_ZIGPUCE_MILLIONAIRES_015_line_12" rank="25"/>
        </ns2:polygon>
        <ns2:polygon points="1541,2127 1200,2127 1200,2089 1541,2089 1541,2127">
            <ns2:metadata id="SAINTOGAN_ZIGPUCE_MILLIONAIRES_015_line_67" rank="135"/>
        </ns2:polygon>
        <ns2:polygon points="551,1917 101,1917 101,1879 551,1879 551,1917">
            <ns2:metadata id="SAINTOGAN_ZIGPUCE_MILLIONAIRES_015_line_57" rank="115"/>
        </ns2:polygon>
        <ns2:polygon points="422,486 113,486 113,456 422,456 422,486">
            <ns2:metadata id="SAINTOGAN_ZIGPUCE_MILLIONAIRES_015_line_2" rank="5"/>
        </ns2:polygon>
        <ns2:polygon points="1308,1341 1017,1341 1017,1308 1308,1308 1308,1341">
            <ns2:metadata id="SAINTOGAN_ZIGPUCE_MILLIONAIRES_015_line_50" rank="101"/>
        </ns2:polygon>
        <ns2:polygon points="770,627 476,627 476,596 770,596 770,627">
            <ns2:metadata id="SAINTOGAN_ZIGPUCE_MILLIONAIRES_015_line_18" rank="37"/>
        </ns2:polygon>
        <ns2:polygon points="1562,2053 1204,2053 1204,2015 1562,2015 1562,2053">
            <ns2:metadata id="SAINTOGAN_ZIGPUCE_MILLIONAIRES_015_line_65" rank="131"/>
        </ns2:polygon>
        <ns2:polygon points="377,866 273,866 273,842 377,842 377,866">
            <ns2:metadata id="SAINTOGAN_ZIGPUCE_MILLIONAIRES_015_line_13" rank="27"/>
        </ns2:polygon>
        <ns2:polygon points="1716,739 1590,739 1590,709 1716,709 1716,739">
            <ns2:metadata id="SAINTOGAN_ZIGPUCE_MILLIONAIRES_015_line_36" rank="73"/>
        </ns2:polygon>
        <ns2:polygon points="1527,570 1297,570 1297,542 1527,542 1527,570">
            <ns2:metadata id="SAINTOGAN_ZIGPUCE_MILLIONAIRES_015_line_28" rank="57"/>
        </ns2:polygon>
        <ns2:polygon points="1889,1346 1670,1346 1670,1308 1889,1308 1889,1346">
            <ns2:metadata id="SAINTOGAN_ZIGPUCE_MILLIONAIRES_015_line_56" rank="113"/>
        </ns2:polygon>
        <ns2:polygon points="1131,1990 1087,1990 1087,1925 1131,1925 1131,1990">
            <ns2:metadata id="SAINTOGAN_ZIGPUCE_MILLIONAIRES_015_line_62" rank="125"/>
        </ns2:polygon>
        <ns2:polygon points="1557,2015 1200,2015 1200,1984 1557,1984 1557,2015">
            <ns2:metadata id="SAINTOGAN_ZIGPUCE_MILLIONAIRES_015_line_64" rank="129"/>
        </ns2:polygon>
        <ns2:polygon points="1986,2773 1838,2773 1838,2740 1986,2740 1986,2773">
            <ns2:metadata id="SAINTOGAN_ZIGPUCE_MILLIONAIRES_015_line_95" rank="191"/>
        </ns2:polygon>
        <ns2:polygon points="2090,1967 1694,1967 1694,1930 2090,1930 2090,1967">
            <ns2:metadata id="SAINTOGAN_ZIGPUCE_MILLIONAIRES_015_line_70" rank="141"/>
        </ns2:polygon>
        <ns2:polygon points="2215,2191 2079,2191 2079,2159 2215,2159 2215,2191">
            <ns2:metadata id="SAINTOGAN_ZIGPUCE_MILLIONAIRES_015_line_78" rank="157"/>
        </ns2:polygon>
        <ns2:polygon points="759,747 565,747 565,721 759,721 759,747">
            <ns2:metadata id="SAINTOGAN_ZIGPUCE_MILLIONAIRES_015_line_21" rank="43"/>
        </ns2:polygon>
        <ns2:polygon points="575,1294 280,1294 280,1268 575,1268 575,1294">
            <ns2:metadata id="SAINTOGAN_ZIGPUCE_MILLIONAIRES_015_line_43" rank="87"/>
        </ns2:polygon>
        <ns2:polygon points="2280,2154 2076,2154 2076,2129 2280,2129 2280,2154">
            <ns2:metadata id="SAINTOGAN_ZIGPUCE_MILLIONAIRES_015_line_77" rank="155"/>
        </ns2:polygon>
        <ns2:polygon points="761,794 554,794 554,763 761,763 761,794">
            <ns2:metadata id="SAINTOGAN_ZIGPUCE_MILLIONAIRES_015_line_22" rank="45"/>
        </ns2:polygon>
        <ns2:polygon points="769,665 480,665 480,624 769,624 769,665">
            <ns2:metadata id="SAINTOGAN_ZIGPUCE_MILLIONAIRES_015_line_19" rank="39"/>
        </ns2:polygon>
        <ns2:polygon points="1575,1981 1203,1981 1203,1946 1575,1946 1575,1981">
            <ns2:metadata id="SAINTOGAN_ZIGPUCE_MILLIONAIRES_015_line_63" rank="127"/>
        </ns2:polygon>
        <ns2:polygon points="1810,536 1592,536 1592,509 1810,509 1810,536">
            <ns2:metadata id="SAINTOGAN_ZIGPUCE_MILLIONAIRES_015_line_30" rank="61"/>
        </ns2:polygon>
        <ns2:polygon points="1434,2153 1200,2153 1200,2125 1434,2125 1434,2153">
            <ns2:metadata id="SAINTOGAN_ZIGPUCE_MILLIONAIRES_015_line_68" rank="137"/>
        </ns2:polygon>
        <ns2:polygon points="1783,2776 1764,2776 1764,2703 1783,2703 1783,2776">
            <ns2:metadata id="SAINTOGAN_ZIGPUCE_MILLIONAIRES_015_line_90" rank="181"/>
        </ns2:polygon>
        <ns2:polygon points="2267,2001 2126,2001 2126,1967 2267,1967 2267,2001">
            <ns2:metadata id="SAINTOGAN_ZIGPUCE_MILLIONAIRES_015_line_73" rank="147"/>
        </ns2:polygon>
        <ns2:polygon points="1736,671 1592,671 1592,641 1736,641 1736,671">
            <ns2:metadata id="SAINTOGAN_ZIGPUCE_MILLIONAIRES_015_line_34" rank="69"/>
        </ns2:polygon>
        <ns2:polygon points="421,722 235,722 235,703 421,703 421,722">
            <ns2:metadata id="SAINTOGAN_ZIGPUCE_MILLIONAIRES_015_line_9" rank="19"/>
        </ns2:polygon>
        <ns2:polygon points="598,2025 445,2025 445,1994 598,1994 598,2025">
            <ns2:metadata id="SAINTOGAN_ZIGPUCE_MILLIONAIRES_015_line_60" rank="121"/>
        </ns2:polygon>
        <ns2:polygon points="419,761 233,761 233,734 419,734 419,761">
            <ns2:metadata id="SAINTOGAN_ZIGPUCE_MILLIONAIRES_015_line_10" rank="21"/>
        </ns2:polygon>
        <ns2:polygon points="2095,2005 1696,2005 1696,1971 2095,1971 2095,2005">
            <ns2:metadata id="SAINTOGAN_ZIGPUCE_MILLIONAIRES_015_line_71" rank="143"/>
        </ns2:polygon>
        <ns2:polygon points="1683,2764 1661,2764 1661,2673 1683,2673 1683,2764">
            <ns2:metadata id="SAINTOGAN_ZIGPUCE_MILLIONAIRES_015_line_89" rank="179"/>
        </ns2:polygon>
        <ns2:polygon points="1530,540 1295,540 1295,496 1530,496 1530,540">
            <ns2:metadata id="SAINTOGAN_ZIGPUCE_MILLIONAIRES_015_line_27" rank="55"/>
        </ns2:polygon>
        <ns2:polygon points="2233,2741 1839,2741 1839,2702 2233,2702 2233,2741">
            <ns2:metadata id="SAINTOGAN_ZIGPUCE_MILLIONAIRES_015_line_94" rank="189"/>
        </ns2:polygon>
        <ns2:polygon points="2247,2638 1835,2638 1835,2596 2247,2596 2247,2638">
            <ns2:metadata id="SAINTOGAN_ZIGPUCE_MILLIONAIRES_015_line_91" rank="183"/>
        </ns2:polygon>
        <ns2:polygon points="1543,1221 948,1221 948,1181 1543,1181 1543,1221">
            <ns2:metadata id="SAINTOGAN_ZIGPUCE_MILLIONAIRES_015_line_47" rank="95"/>
        </ns2:polygon>
        <ns2:polygon points="606,1990 443,1990 443,1955 606,1955 606,1990">
            <ns2:metadata id="SAINTOGAN_ZIGPUCE_MILLIONAIRES_015_line_59" rank="119"/>
        </ns2:polygon>
        <ns2:polygon points="2244,2666 1837,2666 1837,2631 2244,2631 2244,2666">
            <ns2:metadata id="SAINTOGAN_ZIGPUCE_MILLIONAIRES_015_line_92" rank="185"/>
        </ns2:polygon>
        <ns2:polygon points="749,2817 531,2817 531,2795 749,2795 749,2817">
            <ns2:metadata id="SAINTOGAN_ZIGPUCE_MILLIONAIRES_015_line_84" rank="169"/>
        </ns2:polygon>
        <ns2:polygon points="1552,1262 953,1262 953,1216 1552,1216 1552,1262">
            <ns2:metadata id="SAINTOGAN_ZIGPUCE_MILLIONAIRES_015_line_48" rank="97"/>
        </ns2:polygon>
        <ns2:polygon points="528,1412 416,1412 416,1378 528,1378 528,1412">
            <ns2:metadata id="SAINTOGAN_ZIGPUCE_MILLIONAIRES_015_line_46" rank="93"/>
        </ns2:polygon>
        <ns2:polygon points="1252,570 851,570 851,523 1252,523 1252,570">
            <ns2:metadata id="SAINTOGAN_ZIGPUCE_MILLIONAIRES_015_line_25" rank="51"/>
        </ns2:polygon>
        <ns2:polygon points="745,544 477,544 477,505 745,505 745,544">
            <ns2:metadata id="SAINTOGAN_ZIGPUCE_MILLIONAIRES_015_line_16" rank="33"/>
        </ns2:polygon>
        <ns2:polygon points="1348,602 1295,602 1295,580 1348,580 1348,602">
            <ns2:metadata id="SAINTOGAN_ZIGPUCE_MILLIONAIRES_015_line_29" rank="59"/>
        </ns2:polygon>
        <ns2:polygon points="759,589 479,589 479,553 759,553 759,589">
            <ns2:metadata id="SAINTOGAN_ZIGPUCE_MILLIONAIRES_015_line_17" rank="35"/>
        </ns2:polygon>
        <ns2:polygon points="1602,2808 1579,2808 1579,2729 1602,2729 1602,2808">
            <ns2:metadata id="SAINTOGAN_ZIGPUCE_MILLIONAIRES_015_line_88" rank="177"/>
        </ns2:polygon>
        <ns2:polygon points="420,553 122,553 122,524 420,524 420,553">
            <ns2:metadata id="SAINTOGAN_ZIGPUCE_MILLIONAIRES_015_line_4" rank="9"/>
        </ns2:polygon>
        <ns2:polygon points="443,586 299,586 299,555 443,555 443,586">
            <ns2:metadata id="SAINTOGAN_ZIGPUCE_MILLIONAIRES_015_line_5" rank="11"/>
        </ns2:polygon>
        <ns2:polygon points="2091,1930 1690,1930 1690,1894 2091,1894 2091,1930">
            <ns2:metadata id="SAINTOGAN_ZIGPUCE_MILLIONAIRES_015_line_69" rank="139"/>
        </ns2:polygon>
        <ns2:polygon points="1806,568 1593,568 1593,536 1806,536 1806,568">
            <ns2:metadata id="SAINTOGAN_ZIGPUCE_MILLIONAIRES_015_line_31" rank="63"/>
        </ns2:polygon>
        <ns2:polygon points="1191,1923 1026,1923 1026,1887 1191,1887 1191,1923">
            <ns2:metadata id="SAINTOGAN_ZIGPUCE_MILLIONAIRES_015_line_61" rank="123"/>
        </ns2:polygon>
        <ns2:polygon points="566,1260 276,1260 276,1233 566,1233 566,1260">
            <ns2:metadata id="SAINTOGAN_ZIGPUCE_MILLIONAIRES_015_line_42" rank="85"/>
        </ns2:polygon>
        <ns2:polygon points="438,525 117,525 117,497 438,497 438,525">
            <ns2:metadata id="SAINTOGAN_ZIGPUCE_MILLIONAIRES_015_line_3" rank="7"/>
        </ns2:polygon>
        <ns2:polygon points="756,835 601,835 601,802 756,802 756,835">
            <ns2:metadata id="SAINTOGAN_ZIGPUCE_MILLIONAIRES_015_line_23" rank="47"/>
        </ns2:polygon>
        <ns2:polygon points="1284,1379 1012,1379 1012,1354 1284,1354 1284,1379">
            <ns2:metadata id="SAINTOGAN_ZIGPUCE_MILLIONAIRES_015_line_51" rank="103"/>
        </ns2:polygon>
        <ns2:polygon points="556,1371 282,1371 282,1338 556,1338 556,1371">
            <ns2:metadata id="SAINTOGAN_ZIGPUCE_MILLIONAIRES_015_line_45" rank="91"/>
        </ns2:polygon>
        <ns2:polygon points="1722,636 1585,636 1585,604 1722,604 1722,636">
            <ns2:metadata id="SAINTOGAN_ZIGPUCE_MILLIONAIRES_015_line_33" rank="67"/>
        </ns2:polygon>
        <ns2:polygon points="1241,532 850,532 850,497 1241,497 1241,532">
            <ns2:metadata id="SAINTOGAN_ZIGPUCE_MILLIONAIRES_015_line_24" rank="49"/>
        </ns2:polygon>
    </ns2:svg>
    <svg xmlns="http://www.w3.org/2000/svg" contentScriptType="text/ecmascript" zoomAndPan="magnify" contentStyleType="text/css" class="Object" preserveAspectRatio="xMidYMid meet" version="1.0"><polygon points="1826,2203 2089,2203 2089,2557 1826,2557 1826,2203"><metadata id="SAINTOGAN_ZIGPUCE_MILLIONAIRES_015_character_17" idBalloon="SAINTOGAN_ZIGPUCE_MILLIONAIRES_015_balloon_13" idPanel="SAINTOGAN_ZIGPUCE_MILLIONAIRES_015_panel_9"/>
        </polygon><polygon points="1351,1202 1552,1202 1552,1872 1351,1872 1351,1202"><metadata id="SAINTOGAN_ZIGPUCE_MILLIONAIRES_015_character_10" idBalloon="SAINTOGAN_ZIGPUCE_MILLIONAIRES_015_balloon_7" idPanel="SAINTOGAN_ZIGPUCE_MILLIONAIRES_015_panel_5"/>
        </polygon><polygon points="840,711 1269,711 1269,1157 840,1157 840,711"><metadata id="SAINTOGAN_ZIGPUCE_MILLIONAIRES_015_character_12" idBalloon="SAINTOGAN_ZIGPUCE_MILLIONAIRES_015_balloon_2" idPanel="SAINTOGAN_ZIGPUCE_MILLIONAIRES_015_panel_2"/>
        </polygon><polygon points="1371,736 1553,736 1553,1007 1371,1007 1371,736"><metadata id="SAINTOGAN_ZIGPUCE_MILLIONAIRES_015_character_13" idBalloon="SAINTOGAN_ZIGPUCE_MILLIONAIRES_015_balloon_3" idPanel="SAINTOGAN_ZIGPUCE_MILLIONAIRES_015_panel_2"/>
        </polygon><polygon points="1655,1223 2294,1223 2294,1879 1655,1879 1655,1223"><metadata id="SAINTOGAN_ZIGPUCE_MILLIONAIRES_015_character_3" idBalloon="SAINTOGAN_ZIGPUCE_MILLIONAIRES_015_balloon_8" idPanel="SAINTOGAN_ZIGPUCE_MILLIONAIRES_015_panel_6"/>
        </polygon><polygon points="455,701 799,701 799,1152 455,1152 455,701"><metadata id="SAINTOGAN_ZIGPUCE_MILLIONAIRES_015_character_18" idBalloon="SAINTOGAN_ZIGPUCE_MILLIONAIRES_015_balloon_1" idPanel="SAINTOGAN_ZIGPUCE_MILLIONAIRES_015_panel_1"/>
        </polygon><polygon points="1583,2920 1650,2920 1650,3286 1583,3286 1583,2920"><metadata id="SAINTOGAN_ZIGPUCE_MILLIONAIRES_015_character_5" idBalloon="SAINTOGAN_ZIGPUCE_MILLIONAIRES_015_balloon_15" idPanel="SAINTOGAN_ZIGPUCE_MILLIONAIRES_015_panel_12"/>
        </polygon><polygon points="2042,2606 2316,2606 2316,2775 2042,2775 2042,2606"><metadata id="SAINTOGAN_ZIGPUCE_MILLIONAIRES_015_character_8" idBalloon="SAINTOGAN_ZIGPUCE_MILLIONAIRES_015_balloon_19" idPanel="SAINTOGAN_ZIGPUCE_MILLIONAIRES_015_panel_12"/>
        </polygon><polygon points="563,1901 788,1901 788,2433 563,2433 563,1901"><metadata id="SAINTOGAN_ZIGPUCE_MILLIONAIRES_015_character_4" idBalloon="SAINTOGAN_ZIGPUCE_MILLIONAIRES_015_balloon_9" idPanel="SAINTOGAN_ZIGPUCE_MILLIONAIRES_015_panel_7"/>
        </polygon><polygon points="303,2872 777,2872 777,3305 303,3305 303,2872"><metadata id="SAINTOGAN_ZIGPUCE_MILLIONAIRES_015_character_9" idBalloon="SAINTOGAN_ZIGPUCE_MILLIONAIRES_015_balloon_14" idPanel="SAINTOGAN_ZIGPUCE_MILLIONAIRES_015_panel_10"/>
        </polygon><polygon points="1583,2841 1831,2841 1831,3290 1583,3290 1583,2841"><metadata id="SAINTOGAN_ZIGPUCE_MILLIONAIRES_015_character_6" idBalloon="SAINTOGAN_ZIGPUCE_MILLIONAIRES_015_balloon_17" idPanel="SAINTOGAN_ZIGPUCE_MILLIONAIRES_015_panel_12"/>
        </polygon><polygon points="1573,2012 2151,2012 2151,2584 1573,2584 1573,2012"><metadata id="SAINTOGAN_ZIGPUCE_MILLIONAIRES_015_character_16" idBalloon="SAINTOGAN_ZIGPUCE_MILLIONAIRES_015_balloon_12" idPanel="SAINTOGAN_ZIGPUCE_MILLIONAIRES_015_panel_9"/>
        </polygon><polygon points="1007,1877 1338,1877 1338,2574 1007,2574 1007,1877"><metadata id="SAINTOGAN_ZIGPUCE_MILLIONAIRES_015_character_1" idBalloon="SAINTOGAN_ZIGPUCE_MILLIONAIRES_015_balloon_11" idPanel="SAINTOGAN_ZIGPUCE_MILLIONAIRES_015_panel_8"/>
        </polygon><polygon points="1583,2888 1753,2888 1753,3290 1583,3290 1583,2888"><metadata id="SAINTOGAN_ZIGPUCE_MILLIONAIRES_015_character_7" idBalloon="SAINTOGAN_ZIGPUCE_MILLIONAIRES_015_balloon_16" idPanel="SAINTOGAN_ZIGPUCE_MILLIONAIRES_015_panel_12"/>
        </polygon><polygon points="97,1493 409,1493 409,1803 97,1803 97,1493"><metadata id="SAINTOGAN_ZIGPUCE_MILLIONAIRES_015_character_11" idBalloon="SAINTOGAN_ZIGPUCE_MILLIONAIRES_015_balloon_6" idPanel="SAINTOGAN_ZIGPUCE_MILLIONAIRES_015_panel_4"/>
        </polygon><polygon points="1595,679 1783,679 1783,932 1595,932 1595,679"><metadata id="SAINTOGAN_ZIGPUCE_MILLIONAIRES_015_character_14" idBalloon="SAINTOGAN_ZIGPUCE_MILLIONAIRES_015_balloon_4" idPanel="SAINTOGAN_ZIGPUCE_MILLIONAIRES_015_panel_3"/>
        </polygon><polygon points="1611,733 1952,733 1952,1038 1611,1038 1611,733"><metadata id="SAINTOGAN_ZIGPUCE_MILLIONAIRES_015_character_15" idBalloon="SAINTOGAN_ZIGPUCE_MILLIONAIRES_015_balloon_5" idPanel="SAINTOGAN_ZIGPUCE_MILLIONAIRES_015_panel_3"/>
        </polygon><polygon points="826,2154 1209,2154 1209,2565 826,2565 826,2154"><metadata id="SAINTOGAN_ZIGPUCE_MILLIONAIRES_015_character_2" idBalloon="SAINTOGAN_ZIGPUCE_MILLIONAIRES_015_balloon_10" idPanel="SAINTOGAN_ZIGPUCE_MILLIONAIRES_015_panel_8"/>
        </polygon></svg><metadata lastModificationDate="Wed, 07 May 2014 11+:40:20 +0000" method="Christophe Rigaud's extractor"/></svg>
