<svg xmlns="http://www.w3.org/2000/svg" width="2481" version="1.0" height="3492"><title>SAINTOGAN_ZIGPUCE_ET_ALFRED_010</title><svg contentScriptType="text/ecmascript" zoomAndPan="magnify" contentStyleType="text/css" class="Page" preserveAspectRatio="xMidYMid meet" version="1.0"><image xmlns:xlink="http://www.w3.org/1999/xlink" x="0" y="0" width="2481" height="3492" xlink:href="../Pages/SAINTOGAN_ZIGPUCE_ET_ALFRED_010.jpg" xlink:type="simple" xlink:actuate="onLoad" preserveAspectRatio="xMidYMid meet" xlink:show="embed"/></svg><style type="text/css" xml:space="preserve">
            * { stroke-width: 0; stroke-linejoin: round; }
            .Unclassified { fill: orange; stroke: none; opacity: 1.0; visibility: hidden; }
            .Noise { fill: pink; stroke: none; opacity: 0.2; visibility: hidden; }
            .Panel { fill: red; stroke: none; opacity: 0.5; visibility: visible; image-rendering: optimizeSpeed; }
            .Line { fill: green; stroke: none; opacity: 0.5; visibility: visible; image-rendering: optimizeSpeed; }
            .TextArea { fill: grey; stroke: none; opacity: 0.2; visibility: visible; image-rendering: optimizeSpeed; }
            .Balloon { fill: cyan; stroke: none; opacity: 0.5; visibility: visible; image-rendering: optimizeSpeed; }
            .Letter { fill: blue; stroke: none; opacity: 0.2; visibility: hidden; }
            .Object { fill: yellow; stroke: none; opacity: 0.2; visibility: visible; image-rendering: optimizeSpeed; }
            .Page { fill: white; stroke: none; opacity: 0.5; visibility: visible; }
            polygon:hover { opacity:0.2; }
    </style><ns0:svg xmlns:ns0="http://www.w3.org/2000/svg" contentScriptType="text/ecmascript" zoomAndPan="magnify" class="Panel" contentStyleType="text/css" preserveAspectRatio="xMidYMid meet" version="1.0">
        <ns0:polygon points="794,1795 80,1795 80,1125 794,1125 794,1795">
            <ns0:metadata id="SAINTOGAN_ZIGPUCE_ET_ALFRED_010_panel_4" rank="5"/>
        </ns0:polygon>
        <ns0:polygon points="2313,3236 1582,3236 1582,2548 2313,2548 2313,3236">
            <ns0:metadata id="SAINTOGAN_ZIGPUCE_ET_ALFRED_010_panel_12" rank="13"/>
        </ns0:polygon>
        <ns0:polygon points="2313,1795 1586,1795 1586,1120 2313,1120 2313,1795">
            <ns0:metadata id="SAINTOGAN_ZIGPUCE_ET_ALFRED_010_panel_6" rank="7"/>
        </ns0:polygon>
        <ns0:polygon points="1552,3232 820,3232 820,2544 1552,2544 1552,3232">
            <ns0:metadata id="SAINTOGAN_ZIGPUCE_ET_ALFRED_010_panel_11" rank="12"/>
        </ns0:polygon>
        <ns0:polygon points="2317,1086 1590,1086 1590,428 2317,428 2317,1086">
            <ns0:metadata id="SAINTOGAN_ZIGPUCE_ET_ALFRED_010_panel_3" rank="4"/>
        </ns0:polygon>
        <ns0:polygon points="1552,1090 825,1090 825,432 1552,432 1552,1090">
            <ns0:metadata id="SAINTOGAN_ZIGPUCE_ET_ALFRED_010_panel_2" rank="3"/>
        </ns0:polygon>
        <ns0:polygon points="2309,2514 1586,2514 1586,1834 2309,1834 2309,2514">
            <ns0:metadata id="SAINTOGAN_ZIGPUCE_ET_ALFRED_010_panel_9" rank="10"/>
        </ns0:polygon>
        <ns0:polygon points="1556,2514 825,2514 825,1834 1556,1834 1556,2514">
            <ns0:metadata id="SAINTOGAN_ZIGPUCE_ET_ALFRED_010_panel_8" rank="9"/>
        </ns0:polygon>
        <ns0:polygon points="794,1090 85,1090 85,432 794,432 794,1090">
            <ns0:metadata id="SAINTOGAN_ZIGPUCE_ET_ALFRED_010_panel_1" rank="2"/>
        </ns0:polygon>
        <ns0:polygon points="790,3228 72,3228 72,2540 790,2540 790,3228">
            <ns0:metadata id="SAINTOGAN_ZIGPUCE_ET_ALFRED_010_panel_10" rank="11"/>
        </ns0:polygon>
        <ns0:polygon points="790,2509 80,2509 80,1839 790,1839 790,2509">
            <ns0:metadata id="SAINTOGAN_ZIGPUCE_ET_ALFRED_010_panel_7" rank="8"/>
        </ns0:polygon>
        <ns0:polygon points="2322,68 2316,396 75,394 76,75 2322,68">
            <ns0:metadata id="SAINTOGAN_ZIGPUCE_ET_ALFRED_010_panel_0" rank="1"/>
        </ns0:polygon>
        <ns0:polygon points="1556,1800 825,1800 825,1129 1556,1129 1556,1800">
            <ns0:metadata id="SAINTOGAN_ZIGPUCE_ET_ALFRED_010_panel_5" rank="6"/>
        </ns0:polygon>
    </ns0:svg>
    <ns1:svg xmlns:ns1="http://www.w3.org/2000/svg" contentScriptType="text/ecmascript" zoomAndPan="magnify" class="Balloon" contentStyleType="text/css" preserveAspectRatio="xMidYMid meet" version="1.0">
        <ns1:polygon points="1551,1956 1541,2175 1537,2202 1519,2228 1501,2249 1465,2266 1429,2273 1402,2266 1357,2249 1339,2234 1141,2008 1130,1983 1117,1871 1129,1855 1154,1830 1167,1819 1201,1812 1239,1810 1319,1820 1474,1860 1517,1880 1531,1898 1551,1956">
            <ns1:metadata id="SAINTOGAN_ZIGPUCE_ET_ALFRED_010_balloon_11" tailTip="1157,2010" tailDirection="SE" rank="23"/>
        </ns1:polygon>
        <ns1:polygon points="777,2012 769,2115 764,2138 750,2160 651,2278 636,2295 609,2307 570,2312 362,2314 346,2309 336,2297 216,2119 97,1942 89,1914 96,1886 103,1871 114,1854 132,1844 192,1829 250,1815 419,1813 438,1816 602,1855 615,1860 708,1897 726,1918 774,1993 777,2012">
            <ns1:metadata id="SAINTOGAN_ZIGPUCE_ET_ALFRED_010_balloon_10" tailTip="362,2314" tailDirection="S" rank="21"/>
        </ns1:polygon>
        <ns1:polygon points="2003,938 1977,974 1972,980 1964,982 1939,988 1913,980 1908,978 1902,970 1898,874 1914,859 1935,855 1964,863 1986,871 1992,883 2002,924 2003,938">
            <ns1:metadata id="SAINTOGAN_ZIGPUCE_ET_ALFRED_010_balloon_5" tailTip="1939,988" tailDirection="S" rank="11"/>
        </ns1:polygon>
        <ns1:polygon points="814,2698 798,2759 778,2818 618,2890 188,2828 151,2814 130,2785 124,2756 126,2587 135,2561 157,2548 291,2547 726,2550 775,2556 806,2594 814,2698">
            <ns1:metadata id="SAINTOGAN_ZIGPUCE_ET_ALFRED_010_balloon_12" tailTip="618,2890" tailDirection="S" rank="25"/>
        </ns1:polygon>
        <ns1:polygon points="2302,1293 2294,1327 2286,1345 2270,1361 2094,1432 2092,1424 2069,1311 2066,1250 2087,1196 2098,1188 2147,1163 2169,1160 2194,1160 2255,1184 2269,1199 2297,1240 2302,1262 2302,1293">
            <ns1:metadata id="SAINTOGAN_ZIGPUCE_ET_ALFRED_010_balloon_9" tailTip="2094,1432" tailDirection="SW" rank="19"/>
        </ns1:polygon>
        <ns1:polygon points="1573,1165 1571,1242 1567,1317 1552,1347 1295,1583 1273,1603 1218,1610 1167,1613 1147,1603 839,1281 836,1256 835,1199 837,1164 841,1130 848,1118 1055,1113 1530,1108 1558,1121 1569,1143 1573,1165">
            <ns1:metadata id="SAINTOGAN_ZIGPUCE_ET_ALFRED_010_balloon_7" tailTip="1059,1412" tailDirection="SW" rank="15"/>
        </ns1:polygon>
        <ns1:polygon points="2065,1395 2044,1436 2014,1467 1970,1470 1901,1470 1733,1333 1640,1215 1631,1203 1638,1143 1647,1118 1675,1111 2030,1113 2051,1116 2065,1177 2065,1395">
            <ns1:metadata id="SAINTOGAN_ZIGPUCE_ET_ALFRED_010_balloon_8" tailTip="1749,1342" tailDirection="S" rank="17"/>
        </ns1:polygon>
        <ns1:polygon points="2207,607 2203,636 2165,711 2128,705 1809,637 1788,625 1789,455 1813,441 1949,435 2019,432 2056,431 2137,432 2174,435 2202,443 2206,463 2207,607">
            <ns1:metadata id="SAINTOGAN_ZIGPUCE_ET_ALFRED_010_balloon_4" tailTip="2165,711" tailDirection="SE" rank="9"/>
        </ns1:polygon>
        <ns1:polygon points="821,565 801,594 465,692 450,696 422,678 417,658 413,640 419,557 447,447 454,431 462,423 512,413 778,411 814,433 821,565">
            <ns1:metadata id="SAINTOGAN_ZIGPUCE_ET_ALFRED_010_balloon_1" tailTip="479,676" tailDirection="NE" rank="3"/>
        </ns1:polygon>
        <ns1:polygon points="1573,532 1557,563 1405,601 1167,643 1136,647 854,456 846,426 863,403 1303,406 1401,407 1530,412 1555,417 1570,449 1573,532">
            <ns1:metadata id="SAINTOGAN_ZIGPUCE_ET_ALFRED_010_balloon_2" tailTip="1136,647" tailDirection="SW" rank="5"/>
        </ns1:polygon>
        <ns1:polygon points="1573,2621 1569,2657 1558,2721 1531,2728 1494,2728 1245,2707 1215,2692 1205,2666 1211,2556 1217,2529 1227,2527 1265,2520 1553,2523 1569,2539 1573,2621">
            <ns1:metadata id="SAINTOGAN_ZIGPUCE_ET_ALFRED_010_balloon_14" tailTip="1553,2702" tailDirection="E" rank="29"/>
        </ns1:polygon>
        <ns1:polygon points="1589,745 1588,1025 1578,1053 1531,1063 1466,1066 1434,1056 1426,1019 1359,674 1376,628 1387,606 1474,598 1537,595 1560,595 1581,605 1589,655 1589,745">
            <ns1:metadata id="SAINTOGAN_ZIGPUCE_ET_ALFRED_010_balloon_3" tailTip="1359,674" tailDirection="W" rank="7"/>
        </ns1:polygon>
        <ns1:polygon points="654,1127 649,1142 571,1270 557,1280 504,1281 463,1281 364,1277 226,1209 213,1202 192,1176 183,1164 191,1107 195,1096 630,1096 648,1110 654,1127">
            <ns1:metadata id="SAINTOGAN_ZIGPUCE_ET_ALFRED_010_balloon_6" tailTip="226,1209" tailDirection="S" rank="13"/>
        </ns1:polygon>
        <ns1:polygon points="2315,2602 2311,2740 2309,2796 2303,2843 1991,3011 1959,3006 1642,2849 1623,2774 1630,2590 1642,2574 1670,2560 2283,2570 2315,2602">
            <ns1:metadata id="SAINTOGAN_ZIGPUCE_ET_ALFRED_010_balloon_15" tailTip="2007,2997" tailDirection="E" rank="31"/>
        </ns1:polygon>
        <ns1:polygon points="484,2860 483,2882 472,2936 465,2955 457,2964 443,2964 285,2946 254,2939 248,2920 257,2860 273,2844 431,2841 473,2853 484,2860">
            <ns1:metadata id="SAINTOGAN_ZIGPUCE_ET_ALFRED_010_balloon_13" tailTip="465,2955" tailDirection="E" rank="27"/>
        </ns1:polygon>
        <ns1:polygon points="413,605 406,642 342,733 326,740 98,665 87,637 89,467 91,449 111,440 365,438 408,444 412,492 413,552 413,605">
            <ns1:metadata id="SAINTOGAN_ZIGPUCE_ET_ALFRED_010_balloon_0" tailTip="326,740" tailDirection="S" rank="1"/>
        </ns1:polygon>
    </ns1:svg>
    <ns2:svg xmlns:ns2="http://www.w3.org/2000/svg" contentScriptType="text/ecmascript" zoomAndPan="magnify" class="Line" contentStyleType="text/css" preserveAspectRatio="xMidYMid meet" version="1.0">
        <ns2:polygon points="1292,1553 1123,1553 1123,1523 1292,1523 1292,1553">
            <ns2:metadata id="SAINTOGAN_ZIGPUCE_ET_ALFRED_010_line_50" rank="101"/>
        </ns2:polygon>
        <ns2:polygon points="1521,2090 1288,2090 1288,2038 1521,2038 1521,2090">
            <ns2:metadata id="SAINTOGAN_ZIGPUCE_ET_ALFRED_010_line_68" rank="137"/>
        </ns2:polygon>
        <ns2:polygon points="2188,584 1798,584 1798,553 2188,553 2188,584">
            <ns2:metadata id="SAINTOGAN_ZIGPUCE_ET_ALFRED_010_line_32" rank="65"/>
        </ns2:polygon>
        <ns2:polygon points="1794,2842 1634,2842 1634,2799 1794,2799 1794,2842">
            <ns2:metadata id="SAINTOGAN_ZIGPUCE_ET_ALFRED_010_line_90" rank="181"/>
        </ns2:polygon>
        <ns2:polygon points="777,2691 158,2691 158,2643 777,2643 777,2691">
            <ns2:metadata id="SAINTOGAN_ZIGPUCE_ET_ALFRED_010_line_75" rank="151"/>
        </ns2:polygon>
        <ns2:polygon points="760,2600 141,2600 141,2561 760,2561 760,2600">
            <ns2:metadata id="SAINTOGAN_ZIGPUCE_ET_ALFRED_010_line_73" rank="147"/>
        </ns2:polygon>
        <ns2:polygon points="2192,510 1798,510 1798,480 2192,480 2192,510">
            <ns2:metadata id="SAINTOGAN_ZIGPUCE_ET_ALFRED_010_line_30" rank="61"/>
        </ns2:polygon>
        <ns2:polygon points="2058,1202 1642,1202 1642,1168 2058,1168 2058,1202">
            <ns2:metadata id="SAINTOGAN_ZIGPUCE_ET_ALFRED_010_line_53" rank="107"/>
        </ns2:polygon>
        <ns2:polygon points="1539,731 1400,731 1400,705 1539,705 1539,731">
            <ns2:metadata id="SAINTOGAN_ZIGPUCE_ET_ALFRED_010_line_19" rank="39"/>
        </ns2:polygon>
        <ns2:polygon points="1543,480 924,480 924,450 1543,450 1543,480">
            <ns2:metadata id="SAINTOGAN_ZIGPUCE_ET_ALFRED_010_line_12" rank="25"/>
        </ns2:polygon>
        <ns2:polygon points="401,549 93,549 93,519 401,519 401,549">
            <ns2:metadata id="SAINTOGAN_ZIGPUCE_ET_ALFRED_010_line_4" rank="9"/>
        </ns2:polygon>
        <ns2:polygon points="2287,1328 2088,1328 2088,1293 2287,1293 2287,1328">
            <ns2:metadata id="SAINTOGAN_ZIGPUCE_ET_ALFRED_010_line_63" rank="127"/>
        </ns2:polygon>
        <ns2:polygon points="1534,445 881,445 881,406 1534,406 1534,445">
            <ns2:metadata id="SAINTOGAN_ZIGPUCE_ET_ALFRED_010_line_11" rank="23"/>
        </ns2:polygon>
        <ns2:polygon points="1266,1453 1127,1453 1127,1423 1266,1423 1266,1453">
            <ns2:metadata id="SAINTOGAN_ZIGPUCE_ET_ALFRED_010_line_47" rank="95"/>
        </ns2:polygon>
        <ns2:polygon points="2049,1241 1828,1241 1828,1202 2049,1202 2049,1241">
            <ns2:metadata id="SAINTOGAN_ZIGPUCE_ET_ALFRED_010_line_54" rank="109"/>
        </ns2:polygon>
        <ns2:polygon points="2291,1285 2084,1285 2084,1259 2291,1259 2291,1285">
            <ns2:metadata id="SAINTOGAN_ZIGPUCE_ET_ALFRED_010_line_62" rank="125"/>
        </ns2:polygon>
        <ns2:polygon points="1556,1319 1028,1319 1028,1276 1556,1276 1556,1319">
            <ns2:metadata id="SAINTOGAN_ZIGPUCE_ET_ALFRED_010_line_43" rank="87"/>
        </ns2:polygon>
        <ns2:polygon points="1547,1198 838,1198 838,1164 1547,1164 1547,1198">
            <ns2:metadata id="SAINTOGAN_ZIGPUCE_ET_ALFRED_010_line_40" rank="81"/>
        </ns2:polygon>
        <ns2:polygon points="2196,475 1798,475 1798,437 2196,437 2196,475">
            <ns2:metadata id="SAINTOGAN_ZIGPUCE_ET_ALFRED_010_line_29" rank="59"/>
        </ns2:polygon>
        <ns2:polygon points="2054,1354 1833,1354 1833,1315 2054,1315 2054,1354">
            <ns2:metadata id="SAINTOGAN_ZIGPUCE_ET_ALFRED_010_line_57" rank="115"/>
        </ns2:polygon>
        <ns2:polygon points="2062,1276 1846,1276 1846,1246 2062,1246 2062,1276">
            <ns2:metadata id="SAINTOGAN_ZIGPUCE_ET_ALFRED_010_line_55" rank="111"/>
        </ns2:polygon>
        <ns2:polygon points="1582,938 1448,938 1448,908 1582,908 1582,938">
            <ns2:metadata id="SAINTOGAN_ZIGPUCE_ET_ALFRED_010_line_25" rank="51"/>
        </ns2:polygon>
        <ns2:polygon points="1521,2141 1305,2141 1305,2098 1521,2098 1521,2141">
            <ns2:metadata id="SAINTOGAN_ZIGPUCE_ET_ALFRED_010_line_69" rank="139"/>
        </ns2:polygon>
        <ns2:polygon points="1314,1389 1110,1389 1110,1354 1314,1354 1314,1389">
            <ns2:metadata id="SAINTOGAN_ZIGPUCE_ET_ALFRED_010_line_45" rank="91"/>
        </ns2:polygon>
        <ns2:polygon points="1270,1492 1132,1492 1132,1458 1270,1458 1270,1492">
            <ns2:metadata id="SAINTOGAN_ZIGPUCE_ET_ALFRED_010_line_48" rank="97"/>
        </ns2:polygon>
        <ns2:polygon points="1374,1934 1201,1934 1201,1873 1374,1873 1374,1934">
            <ns2:metadata id="SAINTOGAN_ZIGPUCE_ET_ALFRED_010_line_65" rank="131"/>
        </ns2:polygon>
        <ns2:polygon points="803,463 448,463 448,428 803,428 803,463">
            <ns2:metadata id="SAINTOGAN_ZIGPUCE_ET_ALFRED_010_line_7" rank="15"/>
        </ns2:polygon>
        <ns2:polygon points="1547,1164 859,1164 859,1125 1547,1125 1547,1164">
            <ns2:metadata id="SAINTOGAN_ZIGPUCE_ET_ALFRED_010_line_39" rank="79"/>
        </ns2:polygon>
        <ns2:polygon points="1560,1237 842,1237 842,1202 1560,1202 1560,1237">
            <ns2:metadata id="SAINTOGAN_ZIGPUCE_ET_ALFRED_010_line_41" rank="83"/>
        </ns2:polygon>
        <ns2:polygon points="2244,1246 2075,1246 2075,1202 2244,1202 2244,1246">
            <ns2:metadata id="SAINTOGAN_ZIGPUCE_ET_ALFRED_010_line_61" rank="123"/>
        </ns2:polygon>
        <ns2:polygon points="1288,1882 1145,1882 1145,1834 1288,1834 1288,1882">
            <ns2:metadata id="SAINTOGAN_ZIGPUCE_ET_ALFRED_010_line_64" rank="129"/>
        </ns2:polygon>
        <ns2:polygon points="2041,1384 1837,1384 1837,1358 2041,1358 2041,1384">
            <ns2:metadata id="SAINTOGAN_ZIGPUCE_ET_ALFRED_010_line_58" rank="117"/>
        </ns2:polygon>
        <ns2:polygon points="1552,982 1443,982 1443,943 1552,943 1552,982">
            <ns2:metadata id="SAINTOGAN_ZIGPUCE_ET_ALFRED_010_line_26" rank="53"/>
        </ns2:polygon>
        <ns2:polygon points="2296,2674 1642,2674 1642,2622 2296,2622 2296,2674">
            <ns2:metadata id="SAINTOGAN_ZIGPUCE_ET_ALFRED_010_line_86" rank="173"/>
        </ns2:polygon>
        <ns2:polygon points="664,584 526,584 526,545 664,545 664,584">
            <ns2:metadata id="SAINTOGAN_ZIGPUCE_ET_ALFRED_010_line_10" rank="21"/>
        </ns2:polygon>
        <ns2:polygon points="1478,2033 1283,2033 1283,1986 1478,1986 1478,2033">
            <ns2:metadata id="SAINTOGAN_ZIGPUCE_ET_ALFRED_010_line_67" rank="135"/>
        </ns2:polygon>
        <ns2:polygon points="2179,549 1798,549 1798,519 2179,519 2179,549">
            <ns2:metadata id="SAINTOGAN_ZIGPUCE_ET_ALFRED_010_line_31" rank="63"/>
        </ns2:polygon>
        <ns2:polygon points="1539,636 1387,636 1387,610 1539,610 1539,636">
            <ns2:metadata id="SAINTOGAN_ZIGPUCE_ET_ALFRED_010_line_16" rank="33"/>
        </ns2:polygon>
        <ns2:polygon points="1976,1453 1885,1453 1885,1410 1976,1410 1976,1453">
            <ns2:metadata id="SAINTOGAN_ZIGPUCE_ET_ALFRED_010_line_60" rank="121"/>
        </ns2:polygon>
        <ns2:polygon points="1249,1592 1132,1592 1132,1557 1249,1557 1249,1592">
            <ns2:metadata id="SAINTOGAN_ZIGPUCE_ET_ALFRED_010_line_51" rank="103"/>
        </ns2:polygon>
        <ns2:polygon points="1409,592 1119,592 1119,553 1409,553 1409,592">
            <ns2:metadata id="SAINTOGAN_ZIGPUCE_ET_ALFRED_010_line_15" rank="31"/>
        </ns2:polygon>
        <ns2:polygon points="1547,549 1080,549 1080,523 1547,523 1547,549">
            <ns2:metadata id="SAINTOGAN_ZIGPUCE_ET_ALFRED_010_line_14" rank="29"/>
        </ns2:polygon>
        <ns2:polygon points="452,1272 344,1272 344,1237 452,1237 452,1272">
            <ns2:metadata id="SAINTOGAN_ZIGPUCE_ET_ALFRED_010_line_38" rank="77"/>
        </ns2:polygon>
        <ns2:polygon points="803,2648 150,2648 150,2600 803,2600 803,2648">
            <ns2:metadata id="SAINTOGAN_ZIGPUCE_ET_ALFRED_010_line_74" rank="149"/>
        </ns2:polygon>
        <ns2:polygon points="1573,874 1426,874 1426,839 1573,839 1573,874">
            <ns2:metadata id="SAINTOGAN_ZIGPUCE_ET_ALFRED_010_line_23" rank="47"/>
        </ns2:polygon>
        <ns2:polygon points="392,514 93,514 93,480 392,480 392,514">
            <ns2:metadata id="SAINTOGAN_ZIGPUCE_ET_ALFRED_010_line_3" rank="7"/>
        </ns2:polygon>
        <ns2:polygon points="786,2739 158,2739 158,2695 786,2695 786,2739">
            <ns2:metadata id="SAINTOGAN_ZIGPUCE_ET_ALFRED_010_line_76" rank="153"/>
        </ns2:polygon>
        <ns2:polygon points="1582,705 1383,705 1383,675 1582,675 1582,705">
            <ns2:metadata id="SAINTOGAN_ZIGPUCE_ET_ALFRED_010_line_18" rank="37"/>
        </ns2:polygon>
        <ns2:polygon points="812,506 452,506 452,467 812,467 812,506">
            <ns2:metadata id="SAINTOGAN_ZIGPUCE_ET_ALFRED_010_line_8" rank="17"/>
        </ns2:polygon>
        <ns2:polygon points="1586,670 1383,670 1383,640 1586,640 1586,670">
            <ns2:metadata id="SAINTOGAN_ZIGPUCE_ET_ALFRED_010_line_17" rank="35"/>
        </ns2:polygon>
        <ns2:polygon points="760,2778 154,2778 154,2739 760,2739 760,2778">
            <ns2:metadata id="SAINTOGAN_ZIGPUCE_ET_ALFRED_010_line_77" rank="155"/>
        </ns2:polygon>
        <ns2:polygon points="1582,800 1422,800 1422,765 1582,765 1582,800">
            <ns2:metadata id="SAINTOGAN_ZIGPUCE_ET_ALFRED_010_line_21" rank="43"/>
        </ns2:polygon>
        <ns2:polygon points="1547,1276 842,1276 842,1237 1547,1237 1547,1276">
            <ns2:metadata id="SAINTOGAN_ZIGPUCE_ET_ALFRED_010_line_42" rank="85"/>
        </ns2:polygon>
        <ns2:polygon points="2296,2622 1638,2622 1638,2574 2296,2574 2296,2622">
            <ns2:metadata id="SAINTOGAN_ZIGPUCE_ET_ALFRED_010_line_85" rank="171"/>
        </ns2:polygon>
        <ns2:polygon points="1530,2176 1327,2176 1327,2141 1530,2141 1530,2176">
            <ns2:metadata id="SAINTOGAN_ZIGPUCE_ET_ALFRED_010_line_70" rank="141"/>
        </ns2:polygon>
        <ns2:polygon points="617,1168 189,1168 189,1125 617,1125 617,1168">
            <ns2:metadata id="SAINTOGAN_ZIGPUCE_ET_ALFRED_010_line_35" rank="71"/>
        </ns2:polygon>
        <ns2:polygon points="405,588 93,588 93,558 405,558 405,588">
            <ns2:metadata id="SAINTOGAN_ZIGPUCE_ET_ALFRED_010_line_5" rank="11"/>
        </ns2:polygon>
        <ns2:polygon points="1508,2241 1361,2241 1361,2198 1508,2198 1508,2241">
            <ns2:metadata id="SAINTOGAN_ZIGPUCE_ET_ALFRED_010_line_72" rank="145"/>
        </ns2:polygon>
        <ns2:polygon points="288,640 89,640 89,601 288,601 288,640">
            <ns2:metadata id="SAINTOGAN_ZIGPUCE_ET_ALFRED_010_line_6" rank="13"/>
        </ns2:polygon>
        <ns2:polygon points="643,1142 189,1142 189,1086 643,1086 643,1142">
            <ns2:metadata id="SAINTOGAN_ZIGPUCE_ET_ALFRED_010_line_34" rank="69"/>
        </ns2:polygon>
        <ns2:polygon points="1565,765 1409,765 1409,735 1565,735 1565,765">
            <ns2:metadata id="SAINTOGAN_ZIGPUCE_ET_ALFRED_010_line_20" rank="41"/>
        </ns2:polygon>
        <ns2:polygon points="1539,2557 1227,2557 1227,2522 1539,2522 1539,2557">
            <ns2:metadata id="SAINTOGAN_ZIGPUCE_ET_ALFRED_010_line_80" rank="161"/>
        </ns2:polygon>
        <ns2:polygon points="807,540 513,540 513,506 807,506 807,540">
            <ns2:metadata id="SAINTOGAN_ZIGPUCE_ET_ALFRED_010_line_9" rank="19"/>
        </ns2:polygon>
        <ns2:polygon points="467,1943 130,1943 130,1827 467,1827 467,1943">
            <ns2:metadata id="SAINTOGAN_ZIGPUCE_ET_ALFRED_010_line_92" rank="185"/>
        </ns2:polygon>
        <ns2:polygon points="1578,835 1422,835 1422,804 1578,804 1578,835">
            <ns2:metadata id="SAINTOGAN_ZIGPUCE_ET_ALFRED_010_line_22" rank="45"/>
        </ns2:polygon>
        <ns2:polygon points="1552,2591 1227,2591 1227,2561 1552,2561 1552,2591">
            <ns2:metadata id="SAINTOGAN_ZIGPUCE_ET_ALFRED_010_line_81" rank="163"/>
        </ns2:polygon>
        <ns2:polygon points="392,475 102,475 102,445 392,445 392,475">
            <ns2:metadata id="SAINTOGAN_ZIGPUCE_ET_ALFRED_010_line_2" rank="5"/>
        </ns2:polygon>
        <ns2:polygon points="1318,2700 1218,2700 1218,2661 1318,2661 1318,2700">
            <ns2:metadata id="SAINTOGAN_ZIGPUCE_ET_ALFRED_010_line_84" rank="169"/>
        </ns2:polygon>
        <ns2:polygon points="1474,2202 1353,2202 1353,2176 1474,2176 1474,2202">
            <ns2:metadata id="SAINTOGAN_ZIGPUCE_ET_ALFRED_010_line_71" rank="143"/>
        </ns2:polygon>
        <ns2:polygon points="2041,631 1803,631 1803,588 2041,588 2041,631">
            <ns2:metadata id="SAINTOGAN_ZIGPUCE_ET_ALFRED_010_line_33" rank="67"/>
        </ns2:polygon>
        <ns2:polygon points="2049,1164 1642,1164 1642,1129 2049,1129 2049,1164">
            <ns2:metadata id="SAINTOGAN_ZIGPUCE_ET_ALFRED_010_line_52" rank="105"/>
        </ns2:polygon>
        <ns2:polygon points="509,2812 158,2812 158,2782 509,2782 509,2812">
            <ns2:metadata id="SAINTOGAN_ZIGPUCE_ET_ALFRED_010_line_78" rank="157"/>
        </ns2:polygon>
        <ns2:polygon points="1526,1986 1240,1986 1240,1925 1526,1925 1526,1986">
            <ns2:metadata id="SAINTOGAN_ZIGPUCE_ET_ALFRED_010_line_66" rank="133"/>
        </ns2:polygon>
        <ns2:polygon points="1270,1523 1127,1523 1127,1488 1270,1488 1270,1523">
            <ns2:metadata id="SAINTOGAN_ZIGPUCE_ET_ALFRED_010_line_49" rank="99"/>
        </ns2:polygon>
        <ns2:polygon points="1560,519 989,519 989,493 1560,493 1560,519">
            <ns2:metadata id="SAINTOGAN_ZIGPUCE_ET_ALFRED_010_line_13" rank="27"/>
        </ns2:polygon>
        <ns2:polygon points="1517,1350 1058,1350 1058,1306 1517,1306 1517,1350">
            <ns2:metadata id="SAINTOGAN_ZIGPUCE_ET_ALFRED_010_line_44" rank="89"/>
        </ns2:polygon>
        <ns2:polygon points="1292,1427 1127,1427 1127,1393 1292,1393 1292,1427">
            <ns2:metadata id="SAINTOGAN_ZIGPUCE_ET_ALFRED_010_line_46" rank="93"/>
        </ns2:polygon>
        <ns2:polygon points="578,1237 344,1237 344,1207 578,1207 578,1237">
            <ns2:metadata id="SAINTOGAN_ZIGPUCE_ET_ALFRED_010_line_37" rank="75"/>
        </ns2:polygon>
        <ns2:polygon points="1565,2661 1214,2661 1214,2626 1565,2626 1565,2661">
            <ns2:metadata id="SAINTOGAN_ZIGPUCE_ET_ALFRED_010_line_83" rank="167"/>
        </ns2:polygon>
        <ns2:polygon points="1582,1012 1430,1012 1430,982 1582,982 1582,1012">
            <ns2:metadata id="SAINTOGAN_ZIGPUCE_ET_ALFRED_010_line_27" rank="55"/>
        </ns2:polygon>
        <ns2:polygon points="2313,2799 1638,2799 1638,2760 2313,2760 2313,2799">
            <ns2:metadata id="SAINTOGAN_ZIGPUCE_ET_ALFRED_010_line_89" rank="179"/>
        </ns2:polygon>
        <ns2:polygon points="2270,2752 1647,2752 1647,2713 2270,2713 2270,2752">
            <ns2:metadata id="SAINTOGAN_ZIGPUCE_ET_ALFRED_010_line_88" rank="177"/>
        </ns2:polygon>
        <ns2:polygon points="2054,1419 1841,1419 1841,1384 2054,1384 2054,1419">
            <ns2:metadata id="SAINTOGAN_ZIGPUCE_ET_ALFRED_010_line_59" rank="119"/>
        </ns2:polygon>
        <ns2:polygon points="1962,969 1921,969 1921,876 1962,876 1962,969">
            <ns2:metadata id="SAINTOGAN_ZIGPUCE_ET_ALFRED_010_line_91" rank="183"/>
        </ns2:polygon>
        <ns2:polygon points="1513,908 1435,908 1435,878 1513,878 1513,908">
            <ns2:metadata id="SAINTOGAN_ZIGPUCE_ET_ALFRED_010_line_24" rank="49"/>
        </ns2:polygon>
        <ns2:polygon points="2049,1315 1833,1315 1833,1276 2049,1276 2049,1315">
            <ns2:metadata id="SAINTOGAN_ZIGPUCE_ET_ALFRED_010_line_56" rank="113"/>
        </ns2:polygon>
        <ns2:polygon points="474,2903 275,2903 275,2855 474,2855 474,2903">
            <ns2:metadata id="SAINTOGAN_ZIGPUCE_ET_ALFRED_010_line_79" rank="159"/>
        </ns2:polygon>
        <ns2:polygon points="1539,1042 1443,1042 1443,1016 1539,1016 1539,1042">
            <ns2:metadata id="SAINTOGAN_ZIGPUCE_ET_ALFRED_010_line_28" rank="57"/>
        </ns2:polygon>
        <ns2:polygon points="1565,2626 1214,2626 1214,2596 1565,2596 1565,2626">
            <ns2:metadata id="SAINTOGAN_ZIGPUCE_ET_ALFRED_010_line_82" rank="165"/>
        </ns2:polygon>
        <ns2:polygon points="2257,2713 1642,2713 1642,2674 2257,2674 2257,2713">
            <ns2:metadata id="SAINTOGAN_ZIGPUCE_ET_ALFRED_010_line_87" rank="175"/>
        </ns2:polygon>
        <ns2:polygon points="582,1207 340,1207 340,1168 582,1168 582,1207">
            <ns2:metadata id="SAINTOGAN_ZIGPUCE_ET_ALFRED_010_line_36" rank="73"/>
        </ns2:polygon>
    </ns2:svg>
    <svg xmlns="http://www.w3.org/2000/svg" contentScriptType="text/ecmascript" zoomAndPan="magnify" contentStyleType="text/css" class="Object" preserveAspectRatio="xMidYMid meet" version="1.0"><polygon points="825,635 1150,635 1150,1092 825,1092 825,635"><metadata id="SAINTOGAN_ZIGPUCE_ET_ALFRED_010_character_8" idBalloon="SAINTOGAN_ZIGPUCE_ET_ALFRED_010_balloon_2" idPanel="SAINTOGAN_ZIGPUCE_ET_ALFRED_010_panel_2"/>
        </polygon><polygon points="2001,2604 2298,2604 2298,3236 2001,3236 2001,2604"><metadata id="SAINTOGAN_ZIGPUCE_ET_ALFRED_010_character_11" idBalloon="SAINTOGAN_ZIGPUCE_ET_ALFRED_010_balloon_15" idPanel="SAINTOGAN_ZIGPUCE_ET_ALFRED_010_panel_12"/>
        </polygon><polygon points="1146,2006 1531,2006 1531,2376 1146,2376 1146,2006"><metadata id="SAINTOGAN_ZIGPUCE_ET_ALFRED_010_character_6" idBalloon="SAINTOGAN_ZIGPUCE_ET_ALFRED_010_balloon_11" idPanel="SAINTOGAN_ZIGPUCE_ET_ALFRED_010_panel_8"/>
        </polygon><polygon points="123,2863 793,2863 793,3234 123,3234 123,2863"><metadata id="SAINTOGAN_ZIGPUCE_ET_ALFRED_010_character_15" idBalloon="SAINTOGAN_ZIGPUCE_ET_ALFRED_010_balloon_12" idPanel="SAINTOGAN_ZIGPUCE_ET_ALFRED_010_panel_10"/>
        </polygon><polygon points="1605,1345 2084,1345 2084,1801 1605,1801 1605,1345"><metadata id="SAINTOGAN_ZIGPUCE_ET_ALFRED_010_character_12" idBalloon="SAINTOGAN_ZIGPUCE_ET_ALFRED_010_balloon_8" idPanel="SAINTOGAN_ZIGPUCE_ET_ALFRED_010_panel_6"/>
        </polygon><polygon points="145,2306 783,2306 783,2511 145,2511 145,2306"><metadata id="SAINTOGAN_ZIGPUCE_ET_ALFRED_010_character_10" idBalloon="SAINTOGAN_ZIGPUCE_ET_ALFRED_010_balloon_10" idPanel="SAINTOGAN_ZIGPUCE_ET_ALFRED_010_panel_7"/>
        </polygon><polygon points="1659,1388 2084,1388 2084,1792 1659,1792 1659,1388"><metadata id="SAINTOGAN_ZIGPUCE_ET_ALFRED_010_character_13" idBalloon="SAINTOGAN_ZIGPUCE_ET_ALFRED_010_balloon_9" idPanel="SAINTOGAN_ZIGPUCE_ET_ALFRED_010_panel_6"/>
        </polygon><polygon points="459,2573 794,2573 794,3234 459,3234 459,2573"><metadata id="SAINTOGAN_ZIGPUCE_ET_ALFRED_010_character_14" idBalloon="SAINTOGAN_ZIGPUCE_ET_ALFRED_010_balloon_13" idPanel="SAINTOGAN_ZIGPUCE_ET_ALFRED_010_panel_10"/>
        </polygon><polygon points="2192,716 2321,716 2321,1033 2192,1033 2192,716"><metadata id="SAINTOGAN_ZIGPUCE_ET_ALFRED_010_character_4" idBalloon="SAINTOGAN_ZIGPUCE_ET_ALFRED_010_balloon_4" idPanel="SAINTOGAN_ZIGPUCE_ET_ALFRED_010_panel_3"/>
        </polygon><polygon points="951,426 1386,426 1386,1092 951,1092 951,426"><metadata id="SAINTOGAN_ZIGPUCE_ET_ALFRED_010_character_7" idBalloon="SAINTOGAN_ZIGPUCE_ET_ALFRED_010_balloon_3" idPanel="SAINTOGAN_ZIGPUCE_ET_ALFRED_010_panel_2"/>
        </polygon><polygon points="92,1208 679,1208 679,1798 92,1798 92,1208"><metadata id="SAINTOGAN_ZIGPUCE_ET_ALFRED_010_character_9" idBalloon="SAINTOGAN_ZIGPUCE_ET_ALFRED_010_balloon_6" idPanel="SAINTOGAN_ZIGPUCE_ET_ALFRED_010_panel_4"/>
        </polygon><polygon points="1677,983 1958,983 1958,1094 1677,1094 1677,983"><metadata id="SAINTOGAN_ZIGPUCE_ET_ALFRED_010_character_3" idBalloon="SAINTOGAN_ZIGPUCE_ET_ALFRED_010_balloon_5" idPanel="SAINTOGAN_ZIGPUCE_ET_ALFRED_010_panel_3"/>
        </polygon><polygon points="95,792 419,792 419,1093 95,1093 95,792"><metadata id="SAINTOGAN_ZIGPUCE_ET_ALFRED_010_character_2" idBalloon="SAINTOGAN_ZIGPUCE_ET_ALFRED_010_balloon_0" idPanel="SAINTOGAN_ZIGPUCE_ET_ALFRED_010_panel_1"/>
        </polygon><polygon points="834,1413 1045,1413 1045,1800 834,1800 834,1413"><metadata id="SAINTOGAN_ZIGPUCE_ET_ALFRED_010_character_5" idBalloon="SAINTOGAN_ZIGPUCE_ET_ALFRED_010_balloon_7" idPanel="SAINTOGAN_ZIGPUCE_ET_ALFRED_010_panel_5"/>
        </polygon><polygon points="424,424 859,424 859,692 424,692 424,424"><metadata id="SAINTOGAN_ZIGPUCE_ET_ALFRED_010_character_1" idBalloon="SAINTOGAN_ZIGPUCE_ET_ALFRED_010_balloon_1" idPanel="SAINTOGAN_ZIGPUCE_ET_ALFRED_010_panel_1"/>
        </polygon></svg><metadata lastModificationDate="Wed, 07 May 2014 11+:40:20 +0000" method="Christophe Rigaud's extractor"/></svg>
