<svg xmlns="http://www.w3.org/2000/svg" width="5320" version="1.0" height="3632"><title>SAINTOGAN_PROSPER_ET_LE_MONSTRE_MARIN_036</title><svg contentScriptType="text/ecmascript" zoomAndPan="magnify" contentStyleType="text/css" class="Page" preserveAspectRatio="xMidYMid meet" version="1.0"><image xmlns:xlink="http://www.w3.org/1999/xlink" x="0" y="0" width="5320" height="3632" xlink:href="../Pages/SAINTOGAN_PROSPER_ET_LE_MONSTRE_MARIN_036.jpg" xlink:type="simple" xlink:actuate="onLoad" preserveAspectRatio="xMidYMid meet" xlink:show="embed"/></svg><style type="text/css" xml:space="preserve">
            * { stroke-width: 0; stroke-linejoin: round; }
            .Unclassified { fill: orange; stroke: none; opacity: 1.0; visibility: hidden; }
            .Noise { fill: pink; stroke: none; opacity: 0.2; visibility: hidden; }
            .Panel { fill: red; stroke: none; opacity: 0.5; visibility: visible; image-rendering: optimizeSpeed; }
            .Line { fill: green; stroke: none; opacity: 0.5; visibility: visible; image-rendering: optimizeSpeed; }
            .TextArea { fill: grey; stroke: none; opacity: 0.2; visibility: visible; image-rendering: optimizeSpeed; }
            .Balloon { fill: cyan; stroke: none; opacity: 0.5; visibility: visible; image-rendering: optimizeSpeed; }
            .Letter { fill: blue; stroke: none; opacity: 0.2; visibility: hidden; }
            .Object { fill: yellow; stroke: none; opacity: 0.2; visibility: visible; image-rendering: optimizeSpeed; }
            .Page { fill: white; stroke: none; opacity: 0.5; visibility: visible; }
            polygon:hover { opacity:0.2; }
    </style><ns0:svg xmlns:ns0="http://www.w3.org/2000/svg" contentScriptType="text/ecmascript" zoomAndPan="magnify" class="Panel" contentStyleType="text/css" preserveAspectRatio="xMidYMid meet" version="1.0">
        <ns0:polygon points="2533,2110 2529,3321 985,3307 1044,2092 2533,2110">
            <ns0:metadata id="SAINTOGAN_PROSPER_ET_LE_MONSTRE_MARIN_036_panel_7" rank="6"/>
        </ns0:polygon>
        <ns0:polygon points="3735,3145 2885,3145 2885,1597 3735,1597 3735,3145">
            <ns0:metadata id="SAINTOGAN_PROSPER_ET_LE_MONSTRE_MARIN_036_panel_8" rank="7"/>
        </ns0:polygon>
        <ns0:polygon points="2551,1827 837,1827 837,283 2551,283 2551,1827">
            <ns0:metadata id="SAINTOGAN_PROSPER_ET_LE_MONSTRE_MARIN_036_panel_2" rank="3"/>
        </ns0:polygon>
        <ns0:polygon points="1534,1813 1512,2807 378,2785 387,1791 1534,1813">
            <ns0:metadata id="SAINTOGAN_PROSPER_ET_LE_MONSTRE_MARIN_036_panel_6" rank="5"/>
        </ns0:polygon>
        <ns0:polygon points="5031,3262 3735,3262 3735,1417 5031,1417 5031,3262">
            <ns0:metadata id="SAINTOGAN_PROSPER_ET_LE_MONSTRE_MARIN_036_panel_5" rank="9"/>
        </ns0:polygon>
        <ns0:polygon points="958,472 945,1431 396,1426 400,463 958,472">
            <ns0:metadata id="SAINTOGAN_PROSPER_ET_LE_MONSTRE_MARIN_036_panel_0" rank="1"/>
        </ns0:polygon>
        <ns0:polygon points="5040,310 5036,1413 2885,1413 2880,301 5040,310">
            <ns0:metadata id="SAINTOGAN_PROSPER_ET_LE_MONSTRE_MARIN_036_panel_3" rank="4"/>
        </ns0:polygon>
    </ns0:svg>
    <ns1:svg xmlns:ns1="http://www.w3.org/2000/svg" contentScriptType="text/ecmascript" zoomAndPan="magnify" class="Balloon" contentStyleType="text/css" preserveAspectRatio="xMidYMid meet" version="1.0">
        <ns1:polygon points="2319,3203 2309,3323 1468,3309 1474,3196 2319,3203">
            <ns1:metadata id="SAINTOGAN_PROSPER_ET_LE_MONSTRE_MARIN_036_balloon_3" tailDirection="none" rank="7"/>
        </ns1:polygon>
        <ns1:polygon points="4228,2498 3756,2497 3756,2434 4227,2436 4228,2498">
            <ns1:metadata id="SAINTOGAN_PROSPER_ET_LE_MONSTRE_MARIN_036_balloon_5" tailDirection="none" rank="11"/>
        </ns1:polygon>
    </ns1:svg>
    <ns2:svg xmlns:ns2="http://www.w3.org/2000/svg" contentScriptType="text/ecmascript" zoomAndPan="magnify" class="Line" contentStyleType="text/css" preserveAspectRatio="xMidYMid meet" version="1.0">
        <ns2:polygon points="2259,3298 1521,3298 1521,3244 2259,3244 2259,3298">
            <ns2:metadata id="SAINTOGAN_PROSPER_ET_LE_MONSTRE_MARIN_036_line_21" rank="43"/>
        </ns2:polygon>
        <ns2:polygon points="2304,3244 1485,3244 1485,3204 2304,3204 2304,3244">
            <ns2:metadata id="SAINTOGAN_PROSPER_ET_LE_MONSTRE_MARIN_036_line_20" rank="41"/>
        </ns2:polygon>
        <ns2:polygon points="4221,2488 3762,2488 3762,2434 4221,2434 4221,2488">
            <ns2:metadata id="SAINTOGAN_PROSPER_ET_LE_MONSTRE_MARIN_036_line_27" rank="55"/>
        </ns2:polygon>
    </ns2:svg>
    <svg xmlns="http://www.w3.org/2000/svg" contentScriptType="text/ecmascript" zoomAndPan="magnify" contentStyleType="text/css" class="Object" preserveAspectRatio="xMidYMid meet" version="1.0"/><metadata lastModificationDate="Wed, 07 May 2014 11+:40:20 +0000" method="Christophe Rigaud's extractor"/></svg>
