<svg xmlns="http://www.w3.org/2000/svg" width="2694" version="1.0" height="4435"><title>WARE_ACME_032</title><svg contentScriptType="text/ecmascript" zoomAndPan="magnify" contentStyleType="text/css" class="Page" preserveAspectRatio="xMidYMid meet" version="1.0"><image xmlns:xlink="http://www.w3.org/1999/xlink" x="0" y="0" width="2694" height="4435" xlink:href="../Pages/WARE_ACME_032.jpg" xlink:type="simple" xlink:actuate="onLoad" preserveAspectRatio="xMidYMid meet" xlink:show="embed"/></svg><style type="text/css" xml:space="preserve">
            * { stroke-width: 0; stroke-linejoin: round; }
            .Unclassified { fill: orange; stroke: none; opacity: 1.0; visibility: hidden; }
            .Noise { fill: pink; stroke: none; opacity: 0.2; visibility: hidden; }
            .Panel { fill: red; stroke: none; opacity: 0.5; visibility: visible; image-rendering: optimizeSpeed; }
            .Line { fill: green; stroke: none; opacity: 0.5; visibility: visible; image-rendering: optimizeSpeed; }
            .TextArea { fill: grey; stroke: none; opacity: 0.2; visibility: visible; image-rendering: optimizeSpeed; }
            .Balloon { fill: cyan; stroke: none; opacity: 0.5; visibility: visible; image-rendering: optimizeSpeed; }
            .Letter { fill: blue; stroke: none; opacity: 0.2; visibility: hidden; }
            .Object { fill: yellow; stroke: none; opacity: 0.2; visibility: visible; image-rendering: optimizeSpeed; }
            .Page { fill: white; stroke: none; opacity: 0.5; visibility: visible; }
            polygon:hover { opacity:0.2; }
    </style><ns0:svg xmlns:ns0="http://www.w3.org/2000/svg" contentScriptType="text/ecmascript" zoomAndPan="magnify" class="Panel" contentStyleType="text/css" preserveAspectRatio="xMidYMid meet" version="1.0">
        <ns0:polygon points="1009,1365 233,1365 233,633 1009,633 1009,1365">
            <ns0:metadata id="WARE_ACME_032_panel_0" rank="2"/>
        </ns0:polygon>
        <ns0:polygon points="1009,2117 241,2117 241,1385 1009,1385 1009,2117">
            <ns0:metadata id="WARE_ACME_032_panel_3" rank="5"/>
        </ns0:polygon>
        <ns0:polygon points="1019,4366 241,4366 241,3629 1019,3629 1019,4366">
            <ns0:metadata id="WARE_ACME_032_panel_14" rank="14"/>
        </ns0:polygon>
        <ns0:polygon points="2617,2852 1831,2852 1831,2129 2617,2129 2617,2852">
            <ns0:metadata id="WARE_ACME_032_panel_6" rank="10"/>
        </ns0:polygon>
        <ns0:polygon points="2617,4358 1825,4358 1825,3622 2617,3622 2617,4358">
            <ns0:metadata id="WARE_ACME_032_panel_12" rank="16"/>
        </ns0:polygon>
        <ns0:polygon points="1811,2854 1033,2854 1033,2133 1811,2133 1811,2854">
            <ns0:metadata id="WARE_ACME_032_panel_7" rank="9"/>
        </ns0:polygon>
        <ns0:polygon points="1811,2108 1031,2108 1031,1381 1811,1381 1811,2108">
            <ns0:metadata id="WARE_ACME_032_panel_4" rank="6"/>
        </ns0:polygon>
        <ns0:polygon points="1807,1367 1023,1367 1023,629 1807,629 1807,1367">
            <ns0:metadata id="WARE_ACME_032_panel_1" rank="3"/>
        </ns0:polygon>
        <ns0:polygon points="1815,4360 1035,4360 1035,3627 1815,3627 1815,4360">
            <ns0:metadata id="WARE_ACME_032_panel_13" rank="15"/>
        </ns0:polygon>
        <ns0:polygon points="1015,3606 243,3606 243,2877 1015,2877 1015,3606">
            <ns0:metadata id="WARE_ACME_032_panel_9" rank="11"/>
        </ns0:polygon>
        <ns0:polygon points="2623,621 230,621 230,152 2623,152 2623,621">
            <ns0:metadata id="WARE_ACME_032_panel_15" rank="1"/>
        </ns0:polygon>
        <ns0:polygon points="2619,3610 1831,3610 1831,2875 2619,2875 2619,3610">
            <ns0:metadata id="WARE_ACME_032_panel_11" rank="13"/>
        </ns0:polygon>
        <ns0:polygon points="1017,2864 241,2864 241,2133 1017,2133 1017,2864">
            <ns0:metadata id="WARE_ACME_032_panel_8" rank="8"/>
        </ns0:polygon>
        <ns0:polygon points="1819,3602 1033,3602 1033,2877 1819,2877 1819,3602">
            <ns0:metadata id="WARE_ACME_032_panel_10" rank="12"/>
        </ns0:polygon>
        <ns0:polygon points="2619,2108 1827,2108 1827,1381 2619,1381 2619,2108">
            <ns0:metadata id="WARE_ACME_032_panel_5" rank="7"/>
        </ns0:polygon>
        <ns0:polygon points="2619,1367 1825,1367 1825,633 2619,633 2619,1367">
            <ns0:metadata id="WARE_ACME_032_panel_2" rank="4"/>
        </ns0:polygon>
    </ns0:svg>
    <ns1:svg xmlns:ns1="http://www.w3.org/2000/svg" contentScriptType="text/ecmascript" zoomAndPan="magnify" class="Balloon" contentStyleType="text/css" preserveAspectRatio="xMidYMid meet" version="1.0">
        <ns1:polygon points="1025,3049 1001,3072 732,3120 601,3080 583,3067 578,3002 577,2910 587,2880 599,2873 1020,2874 1025,3049">
            <ns1:metadata id="WARE_ACME_032_balloon_12" tailTip="745,3111" tailDirection="SE" rank="25"/>
        </ns1:polygon>
        <ns1:polygon points="2577,1709 2574,1728 2556,1737 2251,1736 2231,1721 2172,1388 2170,1374 2181,1368 2572,1621 2575,1661 2577,1709">
            <ns1:metadata id="WARE_ACME_032_balloon_8" tailTip="2181,1368" tailDirection="NW" rank="17"/>
        </ns1:polygon>
        <ns1:polygon points="1334,1609 1333,1654 1328,1670 1171,1676 1019,1675 990,1661 993,1584 1022,1465 1025,1453 1031,1442 1049,1448 1316,1567 1333,1580 1334,1609">
            <ns1:metadata id="WARE_ACME_032_balloon_6" tailTip="1025,1453" tailDirection="NW" rank="13"/>
        </ns1:polygon>
        <ns1:polygon points="996,856 993,903 978,931 802,1010 781,1009 711,917 613,775 610,727 613,669 620,659 720,656 931,659 985,660 994,680 996,797 996,856">
            <ns1:metadata id="WARE_ACME_032_balloon_1" tailTip="802,1010" tailDirection="SE" rank="3"/>
        </ns1:polygon>
        <ns1:polygon points="1819,3043 1806,3068 1588,3213 1394,3167 1369,3145 1367,3041 1367,2938 1370,2884 1385,2868 1815,2870 1819,3043">
            <ns1:metadata id="WARE_ACME_032_balloon_13" tailTip="1618,3193" tailDirection="NE" rank="27"/>
        </ns1:polygon>
        <ns1:polygon points="1721,2344 1707,2361 1481,2448 1420,2355 1407,2334 1407,2248 1409,2222 1420,2208 1464,2207 1617,2209 1693,2211 1717,2215 1721,2243 1721,2344">
            <ns1:metadata id="WARE_ACME_032_balloon_9" tailTip="1481,2448" tailDirection="SW" rank="19"/>
        </ns1:polygon>
        <ns1:polygon points="2517,2336 2512,2373 2300,2472 2209,2363 2209,2248 2211,2214 2226,2205 2494,2203 2507,2203 2517,2226 2517,2336">
            <ns1:metadata id="WARE_ACME_032_balloon_10" tailTip="2300,2472" tailDirection="SW" rank="21"/>
        </ns1:polygon>
        <ns1:polygon points="1767,718 1766,756 1759,788 1736,791 1536,791 1485,787 1316,670 1327,659 1691,656 1755,657 1764,666 1767,718">
            <ns1:metadata id="WARE_ACME_032_balloon_2" tailTip="1316,670" tailDirection="W" rank="5"/>
        </ns1:polygon>
        <ns1:polygon points="513,3049 429,3159 414,3177 363,3056 363,3040 370,3017 380,3005 390,3000 482,2997 498,3015 508,3032 513,3049">
            <ns1:metadata id="WARE_ACME_032_balloon_11" tailTip="414,3177" tailDirection="S" rank="23"/>
        </ns1:polygon>
        <ns1:polygon points="1689,1819 1680,1843 1636,1846 1465,1849 1382,1802 1395,1776 1448,1699 1460,1683 1663,1683 1681,1688 1687,1699 1689,1755 1689,1819">
            <ns1:metadata id="WARE_ACME_032_balloon_7" tailTip="1382,1802" tailDirection="SW" rank="15"/>
        </ns1:polygon>
        <ns1:polygon points="540,1202 520,1217 440,1214 406,1212 402,1191 400,1147 409,1117 417,1109 500,1074 521,1069 540,1123 540,1202">
            <ns1:metadata id="WARE_ACME_032_balloon_0" tailTip="521,1069" tailDirection="NE" rank="1"/>
        </ns1:polygon>
        <ns1:polygon points="2406,3813 2405,3885 2366,4005 2351,4047 2172,3883 2165,3839 2175,3788 2190,3786 2405,3787 2406,3813">
            <ns1:metadata id="WARE_ACME_032_balloon_14" tailTip="2351,4047" tailDirection="S" rank="29"/>
        </ns1:polygon>
        <ns1:polygon points="971,1799 966,1836 955,1847 755,1886 729,1891 698,1891 665,1859 661,1834 660,1643 678,1627 935,1624 961,1625 971,1651 971,1799">
            <ns1:metadata id="WARE_ACME_032_balloon_5" tailTip="665,1859" tailDirection="W" rank="11"/>
        </ns1:polygon>
        <ns1:polygon points="2572,1133 2570,1178 2563,1197 2476,1199 2311,1195 2292,1183 2187,1003 2198,991 2544,1005 2561,1007 2570,1024 2572,1133">
            <ns1:metadata id="WARE_ACME_032_balloon_3" tailTip="2187,1003" tailDirection="NW" rank="7"/>
        </ns1:polygon>
        <ns1:polygon points="417,1521 406,1533 347,1533 278,1531 268,1519 268,1466 270,1377 278,1375 289,1382 306,1393 401,1457 414,1466 417,1521">
            <ns1:metadata id="WARE_ACME_032_balloon_4" tailTip="278,1375" tailDirection="NW" rank="9"/>
        </ns1:polygon>
    </ns1:svg>
    <ns2:svg xmlns:ns2="http://www.w3.org/2000/svg" contentScriptType="text/ecmascript" zoomAndPan="magnify" class="Line" contentStyleType="text/css" preserveAspectRatio="xMidYMid meet" version="1.0">
        <ns2:polygon points="464,3053 398,3053 399,3022 464,3022 464,3053">
            <ns2:metadata id="WARE_ACME_032_line_35" rank="71"/>
        </ns2:polygon>
        <ns2:polygon points="2542,1097 2323,1097 2323,1069 2542,1069 2542,1097">
            <ns2:metadata id="WARE_ACME_032_line_12" rank="25"/>
        </ns2:polygon>
        <ns2:polygon points="936,868 737,868 737,844 936,844 936,868">
            <ns2:metadata id="WARE_ACME_032_line_5" rank="11"/>
        </ns2:polygon>
        <ns2:polygon points="2527,1699 2261,1699 2261,1674 2527,1674 2527,1699">
            <ns2:metadata id="WARE_ACME_032_line_27" rank="55"/>
        </ns2:polygon>
        <ns2:polygon points="1603,3063 1396,3065 1396,3033 1603,3033 1603,3063">
            <ns2:metadata id="WARE_ACME_032_line_44" rank="89"/>
        </ns2:polygon>
        <ns2:polygon points="1613,2322 1440,2322 1440,2293 1613,2293 1613,2322">
            <ns2:metadata id="WARE_ACME_032_line_30" rank="61"/>
        </ns2:polygon>
        <ns2:polygon points="1685,2263 1439,2263 1439,2244 1685,2244 1685,2263">
            <ns2:metadata id="WARE_ACME_032_line_28" rank="57"/>
        </ns2:polygon>
        <ns2:polygon points="2474,2285 2245,2286 2245,2264 2474,2264 2474,2285">
            <ns2:metadata id="WARE_ACME_032_line_32" rank="65"/>
        </ns2:polygon>
        <ns2:polygon points="1766,3000 1406,3000 1406,2971 1766,2971 1766,3000">
            <ns2:metadata id="WARE_ACME_032_line_42" rank="85"/>
        </ns2:polygon>
        <ns2:polygon points="2542,1129 2324,1129 2324,1099 2542,1099 2542,1129">
            <ns2:metadata id="WARE_ACME_032_line_13" rank="27"/>
        </ns2:polygon>
        <ns2:polygon points="1661,1747 1466,1747 1466,1713 1661,1713 1661,1747">
            <ns2:metadata id="WARE_ACME_032_line_23" rank="47"/>
        </ns2:polygon>
        <ns2:polygon points="2474,2332 2250,2332 2250,2308 2474,2308 2474,2332">
            <ns2:metadata id="WARE_ACME_032_line_34" rank="69"/>
        </ns2:polygon>
        <ns2:polygon points="2533,1067 2328,1067 2328,1039 2533,1039 2533,1067">
            <ns2:metadata id="WARE_ACME_032_line_11" rank="23"/>
        </ns2:polygon>
        <ns2:polygon points="1631,3098 1402,3098 1402,3066 1631,3066 1631,3098">
            <ns2:metadata id="WARE_ACME_032_line_45" rank="91"/>
        </ns2:polygon>
        <ns2:polygon points="992,2971 609,2972 609,2944 992,2944 992,2971">
            <ns2:metadata id="WARE_ACME_032_line_37" rank="75"/>
        </ns2:polygon>
        <ns2:polygon points="2479,2261 2241,2261 2241,2240 2479,2240 2479,2261">
            <ns2:metadata id="WARE_ACME_032_line_31" rank="63"/>
        </ns2:polygon>
        <ns2:polygon points="1308,1617 1021,1617 1021,1597 1308,1597 1308,1617">
            <ns2:metadata id="WARE_ACME_032_line_21" rank="43"/>
        </ns2:polygon>
        <ns2:polygon points="935,1684 699,1684 699,1659 935,1659 935,1684">
            <ns2:metadata id="WARE_ACME_032_line_16" rank="33"/>
        </ns2:polygon>
        <ns2:polygon points="927,1815 693,1815 693,1778 927,1778 927,1815">
            <ns2:metadata id="WARE_ACME_032_line_20" rank="41"/>
        </ns2:polygon>
        <ns2:polygon points="373,1503 301,1503 301,1478 373,1478 373,1503">
            <ns2:metadata id="WARE_ACME_032_line_15" rank="31"/>
        </ns2:polygon>
        <ns2:polygon points="1585,3129 1398,3129 1398,3099 1585,3099 1585,3129">
            <ns2:metadata id="WARE_ACME_032_line_46" rank="93"/>
        </ns2:polygon>
        <ns2:polygon points="1678,2267 1677,2290 1440,2290 1440,2267 1678,2267">
            <ns2:metadata id="WARE_ACME_032_line_29" rank="59"/>
        </ns2:polygon>
        <ns2:polygon points="2478,2308 2245,2308 2245,2286 2478,2286 2478,2308">
            <ns2:metadata id="WARE_ACME_032_line_33" rank="67"/>
        </ns2:polygon>
        <ns2:polygon points="987,3001 608,3001 608,2974 987,2974 987,3001">
            <ns2:metadata id="WARE_ACME_032_line_38" rank="77"/>
        </ns2:polygon>
        <ns2:polygon points="508,1162 437,1162 438,1131 508,1131 508,1162">
            <ns2:metadata id="WARE_ACME_032_line_7" rank="15"/>
        </ns2:polygon>
        <ns2:polygon points="2534,1161 2325,1160 2325,1131 2534,1131 2534,1161">
            <ns2:metadata id="WARE_ACME_032_line_14" rank="29"/>
        </ns2:polygon>
        <ns2:polygon points="961,718 642,715 642,689 961,689 961,718">
            <ns2:metadata id="WARE_ACME_032_line_0" rank="1"/>
        </ns2:polygon>
        <ns2:polygon points="1672,1751 1671,1777 1473,1777 1473,1751 1672,1751">
            <ns2:metadata id="WARE_ACME_032_line_24" rank="49"/>
        </ns2:polygon>
        <ns2:polygon points="1772,3029 1403,3029 1403,3003 1772,3003 1772,3029">
            <ns2:metadata id="WARE_ACME_032_line_43" rank="87"/>
        </ns2:polygon>
        <ns2:polygon points="2370,3817 2369,3847 2201,3847 2198,3817 2370,3817">
            <ns2:metadata id="WARE_ACME_032_line_47" rank="95"/>
        </ns2:polygon>
        <ns2:polygon points="965,745 642,747 642,720 965,720 965,745">
            <ns2:metadata id="WARE_ACME_032_line_1" rank="3"/>
        </ns2:polygon>
        <ns2:polygon points="979,901 735,901 735,874 979,874 979,901">
            <ns2:metadata id="WARE_ACME_032_line_6" rank="13"/>
        </ns2:polygon>
        <ns2:polygon points="948,809 717,809 717,783 948,783 948,809">
            <ns2:metadata id="WARE_ACME_032_line_3" rank="7"/>
        </ns2:polygon>
        <ns2:polygon points="939,776 721,777 722,751 939,751 939,776">
            <ns2:metadata id="WARE_ACME_032_line_2" rank="5"/>
        </ns2:polygon>
        <ns2:polygon points="1658,1810 1476,1810 1476,1780 1658,1780 1658,1810">
            <ns2:metadata id="WARE_ACME_032_line_25" rank="51"/>
        </ns2:polygon>
        <ns2:polygon points="995,2939 612,2939 612,2914 995,2914 995,2939">
            <ns2:metadata id="WARE_ACME_032_line_36" rank="73"/>
        </ns2:polygon>
        <ns2:polygon points="968,3036 607,3036 607,3002 968,3002 968,3036">
            <ns2:metadata id="WARE_ACME_032_line_39" rank="79"/>
        </ns2:polygon>
        <ns2:polygon points="1280,1620 1274,1645 1028,1645 1027,1620 1280,1620">
            <ns2:metadata id="WARE_ACME_032_line_22" rank="45"/>
        </ns2:polygon>
        <ns2:polygon points="936,1745 695,1745 695,1720 936,1720 936,1745">
            <ns2:metadata id="WARE_ACME_032_line_18" rank="37"/>
        </ns2:polygon>
        <ns2:polygon points="1795,2942 1402,2941 1402,2908 1795,2908 1795,2942">
            <ns2:metadata id="WARE_ACME_032_line_40" rank="81"/>
        </ns2:polygon>
        <ns2:polygon points="944,1718 695,1718 695,1691 944,1691 944,1718">
            <ns2:metadata id="WARE_ACME_032_line_17" rank="35"/>
        </ns2:polygon>
        <ns2:polygon points="1714,718 1510,718 1510,687 1714,687 1714,718">
            <ns2:metadata id="WARE_ACME_032_line_9" rank="19"/>
        </ns2:polygon>
        <ns2:polygon points="2545,1671 2261,1671 2261,1650 2545,1650 2545,1671">
            <ns2:metadata id="WARE_ACME_032_line_26" rank="53"/>
        </ns2:polygon>
        <ns2:polygon points="510,1191 426,1191 426,1162 510,1162 510,1191">
            <ns2:metadata id="WARE_ACME_032_line_8" rank="17"/>
        </ns2:polygon>
        <ns2:polygon points="1726,749 1510,749 1510,719 1726,719 1726,749">
            <ns2:metadata id="WARE_ACME_032_line_10" rank="21"/>
        </ns2:polygon>
        <ns2:polygon points="974,839 719,839 719,814 974,814 974,839">
            <ns2:metadata id="WARE_ACME_032_line_4" rank="9"/>
        </ns2:polygon>
        <ns2:polygon points="1781,2968 1404,2968 1404,2941 1781,2941 1781,2968">
            <ns2:metadata id="WARE_ACME_032_line_41" rank="83"/>
        </ns2:polygon>
        <ns2:polygon points="911,1774 691,1774 691,1748 911,1748 911,1774">
            <ns2:metadata id="WARE_ACME_032_line_19" rank="39"/>
        </ns2:polygon>
    </ns2:svg>
    <svg xmlns="http://www.w3.org/2000/svg" contentScriptType="text/ecmascript" zoomAndPan="magnify" contentStyleType="text/css" class="Object" preserveAspectRatio="xMidYMid meet" version="1.0"><polygon points="755,1043 933,1043 933,1294 755,1294 755,1043"><metadata id="WARE_ACME_032_character_2" idBalloon="WARE_ACME_032_balloon_1" idPanel="WARE_ACME_032_panel_0"/>
        </polygon><polygon points="1228,2452 1486,2452 1486,2732 1228,2732 1228,2452"><metadata id="WARE_ACME_032_character_11" idBalloon="WARE_ACME_032_balloon_9" idPanel="WARE_ACME_032_panel_7"/>
        </polygon><polygon points="737,3095 1017,3095 1017,3362 737,3362 737,3095"><metadata id="WARE_ACME_032_character_4" idBalloon="WARE_ACME_032_balloon_12" idPanel="WARE_ACME_032_panel_9"/>
        </polygon><polygon points="1632,2912 1813,2912 1813,3165 1632,3165 1632,2912"><metadata id="WARE_ACME_032_character_10" idBalloon="WARE_ACME_032_balloon_13" idPanel="WARE_ACME_032_panel_10"/>
        </polygon><polygon points="1037,644 1316,644 1316,947 1037,947 1037,644"><metadata id="WARE_ACME_032_character_14" idBalloon="WARE_ACME_032_balloon_2" idPanel="WARE_ACME_032_panel_1"/>
        </polygon><polygon points="2004,2454 2298,2454 2298,2732 2004,2732 2004,2454"><metadata id="WARE_ACME_032_character_12" idBalloon="WARE_ACME_032_balloon_10" idPanel="WARE_ACME_032_panel_6"/>
        </polygon><polygon points="389,1672 650,1672 650,2070 389,2070 389,1672"><metadata id="WARE_ACME_032_character_9" idBalloon="WARE_ACME_032_balloon_5" idPanel="WARE_ACME_032_panel_3"/>
        </polygon><polygon points="254,3198 527,3198 527,3562 254,3562 254,3198"><metadata id="WARE_ACME_032_character_5" idBalloon="WARE_ACME_032_balloon_11" idPanel="WARE_ACME_032_panel_9"/>
        </polygon><polygon points="2066,888 2154,888 2154,995 2066,995 2066,888"><metadata id="WARE_ACME_032_character_15" idBalloon="WARE_ACME_032_balloon_3" idPanel="WARE_ACME_032_panel_2"/>
        </polygon><polygon points="1199,1786 1383,1786 1383,2022 1199,2022 1199,1786"><metadata id="WARE_ACME_032_character_6" idBalloon="WARE_ACME_032_balloon_7" idPanel="WARE_ACME_032_panel_4"/>
        </polygon><polygon points="2310,4043 2619,4043 2619,4322 2310,4322 2310,4043"><metadata id="WARE_ACME_032_character_1" idBalloon="WARE_ACME_032_balloon_14" idPanel="WARE_ACME_032_panel_12"/>
        </polygon><polygon points="523,785 989,785 989,1106 523,1106 523,785"><metadata id="WARE_ACME_032_character_3" idBalloon="WARE_ACME_032_balloon_0" idPanel="WARE_ACME_032_panel_0"/>
        </polygon></svg><metadata lastModificationDate="Wed, 07 May 2014 11+:40:20 +0000" method="Christophe Rigaud's extractor"/></svg>
