<svg xmlns="http://www.w3.org/2000/svg" width="4483" version="1.0" height="2623"><title>WARE_ACME_024</title><svg contentScriptType="text/ecmascript" zoomAndPan="magnify" contentStyleType="text/css" class="Page" preserveAspectRatio="xMidYMid meet" version="1.0"><image xmlns:xlink="http://www.w3.org/1999/xlink" x="0" y="0" width="4483" height="2623" xlink:href="../Pages/WARE_ACME_024.jpg" xlink:type="simple" xlink:actuate="onLoad" preserveAspectRatio="xMidYMid meet" xlink:show="embed"/></svg><style type="text/css" xml:space="preserve">
            * { stroke-width: 0; stroke-linejoin: round; }
            .Unclassified { fill: orange; stroke: none; opacity: 1.0; visibility: hidden; }
            .Noise { fill: pink; stroke: none; opacity: 0.2; visibility: hidden; }
            .Panel { fill: red; stroke: none; opacity: 0.5; visibility: visible; image-rendering: optimizeSpeed; }
            .Line { fill: green; stroke: none; opacity: 0.5; visibility: visible; image-rendering: optimizeSpeed; }
            .TextArea { fill: grey; stroke: none; opacity: 0.2; visibility: visible; image-rendering: optimizeSpeed; }
            .Balloon { fill: cyan; stroke: none; opacity: 0.5; visibility: visible; image-rendering: optimizeSpeed; }
            .Letter { fill: blue; stroke: none; opacity: 0.2; visibility: hidden; }
            .Object { fill: yellow; stroke: none; opacity: 0.2; visibility: visible; image-rendering: optimizeSpeed; }
            .Page { fill: white; stroke: none; opacity: 0.5; visibility: visible; }
            polygon:hover { opacity:0.2; }
    </style><ns0:svg xmlns:ns0="http://www.w3.org/2000/svg" contentScriptType="text/ecmascript" zoomAndPan="magnify" class="Panel" contentStyleType="text/css" preserveAspectRatio="xMidYMid meet" version="1.0">
        <ns0:polygon points="576,1383 134,1385 132,1385 130,1384 129,1383 128,1278 126,1039 126,1038 127,1036 571,1036 573,1037 574,1146 576,1377 576,1383">
            <ns0:metadata id="WARE_ACME_024_panel_1" rank="1"/>
        </ns0:polygon>
        <ns0:polygon points="3683,2209 3628,2210 3559,2211 3252,2212 3064,2212 3063,2210 3062,2129 3060,1834 3060,1782 3061,1781 3263,1780 3459,1780 3679,2000 3680,2005 3681,2072 3683,2208 3683,2209">
            <ns0:metadata id="WARE_ACME_024_panel_0" rank="5"/>
        </ns0:polygon>
        <ns0:polygon points="1037,1325 1036,1381 1035,1383 772,1384 705,1384 591,1383 590,1381 589,1371 586,974 586,963 622,962 991,961 1034,961 1037,1324 1037,1325">
            <ns0:metadata id="WARE_ACME_024_panel_3" rank="2"/>
        </ns0:polygon>
        <ns0:polygon points="1506,1357 1505,1383 1496,1385 1495,1385 1050,1383 1049,1382 1044,963 1045,961 1379,961 1503,962 1506,1256 1506,1357">
            <ns0:metadata id="WARE_ACME_024_panel_2" rank="3"/>
        </ns0:polygon>
        <ns0:polygon points="3677,1277 3676,1278 3476,1385 3308,1386 3298,1386 3269,1385 3268,1360 3267,1187 3266,990 3266,979 3267,969 3315,968 3591,967 3674,967 3675,971 3676,1040 3677,1179 3677,1277">
            <ns0:metadata id="WARE_ACME_024_balloon_25"/>
        </ns0:polygon>
        <ns0:polygon points="4319,1731 4318,1735 4316,1736 4075,1737 3711,1737 3708,1608 3705,962 3706,961 4308,959 4310,961 4311,963 4312,1020 4319,1731">
            <ns0:metadata id="WARE_ACME_024_panel_4" rank="4"/>
        </ns0:polygon>
    </ns0:svg>
    <ns1:svg xmlns:ns1="http://www.w3.org/2000/svg" contentScriptType="text/ecmascript" zoomAndPan="magnify" class="Balloon" contentStyleType="text/css" preserveAspectRatio="xMidYMid meet" version="1.0">
        <ns1:polygon points="3451,1897 3440,1908 3395,1937 3391,1939 3388,1940 3382,1941 3189,1942 3145,1942 3092,1932 3088,1931 3085,1930 3079,1927 3073,1922 3072,1921 3070,1918 3069,1916 3068,1896 3067,1815 3067,1811 3068,1789 3258,1788 3449,1788 3451,1790 3451,1897">
            <ns1:metadata id="WARE_ACME_024_balloon_9" tailTip="3145,1942" tailDirection="NW" rank="19"/>
        </ns1:polygon>
        <ns1:polygon points="3642,1114 3641,1117 3638,1122 3637,1123 3631,1127 3629,1128 3622,1129 3430,1131 3329,1131 3314,1130 3306,1129 3302,1127 3299,1125 3296,1122 3292,1114 3292,1021 3293,1015 3295,1011 3298,1008 3303,1004 3308,1002 3541,1000 3623,1000 3633,1002 3635,1003 3637,1005 3639,1009 3640,1017 3641,1030 3642,1059 3642,1114">
            <ns1:metadata id="WARE_ACME_024_balloon_24" tailDirection="none" rank="49"/>
        </ns1:polygon>
        <ns1:polygon points="1459,1057 1458,1080 1457,1084 1454,1088 1453,1089 1448,1093 1446,1094 1432,1095 1177,1096 1152,1096 1130,1095 1104,1076 1102,1074 1101,1051 1100,1000 1100,995 1101,992 1103,988 1109,984 1132,983 1446,983 1451,984 1455,988 1457,992 1458,1017 1459,1050 1459,1057">
            <ns1:metadata id="WARE_ACME_024_balloon_23" tailTip="1177,1096" tailDirection="E" rank="47"/>
        </ns1:polygon>
    </ns1:svg>
    <ns2:svg xmlns:ns2="http://www.w3.org/2000/svg" contentScriptType="text/ecmascript" zoomAndPan="magnify" class="Line" contentStyleType="text/css" preserveAspectRatio="xMidYMid meet" version="1.0">
        <ns2:polygon points="3096,1854 3361,1854 3361,1874 3096,1874 3096,1854">
            <ns2:metadata id="WARE_ACME_024_line_71" rank="143"/>
        </ns2:polygon>
        <ns2:polygon points="3089,1858 3200,1858 3200,1893 3089,1893 3089,1858">
            <ns2:metadata id="WARE_ACME_024_line_69" rank="139"/>
        </ns2:polygon>
        <ns2:polygon points="3135,1872 3370,1872 3370,1910 3135,1910 3135,1872">
            <ns2:metadata id="WARE_ACME_024_line_68" rank="137"/>
        </ns2:polygon>
        <ns2:polygon points="3321,1030 3616,1030 3616,1051 3321,1051 3321,1030">
            <ns2:metadata id="WARE_ACME_024_line_194" rank="389"/>
        </ns2:polygon>
        <ns2:polygon points="1122,997 1442,997 1442,1017 1122,1017 1122,997">
            <ns2:metadata id="WARE_ACME_024_line_189" rank="379"/>
        </ns2:polygon>
        <ns2:polygon points="3287,1853 3441,1853 3441,1890 3287,1890 3287,1853">
            <ns2:metadata id="WARE_ACME_024_line_70" rank="141"/>
        </ns2:polygon>
        <ns2:polygon points="3313,1070 3581,1070 3581,1093 3313,1093 3313,1070">
            <ns2:metadata id="WARE_ACME_024_line_192" rank="385"/>
        </ns2:polygon>
        <ns2:polygon points="3332,1049 3568,1049 3568,1072 3332,1072 3332,1049">
            <ns2:metadata id="WARE_ACME_024_line_193" rank="387"/>
        </ns2:polygon>
        <ns2:polygon points="1129,1038 1370,1038 1370,1059 1129,1059 1129,1038">
            <ns2:metadata id="WARE_ACME_024_line_187" rank="375"/>
        </ns2:polygon>
        <ns2:polygon points="3088,1809 3432,1809 3432,1834 3088,1834 3088,1809">
            <ns2:metadata id="WARE_ACME_024_line_73" rank="147"/>
        </ns2:polygon>
        <ns2:polygon points="3087,1834 3403,1834 3403,1855 3087,1855 3087,1834">
            <ns2:metadata id="WARE_ACME_024_line_72" rank="145"/>
        </ns2:polygon>
    </ns2:svg>
    <svg xmlns="http://www.w3.org/2000/svg" contentScriptType="text/ecmascript" zoomAndPan="magnify" contentStyleType="text/css" class="Object" preserveAspectRatio="xMidYMid meet" version="1.0"><polygon points="3093,1816 3140,1816 3140,1870 3093,1870 3093,1816"><metadata id="WARE_ACME_024_character_1" idBalloon="WARE_ACME_024_balloon_9" idPanel="WARE_ACME_024_panel_0"/>
        </polygon><polygon points="1155,1002 1415,1002 1415,1378 1155,1378 1155,1002"><metadata id="WARE_ACME_024_character_2" idBalloon="WARE_ACME_024_balloon_23" idPanel="WARE_ACME_024_panel_2"/>
        </polygon></svg><metadata lastModificationDate="Wed, 07 May 2014 11+:40:20 +0000" method="Christophe Rigaud's extractor"/></svg>
