<?xml version="1.0" encoding="UTF-8" standalone="no"?>
<svg width="827" xmlns="http://www.w3.org/2000/svg" version="1.0" height="1170">
  <title>MomoyamaHaikagura_040</title>
  <svg contentScriptType="text/ecmascript" zoomAndPan="magnify" contentStyleType="text/css" class="Page" preserveAspectRatio="xMidYMid meet" version="1.0">
    <image xmlns:xlink="http://www.w3.org/1999/xlink" x="0" y="0" width="827" height="1170" xlink:href="./../../dataset_Manga109/MomoyamaHaikagura/MomoyamaHaikagura_040.jpg" xlink:type="simple" xlink:actuate="onLoad" preserveAspectRatio="xMidYMid meet" xlink:show="embed"/>
  </svg>
  <style type="text/css" xml:space="preserve">
        * { stroke-linejoin: round; }
        .Unclassified   { fill: orange; stroke: none;   opacity: 1.0; visibility: hidden; }
        .Noise          { fill: pink;   stroke: none;   opacity: 0.2; visibility: hidden; }
        .Panel          { fill: none;   stroke: red;    stroke-width:3; opacity: 0.5; visibility: visible; image-rendering: optimizeSpeed; }
        .Line           { fill: green;  stroke: none;   opacity: 0.5; visibility: visible; image-rendering: optimizeSpeed; }
        .TextArea       { fill: grey;   stroke: none;   opacity: 0.2; visibility: visible; image-rendering: optimizeSpeed; }
        .Balloon        { fill: cyan;   stroke: none;   opacity: 0.5; visibility: visible; image-rendering: optimizeSpeed; }
        .Letter         { fill: blue;   stroke: none;   opacity: 0.2; visibility: hidden; }
        .Object, .Character, .Face  { fill: yellow; stroke: none;   opacity: 0.5; visibility: visible; image-rendering: optimizeSpeed; }
        .Page           { fill: white;  stroke: none;    opacity: 0.5; visibility: visible; }
        .linkSBSC { fill: blue; stroke: none; opacity: 1.0; visibility: visible; }
        polygon:hover { opacity:1.0; stroke:red; }
</style>
  <svg xmlns="http://www.w3.org/2000/svg" contentScriptType="text/ecmascript" zoomAndPan="magnify" contentStyleType="text/css" class="Balloon" preserveAspectRatio="xMidYMid meet" version="1.0">
    <polygon points="117,1064 117,1065 117,1066 117,1067 116,1068 115,1069 114,1069 113,1069 112,1068 111,1068 110,1067 110,1066 109,1065 108,1065 109,1066 108,1067 107,1067 106,1066 105,1066 105,1067 105,1068 105,1069 106,1070 107,1071 106,1072 105,1072 106,1072 107,1072 108,1072 109,1073 108,1074 109,1075 108,1076 107,1077 107,1078 107,1079 106,1080 106,1081 106,1082 106,1083 106,1084 106,1085 105,1086 105,1087 105,1088 105,1089 105,1090 106,1091 105,1092 104,1092 105,1092 106,1093 105,1094 104,1094 104,1095 104,1096 104,1097 104,1098 105,1097 106,1098 106,1099 106,1100 105,1101 104,1102 103,1102 103,1103 103,1104 103,1105 103,1106 103,1107 103,1108 103,1109 103,1110 103,1111 103,1112 103,1113 102,1114 102,1115 102,1116 102,1117 102,1118 102,1119 102,1120 102,1121 102,1122 102,1123 102,1124 101,1125 101,1126 102,1126 103,1127 102,1128 101,1128 101,1129 101,1130 101,1131 101,1132 101,1133 101,1134 101,1135 101,1136 101,1137 101,1138 101,1139 101,1140 101,1141 101,1142 101,1143 101,1144 101,1145 101,1146 101,1147 101,1148 101,1149 102,1150 101,1151 102,1151 103,1151 102,1150 103,1149 103,1148 104,1147 105,1147 106,1147 107,1147 106,1147 105,1147 104,1147 103,1146 103,1145 103,1144 103,1143 103,1142 103,1141 104,1140 105,1140 106,1141 107,1142 106,1143 105,1143 106,1144 106,1145 107,1145 108,1145 109,1145 108,1145 107,1145 106,1144 107,1143 108,1143 109,1143 108,1143 107,1142 106,1141 107,1140 108,1140 109,1140 110,1140 109,1140 108,1139 109,1138 108,1138 107,1138 106,1138 105,1138 106,1139 105,1140 104,1140 103,1139 103,1138 103,1137 104,1136 105,1136 106,1136 107,1136 108,1136 109,1136 110,1136 111,1136 110,1136 109,1136 108,1136 107,1136 106,1136 105,1136 104,1136 103,1135 104,1134 103,1133 102,1132 103,1131 103,1130 103,1129 103,1128 103,1127 104,1126 105,1126 106,1127 107,1126 108,1126 107,1126 106,1125 107,1124 108,1124 109,1124 110,1125 110,1126 110,1125 109,1124 108,1124 107,1124 106,1124 105,1124 104,1124 103,1123 104,1122 105,1122 106,1122 107,1122 108,1122 109,1122 110,1122 111,1122 112,1123 112,1124 112,1125 112,1126 112,1127 112,1128 111,1129 112,1130 112,1131 112,1132 111,1133 112,1133 112,1132 112,1131 112,1130 112,1129 112,1128 112,1127 112,1126 112,1125 112,1124 112,1123 112,1122 112,1121 112,1120 112,1119 112,1118 112,1117 112,1116 112,1115 112,1114 112,1113 112,1112 113,1111 113,1110 113,1109 113,1108 113,1107 113,1106 113,1105 113,1104 113,1103 112,1102 113,1101 112,1100 112,1099 112,1098 112,1097 112,1096 112,1095 113,1094 112,1093 112,1092 112,1091 112,1090 112,1089 112,1088 112,1087 112,1086 112,1085 112,1084 112,1083 112,1082 112,1081 112,1080 112,1079 112,1078 112,1077 112,1076 112,1075 112,1074 112,1073 112,1072 112,1071 112,1070 113,1069 114,1069 115,1070 114,1071 114,1072 114,1073 114,1074 114,1075 114,1076 114,1077 114,1078 114,1079 114,1080 114,1081 114,1082 114,1083 115,1084 115,1085 115,1086 115,1087 115,1088 115,1089 115,1090 115,1091 115,1092 115,1093 115,1094 115,1095 115,1096 115,1097 115,1098 115,1099 115,1100 115,1101 115,1102 115,1103 115,1104 115,1105 115,1106 115,1107 115,1108 115,1109 115,1110 115,1111 115,1112 115,1113 115,1114 115,1115 115,1116 115,1117 115,1118 115,1119 115,1120 115,1121 115,1122 115,1123 114,1124 114,1125 114,1126 115,1127 114,1128 114,1129 114,1130 114,1131 114,1132 114,1133 114,1134 114,1135 114,1136 114,1137 113,1138 114,1139 113,1140 112,1141 112,1142 112,1143 112,1144 112,1145 112,1146 112,1147 112,1148 112,1149 113,1148 114,1148 115,1148 116,1147 117,1147 118,1147 119,1147 119,1146 119,1145 119,1144 119,1143 119,1142 119,1141 120,1140 121,1140 122,1140 123,1141 123,1140 122,1140 121,1140 120,1140 119,1139 119,1138 119,1137 119,1136 119,1135 119,1134 120,1133 121,1134 121,1135 121,1134 121,1133 120,1133 119,1132 119,1131 119,1130 120,1129 121,1129 120,1129 119,1128 119,1127 119,1126 119,1125 119,1124 119,1123 119,1122 119,1121 119,1120 120,1119 121,1120 121,1119 120,1119 119,1118 119,1117 119,1116 119,1115 119,1114 119,1113 119,1112 119,1111 119,1110 119,1109 119,1108 119,1107 119,1106 119,1105 120,1104 121,1105 121,1106 121,1105 121,1104 121,1103 122,1102 123,1103 123,1104 124,1104 125,1104 125,1103 126,1102 127,1103 127,1104 127,1105 126,1106 127,1107 126,1108 125,1108 126,1108 127,1109 126,1110 125,1110 124,1110 123,1110 124,1110 125,1110 126,1110 127,1111 127,1112 127,1113 127,1114 127,1115 127,1116 127,1117 127,1118 127,1119 127,1120 127,1121 126,1122 125,1122 124,1122 123,1122 124,1122 125,1122 126,1122 127,1123 127,1124 127,1125 127,1126 127,1127 127,1128 127,1129 127,1130 127,1131 127,1132 127,1133 127,1134 127,1135 127,1136 126,1137 125,1136 125,1137 126,1137 127,1138 127,1139 127,1140 127,1141 127,1142 126,1143 127,1144 127,1145 128,1144 129,1143 130,1144 131,1143 132,1143 132,1142 131,1141 132,1140 133,1140 134,1140 135,1141 136,1142 135,1141 136,1140 137,1140 138,1140 137,1140 136,1140 135,1140 134,1139 135,1138 136,1138 135,1138 134,1137 135,1136 136,1136 135,1136 134,1135 135,1134 136,1134 136,1133 136,1132 136,1131 135,1131 134,1131 134,1132 134,1133 134,1134 134,1135 133,1136 132,1135 132,1134 132,1133 132,1132 132,1131 132,1130 132,1129 132,1128 131,1127 132,1126 133,1126 134,1126 135,1126 136,1126 137,1126 138,1126 137,1126 136,1126 135,1126 134,1126 133,1126 132,1126 131,1125 132,1124 133,1124 134,1124 135,1124 136,1124 137,1124 138,1124 137,1124 136,1124 135,1124 134,1123 135,1122 136,1122 135,1122 134,1122 133,1122 132,1121 133,1120 134,1120 135,1120 136,1120 136,1119 136,1118 136,1117 135,1117 134,1117 133,1118 132,1117 132,1116 132,1115 132,1114 132,1113 133,1112 134,1112 135,1112 136,1112 136,1111 135,1110 135,1109 134,1108 134,1107 134,1106 133,1105 133,1104 133,1103 132,1102 132,1101 132,1100 131,1099 131,1098 131,1097 130,1096 130,1095 130,1094 129,1094 128,1093 129,1092 129,1091 128,1090 128,1089 128,1088 128,1087 127,1086 127,1085 127,1084 127,1083 127,1084 127,1085 127,1086 127,1087 127,1088 127,1089 127,1090 127,1091 127,1092 127,1093 126,1094 125,1094 126,1094 127,1095 126,1096 125,1096 126,1096 127,1097 127,1098 127,1099 127,1100 127,1101 126,1102 125,1102 124,1101 123,1101 122,1102 121,1101 122,1102 121,1103 120,1104 119,1103 119,1102 119,1101 119,1100 119,1099 119,1098 120,1097 121,1098 122,1097 123,1098 123,1099 123,1098 122,1097 123,1096 122,1097 121,1097 120,1097 119,1096 119,1095 119,1094 119,1093 119,1092 119,1091 120,1090 121,1091 121,1092 121,1091 121,1090 120,1090 119,1089 119,1088 119,1087 119,1086 119,1085 119,1084 119,1083 119,1082 119,1081 119,1080 119,1079 119,1078 119,1077 120,1076 121,1077 121,1078 121,1077 122,1076 123,1076 124,1076 123,1076 122,1076 121,1076 120,1076 119,1075 119,1074 119,1073 120,1072 121,1072 122,1072 123,1073 122,1074 121,1074 122,1074 123,1074 124,1074 123,1073 122,1072 121,1072 120,1072 119,1071 119,1070 120,1069 121,1069 122,1069 123,1070 123,1069 122,1069 121,1069 120,1069 119,1068 119,1067 119,1066 119,1065 118,1064 117,1064">
      <metadata tailDirection="" confidence="0.81" linkedToCharacter="" id="MomoyamaHaikagura_040_balloon_0" tailTip=""></metadata>
    </polygon>
    <polygon points="684,877 683,878 682,878 681,878 680,878 679,878 678,878 677,879 676,879 675,879 674,879 673,880 672,880 671,880 670,880 669,881 668,881 667,881 666,882 665,882 664,882 663,883 662,883 661,884 660,884 659,885 658,885 657,885 656,886 655,886 654,886 653,887 652,887 651,888 650,889 649,889 648,890 647,890 646,891 645,891 644,892 643,893 642,894 641,894 640,895 639,896 638,896 637,897 636,898 635,899 634,899 633,900 632,901 631,902 630,903 629,904 628,905 628,906 627,907 626,908 626,909 625,910 624,911 624,912 623,913 622,914 622,915 621,916 620,917 620,918 619,919 618,920 618,921 617,922 617,923 616,924 615,925 615,926 615,927 614,928 614,929 614,930 614,931 613,932 613,933 612,934 612,935 612,936 611,937 610,937 609,936 608,935 607,934 607,933 606,932 605,931 604,930 603,929 602,929 601,928 600,927 599,927 598,926 597,925 596,925 595,924 594,924 593,923 592,922 591,922 590,922 589,921 588,921 587,920 586,920 585,920 584,919 583,919 582,919 581,919 580,918 579,918 578,918 577,918 576,918 575,918 574,918 573,918 572,918 571,918 570,918 569,918 568,919 567,919 566,919 565,919 564,919 563,919 562,919 561,920 560,920 559,920 558,920 557,921 556,921 555,922 554,922 553,922 552,922 551,923 550,923 549,923 548,924 547,924 546,924 545,925 544,925 543,926 542,926 541,927 540,927 539,928 538,928 537,929 536,930 535,930 534,931 533,932 532,932 531,933 530,934 529,935 528,936 527,936 527,937 526,938 525,938 524,939 523,940 522,941 521,942 520,943 519,944 519,945 518,946 517,947 516,948 515,949 514,950 514,951 513,952 513,953 512,954 511,955 511,956 510,957 509,958 509,959 509,960 508,961 508,962 507,963 507,964 506,965 506,966 506,967 505,968 505,969 504,970 503,971 503,972 503,973 502,974 502,975 502,976 502,977 501,978 501,979 501,980 500,981 500,982 500,983 499,984 499,985 499,986 499,987 498,988 498,989 498,990 498,991 498,992 498,993 497,994 497,995 497,996 497,997 497,998 496,999 496,1000 496,1001 496,1002 495,1003 495,1004 495,1005 495,1006 495,1007 495,1008 495,1009 495,1010 494,1011 494,1012 494,1013 494,1014 494,1015 494,1016 494,1017 494,1018 493,1019 493,1020 493,1021 493,1022 493,1023 493,1024 493,1025 493,1026 493,1027 493,1028 493,1029 493,1030 493,1031 493,1032 493,1033 493,1034 493,1035 493,1036 493,1037 493,1038 493,1039 493,1040 493,1041 493,1042 493,1043 493,1044 493,1045 493,1046 493,1047 493,1048 493,1049 493,1050 493,1051 493,1052 493,1053 493,1054 492,1055 493,1056 493,1057 494,1058 494,1059 494,1060 494,1061 494,1062 494,1063 494,1064 495,1065 495,1066 495,1067 495,1068 495,1069 495,1070 495,1071 495,1072 495,1073 495,1074 495,1075 496,1076 496,1077 496,1078 496,1079 496,1080 497,1081 497,1082 497,1083 497,1084 498,1085 498,1086 498,1087 498,1088 499,1089 499,1090 499,1091 500,1092 500,1093 501,1094 501,1095 501,1096 502,1097 502,1098 503,1099 503,1100 504,1101 505,1102 505,1103 506,1104 506,1105 507,1106 507,1107 508,1108 509,1109 509,1110 510,1111 510,1112 511,1113 511,1114 512,1115 512,1116 513,1117 514,1118 514,1119 515,1120 516,1121 516,1122 517,1123 518,1124 519,1125 520,1126 521,1127 522,1128 523,1129 524,1130 525,1131 526,1132 527,1132 528,1133 529,1134 530,1135 531,1135 532,1136 533,1137 534,1137 535,1138 536,1139 537,1139 538,1140 539,1141 540,1141 541,1142 542,1142 543,1143 544,1143 545,1143 546,1144 547,1144 548,1145 549,1145 550,1145 551,1145 552,1146 553,1146 554,1146 555,1146 556,1147 557,1147 558,1147 559,1147 560,1147 561,1147 562,1148 563,1148 564,1148 565,1148 566,1148 567,1148 568,1148 569,1148 570,1148 571,1148 572,1148 573,1148 574,1148 575,1148 576,1148 577,1148 578,1148 579,1148 580,1147 581,1147 582,1147 583,1147 584,1147 585,1147 586,1146 587,1146 588,1146 589,1146 590,1145 591,1145 592,1145 593,1145 594,1144 595,1144 596,1144 597,1143 598,1143 599,1142 600,1142 601,1141 602,1140 603,1140 604,1139 605,1139 606,1138 607,1137 608,1136 609,1136 610,1135 611,1134 612,1133 613,1132 614,1131 615,1130 616,1129 617,1128 618,1127 619,1126 620,1125 621,1124 621,1123 622,1122 623,1121 623,1120 624,1119 625,1118 626,1117 626,1116 627,1115 628,1114 628,1113 629,1112 629,1111 629,1110 630,1109 631,1108 631,1107 632,1106 632,1105 633,1104 633,1103 634,1102 634,1101 634,1100 635,1099 635,1098 636,1097 637,1097 638,1098 638,1099 639,1099 640,1100 641,1101 642,1102 643,1102 644,1103 645,1104 646,1104 647,1105 648,1105 649,1106 650,1107 651,1107 652,1108 653,1109 654,1109 655,1110 656,1110 657,1111 658,1112 659,1112 660,1113 661,1114 662,1114 663,1114 664,1115 665,1115 666,1116 667,1116 668,1116 669,1117 670,1117 671,1117 672,1118 673,1118 674,1118 675,1118 676,1119 677,1119 678,1119 679,1120 680,1120 681,1120 682,1120 683,1120 684,1121 685,1121 686,1121 687,1121 688,1122 689,1122 690,1122 691,1122 692,1122 693,1122 694,1123 695,1123 696,1123 697,1123 698,1123 699,1123 700,1123 701,1123 702,1123 703,1123 704,1123 705,1123 706,1123 707,1123 708,1123 709,1123 710,1123 711,1123 712,1123 713,1122 714,1122 715,1122 716,1122 717,1122 718,1122 719,1122 720,1121 721,1121 722,1121 723,1120 724,1120 725,1120 726,1120 727,1120 728,1119 729,1119 730,1119 731,1118 732,1118 733,1118 734,1117 735,1117 736,1117 737,1116 738,1116 739,1115 740,1114 741,1114 742,1113 743,1113 744,1112 745,1111 746,1110 747,1110 748,1109 749,1108 750,1107 751,1106 752,1105 753,1104 754,1104 755,1103 756,1102 757,1101 758,1100 759,1099 760,1098 761,1097 761,1096 762,1095 763,1094 763,1093 764,1092 765,1091 766,1090 767,1089 767,1088 768,1087 768,1086 769,1085 769,1084 769,1083 769,1082 769,1081 769,1080 769,1079 769,1078 769,1077 769,1076 769,1075 769,1074 769,1073 769,1072 769,1071 769,1070 769,1069 769,1068 769,1067 769,1066 769,1065 769,1064 769,1063 769,1062 769,1061 769,1060 769,1059 769,1058 769,1057 769,1056 769,1055 769,1054 769,1053 769,1052 769,1051 769,1050 769,1049 769,1048 769,1047 769,1046 769,1045 769,1044 769,1043 769,1042 769,1041 769,1040 769,1039 769,1038 769,1037 769,1036 769,1035 769,1034 769,1033 769,1032 769,1031 769,1030 769,1029 769,1028 769,1027 769,1026 769,1025 769,1024 769,1023 769,1022 769,1021 769,1020 769,1019 769,1018 769,1017 769,1016 769,1015 769,1014 769,1013 769,1012 769,1011 769,1010 769,1009 769,1008 769,1007 769,1006 769,1005 769,1004 769,1003 769,1002 769,1001 769,1000 769,999 769,998 769,997 769,996 769,995 769,994 769,993 769,992 769,991 769,990 769,989 769,988 769,987 769,986 769,985 769,984 769,983 769,982 769,981 769,980 769,979 769,978 769,977 769,976 769,975 769,974 769,973 769,972 769,971 769,970 769,969 769,968 769,967 769,966 769,965 769,964 769,963 769,962 769,961 769,960 769,959 769,958 769,957 769,956 769,955 769,954 769,953 769,952 769,951 769,950 769,949 769,948 769,947 769,946 769,945 769,944 769,943 769,942 769,941 769,940 769,939 769,938 769,937 769,936 769,935 769,934 769,933 769,932 769,931 769,930 769,929 769,928 769,927 769,926 769,925 769,924 769,923 769,922 769,921 769,920 769,919 769,918 769,917 769,916 769,915 769,914 768,913 768,912 767,911 766,910 765,909 765,908 764,907 763,906 763,905 762,904 761,903 760,902 759,901 758,900 757,899 756,898 755,897 754,896 753,895 752,895 751,894 750,893 749,892 748,892 747,891 746,890 745,890 744,889 743,889 742,888 741,888 740,887 739,887 738,886 737,886 736,885 735,885 734,885 733,884 732,884 731,884 730,883 729,883 728,882 727,882 726,882 725,881 724,881 723,881 722,881 721,880 720,880 719,880 718,879 717,879 716,879 715,879 714,878 713,878 712,878 711,878 710,878 709,878 708,878 707,878 706,877 705,877 704,877 703,877 702,877 701,877 700,877 699,877 698,877 697,877 696,877 695,877 694,877 693,877 692,877 691,877 690,877 689,877 688,877 687,877 686,877 685,877 684,877">
      <metadata tailDirection="" confidence="0.92" linkedToCharacter="" id="MomoyamaHaikagura_040_balloon_1" tailTip=""></metadata>
    </polygon>
    <polygon points="197,444 196,445 195,446 195,447 194,448 193,449 192,449 191,449 190,450 189,451 188,450 187,451 188,452 187,453 186,453 186,454 187,455 186,456 185,457 184,458 183,459 183,460 182,461 183,460 184,460 185,460 186,461 187,462 187,463 186,464 185,465 184,466 183,465 182,464 181,463 180,462 180,463 179,464 180,463 181,464 182,465 183,465 184,466 183,467 182,468 182,469 181,470 181,471 180,472 179,471 179,470 179,469 178,468 178,469 177,470 176,471 176,472 175,473 174,474 175,475 174,476 174,477 173,478 172,479 171,480 171,481 170,482 169,483 169,484 169,485 168,486 167,487 167,488 167,489 166,490 166,491 165,492 165,493 164,494 164,495 163,496 163,497 163,498 162,499 162,500 162,501 161,502 162,503 163,503 164,504 165,505 165,506 166,506 167,507 168,508 168,509 167,510 167,511 166,512 165,512 164,511 165,512 165,513 164,514 163,515 162,516 162,517 162,518 162,519 161,520 162,521 161,522 160,523 160,524 160,525 160,526 160,527 159,528 159,529 159,530 159,531 160,530 161,529 162,530 163,529 164,530 165,531 166,530 167,530 168,530 169,530 170,529 171,530 172,530 173,531 173,530 173,529 172,528 173,527 172,526 172,525 172,524 172,523 172,522 172,521 173,520 173,519 173,518 173,517 174,516 173,515 174,514 175,513 176,514 176,515 176,516 176,517 176,518 176,519 175,520 175,521 175,522 176,522 177,523 178,524 178,525 179,525 180,526 181,527 182,528 182,529 181,530 180,531 181,530 182,529 183,529 184,530 185,531 184,530 183,529 183,528 184,527 184,526 185,525 186,525 187,526 188,527 189,528 189,529 188,530 189,529 190,530 191,530 192,530 191,529 192,528 193,528 192,527 193,526 193,525 193,524 193,523 192,522 193,521 192,520 192,519 193,518 193,517 193,516 192,515 193,514 192,513 191,512 192,511 193,510 192,510 191,511 190,511 189,510 188,509 187,508 188,507 189,506 190,505 191,505 191,504 192,503 193,502 193,501 193,500 193,499 193,498 193,497 194,496 193,495 194,494 193,493 194,492 194,491 194,490 194,489 193,488 194,487 194,486 194,485 194,484 195,483 194,482 195,481 194,482 193,482 192,481 191,480 190,479 191,478 192,477 193,476 194,476 195,477 196,477 195,476 194,475 194,474 195,473 196,472 197,472 197,471 196,471 195,470 195,469 194,468 193,467 194,466 195,465 196,465 197,465 197,464 197,463 197,462 197,461 197,460 198,459 198,458 198,457 198,456 198,455 198,454 197,453 198,452 197,452 196,453 195,453 196,454 195,455 195,456 195,457 194,458 194,459 194,460 194,461 193,462 193,463 193,464 192,465 192,466 192,467 191,468 190,467 190,466 190,465 190,464 191,463 191,462 191,461 191,460 192,459 192,458 192,457 192,456 193,455 193,454 193,453 193,452 194,451 193,450 193,449 194,448 195,447 196,446 197,447 196,446 196,445 197,444">
      <metadata tailDirection="" confidence="0.80" linkedToCharacter="" id="MomoyamaHaikagura_040_balloon_2" tailTip=""></metadata>
    </polygon>
    <polygon points="198,359 198,360 197,361 198,362 197,363 197,364 197,365 197,366 197,367 197,368 197,369 197,370 196,371 196,372 197,373 196,374 196,375 196,376 196,377 196,378 196,379 196,380 195,381 195,382 195,383 195,384 195,385 194,386 194,387 194,388 194,389 194,390 194,391 194,392 193,393 193,394 193,395 192,396 192,397 192,398 192,399 191,400 191,401 191,402 191,403 190,404 190,405 190,406 190,407 189,408 189,409 189,410 188,411 188,412 188,413 187,414 187,415 187,416 186,417 186,418 186,419 185,420 185,421 184,422 184,423 184,424 184,425 183,426 182,426 181,425 180,424 179,423 180,422 181,421 182,420 183,420 183,419 184,418 184,417 184,416 183,415 184,414 185,414 185,413 185,412 185,411 184,410 184,409 185,408 186,408 187,408 187,407 187,406 188,405 188,404 188,403 188,402 189,401 189,400 189,399 189,398 189,397 190,396 190,395 190,394 190,393 190,392 190,391 191,390 191,389 191,388 192,387 192,386 192,385 192,384 192,383 192,382 192,381 192,380 193,379 193,378 193,377 193,376 193,375 193,374 193,373 193,372 194,371 193,370 194,369 193,370 193,371 193,372 192,373 191,374 192,375 191,376 190,377 189,378 189,379 188,380 188,381 187,382 187,383 187,384 187,385 186,386 185,387 184,388 185,389 184,390 184,391 185,390 186,391 187,391 188,392 189,393 188,394 187,395 186,396 185,397 184,396 183,395 184,396 185,397 184,398 183,399 182,400 181,400 180,399 179,398 178,397 179,396 180,395 179,396 178,397 177,396 178,397 177,398 176,399 175,400 174,401 173,400 172,401 171,402 171,403 171,404 170,405 169,404 168,405 169,406 168,407 168,408 167,409 166,410 165,410 164,409 165,410 165,411 166,411 167,412 168,413 169,414 169,415 168,416 167,417 166,417 165,417 164,416 163,415 162,414 163,413 162,414 161,413 160,412 161,413 162,414 161,415 160,416 159,417 158,417 157,417 156,416 155,417 154,418 154,419 153,420 152,419 151,420 150,420 151,421 152,422 153,423 153,424 152,425 151,426 150,427 149,427 148,426 147,425 146,424 147,423 146,424 145,425 144,426 143,427 142,427 142,428 141,429 140,430 139,431 138,431 137,431 137,432 137,433 137,434 137,435 138,434 139,435 140,435 141,436 140,437 139,438 138,439 137,438 137,437 137,438 137,439 137,440 137,441 138,441 139,442 140,442 141,443 141,444 140,445 140,446 139,447 138,448 137,447 137,448 137,449 138,450 137,451 137,452 138,452 137,451 138,450 139,450 140,451 141,452 141,453 140,454 139,454 138,455 137,454 137,455 137,456 138,457 137,458 137,459 138,459 137,458 138,457 139,457 140,457 141,458 142,459 143,460 143,461 142,462 141,463 140,464 139,463 138,462 137,461 138,462 137,463 137,464 137,465 137,466 137,467 137,468 138,469 137,470 137,471 137,472 137,473 137,474 137,475 138,474 139,474 140,475 141,476 142,477 141,478 140,479 139,480 138,480 137,479 138,480 138,481 137,482 136,483 136,484 136,485 136,486 137,487 136,488 135,489 136,490 135,491 135,492 135,493 135,494 134,495 135,496 134,497 134,498 134,499 134,500 135,501 136,502 136,503 135,504 134,505 133,506 132,506 132,507 133,507 134,508 135,509 136,510 135,511 134,512 133,513 132,513 131,512 132,513 132,514 131,515 130,516 129,517 129,518 129,519 130,520 129,521 128,522 129,523 128,524 128,525 127,526 128,527 127,528 126,529 127,530 126,531 125,531 126,531 127,530 128,529 129,530 130,529 131,530 131,531 132,531 133,531 134,531 135,531 136,530 137,529 138,530 139,530 140,531 141,531 142,530 143,530 144,531 143,530 142,529 141,528 140,527 139,526 139,525 140,524 141,523 142,523 143,523 144,524 143,523 142,522 143,521 144,520 145,519 146,519 147,520 148,521 149,522 149,523 148,524 147,525 146,525 145,526 145,527 144,528 145,527 146,526 147,527 148,528 149,529 149,530 148,531 149,530 150,530 150,529 149,529 148,528 147,527 146,526 147,525 148,524 149,523 150,523 151,524 150,523 150,522 151,521 152,520 152,519 152,518 152,517 152,516 152,515 153,514 152,513 153,512 153,511 154,510 154,509 154,508 154,507 154,506 155,505 155,504 155,503 155,502 156,501 156,500 156,499 157,498 157,497 157,496 158,495 158,494 157,495 156,496 155,497 155,498 155,499 155,500 154,501 153,500 153,499 152,500 151,499 150,498 149,497 149,496 150,495 151,494 152,493 153,494 154,495 153,494 152,493 153,492 154,491 155,490 156,489 157,490 158,491 158,492 159,491 159,490 159,489 160,488 159,487 160,486 160,485 161,484 161,483 162,482 161,483 160,483 159,483 159,484 159,485 158,486 157,486 156,485 157,484 157,483 157,482 158,481 158,480 158,479 159,478 158,479 157,479 156,479 155,478 154,477 154,476 154,475 155,474 156,473 157,473 158,474 159,475 159,474 158,473 157,472 158,471 159,470 160,469 161,468 162,467 163,466 164,466 165,466 166,467 166,468 167,467 167,466 167,465 168,464 168,463 169,462 169,461 169,460 170,459 171,458 171,457 171,456 172,455 173,454 174,453 173,452 173,451 174,450 175,450 175,449 174,448 175,447 176,447 177,446 177,445 176,444 177,443 178,442 178,441 179,440 179,439 180,438 180,437 180,436 181,435 182,434 182,433 182,432 182,431 183,430 184,429 183,428 184,427 184,426 184,425 185,424 185,423 186,422 186,421 186,420 186,419 187,418 187,417 187,416 187,415 188,414 188,413 188,412 189,411 189,410 190,409 190,408 190,407 191,406 191,405 191,404 191,403 191,402 192,401 192,400 192,399 192,398 193,397 193,396 193,395 194,394 194,393 194,392 194,391 194,390 194,389 195,388 195,387 195,386 195,385 195,384 196,383 196,382 196,381 196,380 196,379 196,378 196,377 196,376 197,375 197,374 197,373 197,372 197,371 197,370 197,369 197,368 198,367 197,366 198,365 198,364 197,363 198,362 197,361 198,360 198,359">
      <metadata tailDirection="" confidence="0.83" linkedToCharacter="" id="MomoyamaHaikagura_040_balloon_3" tailTip=""></metadata>
    </polygon>
    <polygon points="208,279 207,280 206,280 205,280 204,280 203,280 204,280 205,280 206,281 207,281 208,282 209,283 210,284 211,284 212,285 213,286 214,287 215,288 216,288 217,289 218,290 219,291 220,292 221,292 222,293 223,294 224,295 223,296 222,296 221,295 220,295 219,294 218,293 217,292 216,292 215,291 214,290 213,289 212,288 211,287 210,287 209,286 208,285 207,284 206,284 205,283 204,282 203,282 202,282 201,282 200,282 199,282 198,282 197,282 196,282 195,283 195,284 196,285 196,286 196,287 196,288 196,289 197,289 198,290 199,291 200,291 201,292 202,293 203,294 204,294 205,295 206,296 207,297 208,297 209,298 210,298 211,299 212,300 213,301 214,302 215,303 216,304 216,305 217,306 218,307 219,308 220,309 221,310 221,311 222,312 223,313 224,314 225,315 225,316 226,317 227,318 228,319 229,320 230,321 230,322 231,323 232,323 233,324 233,325 232,326 231,326 230,325 229,324 228,323 227,322 226,321 225,320 225,319 224,318 223,317 222,316 221,315 220,314 219,313 219,312 218,311 217,310 216,309 215,308 215,307 214,306 213,305 213,304 212,303 211,302 210,301 209,301 208,300 207,299 206,299 205,298 204,298 203,297 202,296 201,295 200,295 199,294 198,293 197,293 196,292 196,293 196,294 196,295 196,296 196,297 196,298 196,299 196,300 196,301 196,302 196,303 196,304 196,305 197,306 198,307 199,307 200,308 201,309 202,310 203,310 204,311 205,312 204,313 205,313 206,314 207,315 208,316 209,317 209,318 210,319 211,320 212,321 213,322 214,323 214,324 215,325 216,326 217,327 218,328 219,329 220,330 221,331 222,332 222,333 221,334 220,333 219,332 218,331 217,330 216,329 215,328 214,327 213,326 212,325 211,324 210,323 209,322 208,321 208,320 207,319 206,318 205,317 204,316 204,315 203,316 202,315 201,315 200,315 199,314 198,314 197,314 196,313 196,314 196,315 196,316 196,317 196,318 196,319 195,320 196,321 195,322 195,323 195,324 195,325 196,325 197,326 198,326 199,327 200,328 201,329 202,330 203,331 204,332 205,333 205,334 206,335 206,336 207,337 208,338 208,339 209,340 209,341 209,342 209,343 209,344 209,345 209,346 209,347 209,348 210,349 209,350 209,351 209,352 209,353 210,354 209,355 210,356 209,357 209,358 209,357 210,356 211,355 212,355 213,356 212,357 212,358 211,359 211,360 211,361 210,362 210,363 210,364 209,365 209,366 209,367 209,368 208,369 208,370 208,371 207,372 207,373 207,374 206,375 206,376 206,377 205,378 205,379 205,380 205,381 204,382 204,383 204,384 203,385 203,386 203,387 203,388 202,389 202,390 202,391 201,392 201,393 201,394 201,395 200,396 200,397 200,398 200,399 199,400 199,401 199,402 199,403 199,404 198,405 198,406 198,407 198,408 197,409 197,410 197,411 197,412 196,413 197,414 196,415 196,416 196,417 196,418 195,419 195,420 195,421 195,422 195,423 196,424 196,425 196,426 196,427 196,428 197,429 197,430 197,431 197,432 197,433 198,434 198,435 198,436 198,437 198,438 199,439 199,440 199,441 199,442 199,443 199,444 200,445 200,446 200,447 200,448 200,449 200,450 200,451 200,452 200,453 200,454 200,455 200,456 200,457 200,458 200,459 200,460 200,461 200,462 200,463 200,464 200,465 200,466 200,467 200,468 200,469 200,470 200,471 199,472 199,473 199,474 199,475 199,476 199,477 199,478 199,479 199,480 199,481 199,482 199,483 200,484 200,485 200,486 200,487 200,488 200,489 200,490 200,491 200,492 200,493 200,494 200,495 200,496 201,497 201,498 201,499 201,500 201,501 201,502 201,503 201,504 201,505 201,506 201,507 200,508 200,509 200,510 199,511 198,511 198,512 199,512 200,513 200,514 200,515 200,516 200,517 200,518 200,519 200,520 201,521 201,522 201,523 201,524 202,525 202,526 203,527 204,528 205,529 205,530 206,530 207,530 208,530 209,530 210,530 211,530 212,530 213,530 214,530 215,530 216,530 217,530 218,530 219,530 220,530 221,530 222,530 223,530 224,530 225,530 226,530 227,530 228,530 229,530 230,530 231,530 232,530 233,530 234,530 235,530 236,530 237,530 238,530 239,530 240,530 241,530 242,530 243,530 244,530 245,530 246,530 247,530 248,530 249,530 250,530 251,530 252,530 253,530 254,530 255,530 256,530 257,530 258,530 259,530 260,530 261,530 262,530 262,529 262,528 262,527 262,526 262,525 262,524 262,523 262,522 262,521 262,520 262,519 262,518 262,517 262,516 262,515 262,514 262,513 262,512 262,511 262,510 262,509 262,508 262,507 262,506 262,505 262,504 262,503 262,502 262,501 262,500 262,499 262,498 262,497 262,496 262,495 262,494 262,493 262,492 262,491 262,490 262,489 262,488 262,487 262,486 262,485 262,484 262,483 262,482 262,481 262,480 262,479 262,478 262,477 262,476 262,475 262,474 262,473 262,472 262,471 262,470 262,469 262,468 262,467 262,466 262,465 262,464 262,463 262,462 262,461 262,460 262,459 262,458 262,457 262,456 262,455 262,454 262,453 262,452 262,451 262,450 262,449 262,448 262,447 262,446 262,445 262,444 262,443 262,442 262,441 262,440 262,439 262,438 262,437 262,436 262,435 262,434 262,433 262,432 262,431 262,430 262,429 262,428 262,427 262,426 262,425 262,424 262,423 262,422 262,421 262,420 262,419 262,418 262,417 262,416 262,415 262,414 262,413 262,412 262,411 262,410 262,409 262,408 262,407 262,406 262,405 262,404 262,403 262,402 262,401 262,400 262,399 262,398 262,397 262,396 262,395 262,394 262,393 262,392 262,391 262,390 262,389 262,388 262,387 262,386 262,385 262,384 262,383 262,382 262,381 262,380 262,379 262,378 262,377 262,376 262,375 262,374 262,373 262,372 262,371 262,370 262,369 262,368 262,367 262,366 262,365 262,364 262,363 262,362 262,361 262,360 262,359 262,358 262,357 262,356 262,355 262,354 262,353 262,352 262,351 262,350 262,349 262,348 262,347 262,346 262,345 262,344 261,344 260,343 259,343 258,342 257,342 256,342 255,342 254,342 253,341 252,341 251,341 250,341 249,340 248,340 247,340 246,340 245,339 244,339 243,339 242,338 241,338 240,338 239,338 238,338 237,337 236,337 235,337 234,338 233,338 232,339 231,340 230,341 229,342 228,342 227,343 226,344 225,345 224,346 223,347 222,348 221,349 220,350 219,351 218,352 217,352 216,351 217,350 218,349 219,348 220,347 221,346 222,345 223,344 224,343 225,342 226,341 227,340 228,340 229,339 230,338 231,337 232,336 233,335 234,335 235,334 236,334 237,334 238,334 239,334 240,334 241,334 242,335 243,335 244,335 245,335 246,336 247,336 248,336 249,336 250,337 251,337 251,336 250,335 250,334 250,333 250,332 250,331 250,330 250,329 250,328 251,327 251,326 250,325 250,324 249,323 249,322 248,321 248,320 248,319 247,318 247,317 247,316 246,315 246,314 245,313 245,312 244,311 244,310 244,309 243,308 243,307 242,306 242,305 242,304 241,303 241,302 241,301 241,300 240,299 240,298 240,297 239,296 238,295 237,294 236,293 235,292 234,292 233,291 232,291 231,291 230,290 229,290 228,289 227,288 226,288 225,287 224,286 223,286 222,285 221,284 220,284 219,283 218,282 217,282 216,281 215,280 214,280 213,279 212,279 211,279 210,279 209,279 208,279">
      <metadata tailDirection="" confidence="0.91" linkedToCharacter="" id="MomoyamaHaikagura_040_balloon_4" tailTip=""></metadata>
    </polygon>
    <polygon points="746,256 745,257 744,257 743,257 742,257 741,257 740,258 739,258 738,258 737,259 736,259 735,259 734,259 733,260 732,260 731,260 730,261 729,261 728,262 727,263 726,263 725,264 724,265 723,265 722,266 721,267 720,268 719,269 718,270 717,271 716,272 715,273 714,273 714,274 713,275 712,276 711,277 710,278 709,279 709,280 708,281 708,282 707,283 707,284 706,285 706,286 705,287 705,288 704,289 704,290 704,291 703,292 703,293 703,294 702,295 701,296 700,297 699,298 698,299 697,300 696,301 696,302 695,303 694,304 694,305 693,306 692,307 692,308 691,309 691,310 690,311 690,312 689,313 689,314 689,315 688,316 688,317 687,318 687,319 686,320 686,321 686,322 685,323 685,324 685,325 684,326 684,327 684,328 684,329 683,330 683,331 682,332 682,333 682,334 681,335 681,336 681,337 681,338 681,339 680,340 680,341 680,342 680,343 680,344 679,345 679,346 679,347 679,348 679,349 679,350 679,351 678,352 678,353 678,354 678,355 678,356 678,357 678,358 678,359 678,360 678,361 677,362 677,363 677,364 677,365 677,366 677,367 677,368 677,369 677,370 677,371 677,372 677,373 677,374 677,375 677,376 677,377 677,378 677,379 677,380 677,381 677,382 677,383 678,384 678,385 678,386 678,387 678,388 678,389 678,390 678,391 678,392 679,393 679,394 679,395 679,396 680,397 680,398 680,399 681,400 681,401 681,402 681,403 682,404 682,405 683,406 683,407 683,408 684,409 684,410 685,411 685,412 686,413 686,414 687,415 688,416 688,417 687,418 688,419 688,420 687,421 687,422 687,423 687,424 688,425 688,426 688,427 689,428 689,429 689,430 689,431 689,432 690,433 690,434 690,435 691,436 691,437 692,438 692,439 692,440 693,441 693,442 694,443 695,444 695,445 696,446 696,447 697,448 697,449 698,450 699,451 700,452 700,453 701,454 702,455 702,456 703,457 704,458 705,459 706,460 707,461 708,462 709,463 710,464 711,464 712,465 713,466 714,466 715,467 716,467 717,468 718,469 719,469 720,470 721,470 722,471 723,471 724,472 725,472 726,472 727,472 728,472 729,472 730,473 731,473 732,473 733,473 734,473 735,473 736,473 737,474 738,473 739,473 740,473 741,473 742,474 743,473 744,473 745,473 746,473 747,473 748,473 749,473 750,473 751,473 752,472 753,472 754,472 755,472 756,471 757,471 758,470 759,470 760,470 761,469 762,469 763,468 764,468 765,467 766,466 767,466 768,465 769,464 770,464 771,463 772,462 773,461 774,460 775,459 776,458 777,457 778,456 779,455 780,454 781,453 782,452 782,451 783,450 784,449 785,448 786,447 786,446 787,445 787,444 788,443 789,442 789,441 790,440 790,439 791,438 791,437 791,436 792,435 792,434 792,433 793,432 793,431 793,430 793,429 793,428 794,427 793,426 793,425 793,424 793,423 793,422 793,421 793,420 793,419 793,418 794,417 794,416 794,415 795,414 795,413 795,412 795,411 796,410 796,409 797,408 797,407 797,406 797,405 797,404 798,403 798,402 798,401 798,400 799,399 799,398 799,397 799,396 799,395 800,394 800,393 800,392 800,391 800,390 800,389 800,388 801,387 801,386 801,385 801,384 801,383 801,382 801,381 802,380 802,379 802,378 802,377 802,376 802,375 802,374 802,373 802,372 802,371 802,370 802,369 802,368 802,367 803,366 803,365 802,364 802,363 802,362 802,361 802,360 802,359 802,358 802,357 802,356 802,355 802,354 802,353 802,352 802,351 801,350 802,349 801,348 801,347 801,346 801,345 801,344 801,343 801,342 801,341 800,340 800,339 800,338 799,337 799,336 799,335 799,334 798,333 798,332 798,331 798,330 797,329 797,328 797,327 797,326 796,325 796,324 796,323 795,322 795,321 794,320 794,319 793,318 793,317 792,316 791,315 791,314 791,313 791,312 791,311 791,310 791,309 791,308 791,307 791,306 791,305 791,304 790,303 790,302 790,301 790,300 790,299 790,298 789,297 789,296 789,295 789,294 789,293 788,292 788,291 787,290 787,289 786,288 786,287 786,286 785,285 785,284 784,283 784,282 783,281 783,280 782,279 782,278 781,277 781,276 780,275 779,274 779,273 778,272 777,271 776,270 775,269 774,268 774,267 773,267 772,266 772,265 771,264 770,264 769,263 768,262 767,261 766,261 765,260 764,260 763,259 762,259 761,258 760,258 759,258 758,257 757,257 756,257 755,257 754,257 753,257 752,257 751,257 750,257 749,256 748,256 747,256 746,256">
      <metadata tailDirection="" confidence="0.90" linkedToCharacter="" id="MomoyamaHaikagura_040_balloon_5" tailTip=""></metadata>
    </polygon>
    <polygon points="321,247 320,248 319,248 318,248 317,248 316,248 315,248 314,249 313,249 312,250 311,250 310,250 309,251 308,251 307,252 306,253 305,253 304,254 303,255 302,255 301,256 300,257 299,258 298,259 297,260 296,261 295,262 295,263 294,264 293,265 293,266 292,267 292,268 291,269 291,270 291,271 290,272 289,272 288,272 287,272 286,272 285,272 284,273 283,273 282,274 281,275 280,275 279,276 278,277 278,278 277,279 276,280 275,281 274,282 274,283 273,284 272,285 272,286 271,287 271,288 270,289 269,290 269,291 269,292 268,293 268,294 268,295 267,296 267,297 267,298 267,299 267,300 267,301 267,302 267,303 267,304 266,305 266,306 266,307 266,308 266,309 266,310 266,311 266,312 266,313 266,314 266,315 266,316 266,317 266,318 266,319 266,320 266,321 266,322 266,323 266,324 266,325 266,326 266,327 266,328 266,329 266,330 266,331 266,332 266,333 266,334 266,335 266,336 266,337 266,338 266,339 266,340 266,341 266,342 266,343 266,344 266,345 266,346 266,347 266,348 266,349 266,350 266,351 266,352 266,353 266,354 266,355 266,356 266,357 266,358 266,359 266,360 266,361 266,362 266,363 266,364 266,365 266,366 266,367 266,368 266,369 266,370 266,371 266,372 266,373 266,374 266,375 266,376 266,377 266,378 266,379 266,380 266,381 266,382 266,383 266,384 266,385 266,386 266,387 266,388 266,389 266,390 266,391 266,392 266,393 266,394 266,395 266,396 266,397 266,398 266,399 266,400 266,401 266,402 267,403 267,404 267,405 267,406 267,407 268,408 268,409 268,410 268,411 269,412 269,413 269,414 270,415 270,416 271,417 271,418 271,419 272,420 272,421 273,422 273,423 274,424 275,425 275,426 276,427 277,428 278,429 279,429 280,430 281,431 282,432 283,432 284,433 285,434 286,434 287,435 288,436 288,437 288,438 288,439 288,440 289,441 290,442 291,443 292,444 293,445 294,446 295,447 296,448 297,448 298,449 299,449 300,450 301,451 302,451 303,451 304,452 305,452 306,453 307,453 308,454 309,454 310,454 311,455 312,455 313,455 314,456 315,456 316,456 317,456 318,456 319,456 320,456 321,457 322,457 323,457 324,457 325,457 326,456 327,456 328,456 329,456 330,456 331,456 332,456 333,455 334,455 335,455 336,454 337,454 338,454 339,453 340,453 341,452 342,452 343,451 344,451 345,450 346,449 347,448 348,448 349,447 350,446 351,446 352,445 353,444 354,443 354,442 354,441 354,440 355,439 356,438 357,437 357,436 358,435 359,434 359,433 360,432 361,431 361,430 362,429 362,428 363,427 364,426 364,425 365,424 366,423 366,422 367,421 368,420 368,419 369,418 370,417 370,416 370,415 371,414 371,413 372,412 372,411 372,410 373,409 373,408 374,407 374,406 374,405 375,404 375,403 375,402 376,401 376,400 376,399 376,398 377,397 377,396 377,395 377,394 377,393 377,392 377,391 378,390 378,389 378,388 378,387 378,386 378,385 378,384 378,383 378,382 379,381 379,380 379,379 380,378 380,377 380,376 381,375 381,374 381,373 381,372 381,371 382,370 382,369 382,368 382,367 382,366 382,365 382,364 382,363 382,362 382,361 383,360 383,359 383,358 383,357 383,356 383,355 383,354 383,353 383,352 383,351 383,350 383,349 383,348 383,347 383,346 383,345 383,344 383,343 383,342 383,341 383,340 382,339 382,338 382,337 382,336 382,335 382,334 382,333 382,332 382,331 382,330 382,329 382,328 381,327 381,326 381,325 381,324 380,323 380,322 380,321 379,320 379,319 379,318 379,317 378,316 378,315 378,314 377,313 377,312 376,311 376,310 376,309 375,308 375,307 374,306 374,305 373,304 372,303 371,302 371,301 370,300 369,299 368,298 368,297 369,296 369,295 369,294 369,293 369,292 368,291 368,290 368,289 368,288 368,287 368,286 368,285 367,284 367,283 367,282 366,281 366,280 366,279 365,278 365,277 364,276 364,275 363,274 363,273 362,272 361,271 360,270 360,269 359,268 358,267 357,266 356,265 356,264 355,263 354,262 353,261 352,260 351,259 350,258 349,257 348,256 347,255 346,254 345,254 344,253 343,252 342,252 341,251 340,251 339,250 338,250 337,249 336,249 335,249 334,248 333,248 332,248 331,248 330,248 329,247 328,247 327,247 326,247 325,247 324,247 323,247 322,247 321,247">
      <metadata tailDirection="" confidence="0.92" linkedToCharacter="" id="MomoyamaHaikagura_040_balloon_6" tailTip=""></metadata>
    </polygon>
    <polygon points="226,79 225,80 224,80 223,81 222,81 221,82 220,83 219,84 218,85 217,86 217,87 216,88 216,89 215,90 214,91 214,92 214,93 213,94 212,95 212,96 211,97 211,98 211,99 210,100 210,101 210,102 210,103 210,104 209,105 209,106 209,107 209,108 209,109 208,110 208,111 208,112 208,113 208,114 208,115 208,116 208,117 207,118 207,119 207,120 207,121 207,122 207,123 207,124 207,125 207,126 207,127 207,128 207,129 207,130 207,131 207,132 207,133 207,134 207,135 207,136 207,137 207,138 208,139 208,140 208,141 208,142 208,143 209,144 209,145 209,146 209,147 209,148 210,149 210,150 211,151 211,152 212,153 212,154 212,155 213,156 213,157 214,158 215,159 215,160 216,161 217,162 218,163 219,164 220,165 221,166 222,167 223,168 224,168 225,168 226,169 227,169 228,169 229,169 230,169 231,169 232,169 233,169 234,169 235,168 236,168 237,167 237,166 238,165 239,165 240,164 241,163 242,162 242,161 243,160 244,159 244,158 245,157 245,156 246,155 246,154 247,153 247,152 247,151 247,150 248,149 248,148 248,147 248,146 249,145 249,144 249,143 249,142 249,141 249,140 250,139 250,138 250,137 250,136 250,135 250,134 250,133 250,132 251,131 251,130 251,129 251,128 251,127 251,126 251,125 251,124 251,123 251,122 251,121 251,120 251,119 251,118 251,117 251,116 250,115 250,114 250,113 250,112 250,111 250,110 249,109 249,108 249,107 249,106 248,105 248,104 248,103 248,102 247,101 247,100 247,99 247,98 246,97 246,96 246,95 245,94 245,93 244,92 244,91 243,90 243,89 242,88 241,87 241,86 240,85 239,84 238,83 237,82 236,81 235,81 234,80 233,80 232,80 231,79 230,79 229,79 228,79 227,79 226,79">
      <metadata tailDirection="" confidence="0.99" linkedToCharacter="" id="MomoyamaHaikagura_040_balloon_7" tailTip=""></metadata>
    </polygon>
  </svg>
</svg>
