<?xml version="1.0" encoding="UTF-8" standalone="no"?>
<svg width="827" xmlns="http://www.w3.org/2000/svg" version="1.0" height="1170">
  <title>MomoyamaHaikagura_024</title>
  <svg contentScriptType="text/ecmascript" zoomAndPan="magnify" contentStyleType="text/css" class="Page" preserveAspectRatio="xMidYMid meet" version="1.0">
    <image xmlns:xlink="http://www.w3.org/1999/xlink" x="0" y="0" width="827" height="1170" xlink:href="./../../dataset_Manga109/MomoyamaHaikagura/MomoyamaHaikagura_024.jpg" xlink:type="simple" xlink:actuate="onLoad" preserveAspectRatio="xMidYMid meet" xlink:show="embed"/>
  </svg>
  <style type="text/css" xml:space="preserve">
        * { stroke-linejoin: round; }
        .Unclassified   { fill: orange; stroke: none;   opacity: 1.0; visibility: hidden; }
        .Noise          { fill: pink;   stroke: none;   opacity: 0.2; visibility: hidden; }
        .Panel          { fill: none;   stroke: red;    stroke-width:3; opacity: 0.5; visibility: visible; image-rendering: optimizeSpeed; }
        .Line           { fill: green;  stroke: none;   opacity: 0.5; visibility: visible; image-rendering: optimizeSpeed; }
        .TextArea       { fill: grey;   stroke: none;   opacity: 0.2; visibility: visible; image-rendering: optimizeSpeed; }
        .Balloon        { fill: cyan;   stroke: none;   opacity: 0.5; visibility: visible; image-rendering: optimizeSpeed; }
        .Letter         { fill: blue;   stroke: none;   opacity: 0.2; visibility: hidden; }
        .Object, .Character, .Face  { fill: yellow; stroke: none;   opacity: 0.5; visibility: visible; image-rendering: optimizeSpeed; }
        .Page           { fill: white;  stroke: none;    opacity: 0.5; visibility: visible; }
        .linkSBSC { fill: blue; stroke: none; opacity: 1.0; visibility: visible; }
        polygon:hover { opacity:1.0; stroke:red; }
</style>
  <svg xmlns="http://www.w3.org/2000/svg" contentScriptType="text/ecmascript" zoomAndPan="magnify" contentStyleType="text/css" class="Balloon" preserveAspectRatio="xMidYMid meet" version="1.0">
    <polygon points="467,573 466,574 465,574 464,574 463,574 462,574 461,574 460,574 459,574 458,574 457,575 456,575 455,576 454,576 453,577 452,578 451,578 450,579 449,579 448,580 447,581 446,582 445,583 444,584 443,584 443,585 442,586 441,586 441,587 440,588 439,588 439,589 438,590 437,591 436,592 436,593 435,594 434,595 434,596 433,597 433,598 432,599 432,600 432,601 431,602 431,603 430,604 430,605 429,606 429,607 428,608 428,609 427,610 427,611 427,612 427,613 426,614 426,615 425,616 425,617 425,618 424,619 424,620 423,621 423,622 423,623 422,624 422,625 422,626 422,627 421,628 421,629 421,630 420,631 420,632 420,633 420,634 419,635 419,636 419,637 419,638 418,639 418,640 418,641 418,642 418,643 417,644 417,645 417,646 417,647 417,648 417,649 417,650 416,651 416,652 416,653 416,654 416,655 416,656 415,657 414,657 413,656 412,655 411,654 410,653 409,653 408,652 407,651 406,651 405,650 404,650 403,649 402,649 401,648 400,647 399,647 398,647 397,646 396,646 395,645 394,645 393,644 392,644 391,643 390,643 389,643 388,642 387,642 386,642 385,641 384,641 383,640 382,640 381,639 380,639 379,639 378,639 377,638 376,638 375,638 374,637 373,637 372,637 371,637 370,637 369,637 368,637 367,636 366,636 365,636 364,636 363,636 362,636 361,636 360,635 359,635 358,635 357,635 356,635 355,635 354,635 353,635 352,635 351,635 350,634 349,634 348,634 347,635 346,635 345,635 344,635 343,635 342,635 341,635 340,635 339,635 338,635 337,635 336,636 335,636 334,636 333,636 332,636 331,636 330,637 329,637 328,637 327,637 326,638 325,638 324,638 323,638 322,639 321,639 320,639 319,639 318,640 317,640 316,640 315,641 314,641 313,642 312,642 311,642 310,643 309,643 308,643 307,643 306,644 305,644 304,645 303,645 302,645 301,646 300,646 299,646 298,647 297,647 296,648 295,648 294,649 293,649 292,650 291,650 290,651 289,652 288,652 287,653 286,654 285,655 284,655 283,656 282,657 281,657 280,658 279,659 278,660 277,661 276,661 275,662 274,663 273,664 272,665 271,666 270,667 269,668 268,669 267,670 266,671 266,672 265,673 264,674 263,675 263,676 262,677 261,678 261,679 260,680 259,681 259,682 258,683 258,684 257,685 256,686 256,687 256,688 255,689 254,690 254,691 253,692 253,693 252,694 252,695 251,696 251,697 250,698 250,699 249,700 249,701 248,702 248,703 248,704 247,705 247,706 247,707 246,708 246,709 246,710 246,711 245,712 245,713 245,714 244,715 244,716 244,717 243,718 243,719 243,720 242,721 242,722 242,723 242,724 241,725 241,726 241,727 241,728 241,729 241,730 240,731 240,732 240,733 240,734 240,735 240,736 239,737 239,738 239,739 239,740 239,741 239,742 239,743 239,744 239,745 238,746 238,747 238,748 238,749 238,750 238,751 238,752 238,753 238,754 238,755 238,756 238,757 238,758 238,759 238,760 238,761 238,762 238,763 238,764 238,765 238,766 238,767 238,768 238,769 238,770 238,771 238,772 238,773 238,774 238,775 238,776 238,777 238,778 238,779 238,780 239,781 239,782 239,783 239,784 239,785 239,786 240,787 240,788 240,789 240,790 240,791 240,792 241,793 241,794 241,795 241,796 241,797 242,798 242,799 242,800 242,801 243,802 243,803 243,804 244,805 244,806 244,807 245,808 245,809 245,810 246,811 246,812 247,813 247,814 247,815 248,816 248,817 248,818 249,819 249,820 250,821 250,822 250,823 251,824 252,825 252,826 251,827 251,828 251,829 252,830 252,831 252,832 252,833 252,834 252,835 252,836 252,837 252,838 252,839 253,840 252,841 253,842 252,843 251,843 250,842 250,841 250,840 250,839 250,838 249,837 249,836 249,835 249,834 249,833 249,834 249,835 249,836 249,837 249,838 249,839 249,840 249,841 250,842 250,843 250,844 250,845 250,846 250,847 250,848 250,849 250,850 251,851 251,852 252,852 253,852 254,852 255,852 256,852 257,852 258,852 259,852 260,852 261,852 262,852 263,852 264,852 265,852 266,852 267,852 268,852 269,852 270,852 269,851 268,850 267,849 266,848 266,847 265,846 264,845 263,844 262,843 261,842 260,841 259,840 259,839 258,838 257,837 256,836 256,835 255,834 254,833 254,832 253,831 253,830 252,829 251,828 251,827 252,826 253,827 254,828 255,829 256,830 256,831 257,832 258,833 258,834 259,835 260,836 261,837 261,838 262,839 263,840 264,841 265,842 265,843 266,844 267,845 268,846 269,847 270,848 271,849 272,850 273,851 273,852 274,853 275,854 276,855 277,855 278,856 279,857 280,858 281,858 282,859 283,860 284,861 285,861 286,862 287,862 288,863 289,863 290,864 291,865 292,865 293,866 294,866 295,867 296,868 297,868 298,869 299,869 300,870 301,870 302,871 303,871 304,872 305,872 306,872 307,873 308,873 309,874 310,874 311,874 312,874 313,875 314,875 315,875 316,876 317,876 318,876 319,877 320,877 321,878 322,878 323,878 324,878 325,878 326,879 327,879 328,879 329,879 330,880 331,880 332,880 333,880 334,880 335,880 336,881 337,881 338,881 339,881 340,882 341,882 342,882 343,882 344,882 345,882 346,882 347,882 348,882 349,882 350,882 351,882 352,882 353,882 354,882 355,882 356,881 357,882 358,882 359,882 360,881 361,881 362,881 363,881 364,881 365,881 366,881 367,881 368,881 369,881 370,880 371,880 372,880 373,880 374,880 375,880 376,880 377,879 378,879 379,879 380,878 381,878 382,878 383,878 384,877 385,877 386,877 387,877 388,876 389,876 390,876 391,875 392,875 393,875 394,874 395,874 396,873 397,873 398,872 399,872 400,871 401,871 402,870 403,870 404,869 405,869 406,868 407,867 408,867 409,866 410,865 411,864 412,864 413,863 414,862 415,861 416,861 417,860 418,859 419,858 420,857 421,856 422,855 423,854 424,853 425,852 426,851 427,851 427,850 428,849 429,848 430,847 431,846 431,845 432,844 433,843 433,842 434,841 435,840 435,839 436,838 437,837 437,836 438,835 438,834 439,833 439,832 440,831 440,830 441,829 441,828 442,827 442,826 443,825 443,824 443,823 442,822 442,821 441,820 440,819 440,818 440,817 441,816 442,817 443,818 444,819 444,820 445,821 446,822 447,823 448,824 449,824 450,825 451,826 452,826 453,827 454,827 455,828 456,828 457,829 458,829 459,829 460,829 461,830 462,830 463,830 464,830 465,830 466,830 467,830 468,830 469,830 470,830 471,830 472,830 473,830 474,830 475,830 476,830 477,830 478,830 479,829 480,828 481,828 482,828 483,827 484,827 485,827 486,826 487,826 488,825 489,824 490,823 491,823 492,822 493,821 493,820 494,819 495,818 496,817 497,816 498,815 498,814 499,813 500,812 500,811 501,810 502,809 502,808 503,807 504,806 504,805 505,804 505,803 506,802 506,801 507,800 507,799 507,798 508,797 508,796 509,795 509,794 509,793 509,792 510,791 510,790 510,789 510,788 511,787 511,786 511,785 511,784 512,783 512,782 512,781 512,780 513,779 513,778 513,777 513,776 513,775 514,774 514,773 514,772 514,771 515,770 515,769 515,768 515,767 515,766 515,765 515,764 516,763 516,762 516,761 516,760 516,759 517,758 517,757 517,756 517,755 517,754 517,753 517,752 517,751 517,750 518,749 518,748 518,747 518,746 518,745 518,744 518,743 518,742 518,741 519,740 519,739 519,738 519,737 519,736 519,735 519,734 519,733 519,732 519,731 520,730 520,729 520,728 520,727 520,726 520,725 520,724 520,723 520,722 520,721 520,720 521,719 521,718 521,717 521,716 521,715 521,714 521,713 521,712 521,711 521,710 521,709 521,708 521,707 521,706 521,705 521,704 521,703 521,702 521,701 521,700 521,699 521,698 521,697 521,696 521,695 521,694 521,693 521,692 521,691 521,690 521,689 521,688 520,687 520,686 520,685 520,684 520,683 520,682 520,681 520,680 520,679 520,678 520,677 520,676 520,675 520,674 520,673 520,672 520,671 520,670 520,669 520,668 520,667 520,666 520,665 520,664 520,663 520,662 519,661 519,660 519,659 519,658 519,657 519,656 519,655 519,654 519,653 519,652 518,651 518,650 518,649 518,648 518,647 518,646 518,645 518,644 517,643 517,642 517,641 517,640 517,639 516,638 516,637 516,636 516,635 515,634 515,633 515,632 515,631 514,630 514,629 514,628 514,627 513,626 513,625 513,624 512,623 512,622 512,621 511,620 511,619 511,618 511,617 510,616 510,615 510,614 509,613 509,612 509,611 508,610 508,609 508,608 507,607 507,606 506,605 506,604 505,603 505,602 504,601 504,600 503,599 502,598 501,597 501,596 501,595 500,594 499,593 499,592 498,591 497,590 496,589 496,588 495,587 494,586 493,585 492,584 491,583 490,582 489,581 488,581 487,580 486,579 485,579 484,578 483,578 482,577 481,577 480,576 479,576 478,575 477,575 476,575 475,574 474,574 473,574 472,574 471,574 470,574 469,573 468,573 467,573">
      <metadata tailDirection="" confidence="0.86" linkedToCharacter="" id="MomoyamaHaikagura_024_balloon_0" tailTip=""></metadata>
    </polygon>
    <polygon points="531,159 530,160 529,160 528,161 527,161 526,162 525,163 524,164 523,164 522,165 521,166 520,167 519,167 518,168 517,169 516,169 515,170 514,170 513,170 512,171 511,172 511,173 510,174 509,175 508,176 508,177 507,178 506,179 506,180 505,181 504,182 504,183 503,184 502,185 502,186 502,187 502,188 502,189 502,190 502,191 502,192 502,193 502,194 502,195 502,196 502,197 502,198 502,199 502,200 502,201 502,202 502,203 502,204 502,205 502,206 502,207 502,208 502,209 502,210 502,211 502,212 502,213 502,214 502,215 502,216 502,217 502,218 502,219 502,220 502,221 502,222 502,223 502,224 502,225 502,226 502,227 502,228 502,229 502,230 502,231 502,232 502,233 502,234 502,235 502,236 502,237 502,238 502,239 502,240 502,241 502,242 502,243 502,244 502,245 502,246 502,247 502,248 502,249 502,250 502,251 502,252 502,253 502,254 502,255 502,256 502,257 502,258 502,259 502,260 502,261 502,262 502,263 502,264 502,265 502,266 502,267 502,268 502,269 502,270 502,271 502,272 502,273 502,274 502,275 502,276 502,277 502,278 502,279 502,280 502,281 502,282 502,283 502,284 502,285 502,286 502,287 502,288 502,289 502,290 502,291 502,292 502,293 502,294 502,295 502,296 502,297 502,298 502,299 502,300 502,301 502,302 502,303 502,304 502,305 502,306 502,307 502,308 502,309 502,310 502,311 502,312 502,313 502,314 502,315 502,316 502,317 502,318 502,319 502,320 502,321 502,322 502,323 502,324 502,325 502,326 502,327 502,328 502,329 502,330 502,331 502,332 502,333 502,334 502,335 502,336 502,337 502,338 502,339 502,340 502,341 502,342 502,343 502,344 502,345 502,346 502,347 502,348 502,349 502,350 502,351 502,352 502,353 502,354 502,355 502,356 503,356 504,357 505,357 506,357 507,357 508,357 509,357 510,357 511,357 512,357 513,357 514,357 515,357 516,357 517,357 518,357 519,357 520,357 521,357 522,357 523,357 524,357 525,357 526,357 527,357 528,357 529,357 530,357 531,357 532,357 533,357 534,357 535,357 536,357 537,357 538,357 539,357 540,357 541,357 542,357 543,357 544,357 545,357 546,357 547,357 548,357 549,357 550,357 551,357 552,357 553,357 554,357 555,357 556,357 557,357 558,357 559,357 560,357 561,357 562,357 563,357 564,357 565,357 566,357 567,357 568,357 569,357 570,357 571,357 572,357 573,357 574,357 575,357 576,357 577,357 578,357 579,357 580,357 581,357 582,357 583,357 584,357 585,357 586,357 587,357 588,357 589,356 589,355 589,354 589,353 589,352 590,351 590,350 590,349 591,348 591,347 591,346 591,345 591,344 591,343 591,342 591,341 591,340 591,339 591,338 592,337 592,336 592,335 592,334 592,333 593,332 593,331 593,330 593,329 594,328 594,327 594,326 594,325 595,324 595,323 595,322 595,321 596,320 596,319 596,318 596,317 596,316 597,315 597,314 597,313 597,312 597,311 597,310 596,309 596,308 596,307 596,306 596,305 596,304 595,303 595,302 595,301 595,300 595,299 595,298 595,297 595,296 595,295 595,294 594,293 594,292 594,291 595,290 595,289 595,288 595,287 595,286 595,285 595,284 595,283 595,282 595,281 595,280 595,279 595,278 595,277 595,276 595,275 595,274 595,273 595,272 595,271 595,270 595,269 595,268 595,267 595,266 595,265 595,264 595,263 595,262 595,261 595,260 595,259 595,258 595,257 595,256 595,255 595,254 595,253 595,252 595,251 595,250 595,249 595,248 595,247 595,246 595,245 595,244 595,243 595,242 595,241 595,240 595,239 595,238 595,237 595,236 595,235 595,234 595,233 595,232 595,231 595,230 595,229 595,228 595,227 595,226 595,225 595,224 595,223 595,222 595,221 595,220 595,219 595,218 595,217 595,216 596,215 596,214 596,213 596,212 596,211 596,210 595,209 594,208 594,207 593,206 593,205 592,204 592,203 591,202 590,201 590,200 589,199 589,198 588,197 588,196 587,195 587,194 586,193 586,192 585,191 584,190 584,189 584,188 583,187 582,186 582,185 581,184 581,183 580,182 579,181 579,180 578,179 578,178 577,177 576,176 576,175 576,174 575,173 574,172 574,171 573,170 573,169 572,169 571,169 570,168 569,168 568,168 567,168 566,168 565,167 564,167 563,167 562,166 561,166 560,166 559,165 558,165 557,165 556,165 555,164 554,164 553,164 552,164 551,164 550,164 549,164 548,164 547,163 546,163 545,163 544,163 543,162 542,162 541,162 540,161 539,161 538,161 537,160 536,160 535,159 534,159 533,159 532,159 531,159">
      <metadata tailDirection="" confidence="0.89" linkedToCharacter="" id="MomoyamaHaikagura_024_balloon_1" tailTip=""></metadata>
    </polygon>
  </svg>
</svg>
