<?xml version="1.0" encoding="UTF-8" standalone="no"?>
<svg width="827" xmlns="http://www.w3.org/2000/svg" version="1.0" height="1170">
  <title>MomoyamaHaikagura_080</title>
  <svg contentScriptType="text/ecmascript" zoomAndPan="magnify" contentStyleType="text/css" class="Page" preserveAspectRatio="xMidYMid meet" version="1.0">
    <image xmlns:xlink="http://www.w3.org/1999/xlink" x="0" y="0" width="827" height="1170" xlink:href="./../../dataset_Manga109/MomoyamaHaikagura/MomoyamaHaikagura_080.jpg" xlink:type="simple" xlink:actuate="onLoad" preserveAspectRatio="xMidYMid meet" xlink:show="embed"/>
  </svg>
  <style type="text/css" xml:space="preserve">
        * { stroke-linejoin: round; }
        .Unclassified   { fill: orange; stroke: none;   opacity: 1.0; visibility: hidden; }
        .Noise          { fill: pink;   stroke: none;   opacity: 0.2; visibility: hidden; }
        .Panel          { fill: none;   stroke: red;    stroke-width:3; opacity: 0.5; visibility: visible; image-rendering: optimizeSpeed; }
        .Line           { fill: green;  stroke: none;   opacity: 0.5; visibility: visible; image-rendering: optimizeSpeed; }
        .TextArea       { fill: grey;   stroke: none;   opacity: 0.2; visibility: visible; image-rendering: optimizeSpeed; }
        .Balloon        { fill: cyan;   stroke: none;   opacity: 0.5; visibility: visible; image-rendering: optimizeSpeed; }
        .Letter         { fill: blue;   stroke: none;   opacity: 0.2; visibility: hidden; }
        .Object, .Character, .Face  { fill: yellow; stroke: none;   opacity: 0.5; visibility: visible; image-rendering: optimizeSpeed; }
        .Page           { fill: white;  stroke: none;    opacity: 0.5; visibility: visible; }
        .linkSBSC { fill: blue; stroke: none; opacity: 1.0; visibility: visible; }
        polygon:hover { opacity:1.0; stroke:red; }
</style>
  <svg xmlns="http://www.w3.org/2000/svg" contentScriptType="text/ecmascript" zoomAndPan="magnify" contentStyleType="text/css" class="Balloon" preserveAspectRatio="xMidYMid meet" version="1.0">
    <polygon points="609,885 608,886 607,886 606,886 605,886 604,886 603,887 602,887 601,887 600,887 599,888 598,888 597,888 596,889 595,889 594,890 593,890 592,891 592,892 591,893 591,894 590,895 589,896 589,897 588,898 587,899 587,900 586,901 586,902 585,903 584,904 584,905 583,906 583,907 582,908 582,909 582,910 581,911 581,912 581,913 580,914 580,915 579,916 579,917 578,918 578,919 577,920 577,921 577,922 577,923 577,924 577,925 576,926 576,927 576,928 576,929 576,930 576,931 575,932 574,932 573,931 572,931 571,930 571,929 570,928 569,927 568,926 567,925 566,924 566,923 565,923 564,922 563,921 562,921 561,921 560,921 559,921 558,921 557,921 556,921 555,921 554,920 553,920 552,920 551,920 550,920 549,920 548,920 547,920 546,921 545,922 545,923 544,924 543,925 542,926 541,927 540,928 539,929 538,930 537,931 537,932 536,933 535,934 534,935 534,936 533,937 532,938 531,939 531,940 530,941 529,942 529,943 528,944 527,945 527,946 526,947 526,948 525,949 526,950 525,951 525,952 525,953 524,954 524,955 524,956 523,957 523,958 523,959 522,960 522,961 522,962 522,963 522,964 522,965 522,966 522,967 521,968 521,969 521,970 521,971 521,972 521,973 521,974 521,975 521,976 521,977 521,978 521,979 521,980 520,981 520,982 520,983 520,984 520,985 520,986 520,987 519,988 519,989 519,990 519,991 519,992 519,993 519,994 519,995 519,996 519,997 519,998 519,999 519,1000 519,1001 519,1002 519,1003 519,1004 518,1005 518,1006 518,1007 519,1008 518,1009 518,1010 518,1011 518,1012 518,1013 518,1014 519,1015 518,1016 519,1017 518,1018 519,1019 519,1020 519,1021 519,1022 519,1023 519,1024 519,1025 519,1026 519,1027 519,1028 519,1029 519,1030 519,1031 519,1032 519,1033 519,1034 519,1035 519,1036 519,1037 519,1038 519,1039 519,1040 519,1041 518,1042 518,1043 517,1044 516,1044 515,1045 514,1045 514,1046 515,1047 516,1048 517,1049 518,1050 518,1051 519,1052 519,1053 520,1054 520,1055 521,1056 521,1057 522,1058 522,1059 522,1060 523,1061 523,1062 523,1063 523,1064 524,1065 524,1066 524,1067 524,1068 524,1069 525,1070 525,1071 525,1072 525,1073 525,1074 526,1075 526,1076 526,1077 526,1078 526,1079 527,1080 527,1081 527,1082 528,1083 529,1084 530,1084 531,1085 532,1086 533,1087 534,1088 535,1089 536,1090 537,1091 538,1091 539,1092 540,1093 541,1093 542,1094 543,1095 544,1095 545,1096 546,1096 547,1097 548,1097 549,1098 550,1098 551,1099 552,1099 553,1100 554,1100 555,1101 556,1101 557,1102 558,1102 559,1102 560,1103 561,1103 562,1104 563,1104 564,1104 565,1105 566,1105 567,1104 568,1104 569,1104 570,1104 571,1103 572,1102 573,1101 574,1100 575,1100 576,1099 577,1098 578,1097 579,1096 579,1095 580,1094 581,1093 582,1092 583,1091 584,1090 584,1089 585,1088 586,1087 586,1086 587,1085 587,1084 588,1083 588,1082 589,1081 589,1080 590,1079 590,1078 590,1077 591,1076 591,1075 591,1074 591,1073 591,1072 591,1071 591,1070 591,1069 591,1068 591,1067 591,1066 591,1065 591,1064 591,1063 591,1062 592,1061 592,1060 592,1059 592,1058 592,1057 592,1056 592,1055 592,1054 592,1053 593,1052 593,1051 593,1050 593,1049 593,1048 593,1047 593,1046 593,1045 593,1044 593,1043 593,1042 593,1041 594,1040 593,1039 594,1038 594,1037 594,1036 594,1035 594,1034 594,1033 594,1032 594,1031 594,1030 594,1029 594,1028 594,1027 594,1026 594,1025 594,1024 594,1023 594,1022 594,1021 595,1020 595,1019 595,1018 595,1017 595,1016 595,1015 595,1014 595,1013 596,1012 596,1011 596,1010 596,1009 596,1008 596,1007 596,1006 596,1005 597,1004 598,1003 599,1003 600,1004 601,1004 602,1004 603,1005 604,1005 605,1005 606,1005 607,1005 608,1005 609,1006 610,1005 611,1005 612,1005 613,1005 614,1004 615,1003 616,1002 617,1001 617,1000 618,999 618,998 619,997 619,996 620,995 621,994 621,993 621,992 622,991 622,990 623,989 623,988 623,987 624,986 624,985 625,984 625,983 625,982 626,981 626,980 626,979 627,978 627,977 627,976 628,975 628,974 628,973 629,972 629,971 629,970 630,969 630,968 631,967 631,966 631,965 632,964 632,963 632,962 633,961 633,960 634,959 634,958 634,957 634,956 634,955 634,954 634,953 634,952 634,951 634,950 634,949 634,948 634,947 634,946 634,945 634,944 634,943 633,942 633,941 633,940 633,939 633,938 633,937 633,936 633,935 633,934 632,933 632,932 632,931 632,930 632,929 632,928 632,927 632,926 632,925 632,924 632,923 632,922 632,921 632,920 632,919 632,918 632,917 632,916 632,915 632,914 632,913 632,912 632,911 631,910 631,909 630,908 630,907 629,906 628,905 628,904 627,903 626,902 626,901 625,900 624,899 623,898 622,897 622,896 621,895 620,894 619,893 618,892 617,891 617,890 616,889 615,888 614,888 613,887 612,886 611,886 610,885 609,885">
      <metadata tailDirection="" confidence="0.83" linkedToCharacter="" id="MomoyamaHaikagura_080_balloon_0" tailTip=""></metadata>
    </polygon>
    <polygon points="692,661 691,662 690,662 689,663 688,663 687,664 686,665 685,666 684,667 683,668 682,669 681,670 680,671 679,672 678,673 678,674 677,675 676,676 675,677 674,678 673,679 673,680 672,681 671,682 670,683 670,684 669,685 668,686 667,687 667,688 666,689 665,690 665,691 664,692 664,693 663,694 663,695 662,696 662,697 662,698 662,699 662,700 662,701 662,702 662,703 662,704 662,705 662,706 662,707 662,708 662,709 662,710 662,711 662,712 662,713 662,714 662,715 662,716 662,717 662,718 662,719 662,720 661,721 661,722 661,723 661,724 661,725 661,726 661,727 661,728 661,729 661,730 661,731 661,732 661,733 661,734 662,735 661,736 661,737 661,738 661,739 661,740 661,741 661,742 661,743 661,744 661,745 661,746 661,747 661,748 661,749 662,750 661,751 661,752 661,753 661,754 661,755 661,756 661,757 661,758 661,759 661,760 661,761 661,762 661,763 661,764 661,765 661,766 661,767 661,768 661,769 661,770 661,771 660,772 660,773 660,774 660,775 660,776 660,777 660,778 660,779 660,780 660,781 660,782 659,783 659,784 659,785 659,786 659,787 658,788 658,789 657,790 656,791 655,791 656,792 656,793 656,794 657,795 657,796 658,797 658,798 658,799 658,800 659,801 659,802 659,803 659,804 660,805 660,806 660,807 660,808 660,809 661,810 661,811 661,812 661,813 661,814 661,815 661,816 662,817 662,818 662,819 662,820 662,821 662,822 662,823 663,824 663,825 663,826 663,827 663,828 663,829 663,830 663,831 663,832 664,833 663,834 664,835 664,836 664,837 664,838 664,839 664,840 664,841 664,842 664,843 664,844 664,845 664,846 664,847 664,848 665,849 665,850 665,851 665,852 665,853 665,854 665,855 665,856 665,857 665,858 665,859 665,860 665,861 665,862 665,863 666,864 666,865 666,866 667,866 668,867 669,867 670,868 671,868 672,869 673,869 674,870 675,871 676,872 677,872 678,873 679,873 680,874 681,875 682,875 683,876 684,876 685,877 686,878 687,878 688,879 689,879 690,879 691,880 692,880 693,880 694,881 695,881 696,881 697,882 698,882 699,882 700,883 701,883 702,884 703,884 704,884 705,885 706,885 707,886 708,886 709,886 710,887 711,887 712,887 713,887 714,887 715,887 716,887 717,887 718,887 719,887 720,887 721,886 722,885 723,884 724,883 725,882 726,881 726,880 727,879 727,878 728,877 729,876 729,875 730,874 731,873 732,872 733,871 733,870 734,869 735,868 735,867 736,866 737,865 737,864 738,863 738,862 739,861 740,860 740,859 741,858 742,857 742,856 743,855 743,854 744,853 744,852 745,851 745,850 746,849 746,848 746,847 747,846 747,845 747,844 748,843 748,842 749,841 749,840 749,839 750,838 750,837 750,836 750,835 750,834 750,833 750,832 750,831 750,830 750,829 750,828 750,827 750,826 750,825 750,824 750,823 750,822 750,821 750,820 750,819 751,818 751,817 751,816 751,815 751,814 751,813 751,812 751,811 751,810 751,809 751,808 752,807 752,806 752,805 752,804 752,803 752,802 752,801 752,800 752,799 752,798 752,797 752,796 752,795 752,794 752,793 752,792 753,791 753,790 753,789 753,788 753,787 753,786 753,785 753,784 753,783 753,782 753,781 753,780 753,779 753,778 753,777 753,776 753,775 753,774 753,773 753,772 753,771 753,770 753,769 753,768 753,767 753,766 753,765 753,764 753,763 753,762 753,761 753,760 753,759 753,758 753,757 753,756 753,755 753,754 753,753 754,752 754,751 754,750 754,749 754,748 754,747 754,746 754,745 754,744 754,743 754,742 754,741 754,740 755,739 755,738 755,737 755,736 755,735 755,734 755,733 755,732 755,731 755,730 755,729 755,728 755,727 754,726 754,725 754,724 754,723 754,722 754,721 753,720 753,719 753,718 753,717 753,716 752,715 752,714 752,713 752,712 751,711 751,710 751,709 751,708 750,707 750,706 750,705 749,704 749,703 749,702 749,701 748,700 748,699 748,698 748,697 748,696 747,695 747,694 747,693 747,692 746,691 746,690 746,689 746,688 745,687 745,686 745,685 745,684 744,683 744,682 744,681 744,680 743,679 743,678 742,677 741,676 740,676 739,675 738,674 737,673 736,673 735,672 734,671 733,671 732,670 731,670 730,670 729,669 728,669 727,668 726,668 725,668 724,668 723,668 722,667 721,667 720,667 719,666 718,666 717,666 716,666 715,665 714,665 713,665 712,665 711,664 710,664 709,664 708,664 707,663 706,663 705,663 704,662 703,662 702,662 701,662 700,662 699,662 698,662 697,661 696,661 695,661 694,661 693,661 692,661">
      <metadata tailDirection="" confidence="0.84" linkedToCharacter="" id="MomoyamaHaikagura_080_balloon_1" tailTip=""></metadata>
    </polygon>
    <polygon points="704,434 703,435 703,436 702,437 701,438 700,439 700,440 699,441 699,442 698,443 698,444 697,445 696,446 696,447 695,448 695,449 695,450 694,451 694,452 693,453 693,454 693,455 692,456 692,457 691,458 691,459 691,460 690,461 690,462 690,463 689,464 689,465 689,466 688,467 688,468 688,469 688,470 687,471 687,472 687,473 687,474 686,475 686,476 686,477 686,478 686,479 686,480 685,481 685,482 685,483 685,484 685,485 685,486 684,487 683,487 682,486 681,485 680,484 679,483 678,483 677,482 676,482 675,481 674,481 673,480 672,480 671,480 670,480 669,479 668,479 667,479 666,479 665,479 664,478 663,478 662,478 661,478 660,478 659,477 658,477 657,477 656,477 655,477 654,477 653,477 652,477 651,476 650,476 649,476 648,476 647,476 646,476 645,476 644,476 643,476 642,476 641,476 640,476 639,476 638,476 637,476 636,476 635,476 634,477 633,477 632,477 631,477 630,478 629,478 628,478 627,478 626,479 625,479 624,479 623,480 622,480 621,481 620,482 619,482 618,483 617,484 616,485 615,485 614,486 613,487 612,488 611,489 610,490 609,491 608,492 607,493 606,494 605,495 604,496 603,497 602,498 602,499 601,500 600,501 599,502 598,503 597,504 596,505 596,506 595,507 595,508 594,509 594,510 593,511 593,512 592,513 592,514 592,515 591,516 591,517 590,518 590,519 589,520 588,521 588,522 588,523 587,524 587,525 586,526 586,527 586,528 585,529 585,530 585,531 584,532 584,533 584,534 584,535 584,536 584,537 583,538 583,539 583,540 583,541 583,542 583,543 583,544 583,545 582,546 582,547 582,548 582,549 582,550 582,551 582,552 582,553 581,554 581,555 581,556 581,557 581,558 581,559 581,560 581,561 581,562 581,563 581,564 581,565 581,566 581,567 581,568 581,569 581,570 581,571 581,572 581,573 581,574 581,575 581,576 581,577 581,578 581,579 581,580 581,581 581,582 582,583 582,584 582,585 582,586 582,587 582,588 582,589 583,590 583,591 583,592 583,593 583,594 584,595 584,596 584,597 584,598 584,599 585,600 585,601 585,602 585,603 585,604 586,605 586,606 586,607 587,608 587,609 587,610 588,611 588,612 589,613 589,614 590,615 590,616 590,617 591,618 591,619 592,620 592,621 593,622 593,623 594,624 595,625 595,626 596,627 596,628 597,629 597,630 596,631 595,630 594,629 594,628 593,627 592,626 592,625 591,624 590,623 590,622 589,621 589,620 588,619 588,618 587,617 587,616 587,615 586,614 586,613 585,612 585,611 584,610 584,609 584,608 583,607 582,608 581,608 580,609 579,609 578,610 577,610 576,611 575,611 574,612 573,612 572,613 571,613 570,614 569,615 568,615 567,616 566,616 565,617 564,617 563,618 562,618 561,619 560,619 559,620 558,621 557,621 556,622 555,622 554,623 553,624 552,624 551,625 550,625 549,626 548,626 547,627 546,627 545,628 544,629 543,629 542,630 541,630 540,631 539,631 538,632 537,633 536,633 535,633 534,634 533,635 532,635 531,636 530,636 529,637 528,637 527,638 526,638 525,639 524,640 523,640 522,641 521,641 520,642 519,642 518,643 517,643 517,644 516,645 515,646 515,647 514,648 514,649 515,649 516,649 517,649 518,649 519,649 520,649 521,649 522,649 523,649 524,649 525,649 526,649 527,649 528,649 529,649 530,649 531,649 532,649 533,649 534,649 535,648 536,647 537,646 538,645 539,644 540,643 541,642 542,642 543,641 544,640 545,640 546,639 547,639 548,638 549,638 550,637 551,637 552,637 553,636 554,636 555,636 556,636 557,635 558,635 559,635 560,635 561,635 562,634 563,634 564,634 565,635 566,635 567,635 568,635 569,634 570,634 571,634 572,634 573,635 574,635 575,635 576,635 577,635 578,635 579,635 580,636 581,636 582,636 583,635 584,636 585,636 586,636 587,636 588,636 589,636 590,636 591,636 592,636 593,636 594,636 595,637 596,637 597,637 598,638 599,638 600,639 601,639 602,640 603,641 604,641 605,642 606,643 607,644 608,645 607,644 606,643 605,642 604,641 603,641 602,640 602,639 601,639 600,638 601,637 602,636 603,636 604,636 605,635 606,635 607,635 608,634 609,634 610,634 611,634 612,634 613,634 614,635 615,635 616,635 617,636 618,636 619,637 620,637 621,638 622,638 623,639 624,640 625,640 626,641 627,642 628,643 629,644 630,645 631,646 632,647 631,648 632,649 632,650 633,650 634,649 635,649 636,649 637,649 638,650 639,649 640,649 641,649 642,649 643,649 644,649 645,649 646,649 647,649 648,649 649,649 650,649 651,649 652,649 653,649 654,649 655,649 656,649 657,650 658,649 659,649 660,649 661,649 662,649 663,649 664,649 665,649 666,649 667,649 668,649 669,649 670,649 671,649 672,650 673,649 674,649 675,649 676,650 677,649 678,650 679,650 680,650 681,649 682,649 683,650 684,650 685,650 686,650 687,649 688,649 689,649 690,649 691,648 692,647 693,646 693,645 694,644 694,643 695,642 695,641 696,640 696,639 697,638 697,637 697,636 698,635 698,634 698,633 699,632 699,631 699,630 700,629 700,628 700,627 700,626 700,625 701,624 701,623 701,622 701,621 701,620 701,619 702,618 703,618 704,619 704,620 705,621 706,622 707,623 708,624 709,625 710,625 711,626 712,626 713,627 714,627 715,628 716,628 717,629 718,629 719,629 720,630 721,630 722,630 723,631 724,631 725,631 726,631 727,632 728,632 729,632 730,632 731,632 732,632 733,632 734,632 735,632 736,632 737,632 738,632 739,632 740,631 741,631 742,631 743,630 744,630 745,629 746,629 747,628 748,628 749,627 750,626 751,626 752,625 753,624 754,624 755,623 756,622 757,621 758,620 759,620 760,619 761,618 762,617 763,616 764,615 764,614 764,613 764,612 764,611 764,610 764,609 764,608 764,607 764,606 764,605 764,604 764,603 764,602 764,601 764,600 764,599 764,598 764,597 764,596 764,595 764,594 764,593 764,592 764,591 764,590 764,589 764,588 764,587 764,586 764,585 764,584 764,583 764,582 764,581 764,580 764,579 764,578 764,577 764,576 764,575 764,574 764,573 764,572 764,571 764,570 764,569 764,568 764,567 764,566 764,565 764,564 764,563 764,562 764,561 764,560 764,559 764,558 764,557 764,556 764,555 764,554 764,553 764,552 764,551 764,550 764,549 764,548 764,547 764,546 764,545 764,544 764,543 764,542 764,541 764,540 764,539 764,538 764,537 764,536 764,535 764,534 764,533 764,532 764,531 764,530 764,529 764,528 764,527 764,526 764,525 764,524 764,523 764,522 764,521 764,520 764,519 764,518 764,517 764,516 764,515 764,514 764,513 764,512 764,511 764,510 764,509 764,508 764,507 764,506 764,505 764,504 764,503 764,502 764,501 764,500 764,499 764,498 764,497 764,496 764,495 764,494 764,493 764,492 764,491 764,490 764,489 764,488 764,487 764,486 764,485 764,484 764,483 764,482 764,481 764,480 764,479 764,478 764,477 764,476 764,475 764,474 764,473 764,472 764,471 764,470 764,469 764,468 764,467 764,466 764,465 764,464 764,463 764,462 764,461 764,460 764,459 764,458 764,457 764,456 764,455 764,454 764,453 764,452 764,451 764,450 764,449 764,448 764,447 764,446 764,445 764,444 764,443 764,442 764,441 764,440 764,439 764,438 764,437 764,436 764,435 763,434 762,434 761,434 760,434 759,434 758,434 757,434 756,434 755,434 754,434 753,434 752,434 751,434 750,434 749,434 748,434 747,434 746,434 745,434 744,434 743,434 742,434 741,434 740,434 739,434 738,434 737,434 736,434 735,434 734,434 733,434 732,434 731,434 730,434 729,434 728,434 727,434 726,434 725,434 724,434 723,434 722,434 721,434 720,434 719,434 718,434 717,434 716,434 715,434 714,434 713,434 712,434 711,434 710,434 709,434 708,434 707,434 706,434 705,434 704,434">
      <metadata tailDirection="" confidence="0.91" linkedToCharacter="" id="MomoyamaHaikagura_080_balloon_2" tailTip=""></metadata>
    </polygon>
    <polygon points="182,433 181,434 180,435 179,436 179,437 178,438 177,439 176,440 176,441 175,442 175,443 174,444 174,445 173,446 173,447 172,448 172,449 172,450 171,451 171,452 171,453 170,454 170,455 170,456 170,457 169,458 169,459 169,460 168,461 168,462 167,463 166,463 165,462 164,461 163,460 162,460 161,459 160,458 159,457 158,457 157,456 156,455 155,455 154,454 153,454 152,453 151,453 150,452 149,451 148,451 147,450 146,450 145,450 144,450 143,449 142,449 141,449 140,448 139,448 138,448 137,448 136,447 135,447 134,447 133,447 132,446 131,446 130,446 129,446 128,446 127,446 126,446 125,446 124,446 123,446 122,446 121,446 120,446 119,446 118,446 117,446 116,447 115,447 114,447 113,447 112,447 111,447 110,448 109,448 108,448 107,449 106,449 105,449 104,449 103,450 102,450 101,450 100,451 99,451 98,452 97,452 96,453 95,453 94,454 93,454 92,455 91,456 90,457 89,458 88,458 87,459 86,459 85,460 84,461 83,462 82,463 81,463 80,464 79,465 78,466 77,467 76,468 75,469 75,470 74,471 74,472 73,473 72,474 71,475 71,476 70,477 70,478 69,479 69,480 68,481 67,482 67,483 67,484 66,485 66,486 65,487 65,488 64,489 64,490 64,491 64,492 64,493 64,494 64,495 64,496 64,497 64,498 64,499 64,500 64,501 64,502 64,503 64,504 64,505 64,506 64,507 64,508 64,509 64,510 64,511 64,512 64,513 64,514 64,515 64,516 64,517 64,518 64,519 64,520 64,521 64,522 64,523 64,524 64,525 64,526 64,527 64,528 64,529 64,530 64,531 64,532 64,533 64,534 64,535 64,536 64,537 63,538 64,539 64,540 64,541 64,542 64,543 64,544 64,545 64,546 64,547 64,548 64,549 64,550 64,551 64,552 64,553 64,554 64,555 64,556 64,557 64,558 64,559 64,560 64,561 64,562 64,563 64,564 64,565 64,566 64,567 64,568 64,569 64,570 63,571 64,572 64,573 64,574 64,575 64,576 64,577 64,578 64,579 64,580 64,581 64,582 63,583 64,584 64,585 64,586 64,587 64,588 64,589 64,590 64,591 64,592 63,593 63,594 63,595 63,596 64,597 64,598 64,599 64,600 64,601 64,602 65,603 65,604 64,605 63,606 63,607 64,608 64,609 64,610 64,611 64,612 64,613 63,614 63,615 63,616 63,617 63,618 63,619 64,620 64,621 64,622 63,623 64,624 64,625 63,626 63,627 63,628 63,629 63,630 64,631 64,632 64,633 64,634 63,635 63,636 63,637 63,638 64,639 63,640 64,641 64,642 64,643 64,644 64,645 64,646 64,647 64,648 63,649 64,649 65,649 66,649 67,649 68,649 69,649 70,649 71,649 72,649 73,649 74,649 75,649 76,649 77,649 78,649 79,649 80,649 81,649 82,649 83,649 84,649 85,649 86,649 87,649 88,649 89,649 90,649 91,649 92,649 93,649 94,649 95,649 96,649 97,649 98,649 99,649 100,649 101,649 102,649 103,649 104,649 105,649 106,649 107,649 108,649 109,649 110,649 111,649 112,649 113,649 114,649 115,649 116,649 117,649 118,649 119,649 120,649 121,649 122,649 123,649 124,649 125,649 126,649 127,649 128,649 129,649 130,649 131,649 132,649 133,649 134,649 135,649 136,649 137,649 138,649 139,649 140,649 141,649 142,649 143,649 144,649 145,649 146,649 147,649 148,649 149,649 150,649 151,649 152,649 153,649 154,649 155,649 156,649 157,649 158,649 159,649 160,649 161,649 162,649 163,649 164,649 165,649 166,649 167,649 168,649 169,649 170,649 171,649 172,649 173,649 174,649 175,649 176,649 177,649 178,649 179,649 180,649 181,649 182,649 183,649 184,649 185,649 186,649 187,649 188,649 189,649 190,649 191,649 192,649 193,649 194,649 195,649 196,649 197,649 198,649 199,649 200,649 201,649 202,649 203,649 204,649 205,649 206,649 207,649 208,649 209,649 210,649 211,649 212,649 213,649 214,649 215,649 216,649 217,649 218,649 219,649 220,649 221,649 222,649 223,649 224,649 225,649 226,649 227,649 228,649 229,649 230,649 231,649 232,649 233,649 234,649 235,649 236,649 237,649 238,649 239,649 240,649 241,649 242,649 243,649 244,649 245,649 246,649 247,649 248,649 249,649 250,649 251,649 252,649 253,649 254,649 255,649 256,649 257,649 258,649 259,649 260,649 261,649 262,649 263,649 264,649 265,649 266,649 267,649 268,649 269,649 270,649 271,649 272,649 273,649 274,649 275,649 276,649 277,649 278,649 279,649 280,649 281,649 282,649 283,649 284,649 285,649 286,649 287,649 288,649 289,649 290,649 291,649 292,649 293,649 294,649 295,649 296,649 297,649 298,649 299,649 300,649 301,649 302,649 303,649 304,649 305,649 306,649 307,649 308,649 309,649 310,649 311,649 312,649 313,649 314,649 315,648 316,648 317,647 318,646 319,646 320,645 321,645 322,644 323,643 324,642 325,641 326,640 327,639 328,638 328,637 329,636 330,635 331,634 332,633 332,632 333,631 333,630 334,629 335,628 336,627 336,626 337,625 337,624 338,623 338,622 339,621 339,620 340,619 340,618 341,617 341,616 342,615 342,614 342,613 343,612 343,611 343,610 344,609 344,608 344,607 345,606 345,605 345,604 345,603 346,602 346,601 346,600 347,599 347,598 347,597 348,596 348,595 348,594 348,593 349,592 349,591 349,590 349,589 350,588 350,587 350,586 350,585 351,584 351,583 351,582 351,581 351,580 352,579 352,578 352,577 352,576 352,575 352,574 353,573 353,572 353,571 353,570 353,569 353,568 353,567 354,566 354,565 354,564 354,563 354,562 354,561 354,560 354,559 354,558 354,557 354,556 354,555 354,554 354,553 355,552 355,551 355,550 355,549 355,548 355,547 355,546 355,545 355,544 355,543 355,542 356,541 356,540 356,539 356,538 356,537 356,536 356,535 356,534 356,533 356,532 357,531 357,530 357,529 357,528 357,527 357,526 358,525 358,524 358,523 358,522 358,521 358,520 359,519 359,518 360,517 360,516 361,515 360,514 359,514 358,513 358,512 358,511 357,510 357,509 357,508 357,507 356,506 356,505 356,504 356,503 356,502 356,501 356,500 356,499 356,498 356,497 355,496 356,495 355,494 355,493 355,492 355,491 355,490 355,489 355,488 355,487 354,486 354,485 354,484 354,483 354,482 354,481 353,480 353,479 353,478 353,477 353,476 352,475 352,474 352,473 351,472 351,471 351,470 350,469 350,468 350,467 350,466 349,465 349,464 348,463 348,462 348,461 348,460 347,459 347,458 346,457 346,456 346,455 345,454 345,453 345,452 344,451 344,450 343,449 343,448 342,447 342,446 342,445 341,444 341,443 340,442 340,441 339,440 338,439 338,438 337,437 336,436 335,436 334,435 333,434 332,434 331,434 330,434 329,434 328,434 327,434 326,434 325,434 324,434 323,434 322,434 321,434 320,434 319,434 318,434 317,434 316,434 315,434 314,434 313,434 312,434 311,434 310,434 309,434 308,434 307,434 306,434 305,434 304,434 303,434 302,434 301,434 300,434 299,434 298,434 297,434 296,434 295,434 294,434 293,434 292,434 291,434 290,434 289,434 288,434 287,434 286,434 285,434 284,434 283,434 282,434 281,434 280,434 279,434 278,434 277,434 276,434 275,434 274,434 273,434 272,434 271,434 270,434 269,434 268,434 267,434 266,434 265,434 264,434 263,434 262,434 261,434 260,434 259,434 258,434 257,434 256,434 255,434 254,434 253,434 252,434 251,434 250,434 249,434 248,434 247,434 246,434 245,434 244,434 243,434 242,434 241,434 240,434 239,434 238,434 237,434 236,434 235,434 234,434 233,434 232,434 231,434 230,434 229,434 228,434 227,434 226,434 225,434 224,434 223,434 222,434 221,434 220,434 219,434 218,434 217,434 216,434 215,434 214,434 213,434 212,434 211,434 210,434 209,434 208,434 207,434 206,434 205,434 204,434 203,434 202,434 201,434 200,434 199,434 198,434 197,434 196,434 195,434 194,434 193,434 192,434 191,434 190,434 189,434 188,434 187,434 186,434 185,434 184,434 183,434 182,433">
      <metadata tailDirection="" confidence="0.91" linkedToCharacter="" id="MomoyamaHaikagura_080_balloon_3" tailTip=""></metadata>
    </polygon>
    <polygon points="124,152 123,153 122,153 121,154 120,154 119,154 118,155 117,155 116,155 115,156 114,156 113,156 112,157 111,157 110,158 109,158 108,158 107,159 106,160 105,161 104,161 103,162 102,163 101,164 100,165 99,166 98,167 97,168 96,169 95,170 94,171 93,172 92,173 91,174 90,175 89,176 89,177 88,178 87,179 86,180 86,181 85,182 84,183 84,184 83,185 82,186 82,187 81,188 81,189 81,190 80,191 80,192 79,193 79,194 79,195 78,196 78,197 78,198 77,199 77,200 77,201 76,202 76,203 76,204 76,205 75,206 75,207 75,208 74,209 74,210 74,211 74,212 73,213 73,214 73,215 73,216 72,217 72,218 72,219 72,220 72,221 71,222 71,223 71,224 71,225 71,226 71,227 71,228 71,229 70,230 70,231 70,232 70,233 70,234 70,235 70,236 69,237 69,238 69,239 69,240 69,241 69,242 69,243 69,244 69,245 69,246 69,247 69,248 69,249 69,250 69,251 69,252 69,253 69,254 69,255 69,256 69,257 69,258 69,259 69,260 69,261 69,262 69,263 69,264 69,265 69,266 69,267 69,268 69,269 69,270 69,271 69,272 69,273 69,274 69,275 70,276 70,277 70,278 70,279 70,280 70,281 70,282 70,283 70,284 70,285 70,286 70,287 70,288 70,289 70,290 70,291 71,292 71,293 71,294 71,295 71,296 71,297 71,298 72,299 72,300 72,301 72,302 72,303 72,304 73,305 73,306 73,307 73,308 74,309 74,310 74,311 74,312 74,313 74,314 75,315 75,316 75,317 76,318 76,319 76,320 76,321 77,322 77,323 77,324 77,325 77,326 78,327 78,328 79,329 79,330 79,331 79,332 80,333 80,334 80,335 81,336 81,337 81,338 82,339 83,340 83,341 84,342 84,343 85,344 85,345 86,346 86,347 87,348 87,349 88,350 88,351 89,352 90,353 90,354 91,355 92,356 93,357 93,358 94,359 95,360 96,361 97,362 98,363 99,364 100,365 101,366 102,367 103,368 104,369 105,369 106,370 106,371 107,371 108,372 109,373 110,374 111,374 112,375 113,375 114,375 115,376 116,376 117,376 118,377 119,377 120,377 121,378 122,378 123,378 124,378 125,378 126,378 127,378 128,378 129,378 130,378 131,377 132,377 133,377 134,376 135,376 136,376 137,376 138,376 139,375 140,375 141,375 142,375 143,374 144,374 145,374 146,374 147,373 148,372 149,372 150,372 151,371 152,371 153,370 154,369 155,368 156,368 157,367 157,366 158,365 159,365 160,364 161,363 162,362 163,361 163,360 164,359 165,358 166,357 167,356 168,355 168,354 169,353 170,352 170,351 171,350 172,349 172,348 173,347 173,346 174,345 175,344 175,343 176,342 176,341 176,340 177,339 177,338 177,337 178,336 178,335 178,334 179,333 179,332 179,331 180,330 180,329 180,328 181,327 181,326 181,325 181,324 182,323 182,322 182,321 182,320 183,319 183,318 183,317 184,316 184,315 184,314 184,313 184,312 184,311 184,310 184,309 184,308 184,307 184,306 185,305 185,304 185,303 185,302 185,301 185,300 186,299 186,298 186,297 186,296 186,295 186,294 186,293 186,292 186,291 187,290 187,289 187,288 187,287 187,286 187,285 187,284 187,283 187,282 187,281 187,280 187,279 187,278 187,277 187,276 187,275 187,274 187,273 187,272 187,271 187,270 187,269 187,268 187,267 187,266 187,265 187,264 187,263 187,262 187,261 187,260 187,259 187,258 187,257 187,256 187,255 187,254 187,253 187,252 187,251 187,250 187,249 187,248 186,247 186,246 186,245 186,244 186,243 186,242 186,241 186,240 186,239 186,238 185,237 185,236 185,235 185,234 185,233 185,232 185,231 185,230 185,229 185,228 185,227 184,226 184,225 184,224 184,223 184,222 183,221 183,220 183,219 183,218 183,217 183,216 182,215 182,214 182,213 181,212 181,211 181,210 181,209 181,208 180,207 180,206 180,205 180,204 179,203 179,202 179,201 179,200 178,199 178,198 177,197 177,196 177,195 176,194 176,193 176,192 175,191 175,190 174,189 174,188 173,187 173,186 172,185 172,184 172,183 172,182 171,181 171,180 170,179 169,178 169,177 168,176 167,175 167,174 166,173 166,172 165,171 164,170 164,169 163,168 162,167 161,166 160,165 159,164 158,163 157,162 156,161 155,160 154,160 153,159 152,159 151,158 150,157 149,157 148,156 147,155 146,155 145,155 144,154 143,154 142,154 141,153 140,153 139,153 138,153 137,152 136,152 135,152 134,152 133,152 132,152 131,152 130,152 129,152 128,152 127,152 126,152 125,152 124,152">
      <metadata tailDirection="" confidence="0.92" linkedToCharacter="" id="MomoyamaHaikagura_080_balloon_4" tailTip=""></metadata>
    </polygon>
    <polygon points="494,92 493,93 492,93 491,93 490,93 489,93 488,94 487,94 486,95 485,95 484,95 483,96 482,97 481,98 480,99 479,100 478,101 477,102 476,103 475,104 475,105 474,106 474,107 473,108 472,109 472,110 471,111 471,112 470,113 470,114 469,115 468,116 468,117 467,118 467,119 466,120 466,121 466,122 465,123 465,124 465,125 464,126 464,127 463,128 463,129 463,130 463,131 463,132 462,133 462,134 462,135 462,136 462,137 461,138 461,139 461,140 461,141 461,142 460,143 460,144 460,145 460,146 460,147 460,148 460,149 460,150 460,151 459,152 459,153 459,154 459,155 459,156 459,157 459,158 459,159 459,160 459,161 459,162 459,163 459,164 460,165 460,166 460,167 460,168 461,169 460,170 459,171 458,170 457,169 456,168 455,168 454,167 453,167 452,167 451,167 450,167 449,167 448,167 447,166 446,166 445,166 444,166 443,166 442,166 441,166 440,166 439,166 438,166 437,166 436,166 435,167 434,167 433,167 432,168 431,168 430,168 429,168 428,169 427,169 426,170 425,171 424,171 423,172 422,172 421,173 420,174 419,175 418,176 417,177 416,178 415,179 414,180 414,181 413,182 412,183 411,184 410,185 409,186 409,187 408,188 407,189 406,190 405,191 405,192 404,193 403,194 402,195 402,196 401,197 401,198 400,199 399,200 399,201 398,202 398,203 398,204 397,205 397,206 396,207 396,208 395,209 395,210 395,211 394,212 394,213 394,214 394,215 393,216 393,217 393,218 393,219 393,220 392,221 392,222 392,223 392,224 391,225 391,226 391,227 391,228 391,229 390,230 390,231 390,232 390,233 390,234 390,235 390,236 390,237 389,238 389,239 389,240 389,241 389,242 389,243 389,244 389,245 389,246 389,247 389,248 389,249 389,250 389,251 389,252 388,253 389,254 388,255 388,256 389,257 388,258 389,259 388,260 388,261 388,262 388,263 388,264 388,265 388,266 388,267 388,268 388,269 388,270 389,271 389,272 389,273 389,274 389,275 389,276 389,277 389,278 389,279 389,280 389,281 389,282 389,283 390,284 390,285 390,286 390,287 390,288 390,289 391,290 391,291 391,292 391,293 391,294 391,295 392,296 392,297 392,298 392,299 393,300 393,301 393,302 393,303 394,304 394,305 394,306 394,307 395,308 395,309 395,310 396,311 396,312 396,313 397,314 397,315 398,316 398,317 399,318 399,319 400,320 400,321 401,322 401,323 402,324 402,325 403,326 403,327 404,328 405,329 405,330 406,331 407,332 407,333 408,334 409,335 410,336 411,337 412,338 413,339 414,340 415,341 416,342 417,343 418,343 419,344 420,345 421,346 422,347 423,347 424,347 425,348 426,348 427,349 428,349 429,350 430,350 431,351 432,351 433,351 434,352 435,352 436,352 437,353 438,353 439,353 440,354 441,354 442,354 443,355 444,355 445,355 446,355 447,355 448,355 449,355 450,355 451,355 452,355 453,354 454,354 455,354 456,354 457,354 458,354 459,354 460,354 461,353 462,353 463,353 464,353 465,352 466,352 467,352 468,351 469,351 470,350 471,350 472,349 473,349 473,348 474,347 475,346 476,345 477,344 478,343 479,342 480,341 480,340 480,339 481,338 481,337 482,336 482,335 483,334 483,333 484,332 484,331 484,330 485,329 486,328 486,327 486,326 487,325 487,324 487,323 488,322 488,321 488,320 489,319 489,318 489,317 489,316 490,315 490,314 490,313 491,312 491,311 491,310 491,309 492,308 492,307 492,306 492,305 492,304 492,303 493,302 493,301 493,300 493,299 493,298 493,297 494,296 494,295 494,294 494,293 494,292 494,291 495,290 495,289 495,288 495,287 495,286 495,285 495,284 496,283 496,282 496,281 496,280 496,279 496,278 496,277 496,276 496,275 496,274 496,273 496,272 496,271 497,270 497,269 497,268 497,267 496,266 496,265 496,264 496,263 496,262 496,261 496,260 497,259 497,258 497,257 497,256 497,255 497,254 496,253 496,252 496,251 496,250 496,249 496,248 496,247 496,246 496,245 496,244 496,243 496,242 495,241 495,240 495,239 495,238 495,237 494,236 494,235 494,234 495,233 496,233 497,233 498,233 499,233 500,233 501,233 502,233 503,233 504,232 505,231 506,231 507,230 508,229 509,228 510,227 511,226 512,225 513,224 514,223 514,222 515,221 516,220 516,219 517,218 517,217 518,216 518,215 518,214 519,213 519,212 520,211 520,210 520,209 520,208 521,207 521,206 521,205 522,204 522,203 522,202 523,201 523,200 523,199 524,198 524,197 524,196 524,195 524,194 525,193 525,192 525,191 525,190 525,189 526,188 526,187 526,186 526,185 526,184 526,183 526,182 526,181 526,180 526,179 526,178 526,177 526,176 526,175 526,174 526,173 526,172 527,171 527,170 527,169 527,168 527,167 527,166 526,165 526,164 526,163 526,162 526,161 526,160 526,159 526,158 526,157 526,156 526,155 526,154 526,153 526,152 526,151 526,150 526,149 526,148 526,147 526,146 526,145 526,144 526,143 526,142 526,141 526,140 525,139 525,138 525,137 525,136 525,135 525,134 525,133 525,132 524,131 524,130 524,129 524,128 524,127 524,126 523,125 523,124 523,123 523,122 523,121 523,120 522,119 522,118 522,117 522,116 522,115 521,114 521,113 520,112 520,111 520,110 520,109 519,108 519,107 518,106 517,105 517,104 517,103 516,102 515,101 514,100 513,99 512,98 511,98 510,97 509,97 508,96 507,95 506,95 505,94 504,94 503,93 502,93 501,93 500,93 499,92 498,92 497,92 496,92 495,92 494,92">
      <metadata tailDirection="" confidence="0.85" linkedToCharacter="" id="MomoyamaHaikagura_080_balloon_5" tailTip=""></metadata>
    </polygon>
    <polygon points="692,30 691,31 690,31 689,31 688,32 687,32 686,32 685,32 684,33 683,33 682,34 681,34 680,35 679,35 678,36 677,36 676,36 675,37 674,37 673,38 672,38 671,39 670,39 669,40 668,40 667,41 666,41 665,42 664,42 663,43 662,44 661,44 660,45 659,45 658,46 657,47 656,47 655,48 654,49 653,49 652,50 651,51 650,52 649,52 648,53 647,53 646,54 645,55 644,56 643,56 642,57 641,58 640,59 639,59 638,60 637,61 636,61 635,62 634,63 633,64 632,65 631,66 630,66 629,67 628,68 627,69 627,70 626,71 625,72 625,73 624,74 624,75 625,76 625,77 625,78 625,79 625,80 625,81 625,82 625,83 625,84 625,85 625,86 625,87 624,88 624,89 624,90 624,91 624,92 624,93 624,94 624,95 624,96 624,97 624,98 624,99 624,100 624,101 624,102 624,103 624,104 624,105 624,106 624,107 624,108 624,109 624,110 624,111 624,112 624,113 624,114 625,115 625,116 625,117 625,118 624,119 624,120 624,121 624,122 624,123 624,124 624,125 624,126 624,127 624,128 624,129 624,130 624,131 624,132 624,133 624,134 624,135 624,136 624,137 624,138 624,139 624,140 624,141 624,142 624,143 624,144 624,145 624,146 624,147 624,148 624,149 624,150 624,151 624,152 624,153 624,154 624,155 624,156 624,157 624,158 624,159 624,160 624,161 624,162 624,163 624,164 624,165 624,166 624,167 624,168 624,169 624,170 624,171 623,172 623,173 623,174 623,175 623,176 623,177 623,178 623,179 623,180 623,181 623,182 623,183 623,184 624,185 624,186 624,187 624,188 624,189 624,190 624,191 624,192 624,193 624,194 624,195 624,196 624,197 624,198 624,199 624,200 624,201 624,202 624,203 624,204 624,205 624,206 624,207 624,208 624,209 624,210 625,211 625,212 625,213 625,214 625,215 625,216 625,217 625,218 625,219 625,220 625,221 625,222 625,223 625,224 625,225 625,226 624,227 624,228 624,229 624,230 624,231 624,232 624,233 624,234 624,235 624,236 624,237 624,238 624,239 624,240 624,241 624,242 624,243 624,244 624,245 624,246 624,247 624,248 624,249 624,250 624,251 624,252 624,253 624,254 624,255 624,256 624,257 624,258 624,259 624,260 625,261 626,262 626,263 627,264 627,265 628,266 629,267 629,268 630,269 631,270 632,271 632,272 633,273 634,274 635,275 636,276 637,277 638,278 639,279 640,280 641,281 642,282 643,283 644,284 645,285 646,286 647,287 648,288 649,289 650,290 651,291 652,292 653,293 654,294 655,295 656,296 657,297 658,298 658,299 659,300 660,300 661,301 662,301 663,302 662,303 663,304 664,305 665,306 666,306 667,307 668,308 669,309 670,310 671,311 672,312 673,313 674,314 675,315 676,316 677,317 678,318 679,319 680,320 681,320 682,321 682,322 683,323 684,324 685,325 686,325 687,325 688,325 689,325 690,325 691,325 692,325 693,325 694,324 695,324 696,324 697,324 698,323 699,323 700,322 701,322 702,321 703,321 704,320 705,320 706,320 707,319 708,319 709,319 710,318 711,317 712,317 713,316 714,316 715,316 716,315 717,315 718,315 719,314 720,314 721,313 722,313 723,312 724,312 725,311 726,310 727,310 728,309 729,309 730,308 731,308 732,307 733,307 734,306 735,306 736,305 737,304 738,304 739,303 740,303 741,302 742,301 743,301 744,301 745,300 746,299 747,299 748,298 749,298 750,297 751,297 752,296 752,295 753,294 754,294 755,294 755,293 756,292 757,291 758,290 758,289 759,288 759,287 759,286 760,285 761,284 761,283 762,282 762,281 763,280 763,279 764,278 764,277 765,276 765,275 766,274 766,273 767,272 767,271 768,270 768,269 769,268 769,267 770,266 770,265 771,264 771,263 771,262 772,261 773,260 773,259 774,258 774,257 774,256 775,255 775,254 776,253 776,252 777,251 777,250 778,249 778,248 778,247 779,246 779,245 779,244 779,243 780,242 780,241 780,240 780,239 780,238 780,237 780,236 780,235 780,234 780,233 780,232 780,231 780,230 780,229 780,228 780,227 780,226 780,225 780,224 780,223 780,222 781,221 781,220 781,219 781,218 781,217 781,216 781,215 781,214 781,213 782,212 782,211 782,210 782,209 782,208 782,207 782,206 782,205 782,204 782,203 782,202 782,201 782,200 782,199 782,198 782,197 782,196 782,195 782,194 782,193 782,192 782,191 782,190 782,189 782,188 782,187 782,186 782,185 782,184 782,183 782,182 782,181 782,180 782,179 782,178 782,177 782,176 782,175 782,174 782,173 782,172 782,171 782,170 782,169 782,168 782,167 782,166 782,165 782,164 782,163 782,162 782,161 782,160 782,159 782,158 782,157 782,156 783,155 783,154 783,153 783,152 783,151 783,150 783,149 783,148 783,147 783,146 783,145 783,144 783,143 783,142 783,141 783,140 783,139 784,138 784,137 784,136 784,135 784,134 784,133 784,132 784,131 784,130 784,129 784,128 784,127 784,126 784,125 784,124 784,123 784,122 784,121 784,120 784,119 784,118 784,117 784,116 784,115 784,114 784,113 784,112 784,111 784,110 785,109 785,108 785,107 785,106 784,105 784,104 784,103 784,102 784,101 783,100 783,99 783,98 782,97 782,96 782,95 781,94 781,93 781,92 780,91 780,90 780,89 779,88 779,87 779,86 778,85 778,84 777,83 777,82 777,81 777,80 776,79 776,78 775,77 775,76 775,75 774,74 774,73 773,72 773,71 773,70 772,69 772,68 771,67 771,66 770,65 770,64 769,63 769,62 768,61 768,60 767,59 767,58 766,57 765,56 765,55 764,54 764,53 763,53 762,52 761,52 760,51 759,50 758,50 757,49 756,48 755,48 754,47 753,47 752,46 751,45 750,45 749,44 748,44 747,43 746,43 745,42 744,42 743,42 742,41 741,41 740,40 739,40 738,40 737,39 736,39 735,39 734,38 733,38 732,37 731,37 730,37 729,36 728,36 727,36 726,36 725,35 724,35 723,34 722,34 721,34 720,34 719,33 718,33 717,33 716,33 715,32 714,32 713,32 712,32 711,32 710,32 709,32 708,32 707,32 706,32 705,31 704,31 703,31 702,31 701,31 700,30 699,30 698,30 697,30 696,30 695,30 694,30 693,30 692,30">
      <metadata tailDirection="" confidence="0.86" linkedToCharacter="" id="MomoyamaHaikagura_080_balloon_6" tailTip=""></metadata>
    </polygon>
  </svg>
</svg>
