<?xml version="1.0" encoding="UTF-8" standalone="no"?>
<svg width="827" xmlns="http://www.w3.org/2000/svg" version="1.0" height="1170">
  <title>MomoyamaHaikagura_016</title>
  <svg contentScriptType="text/ecmascript" zoomAndPan="magnify" contentStyleType="text/css" class="Page" preserveAspectRatio="xMidYMid meet" version="1.0">
    <image xmlns:xlink="http://www.w3.org/1999/xlink" x="0" y="0" width="827" height="1170" xlink:href="./../../dataset_Manga109/MomoyamaHaikagura/MomoyamaHaikagura_016.jpg" xlink:type="simple" xlink:actuate="onLoad" preserveAspectRatio="xMidYMid meet" xlink:show="embed"/>
  </svg>
  <style type="text/css" xml:space="preserve">
        * { stroke-linejoin: round; }
        .Unclassified   { fill: orange; stroke: none;   opacity: 1.0; visibility: hidden; }
        .Noise          { fill: pink;   stroke: none;   opacity: 0.2; visibility: hidden; }
        .Panel          { fill: none;   stroke: red;    stroke-width:3; opacity: 0.5; visibility: visible; image-rendering: optimizeSpeed; }
        .Line           { fill: green;  stroke: none;   opacity: 0.5; visibility: visible; image-rendering: optimizeSpeed; }
        .TextArea       { fill: grey;   stroke: none;   opacity: 0.2; visibility: visible; image-rendering: optimizeSpeed; }
        .Balloon        { fill: cyan;   stroke: none;   opacity: 0.5; visibility: visible; image-rendering: optimizeSpeed; }
        .Letter         { fill: blue;   stroke: none;   opacity: 0.2; visibility: hidden; }
        .Object, .Character, .Face  { fill: yellow; stroke: none;   opacity: 0.5; visibility: visible; image-rendering: optimizeSpeed; }
        .Page           { fill: white;  stroke: none;    opacity: 0.5; visibility: visible; }
        .linkSBSC { fill: blue; stroke: none; opacity: 1.0; visibility: visible; }
        polygon:hover { opacity:1.0; stroke:red; }
</style>
  <svg xmlns="http://www.w3.org/2000/svg" contentScriptType="text/ecmascript" zoomAndPan="magnify" contentStyleType="text/css" class="Balloon" preserveAspectRatio="xMidYMid meet" version="1.0">
    <polygon points="100,785 99,786 98,786 97,786 96,786 95,786 94,787 93,787 92,787 91,788 90,788 89,789 88,789 87,790 86,790 85,791 84,791 83,792 82,792 81,793 80,793 79,794 78,795 77,795 76,796 75,797 74,798 74,799 73,800 72,801 71,802 71,803 70,804 69,805 69,806 68,807 68,808 67,809 67,810 66,811 66,812 65,813 64,814 64,815 64,816 63,817 63,818 62,819 62,820 61,821 61,822 60,823 60,824 60,825 59,826 58,827 58,828 58,829 57,830 57,831 57,832 57,833 56,834 56,835 55,836 55,837 55,838 55,839 54,840 54,841 54,842 54,843 53,844 53,845 53,846 52,847 52,848 52,849 52,850 51,851 51,852 51,853 51,854 51,855 50,856 50,857 50,858 50,859 50,860 50,861 50,862 49,863 49,864 49,865 49,866 49,867 49,868 49,869 49,870 48,871 48,872 48,873 48,874 48,875 48,876 48,877 48,878 48,879 48,880 48,881 48,882 47,883 47,884 47,885 47,886 47,887 47,888 47,889 47,890 47,891 47,892 46,893 46,894 46,895 46,896 46,897 46,898 46,899 46,900 46,901 46,902 46,903 46,904 46,905 46,906 46,907 46,908 46,909 46,910 46,911 46,912 46,913 46,914 46,915 46,916 46,917 46,918 46,919 46,920 46,921 46,922 46,923 46,924 46,925 46,926 46,927 46,928 46,929 46,930 46,931 46,932 46,933 46,934 47,935 47,936 47,937 47,938 47,939 47,940 47,941 47,942 47,943 48,944 48,945 48,946 48,947 48,948 48,949 48,950 49,951 49,952 49,953 49,954 49,955 49,956 50,957 50,958 50,959 50,960 50,961 51,962 51,963 51,964 51,965 52,966 52,967 52,968 52,969 53,970 53,971 53,972 54,973 54,974 54,975 55,976 55,977 55,978 56,979 56,980 57,981 57,982 57,983 58,984 58,985 59,986 59,987 60,988 60,989 61,990 61,991 62,992 62,993 63,994 64,995 64,996 65,997 66,998 67,999 68,1000 69,1001 69,1002 70,1003 71,1004 72,1005 73,1006 74,1007 75,1008 76,1008 77,1009 78,1010 79,1011 80,1012 81,1012 82,1013 83,1014 84,1014 85,1015 86,1016 87,1016 88,1017 89,1017 90,1018 91,1018 92,1019 93,1019 94,1020 95,1020 96,1020 97,1021 98,1021 99,1021 100,1022 101,1022 102,1022 103,1022 104,1022 105,1022 106,1022 107,1022 108,1022 109,1022 110,1022 111,1022 112,1022 113,1022 114,1022 115,1022 116,1022 117,1022 118,1022 119,1022 120,1022 121,1021 122,1021 123,1020 124,1019 125,1019 126,1018 127,1017 128,1017 129,1016 130,1015 131,1014 132,1014 133,1013 134,1012 135,1011 136,1010 137,1009 138,1008 138,1007 139,1006 139,1005 140,1004 141,1003 142,1002 142,1001 143,1000 144,999 144,998 145,997 145,996 146,995 147,994 147,993 148,992 148,991 149,990 149,989 149,988 150,987 150,986 151,985 151,984 151,983 152,982 152,981 152,980 153,979 153,978 153,977 153,976 154,975 154,974 154,973 154,972 154,971 155,970 155,969 155,968 156,967 156,966 156,965 156,964 157,963 157,962 157,961 157,960 157,959 158,958 158,957 158,956 158,955 158,954 158,953 159,952 159,951 159,950 159,949 159,948 160,947 160,946 160,945 160,944 160,943 160,942 160,941 160,940 161,939 161,938 161,937 161,936 162,935 162,934 162,933 162,932 162,931 162,930 162,929 162,928 162,927 162,926 163,925 163,924 163,923 163,922 163,921 163,920 163,919 163,918 163,917 163,916 163,915 163,914 163,913 163,912 163,911 163,910 163,909 163,908 162,907 162,906 162,905 162,904 162,903 162,902 162,901 162,900 162,899 162,898 162,897 162,896 162,895 162,894 161,893 161,892 161,891 161,890 161,889 161,888 161,887 161,886 160,885 160,884 160,883 160,882 160,881 160,880 160,879 160,878 159,877 159,876 159,875 159,874 159,873 159,872 158,871 158,870 158,869 158,868 158,867 157,866 157,865 157,864 157,863 157,862 157,861 157,860 156,859 156,858 156,857 156,856 156,855 156,854 156,853 155,852 155,851 155,850 155,849 155,848 155,847 154,846 154,845 154,844 154,843 154,842 153,841 153,840 153,839 153,838 153,837 153,836 153,835 152,834 152,833 152,832 152,831 151,830 151,829 151,828 150,827 150,826 149,825 149,824 149,823 148,822 148,821 147,820 147,819 147,818 146,817 146,816 145,815 145,814 144,813 144,812 143,811 143,810 142,809 141,808 141,807 140,806 140,805 139,804 139,803 138,802 137,801 136,800 136,799 135,798 134,797 133,796 132,795 132,794 131,794 130,793 129,793 128,792 127,792 126,791 125,791 124,790 123,790 122,790 121,789 120,789 119,789 118,788 117,788 116,788 115,787 114,787 113,787 112,787 111,787 110,787 109,787 108,786 107,786 106,786 105,786 104,786 103,786 102,786 101,785 100,785">
      <metadata tailDirection="" confidence="0.84" linkedToCharacter="" id="MomoyamaHaikagura_016_balloon_0" tailTip=""></metadata>
    </polygon>
    <polygon points="226,741 225,742 224,742 223,743 222,743 221,744 220,745 219,745 218,746 217,747 216,748 215,749 214,750 213,751 213,752 212,753 211,754 210,755 210,756 209,757 208,758 207,759 207,760 207,761 206,762 206,763 206,764 205,765 205,766 205,767 204,768 204,769 204,770 203,771 203,772 203,773 202,774 202,775 202,776 202,777 201,778 201,779 201,780 201,781 201,782 200,783 200,784 200,785 200,786 200,787 199,788 199,789 199,790 199,791 199,792 199,793 198,794 198,795 198,796 198,797 198,798 198,799 198,800 198,801 198,802 197,803 197,804 197,805 197,806 197,807 197,808 197,809 197,810 197,811 197,812 197,813 197,814 197,815 197,816 197,817 197,818 197,819 197,820 197,821 197,822 197,823 197,824 197,825 197,826 197,827 197,828 197,829 197,830 198,831 198,832 198,833 198,834 198,835 199,836 199,837 199,838 199,839 199,840 200,841 200,842 200,843 201,844 201,845 201,846 202,847 202,848 202,849 203,850 203,851 204,852 204,853 205,854 205,855 205,856 206,857 206,858 207,859 208,860 209,861 210,862 211,863 212,864 213,865 214,866 215,866 216,867 217,868 218,869 219,869 220,870 221,870 222,871 223,871 224,872 225,872 226,873 227,873 228,873 229,874 230,874 231,874 232,875 233,875 234,875 235,875 236,874 237,874 238,874 239,874 240,874 241,873 242,873 243,872 244,871 245,871 245,870 246,869 247,869 248,868 249,867 250,866 251,865 251,864 252,863 253,862 253,861 254,860 255,859 255,858 256,857 256,856 257,855 257,854 257,853 258,852 258,851 259,850 259,849 259,848 260,847 260,846 260,845 261,844 261,843 261,842 261,841 261,840 262,839 262,838 262,837 262,836 262,835 262,834 263,833 263,832 263,831 263,830 263,829 263,828 264,827 264,826 264,825 264,824 264,823 264,822 265,821 265,820 265,819 265,818 265,817 265,816 265,815 265,814 266,813 266,812 265,811 265,810 265,809 265,808 265,807 265,806 265,805 265,804 265,803 265,802 265,801 265,800 266,799 266,798 266,797 266,796 265,795 265,794 266,793 266,792 266,791 265,790 266,789 266,788 265,787 265,786 265,785 265,784 265,783 264,782 264,781 264,780 264,779 263,778 263,777 263,776 263,775 262,774 262,773 262,772 261,771 261,770 260,769 260,768 260,767 259,766 259,765 258,764 258,763 257,762 257,761 256,760 256,759 256,758 255,757 254,756 254,755 253,754 252,753 252,752 251,751 250,750 249,749 248,748 247,747 246,747 245,746 244,745 243,744 242,744 241,744 240,743 239,743 238,743 237,742 236,742 235,742 234,742 233,741 232,741 231,741 230,741 229,741 228,741 227,741 226,741">
      <metadata tailDirection="" confidence="0.99" linkedToCharacter="" id="MomoyamaHaikagura_016_balloon_1" tailTip=""></metadata>
    </polygon>
    <polygon points="374,501 373,502 372,502 371,502 370,502 369,502 368,503 367,503 366,503 365,503 364,504 363,504 362,505 361,505 360,506 359,506 358,507 357,508 356,508 355,509 354,510 353,511 352,512 351,513 350,514 349,515 349,516 348,517 347,517 347,518 346,519 345,520 345,521 344,522 343,523 342,524 342,525 341,526 341,527 340,528 340,529 339,530 339,531 338,532 338,533 337,534 337,535 337,536 336,537 336,538 336,539 335,540 335,541 335,542 335,543 334,544 334,545 334,546 334,547 334,548 333,549 333,550 333,551 332,552 332,553 332,554 332,555 331,556 331,557 331,558 331,559 331,560 330,561 330,562 330,563 330,564 330,565 330,566 330,567 330,568 330,569 329,570 329,571 329,572 329,573 329,574 329,575 329,576 329,577 329,578 329,579 329,580 329,581 328,582 328,583 328,584 328,585 328,586 328,587 328,588 328,589 328,590 328,591 328,592 328,593 328,594 328,595 328,596 328,597 328,598 328,599 328,600 328,601 329,602 329,603 329,604 329,605 329,606 329,607 329,608 329,609 330,610 330,611 330,612 330,613 330,614 330,615 331,616 331,617 331,618 331,619 331,620 331,621 331,622 331,623 332,624 332,625 332,626 332,627 332,628 332,629 333,630 333,631 333,632 333,633 334,634 334,635 334,636 334,637 334,638 335,639 335,640 335,641 336,642 336,643 337,644 337,645 337,646 338,647 338,648 338,649 339,650 339,651 340,652 341,653 342,654 342,655 343,656 344,657 345,658 345,659 346,660 347,661 348,662 349,663 350,664 351,665 352,666 353,667 354,668 355,669 356,669 357,670 358,671 359,671 360,672 361,672 362,673 363,673 364,674 365,674 366,674 367,674 368,675 369,675 370,675 371,675 372,675 373,675 374,675 375,675 376,675 377,675 378,674 379,674 380,674 381,674 382,673 383,672 384,672 385,671 386,670 387,669 388,668 389,667 390,666 391,665 392,664 393,663 394,662 395,661 395,660 396,659 397,658 398,657 398,656 399,655 399,654 400,653 400,652 401,651 401,650 402,649 402,648 403,647 403,646 403,645 404,644 404,643 404,642 405,641 405,640 406,639 406,638 406,637 406,636 406,635 407,634 407,633 407,632 408,631 408,630 408,629 408,628 408,627 409,626 409,625 409,624 409,623 409,622 410,621 410,620 410,619 410,618 410,617 411,616 411,615 411,614 411,613 411,612 411,611 411,610 412,609 412,608 412,607 412,606 412,605 412,604 412,603 412,602 412,601 412,600 413,599 413,598 413,597 413,596 413,595 413,594 413,593 413,592 413,591 413,590 413,589 413,588 412,587 412,586 412,585 412,584 412,583 412,582 412,581 412,580 412,579 412,578 412,577 412,576 412,575 412,574 411,573 411,572 411,571 411,570 411,569 411,568 411,567 411,566 411,565 411,564 411,563 410,562 410,561 410,560 410,559 410,558 410,557 410,556 410,555 410,554 409,553 409,552 409,551 409,550 408,549 408,548 408,547 408,546 407,545 407,544 407,543 407,542 406,541 406,540 406,539 406,538 405,537 405,536 405,535 404,534 404,533 404,532 404,531 403,530 403,529 403,528 403,527 403,526 402,525 401,524 401,523 401,522 400,521 400,520 400,519 399,518 399,517 398,516 398,515 397,514 397,513 396,512 395,511 394,510 393,509 392,508 391,507 390,507 389,506 388,505 387,504 386,504 385,503 384,503 383,502 382,502 381,502 380,501 379,501 378,501 377,501 376,501 375,501 374,501">
      <metadata tailDirection="" confidence="0.99" linkedToCharacter="" id="MomoyamaHaikagura_016_balloon_2" tailTip=""></metadata>
    </polygon>
    <polygon points="161,325 160,326 159,326 158,327 157,328 156,329 155,329 154,330 153,331 152,331 151,332 150,333 149,334 148,335 148,336 147,337 146,338 146,339 145,340 144,341 143,342 143,343 143,344 142,345 141,345 141,346 140,347 140,348 139,349 139,350 138,351 138,352 138,353 137,354 137,355 137,356 136,357 136,358 136,359 136,360 135,361 135,362 135,363 134,364 134,365 134,366 134,367 133,368 133,369 133,370 133,371 133,372 133,373 132,374 132,375 132,376 132,377 132,378 132,379 132,380 132,381 132,382 132,383 132,384 132,385 132,386 132,387 132,388 132,389 132,390 132,391 132,392 132,393 133,394 133,395 132,396 132,397 132,398 132,399 132,400 132,401 132,402 132,403 132,404 132,405 133,406 133,407 133,408 132,409 133,410 133,411 133,412 133,413 133,414 133,415 133,416 134,417 134,418 134,419 134,420 135,421 135,422 135,423 135,424 136,425 136,426 136,427 137,428 137,429 138,430 138,431 139,432 139,433 140,434 140,435 140,436 141,437 141,438 142,439 142,440 143,441 143,442 144,443 144,444 145,445 146,446 146,447 147,448 147,449 148,450 149,451 150,452 151,453 152,454 153,455 154,456 155,456 156,457 157,458 158,458 159,459 160,460 161,460 162,460 163,460 164,461 165,461 166,461 167,461 168,461 169,461 170,461 171,461 172,461 173,460 174,460 175,459 176,459 177,458 178,458 179,458 180,458 181,457 182,457 183,456 184,455 185,455 186,454 187,453 187,452 188,451 189,450 190,449 190,448 191,447 192,446 192,445 193,444 193,443 193,442 194,441 194,440 195,439 195,438 195,437 196,436 196,435 196,434 196,433 197,432 197,431 197,430 197,429 198,428 198,427 198,426 198,425 199,424 199,423 200,422 200,421 200,420 200,419 200,418 200,417 200,416 201,415 201,414 201,413 201,412 201,411 201,410 201,409 201,408 201,407 201,406 201,405 201,404 201,403 201,402 201,401 201,400 201,399 201,398 201,397 201,396 200,395 200,394 200,393 200,392 200,391 200,390 200,389 200,388 200,387 200,386 200,385 200,384 200,383 200,382 200,381 200,380 200,379 199,378 199,377 199,376 199,375 199,374 199,373 199,372 199,371 199,370 199,369 198,368 198,367 198,366 198,365 198,364 198,363 198,362 197,361 197,360 197,359 196,358 196,357 196,356 195,355 195,354 195,353 194,352 194,351 193,350 193,349 192,348 191,347 191,346 190,345 190,344 190,343 189,342 189,341 188,340 187,339 186,338 185,337 185,336 184,335 183,334 182,334 181,333 180,332 179,331 178,330 177,329 176,329 175,328 174,328 173,327 172,327 171,326 170,326 169,326 168,326 167,325 166,325 165,325 164,325 163,325 162,325 161,325">
      <metadata tailDirection="" confidence="0.88" linkedToCharacter="" id="MomoyamaHaikagura_016_balloon_3" tailTip=""></metadata>
    </polygon>
    <polygon points="728,35 727,36 726,36 725,36 724,37 723,37 722,37 721,38 720,38 719,39 718,40 717,40 716,41 715,42 714,42 713,43 712,43 711,44 710,44 709,45 708,46 707,47 706,48 705,49 704,50 703,51 702,52 702,53 701,54 701,55 700,56 699,57 699,58 699,59 699,60 698,61 697,61 696,60 697,61 697,62 696,63 696,64 695,65 694,64 695,65 695,66 695,67 694,68 694,69 693,70 692,71 693,72 693,73 693,74 692,75 692,76 692,77 692,78 692,79 691,80 691,81 691,82 691,83 691,84 690,85 690,86 690,87 690,88 690,89 690,90 690,91 690,92 689,93 689,94 689,95 689,96 689,97 689,98 689,99 689,100 689,101 689,102 689,103 689,104 690,105 691,106 691,107 690,108 689,108 688,107 687,106 686,105 685,104 684,103 683,103 682,102 681,102 680,101 679,100 678,99 677,99 676,98 675,97 674,96 673,95 672,95 671,94 670,94 669,94 668,94 667,93 666,94 665,94 664,94 663,94 662,94 661,95 660,95 659,95 658,96 657,96 656,96 655,96 654,96 653,97 652,97 651,97 650,97 649,97 648,97 647,98 646,99 645,99 644,98 643,99 642,100 641,101 640,101 639,100 640,99 640,98 639,97 638,96 637,95 636,94 636,93 637,92 637,91 636,91 635,90 634,91 633,90 633,89 632,89 631,88 630,88 629,87 628,87 627,86 626,86 625,85 624,85 623,84 622,84 621,83 620,83 619,83 618,82 617,82 616,81 615,81 614,80 613,80 612,79 611,79 610,78 609,78 608,77 609,78 608,79 607,80 606,81 606,82 605,83 604,83 603,84 602,84 601,83 600,82 600,81 601,80 602,79 603,78 604,77 605,76 604,76 603,77 602,78 601,79 600,80 599,81 598,80 597,79 596,78 595,77 594,76 593,75 594,74 595,73 596,72 595,71 594,71 593,71 592,71 591,70 590,69 589,69 588,69 587,69 586,68 587,69 587,70 586,71 585,72 584,73 583,72 582,71 581,70 581,69 582,68 583,67 582,67 582,68 581,69 580,69 579,68 578,67 577,66 576,65 575,65 574,65 573,65 572,65 571,65 570,65 569,65 568,65 567,65 566,64 565,64 564,64 563,64 562,64 561,65 560,66 559,67 558,68 557,69 556,69 555,68 555,67 554,66 554,65 555,64 556,63 555,64 554,65 553,65 552,64 551,64 550,63 551,64 552,65 553,66 552,67 551,68 550,69 549,69 548,68 547,67 546,66 545,65 544,64 543,65 542,64 542,63 541,63 540,62 539,62 538,62 537,61 537,62 536,63 535,62 534,61 533,60 532,60 531,59 530,58 529,57 528,56 527,56 527,57 527,58 528,59 528,60 527,61 526,62 527,61 528,60 529,60 530,60 531,61 531,62 532,63 531,64 530,65 529,66 528,67 527,68 526,69 526,70 526,71 526,72 525,73 525,74 526,75 525,76 525,77 525,78 525,79 525,80 525,81 525,82 525,83 525,84 525,85 525,86 525,87 526,87 527,88 527,89 528,90 528,91 527,92 526,93 525,94 524,95 525,94 526,93 527,92 528,91 529,91 530,91 531,92 532,93 532,94 531,95 530,96 529,97 528,98 527,99 526,100 525,99 525,100 525,101 524,102 525,103 525,104 525,105 524,106 525,107 525,108 525,109 525,110 525,111 525,112 525,113 525,114 525,115 525,116 525,117 526,118 527,119 528,120 528,121 527,122 526,123 526,124 527,123 528,122 529,121 530,122 531,123 532,124 532,125 531,126 530,127 529,128 528,129 527,130 526,131 526,132 526,133 527,134 527,135 527,136 527,137 527,138 527,139 527,140 527,141 527,142 528,143 528,144 529,145 529,146 530,146 531,147 530,148 529,148 529,149 529,150 529,151 529,152 530,153 531,154 532,155 531,156 530,157 531,158 531,159 531,160 531,161 532,162 532,163 532,164 532,165 533,165 534,164 535,163 536,162 537,161 538,161 539,162 540,163 541,164 542,165 543,166 544,167 543,168 542,169 541,170 540,171 539,172 538,173 537,173 536,172 535,171 534,170 533,169 533,170 532,171 531,170 531,169 531,168 530,167 530,166 530,165 530,164 529,163 529,162 529,161 529,160 528,159 528,158 528,157 528,156 528,155 527,154 527,153 527,152 527,151 526,150 526,149 526,148 526,147 526,146 525,145 525,144 525,143 525,142 525,141 525,140 525,139 524,138 524,137 524,136 524,135 524,134 524,133 524,132 524,131 524,130 523,129 523,128 523,127 523,126 523,125 523,124 523,123 523,122 523,121 523,120 523,119 523,118 523,117 523,116 522,115 522,114 522,113 522,112 522,111 522,110 522,109 522,108 522,107 522,106 522,105 522,104 522,103 522,102 522,101 522,100 522,99 522,98 522,97 522,96 522,95 522,94 522,93 522,92 522,91 522,90 522,89 522,88 522,87 522,86 522,85 522,84 522,83 522,82 522,81 523,80 523,79 523,78 523,77 523,76 523,75 523,74 523,73 523,72 523,71 523,70 523,69 523,68 523,67 523,68 523,69 523,70 522,71 522,72 522,73 522,74 522,75 521,76 521,77 521,78 521,79 520,80 520,81 520,82 520,83 519,84 519,85 519,86 519,87 519,88 518,89 518,90 518,91 518,92 517,93 517,94 517,95 517,96 517,97 516,98 516,99 516,100 516,101 516,102 516,103 515,104 515,105 515,106 515,107 515,108 514,109 514,110 514,111 514,112 514,113 514,114 514,115 513,116 513,117 513,118 513,119 513,120 513,121 513,122 513,123 513,124 513,125 513,126 513,127 514,128 514,129 514,130 514,131 514,132 514,133 514,134 514,135 514,136 514,137 514,138 515,139 515,140 515,141 515,142 515,143 515,144 515,145 515,146 516,147 516,148 516,149 516,150 516,151 516,152 516,153 517,154 517,155 517,156 517,157 517,158 517,159 518,160 518,161 518,162 518,163 518,164 519,165 519,166 519,167 519,168 519,169 520,170 520,171 520,172 521,173 521,174 521,175 521,176 522,177 522,178 522,179 523,180 523,181 523,182 523,183 524,184 524,185 525,186 525,187 525,188 526,189 527,190 528,190 529,191 530,191 531,192 531,193 530,194 529,193 528,193 527,192 526,192 527,193 527,194 528,195 529,196 530,197 530,198 530,199 529,200 530,199 531,199 531,198 531,197 530,197 529,196 529,195 530,194 531,193 532,194 533,195 533,196 533,195 533,194 532,193 533,192 534,192 535,192 536,193 537,192 538,192 539,193 540,193 541,193 541,192 540,191 539,190 539,189 538,188 537,187 537,186 537,185 538,184 539,185 540,186 540,187 541,188 541,189 542,190 543,191 544,192 544,193 545,194 545,195 546,196 546,197 547,198 548,199 548,200 549,201 550,202 550,203 551,204 552,205 552,206 553,207 554,208 555,209 556,210 557,211 558,212 559,213 559,214 560,214 561,215 562,216 563,217 562,218 562,219 562,220 563,221 564,222 564,223 565,224 565,225 566,225 567,224 568,223 569,223 570,224 571,225 572,226 573,227 574,228 574,229 573,230 573,231 572,232 571,232 571,233 572,232 573,231 574,230 575,229 576,230 577,231 578,232 578,233 577,234 576,235 575,236 574,237 573,238 574,239 575,240 575,241 576,242 576,243 577,244 578,245 579,246 580,247 581,248 582,249 583,250 583,251 582,252 582,253 583,252 584,251 585,252 586,253 587,254 587,255 586,256 585,256 585,257 584,258 583,257 584,258 584,259 585,260 585,261 586,262 586,263 587,264 587,265 588,266 589,267 589,268 590,268 591,269 590,270 590,271 590,272 591,273 592,274 592,275 592,276 593,277 593,278 594,279 594,280 594,281 595,282 595,283 596,284 596,285 597,286 598,285 599,284 600,284 601,285 602,286 602,287 603,287 604,288 604,289 605,288 605,287 604,286 604,285 603,284 602,283 601,282 602,281 603,281 604,282 605,283 606,284 606,285 606,284 606,283 607,282 607,281 606,280 605,279 605,278 606,277 607,276 608,275 609,275 610,274 610,273 611,272 612,271 612,270 612,269 613,268 614,269 615,269 616,270 617,270 618,269 619,270 619,271 618,272 617,272 616,273 615,274 614,274 613,274 612,275 612,276 611,277 611,278 610,279 610,280 610,281 610,282 609,283 609,284 609,285 608,286 608,287 607,288 607,289 607,290 606,291 607,292 608,293 609,293 610,294 611,295 611,294 611,293 611,292 611,291 611,290 611,289 611,288 611,287 611,286 612,285 612,284 612,283 612,282 613,281 614,282 614,283 614,284 614,285 614,286 614,287 614,288 614,289 614,290 614,291 614,292 614,293 614,294 614,295 614,296 614,297 615,297 616,297 617,297 618,297 618,296 618,295 617,294 617,293 617,292 617,291 617,290 618,289 618,288 618,287 618,286 618,285 618,284 619,283 620,284 620,285 620,286 620,287 620,288 620,289 620,290 620,291 620,292 620,293 620,294 620,295 620,296 620,297 621,297 622,297 623,297 624,297 624,296 624,295 624,294 624,293 624,292 624,291 624,290 624,289 624,288 624,287 624,286 625,285 626,286 626,287 626,288 627,289 627,290 627,291 627,292 627,293 627,294 627,295 627,296 627,297 628,297 629,298 630,298 631,298 632,298 633,298 634,297 635,297 636,297 637,297 636,297 635,296 634,296 633,296 632,296 631,296 630,295 629,294 628,293 628,292 629,291 629,290 629,289 630,288 630,287 630,286 631,285 631,284 632,283 633,283 633,282 634,281 635,280 636,279 637,278 638,277 638,276 639,275 640,274 641,273 642,273 643,272 643,271 643,270 643,269 643,268 643,267 643,266 644,265 645,265 646,266 646,267 646,268 646,269 647,270 648,271 649,272 650,273 651,274 652,275 651,276 650,277 649,278 648,279 647,280 646,281 645,281 644,280 643,279 642,278 642,277 641,278 642,278 643,279 644,280 645,281 645,282 644,283 643,284 642,285 641,284 640,283 639,282 638,282 637,283 637,284 636,285 635,285 634,286 633,287 634,288 635,289 636,290 636,291 635,292 634,293 633,294 634,293 635,292 636,291 637,291 638,292 639,293 640,294 639,295 640,296 640,297 640,298 639,299 639,300 639,301 640,301 641,301 642,301 643,301 644,301 645,300 646,300 647,301 648,301 649,301 650,301 651,301 652,300 653,300 654,301 655,301 656,301 657,301 658,301 658,300 659,299 660,298 661,297 662,298 663,299 664,300 664,301 665,301 666,302 666,301 667,300 668,301 668,300 668,299 669,298 670,299 670,300 670,301 671,301 672,301 673,302 674,301 675,301 676,300 677,300 678,301 679,301 680,301 681,301 682,301 683,300 684,300 685,301 686,301 687,302 688,301 689,301 689,300 689,299 690,298 691,297 692,297 693,298 694,299 695,300 695,301 696,301 697,302 698,301 699,301 699,300 699,299 700,298 701,297 702,298 703,299 702,300 701,301 702,300 703,301 704,301 705,301 706,300 707,299 708,300 709,301 710,301 711,301 712,301 713,301 712,300 711,301 710,300 710,299 710,298 711,297 712,297 713,298 714,297 715,297 714,297 713,296 712,295 713,294 713,293 712,292 711,291 710,290 710,289 710,288 709,287 708,288 707,288 706,287 705,286 704,285 705,284 706,283 706,282 705,283 704,284 703,285 702,284 702,283 701,283 700,282 700,281 699,280 698,279 697,278 698,277 699,277 699,276 700,275 701,275 702,276 703,277 704,278 703,277 702,276 701,275 701,274 700,273 699,272 698,271 697,270 697,269 696,269 695,269 694,268 693,267 692,266 693,265 693,264 692,265 691,265 690,264 689,263 688,262 687,261 686,260 685,260 684,259 685,258 686,257 687,256 687,255 688,254 689,253 690,252 691,251 692,250 692,249 693,248 693,247 694,246 694,245 695,244 695,243 696,242 696,241 697,240 697,239 697,238 697,237 697,236 698,235 698,234 698,233 698,232 699,231 699,230 699,229 699,228 699,227 699,226 700,225 700,224 700,223 700,222 700,221 700,220 700,219 700,218 700,217 700,216 700,215 700,214 700,213 701,212 701,211 701,210 702,209 703,209 704,210 705,210 706,210 707,211 708,211 709,212 710,213 711,213 712,214 713,214 714,215 715,215 716,216 717,216 718,217 719,217 720,217 721,217 722,217 723,217 724,217 725,217 726,217 727,218 728,218 729,218 730,218 731,218 732,219 733,219 734,219 735,220 736,220 737,220 738,220 739,221 740,221 741,221 742,222 743,222 744,221 745,220 746,219 747,219 748,218 749,217 750,217 751,216 752,215 753,214 754,213 755,212 756,211 757,210 758,209 759,208 760,207 761,206 761,205 762,204 763,203 764,202 765,201 765,200 766,199 767,198 767,197 768,196 768,195 768,194 768,193 769,192 769,191 769,190 769,189 769,188 769,187 770,186 770,185 770,184 770,183 770,182 770,181 770,180 770,179 771,178 770,177 771,176 770,175 771,174 771,173 771,172 771,171 771,170 771,169 771,168 771,167 772,166 771,165 771,164 772,163 772,162 773,161 773,160 773,159 773,158 773,157 773,156 773,155 773,154 774,153 774,152 774,151 774,150 774,149 774,148 774,147 774,146 774,145 774,144 774,143 774,142 774,141 774,140 774,139 774,138 774,137 774,136 774,135 774,134 775,133 775,132 775,131 775,130 775,129 775,128 775,127 775,126 775,125 776,124 776,123 776,122 776,121 776,120 776,119 776,118 776,117 776,116 776,115 776,114 776,113 776,112 776,111 776,110 776,109 776,108 776,107 776,106 776,105 776,104 776,103 776,102 776,101 776,100 776,99 776,98 776,97 776,96 776,95 776,94 776,93 776,92 776,91 776,90 776,89 776,88 776,87 777,86 777,85 776,84 776,83 776,82 776,81 776,80 776,79 775,78 775,77 775,76 774,75 774,74 774,73 773,72 773,71 773,70 772,69 772,68 772,67 771,66 771,65 770,64 770,63 770,62 769,61 769,60 769,59 768,58 768,57 768,56 767,55 767,54 766,53 766,52 765,51 765,50 764,49 764,48 764,47 763,46 762,45 761,44 761,43 760,43 759,43 758,42 757,42 756,42 755,42 754,41 753,41 752,40 751,40 750,40 749,39 748,39 747,39 746,39 745,38 744,38 743,38 742,38 741,37 740,37 739,37 738,36 737,36 736,36 735,35 734,35 733,35 732,35 731,35 730,35 729,35 728,35">
      <metadata tailDirection="" confidence="0.81" linkedToCharacter="" id="MomoyamaHaikagura_016_balloon_4" tailTip=""></metadata>
    </polygon>
  </svg>
</svg>
