<?xml version="1.0" encoding="UTF-8" standalone="no"?>
<svg width="827" xmlns="http://www.w3.org/2000/svg" version="1.0" height="1170">
  <title>MomoyamaHaikagura_055</title>
  <svg contentScriptType="text/ecmascript" zoomAndPan="magnify" contentStyleType="text/css" class="Page" preserveAspectRatio="xMidYMid meet" version="1.0">
    <image xmlns:xlink="http://www.w3.org/1999/xlink" x="0" y="0" width="827" height="1170" xlink:href="./../../dataset_Manga109/MomoyamaHaikagura/MomoyamaHaikagura_055.jpg" xlink:type="simple" xlink:actuate="onLoad" preserveAspectRatio="xMidYMid meet" xlink:show="embed"/>
  </svg>
  <style type="text/css" xml:space="preserve">
        * { stroke-linejoin: round; }
        .Unclassified   { fill: orange; stroke: none;   opacity: 1.0; visibility: hidden; }
        .Noise          { fill: pink;   stroke: none;   opacity: 0.2; visibility: hidden; }
        .Panel          { fill: none;   stroke: red;    stroke-width:3; opacity: 0.5; visibility: visible; image-rendering: optimizeSpeed; }
        .Line           { fill: green;  stroke: none;   opacity: 0.5; visibility: visible; image-rendering: optimizeSpeed; }
        .TextArea       { fill: grey;   stroke: none;   opacity: 0.2; visibility: visible; image-rendering: optimizeSpeed; }
        .Balloon        { fill: cyan;   stroke: none;   opacity: 0.5; visibility: visible; image-rendering: optimizeSpeed; }
        .Letter         { fill: blue;   stroke: none;   opacity: 0.2; visibility: hidden; }
        .Object, .Character, .Face  { fill: yellow; stroke: none;   opacity: 0.5; visibility: visible; image-rendering: optimizeSpeed; }
        .Page           { fill: white;  stroke: none;    opacity: 0.5; visibility: visible; }
        .linkSBSC { fill: blue; stroke: none; opacity: 1.0; visibility: visible; }
        polygon:hover { opacity:1.0; stroke:red; }
</style>
  <svg xmlns="http://www.w3.org/2000/svg" contentScriptType="text/ecmascript" zoomAndPan="magnify" contentStyleType="text/css" class="Balloon" preserveAspectRatio="xMidYMid meet" version="1.0">
    <polygon points="329,892 328,893 327,893 326,893 325,893 324,893 323,894 322,894 321,894 320,894 319,894 318,894 317,895 316,895 315,896 314,896 313,897 312,897 311,897 310,898 309,898 308,899 307,899 306,900 305,901 304,901 303,901 302,902 301,902 300,903 299,904 298,905 297,906 296,906 295,907 294,908 293,909 292,909 291,910 290,911 289,912 288,913 287,914 286,915 285,916 284,917 283,918 283,919 282,920 282,921 281,922 280,923 279,924 278,925 278,926 278,927 277,928 277,929 276,930 275,931 275,932 275,933 274,934 274,935 273,936 273,937 272,938 272,939 271,940 271,941 270,942 270,943 269,944 269,945 268,946 268,947 268,948 267,949 267,950 266,951 266,952 266,953 265,954 265,955 265,956 264,957 264,958 264,959 263,960 263,961 263,962 263,963 262,964 262,965 262,966 261,967 261,968 261,969 261,970 260,971 260,972 260,973 259,974 259,975 259,976 259,977 259,978 258,979 258,980 258,981 258,982 258,983 258,984 258,985 257,986 257,987 257,988 257,989 257,990 257,991 257,992 257,993 256,994 256,995 256,996 256,997 256,998 256,999 256,1000 256,1001 256,1002 256,1003 255,1004 255,1005 255,1006 255,1007 255,1008 255,1009 255,1010 255,1011 255,1012 255,1013 255,1014 255,1015 255,1016 254,1017 254,1018 254,1019 254,1020 254,1021 254,1022 254,1023 254,1024 254,1025 254,1026 254,1027 255,1028 255,1029 254,1030 255,1031 255,1032 255,1033 255,1034 255,1035 255,1036 255,1037 255,1038 255,1039 255,1040 255,1041 255,1042 255,1043 256,1044 256,1045 256,1046 256,1047 256,1048 256,1049 256,1050 256,1051 256,1052 256,1053 256,1054 256,1055 256,1056 257,1057 257,1058 257,1059 257,1060 257,1061 257,1062 257,1063 257,1064 257,1065 258,1066 258,1067 258,1068 258,1069 258,1070 258,1071 259,1072 259,1073 259,1074 259,1075 259,1076 260,1077 260,1078 260,1079 260,1080 261,1081 261,1082 261,1083 261,1084 262,1085 262,1086 262,1087 263,1088 263,1089 263,1090 264,1091 264,1092 264,1093 265,1094 265,1095 265,1096 266,1097 266,1098 267,1099 267,1100 268,1101 268,1102 269,1103 269,1104 270,1105 270,1106 271,1107 272,1108 272,1109 273,1110 274,1111 274,1112 275,1113 275,1114 276,1115 277,1116 278,1117 279,1118 279,1119 280,1120 281,1121 282,1122 283,1123 284,1124 285,1125 286,1126 287,1127 288,1128 289,1128 290,1129 291,1130 292,1131 293,1131 294,1131 295,1132 296,1133 297,1134 298,1134 299,1135 300,1136 301,1136 302,1137 303,1137 304,1138 305,1138 306,1139 307,1139 308,1139 309,1140 310,1140 311,1140 312,1140 313,1141 314,1141 315,1142 316,1142 317,1142 318,1142 319,1143 320,1143 321,1143 322,1143 323,1144 324,1144 325,1144 326,1144 327,1144 328,1144 329,1144 330,1145 331,1145 332,1145 333,1145 334,1145 335,1145 336,1145 337,1145 338,1145 339,1145 340,1145 341,1145 342,1145 343,1144 344,1144 345,1144 346,1144 347,1144 348,1144 349,1143 350,1143 351,1143 352,1142 353,1142 354,1141 355,1141 356,1140 357,1140 358,1139 359,1139 360,1138 361,1138 362,1137 363,1137 364,1136 365,1135 366,1135 367,1134 368,1133 369,1132 370,1132 371,1131 372,1130 373,1129 374,1128 375,1127 376,1126 377,1125 378,1124 379,1123 379,1122 380,1121 381,1120 381,1119 382,1118 383,1117 383,1116 384,1115 384,1114 385,1113 386,1112 386,1111 387,1110 387,1109 388,1108 388,1107 389,1106 389,1105 390,1104 390,1103 391,1102 391,1101 392,1100 392,1099 393,1098 393,1097 394,1096 394,1095 395,1094 395,1093 396,1092 396,1091 396,1090 397,1089 397,1088 397,1087 398,1086 398,1085 399,1084 399,1083 399,1082 400,1081 400,1080 400,1079 400,1078 400,1077 400,1076 401,1075 401,1074 401,1073 401,1072 401,1071 401,1070 401,1069 402,1068 402,1067 402,1066 402,1065 402,1064 402,1063 403,1062 403,1061 403,1060 403,1059 403,1058 403,1057 404,1056 404,1055 404,1054 404,1053 404,1052 404,1051 404,1050 404,1049 405,1048 405,1047 405,1046 405,1045 405,1044 405,1043 405,1042 405,1041 405,1040 405,1039 405,1038 406,1037 406,1036 406,1035 406,1034 406,1033 406,1032 406,1031 406,1030 406,1029 406,1028 406,1027 406,1026 406,1025 406,1024 407,1023 407,1022 406,1021 406,1020 406,1019 406,1018 406,1017 406,1016 406,1015 406,1014 406,1013 406,1012 406,1011 406,1010 406,1009 406,1008 407,1007 407,1006 406,1005 406,1004 406,1003 406,1002 407,1001 407,1000 407,999 407,998 407,997 408,996 408,995 409,994 409,993 408,992 407,991 407,990 407,989 407,988 407,987 406,986 406,985 406,984 406,983 406,982 406,981 406,980 406,979 406,978 406,977 406,976 406,975 406,974 406,973 406,972 406,971 405,970 405,969 405,968 405,967 405,966 404,965 404,964 404,963 404,962 403,961 403,960 403,959 403,958 403,957 402,956 402,955 402,954 402,953 401,952 401,951 401,950 401,949 400,948 400,947 400,946 399,945 399,944 398,943 398,942 398,941 397,940 397,939 396,938 396,937 395,936 395,935 394,934 394,933 394,932 393,931 393,930 392,929 391,928 391,927 390,926 390,925 389,924 388,923 388,922 387,921 386,920 385,919 384,918 383,917 382,916 381,915 380,914 380,913 379,912 378,911 377,910 376,910 375,909 374,908 373,907 372,906 371,906 370,905 369,904 368,903 367,903 366,902 365,901 364,901 363,900 362,899 361,899 360,898 359,898 358,897 357,897 356,896 355,896 354,895 353,895 352,895 351,894 350,894 349,894 348,894 347,894 346,894 345,893 344,893 343,893 342,893 341,893 340,893 339,893 338,893 337,893 336,893 335,893 334,893 333,893 332,893 331,892 330,892 329,892">
      <metadata tailDirection="" confidence="0.90" linkedToCharacter="" id="MomoyamaHaikagura_055_balloon_0" tailTip=""></metadata>
    </polygon>
    <polygon points="667,890 666,891 665,891 664,891 663,892 662,892 661,892 660,893 659,893 658,893 657,894 656,894 655,894 654,895 653,895 652,895 651,896 650,897 649,897 648,898 647,898 646,898 645,899 644,900 643,900 642,901 641,901 640,902 639,902 638,903 637,904 636,904 635,905 634,906 633,907 632,908 631,908 630,909 630,910 629,911 628,912 628,913 627,914 626,915 626,916 625,917 625,918 624,919 624,920 623,921 622,922 622,923 621,924 621,925 620,926 620,927 619,928 619,929 619,930 618,931 617,932 617,933 616,934 616,935 615,936 615,937 614,938 614,939 613,940 612,941 612,942 611,943 611,944 611,945 610,946 610,947 610,948 609,949 609,950 609,951 608,952 608,953 608,954 608,955 607,956 607,957 607,958 607,959 606,960 606,961 606,962 606,963 606,964 605,965 605,966 605,967 605,968 604,969 604,970 604,971 604,972 604,973 604,974 604,975 604,976 604,977 603,978 603,979 603,980 603,981 603,982 603,983 603,984 603,985 603,986 603,987 603,988 603,989 603,990 603,991 603,992 603,993 603,994 603,995 603,996 603,997 603,998 603,999 603,1000 603,1001 603,1002 603,1003 603,1004 603,1005 603,1006 603,1007 603,1008 603,1009 604,1010 604,1011 604,1012 604,1013 604,1014 604,1015 604,1016 604,1017 604,1018 604,1019 605,1020 605,1021 605,1022 605,1023 605,1024 605,1025 606,1026 606,1027 606,1028 606,1029 606,1030 607,1031 607,1032 607,1033 607,1034 608,1035 608,1036 608,1037 609,1038 609,1039 609,1040 610,1041 610,1042 610,1043 611,1044 611,1045 612,1046 612,1047 612,1048 613,1049 613,1050 614,1051 614,1052 614,1053 615,1054 615,1055 616,1056 616,1057 617,1058 617,1059 618,1060 618,1061 619,1062 619,1063 620,1064 620,1065 621,1066 621,1067 622,1068 623,1069 623,1070 624,1071 625,1072 625,1073 626,1074 627,1075 628,1076 628,1077 629,1078 630,1079 631,1080 631,1081 632,1082 633,1083 634,1084 635,1085 636,1086 637,1087 638,1088 639,1089 640,1089 641,1090 642,1091 643,1091 644,1092 645,1092 646,1093 647,1093 648,1094 649,1094 650,1095 651,1095 652,1096 653,1096 654,1097 655,1097 656,1098 657,1098 658,1098 659,1099 660,1099 661,1099 662,1099 663,1100 664,1100 665,1100 666,1101 667,1101 668,1101 669,1101 670,1101 671,1102 672,1102 673,1102 674,1102 675,1102 676,1103 677,1103 678,1103 679,1103 680,1103 681,1103 682,1103 683,1104 684,1104 685,1104 686,1104 687,1103 688,1103 689,1103 690,1103 691,1103 692,1103 693,1102 694,1102 695,1102 696,1102 697,1102 698,1102 699,1101 700,1101 701,1101 702,1100 703,1100 704,1099 705,1098 706,1098 707,1097 708,1096 709,1096 710,1095 711,1095 712,1094 713,1093 714,1092 715,1091 716,1090 717,1089 718,1088 719,1087 720,1086 721,1085 722,1084 723,1083 724,1082 725,1081 726,1080 726,1079 727,1078 728,1077 729,1076 730,1075 730,1074 731,1073 732,1072 733,1071 733,1070 734,1069 734,1068 735,1067 736,1066 737,1065 737,1064 738,1063 738,1062 739,1061 739,1060 740,1059 741,1058 741,1057 741,1056 742,1055 742,1054 743,1053 743,1052 744,1051 744,1050 745,1049 745,1048 746,1047 746,1046 747,1045 747,1044 748,1043 748,1042 748,1041 749,1040 749,1039 749,1038 750,1037 750,1036 750,1035 750,1034 750,1033 751,1032 751,1031 751,1030 751,1029 751,1028 751,1027 752,1026 752,1025 752,1024 752,1023 752,1022 752,1021 753,1020 753,1019 753,1018 753,1017 753,1016 754,1015 754,1014 754,1013 754,1012 754,1011 754,1010 754,1009 755,1008 755,1007 755,1006 755,1005 755,1004 755,1003 755,1002 755,1001 755,1000 756,999 756,998 756,997 756,996 756,995 756,994 756,993 756,992 756,991 756,990 756,989 756,988 756,987 756,986 756,985 756,984 756,983 756,982 756,981 756,980 756,979 756,978 756,977 756,976 755,975 755,974 755,973 755,972 755,971 755,970 755,969 755,968 755,967 754,966 754,965 754,964 754,963 754,962 754,961 753,960 753,959 753,958 753,957 753,956 753,955 752,954 752,953 752,952 752,951 751,950 751,949 750,948 750,947 750,946 749,945 749,944 748,943 748,942 748,941 748,940 747,939 747,938 747,937 746,936 746,935 745,934 745,933 745,932 744,931 744,930 743,929 743,928 742,927 741,926 741,925 740,924 740,923 739,922 739,921 738,920 738,919 737,918 736,917 736,916 735,915 734,914 733,913 732,912 731,911 730,910 729,909 728,908 727,907 726,907 725,906 724,905 723,904 722,904 721,903 720,902 719,902 718,901 717,901 716,900 715,899 714,899 713,898 712,898 711,897 710,897 709,896 708,896 707,895 706,894 705,894 704,894 703,893 702,893 701,893 700,892 699,892 698,892 697,892 696,892 695,892 694,891 693,891 692,891 691,891 690,891 689,891 688,891 687,890 686,890 685,890 684,890 683,890 682,890 681,890 680,890 679,890 678,890 677,890 676,890 675,890 674,890 673,890 672,890 671,890 670,890 669,890 668,890 667,890">
      <metadata tailDirection="" confidence="0.92" linkedToCharacter="" id="MomoyamaHaikagura_055_balloon_1" tailTip=""></metadata>
    </polygon>
    <polygon points="635,693 634,694 633,694 632,694 631,694 630,694 629,694 628,694 627,694 626,695 625,695 624,695 623,695 622,696 621,696 620,697 619,697 618,698 617,699 616,700 615,700 614,701 613,702 612,703 612,704 611,705 610,706 609,707 609,708 608,709 607,710 606,711 606,712 605,713 605,714 604,715 604,716 604,717 603,718 603,719 602,720 602,721 602,722 601,723 601,724 601,725 600,726 600,727 600,728 600,729 599,730 599,731 599,732 599,733 598,734 598,735 598,736 598,737 597,738 597,739 597,740 597,741 597,742 597,743 596,744 596,745 596,746 596,747 596,748 596,749 595,750 595,751 595,752 595,753 595,754 595,755 595,756 595,757 595,758 595,759 595,760 595,761 595,762 595,763 595,764 595,765 595,766 595,767 595,768 595,769 596,770 595,771 596,772 596,773 596,774 596,775 596,776 596,777 597,778 597,779 597,780 597,781 598,782 598,783 598,784 599,785 599,786 599,787 600,788 600,789 600,790 600,791 601,792 601,793 601,794 602,795 602,796 602,797 603,798 603,799 604,800 604,801 605,802 605,803 606,804 606,805 607,806 608,807 608,808 609,809 610,810 610,811 611,812 612,813 613,814 614,815 615,816 616,817 617,817 618,818 619,819 620,820 621,820 622,821 623,822 624,822 625,822 626,823 627,823 628,824 629,824 630,824 631,824 632,824 633,824 634,824 635,824 636,824 637,824 638,823 639,823 640,823 641,823 642,822 643,821 644,821 645,820 646,819 647,818 648,817 649,816 650,815 650,814 651,813 652,812 653,811 654,810 655,809 656,808 656,807 657,806 657,805 657,804 658,803 659,802 660,801 660,800 660,799 661,798 662,797 662,796 662,795 663,794 663,793 663,792 664,791 664,790 665,789 665,788 665,787 665,786 665,785 666,784 666,783 666,782 666,781 667,780 667,779 667,778 667,777 667,776 668,775 668,774 668,773 668,772 668,771 668,770 669,769 668,768 669,767 669,766 669,765 669,764 669,763 669,762 669,761 669,760 669,759 669,758 669,757 669,756 669,755 669,754 669,753 669,752 669,751 669,750 669,749 669,748 669,747 669,746 669,745 669,744 668,743 668,742 668,741 668,740 668,739 668,738 668,737 668,736 668,735 668,734 667,733 667,732 667,731 666,730 666,729 666,728 666,727 665,726 665,725 665,724 664,723 664,722 664,721 663,720 663,719 662,718 662,717 661,716 661,715 661,714 660,713 660,712 659,711 659,710 658,709 658,708 657,707 656,706 655,705 655,704 654,704 653,703 652,702 652,701 651,701 650,700 649,699 648,698 647,698 646,697 645,696 644,696 643,696 642,695 641,695 640,694 639,694 638,694 637,694 636,694 635,693">
      <metadata tailDirection="" confidence="0.99" linkedToCharacter="" id="MomoyamaHaikagura_055_balloon_2" tailTip=""></metadata>
    </polygon>
    <polygon points="124,660 123,661 122,661 121,661 120,661 119,661 118,661 117,661 116,662 115,662 114,662 113,662 112,663 111,663 110,663 109,664 108,664 107,664 106,665 105,665 104,665 103,665 102,666 101,666 100,667 99,667 98,667 97,668 96,668 95,669 94,670 93,671 92,671 91,672 90,673 89,674 88,675 87,676 86,677 85,678 84,679 83,680 82,681 81,682 80,683 79,684 79,685 78,686 77,687 77,688 76,689 75,690 75,691 74,692 73,693 73,694 72,695 71,696 71,697 70,698 70,699 69,700 69,701 68,702 68,703 67,704 67,705 67,706 67,707 66,708 66,709 66,710 65,711 65,712 64,713 64,714 64,715 64,716 63,717 63,718 63,719 63,720 62,721 62,722 62,723 62,724 62,725 61,726 61,727 61,728 61,729 61,730 60,731 60,732 60,733 60,734 60,735 60,736 60,737 60,738 60,739 60,740 60,741 59,742 59,743 59,744 59,745 59,746 59,747 59,748 59,749 59,750 59,751 59,752 59,753 59,754 59,755 59,756 59,757 59,758 59,759 59,760 59,761 59,762 58,763 58,764 58,765 58,766 59,767 59,768 59,769 59,770 59,771 59,772 59,773 59,774 59,775 59,776 59,777 59,778 59,779 59,780 59,781 59,782 59,783 59,784 59,785 60,786 60,787 60,788 60,789 60,790 60,791 60,792 60,793 60,794 61,795 61,796 61,797 61,798 61,799 61,800 62,801 62,802 62,803 62,804 62,805 63,806 63,807 63,808 64,809 64,810 64,811 65,812 65,813 66,814 66,815 66,816 67,817 67,818 67,819 68,820 68,821 69,822 69,823 70,824 70,825 71,826 71,827 71,828 72,829 73,830 73,831 74,832 74,833 75,834 75,835 76,836 77,837 77,838 78,839 79,840 79,841 80,842 80,843 81,844 82,845 83,846 84,847 85,848 86,849 87,850 88,851 89,852 90,852 91,853 92,854 93,854 94,855 95,856 96,856 97,857 98,858 99,858 100,858 101,859 102,859 103,860 104,860 105,861 106,861 107,862 108,862 109,862 110,863 111,863 112,863 113,864 114,864 115,864 116,864 117,865 118,865 119,865 120,865 121,865 122,865 123,865 124,866 125,866 126,865 127,865 128,865 129,865 130,866 131,866 132,865 133,865 134,865 135,865 136,865 137,865 138,865 139,865 140,865 141,865 142,865 143,865 144,864 145,864 146,864 147,864 148,864 149,864 150,863 151,863 152,863 153,862 154,862 155,861 156,861 157,861 158,860 159,860 160,859 161,859 162,858 163,857 164,856 165,855 166,855 167,854 168,853 169,852 170,851 171,850 172,849 173,848 174,847 175,846 176,845 177,844 177,843 178,842 179,841 180,840 180,839 181,838 182,838 182,837 183,836 183,835 184,834 184,833 185,832 185,831 186,830 186,829 187,828 187,827 188,826 188,825 188,824 189,823 189,822 189,821 189,820 190,819 190,818 190,817 191,816 191,815 192,814 192,813 192,812 193,811 193,810 193,809 194,808 194,807 194,806 194,805 195,804 195,803 195,802 195,801 195,800 195,799 196,798 196,797 196,796 196,795 197,794 197,793 197,792 197,791 197,790 197,789 197,788 197,787 198,786 198,785 198,784 198,783 198,782 198,781 198,780 198,779 198,778 198,777 198,776 199,775 199,774 199,773 199,772 199,771 199,770 199,769 199,768 199,767 199,766 199,765 199,764 199,763 199,762 199,761 199,760 199,759 199,758 199,757 199,756 199,755 199,754 199,753 199,752 199,751 199,750 199,749 199,748 199,747 199,746 199,745 199,744 199,743 199,742 199,741 199,740 198,739 198,738 198,737 198,736 198,735 198,734 198,733 197,732 197,731 197,730 197,729 197,728 197,727 197,726 197,725 196,724 196,723 196,722 196,721 196,720 195,719 195,718 195,717 195,716 194,715 194,714 193,713 193,712 193,711 192,710 192,709 191,708 191,707 191,706 190,705 190,704 189,703 189,702 189,701 188,700 188,699 187,698 187,697 186,696 186,695 185,694 185,693 184,692 184,691 183,690 182,689 182,688 181,687 180,686 180,685 179,684 178,683 177,682 177,681 176,680 175,679 174,678 173,677 172,677 171,676 170,675 169,675 168,674 167,673 166,673 165,672 164,671 163,671 162,670 161,670 160,669 159,669 158,669 157,668 156,668 155,667 154,667 153,666 152,666 151,666 150,665 149,665 148,665 147,664 146,664 145,664 144,663 143,663 142,663 141,663 140,662 139,662 138,662 137,662 136,661 135,661 134,661 133,661 132,661 131,661 130,661 129,660 128,660 127,661 126,660 125,661 124,660">
      <metadata tailDirection="" confidence="0.96" linkedToCharacter="" id="MomoyamaHaikagura_055_balloon_3" tailTip=""></metadata>
    </polygon>
    <polygon points="186,221 185,222 184,222 183,222 182,222 181,222 180,222 179,223 178,223 177,223 176,223 175,224 174,224 173,224 172,225 171,226 170,226 169,227 168,227 167,228 166,229 165,230 164,230 163,231 162,232 161,233 160,234 159,235 158,236 157,237 156,238 155,239 154,240 154,241 153,242 152,243 151,244 150,245 150,246 149,247 149,248 148,249 147,250 147,251 146,252 146,253 145,254 144,255 144,256 144,257 143,258 143,259 143,260 142,261 142,262 142,263 142,264 142,265 141,266 141,267 141,268 140,269 140,270 140,271 139,272 139,273 139,274 139,275 138,276 138,277 138,278 137,279 137,280 137,281 136,282 136,283 136,284 135,285 135,286 135,287 135,288 134,289 134,290 134,291 134,292 134,293 133,294 133,295 133,296 133,297 133,298 132,299 132,300 132,301 132,302 132,303 132,304 132,305 132,306 131,307 131,308 131,309 131,310 131,311 131,312 131,313 131,314 130,315 130,316 130,317 130,318 130,319 130,320 130,321 130,322 130,323 129,324 129,325 129,326 129,327 129,328 129,329 129,330 129,331 129,332 129,333 129,334 129,335 129,336 129,337 129,338 129,339 129,340 129,341 129,342 129,343 129,344 129,345 129,346 129,347 129,348 129,349 129,350 129,351 128,352 129,353 129,354 129,355 128,356 128,357 128,358 129,359 128,360 128,361 129,362 129,363 129,364 129,365 129,366 129,367 129,368 129,369 129,370 129,371 129,372 130,373 130,374 130,375 130,376 130,377 130,378 130,379 130,380 131,381 131,382 131,383 131,384 131,385 131,386 131,387 131,388 132,389 132,390 132,391 132,392 132,393 132,394 133,395 133,396 133,397 133,398 133,399 133,400 133,401 134,402 134,403 134,404 134,405 135,406 135,407 135,408 135,409 136,410 136,411 136,412 136,413 136,414 137,415 137,416 137,417 138,418 138,419 138,420 138,421 139,422 139,423 139,424 140,425 140,426 140,427 140,428 141,429 141,430 141,431 142,432 142,433 143,434 143,435 144,436 144,437 144,438 145,439 146,440 146,441 146,442 147,443 147,444 147,445 148,446 149,447 149,448 149,449 150,450 151,451 151,452 152,453 152,454 153,455 154,456 154,457 155,458 156,459 157,460 157,461 158,461 159,462 159,463 160,464 161,463 162,464 162,465 162,466 163,467 164,468 165,469 166,470 167,471 168,471 169,472 170,472 171,473 172,473 173,474 174,474 175,475 176,476 177,476 178,476 179,476 180,476 181,476 182,476 183,476 184,476 185,476 186,476 187,476 188,476 189,476 190,476 191,476 192,476 193,476 194,476 195,476 196,476 197,476 198,476 199,476 200,476 201,476 202,476 203,476 204,476 205,476 206,476 207,476 208,476 209,476 210,476 211,476 212,475 213,476 214,476 215,475 216,474 217,473 218,472 219,471 220,470 221,469 222,468 223,467 223,466 224,465 225,464 226,463 226,462 227,461 228,460 228,459 229,458 229,457 230,456 231,455 231,454 232,453 232,452 233,451 233,450 233,449 234,448 234,447 235,446 235,445 235,444 235,443 235,442 235,441 236,440 237,441 237,440 238,439 238,438 238,437 238,436 239,435 239,434 239,433 240,432 240,431 240,430 241,429 241,428 241,427 242,426 242,425 242,424 243,423 243,422 243,421 243,420 243,419 243,418 243,417 244,416 244,415 244,414 244,413 245,412 245,411 245,410 245,409 245,408 246,407 246,406 246,405 246,404 246,403 246,402 247,401 247,400 247,399 247,398 247,397 248,396 248,395 248,394 249,393 249,392 249,391 249,390 250,389 250,388 251,387 250,387 249,386 248,385 248,384 248,383 248,382 248,381 248,380 248,379 248,378 248,377 248,376 248,375 248,374 248,373 248,372 248,371 248,370 248,369 248,368 248,367 248,366 248,365 248,364 248,363 249,362 249,361 249,360 249,359 248,358 249,357 248,356 248,355 248,354 249,353 248,352 249,351 249,350 249,349 249,348 249,347 248,346 248,345 248,344 248,343 248,342 248,341 248,340 248,339 248,338 248,337 248,336 248,335 248,334 248,333 248,332 247,331 247,330 247,329 247,328 247,327 247,326 247,325 247,324 246,323 246,322 246,321 246,320 246,319 246,318 246,317 246,316 246,315 246,314 245,313 245,312 245,311 245,310 245,309 245,308 245,307 245,306 245,305 245,304 244,303 244,302 244,301 244,300 244,299 244,298 243,297 243,296 243,295 243,294 243,293 242,292 242,291 242,290 242,289 241,288 241,287 241,286 241,285 240,284 240,283 240,282 239,281 239,280 238,279 238,278 238,277 238,276 237,275 237,274 237,273 236,272 236,271 236,270 235,269 235,268 235,267 234,266 234,265 233,264 233,263 233,262 233,261 232,260 232,259 231,258 231,257 231,256 230,255 230,254 230,253 229,252 229,251 228,250 228,249 227,248 227,247 226,246 226,245 225,244 224,243 224,242 223,241 222,240 221,239 220,238 219,237 218,236 217,235 216,234 215,233 214,232 213,231 212,231 211,230 210,229 209,228 208,227 207,227 206,227 205,226 204,225 203,225 202,224 201,224 200,223 199,223 198,223 197,223 196,222 195,222 194,222 193,222 192,222 191,222 190,222 189,222 188,221 187,221 186,221">
      <metadata tailDirection="" confidence="0.92" linkedToCharacter="" id="MomoyamaHaikagura_055_balloon_4" tailTip=""></metadata>
    </polygon>
    <polygon points="382,104 381,105 380,105 379,105 378,105 377,105 376,105 375,105 374,106 373,106 372,107 371,107 370,108 369,108 368,109 367,109 366,110 365,111 364,112 363,113 362,114 361,115 360,115 360,116 359,117 358,118 358,119 357,120 356,121 355,122 355,123 354,124 354,125 353,126 352,127 351,128 351,129 350,130 350,131 350,132 349,133 349,134 349,135 348,136 348,137 347,138 347,139 347,140 346,141 346,142 346,143 345,144 345,145 345,146 344,147 344,148 344,149 344,150 343,151 343,152 343,153 343,154 343,155 342,156 342,157 342,158 342,159 342,160 341,161 341,162 341,163 341,164 341,165 341,166 340,167 340,168 340,169 340,170 340,171 340,172 340,173 339,174 339,175 339,176 339,177 339,178 338,179 338,180 338,181 338,182 338,183 338,184 338,185 337,186 337,187 337,188 337,189 337,190 337,191 337,192 337,193 337,194 337,195 337,196 336,197 336,198 336,199 336,200 336,201 336,202 336,203 336,204 336,205 336,206 336,207 335,208 335,209 335,210 335,211 335,212 335,213 335,214 335,215 335,216 335,217 335,218 335,219 335,220 335,221 335,222 335,223 335,224 335,225 335,226 335,227 335,228 335,229 335,230 335,231 336,232 336,233 335,234 336,235 336,236 336,237 336,238 336,239 336,240 336,241 336,242 336,243 336,244 337,245 337,246 337,247 337,248 337,249 337,250 337,251 337,252 337,253 337,254 337,255 338,256 338,257 338,258 338,259 338,260 338,261 338,262 339,263 339,264 339,265 339,266 339,267 339,268 340,269 340,270 340,271 340,272 341,273 341,274 341,275 341,276 341,277 342,278 342,279 342,280 342,281 343,282 343,283 343,284 343,285 344,286 344,287 344,288 344,289 345,290 345,291 345,292 345,293 346,294 346,295 346,296 347,297 347,298 348,299 348,300 348,301 349,302 349,303 350,304 350,305 351,306 351,307 352,308 352,309 353,310 353,311 354,312 355,313 355,314 356,315 357,316 357,317 358,318 359,319 360,320 361,321 362,322 362,323 363,324 364,324 365,325 365,326 366,327 367,327 368,328 369,329 370,330 371,330 372,331 373,331 374,332 375,332 376,333 377,333 378,333 379,333 380,333 381,333 382,333 383,333 384,333 385,333 386,333 387,333 388,333 389,333 390,332 391,332 392,331 393,330 394,330 395,329 396,329 397,328 398,327 398,326 399,325 400,324 401,323 402,322 402,321 403,320 404,319 405,318 405,317 406,316 407,315 407,314 408,313 409,312 410,311 410,310 411,309 411,308 412,307 412,306 413,305 413,304 413,303 414,302 414,301 415,300 415,299 415,298 416,297 416,296 416,295 417,294 417,293 417,292 418,291 418,290 418,289 419,288 419,287 419,286 419,285 420,284 420,283 420,282 420,281 421,280 421,279 421,278 421,277 421,276 422,275 422,274 422,273 422,272 423,271 423,270 423,269 423,268 423,267 423,266 424,265 424,264 424,263 424,262 424,261 424,260 424,259 425,258 425,257 425,256 425,255 425,254 425,253 426,252 426,251 426,250 426,249 426,248 426,247 426,246 426,245 426,244 426,243 426,242 426,241 426,240 427,239 427,238 427,237 427,236 427,235 427,234 427,233 427,232 427,231 427,230 427,229 427,228 427,227 427,226 427,225 427,224 427,223 427,222 427,221 427,220 427,219 427,218 427,217 427,216 427,215 427,214 427,213 427,212 427,211 427,210 427,209 427,208 427,207 427,206 427,205 427,204 426,203 426,202 426,201 426,200 426,199 426,198 426,197 426,196 425,195 425,194 425,193 425,192 425,191 425,190 425,189 425,188 425,187 424,186 424,185 424,184 424,183 424,182 424,181 424,180 424,179 423,178 423,177 423,176 423,175 423,174 422,173 422,172 422,171 422,170 422,169 422,168 422,167 421,166 421,165 421,164 421,163 421,162 421,161 420,160 420,159 420,158 420,157 420,156 419,155 419,154 419,153 419,152 418,151 418,150 418,149 418,148 417,147 417,146 417,145 417,144 416,143 416,142 416,141 415,140 415,139 415,138 414,137 414,136 414,135 413,134 413,133 413,132 412,131 412,130 411,129 411,128 411,127 410,126 410,125 409,124 409,123 408,122 407,121 407,120 406,119 405,118 405,117 404,116 403,115 402,114 401,113 400,112 399,111 398,111 397,110 396,109 395,109 394,108 393,107 392,107 391,106 390,106 389,105 388,105 387,105 386,105 385,105 384,104 383,104 382,104">
      <metadata tailDirection="" confidence="0.89" linkedToCharacter="" id="MomoyamaHaikagura_055_balloon_5" tailTip=""></metadata>
    </polygon>
    <polygon points="696,26 695,27 694,27 693,27 692,27 691,27 690,27 689,28 688,28 687,28 686,28 685,29 684,29 683,29 682,30 681,30 680,30 679,31 678,31 677,31 676,32 675,32 674,33 673,33 672,33 671,34 670,34 669,35 668,35 667,36 666,36 665,37 664,38 663,38 662,39 661,39 660,40 659,41 658,41 657,42 656,43 655,44 654,45 653,46 652,47 651,47 650,48 649,49 648,50 647,51 646,52 645,53 645,54 644,55 643,56 642,57 641,58 641,59 640,60 639,60 639,61 638,62 637,63 636,64 635,65 635,66 634,67 633,68 632,69 632,70 631,71 630,72 629,73 629,74 628,75 628,76 627,77 626,78 625,79 625,80 624,81 623,82 622,83 622,84 621,85 621,86 620,87 620,88 619,89 619,90 619,91 618,92 618,93 617,94 617,95 616,96 616,97 615,98 615,99 615,100 615,101 614,102 614,103 613,104 613,105 613,106 612,107 612,108 612,109 612,110 612,111 611,112 611,113 610,114 610,115 610,116 609,117 609,118 609,119 609,120 608,121 608,122 608,123 608,124 607,125 607,126 607,127 607,128 607,129 607,130 606,131 606,132 606,133 606,134 605,135 605,136 605,137 604,138 604,139 604,140 604,141 604,142 603,143 603,144 603,145 603,146 603,147 603,148 603,149 603,150 603,151 603,152 603,153 602,154 602,155 602,156 602,157 602,158 602,159 602,160 602,161 602,162 602,163 602,164 602,165 602,166 602,167 602,168 602,169 602,170 602,171 602,172 602,173 602,174 602,175 602,176 602,177 602,178 602,179 602,180 602,181 602,182 602,183 602,184 602,185 602,186 602,187 602,188 602,189 602,190 602,191 602,192 602,193 602,194 602,195 602,196 602,197 602,198 602,199 602,200 602,201 602,202 602,203 602,204 602,205 602,206 602,207 602,208 602,209 602,210 602,211 603,212 603,213 603,214 603,215 603,216 603,217 603,218 604,219 604,220 604,221 604,222 604,223 604,224 604,225 605,226 605,227 605,228 605,229 605,230 605,231 606,232 606,233 606,234 606,235 607,236 607,237 607,238 607,239 608,240 608,241 608,242 608,243 609,244 609,245 609,246 610,247 610,248 610,249 611,250 611,251 611,252 611,253 612,254 612,255 612,256 613,257 613,258 614,259 614,260 614,261 615,262 615,263 616,264 616,265 616,266 616,267 617,268 617,269 617,270 618,271 618,272 619,273 619,274 619,275 620,276 620,277 621,278 621,279 622,280 622,281 623,282 623,283 624,284 624,285 625,286 626,287 626,288 627,289 627,290 628,291 629,292 629,293 630,294 631,295 631,296 632,297 633,298 634,299 635,300 635,301 636,302 637,303 638,304 639,305 639,306 640,307 641,307 642,308 643,309 644,310 645,311 645,312 646,313 647,313 648,314 649,315 650,316 651,317 652,318 653,319 654,319 655,320 656,321 657,322 658,323 659,323 660,324 661,324 662,325 663,326 664,327 665,327 666,327 667,328 668,329 669,329 670,330 671,330 672,331 673,331 674,332 675,332 676,332 677,333 678,333 679,333 680,333 681,334 682,334 683,334 684,335 685,335 686,335 687,336 688,336 689,336 690,336 691,337 692,337 693,337 694,337 695,338 696,338 697,338 698,338 699,338 700,339 701,339 702,339 703,339 704,339 705,340 706,340 707,340 708,340 709,341 709,342 709,343 710,344 710,345 710,346 711,347 711,348 711,349 712,350 712,351 712,352 713,353 713,354 713,355 713,354 713,353 713,352 713,351 712,350 712,349 712,348 712,347 712,346 712,345 712,344 712,343 712,342 713,341 714,340 715,340 716,340 717,340 718,340 719,340 720,340 721,340 722,340 723,340 724,339 725,339 726,339 727,339 728,339 729,339 730,338 731,338 732,338 733,338 734,337 735,337 736,336 737,336 738,336 739,336 740,335 741,335 742,334 743,334 744,333 745,333 746,332 747,332 748,331 749,331 750,330 751,329 752,329 753,328 754,328 755,327 756,327 757,326 758,325 759,325 760,324 761,323 762,322 763,322 764,321 765,320 766,319 767,319 768,318 769,317 770,316 771,315 772,314 773,313 773,312 773,311 773,310 773,309 773,308 773,307 773,306 773,305 773,304 773,303 773,302 773,301 773,300 773,299 773,298 773,297 773,296 773,295 773,294 773,293 773,292 773,291 773,290 773,289 773,288 773,287 773,286 773,285 773,284 773,283 773,282 773,281 773,280 773,279 773,278 773,277 773,276 773,275 773,274 773,273 773,272 773,271 773,270 773,269 773,268 773,267 773,266 773,265 773,264 773,263 773,262 773,261 773,260 773,259 773,258 773,257 773,256 773,255 773,254 773,253 773,252 773,251 773,250 773,249 773,248 773,247 773,246 773,245 773,244 773,243 773,242 773,241 773,240 773,239 773,238 773,237 773,236 773,235 773,234 773,233 773,232 773,231 773,230 773,229 773,228 773,227 773,226 773,225 773,224 773,223 773,222 773,221 773,220 773,219 773,218 773,217 773,216 773,215 773,214 773,213 773,212 773,211 773,210 773,209 773,208 773,207 773,206 773,205 773,204 773,203 773,202 773,201 773,200 773,199 773,198 773,197 773,196 773,195 773,194 773,193 773,192 773,191 773,190 773,189 773,188 773,187 773,186 773,185 773,184 773,183 773,182 773,181 773,180 773,179 773,178 773,177 773,176 773,175 773,174 773,173 773,172 773,171 773,170 773,169 773,168 773,167 773,166 773,165 773,164 773,163 773,162 773,161 773,160 773,159 773,158 773,157 773,156 773,155 773,154 773,153 773,152 773,151 773,150 773,149 773,148 773,147 773,146 773,145 773,144 773,143 773,142 773,141 773,140 773,139 773,138 773,137 773,136 773,135 773,134 773,133 773,132 773,131 773,130 773,129 773,128 773,127 773,126 773,125 773,124 773,123 773,122 773,121 773,120 773,119 773,118 773,117 773,116 773,115 773,114 773,113 773,112 773,111 773,110 773,109 773,108 773,107 773,106 773,105 773,104 773,103 773,102 773,101 773,100 773,99 773,98 773,97 773,96 773,95 773,94 773,93 773,92 773,91 773,90 773,89 773,88 773,87 773,86 773,85 773,84 773,83 773,82 773,81 773,80 773,79 773,78 773,77 773,76 773,75 773,74 773,73 773,72 773,71 773,70 773,69 773,68 773,67 773,66 773,65 773,64 773,63 773,62 773,61 773,60 773,59 773,58 773,57 773,56 773,55 773,54 773,53 773,52 773,51 772,50 771,49 770,48 769,47 768,46 767,45 766,44 765,43 764,43 763,42 762,41 761,41 760,40 759,39 758,39 757,38 756,37 755,37 754,36 753,36 752,35 751,34 750,34 749,34 748,33 747,32 746,32 745,32 744,31 743,31 742,31 741,31 740,30 739,30 738,30 737,29 736,29 735,29 734,29 733,28 732,28 731,28 730,28 729,28 728,28 727,28 726,27 725,27 724,27 723,27 722,26 721,26 720,26 719,26 718,26 717,26 716,26 715,26 714,26 713,26 712,26 711,26 710,26 709,26 708,26 707,26 706,26 705,26 704,26 703,26 702,26 701,26 700,26 699,26 698,26 697,26 696,26">
      <metadata tailDirection="" confidence="0.93" linkedToCharacter="" id="MomoyamaHaikagura_055_balloon_6" tailTip=""></metadata>
    </polygon>
  </svg>
</svg>
