<?xml version="1.0" encoding="UTF-8" standalone="no"?>
<svg width="827" xmlns="http://www.w3.org/2000/svg" version="1.0" height="1170">
  <title>MomoyamaHaikagura_039</title>
  <svg contentScriptType="text/ecmascript" zoomAndPan="magnify" contentStyleType="text/css" class="Page" preserveAspectRatio="xMidYMid meet" version="1.0">
    <image xmlns:xlink="http://www.w3.org/1999/xlink" x="0" y="0" width="827" height="1170" xlink:href="./../../dataset_Manga109/MomoyamaHaikagura/MomoyamaHaikagura_039.jpg" xlink:type="simple" xlink:actuate="onLoad" preserveAspectRatio="xMidYMid meet" xlink:show="embed"/>
  </svg>
  <style type="text/css" xml:space="preserve">
        * { stroke-linejoin: round; }
        .Unclassified   { fill: orange; stroke: none;   opacity: 1.0; visibility: hidden; }
        .Noise          { fill: pink;   stroke: none;   opacity: 0.2; visibility: hidden; }
        .Panel          { fill: none;   stroke: red;    stroke-width:3; opacity: 0.5; visibility: visible; image-rendering: optimizeSpeed; }
        .Line           { fill: green;  stroke: none;   opacity: 0.5; visibility: visible; image-rendering: optimizeSpeed; }
        .TextArea       { fill: grey;   stroke: none;   opacity: 0.2; visibility: visible; image-rendering: optimizeSpeed; }
        .Balloon        { fill: cyan;   stroke: none;   opacity: 0.5; visibility: visible; image-rendering: optimizeSpeed; }
        .Letter         { fill: blue;   stroke: none;   opacity: 0.2; visibility: hidden; }
        .Object, .Character, .Face  { fill: yellow; stroke: none;   opacity: 0.5; visibility: visible; image-rendering: optimizeSpeed; }
        .Page           { fill: white;  stroke: none;    opacity: 0.5; visibility: visible; }
        .linkSBSC { fill: blue; stroke: none; opacity: 1.0; visibility: visible; }
        polygon:hover { opacity:1.0; stroke:red; }
</style>
  <svg xmlns="http://www.w3.org/2000/svg" contentScriptType="text/ecmascript" zoomAndPan="magnify" contentStyleType="text/css" class="Balloon" preserveAspectRatio="xMidYMid meet" version="1.0">
    <polygon points="465,1054 466,1054 467,1055 468,1055 469,1056 470,1056 471,1056 472,1057 473,1057 474,1058 475,1058 476,1058 477,1059 478,1059 479,1059 480,1059 481,1059 482,1059 483,1059 484,1059 485,1060 484,1061 483,1061 482,1061 481,1062 481,1063 481,1064 481,1065 481,1066 481,1067 482,1068 482,1069 482,1070 482,1071 483,1071 484,1071 485,1070 486,1070 487,1069 488,1069 489,1070 490,1071 491,1072 490,1073 489,1074 488,1073 487,1072 487,1073 488,1074 488,1075 487,1076 486,1077 485,1077 484,1076 484,1077 484,1078 484,1079 483,1080 484,1079 485,1078 486,1079 487,1080 488,1081 488,1082 487,1083 486,1084 485,1085 484,1084 483,1083 482,1083 483,1084 482,1085 482,1086 482,1087 482,1088 482,1089 482,1090 482,1091 482,1092 482,1093 482,1094 482,1095 482,1096 482,1097 482,1098 482,1099 482,1100 482,1101 483,1102 484,1103 484,1104 483,1105 482,1106 481,1107 482,1108 482,1109 483,1110 484,1111 483,1112 482,1113 481,1114 481,1115 482,1116 481,1117 481,1118 481,1119 481,1120 481,1121 481,1122 481,1123 481,1124 481,1125 481,1126 481,1127 480,1128 481,1129 481,1130 481,1131 480,1132 480,1133 481,1134 482,1135 483,1136 483,1137 482,1138 481,1139 480,1139 480,1140 481,1141 482,1142 483,1143 483,1144 482,1145 481,1146 480,1147 480,1148 480,1149 480,1150 480,1151 480,1152 480,1153 480,1154 480,1155 480,1156 480,1157 480,1158 480,1159 480,1160 480,1161 479,1162 479,1163 479,1164 479,1165 479,1166 480,1166 481,1167 482,1168 482,1167 481,1167 480,1166 481,1165 482,1164 483,1163 484,1163 485,1164 486,1165 486,1166 485,1167 484,1168 485,1168 486,1167 487,1166 488,1167 489,1168 490,1168 491,1168 492,1168 493,1168 494,1168 495,1167 496,1168 497,1168 498,1168 499,1168 498,1167 498,1166 498,1165 497,1164 497,1163 498,1162 497,1163 496,1163 495,1162 494,1161 493,1160 494,1159 495,1158 496,1157 497,1157 496,1156 495,1155 494,1154 493,1153 494,1152 495,1151 496,1150 496,1149 496,1148 496,1147 496,1146 496,1145 496,1144 495,1143 495,1142 495,1141 495,1140 495,1139 495,1138 495,1137 495,1136 494,1135 495,1134 495,1133 495,1132 495,1131 494,1130 495,1129 494,1128 494,1127 495,1126 494,1126 493,1127 492,1126 491,1125 490,1124 490,1123 491,1122 492,1121 493,1120 494,1121 494,1120 494,1119 494,1118 493,1117 494,1116 493,1115 494,1114 494,1113 493,1112 493,1111 493,1110 493,1109 492,1110 491,1110 490,1109 489,1108 489,1107 490,1106 491,1105 492,1104 493,1105 493,1104 493,1103 493,1102 493,1101 493,1100 493,1099 493,1098 492,1097 493,1096 492,1095 492,1094 492,1093 492,1092 491,1091 492,1090 491,1089 492,1088 491,1087 491,1086 491,1085 491,1084 491,1083 491,1082 491,1081 491,1080 491,1079 490,1080 489,1081 488,1081 487,1080 486,1079 486,1078 486,1077 487,1076 488,1075 489,1075 490,1076 491,1077 491,1076 490,1075 489,1074 490,1073 491,1072 491,1071 491,1070 492,1069 493,1068 494,1068 495,1069 496,1070 497,1069 497,1068 498,1067 498,1066 498,1065 498,1064 498,1063 498,1062 497,1062 496,1062 495,1061 496,1060 496,1059 496,1058 496,1057 495,1056 494,1056 493,1057 492,1057 491,1057 490,1057 489,1057 488,1057 487,1057 486,1057 485,1057 484,1057 483,1057 482,1057 481,1057 480,1057 479,1057 478,1056 477,1056 476,1056 475,1056 474,1056 473,1056 472,1055 471,1055 470,1055 469,1055 468,1055 467,1055 466,1054 465,1054">
      <metadata tailDirection="" confidence="0.80" linkedToCharacter="" id="MomoyamaHaikagura_039_balloon_0" tailTip=""></metadata>
    </polygon>
    <polygon points="1,689 2,690 1,691 1,692 1,693 1,694 2,695 1,696 2,697 2,698 2,699 1,700 2,699 3,698 4,699 5,700 6,701 6,702 5,703 4,704 3,705 2,704 1,703 2,704 2,705 1,706 1,707 2,706 3,705 4,706 5,707 6,708 6,709 5,710 4,711 3,712 2,711 1,710 1,711 2,712 3,713 2,714 1,714 1,715 1,716 1,717 1,718 1,719 1,720 1,721 1,722 1,723 1,724 1,725 1,726 1,727 2,728 1,729 2,730 2,731 1,732 2,731 3,731 4,732 4,733 5,734 5,735 4,736 3,737 2,737 1,737 2,738 1,739 2,738 3,739 4,740 5,741 5,742 4,743 3,744 2,744 1,744 1,745 1,746 1,747 1,748 1,749 1,750 1,751 1,752 1,753 1,754 1,755 1,756 1,757 1,758 1,759 1,760 1,761 1,762 1,763 1,764 2,764 3,765 4,766 5,767 4,768 3,769 2,770 1,770 1,771 2,771 3,772 4,773 5,774 4,775 3,776 2,777 1,777 1,778 1,779 1,780 1,781 2,782 1,783 1,784 1,785 1,786 1,787 1,788 1,789 1,790 1,791 1,792 1,793 2,794 1,795 1,796 1,797 2,796 3,797 3,798 4,799 4,800 3,801 2,802 1,803 1,804 2,805 3,806 4,807 4,808 3,809 2,810 1,810 1,811 1,812 2,813 1,814 2,815 1,816 1,817 1,818 1,819 1,820 1,821 1,822 1,823 2,824 1,825 1,826 2,827 1,828 1,829 1,830 1,831 1,832 1,833 1,834 1,835 1,836 1,837 2,838 3,839 3,840 3,841 3,842 2,843 1,843 1,844 1,845 2,846 1,847 1,848 1,849 2,850 1,851 1,852 2,853 1,854 2,855 1,856 1,857 1,858 1,859 1,860 1,861 1,862 1,863 1,864 1,865 1,866 2,867 1,868 1,869 1,870 1,871 1,872 2,871 3,872 3,873 2,874 1,875 1,876 1,877 1,878 1,879 1,880 1,881 1,882 1,883 1,884 1,885 1,886 1,887 1,888 1,889 1,890 1,891 1,892 1,893 1,894 1,895 1,896 1,897 2,897 3,898 3,899 2,900 1,900 1,901 1,902 2,903 1,904 1,905 1,906 1,907 1,908 1,909 1,910 1,911 1,912 1,913 1,914 1,915 1,916 1,917 1,918 1,919 1,920 1,921 1,922 1,923 1,924 1,925 1,926 1,927 1,928 1,929 1,930 1,931 1,932 1,933 1,934 1,935 1,936 1,937 1,938 1,939 1,940 1,941 1,942 1,943 1,944 1,945 1,946 1,947 1,948 1,949 1,950 1,951 1,952 1,953 1,954 1,955 1,956 1,957 1,958 1,959 1,960 1,961 1,962 1,963 1,964 1,965 1,966 1,967 1,968 1,969 1,970 1,971 1,972 1,973 1,974 1,975 1,976 1,977 1,978 1,979 1,980 1,981 1,982 1,983 1,984 1,985 1,986 1,987 1,988 1,989 1,990 1,991 1,992 1,993 1,994 1,995 1,996 1,997 1,998 1,999 1,1000 1,1001 1,1002 1,1003 1,1004 1,1005 1,1006 1,1007 1,1008 1,1009 1,1010 1,1011 1,1012 1,1013 1,1014 1,1015 1,1016 1,1017 1,1018 1,1019 1,1020 1,1021 1,1022 1,1023 1,1024 1,1025 1,1026 1,1027 1,1028 1,1029 1,1030 1,1031 1,1032 1,1033 1,1034 1,1035 1,1036 1,1037 1,1038 1,1039 1,1040 1,1041 1,1042 1,1043 1,1044 1,1045 1,1046 1,1047 1,1048 1,1049 1,1050 1,1051 1,1052 1,1053 1,1054 1,1055 1,1056 1,1057 1,1058 1,1059 1,1060 1,1061 1,1062 1,1063 1,1064 1,1065 1,1066 1,1067 1,1068 1,1069 1,1070 1,1071 1,1072 1,1073 1,1074 1,1075 1,1076 1,1077 1,1078 1,1079 1,1080 1,1081 1,1082 1,1083 1,1084 1,1085 1,1086 1,1087 1,1088 1,1089 1,1090 1,1091 1,1092 1,1093 1,1094 1,1095 1,1096 1,1097 1,1098 1,1099 1,1100 1,1101 1,1102 1,1103 1,1104 1,1105 1,1106 1,1107 1,1108 1,1109 1,1110 1,1111 1,1112 1,1113 1,1114 1,1115 1,1116 1,1117 1,1118 1,1119 1,1120 1,1121 1,1122 1,1123 1,1124 1,1125 1,1126 1,1127 1,1128 1,1129 1,1130 1,1131 1,1132 1,1133 1,1134 1,1135 1,1136 1,1137 1,1138 1,1139 1,1140 1,1141 1,1142 1,1143 1,1144 1,1145 1,1146 1,1147 1,1148 1,1149 1,1150 1,1151 1,1152 1,1153 1,1154 1,1155 1,1156 1,1157 1,1158 1,1159 1,1160 1,1161 1,1162 1,1163 1,1164 1,1165 1,1166 1,1167 1,1168 2,1168 3,1168 4,1168 5,1168 6,1168 7,1168 8,1168 9,1168 10,1168 11,1168 12,1168 13,1168 14,1168 15,1168 16,1168 17,1168 18,1168 19,1168 20,1168 21,1168 22,1168 23,1168 24,1168 25,1168 26,1168 27,1168 28,1168 29,1168 30,1168 31,1168 32,1168 33,1168 34,1168 35,1168 36,1168 37,1168 38,1168 39,1168 40,1168 41,1168 42,1168 43,1168 44,1168 45,1168 46,1168 47,1168 48,1168 49,1168 50,1168 51,1168 52,1168 53,1168 54,1168 55,1168 54,1167 54,1166 54,1165 54,1164 54,1163 54,1162 54,1161 54,1160 54,1159 54,1158 54,1157 54,1156 54,1155 54,1154 54,1153 54,1152 54,1151 54,1150 54,1149 54,1148 54,1147 54,1146 54,1145 54,1144 54,1143 54,1142 54,1141 54,1140 54,1139 54,1138 54,1137 54,1136 54,1135 54,1134 54,1133 54,1132 53,1131 52,1130 51,1130 50,1129 49,1128 49,1127 48,1126 47,1125 47,1124 46,1123 46,1122 45,1121 44,1120 44,1119 43,1118 43,1117 42,1116 42,1115 42,1114 41,1113 41,1112 40,1111 40,1110 40,1109 39,1108 39,1107 39,1106 38,1105 38,1104 38,1103 38,1102 37,1101 37,1100 37,1099 37,1098 37,1097 37,1096 37,1095 37,1094 37,1093 36,1092 36,1091 36,1090 36,1089 36,1088 36,1087 36,1086 36,1085 37,1084 37,1083 37,1082 37,1081 37,1080 37,1079 37,1078 37,1077 38,1076 38,1075 38,1074 38,1073 38,1072 38,1071 38,1070 39,1069 39,1068 39,1067 39,1066 40,1065 40,1064 40,1063 40,1062 41,1061 42,1060 42,1059 42,1058 43,1057 44,1056 44,1055 44,1054 45,1053 46,1052 47,1051 47,1050 48,1049 49,1048 50,1047 50,1046 51,1045 52,1044 53,1043 54,1042 54,1041 54,1040 54,1039 54,1038 54,1037 54,1036 54,1035 54,1034 54,1033 54,1032 54,1031 54,1030 54,1029 54,1028 54,1027 54,1026 54,1025 54,1024 54,1023 54,1022 54,1021 54,1020 54,1019 54,1018 54,1017 54,1016 54,1015 54,1014 54,1013 54,1012 54,1011 54,1010 54,1009 54,1008 54,1007 54,1006 54,1005 54,1004 54,1003 54,1002 54,1001 54,1000 55,999 55,998 54,997 54,996 55,995 55,994 55,993 55,992 55,991 55,990 55,989 55,988 55,987 55,986 55,985 55,984 55,983 55,982 55,981 55,980 55,979 55,978 55,977 55,976 55,975 55,974 55,973 55,972 55,971 55,970 55,969 55,968 55,967 55,966 55,965 55,964 55,963 55,962 54,961 55,960 55,959 54,958 54,957 54,956 54,955 54,954 55,953 55,952 55,951 55,950 55,949 54,948 54,947 55,946 55,945 55,944 55,943 54,942 55,941 55,940 55,939 55,938 54,937 54,936 54,935 54,934 55,933 54,932 54,931 55,930 55,929 54,928 55,927 55,926 55,925 55,924 55,923 55,922 54,921 55,920 55,919 55,918 54,917 55,916 54,915 54,914 54,913 54,912 55,911 54,910 54,909 54,908 54,907 54,906 55,905 54,904 53,903 52,902 53,901 54,900 55,899 54,898 54,897 54,896 54,895 54,894 54,893 54,892 54,891 55,890 54,890 53,890 52,890 52,891 53,892 52,893 51,893 50,894 49,893 49,892 48,891 49,890 49,889 50,888 51,888 52,887 53,886 54,887 54,888 55,887 55,886 55,885 54,884 54,883 54,882 54,881 55,880 54,879 54,878 53,877 54,876 54,875 54,874 55,873 54,872 54,871 53,872 52,872 51,871 51,870 51,869 52,868 53,868 54,867 55,866 54,865 54,864 53,864 52,863 51,862 52,861 53,861 54,862 54,861 54,860 54,859 54,858 54,857 54,856 53,856 52,856 51,855 50,854 50,853 51,852 52,851 53,850 54,850 54,849 54,848 54,847 54,846 53,845 53,844 53,843 53,842 52,841 52,840 52,839 51,838 51,837 51,836 50,835 49,834 50,833 49,832 49,831 49,830 49,829 48,830 47,831 46,831 45,830 44,829 43,828 43,827 44,826 45,825 46,824 47,825 48,826 47,825 47,824 47,823 46,824 45,823 45,822 44,822 43,821 43,820 44,819 45,818 46,817 45,816 44,815 43,814 42,813 43,812 43,811 42,810 43,809 42,808 43,807 42,806 42,805 42,804 42,803 41,802 40,801 41,800 40,799 40,798 40,797 40,796 39,795 39,794 39,793 38,792 38,791 38,790 37,789 36,788 37,787 36,786 36,785 35,784 36,783 35,782 34,781 35,780 35,779 34,778 33,777 32,776 31,775 31,774 32,773 31,774 30,774 29,773 28,772 27,771 28,770 29,769 30,768 31,768 32,769 31,768 31,767 30,767 29,766 28,765 28,764 28,763 29,762 28,761 29,760 28,759 28,758 27,757 28,756 27,755 27,754 27,753 26,752 26,751 25,751 24,750 25,749 25,748 24,748 23,747 24,746 23,745 23,744 23,743 22,743 21,742 22,741 21,740 20,739 20,738 20,737 20,736 19,736 18,735 17,734 18,733 18,732 18,731 17,731 16,732 15,732 14,732 13,731 12,730 12,729 12,728 13,727 14,726 15,726 16,726 15,725 14,724 13,723 12,722 12,721 13,720 12,721 11,721 10,720 9,719 8,718 8,717 9,716 10,715 11,715 11,714 10,713 10,712 9,711 9,710 9,709 8,708 7,709 6,708 5,707 4,706 3,705 4,704 5,703 6,702 6,701 5,700 5,699 4,698 4,697 4,696 3,696 2,695 3,694 2,693 2,692 1,691 2,690 1,689">
      <metadata tailDirection="" confidence="0.91" linkedToCharacter="" id="MomoyamaHaikagura_039_balloon_1" tailTip=""></metadata>
    </polygon>
    <polygon points="353,336 352,337 351,337 350,337 349,337 348,337 347,337 346,338 345,338 344,338 343,338 342,339 341,339 340,339 339,339 338,340 337,340 336,340 335,341 334,341 333,342 332,343 331,344 330,344 330,345 329,346 328,347 327,347 326,348 325,349 324,350 324,351 323,352 322,352 322,353 321,354 320,355 320,356 319,357 318,358 318,359 317,360 317,361 316,362 315,363 315,364 314,365 314,366 313,367 313,368 313,369 312,370 312,371 311,372 311,373 311,374 310,375 310,376 309,377 309,378 309,379 309,380 308,381 308,382 308,383 307,384 307,385 307,386 307,387 306,388 306,389 306,390 306,391 306,392 306,393 306,394 305,395 305,396 305,397 305,398 305,399 305,400 304,401 304,402 304,403 304,404 304,405 304,406 304,407 304,408 304,409 304,410 303,411 303,412 303,413 303,414 303,415 303,416 303,417 303,418 303,419 303,420 303,421 303,422 303,423 303,424 303,425 303,426 304,427 304,428 304,429 304,430 304,431 304,432 305,433 305,434 305,435 305,436 305,437 305,438 305,439 306,440 306,441 306,442 306,443 306,444 307,445 307,446 307,447 307,448 308,449 308,450 308,451 309,452 309,453 309,454 310,455 310,456 310,457 311,458 311,459 312,460 312,461 313,462 313,463 314,464 314,465 315,466 315,467 316,468 317,469 317,470 318,471 318,472 319,473 320,474 320,475 321,476 322,477 323,478 323,479 324,480 325,481 326,482 327,483 328,484 329,485 330,486 331,487 332,488 333,488 334,489 335,489 336,490 337,490 338,491 339,491 340,492 341,492 342,492 343,492 344,493 345,493 346,493 347,493 348,494 349,494 350,494 351,494 352,494 353,494 354,494 355,494 356,494 357,493 358,493 359,494 360,494 361,494 362,493 363,493 364,492 365,492 366,491 367,491 368,490 369,489 370,489 371,488 372,488 373,487 374,486 375,485 376,485 377,484 378,483 379,482 379,481 380,480 381,479 381,478 382,477 383,476 383,475 384,474 385,473 385,472 386,471 386,470 387,469 388,468 388,467 389,466 389,465 390,464 390,463 391,462 391,461 392,460 392,459 393,458 393,457 394,456 394,455 395,454 395,453 395,452 396,451 396,450 396,449 397,448 397,447 397,446 397,445 398,444 398,443 398,442 399,441 399,440 399,439 399,438 399,437 399,436 399,435 400,434 400,433 400,432 400,431 400,430 400,429 400,428 400,427 401,426 401,425 401,424 401,423 401,422 401,421 401,420 401,419 401,418 401,417 401,416 401,415 401,414 401,413 401,412 401,411 401,410 400,409 400,408 400,407 400,406 400,405 400,404 400,403 400,402 400,401 399,400 399,399 399,398 399,397 399,396 399,395 399,394 399,393 398,392 398,391 398,390 398,389 397,388 397,387 397,386 397,385 396,384 396,383 396,382 396,381 395,380 395,379 395,378 394,377 394,376 394,375 393,374 393,373 393,372 393,371 392,370 392,369 391,368 391,367 391,366 390,365 390,364 389,363 389,362 388,361 388,360 387,359 387,358 386,357 385,356 384,355 383,354 382,353 382,352 381,351 380,350 379,349 378,348 377,347 376,346 375,345 374,344 373,343 372,342 371,341 370,341 369,340 368,340 367,340 366,340 365,339 364,339 363,338 362,338 361,338 360,338 359,338 358,337 357,337 356,337 355,337 354,337 353,336">
      <metadata tailDirection="" confidence="0.99" linkedToCharacter="" id="MomoyamaHaikagura_039_balloon_2" tailTip=""></metadata>
    </polygon>
    <polygon points="403,231 402,232 401,233 400,233 399,234 398,234 397,235 397,236 396,237 395,238 395,239 394,240 394,241 393,242 392,243 392,244 392,245 391,246 391,247 390,248 390,249 390,250 389,251 389,252 389,253 388,254 388,255 388,256 388,257 388,258 387,259 387,260 387,261 387,262 387,263 387,264 386,265 386,266 386,267 386,268 386,269 386,270 386,271 386,272 386,273 386,274 386,275 386,276 386,277 386,278 386,279 386,280 386,281 386,282 386,283 386,284 386,285 386,286 386,287 386,288 386,289 386,290 387,291 387,292 387,293 387,294 388,295 388,296 388,297 389,298 389,299 390,300 390,301 391,302 391,303 392,304 392,305 393,306 394,307 394,308 395,309 396,310 396,311 397,312 398,313 399,313 400,314 401,315 402,315 403,316 404,316 405,317 406,317 407,318 408,318 409,318 410,318 411,318 412,318 413,318 414,317 415,317 416,316 417,316 418,315 418,314 419,313 420,313 420,312 421,311 421,310 422,309 422,308 423,307 423,306 424,305 424,304 424,303 425,302 425,301 425,300 426,299 426,298 426,297 427,296 427,295 427,294 427,293 427,292 427,291 427,290 427,289 427,288 427,287 428,286 428,285 428,284 428,283 428,282 428,281 428,280 428,279 428,278 428,277 428,276 428,275 428,274 428,273 428,272 428,271 428,270 428,269 427,268 427,267 427,266 427,265 427,264 427,263 427,262 427,261 427,260 427,259 427,258 426,257 426,256 426,255 426,254 426,253 425,252 425,251 425,250 425,249 424,248 424,247 423,246 423,245 423,244 422,243 422,242 421,241 420,240 420,239 419,238 418,237 417,236 416,235 415,234 414,234 413,233 412,233 411,232 410,232 409,231 408,231 407,231 406,231 405,231 404,231 403,231">
      <metadata tailDirection="" confidence="0.99" linkedToCharacter="" id="MomoyamaHaikagura_039_balloon_3" tailTip=""></metadata>
    </polygon>
  </svg>
</svg>
