<?xml version="1.0" encoding="UTF-8" standalone="no"?>
<svg width="827" xmlns="http://www.w3.org/2000/svg" version="1.0" height="1170">
  <title>MomoyamaHaikagura_049</title>
  <svg contentScriptType="text/ecmascript" zoomAndPan="magnify" contentStyleType="text/css" class="Page" preserveAspectRatio="xMidYMid meet" version="1.0">
    <image xmlns:xlink="http://www.w3.org/1999/xlink" x="0" y="0" width="827" height="1170" xlink:href="./../../dataset_Manga109/MomoyamaHaikagura/MomoyamaHaikagura_049.jpg" xlink:type="simple" xlink:actuate="onLoad" preserveAspectRatio="xMidYMid meet" xlink:show="embed"/>
  </svg>
  <style type="text/css" xml:space="preserve">
        * { stroke-linejoin: round; }
        .Unclassified   { fill: orange; stroke: none;   opacity: 1.0; visibility: hidden; }
        .Noise          { fill: pink;   stroke: none;   opacity: 0.2; visibility: hidden; }
        .Panel          { fill: none;   stroke: red;    stroke-width:3; opacity: 0.5; visibility: visible; image-rendering: optimizeSpeed; }
        .Line           { fill: green;  stroke: none;   opacity: 0.5; visibility: visible; image-rendering: optimizeSpeed; }
        .TextArea       { fill: grey;   stroke: none;   opacity: 0.2; visibility: visible; image-rendering: optimizeSpeed; }
        .Balloon        { fill: cyan;   stroke: none;   opacity: 0.5; visibility: visible; image-rendering: optimizeSpeed; }
        .Letter         { fill: blue;   stroke: none;   opacity: 0.2; visibility: hidden; }
        .Object, .Character, .Face  { fill: yellow; stroke: none;   opacity: 0.5; visibility: visible; image-rendering: optimizeSpeed; }
        .Page           { fill: white;  stroke: none;    opacity: 0.5; visibility: visible; }
        .linkSBSC { fill: blue; stroke: none; opacity: 1.0; visibility: visible; }
        polygon:hover { opacity:1.0; stroke:red; }
</style>
  <svg xmlns="http://www.w3.org/2000/svg" contentScriptType="text/ecmascript" zoomAndPan="magnify" contentStyleType="text/css" class="Balloon" preserveAspectRatio="xMidYMid meet" version="1.0">
    <polygon points="106,845 105,846 104,846 103,846 102,846 101,846 100,847 99,847 98,847 97,848 96,848 95,848 94,849 93,849 92,850 91,850 90,851 89,851 88,852 87,852 86,853 85,853 84,854 83,855 82,855 81,856 80,856 79,857 78,858 77,859 76,859 75,860 74,861 73,861 72,862 71,863 70,864 69,865 68,865 67,866 66,867 65,868 64,869 63,870 62,871 61,872 60,873 60,874 59,875 58,876 58,877 57,878 57,879 56,880 55,881 55,882 55,883 54,884 54,885 53,886 53,887 52,888 52,889 51,890 51,891 50,892 50,893 49,894 49,895 49,896 49,897 49,898 48,899 48,900 48,901 47,902 47,903 47,904 46,905 46,906 46,907 45,908 45,909 45,910 45,911 44,912 44,913 44,914 43,915 43,916 43,917 43,918 43,919 43,920 42,921 42,922 42,923 42,924 42,925 41,926 41,927 41,928 41,929 41,930 41,931 41,932 40,933 40,934 40,935 40,936 40,937 40,938 39,939 39,940 39,941 39,942 39,943 38,944 38,945 38,946 38,947 38,948 38,949 38,950 38,951 38,952 37,953 37,954 37,955 37,956 37,957 37,958 37,959 37,960 37,961 37,962 37,963 37,964 37,965 37,966 37,967 37,968 37,969 37,970 37,971 37,972 37,973 37,974 37,975 37,976 37,977 37,978 37,979 37,980 37,981 37,982 37,983 37,984 37,985 37,986 37,987 37,988 37,989 38,990 38,991 38,992 38,993 38,994 38,995 38,996 38,997 38,998 38,999 38,1000 38,1001 39,1002 39,1003 39,1004 39,1005 39,1006 39,1007 39,1008 39,1009 39,1010 39,1011 39,1012 40,1013 40,1014 40,1015 40,1016 40,1017 40,1018 40,1019 41,1020 41,1021 41,1022 41,1023 41,1024 42,1025 42,1026 42,1027 42,1028 42,1029 43,1030 43,1031 43,1032 43,1033 44,1034 44,1035 44,1036 44,1037 45,1038 45,1039 45,1040 46,1041 46,1042 46,1043 47,1044 47,1045 48,1046 48,1047 48,1048 49,1049 49,1050 50,1051 50,1052 51,1053 51,1054 51,1055 52,1056 52,1057 53,1058 53,1059 54,1060 55,1061 55,1062 56,1063 56,1064 56,1065 57,1066 57,1067 58,1068 58,1069 59,1070 59,1071 60,1072 60,1073 60,1074 61,1075 62,1076 62,1077 63,1078 63,1079 64,1080 65,1081 65,1082 66,1083 67,1084 68,1085 68,1086 69,1087 70,1088 71,1089 71,1090 72,1091 73,1092 74,1093 75,1093 76,1094 77,1095 78,1096 79,1097 80,1097 81,1098 82,1099 83,1100 84,1100 85,1101 86,1102 87,1102 88,1103 89,1104 90,1104 91,1105 92,1106 93,1106 94,1107 95,1107 96,1108 97,1108 98,1109 99,1109 100,1110 101,1110 102,1111 103,1111 104,1111 105,1112 106,1112 107,1113 108,1113 109,1113 110,1113 111,1114 112,1114 113,1114 114,1114 115,1115 116,1115 117,1115 118,1115 119,1115 120,1115 121,1116 122,1115 123,1115 124,1116 125,1116 126,1116 127,1116 128,1116 129,1116 130,1116 131,1116 132,1116 133,1116 134,1115 135,1115 136,1115 137,1115 138,1114 139,1114 140,1114 141,1114 142,1113 143,1113 144,1113 145,1113 146,1113 147,1112 148,1112 149,1112 150,1111 151,1111 152,1110 153,1110 154,1109 155,1109 156,1108 157,1108 158,1107 159,1106 160,1106 161,1105 162,1105 163,1104 164,1103 165,1103 166,1102 167,1101 168,1101 169,1100 170,1099 171,1098 171,1097 172,1096 173,1095 174,1094 175,1093 176,1092 176,1091 177,1090 178,1089 179,1088 179,1087 180,1086 180,1085 181,1084 181,1083 182,1082 182,1081 183,1080 184,1079 184,1078 185,1077 186,1076 186,1075 187,1074 187,1073 188,1072 188,1071 189,1070 189,1069 189,1068 190,1067 190,1066 191,1065 191,1064 191,1063 192,1062 192,1061 193,1060 193,1059 194,1058 194,1057 194,1056 195,1055 195,1054 195,1053 196,1052 196,1051 196,1050 197,1049 197,1048 197,1047 197,1046 197,1045 198,1044 198,1043 198,1042 198,1041 198,1040 198,1039 199,1038 199,1037 199,1036 199,1035 199,1034 200,1033 200,1032 200,1031 200,1030 201,1029 201,1028 200,1027 201,1026 201,1025 201,1024 202,1023 202,1022 202,1021 202,1020 202,1019 202,1018 202,1017 202,1016 203,1015 203,1014 203,1013 203,1012 203,1011 203,1010 203,1009 203,1008 203,1007 204,1006 204,1005 204,1004 204,1003 204,1002 204,1001 204,1000 204,999 204,998 204,997 204,996 204,995 204,994 204,993 204,992 204,991 204,990 204,989 204,988 204,987 204,986 204,985 204,984 205,983 204,982 204,981 204,980 204,979 204,978 204,977 204,976 204,975 204,974 204,973 204,972 204,971 204,970 204,969 204,968 204,967 204,966 204,965 204,964 204,963 204,962 204,961 204,960 204,959 204,958 204,957 204,956 204,955 204,954 203,953 203,952 203,951 203,950 203,949 203,948 203,947 203,946 202,945 202,944 202,943 202,942 202,941 202,940 202,939 201,938 201,937 201,936 201,935 200,934 200,933 200,932 200,931 199,930 199,929 199,928 199,927 199,926 198,925 198,924 198,923 198,922 198,921 197,920 197,919 197,918 196,917 196,916 196,915 196,914 195,913 195,912 195,911 194,910 194,909 193,908 193,907 193,906 192,905 192,904 191,903 191,902 191,901 190,900 189,899 189,898 189,897 188,896 188,895 187,894 187,893 186,892 185,891 185,890 184,889 184,888 183,887 183,886 182,885 181,884 181,883 180,882 180,881 179,880 178,879 178,878 177,877 176,876 175,875 174,874 173,873 173,872 172,871 171,870 170,869 169,868 169,867 168,866 167,865 166,865 165,864 165,863 164,862 163,861 162,860 161,860 160,859 159,858 158,858 157,857 156,856 155,856 154,855 153,854 152,854 151,853 150,852 149,852 148,851 147,851 146,851 145,850 144,850 143,849 142,849 141,849 140,848 139,848 138,847 137,847 136,847 135,847 134,846 133,846 132,846 131,846 130,846 129,845 128,846 127,846 126,846 125,845 124,845 123,845 122,845 121,845 120,845 119,845 118,845 117,845 116,845 115,845 114,845 113,845 112,845 111,845 110,845 109,845 108,845 107,845 106,845">
      <metadata tailDirection="" confidence="0.91" linkedToCharacter="" id="MomoyamaHaikagura_049_balloon_0" tailTip=""></metadata>
    </polygon>
    <polygon points="687,749 686,750 685,750 684,750 683,750 682,750 681,750 680,750 679,750 678,750 677,750 676,750 675,750 674,750 673,751 672,751 671,751 670,751 669,751 668,752 667,752 666,752 665,753 664,753 663,753 662,754 661,754 660,755 659,755 658,756 657,756 656,757 655,758 654,758 653,759 652,760 651,760 650,761 649,762 648,763 647,763 646,764 645,765 644,766 643,767 642,768 641,769 640,770 639,771 638,772 637,773 636,773 635,774 634,775 634,776 633,777 632,778 631,779 630,780 630,781 629,782 629,783 628,784 628,785 627,786 627,787 626,788 626,789 625,790 624,791 624,792 624,793 623,794 622,795 622,796 621,797 621,798 620,799 620,800 620,801 619,802 618,803 618,804 617,805 617,806 617,807 616,808 616,809 615,810 615,811 615,812 614,813 614,814 613,815 613,816 613,817 613,818 613,819 612,820 612,821 612,822 611,823 611,824 611,825 611,826 610,827 610,828 610,829 610,830 610,831 609,832 609,833 609,834 609,835 609,836 608,837 608,838 608,839 608,840 608,841 608,842 607,843 607,844 607,845 607,846 607,847 607,848 607,849 607,850 606,851 606,852 606,853 606,854 606,855 606,856 606,857 606,858 605,859 605,860 605,861 605,862 605,863 605,864 605,865 605,866 605,867 605,868 605,869 605,870 605,871 605,872 605,873 605,874 605,875 605,876 605,877 605,878 605,879 605,880 605,881 605,882 605,883 605,884 605,885 605,886 605,887 605,888 605,889 605,890 605,891 605,892 605,893 605,894 605,895 605,896 605,897 605,898 605,899 605,900 606,901 606,902 606,903 606,904 606,905 606,906 606,907 606,908 606,909 607,910 607,911 607,912 607,913 607,914 607,915 607,916 608,917 608,918 608,919 608,920 608,921 608,922 609,923 609,924 609,925 609,926 609,927 610,928 610,929 610,930 610,931 610,932 611,933 611,934 611,935 611,936 612,937 612,938 612,939 612,940 612,941 613,942 613,943 613,944 613,945 614,946 614,947 614,948 615,949 615,950 615,951 616,952 616,953 616,954 617,955 617,956 618,957 618,958 618,959 619,960 619,961 620,962 620,963 621,964 621,965 622,966 622,967 623,968 623,969 624,970 624,971 625,972 626,973 627,974 627,975 628,976 629,977 629,978 630,979 631,980 632,981 632,982 633,983 634,984 635,985 636,986 637,987 638,988 639,989 640,990 641,990 642,991 643,992 644,992 645,993 646,994 647,994 648,995 649,996 650,996 651,997 652,997 653,998 654,998 655,999 656,999 657,1000 658,1000 659,1000 660,1001 661,1001 662,1002 663,1002 664,1002 665,1002 666,1003 667,1003 668,1003 669,1003 670,1003 671,1004 672,1004 673,1004 674,1004 675,1004 676,1004 677,1004 678,1004 679,1004 680,1004 681,1004 682,1004 683,1004 684,1004 685,1004 686,1004 687,1004 688,1004 689,1004 690,1004 691,1004 692,1004 693,1003 694,1003 695,1003 696,1003 697,1003 698,1003 699,1003 700,1002 701,1002 702,1001 703,1001 704,1001 705,1001 706,1000 707,1000 708,999 709,999 710,998 711,998 712,998 713,997 714,997 715,996 716,996 717,995 718,994 719,994 720,993 721,993 722,992 723,991 724,990 725,990 726,989 727,988 728,987 729,986 730,986 731,985 732,984 733,983 734,982 734,981 735,980 736,979 737,978 738,977 739,976 739,975 740,974 741,973 742,972 743,971 743,970 744,969 745,968 745,967 746,966 746,965 747,964 748,963 749,962 749,961 750,960 751,959 751,958 751,957 752,956 752,955 753,954 753,953 754,952 754,951 755,950 755,949 755,948 756,947 756,946 756,945 757,944 757,943 757,942 758,941 758,940 758,939 758,938 759,937 759,936 759,935 760,934 760,933 760,932 760,931 761,930 761,929 761,928 761,927 762,926 762,925 762,924 762,923 763,922 763,921 763,920 763,919 763,918 763,917 764,916 764,915 764,914 764,913 764,912 764,911 764,910 764,909 764,908 764,907 764,906 764,905 764,904 764,903 764,902 765,901 765,900 765,899 765,898 765,897 765,896 765,895 766,894 766,893 766,892 766,891 766,890 766,889 766,888 766,887 767,886 767,885 767,884 767,883 767,882 767,881 767,880 767,879 767,878 767,877 767,876 767,875 767,874 767,873 767,872 767,871 767,870 767,869 766,868 766,867 766,866 766,865 766,864 766,863 766,862 766,861 766,860 766,859 766,858 766,857 765,856 765,855 765,854 765,853 765,852 765,851 765,850 765,849 765,848 765,847 765,846 765,845 765,844 764,843 764,842 764,841 764,840 764,839 764,838 764,837 764,836 764,835 763,834 763,833 763,832 763,831 763,830 763,829 763,828 763,827 762,826 762,825 762,824 762,823 761,822 761,821 761,820 761,819 761,818 760,817 760,816 760,815 760,814 759,813 759,812 759,811 759,810 759,809 758,808 758,807 758,806 757,805 757,804 757,803 756,802 756,801 756,800 756,799 755,798 755,797 755,796 754,795 754,794 754,793 753,792 753,791 753,790 752,789 752,788 751,787 751,786 750,785 750,784 749,783 749,782 748,781 748,780 747,779 746,778 745,777 745,776 744,775 743,774 742,773 741,772 740,771 739,770 738,769 737,768 736,767 735,766 734,765 733,764 732,763 731,762 730,761 729,761 728,760 727,759 726,759 725,758 724,757 723,757 722,756 721,756 720,755 719,755 718,755 717,754 716,754 715,754 714,753 713,753 712,753 711,752 710,752 709,752 708,752 707,752 706,751 705,751 704,751 703,751 702,751 701,751 700,750 699,750 698,750 697,750 696,750 695,750 694,750 693,750 692,750 691,749 690,749 689,749 688,749 687,749">
      <metadata tailDirection="" confidence="0.90" linkedToCharacter="" id="MomoyamaHaikagura_049_balloon_1" tailTip=""></metadata>
    </polygon>
    <polygon points="95,479 94,480 93,480 92,480 91,481 90,481 89,482 88,482 87,483 86,483 85,483 84,484 83,484 82,485 81,486 80,486 79,487 78,487 77,488 76,488 75,489 74,490 73,491 72,492 71,492 70,493 69,494 68,495 67,496 66,497 65,498 64,498 63,499 63,500 62,501 61,502 60,503 60,504 59,505 58,506 57,507 56,508 55,509 55,510 54,511 53,512 53,513 52,514 51,515 51,516 50,517 50,518 50,519 49,520 49,521 48,522 48,523 47,524 47,525 46,526 46,527 45,528 45,529 45,530 44,531 44,532 43,533 43,534 43,535 42,536 42,537 42,538 41,539 41,540 41,541 41,542 41,543 40,544 40,545 40,546 40,547 40,548 40,549 40,550 39,551 39,552 39,553 39,554 39,555 39,556 39,557 39,558 38,559 38,560 38,561 38,562 38,563 38,564 38,565 38,566 38,567 38,568 38,569 38,570 37,571 37,572 37,573 37,574 37,575 37,576 38,577 38,578 37,579 38,580 38,581 38,582 38,583 38,584 38,585 38,586 38,587 38,588 39,589 39,590 39,591 39,592 39,593 39,594 40,595 40,596 40,597 40,598 40,599 40,600 40,601 41,602 41,603 41,604 41,605 42,606 42,607 42,608 43,609 43,610 43,611 44,612 44,613 45,614 45,615 45,616 46,617 46,618 47,619 47,620 47,621 48,622 48,623 49,624 49,625 50,626 50,627 51,628 51,629 52,630 52,631 53,632 53,633 54,634 55,635 56,636 56,637 57,638 58,639 59,640 60,641 60,642 61,643 62,644 63,645 64,646 65,646 66,647 67,648 68,649 69,650 70,650 71,651 72,652 73,653 74,654 75,654 76,655 77,656 78,656 79,657 80,658 81,658 82,659 83,659 84,660 85,661 86,661 87,662 88,662 89,663 90,663 91,664 92,664 93,664 94,665 95,665 96,666 97,666 98,666 99,666 100,667 101,667 102,667 103,667 104,668 105,668 106,668 107,668 108,668 109,667 110,667 111,667 112,667 113,667 114,667 115,667 116,667 117,667 118,667 119,666 120,666 121,666 122,666 123,666 124,666 125,666 126,665 127,665 128,664 129,664 130,664 131,663 132,663 133,662 134,661 135,661 136,661 137,660 138,660 139,659 140,658 141,658 142,657 143,656 144,656 145,655 146,654 147,653 148,653 149,652 150,651 151,650 152,649 152,648 153,647 154,646 155,645 156,644 156,643 157,642 158,641 159,640 159,639 160,638 160,637 161,636 161,635 162,634 162,633 163,632 164,631 164,630 165,629 166,628 166,627 167,626 167,625 168,624 168,623 169,622 169,621 170,620 170,619 171,618 171,617 172,616 172,615 172,614 173,613 174,612 174,611 175,610 175,609 175,608 175,607 176,606 176,605 176,604 176,603 176,602 177,601 177,600 177,599 177,598 178,597 178,596 178,595 178,594 178,593 178,592 179,591 179,590 179,589 180,588 180,587 180,586 181,585 182,584 181,584 180,583 179,582 179,581 178,580 178,579 178,578 178,577 178,576 178,575 178,574 178,573 178,572 178,571 178,570 178,569 178,568 178,567 178,566 178,565 178,564 178,563 178,562 178,561 178,560 178,559 178,558 177,557 177,556 177,555 177,554 177,553 177,552 176,551 176,550 176,549 176,548 176,547 176,546 175,545 175,544 175,543 175,542 175,541 174,540 174,539 174,538 173,537 173,536 173,535 173,534 172,533 172,532 172,531 171,530 171,529 171,528 170,527 170,526 170,525 169,524 169,523 168,522 168,521 168,520 167,519 167,518 166,517 165,516 165,515 164,514 163,513 162,512 162,511 161,510 160,509 159,508 159,507 158,506 157,505 156,504 155,503 155,502 154,501 153,500 152,499 151,498 150,497 149,496 148,495 147,494 146,493 145,492 144,491 143,491 142,490 141,489 140,488 139,488 138,487 137,486 136,486 135,485 134,485 133,484 132,484 131,483 130,483 129,482 128,482 127,482 126,481 125,481 124,481 123,481 122,481 121,480 120,480 119,480 118,480 117,480 116,480 115,480 114,480 113,480 112,479 111,479 110,479 109,479 108,479 107,479 106,479 105,479 104,479 103,479 102,479 101,479 100,479 99,479 98,479 97,479 96,479 95,479">
      <metadata tailDirection="" confidence="0.83" linkedToCharacter="" id="MomoyamaHaikagura_049_balloon_2" tailTip=""></metadata>
    </polygon>
    <polygon points="489,126 488,127 487,127 486,127 485,127 484,128 483,128 482,128 481,129 480,129 479,130 478,130 477,130 476,131 475,131 474,132 473,132 472,133 471,133 471,134 470,135 470,136 470,137 470,138 470,139 470,140 470,141 470,142 470,143 470,144 470,145 470,146 470,147 470,148 470,149 470,150 470,151 470,152 470,153 470,154 470,155 470,156 470,157 470,158 470,159 470,160 470,161 470,162 470,163 470,164 470,165 470,166 470,167 470,168 470,169 470,170 470,171 470,172 470,173 470,174 470,175 470,176 470,177 470,178 470,179 470,180 470,181 470,182 470,183 470,184 470,185 470,186 470,187 470,188 470,189 470,190 470,191 470,192 470,193 470,194 470,195 470,196 470,197 470,198 470,199 470,200 470,201 470,202 470,203 470,204 470,205 470,206 470,207 470,208 470,209 470,210 470,211 470,212 470,213 470,214 470,215 470,216 470,217 470,218 470,219 470,220 470,221 470,222 470,223 470,224 470,225 470,226 470,227 470,228 470,229 470,230 470,231 470,232 470,233 470,234 470,235 470,236 470,237 470,238 470,239 470,240 470,241 470,242 470,243 470,244 470,245 470,246 470,247 470,248 470,249 470,250 470,251 470,252 470,253 470,254 470,255 470,256 470,257 470,258 470,259 470,260 470,261 470,262 470,263 470,264 470,265 470,266 470,267 470,268 470,269 470,270 470,271 470,272 470,273 470,274 470,275 470,276 470,277 470,278 470,279 470,280 470,281 470,282 470,283 470,284 470,285 470,286 470,287 470,288 470,289 470,290 470,291 470,292 470,293 470,294 470,295 470,296 470,297 470,298 470,299 470,300 470,301 470,302 470,303 470,304 470,305 470,306 470,307 470,308 470,309 470,310 470,311 470,312 470,313 470,314 470,315 470,316 470,317 470,318 470,319 470,320 470,321 470,322 470,323 470,324 470,325 470,326 470,327 470,328 470,329 470,330 470,331 470,332 470,333 470,334 470,335 470,336 470,337 470,338 470,339 470,340 470,341 470,342 470,343 470,344 470,345 470,346 470,347 470,348 470,349 470,350 470,351 470,352 470,353 470,354 470,355 470,356 470,357 470,358 470,359 470,360 470,361 470,362 470,363 470,364 470,365 470,366 470,367 470,368 470,369 470,370 470,371 470,372 471,372 472,372 473,372 474,372 475,372 476,372 477,372 478,372 479,372 480,372 481,372 482,372 483,372 484,372 485,372 486,372 487,372 488,372 489,372 490,372 491,372 492,372 493,372 494,372 495,372 496,372 497,372 498,372 499,372 500,372 501,372 502,372 503,372 504,372 505,372 506,372 507,372 508,372 509,372 510,372 511,372 512,372 513,372 514,372 515,372 516,372 517,372 518,372 519,372 520,372 521,372 522,372 523,372 524,372 525,372 526,372 527,372 528,372 529,372 530,372 531,372 532,372 533,372 534,372 535,372 536,372 537,372 538,372 539,372 540,372 541,372 542,372 543,372 544,372 545,372 546,372 547,372 548,372 549,372 550,372 551,372 552,372 553,372 554,372 555,372 556,372 557,372 558,372 559,372 560,371 561,370 561,369 562,368 563,367 563,366 563,365 564,364 564,363 565,362 565,361 566,360 566,359 566,358 567,357 567,356 568,355 568,354 568,353 568,352 569,351 569,350 569,349 570,348 570,347 570,346 570,345 571,344 571,343 571,342 571,341 571,340 572,339 572,338 572,337 572,336 572,335 573,334 573,333 573,332 573,331 573,330 573,329 574,328 574,327 574,326 574,325 574,324 574,323 574,322 575,321 575,320 575,319 575,318 575,317 575,316 575,315 575,314 576,313 576,312 576,311 576,310 576,309 576,308 576,307 576,306 577,305 577,304 577,303 577,302 577,301 577,300 577,299 577,298 577,297 577,296 577,295 577,294 577,293 577,292 577,291 577,290 577,289 577,288 577,287 577,286 578,285 578,284 578,283 578,282 578,281 578,280 578,279 578,278 578,277 578,276 578,275 578,274 578,273 578,272 578,271 578,270 578,269 578,268 578,267 578,266 578,265 578,264 578,263 578,262 578,261 578,260 578,259 578,258 578,257 578,256 577,255 577,254 577,253 577,252 577,251 577,250 577,249 577,248 577,247 577,246 577,245 577,244 577,243 577,242 577,241 577,240 577,239 577,238 576,237 576,236 576,235 576,234 576,233 576,232 576,231 576,230 576,229 576,228 575,227 575,226 575,225 575,224 575,223 575,222 575,221 575,220 574,219 574,218 574,217 574,216 574,215 574,214 574,213 574,212 573,211 573,210 573,209 573,208 573,207 573,206 572,205 572,204 572,203 572,202 572,201 572,200 572,199 571,198 571,197 571,196 571,195 571,194 570,193 570,192 570,191 570,190 569,189 569,188 569,187 568,186 568,185 568,184 568,183 567,182 567,181 567,180 566,179 566,178 566,177 565,176 565,175 565,174 564,173 564,172 564,171 563,170 563,169 563,168 562,167 562,166 561,165 561,164 560,163 560,162 560,161 559,160 559,159 558,158 557,157 557,156 556,155 555,154 554,153 554,152 553,151 552,150 551,149 550,148 549,147 548,146 547,145 546,144 545,143 544,142 543,142 542,141 541,140 540,140 539,139 538,138 537,137 536,137 535,136 534,135 533,135 532,134 531,134 530,133 529,132 528,132 527,131 526,131 525,130 524,130 523,129 522,129 521,129 520,128 519,128 518,128 517,128 516,127 515,127 514,127 513,127 512,127 511,127 510,126 509,126 508,126 507,126 506,126 505,126 504,126 503,126 502,126 501,126 500,126 499,126 498,126 497,126 496,126 495,126 494,126 493,126 492,126 491,126 490,126 489,126">
      <metadata tailDirection="" confidence="0.95" linkedToCharacter="" id="MomoyamaHaikagura_049_balloon_3" tailTip=""></metadata>
    </polygon>
    <polygon points="747,17 746,18 745,18 744,18 743,18 742,18 741,18 740,18 739,18 738,18 737,18 736,18 735,18 734,19 733,19 732,19 731,19 730,20 729,21 728,21 727,21 726,22 725,23 724,23 723,24 722,24 721,25 720,26 719,27 718,27 717,28 716,29 715,30 714,31 713,32 712,33 711,34 711,35 710,36 709,37 708,38 707,39 706,40 706,41 705,42 705,43 704,44 704,45 703,46 702,47 702,48 702,49 701,50 700,51 700,52 699,53 699,54 699,55 698,56 698,57 697,58 697,59 697,60 696,61 696,62 695,63 695,64 695,65 694,66 694,67 693,68 693,69 693,70 692,71 692,72 692,73 692,74 692,75 691,76 691,77 691,78 691,79 691,80 691,81 690,82 690,83 690,84 690,85 690,86 690,87 690,88 689,89 689,90 689,91 689,92 689,93 689,94 688,95 687,96 688,97 688,98 689,99 689,100 689,101 689,102 689,103 689,104 689,105 689,106 689,107 689,108 689,109 689,110 689,111 689,112 689,113 689,114 689,115 689,116 689,117 689,118 689,119 688,120 688,121 688,122 688,123 688,124 688,125 688,126 688,127 688,128 688,129 688,130 688,131 688,132 688,133 688,134 688,135 688,136 688,137 688,138 688,139 688,140 688,141 688,142 688,143 689,144 689,145 689,146 689,147 689,148 689,149 689,150 689,151 689,152 689,153 689,154 689,155 689,156 689,157 690,158 690,159 690,160 690,161 691,162 691,163 691,164 691,165 692,166 692,167 692,168 693,169 693,170 693,171 694,172 694,173 695,174 695,175 696,176 696,177 697,178 697,179 698,180 698,181 699,182 699,183 700,184 701,185 701,186 702,187 703,188 704,189 705,190 706,191 706,192 707,193 708,194 709,195 710,196 711,197 712,198 713,199 714,200 715,201 716,202 717,203 718,204 719,204 720,205 721,205 722,206 723,207 724,208 725,208 726,209 727,209 728,209 729,210 730,210 731,210 732,211 733,211 734,211 735,212 736,212 737,212 738,213 739,213 740,213 741,214 742,214 743,214 744,214 745,214 746,214 747,214 748,214 749,214 750,214 751,214 752,214 753,214 754,213 755,213 756,213 757,212 758,212 759,212 760,212 761,211 762,211 763,211 764,210 765,210 766,210 767,209 768,209 769,208 770,207 771,206 772,205 773,204 773,203 773,202 773,201 773,200 773,199 773,198 773,197 773,196 773,195 773,194 773,193 773,192 773,191 774,190 773,189 773,188 773,187 773,186 774,185 773,184 773,183 773,182 773,181 773,180 773,179 773,178 773,177 773,176 773,175 773,174 773,173 773,172 773,171 773,170 773,169 773,168 773,167 773,166 773,165 773,164 773,163 773,162 773,161 773,160 773,159 773,158 773,157 773,156 773,155 773,154 773,153 773,152 773,151 773,150 773,149 773,148 773,147 773,146 773,145 774,144 773,143 773,142 774,141 773,140 773,139 773,138 774,137 774,136 773,135 773,134 774,133 774,132 774,131 773,130 773,129 773,128 774,127 773,126 774,125 774,124 774,123 774,122 774,121 774,120 774,119 774,118 774,117 774,116 774,115 774,114 774,113 774,112 774,111 774,110 774,109 774,108 774,107 774,106 774,105 774,104 774,103 774,102 774,101 774,100 774,99 774,98 774,97 774,96 774,95 774,94 774,93 773,92 773,91 773,90 773,89 773,88 773,87 773,86 773,85 773,84 773,83 773,82 773,81 773,80 773,79 773,78 773,77 773,76 773,75 773,74 773,73 773,72 773,71 773,70 773,69 773,68 773,67 773,66 773,65 773,64 773,63 773,62 773,61 773,60 773,59 773,58 773,57 773,56 773,55 773,54 773,53 773,52 773,51 773,50 773,49 773,48 773,47 773,46 773,45 773,44 773,43 773,42 773,41 773,40 773,39 773,38 773,37 773,36 773,35 773,34 773,33 773,32 773,31 773,30 772,29 771,28 770,27 769,26 768,25 767,24 766,24 765,23 764,23 763,22 762,22 761,21 760,21 759,20 758,20 757,20 756,19 755,19 754,19 753,18 752,18 751,18 750,18 749,18 748,17 747,17">
      <metadata tailDirection="" confidence="0.85" linkedToCharacter="" id="MomoyamaHaikagura_049_balloon_4" tailTip=""></metadata>
    </polygon>
    <polygon points="691,389 690,390 689,390 688,390 687,390 686,390 685,390 684,390 683,390 682,390 681,391 680,391 679,391 678,392 677,392 676,392 675,393 674,393 673,394 672,394 671,394 670,395 669,396 668,397 667,397 666,398 665,399 664,399 663,400 662,401 661,402 660,403 659,404 658,405 657,406 656,407 655,407 654,408 653,409 653,410 652,411 651,412 650,413 649,414 648,415 648,416 647,417 646,418 645,419 645,420 644,421 643,422 643,423 642,424 642,425 641,426 640,427 640,428 639,429 639,430 638,431 638,432 637,433 637,434 636,435 636,436 635,437 635,438 634,439 634,440 634,441 633,442 633,443 633,444 632,445 632,446 631,447 631,448 631,449 631,450 630,451 630,452 630,453 629,454 629,455 629,456 629,457 628,458 628,459 628,460 628,461 628,462 627,463 627,464 627,465 627,466 626,467 626,468 626,469 626,470 626,471 625,472 625,473 625,474 625,475 624,476 624,477 624,478 624,479 624,480 624,481 624,482 624,483 623,484 623,485 623,486 623,487 623,488 623,489 623,490 623,491 622,492 622,493 622,494 622,495 622,496 622,497 622,498 622,499 622,500 622,501 621,502 621,503 621,504 621,505 621,506 621,507 621,508 621,509 621,510 621,511 621,512 621,513 621,514 622,515 621,516 622,517 622,518 622,519 622,520 622,521 622,522 622,523 622,524 622,525 622,526 622,527 622,528 622,529 622,530 622,531 622,532 622,533 623,534 623,535 623,536 623,537 623,538 623,539 623,540 624,541 624,542 624,543 624,544 624,545 625,546 625,547 625,548 625,549 625,550 626,551 626,552 626,553 627,554 627,555 627,556 628,557 628,558 629,559 629,560 629,561 630,562 630,563 631,564 631,565 631,566 632,567 632,568 633,569 633,570 634,571 634,572 635,573 635,574 636,575 636,576 637,577 637,578 638,579 638,580 639,581 639,582 639,583 640,584 640,585 640,586 641,587 641,588 641,589 641,590 641,591 642,592 643,593 644,594 645,595 646,596 647,597 648,598 649,599 650,600 651,600 652,601 653,602 654,602 655,603 656,604 657,604 658,605 659,605 660,606 661,607 662,607 663,608 664,608 665,609 666,609 667,609 668,610 669,610 670,611 671,611 672,612 673,612 674,612 675,613 676,613 677,613 678,614 679,614 680,614 681,614 682,615 683,615 684,615 685,615 686,615 687,615 688,615 689,616 690,616 691,616 692,616 693,616 694,616 695,616 696,616 697,616 698,616 699,615 700,615 701,615 702,615 703,615 704,615 705,615 706,614 707,614 708,614 709,613 710,613 711,613 712,612 713,612 714,612 715,611 716,611 717,610 718,610 719,609 720,609 721,608 722,607 723,607 724,606 725,606 726,605 727,604 728,604 729,603 730,602 731,601 732,600 733,599 734,598 735,597 736,596 737,595 737,594 738,593 739,592 740,591 741,590 742,589 742,588 743,587 744,586 744,585 745,584 746,583 746,582 747,581 747,580 748,579 748,578 749,577 749,576 749,575 750,574 750,573 751,572 751,571 752,570 752,569 752,568 753,567 753,566 753,565 753,564 754,563 754,562 754,561 755,560 755,559 755,558 756,557 756,556 756,555 756,554 756,553 757,552 757,551 757,550 758,549 758,548 758,547 758,546 759,545 759,544 759,543 760,542 760,541 760,540 760,539 761,538 761,537 761,536 761,535 761,534 762,533 762,532 762,531 762,530 762,529 763,528 763,527 763,526 763,525 763,524 763,523 763,522 763,521 763,520 764,519 764,518 764,517 764,516 764,515 764,514 764,513 764,512 764,511 764,510 764,509 764,508 764,507 764,506 764,505 765,504 764,503 764,502 764,501 764,500 764,499 764,498 764,497 764,496 764,495 764,494 764,493 764,492 764,491 764,490 763,489 763,488 763,487 763,486 763,485 763,484 763,483 763,482 763,481 763,480 762,479 762,478 762,477 762,476 762,475 762,474 762,473 762,472 762,471 761,470 761,469 761,468 761,467 761,466 761,465 761,464 761,463 760,462 760,461 760,460 760,459 760,458 760,457 760,456 759,455 759,454 759,453 759,452 758,451 758,450 758,449 758,448 757,447 757,446 757,445 756,444 756,443 756,442 755,441 755,440 755,439 754,438 754,437 753,436 753,435 752,434 752,433 751,432 751,431 751,430 750,429 750,428 749,427 749,426 748,425 747,424 747,423 746,422 746,421 745,420 744,419 744,418 743,417 742,416 741,415 741,414 740,413 739,412 738,411 737,410 736,409 735,408 734,407 733,406 732,405 731,404 730,404 729,403 728,402 727,401 726,401 725,400 724,400 723,399 722,398 721,397 720,397 719,396 718,396 717,395 716,395 715,394 714,394 713,393 712,393 711,392 710,392 709,392 708,391 707,391 706,390 705,390 704,390 703,390 702,389 701,389 700,389 699,389 698,389 697,389 696,389 695,389 694,389 693,389 692,389 691,389">
      <metadata tailDirection="" confidence="0.84" linkedToCharacter="" id="MomoyamaHaikagura_049_balloon_5" tailTip=""></metadata>
    </polygon>
  </svg>
</svg>
