<?xml version="1.0" encoding="UTF-8" standalone="no"?>
<svg width="827" xmlns="http://www.w3.org/2000/svg" version="1.0" height="1170">
  <title>MomoyamaHaikagura_029</title>
  <svg contentScriptType="text/ecmascript" zoomAndPan="magnify" contentStyleType="text/css" class="Page" preserveAspectRatio="xMidYMid meet" version="1.0">
    <image xmlns:xlink="http://www.w3.org/1999/xlink" x="0" y="0" width="827" height="1170" xlink:href="./../../dataset_Manga109/MomoyamaHaikagura/MomoyamaHaikagura_029.jpg" xlink:type="simple" xlink:actuate="onLoad" preserveAspectRatio="xMidYMid meet" xlink:show="embed"/>
  </svg>
  <style type="text/css" xml:space="preserve">
        * { stroke-linejoin: round; }
        .Unclassified   { fill: orange; stroke: none;   opacity: 1.0; visibility: hidden; }
        .Noise          { fill: pink;   stroke: none;   opacity: 0.2; visibility: hidden; }
        .Panel          { fill: none;   stroke: red;    stroke-width:3; opacity: 0.5; visibility: visible; image-rendering: optimizeSpeed; }
        .Line           { fill: green;  stroke: none;   opacity: 0.5; visibility: visible; image-rendering: optimizeSpeed; }
        .TextArea       { fill: grey;   stroke: none;   opacity: 0.2; visibility: visible; image-rendering: optimizeSpeed; }
        .Balloon        { fill: cyan;   stroke: none;   opacity: 0.5; visibility: visible; image-rendering: optimizeSpeed; }
        .Letter         { fill: blue;   stroke: none;   opacity: 0.2; visibility: hidden; }
        .Object, .Character, .Face  { fill: yellow; stroke: none;   opacity: 0.5; visibility: visible; image-rendering: optimizeSpeed; }
        .Page           { fill: white;  stroke: none;    opacity: 0.5; visibility: visible; }
        .linkSBSC { fill: blue; stroke: none; opacity: 1.0; visibility: visible; }
        polygon:hover { opacity:1.0; stroke:red; }
</style>
  <svg xmlns="http://www.w3.org/2000/svg" contentScriptType="text/ecmascript" zoomAndPan="magnify" contentStyleType="text/css" class="Balloon" preserveAspectRatio="xMidYMid meet" version="1.0">
    <polygon points="348,506 347,507 346,508 345,508 344,509 343,509 342,510 341,510 340,511 339,511 338,512 337,512 336,513 335,513 334,513 333,514 332,514 331,514 330,514 329,515 328,515 327,515 326,515 325,515 324,515 323,515 322,516 321,517 320,517 319,518 318,519 317,520 316,521 315,521 314,522 313,523 312,524 311,525 310,526 309,527 308,528 307,529 307,530 306,531 305,532 304,533 303,534 302,535 301,535 301,536 300,537 299,537 298,537 297,538 296,539 296,540 296,541 295,542 294,543 294,544 294,545 293,546 293,547 292,548 292,549 292,550 292,551 292,552 292,553 292,554 292,555 292,556 292,557 292,558 292,559 292,560 292,561 292,562 292,563 292,564 292,565 291,566 291,567 291,568 291,569 291,570 291,571 291,572 291,573 291,574 291,575 291,576 291,577 291,578 290,579 289,580 289,581 288,582 287,582 286,582 285,582 284,582 283,581 284,582 284,583 285,584 285,585 286,586 286,587 287,588 288,589 288,590 288,591 289,592 289,593 289,594 290,595 290,596 290,597 289,598 289,599 289,600 289,601 289,602 289,603 289,604 289,605 289,606 289,607 289,608 289,609 289,610 289,611 289,612 289,613 289,614 289,615 289,616 289,617 289,618 289,619 289,620 289,621 290,622 290,623 290,624 290,625 290,626 290,627 290,628 290,629 290,630 290,631 290,632 290,633 290,634 290,635 290,636 290,637 290,638 290,639 290,640 291,641 291,642 291,643 291,644 291,645 291,646 291,647 291,648 291,649 291,650 291,651 292,652 292,653 292,654 292,655 292,656 292,657 292,658 292,659 292,660 292,661 292,662 293,663 293,664 293,665 293,666 294,667 294,668 294,669 294,670 294,671 294,672 294,673 294,674 294,675 294,676 294,677 295,678 295,679 295,680 295,681 296,682 297,683 297,684 298,685 299,686 300,686 301,687 302,688 303,689 304,690 304,691 305,692 306,693 307,694 308,695 309,696 310,697 311,698 312,699 313,700 314,701 315,702 316,703 317,704 318,705 319,706 320,707 321,708 322,708 323,708 324,708 325,708 326,708 327,708 328,708 329,708 330,708 331,708 332,708 333,708 334,709 335,709 336,709 337,709 338,709 339,710 340,710 341,710 342,710 343,711 344,711 345,711 346,711 347,711 348,711 349,711 350,711 351,711 352,710 353,709 354,708 354,707 355,706 356,705 357,704 358,703 359,702 359,701 360,700 361,699 362,698 363,697 363,696 363,695 364,694 365,693 365,692 365,691 366,690 367,689 367,688 368,687 368,686 369,685 370,684 370,683 371,682 371,681 372,680 373,679 373,678 374,677 375,676 376,675 376,674 376,673 376,672 376,671 376,670 376,669 376,668 376,667 376,666 376,665 376,664 376,663 376,662 376,661 376,660 376,659 376,658 376,657 376,656 376,655 376,654 376,653 376,652 376,651 376,650 376,649 376,648 376,647 376,646 376,645 376,644 376,643 377,642 377,641 377,640 377,639 376,638 376,637 376,636 376,635 376,634 376,633 376,632 376,631 376,630 376,629 376,628 376,627 376,626 376,625 376,624 376,623 376,622 376,621 376,620 377,619 377,618 377,617 377,616 377,615 377,614 377,613 377,612 377,611 377,610 377,609 377,608 377,607 377,606 377,605 377,604 377,603 377,602 377,601 377,600 377,599 377,598 378,597 377,596 377,595 377,594 378,593 378,592 378,591 378,590 378,589 377,588 378,587 378,586 378,585 378,584 378,583 378,582 378,581 378,580 378,579 378,578 378,577 378,576 378,575 378,574 378,573 378,572 378,571 378,570 379,569 379,568 379,567 379,566 379,565 379,564 380,563 379,562 379,561 378,560 377,559 376,558 376,557 375,556 375,555 375,554 375,553 374,552 373,551 373,550 372,549 372,548 371,547 371,546 370,545 369,544 369,543 368,542 368,541 367,540 366,539 366,538 365,537 365,536 364,535 363,534 363,533 362,532 362,531 361,530 361,529 360,528 359,527 359,526 358,525 358,524 357,523 357,522 356,521 356,520 355,519 355,518 354,517 353,516 353,515 353,514 352,513 352,512 351,511 350,510 350,509 350,508 349,507 349,506 348,506">
      <metadata tailDirection="" confidence="0.89" linkedToCharacter="" id="MomoyamaHaikagura_029_balloon_0" tailTip=""></metadata>
    </polygon>
    <polygon points="719,773 718,774 717,775 716,776 716,777 715,778 714,779 714,780 713,781 712,782 711,783 711,784 710,785 709,786 709,787 708,788 707,789 707,790 706,791 706,792 705,793 704,794 704,795 703,796 703,797 703,798 703,799 703,800 703,801 703,802 703,803 703,804 703,805 703,806 703,807 703,808 703,809 703,810 703,811 703,812 703,813 703,814 703,815 703,816 702,817 702,818 702,819 702,820 702,821 702,822 702,823 701,824 701,825 701,826 701,827 701,828 701,829 701,830 700,831 700,832 700,833 700,834 700,835 700,836 699,837 699,838 699,839 699,840 699,841 699,842 698,843 698,844 698,845 698,846 698,847 698,848 698,849 697,850 697,851 697,852 697,853 697,854 697,855 697,856 696,857 696,858 696,859 696,860 696,861 696,862 696,863 696,864 696,865 695,866 695,867 695,868 695,869 695,870 695,871 695,872 695,873 695,874 694,875 694,876 694,877 694,878 694,879 694,880 694,881 694,882 693,883 693,884 693,885 693,886 693,887 693,888 693,889 693,890 693,891 693,892 693,893 693,894 693,895 693,896 693,897 693,898 693,899 694,900 694,901 695,902 695,903 695,904 696,905 696,906 696,907 696,908 696,909 697,910 697,911 697,912 697,913 697,914 697,915 697,916 697,917 697,918 697,919 698,920 698,921 698,922 698,923 698,924 698,925 698,926 698,927 698,928 698,929 698,930 698,931 698,932 698,933 698,934 698,935 698,936 698,937 698,938 698,939 698,940 698,941 698,942 698,943 698,944 698,945 698,946 698,947 699,948 699,949 699,950 699,951 699,952 699,953 699,954 699,955 699,956 699,957 699,958 700,959 700,960 699,961 700,962 700,963 700,964 701,965 701,966 701,967 702,968 703,969 704,970 705,971 706,972 707,973 708,974 709,975 710,976 711,977 712,978 713,978 714,979 715,980 716,981 717,982 718,983 719,984 720,985 721,986 721,987 722,988 723,989 724,990 725,991 726,992 726,993 727,994 728,995 728,996 729,997 730,998 731,999 732,1000 733,1001 733,1002 734,1003 735,1003 736,1004 737,1005 738,1005 739,1005 740,1005 741,1005 742,1005 743,1005 744,1004 745,1004 746,1003 747,1003 748,1002 749,1001 750,1000 751,1000 752,999 753,999 754,998 755,997 756,996 757,995 758,994 759,993 760,993 761,992 762,991 763,990 764,990 765,989 766,988 766,987 766,986 766,985 766,984 766,983 766,982 766,981 766,980 766,979 766,978 766,977 766,976 766,975 766,974 766,973 766,972 766,971 766,970 766,969 766,968 766,967 766,966 766,965 766,964 766,963 766,962 766,961 766,960 766,959 766,958 766,957 766,956 766,955 766,954 766,953 766,952 766,951 766,950 766,949 766,948 766,947 766,946 766,945 766,944 766,943 766,942 766,941 766,940 766,939 766,938 766,937 766,936 766,935 766,934 766,933 766,932 766,931 766,930 766,929 766,928 766,927 766,926 766,925 766,924 766,923 766,922 766,921 766,920 766,919 766,918 766,917 766,916 766,915 766,914 766,913 766,912 766,911 766,910 766,909 766,908 766,907 766,906 766,905 766,904 766,903 766,902 766,901 766,900 766,899 766,898 766,897 766,896 766,895 766,894 766,893 766,892 766,891 766,890 766,889 766,888 766,887 766,886 766,885 766,884 766,883 766,882 766,881 766,880 766,879 766,878 766,877 766,876 766,875 766,874 766,873 766,872 766,871 766,870 766,869 766,868 766,867 766,866 766,865 766,864 766,863 766,862 766,861 766,860 766,859 766,858 766,857 766,856 766,855 766,854 766,853 766,852 766,851 766,850 766,849 766,848 766,847 766,846 766,845 766,844 766,843 766,842 766,841 766,840 766,839 766,838 766,837 766,836 766,835 766,834 766,833 766,832 766,831 766,830 766,829 766,828 766,827 766,826 766,825 766,824 766,823 766,822 766,821 766,820 766,819 766,818 766,817 766,816 766,815 766,814 766,813 766,812 766,811 766,810 766,809 766,808 766,807 766,806 766,805 766,804 766,803 766,802 766,801 766,800 766,799 766,798 766,797 766,796 766,795 766,794 766,793 766,792 766,791 766,790 766,789 766,788 766,787 766,786 766,785 766,784 766,783 766,782 766,781 766,780 766,779 766,778 766,777 766,776 766,775 765,774 764,774 763,774 762,774 761,774 760,774 759,774 758,774 757,773 756,774 755,774 754,773 753,773 752,773 751,773 750,773 749,773 748,773 747,773 746,773 745,773 744,773 743,773 742,774 741,773 740,773 739,773 738,773 737,773 736,773 735,773 734,773 733,773 732,773 731,774 730,773 729,773 728,773 727,773 726,773 725,773 724,773 723,773 722,773 721,774 720,773 719,773">
      <metadata tailDirection="" confidence="0.92" linkedToCharacter="" id="MomoyamaHaikagura_029_balloon_1" tailTip=""></metadata>
    </polygon>
  </svg>
</svg>
