<?xml version="1.0" encoding="UTF-8" standalone="no"?>
<svg width="827" xmlns="http://www.w3.org/2000/svg" version="1.0" height="1170">
  <title>MomoyamaHaikagura_063</title>
  <svg contentScriptType="text/ecmascript" zoomAndPan="magnify" contentStyleType="text/css" class="Page" preserveAspectRatio="xMidYMid meet" version="1.0">
    <image xmlns:xlink="http://www.w3.org/1999/xlink" x="0" y="0" width="827" height="1170" xlink:href="./../../dataset_Manga109/MomoyamaHaikagura/MomoyamaHaikagura_063.jpg" xlink:type="simple" xlink:actuate="onLoad" preserveAspectRatio="xMidYMid meet" xlink:show="embed"/>
  </svg>
  <style type="text/css" xml:space="preserve">
        * { stroke-linejoin: round; }
        .Unclassified   { fill: orange; stroke: none;   opacity: 1.0; visibility: hidden; }
        .Noise          { fill: pink;   stroke: none;   opacity: 0.2; visibility: hidden; }
        .Panel          { fill: none;   stroke: red;    stroke-width:3; opacity: 0.5; visibility: visible; image-rendering: optimizeSpeed; }
        .Line           { fill: green;  stroke: none;   opacity: 0.5; visibility: visible; image-rendering: optimizeSpeed; }
        .TextArea       { fill: grey;   stroke: none;   opacity: 0.2; visibility: visible; image-rendering: optimizeSpeed; }
        .Balloon        { fill: cyan;   stroke: none;   opacity: 0.5; visibility: visible; image-rendering: optimizeSpeed; }
        .Letter         { fill: blue;   stroke: none;   opacity: 0.2; visibility: hidden; }
        .Object, .Character, .Face  { fill: yellow; stroke: none;   opacity: 0.5; visibility: visible; image-rendering: optimizeSpeed; }
        .Page           { fill: white;  stroke: none;    opacity: 0.5; visibility: visible; }
        .linkSBSC { fill: blue; stroke: none; opacity: 1.0; visibility: visible; }
        polygon:hover { opacity:1.0; stroke:red; }
</style>
  <svg xmlns="http://www.w3.org/2000/svg" contentScriptType="text/ecmascript" zoomAndPan="magnify" contentStyleType="text/css" class="Balloon" preserveAspectRatio="xMidYMid meet" version="1.0">
    <polygon points="88,903 87,904 86,904 85,904 84,904 83,905 82,905 81,905 80,905 79,906 78,906 77,907 76,907 75,907 74,908 73,909 72,909 71,910 70,910 69,911 68,912 67,913 66,913 65,914 64,915 63,915 62,916 61,917 60,918 60,919 59,920 58,921 57,922 56,923 56,924 55,925 55,926 54,927 54,928 53,929 53,930 52,931 51,932 51,933 50,934 50,935 50,936 49,937 48,938 48,939 47,940 47,941 47,942 46,943 46,944 46,945 45,946 45,947 45,948 44,949 44,950 43,951 43,952 42,953 42,954 41,955 41,956 41,957 40,958 40,959 40,960 39,961 39,962 39,963 39,964 38,965 38,966 38,967 37,968 37,969 37,970 37,971 37,972 37,973 36,974 36,975 36,976 36,977 35,978 35,979 35,980 35,981 35,982 35,983 34,984 34,985 34,986 34,987 33,988 33,989 33,990 33,991 33,992 33,993 33,994 33,995 32,996 32,997 32,998 32,999 32,1000 32,1001 32,1002 32,1003 32,1004 32,1005 32,1006 32,1007 32,1008 32,1009 31,1010 31,1011 31,1012 31,1013 31,1014 31,1015 31,1016 31,1017 31,1018 31,1019 31,1020 31,1021 31,1022 31,1023 30,1024 30,1025 30,1026 30,1027 30,1028 30,1029 30,1030 31,1031 31,1032 31,1033 31,1034 31,1035 31,1036 31,1037 31,1038 31,1039 31,1040 31,1041 31,1042 31,1043 31,1044 31,1045 31,1046 31,1047 31,1048 32,1049 32,1050 32,1051 32,1052 32,1053 32,1054 33,1055 33,1056 33,1057 33,1058 33,1059 33,1060 33,1061 34,1062 34,1063 34,1064 34,1065 34,1066 35,1067 35,1068 35,1069 35,1070 36,1071 36,1072 36,1073 36,1074 37,1075 37,1076 37,1077 37,1078 38,1079 38,1080 38,1081 38,1082 39,1083 39,1084 39,1085 40,1086 40,1087 40,1088 40,1089 41,1090 41,1091 42,1092 42,1093 42,1094 43,1095 43,1096 44,1097 44,1098 45,1099 45,1100 46,1101 46,1102 47,1103 47,1104 48,1105 48,1106 49,1107 49,1108 50,1109 51,1110 52,1111 52,1112 53,1113 53,1114 54,1115 55,1116 55,1117 56,1118 57,1119 58,1120 58,1121 59,1122 60,1123 61,1124 62,1125 63,1126 64,1127 65,1128 66,1129 67,1129 68,1130 69,1131 70,1131 71,1132 72,1133 73,1133 74,1134 75,1134 76,1135 77,1135 78,1136 79,1136 80,1137 81,1137 82,1137 83,1137 84,1138 85,1138 86,1138 87,1138 88,1138 89,1138 90,1138 91,1138 92,1138 93,1138 94,1138 95,1138 96,1138 97,1138 98,1137 99,1137 100,1137 101,1136 102,1136 103,1136 104,1135 105,1135 106,1135 107,1134 108,1134 109,1133 110,1133 111,1132 112,1132 113,1131 114,1131 115,1130 116,1129 117,1128 118,1128 119,1127 120,1126 121,1125 122,1124 123,1123 124,1122 124,1121 125,1120 126,1119 127,1118 128,1117 129,1116 129,1115 130,1114 131,1113 131,1112 132,1111 133,1110 133,1109 134,1108 135,1107 135,1106 136,1105 136,1104 137,1103 137,1102 138,1101 138,1100 139,1099 139,1098 140,1097 140,1096 140,1095 141,1094 141,1093 142,1092 142,1091 142,1090 143,1089 143,1088 143,1087 144,1086 144,1085 144,1084 144,1083 145,1082 145,1081 145,1080 145,1079 146,1078 146,1077 146,1076 146,1075 147,1074 147,1073 147,1072 147,1071 147,1070 148,1069 148,1068 148,1067 148,1066 148,1065 149,1064 149,1063 149,1062 149,1061 149,1060 149,1059 149,1058 150,1057 150,1056 150,1055 150,1054 150,1053 151,1052 151,1051 151,1050 151,1049 151,1048 151,1047 151,1046 151,1045 152,1044 152,1043 152,1042 152,1041 152,1040 152,1039 152,1038 152,1037 152,1036 153,1035 153,1034 153,1033 153,1032 153,1031 153,1030 153,1029 153,1028 153,1027 153,1026 153,1025 153,1024 154,1023 154,1022 154,1021 154,1020 154,1019 154,1018 154,1017 154,1016 154,1015 154,1014 154,1013 154,1012 154,1011 155,1010 155,1009 154,1008 155,1007 155,1006 154,1005 154,1004 154,1003 154,1002 154,1001 154,1000 154,999 154,998 154,997 154,996 154,995 154,994 153,993 153,992 153,991 153,990 153,989 153,988 153,987 153,986 152,985 152,984 152,983 152,982 152,981 152,980 152,979 151,978 151,977 151,976 151,975 151,974 151,973 150,972 150,971 150,970 150,969 150,968 150,967 149,966 149,965 149,964 149,963 149,962 148,961 148,960 148,959 148,958 147,957 147,956 147,955 147,954 146,953 146,952 145,951 145,950 144,949 144,948 144,947 144,946 143,945 143,944 143,943 142,942 142,941 142,940 142,939 141,938 141,937 141,936 140,935 140,934 139,933 139,932 138,931 137,930 137,929 136,928 135,927 135,926 134,925 133,924 132,923 131,922 130,921 129,920 128,919 127,918 126,917 125,917 124,916 123,915 122,914 121,913 120,913 119,912 118,911 117,910 116,910 115,909 114,908 113,908 112,907 111,907 110,907 109,906 108,906 107,905 106,905 105,905 104,904 103,904 102,904 101,904 100,904 99,903 98,904 97,903 96,903 95,903 94,903 93,903 92,903 91,903 90,903 89,903 88,903">
      <metadata tailDirection="" confidence="0.99" linkedToCharacter="" id="MomoyamaHaikagura_063_balloon_0" tailTip=""></metadata>
    </polygon>
    <polygon points="394,840 393,841 392,841 391,841 390,841 389,842 388,842 387,843 386,843 385,844 384,844 383,845 382,845 381,846 380,847 379,848 378,849 377,849 376,850 375,851 374,852 373,853 372,854 371,855 370,856 369,857 368,858 367,859 366,860 365,861 364,862 364,863 363,864 362,865 362,866 361,867 360,868 360,869 360,870 359,871 359,872 358,873 358,874 358,875 357,876 357,877 357,878 356,879 356,880 356,881 355,882 355,883 355,884 355,885 354,886 354,887 353,888 353,889 353,890 353,891 352,892 352,893 352,894 351,895 351,896 351,897 351,898 350,899 350,900 350,901 350,902 350,903 349,904 349,905 349,906 349,907 349,908 349,909 349,910 348,911 348,912 348,913 348,914 348,915 348,916 348,917 348,918 347,919 347,920 347,921 347,922 347,923 347,924 347,925 347,926 346,927 346,928 346,929 346,930 346,931 346,932 346,933 346,934 346,935 346,936 346,937 346,938 346,939 346,940 346,941 346,942 345,943 345,944 345,945 345,946 345,947 345,948 345,949 345,950 345,951 345,952 345,953 345,954 345,955 345,956 345,957 345,958 345,959 345,960 345,961 345,962 345,963 345,964 345,965 345,966 345,967 345,968 345,969 345,970 345,971 345,972 345,973 345,974 346,975 345,976 345,977 345,978 346,979 346,980 346,981 346,982 346,983 346,984 346,985 346,986 346,987 346,988 346,989 347,990 347,991 347,992 347,993 347,994 347,995 347,996 348,997 348,998 348,999 348,1000 348,1001 348,1002 349,1003 349,1004 349,1005 349,1006 349,1007 350,1008 350,1009 350,1010 350,1011 350,1012 351,1013 351,1014 351,1015 352,1016 352,1017 352,1018 352,1019 353,1020 353,1021 354,1022 354,1023 354,1024 354,1025 355,1026 355,1027 355,1028 356,1029 356,1030 356,1031 357,1032 357,1033 358,1034 358,1035 358,1036 359,1037 359,1038 360,1039 360,1040 361,1041 361,1042 362,1043 362,1044 363,1045 364,1046 364,1047 364,1048 365,1049 366,1050 366,1051 367,1052 368,1053 369,1054 369,1055 370,1056 371,1057 371,1058 372,1059 373,1060 374,1061 375,1062 376,1063 377,1064 378,1065 379,1065 380,1066 381,1067 382,1068 383,1069 384,1069 385,1070 386,1070 387,1071 388,1071 389,1071 390,1072 391,1072 392,1072 393,1073 394,1073 395,1073 396,1073 397,1074 398,1074 399,1074 400,1074 401,1074 402,1074 403,1074 404,1074 405,1074 406,1074 407,1074 408,1074 409,1073 410,1073 411,1073 412,1072 413,1072 414,1072 415,1071 416,1071 417,1070 418,1069 419,1069 420,1068 421,1067 422,1067 423,1066 424,1067 425,1067 425,1066 425,1065 426,1064 426,1063 427,1062 427,1061 428,1060 429,1059 429,1058 430,1057 431,1056 431,1055 432,1054 432,1053 433,1052 434,1051 435,1050 435,1049 436,1048 436,1047 437,1046 438,1045 438,1044 439,1043 440,1042 440,1041 441,1040 442,1039 442,1038 443,1037 443,1036 444,1035 444,1034 444,1033 445,1032 445,1031 445,1030 446,1029 446,1028 446,1027 446,1026 447,1025 447,1024 447,1023 447,1022 448,1021 448,1020 448,1019 449,1018 449,1017 449,1016 449,1015 449,1014 449,1013 450,1012 450,1011 450,1010 450,1009 450,1008 450,1007 450,1006 451,1005 451,1004 451,1003 451,1002 451,1001 451,1000 451,999 451,998 452,997 452,996 452,995 452,994 452,993 452,992 452,991 452,990 452,989 452,988 453,987 453,986 453,985 453,984 453,983 453,982 453,981 453,980 453,979 453,978 453,977 453,976 453,975 453,974 453,973 453,972 454,971 454,970 454,969 453,968 454,967 454,966 454,965 454,964 454,963 454,962 454,961 454,960 454,959 454,958 454,957 454,956 454,955 454,954 454,953 454,952 454,951 454,950 454,949 454,948 454,947 454,946 454,945 454,944 454,943 454,942 454,941 453,940 453,939 453,938 453,937 453,936 453,935 453,934 453,933 453,932 453,931 452,930 452,929 452,928 452,927 452,926 452,925 452,924 452,923 452,922 451,921 451,920 451,919 451,918 451,917 451,916 451,915 451,914 451,913 450,912 450,911 450,910 450,909 450,908 449,907 449,906 449,905 449,904 449,903 448,902 448,901 448,900 448,899 447,898 447,897 447,896 447,895 446,894 446,893 446,892 445,891 445,890 445,889 444,888 444,887 444,886 444,885 443,884 443,883 442,882 442,881 442,880 441,879 441,878 440,877 440,876 440,875 440,874 439,873 439,872 438,871 438,870 437,869 437,868 436,867 436,866 436,865 435,864 435,863 434,862 433,861 432,860 432,859 431,858 430,857 429,856 428,855 428,854 427,853 426,852 425,851 424,850 423,849 422,849 421,848 420,847 419,847 418,846 417,845 416,845 415,844 414,844 413,843 412,843 411,843 410,842 409,842 408,841 407,841 406,841 405,840 404,840 403,840 402,840 401,840 400,840 399,840 398,840 397,840 396,840 395,840 394,840">
      <metadata tailDirection="" confidence="0.87" linkedToCharacter="" id="MomoyamaHaikagura_063_balloon_1" tailTip=""></metadata>
    </polygon>
    <polygon points="661,622 660,623 659,624 658,625 657,626 656,627 656,628 655,629 655,630 654,631 653,632 653,633 652,634 652,635 651,636 651,637 650,638 649,639 649,640 648,641 648,642 647,643 647,644 646,645 646,646 646,647 645,648 645,649 644,650 644,651 644,652 643,653 643,654 643,655 642,656 642,657 642,658 642,659 641,660 641,661 641,662 641,663 640,664 640,665 640,666 640,667 640,668 639,669 639,670 639,671 639,672 639,673 638,674 638,675 638,676 638,677 638,678 638,679 638,680 637,681 637,682 637,683 637,684 637,685 637,686 637,687 637,688 636,689 636,690 636,691 636,692 636,693 636,694 636,695 636,696 636,697 636,698 636,699 636,700 636,701 636,702 636,703 636,704 636,705 635,706 636,707 635,708 635,709 635,710 635,711 635,712 635,713 635,714 636,715 636,716 636,717 636,718 637,719 638,720 639,721 639,722 639,723 638,724 637,723 636,722 635,722 634,722 633,721 634,720 635,720 634,719 633,718 632,717 631,717 630,716 629,715 628,714 627,714 626,713 625,712 624,712 623,711 622,711 621,710 620,710 619,709 618,709 617,708 616,708 615,708 614,707 613,707 612,707 611,706 610,706 609,706 608,706 607,705 606,705 605,705 604,705 603,704 602,704 601,704 600,704 599,704 598,704 597,703 596,703 595,703 594,703 593,703 592,703 591,703 590,703 589,702 588,703 587,703 586,702 585,703 584,703 583,703 582,703 581,703 580,703 579,703 578,703 577,703 576,703 575,703 574,703 573,703 572,703 571,704 570,704 569,704 568,704 567,705 566,705 565,705 564,706 563,706 562,706 561,706 560,706 559,707 558,707 557,708 556,708 555,709 554,709 553,710 552,710 551,711 550,712 549,713 548,713 547,714 546,715 545,716 544,716 543,717 542,718 541,719 540,720 539,721 538,722 537,723 536,724 535,725 534,726 534,727 533,728 532,729 532,730 532,731 532,732 532,733 532,734 532,735 532,736 532,737 532,738 532,739 532,740 532,741 532,742 532,743 532,744 532,745 532,746 532,747 532,748 532,749 532,750 532,751 532,752 532,753 532,754 532,755 532,756 532,757 532,758 532,759 532,760 532,761 532,762 532,763 532,764 532,765 532,766 532,767 532,768 532,769 532,770 532,771 532,772 532,773 532,774 532,775 532,776 532,777 532,778 532,779 532,780 532,781 532,782 532,783 532,784 532,785 532,786 532,787 532,788 532,789 532,790 532,791 532,792 532,793 532,794 532,795 532,796 532,797 532,798 532,799 532,800 532,801 532,802 532,803 532,804 532,805 532,806 532,807 532,808 532,809 532,810 532,811 532,812 532,813 532,814 532,815 532,816 532,817 532,818 532,819 532,820 532,821 532,822 532,823 532,824 532,825 532,826 532,827 532,828 532,829 532,830 532,831 532,832 531,833 531,834 532,835 532,836 532,837 532,838 531,839 532,840 532,841 532,842 532,843 532,844 532,845 531,846 532,847 531,848 531,849 531,850 531,851 531,852 531,853 531,854 531,855 531,856 531,857 531,858 531,859 531,860 531,861 531,862 531,863 531,864 531,865 531,866 531,867 531,868 531,869 531,870 532,871 531,872 531,873 531,874 531,875 531,876 531,877 532,878 531,879 531,880 531,881 531,882 531,883 531,884 531,885 531,886 531,887 531,888 531,889 531,890 531,891 531,892 531,893 531,894 531,895 531,896 531,897 531,898 531,899 531,900 531,901 531,902 531,903 531,904 531,905 531,906 531,907 531,908 531,909 531,910 531,911 531,912 531,913 531,914 531,915 531,916 531,917 531,918 531,919 531,920 531,921 531,922 531,923 531,924 531,925 531,926 531,927 531,928 531,929 531,930 531,931 531,932 531,933 531,934 531,935 531,936 531,937 531,938 531,939 531,940 531,941 531,942 531,943 531,944 531,945 531,946 531,947 531,948 531,949 531,950 531,951 531,952 531,953 531,954 531,955 531,956 531,957 531,958 531,959 531,960 531,961 531,962 531,963 531,964 531,965 532,966 533,967 533,968 534,969 535,970 536,971 537,972 538,973 539,974 540,975 541,976 542,976 543,977 544,978 545,978 546,979 547,980 548,980 549,981 550,982 551,982 552,983 553,983 554,984 555,984 556,985 557,985 558,986 559,986 560,987 561,987 562,987 563,988 564,988 565,988 566,989 567,989 568,989 569,989 570,990 571,990 572,990 573,990 574,991 575,991 576,991 577,991 578,991 579,992 580,992 581,992 582,992 583,992 584,992 585,992 586,992 587,992 588,992 589,992 590,992 591,992 592,992 593,992 594,992 595,992 596,992 597,992 598,992 599,992 600,992 601,992 602,992 603,991 604,991 605,991 606,990 607,990 608,990 609,990 610,990 611,990 612,989 613,989 614,989 615,989 616,988 617,988 618,988 619,988 620,987 621,987 622,986 623,986 624,986 625,985 626,985 627,984 628,984 629,983 630,982 631,982 632,981 633,981 634,980 635,980 636,979 637,978 638,978 639,977 640,976 641,975 642,975 643,974 644,973 645,973 646,972 647,971 648,970 649,969 650,968 651,967 651,966 652,965 653,964 653,963 654,962 655,961 655,960 656,959 657,958 657,957 658,956 659,955 660,954 660,953 661,952 662,951 662,950 663,949 664,948 664,947 665,946 666,945 666,944 667,943 667,942 668,941 668,940 669,939 669,938 670,937 671,936 671,935 671,934 672,933 672,932 673,931 673,930 673,929 674,928 674,927 675,926 675,925 675,924 675,923 676,922 676,921 677,920 677,919 677,918 677,917 678,916 678,915 678,914 679,913 679,912 679,911 679,910 679,909 680,908 680,907 680,906 680,905 680,904 680,903 681,902 681,901 681,900 681,899 681,898 681,897 681,896 681,895 682,894 682,893 682,892 682,891 682,890 683,889 684,888 685,889 686,890 687,891 688,892 689,892 690,893 691,894 692,895 693,895 694,896 695,896 696,897 697,897 698,898 699,898 700,898 701,898 702,899 703,899 704,899 705,900 706,900 707,900 708,900 709,900 710,901 711,901 712,901 713,901 714,901 715,901 716,901 717,901 718,902 719,902 720,901 721,901 722,901 723,901 724,901 725,901 726,901 727,901 728,901 729,901 730,901 731,901 732,900 733,900 734,900 735,900 736,900 737,899 738,899 739,899 740,898 741,898 742,898 743,897 744,897 745,897 746,896 747,896 748,896 749,895 750,895 751,894 752,894 753,893 754,893 755,892 756,892 757,891 758,891 759,890 760,889 761,889 762,888 763,887 764,886 765,885 766,884 766,883 767,882 768,881 769,880 770,879 770,878 770,877 770,876 770,875 770,874 770,873 770,872 770,871 770,870 770,869 770,868 770,867 770,866 770,865 770,864 770,863 770,862 770,861 770,860 770,859 770,858 770,857 770,856 770,855 770,854 770,853 770,852 770,851 770,850 770,849 770,848 770,847 770,846 770,845 770,844 770,843 770,842 770,841 770,840 770,839 770,838 770,837 770,836 770,835 770,834 770,833 770,832 770,831 770,830 770,829 770,828 770,827 770,826 770,825 770,824 770,823 770,822 770,821 770,820 770,819 770,818 770,817 770,816 770,815 770,814 770,813 770,812 770,811 770,810 770,809 770,808 770,807 770,806 770,805 770,804 770,803 770,802 770,801 770,800 770,799 770,798 770,797 770,796 770,795 770,794 770,793 770,792 770,791 770,790 770,789 770,788 770,787 770,786 770,785 770,784 770,783 770,782 770,781 770,780 770,779 770,778 770,777 770,776 770,775 770,774 770,773 770,772 770,771 770,770 770,769 770,768 770,767 770,766 770,765 770,764 770,763 770,762 770,761 770,760 770,759 770,758 770,757 770,756 770,755 770,754 770,753 770,752 770,751 770,750 770,749 770,748 770,747 770,746 770,745 770,744 770,743 770,742 770,741 770,740 770,739 770,738 770,737 770,736 770,735 770,734 770,733 770,732 770,731 770,730 770,729 770,728 770,727 770,726 770,725 770,724 770,723 770,722 770,721 770,720 770,719 770,718 770,717 770,716 770,715 770,714 770,713 770,712 770,711 770,710 770,709 770,708 770,707 770,706 770,705 770,704 770,703 770,702 770,701 770,700 770,699 770,698 770,697 770,696 770,695 770,694 770,693 770,692 770,691 770,690 770,689 770,688 770,687 770,686 770,685 770,684 770,683 770,682 770,681 770,680 770,679 770,678 770,677 770,676 770,675 770,674 770,673 770,672 770,671 770,670 770,669 770,668 770,667 770,666 770,665 770,664 770,663 770,662 770,661 770,660 770,659 770,658 770,657 770,656 770,655 770,654 770,653 770,652 770,651 770,650 770,649 770,648 770,647 770,646 770,645 770,644 770,643 770,642 770,641 770,640 770,639 770,638 770,637 770,636 770,635 770,634 770,633 770,632 770,631 770,630 770,629 770,628 770,627 770,626 770,625 770,624 770,623 770,622 769,622 768,622 767,622 766,622 765,622 764,622 763,622 762,622 761,622 760,622 759,622 758,622 757,622 756,622 755,622 754,622 753,622 752,622 751,622 750,622 749,622 748,622 747,622 746,622 745,622 744,622 743,622 742,622 741,622 740,622 739,622 738,622 737,622 736,622 735,622 734,622 733,622 732,622 731,622 730,622 729,622 728,622 727,622 726,622 725,622 724,622 723,622 722,622 721,622 720,622 719,622 718,622 717,622 716,622 715,622 714,622 713,622 712,622 711,622 710,622 709,622 708,622 707,622 706,622 705,622 704,622 703,622 702,622 701,622 700,622 699,622 698,622 697,622 696,622 695,622 694,622 693,622 692,622 691,622 690,622 689,622 688,622 687,622 686,622 685,622 684,622 683,622 682,622 681,622 680,622 679,622 678,622 677,622 676,622 675,622 674,622 673,622 672,622 671,622 670,622 669,622 668,622 667,622 666,622 665,622 664,622 663,622 662,622 661,622">
      <metadata tailDirection="" confidence="0.88" linkedToCharacter="" id="MomoyamaHaikagura_063_balloon_2" tailTip=""></metadata>
    </polygon>
    <polygon points="479,621 478,622 477,622 477,623 476,624 475,625 474,626 474,627 473,628 472,629 472,630 471,631 471,632 470,633 470,634 469,635 469,636 468,637 468,638 467,639 467,640 466,641 466,642 465,643 465,644 464,645 464,646 464,647 463,648 463,649 463,650 463,651 462,652 462,653 462,654 462,655 461,656 461,657 461,658 460,659 460,660 460,661 460,662 460,663 460,664 459,665 459,666 459,667 459,668 459,669 459,670 459,671 458,672 458,673 458,674 458,675 458,676 458,677 457,678 457,679 457,680 457,681 457,682 456,683 456,684 456,685 456,686 456,687 456,688 456,689 456,690 456,691 456,692 456,693 456,694 456,695 456,696 456,697 456,698 455,699 456,700 455,701 456,702 456,703 455,704 456,705 456,706 455,707 455,708 455,709 456,710 456,711 456,712 456,713 456,714 456,715 456,716 456,717 456,718 456,719 456,720 456,721 456,722 456,723 456,724 456,725 456,726 456,727 456,728 456,729 457,730 457,731 457,732 457,733 456,734 456,735 456,736 456,737 456,738 456,739 456,740 456,741 456,742 456,743 456,744 456,745 457,746 457,747 457,748 457,749 457,750 457,751 457,752 458,753 458,754 458,755 458,756 458,757 458,758 458,759 458,760 459,761 459,762 459,763 459,764 459,765 459,766 460,767 460,768 460,769 460,770 461,771 461,772 461,773 461,774 461,775 462,776 462,777 462,778 462,779 463,780 463,781 463,782 464,783 464,784 464,785 465,786 465,787 465,788 466,789 466,790 466,791 467,792 467,793 468,794 468,795 469,796 469,797 470,798 470,799 471,800 472,801 472,802 473,803 473,804 474,805 475,806 475,807 476,808 477,809 477,810 478,811 479,812 480,813 481,814 482,815 483,816 484,817 485,818 486,819 487,820 488,820 489,821 490,822 491,822 492,823 493,823 494,824 495,824 496,824 497,825 498,825 499,825 500,826 501,826 502,826 503,827 503,828 503,829 504,828 504,827 505,826 506,825 507,825 508,825 509,825 510,824 511,824 512,823 513,822 514,822 515,821 516,820 517,819 517,818 517,817 517,816 517,815 517,814 517,813 517,812 517,811 517,810 517,809 517,808 517,807 517,806 517,805 517,804 517,803 517,802 517,801 517,800 517,799 517,798 517,797 517,796 517,795 517,794 517,793 517,792 517,791 517,790 517,789 517,788 517,787 517,786 517,785 517,784 517,783 517,782 517,781 517,780 517,779 517,778 517,777 517,776 517,775 517,774 517,773 517,772 517,771 517,770 517,769 517,768 517,767 517,766 517,765 517,764 517,763 517,762 517,761 517,760 517,759 517,758 517,757 517,756 517,755 517,754 517,753 517,752 517,751 517,750 517,749 517,748 517,747 517,746 517,745 517,744 517,743 517,742 517,741 517,740 517,739 517,738 518,737 518,736 517,735 517,734 517,733 517,732 517,731 517,730 517,729 517,728 517,727 517,726 517,725 517,724 517,723 517,722 517,721 517,720 517,719 517,718 517,717 517,716 517,715 517,714 517,713 517,712 517,711 517,710 517,709 517,708 517,707 517,706 517,705 517,704 517,703 517,702 517,701 517,700 517,699 517,698 517,697 518,696 517,695 517,694 517,693 517,692 517,691 518,690 518,689 518,688 517,687 518,686 517,685 517,684 517,683 517,682 517,681 517,680 517,679 517,678 517,677 517,676 518,675 518,674 518,673 518,672 517,671 517,670 517,669 517,668 517,667 517,666 517,665 517,664 517,663 517,662 517,661 517,660 517,659 517,658 517,657 517,656 517,655 517,654 517,653 517,652 517,651 517,650 517,649 517,648 517,647 517,646 517,645 517,644 517,643 517,642 517,641 517,640 517,639 517,638 517,637 517,636 517,635 517,634 517,633 517,632 517,631 517,630 517,629 517,628 517,627 517,626 517,625 517,624 517,623 517,622 516,622 515,622 514,622 513,622 512,622 511,622 510,622 509,622 508,622 507,622 506,622 505,622 504,622 503,622 502,622 501,622 500,622 499,622 498,622 497,622 496,622 495,622 494,622 493,622 492,622 491,622 490,622 489,622 488,622 487,622 486,622 485,622 484,622 483,622 482,622 481,622 480,621 479,621">
      <metadata tailDirection="" confidence="0.99" linkedToCharacter="" id="MomoyamaHaikagura_063_balloon_3" tailTip=""></metadata>
    </polygon>
    <polygon points="644,408 643,409 643,410 642,411 641,412 640,413 640,414 639,415 639,416 638,417 638,418 637,419 637,420 637,421 636,422 636,423 635,424 635,425 634,426 634,427 634,428 633,429 633,430 632,431 632,432 632,433 631,434 631,435 631,436 630,437 630,438 630,439 629,440 629,441 629,442 629,443 628,444 628,445 628,446 628,447 628,448 627,449 627,450 627,451 627,452 626,453 626,454 626,455 626,456 626,457 626,458 625,459 625,460 625,461 625,462 625,463 625,464 625,465 625,466 625,467 625,468 624,469 624,470 624,471 624,472 624,473 624,474 624,475 624,476 624,477 624,478 624,479 624,480 624,481 624,482 624,483 624,484 624,485 624,486 624,487 624,488 624,489 624,490 624,491 624,492 624,493 625,494 625,495 625,496 625,497 625,498 625,499 625,500 625,501 625,502 625,503 625,504 625,505 625,506 625,507 625,508 625,509 625,510 625,511 625,512 624,513 625,514 626,515 626,516 626,517 626,518 627,519 627,520 627,521 627,522 627,523 628,524 628,525 628,526 629,527 629,528 629,529 629,530 630,531 630,532 630,533 631,534 631,535 631,536 632,537 632,538 633,539 633,540 633,541 634,542 634,543 635,544 635,545 636,546 637,547 637,548 638,549 639,550 640,551 641,552 642,553 643,554 644,555 644,556 645,557 646,558 647,558 648,559 649,560 650,561 651,562 652,562 653,563 654,564 655,564 656,565 657,566 658,566 659,567 660,568 661,569 662,569 663,570 664,570 665,571 666,572 667,572 668,573 669,573 670,574 671,574 672,575 673,575 674,575 675,575 676,576 677,576 678,576 679,577 680,577 681,577 682,578 683,578 684,578 685,578 686,579 687,579 688,579 689,579 690,579 691,580 692,580 693,580 694,580 695,580 696,580 697,580 698,580 699,580 700,580 701,580 702,581 703,581 704,581 705,581 706,581 707,581 708,581 709,581 710,580 711,580 712,580 713,580 714,580 715,580 716,580 717,580 718,580 719,580 720,580 721,580 722,580 723,579 724,579 725,579 726,579 727,579 728,578 729,578 730,578 731,578 732,578 733,577 734,577 735,577 736,577 737,576 738,576 739,576 740,575 741,575 742,575 743,574 744,574 745,573 746,573 747,573 748,572 749,572 750,571 751,571 752,570 753,570 754,569 755,569 756,568 757,567 758,567 759,567 760,566 761,565 762,564 763,564 763,563 764,562 765,561 766,560 766,559 767,558 768,557 769,556 770,555 770,554 770,553 770,552 770,551 770,550 770,549 770,548 770,547 770,546 770,545 770,544 770,543 770,542 770,541 770,540 770,539 770,538 770,537 770,536 770,535 770,534 770,533 770,532 770,531 770,530 770,529 770,528 770,527 770,526 770,525 770,524 770,523 770,522 770,521 770,520 771,519 771,518 771,517 771,516 771,515 771,514 770,513 771,512 771,511 771,510 771,509 771,508 771,507 771,506 770,505 770,504 771,503 771,502 771,501 771,500 771,499 771,498 771,497 771,496 771,495 770,494 770,493 770,492 771,491 771,490 771,489 771,488 771,487 771,486 771,485 771,484 771,483 771,482 771,481 771,480 771,479 771,478 771,477 771,476 771,475 771,474 771,473 771,472 771,471 771,470 771,469 771,468 771,467 771,466 771,465 771,464 771,463 771,462 771,461 771,460 771,459 771,458 771,457 771,456 771,455 771,454 771,453 771,452 771,451 771,450 771,449 771,448 771,447 771,446 771,445 771,444 771,443 771,442 771,441 771,440 771,439 771,438 771,437 771,436 771,435 771,434 771,433 771,432 771,431 771,430 771,429 771,428 771,427 771,426 771,425 771,424 771,423 771,422 771,421 771,420 771,419 771,418 771,417 771,416 771,415 771,414 770,413 770,412 771,411 771,410 771,409 770,409 769,409 768,408 767,408 766,408 765,408 764,408 763,408 762,408 761,408 760,408 759,408 758,408 757,408 756,408 755,408 754,408 753,408 752,408 751,408 750,408 749,408 748,408 747,408 746,408 745,408 744,408 743,408 742,408 741,408 740,408 739,408 738,408 737,408 736,408 735,408 734,408 733,408 732,408 731,408 730,408 729,408 728,408 727,408 726,408 725,408 724,408 723,408 722,408 721,408 720,408 719,408 718,408 717,408 716,408 715,408 714,408 713,408 712,408 711,408 710,408 709,408 708,408 707,408 706,408 705,408 704,408 703,408 702,408 701,408 700,408 699,408 698,408 697,408 696,408 695,408 694,408 693,408 692,408 691,408 690,408 689,408 688,408 687,408 686,408 685,408 684,408 683,408 682,408 681,408 680,408 679,408 678,408 677,408 676,408 675,408 674,408 673,408 672,408 671,408 670,408 669,408 668,408 667,408 666,408 665,408 664,408 663,408 662,408 661,408 660,408 659,408 658,408 657,408 656,408 655,408 654,408 653,408 652,408 651,408 650,408 649,408 648,408 647,408 646,408 645,408 644,408">
      <metadata tailDirection="" confidence="0.89" linkedToCharacter="" id="MomoyamaHaikagura_063_balloon_4" tailTip=""></metadata>
    </polygon>
    <polygon points="272,407 271,408 270,409 269,410 269,411 268,412 267,413 267,414 266,415 265,416 265,417 264,418 264,419 263,420 263,421 262,422 262,423 261,424 261,425 260,426 260,427 260,428 259,429 259,430 258,431 258,432 257,433 257,434 257,435 256,436 256,437 256,438 255,439 255,440 255,441 254,442 254,443 254,444 253,445 253,446 252,447 252,448 252,449 251,450 251,451 251,452 251,453 251,454 250,455 250,456 250,457 250,458 250,459 249,460 249,461 249,462 249,463 249,464 249,465 249,466 249,467 248,468 248,469 248,470 248,471 248,472 248,473 248,474 248,475 248,476 248,477 248,478 247,479 248,480 247,481 248,482 248,483 248,484 248,485 248,486 248,487 248,488 248,489 248,490 248,491 248,492 248,493 248,494 248,495 248,496 248,497 248,498 249,499 249,500 249,501 249,502 249,503 249,504 249,505 250,506 250,507 250,508 250,509 250,510 250,511 251,512 251,513 251,514 251,515 251,516 251,517 251,518 252,519 252,520 252,521 252,522 252,523 252,524 253,525 253,526 253,527 254,528 254,529 254,530 255,531 255,532 255,533 256,534 256,535 256,536 257,537 257,538 258,539 258,540 259,541 259,542 259,543 260,544 261,545 261,546 262,547 263,548 264,549 264,550 265,551 265,552 266,553 267,554 268,555 268,556 269,557 270,558 271,559 271,560 272,561 273,562 274,563 275,564 276,565 277,566 278,567 279,568 280,569 281,570 282,571 283,571 284,572 285,573 286,573 287,574 288,575 289,575 290,576 291,576 292,576 293,577 294,577 295,578 296,578 297,578 298,579 299,579 300,579 301,580 302,580 303,580 304,580 305,580 306,580 307,580 308,581 309,581 310,581 311,581 312,581 313,581 314,581 315,581 316,581 317,581 318,581 319,581 320,581 321,580 322,580 323,580 324,580 325,580 326,580 327,580 328,580 329,579 330,579 331,578 332,578 333,578 334,577 335,576 336,576 337,575 338,574 339,573 340,573 341,572 342,571 343,570 344,569 345,568 346,567 347,566 348,565 348,564 349,563 350,562 351,561 352,560 352,559 353,558 354,557 354,556 355,555 355,554 356,553 357,552 357,551 358,550 359,549 359,548 359,547 359,546 360,545 360,544 361,543 361,542 361,541 362,540 362,539 362,538 362,537 363,536 363,535 363,534 364,533 364,532 364,531 365,530 365,529 365,528 366,527 366,526 366,525 366,524 367,523 367,522 367,521 367,520 368,519 368,518 368,517 368,516 369,515 369,514 369,513 370,512 370,511 370,510 370,509 371,508 371,507 372,506 372,505 373,504 373,503 372,503 371,502 370,501 370,500 370,499 370,498 370,497 370,496 370,495 370,494 370,493 370,492 370,491 370,490 370,489 370,488 370,487 370,486 371,485 370,484 370,483 370,482 370,481 370,480 370,479 370,478 370,477 370,476 371,475 371,474 371,473 371,472 371,471 370,470 370,469 370,468 370,467 370,466 370,465 370,464 370,463 370,462 370,461 369,460 369,459 369,458 369,457 369,456 369,455 369,454 368,453 368,452 368,451 368,450 368,449 367,448 367,447 367,446 367,445 366,444 366,443 366,442 366,441 366,440 365,439 365,438 365,437 365,436 364,435 364,434 364,433 363,432 363,431 363,430 362,429 362,428 361,427 361,426 360,425 360,424 359,423 359,422 358,421 358,420 357,419 356,418 356,417 355,416 355,415 354,414 354,413 353,412 352,411 351,410 350,409 350,408 349,408 348,407 347,407 346,407 345,407 344,407 343,407 342,407 341,407 340,407 339,407 338,407 337,407 336,407 335,407 334,407 333,407 332,407 331,407 330,407 329,407 328,407 327,407 326,407 325,407 324,407 323,407 322,407 321,407 320,407 319,407 318,407 317,407 316,407 315,407 314,407 313,407 312,407 311,407 310,407 309,407 308,407 307,407 306,407 305,407 304,407 303,407 302,407 301,407 300,407 299,407 298,407 297,407 296,407 295,407 294,407 293,407 292,407 291,407 290,407 289,407 288,407 287,407 286,407 285,407 284,407 283,407 282,407 281,407 280,407 279,407 278,407 277,407 276,407 275,407 274,407 273,407 272,407">
      <metadata tailDirection="" confidence="0.90" linkedToCharacter="" id="MomoyamaHaikagura_063_balloon_5" tailTip=""></metadata>
    </polygon>
    <polygon points="73,201 72,202 71,202 70,202 69,202 68,202 67,203 66,203 65,203 64,203 63,204 62,205 61,205 60,206 59,207 58,208 57,209 56,210 55,211 55,212 54,213 54,214 53,215 53,216 52,217 52,218 51,219 51,220 50,221 50,222 50,223 49,224 49,225 48,226 48,227 47,228 47,229 47,230 46,231 46,232 46,233 46,234 46,235 45,236 45,237 45,238 44,239 44,240 44,241 44,242 43,243 43,244 43,245 43,246 42,247 42,248 42,249 42,250 42,251 41,252 41,253 41,254 41,255 41,256 41,257 40,258 40,259 40,260 40,261 40,262 40,263 40,264 40,265 40,266 39,267 39,268 39,269 39,270 39,271 39,272 39,273 39,274 39,275 39,276 39,277 39,278 39,279 39,280 39,281 39,282 39,283 39,284 39,285 39,286 39,287 39,288 39,289 40,290 40,291 40,292 39,293 40,294 40,295 40,296 40,297 40,298 40,299 40,300 40,301 40,302 40,303 41,304 41,305 41,306 41,307 41,308 41,309 41,310 41,311 42,312 42,313 42,314 42,315 42,316 43,317 43,318 43,319 43,320 44,321 44,322 44,323 44,324 45,325 45,326 45,327 45,328 45,329 46,330 46,331 46,332 46,333 47,334 47,335 48,336 48,337 48,338 49,339 49,340 50,341 50,342 50,343 51,344 51,345 52,346 52,347 53,348 53,349 54,350 54,351 55,352 56,353 56,354 57,355 58,356 59,357 59,358 60,359 61,360 62,361 63,362 64,363 65,364 66,365 67,365 68,366 69,367 70,367 71,367 72,368 73,368 74,368 75,368 76,367 77,367 78,367 79,367 80,367 81,367 82,366 83,366 84,365 85,365 86,365 87,364 88,363 89,363 90,362 91,361 92,360 93,359 94,358 95,357 95,356 96,355 97,354 97,353 98,352 99,351 99,350 99,349 100,348 100,347 101,346 102,345 102,344 102,343 102,342 103,341 103,340 103,339 104,338 104,337 104,336 104,335 105,334 105,333 105,332 106,331 106,330 106,329 106,328 107,327 107,326 107,325 107,324 107,323 107,322 107,321 108,320 108,319 108,318 108,317 108,316 109,315 109,314 109,313 109,312 110,311 110,310 110,309 110,308 110,307 110,306 110,305 110,304 110,303 110,302 111,301 111,300 111,299 111,298 111,297 111,296 111,295 111,294 111,293 111,292 111,291 111,290 111,289 111,288 111,287 111,286 111,285 111,284 111,283 111,282 111,281 111,280 111,279 111,278 111,277 111,276 111,275 111,274 111,273 111,272 111,271 111,270 111,269 111,268 111,267 111,266 111,265 111,264 111,263 111,262 111,261 111,260 111,259 110,258 110,257 110,256 110,255 110,254 110,253 110,252 110,251 110,250 109,249 109,248 109,247 109,246 109,245 109,244 109,243 108,242 108,241 108,240 107,239 107,238 107,237 107,236 106,235 106,234 105,233 105,232 105,231 105,230 104,229 104,228 103,227 103,226 102,225 102,224 102,223 101,222 101,221 100,220 100,219 99,218 99,217 98,216 97,215 96,214 96,213 95,212 94,211 93,210 92,209 92,208 91,208 90,207 89,206 88,205 87,205 86,204 85,204 84,203 83,203 82,203 81,202 80,202 79,202 78,202 77,202 76,202 75,201 74,201 73,201">
      <metadata tailDirection="" confidence="0.99" linkedToCharacter="" id="MomoyamaHaikagura_063_balloon_6" tailTip=""></metadata>
    </polygon>
    <polygon points="332,12 331,13 330,13 329,14 328,14 327,15 326,16 325,16 324,17 323,17 322,18 321,19 320,19 319,20 318,20 317,21 316,21 315,22 314,22 313,23 312,23 311,24 310,24 309,24 308,25 307,25 306,25 305,25 304,26 303,26 302,25 301,26 300,26 299,27 298,28 297,29 296,30 296,31 295,32 294,33 293,34 292,35 291,36 291,37 290,38 289,39 288,40 288,41 287,42 286,43 285,44 285,45 284,46 283,47 283,48 283,49 282,50 282,51 282,52 282,53 282,54 282,55 282,56 282,57 282,58 282,59 282,60 282,61 282,62 282,63 282,64 282,65 282,66 282,67 282,68 282,69 282,70 282,71 282,72 282,73 282,74 282,75 282,76 282,77 282,78 282,79 282,80 282,81 282,82 282,83 282,84 282,85 282,86 282,87 282,88 282,89 281,90 281,91 281,92 281,93 281,94 281,95 281,96 281,97 281,98 281,99 281,100 281,101 281,102 281,103 281,104 281,105 281,106 281,107 281,108 281,109 281,110 281,111 281,112 281,113 281,114 281,115 281,116 281,117 281,118 281,119 281,120 281,121 281,122 281,123 281,124 281,125 281,126 281,127 281,128 281,129 281,130 281,131 281,132 281,133 281,134 281,135 281,136 281,137 281,138 281,139 281,140 281,141 281,142 281,143 281,144 281,145 281,146 281,147 281,148 281,149 281,150 281,151 281,152 281,153 281,154 280,155 280,156 280,157 280,158 280,159 281,160 282,161 283,162 283,163 284,164 285,165 286,166 286,167 287,168 288,169 288,170 289,171 290,172 290,173 291,174 291,175 292,176 293,177 294,178 294,179 295,180 296,181 296,182 297,183 298,184 299,185 300,186 301,187 302,188 303,189 304,190 305,190 306,191 307,192 308,193 309,193 310,192 311,193 312,193 313,193 314,193 315,193 316,193 317,193 318,193 319,193 320,193 321,193 322,193 323,193 324,193 325,193 326,193 327,194 328,194 329,194 330,194 331,194 332,194 333,194 334,194 335,194 336,194 337,193 338,192 338,191 339,190 339,189 340,188 340,187 341,186 342,185 342,184 343,183 343,182 344,181 344,180 345,179 345,178 346,177 346,176 347,175 347,174 348,173 348,172 349,171 349,170 350,169 351,168 351,167 352,166 353,165 353,164 354,163 354,162 355,161 355,160 356,159 356,158 357,157 357,156 357,155 357,154 358,153 358,152 358,151 358,150 358,149 358,148 358,147 358,146 358,145 358,144 358,143 358,142 359,141 359,140 359,139 359,138 359,137 359,136 359,135 359,134 360,133 360,132 360,131 360,130 360,129 360,128 360,127 361,126 361,125 361,124 361,123 361,122 361,121 362,120 362,119 362,118 362,117 362,116 363,115 363,114 363,113 363,112 363,111 364,110 364,109 365,108 365,107 364,107 363,106 362,105 362,104 362,103 362,102 362,101 362,100 362,99 362,98 362,97 363,96 363,95 363,94 363,93 363,92 363,91 363,90 363,89 363,88 363,87 363,86 363,85 363,84 363,83 363,82 364,81 364,80 364,79 364,78 364,77 364,76 364,75 364,74 365,73 365,72 365,71 365,70 365,69 366,68 366,67 365,66 365,65 364,64 364,63 363,62 362,61 362,60 361,59 361,58 360,57 360,56 359,55 359,54 358,53 358,52 357,51 357,50 356,49 356,48 356,47 355,46 355,45 354,44 354,43 353,42 353,41 352,40 352,39 351,38 351,37 350,36 350,35 349,34 348,33 348,32 347,31 347,30 346,29 346,28 345,27 344,26 344,25 343,24 343,23 342,22 341,21 340,20 340,19 339,18 338,17 337,16 336,15 335,14 334,13 333,12 332,12">
      <metadata tailDirection="" confidence="0.84" linkedToCharacter="" id="MomoyamaHaikagura_063_balloon_7" tailTip=""></metadata>
    </polygon>
  </svg>
</svg>
