<?xml version="1.0" encoding="UTF-8" standalone="no"?>
<svg width="827" xmlns="http://www.w3.org/2000/svg" version="1.0" height="1170">
  <title>MomoyamaHaikagura_088</title>
  <svg contentScriptType="text/ecmascript" zoomAndPan="magnify" contentStyleType="text/css" class="Page" preserveAspectRatio="xMidYMid meet" version="1.0">
    <image xmlns:xlink="http://www.w3.org/1999/xlink" x="0" y="0" width="827" height="1170" xlink:href="./../../dataset_Manga109/MomoyamaHaikagura/MomoyamaHaikagura_088.jpg" xlink:type="simple" xlink:actuate="onLoad" preserveAspectRatio="xMidYMid meet" xlink:show="embed"/>
  </svg>
  <style type="text/css" xml:space="preserve">
        * { stroke-linejoin: round; }
        .Unclassified   { fill: orange; stroke: none;   opacity: 1.0; visibility: hidden; }
        .Noise          { fill: pink;   stroke: none;   opacity: 0.2; visibility: hidden; }
        .Panel          { fill: none;   stroke: red;    stroke-width:3; opacity: 0.5; visibility: visible; image-rendering: optimizeSpeed; }
        .Line           { fill: green;  stroke: none;   opacity: 0.5; visibility: visible; image-rendering: optimizeSpeed; }
        .TextArea       { fill: grey;   stroke: none;   opacity: 0.2; visibility: visible; image-rendering: optimizeSpeed; }
        .Balloon        { fill: cyan;   stroke: none;   opacity: 0.5; visibility: visible; image-rendering: optimizeSpeed; }
        .Letter         { fill: blue;   stroke: none;   opacity: 0.2; visibility: hidden; }
        .Object, .Character, .Face  { fill: yellow; stroke: none;   opacity: 0.5; visibility: visible; image-rendering: optimizeSpeed; }
        .Page           { fill: white;  stroke: none;    opacity: 0.5; visibility: visible; }
        .linkSBSC { fill: blue; stroke: none; opacity: 1.0; visibility: visible; }
        polygon:hover { opacity:1.0; stroke:red; }
</style>
  <svg xmlns="http://www.w3.org/2000/svg" contentScriptType="text/ecmascript" zoomAndPan="magnify" contentStyleType="text/css" class="Balloon" preserveAspectRatio="xMidYMid meet" version="1.0">
    <polygon points="371,796 370,797 369,797 368,797 367,797 366,797 365,798 364,798 363,798 362,799 361,799 360,799 359,800 358,800 357,800 356,800 355,801 354,802 353,802 352,803 351,803 350,804 349,805 348,805 347,806 346,807 345,808 344,809 343,810 343,811 342,812 341,813 340,814 339,815 339,816 338,817 337,818 337,819 336,820 335,821 335,822 335,823 334,824 333,825 333,826 333,827 332,828 332,829 332,830 331,831 331,832 331,833 330,834 330,835 330,836 329,837 329,838 329,839 328,840 328,841 328,842 328,843 328,844 327,845 327,846 327,847 327,848 327,849 327,850 326,851 325,851 324,851 323,850 322,849 321,849 320,848 319,848 318,847 317,847 316,847 315,847 314,846 313,846 312,845 311,845 310,844 309,844 308,844 307,844 306,843 305,843 304,843 303,843 302,842 301,842 300,842 299,842 298,842 297,842 296,842 295,842 294,842 293,842 292,842 291,842 290,842 289,842 288,842 287,842 286,842 285,842 284,842 283,842 282,842 281,842 280,843 279,843 278,843 277,843 276,843 275,843 274,843 273,843 272,843 271,844 270,844 269,844 268,844 267,844 266,845 265,845 264,845 263,846 262,846 261,847 260,847 259,847 258,848 257,849 256,849 255,850 254,850 253,851 252,852 251,853 250,853 249,854 248,855 247,856 246,857 245,858 244,858 243,859 242,860 241,861 240,862 239,863 238,864 237,865 236,866 235,867 235,868 234,869 233,870 233,871 232,872 231,873 231,874 230,875 229,876 229,877 228,878 228,879 227,880 227,881 226,882 226,883 225,884 225,885 224,886 224,887 223,888 223,889 222,890 222,891 222,892 221,893 221,894 220,895 220,896 220,897 219,898 219,899 219,900 219,901 218,902 218,903 218,904 218,905 217,906 217,907 217,908 216,909 216,910 216,911 216,912 215,913 215,914 215,915 215,916 214,917 214,918 214,919 213,920 213,921 213,922 213,923 213,924 212,925 212,926 212,927 212,928 212,929 211,930 211,931 211,932 211,933 211,934 210,935 210,936 210,937 210,938 210,939 210,940 210,941 210,942 209,943 209,944 209,945 209,946 209,947 209,948 209,949 209,950 209,951 209,952 209,953 209,954 209,955 209,956 209,957 209,958 209,959 209,960 209,961 209,962 209,963 209,964 209,965 208,966 208,967 208,968 208,969 208,970 208,971 208,972 208,973 208,974 208,975 208,976 208,977 208,978 208,979 208,980 208,981 208,982 208,983 208,984 208,985 208,986 208,987 208,988 208,989 208,990 207,991 206,991 206,992 207,993 207,994 207,995 207,996 207,997 207,998 207,999 207,1000 207,1001 208,1002 208,1003 208,1004 208,1005 208,1006 208,1007 208,1008 208,1009 208,1010 208,1011 208,1012 208,1013 208,1014 208,1015 209,1016 209,1017 209,1018 209,1019 209,1020 209,1021 209,1022 209,1023 209,1024 209,1025 209,1026 210,1027 210,1028 210,1029 210,1030 210,1031 211,1032 211,1033 211,1034 211,1035 211,1036 212,1037 212,1038 212,1039 212,1040 212,1041 212,1042 213,1043 213,1044 213,1045 213,1046 213,1047 214,1048 214,1049 214,1050 214,1051 214,1052 215,1053 215,1054 215,1055 216,1056 216,1057 216,1058 216,1059 217,1060 217,1061 217,1062 218,1063 218,1064 219,1065 219,1066 220,1067 220,1068 221,1069 221,1070 222,1071 222,1072 223,1073 223,1074 224,1075 224,1076 225,1077 226,1078 226,1079 227,1080 227,1081 228,1082 229,1083 229,1084 230,1085 231,1086 232,1087 233,1088 233,1089 234,1090 235,1091 236,1092 237,1093 238,1094 239,1095 240,1096 241,1097 242,1098 243,1099 244,1100 245,1101 246,1102 247,1103 248,1104 249,1104 250,1105 251,1106 252,1107 253,1107 254,1108 255,1109 256,1110 257,1110 258,1111 259,1111 260,1112 261,1112 262,1113 263,1113 264,1114 265,1114 266,1114 267,1115 268,1115 269,1115 270,1116 271,1116 272,1116 273,1117 274,1117 275,1117 276,1117 277,1117 278,1117 279,1118 280,1118 281,1118 282,1119 283,1119 284,1119 285,1119 286,1119 287,1119 288,1119 289,1119 290,1119 291,1119 292,1119 293,1119 294,1119 295,1119 296,1119 297,1119 298,1119 299,1119 300,1119 301,1119 302,1119 303,1118 304,1118 305,1118 306,1117 307,1117 308,1117 309,1116 310,1116 311,1116 312,1115 313,1114 314,1114 315,1113 316,1113 317,1112 318,1111 319,1111 320,1110 321,1109 322,1108 323,1108 324,1107 325,1106 325,1105 326,1104 327,1104 328,1103 329,1102 330,1101 331,1100 332,1099 333,1098 334,1097 334,1096 335,1095 336,1094 337,1093 337,1092 338,1091 339,1091 340,1090 340,1089 341,1088 342,1087 342,1086 343,1085 343,1084 344,1083 344,1082 345,1081 346,1080 346,1079 347,1078 347,1077 348,1076 348,1075 349,1074 349,1073 350,1072 350,1071 350,1070 351,1069 351,1068 352,1067 352,1066 353,1065 353,1064 354,1063 354,1062 354,1061 355,1060 355,1059 356,1058 356,1057 356,1056 357,1055 357,1054 357,1053 358,1052 358,1051 358,1050 358,1049 359,1048 359,1047 360,1046 360,1045 360,1044 361,1043 361,1042 361,1041 361,1040 361,1039 362,1038 362,1037 362,1036 362,1035 363,1034 363,1033 363,1032 363,1031 363,1030 364,1029 364,1028 364,1027 364,1026 364,1025 364,1024 365,1023 365,1022 365,1021 365,1020 365,1019 365,1018 365,1017 365,1016 366,1015 366,1014 366,1013 366,1012 366,1011 366,1010 366,1009 366,1008 366,1007 366,1006 366,1005 367,1004 367,1003 367,1002 366,1001 366,1000 367,999 367,998 367,997 367,996 367,995 367,994 367,993 367,992 367,991 367,990 367,989 367,988 366,987 366,986 366,985 366,984 366,983 366,982 365,981 366,980 367,980 368,980 369,980 370,980 371,981 372,981 373,981 374,981 375,981 376,981 377,981 378,981 379,981 380,981 381,981 382,981 383,980 384,980 385,980 386,979 387,979 388,978 389,978 390,978 391,977 392,977 393,976 394,975 395,974 396,973 397,972 398,971 399,970 400,969 401,968 402,967 402,966 403,965 403,964 404,963 405,962 405,961 406,960 407,959 407,958 408,957 408,956 409,955 409,954 409,953 410,952 410,951 410,950 410,949 411,948 411,947 411,946 412,945 412,944 412,943 412,942 413,941 413,940 413,939 413,938 414,937 414,936 414,935 415,934 415,933 415,932 415,931 415,930 415,929 416,928 416,927 416,926 416,925 417,924 417,923 417,922 417,921 417,920 417,919 418,918 418,917 418,916 418,915 418,914 418,913 418,912 418,911 418,910 419,909 419,908 419,907 419,906 419,905 419,904 419,903 419,902 419,901 419,900 419,899 419,898 419,897 419,896 419,895 419,894 419,893 419,892 419,891 419,890 419,889 419,888 419,887 419,886 419,885 419,884 419,883 419,882 419,881 419,880 419,879 419,878 419,877 419,876 419,875 419,874 419,873 419,872 419,871 419,870 419,869 419,868 419,867 418,866 418,865 418,864 418,863 418,862 418,861 418,860 418,859 418,858 418,857 417,856 417,855 417,854 417,853 417,852 417,851 417,850 417,849 417,848 417,847 416,846 416,845 416,844 416,843 416,842 416,841 416,840 415,839 415,838 415,837 415,836 414,835 414,834 414,833 414,832 413,831 413,830 412,829 412,828 412,827 411,826 411,825 410,824 410,823 410,822 409,821 409,820 408,819 407,818 407,817 406,816 406,815 405,814 405,813 404,812 403,811 403,810 402,809 401,808 401,807 400,807 399,806 398,805 397,804 396,803 395,802 394,802 393,801 392,801 391,800 390,800 389,800 388,799 387,799 386,799 385,798 384,798 383,798 382,797 381,797 380,797 379,797 378,797 377,797 376,796 375,796 374,796 373,796 372,796 371,796">
      <metadata tailDirection="" confidence="0.88" linkedToCharacter="" id="MomoyamaHaikagura_088_balloon_0" tailTip=""></metadata>
    </polygon>
    <polygon points="729,185 728,186 727,186 726,186 725,187 724,187 723,187 722,187 721,188 720,189 719,189 718,190 717,191 716,191 715,192 714,193 713,194 712,195 711,196 710,197 709,198 708,199 707,200 706,201 706,202 705,203 704,204 704,205 703,206 702,207 702,208 701,209 701,210 700,211 700,212 699,213 699,214 698,215 698,216 697,217 697,218 696,219 696,220 695,221 695,222 694,223 694,224 694,225 693,226 693,227 692,228 692,229 692,230 691,231 691,232 690,233 690,234 690,235 689,236 689,237 689,238 688,239 688,240 688,241 687,242 687,243 687,244 687,245 686,246 686,247 686,248 686,249 686,250 686,251 686,252 685,253 685,254 685,255 685,256 685,257 685,258 685,259 684,260 684,261 685,262 684,263 684,264 684,265 684,266 684,267 684,268 683,269 683,270 683,271 683,272 683,273 683,274 683,275 683,276 683,277 683,278 683,279 683,280 683,281 683,282 682,283 682,284 682,285 682,286 682,287 682,288 681,289 681,290 681,291 680,292 680,293 680,294 681,295 681,296 681,297 681,298 681,299 681,300 681,301 681,302 681,303 681,304 681,305 681,306 681,307 681,308 681,309 681,310 681,311 681,312 681,313 681,314 681,315 681,316 681,317 681,318 681,319 681,320 681,321 681,322 681,323 681,324 681,325 681,326 681,327 681,328 681,329 681,330 681,331 681,332 681,333 681,334 681,335 681,336 681,337 681,338 682,339 682,340 682,341 682,342 682,343 682,344 682,345 682,346 683,347 683,348 683,349 683,350 683,351 684,352 684,353 684,354 684,355 684,356 684,357 685,358 685,359 685,360 685,361 686,362 686,363 686,364 686,365 687,366 687,367 687,368 687,369 687,370 688,371 688,372 688,373 688,374 689,375 689,376 689,377 689,378 690,379 690,380 690,381 691,382 691,383 691,384 692,385 692,386 692,387 693,388 693,389 694,390 694,391 694,392 695,393 695,394 696,395 696,396 697,397 698,398 698,399 699,400 699,401 700,402 700,403 701,404 701,405 702,406 703,407 704,408 704,409 705,410 706,411 707,412 707,413 708,414 709,415 710,416 711,416 712,417 713,418 714,419 715,419 716,420 717,420 718,421 719,421 720,421 721,422 722,422 723,422 724,423 725,423 726,423 727,423 728,423 729,423 730,424 731,424 732,424 733,424 734,424 735,424 736,424 737,423 738,424 739,423 740,423 741,423 742,422 743,421 744,420 745,419 746,419 747,418 748,417 749,416 750,415 751,414 752,413 753,412 754,411 755,410 756,409 757,408 757,407 758,406 759,405 760,404 761,403 762,402 762,401 763,400 764,399 764,398 765,397 765,396 765,395 766,394 767,393 767,392 768,391 768,390 768,389 769,388 769,387 769,386 770,385 770,384 771,383 771,382 771,381 771,380 772,379 772,378 772,377 772,376 773,375 773,374 773,373 773,372 773,371 774,370 774,369 774,368 774,367 774,366 775,365 775,364 775,363 775,362 775,361 775,360 776,359 776,358 776,357 777,356 777,355 777,354 777,353 777,352 777,351 777,350 778,349 778,348 778,347 778,346 778,345 778,344 779,343 779,342 779,341 779,340 779,339 779,338 779,337 779,336 779,335 779,334 779,333 780,332 780,331 780,330 780,329 780,328 780,327 780,326 780,325 780,324 780,323 780,322 780,321 780,320 780,319 780,318 780,317 780,316 780,315 780,314 780,313 780,312 780,311 780,310 780,309 780,308 780,307 780,306 780,305 780,304 780,303 780,302 780,301 780,300 780,299 780,298 780,297 780,296 780,295 780,294 780,293 779,292 779,291 779,290 779,289 779,288 779,287 779,286 779,285 779,284 779,283 779,282 778,281 778,280 778,279 778,278 778,277 778,276 778,275 778,274 778,273 778,272 777,271 777,270 777,269 777,268 777,267 777,266 777,265 776,264 776,263 776,262 776,261 776,260 776,259 776,258 776,257 776,256 776,255 776,254 776,253 775,252 775,251 775,250 775,249 775,248 775,247 775,246 775,245 775,244 775,243 775,242 775,241 775,240 774,239 774,238 774,237 774,236 774,235 774,234 773,233 773,232 773,231 773,230 773,229 773,228 772,227 772,226 772,225 771,224 771,223 771,222 771,221 770,220 770,219 770,218 769,217 769,216 769,215 768,214 768,213 768,212 767,211 767,210 766,209 765,208 765,207 765,206 764,205 763,204 763,203 762,202 761,201 761,200 760,199 759,198 758,197 757,196 756,195 755,194 754,193 753,193 752,192 751,191 750,191 749,190 748,189 747,189 746,188 745,188 744,187 743,187 742,187 741,186 740,186 739,186 738,185 737,185 736,185 735,185 734,185 733,185 732,185 731,185 730,185 729,185">
      <metadata tailDirection="" confidence="0.91" linkedToCharacter="" id="MomoyamaHaikagura_088_balloon_1" tailTip=""></metadata>
    </polygon>
    <polygon points="342,58 341,59 340,59 339,59 338,59 337,60 336,60 335,61 334,62 333,62 332,63 331,64 330,65 329,66 328,67 327,68 327,69 326,70 325,71 324,72 324,73 323,74 322,75 322,76 321,77 320,78 320,79 319,80 319,81 318,82 318,83 318,84 318,85 317,86 316,87 315,88 315,89 314,90 313,91 312,92 312,93 311,94 311,95 310,96 310,97 309,98 309,99 308,100 308,101 307,102 307,103 307,104 306,105 306,106 306,107 305,108 305,109 305,110 305,111 304,112 304,113 304,114 303,115 303,116 303,117 303,118 303,119 302,120 302,121 302,122 302,123 302,124 301,125 301,126 301,127 301,128 301,129 301,130 301,131 301,132 301,133 300,134 300,135 300,136 300,137 300,138 300,139 300,140 300,141 300,142 300,143 300,144 300,145 300,146 300,147 300,148 300,149 300,150 300,151 300,152 300,153 300,154 300,155 300,156 300,157 301,158 301,159 301,160 301,161 301,162 301,163 302,164 302,165 303,166 303,167 303,168 304,169 304,170 304,171 303,172 303,173 303,174 303,175 302,176 302,177 302,178 302,179 302,180 302,181 302,182 302,183 302,184 302,185 302,186 302,187 302,188 302,189 302,190 302,191 302,192 302,193 302,194 302,195 302,196 302,197 302,198 302,199 302,200 302,201 302,202 302,203 302,204 302,205 302,206 302,207 302,208 302,209 302,210 303,211 303,212 303,213 303,214 304,215 304,216 304,217 304,218 305,219 305,220 305,221 306,222 306,223 306,224 307,225 307,226 307,227 308,228 308,229 308,230 309,231 309,232 310,233 310,234 311,235 311,236 312,237 312,238 312,239 313,240 313,241 314,242 314,243 315,244 316,245 317,246 317,247 318,248 318,249 319,250 320,251 321,252 322,253 322,254 323,255 324,256 325,257 326,258 327,259 328,260 329,261 330,262 331,263 332,264 333,264 334,265 335,265 336,265 337,266 338,266 339,266 340,266 341,266 342,267 343,267 344,267 345,267 346,267 347,267 348,267 349,267 350,267 351,267 352,266 353,266 354,266 355,265 356,265 357,265 358,264 359,264 360,263 361,262 362,262 363,261 364,260 365,259 366,258 366,257 367,256 368,255 368,254 369,253 369,252 370,251 370,250 371,249 372,248 372,247 372,246 372,245 372,244 372,243 372,242 372,241 372,240 372,239 372,238 372,237 372,236 372,235 372,234 372,233 372,232 372,231 372,230 372,229 372,228 372,227 372,226 372,225 372,224 372,223 372,222 372,221 372,220 372,219 372,218 372,217 372,216 372,215 372,214 372,213 372,212 372,211 372,210 372,209 372,208 372,207 372,206 372,205 372,204 372,203 372,202 372,201 372,200 372,199 372,198 372,197 372,196 372,195 372,194 372,193 372,192 372,191 372,190 372,189 372,188 372,187 372,186 372,185 372,184 372,183 372,182 372,181 372,180 372,179 372,178 372,177 372,176 372,175 372,174 372,173 372,172 372,171 372,170 372,169 372,168 372,167 372,166 372,165 372,164 372,163 372,162 372,161 372,160 372,159 372,158 372,157 372,156 372,155 372,154 372,153 372,152 372,151 372,150 372,149 372,148 372,147 372,146 372,145 372,144 372,143 372,142 372,141 372,140 372,139 372,138 372,137 372,136 372,135 372,134 372,133 372,132 372,131 372,130 372,129 372,128 372,127 372,126 372,125 372,124 372,123 372,122 372,121 372,120 372,119 372,118 372,117 372,116 372,115 372,114 372,113 372,112 372,111 372,110 372,109 372,108 372,107 372,106 372,105 372,104 372,103 372,102 372,101 372,100 372,99 372,98 372,97 372,96 372,95 372,94 372,93 372,92 372,91 372,90 372,89 372,88 372,87 372,86 372,85 372,84 372,83 372,82 372,81 372,80 372,79 372,78 372,77 372,76 372,75 372,74 372,73 371,72 371,71 371,70 370,69 370,68 369,67 368,66 367,65 366,64 365,64 364,63 363,62 362,62 361,61 360,61 359,60 358,60 357,60 356,59 355,59 354,59 353,59 352,58 351,58 350,58 349,58 348,58 347,58 346,58 345,58 344,58 343,58 342,58">
      <metadata tailDirection="" confidence="0.99" linkedToCharacter="" id="MomoyamaHaikagura_088_balloon_2" tailTip=""></metadata>
    </polygon>
  </svg>
</svg>
