<?xml version="1.0" encoding="UTF-8" standalone="no"?>
<svg width="827" xmlns="http://www.w3.org/2000/svg" version="1.0" height="1170">
  <title>MomoyamaHaikagura_081</title>
  <svg contentScriptType="text/ecmascript" zoomAndPan="magnify" contentStyleType="text/css" class="Page" preserveAspectRatio="xMidYMid meet" version="1.0">
    <image xmlns:xlink="http://www.w3.org/1999/xlink" x="0" y="0" width="827" height="1170" xlink:href="./../../dataset_Manga109/MomoyamaHaikagura/MomoyamaHaikagura_081.jpg" xlink:type="simple" xlink:actuate="onLoad" preserveAspectRatio="xMidYMid meet" xlink:show="embed"/>
  </svg>
  <style type="text/css" xml:space="preserve">
        * { stroke-linejoin: round; }
        .Unclassified   { fill: orange; stroke: none;   opacity: 1.0; visibility: hidden; }
        .Noise          { fill: pink;   stroke: none;   opacity: 0.2; visibility: hidden; }
        .Panel          { fill: none;   stroke: red;    stroke-width:3; opacity: 0.5; visibility: visible; image-rendering: optimizeSpeed; }
        .Line           { fill: green;  stroke: none;   opacity: 0.5; visibility: visible; image-rendering: optimizeSpeed; }
        .TextArea       { fill: grey;   stroke: none;   opacity: 0.2; visibility: visible; image-rendering: optimizeSpeed; }
        .Balloon        { fill: cyan;   stroke: none;   opacity: 0.5; visibility: visible; image-rendering: optimizeSpeed; }
        .Letter         { fill: blue;   stroke: none;   opacity: 0.2; visibility: hidden; }
        .Object, .Character, .Face  { fill: yellow; stroke: none;   opacity: 0.5; visibility: visible; image-rendering: optimizeSpeed; }
        .Page           { fill: white;  stroke: none;    opacity: 0.5; visibility: visible; }
        .linkSBSC { fill: blue; stroke: none; opacity: 1.0; visibility: visible; }
        polygon:hover { opacity:1.0; stroke:red; }
</style>
  <svg xmlns="http://www.w3.org/2000/svg" contentScriptType="text/ecmascript" zoomAndPan="magnify" contentStyleType="text/css" class="Balloon" preserveAspectRatio="xMidYMid meet" version="1.0">
    <polygon points="440,1073 439,1074 439,1075 440,1076 441,1075 442,1075 443,1075 444,1075 445,1076 445,1077 445,1078 445,1079 446,1080 446,1081 447,1082 447,1083 447,1084 447,1085 448,1086 448,1087 448,1088 448,1089 449,1090 449,1091 449,1092 449,1093 449,1094 449,1095 449,1096 449,1097 449,1098 450,1099 450,1100 450,1101 450,1102 450,1103 451,1104 451,1105 451,1106 451,1107 451,1108 452,1109 452,1110 452,1111 452,1112 453,1112 454,1113 454,1114 453,1115 452,1116 453,1116 454,1117 453,1118 453,1119 453,1120 453,1121 453,1122 453,1123 453,1124 453,1125 453,1126 453,1127 453,1128 454,1129 454,1130 454,1131 454,1132 454,1133 454,1134 454,1135 454,1136 454,1137 454,1138 454,1139 455,1140 454,1141 454,1142 454,1143 454,1144 454,1145 455,1146 454,1147 454,1148 454,1149 454,1150 454,1151 454,1152 454,1153 454,1154 454,1155 454,1156 455,1157 455,1158 454,1159 453,1159 453,1160 453,1161 453,1162 453,1163 454,1163 455,1164 454,1165 453,1166 453,1167 453,1168 454,1168 453,1167 453,1166 454,1165 455,1165 456,1164 457,1164 458,1163 459,1164 459,1165 458,1166 457,1167 456,1167 456,1168 457,1168 458,1168 459,1168 460,1168 461,1168 462,1167 463,1168 464,1168 464,1167 465,1166 466,1166 467,1167 467,1168 468,1168 468,1167 469,1166 470,1167 471,1168 472,1167 473,1167 474,1168 475,1168 476,1167 477,1168 478,1168 479,1168 480,1168 481,1168 482,1168 482,1167 483,1166 484,1167 484,1168 485,1168 486,1168 485,1167 486,1166 487,1166 488,1167 488,1168 489,1167 490,1166 491,1166 492,1166 493,1166 494,1165 495,1166 496,1167 495,1168 496,1168 497,1167 498,1168 497,1167 498,1166 499,1166 500,1166 501,1167 500,1168 501,1168 501,1167 502,1166 503,1166 504,1167 503,1168 504,1168 505,1168 506,1168 507,1167 506,1166 507,1165 508,1165 509,1165 510,1164 510,1163 511,1162 512,1162 512,1161 512,1160 512,1159 513,1158 514,1159 514,1160 514,1161 515,1161 516,1162 515,1163 514,1164 513,1164 512,1164 512,1165 513,1165 514,1166 514,1167 513,1168 512,1167 511,1167 510,1168 509,1167 509,1168 510,1168 511,1167 512,1168 513,1168 514,1168 514,1167 515,1166 516,1167 517,1168 518,1168 518,1167 517,1166 518,1165 519,1165 520,1166 521,1166 522,1167 522,1166 523,1165 522,1164 522,1163 523,1162 524,1162 525,1163 526,1164 527,1164 528,1164 529,1164 530,1164 530,1163 531,1162 532,1163 532,1164 532,1165 531,1166 530,1166 529,1167 528,1167 527,1166 526,1166 525,1167 524,1167 524,1168 525,1167 526,1167 527,1168 528,1168 529,1167 530,1168 531,1168 532,1167 533,1168 534,1167 535,1166 536,1166 537,1167 536,1168 537,1167 538,1168 539,1168 539,1167 540,1166 541,1166 542,1165 543,1164 543,1163 544,1162 545,1163 545,1164 545,1165 545,1166 545,1167 546,1168 547,1168 547,1167 547,1166 548,1165 549,1166 549,1167 550,1168 551,1168 552,1168 553,1167 554,1166 555,1166 554,1166 553,1166 552,1165 551,1164 552,1163 552,1162 553,1161 553,1160 554,1159 553,1158 552,1157 551,1157 550,1156 550,1155 549,1154 548,1154 547,1155 546,1154 545,1153 546,1152 547,1152 546,1151 545,1150 544,1150 543,1149 542,1150 541,1150 540,1149 541,1148 541,1147 540,1147 539,1146 538,1145 537,1144 536,1143 535,1142 534,1142 533,1141 533,1140 532,1140 531,1139 530,1138 529,1137 528,1136 527,1136 526,1135 526,1134 525,1133 524,1133 523,1132 523,1131 522,1132 521,1132 520,1131 521,1130 520,1129 519,1128 518,1129 517,1128 517,1127 517,1126 516,1126 515,1125 514,1124 513,1123 512,1123 511,1122 510,1121 509,1120 508,1120 507,1119 506,1119 505,1118 504,1117 503,1116 502,1116 501,1117 500,1116 499,1115 500,1114 499,1113 498,1113 497,1112 496,1112 495,1111 494,1110 493,1109 492,1109 491,1108 490,1108 489,1107 488,1106 487,1107 486,1106 486,1105 485,1105 484,1104 483,1103 482,1103 481,1102 480,1102 479,1101 478,1100 477,1100 476,1099 475,1098 474,1097 473,1097 472,1096 471,1096 470,1095 469,1094 468,1095 467,1094 467,1093 466,1093 465,1092 464,1091 463,1091 462,1090 461,1091 460,1090 459,1089 459,1088 458,1088 457,1087 456,1086 455,1085 454,1085 453,1084 452,1083 451,1082 450,1081 450,1080 449,1079 448,1078 447,1077 447,1076 446,1076 445,1075 444,1074 443,1074 442,1074 441,1074 440,1073">
      <metadata tailDirection="" confidence="0.81" linkedToCharacter="" id="MomoyamaHaikagura_081_balloon_0" tailTip=""></metadata>
    </polygon>
    <polygon points="673,777 672,778 671,778 670,778 669,778 668,778 667,778 666,778 665,778 664,778 663,779 662,779 661,780 660,780 659,780 658,781 657,781 656,782 655,782 654,783 653,783 652,783 651,784 650,784 649,785 648,786 647,786 646,787 645,788 644,789 643,790 642,790 641,791 640,792 640,793 639,794 638,795 637,795 637,796 636,797 635,798 635,799 634,800 633,801 633,802 632,803 632,804 631,805 631,806 630,807 629,808 629,809 628,810 628,811 627,812 627,813 626,814 626,815 626,816 625,817 625,818 624,819 624,820 624,821 623,822 623,823 623,824 622,825 622,826 622,827 621,828 621,829 621,830 620,831 620,832 620,833 619,834 619,835 618,836 618,837 618,838 618,839 618,840 618,841 617,842 617,843 617,844 617,845 616,846 616,847 616,848 616,849 616,850 616,851 615,852 615,853 615,854 615,855 615,856 615,857 615,858 614,859 614,860 614,861 614,862 614,863 614,864 614,865 613,866 613,867 613,868 613,869 613,870 613,871 613,872 613,873 613,874 613,875 613,876 613,877 613,878 613,879 613,880 613,881 613,882 613,883 613,884 613,885 613,886 613,887 613,888 613,889 613,890 613,891 613,892 613,893 613,894 613,895 613,896 613,897 613,898 613,899 613,900 613,901 613,902 613,903 613,904 613,905 613,906 613,907 613,908 613,909 613,910 614,911 613,912 614,913 614,914 614,915 614,916 615,917 615,918 615,919 615,920 616,921 616,922 616,923 617,924 617,925 617,926 618,927 618,928 618,929 618,930 619,931 619,932 619,933 620,934 620,935 621,936 621,937 622,938 622,939 622,940 623,941 623,942 624,943 624,944 625,945 625,946 626,947 626,948 627,949 627,950 628,951 628,952 629,953 629,954 630,955 630,956 631,957 632,958 632,959 633,960 634,961 635,962 636,963 637,964 638,965 639,966 640,967 641,968 642,969 643,970 644,971 645,972 646,973 647,974 648,974 649,975 650,976 651,976 652,977 653,978 654,979 655,979 656,980 657,980 658,980 659,981 660,981 661,981 662,982 663,982 664,982 665,982 666,982 667,983 668,983 669,983 670,983 671,983 672,983 673,983 674,983 675,983 676,983 677,983 678,983 679,983 680,983 681,983 682,983 683,982 684,982 685,982 686,982 687,981 688,981 689,980 690,980 691,979 692,979 693,978 694,978 695,977 696,976 697,976 698,975 699,974 700,974 701,973 702,972 703,971 704,970 705,969 706,968 707,967 708,966 709,965 710,964 711,963 711,962 712,961 712,960 713,959 713,958 714,957 714,956 715,955 715,954 716,953 717,952 717,951 717,950 718,949 719,948 719,947 720,946 720,945 720,944 721,943 721,942 722,941 722,940 722,939 723,938 723,937 723,936 724,935 724,934 724,933 725,932 725,931 725,930 725,929 726,928 726,927 726,926 726,925 726,924 727,923 727,922 727,921 727,920 727,919 727,918 727,917 728,916 728,915 728,914 728,913 728,912 728,911 728,910 728,909 729,908 729,907 729,906 729,905 729,904 729,903 729,902 729,901 729,900 729,899 729,898 730,897 730,896 729,895 730,894 730,893 730,892 730,891 730,890 730,889 730,888 730,887 730,886 730,885 730,884 730,883 730,882 730,881 730,880 730,879 730,878 730,877 730,876 730,875 730,874 730,873 730,872 730,871 730,870 730,869 730,868 730,867 730,866 730,865 730,864 731,863 731,862 731,861 731,860 731,859 730,858 730,857 730,856 730,855 730,854 730,853 730,852 730,851 730,850 730,849 729,848 729,847 729,846 729,845 729,844 729,843 729,842 728,841 728,840 728,839 728,838 728,837 728,836 727,835 727,834 727,833 727,832 727,831 726,830 726,829 726,828 725,827 725,826 725,825 725,824 724,823 724,822 724,821 723,820 723,819 723,818 722,817 722,816 722,815 721,814 721,813 721,812 720,811 720,810 719,809 719,808 719,807 718,806 717,805 717,804 716,803 716,802 715,801 714,800 714,799 713,798 712,797 712,796 711,795 710,794 709,793 708,792 708,791 707,791 706,790 705,789 704,788 703,787 702,787 701,786 700,785 699,785 698,784 697,784 696,783 695,783 694,782 693,782 692,781 691,781 690,780 689,780 688,780 687,779 686,779 685,779 684,779 683,779 682,779 681,778 680,778 679,778 678,778 677,778 676,777 675,777 674,777 673,777">
      <metadata tailDirection="" confidence="0.95" linkedToCharacter="" id="MomoyamaHaikagura_081_balloon_1" tailTip=""></metadata>
    </polygon>
    <polygon points="693,432 692,433 691,433 690,433 689,434 688,434 687,434 686,435 685,435 684,436 683,437 682,437 681,438 680,439 679,440 678,441 677,442 676,443 676,444 675,445 674,446 674,447 673,448 673,449 672,450 672,451 671,452 671,453 670,454 670,455 669,456 669,457 669,458 668,459 668,460 668,461 667,462 667,463 666,464 666,465 666,466 665,467 665,468 665,469 664,470 664,471 664,472 664,473 663,474 663,475 663,476 662,477 662,478 662,479 661,480 661,481 661,482 660,483 660,484 660,485 660,486 659,487 659,488 659,489 659,490 658,491 658,492 658,493 658,494 658,495 657,496 657,497 657,498 657,499 657,500 657,501 656,502 656,503 656,504 656,505 656,506 656,507 655,508 655,509 655,510 655,511 655,512 655,513 655,514 654,515 654,516 654,517 654,518 654,519 654,520 654,521 654,522 654,523 654,524 654,525 654,526 654,527 654,528 654,529 654,530 654,531 654,532 654,533 654,534 654,535 654,536 654,537 654,538 654,539 654,540 654,541 654,542 654,543 653,544 653,545 653,546 653,547 653,548 653,549 653,550 653,551 653,552 653,553 653,554 653,555 653,556 653,557 653,558 653,559 653,560 654,561 653,562 654,563 653,564 654,565 654,566 654,567 654,568 654,569 654,570 654,571 654,572 654,573 654,574 654,575 654,576 654,577 655,578 655,579 655,580 655,581 655,582 656,583 656,584 656,585 656,586 657,587 657,588 657,589 657,590 657,591 658,592 658,593 658,594 659,595 659,596 659,597 660,598 660,599 660,600 661,601 661,602 662,603 662,604 662,605 663,606 663,607 663,608 664,609 664,610 665,611 665,612 666,613 666,614 667,615 667,616 668,617 668,618 669,619 670,620 670,621 671,622 672,623 672,624 673,625 674,626 675,627 676,628 677,629 678,630 679,631 680,632 681,633 682,633 683,634 684,635 685,636 686,636 687,637 688,638 689,638 690,639 691,639 692,639 693,640 694,641 695,641 696,641 697,642 698,642 699,642 700,642 701,643 702,643 703,643 704,643 705,643 706,643 707,643 708,643 709,642 710,642 711,641 712,640 712,639 713,638 714,637 715,636 716,635 717,634 717,633 718,632 719,631 720,630 720,629 721,628 722,627 722,626 723,625 723,624 724,623 725,622 725,621 726,620 726,619 727,618 727,617 728,616 729,615 729,614 729,613 730,612 730,611 731,610 731,609 732,608 732,607 732,606 733,605 733,604 734,603 734,602 734,601 735,600 735,599 735,598 736,597 736,596 736,595 736,594 736,593 737,592 737,591 737,590 737,589 738,588 738,587 738,586 738,585 738,584 739,583 739,582 738,581 739,580 739,579 739,578 739,577 740,576 739,575 740,574 740,573 740,572 740,571 740,570 740,569 740,568 740,567 740,566 740,565 740,564 741,563 741,562 741,561 741,560 741,559 741,558 741,557 741,556 741,555 741,554 741,553 741,552 741,551 741,550 741,549 741,548 741,547 741,546 742,545 742,544 741,543 741,542 741,541 741,540 742,539 741,538 741,537 741,536 741,535 741,534 741,533 741,532 741,531 741,530 741,529 741,528 741,527 741,526 741,525 741,524 741,523 741,522 741,521 741,520 741,519 741,518 741,517 741,516 741,515 741,514 741,513 741,512 741,511 740,510 740,509 740,508 740,507 740,506 740,505 740,504 740,503 740,502 739,501 739,500 739,499 739,498 739,497 739,496 739,495 738,494 738,493 738,492 738,491 738,490 738,489 737,488 737,487 737,486 737,485 737,484 737,483 736,482 736,481 736,480 735,479 735,478 735,477 735,476 734,475 734,474 734,473 733,472 733,471 733,470 732,469 732,468 732,467 731,466 731,465 731,464 730,463 730,462 729,461 729,460 728,459 728,458 727,457 727,456 726,455 726,454 725,453 725,452 724,451 723,450 723,449 722,448 721,447 721,446 720,445 719,444 718,443 717,442 716,441 715,440 714,439 713,438 712,438 711,437 710,436 709,436 708,435 707,435 706,434 705,434 704,434 703,434 702,433 701,433 700,433 699,433 698,432 697,432 696,432 695,432 694,432 693,432">
      <metadata tailDirection="" confidence="0.86" linkedToCharacter="" id="MomoyamaHaikagura_081_balloon_2" tailTip=""></metadata>
    </polygon>
    <polygon points="462,145 461,146 460,146 459,146 458,146 457,146 456,146 455,147 454,147 453,147 452,147 451,148 450,148 449,148 448,148 447,149 446,150 445,150 444,151 443,152 442,152 441,153 440,153 439,154 438,155 437,156 436,156 436,157 435,158 434,159 433,160 433,161 433,162 433,163 433,164 433,165 433,166 433,167 433,168 433,169 433,170 433,171 433,172 433,173 433,174 433,175 433,176 433,177 433,178 433,179 433,180 433,181 433,182 433,183 433,184 433,185 433,186 433,187 433,188 433,189 433,190 433,191 433,192 433,193 433,194 433,195 433,196 433,197 433,198 433,199 433,200 433,201 433,202 433,203 433,204 433,205 433,206 433,207 433,208 433,209 433,210 433,211 433,212 433,213 433,214 433,215 433,216 433,217 433,218 433,219 433,220 433,221 433,222 433,223 433,224 433,225 433,226 433,227 433,228 433,229 433,230 433,231 433,232 433,233 433,234 433,235 433,236 433,237 433,238 433,239 433,240 433,241 433,242 433,243 433,244 433,245 433,246 433,247 433,248 433,249 433,250 433,251 433,252 433,253 433,254 433,255 433,256 433,257 433,258 433,259 433,260 433,261 433,262 433,263 433,264 433,265 433,266 433,267 433,268 433,269 433,270 433,271 433,272 433,273 433,274 433,275 433,276 433,277 433,278 433,279 433,280 433,281 433,282 433,283 433,284 433,285 433,286 433,287 433,288 433,289 433,290 433,291 433,292 433,293 433,294 433,295 433,296 433,297 433,298 433,299 433,300 433,301 433,302 433,303 433,304 433,305 433,306 433,307 433,308 433,309 433,310 433,311 433,312 433,313 433,314 433,315 433,316 433,317 433,318 433,319 433,320 433,321 433,322 433,323 433,324 433,325 433,326 433,327 433,328 433,329 433,330 433,331 433,332 433,333 433,334 433,335 433,336 433,337 433,338 433,339 433,340 433,341 433,342 433,343 433,344 433,345 433,346 433,347 433,348 433,349 433,350 433,351 433,352 433,353 433,354 433,355 433,356 433,357 433,358 433,359 433,360 433,361 433,362 433,363 433,364 433,365 433,366 433,367 433,368 433,369 433,370 433,371 433,372 433,373 433,374 434,375 434,376 435,376 436,376 437,376 438,376 439,376 440,376 441,376 442,376 443,376 444,376 445,376 446,376 447,376 448,376 449,376 450,376 451,376 452,376 453,376 454,376 455,376 456,376 457,376 458,376 459,376 460,376 461,376 462,376 463,376 464,376 465,376 466,376 467,376 468,376 469,376 470,376 471,376 472,376 473,376 474,376 475,376 476,376 477,376 478,376 479,376 480,376 481,376 482,376 483,376 484,376 485,376 486,376 487,376 488,376 489,376 490,376 491,376 492,376 493,376 494,376 495,376 496,376 497,376 498,376 499,376 500,376 501,376 502,376 503,376 504,376 505,376 506,376 507,376 508,376 509,375 509,374 510,373 510,372 511,371 512,370 512,369 513,368 513,367 514,366 514,365 515,364 515,363 516,362 516,361 517,360 518,359 518,358 518,357 519,356 519,355 520,354 520,353 520,352 521,351 521,350 521,349 522,348 522,347 522,346 522,345 522,344 523,343 523,342 523,341 523,340 524,339 524,338 524,337 524,336 524,335 524,334 524,333 525,332 525,331 525,330 525,329 525,328 526,327 526,326 526,325 527,324 527,323 528,322 529,322 528,321 528,320 527,319 527,318 527,317 527,316 527,315 527,314 527,313 527,312 527,311 527,310 527,309 527,308 527,307 527,306 528,305 528,304 528,303 528,302 528,301 528,300 528,299 528,298 529,297 529,296 529,295 529,294 529,293 529,292 529,291 529,290 529,289 529,288 529,287 529,286 530,285 530,284 530,283 530,282 530,281 530,280 530,279 530,278 530,277 530,276 530,275 530,274 530,273 530,272 530,271 530,270 530,269 530,268 530,267 530,266 530,265 530,264 531,263 531,262 530,261 530,260 530,259 530,258 530,257 530,256 530,255 530,254 530,253 530,252 530,251 530,250 530,249 530,248 530,247 529,246 529,245 529,244 529,243 529,242 529,241 529,240 529,239 528,238 528,237 528,236 528,235 528,234 528,233 528,232 527,231 527,230 527,229 527,228 527,227 527,226 527,225 526,224 526,223 526,222 526,221 526,220 525,219 525,218 525,217 525,216 524,215 524,214 524,213 524,212 524,211 523,210 523,209 523,208 523,207 522,206 522,205 522,204 522,203 521,202 521,201 521,200 521,199 520,198 520,197 520,196 520,195 519,194 519,193 518,192 518,191 518,190 517,189 517,188 517,187 516,186 516,185 515,184 515,183 514,182 514,181 513,180 513,179 512,178 512,177 511,176 510,175 510,174 509,173 508,172 508,171 507,170 506,169 505,168 504,167 503,166 503,165 502,164 501,163 501,162 500,161 499,160 498,159 497,158 496,157 495,156 494,155 493,154 492,154 491,153 490,152 489,152 488,151 487,151 486,150 485,150 484,149 483,149 482,149 481,148 480,148 479,148 478,148 477,147 476,147 475,147 474,147 473,146 472,146 471,146 470,146 469,146 468,146 467,146 466,146 465,146 464,145 463,145 462,145">
      <metadata tailDirection="" confidence="0.92" linkedToCharacter="" id="MomoyamaHaikagura_081_balloon_3" tailTip=""></metadata>
    </polygon>
    <polygon points="592,63 591,64 590,65 589,66 588,67 587,68 586,69 586,70 585,71 585,72 584,73 584,74 583,75 583,76 582,77 582,78 581,79 581,80 580,81 580,82 579,83 579,84 578,85 578,86 577,87 577,88 577,89 576,90 576,91 575,92 575,93 575,94 574,95 574,96 574,97 573,98 573,99 573,100 572,101 572,102 572,103 571,104 571,105 571,106 570,107 570,108 570,109 570,110 569,111 569,112 569,113 569,114 569,115 568,116 568,117 568,118 568,119 568,120 568,121 567,122 567,123 567,124 567,125 567,126 567,127 567,128 567,129 567,130 567,131 567,132 566,133 566,134 566,135 566,136 566,137 566,138 566,139 566,140 566,141 566,142 566,143 566,144 566,145 566,146 566,147 566,148 566,149 566,150 566,151 566,152 566,153 566,154 566,155 566,156 567,157 567,158 567,159 567,160 567,161 567,162 567,163 567,164 567,165 567,166 567,167 567,168 568,169 568,170 568,171 568,172 568,173 568,174 568,175 568,176 569,177 569,178 569,179 569,180 569,181 570,182 570,183 570,184 571,185 571,186 571,187 572,188 572,189 572,190 573,191 573,192 573,193 574,194 574,195 574,196 575,197 575,198 576,199 576,200 576,201 577,202 577,203 578,204 578,205 579,206 579,207 580,208 580,209 581,210 581,211 582,212 583,213 583,214 584,215 584,216 585,217 585,218 586,219 587,220 588,221 589,222 589,223 590,224 591,225 592,226 593,227 594,228 595,229 596,230 597,231 598,232 599,233 600,234 601,235 602,235 603,236 604,236 605,237 606,238 607,238 608,239 609,239 610,240 611,241 612,241 613,242 614,242 615,243 616,243 617,244 618,244 619,244 620,245 621,245 622,246 623,246 624,247 625,247 626,247 627,248 628,248 629,248 630,248 631,249 632,249 633,249 634,250 635,250 636,250 637,251 638,251 639,251 640,251 641,251 642,252 643,252 644,252 645,253 646,253 647,253 648,253 649,254 650,254 651,254 652,254 653,254 654,255 655,255 656,255 657,255 658,255 659,255 660,255 661,256 662,256 663,256 664,256 665,256 666,256 667,256 668,257 669,257 670,257 671,257 672,257 673,257 674,257 675,257 676,257 677,257 678,258 679,258 680,258 681,258 682,258 683,258 684,258 685,258 686,258 687,258 688,258 689,258 690,258 691,258 692,258 693,258 694,258 695,258 696,258 697,258 698,258 699,258 700,258 701,258 702,259 703,259 704,259 705,259 706,260 707,261 708,261 709,260 710,259 711,259 712,259 713,258 714,258 715,258 716,258 717,258 718,258 719,258 720,258 721,257 722,257 723,257 724,257 725,256 726,256 727,256 728,255 729,255 730,255 731,254 732,254 733,253 734,253 735,253 736,252 737,252 738,251 739,250 740,250 741,249 742,249 743,248 744,248 745,247 746,247 747,246 748,246 749,245 750,245 751,244 752,244 753,243 754,242 755,241 756,240 757,239 758,238 759,237 760,236 761,235 762,234 762,233 763,232 763,231 763,230 763,229 763,228 763,227 763,226 763,225 763,224 763,223 763,222 763,221 763,220 763,219 763,218 763,217 763,216 763,215 763,214 763,213 763,212 763,211 763,210 763,209 763,208 763,207 763,206 763,205 763,204 763,203 763,202 763,201 763,200 763,199 763,198 763,197 763,196 763,195 763,194 763,193 763,192 763,191 763,190 763,189 763,188 763,187 763,186 763,185 763,184 763,183 763,182 763,181 763,180 763,179 763,178 763,177 763,176 763,175 763,174 763,173 763,172 763,171 763,170 763,169 763,168 763,167 763,166 763,165 763,164 763,163 763,162 763,161 763,160 763,159 763,158 763,157 763,156 763,155 763,154 763,153 763,152 763,151 763,150 763,149 763,148 763,147 763,146 763,145 763,144 763,143 763,142 763,141 763,140 763,139 763,138 763,137 763,136 763,135 763,134 763,133 763,132 763,131 763,130 763,129 763,128 763,127 763,126 763,125 763,124 763,123 763,122 763,121 763,120 763,119 763,118 763,117 763,116 763,115 763,114 763,113 763,112 763,111 763,110 763,109 763,108 763,107 763,106 763,105 763,104 763,103 763,102 763,101 763,100 763,99 763,98 763,97 763,96 763,95 763,94 763,93 763,92 763,91 763,90 763,89 763,88 763,87 763,86 763,85 763,84 763,83 763,82 763,81 763,80 763,79 763,78 763,77 763,76 763,75 763,74 763,73 763,72 763,71 763,70 763,69 763,68 763,67 763,66 763,65 763,64 763,63 762,63 761,63 760,63 759,63 758,63 757,63 756,63 755,63 754,63 753,63 752,63 751,63 750,63 749,63 748,63 747,63 746,63 745,63 744,63 743,63 742,63 741,63 740,63 739,63 738,63 737,63 736,63 735,63 734,63 733,63 732,63 731,63 730,63 729,63 728,63 727,63 726,63 725,63 724,63 723,63 722,63 721,63 720,63 719,63 718,63 717,63 716,63 715,63 714,63 713,63 712,63 711,63 710,63 709,63 708,63 707,63 706,63 705,63 704,63 703,63 702,63 701,63 700,63 699,63 698,63 697,63 696,63 695,63 694,63 693,63 692,63 691,63 690,63 689,63 688,63 687,63 686,63 685,63 684,63 683,63 682,63 681,63 680,63 679,63 678,63 677,63 676,63 675,63 674,63 673,63 672,63 671,63 670,63 669,63 668,63 667,63 666,63 665,63 664,63 663,63 662,63 661,63 660,63 659,63 658,63 657,63 656,63 655,63 654,63 653,63 652,63 651,63 650,63 649,63 648,63 647,63 646,63 645,63 644,63 643,63 642,63 641,63 640,63 639,63 638,63 637,63 636,63 635,63 634,63 633,63 632,63 631,63 630,63 629,63 628,63 627,63 626,63 625,63 624,63 623,63 622,63 621,63 620,63 619,63 618,63 617,63 616,63 615,63 614,63 613,63 612,63 611,63 610,63 609,63 608,63 607,63 606,63 605,63 604,63 603,63 602,63 601,63 600,63 599,63 598,63 597,63 596,63 595,63 594,63 593,63 592,63">
      <metadata tailDirection="" confidence="0.87" linkedToCharacter="" id="MomoyamaHaikagura_081_balloon_4" tailTip=""></metadata>
    </polygon>
    <polygon points="123,829 122,830 121,830 120,830 119,830 118,831 117,831 116,831 115,832 114,832 113,832 112,832 111,833 110,833 109,834 108,834 107,834 106,835 105,835 104,835 103,836 102,836 101,836 100,837 99,838 98,838 97,839 96,839 95,840 94,841 93,841 92,842 91,842 90,843 89,844 88,845 87,845 86,846 85,847 84,847 83,848 82,849 81,850 80,851 79,852 78,853 77,854 76,855 75,856 75,857 74,858 73,858 72,859 72,860 71,861 70,862 69,863 69,864 68,865 67,866 66,867 66,868 65,869 64,870 64,871 63,872 63,873 62,874 62,875 62,876 61,877 60,878 60,879 60,880 60,881 59,882 59,883 58,884 58,885 57,886 57,887 57,888 56,889 56,890 56,891 56,892 55,893 55,894 55,895 54,896 54,897 54,898 54,899 53,900 53,901 53,902 53,903 52,904 52,905 52,906 52,907 52,908 51,909 51,910 51,911 51,912 51,913 51,914 51,915 51,916 51,917 50,918 50,919 50,920 50,921 50,922 50,923 50,924 50,925 50,926 50,927 50,928 50,929 50,930 50,931 50,932 49,933 49,934 49,935 49,936 49,937 49,938 49,939 49,940 49,941 49,942 49,943 49,944 49,945 49,946 49,947 49,948 49,949 49,950 50,951 50,952 50,953 50,954 50,955 50,956 50,957 51,958 51,959 51,960 51,961 51,962 52,963 52,964 52,965 52,966 52,967 52,968 52,969 52,970 52,971 53,972 53,973 53,974 53,975 54,976 54,977 55,978 55,979 55,980 55,981 56,982 56,983 56,984 57,985 57,986 57,987 58,988 58,989 59,990 59,991 59,992 60,993 60,994 60,995 61,996 61,997 62,998 62,999 62,1000 63,1001 63,1002 64,1003 64,1004 65,1005 65,1006 66,1007 66,1008 67,1009 67,1010 68,1011 68,1012 69,1013 70,1014 70,1015 71,1016 71,1017 72,1018 73,1019 73,1020 74,1021 75,1022 76,1023 77,1024 78,1025 78,1026 79,1027 80,1028 81,1029 82,1030 83,1031 84,1032 84,1033 85,1033 86,1034 86,1035 87,1036 88,1037 89,1037 90,1038 91,1039 91,1040 92,1040 93,1041 94,1042 95,1043 96,1044 97,1044 98,1045 99,1046 100,1046 101,1047 102,1047 103,1048 104,1048 105,1048 106,1049 107,1050 108,1050 109,1051 110,1051 111,1052 112,1052 113,1052 114,1053 115,1053 116,1053 117,1054 118,1054 119,1054 120,1055 121,1055 122,1055 123,1056 124,1056 125,1056 126,1057 127,1057 128,1057 129,1057 130,1058 131,1058 132,1058 133,1058 134,1059 135,1059 136,1059 137,1059 138,1059 139,1060 140,1060 141,1060 142,1060 143,1060 144,1060 145,1061 146,1061 147,1061 148,1061 149,1061 150,1061 151,1060 152,1060 153,1060 154,1060 155,1059 156,1059 157,1059 158,1059 159,1059 160,1059 161,1059 162,1058 163,1058 164,1058 165,1057 166,1057 167,1057 168,1056 169,1056 170,1056 171,1055 172,1055 173,1054 174,1054 175,1054 176,1053 177,1053 178,1052 179,1052 180,1051 181,1051 182,1050 183,1050 184,1049 185,1049 186,1048 187,1048 188,1047 189,1046 190,1045 191,1044 192,1043 193,1043 193,1042 194,1041 195,1041 196,1040 197,1039 197,1038 198,1037 199,1036 200,1035 201,1034 202,1033 203,1032 204,1031 205,1030 206,1029 206,1028 207,1027 208,1026 209,1025 209,1024 210,1023 211,1022 212,1021 213,1020 213,1019 214,1018 215,1017 215,1016 216,1015 217,1014 217,1013 218,1012 218,1011 219,1010 219,1009 220,1008 221,1007 221,1006 222,1005 222,1004 223,1003 223,1002 224,1001 224,1000 225,999 225,998 226,997 226,996 226,995 227,994 227,993 227,992 228,991 228,990 228,989 228,988 229,987 229,986 229,985 229,984 229,983 229,982 230,981 230,980 231,979 231,978 231,977 231,976 231,975 231,974 231,973 231,972 231,971 232,970 232,969 232,968 232,967 232,966 232,965 232,964 233,963 233,962 233,961 233,960 233,959 233,958 233,957 233,956 233,955 233,954 233,953 233,952 233,951 233,950 233,949 233,948 233,947 233,946 233,945 233,944 233,943 233,942 233,941 233,940 233,939 232,938 232,937 232,936 232,935 232,934 232,933 232,932 232,931 231,930 231,929 231,928 231,927 231,926 231,925 231,924 231,923 231,922 231,921 231,920 230,919 230,918 230,917 230,916 230,915 230,914 229,913 229,912 229,911 229,910 228,909 228,908 228,907 227,906 227,905 227,904 227,903 226,902 226,901 226,900 225,899 225,898 225,897 225,896 224,895 224,894 224,893 223,892 223,891 223,890 222,889 222,888 222,887 221,886 221,885 221,884 220,883 220,882 219,881 219,880 218,879 218,878 217,877 217,876 216,875 216,874 215,873 215,872 214,871 214,870 213,869 213,868 212,867 211,866 210,865 210,864 209,863 209,862 208,861 208,860 207,859 206,858 206,857 205,856 204,855 203,854 202,853 201,852 200,851 199,850 198,849 197,848 196,848 195,847 194,846 193,846 192,845 191,844 190,844 189,843 188,842 187,842 186,841 185,841 184,840 183,840 182,839 181,839 180,838 179,838 178,837 177,837 176,836 175,836 174,835 173,835 172,835 171,835 170,834 169,834 168,834 167,833 166,833 165,833 164,832 163,832 162,832 161,832 160,832 159,832 158,832 157,832 156,831 155,831 154,831 153,831 152,831 151,831 150,831 149,830 148,831 147,830 146,830 145,830 144,830 143,830 142,830 141,830 140,829 139,829 138,829 137,829 136,829 135,829 134,829 133,829 132,829 131,829 130,829 129,829 128,829 127,829 126,829 125,829 124,829 123,829">
      <metadata tailDirection="" confidence="0.96" linkedToCharacter="" id="MomoyamaHaikagura_081_balloon_5" tailTip=""></metadata>
    </polygon>
    <polygon points="96,155 96,156 96,157 96,158 96,159 96,160 96,161 96,162 96,163 96,164 96,165 96,166 96,167 96,168 95,169 95,170 95,171 95,172 96,173 95,174 95,175 95,176 96,177 95,178 95,179 95,180 95,181 95,182 95,183 95,184 95,185 95,186 95,187 95,188 96,189 96,190 96,191 96,192 96,193 95,194 95,195 95,196 95,197 95,198 95,199 95,200 95,201 95,202 95,203 95,204 95,205 95,206 95,207 95,208 95,209 95,210 95,211 96,212 96,213 97,214 97,215 97,216 97,217 98,218 98,219 99,220 99,221 99,222 99,223 100,224 100,225 100,226 100,227 99,228 99,229 99,230 99,231 99,232 99,233 99,234 99,235 99,236 99,237 99,238 99,239 99,240 99,241 99,242 99,243 99,244 99,245 99,246 99,247 98,248 98,249 98,250 98,251 98,252 98,253 98,254 98,255 98,256 98,257 98,258 98,259 98,260 98,261 98,262 98,263 98,264 98,265 98,266 98,267 98,268 98,269 98,270 98,271 98,272 98,273 98,274 98,275 98,276 98,277 98,278 98,279 98,280 98,281 98,282 98,283 98,284 98,285 97,286 98,287 97,288 98,289 97,290 97,291 97,292 97,293 97,294 97,295 97,296 97,297 97,298 97,299 97,300 97,301 97,302 97,303 96,304 96,305 96,306 96,307 96,308 96,309 96,310 96,311 96,312 96,313 96,314 96,315 96,316 95,317 95,318 95,319 95,320 95,321 95,322 95,323 95,324 94,325 94,326 94,327 94,328 94,329 94,330 95,330 96,331 97,331 98,331 99,332 100,332 101,333 102,333 103,334 104,334 105,335 106,335 107,335 108,336 109,336 110,337 111,337 112,338 113,338 114,339 115,339 116,339 117,340 118,340 119,341 120,341 121,341 122,341 123,342 124,342 125,342 126,342 127,342 128,342 129,343 130,343 131,343 132,343 133,343 134,343 135,343 136,343 137,343 138,343 139,343 140,343 141,343 142,343 143,343 144,343 145,343 146,342 147,342 148,342 149,341 150,341 151,341 152,340 153,340 154,340 155,340 156,339 157,339 158,339 159,338 160,337 161,337 162,337 163,336 164,336 165,335 166,335 167,335 168,335 168,334 168,333 168,332 168,331 168,330 168,329 168,328 168,327 168,326 167,325 168,324 167,323 167,322 167,321 167,320 167,319 167,318 167,317 167,316 167,315 167,314 167,313 167,312 167,311 167,310 167,309 167,308 167,307 167,306 167,305 167,304 166,303 166,302 166,301 166,300 166,299 166,298 166,297 166,296 166,295 166,294 165,293 165,292 165,291 165,290 165,289 165,288 165,287 165,286 165,285 165,284 165,283 165,282 165,281 165,280 165,279 165,278 165,277 165,276 165,275 165,274 164,273 165,272 164,271 164,270 164,269 164,268 164,267 164,266 164,265 163,264 164,263 164,262 164,261 164,260 164,259 164,258 164,257 164,256 164,255 163,254 163,253 164,252 163,251 163,250 163,249 163,248 163,247 163,246 163,245 163,244 163,243 163,242 163,241 163,240 163,239 163,238 162,237 163,236 163,235 163,234 162,233 162,232 161,231 162,230 162,229 162,228 162,227 162,226 162,225 162,224 163,223 162,222 162,221 161,221 160,221 159,221 159,222 159,223 159,224 159,225 158,226 158,227 158,228 157,229 157,230 157,231 157,232 157,233 156,234 156,235 156,236 155,237 155,238 155,239 155,240 155,241 154,242 154,243 154,244 154,245 153,246 153,247 153,248 153,249 152,250 152,251 152,252 152,253 152,254 151,255 151,256 152,257 151,258 151,259 151,260 150,261 149,262 148,262 147,263 146,262 146,261 146,260 146,259 145,258 145,257 145,256 144,255 144,254 144,253 144,252 143,251 143,250 142,249 142,248 142,247 142,246 141,245 141,244 141,243 140,242 140,241 139,240 139,239 139,238 138,237 138,236 138,235 137,234 137,233 137,232 136,231 136,230 136,229 135,228 135,227 134,226 134,225 134,224 134,223 133,222 133,221 132,220 132,219 131,218 131,217 131,216 130,215 130,214 129,213 129,212 128,211 128,210 128,209 127,208 127,207 127,206 126,205 126,204 125,203 125,202 125,201 125,200 124,199 124,198 124,197 123,196 123,195 123,194 122,193 122,192 122,191 121,190 121,189 121,188 121,187 120,186 120,185 120,184 120,183 119,182 119,181 119,180 119,179 118,178 118,177 118,176 117,175 117,174 117,173 117,172 116,171 116,170 116,169 116,168 116,167 115,166 115,165 115,164 115,163 115,162 115,161 116,160 115,161 114,160 113,160 112,160 111,160 110,160 109,159 108,159 107,159 106,158 105,158 104,158 103,157 102,157 101,156 100,156 99,156 98,155 97,155 96,155">
      <metadata tailDirection="" confidence="0.95" linkedToCharacter="" id="MomoyamaHaikagura_081_balloon_6" tailTip=""></metadata>
    </polygon>
    <polygon points="154,68 153,69 152,70 151,71 150,71 149,70 148,70 148,71 147,72 146,71 146,72 145,73 145,74 144,75 145,76 144,77 143,77 143,78 142,79 142,80 141,81 141,82 140,83 140,84 139,85 139,86 139,87 138,88 138,89 139,89 140,90 139,91 138,91 137,91 136,92 136,93 135,94 136,94 137,95 136,96 135,96 134,97 134,98 133,99 133,100 133,101 133,102 132,103 132,104 131,105 132,106 131,107 131,108 130,109 130,110 129,111 129,112 130,113 129,114 128,115 128,116 128,117 128,118 127,119 127,120 126,121 126,122 126,123 126,124 125,125 125,126 125,127 124,128 124,129 125,128 126,128 127,129 127,130 126,131 126,132 126,133 126,134 125,135 126,136 125,137 126,138 125,139 125,140 126,140 127,141 127,142 128,143 128,144 127,145 126,144 125,143 125,142 125,143 126,144 125,145 125,146 125,147 125,148 126,147 127,148 127,149 127,150 127,151 127,152 126,153 125,152 125,151 125,150 125,151 125,152 126,153 127,154 128,155 127,156 126,156 125,155 126,156 127,156 128,156 129,157 129,158 128,159 127,160 126,160 125,159 125,158 125,159 125,160 125,161 125,162 125,163 125,164 126,165 126,166 126,167 127,168 127,169 128,169 129,169 130,170 129,171 129,172 128,173 127,172 127,171 126,171 126,172 126,173 126,174 126,175 126,176 127,177 127,178 127,179 127,180 127,181 127,182 127,183 127,184 128,185 128,186 128,187 128,188 129,189 129,190 129,191 130,192 130,193 130,194 129,195 128,195 127,194 127,195 128,196 128,197 127,198 128,198 129,198 130,199 130,200 131,200 132,201 132,202 131,203 130,203 129,204 130,204 131,204 132,205 133,206 132,207 131,207 130,206 130,207 131,208 131,209 131,210 132,211 132,212 132,211 132,210 132,209 131,208 132,207 133,207 134,208 134,209 135,210 134,211 134,212 135,213 135,214 135,215 134,216 133,215 133,214 133,215 134,216 135,215 136,215 137,216 137,217 136,218 135,218 136,218 137,218 138,217 139,217 140,216 141,217 142,218 142,219 142,218 142,217 142,216 142,215 141,216 140,216 139,216 138,215 139,214 138,213 137,212 138,211 139,211 140,211 141,211 142,212 142,211 142,210 142,209 141,208 141,207 140,206 140,205 140,204 140,203 140,202 140,201 140,200 140,199 139,198 138,199 137,199 136,198 137,197 136,196 135,196 134,195 133,195 132,194 131,193 130,192 129,191 129,190 129,189 128,188 128,187 129,186 130,187 129,186 129,185 130,184 131,184 132,185 132,186 133,187 133,188 132,189 131,189 132,190 133,191 134,192 135,192 136,192 137,193 138,194 139,194 140,194 141,195 142,195 143,196 144,196 145,196 146,196 147,197 148,197 149,198 150,198 151,198 152,199 152,198 152,197 151,198 150,197 150,196 151,195 152,195 151,194 150,194 149,194 148,193 148,192 149,191 150,191 149,190 150,189 151,189 152,190 151,189 150,188 151,187 152,187 151,187 150,186 151,185 151,184 152,183 153,184 154,185 153,184 154,183 155,182 156,181 156,180 157,179 158,180 158,179 159,178 160,177 161,176 162,177 163,176 164,175 165,175 166,176 165,177 165,178 166,178 167,178 168,178 169,179 170,179 169,179 168,178 167,178 166,178 165,177 166,176 167,175 168,176 167,175 168,174 169,174 170,174 171,173 172,173 173,174 173,175 172,176 171,177 170,176 171,177 172,177 172,176 173,175 174,175 173,174 172,173 171,173 170,174 169,173 168,173 167,173 166,173 165,173 164,172 164,171 163,171 163,172 164,172 165,173 164,174 163,174 162,175 161,176 160,175 159,176 159,177 159,178 158,179 157,179 156,179 155,179 154,179 153,179 152,180 151,181 150,182 149,181 149,180 148,179 149,178 150,178 151,178 151,177 150,176 151,175 151,174 152,173 153,173 154,173 155,173 156,174 155,175 154,176 153,175 154,176 155,177 154,176 155,175 156,174 157,175 157,176 157,177 157,176 157,175 158,174 158,173 159,172 158,173 157,172 156,171 155,172 154,171 153,170 154,169 155,168 156,168 157,169 158,169 159,169 158,168 159,167 158,166 157,165 158,164 159,164 160,164 161,165 160,164 159,164 158,164 157,164 156,163 157,162 158,161 159,162 158,161 157,160 158,159 159,158 158,158 158,159 157,160 156,160 155,161 156,162 156,163 156,164 155,165 154,165 153,166 154,167 153,168 152,169 151,169 150,169 149,169 148,169 147,168 148,167 148,166 149,165 150,166 151,165 151,164 151,163 151,162 150,162 149,161 149,160 149,159 149,158 149,157 149,156 150,155 151,155 152,155 153,156 153,157 154,158 153,159 152,160 151,160 152,160 153,161 152,160 153,159 154,158 153,157 154,156 154,155 155,154 156,153 157,154 157,155 157,156 158,156 159,155 160,154 161,155 162,156 162,157 162,158 162,159 163,158 164,158 165,157 166,156 166,155 165,156 164,157 163,157 162,156 161,155 160,154 161,153 160,152 161,151 161,150 161,149 160,149 159,150 158,149 158,148 158,147 157,148 156,147 156,146 155,145 154,146 153,145 152,144 151,145 150,144 149,144 148,145 147,144 146,144 145,143 146,142 147,142 148,142 149,142 150,142 151,142 152,141 153,141 154,141 155,140 156,140 157,139 158,139 159,139 160,138 161,139 161,140 161,141 160,142 159,141 159,142 159,143 159,144 158,145 159,144 160,145 161,146 162,147 163,146 164,146 164,145 164,144 164,145 163,146 162,147 161,146 160,145 161,144 160,143 161,142 162,142 161,141 161,140 161,139 162,138 163,138 164,138 164,137 165,136 164,135 164,136 163,137 162,136 162,135 161,134 160,134 159,134 159,135 160,136 159,137 158,138 157,137 157,138 157,139 156,140 155,140 154,139 154,138 154,137 155,136 154,135 155,134 156,134 157,135 157,134 156,134 155,133 156,132 157,132 156,132 155,131 155,130 156,129 157,130 158,130 159,131 160,131 161,132 162,131 163,132 164,132 165,133 166,134 165,133 166,132 167,131 168,132 169,131 168,132 167,131 166,130 166,129 166,128 165,127 165,126 166,125 167,126 166,125 165,124 166,123 167,122 168,123 167,122 166,121 167,120 168,119 169,120 170,121 171,122 170,123 171,123 172,124 173,125 172,124 173,123 174,122 173,121 174,120 173,121 172,122 171,122 170,121 169,120 168,119 167,118 166,118 165,119 164,119 163,120 162,121 161,121 160,121 159,121 158,120 159,119 160,119 161,118 162,117 163,117 163,116 162,117 161,118 160,117 161,118 160,119 159,119 158,120 159,121 160,122 161,121 162,122 163,123 162,124 161,125 160,124 159,125 158,124 157,124 156,123 157,122 156,121 155,120 155,119 154,118 155,117 154,116 155,115 154,114 154,113 153,113 152,113 151,114 150,113 150,112 150,111 150,110 150,109 150,108 151,107 152,107 153,106 154,107 155,107 156,106 155,107 154,106 153,106 152,107 151,107 150,106 151,105 152,104 153,104 154,104 155,103 155,102 156,101 155,101 154,100 154,99 153,99 152,98 153,97 152,96 153,95 153,94 152,93 153,92 154,91 155,92 156,93 157,93 158,92 159,93 160,92 159,91 160,90 161,89 162,90 162,91 162,92 163,93 163,92 162,91 162,90 163,89 163,88 164,87 164,86 165,85 164,84 164,83 164,82 164,83 164,84 163,85 162,86 161,86 160,85 159,86 160,87 161,88 161,89 160,90 159,89 158,90 157,89 156,88 155,87 156,88 156,89 155,90 154,90 153,89 154,90 153,91 152,92 151,92 150,92 149,93 148,92 147,92 146,91 147,90 148,89 149,89 150,90 151,89 151,88 152,87 152,86 153,85 152,84 151,85 151,86 151,87 151,88 151,89 150,90 149,89 149,88 149,87 148,86 149,85 148,84 147,84 146,84 145,84 144,83 143,82 142,81 143,80 144,80 145,81 146,81 147,82 146,81 147,80 147,79 148,78 149,78 150,77 151,78 152,79 153,80 154,81 154,82 154,81 153,80 152,79 151,78 152,77 151,76 150,75 151,74 152,73 153,74 153,73 154,72 155,73 154,72 155,71 156,71 157,72 158,71 157,70 156,70 155,69 155,68 154,68">
      <metadata tailDirection="" confidence="0.82" linkedToCharacter="" id="MomoyamaHaikagura_081_balloon_7" tailTip=""></metadata>
    </polygon>
    <polygon points="314,63 313,64 312,65 312,66 311,67 310,68 309,69 308,70 308,71 307,72 307,73 306,74 305,75 305,76 304,77 304,78 303,79 302,80 302,81 301,82 301,83 301,84 300,85 300,86 299,87 299,88 298,89 298,90 298,91 297,92 297,93 296,94 296,95 296,96 295,97 295,98 294,99 294,100 294,101 294,102 293,103 293,104 293,105 292,106 292,107 292,108 291,109 291,110 291,111 291,112 291,113 290,114 290,115 290,116 290,117 290,118 290,119 289,120 289,121 289,122 289,123 289,124 289,125 289,126 289,127 288,128 288,129 288,130 288,131 288,132 288,133 288,134 288,135 288,136 288,137 288,138 288,139 288,140 289,141 290,142 289,143 288,144 287,145 286,144 285,144 284,143 283,143 282,142 281,141 280,141 279,141 278,140 277,140 276,140 275,140 274,139 273,139 272,139 271,138 270,138 269,138 268,138 267,137 266,137 265,137 264,137 263,136 262,136 261,136 260,136 259,136 258,136 257,136 256,136 255,136 254,136 253,136 252,136 251,136 250,136 249,136 248,136 247,136 246,136 245,137 244,137 243,137 242,137 241,137 240,137 239,137 238,138 237,138 236,138 235,139 234,139 233,140 232,140 231,140 230,140 229,141 228,141 227,142 226,142 225,143 224,143 223,144 222,144 221,145 220,146 219,147 218,148 217,148 216,149 215,150 214,151 213,151 212,152 212,153 211,154 210,155 209,155 208,156 207,157 206,158 206,159 205,160 204,161 203,162 203,163 202,164 201,165 200,166 199,167 199,168 198,169 197,170 197,171 196,172 196,173 196,174 195,175 195,176 194,177 194,178 193,179 193,180 193,181 192,182 192,183 191,184 191,185 191,186 190,187 190,188 190,189 189,190 189,191 189,192 188,193 188,194 188,195 187,196 187,197 187,198 187,199 186,200 186,201 186,202 186,203 186,204 185,205 185,206 185,207 185,208 184,209 184,210 184,211 184,212 183,213 183,214 183,215 183,216 182,217 182,218 182,219 182,220 182,221 181,222 181,223 181,224 181,225 181,226 180,227 180,228 180,229 180,230 180,231 179,232 179,233 179,234 179,235 179,236 179,237 179,238 179,239 178,240 178,241 178,242 178,243 178,244 178,245 178,246 178,247 178,248 178,249 178,250 178,251 178,252 178,253 178,254 178,255 179,256 179,257 179,258 179,259 179,260 179,261 179,262 179,263 179,264 179,265 179,266 179,267 179,268 179,269 179,270 179,271 179,272 180,273 179,274 179,275 179,276 180,277 180,278 180,279 180,280 180,281 180,282 180,283 180,284 180,285 180,286 180,287 181,288 181,289 181,290 181,291 181,292 181,293 182,294 182,295 182,296 182,297 182,298 182,299 182,300 183,301 183,302 183,303 183,304 183,305 183,306 183,307 184,308 184,309 184,310 184,311 185,312 185,313 185,314 186,315 186,316 186,317 186,318 186,319 187,320 187,321 187,322 187,323 188,324 188,325 188,326 189,327 189,328 190,329 190,330 191,331 191,332 191,333 192,334 192,335 193,336 193,337 194,338 194,339 195,340 196,341 196,342 197,343 197,344 198,345 198,346 199,347 200,348 200,349 201,350 201,351 202,352 203,353 203,354 204,355 205,356 206,357 206,358 207,359 208,360 208,361 209,362 210,363 211,364 212,365 213,366 214,367 215,368 216,369 217,370 218,370 219,371 220,371 221,372 222,372 223,373 224,373 225,374 226,374 227,374 228,375 229,375 230,375 231,376 232,376 233,376 234,376 235,376 236,376 237,376 238,376 239,376 240,376 241,376 242,376 243,376 244,376 245,376 246,376 247,376 248,376 249,376 250,376 251,376 252,376 253,376 254,376 255,376 256,376 257,376 258,376 259,376 260,376 261,376 262,376 263,376 264,376 265,376 266,376 267,376 268,376 269,376 270,376 271,376 272,376 273,376 274,376 275,376 276,376 277,376 278,376 279,376 280,376 281,376 282,376 283,376 284,376 285,376 286,376 287,376 288,376 289,375 290,374 291,374 292,373 293,372 294,371 295,370 296,369 297,368 297,367 298,366 299,365 300,364 301,363 301,362 302,361 303,360 303,359 304,358 304,357 305,356 305,355 306,354 307,353 307,352 308,351 308,350 309,349 309,348 310,347 310,346 310,345 311,344 311,343 312,342 312,341 312,340 313,339 314,338 314,337 314,336 315,335 315,334 315,333 315,332 316,331 316,330 316,329 317,328 317,327 317,326 318,325 318,324 318,323 318,322 319,321 319,320 319,319 319,318 320,317 320,316 320,315 320,314 320,313 321,312 321,311 321,310 321,309 321,308 321,307 322,306 322,305 322,304 322,303 322,302 322,301 322,300 323,299 323,298 323,297 323,296 323,295 323,294 323,293 323,292 323,291 323,290 324,289 324,288 324,287 324,286 324,285 324,284 324,283 324,282 324,281 324,280 325,279 325,278 325,277 325,276 325,275 325,274 325,273 325,272 325,271 325,270 325,269 326,268 325,267 326,266 326,265 326,264 326,263 326,262 326,261 326,260 326,259 326,258 327,257 328,257 329,257 330,258 330,259 331,260 332,260 333,260 334,261 335,261 336,262 337,262 338,263 339,263 340,263 341,264 342,264 343,265 344,265 345,265 346,266 347,266 348,267 349,267 350,267 351,267 352,268 353,268 354,268 355,268 356,268 357,269 358,269 359,269 360,269 361,269 362,269 363,269 364,269 365,269 366,269 367,269 368,268 369,268 370,268 371,268 372,268 373,268 374,268 375,268 376,267 377,267 378,267 379,267 380,267 381,266 382,266 383,265 384,265 385,265 386,264 387,264 388,264 389,263 390,262 391,262 392,261 393,261 394,260 395,260 396,259 397,259 398,258 399,257 400,257 401,256 402,255 403,254 404,254 405,253 406,252 407,251 408,250 409,249 410,248 411,247 412,246 413,245 414,244 415,243 415,242 416,241 417,240 417,239 418,238 418,237 419,236 419,235 420,234 420,233 420,232 420,231 420,230 420,229 420,228 420,227 420,226 420,225 420,224 420,223 420,222 420,221 420,220 420,219 420,218 420,217 420,216 420,215 420,214 420,213 420,212 420,211 420,210 420,209 420,208 420,207 420,206 420,205 420,204 420,203 420,202 420,201 420,200 420,199 420,198 420,197 420,196 420,195 420,194 420,193 420,192 420,191 420,190 420,189 420,188 420,187 420,186 420,185 420,184 420,183 420,182 420,181 420,180 420,179 420,178 420,177 420,176 420,175 420,174 420,173 420,172 420,171 420,170 420,169 420,168 420,167 420,166 420,165 420,164 420,163 420,162 420,161 420,160 420,159 420,158 420,157 420,156 420,155 420,154 420,153 420,152 420,151 420,150 420,149 420,148 420,147 420,146 420,145 420,144 420,143 420,142 420,141 420,140 420,139 420,138 420,137 420,136 420,135 420,134 420,133 420,132 420,131 420,130 420,129 420,128 420,127 420,126 420,125 420,124 420,123 420,122 420,121 420,120 420,119 420,118 420,117 420,116 420,115 420,114 420,113 420,112 420,111 420,110 420,109 420,108 420,107 420,106 420,105 420,104 420,103 420,102 420,101 420,100 420,99 420,98 420,97 420,96 420,95 420,94 420,93 420,92 420,91 420,90 420,89 420,88 420,87 420,86 420,85 420,84 420,83 420,82 420,81 420,80 420,79 420,78 420,77 420,76 420,75 420,74 420,73 420,72 420,71 420,70 420,69 420,68 420,67 420,66 420,65 420,64 419,63 418,63 417,64 416,63 415,63 414,63 413,63 412,63 411,63 410,63 409,63 408,63 407,63 406,63 405,63 404,63 403,63 402,63 401,63 400,63 399,63 398,63 397,63 396,63 395,63 394,63 393,63 392,63 391,63 390,63 389,63 388,63 387,63 386,63 385,63 384,63 383,63 382,63 381,63 380,63 379,63 378,63 377,63 376,63 375,63 374,63 373,63 372,63 371,63 370,63 369,63 368,63 367,63 366,63 365,63 364,63 363,63 362,63 361,63 360,63 359,63 358,63 357,63 356,63 355,63 354,63 353,63 352,63 351,63 350,63 349,63 348,63 347,63 346,63 345,63 344,63 343,63 342,63 341,63 340,63 339,63 338,63 337,63 336,63 335,63 334,63 333,63 332,63 331,63 330,63 329,63 328,63 327,63 326,63 325,63 324,63 323,63 322,63 321,63 320,63 319,63 318,63 317,63 316,63 315,63 314,63">
      <metadata tailDirection="" confidence="0.85" linkedToCharacter="" id="MomoyamaHaikagura_081_balloon_8" tailTip=""></metadata>
    </polygon>
  </svg>
</svg>
