<?xml version="1.0" encoding="UTF-8" standalone="no"?>
<svg width="1280" xmlns="http://www.w3.org/2000/svg" version="1.0" height="1798">
  <title>CYB_MOUETTEMAN_004</title>
  <svg contentScriptType="text/ecmascript" zoomAndPan="magnify" contentStyleType="text/css" class="Page" preserveAspectRatio="xMidYMid meet" version="1.0">
    <image xmlns:xlink="http://www.w3.org/1999/xlink" x="0" y="0" width="1280" height="1798" xlink:href="../Pages/CYB_MOUETTEMAN_004.jpg" xlink:type="simple" xlink:actuate="onLoad" preserveAspectRatio="xMidYMid meet" xlink:show="embed"/>
  </svg>
  <style type="text/css" xml:space="preserve">
        * { stroke-width: 0; stroke-linejoin: round; }
        .Unclassified { fill: orange; stroke: none; opacity: 1.0; visibility: hidden; }
        .Noise { fill: pink; stroke: none; opacity: 0.2; visibility: hidden; }
        .Panel { fill: red; stroke: none; opacity: 0.5; visibility: visible; image-rendering: optimizeSpeed; }
        .Line { fill: green; stroke: none; opacity: 0.5; visibility: visible; image-rendering: optimizeSpeed; }
        .TextArea { fill: grey; stroke: none; opacity: 0.2; visibility: visible; image-rendering: optimizeSpeed; }
        .Balloon { fill: cyan; stroke: none; opacity: 0.5; visibility: visible; image-rendering: optimizeSpeed; }
        .Letter { fill: blue; stroke: none; opacity: 0.2; visibility: hidden; }
        .Object { fill: yellow; stroke: none; opacity: 0.2; visibility: visible; image-rendering: optimizeSpeed; }
        .Page { fill: white; stroke: none; opacity: 0.5; visibility: visible; }
</style>
  <svg xmlns="http://www.w3.org/2000/svg" contentScriptType="text/ecmascript" zoomAndPan="magnify" contentStyleType="text/css" class="Line" preserveAspectRatio="xMidYMid meet" version="1.0">
    <polygon points="815,1713 889,1713 889,1735 815,1735 815,1713">
      <metadata confidence="0.0" speechType="" typography="" rank="" method="ocr" id="CYB_MOUETTEMAN_004_line_0">531</metadata>
    </polygon>
    <polygon points="657,1651 695,1651 695,1662 657,1662 657,1651">
      <metadata confidence="0.0" speechType="" typography="" rank="" method="ocr" id="CYB_MOUETTEMAN_004_line_1">r  l</metadata>
    </polygon>
    <polygon points="587,1538 683,1538 683,1576 587,1576 587,1538">
      <metadata confidence="0.0" speechType="" typography="" rank="" method="ocr" id="CYB_MOUETTEMAN_004_line_2">V1</metadata>
    </polygon>
    <polygon points="797,1482 881,1482 881,1496 797,1496 797,1482">
      <metadata confidence="0.0" speechType="" typography="" rank="" method="ocr" id="CYB_MOUETTEMAN_004_line_3">SALON  </metadata>
    </polygon>
    <polygon points="711,1463 967,1463 967,1478 711,1478 711,1463">
      <metadata confidence="0.0" speechType="" typography="" rank="" method="ocr" id="CYB_MOUETTEMAN_004_line_4">ECHANGISTES VANS MON</metadata>
    </polygon>
    <polygon points="702,1438 975,1438 975,1462 702,1462 702,1438">
      <metadata confidence="0.0" speechType="" typography="" rank="" method="ocr" id="CYB_MOUETTEMAN_004_line_5">J  o      w                      ss</metadata>
    </polygon>
    <polygon points="740,1426 937,1426 937,1441 740,1441 740,1426">
      <metadata confidence="0.0" speechType="" typography="" rank="" method="ocr" id="CYB_MOUETTEMAN_004_line_6">LES JEIJUIS SOIPS</metadata>
    </polygon>
    <polygon points="714,1408 892,1408 892,1422 714,1422 714,1408">
      <metadata confidence="0.0" speechType="" typography="" rank="" method="ocr" id="CYB_MOUETTEMAN_004_line_7"> A55E CHEZ MOI</metadata>
    </polygon>
    <polygon points="908,1408 963,1408 963,1422 908,1422 908,1408">
      <metadata confidence="0.0" speechType="" typography="" rank="" method="ocr" id="CYB_MOUETTEMAN_004_line_8">TOUS</metadata>
    </polygon>
    <polygon points="718,1390 959,1390 959,1409 718,1409 718,1390">
      <metadata confidence="0.0" speechType="" typography="" rank="" method="ocr" id="CYB_MOUETTEMAN_004_line_9">J A  DUE TOUT V   A SE</metadata>
    </polygon>
    <polygon points="829,1165 876,1165 876,1190 829,1190 829,1165">
      <metadata confidence="0.0" speechType="" typography="" rank="" method="ocr" id="CYB_MOUETTEMAN_004_line_10">ill </metadata>
    </polygon>
    <polygon points="860,1136 939,1136 939,1180 860,1180 860,1136">
      <metadata confidence="0.0" speechType="" typography="" rank="" method="ocr" id="CYB_MOUETTEMAN_004_line_11">si</metadata>
    </polygon>
    <polygon points="737,1033 857,1033 857,1047 737,1047 737,1033">
      <metadata confidence="0.0" speechType="" typography="" rank="" method="ocr" id="CYB_MOUETTEMAN_004_line_12">SERA FAITE</metadata>
    </polygon>
    <polygon points="668,1015 929,1015 929,1030 668,1030 668,1015">
      <metadata confidence="0.0" speechType="" typography="" rank="" method="ocr" id="CYB_MOUETTEMAN_004_line_13">GIIJE LE LIEU ET JUSTICE</metadata>
    </polygon>
    <polygon points="750,998 945,998 945,1012 750,1012 750,998">
      <metadata confidence="0.0" speechType="" typography="" rank="" method="ocr" id="CYB_MOUETTEMAN_004_line_14">IL NE ME MANQUE</metadata>
    </polygon>
    <polygon points="652,998 734,998 734,1012 652,1012 652,998">
      <metadata confidence="0.0" speechType="" typography="" rank="" method="ocr" id="CYB_MOUETTEMAN_004_line_15">LHEUPE</metadata>
    </polygon>
    <polygon points="846,980 947,980 947,995 846,995 846,980">
      <metadata confidence="0.0" speechType="" typography="" rank="" method="ocr" id="CYB_MOUETTEMAN_004_line_16">AINSI QUE</metadata>
    </polygon>
    <polygon points="650,980 830,980 830,995 650,995 650,980">
      <metadata confidence="0.0" speechType="" typography="" rank="" method="ocr" id="CYB_MOUETTEMAN_004_line_17">QASSEMBLEMENT</metadata>
    </polygon>
    <polygon points="664,963 934,963 934,977 664,977 664,963">
      <metadata confidence="0.0" speechType="" typography="" rank="" method="ocr" id="CYB_MOUETTEMAN_004_line_18">LA NATURE IMMOPALE UU</metadata>
    </polygon>
    <polygon points="641,945 954,945 954,960 641,960 641,945">
      <metadata confidence="0.0" speechType="" typography="" rank="" method="ocr" id="CYB_MOUETTEMAN_004_line_19">LE NOMBQE UE PA  TICIPANTS</metadata>
    </polygon>
    <polygon points="604,824 670,824 670,846 604,846 604,824">
      <metadata confidence="0.0" speechType="" typography="" rank="" method="ocr" id="CYB_MOUETTEMAN_004_line_20"> IQ</metadata>
    </polygon>
    <polygon points="768,699 879,699 879,741 768,741 768,699">
      <metadata confidence="0.0" speechType="" typography="" rank="" method="ocr" id="CYB_MOUETTEMAN_004_line_21">Fal    i</metadata>
    </polygon>
    <polygon points="532,685 705,685 705,741 532,741 532,685">
      <metadata confidence="0.0" speechType="" typography="" rank="" method="ocr" id="CYB_MOUETTEMAN_004_line_22">     K      k</metadata>
    </polygon>
    <polygon points="692,596 820,596 820,611 692,611 692,596">
      <metadata confidence="0.0" speechType="" typography="" rank="" method="ocr" id="CYB_MOUETTEMAN_004_line_23">SAIS TOUT  </metadata>
    </polygon>
    <polygon points="896,658 931,658 931,674 896,674 896,658">
      <metadata confidence="0.0" speechType="" typography="" rank="" method="ocr" id="CYB_MOUETTEMAN_004_line_24">711</metadata>
    </polygon>
    <polygon points="885,639 942,639 942,654 885,654 885,639">
      <metadata confidence="0.0" speechType="" typography="" rank="" method="ocr" id="CYB_MOUETTEMAN_004_line_25">TOUT</metadata>
    </polygon>
    <polygon points="671,578 799,578 799,592 671,592 671,578">
      <metadata confidence="0.0" speechType="" typography="" rank="" method="ocr" id="CYB_MOUETTEMAN_004_line_26">ORDINATEUR</metadata>
    </polygon>
    <polygon points="681,559 831,559 831,573 681,573 681,559">
      <metadata confidence="0.0" speechType="" typography="" rank="" method="ocr" id="CYB_MOUETTEMAN_004_line_27">A MON S  JPEP</metadata>
    </polygon>
    <polygon points="657,540 866,540 866,558 657,558 657,540">
      <metadata confidence="0.0" speechType="" typography="" rank="" method="ocr" id="CYB_MOUETTEMAN_004_line_28">TE  KEL BOX G  ACE</metadata>
    </polygon>
    <polygon points="418,381 656,381 656,405 418,405 418,381">
      <metadata confidence="0.0" speechType="" typography="" rank="" method="ocr" id="CYB_MOUETTEMAN_004_line_29">n Ci    i oo  </metadata>
    </polygon>
    <polygon points="825,350 876,350 876,371 825,371 825,350">
      <metadata confidence="0.0" speechType="" typography="" rank="" method="ocr" id="CYB_MOUETTEMAN_004_line_30">D1</metadata>
    </polygon>
    <polygon points="481,314 583,314 583,338 481,338 481,314">
      <metadata confidence="0.0" speechType="" typography="" rank="" method="ocr" id="CYB_MOUETTEMAN_004_line_31">  .........</metadata>
    </polygon>
    <polygon points="434,290 491,290 491,304 434,304 434,290">
      <metadata confidence="0.0" speechType="" typography="" rank="" method="ocr" id="CYB_MOUETTEMAN_004_line_32">n.. c</metadata>
    </polygon>
    <polygon points="465,244 501,244 501,270 465,270 465,244">
      <metadata confidence="0.0" speechType="" typography="" rank="" method="ocr" id="CYB_MOUETTEMAN_004_line_33">0    a</metadata>
    </polygon>
    <polygon points="731,166 913,166 913,182 731,182 731,166">
      <metadata confidence="0.0" speechType="" typography="" rank="" method="ocr" id="CYB_MOUETTEMAN_004_line_34">FIUELE AGSOCIE  </metadata>
    </polygon>
    <polygon points="679,149 965,149 965,167 679,167 679,149">
      <metadata confidence="0.0" speechType="" typography="" rank="" method="ocr" id="CYB_MOUETTEMAN_004_line_35">Avs  r   Tzc    zL Bqy mou</metadata>
    </polygon>
    <polygon points="685,130 959,130 959,145 685,145 685,130">
      <metadata confidence="0.0" speechType="" typography="" rank="" method="ocr" id="CYB_MOUETTEMAN_004_line_36">22 HEU  ES. JE l7Ol5 WTE</metadata>
    </polygon>
    <polygon points="652,106 992,106 992,126 652,126 652,106">
      <metadata confidence="0.0" speechType="" typography="" rank="" method="ocr" id="CYB_MOUETTEMAN_004_line_37">v  wuu  z H  Ro  c Tv ce sou    </metadata>
    </polygon>
    <polygon points="654,92 980,92 980,110 654,110 654,92">
      <metadata confidence="0.0" speechType="" typography="" rank="" method="ocr" id="CYB_MOUETTEMAN_004_line_38">SLJPEPS VILAJN6 VA TENTER UE</metadata>
    </polygon>
    <polygon points="831,74 960,74 960,88 831,88 831,74">
      <metadata confidence="0.0" speechType="" typography="" rank="" method="ocr" id="CYB_MOUETTEMAN_004_line_39">UN GANG DE</metadata>
    </polygon>
    <polygon points="684,73 804,73 804,88 684,88 684,73">
      <metadata confidence="0.0" speechType="" typography="" rank="" method="ocr" id="CYB_MOUETTEMAN_004_line_40">FDRMELLE5</metadata>
    </polygon>
    <polygon points="715,49 929,49 929,69 715,69 715,49">
      <metadata confidence="0.0" speechType="" typography="" rank="" method="ocr" id="CYB_MOUETTEMAN_004_line_41">Mes vo   u  zs som</metadata>
    </polygon>
  </svg>
</svg>
