<?xml version="1.0" encoding="UTF-8" standalone="no"?>
<svg width="569" xmlns="http://www.w3.org/2000/svg" version="1.0" height="661">
  <title>CYB_COSMOZONE_014</title>
  <svg contentScriptType="text/ecmascript" zoomAndPan="magnify" contentStyleType="text/css" class="Page" preserveAspectRatio="xMidYMid meet" version="1.0">
    <image xmlns:xlink="http://www.w3.org/1999/xlink" x="0" y="0" width="569" height="661" xlink:href="../Pages/CYB_COSMOZONE_014.jpg" xlink:type="simple" xlink:actuate="onLoad" preserveAspectRatio="xMidYMid meet" xlink:show="embed"/>
  </svg>
  <style type="text/css" xml:space="preserve">
        * { stroke-width: 0; stroke-linejoin: round; }
        .Unclassified { fill: orange; stroke: none; opacity: 1.0; visibility: hidden; }
        .Noise { fill: pink; stroke: none; opacity: 0.2; visibility: hidden; }
        .Panel { fill: red; stroke: none; opacity: 0.5; visibility: visible; image-rendering: optimizeSpeed; }
        .Line { fill: green; stroke: none; opacity: 0.5; visibility: visible; image-rendering: optimizeSpeed; }
        .TextArea { fill: grey; stroke: none; opacity: 0.2; visibility: visible; image-rendering: optimizeSpeed; }
        .Balloon { fill: cyan; stroke: none; opacity: 0.5; visibility: visible; image-rendering: optimizeSpeed; }
        .Letter { fill: blue; stroke: none; opacity: 0.2; visibility: hidden; }
        .Object { fill: yellow; stroke: none; opacity: 0.2; visibility: visible; image-rendering: optimizeSpeed; }
        .Page { fill: white; stroke: none; opacity: 0.5; visibility: visible; }
</style>
  <svg xmlns="http://www.w3.org/2000/svg" contentScriptType="text/ecmascript" zoomAndPan="magnify" contentStyleType="text/css" class="Line" preserveAspectRatio="xMidYMid meet" version="1.0">
    <polygon points="340,449 393,449 393,461 340,461 340,449">
      <metadata confidence="0.0" speechType="" typography="" rank="" method="ocr" id="CYB_COSMOZONE_014_line_0">pnssmne</metadata>
    </polygon>
    <polygon points="322,437 358,437 358,447 322,447 322,437">
      <metadata confidence="0.0" speechType="" typography="" rank="" method="ocr" id="CYB_COSMOZONE_014_line_1">ne va</metadata>
    </polygon>
    <polygon points="329,414 391,414 391,437 329,437 329,414">
      <metadata confidence="0.0" speechType="" typography="" rank="" method="ocr" id="CYB_COSMOZONE_014_line_2">uesona 1crms que</metadata>
    </polygon>
    <polygon points="339,410 400,410 400,425 339,425 339,410">
      <metadata confidence="0.0" speechType="" typography="" rank="" method="ocr" id="CYB_COSMOZONE_014_line_3">D  sm  . ne</metadata>
    </polygon>
    <polygon points="176,554 215,554 215,567 176,567 176,554">
      <metadata confidence="0.0" speechType="" typography="" rank="" method="ocr" id="CYB_COSMOZONE_014_line_4">DW </metadata>
    </polygon>
    <polygon points="6,601 67,601 67,608 6,608 6,601">
      <metadata confidence="0.0" speechType="" typography="" rank="" method="ocr" id="CYB_COSMOZONE_014_line_5">ur</metadata>
    </polygon>
    <polygon points="37,583 68,583 68,595 37,595 37,583">
      <metadata confidence="0.0" speechType="" typography="" rank="" method="ocr" id="CYB_COSMOZONE_014_line_6">Mam</metadata>
    </polygon>
    <polygon points="10,571 93,571 93,583 10,583 10,571">
      <metadata confidence="0.0" speechType="" typography="" rank="" method="ocr" id="CYB_COSMOZONE_014_line_7">En   n we  rms</metadata>
    </polygon>
    <polygon points="74,547 99,547 99,558 74,558 74,547">
      <metadata confidence="0.0" speechType="" typography="" rank="" method="ocr" id="CYB_COSMOZONE_014_line_8">sws</metadata>
    </polygon>
    <polygon points="12,546 56,546 56,558 12,558 12,546">
      <metadata confidence="0.0" speechType="" typography="" rank="" method="ocr" id="CYB_COSMOZONE_014_line_9">el bwen</metadata>
    </polygon>
    <polygon points="23,535 56,535 56,546 23,546 23,535">
      <metadata confidence="0.0" speechType="" typography="" rank="" method="ocr" id="CYB_COSMOZONE_014_line_10">uw     </metadata>
    </polygon>
    <polygon points="71,535 97,535 97,546 71,546 71,535">
      <metadata confidence="0.0" speechType="" typography="" rank="" method="ocr" id="CYB_COSMOZONE_014_line_11">Heu</metadata>
    </polygon>
    <polygon points="32,523 80,523 80,537 32,537 32,523">
      <metadata confidence="0.0" speechType="" typography="" rank="" method="ocr" id="CYB_COSMOZONE_014_line_12"> mcm</metadata>
    </polygon>
    <polygon points="40,428 120,428 120,442 40,442 40,428">
      <metadata confidence="0.0" speechType="" typography="" rank="" method="ocr" id="CYB_COSMOZONE_014_line_13">astmlom  ue</metadata>
    </polygon>
    <polygon points="46,417 118,417 118,430 46,430 46,417">
      <metadata confidence="0.0" speechType="" typography="" rank="" method="ocr" id="CYB_COSMOZONE_014_line_14">vmr   swgne</metadata>
    </polygon>
    <polygon points="89,406 142,406 142,416 89,416 89,406">
      <metadata confidence="0.0" speechType="" typography="" rank="" method="ocr" id="CYB_COSMOZONE_014_line_15">onnam</metadata>
    </polygon>
    <polygon points="23,404 78,404 78,416 23,416 23,404">
      <metadata confidence="0.0" speechType="" typography="" rank="" method="ocr" id="CYB_COSMOZONE_014_line_16">vouurms</metadata>
    </polygon>
    <polygon points="82,392 137,392 137,405 82,405 82,392">
      <metadata confidence="0.0" speechType="" typography="" rank="" method="ocr" id="CYB_COSMOZONE_014_line_17">rr  uume</metadata>
    </polygon>
    <polygon points="28,394 66,394 66,403 28,403 28,394">
      <metadata confidence="0.0" speechType="" typography="" rank="" method="ocr" id="CYB_COSMOZONE_014_line_18">mem</metadata>
    </polygon>
    <polygon points="29,379 136,379 136,391 29,391 29,379">
      <metadata confidence="0.0" speechType="" typography="" rank="" method="ocr" id="CYB_COSMOZONE_014_line_19">men maintenan </metadata>
    </polygon>
    <polygon points="474,302 541,302 541,323 474,323 474,302">
      <metadata confidence="0.0" speechType="" typography="" rank="" method="ocr" id="CYB_COSMOZONE_014_line_20">NHV  T</metadata>
    </polygon>
    <polygon points="329,286 365,286 365,298 329,298 329,286">
      <metadata confidence="0.0" speechType="" typography="" rank="" method="ocr" id="CYB_COSMOZONE_014_line_21">a ans</metadata>
    </polygon>
    <polygon points="307,274 358,274 358,286 307,286 307,274">
      <metadata confidence="0.0" speechType="" typography="" rank="" method="ocr" id="CYB_COSMOZONE_014_line_22">me    om</metadata>
    </polygon>
    <polygon points="371,274 391,274 391,288 371,288 371,274">
      <metadata confidence="0.0" speechType="" typography="" rank="" method="ocr" id="CYB_COSMOZONE_014_line_23"> au</metadata>
    </polygon>
    <polygon points="320,261 378,261 378,276 320,276 320,261">
      <metadata confidence="0.0" speechType="" typography="" rank="" method="ocr" id="CYB_COSMOZONE_014_line_24">aaev  En</metadata>
    </polygon>
    <polygon points="343,251 370,251 370,262 343,262 343,251">
      <metadata confidence="0.0" speechType="" typography="" rank="" method="ocr" id="CYB_COSMOZONE_014_line_25">Mon</metadata>
    </polygon>
    <polygon points="464,269 559,269 559,287 464,287 464,269">
      <metadata confidence="0.0" speechType="" typography="" rank="" method="ocr" id="CYB_COSMOZONE_014_line_26">   F  S       Z1</metadata>
    </polygon>
    <polygon points="339,133 411,133 411,147 339,147 339,133">
      <metadata confidence="0.0" speechType="" typography="" rank="" method="ocr" id="CYB_COSMOZONE_014_line_27">votre   ye  </metadata>
    </polygon>
    <polygon points="318,121 433,121 433,135 318,135 318,121">
      <metadata confidence="0.0" speechType="" typography="" rank="" method="ocr" id="CYB_COSMOZONE_014_line_28">noi . nui  le  vw</metadata>
    </polygon>
    <polygon points="319,109 430,109 430,122 319,122 319,109">
      <metadata confidence="0.0" speechType="" typography="" rank="" method="ocr" id="CYB_COSMOZONE_014_line_29">Avant waner plus</metadata>
    </polygon>
    <polygon points="14,167 242,167 242,190 14,190 14,167">
      <metadata confidence="0.0" speechType="" typography="" rank="" method="ocr" id="CYB_COSMOZONE_014_line_30">a quem  es names au uepan mszwe aefwe plus     H</metadata>
    </polygon>
    <polygon points="191,302 242,302 242,314 191,314 191,302">
      <metadata confidence="0.0" speechType="" typography="" rank="" method="ocr" id="CYB_COSMOZONE_014_line_31"> .   4    </metadata>
    </polygon>
    <polygon points="9,189 163,189 163,215 9,215 9,189">
      <metadata confidence="0.0" speechType="" typography="" rank="" method="ocr" id="CYB_COSMOZONE_014_line_32">ampxe mnna   m   </metadata>
    </polygon>
    <polygon points="117,156 202,156 202,177 117,177 117,156">
      <metadata confidence="0.0" speechType="" typography="" rank="" method="ocr" id="CYB_COSMOZONE_014_line_33">E vans a enes du d  g  jn </metadata>
    </polygon>
    <polygon points="14,155 104,155 104,176 14,176 14,155">
      <metadata confidence="0.0" speechType="" typography="" rank="" method="ocr" id="CYB_COSMOZONE_014_line_34">germes  mma auemues ne</metadata>
    </polygon>
    <polygon points="191,154 215,154 215,165 191,165 191,154">
      <metadata confidence="0.0" speechType="" typography="" rank="" method="ocr" id="CYB_COSMOZONE_014_line_35">ele </metadata>
    </polygon>
    <polygon points="102,142 201,142 201,165 102,165 102,142">
      <metadata confidence="0.0" speechType="" typography="" rank="" method="ocr" id="CYB_COSMOZONE_014_line_36">ampe Je f  ae vm anna</metadata>
    </polygon>
    <polygon points="195,144 216,144 216,153 195,153 195,144">
      <metadata confidence="0.0" speechType="" typography="" rank="" method="ocr" id="CYB_COSMOZONE_014_line_37">me</metadata>
    </polygon>
    <polygon points="14,132 215,132 215,153 14,153 14,132">
      <metadata confidence="0.0" speechType="" typography="" rank="" method="ocr" id="CYB_COSMOZONE_014_line_38">resnonsame mamme a numne   Hmm    amne  E me</metadata>
    </polygon>
    <polygon points="65,128 157,128 157,142 65,142 65,128">
      <metadata confidence="0.0" speechType="" typography="" rank="" method="ocr" id="CYB_COSMOZONE_014_line_39">ab    r    lmn  </metadata>
    </polygon>
    <polygon points="14,120 216,120 216,142 14,142 14,120">
      <metadata confidence="0.0" speechType="" typography="" rank="" method="ocr" id="CYB_COSMOZONE_014_line_40">a appremre que  vm   s  serezres  wnsab e macmne a burd</metadata>
    </polygon>
    <polygon points="13,107 236,107 236,130 13,130 13,107">
      <metadata confidence="0.0" speechType="" typography="" rank="" method="ocr" id="CYB_COSMOZONE_014_line_41">pm omx a vappmn Je Wengwannrenme que vous serez</metadata>
    </polygon>
    <polygon points="129,97 206,97 206,118 129,118 129,97">
      <metadata confidence="0.0" speechType="" typography="" rank="" method="ocr" id="CYB_COSMOZONE_014_line_42">Lummamaavar en    war</metadata>
    </polygon>
    <polygon points="25,97 107,97 107,118 25,118 25,97">
      <metadata confidence="0.0" speechType="" typography="" rank="" method="ocr" id="CYB_COSMOZONE_014_line_43">aw uuauecnn cm a vz</metadata>
    </polygon>
    <polygon points="171,95 216,95 216,106 171,106 171,95">
      <metadata confidence="0.0" speechType="" typography="" rank="" method="ocr" id="CYB_COSMOZONE_014_line_44">av aam</metadata>
    </polygon>
    <polygon points="20,95 78,95 78,107 20,107 20,95">
      <metadata confidence="0.0" speechType="" typography="" rank="" method="ocr" id="CYB_COSMOZONE_014_line_45">naxur Gu.</metadata>
    </polygon>
    <polygon points="159,50 230,50 230,68 159,68 159,50">
      <metadata confidence="0.0" speechType="" typography="" rank="" method="ocr" id="CYB_COSMOZONE_014_line_46"> 5F    eme</metadata>
    </polygon>
    <polygon points="23,38 192,38 192,62 23,62 23,38">
      <metadata confidence="0.0" speechType="" typography="" rank="" method="ocr" id="CYB_COSMOZONE_014_line_47">g1 wdf  wwg</metadata>
    </polygon>
  </svg>
</svg>
