<?xml version="1.0" encoding="UTF-8" standalone="no"?>
<svg width="1280" xmlns="http://www.w3.org/2000/svg" version="1.0" height="1844">
  <title>FOX_CHILLINTALES_T17_012</title>
  <svg contentScriptType="text/ecmascript" zoomAndPan="magnify" contentStyleType="text/css" class="Page" preserveAspectRatio="xMidYMid meet" version="1.0">
    <image xmlns:xlink="http://www.w3.org/1999/xlink" x="0" y="0" width="1280" height="1844" xlink:href="../Pages/FOX_CHILLINTALES_T17_012.jpg" xlink:type="simple" xlink:actuate="onLoad" preserveAspectRatio="xMidYMid meet" xlink:show="embed"/>
  </svg>
  <style type="text/css" xml:space="preserve">
        * { stroke-width: 0; stroke-linejoin: round; }
        .Unclassified { fill: orange; stroke: none; opacity: 1.0; visibility: hidden; }
        .Noise { fill: pink; stroke: none; opacity: 0.2; visibility: hidden; }
        .Panel { fill: red; stroke: none; opacity: 0.5; visibility: visible; image-rendering: optimizeSpeed; }
        .Line { fill: green; stroke: none; opacity: 0.5; visibility: visible; image-rendering: optimizeSpeed; }
        .TextArea { fill: grey; stroke: none; opacity: 0.2; visibility: visible; image-rendering: optimizeSpeed; }
        .Balloon { fill: cyan; stroke: none; opacity: 0.5; visibility: visible; image-rendering: optimizeSpeed; }
        .Letter { fill: blue; stroke: none; opacity: 0.2; visibility: hidden; }
        .Object { fill: yellow; stroke: none; opacity: 0.2; visibility: visible; image-rendering: optimizeSpeed; }
        .Page { fill: white; stroke: none; opacity: 0.5; visibility: visible; }
</style>
  <svg xmlns="http://www.w3.org/2000/svg" contentScriptType="text/ecmascript" zoomAndPan="magnify" contentStyleType="text/css" class="Line" preserveAspectRatio="xMidYMid meet" version="1.0">
    <polygon points="1111,1746 1224,1746 1224,1780 1111,1780 1111,1746">
      <metadata confidence="0.0" speechType="" typography="" rank="" method="ocr" id="FOX_CHILLINTALES_T17_012_line_0"> Gil</metadata>
    </polygon>
    <polygon points="629,1644 705,1644 705,1672 629,1672 629,1644">
      <metadata confidence="0.0" speechType="" typography="" rank="" method="ocr" id="FOX_CHILLINTALES_T17_012_line_1">FLESH</metadata>
    </polygon>
    <polygon points="625,1622 712,1622 712,1646 625,1646 625,1622">
      <metadata confidence="0.0" speechType="" typography="" rank="" method="ocr" id="FOX_CHILLINTALES_T17_012_line_2">ROTYI N</metadata>
    </polygon>
    <polygon points="625,1592 721,1592 721,1619 625,1619 625,1592">
      <metadata confidence="0.0" speechType="" typography="" rank="" method="ocr" id="FOX_CHILLINTALES_T17_012_line_3">D  CAYEI1</metadata>
    </polygon>
    <polygon points="639,1563 936,1563 936,1596 639,1596 639,1563">
      <metadata confidence="0.0" speechType="" typography="" rank="" method="ocr" id="FOX_CHILLINTALES_T17_012_line_4">mma or        Mm  </metadata>
    </polygon>
    <polygon points="628,1537 751,1537 751,1568 628,1568 628,1537">
      <metadata confidence="0.0" speechType="" typography="" rank="" method="ocr" id="FOX_CHILLINTALES_T17_012_line_5">NAUSE  TING</metadata>
    </polygon>
    <polygon points="704,1513 810,1513 810,1543 704,1543 704,1513">
      <metadata confidence="0.0" speechType="" typography="" rank="" method="ocr" id="FOX_CHILLINTALES_T17_012_line_6">Tuim   </metadata>
    </polygon>
    <polygon points="630,1513 670,1513 670,1536 630,1536 630,1513">
      <metadata confidence="0.0" speechType="" typography="" rank="" method="ocr" id="FOX_CHILLINTALES_T17_012_line_7">D00</metadata>
    </polygon>
    <polygon points="631,1487 755,1487 755,1511 631,1511 631,1487">
      <metadata confidence="0.0" speechType="" typography="" rank="" method="ocr" id="FOX_CHILLINTALES_T17_012_line_8">BEHIND THE</metadata>
    </polygon>
    <polygon points="691,1467 731,1467 731,1487 691,1487 691,1467">
      <metadata confidence="0.0" speechType="" typography="" rank="" method="ocr" id="FOX_CHILLINTALES_T17_012_line_9">FRO</metadata>
    </polygon>
    <polygon points="52,1448 215,1448 215,1464 52,1464 52,1448">
      <metadata confidence="0.0" speechType="" typography="" rank="" method="ocr" id="FOX_CHILLINTALES_T17_012_line_10">TO BE A VAULT</metadata>
    </polygon>
    <polygon points="615,1436 753,1436 753,1465 615,1465 615,1436">
      <metadata confidence="0.0" speechType="" typography="" rank="" method="ocr" id="FOX_CHILLINTALES_T17_012_line_11">llszznso  ro</metadata>
    </polygon>
    <polygon points="49,1417 310,1417 310,1439 49,1439 49,1417">
      <metadata confidence="0.0" speechType="" typography="" rank="" method="ocr" id="FOX_CHILLINTALES_T17_012_line_12"> 1    r s  rr ucx Euousn</metadata>
    </polygon>
    <polygon points="43,1396 311,1396 311,1415 43,1415 43,1396">
      <metadata confidence="0.0" speechType="" typography="" rank="" method="ocr" id="FOX_CHILLINTALES_T17_012_line_13">WONDER WI  lAT S BEH IND</metadata>
    </polygon>
    <polygon points="710,1388 759,1388 759,1405 710,1405 710,1388">
      <metadata confidence="0.0" speechType="" typography="" rank="" method="ocr" id="FOX_CHILLINTALES_T17_012_line_14">TFUL</metadata>
    </polygon>
    <polygon points="618,1385 663,1385 663,1405 618,1405 618,1385">
      <metadata confidence="0.0" speechType="" typography="" rank="" method="ocr" id="FOX_CHILLINTALES_T17_012_line_15">AF</metadata>
    </polygon>
    <polygon points="46,1367 274,1367 274,1389 46,1389 46,1367">
      <metadata confidence="0.0" speechType="" typography="" rank="" method="ocr" id="FOX_CHILLINTALES_T17_012_line_16">THAT  .. STRANGE f I</metadata>
    </polygon>
    <polygon points="627,1359 730,1359 730,1382 627,1382 627,1359">
      <metadata confidence="0.0" speechType="" typography="" rank="" method="ocr" id="FOX_CHILLINTALES_T17_012_line_17">AWA RE Ol</metadata>
    </polygon>
    <polygon points="57,1322 253,1322 253,1356 57,1356 57,1322">
      <metadata confidence="0.0" speechType="" typography="" rank="" method="ocr" id="FOX_CHILLINTALES_T17_012_line_18"> nvv amaso 099</metadata>
    </polygon>
    <polygon points="810,1326 879,1326 879,1343 810,1343 810,1326">
      <metadata confidence="0.0" speechType="" typography="" rank="" method="ocr" id="FOX_CHILLINTALES_T17_012_line_19">AWFUL</metadata>
    </polygon>
    <polygon points="625,1295 728,1295 728,1354 625,1354 625,1295">
      <metadata confidence="0.0" speechType="" typography="" rank="" method="ocr" id="FOX_CHILLINTALES_T17_012_line_20">Suonzm 12 nscnus</metadata>
    </polygon>
    <polygon points="200,1300 541,1300 541,1332 200,1332 200,1300">
      <metadata confidence="0.0" speechType="" typography="" rank="" method="ocr" id="FOX_CHILLINTALES_T17_012_line_21">    IVTHEVI  Y uowu I vnsszu A</metadata>
    </polygon>
    <polygon points="39,1291 155,1291 155,1326 39,1326 39,1291">
      <metadata confidence="0.0" speechType="" typography="" rank="" method="ocr" id="FOX_CHILLINTALES_T17_012_line_22">1 nc. un    D  VLNSTAH</metadata>
    </polygon>
    <polygon points="1009,1290 1121,1290 1121,1314 1009,1314 1009,1290">
      <metadata confidence="0.0" speechType="" typography="" rank="" method="ocr" id="FOX_CHILLINTALES_T17_012_line_23">Ein    </metadata>
    </polygon>
    <polygon points="795,1288 945,1288 945,1316 795,1316 795,1288">
      <metadata confidence="0.0" speechType="" typography="" rank="" method="ocr" id="FOX_CHILLINTALES_T17_012_line_24">uen  n s  </metadata>
    </polygon>
    <polygon points="362,1282 576,1282 576,1308 362,1308 362,1282">
      <metadata confidence="0.0" speechType="" typography="" rank="" method="ocr" id="FOX_CHILLINTALES_T17_012_line_25">EARLY AND STARTED</metadata>
    </polygon>
    <polygon points="61,1273 328,1273 328,1305 61,1305 61,1273">
      <metadata confidence="0.0" speechType="" typography="" rank="" method="ocr" id="FOX_CHILLINTALES_T17_012_line_26">HE NEX  MQRNXNG I. AWD</metadata>
    </polygon>
    <polygon points="257,1227 408,1227 408,1265 257,1265 257,1227">
      <metadata confidence="0.0" speechType="" typography="" rank="" method="ocr" id="FOX_CHILLINTALES_T17_012_line_27">VV        1          </metadata>
    </polygon>
    <polygon points="36,1190 103,1190 103,1227 36,1227 36,1190">
      <metadata confidence="0.0" speechType="" typography="" rank="" method="ocr" id="FOX_CHILLINTALES_T17_012_line_28">  rA</metadata>
    </polygon>
    <polygon points="384,1160 685,1160 685,1220 384,1220 384,1160">
      <metadata confidence="0.0" speechType="" typography="" rank="" method="ocr" id="FOX_CHILLINTALES_T17_012_line_29">g   w Fa  v.      y  M    m.. J  Ria</metadata>
    </polygon>
    <polygon points="381,1134 507,1134 507,1171 381,1171 381,1134">
      <metadata confidence="0.0" speechType="" typography="" rank="" method="ocr" id="FOX_CHILLINTALES_T17_012_line_30"> if      1  </metadata>
    </polygon>
    <polygon points="333,1119 401,1119 401,1142 333,1142 333,1119">
      <metadata confidence="0.0" speechType="" typography="" rank="" method="ocr" id="FOX_CHILLINTALES_T17_012_line_31">CHL  J</metadata>
    </polygon>
    <polygon points="36,1023 243,1023 243,1069 36,1069 36,1023">
      <metadata confidence="0.0" speechType="" typography="" rank="" method="ocr" id="FOX_CHILLINTALES_T17_012_line_32"> r  synouss</metadata>
    </polygon>
    <polygon points="521,1022 589,1022 589,1051 521,1051 521,1022">
      <metadata confidence="0.0" speechType="" typography="" rank="" method="ocr" id="FOX_CHILLINTALES_T17_012_line_33">b  f  l  </metadata>
    </polygon>
    <polygon points="43,1003 234,1003 234,1033 43,1033 43,1003">
      <metadata confidence="0.0" speechType="" typography="" rank="" method="ocr" id="FOX_CHILLINTALES_T17_012_line_34">RECESSES OF  </metadata>
    </polygon>
    <polygon points="44,979 153,979 153,1007 44,1007 44,979">
      <metadata confidence="0.0" speechType="" typography="" rank="" method="ocr" id="FOX_CHILLINTALES_T17_012_line_35">THE DARK</metadata>
    </polygon>
    <polygon points="239,943 542,943 542,1003 239,1003 239,943">
      <metadata confidence="0.0" speechType="" typography="" rank="" method="ocr" id="FOX_CHILLINTALES_T17_012_line_36">        .  .         </metadata>
    </polygon>
    <polygon points="57,954 154,954 154,981 57,981 57,954">
      <metadata confidence="0.0" speechType="" typography="" rank="" method="ocr" id="FOX_CHILLINTALES_T17_012_line_37">AME FRO</metadata>
    </polygon>
    <polygon points="40,927 133,927 133,956 40,956 40,927">
      <metadata confidence="0.0" speechType="" typography="" rank="" method="ocr" id="FOX_CHILLINTALES_T17_012_line_38">SCREAM</metadata>
    </polygon>
    <polygon points="44,900 166,900 166,924 44,924 44,900">
      <metadata confidence="0.0" speechType="" typography="" rank="" method="ocr" id="FOX_CHILLINTALES_T17_012_line_39">UN EARTHLY</metadata>
    </polygon>
    <polygon points="44,872 162,872 162,903 44,903 44,872">
      <metadata confidence="0.0" speechType="" typography="" rank="" method="ocr" id="FOX_CHILLINTALES_T17_012_line_40">STUDY AN</metadata>
    </polygon>
    <polygon points="72,849 148,849 148,877 72,877 72,849">
      <metadata confidence="0.0" speechType="" typography="" rank="" method="ocr" id="FOX_CHILLINTALES_T17_012_line_41"> SOR S</metadata>
    </polygon>
    <polygon points="87,799 168,799 168,825 87,825 87,799">
      <metadata confidence="0.0" speechType="" typography="" rank="" method="ocr" id="FOX_CHILLINTALES_T17_012_line_42">BRED</metadata>
    </polygon>
    <polygon points="217,822 400,822 400,844 217,844 217,822">
      <metadata confidence="0.0" speechType="" typography="" rank="" method="ocr" id="FOX_CHILLINTALES_T17_012_line_43">uxz A scream </metadata>
    </polygon>
    <polygon points="204,795 433,795 433,819 204,819 204,795">
      <metadata confidence="0.0" speechType="" typography="" rank="" method="ocr" id="FOX_CHILLINTALES_T17_012_line_44">THAT  rr souunso </metadata>
    </polygon>
    <polygon points="204,775 469,775 469,795 204,795 204,775">
      <metadata confidence="0.0" speechType="" typography="" rank="" method="ocr" id="FOX_CHILLINTALES_T17_012_line_45">GOOD LORD  WHAT WAS</metadata>
    </polygon>
    <polygon points="563,813 665,813 665,830 563,830 563,813">
      <metadata confidence="0.0" speechType="" typography="" rank="" method="ocr" id="FOX_CHILLINTALES_T17_012_line_46">MR. HOWE</metadata>
    </polygon>
    <polygon points="574,788 666,788 666,804 574,804 574,788">
      <metadata confidence="0.0" speechType="" typography="" rank="" method="ocr" id="FOX_CHILLINTALES_T17_012_line_47">NOTHING</metadata>
    </polygon>
    <polygon points="577,759 669,759 669,778 577,778 577,759">
      <metadata confidence="0.0" speechType="" typography="" rank="" method="ocr" id="FOX_CHILLINTALES_T17_012_line_48">I HEARD</metadata>
    </polygon>
    <polygon points="579,735 675,735 675,751 579,751 579,735">
      <metadata confidence="0.0" speechType="" typography="" rank="" method="ocr" id="FOX_CHILLINTALES_T17_012_line_49">SCREAM </metadata>
    </polygon>
    <polygon points="1044,1166 1076,1166 1076,1195 1044,1195 1044,1166">
      <metadata confidence="0.0" speechType="" typography="" rank="" method="ocr" id="FOX_CHILLINTALES_T17_012_line_50">gg  </metadata>
    </polygon>
    <polygon points="834,1151 1149,1151 1149,1188 834,1188 834,1151">
      <metadata confidence="0.0" speechType="" typography="" rank="" method="ocr" id="FOX_CHILLINTALES_T17_012_line_51">   ll  4 .  7     </metadata>
    </polygon>
    <polygon points="1148,1043 1234,1043 1234,1085 1148,1085 1148,1043">
      <metadata confidence="0.0" speechType="" typography="" rank="" method="ocr" id="FOX_CHILLINTALES_T17_012_line_52">fg </metadata>
    </polygon>
    <polygon points="922,1005 981,1005 981,1033 922,1033 922,1005">
      <metadata confidence="0.0" speechType="" typography="" rank="" method="ocr" id="FOX_CHILLINTALES_T17_012_line_53">WN</metadata>
    </polygon>
    <polygon points="1106,943 1218,943 1218,986 1106,986 1106,943">
      <metadata confidence="0.0" speechType="" typography="" rank="" method="ocr" id="FOX_CHILLINTALES_T17_012_line_54"> xul   .   .    g     </metadata>
    </polygon>
    <polygon points="778,823 873,823 873,867 778,867 778,823">
      <metadata confidence="0.0" speechType="" typography="" rank="" method="ocr" id="FOX_CHILLINTALES_T17_012_line_55">I    W   f      Q</metadata>
    </polygon>
    <polygon points="615,943 746,943 746,1011 615,1011 615,943">
      <metadata confidence="0.0" speechType="" typography="" rank="" method="ocr" id="FOX_CHILLINTALES_T17_012_line_56">y.Lfi V    </metadata>
    </polygon>
    <polygon points="1114,811 1171,811 1171,827 1114,827 1114,811">
      <metadata confidence="0.0" speechType="" typography="" rank="" method="ocr" id="FOX_CHILLINTALES_T17_012_line_57">COME</metadata>
    </polygon>
    <polygon points="932,811 1077,811 1077,826 932,826 932,811">
      <metadata confidence="0.0" speechType="" typography="" rank="" method="ocr" id="FOX_CHILLINTALES_T17_012_line_58">THE MORNING</metadata>
    </polygon>
    <polygon points="940,783 1213,783 1213,800 940,800 940,783">
      <metadata confidence="0.0" speechType="" typography="" rank="" method="ocr" id="FOX_CHILLINTALES_T17_012_line_59">DISCUSS YOUR DUTIES IN</metadata>
    </polygon>
    <polygon points="1131,758 1196,758 1196,774 1131,774 1131,758">
      <metadata confidence="0.0" speechType="" typography="" rank="" method="ocr" id="FOX_CHILLINTALES_T17_012_line_60">WE LL</metadata>
    </polygon>
    <polygon points="959,758 1109,758 1109,774 959,774 959,758">
      <metadata confidence="0.0" speechType="" typography="" rank="" method="ocr" id="FOX_CHILLINTALES_T17_012_line_61">TU YOUR ROOM</metadata>
    </polygon>
    <polygon points="998,731 1196,731 1196,748 998,748 998,731">
      <metadata confidence="0.0" speechType="" typography="" rank="" method="ocr" id="FOX_CHILLINTALES_T17_012_line_62">LET ME TAKE YOU</metadata>
    </polygon>
    <polygon points="1033,706 1199,706 1199,722 1033,722 1033,706">
      <metadata confidence="0.0" speechType="" typography="" rank="" method="ocr" id="FOX_CHILLINTALES_T17_012_line_63">YOU ARE Tl RED</metadata>
    </polygon>
    <polygon points="717,762 890,762 890,777 717,777 717,762">
      <metadata confidence="0.0" speechType="" typography="" rank="" method="ocr" id="FOX_CHILLINTALES_T17_012_line_64">MY IMAGINATION</metadata>
    </polygon>
    <polygon points="715,734 954,734 954,751 715,751 715,734">
      <metadata confidence="0.0" speechType="" typography="" rank="" method="ocr" id="FOX_CHILLINTALES_T17_012_line_65">PERHAPS IT WAS JUST</metadata>
    </polygon>
    <polygon points="720,707 949,707 949,723 720,723 720,707">
      <metadata confidence="0.0" speechType="" typography="" rank="" method="ocr" id="FOX_CHILLINTALES_T17_012_line_66">1 COULD  HAVE SWORN</metadata>
    </polygon>
    <polygon points="55,542 101,542 101,576 55,576 55,542">
      <metadata confidence="0.0" speechType="" typography="" rank="" method="ocr" id="FOX_CHILLINTALES_T17_012_line_67">gal</metadata>
    </polygon>
    <polygon points="322,243 507,243 507,260 322,260 322,243">
      <metadata confidence="0.0" speechType="" typography="" rank="" method="ocr" id="FOX_CHILLINTALES_T17_012_line_68">AGENCY SENT ME</metadata>
    </polygon>
    <polygon points="456,217 498,217 498,234 456,234 456,217">
      <metadata confidence="0.0" speechType="" typography="" rank="" method="ocr" id="FOX_CHILLINTALES_T17_012_line_69">THE</metadata>
    </polygon>
    <polygon points="327,217 433,217 433,234 327,234 327,217">
      <metadata confidence="0.0" speechType="" typography="" rank="" method="ocr" id="FOX_CHILLINTALES_T17_012_line_70">BLUTRESS</metadata>
    </polygon>
    <polygon points="57,192 248,192 248,244 57,244 57,192">
      <metadata confidence="0.0" speechType="" typography="" rank="" method="ocr" id="FOX_CHILLINTALES_T17_012_line_71">oo vou wrmr Qi</metadata>
    </polygon>
    <polygon points="367,191 487,191 487,208 367,208 367,191">
      <metadata confidence="0.0" speechType="" typography="" rank="" method="ocr" id="FOX_CHILLINTALES_T17_012_line_72">PROFESSOR</metadata>
    </polygon>
    <polygon points="357,165 516,165 516,182 357,182 357,165">
      <metadata confidence="0.0" speechType="" typography="" rank="" method="ocr" id="FOX_CHILLINTALES_T17_012_line_73">I WANT T0 SEE</metadata>
    </polygon>
    <polygon points="49,165 281,165 281,182 49,182 49,165">
      <metadata confidence="0.0" speechType="" typography="" rank="" method="ocr" id="FOX_CHILLINTALES_T17_012_line_74">WHO ARE YOU  WHAT</metadata>
    </polygon>
    <polygon points="41,130 340,130 340,148 41,148 41,130">
      <metadata confidence="0.0" speechType="" typography="" rank="" method="ocr" id="FOX_CHILLINTALES_T17_012_line_75">INTO THE OARKNESS AT ME</metadata>
    </polygon>
    <polygon points="40,103 492,103 492,121 40,121 40,103">
      <metadata confidence="0.0" speechType="" typography="" rank="" method="ocr" id="FOX_CHILLINTALES_T17_012_line_76">ACADAVEROUS OLD MAN WHO PEERED OUT</metadata>
    </polygon>
    <polygon points="64,77 522,77 522,96 64,96 64,77">
      <metadata confidence="0.0" speechType="" typography="" rank="" method="ocr" id="FOX_CHILLINTALES_T17_012_line_77">T LAST YHE DOOR SWUNG OPEN TO REVEAL</metadata>
    </polygon>
    <polygon points="754,360 844,360 844,422 754,422 754,360">
      <metadata confidence="0.0" speechType="" typography="" rank="" method="ocr" id="FOX_CHILLINTALES_T17_012_line_78"> f          VN </metadata>
    </polygon>
    <polygon points="1049,121 1204,121 1204,184 1049,184 1049,121">
      <metadata confidence="0.0" speechType="" typography="" rank="" method="ocr" id="FOX_CHILLINTALES_T17_012_line_79">WII</metadata>
    </polygon>
    <polygon points="738,156 822,156 822,172 738,172 738,156">
      <metadata confidence="0.0" speechType="" typography="" rank="" method="ocr" id="FOX_CHILLINTALES_T17_012_line_80">COME IN</metadata>
    </polygon>
    <polygon points="848,156 938,156 938,172 848,172 848,156">
      <metadata confidence="0.0" speechType="" typography="" rank="" method="ocr" id="FOX_CHILLINTALES_T17_012_line_81">COME IN</metadata>
    </polygon>
    <polygon points="720,130 958,130 958,147 720,147 720,130">
      <metadata confidence="0.0" speechType="" typography="" rank="" method="ocr" id="FOX_CHILLINTALES_T17_012_line_82">PRO FESSOR ELUTRESS</metadata>
    </polygon>
    <polygon points="715,102 958,102 958,120 715,120 715,102">
      <metadata confidence="0.0" speechType="" typography="" rank="" method="ocr" id="FOX_CHILLINTALES_T17_012_line_83">SECRETARY 1 SENT FOR</metadata>
    </polygon>
    <polygon points="812,76 1004,76 1004,93 812,93 812,76">
      <metadata confidence="0.0" speechType="" typography="" rank="" method="ocr" id="FOX_CHILLINTALES_T17_012_line_84">YOU MUST BE THE</metadata>
    </polygon>
    <polygon points="710,77 788,77 788,94 710,94 710,77">
      <metadata confidence="0.0" speechType="" typography="" rank="" method="ocr" id="FOX_CHILLINTALES_T17_012_line_85">0H.YES</metadata>
    </polygon>
  </svg>
</svg>
