<?xml version="1.0" encoding="UTF-8" standalone="no"?>
<svg width="800" xmlns="http://www.w3.org/2000/svg" version="1.0" height="324">
  <title>LAMISSEB_ETPISTAF_021</title>
  <svg contentScriptType="text/ecmascript" zoomAndPan="magnify" contentStyleType="text/css" class="Page" preserveAspectRatio="xMidYMid meet" version="1.0">
    <image xmlns:xlink="http://www.w3.org/1999/xlink" x="0" y="0" width="800" height="324" xlink:href="../Pages/LAMISSEB_ETPISTAF_021.jpg" xlink:type="simple" xlink:actuate="onLoad" preserveAspectRatio="xMidYMid meet" xlink:show="embed"/>
  </svg>
  <style type="text/css" xml:space="preserve">
        * { stroke-width: 0; stroke-linejoin: round; }
        .Unclassified { fill: orange; stroke: none; opacity: 1.0; visibility: hidden; }
        .Noise { fill: pink; stroke: none; opacity: 0.2; visibility: hidden; }
        .Panel { fill: red; stroke: none; opacity: 0.5; visibility: visible; image-rendering: optimizeSpeed; }
        .Line { fill: green; stroke: none; opacity: 0.5; visibility: visible; image-rendering: optimizeSpeed; }
        .TextArea { fill: grey; stroke: none; opacity: 0.2; visibility: visible; image-rendering: optimizeSpeed; }
        .Balloon { fill: cyan; stroke: none; opacity: 0.5; visibility: visible; image-rendering: optimizeSpeed; }
        .Letter { fill: blue; stroke: none; opacity: 0.2; visibility: hidden; }
        .Object { fill: yellow; stroke: none; opacity: 0.2; visibility: visible; image-rendering: optimizeSpeed; }
        .Page { fill: white; stroke: none; opacity: 0.5; visibility: visible; }
</style>
  <svg xmlns="http://www.w3.org/2000/svg" contentScriptType="text/ecmascript" zoomAndPan="magnify" contentStyleType="text/css" class="Line" preserveAspectRatio="xMidYMid meet" version="1.0">
    <polygon points="698,271 741,271 741,284 698,284 698,271">
      <metadata confidence="0.0" speechType="" typography="" rank="" method="ocr" id="LAMISSEB_ETPISTAF_021_line_0">  UM</metadata>
    </polygon>
    <polygon points="44,248 80,248 80,269 44,269 44,248">
      <metadata confidence="0.0" speechType="" typography="" rank="" method="ocr" id="LAMISSEB_ETPISTAF_021_line_1">xx</metadata>
    </polygon>
    <polygon points="164,219 353,219 353,249 164,249 164,219">
      <metadata confidence="0.0" speechType="" typography="" rank="" method="ocr" id="LAMISSEB_ETPISTAF_021_line_2">   7 H    </metadata>
    </polygon>
    <polygon points="213,155 441,155 441,184 213,184 213,155">
      <metadata confidence="0.0" speechType="" typography="" rank="" method="ocr" id="LAMISSEB_ETPISTAF_021_line_3">I VG           w   u  </metadata>
    </polygon>
    <polygon points="153,135 372,135 372,162 153,162 153,135">
      <metadata confidence="0.0" speechType="" typography="" rank="" method="ocr" id="LAMISSEB_ETPISTAF_021_line_4">E51  Il    FK </metadata>
    </polygon>
    <polygon points="650,231 727,231 727,257 650,257 650,231">
      <metadata confidence="0.0" speechType="" typography="" rank="" method="ocr" id="LAMISSEB_ETPISTAF_021_line_5">   .   x        1f</metadata>
    </polygon>
    <polygon points="662,216 705,216 705,229 662,229 662,216">
      <metadata confidence="0.0" speechType="" typography="" rank="" method="ocr" id="LAMISSEB_ETPISTAF_021_line_6">nmm</metadata>
    </polygon>
    <polygon points="655,194 720,194 720,208 655,208 655,194">
      <metadata confidence="0.0" speechType="" typography="" rank="" method="ocr" id="LAMISSEB_ETPISTAF_021_line_7">WVISIBLE</metadata>
    </polygon>
    <polygon points="656,177 723,177 723,190 656,190 656,177">
      <metadata confidence="0.0" speechType="" typography="" rank="" method="ocr" id="LAMISSEB_ETPISTAF_021_line_8">WOMME</metadata>
    </polygon>
    <polygon points="674,154 705,154 705,169 674,169 674,154">
      <metadata confidence="0.0" speechType="" typography="" rank="" method="ocr" id="LAMISSEB_ETPISTAF_021_line_9"> . gif</metadata>
    </polygon>
    <polygon points="141,192 187,192 187,203 141,203 141,192">
      <metadata confidence="0.0" speechType="" typography="" rank="" method="ocr" id="LAMISSEB_ETPISTAF_021_line_10"> AQ</metadata>
    </polygon>
    <polygon points="256,180 363,180 363,199 256,199 256,180">
      <metadata confidence="0.0" speechType="" typography="" rank="" method="ocr" id="LAMISSEB_ETPISTAF_021_line_11">L  g f Yw</metadata>
    </polygon>
    <polygon points="585,22 662,22 662,34 585,34 585,22">
      <metadata confidence="0.0" speechType="" typography="" rank="" method="ocr" id="LAMISSEB_ETPISTAF_021_line_12">JM EN vEIA  </metadata>
    </polygon>
    <polygon points="477,184 528,184 528,201 477,201 477,184">
      <metadata confidence="0.0" speechType="" typography="" rank="" method="ocr" id="LAMISSEB_ETPISTAF_021_line_13">LQIV </metadata>
    </polygon>
    <polygon points="462,146 527,146 527,172 462,172 462,146">
      <metadata confidence="0.0" speechType="" typography="" rank="" method="ocr" id="LAMISSEB_ETPISTAF_021_line_14">Qi</metadata>
    </polygon>
    <polygon points="73,37 277,37 277,56 73,56 73,37">
      <metadata confidence="0.0" speechType="" typography="" rank="" method="ocr" id="LAMISSEB_ETPISTAF_021_line_15">K mvazse  W     Uh        x En 1 1</metadata>
    </polygon>
    <polygon points="114,27 237,27 237,40 114,40 114,27">
      <metadata confidence="0.0" speechType="" typography="" rank="" method="ocr" id="LAMISSEB_ETPISTAF_021_line_16">TES PAS cmcu   DE</metadata>
    </polygon>
  </svg>
</svg>
