<?xml version="1.0" encoding="UTF-8" standalone="no"?>
<svg width="2461" xmlns="http://www.w3.org/2000/svg" version="1.0" height="3411">
  <title>LAMISSEB_LESNOEILS1_012</title>
  <svg contentScriptType="text/ecmascript" zoomAndPan="magnify" contentStyleType="text/css" class="Page" preserveAspectRatio="xMidYMid meet" version="1.0">
    <image xmlns:xlink="http://www.w3.org/1999/xlink" x="0" y="0" width="2461" height="3411" xlink:href="../Pages/LAMISSEB_LESNOEILS1_012.jpg" xlink:type="simple" xlink:actuate="onLoad" preserveAspectRatio="xMidYMid meet" xlink:show="embed"/>
  </svg>
  <style type="text/css" xml:space="preserve">
        * { stroke-width: 0; stroke-linejoin: round; }
        .Unclassified { fill: orange; stroke: none; opacity: 1.0; visibility: hidden; }
        .Noise { fill: pink; stroke: none; opacity: 0.2; visibility: hidden; }
        .Panel { fill: red; stroke: none; opacity: 0.5; visibility: visible; image-rendering: optimizeSpeed; }
        .Line { fill: green; stroke: none; opacity: 0.5; visibility: visible; image-rendering: optimizeSpeed; }
        .TextArea { fill: grey; stroke: none; opacity: 0.2; visibility: visible; image-rendering: optimizeSpeed; }
        .Balloon { fill: cyan; stroke: none; opacity: 0.5; visibility: visible; image-rendering: optimizeSpeed; }
        .Letter { fill: blue; stroke: none; opacity: 0.2; visibility: hidden; }
        .Object { fill: yellow; stroke: none; opacity: 0.2; visibility: visible; image-rendering: optimizeSpeed; }
        .Page { fill: white; stroke: none; opacity: 0.5; visibility: visible; }
</style>
  <svg xmlns="http://www.w3.org/2000/svg" contentScriptType="text/ecmascript" zoomAndPan="magnify" contentStyleType="text/css" class="Line" preserveAspectRatio="xMidYMid meet" version="1.0">
    <polygon points="2237,3210 2383,3210 2383,3262 2237,3262 2237,3210">
      <metadata confidence="0.0" speechType="" typography="" rank="" method="ocr" id="LAMISSEB_LESNOEILS1_012_line_0">     . .   l   J  </metadata>
    </polygon>
    <polygon points="438,3010 725,3010 725,3103 438,3103 438,3010">
      <metadata confidence="0.0" speechType="" typography="" rank="" method="ocr" id="LAMISSEB_LESNOEILS1_012_line_1"> RW</metadata>
    </polygon>
    <polygon points="327,2622 827,2622 827,2651 327,2651 327,2622">
      <metadata confidence="0.0" speechType="" typography="" rank="" method="ocr" id="LAMISSEB_LESNOEILS1_012_line_2">CADEAU DE UALAEME EN OPTION</metadata>
    </polygon>
    <polygon points="338,2580 824,2580 824,2610 338,2610 338,2580">
      <metadata confidence="0.0" speechType="" typography="" rank="" method="ocr" id="LAMISSEB_LESNOEILS1_012_line_3">VOITURE. LE VENDEUR MW FAIT</metadata>
    </polygon>
    <polygon points="362,2537 796,2537 796,2567 362,2567 362,2537">
      <metadata confidence="0.0" speechType="" typography="" rank="" method="ocr" id="LAMISSEB_LESNOEILS1_012_line_4">J  AI ACHETE UNE NOUVELLE</metadata>
    </polygon>
    <polygon points="1749,2571 2110,2571 2110,2601 1749,2601 1749,2571">
      <metadata confidence="0.0" speechType="" typography="" rank="" method="ocr" id="LAMISSEB_LESNOEILS1_012_line_5">EU    UALAIZME A UOEIL</metadata>
    </polygon>
    <polygon points="1762,2526 2116,2526 2116,2557 1762,2557 1762,2526">
      <metadata confidence="0.0" speechType="" typography="" rank="" method="ocr" id="LAMISSEB_LESNOEILS1_012_line_6">TU VAS DIRE  UE JAI</metadata>
    </polygon>
    <polygon points="1968,2742 2215,2742 2215,2771 1968,2771 1968,2742">
      <metadata confidence="0.0" speechType="" typography="" rank="" method="ocr" id="LAMISSEB_LESNOEILS1_012_line_7">MES PENSEES</metadata>
    </polygon>
    <polygon points="1991,2697 2197,2697 2197,2727 1991,2727 1991,2697">
      <metadata confidence="0.0" speechType="" typography="" rank="" method="ocr" id="LAMISSEB_LESNOEILS1_012_line_8">TU LIS DANS</metadata>
    </polygon>
    <polygon points="1116,2531 1402,2531 1402,2561 1116,2561 1116,2531">
      <metadata confidence="0.0" speechType="" typography="" rank="" method="ocr" id="LAMISSEB_LESNOEILS1_012_line_9">JE TE VOIS VENIR</metadata>
    </polygon>
    <polygon points="1119,1832 1407,1832 1407,1861 1119,1861 1119,1832">
      <metadata confidence="0.0" speechType="" typography="" rank="" method="ocr" id="LAMISSEB_LESNOEILS1_012_line_10">FAIRE UN PROCES</metadata>
    </polygon>
    <polygon points="1044,1788 1508,1788 1508,1818 1044,1818 1044,1788">
      <metadata confidence="0.0" speechType="" typography="" rank="" method="ocr" id="LAMISSEB_LESNOEILS1_012_line_11">AU VENDEUR  UE TU DEVEAI5</metadata>
    </polygon>
    <polygon points="1071,1746 1484,1746 1484,1776 1071,1776 1071,1746">
      <metadata confidence="0.0" speechType="" typography="" rank="" method="ocr" id="LAMISSEB_LESNOEILS1_012_line_12">JE ME DEMANDE SI CEST</metadata>
    </polygon>
    <polygon points="410,1790 732,1790 732,1820 410,1820 410,1790">
      <metadata confidence="0.0" speechType="" typography="" rank="" method="ocr" id="LAMISSEB_LESNOEILS1_012_line_13">UN BAUME A LEVIZES</metadata>
    </polygon>
    <polygon points="412,1748 735,1748 735,1777 412,1777 412,1748">
      <metadata confidence="0.0" speechType="" typography="" rank="" method="ocr" id="LAMISSEB_LESNOEILS1_012_line_14">JE ME SUIS ACHETE</metadata>
    </polygon>
    <polygon points="514,2092 618,2092 618,2169 514,2169 514,2092">
      <metadata confidence="0.0" speechType="" typography="" rank="" method="ocr" id="LAMISSEB_LESNOEILS1_012_line_15">      Ns    </metadata>
    </polygon>
    <polygon points="1767,1784 2155,1784 2155,1815 1767,1815 1767,1784">
      <metadata confidence="0.0" speechType="" typography="" rank="" method="ocr" id="LAMISSEB_LESNOEILS1_012_line_16">T AVOIF2 MIS AU MONDE 7</metadata>
    </polygon>
    <polygon points="1763,1736 2186,1736 2186,1772 1763,1772 1763,1736">
      <metadata confidence="0.0" speechType="" typography="" rank="" method="ocr" id="LAMISSEB_LESNOEILS1_012_line_17">OU    TES PARENTS. POUR</metadata>
    </polygon>
    <polygon points="1918,1220 2132,1220 2132,1284 1918,1284 1918,1220">
      <metadata confidence="0.0" speechType="" typography="" rank="" method="ocr" id="LAMISSEB_LESNOEILS1_012_line_18">dw    l  </metadata>
    </polygon>
    <polygon points="1741,1129 2022,1129 2022,1244 1741,1244 1741,1129">
      <metadata confidence="0.0" speechType="" typography="" rank="" method="ocr" id="LAMISSEB_LESNOEILS1_012_line_19">QA</metadata>
    </polygon>
    <polygon points="490,966 616,966 616,995 490,995 490,966">
      <metadata confidence="0.0" speechType="" typography="" rank="" method="ocr" id="LAMISSEB_LESNOEILS1_012_line_20">DIS MOI</metadata>
    </polygon>
    <polygon points="1042,998 1532,998 1532,1030 1042,1030 1042,998">
      <metadata confidence="0.0" speechType="" typography="" rank="" method="ocr" id="LAMISSEB_LESNOEILS1_012_line_21">TU PORTES DES LENTILLES 7</metadata>
    </polygon>
    <polygon points="1053,959 1546,959 1546,987 1053,987 1053,959">
      <metadata confidence="0.0" speechType="" typography="" rank="" method="ocr" id="LAMISSEB_LESNOEILS1_012_line_22">TU VOIS PLUS CLAIR DEPUIS QUE</metadata>
    </polygon>
    <polygon points="1155,619 1254,619 1254,666 1155,666 1155,619">
      <metadata confidence="0.0" speechType="" typography="" rank="" method="ocr" id="LAMISSEB_LESNOEILS1_012_line_23">Do </metadata>
    </polygon>
    <polygon points="450,591 712,591 712,684 450,684 450,591">
      <metadata confidence="0.0" speechType="" typography="" rank="" method="ocr" id="LAMISSEB_LESNOEILS1_012_line_24"> v   I.</metadata>
    </polygon>
    <polygon points="408,214 719,214 719,244 408,244 408,214">
      <metadata confidence="0.0" speechType="" typography="" rank="" method="ocr" id="LAMISSEB_LESNOEILS1_012_line_25">DES CHAUSSURES</metadata>
    </polygon>
    <polygon points="400,169 732,169 732,200 400,200 400,169">
      <metadata confidence="0.0" speechType="" typography="" rank="" method="ocr" id="LAMISSEB_LESNOEILS1_012_line_26">JE ME SUIS ACHETE</metadata>
    </polygon>
    <polygon points="1813,201 2133,201 2133,233 1813,233 1813,201">
      <metadata confidence="0.0" speechType="" typography="" rank="" method="ocr" id="LAMISSEB_LESNOEILS1_012_line_27">ENCORE FAIT AVON </metadata>
    </polygon>
    <polygon points="1879,159 2071,159 2071,189 1879,189 1879,159">
      <metadata confidence="0.0" speechType="" typography="" rank="" method="ocr" id="LAMISSEB_LESNOEILS1_012_line_28">JE ME SUIS</metadata>
    </polygon>
  </svg>
</svg>
