<?xml version="1.0" encoding="UTF-8" standalone="no"?>
<svg width="848" xmlns="http://www.w3.org/2000/svg" version="1.0" height="1200">
  <title>LUBBIN_LESBULLESDULABO_001</title>
  <svg contentScriptType="text/ecmascript" zoomAndPan="magnify" contentStyleType="text/css" class="Page" preserveAspectRatio="xMidYMid meet" version="1.0">
    <image xmlns:xlink="http://www.w3.org/1999/xlink" x="0" y="0" width="848" height="1200" xlink:href="../Pages/LUBBIN_LESBULLESDULABO_001.jpg" xlink:type="simple" xlink:actuate="onLoad" preserveAspectRatio="xMidYMid meet" xlink:show="embed"/>
  </svg>
  <style type="text/css" xml:space="preserve">
        * { stroke-width: 0; stroke-linejoin: round; }
        .Unclassified { fill: orange; stroke: none; opacity: 1.0; visibility: hidden; }
        .Noise { fill: pink; stroke: none; opacity: 0.2; visibility: hidden; }
        .Panel { fill: red; stroke: none; opacity: 0.5; visibility: visible; image-rendering: optimizeSpeed; }
        .Line { fill: green; stroke: none; opacity: 0.5; visibility: visible; image-rendering: optimizeSpeed; }
        .TextArea { fill: grey; stroke: none; opacity: 0.2; visibility: visible; image-rendering: optimizeSpeed; }
        .Balloon { fill: cyan; stroke: none; opacity: 0.5; visibility: visible; image-rendering: optimizeSpeed; }
        .Letter { fill: blue; stroke: none; opacity: 0.2; visibility: hidden; }
        .Object { fill: yellow; stroke: none; opacity: 0.2; visibility: visible; image-rendering: optimizeSpeed; }
        .Page { fill: white; stroke: none; opacity: 0.5; visibility: visible; }
</style>
  <svg xmlns="http://www.w3.org/2000/svg" contentScriptType="text/ecmascript" zoomAndPan="magnify" contentStyleType="text/css" class="Line" preserveAspectRatio="xMidYMid meet" version="1.0">
    <polygon points="615,1151 813,1151 813,1164 615,1164 615,1151">
      <metadata confidence="0.0" speechType="" typography="" rank="" method="ocr" id="LUBBIN_LESBULLESDULABO_001_line_0">       z      J  I      A     u  w  u            zmv  </metadata>
    </polygon>
    <polygon points="640,1145 814,1145 814,1154 640,1154 640,1145">
      <metadata confidence="0.0" speechType="" typography="" rank="" method="ocr" id="LUBBIN_LESBULLESDULABO_001_line_1"> EN LQNNW W am   m m</metadata>
    </polygon>
    <polygon points="547,946 581,946 581,955 547,955 547,946">
      <metadata confidence="0.0" speechType="" typography="" rank="" method="ocr" id="LUBBIN_LESBULLESDULABO_001_line_2">mw</metadata>
    </polygon>
    <polygon points="706,963 788,963 788,978 706,978 706,963">
      <metadata confidence="0.0" speechType="" typography="" rank="" method="ocr" id="LUBBIN_LESBULLESDULABO_001_line_3">JE WN ww </metadata>
    </polygon>
    <polygon points="690,953 774,953 774,968 690,968 690,953">
      <metadata confidence="0.0" speechType="" typography="" rank="" method="ocr" id="LUBBIN_LESBULLESDULABO_001_line_4">gg uE    N  E      </metadata>
    </polygon>
    <polygon points="697,940 743,940 743,948 697,948 697,940">
      <metadata confidence="0.0" speechType="" typography="" rank="" method="ocr" id="LUBBIN_LESBULLESDULABO_001_line_5">A mm</metadata>
    </polygon>
    <polygon points="775,939 813,939 813,948 775,948 775,939">
      <metadata confidence="0.0" speechType="" typography="" rank="" method="ocr" id="LUBBIN_LESBULLESDULABO_001_line_6">R  uw</metadata>
    </polygon>
    <polygon points="717,930 765,930 765,939 717,939 717,930">
      <metadata confidence="0.0" speechType="" typography="" rank="" method="ocr" id="LUBBIN_LESBULLESDULABO_001_line_7"> E Seau</metadata>
    </polygon>
    <polygon points="599,896 663,896 663,906 599,906 599,896">
      <metadata confidence="0.0" speechType="" typography="" rank="" method="ocr" id="LUBBIN_LESBULLESDULABO_001_line_8"> 5 WW 7</metadata>
    </polygon>
    <polygon points="588,878 667,878 667,897 588,897 588,878">
      <metadata confidence="0.0" speechType="" typography="" rank="" method="ocr" id="LUBBIN_LESBULLESDULABO_001_line_9">vous  wa vWwe M L </metadata>
    </polygon>
    <polygon points="640,876 676,876 676,886 640,886 640,876">
      <metadata confidence="0.0" speechType="" typography="" rank="" method="ocr" id="LUBBIN_LESBULLESDULABO_001_line_10">Ez W</metadata>
    </polygon>
    <polygon points="591,877 623,877 623,886 591,886 591,877">
      <metadata confidence="0.0" speechType="" typography="" rank="" method="ocr" id="LUBBIN_LESBULLESDULABO_001_line_11">vous</metadata>
    </polygon>
    <polygon points="554,868 588,868 588,878 554,878 554,868">
      <metadata confidence="0.0" speechType="" typography="" rank="" method="ocr" id="LUBBIN_LESBULLESDULABO_001_line_12">A    uw</metadata>
    </polygon>
    <polygon points="435,858 531,858 531,873 435,873 435,858">
      <metadata confidence="0.0" speechType="" typography="" rank="" method="ocr" id="LUBBIN_LESBULLESDULABO_001_line_13">nf </metadata>
    </polygon>
    <polygon points="140,804 206,804 206,825 140,825 140,804">
      <metadata confidence="0.0" speechType="" typography="" rank="" method="ocr" id="LUBBIN_LESBULLESDULABO_001_line_14">f      2</metadata>
    </polygon>
    <polygon points="234,652 303,652 303,663 234,663 234,652">
      <metadata confidence="0.0" speechType="" typography="" rank="" method="ocr" id="LUBBIN_LESBULLESDULABO_001_line_15">mm.   aN</metadata>
    </polygon>
    <polygon points="151,644 213,644 213,656 151,656 151,644">
      <metadata confidence="0.0" speechType="" typography="" rank="" method="ocr" id="LUBBIN_LESBULLESDULABO_001_line_16"> .m    m</metadata>
    </polygon>
    <polygon points="237,633 299,633 299,651 237,651 237,633">
      <metadata confidence="0.0" speechType="" typography="" rank="" method="ocr" id="LUBBIN_LESBULLESDULABO_001_line_17">      nm ww    m    a</metadata>
    </polygon>
    <polygon points="167,634 196,634 196,645 167,645 167,634">
      <metadata confidence="0.0" speechType="" typography="" rank="" method="ocr" id="LUBBIN_LESBULLESDULABO_001_line_18">mk</metadata>
    </polygon>
    <polygon points="168,626 205,626 205,636 168,636 168,626">
      <metadata confidence="0.0" speechType="" typography="" rank="" method="ocr" id="LUBBIN_LESBULLESDULABO_001_line_19"> Mv</metadata>
    </polygon>
    <polygon points="239,623 284,623 284,632 239,632 239,623">
      <metadata confidence="0.0" speechType="" typography="" rank="" method="ocr" id="LUBBIN_LESBULLESDULABO_001_line_20">EME</metadata>
    </polygon>
    <polygon points="244,736 296,736 296,762 244,762 244,736">
      <metadata confidence="0.0" speechType="" typography="" rank="" method="ocr" id="LUBBIN_LESBULLESDULABO_001_line_21">guns  I</metadata>
    </polygon>
    <polygon points="253,761 285,761 285,770 253,770 253,761">
      <metadata confidence="0.0" speechType="" typography="" rank="" method="ocr" id="LUBBIN_LESBULLESDULABO_001_line_22">um </metadata>
    </polygon>
    <polygon points="772,750 799,750 799,759 772,759 772,750">
      <metadata confidence="0.0" speechType="" typography="" rank="" method="ocr" id="LUBBIN_LESBULLESDULABO_001_line_23">.we</metadata>
    </polygon>
    <polygon points="728,740 760,740 760,766 728,766 728,740">
      <metadata confidence="0.0" speechType="" typography="" rank="" method="ocr" id="LUBBIN_LESBULLESDULABO_001_line_24">IT  </metadata>
    </polygon>
    <polygon points="752,700 802,700 802,713 752,713 752,700">
      <metadata confidence="0.0" speechType="" typography="" rank="" method="ocr" id="LUBBIN_LESBULLESDULABO_001_line_25">i l l Z Z</metadata>
    </polygon>
    <polygon points="552,677 592,677 592,685 552,685 552,677">
      <metadata confidence="0.0" speechType="" typography="" rank="" method="ocr" id="LUBBIN_LESBULLESDULABO_001_line_26">  . v</metadata>
    </polygon>
    <polygon points="134,616 202,616 202,627 134,627 134,616">
      <metadata confidence="0.0" speechType="" typography="" rank="" method="ocr" id="LUBBIN_LESBULLESDULABO_001_line_27">ww  W</metadata>
    </polygon>
    <polygon points="566,404 625,404 625,415 566,415 566,404">
      <metadata confidence="0.0" speechType="" typography="" rank="" method="ocr" id="LUBBIN_LESBULLESDULABO_001_line_28">  s   mN</metadata>
    </polygon>
    <polygon points="566,390 621,390 621,402 566,402 566,390">
      <metadata confidence="0.0" speechType="" typography="" rank="" method="ocr" id="LUBBIN_LESBULLESDULABO_001_line_29">ls  ami  </metadata>
    </polygon>
    <polygon points="539,382 631,382 631,392 539,392 539,382">
      <metadata confidence="0.0" speechType="" typography="" rank="" method="ocr" id="LUBBIN_LESBULLESDULABO_001_line_30">au  L v A   gum</metadata>
    </polygon>
    <polygon points="566,373 620,373 620,383 566,383 566,373">
      <metadata confidence="0.0" speechType="" typography="" rank="" method="ocr" id="LUBBIN_LESBULLESDULABO_001_line_31">wmv </metadata>
    </polygon>
    <polygon points="289,325 343,325 343,335 289,335 289,325">
      <metadata confidence="0.0" speechType="" typography="" rank="" method="ocr" id="LUBBIN_LESBULLESDULABO_001_line_32">meu </metadata>
    </polygon>
    <polygon points="277,316 338,316 338,325 277,325 277,316">
      <metadata confidence="0.0" speechType="" typography="" rank="" method="ocr" id="LUBBIN_LESBULLESDULABO_001_line_33">Mmmzf</metadata>
    </polygon>
    <polygon points="302,306 331,306 331,315 302,315 302,306">
      <metadata confidence="0.0" speechType="" typography="" rank="" method="ocr" id="LUBBIN_LESBULLESDULABO_001_line_34"> aus</metadata>
    </polygon>
    <polygon points="257,294 341,294 341,307 257,307 257,294">
      <metadata confidence="0.0" speechType="" typography="" rank="" method="ocr" id="LUBBIN_LESBULLESDULABO_001_line_35"> u A  WQW  </metadata>
    </polygon>
    <polygon points="222,272 270,272 270,287 222,287 222,272">
      <metadata confidence="0.0" speechType="" typography="" rank="" method="ocr" id="LUBBIN_LESBULLESDULABO_001_line_36">HA 77</metadata>
    </polygon>
    <polygon points="269,238 345,238 345,251 269,251 269,238">
      <metadata confidence="0.0" speechType="" typography="" rank="" method="ocr" id="LUBBIN_LESBULLESDULABO_001_line_37"> JA        z</metadata>
    </polygon>
    <polygon points="296,232 334,232 334,241 296,241 296,232">
      <metadata confidence="0.0" speechType="" typography="" rank="" method="ocr" id="LUBBIN_LESBULLESDULABO_001_line_38">wav</metadata>
    </polygon>
    <polygon points="290,223 323,223 323,232 290,232 290,223">
      <metadata confidence="0.0" speechType="" typography="" rank="" method="ocr" id="LUBBIN_LESBULLESDULABO_001_line_39"> wmv</metadata>
    </polygon>
    <polygon points="288,204 333,204 333,223 288,223 288,204">
      <metadata confidence="0.0" speechType="" typography="" rank="" method="ocr" id="LUBBIN_LESBULLESDULABO_001_line_40">WNER    gm </metadata>
    </polygon>
    <polygon points="572,194 681,194 681,211 572,211 572,194">
      <metadata confidence="0.0" speechType="" typography="" rank="" method="ocr" id="LUBBIN_LESBULLESDULABO_001_line_41">za C gauL          2</metadata>
    </polygon>
    <polygon points="285,193 362,193 362,212 285,212 285,193">
      <metadata confidence="0.0" speechType="" typography="" rank="" method="ocr" id="LUBBIN_LESBULLESDULABO_001_line_42"> E vmWNNER   </metadata>
    </polygon>
    <polygon points="221,198 256,198 256,209 221,209 221,198">
      <metadata confidence="0.0" speechType="" typography="" rank="" method="ocr" id="LUBBIN_LESBULLESDULABO_001_line_43">mm</metadata>
    </polygon>
    <polygon points="700,197 776,197 776,208 700,208 700,197">
      <metadata confidence="0.0" speechType="" typography="" rank="" method="ocr" id="LUBBIN_LESBULLESDULABO_001_line_44"> A w  uww</metadata>
    </polygon>
    <polygon points="700,189 810,189 810,198 700,198 700,189">
      <metadata confidence="0.0" speechType="" typography="" rank="" method="ocr" id="LUBBIN_LESBULLESDULABO_001_line_45"> Wm     Ng ww </metadata>
    </polygon>
    <polygon points="609,185 679,185 679,194 609,194 609,185">
      <metadata confidence="0.0" speechType="" typography="" rank="" method="ocr" id="LUBBIN_LESBULLESDULABO_001_line_46">VA MNG  R</metadata>
    </polygon>
    <polygon points="561,185 597,185 597,194 561,194 561,185">
      <metadata confidence="0.0" speechType="" typography="" rank="" method="ocr" id="LUBBIN_LESBULLESDULABO_001_line_47">au  1</metadata>
    </polygon>
    <polygon points="381,183 531,183 531,197 381,197 381,183">
      <metadata confidence="0.0" speechType="" typography="" rank="" method="ocr" id="LUBBIN_LESBULLESDULABO_001_line_48">  A VA  WE MN  Yumi</metadata>
    </polygon>
    <polygon points="758,180 825,180 825,189 758,189 758,180">
      <metadata confidence="0.0" speechType="" typography="" rank="" method="ocr" id="LUBBIN_LESBULLESDULABO_001_line_49">me LLEMKER</metadata>
    </polygon>
    <polygon points="700,173 739,173 739,188 700,188 700,173">
      <metadata confidence="0.0" speechType="" typography="" rank="" method="ocr" id="LUBBIN_LESBULLESDULABO_001_line_50">  D  E</metadata>
    </polygon>
    <polygon points="127,170 269,170 269,200 127,200 127,170">
      <metadata confidence="0.0" speechType="" typography="" rank="" method="ocr" id="LUBBIN_LESBULLESDULABO_001_line_51">a nmm La au   WM m wow Mm Ca</metadata>
    </polygon>
    <polygon points="565,169 677,169 677,185 565,185 565,169">
      <metadata confidence="0.0" speechType="" typography="" rank="" method="ocr" id="LUBBIN_LESBULLESDULABO_001_line_52">fa  aux</metadata>
    </polygon>
    <polygon points="700,160 784,160 784,178 700,178 700,160">
      <metadata confidence="0.0" speechType="" typography="" rank="" method="ocr" id="LUBBIN_LESBULLESDULABO_001_line_53">E1 MN uw VEMe   am ww</metadata>
    </polygon>
    <polygon points="433,166 462,166 462,175 433,175 433,166">
      <metadata confidence="0.0" speechType="" typography="" rank="" method="ocr" id="LUBBIN_LESBULLESDULABO_001_line_54">En</metadata>
    </polygon>
    <polygon points="391,165 420,165 420,175 391,175 391,165">
      <metadata confidence="0.0" speechType="" typography="" rank="" method="ocr" id="LUBBIN_LESBULLESDULABO_001_line_55">Am</metadata>
    </polygon>
    <polygon points="480,163 531,163 531,176 480,176 480,163">
      <metadata confidence="0.0" speechType="" typography="" rank="" method="ocr" id="LUBBIN_LESBULLESDULABO_001_line_56"> wma</metadata>
    </polygon>
    <polygon points="141,161 164,161 164,170 141,170 141,161">
      <metadata confidence="0.0" speechType="" typography="" rank="" method="ocr" id="LUBBIN_LESBULLESDULABO_001_line_57">nav</metadata>
    </polygon>
    <polygon points="693,155 800,155 800,171 693,171 693,155">
      <metadata confidence="0.0" speechType="" typography="" rank="" method="ocr" id="LUBBIN_LESBULLESDULABO_001_line_58"> 1 a   N      N yz     </metadata>
    </polygon>
    <polygon points="769,122 818,122 818,139 769,139 769,122">
      <metadata confidence="0.0" speechType="" typography="" rank="" method="ocr" id="LUBBIN_LESBULLESDULABO_001_line_59">Stock</metadata>
    </polygon>
    <polygon points="753,53 788,53 788,69 753,69 753,53">
      <metadata confidence="0.0" speechType="" typography="" rank="" method="ocr" id="LUBBIN_LESBULLESDULABO_001_line_60">Doc</metadata>
    </polygon>
  </svg>
</svg>
