<?xml version="1.0" encoding="UTF-8" standalone="no"?>
<svg width="1468" xmlns="http://www.w3.org/2000/svg" version="1.0" height="2220">
  <title>PIKE_BOYLOVEGIRLS_T41_015</title>
  <svg contentScriptType="text/ecmascript" zoomAndPan="magnify" contentStyleType="text/css" class="Page" preserveAspectRatio="xMidYMid meet" version="1.0">
    <image xmlns:xlink="http://www.w3.org/1999/xlink" x="0" y="0" width="1468" height="2220" xlink:href="../Pages/PIKE_BOYLOVEGIRLS_T41_015.jpg" xlink:type="simple" xlink:actuate="onLoad" preserveAspectRatio="xMidYMid meet" xlink:show="embed"/>
  </svg>
  <style type="text/css" xml:space="preserve">
        * { stroke-width: 0; stroke-linejoin: round; }
        .Unclassified { fill: orange; stroke: none; opacity: 1.0; visibility: hidden; }
        .Noise { fill: pink; stroke: none; opacity: 0.2; visibility: hidden; }
        .Panel { fill: red; stroke: none; opacity: 0.5; visibility: visible; image-rendering: optimizeSpeed; }
        .Line { fill: green; stroke: none; opacity: 0.5; visibility: visible; image-rendering: optimizeSpeed; }
        .TextArea { fill: grey; stroke: none; opacity: 0.2; visibility: visible; image-rendering: optimizeSpeed; }
        .Balloon { fill: cyan; stroke: none; opacity: 0.5; visibility: visible; image-rendering: optimizeSpeed; }
        .Letter { fill: blue; stroke: none; opacity: 0.2; visibility: hidden; }
        .Object { fill: yellow; stroke: none; opacity: 0.2; visibility: visible; image-rendering: optimizeSpeed; }
        .Page { fill: white; stroke: none; opacity: 0.5; visibility: visible; }
</style>
  <svg xmlns="http://www.w3.org/2000/svg" contentScriptType="text/ecmascript" zoomAndPan="magnify" contentStyleType="text/css" class="Line" preserveAspectRatio="xMidYMid meet" version="1.0">
    <polygon points="242,2065 285,2065 285,2084 242,2084 242,2065">
      <metadata confidence="0.0" speechType="" typography="" rank="" method="ocr" id="PIKE_BOYLOVEGIRLS_T41_015_line_0">7.11</metadata>
    </polygon>
    <polygon points="1292,2038 1415,2038 1415,2077 1292,2077 1292,2038">
      <metadata confidence="0.0" speechType="" typography="" rank="" method="ocr" id="PIKE_BOYLOVEGIRLS_T41_015_line_1">7 ww</metadata>
    </polygon>
    <polygon points="45,1935 159,1935 159,1984 45,1984 45,1935">
      <metadata confidence="0.0" speechType="" typography="" rank="" method="ocr" id="PIKE_BOYLOVEGIRLS_T41_015_line_2">Fi  il</metadata>
    </polygon>
    <polygon points="45,1895 105,1895 105,1917 45,1917 45,1895">
      <metadata confidence="0.0" speechType="" typography="" rank="" method="ocr" id="PIKE_BOYLOVEGIRLS_T41_015_line_3">E1</metadata>
    </polygon>
    <polygon points="55,1723 98,1723 98,1741 55,1741 55,1723">
      <metadata confidence="0.0" speechType="" typography="" rank="" method="ocr" id="PIKE_BOYLOVEGIRLS_T41_015_line_4">   za</metadata>
    </polygon>
    <polygon points="650,1653 753,1653 753,1677 650,1677 650,1653">
      <metadata confidence="0.0" speechType="" typography="" rank="" method="ocr" id="PIKE_BOYLOVEGIRLS_T41_015_line_5">  ON I  </metadata>
    </polygon>
    <polygon points="658,1634 699,1634 699,1653 658,1653 658,1634">
      <metadata confidence="0.0" speechType="" typography="" rank="" method="ocr" id="PIKE_BOYLOVEGIRLS_T41_015_line_6">BIL</metadata>
    </polygon>
    <polygon points="638,1609 737,1609 737,1629 638,1629 638,1609">
      <metadata confidence="0.0" speechType="" typography="" rank="" method="ocr" id="PIKE_BOYLOVEGIRLS_T41_015_line_7">PLEASE</metadata>
    </polygon>
    <polygon points="823,1575 1426,1575 1426,1641 823,1641 823,1575">
      <metadata confidence="0.0" speechType="" typography="" rank="" method="ocr" id="PIKE_BOYLOVEGIRLS_T41_015_line_8">0ON T COME  CURTI HDLD II YOUBE ANGF  X IT 5 NOTGOOD TV  Ol AS LONG</metadata>
    </polygon>
    <polygon points="632,1587 735,1587 735,1605 632,1605 632,1587">
      <metadata confidence="0.0" speechType="" typography="" rank="" method="ocr" id="PIKE_BOYLOVEGIRLS_T41_015_line_9">PLEASE</metadata>
    </polygon>
    <polygon points="1231,1829 1354,1829 1354,1849 1231,1849 1231,1829">
      <metadata confidence="0.0" speechType="" typography="" rank="" method="ocr" id="PIKE_BOYLOVEGIRLS_T41_015_line_10">ANYWAY </metadata>
    </polygon>
    <polygon points="1202,1807 1370,1807 1370,1827 1202,1827 1202,1807">
      <metadata confidence="0.0" speechType="" typography="" rank="" method="ocr" id="PIKE_BOYLOVEGIRLS_T41_015_line_11">SICK  OF Xl </metadata>
    </polygon>
    <polygon points="1216,1783 1394,1783 1394,1802 1216,1802 1216,1783">
      <metadata confidence="0.0" speechType="" typography="" rank="" method="ocr" id="PIKE_BOYLOVEGIRLS_T41_015_line_12">WAS GETTING</metadata>
    </polygon>
    <polygon points="1138,1760 1414,1760 1414,1779 1138,1779 1138,1760">
      <metadata confidence="0.0" speechType="" typography="" rank="" method="ocr" id="PIKE_BOYLOVEGIRLS_T41_015_line_13">LOT OPPHONIE5  AND</metadata>
    </polygon>
    <polygon points="1253,1737 1420,1737 1420,1757 1253,1757 1253,1737">
      <metadata confidence="0.0" speechType="" typography="" rank="" method="ocr" id="PIKE_BOYLOVEGIRLS_T41_015_line_14">YGIJ  E ALL A</metadata>
    </polygon>
    <polygon points="1149,1738 1230,1738 1230,1756 1149,1756 1149,1738">
      <metadata confidence="0.0" speechType="" typography="" rank="" method="ocr" id="PIKE_BOYLOVEGIRLS_T41_015_line_15">CHES1 </metadata>
    </polygon>
    <polygon points="1181,1714 1389,1714 1389,1733 1181,1733 1181,1714">
      <metadata confidence="0.0" speechType="" typography="" rank="" method="ocr" id="PIKE_BOYLOVEGIRLS_T41_015_line_16">THINGS CFF MY</metadata>
    </polygon>
    <polygon points="1167,1690 1420,1690 1420,1710 1167,1710 1167,1690">
      <metadata confidence="0.0" speechType="" typography="" rank="" method="ocr" id="PIKE_BOYLOVEGIRLS_T41_015_line_17">A5 WELL GET A FEW</metadata>
    </polygon>
    <polygon points="1184,1667 1405,1667 1405,1688 1184,1688 1184,1667">
      <metadata confidence="0.0" speechType="" typography="" rank="" method="ocr" id="PIKE_BOYLOVEGIRLS_T41_015_line_18">CANNED  l MIGHT</metadata>
    </polygon>
    <polygon points="1208,1644 1391,1644 1391,1663 1208,1663 1208,1644">
      <metadata confidence="0.0" speechType="" typography="" rank="" method="ocr" id="PIKE_BOYLOVEGIRLS_T41_015_line_19">P6 l N  BEING</metadata>
    </polygon>
    <polygon points="1025,1714 1091,1714 1091,1732 1025,1732 1025,1714">
      <metadata confidence="0.0" speechType="" typography="" rank="" method="ocr" id="PIKE_BOYLOVEGIRLS_T41_015_line_20">HELP</metadata>
    </polygon>
    <polygon points="983,1690 1126,1690 1126,1710 983,1710 983,1690">
      <metadata confidence="0.0" speechType="" typography="" rank="" method="ocr" id="PIKE_BOYLOVEGIRLS_T41_015_line_21">THE HIRED</metadata>
    </polygon>
    <polygon points="972,1668 1133,1668 1133,1688 972,1688 972,1668">
      <metadata confidence="0.0" speechType="" typography="" rank="" method="ocr" id="PIKE_BOYLOVEGIRLS_T41_015_line_22">AQGIJE WITH</metadata>
    </polygon>
    <polygon points="1000,1645 1126,1645 1126,1664 1000,1664 1000,1645">
      <metadata confidence="0.0" speechType="" typography="" rank="" method="ocr" id="PIKE_BOYLOVEGIRLS_T41_015_line_23">TA  TE  FU</metadata>
    </polygon>
    <polygon points="828,1644 917,1644 917,1663 828,1663 828,1644">
      <metadata confidence="0.0" speechType="" typography="" rank="" method="ocr" id="PIKE_BOYLOVEGIRLS_T41_015_line_24">GLOFZIA</metadata>
    </polygon>
    <polygon points="638,1564 713,1564 713,1581 638,1581 638,1564">
      <metadata confidence="0.0" speechType="" typography="" rank="" method="ocr" id="PIKE_BOYLOVEGIRLS_T41_015_line_25">WAIT</metadata>
    </polygon>
    <polygon points="47,1549 578,1549 578,1583 47,1583 47,1549">
      <metadata confidence="0.0" speechType="" typography="" rank="" method="ocr" id="PIKE_BOYLOVEGIRLS_T41_015_line_26">7OU DON T NEED TO Q I SUPPOSE YOU</metadata>
    </polygon>
    <polygon points="63,1630 319,1630 319,1650 63,1650 63,1630">
      <metadata confidence="0.0" speechType="" typography="" rank="" method="ocr" id="PIKE_BOYLOVEGIRLS_T41_015_line_27">HEC  BEING NASTY </metadata>
    </polygon>
    <polygon points="127,1608 290,1608 290,1627 127,1627 127,1608">
      <metadata confidence="0.0" speechType="" typography="" rank="" method="ocr" id="PIKE_BOYLOVEGIRLS_T41_015_line_28">R CAN T YOU</metadata>
    </polygon>
    <polygon points="59,1584 319,1584 319,1605 59,1605 59,1584">
      <metadata confidence="0.0" speechType="" typography="" rank="" method="ocr" id="PIKE_BOYLOVEGIRLS_T41_015_line_29">BE SG NA  TY ABOUT</metadata>
    </polygon>
    <polygon points="391,1656 525,1656 525,1675 391,1675 391,1656">
      <metadata confidence="0.0" speechType="" typography="" rank="" method="ocr" id="PIKE_BOYLOVEGIRLS_T41_015_line_30">OF  A JOB</metadata>
    </polygon>
    <polygon points="367,1633 563,1633 563,1652 367,1652 367,1633">
      <metadata confidence="0.0" speechType="" typography="" rank="" method="ocr" id="PIKE_BOYLOVEGIRLS_T41_015_line_31">  OUR E LF OUT</metadata>
    </polygon>
    <polygon points="378,1610 558,1610 558,1630 378,1630 378,1610">
      <metadata confidence="0.0" speechType="" typography="" rank="" method="ocr" id="PIKE_BOYLOVEGIRLS_T41_015_line_32"> JUST TALKED</metadata>
    </polygon>
    <polygon points="371,1585 581,1585 581,1606 371,1606 371,1585">
      <metadata confidence="0.0" speechType="" typography="" rank="" method="ocr" id="PIKE_BOYLOVEGIRLS_T41_015_line_33">REALIZE Y  U VE</metadata>
    </polygon>
    <polygon points="84,1517 183,1517 183,1536 84,1536 84,1517">
      <metadata confidence="0.0" speechType="" typography="" rank="" method="ocr" id="PIKE_BOYLOVEGIRLS_T41_015_line_34">HAPPENEDI</metadata>
    </polygon>
    <polygon points="83,1495 735,1495 735,1518 83,1518 83,1495">
      <metadata confidence="0.0" speechType="" typography="" rank="" method="ocr" id="PIKE_BOYLOVEGIRLS_T41_015_line_35"> l H   K. I WANTED TO CALII   MEV DOWN BEFORE SDNETHJNG TERRIBLE</metadata>
    </polygon>
    <polygon points="83,1473 737,1473 737,1496 83,1496 83,1473">
      <metadata confidence="0.0" speechType="" typography="" rank="" method="ocr" id="PIKE_BOYLOVEGIRLS_T41_015_line_36">  TILL  ARN FRODI BlLL   EVBRACE  I IAS CONFUSED AND UHABLE TO</metadata>
    </polygon>
    <polygon points="840,1546 1248,1546 1248,1565 840,1565 840,1546">
      <metadata confidence="0.0" speechType="" typography="" rank="" method="ocr" id="PIKE_BOYLOVEGIRLS_T41_015_line_37">HER DONN I D DN T EXPECT BlLL   REACTION </metadata>
    </polygon>
    <polygon points="1186,1526 1399,1526 1399,1543 1186,1543 1186,1526">
      <metadata confidence="0.0" speechType="" typography="" rank="" method="ocr" id="PIKE_BOYLOVEGIRLS_T41_015_line_38">AND I MMTED T0 CALA </metadata>
    </polygon>
    <polygon points="840,1523 1158,1523 1158,1542 840,1542 840,1523">
      <metadata confidence="0.0" speechType="" typography="" rank="" method="ocr" id="PIKE_BOYLOVEGIRLS_T41_015_line_39">IAS SO AFRAID BILL IOULD LEAVE</metadata>
    </polygon>
    <polygon points="841,1501 1392,1501 1392,1520 841,1520 841,1501">
      <metadata confidence="0.0" speechType="" typography="" rank="" method="ocr" id="PIKE_BOYLOVEGIRLS_T41_015_line_40">I SHOULD HAVE SPOKEN UP AGAINST GLURIA A1 ONCE. BUT I</metadata>
    </polygon>
    <polygon points="679,810 792,810 792,826 679,826 679,810">
      <metadata confidence="0.0" speechType="" typography="" rank="" method="ocr" id="PIKE_BOYLOVEGIRLS_T41_015_line_41">BITING LAUG</metadata>
    </polygon>
    <polygon points="142,802 277,802 277,841 142,841 142,802">
      <metadata confidence="0.0" speechType="" typography="" rank="" method="ocr" id="PIKE_BOYLOVEGIRLS_T41_015_line_42">F   l</metadata>
    </polygon>
    <polygon points="898,1289 974,1289 974,1327 898,1327 898,1289">
      <metadata confidence="0.0" speechType="" typography="" rank="" method="ocr" id="PIKE_BOYLOVEGIRLS_T41_015_line_43"> 53</metadata>
    </polygon>
    <polygon points="853,1225 980,1225 980,1268 853,1268 853,1225">
      <metadata confidence="0.0" speechType="" typography="" rank="" method="ocr" id="PIKE_BOYLOVEGIRLS_T41_015_line_44">I  l    </metadata>
    </polygon>
    <polygon points="862,1141 969,1141 969,1184 862,1184 862,1141">
      <metadata confidence="0.0" speechType="" typography="" rank="" method="ocr" id="PIKE_BOYLOVEGIRLS_T41_015_line_45"> 53</metadata>
    </polygon>
    <polygon points="611,1119 755,1119 755,1173 611,1173 611,1119">
      <metadata confidence="0.0" speechType="" typography="" rank="" method="ocr" id="PIKE_BOYLOVEGIRLS_T41_015_line_46">rg  fe g</metadata>
    </polygon>
    <polygon points="669,1099 776,1099 776,1132 669,1132 669,1099">
      <metadata confidence="0.0" speechType="" typography="" rank="" method="ocr" id="PIKE_BOYLOVEGIRLS_T41_015_line_47">c .    </metadata>
    </polygon>
    <polygon points="1296,1083 1403,1083 1403,1119 1296,1119 1296,1083">
      <metadata confidence="0.0" speechType="" typography="" rank="" method="ocr" id="PIKE_BOYLOVEGIRLS_T41_015_line_48">  Egf    1</metadata>
    </polygon>
    <polygon points="562,1005 594,1005 594,1021 562,1021 562,1005">
      <metadata confidence="0.0" speechType="" typography="" rank="" method="ocr" id="PIKE_BOYLOVEGIRLS_T41_015_line_49">CM</metadata>
    </polygon>
    <polygon points="760,1033 855,1033 855,1053 760,1053 760,1033">
      <metadata confidence="0.0" speechType="" typography="" rank="" method="ocr" id="PIKE_BOYLOVEGIRLS_T41_015_line_50">  0M NG</metadata>
    </polygon>
    <polygon points="741,1009 877,1009 877,1028 741,1028 741,1009">
      <metadata confidence="0.0" speechType="" typography="" rank="" method="ocr" id="PIKE_BOYLOVEGIRLS_T41_015_line_51">YOU WERE</metadata>
    </polygon>
    <polygon points="725,986 896,986 896,1006 725,1006 725,986">
      <metadata confidence="0.0" speechType="" typography="" rank="" method="ocr" id="PIKE_BOYLOVEGIRLS_T41_015_line_52">DIDN T KNQW</metadata>
    </polygon>
    <polygon points="732,962 837,962 837,983 732,983 732,962">
      <metadata confidence="0.0" speechType="" typography="" rank="" method="ocr" id="PIKE_BOYLOVEGIRLS_T41_015_line_53">CUKTI l</metadata>
    </polygon>
    <polygon points="584,912 771,912 771,934 584,934 584,912">
      <metadata confidence="0.0" speechType="" typography="" rank="" method="ocr" id="PIKE_BOYLOVEGIRLS_T41_015_line_54">IN THE WORLD </metadata>
    </polygon>
    <polygon points="570,892 802,892 802,912 570,912 570,892">
      <metadata confidence="0.0" speechType="" typography="" rank="" method="ocr" id="PIKE_BOYLOVEGIRLS_T41_015_line_55">TD BE MOVING UP</metadata>
    </polygon>
    <polygon points="567,869 799,869 799,889 567,889 567,869">
      <metadata confidence="0.0" speechType="" typography="" rank="" method="ocr" id="PIKE_BOYLOVEGIRLS_T41_015_line_56">GARDEN ER SEEMS</metadata>
    </polygon>
    <polygon points="599,843 762,843 762,866 599,866 599,843">
      <metadata confidence="0.0" speechType="" typography="" rank="" method="ocr" id="PIKE_BOYLOVEGIRLS_T41_015_line_57">WELL  ousz</metadata>
    </polygon>
    <polygon points="978,854 1090,854 1090,875 978,875 978,854">
      <metadata confidence="0.0" speechType="" typography="" rank="" method="ocr" id="PIKE_BOYLOVEGIRLS_T41_015_line_58">OBVICUS</metadata>
    </polygon>
    <polygon points="969,833 1130,833 1130,852 969,852 969,833">
      <metadata confidence="0.0" speechType="" typography="" rank="" method="ocr" id="PIKE_BOYLOVEGIRLS_T41_015_line_59">THAT SEEME</metadata>
    </polygon>
    <polygon points="608,788 1293,788 1293,809 608,809 608,788">
      <metadata confidence="0.0" speechType="" typography="" rank="" method="ocr" id="PIKE_BOYLOVEGIRLS_T41_015_line_60">SUDDENLV  WITHOUT A  ORD OF IARNWG  THE VOOD IAS BROKEN EV A MARS  </metadata>
    </polygon>
    <polygon points="1306,378 1360,378 1360,397 1306,397 1306,378">
      <metadata confidence="0.0" speechType="" typography="" rank="" method="ocr" id="PIKE_BOYLOVEGIRLS_T41_015_line_61">BILL</metadata>
    </polygon>
    <polygon points="1299,356 1352,356 1352,374 1299,374 1299,356">
      <metadata confidence="0.0" speechType="" typography="" rank="" method="ocr" id="PIKE_BOYLOVEGIRLS_T41_015_line_62">Blkl.</metadata>
    </polygon>
    <polygon points="1121,261 1283,261 1283,284 1121,284 1121,261">
      <metadata confidence="0.0" speechType="" typography="" rank="" method="ocr" id="PIKE_BOYLOVEGIRLS_T41_015_line_63">       YTHING  </metadata>
    </polygon>
    <polygon points="1008,263 1095,263 1095,282 1008,282 1008,263">
      <metadata confidence="0.0" speechType="" typography="" rank="" method="ocr" id="PIKE_BOYLOVEGIRLS_T41_015_line_64">TOME</metadata>
    </polygon>
    <polygon points="1082,240 1388,240 1388,260 1082,260 1082,240">
      <metadata confidence="0.0" speechType="" typography="" rank="" method="ocr" id="PIKE_BOYLOVEGIRLS_T41_015_line_65">YOU MEAN EVE  YTHING</metadata>
    </polygon>
    <polygon points="992,240 1059,240 1059,259 992,259 992,240">
      <metadata confidence="0.0" speechType="" typography="" rank="" method="ocr" id="PIKE_BOYLOVEGIRLS_T41_015_line_66">BABY</metadata>
    </polygon>
    <polygon points="334,705 538,705 538,758 334,758 334,705">
      <metadata confidence="0.0" speechType="" typography="" rank="" method="ocr" id="PIKE_BOYLOVEGIRLS_T41_015_line_67">  WWI</metadata>
    </polygon>
    <polygon points="213,668 490,668 490,710 213,710 213,668">
      <metadata confidence="0.0" speechType="" typography="" rank="" method="ocr" id="PIKE_BOYLOVEGIRLS_T41_015_line_68">       v    v  E  </metadata>
    </polygon>
    <polygon points="369,379 449,379 449,400 369,400 369,379">
      <metadata confidence="0.0" speechType="" typography="" rank="" method="ocr" id="PIKE_BOYLOVEGIRLS_T41_015_line_69">5w  v  5</metadata>
    </polygon>
    <polygon points="362,358 459,358 459,377 362,377 362,358">
      <metadata confidence="0.0" speechType="" typography="" rank="" method="ocr" id="PIKE_BOYLOVEGIRLS_T41_015_line_70">HAVE A</metadata>
    </polygon>
    <polygon points="93,338 241,338 241,358 93,358 93,338">
      <metadata confidence="0.0" speechType="" typography="" rank="" method="ocr" id="PIKE_BOYLOVEGIRLS_T41_015_line_71">AFTEIZNOON</metadata>
    </polygon>
    <polygon points="335,336 476,336 476,355 335,355 335,336">
      <metadata confidence="0.0" speechType="" typography="" rank="" method="ocr" id="PIKE_BOYLOVEGIRLS_T41_015_line_72">AND WE LL</metadata>
    </polygon>
    <polygon points="56,313 306,313 306,335 56,335 56,313">
      <metadata confidence="0.0" speechType="" typography="" rank="" method="ocr" id="PIKE_BOYLOVEGIRLS_T41_015_line_73">THE IDLE EICH THIS</metadata>
    </polygon>
    <polygon points="350,314 460,314 460,332 350,332 350,314">
      <metadata confidence="0.0" speechType="" typography="" rank="" method="ocr" id="PIKE_BOYLOVEGIRLS_T41_015_line_74">5UlT ON</metadata>
    </polygon>
    <polygon points="57,290 210,290 210,312 57,312 57,290">
      <metadata confidence="0.0" speechType="" typography="" rank="" method="ocr" id="PIKE_BOYLOVEGIRLS_T41_015_line_75">HOUR5 OFF </metadata>
    </polygon>
    <polygon points="234,291 291,291 291,309 234,309 234,291">
      <metadata confidence="0.0" speechType="" typography="" rank="" method="ocr" id="PIKE_BOYLOVEGIRLS_T41_015_line_76">HDW</metadata>
    </polygon>
    <polygon points="346,291 472,291 472,310 346,310 346,291">
      <metadata confidence="0.0" speechType="" typography="" rank="" method="ocr" id="PIKE_BOYLOVEGIRLS_T41_015_line_77">PUT  DUR</metadata>
    </polygon>
    <polygon points="52,268 318,268 318,290 52,290 52,268">
      <metadata confidence="0.0" speechType="" typography="" rank="" method="ocr" id="PIKE_BOYLOVEGIRLS_T41_015_line_78">MYSELF A COUPLE OF</metadata>
    </polygon>
    <polygon points="375,268 434,268 434,286 375,286 375,268">
      <metadata confidence="0.0" speechType="" typography="" rank="" method="ocr" id="PIKE_BOYLOVEGIRLS_T41_015_line_79">FINE</metadata>
    </polygon>
    <polygon points="124,245 297,245 297,266 124,266 124,245">
      <metadata confidence="0.0" speechType="" typography="" rank="" method="ocr" id="PIKE_BOYLOVEGIRLS_T41_015_line_80">1 JUST VDTED</metadata>
    </polygon>
    <polygon points="354,242 417,242 417,262 354,262 354,242">
      <metadata confidence="0.0" speechType="" typography="" rank="" method="ocr" id="PIKE_BOYLOVEGIRLS_T41_015_line_81">BILL </metadata>
    </polygon>
    <polygon points="994,216 1392,216 1392,236 994,236 994,216">
      <metadata confidence="0.0" speechType="" typography="" rank="" method="ocr" id="PIKE_BOYLOVEGIRLS_T41_015_line_82">1 CAN T KID MYSELF ANY MORE</metadata>
    </polygon>
    <polygon points="62,194 220,194 220,213 62,213 62,194">
      <metadata confidence="0.0" speechType="" typography="" rank="" method="ocr" id="PIKE_BOYLOVEGIRLS_T41_015_line_83">NEXT AFTERPOON</metadata>
    </polygon>
    <polygon points="63,169 453,169 453,191 63,191 63,169">
      <metadata confidence="0.0" speechType="" typography="" rank="" method="ocr" id="PIKE_BOYLOVEGIRLS_T41_015_line_84">THERE HERE RULES T0 DE FOLLODEO. TH</metadata>
    </polygon>
    <polygon points="1089,163 1216,163 1216,180 1089,180 1089,163">
      <metadata confidence="0.0" speechType="" typography="" rank="" method="ocr" id="PIKE_BOYLOVEGIRLS_T41_015_line_85">IT IAS BILL I I</metadata>
    </polygon>
    <polygon points="989,163 1066,163 1066,179 989,179 989,163">
      <metadata confidence="0.0" speechType="" typography="" rank="" method="ocr" id="PIKE_BOYLOVEGIRLS_T41_015_line_86">TNE KISS</metadata>
    </polygon>
    <polygon points="62,147 442,147 442,169 62,169 62,147">
      <metadata confidence="0.0" speechType="" typography="" rank="" method="ocr" id="PIKE_BOYLOVEGIRLS_T41_015_line_87">60 BACK TO THAT HOUSE. BUT I MAD T0</metadata>
    </polygon>
    <polygon points="989,141 1160,141 1160,157 989,157 989,141">
      <metadata confidence="0.0" speechType="" typography="" rank="" method="ocr" id="PIKE_BOYLOVEGIRLS_T41_015_line_88">TFRILL OF IAITING</metadata>
    </polygon>
    <polygon points="1198,142 1395,142 1395,160 1198,160 1198,142">
      <metadata confidence="0.0" speechType="" typography="" rank="" method="ocr" id="PIKE_BOYLOVEGIRLS_T41_015_line_89">I KNEN IT VlA N T JL  1</metadata>
    </polygon>
    <polygon points="62,127 261,127 261,146 62,146 62,127">
      <metadata confidence="0.0" speechType="" typography="" rank="" method="ocr" id="PIKE_BOYLOVEGIRLS_T41_015_line_90">WANTED T0 LEAVE MIN</metadata>
    </polygon>
    <polygon points="302,124 465,124 465,141 302,141 302,124">
      <metadata confidence="0.0" speechType="" typography="" rank="" method="ocr" id="PIKE_BOYLOVEGIRLS_T41_015_line_91">NEVER WANTED TO</metadata>
    </polygon>
    <polygon points="989,117 1396,117 1396,137 989,137 989,117">
      <metadata confidence="0.0" speechType="" typography="" rank="" method="ocr" id="PIKE_BOYLOVEGIRLS_T41_015_line_92">T0 KISS UE. BUT I ENJOYED THE TINGUNG</metadata>
    </polygon>
    <polygon points="62,102 460,102 460,124 62,124 62,102">
      <metadata confidence="0.0" speechType="" typography="" rank="" method="ocr" id="PIKE_BOYLOVEGIRLS_T41_015_line_93">INEN N  MELO HE IN N15 ARIIS  I NEVER</metadata>
    </polygon>
    <polygon points="990,94 1397,94 1397,114 990,114 990,94">
      <metadata confidence="0.0" speechType="" typography="" rank="" method="ocr" id="PIKE_BOYLOVEGIRLS_T41_015_line_94">141  un C WE SLCWLVCLOSER. IIANTED Hu </metadata>
    </polygon>
    <polygon points="578,249 687,249 687,270 578,270 578,249">
      <metadata confidence="0.0" speechType="" typography="" rank="" method="ocr" id="PIKE_BOYLOVEGIRLS_T41_015_line_95">THINGSI</metadata>
    </polygon>
    <polygon points="573,230 702,230 702,248 573,248 573,230">
      <metadata confidence="0.0" speechType="" typography="" rank="" method="ocr" id="PIKE_BOYLOVEGIRLS_T41_015_line_96">ALOTOF</metadata>
    </polygon>
    <polygon points="528,197 758,197 758,226 528,226 528,197">
      <metadata confidence="0.0" speechType="" typography="" rank="" method="ocr" id="PIKE_BOYLOVEGIRLS_T41_015_line_97">son           i           BQ  T131</metadata>
    </polygon>
    <polygon points="531,185 590,185 590,203 531,203 531,185">
      <metadata confidence="0.0" speechType="" typography="" rank="" method="ocr" id="PIKE_BOYLOVEGIRLS_T41_015_line_98">FEEL</metadata>
    </polygon>
    <polygon points="622,184 759,184 759,203 622,203 622,184">
      <metadata confidence="0.0" speechType="" typography="" rank="" method="ocr" id="PIKE_BOYLOVEGIRLS_T41_015_line_99">DIFFE  EN  </metadata>
    </polygon>
    <polygon points="526,162 754,162 754,181 526,181 526,162">
      <metadata confidence="0.0" speechType="" typography="" rank="" method="ocr" id="PIKE_BOYLOVEGIRLS_T41_015_line_100">YOU   E MADE ME</metadata>
    </polygon>
    <polygon points="550,138 728,138 728,158 550,158 550,138">
      <metadata confidence="0.0" speechType="" typography="" rank="" method="ocr" id="PIKE_BOYLOVEGIRLS_T41_015_line_101">MEETING YOU</metadata>
    </polygon>
    <polygon points="541,117 608,117 608,137 541,137 541,117">
      <metadata confidence="0.0" speechType="" typography="" rank="" method="ocr" id="PIKE_BOYLOVEGIRLS_T41_015_line_102">TOM</metadata>
    </polygon>
    <polygon points="640,117 739,117 739,135 640,135 640,117">
      <metadata confidence="0.0" speechType="" typography="" rank="" method="ocr" id="PIKE_BOYLOVEGIRLS_T41_015_line_103">  yNTH   </metadata>
    </polygon>
    <polygon points="542,92 755,92 755,112 542,112 542,92">
      <metadata confidence="0.0" speechType="" typography="" rank="" method="ocr" id="PIKE_BOYLOVEGIRLS_T41_015_line_104">T5 MEANT A  .o r</metadata>
    </polygon>
    <polygon points="809,720 942,720 942,759 809,759 809,720">
      <metadata confidence="0.0" speechType="" typography="" rank="" method="ocr" id="PIKE_BOYLOVEGIRLS_T41_015_line_105"> .  m.   .  A  MMW</metadata>
    </polygon>
    <polygon points="843,539 907,539 907,568 843,568 843,539">
      <metadata confidence="0.0" speechType="" typography="" rank="" method="ocr" id="PIKE_BOYLOVEGIRLS_T41_015_line_106">F5</metadata>
    </polygon>
    <polygon points="724,419 898,419 898,444 724,444 724,419">
      <metadata confidence="0.0" speechType="" typography="" rank="" method="ocr" id="PIKE_BOYLOVEGIRLS_T41_015_line_107">    D    L</metadata>
    </polygon>
    <polygon points="844,208 897,208 897,226 844,226 844,208">
      <metadata confidence="0.0" speechType="" typography="" rank="" method="ocr" id="PIKE_BOYLOVEGIRLS_T41_015_line_108">TOO</metadata>
    </polygon>
    <polygon points="798,185 933,185 933,204 798,204 798,185">
      <metadata confidence="0.0" speechType="" typography="" rank="" method="ocr" id="PIKE_BOYLOVEGIRLS_T41_015_line_109">LOT TOME</metadata>
    </polygon>
    <polygon points="811,162 930,162 930,181 811,181 811,162">
      <metadata confidence="0.0" speechType="" typography="" rank="" method="ocr" id="PIKE_BOYLOVEGIRLS_T41_015_line_110">MEANT A</metadata>
    </polygon>
    <polygon points="794,139 940,139 940,158 794,158 794,139">
      <metadata confidence="0.0" speechType="" typography="" rank="" method="ocr" id="PIKE_BOYLOVEGIRLS_T41_015_line_111">BILL  YOl.  VE</metadata>
    </polygon>
    <polygon points="816,117 930,117 930,139 816,139 816,117">
      <metadata confidence="0.0" speechType="" typography="" rank="" method="ocr" id="PIKE_BOYLOVEGIRLS_T41_015_line_112">IW  GLAQ</metadata>
    </polygon>
  </svg>
</svg>
