<?xml version="1.0" encoding="UTF-8" standalone="no"?>
<svg width="2461" xmlns="http://www.w3.org/2000/svg" version="1.0" height="3479">
  <title>SAINTOGAN_ZIGPUCE_ET_ALFRED_025</title>
  <svg contentScriptType="text/ecmascript" zoomAndPan="magnify" contentStyleType="text/css" class="Page" preserveAspectRatio="xMidYMid meet" version="1.0">
    <image xmlns:xlink="http://www.w3.org/1999/xlink" x="0" y="0" width="2461" height="3479" xlink:href="../Pages/SAINTOGAN_ZIGPUCE_ET_ALFRED_025.jpg" xlink:type="simple" xlink:actuate="onLoad" preserveAspectRatio="xMidYMid meet" xlink:show="embed"/>
  </svg>
  <style type="text/css" xml:space="preserve">
        * { stroke-width: 0; stroke-linejoin: round; }
        .Unclassified { fill: orange; stroke: none; opacity: 1.0; visibility: hidden; }
        .Noise { fill: pink; stroke: none; opacity: 0.2; visibility: hidden; }
        .Panel { fill: red; stroke: none; opacity: 0.5; visibility: visible; image-rendering: optimizeSpeed; }
        .Line { fill: green; stroke: none; opacity: 0.5; visibility: visible; image-rendering: optimizeSpeed; }
        .TextArea { fill: grey; stroke: none; opacity: 0.2; visibility: visible; image-rendering: optimizeSpeed; }
        .Balloon { fill: cyan; stroke: none; opacity: 0.5; visibility: visible; image-rendering: optimizeSpeed; }
        .Letter { fill: blue; stroke: none; opacity: 0.2; visibility: hidden; }
        .Object { fill: yellow; stroke: none; opacity: 0.2; visibility: visible; image-rendering: optimizeSpeed; }
        .Page { fill: white; stroke: none; opacity: 0.5; visibility: visible; }
</style>
  <svg xmlns="http://www.w3.org/2000/svg" contentScriptType="text/ecmascript" zoomAndPan="magnify" contentStyleType="text/css" class="Line" preserveAspectRatio="xMidYMid meet" version="1.0">
    <polygon points="1276,3077 1554,3077 1554,3152 1276,3152 1276,3077">
      <metadata confidence="0.0" speechType="" typography="" rank="" method="ocr" id="SAINTOGAN_ZIGPUCE_ET_ALFRED_025_line_0">fv..  .  .  . .  .  . .  .  .  .   .     </metadata>
    </polygon>
    <polygon points="1435,3011 1555,3011 1555,3078 1435,3078 1435,3011">
      <metadata confidence="0.0" speechType="" typography="" rank="" method="ocr" id="SAINTOGAN_ZIGPUCE_ET_ALFRED_025_line_1">   zu  </metadata>
    </polygon>
    <polygon points="1880,2887 2107,2887 2107,2915 1880,2915 1880,2887">
      <metadata confidence="0.0" speechType="" typography="" rank="" method="ocr" id="SAINTOGAN_ZIGPUCE_ET_ALFRED_025_line_2">CouP Mneux</metadata>
    </polygon>
    <polygon points="1860,2816 2111,2816 2111,2870 1860,2870 1860,2816">
      <metadata confidence="0.0" speechType="" typography="" rank="" method="ocr" id="SAINTOGAN_ZIGPUCE_ET_ALFRED_025_line_3">  Q   Ve. ag  </metadata>
    </polygon>
    <polygon points="502,2809 1539,2809 1539,2928 502,2928 502,2809">
      <metadata confidence="0.0" speechType="" typography="" rank="" method="ocr" id="SAINTOGAN_ZIGPUCE_ET_ALFRED_025_line_4">  Z0   z     H               Zf.f      .   .   . .            .     .  .  .  .M     </metadata>
    </polygon>
    <polygon points="2142,2819 2248,2819 2248,2884 2142,2884 2142,2819">
      <metadata confidence="0.0" speechType="" typography="" rank="" method="ocr" id="SAINTOGAN_ZIGPUCE_ET_ALFRED_025_line_5">me</metadata>
    </polygon>
    <polygon points="2067,2729 2188,2729 2188,2762 2067,2762 2067,2729">
      <metadata confidence="0.0" speechType="" typography="" rank="" method="ocr" id="SAINTOGAN_ZIGPUCE_ET_ALFRED_025_line_6">GUER </metadata>
    </polygon>
    <polygon points="2069,2682 2343,2682 2343,2715 2069,2715 2069,2682">
      <metadata confidence="0.0" speechType="" typography="" rank="" method="ocr" id="SAINTOGAN_ZIGPUCE_ET_ALFRED_025_line_7">LF. F RO  D L.  A</metadata>
    </polygon>
    <polygon points="1367,2669 1532,2669 1532,2713 1367,2713 1367,2669">
      <metadata confidence="0.0" speechType="" typography="" rank="" method="ocr" id="SAINTOGAN_ZIGPUCE_ET_ALFRED_025_line_8"> VM </metadata>
    </polygon>
    <polygon points="2057,2648 2329,2648 2329,2679 2057,2679 2057,2648">
      <metadata confidence="0.0" speechType="" typography="" rank="" method="ocr" id="SAINTOGAN_ZIGPUCE_ET_ALFRED_025_line_9"> ou   A FA  Y M</metadata>
    </polygon>
    <polygon points="1908,2586 2354,2586 2354,2659 1908,2659 1908,2586">
      <metadata confidence="0.0" speechType="" typography="" rank="" method="ocr" id="SAINTOGAN_ZIGPUCE_ET_ALFRED_025_line_10">V        .  v  7  .    .. EDo           IL wsgm  g  Ms</metadata>
    </polygon>
    <polygon points="1147,2643 1367,2643 1367,2673 1147,2673 1147,2643">
      <metadata confidence="0.0" speechType="" typography="" rank="" method="ocr" id="SAINTOGAN_ZIGPUCE_ET_ALFRED_025_line_11">R    QR  F  QUI</metadata>
    </polygon>
    <polygon points="2068,2554 2328,2554 2328,2591 2068,2591 2068,2554">
      <metadata confidence="0.0" speechType="" typography="" rank="" method="ocr" id="SAINTOGAN_ZIGPUCE_ET_ALFRED_025_line_12">est vivmvr</metadata>
    </polygon>
    <polygon points="2071,2512 2245,2512 2245,2551 2071,2551 2071,2512">
      <metadata confidence="0.0" speechType="" typography="" rank="" method="ocr" id="SAINTOGAN_ZIGPUCE_ET_ALFRED_025_line_13">v  vAN r</metadata>
    </polygon>
    <polygon points="223,3032 314,3032 314,3113 223,3113 223,3032">
      <metadata confidence="0.0" speechType="" typography="" rank="" method="ocr" id="SAINTOGAN_ZIGPUCE_ET_ALFRED_025_line_14"> x    z </metadata>
    </polygon>
    <polygon points="184,2767 416,2767 416,2802 184,2802 184,2767">
      <metadata confidence="0.0" speechType="" typography="" rank="" method="ocr" id="SAINTOGAN_ZIGPUCE_ET_ALFRED_025_line_15">  oaisxqu   </metadata>
    </polygon>
    <polygon points="184,2725 437,2725 437,2757 184,2757 184,2725">
      <metadata confidence="0.0" speechType="" typography="" rank="" method="ocr" id="SAINTOGAN_ZIGPUCE_ET_ALFRED_025_line_16">D  NS LE FR</metadata>
    </polygon>
    <polygon points="162,2682 523,2682 523,2739 162,2739 162,2682">
      <metadata confidence="0.0" speechType="" typography="" rank="" method="ocr" id="SAINTOGAN_ZIGPUCE_ET_ALFRED_025_line_17">CHO  E REMUE.. nx     u   </metadata>
    </polygon>
    <polygon points="496,2666 571,2666 571,2690 496,2690 496,2666">
      <metadata confidence="0.0" speechType="" typography="" rank="" method="ocr" id="SAINTOGAN_ZIGPUCE_ET_ALFRED_025_line_18"> EEE</metadata>
    </polygon>
    <polygon points="177,2639 469,2639 469,2672 177,2672 177,2639">
      <metadata confidence="0.0" speechType="" typography="" rank="" method="ocr" id="SAINTOGAN_ZIGPUCE_ET_ALFRED_025_line_19">QUE Qui  aue</metadata>
    </polygon>
    <polygon points="146,2579 468,2579 468,2623 146,2623 146,2579">
      <metadata confidence="0.0" speechType="" typography="" rank="" method="ocr" id="SAINTOGAN_ZIGPUCE_ET_ALFRED_025_line_20">Elffr  e      Me .a</metadata>
    </polygon>
    <polygon points="175,2551 487,2551 487,2590 175,2590 175,2551">
      <metadata confidence="0.0" speechType="" typography="" rank="" method="ocr" id="SAINTOGAN_ZIGPUCE_ET_ALFRED_025_line_21">CEST cunieu x </metadata>
    </polygon>
    <polygon points="573,2543 861,2543 861,2573 573,2573 573,2543">
      <metadata confidence="0.0" speechType="" typography="" rank="" method="ocr" id="SAINTOGAN_ZIGPUCE_ET_ALFRED_025_line_22">FAuoRA3 r vqin</metadata>
    </polygon>
    <polygon points="1646,2582 1866,2582 1866,2635 1646,2635 1646,2582">
      <metadata confidence="0.0" speechType="" typography="" rank="" method="ocr" id="SAINTOGAN_ZIGPUCE_ET_ALFRED_025_line_23">ces  gtp</metadata>
    </polygon>
    <polygon points="1642,2522 1980,2522 1980,2573 1642,2573 1642,2522">
      <metadata confidence="0.0" speechType="" typography="" rank="" method="ocr" id="SAINTOGAN_ZIGPUCE_ET_ALFRED_025_line_24"> smc     o ss e  EZ</metadata>
    </polygon>
    <polygon points="1831,2297 1915,2297 1915,2351 1831,2351 1831,2297">
      <metadata confidence="0.0" speechType="" typography="" rank="" method="ocr" id="SAINTOGAN_ZIGPUCE_ET_ALFRED_025_line_25">  0  7Bz     </metadata>
    </polygon>
    <polygon points="1089,2219 1163,2219 1163,2270 1089,2270 1089,2219">
      <metadata confidence="0.0" speechType="" typography="" rank="" method="ocr" id="SAINTOGAN_ZIGPUCE_ET_ALFRED_025_line_26">vf    </metadata>
    </polygon>
    <polygon points="1915,2217 1984,2217 1984,2275 1915,2275 1915,2217">
      <metadata confidence="0.0" speechType="" typography="" rank="" method="ocr" id="SAINTOGAN_ZIGPUCE_ET_ALFRED_025_line_27">V fl f          </metadata>
    </polygon>
    <polygon points="1072,2191 1226,2191 1226,2244 1072,2244 1072,2191">
      <metadata confidence="0.0" speechType="" typography="" rank="" method="ocr" id="SAINTOGAN_ZIGPUCE_ET_ALFRED_025_line_28">GE  .   .</metadata>
    </polygon>
    <polygon points="1897,2189 1959,2189 1959,2245 1897,2245 1897,2189">
      <metadata confidence="0.0" speechType="" typography="" rank="" method="ocr" id="SAINTOGAN_ZIGPUCE_ET_ALFRED_025_line_29">f   J       5a.z  </metadata>
    </polygon>
    <polygon points="1995,2138 2220,2138 2220,2212 1995,2212 1995,2138">
      <metadata confidence="0.0" speechType="" typography="" rank="" method="ocr" id="SAINTOGAN_ZIGPUCE_ET_ALFRED_025_line_30"> .   f</metadata>
    </polygon>
    <polygon points="807,2115 1035,2115 1035,2172 807,2172 807,2115">
      <metadata confidence="0.0" speechType="" typography="" rank="" method="ocr" id="SAINTOGAN_ZIGPUCE_ET_ALFRED_025_line_31">7 f     a      I   </metadata>
    </polygon>
    <polygon points="172,2020 271,2020 271,2049 172,2049 172,2020">
      <metadata confidence="0.0" speechType="" typography="" rank="" method="ocr" id="SAINTOGAN_ZIGPUCE_ET_ALFRED_025_line_32"> N MU</metadata>
    </polygon>
    <polygon points="154,1989 260,1989 260,2015 154,2015 154,1989">
      <metadata confidence="0.0" speechType="" typography="" rank="" method="ocr" id="SAINTOGAN_ZIGPUCE_ET_ALFRED_025_line_33">P 1   T</metadata>
    </polygon>
    <polygon points="329,1971 587,1971 587,2034 329,2034 329,1971">
      <metadata confidence="0.0" speechType="" typography="" rank="" method="ocr" id="SAINTOGAN_ZIGPUCE_ET_ALFRED_025_line_34">DES B  TES</metadata>
    </polygon>
    <polygon points="155,1945 281,1945 281,1974 155,1974 155,1945">
      <metadata confidence="0.0" speechType="" typography="" rank="" method="ocr" id="SAINTOGAN_ZIGPUCE_ET_ALFRED_025_line_35">PNN EE</metadata>
    </polygon>
    <polygon points="397,1924 560,1924 560,1954 397,1954 397,1924">
      <metadata confidence="0.0" speechType="" typography="" rank="" method="ocr" id="SAINTOGAN_ZIGPUCE_ET_ALFRED_025_line_36">PARAOH</metadata>
    </polygon>
    <polygon points="155,1905 275,1905 275,1934 155,1934 155,1905">
      <metadata confidence="0.0" speechType="" typography="" rank="" method="ocr" id="SAINTOGAN_ZIGPUCE_ET_ALFRED_025_line_37">NOTRE</metadata>
    </polygon>
    <polygon points="371,1880 565,1880 565,1916 371,1916 371,1880">
      <metadata confidence="0.0" speechType="" typography="" rank="" method="ocr" id="SAINTOGAN_ZIGPUCE_ET_ALFRED_025_line_38"> L      f Au</metadata>
    </polygon>
    <polygon points="1332,1850 1617,1850 1617,1926 1332,1926 1332,1850">
      <metadata confidence="0.0" speechType="" typography="" rank="" method="ocr" id="SAINTOGAN_ZIGPUCE_ET_ALFRED_025_line_39">5     W</metadata>
    </polygon>
    <polygon points="131,1742 496,1742 496,1806 131,1806 131,1742">
      <metadata confidence="0.0" speechType="" typography="" rank="" method="ocr" id="SAINTOGAN_ZIGPUCE_ET_ALFRED_025_line_40">il    </metadata>
    </polygon>
    <polygon points="496,1635 787,1635 787,1744 496,1744 496,1635">
      <metadata confidence="0.0" speechType="" typography="" rank="" method="ocr" id="SAINTOGAN_ZIGPUCE_ET_ALFRED_025_line_41">..   .         ...     a .  .      I  e9Ias   gg</metadata>
    </polygon>
    <polygon points="479,1590 751,1590 751,1668 479,1668 479,1590">
      <metadata confidence="0.0" speechType="" typography="" rank="" method="ocr" id="SAINTOGAN_ZIGPUCE_ET_ALFRED_025_line_42">E3 </metadata>
    </polygon>
    <polygon points="1605,1555 1851,1555 1851,1618 1605,1618 1605,1555">
      <metadata confidence="0.0" speechType="" typography="" rank="" method="ocr" id="SAINTOGAN_ZIGPUCE_ET_ALFRED_025_line_43">rf V  Q</metadata>
    </polygon>
    <polygon points="947,1427 1063,1427 1063,1473 947,1473 947,1427">
      <metadata confidence="0.0" speechType="" typography="" rank="" method="ocr" id="SAINTOGAN_ZIGPUCE_ET_ALFRED_025_line_44">I ....g  </metadata>
    </polygon>
    <polygon points="1257,1489 1511,1489 1511,1517 1257,1517 1257,1489">
      <metadata confidence="0.0" speechType="" typography="" rank="" method="ocr" id="SAINTOGAN_ZIGPUCE_ET_ALFRED_025_line_45">U ENTERRER.</metadata>
    </polygon>
    <polygon points="1248,1452 1545,1452 1545,1486 1248,1486 1248,1452">
      <metadata confidence="0.0" speechType="" typography="" rank="" method="ocr" id="SAINTOGAN_ZIGPUCE_ET_ALFRED_025_line_46">Ex   RANCE P009</metadata>
    </polygon>
    <polygon points="1251,1414 1547,1414 1547,1446 1251,1446 1251,1414">
      <metadata confidence="0.0" speechType="" typography="" rank="" method="ocr" id="SAINTOGAN_ZIGPUCE_ET_ALFRED_025_line_47">LE Mn  un  nous</metadata>
    </polygon>
    <polygon points="1251,1382 1434,1382 1434,1415 1251,1415 1251,1382">
      <metadata confidence="0.0" speechType="" typography="" rank="" method="ocr" id="SAINTOGAN_ZIGPUCE_ET_ALFRED_025_line_48">  M i rAiNE</metadata>
    </polygon>
    <polygon points="1478,1385 1551,1385 1551,1412 1478,1412 1478,1385">
      <metadata confidence="0.0" speechType="" typography="" rank="" method="ocr" id="SAINTOGAN_ZIGPUCE_ET_ALFRED_025_line_49">NOM</metadata>
    </polygon>
    <polygon points="1347,1344 1532,1344 1532,1372 1347,1372 1347,1344">
      <metadata confidence="0.0" speechType="" typography="" rank="" method="ocr" id="SAINTOGAN_ZIGPUCE_ET_ALFRED_025_line_50">N9N...NON</metadata>
    </polygon>
    <polygon points="361,1239 428,1239 428,1296 361,1296 361,1239">
      <metadata confidence="0.0" speechType="" typography="" rank="" method="ocr" id="SAINTOGAN_ZIGPUCE_ET_ALFRED_025_line_51">v  O</metadata>
    </polygon>
    <polygon points="558,1239 753,1239 753,1325 558,1325 558,1239">
      <metadata confidence="0.0" speechType="" typography="" rank="" method="ocr" id="SAINTOGAN_ZIGPUCE_ET_ALFRED_025_line_52">  Z   2   w     </metadata>
    </polygon>
    <polygon points="1649,1181 2109,1181 2109,1223 1649,1223 1649,1181">
      <metadata confidence="0.0" speechType="" typography="" rank="" method="ocr" id="SAINTOGAN_ZIGPUCE_ET_ALFRED_025_line_53">gi   i gg PLA  .siR uous</metadata>
    </polygon>
    <polygon points="128,1139 273,1139 273,1238 128,1238 128,1139">
      <metadata confidence="0.0" speechType="" typography="" rank="" method="ocr" id="SAINTOGAN_ZIGPUCE_ET_ALFRED_025_line_54">   e En 5 EN   QR    </metadata>
    </polygon>
    <polygon points="908,1339 1016,1339 1016,1370 908,1370 908,1339">
      <metadata confidence="0.0" speechType="" typography="" rank="" method="ocr" id="SAINTOGAN_ZIGPUCE_ET_ALFRED_025_line_55">UNE.</metadata>
    </polygon>
    <polygon points="899,1301 1190,1301 1190,1334 899,1334 899,1301">
      <metadata confidence="0.0" speechType="" typography="" rank="" method="ocr" id="SAINTOGAN_ZIGPUCE_ET_ALFRED_025_line_56">L   DANS LAMA</metadata>
    </polygon>
    <polygon points="903,1263 1191,1263 1191,1293 903,1293 903,1263">
      <metadata confidence="0.0" speechType="" typography="" rank="" method="ocr" id="SAINTOGAN_ZIGPUCE_ET_ALFRED_025_line_57">JOURS COMME C.</metadata>
    </polygon>
    <polygon points="1033,1225 1214,1225 1214,1254 1033,1254 1033,1225">
      <metadata confidence="0.0" speechType="" typography="" rank="" method="ocr" id="SAINTOGAN_ZIGPUCE_ET_ALFRED_025_line_58">CES   fou</metadata>
    </polygon>
    <polygon points="901,1224 996,1224 996,1252 901,1252 901,1224">
      <metadata confidence="0.0" speechType="" typography="" rank="" method="ocr" id="SAINTOGAN_ZIGPUCE_ET_ALFRED_025_line_59">MER </metadata>
    </polygon>
    <polygon points="902,1181 1207,1181 1207,1214 902,1214 902,1181">
      <metadata confidence="0.0" speechType="" typography="" rank="" method="ocr" id="SAINTOGAN_ZIGPUCE_ET_ALFRED_025_line_60">RE JETEQ A LA</metadata>
    </polygon>
    <polygon points="902,1129 1238,1129 1238,1174 902,1174 902,1129">
      <metadata confidence="0.0" speechType="" typography="" rank="" method="ocr" id="SAINTOGAN_ZIGPUCE_ET_ALFRED_025_line_61">Ja v     s LE t A .    </metadata>
    </polygon>
    <polygon points="1974,1326 2096,1326 2096,1355 1974,1355 1974,1326">
      <metadata confidence="0.0" speechType="" typography="" rank="" method="ocr" id="SAINTOGAN_ZIGPUCE_ET_ALFRED_025_line_62">FR  GO</metadata>
    </polygon>
    <polygon points="1780,1322 1944,1322 1944,1352 1780,1352 1780,1322">
      <metadata confidence="0.0" speechType="" typography="" rank="" method="ocr" id="SAINTOGAN_ZIGPUCE_ET_ALFRED_025_line_63">DAN  L5</metadata>
    </polygon>
    <polygon points="1673,1321 1749,1321 1749,1348 1673,1348 1673,1321">
      <metadata confidence="0.0" speechType="" typography="" rank="" method="ocr" id="SAINTOGAN_ZIGPUCE_ET_ALFRED_025_line_64">VER</metadata>
    </polygon>
    <polygon points="1675,1272 2128,1272 2128,1309 1675,1309 1675,1272">
      <metadata confidence="0.0" speechType="" typography="" rank="" method="ocr" id="SAINTOGAN_ZIGPUCE_ET_ALFRED_025_line_65">EJSAYER DE  E  oN EIi</metadata>
    </polygon>
    <polygon points="1674,1230 2102,1230 2102,1265 1674,1265 1674,1230">
      <metadata confidence="0.0" speechType="" typography="" rank="" method="ocr" id="SAINTOGAN_ZIGPUCE_ET_ALFRED_025_line_66">Pouvo      PEu r.E rae</metadata>
    </polygon>
    <polygon points="1887,1148 2094,1148 2094,1178 1887,1178 1887,1148">
      <metadata confidence="0.0" speechType="" typography="" rank="" method="ocr" id="SAINTOGAN_ZIGPUCE_ET_ALFRED_025_line_67">Pgull voui</metadata>
    </polygon>
    <polygon points="1678,1150 1850,1150 1850,1177 1678,1177 1678,1150">
      <metadata confidence="0.0" speechType="" typography="" rank="" method="ocr" id="SAINTOGAN_ZIGPUCE_ET_ALFRED_025_line_68">QLOUTEZ</metadata>
    </polygon>
    <polygon points="151,1220 237,1220 237,1243 151,1243 151,1220">
      <metadata confidence="0.0" speechType="" typography="" rank="" method="ocr" id="SAINTOGAN_ZIGPUCE_ET_ALFRED_025_line_69">M094</metadata>
    </polygon>
    <polygon points="2248,997 2342,997 2342,1046 2248,1046 2248,997">
      <metadata confidence="0.0" speechType="" typography="" rank="" method="ocr" id="SAINTOGAN_ZIGPUCE_ET_ALFRED_025_line_70">        .   W</metadata>
    </polygon>
    <polygon points="129,979 458,979 458,1040 129,1040 129,979">
      <metadata confidence="0.0" speechType="" typography="" rank="" method="ocr" id="SAINTOGAN_ZIGPUCE_ET_ALFRED_025_line_71">   . eecmff </metadata>
    </polygon>
    <polygon points="2283,967 2339,967 2339,1021 2283,1021 2283,967">
      <metadata confidence="0.0" speechType="" typography="" rank="" method="ocr" id="SAINTOGAN_ZIGPUCE_ET_ALFRED_025_line_72">f  1.  w A1   zi </metadata>
    </polygon>
    <polygon points="1220,801 1324,801 1324,840 1220,840 1220,801">
      <metadata confidence="0.0" speechType="" typography="" rank="" method="ocr" id="SAINTOGAN_ZIGPUCE_ET_ALFRED_025_line_73"> aa      a        aa</metadata>
    </polygon>
    <polygon points="1176,775 1331,775 1331,820 1176,820 1176,775">
      <metadata confidence="0.0" speechType="" typography="" rank="" method="ocr" id="SAINTOGAN_ZIGPUCE_ET_ALFRED_025_line_74">   r.1 z       Z       1  </metadata>
    </polygon>
    <polygon points="1203,749 1340,749 1340,790 1203,790 1203,749">
      <metadata confidence="0.0" speechType="" typography="" rank="" method="ocr" id="SAINTOGAN_ZIGPUCE_ET_ALFRED_025_line_75">    mm       .   a     s  ss   s a  a </metadata>
    </polygon>
    <polygon points="1221,707 1737,707 1737,819 1221,819 1221,707">
      <metadata confidence="0.0" speechType="" typography="" rank="" method="ocr" id="SAINTOGAN_ZIGPUCE_ET_ALFRED_025_line_76">  .  IZ.     .    1.</metadata>
    </polygon>
    <polygon points="118,668 364,668 364,706 118,706 118,668">
      <metadata confidence="0.0" speechType="" typography="" rank="" method="ocr" id="SAINTOGAN_ZIGPUCE_ET_ALFRED_025_line_77"> I    I     0</metadata>
    </polygon>
    <polygon points="122,605 888,605 888,663 122,663 122,605">
      <metadata confidence="0.0" speechType="" typography="" rank="" method="ocr" id="SAINTOGAN_ZIGPUCE_ET_ALFRED_025_line_78">PUCE QIEMQN  E VE   I. A I  t</metadata>
    </polygon>
    <polygon points="1639,580 1997,580 1997,655 1639,655 1639,580">
      <metadata confidence="0.0" speechType="" typography="" rank="" method="ocr" id="SAINTOGAN_ZIGPUCE_ET_ALFRED_025_line_79">  5900       a .     </metadata>
    </polygon>
    <polygon points="2056,561 2209,561 2209,604 2056,604 2056,561">
      <metadata confidence="0.0" speechType="" typography="" rank="" method="ocr" id="SAINTOGAN_ZIGPUCE_ET_ALFRED_025_line_80">sa     . V  .   . A..  la  </metadata>
    </polygon>
    <polygon points="322,552 997,552 997,616 322,616 322,552">
      <metadata confidence="0.0" speechType="" typography="" rank="" method="ocr" id="SAINTOGAN_ZIGPUCE_ET_ALFRED_025_line_81"> Azur ni lio et                ..   </metadata>
    </polygon>
    <polygon points="1178,539 1355,539 1355,582 1178,582 1178,539">
      <metadata confidence="0.0" speechType="" typography="" rank="" method="ocr" id="SAINTOGAN_ZIGPUCE_ET_ALFRED_025_line_82">ce nus </metadata>
    </polygon>
    <polygon points="1633,528 1719,528 1719,556 1633,556 1633,528">
      <metadata confidence="0.0" speechType="" typography="" rank="" method="ocr" id="SAINTOGAN_ZIGPUCE_ET_ALFRED_025_line_83"> Z   EZ     3G  </metadata>
    </polygon>
    <polygon points="360,506 832,506 832,551 360,551 360,506">
      <metadata confidence="0.0" speechType="" typography="" rank="" method="ocr" id="SAINTOGAN_ZIGPUCE_ET_ALFRED_025_line_84">nai sremcymua</metadata>
    </polygon>
    <polygon points="1236,507 1369,507 1369,533 1236,533 1236,507">
      <metadata confidence="0.0" speechType="" typography="" rank="" method="ocr" id="SAINTOGAN_ZIGPUCE_ET_ALFRED_025_line_85">UE Bou</metadata>
    </polygon>
    <polygon points="891,501 1205,501 1205,533 891,533 891,501">
      <metadata confidence="0.0" speechType="" typography="" rank="" method="ocr" id="SAINTOGAN_ZIGPUCE_ET_ALFRED_025_line_86">VET  T AL  SEO</metadata>
    </polygon>
    <polygon points="320,469 558,469 558,518 320,518 320,469">
      <metadata confidence="0.0" speechType="" typography="" rank="" method="ocr" id="SAINTOGAN_ZIGPUCE_ET_ALFRED_025_line_87">Mii  </metadata>
    </polygon>
    <polygon points="2081,460 2318,460 2318,502 2081,502 2081,460">
      <metadata confidence="0.0" speechType="" typography="" rank="" method="ocr" id="SAINTOGAN_ZIGPUCE_ET_ALFRED_025_line_88">gun H  L </metadata>
    </polygon>
    <polygon points="1078,465 1352,465 1352,494 1078,494 1078,465">
      <metadata confidence="0.0" speechType="" typography="" rank="" method="ocr" id="SAINTOGAN_ZIGPUCE_ET_ALFRED_025_line_89">  OTRE      EK</metadata>
    </polygon>
    <polygon points="890,464 1045,464 1045,489 890,489 890,464">
      <metadata confidence="0.0" speechType="" typography="" rank="" method="ocr" id="SAINTOGAN_ZIGPUCE_ET_ALFRED_025_line_90">ALFRE9</metadata>
    </polygon>
    <polygon points="2070,421 2205,421 2205,456 2070,456 2070,421">
      <metadata confidence="0.0" speechType="" typography="" rank="" method="ocr" id="SAINTOGAN_ZIGPUCE_ET_ALFRED_025_line_91">Page </metadata>
    </polygon>
    <polygon points="2252,429 2318,429 2318,455 2252,455 2252,429">
      <metadata confidence="0.0" speechType="" typography="" rank="" method="ocr" id="SAINTOGAN_ZIGPUCE_ET_ALFRED_025_line_92"> LV</metadata>
    </polygon>
    <polygon points="1145,429 1211,429 1211,449 1145,449 1145,429">
      <metadata confidence="0.0" speechType="" typography="" rank="" method="ocr" id="SAINTOGAN_ZIGPUCE_ET_ALFRED_025_line_93">VIE</metadata>
    </polygon>
    <polygon points="1022,420 1116,420 1116,451 1022,451 1022,420">
      <metadata confidence="0.0" speechType="" typography="" rank="" method="ocr" id="SAINTOGAN_ZIGPUCE_ET_ALFRED_025_line_94"> .l5 </metadata>
    </polygon>
    <polygon points="896,428 973,428 973,450 896,450 896,428">
      <metadata confidence="0.0" speechType="" typography="" rank="" method="ocr" id="SAINTOGAN_ZIGPUCE_ET_ALFRED_025_line_95">LIG</metadata>
    </polygon>
    <polygon points="314,417 835,417 835,466 314,466 314,417">
      <metadata confidence="0.0" speechType="" typography="" rank="" method="ocr" id="SAINTOGAN_ZIGPUCE_ET_ALFRED_025_line_96">L   z  n ns va vas</metadata>
    </polygon>
    <polygon points="1254,421 1391,421 1391,449 1254,449 1254,421">
      <metadata confidence="0.0" speechType="" typography="" rank="" method="ocr" id="SAINTOGAN_ZIGPUCE_ET_ALFRED_025_line_97">5 WTC</metadata>
    </polygon>
    <polygon points="2161,392 2319,392 2319,416 2161,416 2161,392">
      <metadata confidence="0.0" speechType="" typography="" rank="" method="ocr" id="SAINTOGAN_ZIGPUCE_ET_ALFRED_025_line_98">ELE VON</metadata>
    </polygon>
    <polygon points="1984,389 2067,389 2067,416 1984,416 1984,389">
      <metadata confidence="0.0" speechType="" typography="" rank="" method="ocr" id="SAINTOGAN_ZIGPUCE_ET_ALFRED_025_line_99">HAM</metadata>
    </polygon>
    <polygon points="1641,437 1855,437 1855,472 1641,472 1641,437">
      <metadata confidence="0.0" speechType="" typography="" rank="" method="ocr" id="SAINTOGAN_ZIGPUCE_ET_ALFRED_025_line_100">Mau Dieu </metadata>
    </polygon>
    <polygon points="1737,406 1923,406 1923,433 1737,433 1737,406">
      <metadata confidence="0.0" speechType="" typography="" rank="" method="ocr" id="SAINTOGAN_ZIGPUCE_ET_ALFRED_025_line_101">MCH DIEU</metadata>
    </polygon>
    <polygon points="1637,402 1705,402 1705,437 1637,437 1637,402">
      <metadata confidence="0.0" speechType="" typography="" rank="" method="ocr" id="SAINTOGAN_ZIGPUCE_ET_ALFRED_025_line_102">AH</metadata>
    </polygon>
    <polygon points="560,299 944,299 944,370 560,370 560,299">
      <metadata confidence="0.0" speechType="" typography="" rank="" method="ocr" id="SAINTOGAN_ZIGPUCE_ET_ALFRED_025_line_103">    IlII  L 1 </metadata>
    </polygon>
    <polygon points="1167,285 1432,285 1432,349 1167,349 1167,285">
      <metadata confidence="0.0" speechType="" typography="" rank="" method="ocr" id="SAINTOGAN_ZIGPUCE_ET_ALFRED_025_line_104">   VI A</metadata>
    </polygon>
    <polygon points="608,277 756,277 756,328 608,328 608,277">
      <metadata confidence="0.0" speechType="" typography="" rank="" method="ocr" id="SAINTOGAN_ZIGPUCE_ET_ALFRED_025_line_105"> Ill</metadata>
    </polygon>
    <polygon points="998,272 1120,272 1120,319 998,319 998,272">
      <metadata confidence="0.0" speechType="" typography="" rank="" method="ocr" id="SAINTOGAN_ZIGPUCE_ET_ALFRED_025_line_106">DE</metadata>
    </polygon>
    <polygon points="618,222 835,222 835,272 618,272 618,222">
      <metadata confidence="0.0" speechType="" typography="" rank="" method="ocr" id="SAINTOGAN_ZIGPUCE_ET_ALFRED_025_line_107">1  il</metadata>
    </polygon>
  </svg>
</svg>
