<?xml version="1.0" encoding="UTF-8" standalone="no"?>
<svg width="2481" xmlns="http://www.w3.org/2000/svg" version="1.0" height="3492">
  <title>SAINTOGAN_ZIGPUCE_ET_ALFRED_010</title>
  <svg contentScriptType="text/ecmascript" zoomAndPan="magnify" contentStyleType="text/css" class="Page" preserveAspectRatio="xMidYMid meet" version="1.0">
    <image xmlns:xlink="http://www.w3.org/1999/xlink" x="0" y="0" width="2481" height="3492" xlink:href="../Pages/SAINTOGAN_ZIGPUCE_ET_ALFRED_010.jpg" xlink:type="simple" xlink:actuate="onLoad" preserveAspectRatio="xMidYMid meet" xlink:show="embed"/>
  </svg>
  <style type="text/css" xml:space="preserve">
        * { stroke-width: 0; stroke-linejoin: round; }
        .Unclassified { fill: orange; stroke: none; opacity: 1.0; visibility: hidden; }
        .Noise { fill: pink; stroke: none; opacity: 0.2; visibility: hidden; }
        .Panel { fill: red; stroke: none; opacity: 0.5; visibility: visible; image-rendering: optimizeSpeed; }
        .Line { fill: green; stroke: none; opacity: 0.5; visibility: visible; image-rendering: optimizeSpeed; }
        .TextArea { fill: grey; stroke: none; opacity: 0.2; visibility: visible; image-rendering: optimizeSpeed; }
        .Balloon { fill: cyan; stroke: none; opacity: 0.5; visibility: visible; image-rendering: optimizeSpeed; }
        .Letter { fill: blue; stroke: none; opacity: 0.2; visibility: hidden; }
        .Object { fill: yellow; stroke: none; opacity: 0.2; visibility: visible; image-rendering: optimizeSpeed; }
        .Page { fill: white; stroke: none; opacity: 0.5; visibility: visible; }
</style>
  <svg xmlns="http://www.w3.org/2000/svg" contentScriptType="text/ecmascript" zoomAndPan="magnify" contentStyleType="text/css" class="Line" preserveAspectRatio="xMidYMid meet" version="1.0">
    <polygon points="980,2946 1143,2946 1143,3019 980,3019 980,2946">
      <metadata confidence="0.0" speechType="" typography="" rank="" method="ocr" id="SAINTOGAN_ZIGPUCE_ET_ALFRED_010_line_0">   u            t     ..uw 4</metadata>
    </polygon>
    <polygon points="1064,2904 1147,2904 1147,2938 1064,2938 1064,2904">
      <metadata confidence="0.0" speechType="" typography="" rank="" method="ocr" id="SAINTOGAN_ZIGPUCE_ET_ALFRED_010_line_1">isa</metadata>
    </polygon>
    <polygon points="1019,2868 1095,2868 1095,2906 1019,2906 1019,2868">
      <metadata confidence="0.0" speechType="" typography="" rank="" method="ocr" id="SAINTOGAN_ZIGPUCE_ET_ALFRED_010_line_2"> iii</metadata>
    </polygon>
    <polygon points="954,2738 1128,2738 1128,2833 954,2833 954,2738">
      <metadata confidence="0.0" speechType="" typography="" rank="" method="ocr" id="SAINTOGAN_ZIGPUCE_ET_ALFRED_010_line_3"> n    m     4 W lf  </metadata>
    </polygon>
    <polygon points="954,2698 1122,2698 1122,2756 954,2756 954,2698">
      <metadata confidence="0.0" speechType="" typography="" rank="" method="ocr" id="SAINTOGAN_ZIGPUCE_ET_ALFRED_010_line_4">5 m P   ..P.. . m    n 9</metadata>
    </polygon>
    <polygon points="929,2672 1096,2672 1096,2711 929,2711 929,2672">
      <metadata confidence="0.0" speechType="" typography="" rank="" method="ocr" id="SAINTOGAN_ZIGPUCE_ET_ALFRED_010_line_5">J auQA  1mr 111</metadata>
    </polygon>
    <polygon points="1227,2635 1550,2635 1550,2667 1227,2667 1227,2635">
      <metadata confidence="0.0" speechType="" typography="" rank="" method="ocr" id="SAINTOGAN_ZIGPUCE_ET_ALFRED_010_line_6">PA   Eu    LA MAM  </metadata>
    </polygon>
    <polygon points="1226,2598 1502,2598 1502,2632 1226,2632 1226,2598">
      <metadata confidence="0.0" speechType="" typography="" rank="" method="ocr" id="SAINTOGAN_ZIGPUCE_ET_ALFRED_010_line_7">NE LA TROUVER</metadata>
    </polygon>
    <polygon points="1227,2564 1543,2564 1543,2594 1227,2594 1227,2564">
      <metadata confidence="0.0" speechType="" typography="" rank="" method="ocr" id="SAINTOGAN_ZIGPUCE_ET_ALFRED_010_line_8">que Les BAND  T5</metadata>
    </polygon>
    <polygon points="1589,3200 1686,3200 1686,3234 1589,3234 1589,3200">
      <metadata confidence="0.0" speechType="" typography="" rank="" method="ocr" id="SAINTOGAN_ZIGPUCE_ET_ALFRED_010_line_9">gt   .. 3</metadata>
    </polygon>
    <polygon points="2021,3160 2232,3160 2232,3224 2021,3224 2021,3160">
      <metadata confidence="0.0" speechType="" typography="" rank="" method="ocr" id="SAINTOGAN_ZIGPUCE_ET_ALFRED_010_line_10">g       ma         </metadata>
    </polygon>
    <polygon points="1663,2805 1734,2805 1734,2835 1663,2835 1663,2805">
      <metadata confidence="0.0" speechType="" typography="" rank="" method="ocr" id="SAINTOGAN_ZIGPUCE_ET_ALFRED_010_line_11">CRE</metadata>
    </polygon>
    <polygon points="1930,2774 2276,2774 2276,2802 1930,2802 1930,2774">
      <metadata confidence="0.0" speechType="" typography="" rank="" method="ocr" id="SAINTOGAN_ZIGPUCE_ET_ALFRED_010_line_12">ONT Su vous Couvhi</metadata>
    </polygon>
    <polygon points="1662,2764 1819,2764 1819,2792 1662,2792 1662,2764">
      <metadata confidence="0.0" speechType="" typography="" rank="" method="ocr" id="SAINTOGAN_ZIGPUCE_ET_ALFRED_010_line_13">ARGUME</metadata>
    </polygon>
    <polygon points="1661,2718 2244,2718 2244,2758 1661,2758 1661,2718">
      <metadata confidence="0.0" speechType="" typography="" rank="" method="ocr" id="SAINTOGAN_ZIGPUCE_ET_ALFRED_010_line_14">JE V0       Avg   PLA     R QUEMES</metadata>
    </polygon>
    <polygon points="1933,2684 2212,2684 2212,2715 1933,2715 1933,2684">
      <metadata confidence="0.0" speechType="" typography="" rank="" method="ocr" id="SAINTOGAN_ZIGPUCE_ET_ALFRED_010_line_15">CE QU    L FAUT</metadata>
    </polygon>
    <polygon points="1651,2675 1897,2675 1897,2709 1651,2709 1651,2675">
      <metadata confidence="0.0" speechType="" typography="" rank="" method="ocr" id="SAINTOGAN_ZIGPUCE_ET_ALFRED_010_line_16">TouT A FAIT</metadata>
    </polygon>
    <polygon points="2184,2651 2277,2651 2277,2677 2184,2677 2184,2651">
      <metadata confidence="0.0" speechType="" typography="" rank="" method="ocr" id="SAINTOGAN_ZIGPUCE_ET_ALFRED_010_line_17">CEST</metadata>
    </polygon>
    <polygon points="1789,2636 2155,2636 2155,2672 1789,2672 1789,2636">
      <metadata confidence="0.0" speechType="" typography="" rank="" method="ocr" id="SAINTOGAN_ZIGPUCE_ET_ALFRED_010_line_18">C  ENT   LLE ET NA  VE</metadata>
    </polygon>
    <polygon points="1631,2615 1723,2615 1723,2664 1631,2664 1631,2615">
      <metadata confidence="0.0" speechType="" typography="" rank="" method="ocr" id="SAINTOGAN_ZIGPUCE_ET_ALFRED_010_line_19">TRE</metadata>
    </polygon>
    <polygon points="2215,2602 2281,2602 2281,2627 2215,2627 2215,2602">
      <metadata confidence="0.0" speechType="" typography="" rank="" method="ocr" id="SAINTOGAN_ZIGPUCE_ET_ALFRED_010_line_20">LET</metadata>
    </polygon>
    <polygon points="1652,2580 2185,2580 2185,2627 1652,2627 1652,2580">
      <metadata confidence="0.0" speechType="" typography="" rank="" method="ocr" id="SAINTOGAN_ZIGPUCE_ET_ALFRED_010_line_21">ELLE  sv m  s     u H</metadata>
    </polygon>
    <polygon points="1233,2529 1392,2529 1392,2556 1233,2556 1233,2529">
      <metadata confidence="0.0" speechType="" typography="" rank="" method="ocr" id="SAINTOGAN_ZIGPUCE_ET_ALFRED_010_line_22">Ma  s ESP</metadata>
    </polygon>
    <polygon points="252,3123 312,3123 312,3158 252,3158 252,3123">
      <metadata confidence="0.0" speechType="" typography="" rank="" method="ocr" id="SAINTOGAN_ZIGPUCE_ET_ALFRED_010_line_23">ga</metadata>
    </polygon>
    <polygon points="574,3014 786,3014 786,3089 574,3089 574,3014">
      <metadata confidence="0.0" speechType="" typography="" rank="" method="ocr" id="SAINTOGAN_ZIGPUCE_ET_ALFRED_010_line_24">    e  2       I Q.  </metadata>
    </polygon>
    <polygon points="254,2839 672,2839 672,2923 254,2923 254,2839">
      <metadata confidence="0.0" speechType="" typography="" rank="" method="ocr" id="SAINTOGAN_ZIGPUCE_ET_ALFRED_010_line_25">OUi...c   u  </metadata>
    </polygon>
    <polygon points="171,2782 446,2782 446,2815 171,2815 171,2782">
      <metadata confidence="0.0" speechType="" typography="" rank="" method="ocr" id="SAINTOGAN_ZIGPUCE_ET_ALFRED_010_line_26">LA MAN  ERE</metadata>
    </polygon>
    <polygon points="649,2753 745,2753 745,2778 649,2778 649,2753">
      <metadata confidence="0.0" speechType="" typography="" rank="" method="ocr" id="SAINTOGAN_ZIGPUCE_ET_ALFRED_010_line_27">BlEN</metadata>
    </polygon>
    <polygon points="169,2737 616,2737 616,2779 169,2779 169,2737">
      <metadata confidence="0.0" speechType="" typography="" rank="" method="ocr" id="SAINTOGAN_ZIGPUCE_ET_ALFRED_010_line_28">Pau  ELLE TROUVE  A</metadata>
    </polygon>
    <polygon points="403,2702 781,2702 781,2735 403,2735 403,2702">
      <metadata confidence="0.0" speechType="" typography="" rank="" method="ocr" id="SAINTOGAN_ZIGPUCE_ET_ALFRED_010_line_29">EN CHER  J    NTUN</metadata>
    </polygon>
    <polygon points="165,2690 327,2690 327,2726 165,2726 165,2690">
      <metadata confidence="0.0" speechType="" typography="" rank="" method="ocr" id="SAINTOGAN_ZIGPUCE_ET_ALFRED_010_line_30">LETTRE</metadata>
    </polygon>
    <polygon points="337,2655 764,2655 764,2694 337,2694 337,2655">
      <metadata confidence="0.0" speechType="" typography="" rank="" method="ocr" id="SAINTOGAN_ZIGPUCE_ET_ALFRED_010_line_31">IL FAUT PLIER ll0TR5</metadata>
    </polygon>
    <polygon points="159,2649 239,2649 239,2675 159,2675 159,2649">
      <metadata confidence="0.0" speechType="" typography="" rank="" method="ocr" id="SAINTOGAN_ZIGPUCE_ET_ALFRED_010_line_32">DRA</metadata>
    </polygon>
    <polygon points="534,2614 787,2614 787,2645 534,2645 534,2614">
      <metadata confidence="0.0" speechType="" typography="" rank="" method="ocr" id="SAINTOGAN_ZIGPUCE_ET_ALFRED_010_line_33">DOLLY Convnsu</metadata>
    </polygon>
    <polygon points="353,2610 476,2610 476,2639 353,2639 353,2610">
      <metadata confidence="0.0" speechType="" typography="" rank="" method="ocr" id="SAINTOGAN_ZIGPUCE_ET_ALFRED_010_line_34">PLIEZ</metadata>
    </polygon>
    <polygon points="157,2608 313,2608 313,2636 157,2636 157,2608">
      <metadata confidence="0.0" speechType="" typography="" rank="" method="ocr" id="SAINTOGAN_ZIGPUCE_ET_ALFRED_010_line_35">LE MOT</metadata>
    </polygon>
    <polygon points="153,2561 736,2561 736,2602 153,2602 153,2561">
      <metadata confidence="0.0" speechType="" typography="" rank="" method="ocr" id="SAINTOGAN_ZIGPUCE_ET_ALFRED_010_line_36">.    A   HABi LE     airr 5  Uu.  cm  </metadata>
    </polygon>
    <polygon points="158,2271 251,2271 251,2324 158,2324 158,2271">
      <metadata confidence="0.0" speechType="" typography="" rank="" method="ocr" id="SAINTOGAN_ZIGPUCE_ET_ALFRED_010_line_37">kw </metadata>
    </polygon>
    <polygon points="400,2380 498,2380 498,2431 400,2431 400,2380">
      <metadata confidence="0.0" speechType="" typography="" rank="" method="ocr" id="SAINTOGAN_ZIGPUCE_ET_ALFRED_010_line_38">i. </metadata>
    </polygon>
    <polygon points="140,1851 407,1851 407,1886 140,1886 140,1851">
      <metadata confidence="0.0" speechType="" typography="" rank="" method="ocr" id="SAINTOGAN_ZIGPUCE_ET_ALFRED_010_line_39">MAis A  o   s</metadata>
    </polygon>
    <polygon points="1373,2213 1490,2213 1490,2239 1373,2239 1373,2213">
      <metadata confidence="0.0" speechType="" typography="" rank="" method="ocr" id="SAINTOGAN_ZIGPUCE_ET_ALFRED_010_line_40">PAPIER</metadata>
    </polygon>
    <polygon points="1359,2181 1462,2181 1462,2205 1359,2205 1359,2181">
      <metadata confidence="0.0" speechType="" typography="" rank="" method="ocr" id="SAINTOGAN_ZIGPUCE_ET_ALFRED_010_line_41">EWLE</metadata>
    </polygon>
    <polygon points="1339,2147 1525,2147 1525,2173 1339,2173 1339,2147">
      <metadata confidence="0.0" speechType="" typography="" rank="" method="ocr" id="SAINTOGAN_ZIGPUCE_ET_ALFRED_010_line_42">L En cmer  </metadata>
    </polygon>
    <polygon points="1327,2110 1507,2110 1507,2138 1327,2138 1327,2110">
      <metadata confidence="0.0" speechType="" typography="" rank="" method="ocr" id="SAINTOGAN_ZIGPUCE_ET_ALFRED_010_line_43">PASSE Moi</metadata>
    </polygon>
    <polygon points="1318,2041 1453,2041 1453,2081 1318,2081 1318,2041">
      <metadata confidence="0.0" speechType="" typography="" rank="" method="ocr" id="SAINTOGAN_ZIGPUCE_ET_ALFRED_010_line_44">xo  el</metadata>
    </polygon>
    <polygon points="1266,1918 1526,1918 1526,1992 1266,1992 1266,1918">
      <metadata confidence="0.0" speechType="" typography="" rank="" method="ocr" id="SAINTOGAN_ZIGPUCE_ET_ALFRED_010_line_45">    ks 2</metadata>
    </polygon>
    <polygon points="1229,1892 1375,1892 1375,1928 1229,1928 1229,1892">
      <metadata confidence="0.0" speechType="" typography="" rank="" method="ocr" id="SAINTOGAN_ZIGPUCE_ET_ALFRED_010_line_46">PUCE</metadata>
    </polygon>
    <polygon points="1157,1848 1270,1848 1270,1877 1157,1877 1157,1848">
      <metadata confidence="0.0" speechType="" typography="" rank="" method="ocr" id="SAINTOGAN_ZIGPUCE_ET_ALFRED_010_line_47">PUCE</metadata>
    </polygon>
    <polygon points="450,1730 756,1730 756,1796 450,1796 450,1730">
      <metadata confidence="0.0" speechType="" typography="" rank="" method="ocr" id="SAINTOGAN_ZIGPUCE_ET_ALFRED_010_line_48">  gg</metadata>
    </polygon>
    <polygon points="1184,1632 1334,1632 1334,1733 1184,1733 1184,1632">
      <metadata confidence="0.0" speechType="" typography="" rank="" method="ocr" id="SAINTOGAN_ZIGPUCE_ET_ALFRED_010_line_49">11</metadata>
    </polygon>
    <polygon points="1126,1564 1209,1564 1209,1608 1126,1608 1126,1564">
      <metadata confidence="0.0" speechType="" typography="" rank="" method="ocr" id="SAINTOGAN_ZIGPUCE_ET_ALFRED_010_line_50">  PA s</metadata>
    </polygon>
    <polygon points="841,1551 1005,1551 1005,1593 841,1593 841,1551">
      <metadata confidence="0.0" speechType="" typography="" rank="" method="ocr" id="SAINTOGAN_ZIGPUCE_ET_ALFRED_010_line_51">UIl   nm  L     </metadata>
    </polygon>
    <polygon points="461,1510 770,1510 770,1554 461,1554 461,1510">
      <metadata confidence="0.0" speechType="" typography="" rank="" method="ocr" id="SAINTOGAN_ZIGPUCE_ET_ALFRED_010_line_52">  g.     .. .1              L     gm</metadata>
    </polygon>
    <polygon points="993,1455 1248,1455 1248,1523 993,1523 993,1455">
      <metadata confidence="0.0" speechType="" typography="" rank="" method="ocr" id="SAINTOGAN_ZIGPUCE_ET_ALFRED_010_line_53"> o  1      R T   4</metadata>
    </polygon>
    <polygon points="850,1394 1272,1394 1272,1478 850,1478 850,1394">
      <metadata confidence="0.0" speechType="" typography="" rank="" method="ocr" id="SAINTOGAN_ZIGPUCE_ET_ALFRED_010_line_54">            UE LAI                                     5.  c    i     </metadata>
    </polygon>
    <polygon points="87,1221 435,1221 435,1306 87,1306 87,1221">
      <metadata confidence="0.0" speechType="" typography="" rank="" method="ocr" id="SAINTOGAN_ZIGPUCE_ET_ALFRED_010_line_55">          .fun</metadata>
    </polygon>
    <polygon points="701,1210 1558,1210 1558,1316 701,1316 701,1210">
      <metadata confidence="0.0" speechType="" typography="" rank="" method="ocr" id="SAINTOGAN_ZIGPUCE_ET_ALFRED_010_line_56">L ne vvrea AVENW. PASSER Quuques  2511  aun  emune Avo  k   AM  E     oLL r pour </metadata>
    </polygon>
    <polygon points="246,1158 572,1158 572,1238 246,1238 246,1158">
      <metadata confidence="0.0" speechType="" typography="" rank="" method="ocr" id="SAINTOGAN_ZIGPUCE_ET_ALFRED_010_line_57"> ...  ruuk LI  few  Qui ne    o 1 Ms Sm</metadata>
    </polygon>
    <polygon points="1145,1362 1304,1362 1304,1386 1145,1386 1145,1362">
      <metadata confidence="0.0" speechType="" typography="" rank="" method="ocr" id="SAINTOGAN_ZIGPUCE_ET_ALFRED_010_line_58">L FAUORA</metadata>
    </polygon>
    <polygon points="1388,1325 1494,1325 1494,1351 1388,1351 1388,1325">
      <metadata confidence="0.0" speechType="" typography="" rank="" method="ocr" id="SAINTOGAN_ZIGPUCE_ET_ALFRED_010_line_59">HEURE</metadata>
    </polygon>
    <polygon points="1070,1324 1254,1324 1254,1351 1070,1351 1070,1324">
      <metadata confidence="0.0" speechType="" typography="" rank="" method="ocr" id="SAINTOGAN_ZIGPUCE_ET_ALFRED_010_line_60">NIR DANS</metadata>
    </polygon>
    <polygon points="1285,1325 1351,1325 1351,1346 1285,1346 1285,1325">
      <metadata confidence="0.0" speechType="" typography="" rank="" method="ocr" id="SAINTOGAN_ZIGPUCE_ET_ALFRED_010_line_61">UNE</metadata>
    </polygon>
    <polygon points="1097,1172 1340,1172 1340,1197 1097,1197 1097,1172">
      <metadata confidence="0.0" speechType="" typography="" rank="" method="ocr" id="SAINTOGAN_ZIGPUCE_ET_ALFRED_010_line_62">ET DU PAP ER</metadata>
    </polygon>
    <polygon points="850,1174 1062,1174 1062,1198 850,1198 850,1174">
      <metadata confidence="0.0" speechType="" typography="" rank="" method="ocr" id="SAINTOGAN_ZIGPUCE_ET_ALFRED_010_line_63">UE L  ENCRE</metadata>
    </polygon>
    <polygon points="869,1135 1070,1135 1070,1162 869,1162 869,1135">
      <metadata confidence="0.0" speechType="" typography="" rank="" method="ocr" id="SAINTOGAN_ZIGPUCE_ET_ALFRED_010_line_64">ET M    NTE</metadata>
    </polygon>
    <polygon points="1321,1135 1530,1135 1530,1161 1321,1161 1321,1135">
      <metadata confidence="0.0" speechType="" typography="" rank="" method="ocr" id="SAINTOGAN_ZIGPUCE_ET_ALFRED_010_line_65">UNE PLUME</metadata>
    </polygon>
    <polygon points="1207,1140 1285,1140 1285,1160 1207,1160 1207,1140">
      <metadata confidence="0.0" speechType="" typography="" rank="" method="ocr" id="SAINTOGAN_ZIGPUCE_ET_ALFRED_010_line_66">VOI  </metadata>
    </polygon>
    <polygon points="1106,1137 1179,1137 1179,1159 1106,1159 1106,1137">
      <metadata confidence="0.0" speechType="" typography="" rank="" method="ocr" id="SAINTOGAN_ZIGPUCE_ET_ALFRED_010_line_67">ANT</metadata>
    </polygon>
    <polygon points="1923,2422 2112,2422 2112,2480 1923,2480 1923,2422">
      <metadata confidence="0.0" speechType="" typography="" rank="" method="ocr" id="SAINTOGAN_ZIGPUCE_ET_ALFRED_010_line_68">P  l   P  ea. Cx </metadata>
    </polygon>
    <polygon points="1877,2380 2074,2380 2074,2441 1877,2441 1877,2380">
      <metadata confidence="0.0" speechType="" typography="" rank="" method="ocr" id="SAINTOGAN_ZIGPUCE_ET_ALFRED_010_line_69"> M2  5 </metadata>
    </polygon>
    <polygon points="1691,2325 1916,2325 1916,2385 1691,2385 1691,2325">
      <metadata confidence="0.0" speechType="" typography="" rank="" method="ocr" id="SAINTOGAN_ZIGPUCE_ET_ALFRED_010_line_70">Uw      W   </metadata>
    </polygon>
    <polygon points="1852,2228 2193,2228 2193,2291 1852,2291 1852,2228">
      <metadata confidence="0.0" speechType="" typography="" rank="" method="ocr" id="SAINTOGAN_ZIGPUCE_ET_ALFRED_010_line_71"> mg  Ty        p  Pu    </metadata>
    </polygon>
    <polygon points="1906,2205 2146,2205 2146,2252 1906,2252 1906,2205">
      <metadata confidence="0.0" speechType="" typography="" rank="" method="ocr" id="SAINTOGAN_ZIGPUCE_ET_ALFRED_010_line_72"> VLn C  U   </metadata>
    </polygon>
    <polygon points="1629,2088 2200,2088 2200,2151 1629,2151 1629,2088">
      <metadata confidence="0.0" speechType="" typography="" rank="" method="ocr" id="SAINTOGAN_ZIGPUCE_ET_ALFRED_010_line_73">  .  U  W  </metadata>
    </polygon>
    <polygon points="1598,2057 1683,2057 1683,2106 1598,2106 1598,2057">
      <metadata confidence="0.0" speechType="" typography="" rank="" method="ocr" id="SAINTOGAN_ZIGPUCE_ET_ALFRED_010_line_74">JIM kg</metadata>
    </polygon>
    <polygon points="1629,2022 1785,2022 1785,2081 1629,2081 1629,2022">
      <metadata confidence="0.0" speechType="" typography="" rank="" method="ocr" id="SAINTOGAN_ZIGPUCE_ET_ALFRED_010_line_75">W             f. 1              </metadata>
    </polygon>
    <polygon points="1848,2041 1965,2041 1965,2084 1848,2084 1848,2041">
      <metadata confidence="0.0" speechType="" typography="" rank="" method="ocr" id="SAINTOGAN_ZIGPUCE_ET_ALFRED_010_line_76"> nx  7 </metadata>
    </polygon>
    <polygon points="1602,1972 2177,1972 2177,2051 1602,2051 1602,1972">
      <metadata confidence="0.0" speechType="" typography="" rank="" method="ocr" id="SAINTOGAN_ZIGPUCE_ET_ALFRED_010_line_77">   1 ov   a    . f  9      JA          W  </metadata>
    </polygon>
    <polygon points="1778,1952 1874,1952 1874,1996 1778,1996 1778,1952">
      <metadata confidence="0.0" speechType="" typography="" rank="" method="ocr" id="SAINTOGAN_ZIGPUCE_ET_ALFRED_010_line_78">    Q9      </metadata>
    </polygon>
    <polygon points="1734,1475 1924,1475 1924,1556 1734,1556 1734,1475">
      <metadata confidence="0.0" speechType="" typography="" rank="" method="ocr" id="SAINTOGAN_ZIGPUCE_ET_ALFRED_010_line_79">g     .     l</metadata>
    </polygon>
    <polygon points="1776,1444 2053,1444 2053,1512 1776,1512 1776,1444">
      <metadata confidence="0.0" speechType="" typography="" rank="" method="ocr" id="SAINTOGAN_ZIGPUCE_ET_ALFRED_010_line_80">....  4   </metadata>
    </polygon>
    <polygon points="1796,1281 1921,1281 1921,1312 1796,1312 1796,1281">
      <metadata confidence="0.0" speechType="" typography="" rank="" method="ocr" id="SAINTOGAN_ZIGPUCE_ET_ALFRED_010_line_81"> WHNE v</metadata>
    </polygon>
    <polygon points="1813,1211 2033,1211 2033,1249 1813,1249 1813,1211">
      <metadata confidence="0.0" speechType="" typography="" rank="" method="ocr" id="SAINTOGAN_ZIGPUCE_ET_ALFRED_010_line_82">mus  1UET    </metadata>
    </polygon>
    <polygon points="1628,1172 2233,1172 2233,1245 1628,1245 1628,1172">
      <metadata confidence="0.0" speechType="" typography="" rank="" method="ocr" id="SAINTOGAN_ZIGPUCE_ET_ALFRED_010_line_83">T OM B E R ooL LY  mus 5  z                          Z55             3             Z         UN  U E T        NOUS NE</metadata>
    </polygon>
    <polygon points="2204,1291 2274,1291 2274,1322 2204,1322 2204,1291">
      <metadata confidence="0.0" speechType="" typography="" rank="" method="ocr" id="SAINTOGAN_ZIGPUCE_ET_ALFRED_010_line_84">NON</metadata>
    </polygon>
    <polygon points="2096,1300 2154,1300 2154,1323 2096,1323 2096,1300">
      <metadata confidence="0.0" speechType="" typography="" rank="" method="ocr" id="SAINTOGAN_ZIGPUCE_ET_ALFRED_010_line_85">PAS</metadata>
    </polygon>
    <polygon points="2090,1261 2284,1261 2284,1286 2090,1286 2090,1261">
      <metadata confidence="0.0" speechType="" typography="" rank="" method="ocr" id="SAINTOGAN_ZIGPUCE_ET_ALFRED_010_line_86"> .E POUVDNS</metadata>
    </polygon>
    <polygon points="1654,1123 2319,1123 2319,1188 1654,1188 1654,1123">
      <metadata confidence="0.0" speechType="" typography="" rank="" method="ocr" id="SAINTOGAN_ZIGPUCE_ET_ALFRED_010_line_87">I LS V E U L E. NT F A  R E  T OM Il   n uni nv n  . L  </metadata>
    </polygon>
    <polygon points="1872,1395 2029,1395 2029,1440 1872,1440 1872,1395">
      <metadata confidence="0.0" speechType="" typography="" rank="" method="ocr" id="SAINTOGAN_ZIGPUCE_ET_ALFRED_010_line_88">HE L  QHE r  i</metadata>
    </polygon>
    <polygon points="1847,1361 2033,1361 2033,1387 1847,1387 1847,1361">
      <metadata confidence="0.0" speechType="" typography="" rank="" method="ocr" id="SAINTOGAN_ZIGPUCE_ET_ALFRED_010_line_89">CE SE RAW</metadata>
    </polygon>
    <polygon points="1851,1325 2038,1325 2038,1353 1851,1353 1851,1325">
      <metadata confidence="0.0" speechType="" typography="" rank="" method="ocr" id="SAINTOGAN_ZIGPUCE_ET_ALFRED_010_line_90">P  S ECRIRE</metadata>
    </polygon>
    <polygon points="1852,1249 1937,1249 1937,1275 1852,1275 1852,1249">
      <metadata confidence="0.0" speechType="" typography="" rank="" method="ocr" id="SAINTOGAN_ZIGPUCE_ET_ALFRED_010_line_91">PENS</metadata>
    </polygon>
    <polygon points="1977,1252 2048,1252 2048,1275 1977,1275 1977,1252">
      <metadata confidence="0.0" speechType="" typography="" rank="" method="ocr" id="SAINTOGAN_ZIGPUCE_ET_ALFRED_010_line_92">14005</metadata>
    </polygon>
    <polygon points="489,1149 595,1149 595,1174 489,1174 489,1149">
      <metadata confidence="0.0" speechType="" typography="" rank="" method="ocr" id="SAINTOGAN_ZIGPUCE_ET_ALFRED_010_line_93">R LES</metadata>
    </polygon>
    <polygon points="341,1145 401,1145 401,1166 341,1166 341,1145">
      <metadata confidence="0.0" speechType="" typography="" rank="" method="ocr" id="SAINTOGAN_ZIGPUCE_ET_ALFRED_010_line_94"> ES</metadata>
    </polygon>
    <polygon points="205,1140 296,1140 296,1165 205,1165 205,1140">
      <metadata confidence="0.0" speechType="" typography="" rank="" method="ocr" id="SAINTOGAN_ZIGPUCE_ET_ALFRED_010_line_95">SU PE</metadata>
    </polygon>
    <polygon points="563,1119 629,1119 629,1143 563,1143 563,1119">
      <metadata confidence="0.0" speechType="" typography="" rank="" method="ocr" id="SAINTOGAN_ZIGPUCE_ET_ALFRED_010_line_96">DES</metadata>
    </polygon>
    <polygon points="260,1110 530,1110 530,1139 260,1139 260,1110">
      <metadata confidence="0.0" speechType="" typography="" rank="" method="ocr" id="SAINTOGAN_ZIGPUCE_ET_ALFRED_010_line_97">Cl LA CHAMBRE</metadata>
    </polygon>
    <polygon points="1026,1049 1161,1049 1161,1090 1026,1090 1026,1049">
      <metadata confidence="0.0" speechType="" typography="" rank="" method="ocr" id="SAINTOGAN_ZIGPUCE_ET_ALFRED_010_line_98">   ...... Un .V .  1</metadata>
    </polygon>
    <polygon points="1257,846 1538,846 1538,911 1257,911 1257,846">
      <metadata confidence="0.0" speechType="" typography="" rank="" method="ocr" id="SAINTOGAN_ZIGPUCE_ET_ALFRED_010_line_99">F  UDRQUE</metadata>
    </polygon>
    <polygon points="1247,822 1411,822 1411,870 1247,870 1247,822">
      <metadata confidence="0.0" speechType="" typography="" rank="" method="ocr" id="SAINTOGAN_ZIGPUCE_ET_ALFRED_010_line_100">ww VY  1.  JH  ve</metadata>
    </polygon>
    <polygon points="1200,662 1573,662 1573,738 1200,738 1200,662">
      <metadata confidence="0.0" speechType="" typography="" rank="" method="ocr" id="SAINTOGAN_ZIGPUCE_ET_ALFRED_010_line_101"> ET u N E</metadata>
    </polygon>
    <polygon points="1401,740 1566,740 1566,801 1401,801 1401,740">
      <metadata confidence="0.0" speechType="" typography="" rank="" method="ocr" id="SAINTOGAN_ZIGPUCE_ET_ALFRED_010_line_102">Fois o     L   PIUSOI</metadata>
    </polygon>
    <polygon points="1446,988 1564,988 1564,1015 1446,1015 1446,988">
      <metadata confidence="0.0" speechType="" typography="" rank="" method="ocr" id="SAINTOGAN_ZIGPUCE_ET_ALFRED_010_line_103">LA Ras </metadata>
    </polygon>
    <polygon points="1457,955 1540,955 1540,980 1457,980 1457,955">
      <metadata confidence="0.0" speechType="" typography="" rank="" method="ocr" id="SAINTOGAN_ZIGPUCE_ET_ALFRED_010_line_104">PAIE</metadata>
    </polygon>
    <polygon points="1430,803 1516,803 1516,835 1430,835 1430,803">
      <metadata confidence="0.0" speechType="" typography="" rank="" method="ocr" id="SAINTOGAN_ZIGPUCE_ET_ALFRED_010_line_105">NI  RE</metadata>
    </polygon>
    <polygon points="1391,643 1576,643 1576,671 1391,671 1391,643">
      <metadata confidence="0.0" speechType="" typography="" rank="" method="ocr" id="SAINTOGAN_ZIGPUCE_ET_ALFRED_010_line_106">BTRE TRAN </metadata>
    </polygon>
    <polygon points="1184,564 1361,564 1361,638 1184,638 1184,564">
      <metadata confidence="0.0" speechType="" typography="" rank="" method="ocr" id="SAINTOGAN_ZIGPUCE_ET_ALFRED_010_line_107">TYIR</metadata>
    </polygon>
    <polygon points="1440,530 1554,530 1554,597 1440,597 1440,530">
      <metadata confidence="0.0" speechType="" typography="" rank="" method="ocr" id="SAINTOGAN_ZIGPUCE_ET_ALFRED_010_line_108">I P OU R </metadata>
    </polygon>
    <polygon points="890,477 1555,477 1555,552 890,552 890,477">
      <metadata confidence="0.0" speechType="" typography="" rank="" method="ocr" id="SAINTOGAN_ZIGPUCE_ET_ALFRED_010_line_109">L     ENE  QH    ng      af  E  v      n.  1    2     1  r               L A JE u M E 0 o    LY Pou   </metadata>
    </polygon>
    <polygon points="1858,598 1989,598 1989,623 1858,623 1858,598">
      <metadata confidence="0.0" speechType="" typography="" rank="" method="ocr" id="SAINTOGAN_ZIGPUCE_ET_ALFRED_010_line_110">MA  uE</metadata>
    </polygon>
    <polygon points="1810,558 2175,558 2175,585 1810,585 1810,558">
      <metadata confidence="0.0" speechType="" typography="" rank="" method="ocr" id="SAINTOGAN_ZIGPUCE_ET_ALFRED_010_line_111">PA     V  SITER. LE</metadata>
    </polygon>
    <polygon points="2005,523 2115,523 2115,547 2005,547 2005,523">
      <metadata confidence="0.0" speechType="" typography="" rank="" method="ocr" id="SAINTOGAN_ZIGPUCE_ET_ALFRED_010_line_112">JE VO</metadata>
    </polygon>
    <polygon points="1801,485 1964,485 1964,510 1801,510 1801,485">
      <metadata confidence="0.0" speechType="" typography="" rank="" method="ocr" id="SAINTOGAN_ZIGPUCE_ET_ALFRED_010_line_113">VENGZ U</metadata>
    </polygon>
    <polygon points="2064,451 2172,451 2172,476 2064,476 2064,451">
      <metadata confidence="0.0" speechType="" typography="" rank="" method="ocr" id="SAINTOGAN_ZIGPUCE_ET_ALFRED_010_line_114">T  RDS</metadata>
    </polygon>
    <polygon points="1905,451 1965,451 1965,475 1905,475 1905,451">
      <metadata confidence="0.0" speechType="" typography="" rank="" method="ocr" id="SAINTOGAN_ZIGPUCE_ET_ALFRED_010_line_115">LE</metadata>
    </polygon>
    <polygon points="1806,448 1871,448 1871,473 1806,473 1806,448">
      <metadata confidence="0.0" speechType="" typography="" rank="" method="ocr" id="SAINTOGAN_ZIGPUCE_ET_ALFRED_010_line_116">EH</metadata>
    </polygon>
    <polygon points="168,1016 408,1016 408,1081 168,1081 168,1016">
      <metadata confidence="0.0" speechType="" typography="" rank="" method="ocr" id="SAINTOGAN_ZIGPUCE_ET_ALFRED_010_line_117">Q    EZDU</metadata>
    </polygon>
    <polygon points="567,810 642,810 642,845 567,845 567,810">
      <metadata confidence="0.0" speechType="" typography="" rank="" method="ocr" id="SAINTOGAN_ZIGPUCE_ET_ALFRED_010_line_118">.QF</metadata>
    </polygon>
    <polygon points="95,566 514,566 514,637 95,637 95,566">
      <metadata confidence="0.0" speechType="" typography="" rank="" method="ocr" id="SAINTOGAN_ZIGPUCE_ET_ALFRED_010_line_119">Les mures os   a 1  BAN 01     f</metadata>
    </polygon>
    <polygon points="450,544 659,544 659,585 450,585 450,544">
      <metadata confidence="0.0" speechType="" typography="" rank="" method="ocr" id="SAINTOGAN_ZIGPUCE_ET_ALFRED_010_line_120">  RQ</metadata>
    </polygon>
    <polygon points="314,534 392,534 392,555 314,555 314,534">
      <metadata confidence="0.0" speechType="" typography="" rank="" method="ocr" id="SAINTOGAN_ZIGPUCE_ET_ALFRED_010_line_121">DANS</metadata>
    </polygon>
    <polygon points="223,521 290,521 290,552 223,552 223,521">
      <metadata confidence="0.0" speechType="" typography="" rank="" method="ocr" id="SAINTOGAN_ZIGPUCE_ET_ALFRED_010_line_122">s  s</metadata>
    </polygon>
    <polygon points="95,526 161,526 161,548 95,548 95,526">
      <metadata confidence="0.0" speechType="" typography="" rank="" method="ocr" id="SAINTOGAN_ZIGPUCE_ET_ALFRED_010_line_123">RET</metadata>
    </polygon>
    <polygon points="196,485 383,485 383,519 196,519 196,485">
      <metadata confidence="0.0" speechType="" typography="" rank="" method="ocr" id="SAINTOGAN_ZIGPUCE_ET_ALFRED_010_line_124">ae o  raa</metadata>
    </polygon>
    <polygon points="103,453 247,453 247,478 103,478 103,453">
      <metadata confidence="0.0" speechType="" typography="" rank="" method="ocr" id="SAINTOGAN_ZIGPUCE_ET_ALFRED_010_line_125">QUELLE</metadata>
    </polygon>
    <polygon points="520,512 791,512 791,539 520,539 520,512">
      <metadata confidence="0.0" speechType="" typography="" rank="" method="ocr" id="SAINTOGAN_ZIGPUCE_ET_ALFRED_010_line_126">num 5 En   M  </metadata>
    </polygon>
    <polygon points="614,478 806,478 806,504 614,504 614,478">
      <metadata confidence="0.0" speechType="" typography="" rank="" method="ocr" id="SAINTOGAN_ZIGPUCE_ET_ALFRED_010_line_127">A RRIVERMS</metadata>
    </polygon>
    <polygon points="486,476 551,476 551,501 486,501 486,476">
      <metadata confidence="0.0" speechType="" typography="" rank="" method="ocr" id="SAINTOGAN_ZIGPUCE_ET_ALFRED_010_line_128">OUS</metadata>
    </polygon>
    <polygon points="457,441 801,441 801,478 457,478 457,441">
      <metadata confidence="0.0" speechType="" typography="" rank="" method="ocr" id="SAINTOGAN_ZIGPUCE_ET_ALFRED_010_line_129">Je cg o  s r          e  Que</metadata>
    </polygon>
    <polygon points="1089,555 1175,555 1175,589 1089,589 1089,555">
      <metadata confidence="0.0" speechType="" typography="" rank="" method="ocr" id="SAINTOGAN_ZIGPUCE_ET_ALFRED_010_line_130"> UA</metadata>
    </polygon>
    <polygon points="1287,458 1537,458 1537,488 1287,488 1287,458">
      <metadata confidence="0.0" speechType="" typography="" rank="" method="ocr" id="SAINTOGAN_ZIGPUCE_ET_ALFRED_010_line_131">LA Lena  que</metadata>
    </polygon>
    <polygon points="1126,459 1253,459 1253,482 1126,482 1126,459">
      <metadata confidence="0.0" speechType="" typography="" rank="" method="ocr" id="SAINTOGAN_ZIGPUCE_ET_ALFRED_010_line_132">ECRIRE</metadata>
    </polygon>
    <polygon points="1259,417 1528,417 1528,448 1259,448 1259,417">
      <metadata confidence="0.0" speechType="" typography="" rank="" method="ocr" id="SAINTOGAN_ZIGPUCE_ET_ALFRED_010_line_133">JE1a  Manue</metadata>
    </polygon>
    <polygon points="1134,420 1216,420 1216,450 1134,450 1134,420">
      <metadata confidence="0.0" speechType="" typography="" rank="" method="ocr" id="SAINTOGAN_ZIGPUCE_ET_ALFRED_010_line_134">Bol 5</metadata>
    </polygon>
    <polygon points="883,417 1022,417 1022,451 883,451 883,417">
      <metadata confidence="0.0" speechType="" typography="" rank="" method="ocr" id="SAINTOGAN_ZIGPUCE_ET_ALFRED_010_line_135">JAMBE</metadata>
    </polygon>
    <polygon points="85,305 414,305 414,334 85,334 85,305">
      <metadata confidence="0.0" speechType="" typography="" rank="" method="ocr" id="SAINTOGAN_ZIGPUCE_ET_ALFRED_010_line_136">la if </metadata>
    </polygon>
    <polygon points="1012,281 1210,281 1210,342 1012,342 1012,281">
      <metadata confidence="0.0" speechType="" typography="" rank="" method="ocr" id="SAINTOGAN_ZIGPUCE_ET_ALFRED_010_line_137">DFA</metadata>
    </polygon>
    <polygon points="85,273 210,273 210,303 85,303 85,273">
      <metadata confidence="0.0" speechType="" typography="" rank="" method="ocr" id="SAINTOGAN_ZIGPUCE_ET_ALFRED_010_line_138"> JI </metadata>
    </polygon>
    <polygon points="1735,126 1892,126 1892,191 1735,191 1735,126">
      <metadata confidence="0.0" speechType="" typography="" rank="" method="ocr" id="SAINTOGAN_ZIGPUCE_ET_ALFRED_010_line_139">        r       ..1 1                                  S      </metadata>
    </polygon>
  </svg>
</svg>
