<?xml version="1.0" encoding="UTF-8" standalone="no"?>
<svg width="5320" xmlns="http://www.w3.org/2000/svg" version="1.0" height="3632">
  <title>SAINTOGAN_PROSPER_ET_LE_MONSTRE_MARIN_036</title>
  <svg contentScriptType="text/ecmascript" zoomAndPan="magnify" contentStyleType="text/css" class="Page" preserveAspectRatio="xMidYMid meet" version="1.0">
    <image xmlns:xlink="http://www.w3.org/1999/xlink" x="0" y="0" width="5320" height="3632" xlink:href="../Pages/SAINTOGAN_PROSPER_ET_LE_MONSTRE_MARIN_036.jpg" xlink:type="simple" xlink:actuate="onLoad" preserveAspectRatio="xMidYMid meet" xlink:show="embed"/>
  </svg>
  <style type="text/css" xml:space="preserve">
        * { stroke-width: 0; stroke-linejoin: round; }
        .Unclassified { fill: orange; stroke: none; opacity: 1.0; visibility: hidden; }
        .Noise { fill: pink; stroke: none; opacity: 0.2; visibility: hidden; }
        .Panel { fill: red; stroke: none; opacity: 0.5; visibility: visible; image-rendering: optimizeSpeed; }
        .Line { fill: green; stroke: none; opacity: 0.5; visibility: visible; image-rendering: optimizeSpeed; }
        .TextArea { fill: grey; stroke: none; opacity: 0.2; visibility: visible; image-rendering: optimizeSpeed; }
        .Balloon { fill: cyan; stroke: none; opacity: 0.5; visibility: visible; image-rendering: optimizeSpeed; }
        .Letter { fill: blue; stroke: none; opacity: 0.2; visibility: hidden; }
        .Object { fill: yellow; stroke: none; opacity: 0.2; visibility: visible; image-rendering: optimizeSpeed; }
        .Page { fill: white; stroke: none; opacity: 0.5; visibility: visible; }
</style>
  <svg xmlns="http://www.w3.org/2000/svg" contentScriptType="text/ecmascript" zoomAndPan="magnify" contentStyleType="text/css" class="Line" preserveAspectRatio="xMidYMid meet" version="1.0">
    <polygon points="3922,3275 4853,3275 4853,3317 3922,3317 3922,3275">
      <metadata confidence="0.0" speechType="" typography="" rank="" method="ocr" id="SAINTOGAN_PROSPER_ET_LE_MONSTRE_MARIN_036_line_0">M. du Loch Ness  ex monstre  gentleman </metadata>
    </polygon>
    <polygon points="3075,3273 3598,3273 3598,3306 3075,3306 3075,3273">
      <metadata confidence="0.0" speechType="" typography="" rank="" method="ocr" id="SAINTOGAN_PROSPER_ET_LE_MONSTRE_MARIN_036_line_1">comme tout le monde </metadata>
    </polygon>
    <polygon points="3450,3230 3551,3230 3551,3261 3450,3261 3450,3230">
      <metadata confidence="0.0" speechType="" typography="" rank="" method="ocr" id="SAINTOGAN_PROSPER_ET_LE_MONSTRE_MARIN_036_line_2">deux</metadata>
    </polygon>
    <polygon points="3592,3230 3703,3230 3703,3268 3592,3268 3592,3230">
      <metadata confidence="0.0" speechType="" typography="" rank="" method="ocr" id="SAINTOGAN_PROSPER_ET_LE_MONSTRE_MARIN_036_line_3">pieds</metadata>
    </polygon>
    <polygon points="3339,3238 3409,3238 3409,3261 3339,3261 3339,3238">
      <metadata confidence="0.0" speechType="" typography="" rank="" method="ocr" id="SAINTOGAN_PROSPER_ET_LE_MONSTRE_MARIN_036_line_4">SUI </metadata>
    </polygon>
    <polygon points="3104,3229 3298,3229 3298,3261 3104,3261 3104,3229">
      <metadata confidence="0.0" speechType="" typography="" rank="" method="ocr" id="SAINTOGAN_PROSPER_ET_LE_MONSTRE_MARIN_036_line_5">marchiez</metadata>
    </polygon>
    <polygon points="2966,3238 3061,3238 3061,3261 2966,3261 2966,3238">
      <metadata confidence="0.0" speechType="" typography="" rank="" method="ocr" id="SAINTOGAN_PROSPER_ET_LE_MONSTRE_MARIN_036_line_6">VOUS</metadata>
    </polygon>
    <polygon points="3193,3185 3721,3185 3721,3224 3193,3224 3193,3185">
      <metadata confidence="0.0" speechType="" typography="" rank="" method="ocr" id="SAINTOGAN_PROSPER_ET_LE_MONSTRE_MARIN_036_line_7">Il est indispensable que</metadata>
    </polygon>
    <polygon points="2923,3185 3092,3185 3092,3223 2923,3223 2923,3185">
      <metadata confidence="0.0" speechType="" typography="" rank="" method="ocr" id="SAINTOGAN_PROSPER_ET_LE_MONSTRE_MARIN_036_line_8">Prosper</metadata>
    </polygon>
    <polygon points="4491,3068 4863,3068 4863,3159 4491,3159 4491,3068">
      <metadata confidence="0.0" speechType="" typography="" rank="" method="ocr" id="SAINTOGAN_PROSPER_ET_LE_MONSTRE_MARIN_036_line_9"> VI2 Y    .</metadata>
    </polygon>
    <polygon points="4540,2588 4712,2588 4712,2649 4540,2649 4540,2588">
      <metadata confidence="0.0" speechType="" typography="" rank="" method="ocr" id="SAINTOGAN_PROSPER_ET_LE_MONSTRE_MARIN_036_line_10">  a    Q  .    7       </metadata>
    </polygon>
    <polygon points="4625,2517 4722,2517 4722,2552 4625,2552 4625,2517">
      <metadata confidence="0.0" speechType="" typography="" rank="" method="ocr" id="SAINTOGAN_PROSPER_ET_LE_MONSTRE_MARIN_036_line_11">V      f  w</metadata>
    </polygon>
    <polygon points="4518,2471 4901,2471 4901,2573 4518,2573 4518,2471">
      <metadata confidence="0.0" speechType="" typography="" rank="" method="ocr" id="SAINTOGAN_PROSPER_ET_LE_MONSTRE_MARIN_036_line_12">        .           1  M                </metadata>
    </polygon>
    <polygon points="3775,2451 4212,2451 4212,2484 3775,2484 3775,2451">
      <metadata confidence="0.0" speechType="" typography="" rank="" method="ocr" id="SAINTOGAN_PROSPER_ET_LE_MONSTRE_MARIN_036_line_13">Le salon de coiffure</metadata>
    </polygon>
    <polygon points="4629,1737 4772,1737 4772,1782 4629,1782 4629,1737">
      <metadata confidence="0.0" speechType="" typography="" rank="" method="ocr" id="SAINTOGAN_PROSPER_ET_LE_MONSTRE_MARIN_036_line_14">ZNJ</metadata>
    </polygon>
    <polygon points="3968,1620 4153,1620 4153,1707 3968,1707 3968,1620">
      <metadata confidence="0.0" speechType="" typography="" rank="" method="ocr" id="SAINTOGAN_PROSPER_ET_LE_MONSTRE_MARIN_036_line_15">55215   M 5 5 7  U..  4  ff .       171      f   tf           vm..    1  . A</metadata>
    </polygon>
    <polygon points="3171,1558 3270,1558 3270,1590 3171,1590 3171,1558">
      <metadata confidence="0.0" speechType="" typography="" rank="" method="ocr" id="SAINTOGAN_PROSPER_ET_LE_MONSTRE_MARIN_036_line_16">Ness</metadata>
    </polygon>
    <polygon points="2960,1513 3503,1513 3503,1546 2960,1546 2960,1513">
      <metadata confidence="0.0" speechType="" typography="" rank="" method="ocr" id="SAINTOGAN_PROSPER_ET_LE_MONSTRE_MARIN_036_line_17">tume de Monsieur du Loch</metadata>
    </polygon>
    <polygon points="3227,1468 3482,1468 3482,1502 3227,1502 3227,1468">
      <metadata confidence="0.0" speechType="" typography="" rank="" method="ocr" id="SAINTOGAN_PROSPER_ET_LE_MONSTRE_MARIN_036_line_18">Voil   le cos</metadata>
    </polygon>
    <polygon points="2914,1468 3137,1468 3137,1501 2914,1501 2914,1468">
      <metadata confidence="0.0" speechType="" typography="" rank="" method="ocr" id="SAINTOGAN_PROSPER_ET_LE_MONSTRE_MARIN_036_line_19">Le tailleur</metadata>
    </polygon>
    <polygon points="4746,1249 4874,1249 4874,1287 4746,1287 4746,1249">
      <metadata confidence="0.0" speechType="" typography="" rank="" method="ocr" id="SAINTOGAN_PROSPER_ET_LE_MONSTRE_MARIN_036_line_20">F  V </metadata>
    </polygon>
    <polygon points="4328,821 4514,821 4514,887 4328,887 4328,821">
      <metadata confidence="0.0" speechType="" typography="" rank="" method="ocr" id="SAINTOGAN_PROSPER_ET_LE_MONSTRE_MARIN_036_line_21"> Il .</metadata>
    </polygon>
    <polygon points="3880,802 3985,802 3985,865 3880,865 3880,802">
      <metadata confidence="0.0" speechType="" typography="" rank="" method="ocr" id="SAINTOGAN_PROSPER_ET_LE_MONSTRE_MARIN_036_line_22">k.</metadata>
    </polygon>
    <polygon points="3045,751 3162,751 3162,810 3045,810 3045,751">
      <metadata confidence="0.0" speechType="" typography="" rank="" method="ocr" id="SAINTOGAN_PROSPER_ET_LE_MONSTRE_MARIN_036_line_23">  W  X  GF   </metadata>
    </polygon>
    <polygon points="3497,768 3621,768 3621,824 3497,824 3497,768">
      <metadata confidence="0.0" speechType="" typography="" rank="" method="ocr" id="SAINTOGAN_PROSPER_ET_LE_MONSTRE_MARIN_036_line_24">VZ</metadata>
    </polygon>
    <polygon points="3032,524 3127,524 3127,571 3032,571 3032,524">
      <metadata confidence="0.0" speechType="" typography="" rank="" method="ocr" id="SAINTOGAN_PROSPER_ET_LE_MONSTRE_MARIN_036_line_25"> Fifi</metadata>
    </polygon>
    <polygon points="3450,479 3606,479 3606,533 3450,533 3450,479">
      <metadata confidence="0.0" speechType="" typography="" rank="" method="ocr" id="SAINTOGAN_PROSPER_ET_LE_MONSTRE_MARIN_036_line_26">kw </metadata>
    </polygon>
    <polygon points="1534,3250 2236,3250 2236,3291 1534,3291 1534,3250">
      <metadata confidence="0.0" speechType="" typography="" rank="" method="ocr" id="SAINTOGAN_PROSPER_ET_LE_MONSTRE_MARIN_036_line_27">du Loch Ness apprend ses lettres</metadata>
    </polygon>
    <polygon points="703,3240 872,3240 872,3274 703,3274 703,3240">
      <metadata confidence="0.0" speechType="" typography="" rank="" method="ocr" id="SAINTOGAN_PROSPER_ET_LE_MONSTRE_MARIN_036_line_28">Le voici</metadata>
    </polygon>
    <polygon points="503,3238 616,3238 616,3270 503,3270 503,3238">
      <metadata confidence="0.0" speechType="" typography="" rank="" method="ocr" id="SAINTOGAN_PROSPER_ET_LE_MONSTRE_MARIN_036_line_29">ami  </metadata>
    </polygon>
    <polygon points="1492,3207 2284,3207 2284,3243 1492,3243 1492,3207">
      <metadata confidence="0.0" speechType="" typography="" rank="" method="ocr" id="SAINTOGAN_PROSPER_ET_LE_MONSTRE_MARIN_036_line_30">En atfenda  nt son costume. le monstr  </metadata>
    </polygon>
    <polygon points="859,3204 969,3204 969,3232 859,3232 859,3204">
      <metadata confidence="0.0" speechType="" typography="" rank="" method="ocr" id="SAINTOGAN_PROSPER_ET_LE_MONSTRE_MARIN_036_line_31">VO  FG</metadata>
    </polygon>
    <polygon points="606,3194 810,3194 810,3228 606,3228 606,3194">
      <metadata confidence="0.0" speechType="" typography="" rank="" method="ocr" id="SAINTOGAN_PROSPER_ET_LE_MONSTRE_MARIN_036_line_32">Monsieur</metadata>
    </polygon>
    <polygon points="424,3193 534,3193 534,3225 424,3225 424,3193">
      <metadata confidence="0.0" speechType="" typography="" rank="" method="ocr" id="SAINTOGAN_PROSPER_ET_LE_MONSTRE_MARIN_036_line_33">est il</metadata>
    </polygon>
    <polygon points="425,3144 830,3144 830,3190 425,3190 425,3144">
      <metadata confidence="0.0" speechType="" typography="" rank="" method="ocr" id="SAINTOGAN_PROSPER_ET_LE_MONSTRE_MARIN_036_line_34">sieurs   l     hants  </metadata>
    </polygon>
    <polygon points="426,3104 953,3104 953,3146 426,3146 426,3104">
      <metadata confidence="0.0" speechType="" typography="" rank="" method="ocr" id="SAINTOGAN_PROSPER_ET_LE_MONSTRE_MARIN_036_line_35">client  le de plusieur   mes</metadata>
    </polygon>
    <polygon points="720,3063 970,3063 970,3105 720,3105 720,3063">
      <metadata confidence="0.0" speechType="" typography="" rank="" method="ocr" id="SAINTOGAN_PROSPER_ET_LE_MONSTRE_MARIN_036_line_36">Oh  j ai la</metadata>
    </polygon>
    <polygon points="384,3059 616,3059 616,3092 384,3092 384,3059">
      <metadata confidence="0.0" speechType="" typography="" rank="" method="ocr" id="SAINTOGAN_PROSPER_ET_LE_MONSTRE_MARIN_036_line_37">Le tailleur</metadata>
    </polygon>
    <polygon points="428,3015 958,3015 958,3061 428,3061 428,3015">
      <metadata confidence="0.0" speechType="" typography="" rank="" method="ocr" id="SAINTOGAN_PROSPER_ET_LE_MONSTRE_MARIN_036_line_38">pr  viens  il est assez gros</metadata>
    </polygon>
    <polygon points="584,2975 972,2975 972,3016 584,3016 584,2975">
      <metadata confidence="0.0" speechType="" typography="" rank="" method="ocr" id="SAINTOGAN_PROSPER_ET_LE_MONSTRE_MARIN_036_line_39">seulement . je vous</metadata>
    </polygon>
    <polygon points="1678,2957 1780,2957 1780,3002 1678,3002 1678,2957">
      <metadata confidence="0.0" speechType="" typography="" rank="" method="ocr" id="SAINTOGAN_PROSPER_ET_LE_MONSTRE_MARIN_036_line_40">.  f.f      </metadata>
    </polygon>
    <polygon points="428,2978 533,2978 533,3004 428,3004 428,2978">
      <metadata confidence="0.0" speechType="" typography="" rank="" method="ocr" id="SAINTOGAN_PROSPER_ET_LE_MONSTRE_MARIN_036_line_41">9.11118</metadata>
    </polygon>
    <polygon points="1246,2926 1784,2926 1784,3016 1246,3016 1246,2926">
      <metadata confidence="0.0" speechType="" typography="" rank="" method="ocr" id="SAINTOGAN_PROSPER_ET_LE_MONSTRE_MARIN_036_line_42">      i       W v  M   1 ...       5                 a          </metadata>
    </polygon>
    <polygon points="430,2929 973,2929 973,2969 430,2969 430,2929">
      <metadata confidence="0.0" speechType="" typography="" rank="" method="ocr" id="SAINTOGAN_PROSPER_ET_LE_MONSTRE_MARIN_036_line_43">un complet pour un de mes</metadata>
    </polygon>
    <polygon points="1669,2891 1780,2891 1780,2955 1669,2955 1669,2891">
      <metadata confidence="0.0" speechType="" typography="" rank="" method="ocr" id="SAINTOGAN_PROSPER_ET_LE_MONSTRE_MARIN_036_line_44">L   r      u  x  zs</metadata>
    </polygon>
    <polygon points="430,2883 975,2883 975,2924 430,2924 430,2883">
      <metadata confidence="0.0" speechType="" typography="" rank="" method="ocr" id="SAINTOGAN_PROSPER_ET_LE_MONSTRE_MARIN_036_line_45">voudrais que vous fissi  z</metadata>
    </polygon>
    <polygon points="1387,2839 1784,2839 1784,2905 1387,2905 1387,2839">
      <metadata confidence="0.0" speechType="" typography="" rank="" method="ocr" id="SAINTOGAN_PROSPER_ET_LE_MONSTRE_MARIN_036_line_46">   f    1</metadata>
    </polygon>
    <polygon points="683,2842 885,2842 885,2875 683,2875 683,2842">
      <metadata confidence="0.0" speechType="" typography="" rank="" method="ocr" id="SAINTOGAN_PROSPER_ET_LE_MONSTRE_MARIN_036_line_47">Monsieur</metadata>
    </polygon>
    <polygon points="387,2837 556,2837 556,2877 387,2877 387,2837">
      <metadata confidence="0.0" speechType="" typography="" rank="" method="ocr" id="SAINTOGAN_PROSPER_ET_LE_MONSTRE_MARIN_036_line_48">Prosper</metadata>
    </polygon>
    <polygon points="1340,2791 1531,2791 1531,2885 1340,2885 1340,2791">
      <metadata confidence="0.0" speechType="" typography="" rank="" method="ocr" id="SAINTOGAN_PROSPER_ET_LE_MONSTRE_MARIN_036_line_49">1 4</metadata>
    </polygon>
    <polygon points="921,2484 993,2484 993,2539 921,2539 921,2484">
      <metadata confidence="0.0" speechType="" typography="" rank="" method="ocr" id="SAINTOGAN_PROSPER_ET_LE_MONSTRE_MARIN_036_line_50">fl  </metadata>
    </polygon>
    <polygon points="1393,2461 2053,2461 2053,2562 1393,2562 1393,2461">
      <metadata confidence="0.0" speechType="" typography="" rank="" method="ocr" id="SAINTOGAN_PROSPER_ET_LE_MONSTRE_MARIN_036_line_51">    zm.Q              W   r     .    5              3    . f  9 9     W                   I     ww  </metadata>
    </polygon>
    <polygon points="1546,2377 2006,2377 2006,2480 1546,2480 1546,2377">
      <metadata confidence="0.0" speechType="" typography="" rank="" method="ocr" id="SAINTOGAN_PROSPER_ET_LE_MONSTRE_MARIN_036_line_52">             W .   .            l        V   . .     .       l   m</metadata>
    </polygon>
    <polygon points="709,2327 1109,2327 1109,2409 709,2409 709,2327">
      <metadata confidence="0.0" speechType="" typography="" rank="" method="ocr" id="SAINTOGAN_PROSPER_ET_LE_MONSTRE_MARIN_036_line_53">    G       3      x            .O 9H  amv  </metadata>
    </polygon>
    <polygon points="510,2293 742,2293 742,2353 510,2353 510,2293">
      <metadata confidence="0.0" speechType="" typography="" rank="" method="ocr" id="SAINTOGAN_PROSPER_ET_LE_MONSTRE_MARIN_036_line_54">        F         NW</metadata>
    </polygon>
    <polygon points="1555,2247 2057,2247 2057,2325 1555,2325 1555,2247">
      <metadata confidence="0.0" speechType="" typography="" rank="" method="ocr" id="SAINTOGAN_PROSPER_ET_LE_MONSTRE_MARIN_036_line_55">    .       s         . 9   fz   sm  </metadata>
    </polygon>
    <polygon points="1784,2226 1849,2226 1849,2274 1784,2274 1784,2226">
      <metadata confidence="0.0" speechType="" typography="" rank="" method="ocr" id="SAINTOGAN_PROSPER_ET_LE_MONSTRE_MARIN_036_line_56">   fe </metadata>
    </polygon>
    <polygon points="960,2087 1159,2087 1159,2168 960,2168 960,2087">
      <metadata confidence="0.0" speechType="" typography="" rank="" method="ocr" id="SAINTOGAN_PROSPER_ET_LE_MONSTRE_MARIN_036_line_57"> I  .    </metadata>
    </polygon>
    <polygon points="510,2059 811,2059 811,2150 510,2150 510,2059">
      <metadata confidence="0.0" speechType="" typography="" rank="" method="ocr" id="SAINTOGAN_PROSPER_ET_LE_MONSTRE_MARIN_036_line_58">f m </metadata>
    </polygon>
    <polygon points="519,1947 928,1947 928,2016 519,2016 519,1947">
      <metadata confidence="0.0" speechType="" typography="" rank="" method="ocr" id="SAINTOGAN_PROSPER_ET_LE_MONSTRE_MARIN_036_line_59"> UI f  i </metadata>
    </polygon>
    <polygon points="916,1915 1134,1915 1134,1967 916,1967 916,1915">
      <metadata confidence="0.0" speechType="" typography="" rank="" method="ocr" id="SAINTOGAN_PROSPER_ET_LE_MONSTRE_MARIN_036_line_60">faq   </metadata>
    </polygon>
    <polygon points="1932,2003 2422,2003 2422,2040 1932,2040 1932,2003">
      <metadata confidence="0.0" speechType="" typography="" rank="" method="ocr" id="SAINTOGAN_PROSPER_ET_LE_MONSTRE_MARIN_036_line_61">Il lui faut un v  tement</metadata>
    </polygon>
    <polygon points="1699,2007 1873,2007 1873,2034 1699,2034 1699,2007">
      <metadata confidence="0.0" speechType="" typography="" rank="" method="ocr" id="SAINTOGAN_PROSPER_ET_LE_MONSTRE_MARIN_036_line_62">f   l0l lS  I    </metadata>
    </polygon>
    <polygon points="2379,1972 2523,1972 2523,2002 2379,2002 2379,1972">
      <metadata confidence="0.0" speechType="" typography="" rank="" method="ocr" id="SAINTOGAN_PROSPER_ET_LE_MONSTRE_MARIN_036_line_63">pauvre</metadata>
    </polygon>
    <polygon points="2192,1966 2253,1966 2253,1994 2192,1994 2192,1966">
      <metadata confidence="0.0" speechType="" typography="" rank="" method="ocr" id="SAINTOGAN_PROSPER_ET_LE_MONSTRE_MARIN_036_line_64">GS</metadata>
    </polygon>
    <polygon points="1613,1956 2019,1956 2019,1991 1613,1991 1613,1956">
      <metadata confidence="0.0" speechType="" typography="" rank="" method="ocr" id="SAINTOGAN_PROSPER_ET_LE_MONSTRE_MARIN_036_line_65">laisser dans l   tat</metadata>
    </polygon>
    <polygon points="1835,1914 2523,1914 2523,1958 1835,1958 1835,1914">
      <metadata confidence="0.0" speechType="" typography="" rank="" method="ocr" id="SAINTOGAN_PROSPER_ET_LE_MONSTRE_MARIN_036_line_66">Evidemment je ne peux pas le</metadata>
    </polygon>
    <polygon points="1570,1910 1736,1910 1736,1950 1570,1950 1570,1910">
      <metadata confidence="0.0" speechType="" typography="" rank="" method="ocr" id="SAINTOGAN_PROSPER_ET_LE_MONSTRE_MARIN_036_line_67">Prosper</metadata>
    </polygon>
    <polygon points="1186,1669 1317,1669 1317,1717 1186,1717 1186,1669">
      <metadata confidence="0.0" speechType="" typography="" rank="" method="ocr" id="SAINTOGAN_PROSPER_ET_LE_MONSTRE_MARIN_036_line_68">     ZE .</metadata>
    </polygon>
    <polygon points="2317,1486 2463,1486 2463,1543 2317,1543 2317,1486">
      <metadata confidence="0.0" speechType="" typography="" rank="" method="ocr" id="SAINTOGAN_PROSPER_ET_LE_MONSTRE_MARIN_036_line_69"> fll </metadata>
    </polygon>
    <polygon points="1522,1459 1640,1459 1640,1520 1522,1520 1522,1459">
      <metadata confidence="0.0" speechType="" typography="" rank="" method="ocr" id="SAINTOGAN_PROSPER_ET_LE_MONSTRE_MARIN_036_line_70">   99   023   125</metadata>
    </polygon>
    <polygon points="502,1709 763,1709 763,1742 502,1742 502,1709">
      <metadata confidence="0.0" speechType="" typography="" rank="" method="ocr" id="SAINTOGAN_PROSPER_ET_LE_MONSTRE_MARIN_036_line_71">voici    l aiSe</metadata>
    </polygon>
    <polygon points="442,1663 826,1663 826,1698 442,1698 442,1663">
      <metadata confidence="0.0" speechType="" typography="" rank="" method="ocr" id="SAINTOGAN_PROSPER_ET_LE_MONSTRE_MARIN_036_line_72">du Loch Ness. me</metadata>
    </polygon>
    <polygon points="650,1626 826,1626 826,1654 650,1654 650,1626">
      <metadata confidence="0.0" speechType="" typography="" rank="" method="ocr" id="SAINTOGAN_PROSPER_ET_LE_MONSTRE_MARIN_036_line_73">ITIOIIS  FE</metadata>
    </polygon>
    <polygon points="443,1623 529,1623 529,1651 443,1651 443,1623">
      <metadata confidence="0.0" speechType="" typography="" rank="" method="ocr" id="SAINTOGAN_PROSPER_ET_LE_MONSTRE_MARIN_036_line_74"> ll fe</metadata>
    </polygon>
    <polygon points="443,1574 805,1574 805,1614 443,1614 443,1574">
      <metadata confidence="0.0" speechType="" typography="" rank="" method="ocr" id="SAINTOGAN_PROSPER_ET_LE_MONSTRE_MARIN_036_line_75">ch  e pour la cap</metadata>
    </polygon>
    <polygon points="444,1537 804,1537 804,1572 444,1572 444,1537">
      <metadata confidence="0.0" speechType="" typography="" rank="" method="ocr" id="SAINTOGAN_PROSPER_ET_LE_MONSTRE_MARIN_036_line_76">prnme quej ai tou</metadata>
    </polygon>
    <polygon points="664,1487 827,1487 827,1520 664,1520 664,1487">
      <metadata confidence="0.0" speechType="" typography="" rank="" method="ocr" id="SAINTOGAN_PROSPER_ET_LE_MONSTRE_MARIN_036_line_77">Avec la</metadata>
    </polygon>
    <polygon points="401,1484 570,1484 570,1525 401,1525 401,1484">
      <metadata confidence="0.0" speechType="" typography="" rank="" method="ocr" id="SAINTOGAN_PROSPER_ET_LE_MONSTRE_MARIN_036_line_78">Prosper</metadata>
    </polygon>
    <polygon points="1382,1311 1574,1311 1574,1373 1382,1373 1382,1311">
      <metadata confidence="0.0" speechType="" typography="" rank="" method="ocr" id="SAINTOGAN_PROSPER_ET_LE_MONSTRE_MARIN_036_line_79">5 . Q  </metadata>
    </polygon>
    <polygon points="1339,1253 1997,1253 1997,1348 1339,1348 1339,1253">
      <metadata confidence="0.0" speechType="" typography="" rank="" method="ocr" id="SAINTOGAN_PROSPER_ET_LE_MONSTRE_MARIN_036_line_80">g...         .    .     .      K2             n   .      T ff  </metadata>
    </polygon>
    <polygon points="633,1165 743,1165 743,1220 633,1220 633,1165">
      <metadata confidence="0.0" speechType="" typography="" rank="" method="ocr" id="SAINTOGAN_PROSPER_ET_LE_MONSTRE_MARIN_036_line_81"> ff  </metadata>
    </polygon>
    <polygon points="704,855 824,855 824,905 704,905 704,855">
      <metadata confidence="0.0" speechType="" typography="" rank="" method="ocr" id="SAINTOGAN_PROSPER_ET_LE_MONSTRE_MARIN_036_line_82">K  r  </metadata>
    </polygon>
    <polygon points="706,832 836,832 836,886 706,886 706,832">
      <metadata confidence="0.0" speechType="" typography="" rank="" method="ocr" id="SAINTOGAN_PROSPER_ET_LE_MONSTRE_MARIN_036_line_83">P. 4</metadata>
    </polygon>
    <polygon points="526,685 675,685 675,734 526,734 526,685">
      <metadata confidence="0.0" speechType="" typography="" rank="" method="ocr" id="SAINTOGAN_PROSPER_ET_LE_MONSTRE_MARIN_036_line_84">C  ok </metadata>
    </polygon>
    <polygon points="4428,204 5068,204 5068,246 4428,246 4428,204">
      <metadata confidence="0.0" speechType="" typography="" rank="" method="ocr" id="SAINTOGAN_PROSPER_ET_LE_MONSTRE_MARIN_036_line_85">A LA DERNI  RE MODE </metadata>
    </polygon>
    <polygon points="379,172 996,172 996,216 379,216 379,172">
      <metadata confidence="0.0" speechType="" typography="" rank="" method="ocr" id="SAINTOGAN_PROSPER_ET_LE_MONSTRE_MARIN_036_line_86">COMPLET SUR MESURE</metadata>
    </polygon>
  </svg>
</svg>
