<svg xmlns="http://www.w3.org/2000/svg" width="700" version="1.0" height="720"><title>CYB_TRAFFIC_006</title><svg contentScriptType="text/ecmascript" zoomAndPan="magnify" contentStyleType="text/css" class="Page" preserveAspectRatio="xMidYMid meet" version="1.0"><image xmlns:xlink="http://www.w3.org/1999/xlink" x="0" y="0" width="700" height="720" xlink:href="../Pages/CYB_TRAFFIC_006.jpg" xlink:type="simple" xlink:actuate="onLoad" preserveAspectRatio="xMidYMid meet" xlink:show="embed"/></svg><style type="text/css" xml:space="preserve">
            * { stroke-width: 0; stroke-linejoin: round; }
            .Unclassified { fill: orange; stroke: none; opacity: 1.0; visibility: hidden; }
            .Noise { fill: pink; stroke: none; opacity: 0.2; visibility: hidden; }
            .Panel { fill: red; stroke: none; opacity: 0.5; visibility: visible; image-rendering: optimizeSpeed; }
            .Line { fill: green; stroke: none; opacity: 0.5; visibility: visible; image-rendering: optimizeSpeed; }
            .TextArea { fill: grey; stroke: none; opacity: 0.2; visibility: visible; image-rendering: optimizeSpeed; }
            .Balloon { fill: cyan; stroke: none; opacity: 0.5; visibility: visible; image-rendering: optimizeSpeed; }
            .Letter { fill: blue; stroke: none; opacity: 0.2; visibility: hidden; }
            .Object { fill: yellow; stroke: none; opacity: 0.2; visibility: visible; image-rendering: optimizeSpeed; }
            .Page { fill: white; stroke: none; opacity: 0.5; visibility: visible; }
            polygon:hover { opacity:0.2; }
    </style><ns0:svg xmlns:ns0="http://www.w3.org/2000/svg" contentScriptType="text/ecmascript" zoomAndPan="magnify" class="Panel" contentStyleType="text/css" preserveAspectRatio="xMidYMid meet" version="1.0">
        <ns0:polygon points="646,252 455,252 455,59 646,59 646,252">
            <ns0:metadata id="CYB_TRAFFIC_006_panel_2" rank="3"/>
        </ns0:polygon>
        <ns0:polygon points="245,460 53,460 53,266 245,266 245,460">
            <ns0:metadata id="CYB_TRAFFIC_006_panel_3" rank="4"/>
        </ns0:polygon>
        <ns0:polygon points="643,670 454,670 454,475 643,475 643,670">
            <ns0:metadata id="CYB_TRAFFIC_006_panel_8" rank="9"/>
        </ns0:polygon>
        <ns0:polygon points="445,462 254,462 254,267 445,267 445,462">
            <ns0:metadata id="CYB_TRAFFIC_006_panel_4" rank="5"/>
        </ns0:polygon>
        <ns0:polygon points="247,251 55,251 55,58 247,58 247,251">
            <ns0:metadata id="CYB_TRAFFIC_006_panel_0" rank="1"/>
        </ns0:polygon>
        <ns0:polygon points="445,665 255,665 255,473 445,473 445,665">
            <ns0:metadata id="CYB_TRAFFIC_006_panel_7" rank="8"/>
        </ns0:polygon>
        <ns0:polygon points="446,252 258,252 258,59 446,59 446,252">
            <ns0:metadata id="CYB_TRAFFIC_006_panel_1" rank="2"/>
        </ns0:polygon>
        <ns0:polygon points="647,462 454,462 454,267 647,267 647,462">
            <ns0:metadata id="CYB_TRAFFIC_006_panel_5" rank="6"/>
        </ns0:polygon>
        <ns0:polygon points="244,669 53,669 53,472 244,472 244,669">
            <ns0:metadata id="CYB_TRAFFIC_006_panel_6" rank="7"/>
        </ns0:polygon>
    </ns0:svg>
    <ns1:svg xmlns:ns1="http://www.w3.org/2000/svg" contentScriptType="text/ecmascript" zoomAndPan="magnify" class="Balloon" contentStyleType="text/css" preserveAspectRatio="xMidYMid meet" version="1.0">
        <ns1:polygon points="642,563 508,548 495,545 467,538 461,532 464,524 490,480 615,482 628,495 642,535 642,563">
            <ns1:metadata id="CYB_TRAFFIC_006_balloon_10" tailTip="642,563" tailDirection="SE" rank="21"/>
        </ns1:polygon>
        <ns1:polygon points="189,513 188,522 185,536 179,548 166,557 149,563 107,576 68,556 59,547 61,482 73,479 171,480 181,491 189,513">
            <ns1:metadata id="CYB_TRAFFIC_006_balloon_7" tailTip="107,576" tailDirection="S" rank="15"/>
        </ns1:polygon>
        <ns1:polygon points="445,126 391,152 378,155 261,118 261,63 443,62 445,126">
            <ns1:metadata id="CYB_TRAFFIC_006_balloon_1" tailTip="378,155" tailDirection="SW" rank="3"/>
        </ns1:polygon>
        <ns1:polygon points="580,94 579,104 577,112 569,120 556,126 521,136 480,127 471,120 462,112 463,101 467,82 478,78 506,77 554,77 572,82 580,94">
            <ns1:metadata id="CYB_TRAFFIC_006_balloon_2" tailTip="521,136" tailDirection="S" rank="5"/>
        </ns1:polygon>
        <ns1:polygon points="243,369 236,374 197,395 123,367 109,357 102,340 102,312 107,296 116,285 122,281 243,280 243,369">
            <ns1:metadata id="CYB_TRAFFIC_006_balloon_4" tailTip="197,395" tailDirection="SW" rank="9"/>
        </ns1:polygon>
        <ns1:polygon points="245,529 244,561 237,567 217,577 198,561 191,553 189,542 189,535 192,529 196,527 245,529">
            <ns1:metadata id="CYB_TRAFFIC_006_balloon_8" tailTip="217,577" tailDirection="S" rank="17"/>
        </ns1:polygon>
        <ns1:polygon points="445,269 444,335 437,371 434,372 302,331 277,315 267,303 285,268 445,269">
            <ns1:metadata id="CYB_TRAFFIC_006_balloon_5" tailTip="434,372" tailDirection="SE" rank="11"/>
        </ns1:polygon>
        <ns1:polygon points="234,59 233,69 229,95 222,108 210,121 193,129 177,135 118,154 75,120 65,111 56,99 57,60 234,59">
            <ns1:metadata id="CYB_TRAFFIC_006_balloon_0" tailTip="118,154" tailDirection="S" rank="1"/>
        </ns1:polygon>
        <ns1:polygon points="626,318 624,328 609,335 569,344 527,335 508,330 491,322 482,311 489,301 582,299 605,301 620,305 626,318">
            <ns1:metadata id="CYB_TRAFFIC_006_balloon_6" tailTip="569,344" tailDirection="SW" rank="13"/>
        </ns1:polygon>
        <ns1:polygon points="393,533 357,548 306,532 286,524 292,505 305,490 320,488 384,492 390,517 393,533">
            <ns1:metadata id="CYB_TRAFFIC_006_balloon_9" tailTip="357,548" tailDirection="SW" rank="19"/>
        </ns1:polygon>
        <ns1:polygon points="646,172 623,181 587,164 577,155 573,137 573,126 578,115 584,106 596,99 601,97 646,96 646,172">
            <ns1:metadata id="CYB_TRAFFIC_006_balloon_3" tailTip="623,181" tailDirection="S" rank="7"/>
        </ns1:polygon>
    </ns1:svg>
    <ns2:svg xmlns:ns2="http://www.w3.org/2000/svg" contentScriptType="text/ecmascript" zoomAndPan="magnify" class="Line" contentStyleType="text/css" preserveAspectRatio="xMidYMid meet" version="1.0">
        <ns2:polygon points="425,325 423,335 331,335 331,324 425,325">
            <ns2:metadata id="CYB_TRAFFIC_006_line_33" rank="67"/>
        </ns2:polygon>
        <ns2:polygon points="143,555 101,555 101,545 142,545 143,555">
            <ns2:metadata id="CYB_TRAFFIC_006_line_42" rank="85"/>
        </ns2:polygon>
        <ns2:polygon points="435,314 282,314 282,303 435,303 435,314">
            <ns2:metadata id="CYB_TRAFFIC_006_line_31" rank="63"/>
        </ns2:polygon>
        <ns2:polygon points="219,85 64,85 64,75 219,75 219,85">
            <ns2:metadata id="CYB_TRAFFIC_006_line_2" rank="5"/>
        </ns2:polygon>
        <ns2:polygon points="235,304 116,304 116,294 235,294 235,304">
            <ns2:metadata id="CYB_TRAFFIC_006_line_21" rank="43"/>
        </ns2:polygon>
        <ns2:polygon points="237,551 201,551 201,540 237,540 237,551">
            <ns2:metadata id="CYB_TRAFFIC_006_line_43" rank="87"/>
        </ns2:polygon>
        <ns2:polygon points="212,95 71,95 71,84 212,84 212,95">
            <ns2:metadata id="CYB_TRAFFIC_006_line_3" rank="7"/>
        </ns2:polygon>
        <ns2:polygon points="596,511 507,511 507,495 596,495 596,511">
            <ns2:metadata id="CYB_TRAFFIC_006_line_48" rank="97"/>
        </ns2:polygon>
        <ns2:polygon points="378,127 322,127 322,118 378,118 378,127">
            <ns2:metadata id="CYB_TRAFFIC_006_line_12" rank="25"/>
        </ns2:polygon>
        <ns2:polygon points="642,144 641,155 586,155 586,146 642,144">
            <ns2:metadata id="CYB_TRAFFIC_006_line_19" rank="39"/>
        </ns2:polygon>
        <ns2:polygon points="173,523 71,523 71,514 173,514 173,523">
            <ns2:metadata id="CYB_TRAFFIC_006_line_39" rank="79"/>
        </ns2:polygon>
        <ns2:polygon points="159,534 86,534 86,524 159,524 159,534">
            <ns2:metadata id="CYB_TRAFFIC_006_line_40" rank="81"/>
        </ns2:polygon>
        <ns2:polygon points="435,96 269,96 269,86 435,86 435,96">
            <ns2:metadata id="CYB_TRAFFIC_006_line_9" rank="19"/>
        </ns2:polygon>
        <ns2:polygon points="439,118 266,118 266,107 439,107 439,118">
            <ns2:metadata id="CYB_TRAFFIC_006_line_11" rank="23"/>
        </ns2:polygon>
        <ns2:polygon points="203,336 149,336 149,326 203,326 203,336">
            <ns2:metadata id="CYB_TRAFFIC_006_line_24" rank="49"/>
        </ns2:polygon>
        <ns2:polygon points="530,116 500,116 500,106 530,106 530,116">
            <ns2:metadata id="CYB_TRAFFIC_006_line_15" rank="31"/>
        </ns2:polygon>
        <ns2:polygon points="429,282 288,282 290,272 429,274 429,282">
            <ns2:metadata id="CYB_TRAFFIC_006_line_28" rank="57"/>
        </ns2:polygon>
        <ns2:polygon points="430,75 275,76 275,65 430,65 430,75">
            <ns2:metadata id="CYB_TRAFFIC_006_line_7" rank="15"/>
        </ns2:polygon>
        <ns2:polygon points="586,536 516,536 516,524 586,524 586,536">
            <ns2:metadata id="CYB_TRAFFIC_006_line_50" rank="101"/>
        </ns2:polygon>
        <ns2:polygon points="170,492 74,492 74,481 170,482 170,492">
            <ns2:metadata id="CYB_TRAFFIC_006_line_36" rank="73"/>
        </ns2:polygon>
        <ns2:polygon points="434,303 283,303 283,293 434,293 434,303">
            <ns2:metadata id="CYB_TRAFFIC_006_line_30" rank="61"/>
        </ns2:polygon>
        <ns2:polygon points="173,513 71,513 71,502 173,502 173,513">
            <ns2:metadata id="CYB_TRAFFIC_006_line_38" rank="77"/>
        </ns2:polygon>
        <ns2:polygon points="226,315 125,315 125,304 226,304 226,315">
            <ns2:metadata id="CYB_TRAFFIC_006_line_22" rank="45"/>
        </ns2:polygon>
        <ns2:polygon points="221,106 63,106 63,95 221,95 221,106">
            <ns2:metadata id="CYB_TRAFFIC_006_line_4" rank="9"/>
        </ns2:polygon>
        <ns2:polygon points="164,545 81,545 81,535 164,535 164,545">
            <ns2:metadata id="CYB_TRAFFIC_006_line_41" rank="83"/>
        </ns2:polygon>
        <ns2:polygon points="207,358 206,367 143,367 143,358 207,358">
            <ns2:metadata id="CYB_TRAFFIC_006_line_27" rank="55"/>
        </ns2:polygon>
        <ns2:polygon points="201,75 82,75 82,64 201,64 201,75">
            <ns2:metadata id="CYB_TRAFFIC_006_line_1" rank="3"/>
        </ns2:polygon>
        <ns2:polygon points="174,126 109,126 109,117 174,117 174,126">
            <ns2:metadata id="CYB_TRAFFIC_006_line_6" rank="13"/>
        </ns2:polygon>
        <ns2:polygon points="234,325 117,325 117,315 234,315 234,325">
            <ns2:metadata id="CYB_TRAFFIC_006_line_23" rank="47"/>
        </ns2:polygon>
        <ns2:polygon points="627,145 600,145 600,134 627,134 627,145">
            <ns2:metadata id="CYB_TRAFFIC_006_line_18" rank="37"/>
        </ns2:polygon>
        <ns2:polygon points="383,514 307,514 307,504 383,504 383,514">
            <ns2:metadata id="CYB_TRAFFIC_006_line_45" rank="91"/>
        </ns2:polygon>
        <ns2:polygon points="438,85 267,85 267,75 438,75 438,85">
            <ns2:metadata id="CYB_TRAFFIC_006_line_8" rank="17"/>
        </ns2:polygon>
        <ns2:polygon points="237,357 114,357 114,348 237,348 237,357">
            <ns2:metadata id="CYB_TRAFFIC_006_line_26" rank="53"/>
        </ns2:polygon>
        <ns2:polygon points="640,123 587,123 587,112 640,112 640,123">
            <ns2:metadata id="CYB_TRAFFIC_006_line_16" rank="33"/>
        </ns2:polygon>
        <ns2:polygon points="432,284 431,293 287,293 287,284 432,284">
            <ns2:metadata id="CYB_TRAFFIC_006_line_29" rank="59"/>
        </ns2:polygon>
        <ns2:polygon points="174,502 69,502 69,492 174,492 174,502">
            <ns2:metadata id="CYB_TRAFFIC_006_line_37" rank="75"/>
        </ns2:polygon>
        <ns2:polygon points="614,495 488,495 488,481 614,481 614,495">
            <ns2:metadata id="CYB_TRAFFIC_006_line_47" rank="95"/>
        </ns2:polygon>
        <ns2:polygon points="421,324 294,324 294,313 421,313 421,324">
            <ns2:metadata id="CYB_TRAFFIC_006_line_32" rank="65"/>
        </ns2:polygon>
        <ns2:polygon points="230,294 121,294 121,284 230,284 230,294">
            <ns2:metadata id="CYB_TRAFFIC_006_line_20" rank="41"/>
        </ns2:polygon>
        <ns2:polygon points="238,347 112,347 112,336 238,336 238,347">
            <ns2:metadata id="CYB_TRAFFIC_006_line_25" rank="51"/>
        </ns2:polygon>
        <ns2:polygon points="430,106 276,106 276,97 430,97 430,106">
            <ns2:metadata id="CYB_TRAFFIC_006_line_10" rank="21"/>
        </ns2:polygon>
        <ns2:polygon points="554,106 477,106 477,95 554,95 554,106">
            <ns2:metadata id="CYB_TRAFFIC_006_line_14" rank="29"/>
        </ns2:polygon>
        <ns2:polygon points="381,503 310,503 310,492 381,492 381,503">
            <ns2:metadata id="CYB_TRAFFIC_006_line_44" rank="89"/>
        </ns2:polygon>
        <ns2:polygon points="186,117 97,117 97,106 186,106 186,117">
            <ns2:metadata id="CYB_TRAFFIC_006_line_5" rank="11"/>
        </ns2:polygon>
        <ns2:polygon points="573,324 541,324 541,315 573,315 573,324">
            <ns2:metadata id="CYB_TRAFFIC_006_line_35" rank="71"/>
        </ns2:polygon>
        <ns2:polygon points="639,134 588,134 588,123 639,123 639,134">
            <ns2:metadata id="CYB_TRAFFIC_006_line_17" rank="35"/>
        </ns2:polygon>
        <ns2:polygon points="374,524 315,524 315,514 374,514 374,524">
            <ns2:metadata id="CYB_TRAFFIC_006_line_46" rank="93"/>
        </ns2:polygon>
        <ns2:polygon points="558,94 474,94 473,84 558,83 558,94">
            <ns2:metadata id="CYB_TRAFFIC_006_line_13" rank="27"/>
        </ns2:polygon>
        <ns2:polygon points="630,522 473,522 473,510 630,510 630,522">
            <ns2:metadata id="CYB_TRAFFIC_006_line_49" rank="99"/>
        </ns2:polygon>
        <ns2:polygon points="608,313 507,313 507,302 608,302 608,313">
            <ns2:metadata id="CYB_TRAFFIC_006_line_34" rank="69"/>
        </ns2:polygon>
    </ns2:svg>
    <svg xmlns="http://www.w3.org/2000/svg" contentScriptType="text/ecmascript" zoomAndPan="magnify" contentStyleType="text/css" class="Object" preserveAspectRatio="xMidYMid meet" version="1.0"><polygon points="193,588 242,588 242,666 193,666 193,588"><metadata id="CYB_TRAFFIC_006_character_11" idBalloon="CYB_TRAFFIC_006_balloon_8" idPanel="CYB_TRAFFIC_006_panel_6"/>
        </polygon><polygon points="66,607 132,607 132,667 66,667 66,607"><metadata id="CYB_TRAFFIC_006_character_10" idBalloon="CYB_TRAFFIC_006_balloon_7" idPanel="CYB_TRAFFIC_006_panel_6"/>
        </polygon><polygon points="487,383 603,383 603,449 487,449 487,383"><metadata id="CYB_TRAFFIC_006_character_9" idBalloon="CYB_TRAFFIC_006_balloon_6" idPanel="CYB_TRAFFIC_006_panel_5"/>
        </polygon><polygon points="577,198 642,198 642,250 577,250 577,198"><metadata id="CYB_TRAFFIC_006_character_5" idBalloon="CYB_TRAFFIC_006_balloon_3" idPanel="CYB_TRAFFIC_006_panel_2"/>
        </polygon><polygon points="999999,999999 0,999999 0,0 999999,0 999999,999999"><metadata id="CYB_TRAFFIC_006_character_7" idBalloon="CYB_TRAFFIC_006_balloon_10" idPanel="CYB_TRAFFIC_006_panel_8"/>
        </polygon><polygon points="109,167 234,167 234,233 109,233 109,167"><metadata id="CYB_TRAFFIC_006_character_4" idBalloon="CYB_TRAFFIC_006_balloon_0" idPanel="CYB_TRAFFIC_006_panel_0"/>
        </polygon><polygon points="460,154 551,154 551,249 460,249 460,154"><metadata id="CYB_TRAFFIC_006_character_6" idBalloon="CYB_TRAFFIC_006_balloon_2" idPanel="CYB_TRAFFIC_006_panel_2"/>
        </polygon><polygon points="260,554 358,554 358,663 260,663 260,554"><metadata id="CYB_TRAFFIC_006_character_1" idBalloon="CYB_TRAFFIC_006_balloon_9" idPanel="CYB_TRAFFIC_006_panel_7"/>
        </polygon><polygon points="999999,999999 0,999999 0,0 999999,0 999999,999999"><metadata id="CYB_TRAFFIC_006_character_8" idBalloon="CYB_TRAFFIC_006_balloon_5" idPanel="CYB_TRAFFIC_006_panel_4"/>
        </polygon><polygon points="102,441 137,441 137,457 102,457 102,441"><metadata id="CYB_TRAFFIC_006_character_2" idBalloon="CYB_TRAFFIC_006_balloon_4" idPanel="CYB_TRAFFIC_006_panel_3"/>
        </polygon><polygon points="261,153 351,153 351,250 261,250 261,153"><metadata id="CYB_TRAFFIC_006_character_3" idBalloon="CYB_TRAFFIC_006_balloon_1" idPanel="CYB_TRAFFIC_006_panel_1"/>
        </polygon></svg><metadata lastModificationDate="Wed, 07 May 2014 11+:40:18 +0000" method="Christophe Rigaud's extractor"/></svg>
