<svg xmlns="http://www.w3.org/2000/svg" width="2480" version="1.0" height="3508"><title>FRED_PHILEMON9_024</title><svg contentScriptType="text/ecmascript" zoomAndPan="magnify" contentStyleType="text/css" class="Page" preserveAspectRatio="xMidYMid meet" version="1.0"><image xmlns:xlink="http://www.w3.org/1999/xlink" x="0" y="0" width="2480" height="3508" xlink:href="../Pages/FRED_PHILEMON9_024.jpg" xlink:type="simple" xlink:actuate="onLoad" preserveAspectRatio="xMidYMid meet" xlink:show="embed"/></svg><style type="text/css" xml:space="preserve">
            * { stroke-width: 0; stroke-linejoin: round; }
            .Unclassified { fill: orange; stroke: none; opacity: 1.0; visibility: hidden; }
            .Noise { fill: pink; stroke: none; opacity: 0.2; visibility: hidden; }
            .Panel { fill: red; stroke: none; opacity: 0.5; visibility: visible; image-rendering: optimizeSpeed; }
            .Line { fill: green; stroke: none; opacity: 0.5; visibility: visible; image-rendering: optimizeSpeed; }
            .TextArea { fill: grey; stroke: none; opacity: 0.2; visibility: visible; image-rendering: optimizeSpeed; }
            .Balloon { fill: cyan; stroke: none; opacity: 0.5; visibility: visible; image-rendering: optimizeSpeed; }
            .Letter { fill: blue; stroke: none; opacity: 0.2; visibility: hidden; }
            .Object { fill: yellow; stroke: none; opacity: 0.2; visibility: visible; image-rendering: optimizeSpeed; }
            .Page { fill: white; stroke: none; opacity: 0.5; visibility: visible; }
            polygon:hover { opacity:0.2; }
    </style><ns0:svg xmlns:ns0="http://www.w3.org/2000/svg" contentScriptType="text/ecmascript" zoomAndPan="magnify" class="Panel" contentStyleType="text/css" preserveAspectRatio="xMidYMid meet" version="1.0">
        <ns0:polygon points="987,3286 127,3286 127,2337 975,2336 987,3286">
            <ns0:metadata id="FRED_PHILEMON9_024_panel_3" rank="6"/>
        </ns0:polygon>
        <ns0:polygon points="2435,3277 1687,3277 1674,2347 2431,2343 2435,3277">
            <ns0:metadata id="FRED_PHILEMON9_024_panel_5" rank="8"/>
        </ns0:polygon>
        <ns0:polygon points="2430,366 2425,1392 1751,1398 1744,379 2430,366">
            <ns0:metadata id="FRED_PHILEMON9_024_panel_1" rank="2"/>
        </ns0:polygon>
        <ns0:polygon points="1652,3277 996,3281 996,2347 1644,2347 1652,3277">
            <ns0:metadata id="FRED_PHILEMON9_024_panel_4" rank="7"/>
        </ns0:polygon>
        <ns0:polygon points="2430,2307 1673,2314 1665,1435 2424,1430 2430,2307">
            <ns0:metadata id="FRED_PHILEMON9_024_panel_6" rank="5"/>
        </ns0:polygon>
        <ns0:polygon points="1728,1405 118,1413 112,393 1719,382 1728,1405">
            <ns0:metadata id="FRED_PHILEMON9_024_panel_0" rank="1"/>
        </ns0:polygon>
        <ns0:polygon points="869,2320 125,2326 119,1444 862,1439 869,2320">
            <ns0:metadata id="FRED_PHILEMON9_024_panel_7" rank="3"/>
        </ns0:polygon>
        <ns0:polygon points="1645,2315 902,2319 894,1440 1640,1435 1645,2315">
            <ns0:metadata id="FRED_PHILEMON9_024_panel_2" rank="4"/>
        </ns0:polygon>
    </ns0:svg>
    <ns1:svg xmlns:ns1="http://www.w3.org/2000/svg" contentScriptType="text/ecmascript" zoomAndPan="magnify" class="Balloon" contentStyleType="text/css" preserveAspectRatio="xMidYMid meet" version="1.0">
        <ns1:polygon points="1971,2611 1957,2748 1852,2701 1821,2671 1809,2616 1825,2577 1850,2545 1893,2528 1925,2532 1958,2561 1971,2611">
            <ns1:metadata id="FRED_PHILEMON9_024_balloon_0" tailTip="1957,2748" tailDirection="SE" rank="1"/>
        </ns1:polygon>
    </ns1:svg>
    <ns2:svg xmlns:ns2="http://www.w3.org/2000/svg" contentScriptType="text/ecmascript" zoomAndPan="magnify" class="Line" contentStyleType="text/css" preserveAspectRatio="xMidYMid meet" version="1.0">
        <ns2:polygon points="1921,2672 1844,2679 1844,2552 1918,2548 1921,2672">
            <ns2:metadata id="FRED_PHILEMON9_024_line_1" rank="3"/>
        </ns2:polygon>
    </ns2:svg>
    <svg xmlns="http://www.w3.org/2000/svg" contentScriptType="text/ecmascript" zoomAndPan="magnify" contentStyleType="text/css" class="Object" preserveAspectRatio="xMidYMid meet" version="1.0"><polygon points="1938,2718 2101,2718 2101,2938 1938,2938 1938,2718"><metadata id="FRED_PHILEMON9_024_character_1" idBalloon="FRED_PHILEMON9_024_balloon_0" idPanel="FRED_PHILEMON9_024_panel_5"/>
        </polygon></svg><metadata lastModificationDate="Wed, 07 May 2014 11+:40:18 +0000" method="Christophe Rigaud's extractor"/></svg>
