<svg xmlns="http://www.w3.org/2000/svg" width="2474" version="1.0" height="3452"><title>SAINTOGAN_ZIGPUCE_ET_ALFRED_005</title><svg contentScriptType="text/ecmascript" zoomAndPan="magnify" contentStyleType="text/css" class="Page" preserveAspectRatio="xMidYMid meet" version="1.0"><image xmlns:xlink="http://www.w3.org/1999/xlink" x="0" y="0" width="2474" height="3452" xlink:href="../Pages/SAINTOGAN_ZIGPUCE_ET_ALFRED_005.jpg" xlink:type="simple" xlink:actuate="onLoad" preserveAspectRatio="xMidYMid meet" xlink:show="embed"/></svg><style type="text/css" xml:space="preserve">
            * { stroke-width: 0; stroke-linejoin: round; }
            .Unclassified { fill: orange; stroke: none; opacity: 1.0; visibility: hidden; }
            .Noise { fill: pink; stroke: none; opacity: 0.2; visibility: hidden; }
            .Panel { fill: red; stroke: none; opacity: 0.5; visibility: visible; image-rendering: optimizeSpeed; }
            .Line { fill: green; stroke: none; opacity: 0.5; visibility: visible; image-rendering: optimizeSpeed; }
            .TextArea { fill: grey; stroke: none; opacity: 0.2; visibility: visible; image-rendering: optimizeSpeed; }
            .Balloon { fill: cyan; stroke: none; opacity: 0.5; visibility: visible; image-rendering: optimizeSpeed; }
            .Letter { fill: blue; stroke: none; opacity: 0.2; visibility: hidden; }
            .Object { fill: yellow; stroke: none; opacity: 0.2; visibility: visible; image-rendering: optimizeSpeed; }
            .Page { fill: white; stroke: none; opacity: 0.5; visibility: visible; }
            polygon:hover { opacity:0.2; }
    </style><ns0:svg xmlns:ns0="http://www.w3.org/2000/svg" contentScriptType="text/ecmascript" zoomAndPan="magnify" class="Panel" contentStyleType="text/css" preserveAspectRatio="xMidYMid meet" version="1.0">
        <ns0:polygon points="821,457 817,1119 110,1119 109,458 821,457">
            <ns0:metadata id="SAINTOGAN_ZIGPUCE_ET_ALFRED_005_panel_0" rank="1"/>
        </ns0:polygon>
        <ns0:polygon points="823,1826 120,1827 110,1161 819,1160 823,1826">
            <ns0:metadata id="SAINTOGAN_ZIGPUCE_ET_ALFRED_005_panel_2" rank="3"/>
        </ns0:polygon>
        <ns0:polygon points="1573,1825 863,1826 863,1160 1573,1160 1573,1825">
            <ns0:metadata id="SAINTOGAN_ZIGPUCE_ET_ALFRED_005_panel_3" rank="4"/>
        </ns0:polygon>
        <ns0:polygon points="832,3263 130,3268 126,2586 829,2585 832,3263">
            <ns0:metadata id="SAINTOGAN_ZIGPUCE_ET_ALFRED_005_panel_8" rank="9"/>
        </ns0:polygon>
        <ns0:polygon points="828,2544 124,2544 121,1868 827,1868 828,2544">
            <ns0:metadata id="SAINTOGAN_ZIGPUCE_ET_ALFRED_005_panel_5" rank="6"/>
        </ns0:polygon>
        <ns0:polygon points="2364,1828 1611,1827 1612,1160 2361,1155 2364,1828">
            <ns0:metadata id="SAINTOGAN_ZIGPUCE_ET_ALFRED_005_panel_4" rank="5"/>
        </ns0:polygon>
        <ns0:polygon points="2359,1111 864,1121 857,451 2357,445 2359,1111">
            <ns0:metadata id="SAINTOGAN_ZIGPUCE_ET_ALFRED_005_panel_1" rank="2"/>
        </ns0:polygon>
        <ns0:polygon points="1572,2541 860,2545 864,1869 1571,1870 1572,2541">
            <ns0:metadata id="SAINTOGAN_ZIGPUCE_ET_ALFRED_005_panel_6" rank="7"/>
        </ns0:polygon>
        <ns0:polygon points="2365,1871 2363,2546 1607,2544 1612,1869 2365,1871">
            <ns0:metadata id="SAINTOGAN_ZIGPUCE_ET_ALFRED_005_panel_7" rank="8"/>
        </ns0:polygon>
        <ns0:polygon points="2369,3262 1612,3264 1611,2588 2360,2583 2369,3262">
            <ns0:metadata id="SAINTOGAN_ZIGPUCE_ET_ALFRED_005_panel_10" rank="11"/>
        </ns0:polygon>
        <ns0:polygon points="1574,3263 869,3266 865,2582 1571,2585 1574,3263">
            <ns0:metadata id="SAINTOGAN_ZIGPUCE_ET_ALFRED_005_panel_9" rank="10"/>
        </ns0:polygon>
    </ns0:svg>
    <ns1:svg xmlns:ns1="http://www.w3.org/2000/svg" contentScriptType="text/ecmascript" zoomAndPan="magnify" class="Balloon" contentStyleType="text/css" preserveAspectRatio="xMidYMid meet" version="1.0">
        <ns1:polygon points="2164,1247 2146,1401 2140,1419 2128,1432 1960,1312 1937,1266 1933,1214 1944,1170 1961,1161 2118,1160 2151,1164 2163,1185 2164,1247">
            <ns1:metadata id="SAINTOGAN_ZIGPUCE_ET_ALFRED_005_balloon_4" tailTip="2128,1432" tailDirection="S" rank="9"/>
        </ns1:polygon>
        <ns1:polygon points="2331,1075 2306,1127 2260,1146 1727,1141 1563,1126 1307,814 1302,768 1328,476 1383,466 2285,454 2329,470 2331,567 2331,1075">
            <ns1:metadata id="SAINTOGAN_ZIGPUCE_ET_ALFRED_005_balloon_2" tailTip="1307,814" tailDirection="S" rank="5"/>
        </ns1:polygon>
        <ns1:polygon points="826,1974 821,2002 788,2068 694,2165 620,2026 605,1966 612,1944 642,1895 649,1884 664,1878 736,1857 764,1860 781,1868 809,1883 822,1894 826,1919 826,1974">
            <ns1:metadata id="SAINTOGAN_ZIGPUCE_ET_ALFRED_005_balloon_6" tailTip="694,2165" tailDirection="S" rank="13"/>
        </ns1:polygon>
        <ns1:polygon points="1308,482 1296,748 1289,797 1165,912 1141,925 967,790 865,673 866,523 868,470 877,459 1283,460 1308,482">
            <ns1:metadata id="SAINTOGAN_ZIGPUCE_ET_ALFRED_005_balloon_1" tailTip="1141,925" tailDirection="SW" rank="3"/>
        </ns1:polygon>
        <ns1:polygon points="1880,2709 1874,2730 1856,2767 1841,2783 1672,2839 1619,2719 1611,2698 1613,2650 1620,2636 1790,2640 1866,2643 1875,2658 1879,2692 1880,2709">
            <ns1:metadata id="SAINTOGAN_ZIGPUCE_ET_ALFRED_005_balloon_10" tailTip="1672,2839" tailDirection="SW" rank="21"/>
        </ns1:polygon>
        <ns1:polygon points="2302,2746 2299,2822 2296,2858 2290,2867 2076,3029 1986,2875 1973,2852 1969,2810 1968,2783 1968,2737 1981,2718 2044,2715 2195,2714 2234,2718 2299,2731 2302,2746">
            <ns1:metadata id="SAINTOGAN_ZIGPUCE_ET_ALFRED_005_balloon_11" tailTip="2076,3029" tailDirection="S" rank="23"/>
        </ns1:polygon>
        <ns1:polygon points="649,1197 642,1229 610,1273 541,1357 483,1281 459,1248 453,1227 456,1194 494,1140 532,1123 562,1114 585,1115 612,1140 641,1178 649,1197">
            <ns1:metadata id="SAINTOGAN_ZIGPUCE_ET_ALFRED_005_balloon_3" tailTip="541,1357" tailDirection="S" rank="7"/>
        </ns1:polygon>
        <ns1:polygon points="2255,2576 2253,2615 2249,2629 1838,2890 1613,2623 1615,2575 1631,2554 1827,2552 2224,2551 2248,2557 2255,2576">
            <ns1:metadata id="SAINTOGAN_ZIGPUCE_ET_ALFRED_005_balloon_9" tailTip="1838,2890" tailDirection="SW" rank="19"/>
        </ns1:polygon>
        <ns1:polygon points="1587,2806 1586,2836 1579,2865 1578,2869 1572,2879 1551,2904 1517,2925 1483,2898 1456,2857 1455,2838 1461,2821 1479,2782 1495,2770 1516,2762 1541,2767 1574,2787 1583,2794 1587,2806">
            <ns1:metadata id="SAINTOGAN_ZIGPUCE_ET_ALFRED_005_balloon_8" tailTip="1517,2925" tailDirection="S" rank="17"/>
        </ns1:polygon>
        <ns1:polygon points="513,1952 443,2093 271,2106 257,2104 224,2095 200,2084 190,2064 191,2040 198,1980 205,1956 248,1923 327,1890 345,1885 433,1893 488,1907 506,1920 512,1938 513,1952">
            <ns1:metadata id="SAINTOGAN_ZIGPUCE_ET_ALFRED_005_balloon_5" tailTip="443,2093" tailDirection="SW" rank="11"/>
        </ns1:polygon>
        <ns1:polygon points="1236,2647 1228,2664 1037,2787 1020,2783 941,2720 925,2694 933,2590 937,2574 953,2564 1190,2561 1204,2561 1223,2563 1229,2572 1234,2591 1236,2647">
            <ns1:metadata id="SAINTOGAN_ZIGPUCE_ET_ALFRED_005_balloon_7" tailTip="1037,2787" tailDirection="SE" rank="15"/>
        </ns1:polygon>
        <ns1:polygon points="468,485 463,618 446,760 433,774 117,649 109,616 114,497 124,468 345,462 451,460 468,485">
            <ns1:metadata id="SAINTOGAN_ZIGPUCE_ET_ALFRED_005_balloon_0" tailTip="433,774" tailDirection="S" rank="1"/>
        </ns1:polygon>
    </ns1:svg>
    <ns2:svg xmlns:ns2="http://www.w3.org/2000/svg" contentScriptType="text/ecmascript" zoomAndPan="magnify" class="Line" contentStyleType="text/css" preserveAspectRatio="xMidYMid meet" version="1.0">
        <ns2:polygon points="774,2050 661,2050 661,2027 774,2027 774,2050">
            <ns2:metadata id="SAINTOGAN_ZIGPUCE_ET_ALFRED_005_line_44" rank="89"/>
        </ns2:polygon>
        <ns2:polygon points="445,563 123,563 123,527 445,527 445,563">
            <ns2:metadata id="SAINTOGAN_ZIGPUCE_ET_ALFRED_005_line_4" rank="9"/>
        </ns2:polygon>
        <ns2:polygon points="1133,2703 945,2703 945,2668 1133,2668 1133,2703">
            <ns2:metadata id="SAINTOGAN_ZIGPUCE_ET_ALFRED_005_line_58" rank="117"/>
        </ns2:polygon>
        <ns2:polygon points="387,2045 365,2045 365,1979 387,1979 387,2045">
            <ns2:metadata id="SAINTOGAN_ZIGPUCE_ET_ALFRED_005_line_38" rank="77"/>
        </ns2:polygon>
        <ns2:polygon points="2292,595 1339,595 1339,561 2292,561 2292,595">
            <ns2:metadata id="SAINTOGAN_ZIGPUCE_ET_ALFRED_005_line_17" rank="35"/>
        </ns2:polygon>
        <ns2:polygon points="2275,2809 1996,2809 1996,2775 2275,2775 2275,2809">
            <ns2:metadata id="SAINTOGAN_ZIGPUCE_ET_ALFRED_005_line_53" rank="107"/>
        </ns2:polygon>
        <ns2:polygon points="358,2051 215,2051 215,1994 358,1994 358,2051">
            <ns2:metadata id="SAINTOGAN_ZIGPUCE_ET_ALFRED_005_line_37" rank="75"/>
        </ns2:polygon>
        <ns2:polygon points="2192,2848 1999,2848 1999,2816 2192,2816 2192,2848">
            <ns2:metadata id="SAINTOGAN_ZIGPUCE_ET_ALFRED_005_line_54" rank="109"/>
        </ns2:polygon>
        <ns2:polygon points="783,2054 776,2054 776,2014 783,2014 783,2054">
            <ns2:metadata id="SAINTOGAN_ZIGPUCE_ET_ALFRED_005_line_45" rank="91"/>
        </ns2:polygon>
        <ns2:polygon points="2148,1234 1955,1234 1955,1199 2148,1199 2148,1234">
            <ns2:metadata id="SAINTOGAN_ZIGPUCE_ET_ALFRED_005_line_31" rank="63"/>
        </ns2:polygon>
        <ns2:polygon points="1855,2738 1737,2738 1737,2714 1855,2714 1855,2738">
            <ns2:metadata id="SAINTOGAN_ZIGPUCE_ET_ALFRED_005_line_50" rank="101"/>
        </ns2:polygon>
        <ns2:polygon points="2318,637 1341,637 1341,604 2317,602 2318,637">
            <ns2:metadata id="SAINTOGAN_ZIGPUCE_ET_ALFRED_005_line_18" rank="37"/>
        </ns2:polygon>
        <ns2:polygon points="439,504 126,504 126,471 439,471 439,504">
            <ns2:metadata id="SAINTOGAN_ZIGPUCE_ET_ALFRED_005_line_2" rank="5"/>
        </ns2:polygon>
        <ns2:polygon points="795,1998 643,1998 643,1965 795,1965 795,1998">
            <ns2:metadata id="SAINTOGAN_ZIGPUCE_ET_ALFRED_005_line_42" rank="85"/>
        </ns2:polygon>
        <ns2:polygon points="1281,592 886,592 886,566 1281,566 1281,592">
            <ns2:metadata id="SAINTOGAN_ZIGPUCE_ET_ALFRED_005_line_9" rank="19"/>
        </ns2:polygon>
        <ns2:polygon points="2134,1199 1955,1199 1955,1175 2134,1175 2134,1199">
            <ns2:metadata id="SAINTOGAN_ZIGPUCE_ET_ALFRED_005_line_30" rank="61"/>
        </ns2:polygon>
        <ns2:polygon points="1872,2710 1629,2710 1629,2685 1872,2685 1872,2710">
            <ns2:metadata id="SAINTOGAN_ZIGPUCE_ET_ALFRED_005_line_49" rank="99"/>
        </ns2:polygon>
        <ns2:polygon points="729,2021 693,2021 693,2001 729,2001 729,2021">
            <ns2:metadata id="SAINTOGAN_ZIGPUCE_ET_ALFRED_005_line_43" rank="87"/>
        </ns2:polygon>
        <ns2:polygon points="2316,1030 1547,1029 1547,990 2316,990 2316,1030">
            <ns2:metadata id="SAINTOGAN_ZIGPUCE_ET_ALFRED_005_line_27" rank="55"/>
        </ns2:polygon>
        <ns2:polygon points="2256,817 1521,817 1521,778 2256,778 2256,817">
            <ns2:metadata id="SAINTOGAN_ZIGPUCE_ET_ALFRED_005_line_22" rank="45"/>
        </ns2:polygon>
        <ns2:polygon points="1832,2770 1738,2770 1738,2742 1832,2742 1832,2770">
            <ns2:metadata id="SAINTOGAN_ZIGPUCE_ET_ALFRED_005_line_51" rank="103"/>
        </ns2:polygon>
        <ns2:polygon points="1896,2628 1639,2628 1639,2598 1896,2598 1896,2628">
            <ns2:metadata id="SAINTOGAN_ZIGPUCE_ET_ALFRED_005_line_47" rank="95"/>
        </ns2:polygon>
        <ns2:polygon points="2295,555 1339,555 1339,521 2295,521 2295,555">
            <ns2:metadata id="SAINTOGAN_ZIGPUCE_ET_ALFRED_005_line_16" rank="33"/>
        </ns2:polygon>
        <ns2:polygon points="2207,2598 1633,2598 1633,2565 2207,2565 2207,2598">
            <ns2:metadata id="SAINTOGAN_ZIGPUCE_ET_ALFRED_005_line_46" rank="93"/>
        </ns2:polygon>
        <ns2:polygon points="603,1282 508,1282 508,1142 603,1142 603,1282">
            <ns2:metadata id="SAINTOGAN_ZIGPUCE_ET_ALFRED_005_line_34" rank="69"/>
        </ns2:polygon>
        <ns2:polygon points="2290,984 1541,984 1541,944 2290,944 2290,984">
            <ns2:metadata id="SAINTOGAN_ZIGPUCE_ET_ALFRED_005_line_26" rank="53"/>
        </ns2:polygon>
        <ns2:polygon points="1213,2661 947,2661 947,2626 1213,2626 1213,2661">
            <ns2:metadata id="SAINTOGAN_ZIGPUCE_ET_ALFRED_005_line_57" rank="115"/>
        </ns2:polygon>
        <ns2:polygon points="254,634 129,634 129,599 254,599 254,634">
            <ns2:metadata id="SAINTOGAN_ZIGPUCE_ET_ALFRED_005_line_6" rank="13"/>
        </ns2:polygon>
        <ns2:polygon points="1201,2629 947,2629 947,2584 1201,2584 1201,2629">
            <ns2:metadata id="SAINTOGAN_ZIGPUCE_ET_ALFRED_005_line_56" rank="113"/>
        </ns2:polygon>
        <ns2:polygon points="2276,857 1530,857 1530,826 2276,824 2276,857">
            <ns2:metadata id="SAINTOGAN_ZIGPUCE_ET_ALFRED_005_line_23" rank="47"/>
        </ns2:polygon>
        <ns2:polygon points="450,530 128,530 128,504 450,504 450,530">
            <ns2:metadata id="SAINTOGAN_ZIGPUCE_ET_ALFRED_005_line_3" rank="7"/>
        </ns2:polygon>
        <ns2:polygon points="1855,2681 1628,2681 1628,2651 1855,2651 1855,2681">
            <ns2:metadata id="SAINTOGAN_ZIGPUCE_ET_ALFRED_005_line_48" rank="97"/>
        </ns2:polygon>
        <ns2:polygon points="1549,2893 1484,2893 1484,2796 1549,2796 1549,2893">
            <ns2:metadata id="SAINTOGAN_ZIGPUCE_ET_ALFRED_005_line_55" rank="111"/>
        </ns2:polygon>
        <ns2:polygon points="1281,715 979,715 978,686 1281,686 1281,715">
            <ns2:metadata id="SAINTOGAN_ZIGPUCE_ET_ALFRED_005_line_12" rank="25"/>
        </ns2:polygon>
        <ns2:polygon points="808,1930 798,1930 798,1877 808,1877 808,1930">
            <ns2:metadata id="SAINTOGAN_ZIGPUCE_ET_ALFRED_005_line_40" rank="81"/>
        </ns2:polygon>
        <ns2:polygon points="2318,521 1346,520 1346,479 2318,479 2318,521">
            <ns2:metadata id="SAINTOGAN_ZIGPUCE_ET_ALFRED_005_line_15" rank="31"/>
        </ns2:polygon>
        <ns2:polygon points="2320,679 1345,679 1345,640 2320,642 2320,679">
            <ns2:metadata id="SAINTOGAN_ZIGPUCE_ET_ALFRED_005_line_19" rank="39"/>
        </ns2:polygon>
        <ns2:polygon points="2297,721 1502,721 1502,680 2297,680 2297,721">
            <ns2:metadata id="SAINTOGAN_ZIGPUCE_ET_ALFRED_005_line_20" rank="41"/>
        </ns2:polygon>
        <ns2:polygon points="2295,945 1531,945 1531,904 2295,904 2295,945">
            <ns2:metadata id="SAINTOGAN_ZIGPUCE_ET_ALFRED_005_line_25" rank="51"/>
        </ns2:polygon>
        <ns2:polygon points="1251,676 890,676 890,642 1251,642 1251,676">
            <ns2:metadata id="SAINTOGAN_ZIGPUCE_ET_ALFRED_005_line_11" rank="23"/>
        </ns2:polygon>
        <ns2:polygon points="780,1964 637,1964 637,1940 780,1940 780,1964">
            <ns2:metadata id="SAINTOGAN_ZIGPUCE_ET_ALFRED_005_line_41" rank="83"/>
        </ns2:polygon>
        <ns2:polygon points="2290,767 1511,767 1511,731 2290,731 2290,767">
            <ns2:metadata id="SAINTOGAN_ZIGPUCE_ET_ALFRED_005_line_21" rank="43"/>
        </ns2:polygon>
        <ns2:polygon points="796,1926 656,1926 656,1898 796,1898 796,1926">
            <ns2:metadata id="SAINTOGAN_ZIGPUCE_ET_ALFRED_005_line_39" rank="79"/>
        </ns2:polygon>
        <ns2:polygon points="430,597 126,597 126,567 430,567 430,597">
            <ns2:metadata id="SAINTOGAN_ZIGPUCE_ET_ALFRED_005_line_5" rank="11"/>
        </ns2:polygon>
        <ns2:polygon points="2298,1068 1553,1068 1553,1031 2298,1031 2298,1068">
            <ns2:metadata id="SAINTOGAN_ZIGPUCE_ET_ALFRED_005_line_28" rank="57"/>
        </ns2:polygon>
        <ns2:polygon points="1280,754 979,753 979,724 1279,724 1280,754">
            <ns2:metadata id="SAINTOGAN_ZIGPUCE_ET_ALFRED_005_line_13" rank="27"/>
        </ns2:polygon>
        <ns2:polygon points="1254,513 890,513 890,480 1254,480 1254,513">
            <ns2:metadata id="SAINTOGAN_ZIGPUCE_ET_ALFRED_005_line_7" rank="15"/>
        </ns2:polygon>
        <ns2:polygon points="2154,1262 1960,1262 1960,1230 2154,1236 2154,1262">
            <ns2:metadata id="SAINTOGAN_ZIGPUCE_ET_ALFRED_005_line_32" rank="65"/>
        </ns2:polygon>
        <ns2:polygon points="2102,1302 1965,1302 1965,1265 2102,1265 2102,1302">
            <ns2:metadata id="SAINTOGAN_ZIGPUCE_ET_ALFRED_005_line_33" rank="67"/>
        </ns2:polygon>
        <ns2:polygon points="497,2008 214,2008 214,1923 497,1923 497,2008">
            <ns2:metadata id="SAINTOGAN_ZIGPUCE_ET_ALFRED_005_line_36" rank="73"/>
        </ns2:polygon>
        <ns2:polygon points="2238,1109 1559,1109 1559,1074 2238,1074 2238,1109">
            <ns2:metadata id="SAINTOGAN_ZIGPUCE_ET_ALFRED_005_line_29" rank="59"/>
        </ns2:polygon>
        <ns2:polygon points="1149,791 993,791 993,753 1149,753 1149,791">
            <ns2:metadata id="SAINTOGAN_ZIGPUCE_ET_ALFRED_005_line_14" rank="29"/>
        </ns2:polygon>
        <ns2:polygon points="1267,554 883,554 883,523 1267,525 1267,554">
            <ns2:metadata id="SAINTOGAN_ZIGPUCE_ET_ALFRED_005_line_8" rank="17"/>
        </ns2:polygon>
        <ns2:polygon points="2262,2768 1995,2771 1995,2733 2262,2733 2262,2768">
            <ns2:metadata id="SAINTOGAN_ZIGPUCE_ET_ALFRED_005_line_52" rank="105"/>
        </ns2:polygon>
        <ns2:polygon points="2301,904 1526,904 1526,870 2301,870 2301,904">
            <ns2:metadata id="SAINTOGAN_ZIGPUCE_ET_ALFRED_005_line_24" rank="49"/>
        </ns2:polygon>
        <ns2:polygon points="1281,635 888,635 888,607 1281,607 1281,635">
            <ns2:metadata id="SAINTOGAN_ZIGPUCE_ET_ALFRED_005_line_10" rank="21"/>
        </ns2:polygon>
    </ns2:svg>
    <svg xmlns="http://www.w3.org/2000/svg" contentScriptType="text/ecmascript" zoomAndPan="magnify" contentStyleType="text/css" class="Object" preserveAspectRatio="xMidYMid meet" version="1.0"><polygon points="1033,2784 1376,2784 1376,3135 1033,3135 1033,2784"><metadata id="SAINTOGAN_ZIGPUCE_ET_ALFRED_005_character_5" idBalloon="SAINTOGAN_ZIGPUCE_ET_ALFRED_005_balloon_7" idPanel="SAINTOGAN_ZIGPUCE_ET_ALFRED_005_panel_9"/>
        </polygon><polygon points="1969,3028 2365,3028 2365,3268 1969,3268 1969,3028"><metadata id="SAINTOGAN_ZIGPUCE_ET_ALFRED_005_character_2" idBalloon="SAINTOGAN_ZIGPUCE_ET_ALFRED_005_balloon_11" idPanel="SAINTOGAN_ZIGPUCE_ET_ALFRED_005_panel_10"/>
        </polygon><polygon points="1296,804 2318,804 2318,1122 1296,1122 1296,804"><metadata id="SAINTOGAN_ZIGPUCE_ET_ALFRED_005_character_7" idBalloon="SAINTOGAN_ZIGPUCE_ET_ALFRED_005_balloon_2" idPanel="SAINTOGAN_ZIGPUCE_ET_ALFRED_005_panel_1"/>
        </polygon><polygon points="435,1287 828,1287 828,1833 435,1833 435,1287"><metadata id="SAINTOGAN_ZIGPUCE_ET_ALFRED_005_character_10" idBalloon="SAINTOGAN_ZIGPUCE_ET_ALFRED_005_balloon_3" idPanel="SAINTOGAN_ZIGPUCE_ET_ALFRED_005_panel_2"/>
        </polygon><polygon points="137,2077 464,2077 464,2447 137,2447 137,2077"><metadata id="SAINTOGAN_ZIGPUCE_ET_ALFRED_005_character_11" idBalloon="SAINTOGAN_ZIGPUCE_ET_ALFRED_005_balloon_5" idPanel="SAINTOGAN_ZIGPUCE_ET_ALFRED_005_panel_5"/>
        </polygon><polygon points="1619,2878 1869,2878 1869,3199 1619,3199 1619,2878"><metadata id="SAINTOGAN_ZIGPUCE_ET_ALFRED_005_character_1" idBalloon="SAINTOGAN_ZIGPUCE_ET_ALFRED_005_balloon_9" idPanel="SAINTOGAN_ZIGPUCE_ET_ALFRED_005_panel_10"/>
        </polygon><polygon points="875,952 1111,952 1111,1124 875,1124 875,952"><metadata id="SAINTOGAN_ZIGPUCE_ET_ALFRED_005_character_6" idBalloon="SAINTOGAN_ZIGPUCE_ET_ALFRED_005_balloon_1" idPanel="SAINTOGAN_ZIGPUCE_ET_ALFRED_005_panel_1"/>
        </polygon><polygon points="583,2175 831,2175 831,2543 583,2543 583,2175"><metadata id="SAINTOGAN_ZIGPUCE_ET_ALFRED_005_character_12" idBalloon="SAINTOGAN_ZIGPUCE_ET_ALFRED_005_balloon_6" idPanel="SAINTOGAN_ZIGPUCE_ET_ALFRED_005_panel_5"/>
        </polygon><polygon points="1432,2933 1578,2933 1578,3248 1432,3248 1432,2933"><metadata id="SAINTOGAN_ZIGPUCE_ET_ALFRED_005_character_4" idBalloon="SAINTOGAN_ZIGPUCE_ET_ALFRED_005_balloon_8" idPanel="SAINTOGAN_ZIGPUCE_ET_ALFRED_005_panel_9"/>
        </polygon><polygon points="127,774 530,774 530,1118 127,1118 127,774"><metadata id="SAINTOGAN_ZIGPUCE_ET_ALFRED_005_character_9" idBalloon="SAINTOGAN_ZIGPUCE_ET_ALFRED_005_balloon_0" idPanel="SAINTOGAN_ZIGPUCE_ET_ALFRED_005_panel_0"/>
        </polygon><polygon points="1621,2940 1677,2940 1677,3036 1621,3036 1621,2940"><metadata id="SAINTOGAN_ZIGPUCE_ET_ALFRED_005_character_3" idBalloon="SAINTOGAN_ZIGPUCE_ET_ALFRED_005_balloon_10" idPanel="SAINTOGAN_ZIGPUCE_ET_ALFRED_005_panel_10"/>
        </polygon><polygon points="1910,1433 2364,1433 2364,1830 1910,1830 1910,1433"><metadata id="SAINTOGAN_ZIGPUCE_ET_ALFRED_005_character_8" idBalloon="SAINTOGAN_ZIGPUCE_ET_ALFRED_005_balloon_4" idPanel="SAINTOGAN_ZIGPUCE_ET_ALFRED_005_panel_4"/>
        </polygon></svg><metadata lastModificationDate="Wed, 07 May 2014 11+:40:19 +0000" method="Christophe Rigaud's extractor"/></svg>
