<?xml version="1.0" encoding="UTF-8" standalone="no"?>
<svg xmlns="http://www.w3.org/2000/svg" xmlns:xlink="http://www.w3.org/1999/xlink" contentScriptType="text/ecmascript" width="350.0mm" zoomAndPan="magnify" contentStyleType="text/css" viewBox="0.0 0.0 700.0 720.0" height="360.0mm" preserveAspectRatio="xMidYMid meet" version="1.0">
    <svg contentScriptType="text/ecmascript" zoomAndPan="magnify" class="Page" contentStyleType="text/css" preserveAspectRatio="xMidYMid meet" version="1.0">
        <image x="0" y="0" fill-opacity="0.5" width="700" xlink:href="../Pages/CYB_TRAFFIC_002.jpg" xlink:type="simple" xlink:actuate="onLoad" height="720" opacity="0.5" preserveAspectRatio="xMidYMid meet" xlink:show="embed"/>
    </svg>
    <style type="text/css" xml:space="preserve"><![CDATA[
		* { stroke-width: 0; stroke-linejoin: round; }
		.Unclassified { fill: orange; stroke: none; opacity: 1.0; visibility: hidden; }
		.Noise { fill: pink; stroke: none; opacity: 0.2; visibility: hidden; }
		.Panel { fill: red; stroke: none; opacity: 0.2; visibility: visible; image-rendering: optimizeSpeed; }
		.Line { fill: green; stroke: none; opacity: 0.2; visibility: visible; image-rendering: optimizeSpeed; }
		.TextArea { fill: grey; stroke: none; opacity: 0.2; visibility: visible; image-rendering: optimizeSpeed; }
		.Balloon { fill: cyan; stroke: none; opacity: 0.2; visibility: visible; image-rendering: optimizeSpeed; }
		.Letter { fill: blue; stroke: none; opacity: 0.2; visibility: hidden; }
		.Object { fill: yellow; stroke: none; opacity: 0.2; visibility: visible; image-rendering: optimizeSpeed; }
		.Page { fill: white; stroke: none; opacity: 0.5; visibility: visible; }
]]></style>
    <svg contentScriptType="text/ecmascript" zoomAndPan="magnify" class="Panel" contentStyleType="text/css" preserveAspectRatio="xMidYMid meet" version="1.0">
        <polygon points="449,167 448,250 447,251 445,252 430,253 368,253 256,251 255,250 254,246 255,61 257,59 307,58 415,60 446,61 448,62 449,76 449,167">
            <metadata id="CYB_TRAFFIC_002_panel_9" rank="2"/>
        </polygon>
        <polygon points="650,553 649,665 648,666 536,668 535,668 457,666 455,665 455,633 456,475 457,474 644,474 647,477 648,498 650,547 650,553">
            <metadata id="CYB_TRAFFIC_002_panel_0" rank="9"/>
        </polygon>
        <polygon points="246,458 242,460 135,460 55,459 53,457 52,445 52,312 53,267 55,266 102,265 241,266 244,268 245,269 246,450 246,458">
            <metadata id="CYB_TRAFFIC_002_panel_5" rank="4"/>
        </polygon>
        <polygon points="648,284 647,421 646,460 645,461 637,462 583,463 563,463 527,462 455,459 454,454 454,351 455,270 457,268 460,267 524,267 600,268 646,269 647,270 648,280 648,284">
            <metadata id="CYB_TRAFFIC_002_panel_3" rank="6"/>
        </polygon>
        <polygon points="448,317 446,455 444,459 423,460 382,461 312,462 299,462 264,460 255,459 254,458 254,297 255,268 256,267 440,267 445,268 446,270 448,292 448,317">
            <metadata id="CYB_TRAFFIC_002_panel_4" rank="5"/>
        </polygon>
        <polygon points="447,665 445,666 411,668 355,668 255,666 254,633 253,559 253,536 254,474 256,473 270,472 272,472 433,474 444,475 445,476 446,478 447,499 447,665">
            <metadata id="CYB_TRAFFIC_002_panel_2" rank="8"/>
        </polygon>
        <polygon points="244,477 243,665 242,667 52,667 49,664 49,578 50,480 51,475 52,473 69,473 181,474 243,475 244,476 244,477">
            <metadata id="CYB_TRAFFIC_002_panel_1" rank="7"/>
        </polygon>
        <polygon points="244,91 243,246 242,249 241,251 238,252 184,253 173,253 60,252 52,251 50,250 52,108 53,60 55,59 62,59 209,60 243,61 244,62 244,91">
            <metadata id="CYB_TRAFFIC_002_panel_7" rank="1"/>
        </polygon>
        <polygon points="649,107 648,248 647,252 646,253 457,250 455,248 454,244 453,236 453,226 455,61 457,60 466,59 485,58 498,58 608,59 649,60 649,107">
            <metadata id="CYB_TRAFFIC_002_panel_8" rank="3"/>
        </polygon>
    </svg>
    <svg contentScriptType="text/ecmascript" zoomAndPan="magnify" class="Balloon" contentStyleType="text/css" preserveAspectRatio="xMidYMid meet" version="1.0">
        <polygon points="243,451 242,456 241,457 215,457 202,456 55,388 55,318 56,290 57,270 84,269 129,269 242,270 243,451">
            <metadata id="CYB_TRAFFIC_002_balloon_2" tailTip="55,388" tailDirection="SW" idSpeaker="TrafficPage2Character1" rank="0"/>
        </polygon>
        <polygon points="240,580 239,663 66,664 62,664 55,663 53,662 53,559 55,477 61,476 77,476 175,477 238,478 240,479 240,580">
            <metadata id="CYB_TRAFFIC_002_balloon_0" tailTip="53,662" tailDirection="S" idSpeaker="TrafficPage2Character5" rank="2"/>
        </polygon>
        <polygon points="445,293 442,456 419,457 394,457 258,365 257,358 257,296 258,271 260,270 312,270 438,271 442,272 443,273 445,293">
            <metadata id="CYB_TRAFFIC_002_balloon_1" tailTip="258,365" tailDirection="SW" idSpeaker="TrafficPage2Character3" rank="4"/>
        </polygon>
    </svg>
    <svg contentScriptType="text/ecmascript" zoomAndPan="magnify" class="Line" contentStyleType="text/css" preserveAspectRatio="xMidYMid meet" version="1.0">
        <polygon points="166,628 224,628 224,646 166,646 166,628">
            <metadata id="CYB_TRAFFIC_002_line_1" rank="0"/>
        </polygon>
        <polygon points="66,486 225,486 225,497 66,497 66,486">
            <metadata id="CYB_TRAFFIC_002_line_8" rank="2"/>
        </polygon>
        <polygon points="360,339 425,339 425,357 360,357 360,339">
            <metadata id="CYB_TRAFFIC_002_line_16" rank="4"/>
        </polygon>
        <polygon points="108,307 153,307 153,325 108,325 108,307">
            <metadata id="CYB_TRAFFIC_002_line_30" rank="6"/>
        </polygon>
        <polygon points="115,516 216,516 216,530 115,530 115,516">
            <metadata id="CYB_TRAFFIC_002_line_5" rank="8"/>
        </polygon>
        <polygon points="355,335 432,335 432,346 355,346 355,335">
            <metadata id="CYB_TRAFFIC_002_line_17" rank="10"/>
        </polygon>
        <polygon points="302,321 439,321 439,334 302,334 302,321">
            <metadata id="CYB_TRAFFIC_002_line_18" rank="12"/>
        </polygon>
        <polygon points="62,279 106,279 106,290 62,290 62,279">
            <metadata id="CYB_TRAFFIC_002_line_34" rank="14"/>
        </polygon>
        <polygon points="73,494 219,494 219,508 73,508 73,494">
            <metadata id="CYB_TRAFFIC_002_line_7" rank="16"/>
        </polygon>
        <polygon points="142,530 198,530 198,540 142,540 142,530">
            <metadata id="CYB_TRAFFIC_002_line_3" rank="18"/>
        </polygon>
        <polygon points="366,296 435,296 435,308 366,308 366,296">
            <metadata id="CYB_TRAFFIC_002_line_20" rank="20"/>
        </polygon>
        <polygon points="186,389 223,389 223,404 186,404 186,389">
            <metadata id="CYB_TRAFFIC_002_line_25" rank="22"/>
        </polygon>
        <polygon points="99,326 159,326 159,336 99,336 99,326">
            <metadata id="CYB_TRAFFIC_002_line_28" rank="24"/>
        </polygon>
        <polygon points="83,521 133,521 133,540 83,540 83,521">
            <metadata id="CYB_TRAFFIC_002_line_4" rank="26"/>
        </polygon>
        <polygon points="307,283 440,283 440,295 307,295 307,283">
            <metadata id="CYB_TRAFFIC_002_line_21" rank="28"/>
        </polygon>
        <polygon points="83,505 212,505 212,519 83,519 83,505">
            <metadata id="CYB_TRAFFIC_002_line_6" rank="30"/>
        </polygon>
        <polygon points="54,579 116,579 116,598 54,598 54,579">
            <metadata id="CYB_TRAFFIC_002_line_2" rank="32"/>
        </polygon>
        <polygon points="312,296 347,296 347,308 312,308 312,296">
            <metadata id="CYB_TRAFFIC_002_line_22" rank="34"/>
        </polygon>
        <polygon points="108,292 210,292 210,303 108,303 108,292">
            <metadata id="CYB_TRAFFIC_002_line_33" rank="36"/>
        </polygon>
        <polygon points="173,314 232,314 232,325 173,325 173,314">
            <metadata id="CYB_TRAFFIC_002_line_29" rank="38"/>
        </polygon>
        <polygon points="169,345 236,345 236,358 169,358 169,345">
            <metadata id="CYB_TRAFFIC_002_line_27" rank="40"/>
        </polygon>
        <polygon points="101,348 145,348 145,358 101,358 101,348">
            <metadata id="CYB_TRAFFIC_002_line_26" rank="42"/>
        </polygon>
        <polygon points="314,308 432,308 432,321 314,321 314,308">
            <metadata id="CYB_TRAFFIC_002_line_19" rank="44"/>
        </polygon>
        <polygon points="178,304 207,304 207,314 178,314 178,304">
            <metadata id="CYB_TRAFFIC_002_line_32" rank="46"/>
        </polygon>
    </svg>
    <svg contentScriptType="text/ecmascript" zoomAndPan="magnify" class="Object" contentStyleType="text/css" preserveAspectRatio="xMidYMid meet" version="1.0">
        <polygon points="49,662 240,662 240,667 49,667 49,662">
            <metadata id="TrafficPage2Character5" idBalloon="CYB_TRAFFIC_002_balloon_0" idPanel="CYB_TRAFFIC_002_panel_1"/>
        </polygon>
        <polygon points="254,365 258,365 258,462 254,462 254,365">
            <metadata id="TrafficPage2Character3" idBalloon="CYB_TRAFFIC_002_balloon_1" idPanel="CYB_TRAFFIC_002_panel_4"/>
        </polygon>
        <polygon points="52,388 55,388 55,460 52,460 52,388">
            <metadata id="TrafficPage2Character1" idBalloon="CYB_TRAFFIC_002_balloon_2" idPanel="CYB_TRAFFIC_002_panel_5"/>
        </polygon>
    </svg>
    <metadata lastModificationDate="Thu Jun 12 14:23:11 CEST 2014" method="Reasoning on polygon's type" referent="Clément Guérin"/>
</svg>
