<?xml version="1.0" encoding="UTF-8" standalone="no"?>
<svg xmlns="http://www.w3.org/2000/svg" xmlns:xlink="http://www.w3.org/1999/xlink" contentScriptType="text/ecmascript" width="1203.0mm" zoomAndPan="magnify" contentStyleType="text/css" viewBox="0.0 0.0 2407.0 3297.0" height="1648.0mm" preserveAspectRatio="xMidYMid meet" version="1.0">
    <svg contentScriptType="text/ecmascript" zoomAndPan="magnify" class="Page" contentStyleType="text/css" preserveAspectRatio="xMidYMid meet" version="1.0">
        <image x="0" y="0" fill-opacity="0.5" width="2407" xlink:href="../Pages/JOLIVET_BOSTONPOLICEAFFAIREPRADI_077.jpg" xlink:type="simple" xlink:actuate="onLoad" height="3297" opacity="0.5" preserveAspectRatio="xMidYMid meet" xlink:show="embed"/>
    </svg>
    <style type="text/css" xml:space="preserve"><![CDATA[
		* { stroke-width: 0; stroke-linejoin: round; }
		.Unclassified { fill: orange; stroke: none; opacity: 1.0; visibility: hidden; }
		.Noise { fill: pink; stroke: none; opacity: 0.2; visibility: hidden; }
		.Panel { fill: red; stroke: none; opacity: 0.2; visibility: visible; image-rendering: optimizeSpeed; }
		.Line { fill: green; stroke: none; opacity: 0.2; visibility: visible; image-rendering: optimizeSpeed; }
		.TextArea { fill: grey; stroke: none; opacity: 0.2; visibility: visible; image-rendering: optimizeSpeed; }
		.Balloon { fill: cyan; stroke: none; opacity: 0.2; visibility: visible; image-rendering: optimizeSpeed; }
		.Letter { fill: blue; stroke: none; opacity: 0.2; visibility: hidden; }
		.Object { fill: yellow; stroke: none; opacity: 0.2; visibility: visible; image-rendering: optimizeSpeed; }
		.Page { fill: white; stroke: none; opacity: 0.5; visibility: visible; }
]]></style>
    <svg contentScriptType="text/ecmascript" zoomAndPan="magnify" class="Panel" contentStyleType="text/css" preserveAspectRatio="xMidYMid meet" version="1.0">
        <polygon points="1021,3106 917,3108 792,3110 558,3113 362,3115 203,3116 193,3116 112,3114 79,3113 78,3112 76,3005 74,2753 72,2460 72,2379 73,2378 997,2372 1018,2372 1019,2373 1021,2924 1021,3106">
            <metadata id="JOLIVET_BOSTONPOLICEAFFAIREPRADI_077_panel_0" rank="6"/>
        </polygon>
        <polygon points="1289,1717 1288,1718 1232,1719 776,1722 310,1725 138,1726 68,1726 67,1586 63,953 64,952 112,951 178,950 311,949 450,948 751,946 1284,947 1285,958 1286,1113 1287,1277 1289,1634 1289,1717">
            <metadata id="JOLIVET_BOSTONPOLICEAFFAIREPRADI_077_panel_4" rank="3"/>
        </polygon>
        <polygon points="2207,2340 628,2354 514,2355 377,2356 177,2357 149,2357 72,2356 71,2277 70,2113 68,1750 69,1749 139,1748 1562,1739 2202,1735 2203,1735 2204,1736 2205,1822 2206,1963 2207,2175 2207,2340">
            <metadata id="JOLIVET_BOSTONPOLICEAFFAIREPRADI_077_panel_3" rank="5"/>
        </polygon>
        <polygon points="2211,3094 2129,3095 1660,3098 1643,3098 1642,2993 1640,2716 1639,2472 1639,2367 1640,2366 1718,2365 1853,2364 1994,2363 2168,2362 2206,2362 2208,2364 2211,2693 2211,3094">
            <metadata id="JOLIVET_BOSTONPOLICEAFFAIREPRADI_077_panel_2" rank="8"/>
        </polygon>
        <polygon points="2204,1712 2148,1713 1848,1715 1389,1718 1311,1718 1310,1554 1307,989 1307,948 1308,947 2112,943 2199,943 2200,944 2201,1026 2203,1371 2204,1590 2204,1712">
            <metadata id="JOLIVET_BOSTONPOLICEAFFAIREPRADI_077_panel_5" rank="4"/>
        </polygon>
        <polygon points="1620,3098 1619,3099 1049,3106 1045,3106 1044,3105 1043,3009 1042,2772 1041,2482 1041,2373 1042,2372 1087,2371 1287,2369 1389,2368 1600,2366 1615,2366 1616,2367 1617,2461 1618,2632 1620,3005 1620,3098">
            <metadata id="JOLIVET_BOSTONPOLICEAFFAIREPRADI_077_panel_1" rank="7"/>
        </polygon>
        <polygon points="1214,924 68,930 65,930 64,929 63,873 62,733 60,384 59,139 59,138 60,137 106,134 133,133 179,132 428,131 574,131 1209,133 1210,243 1212,516 1213,677 1214,843 1214,924">
            <metadata id="JOLIVET_BOSTONPOLICEAFFAIREPRADI_077_panel_6" rank="1"/>
        </polygon>
        <polygon points="2200,919 2199,920 2118,921 1960,922 1240,924 1238,924 1237,923 1235,733 1234,577 1233,402 1232,135 1232,133 2194,130 2196,130 2199,673 2200,862 2200,919">
            <metadata id="JOLIVET_BOSTONPOLICEAFFAIREPRADI_077_panel_7" rank="2"/>
        </polygon>
    </svg>
    <svg contentScriptType="text/ecmascript" zoomAndPan="magnify" class="Balloon" contentStyleType="text/css" preserveAspectRatio="xMidYMid meet" version="1.0">
        <polygon points="684,1453 683,1463 682,1469 681,1473 679,1479 677,1484 676,1486 670,1497 665,1504 661,1509 651,1519 647,1522 640,1527 635,1530 629,1533 619,1537 610,1540 606,1541 596,1543 590,1544 582,1545 565,1546 564,1546 540,1545 528,1544 515,1542 505,1540 497,1538 484,1534 472,1529 466,1526 461,1523 453,1518 450,1516 442,1509 434,1501 427,1492 422,1484 420,1480 418,1475 417,1472 416,1468 415,1463 415,1450 416,1443 417,1438 420,1429 425,1419 430,1411 438,1401 450,1389 458,1383 465,1378 481,1370 491,1366 494,1365 501,1363 509,1361 644,1334 646,1334 680,1427 682,1433 683,1437 684,1444 684,1453">
            <metadata id="JOLIVET_BOSTONPOLICEAFFAIREPRADI_077_balloon_1" tailDirection="none" rank="0"/>
        </polygon>
        <polygon points="1087,288 1086,295 1085,301 1082,310 1080,315 1077,321 1072,329 1068,334 1063,340 1058,345 1047,354 1035,361 1025,365 1010,370 932,389 878,328 873,322 871,319 867,311 866,308 865,304 865,289 866,284 869,276 872,270 877,262 880,258 885,252 890,247 901,237 910,231 920,225 922,224 931,220 946,215 950,214 960,212 966,211 975,210 980,210 994,211 1003,212 1009,213 1014,214 1026,217 1032,219 1040,222 1052,228 1058,232 1063,236 1069,241 1070,242 1074,247 1078,253 1081,258 1083,262 1086,271 1087,277 1087,288">
            <metadata id="JOLIVET_BOSTONPOLICEAFFAIREPRADI_077_balloon_6" tailDirection="none" rank="2"/>
        </polygon>
        <polygon points="2111,1475 2110,1479 2109,1482 2104,1492 2101,1497 2093,1507 2080,1520 2030,1568 1922,1565 1909,1564 1901,1563 1890,1561 1885,1560 1877,1558 1870,1556 1861,1553 1856,1551 1840,1543 1831,1537 1827,1534 1822,1530 1814,1522 1810,1517 1803,1508 1796,1494 1793,1485 1791,1475 1791,1458 1793,1450 1794,1447 1796,1442 1801,1432 1804,1427 1827,1392 1862,1375 1876,1370 1889,1366 1900,1363 1914,1360 1926,1358 1935,1357 1951,1356 1960,1356 1977,1357 1984,1358 1990,1359 2002,1362 2014,1366 2022,1369 2036,1376 2041,1379 2051,1386 2055,1389 2065,1397 2076,1408 2086,1420 2091,1427 2097,1436 2100,1441 2105,1451 2109,1461 2110,1464 2111,1469 2111,1475">
            <metadata id="JOLIVET_BOSTONPOLICEAFFAIREPRADI_077_balloon_5" tailDirection="none" rank="4"/>
        </polygon>
        <polygon points="1872,2444 1871,2455 1870,2465 1867,2483 1865,2491 1860,2506 1856,2516 1853,2523 1846,2539 1845,2541 1842,2544 1809,2574 1776,2602 1672,2566 1664,2562 1659,2559 1655,2556 1644,2545 1643,2543 1642,2453 1642,2370 1643,2369 1752,2368 1863,2368 1864,2369 1867,2380 1869,2388 1871,2400 1872,2408 1872,2444">
            <metadata id="JOLIVET_BOSTONPOLICEAFFAIREPRADI_077_balloon_0" tailTip="1776,2602" tailDirection="SW" idSpeaker="Boston_Police_L_Affaire_PradiPage77Character1" rank="6"/>
        </polygon>
        <polygon points="2144,1629 2143,1633 2142,1636 2140,1640 2137,1644 2129,1652 2124,1656 2114,1662 2104,1667 2096,1670 2090,1672 2083,1674 2073,1676 2066,1677 2057,1678 2031,1678 2019,1677 2011,1676 2004,1675 1996,1673 1981,1668 1973,1664 1967,1660 1963,1657 1959,1653 1955,1647 1953,1643 1952,1640 1951,1636 1951,1627 1952,1622 1954,1616 1957,1610 1960,1605 1972,1593 1981,1587 1986,1584 1992,1581 1999,1578 2004,1576 2007,1575 2017,1572 2025,1570 2038,1569 2054,1568 2056,1568 2066,1569 2073,1570 2083,1572 2091,1574 2100,1577 2106,1580 2118,1587 2124,1591 2138,1605 2141,1610 2144,1619 2144,1629">
            <metadata id="JOLIVET_BOSTONPOLICEAFFAIREPRADI_077_balloon_4" tailDirection="none" rank="8"/>
        </polygon>
        <polygon points="1281,970 1200,1175 1196,1184 1195,1186 1192,1191 1190,1194 1183,1203 1171,1215 1164,1220 1161,1222 1151,1228 1149,1229 1138,1234 1129,1237 1117,1240 1107,1242 1101,1243 1092,1244 1076,1245 1053,1245 1040,1244 1031,1243 1024,1242 1013,1240 1005,1238 998,1236 992,1234 982,1230 976,1227 969,1223 964,1220 954,1212 947,1205 887,1141 880,1089 882,1079 904,974 909,951 1118,950 1281,950 1281,970">
            <metadata id="JOLIVET_BOSTONPOLICEAFFAIREPRADI_077_balloon_2" tailTip="947,1205" tailDirection="SE" idSpeaker="Boston_Police_L_Affaire_PradiPage77Character3" rank="10"/>
        </polygon>
    </svg>
    <svg contentScriptType="text/ecmascript" zoomAndPan="magnify" class="Line" contentStyleType="text/css" preserveAspectRatio="xMidYMid meet" version="1.0">
        <polygon points="1654,2456 1891,2456 1891,2488 1654,2488 1654,2456">
            <metadata id="JOLIVET_BOSTONPOLICEAFFAIREPRADI_077_line_3" rank="0"/>
        </polygon>
        <polygon points="1855,1514 2034,1514 2034,1538 1855,1538 1855,1514">
            <metadata id="JOLIVET_BOSTONPOLICEAFFAIREPRADI_077_line_28" rank="2"/>
        </polygon>
        <polygon points="478,1500 623,1500 623,1519 478,1519 478,1500">
            <metadata id="JOLIVET_BOSTONPOLICEAFFAIREPRADI_077_line_14" rank="4"/>
        </polygon>
        <polygon points="441,1427 663,1427 663,1449 441,1449 441,1427">
            <metadata id="JOLIVET_BOSTONPOLICEAFFAIREPRADI_077_line_17" rank="6"/>
        </polygon>
        <polygon points="958,1167 1169,1167 1169,1188 958,1188 958,1167">
            <metadata id="JOLIVET_BOSTONPOLICEAFFAIREPRADI_077_line_22" rank="8"/>
        </polygon>
        <polygon points="1826,1449 1931,1449 1931,1468 1826,1468 1826,1449">
            <metadata id="JOLIVET_BOSTONPOLICEAFFAIREPRADI_077_line_32" rank="10"/>
        </polygon>
        <polygon points="1825,1497 1891,1497 1891,1515 1825,1515 1825,1497">
            <metadata id="JOLIVET_BOSTONPOLICEAFFAIREPRADI_077_line_29" rank="12"/>
        </polygon>
        <polygon points="965,1112 1163,1112 1163,1135 965,1135 965,1112">
            <metadata id="JOLIVET_BOSTONPOLICEAFFAIREPRADI_077_line_24" rank="14"/>
        </polygon>
        <polygon points="913,324 1027,324 1027,346 913,346 913,324">
            <metadata id="JOLIVET_BOSTONPOLICEAFFAIREPRADI_077_line_37" rank="16"/>
        </polygon>
        <polygon points="1981,1611 2201,1611 2201,1654 1981,1654 1981,1611">
            <metadata id="JOLIVET_BOSTONPOLICEAFFAIREPRADI_077_line_26" rank="18"/>
        </polygon>
        <polygon points="1957,1448 2069,1448 2069,1468 1957,1468 1957,1448">
            <metadata id="JOLIVET_BOSTONPOLICEAFFAIREPRADI_077_line_33" rank="20"/>
        </polygon>
        <polygon points="1897,1380 1983,1380 1983,1399 1897,1399 1897,1380">
            <metadata id="JOLIVET_BOSTONPOLICEAFFAIREPRADI_077_line_35" rank="22"/>
        </polygon>
        <polygon points="1003,1085 1119,1085 1119,1106 1003,1106 1003,1085">
            <metadata id="JOLIVET_BOSTONPOLICEAFFAIREPRADI_077_line_25" rank="24"/>
        </polygon>
        <polygon points="1663,2387 1848,2387 1848,2408 1663,2408 1663,2387">
            <metadata id="JOLIVET_BOSTONPOLICEAFFAIREPRADI_077_line_6" rank="26"/>
        </polygon>
        <polygon points="1647,2410 1864,2410 1864,2430 1647,2430 1647,2410">
            <metadata id="JOLIVET_BOSTONPOLICEAFFAIREPRADI_077_line_5" rank="28"/>
        </polygon>
        <polygon points="996,1140 1127,1140 1127,1161 996,1161 996,1140">
            <metadata id="JOLIVET_BOSTONPOLICEAFFAIREPRADI_077_line_23" rank="30"/>
        </polygon>
        <polygon points="912,271 1026,271 1026,291 912,291 912,271">
            <metadata id="JOLIVET_BOSTONPOLICEAFFAIREPRADI_077_line_39" rank="32"/>
        </polygon>
        <polygon points="994,1194 1099,1194 1099,1216 994,1216 994,1194">
            <metadata id="JOLIVET_BOSTONPOLICEAFFAIREPRADI_077_line_21" rank="34"/>
        </polygon>
        <polygon points="1993,1586 2099,1586 2099,1604 1993,1604 1993,1586">
            <metadata id="JOLIVET_BOSTONPOLICEAFFAIREPRADI_077_line_27" rank="36"/>
        </polygon>
        <polygon points="1990,1495 2070,1495 2070,1513 1990,1513 1990,1495">
            <metadata id="JOLIVET_BOSTONPOLICEAFFAIREPRADI_077_line_30" rank="38"/>
        </polygon>
        <polygon points="1683,2503 1829,2503 1829,2523 1683,2523 1683,2503">
            <metadata id="JOLIVET_BOSTONPOLICEAFFAIREPRADI_077_line_1" rank="40"/>
        </polygon>
        <polygon points="1688,2479 1823,2479 1823,2500 1688,2500 1688,2479">
            <metadata id="JOLIVET_BOSTONPOLICEAFFAIREPRADI_077_line_2" rank="42"/>
        </polygon>
        <polygon points="1891,1472 2033,1472 2033,1491 1891,1491 1891,1472">
            <metadata id="JOLIVET_BOSTONPOLICEAFFAIREPRADI_077_line_31" rank="44"/>
        </polygon>
        <polygon points="527,1476 644,1476 644,1496 527,1496 527,1476">
            <metadata id="JOLIVET_BOSTONPOLICEAFFAIREPRADI_077_line_15" rank="46"/>
        </polygon>
        <polygon points="1867,1425 2051,1425 2051,1445 1867,1445 1867,1425">
            <metadata id="JOLIVET_BOSTONPOLICEAFFAIREPRADI_077_line_34" rank="48"/>
        </polygon>
        <polygon points="1658,2433 1852,2433 1852,2454 1658,2454 1658,2433">
            <metadata id="JOLIVET_BOSTONPOLICEAFFAIREPRADI_077_line_4" rank="50"/>
        </polygon>
        <polygon points="979,243 1038,243 1038,263 979,263 979,243">
            <metadata id="JOLIVET_BOSTONPOLICEAFFAIREPRADI_077_line_40" rank="52"/>
        </polygon>
        <polygon points="441,1453 664,1453 664,1473 441,1473 441,1453">
            <metadata id="JOLIVET_BOSTONPOLICEAFFAIREPRADI_077_line_16" rank="54"/>
        </polygon>
        <polygon points="435,1407 669,1407 669,1427 435,1427 435,1407">
            <metadata id="JOLIVET_BOSTONPOLICEAFFAIREPRADI_077_line_18" rank="56"/>
        </polygon>
        <polygon points="514,1384 617,1384 617,1403 514,1403 514,1384">
            <metadata id="JOLIVET_BOSTONPOLICEAFFAIREPRADI_077_line_19" rank="58"/>
        </polygon>
    </svg>
    <svg contentScriptType="text/ecmascript" zoomAndPan="magnify" class="Object" contentStyleType="text/css" preserveAspectRatio="xMidYMid meet" version="1.0">
        <polygon points="975,1245 1177,1245 1177,1294 975,1294 975,1245">
            <metadata id="Boston_Police_L_Affaire_PradiPage77Character3" idBalloon="JOLIVET_BOSTONPOLICEAFFAIREPRADI_077_balloon_2" idPanel="JOLIVET_BOSTONPOLICEAFFAIREPRADI_077_panel_4"/>
        </polygon>
        <polygon points="1731,2747 1772,2747 1772,2847 1731,2847 1731,2747">
            <metadata id="Boston_Police_L_Affaire_PradiPage77Character1" idBalloon="JOLIVET_BOSTONPOLICEAFFAIREPRADI_077_balloon_0" idPanel="JOLIVET_BOSTONPOLICEAFFAIREPRADI_077_panel_2"/>
        </polygon>
    </svg>
    <metadata lastModificationDate="Thu Jun 12 14:23:52 CEST 2014" method="Reasoning on polygon's type" referent="Clément Guérin"/>
</svg>
