<?xml version="1.0" encoding="UTF-8" standalone="no"?>
<svg xmlns="http://www.w3.org/2000/svg" xmlns:xlink="http://www.w3.org/1999/xlink" contentScriptType="text/ecmascript" width="1230.0mm" zoomAndPan="magnify" contentStyleType="text/css" viewBox="0.0 0.0 2461.0 3398.0" height="1699.0mm" preserveAspectRatio="xMidYMid meet" version="1.0">
    <svg contentScriptType="text/ecmascript" zoomAndPan="magnify" class="Page" contentStyleType="text/css" preserveAspectRatio="xMidYMid meet" version="1.0">
        <image x="0" y="0" fill-opacity="0.5" width="2461" xlink:href="../Pages/LAMISSEB_LESNOEILS1_020.jpg" xlink:type="simple" xlink:actuate="onLoad" height="3398" opacity="0.5" preserveAspectRatio="xMidYMid meet" xlink:show="embed"/>
    </svg>
    <style type="text/css" xml:space="preserve"><![CDATA[
		* { stroke-width: 0; stroke-linejoin: round; }
		.Unclassified { fill: orange; stroke: none; opacity: 1.0; visibility: hidden; }
		.Noise { fill: pink; stroke: none; opacity: 0.2; visibility: hidden; }
		.Panel { fill: red; stroke: none; opacity: 0.2; visibility: visible; image-rendering: optimizeSpeed; }
		.Line { fill: green; stroke: none; opacity: 0.2; visibility: visible; image-rendering: optimizeSpeed; }
		.TextArea { fill: grey; stroke: none; opacity: 0.2; visibility: visible; image-rendering: optimizeSpeed; }
		.Balloon { fill: cyan; stroke: none; opacity: 0.2; visibility: visible; image-rendering: optimizeSpeed; }
		.Letter { fill: blue; stroke: none; opacity: 0.2; visibility: hidden; }
		.Object { fill: yellow; stroke: none; opacity: 0.2; visibility: visible; image-rendering: optimizeSpeed; }
		.Page { fill: white; stroke: none; opacity: 0.5; visibility: visible; }
]]></style>
    <svg contentScriptType="text/ecmascript" zoomAndPan="magnify" class="Panel" contentStyleType="text/css" preserveAspectRatio="xMidYMid meet" version="1.0">
        <polygon points="844,761 843,843 841,844 833,845 688,847 614,848 176,853 175,852 171,356 170,231 170,192 171,191 231,153 261,152 383,149 571,145 572,145 756,147 777,148 838,185 841,187 842,189 844,761">
            <metadata id="LAMISSEB_LESNOEILS1_020_panel_10" rank="1"/>
        </polygon>
        <polygon points="1542,2415 1541,2417 1535,2418 888,2421 886,2419 885,2227 885,2009 886,1762 887,1760 951,1720 1363,1715 1472,1716 1541,1756 1542,1758 1542,2415">
            <metadata id="LAMISSEB_LESNOEILS1_020_panel_4" rank="8"/>
        </polygon>
        <polygon points="862,3207 860,3208 196,3213 194,3211 193,3209 189,2604 189,2552 190,2550 294,2510 349,2507 437,2506 438,2506 635,2507 664,2508 756,2512 858,2547 860,2548 862,3196 862,3207">
            <metadata id="LAMISSEB_LESNOEILS1_020_panel_0" rank="10"/>
        </polygon>
        <polygon points="1538,1038 1537,1624 1536,1630 1531,1631 962,1635 885,1635 884,1634 883,1628 883,974 884,973 966,935 969,934 985,932 1007,931 1390,928 1446,928 1465,930 1536,967 1538,970 1538,1038">
            <metadata id="LAMISSEB_LESNOEILS1_020_panel_6" rank="5"/>
        </polygon>
        <polygon points="1551,3203 1550,3204 1534,3205 897,3208 896,3208 894,3207 892,2864 892,2547 893,2546 1051,2508 1068,2507 1181,2505 1320,2504 1357,2504 1546,2543 1547,2544 1551,3188 1551,3203">
            <metadata id="LAMISSEB_LESNOEILS1_020_panel_1" rank="11"/>
        </polygon>
        <polygon points="1530,837 1529,838 880,845 878,845 877,824 876,723 875,253 875,185 876,184 1154,180 1476,177 1529,177 1530,178 1530,837">
            <metadata id="LAMISSEB_LESNOEILS1_020_panel_9" rank="2"/>
        </polygon>
        <polygon points="2253,2415 1732,2417 1575,2417 1574,2416 1573,2139 1573,1756 1574,1755 1720,1717 1724,1716 1771,1715 2051,1713 2104,1713 2246,1750 2249,1753 2253,2413 2253,2415">
            <metadata id="LAMISSEB_LESNOEILS1_020_panel_5" rank="9"/>
        </polygon>
        <polygon points="850,1634 849,1636 193,1642 184,1642 182,1641 181,1637 179,1281 178,1040 178,980 179,979 236,943 469,906 793,908 794,909 849,976 850,1525 850,1634">
            <metadata id="LAMISSEB_LESNOEILS1_020_panel_8" rank="4"/>
        </polygon>
        <polygon points="2243,827 2242,829 2224,830 2161,831 1801,835 1611,837 1563,837 1561,571 1560,178 1561,176 1754,139 1763,138 1787,136 1809,135 1860,134 1978,132 2239,162 2240,163 2241,286 2243,734 2243,827">
            <metadata id="LAMISSEB_LESNOEILS1_020_panel_11" rank="3"/>
        </polygon>
        <polygon points="852,1806 851,2418 849,2420 840,2421 295,2424 187,2424 186,2423 185,2383 184,2256 183,1966 183,1766 245,1725 299,1722 338,1721 400,1721 472,1722 550,1724 850,1760 851,1761 852,1763 852,1806">
            <metadata id="LAMISSEB_LESNOEILS1_020_panel_3" rank="7"/>
        </polygon>
        <polygon points="2245,963 2243,1624 2242,1625 2236,1626 2073,1627 1577,1630 1571,1630 1570,1629 1569,1627 1569,969 1570,966 1597,928 1598,927 1663,924 2219,921 2222,923 2245,963">
            <metadata id="LAMISSEB_LESNOEILS1_020_panel_7" rank="6"/>
        </polygon>
        <polygon points="2255,3202 2253,3204 2219,3205 1819,3206 1817,3206 1580,3205 1579,3204 1578,2701 1578,2546 1579,2544 1580,2543 1732,2484 1738,2482 1751,2479 1757,2478 1882,2472 2051,2470 2069,2470 2156,2482 2171,2485 2182,2490 2188,2493 2251,2539 2252,2540 2253,2544 2255,3130 2255,3202">
            <metadata id="LAMISSEB_LESNOEILS1_020_panel_2" rank="12"/>
        </polygon>
    </svg>
    <svg contentScriptType="text/ecmascript" zoomAndPan="magnify" class="Balloon" contentStyleType="text/css" preserveAspectRatio="xMidYMid meet" version="1.0">
        <polygon points="1470,1994 1263,2121 1262,2121 955,1999 954,1995 953,1975 953,1905 954,1728 955,1727 958,1726 968,1725 1246,1721 1362,1720 1375,1720 1467,1722 1470,1987 1470,1994">
            <metadata id="LAMISSEB_LESNOEILS1_020_balloon_3" tailTip="1263,2121" tailDirection="SE" idSpeaker="Les_Noeils_Tome_1Page20Character11" rank="0"/>
        </polygon>
        <polygon points="2100,1733 2099,1844 2098,1850 2097,1851 1826,2034 1727,1857 1724,1729 1724,1722 1744,1720 1816,1719 2032,1718 2099,1718 2100,1719 2100,1733">
            <metadata id="LAMISSEB_LESNOEILS1_020_balloon_4" tailTip="1826,2034" tailDirection="SW" idSpeaker="Les_Noeils_Tome_1Page20Character17" rank="2"/>
        </polygon>
        <polygon points="752,2577 751,2680 750,2681 560,2848 301,2687 297,2570 297,2516 298,2515 348,2512 438,2512 670,2513 751,2517 752,2520 752,2577">
            <metadata id="LAMISSEB_LESNOEILS1_020_balloon_0" tailTip="560,2848" tailDirection="SE" idSpeaker="Les_Noeils_Tome_1Page20Character5" rank="4"/>
        </polygon>
        <polygon points="775,235 774,237 515,505 236,246 235,233 235,199 236,160 237,159 252,158 276,157 373,154 548,152 764,152 772,153 775,223 775,235">
            <metadata id="LAMISSEB_LESNOEILS1_020_balloon_10" tailTip="515,505" tailDirection="S" rank="6"/>
        </polygon>
        <polygon points="1462,1113 1242,1234 1210,1251 1208,1252 1159,1236 972,1118 971,1117 969,1018 969,949 970,940 971,939 974,938 981,937 1002,936 1371,934 1456,934 1460,935 1462,988 1462,1113">
            <metadata id="LAMISSEB_LESNOEILS1_020_balloon_5" tailTip="1159,1236" tailDirection="SW" idSpeaker="Les_Noeils_Tome_1Page20Character3" rank="8"/>
        </polygon>
        <polygon points="2216,930 2210,1107 2030,1313 1984,1359 1605,1110 1604,1109 1603,942 1603,934 1611,932 1661,929 1904,927 2215,927 2216,928 2216,930">
            <metadata id="LAMISSEB_LESNOEILS1_020_balloon_7" tailTip="1984,1359" tailDirection="SW" idSpeaker="Les_Noeils_Tome_1Page20Character1" rank="10"/>
        </polygon>
        <polygon points="1973,1153 1969,1263 1968,1266 1966,1268 1722,1354 1721,1354 1637,1270 1636,1241 1635,1172 1635,1170 1636,1150 1637,1149 1712,1147 1759,1146 1972,1145 1973,1147 1973,1153">
            <metadata id="LAMISSEB_LESNOEILS1_020_balloon_6" tailTip="1722,1354" tailDirection="S" idSpeaker="Les_Noeils_Tome_1Page20Character1" rank="12"/>
        </polygon>
        <polygon points="785,916 769,1117 506,1305 505,1305 502,1304 496,1301 493,1299 490,1296 478,1119 475,916 475,914 476,914 785,916">
            <metadata id="LAMISSEB_LESNOEILS1_020_balloon_9" tailTip="506,1305" tailDirection="SW" idSpeaker="Les_Noeils_Tome_1Page20Character13" rank="14"/>
        </polygon>
        <polygon points="485,997 483,1042 482,1055 481,1061 480,1066 409,1255 407,1260 403,1269 401,1273 400,1273 234,1070 234,1025 236,976 238,954 239,948 244,947 309,946 467,946 478,947 479,949 484,976 485,987 485,997">
            <metadata id="LAMISSEB_LESNOEILS1_020_balloon_8" tailTip="400,1273" tailDirection="S" idSpeaker="Les_Noeils_Tome_1Page20Character13" rank="16"/>
        </polygon>
        <polygon points="790,1806 785,1971 784,1972 558,2115 418,1980 418,1809 427,1808 463,1806 757,1804 790,1805 790,1806">
            <metadata id="LAMISSEB_LESNOEILS1_020_balloon_2" tailTip="558,2115" tailDirection="S" idSpeaker="Les_Noeils_Tome_1Page20Character7" rank="18"/>
        </polygon>
    </svg>
    <svg contentScriptType="text/ecmascript" zoomAndPan="magnify" class="Line" contentStyleType="text/css" preserveAspectRatio="xMidYMid meet" version="1.0">
        <polygon points="1775,1792 2035,1792 2035,1823 1775,1823 1775,1792">
            <metadata id="LAMISSEB_LESNOEILS1_020_line_14" rank="0"/>
        </polygon>
        <polygon points="541,2583 732,2583 732,2612 541,2612 541,2583">
            <metadata id="LAMISSEB_LESNOEILS1_020_line_1" rank="2"/>
        </polygon>
        <polygon points="322,2584 505,2584 505,2613 322,2613 322,2584">
            <metadata id="LAMISSEB_LESNOEILS1_020_line_2" rank="4"/>
        </polygon>
        <polygon points="1000,1842 1417,1842 1417,1872 1000,1872 1000,1842">
            <metadata id="LAMISSEB_LESNOEILS1_020_line_11" rank="6"/>
        </polygon>
        <polygon points="1002,967 1422,967 1422,1001 1002,1001 1002,967">
            <metadata id="LAMISSEB_LESNOEILS1_020_line_19" rank="8"/>
        </polygon>
        <polygon points="1665,1041 2138,1041 2138,1076 1665,1076 1665,1041">
            <metadata id="LAMISSEB_LESNOEILS1_020_line_22" rank="10"/>
        </polygon>
        <polygon points="1006,1928 1407,1928 1407,1959 1006,1959 1006,1928">
            <metadata id="LAMISSEB_LESNOEILS1_020_line_9" rank="12"/>
        </polygon>
        <polygon points="554,967 662,967 662,1009 554,1009 554,967">
            <metadata id="LAMISSEB_LESNOEILS1_020_line_28" rank="14"/>
        </polygon>
        <polygon points="273,973 463,973 463,1003 273,1003 273,973">
            <metadata id="LAMISSEB_LESNOEILS1_020_line_26" rank="16"/>
        </polygon>
        <polygon points="985,1796 1432,1796 1432,1830 985,1830 985,1796">
            <metadata id="LAMISSEB_LESNOEILS1_020_line_12" rank="18"/>
        </polygon>
        <polygon points="1725,998 2103,998 2103,1032 1725,1032 1725,998">
            <metadata id="LAMISSEB_LESNOEILS1_020_line_23" rank="20"/>
        </polygon>
        <polygon points="1810,1746 2019,1746 2019,1777 1810,1777 1810,1746">
            <metadata id="LAMISSEB_LESNOEILS1_020_line_15" rank="22"/>
        </polygon>
        <polygon points="1706,1217 1893,1217 1893,1248 1706,1248 1706,1217">
            <metadata id="LAMISSEB_LESNOEILS1_020_line_20" rank="24"/>
        </polygon>
        <polygon points="514,1021 736,1021 736,1062 514,1062 514,1021">
            <metadata id="LAMISSEB_LESNOEILS1_020_line_27" rank="26"/>
        </polygon>
        <polygon points="1658,1175 1945,1175 1945,1205 1658,1205 1658,1175">
            <metadata id="LAMISSEB_LESNOEILS1_020_line_21" rank="28"/>
        </polygon>
        <polygon points="973,1884 1445,1884 1445,1916 973,1916 973,1884">
            <metadata id="LAMISSEB_LESNOEILS1_020_line_10" rank="30"/>
        </polygon>
        <polygon points="436,1876 765,1876 765,1907 436,1907 436,1876">
            <metadata id="LAMISSEB_LESNOEILS1_020_line_6" rank="32"/>
        </polygon>
        <polygon points="374,2539 680,2539 680,2570 374,2570 374,2539">
            <metadata id="LAMISSEB_LESNOEILS1_020_line_3" rank="34"/>
        </polygon>
        <polygon points="1004,1011 1425,1011 1425,1046 1004,1046 1004,1011">
            <metadata id="LAMISSEB_LESNOEILS1_020_line_18" rank="36"/>
        </polygon>
        <polygon points="263,185 745,185 745,219 263,219 263,185">
            <metadata id="LAMISSEB_LESNOEILS1_020_line_35" rank="38"/>
        </polygon>
        <polygon points="336,2624 715,2624 715,2656 336,2656 336,2624">
            <metadata id="LAMISSEB_LESNOEILS1_020_line_0" rank="40"/>
        </polygon>
        <polygon points="289,1017 419,1017 419,1047 289,1047 289,1017">
            <metadata id="LAMISSEB_LESNOEILS1_020_line_25" rank="42"/>
        </polygon>
        <polygon points="452,1919 745,1919 745,1952 452,1952 452,1919">
            <metadata id="LAMISSEB_LESNOEILS1_020_line_5" rank="44"/>
        </polygon>
        <polygon points="1020,1754 1396,1754 1396,1785 1020,1785 1020,1754">
            <metadata id="LAMISSEB_LESNOEILS1_020_line_13" rank="46"/>
        </polygon>
        <polygon points="461,1834 739,1834 739,1864 461,1864 461,1834">
            <metadata id="LAMISSEB_LESNOEILS1_020_line_7" rank="48"/>
        </polygon>
        <polygon points="1630,955 2198,955 2198,990 1630,990 1630,955">
            <metadata id="LAMISSEB_LESNOEILS1_020_line_24" rank="50"/>
        </polygon>
        <polygon points="1011,1056 1414,1056 1414,1090 1011,1090 1011,1056">
            <metadata id="LAMISSEB_LESNOEILS1_020_line_17" rank="52"/>
        </polygon>
    </svg>
    <svg contentScriptType="text/ecmascript" zoomAndPan="magnify" class="Object" contentStyleType="text/css" preserveAspectRatio="xMidYMid meet" version="1.0">
        <polygon points="412,2146 799,2146 799,2372 412,2372 412,2146">
            <metadata id="Les_Noeils_Tome_1Page20Character7" idBalloon="LAMISSEB_LESNOEILS1_020_balloon_2" idPanel="LAMISSEB_LESNOEILS1_020_panel_3"/>
        </polygon>
        <polygon points="1687,1383 2000,1383 2000,1572 1687,1572 1687,1383">
            <metadata id="Les_Noeils_Tome_1Page20Character1" idPanel="LAMISSEB_LESNOEILS1_020_panel_7"/>
        </polygon>
        <polygon points="459,2933 808,2933 808,3159 459,3159 459,2933">
            <metadata id="Les_Noeils_Tome_1Page20Character5" idBalloon="LAMISSEB_LESNOEILS1_020_balloon_0" idPanel="LAMISSEB_LESNOEILS1_020_panel_0"/>
        </polygon>
        <polygon points="903,1217 1158,1217 1158,1577 903,1577 903,1217">
            <metadata id="Les_Noeils_Tome_1Page20Character3" idBalloon="LAMISSEB_LESNOEILS1_020_balloon_5" idPanel="LAMISSEB_LESNOEILS1_020_panel_6"/>
        </polygon>
        <polygon points="1607,2042 1959,2042 1959,2368 1607,2368 1607,2042">
            <metadata id="Les_Noeils_Tome_1Page20Character17" idBalloon="LAMISSEB_LESNOEILS1_020_balloon_4" idPanel="LAMISSEB_LESNOEILS1_020_panel_5"/>
        </polygon>
        <polygon points="1687,1383 2000,1383 2000,1572 1687,1572 1687,1383">
            <metadata id="Les_Noeils_Tome_1Page20Character19" idPanel="LAMISSEB_LESNOEILS1_020_panel_7"/>
        </polygon>
        <polygon points="232,1330 527,1330 527,1574 232,1574 232,1330">
            <metadata id="Les_Noeils_Tome_1Page20Character13" idPanel="LAMISSEB_LESNOEILS1_020_panel_8"/>
        </polygon>
        <polygon points="1277,2143 1504,2143 1504,2358 1277,2358 1277,2143">
            <metadata id="Les_Noeils_Tome_1Page20Character11" idBalloon="LAMISSEB_LESNOEILS1_020_balloon_3" idPanel="LAMISSEB_LESNOEILS1_020_panel_4"/>
        </polygon>
    </svg>
    <metadata lastModificationDate="Thu Jun 12 14:24:14 CEST 2014" method="Reasoning on polygon's type" referent="Clément Guérin"/>
</svg>
