<?xml version="1.0" encoding="UTF-8" standalone="no"?>
<svg xmlns="http://www.w3.org/2000/svg" xmlns:xlink="http://www.w3.org/1999/xlink" contentScriptType="text/ecmascript" width="1230.0mm" zoomAndPan="magnify" contentStyleType="text/css" viewBox="0.0 0.0 2461.0 3411.0" height="1705.0mm" preserveAspectRatio="xMidYMid meet" version="1.0">
    <svg contentScriptType="text/ecmascript" zoomAndPan="magnify" class="Page" contentStyleType="text/css" preserveAspectRatio="xMidYMid meet" version="1.0">
        <image x="0" y="0" fill-opacity="0.5" width="2461" xlink:href="../Pages/LAMISSEB_LESNOEILS1_024.jpg" xlink:type="simple" xlink:actuate="onLoad" height="3411" opacity="0.5" preserveAspectRatio="xMidYMid meet" xlink:show="embed"/>
    </svg>
    <style type="text/css" xml:space="preserve"><![CDATA[
		* { stroke-width: 0; stroke-linejoin: round; }
		.Unclassified { fill: orange; stroke: none; opacity: 1.0; visibility: hidden; }
		.Noise { fill: pink; stroke: none; opacity: 0.2; visibility: hidden; }
		.Panel { fill: red; stroke: none; opacity: 0.2; visibility: visible; image-rendering: optimizeSpeed; }
		.Line { fill: green; stroke: none; opacity: 0.2; visibility: visible; image-rendering: optimizeSpeed; }
		.TextArea { fill: grey; stroke: none; opacity: 0.2; visibility: visible; image-rendering: optimizeSpeed; }
		.Balloon { fill: cyan; stroke: none; opacity: 0.2; visibility: visible; image-rendering: optimizeSpeed; }
		.Letter { fill: blue; stroke: none; opacity: 0.2; visibility: hidden; }
		.Object { fill: yellow; stroke: none; opacity: 0.2; visibility: visible; image-rendering: optimizeSpeed; }
		.Page { fill: white; stroke: none; opacity: 0.5; visibility: visible; }
]]></style>
    <svg contentScriptType="text/ecmascript" zoomAndPan="magnify" class="Panel" contentStyleType="text/css" preserveAspectRatio="xMidYMid meet" version="1.0">
        <polygon points="1557,2422 1553,2423 1547,2424 1205,2426 914,2427 900,2427 898,2426 895,2094 895,2093 897,1769 898,1766 952,1733 1347,1727 1361,1727 1430,1728 1488,1730 1492,1731 1550,1761 1551,1762 1557,2388 1557,2422">
            <metadata id="LAMISSEB_LESNOEILS1_024_panel_4" rank="5"/>
        </polygon>
        <polygon points="2267,1361 2259,1630 2255,1632 2176,1633 1898,1635 1586,1637 1582,1637 1580,1636 494,823 493,821 491,813 491,811 526,449 532,393 533,392 901,71 905,69 1095,1 1124,1 1157,4 1931,77 1937,78 1943,85 1945,88 2258,975 2267,1355 2267,1361">
            <metadata id="LAMISSEB_LESNOEILS1_024_panel_8" rank="2"/>
        </polygon>
        <polygon points="866,2423 864,2427 834,2428 240,2431 200,2430 198,2173 196,1812 196,1772 197,1771 252,1740 254,1739 274,1738 388,1737 810,1734 815,1734 817,1735 865,1767 866,2405 866,2423">
            <metadata id="LAMISSEB_LESNOEILS1_024_panel_3" rank="4"/>
        </polygon>
        <polygon points="2264,2422 2262,2423 1591,2424 1586,2424 1585,2423 1581,1764 1581,1763 1614,1725 2167,1719 2230,1719 2231,1720 2263,1757 2264,1759 2264,2422">
            <metadata id="LAMISSEB_LESNOEILS1_024_panel_5" rank="6"/>
        </polygon>
        <polygon points="1561,3199 1560,3202 1557,3204 1532,3206 908,3206 906,3204 905,3178 902,2993 901,2607 901,2550 902,2549 991,2513 996,2512 1054,2509 1362,2509 1445,2511 1556,2543 1557,2544 1558,2546 1561,3198 1561,3199">
            <metadata id="LAMISSEB_LESNOEILS1_024_panel_1" rank="8"/>
        </polygon>
        <polygon points="1551,983 1550,1322 1549,1598 1548,1636 1536,1637 1433,1638 972,1642 894,1642 893,1639 893,984 896,982 983,946 1158,944 1255,943 1426,943 1549,977 1551,979 1551,983">
            <metadata id="LAMISSEB_LESNOEILS1_024_panel_7" rank="3"/>
        </polygon>
        <polygon points="864,984 861,1570 860,1641 858,1642 817,1643 732,1644 614,1645 251,1648 192,1648 191,1646 190,1483 189,989 192,986 353,949 658,948 788,950 863,980 864,981 864,984">
            <metadata id="LAMISSEB_LESNOEILS1_024_panel_6" rank="1"/>
        </polygon>
        <polygon points="2351,2944 2350,2954 2334,3042 2265,3202 2263,3204 1819,3206 1815,3206 1599,3204 1591,3203 1590,3202 1586,2545 1588,2543 1652,2509 1713,2508 1902,2506 2135,2504 2175,2504 2194,2505 2260,2539 2264,2543 2351,2944">
            <metadata id="LAMISSEB_LESNOEILS1_024_panel_2" rank="9"/>
        </polygon>
        <polygon points="872,3203 870,3205 866,3206 826,3207 257,3210 207,3210 205,3209 203,3010 202,2827 201,2588 201,2558 203,2556 332,2521 411,2520 726,2518 732,2518 867,2548 868,2549 869,2695 871,3021 872,3186 872,3203">
            <metadata id="LAMISSEB_LESNOEILS1_024_panel_0" rank="7"/>
        </polygon>
    </svg>
    <svg contentScriptType="text/ecmascript" zoomAndPan="magnify" class="Balloon" contentStyleType="text/css" preserveAspectRatio="xMidYMid meet" version="1.0">
        <polygon points="2225,1862 1880,2044 1625,1866 1624,1865 1619,1734 1619,1732 1620,1731 1644,1730 2166,1724 2224,1724 2225,1726 2225,1862">
            <metadata id="LAMISSEB_LESNOEILS1_024_balloon_5" tailTip="1880,2044" tailDirection="S" rank="0"/>
        </polygon>
        <polygon points="1421,1079 1262,1260 989,1081 988,1080 988,952 989,951 1017,950 1171,948 1269,947 1311,947 1415,949 1421,950 1421,1079">
            <metadata id="LAMISSEB_LESNOEILS1_024_balloon_8" tailTip="1262,1260" tailDirection="S" idSpeaker="Les_Noeils_Tome_1Page24Character7" rank="2"/>
        </polygon>
        <polygon points="858,1212 857,1213 679,1256 675,1256 671,1254 358,1050 356,977 356,957 357,956 638,954 688,954 770,955 784,956 858,1204 858,1212">
            <metadata id="LAMISSEB_LESNOEILS1_024_balloon_7" tailTip="858,1204" tailDirection="E" rank="4"/>
        </polygon>
        <polygon points="1441,2530 1440,2645 1342,2797 1341,2798 997,2650 997,2518 1038,2517 1301,2514 1356,2514 1396,2515 1440,2517 1441,2524 1441,2530">
            <metadata id="LAMISSEB_LESNOEILS1_024_balloon_1" tailTip="1341,2798" tailDirection="S" idSpeaker="Les_Noeils_Tome_1Page24Character3" rank="6"/>
        </polygon>
        <polygon points="1489,1909 1214,2059 957,1913 956,1912 956,1739 957,1738 1339,1732 1354,1732 1429,1733 1485,1735 1487,1736 1489,1898 1489,1909">
            <metadata id="LAMISSEB_LESNOEILS1_024_balloon_4" tailTip="1214,2059" tailDirection="S" idSpeaker="Les_Noeils_Tome_1Page24Character9" rank="8"/>
        </polygon>
        <polygon points="2253,1316 2082,1409 2055,1410 1971,1411 1587,1415 1586,1415 1586,1300 1587,1040 1588,986 1589,982 2252,976 2253,977 2253,1316">
            <metadata id="LAMISSEB_LESNOEILS1_024_balloon_9" tailTip="1589,982" tailDirection="SW" rank="10"/>
        </polygon>
        <polygon points="733,2689 696,2811 695,2813 691,2817 685,2822 682,2824 680,2825 333,2696 333,2529 334,2528 415,2525 604,2524 727,2524 728,2531 729,2545 733,2672 733,2689">
            <metadata id="LAMISSEB_LESNOEILS1_024_balloon_0" tailTip="696,2811" tailDirection="SE" idSpeaker="Les_Noeils_Tome_1Page24Character13" rank="14"/>
        </polygon>
        <polygon points="814,1748 809,1869 637,2042 636,2043 263,1874 261,1873 258,1795 257,1746 257,1745 258,1744 272,1743 380,1742 665,1741 814,1741 814,1748">
            <metadata id="LAMISSEB_LESNOEILS1_024_balloon_3" tailTip="637,2042" tailDirection="S" rank="12"/>
        </polygon>
        <polygon points="2192,2681 1829,2895 1768,2836 1762,2830 1661,2685 1657,2563 1657,2516 1659,2514 1711,2513 2138,2509 2162,2509 2190,2510 2192,2553 2192,2681">
            <metadata id="LAMISSEB_LESNOEILS1_024_balloon_2" tailTip="1829,2895" tailDirection="SE" idSpeaker="Les_Noeils_Tome_1Page24Character17" rank="16"/>
        </polygon>
    </svg>
    <svg contentScriptType="text/ecmascript" zoomAndPan="magnify" class="Line" contentStyleType="text/css" preserveAspectRatio="xMidYMid meet" version="1.0">
        <polygon points="982,1763 1459,1763 1459,1797 982,1797 982,1763">
            <metadata id="LAMISSEB_LESNOEILS1_024_line_17" rank="0"/>
        </polygon>
        <polygon points="394,982 740,982 740,1026 394,1026 394,982">
            <metadata id="LAMISSEB_LESNOEILS1_024_line_22" rank="2"/>
        </polygon>
        <polygon points="1031,977 1377,977 1377,1009 1031,1009 1031,977">
            <metadata id="LAMISSEB_LESNOEILS1_024_line_24" rank="4"/>
        </polygon>
        <polygon points="1708,2578 2143,2578 2143,2616 1708,2616 1708,2578">
            <metadata id="LAMISSEB_LESNOEILS1_024_line_8" rank="6"/>
        </polygon>
        <polygon points="291,1770 782,1770 782,1802 291,1802 291,1770">
            <metadata id="LAMISSEB_LESNOEILS1_024_line_13" rank="8"/>
        </polygon>
        <polygon points="409,2545 656,2545 656,2579 409,2579 409,2545">
            <metadata id="LAMISSEB_LESNOEILS1_024_line_2" rank="10"/>
        </polygon>
        <polygon points="1659,1801 2188,1801 2188,1836 1659,1836 1659,1801">
            <metadata id="LAMISSEB_LESNOEILS1_024_line_18" rank="14"/>
        </polygon>
        <polygon points="1057,2590 1380,2590 1380,2622 1057,2622 1057,2590">
            <metadata id="LAMISSEB_LESNOEILS1_024_line_3" rank="12"/>
        </polygon>
        <polygon points="354,2591 711,2591 711,2627 354,2627 354,2591">
            <metadata id="LAMISSEB_LESNOEILS1_024_line_1" rank="16"/>
        </polygon>
        <polygon points="992,1802 1448,1802 1448,1840 992,1840 992,1802">
            <metadata id="LAMISSEB_LESNOEILS1_024_line_16" rank="20"/>
        </polygon>
        <polygon points="1675,2541 2176,2541 2176,2572 1675,2572 1675,2541">
            <metadata id="LAMISSEB_LESNOEILS1_024_line_9" rank="18"/>
        </polygon>
        <polygon points="1775,2627 2077,2627 2077,2660 1775,2660 1775,2627">
            <metadata id="LAMISSEB_LESNOEILS1_024_line_7" rank="22"/>
        </polygon>
        <polygon points="389,2632 677,2632 677,2669 389,2669 389,2632">
            <metadata id="LAMISSEB_LESNOEILS1_024_line_0" rank="24"/>
        </polygon>
        <polygon points="1672,1758 2175,1758 2175,1791 1672,1791 1672,1758">
            <metadata id="LAMISSEB_LESNOEILS1_024_line_19" rank="26"/>
        </polygon>
        <polygon points="1012,1022 1391,1022 1391,1055 1012,1055 1012,1022">
            <metadata id="LAMISSEB_LESNOEILS1_024_line_23" rank="28"/>
        </polygon>
        <polygon points="279,1815 789,1815 789,1846 279,1846 279,1815">
            <metadata id="LAMISSEB_LESNOEILS1_024_line_12" rank="30"/>
        </polygon>
        <polygon points="1070,1854 1367,1854 1367,1885 1070,1885 1070,1854">
            <metadata id="LAMISSEB_LESNOEILS1_024_line_15" rank="32"/>
        </polygon>
        <polygon points="1028,2543 1407,2543 1407,2577 1028,2577 1028,2543">
            <metadata id="LAMISSEB_LESNOEILS1_024_line_4" rank="34"/>
        </polygon>
        <polygon points="1708,971 2122,971 2122,1007 1708,1007 1708,971">
            <metadata id="LAMISSEB_LESNOEILS1_024_line_25" rank="36"/>
        </polygon>
    </svg>
    <svg contentScriptType="text/ecmascript" zoomAndPan="magnify" class="Object" contentStyleType="text/css" preserveAspectRatio="xMidYMid meet" version="1.0">
        <polygon points="898,1274 1546,1274 1546,1639 898,1639 898,1274">
            <metadata id="Les_Noeils_Tome_1Page24Character7" idBalloon="LAMISSEB_LESNOEILS1_024_balloon_8" idPanel="LAMISSEB_LESNOEILS1_024_panel_7"/>
        </polygon>
        <polygon points="902,2059 1553,2059 1553,2424 902,2424 902,2059">
            <metadata id="Les_Noeils_Tome_1Page24Character9" idBalloon="LAMISSEB_LESNOEILS1_024_balloon_4" idPanel="LAMISSEB_LESNOEILS1_024_panel_4"/>
        </polygon>
        <polygon points="1595,2817 2348,2817 2348,3200 1595,3200 1595,2817">
            <metadata id="Les_Noeils_Tome_1Page24Character17" idBalloon="LAMISSEB_LESNOEILS1_024_balloon_2" idPanel="LAMISSEB_LESNOEILS1_024_panel_2"/>
        </polygon>
        <polygon points="909,2878 1557,2878 1557,3202 909,3202 909,2878">
            <metadata id="Les_Noeils_Tome_1Page24Character3" idBalloon="LAMISSEB_LESNOEILS1_024_balloon_1" idPanel="LAMISSEB_LESNOEILS1_024_panel_1"/>
        </polygon>
        <polygon points="711,2859 752,2859 752,3079 711,3079 711,2859">
            <metadata id="Les_Noeils_Tome_1Page24Character13" idBalloon="LAMISSEB_LESNOEILS1_024_balloon_0" idPanel="LAMISSEB_LESNOEILS1_024_panel_0"/>
        </polygon>
    </svg>
    <metadata lastModificationDate="Thu Jun 12 14:24:17 CEST 2014" method="Reasoning on polygon's type" referent="Clément Guérin"/>
</svg>
