<?xml version="1.0" encoding="UTF-8" standalone="no"?>
<svg xmlns="http://www.w3.org/2000/svg" xmlns:xlink="http://www.w3.org/1999/xlink" contentScriptType="text/ecmascript" width="254.0mm" zoomAndPan="magnify" contentStyleType="text/css" viewBox="0.0 0.0 509.0 772.0" height="386.0mm" preserveAspectRatio="xMidYMid meet" version="1.0">
    <svg contentScriptType="text/ecmascript" zoomAndPan="magnify" class="Page" contentStyleType="text/css" preserveAspectRatio="xMidYMid meet" version="1.0">
        <image x="0" y="0" fill-opacity="0.5" width="509" xlink:href="../Pages/MONTAIGNE_TUMOURRASMOINSBETE_T01_123.jpg" xlink:type="simple" xlink:actuate="onLoad" height="772" opacity="0.5" preserveAspectRatio="xMidYMid meet" xlink:show="embed"/>
    </svg>
    <style type="text/css" xml:space="preserve"><![CDATA[
		* { stroke-width: 0; stroke-linejoin: round; }
		.Unclassified { fill: orange; stroke: none; opacity: 1.0; visibility: hidden; }
		.Noise { fill: pink; stroke: none; opacity: 0.2; visibility: hidden; }
		.Panel { fill: red; stroke: none; opacity: 0.2; visibility: visible; image-rendering: optimizeSpeed; }
		.Line { fill: green; stroke: none; opacity: 0.2; visibility: visible; image-rendering: optimizeSpeed; }
		.TextArea { fill: grey; stroke: none; opacity: 0.2; visibility: visible; image-rendering: optimizeSpeed; }
		.Balloon { fill: cyan; stroke: none; opacity: 0.2; visibility: visible; image-rendering: optimizeSpeed; }
		.Letter { fill: blue; stroke: none; opacity: 0.2; visibility: hidden; }
		.Object { fill: yellow; stroke: none; opacity: 0.2; visibility: visible; image-rendering: optimizeSpeed; }
		.Page { fill: white; stroke: none; opacity: 0.5; visibility: visible; }
]]></style>
    <svg contentScriptType="text/ecmascript" zoomAndPan="magnify" class="Panel" contentStyleType="text/css" preserveAspectRatio="xMidYMid meet" version="1.0">
        <polygon points="270,698 269,699 266,700 247,703 221,705 220,705 140,701 99,693 83,689 70,683 55,676 51,674 38,664 34,660 29,652 26,647 26,644 35,643 137,638 139,638 267,692 268,693 270,697 270,698">
            <metadata id="MONTAIGNE_TUMOURRASMOINSBETE_T01_123_panel_0" rank="2"/>
        </polygon>
        <polygon points="210,72 208,77 201,91 197,96 194,99 107,183 93,184 86,184 63,164 63,163 97,13 103,11 154,1 155,1 162,2 168,3 183,6 184,7 209,60 210,63 210,72">
            <metadata id="MONTAIGNE_TUMOURRASMOINSBETE_T01_123_panel_1" rank="1"/>
        </polygon>
    </svg>
    <svg contentScriptType="text/ecmascript" zoomAndPan="magnify" class="Balloon" contentStyleType="text/css" preserveAspectRatio="xMidYMid meet" version="1.0"/>
    <svg contentScriptType="text/ecmascript" zoomAndPan="magnify" class="Line" contentStyleType="text/css" preserveAspectRatio="xMidYMid meet" version="1.0"/>
    <svg contentScriptType="text/ecmascript" zoomAndPan="magnify" class="Object" contentStyleType="text/css" preserveAspectRatio="xMidYMid meet" version="1.0"/>
    <metadata lastModificationDate="Thu Jun 12 14:25:02 CEST 2014" method="Reasoning on polygon's type" referent="Clément Guérin"/>
</svg>
