<?xml version="1.0" encoding="UTF-8" standalone="no"?>
<svg xmlns="http://www.w3.org/2000/svg" xmlns:xlink="http://www.w3.org/1999/xlink" contentScriptType="text/ecmascript" width="734.0mm" zoomAndPan="magnify" contentStyleType="text/css" viewBox="0.0 0.0 1468.0 2220.0" height="1110.0mm" preserveAspectRatio="xMidYMid meet" version="1.0">
    <svg contentScriptType="text/ecmascript" zoomAndPan="magnify" class="Page" contentStyleType="text/css" preserveAspectRatio="xMidYMid meet" version="1.0">
        <image x="0" y="0" fill-opacity="0.5" width="1468" xlink:href="../Pages/PIKE_BOYLOVEGIRLS_T41_015.jpg" xlink:type="simple" xlink:actuate="onLoad" height="2220" opacity="0.5" preserveAspectRatio="xMidYMid meet" xlink:show="embed"/>
    </svg>
    <style type="text/css" xml:space="preserve"><![CDATA[
		* { stroke-width: 0; stroke-linejoin: round; }
		.Unclassified { fill: orange; stroke: none; opacity: 1.0; visibility: hidden; }
		.Noise { fill: pink; stroke: none; opacity: 0.2; visibility: hidden; }
		.Panel { fill: red; stroke: none; opacity: 0.2; visibility: visible; image-rendering: optimizeSpeed; }
		.Line { fill: green; stroke: none; opacity: 0.2; visibility: visible; image-rendering: optimizeSpeed; }
		.TextArea { fill: grey; stroke: none; opacity: 0.2; visibility: visible; image-rendering: optimizeSpeed; }
		.Balloon { fill: cyan; stroke: none; opacity: 0.2; visibility: visible; image-rendering: optimizeSpeed; }
		.Letter { fill: blue; stroke: none; opacity: 0.2; visibility: hidden; }
		.Object { fill: yellow; stroke: none; opacity: 0.2; visibility: visible; image-rendering: optimizeSpeed; }
		.Page { fill: white; stroke: none; opacity: 0.5; visibility: visible; }
]]></style>
    <svg contentScriptType="text/ecmascript" zoomAndPan="magnify" class="Panel" contentStyleType="text/css" preserveAspectRatio="xMidYMid meet" version="1.0">
        <polygon points="495,547 492,758 491,760 63,764 62,764 45,763 43,762 42,761 41,735 41,235 42,233 44,232 97,231 162,230 310,229 490,229 491,230 495,546 495,547">
            <metadata id="PIKE_BOYLOVEGIRLS_T41_015_panel_4" rank="1"/>
        </polygon>
        <polygon points="1427,763 1426,764 1095,764 994,763 971,762 967,663 967,661 969,207 970,202 971,201 1358,199 1393,199 1423,200 1425,202 1426,241 1427,338 1427,763">
            <metadata id="PIKE_BOYLOVEGIRLS_T41_015_panel_5" rank="3"/>
        </polygon>
        <polygon points="954,628 952,760 950,762 941,762 526,761 513,760 512,759 507,702 507,431 510,128 511,79 512,78 949,78 950,79 951,81 954,627 954,628">
            <metadata id="PIKE_BOYLOVEGIRLS_T41_015_panel_6" rank="2"/>
        </polygon>
        <polygon points="537,1114 536,1450 534,1451 125,1451 44,1450 43,1448 41,1280 38,783 38,780 39,778 40,777 42,776 91,775 226,773 429,774 520,777 534,781 536,783 537,1114">
            <metadata id="PIKE_BOYLOVEGIRLS_T41_015_panel_3" rank="4"/>
        </polygon>
        <polygon points="1435,2095 1430,2157 1429,2159 1428,2160 1425,2161 1368,2162 967,2165 966,2165 886,2162 816,2159 812,2158 811,2157 811,2027 812,1475 814,1473 952,1469 955,1469 1424,1474 1427,1475 1428,1476 1431,1597 1435,2094 1435,2095">
            <metadata id="PIKE_BOYLOVEGIRLS_T41_015_panel_1" rank="7"/>
        </polygon>
        <polygon points="799,1960 798,2141 794,2157 793,2158 790,2159 378,2160 65,2151 44,2150 43,2149 42,2146 40,1801 40,1799 42,1547 43,1546 45,1545 629,1538 788,1549 792,1550 794,1552 799,1959 799,1960">
            <metadata id="PIKE_BOYLOVEGIRLS_T41_015_panel_0" rank="6"/>
        </polygon>
        <polygon points="1433,958 1428,1453 1427,1454 1425,1455 1392,1455 793,1453 562,1452 557,1451 556,1447 555,1240 554,966 554,834 556,825 566,822 794,810 945,808 949,808 1146,810 1412,813 1423,814 1427,816 1428,820 1433,958">
            <metadata id="PIKE_BOYLOVEGIRLS_T41_015_panel_2" rank="5"/>
        </polygon>
    </svg>
    <svg contentScriptType="text/ecmascript" zoomAndPan="magnify" class="Balloon" contentStyleType="text/css" preserveAspectRatio="xMidYMid meet" version="1.0">
        <polygon points="1423,1576 1392,1583 1384,1584 1343,1585 825,1585 818,1584 817,1583 817,1479 818,1478 867,1478 1371,1480 1402,1481 1422,1482 1423,1492 1423,1576">
            <metadata id="PIKE_BOYLOVEGIRLS_T41_015_balloon_4" tailDirection="none" rank="0"/>
        </polygon>
        <polygon points="1422,755 1420,757 1403,758 1390,758 974,453 973,269 973,223 974,216 976,214 979,212 987,207 991,206 1030,205 1376,205 1414,206 1419,207 1420,208 1422,449 1422,755">
            <metadata id="PIKE_BOYLOVEGIRLS_T41_015_balloon_9" tailTip="974,453" tailDirection="S" rank="2"/>
        </polygon>
        <polygon points="884,923 733,952 718,954 686,954 671,953 662,952 637,949 630,948 618,946 613,945 604,943 592,940 583,937 578,935 574,933 569,930 565,927 560,922 560,857 564,851 574,841 579,837 611,836 778,837 787,838 789,839 794,842 798,845 883,922 884,923">
            <metadata id="PIKE_BOYLOVEGIRLS_T41_015_balloon_6" tailTip="884,923" tailDirection="E" rank="4"/>
        </polygon>
        <polygon points="1424,1800 1408,1826 1401,1833 1368,1853 1274,1903 1273,1903 1152,1833 1144,1827 1132,1815 1127,1809 1125,1806 1119,1796 1111,1780 1109,1774 1108,1769 1108,1748 1171,1599 1174,1596 1177,1594 1183,1591 1186,1590 1381,1590 1387,1592 1397,1597 1406,1603 1411,1607 1418,1614 1424,1621 1424,1800">
            <metadata id="PIKE_BOYLOVEGIRLS_T41_015_balloon_2" tailTip="1274,1903" tailDirection="S" idSpeaker="Boy_Love_Girls_Boy_Love_Girls_41Page15Character7" rank="6"/>
        </polygon>
        <polygon points="330,301 329,314 328,319 325,328 322,334 320,337 315,344 307,351 292,361 207,412 206,412 75,365 64,361 57,358 49,354 47,352 47,251 48,249 50,247 59,241 63,239 69,237 86,236 188,234 276,233 282,233 294,234 296,235 299,237 309,245 310,246 317,254 320,259 324,267 326,272 327,275 328,279 329,285 330,301">
            <metadata id="PIKE_BOYLOVEGIRLS_T41_015_balloon_8" tailTip="206,412" tailDirection="S" rank="8"/>
        </polygon>
        <polygon points="349,1607 347,1615 344,1624 339,1634 337,1637 333,1642 272,1703 96,1663 83,1660 75,1658 68,1656 61,1653 49,1647 48,1646 48,1590 49,1567 54,1561 55,1560 63,1553 67,1551 167,1551 317,1552 320,1553 326,1556 332,1561 339,1568 343,1574 346,1580 347,1583 348,1588 349,1603 349,1607">
            <metadata id="PIKE_BOYLOVEGIRLS_T41_015_balloon_1" tailTip="272,1703" tailDirection="S" idSpeaker="Boy_Love_Girls_Boy_Love_Girls_41Page15Character1" rank="10"/>
        </polygon>
        <polygon points="947,224 946,228 893,381 691,326 542,268 533,264 526,260 523,258 516,252 515,249 514,209 515,95 516,93 525,84 527,83 628,82 638,82 754,83 873,91 884,92 891,93 897,94 901,95 912,98 919,101 923,103 931,108 938,114 944,120 946,124 947,175 947,224">
            <metadata id="PIKE_BOYLOVEGIRLS_T41_015_balloon_10" tailTip="691,326" tailDirection="SE" idSpeaker="Boy_Love_Girls_Boy_Love_Girls_41Page15Character3" rank="12"/>
        </polygon>
        <polygon points="1174,1633 1172,1644 1146,1708 1143,1714 1138,1721 1134,1725 1124,1733 1050,1781 1049,1781 974,1730 967,1725 963,1722 962,1721 956,1713 953,1708 950,1701 947,1693 946,1690 946,1686 964,1602 966,1598 971,1593 977,1590 1059,1589 1060,1589 1150,1590 1158,1595 1163,1600 1167,1605 1169,1608 1171,1612 1173,1620 1174,1628 1174,1633">
            <metadata id="PIKE_BOYLOVEGIRLS_T41_015_balloon_3" tailTip="1050,1781" tailDirection="S" idSpeaker="Boy_Love_Girls_Boy_Love_Girls_41Page15Character15" rank="14"/>
        </polygon>
        <polygon points="1147,856 1146,862 1133,904 1027,893 1019,892 1001,889 996,888 992,887 985,885 979,883 972,880 968,878 959,873 954,869 948,863 944,856 943,851 943,847 945,839 946,836 949,830 956,823 958,822 1088,822 1132,823 1136,825 1141,830 1144,835 1145,837 1147,843 1147,856">
            <metadata id="PIKE_BOYLOVEGIRLS_T41_015_balloon_7" tailDirection="none" rank="16"/>
        </polygon>
        <polygon points="608,1586 607,1592 590,1647 589,1650 584,1657 580,1662 579,1663 569,1670 561,1675 557,1677 446,1728 445,1728 358,1670 350,1663 349,1662 345,1657 343,1654 340,1649 339,1647 339,1644 347,1567 348,1565 356,1557 359,1555 363,1553 589,1553 593,1555 599,1560 600,1561 603,1565 605,1568 606,1570 607,1573 608,1580 608,1586">
            <metadata id="PIKE_BOYLOVEGIRLS_T41_015_balloon_0" tailTip="446,1728" tailDirection="S" idSpeaker="Boy_Love_Girls_Boy_Love_Girls_41Page15Character13" rank="18"/>
        </polygon>
    </svg>
    <svg contentScriptType="text/ecmascript" zoomAndPan="magnify" class="Line" contentStyleType="text/css" preserveAspectRatio="xMidYMid meet" version="1.0">
        <polygon points="1202,1807 1370,1807 1370,1827 1202,1827 1202,1807">
            <metadata id="PIKE_BOYLOVEGIRLS_T41_015_line_11" rank="0"/>
        </polygon>
        <polygon points="1025,1714 1091,1714 1091,1732 1025,1732 1025,1714">
            <metadata id="PIKE_BOYLOVEGIRLS_T41_015_line_20" rank="2"/>
        </polygon>
        <polygon points="378,1610 558,1610 558,1630 378,1630 378,1610">
            <metadata id="PIKE_BOYLOVEGIRLS_T41_015_line_32" rank="4"/>
        </polygon>
        <polygon points="526,162 754,162 754,181 526,181 526,162">
            <metadata id="PIKE_BOYLOVEGIRLS_T41_015_line_100" rank="6"/>
        </polygon>
        <polygon points="1008,263 1095,263 1095,282 1008,282 1008,263">
            <metadata id="PIKE_BOYLOVEGIRLS_T41_015_line_64" rank="8"/>
        </polygon>
        <polygon points="840,1546 1248,1546 1248,1565 840,1565 840,1546">
            <metadata id="PIKE_BOYLOVEGIRLS_T41_015_line_37" rank="10"/>
        </polygon>
        <polygon points="52,268 318,268 318,290 52,290 52,268">
            <metadata id="PIKE_BOYLOVEGIRLS_T41_015_line_78" rank="12"/>
        </polygon>
        <polygon points="1000,1645 1126,1645 1126,1664 1000,1664 1000,1645">
            <metadata id="PIKE_BOYLOVEGIRLS_T41_015_line_23" rank="14"/>
        </polygon>
        <polygon points="578,249 687,249 687,270 578,270 578,249">
            <metadata id="PIKE_BOYLOVEGIRLS_T41_015_line_95" rank="16"/>
        </polygon>
        <polygon points="972,1668 1133,1668 1133,1688 972,1688 972,1668">
            <metadata id="PIKE_BOYLOVEGIRLS_T41_015_line_22" rank="18"/>
        </polygon>
        <polygon points="1149,1738 1230,1738 1230,1756 1149,1756 1149,1738">
            <metadata id="PIKE_BOYLOVEGIRLS_T41_015_line_15" rank="20"/>
        </polygon>
        <polygon points="840,1523 1158,1523 1158,1542 840,1542 840,1523">
            <metadata id="PIKE_BOYLOVEGIRLS_T41_015_line_39" rank="22"/>
        </polygon>
        <polygon points="811,162 930,162 930,181 811,181 811,162">
            <metadata id="PIKE_BOYLOVEGIRLS_T41_015_line_110" rank="24"/>
        </polygon>
        <polygon points="570,892 802,892 802,912 570,912 570,892">
            <metadata id="PIKE_BOYLOVEGIRLS_T41_015_line_55" rank="26"/>
        </polygon>
        <polygon points="1299,356 1352,356 1352,374 1299,374 1299,356">
            <metadata id="PIKE_BOYLOVEGIRLS_T41_015_line_62" rank="28"/>
        </polygon>
        <polygon points="1306,378 1360,378 1360,397 1306,397 1306,378">
            <metadata id="PIKE_BOYLOVEGIRLS_T41_015_line_61" rank="30"/>
        </polygon>
        <polygon points="1216,1783 1394,1783 1394,1802 1216,1802 1216,1783">
            <metadata id="PIKE_BOYLOVEGIRLS_T41_015_line_12" rank="32"/>
        </polygon>
        <polygon points="798,185 933,185 933,204 798,204 798,185">
            <metadata id="PIKE_BOYLOVEGIRLS_T41_015_line_109" rank="34"/>
        </polygon>
        <polygon points="1184,1667 1405,1667 1405,1688 1184,1688 1184,1667">
            <metadata id="PIKE_BOYLOVEGIRLS_T41_015_line_18" rank="36"/>
        </polygon>
        <polygon points="234,291 291,291 291,309 234,309 234,291">
            <metadata id="PIKE_BOYLOVEGIRLS_T41_015_line_76" rank="38"/>
        </polygon>
        <polygon points="844,208 897,208 897,226 844,226 844,208">
            <metadata id="PIKE_BOYLOVEGIRLS_T41_015_line_108" rank="40"/>
        </polygon>
        <polygon points="573,230 702,230 702,248 573,248 573,230">
            <metadata id="PIKE_BOYLOVEGIRLS_T41_015_line_96" rank="42"/>
        </polygon>
        <polygon points="1186,1526 1399,1526 1399,1543 1186,1543 1186,1526">
            <metadata id="PIKE_BOYLOVEGIRLS_T41_015_line_38" rank="44"/>
        </polygon>
        <polygon points="978,854 1090,854 1090,875 978,875 978,854">
            <metadata id="PIKE_BOYLOVEGIRLS_T41_015_line_58" rank="46"/>
        </polygon>
        <polygon points="1082,240 1388,240 1388,260 1082,260 1082,240">
            <metadata id="PIKE_BOYLOVEGIRLS_T41_015_line_65" rank="48"/>
        </polygon>
        <polygon points="127,1608 290,1608 290,1627 127,1627 127,1608">
            <metadata id="PIKE_BOYLOVEGIRLS_T41_015_line_28" rank="50"/>
        </polygon>
        <polygon points="391,1656 525,1656 525,1675 391,1675 391,1656">
            <metadata id="PIKE_BOYLOVEGIRLS_T41_015_line_30" rank="52"/>
        </polygon>
        <polygon points="63,1630 319,1630 319,1650 63,1650 63,1630">
            <metadata id="PIKE_BOYLOVEGIRLS_T41_015_line_27" rank="54"/>
        </polygon>
        <polygon points="584,912 771,912 771,934 584,934 584,912">
            <metadata id="PIKE_BOYLOVEGIRLS_T41_015_line_54" rank="56"/>
        </polygon>
        <polygon points="969,833 1130,833 1130,852 969,852 969,833">
            <metadata id="PIKE_BOYLOVEGIRLS_T41_015_line_59" rank="58"/>
        </polygon>
        <polygon points="56,313 306,313 306,335 56,335 56,313">
            <metadata id="PIKE_BOYLOVEGIRLS_T41_015_line_73" rank="60"/>
        </polygon>
        <polygon points="816,117 930,117 930,139 816,139 816,117">
            <metadata id="PIKE_BOYLOVEGIRLS_T41_015_line_112" rank="62"/>
        </polygon>
        <polygon points="1181,1714 1389,1714 1389,1733 1181,1733 1181,1714">
            <metadata id="PIKE_BOYLOVEGIRLS_T41_015_line_16" rank="64"/>
        </polygon>
        <polygon points="1231,1829 1354,1829 1354,1849 1231,1849 1231,1829">
            <metadata id="PIKE_BOYLOVEGIRLS_T41_015_line_10" rank="66"/>
        </polygon>
        <polygon points="57,290 210,290 210,312 57,312 57,290">
            <metadata id="PIKE_BOYLOVEGIRLS_T41_015_line_75" rank="68"/>
        </polygon>
        <polygon points="1167,1690 1420,1690 1420,1710 1167,1710 1167,1690">
            <metadata id="PIKE_BOYLOVEGIRLS_T41_015_line_17" rank="70"/>
        </polygon>
        <polygon points="531,185 590,185 590,203 531,203 531,185">
            <metadata id="PIKE_BOYLOVEGIRLS_T41_015_line_98" rank="72"/>
        </polygon>
        <polygon points="528,197 758,197 758,226 528,226 528,197">
            <metadata id="PIKE_BOYLOVEGIRLS_T41_015_line_97" rank="74"/>
        </polygon>
        <polygon points="367,1633 563,1633 563,1652 367,1652 367,1633">
            <metadata id="PIKE_BOYLOVEGIRLS_T41_015_line_31" rank="76"/>
        </polygon>
        <polygon points="794,139 940,139 940,158 794,158 794,139">
            <metadata id="PIKE_BOYLOVEGIRLS_T41_015_line_111" rank="78"/>
        </polygon>
        <polygon points="1253,1737 1420,1737 1420,1757 1253,1757 1253,1737">
            <metadata id="PIKE_BOYLOVEGIRLS_T41_015_line_14" rank="80"/>
        </polygon>
        <polygon points="622,184 759,184 759,203 622,203 622,184">
            <metadata id="PIKE_BOYLOVEGIRLS_T41_015_line_99" rank="82"/>
        </polygon>
        <polygon points="1138,1760 1414,1760 1414,1779 1138,1779 1138,1760">
            <metadata id="PIKE_BOYLOVEGIRLS_T41_015_line_13" rank="84"/>
        </polygon>
        <polygon points="371,1585 581,1585 581,1606 371,1606 371,1585">
            <metadata id="PIKE_BOYLOVEGIRLS_T41_015_line_33" rank="86"/>
        </polygon>
        <polygon points="992,240 1059,240 1059,259 992,259 992,240">
            <metadata id="PIKE_BOYLOVEGIRLS_T41_015_line_66" rank="88"/>
        </polygon>
        <polygon points="124,245 297,245 297,266 124,266 124,245">
            <metadata id="PIKE_BOYLOVEGIRLS_T41_015_line_80" rank="90"/>
        </polygon>
        <polygon points="994,216 1392,216 1392,236 994,236 994,216">
            <metadata id="PIKE_BOYLOVEGIRLS_T41_015_line_82" rank="92"/>
        </polygon>
        <polygon points="983,1690 1126,1690 1126,1710 983,1710 983,1690">
            <metadata id="PIKE_BOYLOVEGIRLS_T41_015_line_21" rank="94"/>
        </polygon>
        <polygon points="541,117 608,117 608,137 541,137 541,117">
            <metadata id="PIKE_BOYLOVEGIRLS_T41_015_line_102" rank="96"/>
        </polygon>
        <polygon points="93,338 241,338 241,358 93,358 93,338">
            <metadata id="PIKE_BOYLOVEGIRLS_T41_015_line_71" rank="98"/>
        </polygon>
        <polygon points="567,869 799,869 799,889 567,889 567,869">
            <metadata id="PIKE_BOYLOVEGIRLS_T41_015_line_56" rank="100"/>
        </polygon>
        <polygon points="59,1584 319,1584 319,1605 59,1605 59,1584">
            <metadata id="PIKE_BOYLOVEGIRLS_T41_015_line_29" rank="102"/>
        </polygon>
        <polygon points="550,138 728,138 728,158 550,158 550,138">
            <metadata id="PIKE_BOYLOVEGIRLS_T41_015_line_101" rank="104"/>
        </polygon>
        <polygon points="542,92 755,92 755,112 542,112 542,92">
            <metadata id="PIKE_BOYLOVEGIRLS_T41_015_line_104" rank="106"/>
        </polygon>
        <polygon points="1208,1644 1391,1644 1391,1663 1208,1663 1208,1644">
            <metadata id="PIKE_BOYLOVEGIRLS_T41_015_line_19" rank="108"/>
        </polygon>
        <polygon points="841,1501 1392,1501 1392,1520 841,1520 841,1501">
            <metadata id="PIKE_BOYLOVEGIRLS_T41_015_line_40" rank="110"/>
        </polygon>
        <polygon points="640,117 739,117 739,135 640,135 640,117">
            <metadata id="PIKE_BOYLOVEGIRLS_T41_015_line_103" rank="112"/>
        </polygon>
        <polygon points="1121,261 1283,261 1283,284 1121,284 1121,261">
            <metadata id="PIKE_BOYLOVEGIRLS_T41_015_line_63" rank="114"/>
        </polygon>
        <polygon points="599,843 762,843 762,866 599,866 599,843">
            <metadata id="PIKE_BOYLOVEGIRLS_T41_015_line_57" rank="116"/>
        </polygon>
    </svg>
    <svg contentScriptType="text/ecmascript" zoomAndPan="magnify" class="Object" contentStyleType="text/css" preserveAspectRatio="xMidYMid meet" version="1.0">
        <polygon points="310,1717 791,1717 791,2156 310,2156 310,1717">
            <metadata id="Boy_Love_Girls_Boy_Love_Girls_41Page15Character13" idBalloon="PIKE_BOYLOVEGIRLS_T41_015_balloon_0" idPanel="PIKE_BOYLOVEGIRLS_T41_015_panel_0"/>
        </polygon>
        <polygon points="650,333 948,333 948,634 650,634 650,333">
            <metadata id="Boy_Love_Girls_Boy_Love_Girls_41Page15Character3" idBalloon="PIKE_BOYLOVEGIRLS_T41_015_balloon_10" idPanel="PIKE_BOYLOVEGIRLS_T41_015_panel_6"/>
        </polygon>
        <polygon points="818,1840 1177,1840 1177,2157 818,2157 818,1840">
            <metadata id="Boy_Love_Girls_Boy_Love_Girls_41Page15Character15" idBalloon="PIKE_BOYLOVEGIRLS_T41_015_balloon_3" idPanel="PIKE_BOYLOVEGIRLS_T41_015_panel_1"/>
        </polygon>
        <polygon points="47,1684 355,1684 355,2152 47,2152 47,1684">
            <metadata id="Boy_Love_Girls_Boy_Love_Girls_41Page15Character1" idBalloon="PIKE_BOYLOVEGIRLS_T41_015_balloon_1" idPanel="PIKE_BOYLOVEGIRLS_T41_015_panel_0"/>
        </polygon>
        <polygon points="1103,1888 1427,1888 1427,2158 1103,2158 1103,1888">
            <metadata id="Boy_Love_Girls_Boy_Love_Girls_41Page15Character7" idBalloon="PIKE_BOYLOVEGIRLS_T41_015_balloon_2" idPanel="PIKE_BOYLOVEGIRLS_T41_015_panel_1"/>
        </polygon>
    </svg>
    <metadata lastModificationDate="Thu Jun 12 14:25:36 CEST 2014" method="Reasoning on polygon's type" referent="Clément Guérin"/>
</svg>
