<?xml version="1.0" encoding="UTF-8" standalone="no"?>
<svg xmlns="http://www.w3.org/2000/svg" xmlns:xlink="http://www.w3.org/1999/xlink" contentScriptType="text/ecmascript" width="977.0mm" zoomAndPan="magnify" contentStyleType="text/css" viewBox="0.0 0.0 1955.0 2697.0" height="1348.0mm" preserveAspectRatio="xMidYMid meet" version="1.0">
    <svg contentScriptType="text/ecmascript" zoomAndPan="magnify" class="Page" contentStyleType="text/css" preserveAspectRatio="xMidYMid meet" version="1.0">
        <image x="0" y="0" fill-opacity="0.5" width="1955" xlink:href="../Pages/ROUDIER_LESTERRESCREUSEES_027.jpg" xlink:type="simple" xlink:actuate="onLoad" height="2697" opacity="0.5" preserveAspectRatio="xMidYMid meet" xlink:show="embed"/>
    </svg>
    <style type="text/css" xml:space="preserve"><![CDATA[
		* { stroke-width: 0; stroke-linejoin: round; }
		.Unclassified { fill: orange; stroke: none; opacity: 1.0; visibility: hidden; }
		.Noise { fill: pink; stroke: none; opacity: 0.2; visibility: hidden; }
		.Panel { fill: red; stroke: none; opacity: 0.2; visibility: visible; image-rendering: optimizeSpeed; }
		.Line { fill: green; stroke: none; opacity: 0.2; visibility: visible; image-rendering: optimizeSpeed; }
		.TextArea { fill: grey; stroke: none; opacity: 0.2; visibility: visible; image-rendering: optimizeSpeed; }
		.Balloon { fill: cyan; stroke: none; opacity: 0.2; visibility: visible; image-rendering: optimizeSpeed; }
		.Letter { fill: blue; stroke: none; opacity: 0.2; visibility: hidden; }
		.Object { fill: yellow; stroke: none; opacity: 0.2; visibility: visible; image-rendering: optimizeSpeed; }
		.Page { fill: white; stroke: none; opacity: 0.5; visibility: visible; }
]]></style>
    <svg contentScriptType="text/ecmascript" zoomAndPan="magnify" class="Panel" contentStyleType="text/css" preserveAspectRatio="xMidYMid meet" version="1.0">
        <polygon points="1953,2634 1951,2641 1917,2676 1915,2677 1774,2679 456,2695 3,2695 1,2694 1,1 1937,1 1938,35 1949,1459 1953,2340 1953,2634">
            <metadata id="ROUDIER_LESTERRESCREUSEES_027_panel_0" rank="1"/>
        </polygon>
    </svg>
    <svg contentScriptType="text/ecmascript" zoomAndPan="magnify" class="Balloon" contentStyleType="text/css" preserveAspectRatio="xMidYMid meet" version="1.0">
        <polygon points="755,536 754,545 753,548 749,558 747,562 745,565 742,569 736,576 728,584 718,592 711,597 703,602 694,607 687,610 679,613 673,615 663,618 659,619 633,622 620,622 604,621 590,620 575,618 565,616 561,615 462,588 496,508 499,501 500,499 505,491 509,485 514,480 521,474 525,471 532,467 541,462 543,461 552,457 573,450 582,448 587,447 600,445 610,444 642,444 651,445 657,446 668,448 673,449 681,451 688,453 700,458 708,462 715,466 735,481 745,491 749,499 751,505 753,513 754,522 755,533 755,536">
            <metadata id="ROUDIER_LESTERRESCREUSEES_027_balloon_5" tailDirection="none" rank="0"/>
        </polygon>
        <polygon points="1329,2098 1328,2104 1327,2109 1325,2116 1322,2123 1318,2131 1314,2137 1311,2141 1304,2150 1299,2156 1290,2165 1285,2169 1281,2172 1276,2175 1265,2181 1253,2187 1235,2193 1222,2197 1208,2199 1200,2200 1190,2201 1166,2201 941,2192 991,2068 997,2055 1002,2046 1007,2038 1011,2033 1027,2017 1031,2014 1045,2006 1049,2004 1060,1999 1074,1994 1077,1993 1097,1988 1102,1987 1118,1984 1129,1983 1141,1982 1184,1982 1194,1983 1200,1984 1205,1985 1218,1988 1246,1995 1255,1998 1268,2004 1282,2011 1291,2018 1302,2029 1312,2041 1315,2045 1318,2050 1322,2058 1324,2063 1325,2066 1327,2073 1328,2077 1329,2089 1329,2098">
            <metadata id="ROUDIER_LESTERRESCREUSEES_027_balloon_0" tailTip="941,2192" tailDirection="SW" idSpeaker="Actes_Sud_BD_Les_Terres_CreuséesPage27Character5" rank="2"/>
        </polygon>
        <polygon points="1214,536 1213,545 1211,557 1208,566 1206,571 1202,579 1194,591 1188,598 1170,617 1160,626 1154,631 1149,635 1145,638 1140,641 1128,647 1118,651 1106,655 1094,658 1087,659 974,674 973,674 940,590 936,576 934,568 932,555 931,544 931,529 932,522 935,514 938,507 944,496 950,487 955,481 968,468 974,463 984,455 990,452 1004,446 1011,444 1019,442 1031,440 1041,439 1061,438 1069,438 1096,439 1115,440 1131,441 1136,442 1144,444 1153,447 1163,451 1169,454 1176,458 1183,463 1192,472 1199,481 1202,485 1205,490 1206,492 1208,497 1209,500 1211,507 1214,519 1214,536">
            <metadata id="ROUDIER_LESTERRESCREUSEES_027_balloon_3" tailDirection="none" rank="4"/>
        </polygon>
        <polygon points="1878,1973 1877,1984 1875,1994 1874,1998 1871,2008 1865,2022 1859,2031 1854,2037 1850,2041 1843,2047 1834,2053 1820,2060 1815,2062 1803,2065 1785,2066 1781,2066 1776,2065 1772,2064 1766,2062 1756,2058 1747,2053 1742,2050 1739,2048 1732,2042 1727,2037 1721,2030 1716,2024 1667,1963 1722,1900 1728,1894 1737,1888 1745,1884 1751,1882 1762,1879 1766,1878 1776,1877 1797,1878 1802,1879 1809,1881 1824,1886 1836,1892 1842,1896 1850,1902 1858,1910 1864,1919 1870,1930 1871,1932 1874,1941 1877,1952 1878,1957 1878,1973">
            <metadata id="ROUDIER_LESTERRESCREUSEES_027_balloon_1" tailDirection="none" rank="6"/>
        </polygon>
        <polygon points="1418,1239 1307,1403 1300,1413 1290,1424 1285,1429 1278,1435 1274,1438 1268,1442 1256,1449 1245,1454 1235,1458 1227,1461 1213,1466 1210,1467 1203,1469 1195,1471 1189,1472 1172,1474 1158,1474 1136,1471 1127,1469 1117,1466 1108,1463 1098,1459 1091,1456 1081,1451 1068,1442 1061,1437 1050,1428 1043,1421 1035,1411 1029,1402 1024,1392 1020,1383 1018,1378 1015,1369 1013,1361 1012,1349 1012,1326 1014,1314 1016,1308 1019,1301 1029,1285 1035,1277 1039,1272 1051,1259 1053,1257 1061,1250 1065,1247 1077,1239 1084,1235 1100,1228 1111,1224 1126,1219 1140,1216 1145,1215 1159,1213 1169,1212 1206,1212 1218,1213 1418,1239">
            <metadata id="ROUDIER_LESTERRESCREUSEES_027_balloon_2" tailTip="1418,1239" tailDirection="NE" idSpeaker="Actes_Sud_BD_Les_Terres_CreuséesPage27Character3" rank="8"/>
        </polygon>
        <polygon points="1727,269 1642,381 1627,396 1622,400 1614,406 1605,412 1599,415 1590,419 1577,424 1571,426 1553,430 1543,431 1504,432 1503,432 1490,431 1457,428 1447,426 1443,425 1425,419 1421,417 1410,411 1404,407 1391,396 1385,390 1376,377 1373,372 1371,368 1367,359 1364,349 1360,328 1360,311 1362,301 1364,293 1366,287 1370,277 1372,273 1375,268 1380,261 1396,245 1402,240 1408,236 1430,225 1436,223 1449,219 1453,218 1466,215 1474,214 1488,213 1526,213 1539,214 1555,216 1562,217 1587,222 1591,223 1597,225 1727,269">
            <metadata id="ROUDIER_LESTERRESCREUSEES_027_balloon_4" tailTip="1727,269" tailDirection="NE" idSpeaker="Actes_Sud_BD_Les_Terres_CreuséesPage27Character1" rank="10"/>
        </polygon>
    </svg>
    <svg contentScriptType="text/ecmascript" zoomAndPan="magnify" class="Line" contentStyleType="text/css" preserveAspectRatio="xMidYMid meet" version="1.0">
        <polygon points="524,518 726,518 726,558 524,558 524,518">
            <metadata id="ROUDIER_LESTERRESCREUSEES_027_line_15" rank="0"/>
        </polygon>
        <polygon points="1732,1968 1854,1968 1854,2002 1732,2002 1732,1968">
            <metadata id="ROUDIER_LESTERRESCREUSEES_027_line_3" rank="2"/>
        </polygon>
        <polygon points="1037,1309 1302,1309 1302,1354 1037,1354 1037,1309">
            <metadata id="ROUDIER_LESTERRESCREUSEES_027_line_7" rank="4"/>
        </polygon>
        <polygon points="984,488 1178,488 1178,537 984,537 984,488">
            <metadata id="ROUDIER_LESTERRESCREUSEES_027_line_12" rank="6"/>
        </polygon>
        <polygon points="1102,1391 1254,1391 1254,1428 1102,1428 1102,1391">
            <metadata id="ROUDIER_LESTERRESCREUSEES_027_line_5" rank="8"/>
        </polygon>
        <polygon points="1049,1352 1305,1352 1305,1397 1049,1397 1049,1352">
            <metadata id="ROUDIER_LESTERRESCREUSEES_027_line_6" rank="10"/>
        </polygon>
        <polygon points="1733,1918 1822,1918 1822,1953 1733,1953 1733,1918">
            <metadata id="ROUDIER_LESTERRESCREUSEES_027_line_4" rank="12"/>
        </polygon>
        <polygon points="542,554 697,554 697,588 542,588 542,554">
            <metadata id="ROUDIER_LESTERRESCREUSEES_027_line_14" rank="14"/>
        </polygon>
        <polygon points="1506,294 1650,294 1650,321 1506,321 1506,294">
            <metadata id="ROUDIER_LESTERRESCREUSEES_027_line_20" rank="16"/>
        </polygon>
        <polygon points="1427,248 1604,248 1604,283 1427,283 1427,248">
            <metadata id="ROUDIER_LESTERRESCREUSEES_027_line_21" rank="18"/>
        </polygon>
        <polygon points="1383,300 1493,300 1493,363 1383,363 1383,300">
            <metadata id="ROUDIER_LESTERRESCREUSEES_027_line_19" rank="20"/>
        </polygon>
        <polygon points="1436,339 1614,339 1614,370 1436,370 1436,339">
            <metadata id="ROUDIER_LESTERRESCREUSEES_027_line_18" rank="22"/>
        </polygon>
        <polygon points="983,568 1165,568 1165,616 983,616 983,568">
            <metadata id="ROUDIER_LESTERRESCREUSEES_027_line_10" rank="24"/>
        </polygon>
        <polygon points="981,530 1162,530 1162,571 981,571 981,530">
            <metadata id="ROUDIER_LESTERRESCREUSEES_027_line_11" rank="26"/>
        </polygon>
        <polygon points="1446,374 1576,374 1576,402 1446,402 1446,374">
            <metadata id="ROUDIER_LESTERRESCREUSEES_027_line_17" rank="28"/>
        </polygon>
        <polygon points="1090,2033 1242,2033 1242,2067 1090,2067 1090,2033">
            <metadata id="ROUDIER_LESTERRESCREUSEES_027_line_2" rank="30"/>
        </polygon>
        <polygon points="1105,1279 1244,1279 1244,1309 1105,1309 1105,1279">
            <metadata id="ROUDIER_LESTERRESCREUSEES_027_line_8" rank="32"/>
        </polygon>
        <polygon points="1109,2116 1223,2116 1223,2151 1109,2151 1109,2116">
            <metadata id="ROUDIER_LESTERRESCREUSEES_027_line_0" rank="34"/>
        </polygon>
        <polygon points="599,484 677,484 677,513 599,513 599,484">
            <metadata id="ROUDIER_LESTERRESCREUSEES_027_line_16" rank="36"/>
        </polygon>
        <polygon points="1069,2074 1262,2074 1262,2109 1069,2109 1069,2074">
            <metadata id="ROUDIER_LESTERRESCREUSEES_027_line_1" rank="38"/>
        </polygon>
    </svg>
    <svg contentScriptType="text/ecmascript" zoomAndPan="magnify" class="Object" contentStyleType="text/css" preserveAspectRatio="xMidYMid meet" version="1.0">
        <polygon points="1763,175 1862,175 1862,279 1763,279 1763,175">
            <metadata id="Actes_Sud_BD_Les_Terres_CreuséesPage27Character1" idBalloon="ROUDIER_LESTERRESCREUSEES_027_balloon_4" idPanel="ROUDIER_LESTERRESCREUSEES_027_panel_0"/>
        </polygon>
        <polygon points="1430,958 1554,958 1554,1249 1430,1249 1430,958">
            <metadata id="Actes_Sud_BD_Les_Terres_CreuséesPage27Character3" idBalloon="ROUDIER_LESTERRESCREUSEES_027_balloon_2" idPanel="ROUDIER_LESTERRESCREUSEES_027_panel_0"/>
        </polygon>
        <polygon points="712,2186 951,2186 951,2487 712,2487 712,2186">
            <metadata id="Actes_Sud_BD_Les_Terres_CreuséesPage27Character5" idBalloon="ROUDIER_LESTERRESCREUSEES_027_balloon_0" idPanel="ROUDIER_LESTERRESCREUSEES_027_panel_0"/>
        </polygon>
    </svg>
    <metadata lastModificationDate="Thu Jun 12 14:25:44 CEST 2014" method="Reasoning on polygon's type" referent="Clément Guérin"/>
</svg>
