<?xml version="1.0" encoding="UTF-8" standalone="no"?>
<svg xmlns="http://www.w3.org/2000/svg" xmlns:xlink="http://www.w3.org/1999/xlink" contentScriptType="text/ecmascript" width="1223.0mm" zoomAndPan="magnify" contentStyleType="text/css" viewBox="0.0 0.0 2447.0 3479.0" height="1739.0mm" preserveAspectRatio="xMidYMid meet" version="1.0">
    <svg contentScriptType="text/ecmascript" zoomAndPan="magnify" class="Page" contentStyleType="text/css" preserveAspectRatio="xMidYMid meet" version="1.0">
        <image x="0" y="0" fill-opacity="0.5" width="2447" xlink:href="../Pages/SAINTOGAN_ZIGPUCE_ET_ALFRED_015.jpg" xlink:type="simple" xlink:actuate="onLoad" height="3479" opacity="0.5" preserveAspectRatio="xMidYMid meet" xlink:show="embed"/>
    </svg>
    <style type="text/css" xml:space="preserve"><![CDATA[
		* { stroke-width: 0; stroke-linejoin: round; }
		.Unclassified { fill: orange; stroke: none; opacity: 1.0; visibility: hidden; }
		.Noise { fill: pink; stroke: none; opacity: 0.2; visibility: hidden; }
		.Panel { fill: red; stroke: none; opacity: 0.2; visibility: visible; image-rendering: optimizeSpeed; }
		.Line { fill: green; stroke: none; opacity: 0.2; visibility: visible; image-rendering: optimizeSpeed; }
		.TextArea { fill: grey; stroke: none; opacity: 0.2; visibility: visible; image-rendering: optimizeSpeed; }
		.Balloon { fill: cyan; stroke: none; opacity: 0.2; visibility: visible; image-rendering: optimizeSpeed; }
		.Letter { fill: blue; stroke: none; opacity: 0.2; visibility: hidden; }
		.Object { fill: yellow; stroke: none; opacity: 0.2; visibility: visible; image-rendering: optimizeSpeed; }
		.Page { fill: white; stroke: none; opacity: 0.5; visibility: visible; }
]]></style>
    <svg contentScriptType="text/ecmascript" zoomAndPan="magnify" class="Panel" contentStyleType="text/css" preserveAspectRatio="xMidYMid meet" version="1.0">
        <polygon points="825,2722 814,3285 810,3288 808,3289 749,3290 405,3291 404,3291 81,3289 77,3287 76,3285 75,2994 75,2570 76,2568 78,2567 133,2555 140,2554 531,2543 625,2543 781,2548 793,2549 796,2550 808,2556 810,2558 815,2564 817,2568 821,2584 822,2589 823,2596 824,2607 825,2690 825,2722">
            <metadata id="SAINTOGAN_ZIGPUCE_ET_ALFRED_015_panel_1" rank="9"/>
        </polygon>
        <polygon points="2328,532 2327,734 2325,1125 2323,1129 2124,1129 1716,1128 1602,1127 1598,1125 1596,1123 1594,1000 1597,456 1599,454 1690,454 2180,455 2325,456 2326,457 2327,459 2328,503 2328,532">
            <metadata id="SAINTOGAN_ZIGPUCE_ET_ALFRED_015_panel_7" rank="3"/>
        </polygon>
        <polygon points="816,2194 815,2456 814,2536 813,2537 803,2538 84,2538 77,2537 75,2535 75,2532 77,2012 79,1863 81,1861 134,1860 385,1859 754,1859 814,1860 815,1861 816,1872 816,2194">
            <metadata id="SAINTOGAN_ZIGPUCE_ET_ALFRED_015_panel_3" rank="6"/>
        </polygon>
        <polygon points="2328,2520 2325,2535 2324,2536 1831,2537 1620,2537 1596,2536 1595,2535 1594,2146 1595,1853 1596,1849 1598,1847 1609,1844 1612,1844 1908,1848 2089,1851 2247,1855 2298,1858 2322,1863 2324,1864 2325,1865 2326,1879 2328,2520">
            <metadata id="SAINTOGAN_ZIGPUCE_ET_ALFRED_015_panel_4" rank="8"/>
        </polygon>
        <polygon points="1574,662 1572,1125 1571,1126 1569,1127 84,1127 82,1125 81,1123 78,722 78,718 81,487 82,457 84,455 120,443 125,442 377,425 428,425 666,428 1570,454 1571,455 1572,457 1574,657 1574,662">
            <metadata id="SAINTOGAN_ZIGPUCE_ET_ALFRED_015_panel_8" rank="2"/>
        </polygon>
        <polygon points="2326,1732 2325,1826 2324,1828 2323,1829 2320,1830 2319,1830 1677,1829 1602,1828 1599,1827 1596,1824 1594,1669 1594,1668 1596,1159 1597,1158 1602,1157 1613,1157 1939,1158 2320,1160 2323,1161 2324,1162 2325,1167 2326,1405 2326,1732">
            <metadata id="SAINTOGAN_ZIGPUCE_ET_ALFRED_015_panel_5" rank="5"/>
        </polygon>
        <polygon points="1575,1499 1572,1818 1568,1829 1567,1830 1565,1831 84,1834 82,1834 80,1832 78,1825 78,1584 79,1399 80,1274 81,1158 82,1157 274,1128 281,1128 1554,1156 1567,1157 1570,1158 1572,1160 1575,1499">
            <metadata id="SAINTOGAN_ZIGPUCE_ET_ALFRED_015_panel_6" rank="4"/>
        </polygon>
        <polygon points="2329,2651 2327,3280 2322,3283 846,3291 845,3291 841,3289 840,3288 840,2568 841,2567 843,2566 852,2565 1121,2564 2194,2563 2322,2563 2325,2564 2326,2566 2329,2649 2329,2651">
            <metadata id="SAINTOGAN_ZIGPUCE_ET_ALFRED_015_panel_0" rank="10"/>
        </polygon>
        <polygon points="2331,143 2328,401 2327,420 2326,427 2325,428 2323,429 2320,430 2317,430 85,426 83,424 82,421 81,247 81,140 83,135 84,134 89,132 102,128 681,126 752,126 1836,132 2325,136 2329,138 2331,140 2331,143">
            <metadata id="SAINTOGAN_ZIGPUCE_ET_ALFRED_015_panel_9" rank="1"/>
        </polygon>
        <polygon points="1570,2317 1567,2535 1564,2536 1549,2537 898,2538 845,2538 843,2536 843,1862 845,1859 1565,1859 1567,1860 1568,1861 1569,1890 1570,2288 1570,2317">
            <metadata id="SAINTOGAN_ZIGPUCE_ET_ALFRED_015_panel_2" rank="7"/>
        </polygon>
    </svg>
    <svg contentScriptType="text/ecmascript" zoomAndPan="magnify" class="Balloon" contentStyleType="text/css" preserveAspectRatio="xMidYMid meet" version="1.0">
        <polygon points="2185,1425 2182,1481 2155,1510 2149,1513 2146,1514 2144,1514 1914,1484 1910,1483 1909,1482 1908,1480 1905,1456 1905,1443 1906,1399 1909,1396 1912,1394 1914,1393 1918,1392 1926,1392 2170,1397 2173,1398 2178,1400 2182,1403 2183,1405 2185,1424 2185,1425">
            <metadata id="SAINTOGAN_ZIGPUCE_ET_ALFRED_015_balloon_3" tailDirection="none" rank="0"/>
        </polygon>
        <polygon points="337,476 335,582 333,593 332,596 331,598 328,602 327,603 323,606 247,657 123,614 119,612 115,608 114,606 113,600 113,594 117,457 118,451 121,449 125,448 127,448 303,451 321,452 325,453 332,455 334,456 335,457 337,463 337,476">
            <metadata id="SAINTOGAN_ZIGPUCE_ET_ALFRED_015_balloon_8" tailTip="247,657" tailDirection="S" idSpeaker="Zig_Et_Puce_Zig__Puce_et_AlfredPage15Character11" rank="2"/>
        </polygon>
        <polygon points="825,1191 820,1306 818,1310 814,1315 806,1324 804,1326 494,1520 492,1518 479,1502 379,1327 377,1323 377,1180 378,1172 382,1166 383,1165 388,1161 394,1159 407,1157 416,1156 666,1158 812,1161 816,1162 820,1164 823,1170 825,1176 825,1191">
            <metadata id="SAINTOGAN_ZIGPUCE_ET_ALFRED_015_balloon_7" tailTip="494,1520" tailDirection="SE" rank="4"/>
        </polygon>
        <polygon points="2314,1977 2313,2098 2308,2107 2306,2109 2300,2112 2290,2115 2284,2116 2282,2116 2117,2113 2107,2112 2104,2111 2100,2109 2097,2107 1976,2016 1976,2014 2044,1880 2054,1861 2058,1859 2063,1857 2075,1855 2083,1855 2206,1858 2255,1860 2297,1863 2301,1865 2309,1873 2310,1875 2311,1878 2312,1884 2314,1899 2314,1977">
            <metadata id="SAINTOGAN_ZIGPUCE_ET_ALFRED_015_balloon_2" tailTip="1976,2016" tailDirection="SW" rank="6"/>
        </polygon>
        <polygon points="2321,561 2320,723 2319,724 2000,772 1999,772 1976,706 1974,699 1973,691 1971,669 1971,575 1973,550 1975,543 1976,541 1979,537 1982,534 1984,533 1989,532 1997,531 2029,530 2297,530 2302,531 2308,533 2315,540 2319,545 2320,547 2321,550 2321,561">
            <metadata id="SAINTOGAN_ZIGPUCE_ET_ALFRED_015_balloon_5" tailTip="1999,772" tailDirection="SW" idSpeaker="Zig_Et_Puce_Zig__Puce_et_AlfredPage15Character5" rank="8"/>
        </polygon>
        <polygon points="840,1374 836,1429 835,1438 834,1446 833,1453 829,1463 828,1465 826,1467 671,1545 670,1545 533,1465 529,1462 526,1458 525,1455 525,1407 527,1372 528,1363 533,1353 543,1343 545,1342 822,1350 824,1351 827,1353 835,1359 836,1360 838,1363 840,1367 840,1374">
            <metadata id="SAINTOGAN_ZIGPUCE_ET_ALFRED_015_balloon_6" tailTip="671,1545" tailDirection="S" rank="10"/>
        </polygon>
        <polygon points="697,487 696,493 695,496 693,499 689,503 686,505 682,507 546,562 500,579 495,580 494,580 492,579 377,520 374,518 370,514 369,510 369,501 372,435 373,433 375,431 377,430 428,430 661,432 665,433 674,437 676,438 678,440 683,447 687,454 691,462 694,471 697,485 697,487">
            <metadata id="SAINTOGAN_ZIGPUCE_ET_ALFRED_015_balloon_9" tailTip="492,579" tailDirection="SW" idSpeaker="Zig_Et_Puce_Zig__Puce_et_AlfredPage15Character11" rank="12"/>
        </polygon>
        <polygon points="1944,1210 1941,1347 1939,1357 1938,1361 1935,1364 1933,1365 1683,1436 1682,1436 1617,1351 1616,1349 1615,1340 1614,1292 1614,1268 1617,1192 1618,1187 1620,1181 1622,1177 1625,1174 1627,1173 1631,1172 1644,1171 1647,1171 1873,1172 1907,1173 1931,1174 1933,1175 1939,1181 1941,1184 1942,1186 1943,1193 1944,1203 1944,1210">
            <metadata id="SAINTOGAN_ZIGPUCE_ET_ALFRED_015_balloon_4" tailTip="1683,1436" tailDirection="SE" idSpeaker="Zig_Et_Puce_Zig__Puce_et_AlfredPage15Character13" rank="14"/>
        </polygon>
    </svg>
    <svg contentScriptType="text/ecmascript" zoomAndPan="magnify" class="Line" contentStyleType="text/css" preserveAspectRatio="xMidYMid meet" version="1.0">
        <polygon points="2029,593 2092,593 2092,616 2029,616 2029,593">
            <metadata id="SAINTOGAN_ZIGPUCE_ET_ALFRED_015_line_134" rank="0"/>
        </polygon>
        <polygon points="1606,1220 1807,1220 1807,1245 1606,1245 1606,1220">
            <metadata id="SAINTOGAN_ZIGPUCE_ET_ALFRED_015_line_116" rank="2"/>
        </polygon>
        <polygon points="1622,1284 2023,1284 2023,1328 1622,1328 1622,1284">
            <metadata id="SAINTOGAN_ZIGPUCE_ET_ALFRED_015_line_110" rank="4"/>
        </polygon>
        <polygon points="2049,1946 2208,1946 2208,1970 2049,1970 2049,1946">
            <metadata id="SAINTOGAN_ZIGPUCE_ET_ALFRED_015_line_82" rank="6"/>
        </polygon>
        <polygon points="1647,1357 1841,1357 1841,1406 1647,1406 1647,1357">
            <metadata id="SAINTOGAN_ZIGPUCE_ET_ALFRED_015_line_106" rank="8"/>
        </polygon>
        <polygon points="670,1207 732,1207 732,1231 670,1231 670,1207">
            <metadata id="SAINTOGAN_ZIGPUCE_ET_ALFRED_015_line_117" rank="10"/>
        </polygon>
        <polygon points="387,1204 645,1204 645,1231 387,1231 387,1204">
            <metadata id="SAINTOGAN_ZIGPUCE_ET_ALFRED_015_line_118" rank="14"/>
        </polygon>
        <polygon points="533,1425 640,1425 640,1451 533,1451 533,1425">
            <metadata id="SAINTOGAN_ZIGPUCE_ET_ALFRED_015_line_101" rank="12"/>
        </polygon>
        <polygon points="2082,1408 2171,1408 2171,1430 2082,1430 2082,1408">
            <metadata id="SAINTOGAN_ZIGPUCE_ET_ALFRED_015_line_104" rank="16"/>
        </polygon>
        <polygon points="380,1167 495,1167 495,1193 380,1193 380,1167">
            <metadata id="SAINTOGAN_ZIGPUCE_ET_ALFRED_015_line_121" rank="18"/>
        </polygon>
        <polygon points="2051,1866 2321,1866 2321,1904 2051,1904 2051,1866">
            <metadata id="SAINTOGAN_ZIGPUCE_ET_ALFRED_015_line_75" rank="20"/>
        </polygon>
        <polygon points="369,1230 470,1230 470,1258 369,1258 369,1230">
            <metadata id="SAINTOGAN_ZIGPUCE_ET_ALFRED_015_line_114" rank="22"/>
        </polygon>
        <polygon points="2088,2008 2233,2008 2233,2030 2088,2030 2088,2008">
            <metadata id="SAINTOGAN_ZIGPUCE_ET_ALFRED_015_line_80" rank="24"/>
        </polygon>
        <polygon points="1864,1226 1936,1226 1936,1247 1864,1247 1864,1226">
            <metadata id="SAINTOGAN_ZIGPUCE_ET_ALFRED_015_line_115" rank="26"/>
        </polygon>
        <polygon points="1987,674 2233,674 2233,700 1987,700 1987,674">
            <metadata id="SAINTOGAN_ZIGPUCE_ET_ALFRED_015_line_130" rank="28"/>
        </polygon>
        <polygon points="369,1302 485,1302 485,1349 369,1349 369,1302">
            <metadata id="SAINTOGAN_ZIGPUCE_ET_ALFRED_015_line_109" rank="30"/>
        </polygon>
        <polygon points="2137,598 2224,598 2224,620 2137,620 2137,598">
            <metadata id="SAINTOGAN_ZIGPUCE_ET_ALFRED_015_line_133" rank="32"/>
        </polygon>
        <polygon points="378,463 657,463 657,492 378,492 378,463">
            <metadata id="SAINTOGAN_ZIGPUCE_ET_ALFRED_015_line_161" rank="34"/>
        </polygon>
        <polygon points="385,1268 619,1268 619,1293 385,1293 385,1268">
            <metadata id="SAINTOGAN_ZIGPUCE_ET_ALFRED_015_line_112" rank="36"/>
        </polygon>
        <polygon points="2051,1977 2301,1977 2301,2001 2051,2001 2051,1977">
            <metadata id="SAINTOGAN_ZIGPUCE_ET_ALFRED_015_line_81" rank="38"/>
        </polygon>
        <polygon points="2049,1911 2321,1911 2321,1936 2049,1936 2049,1911">
            <metadata id="SAINTOGAN_ZIGPUCE_ET_ALFRED_015_line_73" rank="40"/>
        </polygon>
        <polygon points="141,464 228,464 228,492 141,492 141,464">
            <metadata id="SAINTOGAN_ZIGPUCE_ET_ALFRED_015_line_162" rank="42"/>
        </polygon>
        <polygon points="739,1271 801,1271 801,1293 739,1293 739,1271">
            <metadata id="SAINTOGAN_ZIGPUCE_ET_ALFRED_015_line_111" rank="46"/>
        </polygon>
        <polygon points="1983,631 2123,631 2123,659 1983,659 1983,631">
            <metadata id="SAINTOGAN_ZIGPUCE_ET_ALFRED_015_line_131" rank="44"/>
        </polygon>
        <polygon points="629,1355 834,1355 834,1387 629,1387 629,1355">
            <metadata id="SAINTOGAN_ZIGPUCE_ET_ALFRED_015_line_107" rank="48"/>
        </polygon>
        <polygon points="546,436 625,436 625,461 546,461 546,436">
            <metadata id="SAINTOGAN_ZIGPUCE_ET_ALFRED_015_line_166" rank="50"/>
        </polygon>
        <polygon points="1919,1405 2056,1405 2056,1427 1919,1427 1919,1405">
            <metadata id="SAINTOGAN_ZIGPUCE_ET_ALFRED_015_line_105" rank="52"/>
        </polygon>
        <polygon points="2023,2036 2307,2036 2307,2088 2023,2088 2023,2036">
            <metadata id="SAINTOGAN_ZIGPUCE_ET_ALFRED_015_line_65" rank="54"/>
        </polygon>
        <polygon points="2166,638 2296,638 2296,662 2166,662 2166,638">
            <metadata id="SAINTOGAN_ZIGPUCE_ET_ALFRED_015_line_132" rank="56"/>
        </polygon>
        <polygon points="2130,555 2319,555 2319,580 2130,580 2130,555">
            <metadata id="SAINTOGAN_ZIGPUCE_ET_ALFRED_015_line_135" rank="58"/>
        </polygon>
    </svg>
    <svg contentScriptType="text/ecmascript" zoomAndPan="magnify" class="Object" contentStyleType="text/css" preserveAspectRatio="xMidYMid meet" version="1.0">
        <polygon points="89,630 227,630 227,906 89,906 89,630">
            <metadata id="Zig_Et_Puce_Zig__Puce_et_AlfredPage15Character3" idPanel="SAINTOGAN_ZIGPUCE_ET_ALFRED_015_panel_8"/>
        </polygon>
        <polygon points="1661,1617 1987,1617 1987,1701 1661,1701 1661,1617">
            <metadata id="Zig_Et_Puce_Zig__Puce_et_AlfredPage15Character13" idBalloon="SAINTOGAN_ZIGPUCE_ET_ALFRED_015_balloon_4" idPanel="SAINTOGAN_ZIGPUCE_ET_ALFRED_015_panel_5"/>
        </polygon>
        <polygon points="1716,769 2029,769 2029,1046 1716,1046 1716,769">
            <metadata id="Zig_Et_Puce_Zig__Puce_et_AlfredPage15Character5" idBalloon="SAINTOGAN_ZIGPUCE_ET_ALFRED_015_balloon_5" idPanel="SAINTOGAN_ZIGPUCE_ET_ALFRED_015_panel_7"/>
        </polygon>
        <polygon points="215,614 518,614 518,933 215,933 215,614">
            <metadata id="Zig_Et_Puce_Zig__Puce_et_AlfredPage15Character11" idPanel="SAINTOGAN_ZIGPUCE_ET_ALFRED_015_panel_8"/>
        </polygon>
    </svg>
    <metadata lastModificationDate="Thu Jun 12 14:26:24 CEST 2014" method="Reasoning on polygon's type" referent="Clément Guérin"/>
</svg>
