<?xml version="1.0" encoding="UTF-8" standalone="no"?>
<svg xmlns="http://www.w3.org/2000/svg" xmlns:xlink="http://www.w3.org/1999/xlink" contentScriptType="text/ecmascript" width="2655.0mm" zoomAndPan="magnify" contentStyleType="text/css" viewBox="0.0 0.0 5311.0 3627.0" height="1813.0mm" preserveAspectRatio="xMidYMid meet" version="1.0">
    <svg contentScriptType="text/ecmascript" zoomAndPan="magnify" class="Page" contentStyleType="text/css" preserveAspectRatio="xMidYMid meet" version="1.0">
        <image x="0" y="0" fill-opacity="0.5" width="5311" xlink:href="../Pages/SAINTOGAN_PROSPER_ET_LE_MONSTRE_MARIN_016.jpg" xlink:type="simple" xlink:actuate="onLoad" height="3627" opacity="0.5" preserveAspectRatio="xMidYMid meet" xlink:show="embed"/>
    </svg>
    <style type="text/css" xml:space="preserve"><![CDATA[
		* { stroke-width: 0; stroke-linejoin: round; }
		.Unclassified { fill: orange; stroke: none; opacity: 1.0; visibility: hidden; }
		.Noise { fill: pink; stroke: none; opacity: 0.2; visibility: hidden; }
		.Panel { fill: red; stroke: none; opacity: 0.2; visibility: visible; image-rendering: optimizeSpeed; }
		.Line { fill: green; stroke: none; opacity: 0.2; visibility: visible; image-rendering: optimizeSpeed; }
		.TextArea { fill: grey; stroke: none; opacity: 0.2; visibility: visible; image-rendering: optimizeSpeed; }
		.Balloon { fill: cyan; stroke: none; opacity: 0.2; visibility: visible; image-rendering: optimizeSpeed; }
		.Letter { fill: blue; stroke: none; opacity: 0.2; visibility: hidden; }
		.Object { fill: yellow; stroke: none; opacity: 0.2; visibility: visible; image-rendering: optimizeSpeed; }
		.Page { fill: white; stroke: none; opacity: 0.5; visibility: visible; }
]]></style>
    <svg contentScriptType="text/ecmascript" zoomAndPan="magnify" class="Panel" contentStyleType="text/css" preserveAspectRatio="xMidYMid meet" version="1.0">
        <polygon points="5309,1676 5307,2325 5298,3594 5297,3598 5296,3601 5292,3607 5286,3613 5281,3616 5279,3617 5274,3619 5265,3622 5257,3624 5247,3625 43,3625 40,3623 36,3620 33,3617 30,3613 24,3604 20,3596 17,3589 16,3586 13,3575 12,3567 11,3529 7,3307 1,2817 1,39 6,32 8,30 14,26 22,22 65,1 2724,1 3289,2 5234,7 5244,8 5255,10 5260,11 5268,13 5280,17 5288,21 5291,23 5295,26 5301,32 5304,36 5306,39 5309,44 5309,1676">
            <metadata id="SAINTOGAN_PROSPER_ET_LE_MONSTRE_MARIN_016_panel_0" rank="1"/>
        </polygon>
    </svg>
    <svg contentScriptType="text/ecmascript" zoomAndPan="magnify" class="Balloon" contentStyleType="text/css" preserveAspectRatio="xMidYMid meet" version="1.0">
        <polygon points="2532,3346 2531,3348 2223,3349 1387,3351 891,3352 360,3352 350,3351 348,3349 345,2871 343,2463 339,1127 337,458 337,355 339,293 340,292 369,291 599,290 2241,289 2280,289 2517,290 2521,291 2522,308 2523,416 2527,1421 2531,2452 2532,2885 2532,3346">
            <metadata id="SAINTOGAN_PROSPER_ET_LE_MONSTRE_MARIN_016_balloon_2" tailDirection="none" rank="0"/>
        </polygon>
        <polygon points="4583,2021 4573,2039 4566,2046 4551,2056 4547,2058 4544,2059 4542,2059 4539,2058 4517,2036 4447,1957 4430,1937 4427,1933 4422,1926 4417,1918 4414,1912 4412,1907 4411,1901 4411,1880 4412,1871 4417,1835 4418,1833 4428,1829 4493,1824 4516,1824 4518,1825 4519,1826 4540,1866 4583,2020 4583,2021">
            <metadata id="SAINTOGAN_PROSPER_ET_LE_MONSTRE_MARIN_016_balloon_0" tailTip="4493,1824" tailDirection="E" rank="2"/>
        </polygon>
    </svg>
    <svg contentScriptType="text/ecmascript" zoomAndPan="magnify" class="Line" contentStyleType="text/css" preserveAspectRatio="xMidYMid meet" version="1.0">
        <polygon points="1473,1033 1991,1033 1991,1072 1473,1072 1473,1033">
            <metadata id="SAINTOGAN_PROSPER_ET_LE_MONSTRE_MARIN_016_line_112" rank="0"/>
        </polygon>
        <polygon points="1473,1709 1609,1709 1609,1748 1473,1748 1473,1709">
            <metadata id="SAINTOGAN_PROSPER_ET_LE_MONSTRE_MARIN_016_line_83" rank="2"/>
        </polygon>
        <polygon points="644,1709 929,1709 929,1751 644,1751 644,1709">
            <metadata id="SAINTOGAN_PROSPER_ET_LE_MONSTRE_MARIN_016_line_80" rank="4"/>
        </polygon>
        <polygon points="1143,2456 1327,2456 1327,2495 1143,2495 1143,2456">
            <metadata id="SAINTOGAN_PROSPER_ET_LE_MONSTRE_MARIN_016_line_38" rank="6"/>
        </polygon>
        <polygon points="2158,3261 2256,3261 2256,3284 2158,3284 2158,3261">
            <metadata id="SAINTOGAN_PROSPER_ET_LE_MONSTRE_MARIN_016_line_15" rank="8"/>
        </polygon>
        <polygon points="988,1710 1182,1710 1182,1746 988,1746 988,1710">
            <metadata id="SAINTOGAN_PROSPER_ET_LE_MONSTRE_MARIN_016_line_82" rank="10"/>
        </polygon>
        <polygon points="2031,1030 2515,1030 2515,1071 2031,1071 2031,1030">
            <metadata id="SAINTOGAN_PROSPER_ET_LE_MONSTRE_MARIN_016_line_113" rank="12"/>
        </polygon>
        <polygon points="1204,999 1308,999 1308,1023 1204,1023 1204,999">
            <metadata id="SAINTOGAN_PROSPER_ET_LE_MONSTRE_MARIN_016_line_116" rank="14"/>
        </polygon>
        <polygon points="2350,2174 2501,2174 2501,2219 2350,2219 2350,2174">
            <metadata id="SAINTOGAN_PROSPER_ET_LE_MONSTRE_MARIN_016_line_69" rank="16"/>
        </polygon>
        <polygon points="469,610 654,610 654,683 469,683 469,610">
            <metadata id="SAINTOGAN_PROSPER_ET_LE_MONSTRE_MARIN_016_line_123" rank="18"/>
        </polygon>
        <polygon points="2168,1514 2384,1514 2384,1581 2168,1581 2168,1514">
            <metadata id="SAINTOGAN_PROSPER_ET_LE_MONSTRE_MARIN_016_line_104" rank="20"/>
        </polygon>
        <polygon points="362,2499 1705,2499 1705,2539 362,2539 362,2499">
            <metadata id="SAINTOGAN_PROSPER_ET_LE_MONSTRE_MARIN_016_line_34" rank="22"/>
        </polygon>
        <polygon points="1661,472 1713,472 1713,524 1661,524 1661,472">
            <metadata id="SAINTOGAN_PROSPER_ET_LE_MONSTRE_MARIN_016_line_126" rank="24"/>
        </polygon>
        <polygon points="4434,1913 4489,1913 4489,1953 4434,1953 4434,1913">
            <metadata id="SAINTOGAN_PROSPER_ET_LE_MONSTRE_MARIN_016_line_87" rank="26"/>
        </polygon>
        <polygon points="889,1087 1045,1087 1045,1115 889,1115 889,1087">
            <metadata id="SAINTOGAN_PROSPER_ET_LE_MONSTRE_MARIN_016_line_107" rank="28"/>
        </polygon>
        <polygon points="1325,1753 1643,1753 1643,1791 1325,1791 1325,1753">
            <metadata id="SAINTOGAN_PROSPER_ET_LE_MONSTRE_MARIN_016_line_78" rank="30"/>
        </polygon>
        <polygon points="1625,988 2073,988 2073,1027 1625,1027 1625,988">
            <metadata id="SAINTOGAN_PROSPER_ET_LE_MONSTRE_MARIN_016_line_120" rank="32"/>
        </polygon>
        <polygon points="365,2272 490,2272 490,2322 365,2322 365,2272">
            <metadata id="SAINTOGAN_PROSPER_ET_LE_MONSTRE_MARIN_016_line_64" rank="34"/>
        </polygon>
        <polygon points="1506,993 1594,993 1594,1021 1506,1021 1506,993">
            <metadata id="SAINTOGAN_PROSPER_ET_LE_MONSTRE_MARIN_016_line_119" rank="36"/>
        </polygon>
        <polygon points="364,1541 748,1541 748,1633 364,1633 364,1541">
            <metadata id="SAINTOGAN_PROSPER_ET_LE_MONSTRE_MARIN_016_line_102" rank="38"/>
        </polygon>
        <polygon points="1152,1798 1609,1798 1609,1838 1152,1838 1152,1798">
            <metadata id="SAINTOGAN_PROSPER_ET_LE_MONSTRE_MARIN_016_line_73" rank="40"/>
        </polygon>
        <polygon points="514,2455 885,2455 885,2495 514,2495 514,2455">
            <metadata id="SAINTOGAN_PROSPER_ET_LE_MONSTRE_MARIN_016_line_35" rank="42"/>
        </polygon>
        <polygon points="1856,1472 1963,1472 1963,1548 1856,1548 1856,1472">
            <metadata id="SAINTOGAN_PROSPER_ET_LE_MONSTRE_MARIN_016_line_105" rank="44"/>
        </polygon>
        <polygon points="1314,3294 1463,3294 1463,3335 1314,3335 1314,3294">
            <metadata id="SAINTOGAN_PROSPER_ET_LE_MONSTRE_MARIN_016_line_10" rank="46"/>
        </polygon>
        <polygon points="1167,1090 1303,1090 1303,1121 1167,1121 1167,1090">
            <metadata id="SAINTOGAN_PROSPER_ET_LE_MONSTRE_MARIN_016_line_106" rank="48"/>
        </polygon>
        <polygon points="1635,3256 1752,3256 1752,3283 1635,3283 1635,3256">
            <metadata id="SAINTOGAN_PROSPER_ET_LE_MONSTRE_MARIN_016_line_20" rank="50"/>
        </polygon>
        <polygon points="361,3247 570,3247 570,3283 361,3283 361,3247">
            <metadata id="SAINTOGAN_PROSPER_ET_LE_MONSTRE_MARIN_016_line_26" rank="52"/>
        </polygon>
        <polygon points="2380,730 2495,730 2495,773 2380,773 2380,730">
            <metadata id="SAINTOGAN_PROSPER_ET_LE_MONSTRE_MARIN_016_line_125" rank="54"/>
        </polygon>
        <polygon points="1794,3252 1888,3252 1888,3291 1794,3291 1794,3252">
            <metadata id="SAINTOGAN_PROSPER_ET_LE_MONSTRE_MARIN_016_line_16" rank="56"/>
        </polygon>
        <polygon points="1361,2464 1434,2464 1434,2487 1361,2487 1361,2464">
            <metadata id="SAINTOGAN_PROSPER_ET_LE_MONSTRE_MARIN_016_line_37" rank="58"/>
        </polygon>
        <polygon points="945,2282 1126,2282 1126,2334 945,2334 945,2282">
            <metadata id="SAINTOGAN_PROSPER_ET_LE_MONSTRE_MARIN_016_line_63" rank="60"/>
        </polygon>
        <polygon points="1402,3062 1511,3062 1511,3127 1402,3127 1402,3062">
            <metadata id="SAINTOGAN_PROSPER_ET_LE_MONSTRE_MARIN_016_line_29" rank="62"/>
        </polygon>
        <polygon points="828,3293 1046,3293 1046,3327 828,3327 828,3293">
            <metadata id="SAINTOGAN_PROSPER_ET_LE_MONSTRE_MARIN_016_line_11" rank="64"/>
        </polygon>
        <polygon points="2000,1798 2385,1798 2385,1838 2000,1838 2000,1798">
            <metadata id="SAINTOGAN_PROSPER_ET_LE_MONSTRE_MARIN_016_line_72" rank="66"/>
        </polygon>
        <polygon points="1851,3306 1941,3306 1941,3328 1851,3328 1851,3306">
            <metadata id="SAINTOGAN_PROSPER_ET_LE_MONSTRE_MARIN_016_line_5" rank="68"/>
        </polygon>
        <polygon points="418,1035 1384,1035 1384,1075 418,1075 418,1035">
            <metadata id="SAINTOGAN_PROSPER_ET_LE_MONSTRE_MARIN_016_line_111" rank="70"/>
        </polygon>
        <polygon points="1285,1708 1427,1708 1427,1748 1285,1748 1285,1708">
            <metadata id="SAINTOGAN_PROSPER_ET_LE_MONSTRE_MARIN_016_line_84" rank="72"/>
        </polygon>
        <polygon points="440,991 573,991 573,1027 440,1027 440,991">
            <metadata id="SAINTOGAN_PROSPER_ET_LE_MONSTRE_MARIN_016_line_118" rank="74"/>
        </polygon>
        <polygon points="553,1160 784,1160 784,1250 553,1250 553,1160">
            <metadata id="SAINTOGAN_PROSPER_ET_LE_MONSTRE_MARIN_016_line_103" rank="76"/>
        </polygon>
        <polygon points="2104,2553 2509,2553 2509,2642 2104,2642 2104,2553">
            <metadata id="SAINTOGAN_PROSPER_ET_LE_MONSTRE_MARIN_016_line_32" rank="78"/>
        </polygon>
        <polygon points="1057,489 1188,489 1188,572 1057,572 1057,489">
            <metadata id="SAINTOGAN_PROSPER_ET_LE_MONSTRE_MARIN_016_line_124" rank="80"/>
        </polygon>
        <polygon points="425,1755 737,1755 737,1794 425,1794 425,1755">
            <metadata id="SAINTOGAN_PROSPER_ET_LE_MONSTRE_MARIN_016_line_75" rank="82"/>
        </polygon>
        <polygon points="2213,1075 2427,1075 2427,1108 2213,1108 2213,1075">
            <metadata id="SAINTOGAN_PROSPER_ET_LE_MONSTRE_MARIN_016_line_110" rank="84"/>
        </polygon>
        <polygon points="2022,3297 2513,3297 2513,3337 2022,3337 2022,3297">
            <metadata id="SAINTOGAN_PROSPER_ET_LE_MONSTRE_MARIN_016_line_4" rank="86"/>
        </polygon>
        <polygon points="1579,2880 1875,2880 1875,2944 1579,2944 1579,2880">
            <metadata id="SAINTOGAN_PROSPER_ET_LE_MONSTRE_MARIN_016_line_30" rank="88"/>
        </polygon>
        <polygon points="2023,3251 2127,3251 2127,3284 2023,3284 2023,3251">
            <metadata id="SAINTOGAN_PROSPER_ET_LE_MONSTRE_MARIN_016_line_18" rank="90"/>
        </polygon>
        <polygon points="670,992 893,992 893,1031 670,1031 670,992">
            <metadata id="SAINTOGAN_PROSPER_ET_LE_MONSTRE_MARIN_016_line_115" rank="92"/>
        </polygon>
        <polygon points="2305,3252 2504,3252 2504,3284 2305,3284 2305,3252">
            <metadata id="SAINTOGAN_PROSPER_ET_LE_MONSTRE_MARIN_016_line_17" rank="94"/>
        </polygon>
        <polygon points="1807,2147 1880,2147 1880,2251 1807,2251 1807,2147">
            <metadata id="SAINTOGAN_PROSPER_ET_LE_MONSTRE_MARIN_016_line_70" rank="96"/>
        </polygon>
        <polygon points="1780,2455 2318,2455 2318,2495 1780,2495 1780,2455">
            <metadata id="SAINTOGAN_PROSPER_ET_LE_MONSTRE_MARIN_016_line_36" rank="98"/>
        </polygon>
        <polygon points="681,3247 1250,3247 1250,3282 681,3282 681,3247">
            <metadata id="SAINTOGAN_PROSPER_ET_LE_MONSTRE_MARIN_016_line_23" rank="100"/>
        </polygon>
        <polygon points="360,1711 570,1711 570,1744 360,1744 360,1711">
            <metadata id="SAINTOGAN_PROSPER_ET_LE_MONSTRE_MARIN_016_line_81" rank="102"/>
        </polygon>
        <polygon points="936,2454 1095,2454 1095,2486 936,2486 936,2454">
            <metadata id="SAINTOGAN_PROSPER_ET_LE_MONSTRE_MARIN_016_line_40" rank="104"/>
        </polygon>
        <polygon points="361,2455 445,2455 445,2489 361,2489 361,2455">
            <metadata id="SAINTOGAN_PROSPER_ET_LE_MONSTRE_MARIN_016_line_41" rank="106"/>
        </polygon>
        <polygon points="476,2243 907,2243 907,2334 476,2334 476,2243">
            <metadata id="SAINTOGAN_PROSPER_ET_LE_MONSTRE_MARIN_016_line_65" rank="108"/>
        </polygon>
        <polygon points="867,1763 952,1763 952,1787 867,1787 867,1763">
            <metadata id="SAINTOGAN_PROSPER_ET_LE_MONSTRE_MARIN_016_line_76" rank="110"/>
        </polygon>
        <polygon points="579,3303 797,3303 797,3328 579,3328 579,3303">
            <metadata id="SAINTOGAN_PROSPER_ET_LE_MONSTRE_MARIN_016_line_9" rank="112"/>
        </polygon>
        <polygon points="1074,1754 1228,1754 1228,1786 1074,1786 1074,1754">
            <metadata id="SAINTOGAN_PROSPER_ET_LE_MONSTRE_MARIN_016_line_74" rank="114"/>
        </polygon>
        <polygon points="1472,2455 1681,2455 1681,2489 1472,2489 1472,2455">
            <metadata id="SAINTOGAN_PROSPER_ET_LE_MONSTRE_MARIN_016_line_39" rank="116"/>
        </polygon>
        <polygon points="1058,992 1172,992 1172,1024 1058,1024 1058,992">
            <metadata id="SAINTOGAN_PROSPER_ET_LE_MONSTRE_MARIN_016_line_117" rank="118"/>
        </polygon>
        <polygon points="2039,2629 2220,2629 2220,2687 2039,2687 2039,2629">
            <metadata id="SAINTOGAN_PROSPER_ET_LE_MONSTRE_MARIN_016_line_31" rank="120"/>
        </polygon>
        <polygon points="1545,1076 2153,1076 2153,1116 1545,1116 1545,1076">
            <metadata id="SAINTOGAN_PROSPER_ET_LE_MONSTRE_MARIN_016_line_109" rank="122"/>
        </polygon>
        <polygon points="810,2153 928,2153 928,2247 810,2247 810,2153">
            <metadata id="SAINTOGAN_PROSPER_ET_LE_MONSTRE_MARIN_016_line_67" rank="124"/>
        </polygon>
        <polygon points="1868,1753 2514,1753 2514,1793 1868,1793 1868,1753">
            <metadata id="SAINTOGAN_PROSPER_ET_LE_MONSTRE_MARIN_016_line_77" rank="126"/>
        </polygon>
        <polygon points="1488,3304 1552,3304 1552,3327 1488,3327 1488,3304">
            <metadata id="SAINTOGAN_PROSPER_ET_LE_MONSTRE_MARIN_016_line_8" rank="128"/>
        </polygon>
        <polygon points="1014,2202 1108,2202 1108,2247 1014,2247 1014,2202">
            <metadata id="SAINTOGAN_PROSPER_ET_LE_MONSTRE_MARIN_016_line_66" rank="130"/>
        </polygon>
        <polygon points="2123,986 2513,986 2513,1019 2123,1019 2123,986">
            <metadata id="SAINTOGAN_PROSPER_ET_LE_MONSTRE_MARIN_016_line_121" rank="132"/>
        </polygon>
        <polygon points="943,1001 1027,1001 1027,1024 943,1024 943,1001">
            <metadata id="SAINTOGAN_PROSPER_ET_LE_MONSTRE_MARIN_016_line_114" rank="134"/>
        </polygon>
        <polygon points="826,2086 1097,2086 1097,2204 826,2204 826,2086">
            <metadata id="SAINTOGAN_PROSPER_ET_LE_MONSTRE_MARIN_016_line_68" rank="136"/>
        </polygon>
        <polygon points="1670,1708 2513,1708 2513,1751 1670,1751 1670,1708">
            <metadata id="SAINTOGAN_PROSPER_ET_LE_MONSTRE_MARIN_016_line_79" rank="138"/>
        </polygon>
        <polygon points="1811,2500 2164,2500 2164,2542 1811,2542 1811,2500">
            <metadata id="SAINTOGAN_PROSPER_ET_LE_MONSTRE_MARIN_016_line_33" rank="140"/>
        </polygon>
        <polygon points="476,1086 855,1086 855,1122 476,1122 476,1086">
            <metadata id="SAINTOGAN_PROSPER_ET_LE_MONSTRE_MARIN_016_line_108" rank="142"/>
        </polygon>
        <polygon points="1589,3304 1728,3304 1728,3328 1589,3328 1589,3304">
            <metadata id="SAINTOGAN_PROSPER_ET_LE_MONSTRE_MARIN_016_line_6" rank="144"/>
        </polygon>
        <polygon points="546,1800 789,1800 789,1840 546,1840 546,1800">
            <metadata id="SAINTOGAN_PROSPER_ET_LE_MONSTRE_MARIN_016_line_71" rank="146"/>
        </polygon>
        <polygon points="1513,3255 1589,3255 1589,3283 1513,3283 1513,3255">
            <metadata id="SAINTOGAN_PROSPER_ET_LE_MONSTRE_MARIN_016_line_19" rank="148"/>
        </polygon>
        <polygon points="1317,3250 1479,3250 1479,3283 1317,3283 1317,3250">
            <metadata id="SAINTOGAN_PROSPER_ET_LE_MONSTRE_MARIN_016_line_21" rank="150"/>
        </polygon>
    </svg>
    <svg contentScriptType="text/ecmascript" zoomAndPan="magnify" class="Object" contentStyleType="text/css" preserveAspectRatio="xMidYMid meet" version="1.0"/>
    <metadata lastModificationDate="Thu Jun 12 14:25:50 CEST 2014" method="Reasoning on polygon's type" referent="Clément Guérin"/>
</svg>
