<?xml version="1.0" encoding="UTF-8" standalone="no"?>
<svg xmlns="http://www.w3.org/2000/svg" xmlns:xlink="http://www.w3.org/1999/xlink" contentScriptType="text/ecmascript" width="1237.0mm" zoomAndPan="magnify" contentStyleType="text/css" viewBox="0.0 0.0 2474.0 3519.0" height="1759.0mm" preserveAspectRatio="xMidYMid meet" version="1.0">
    <svg contentScriptType="text/ecmascript" zoomAndPan="magnify" class="Page" contentStyleType="text/css" preserveAspectRatio="xMidYMid meet" version="1.0">
        <image x="0" y="0" fill-opacity="0.5" width="2474" xlink:href="../Pages/SAINTOGAN_ZIGPUCE_MILLIONAIRES_025.jpg" xlink:type="simple" xlink:actuate="onLoad" height="3519" opacity="0.5" preserveAspectRatio="xMidYMid meet" xlink:show="embed"/>
    </svg>
    <style type="text/css" xml:space="preserve"><![CDATA[
		* { stroke-width: 0; stroke-linejoin: round; }
		.Unclassified { fill: orange; stroke: none; opacity: 1.0; visibility: hidden; }
		.Noise { fill: pink; stroke: none; opacity: 0.2; visibility: hidden; }
		.Panel { fill: red; stroke: none; opacity: 0.2; visibility: visible; image-rendering: optimizeSpeed; }
		.Line { fill: green; stroke: none; opacity: 0.2; visibility: visible; image-rendering: optimizeSpeed; }
		.TextArea { fill: grey; stroke: none; opacity: 0.2; visibility: visible; image-rendering: optimizeSpeed; }
		.Balloon { fill: cyan; stroke: none; opacity: 0.2; visibility: visible; image-rendering: optimizeSpeed; }
		.Letter { fill: blue; stroke: none; opacity: 0.2; visibility: hidden; }
		.Object { fill: yellow; stroke: none; opacity: 0.2; visibility: visible; image-rendering: optimizeSpeed; }
		.Page { fill: white; stroke: none; opacity: 0.5; visibility: visible; }
]]></style>
    <svg contentScriptType="text/ecmascript" zoomAndPan="magnify" class="Panel" contentStyleType="text/css" preserveAspectRatio="xMidYMid meet" version="1.0">
        <polygon points="1588,1107 1587,1158 1586,1183 1585,1193 1583,1195 1156,1195 862,1192 857,1189 856,1181 854,1079 854,1018 857,575 858,521 859,517 862,514 865,513 888,510 1088,510 1560,517 1585,518 1586,519 1587,524 1588,782 1588,1107">
            <metadata id="SAINTOGAN_ZIGPUCE_MILLIONAIRES_025_panel_9" rank="3"/>
        </polygon>
        <polygon points="1603,1416 1584,1906 1582,1908 1562,1908 1014,1906 864,1905 859,1902 858,1900 856,1745 856,1504 857,1241 858,1228 859,1227 863,1226 899,1225 910,1225 1367,1227 1533,1228 1579,1229 1583,1231 1585,1233 1601,1340 1603,1416">
            <metadata id="SAINTOGAN_ZIGPUCE_MILLIONAIRES_025_panel_6" rank="6"/>
        </polygon>
        <polygon points="2337,277 2336,440 2335,468 2334,476 2333,481 2331,482 2233,484 2231,484 168,481 95,477 94,476 92,168 92,167 93,166 96,164 117,156 711,152 1627,161 1980,165 2138,167 2312,170 2330,171 2332,173 2337,276 2337,277">
            <metadata id="SAINTOGAN_ZIGPUCE_MILLIONAIRES_025_panel_11" rank="1"/>
        </polygon>
        <polygon points="855,731 854,842 841,1186 840,1191 836,1198 830,1205 825,1208 821,1209 813,1210 764,1211 611,1212 530,1212 158,1202 101,1193 99,1192 96,1189 95,1176 95,522 96,520 98,518 101,517 122,516 326,513 619,512 753,512 825,513 826,516 855,677 855,731">
            <metadata id="SAINTOGAN_ZIGPUCE_MILLIONAIRES_025_panel_8" rank="2"/>
        </polygon>
        <polygon points="2339,1381 2336,1897 2333,1906 2329,1910 2325,1911 2287,1911 1943,1910 1615,1906 1614,1905 1614,1819 1615,1530 1618,1233 1621,1230 1806,1230 2277,1231 2333,1236 2336,1237 2337,1238 2339,1380 2339,1381">
            <metadata id="SAINTOGAN_ZIGPUCE_MILLIONAIRES_025_panel_5" rank="7"/>
        </polygon>
        <polygon points="2341,661 2338,1051 2336,1153 2335,1193 2333,1197 2332,1198 2328,1200 2317,1201 2234,1201 1619,1196 1617,1194 1616,1192 1616,1050 1618,651 1619,522 1623,518 1851,488 1951,486 1959,486 2273,515 2282,516 2330,522 2334,523 2335,525 2340,621 2341,661">
            <metadata id="SAINTOGAN_ZIGPUCE_MILLIONAIRES_025_panel_10" rank="4"/>
        </polygon>
        <polygon points="830,1304 826,1867 825,1906 824,1908 821,1908 103,1902 100,1901 99,1900 98,1898 95,1514 95,1512 97,1230 99,1229 155,1228 226,1227 434,1225 435,1225 826,1227 827,1229 830,1304">
            <metadata id="SAINTOGAN_ZIGPUCE_MILLIONAIRES_025_panel_7" rank="5"/>
        </polygon>
        <polygon points="2336,2252 2333,3308 2331,3314 2330,3316 2326,3318 1616,3329 1615,3328 1611,2656 1611,2614 1615,1944 1617,1942 1709,1922 2331,1945 2335,1949 2336,1954 2336,2252">
            <metadata id="SAINTOGAN_ZIGPUCE_MILLIONAIRES_025_panel_3" rank="12"/>
        </polygon>
        <polygon points="828,2617 826,2618 811,2619 669,2620 238,2623 116,2616 105,2615 99,2614 96,2613 96,2610 98,1946 100,1940 104,1939 109,1938 393,1936 394,1936 714,1937 823,1939 827,1942 828,1943 828,2617">
            <metadata id="SAINTOGAN_ZIGPUCE_MILLIONAIRES_025_panel_2" rank="8"/>
        </polygon>
        <polygon points="1586,2441 1585,2589 1584,2615 1582,2617 1579,2618 1329,2620 886,2620 861,2619 859,2618 858,2617 857,2615 854,2562 854,2159 857,1997 858,1952 859,1943 860,1941 861,1940 1128,1925 1207,1922 1406,1921 1427,1921 1579,1943 1582,1945 1584,1947 1585,1949 1586,2032 1586,2441">
            <metadata id="SAINTOGAN_ZIGPUCE_MILLIONAIRES_025_panel_4" rank="9"/>
        </polygon>
        <polygon points="1588,3094 1587,3273 1586,3312 1585,3325 1583,3327 1380,3331 884,3334 858,3334 857,3072 857,2749 858,2660 859,2654 1357,2637 1367,2637 1553,2640 1560,2641 1563,2642 1583,2654 1585,2656 1588,3093 1588,3094">
            <metadata id="SAINTOGAN_ZIGPUCE_MILLIONAIRES_025_panel_1" rank="11"/>
        </polygon>
        <polygon points="829,3333 828,3334 753,3336 312,3339 306,3339 202,3338 105,3335 104,3333 103,3306 100,3150 99,2775 99,2655 100,2652 102,2650 107,2649 112,2649 815,2653 825,2654 826,2655 829,3241 829,3333">
            <metadata id="SAINTOGAN_ZIGPUCE_MILLIONAIRES_025_panel_0" rank="10"/>
        </polygon>
    </svg>
    <svg contentScriptType="text/ecmascript" zoomAndPan="magnify" class="Balloon" contentStyleType="text/css" preserveAspectRatio="xMidYMid meet" version="1.0">
        <polygon points="1989,1285 1987,1374 1954,1540 1646,1457 1640,1454 1639,1453 1636,1447 1636,1351 1639,1285 1640,1279 1642,1273 1645,1267 1650,1262 1652,1261 1661,1257 1666,1255 1671,1254 1743,1254 1974,1257 1979,1259 1981,1261 1985,1266 1986,1268 1989,1278 1989,1285">
            <metadata id="SAINTOGAN_ZIGPUCE_MILLIONAIRES_025_balloon_8" tailTip="1954,1540" tailDirection="SE" rank="0"/>
        </polygon>
        <polygon points="2083,1985 2074,2166 2072,2174 2066,2183 2065,2184 1995,2220 1958,2227 1866,2197 1863,2196 1861,2195 1860,2194 1858,2191 1857,2189 1857,2188 1859,2029 1860,1970 1862,1965 1865,1961 1868,1958 1870,1957 1875,1955 2075,1955 2080,1960 2082,1964 2083,1968 2083,1985">
            <metadata id="SAINTOGAN_ZIGPUCE_MILLIONAIRES_025_balloon_6" tailTip="1958,2227" tailDirection="E" rank="2"/>
        </polygon>
        <polygon points="2274,2657 2272,2725 2271,2734 2269,2744 2267,2750 2266,2752 2263,2756 2258,2761 2047,2868 2046,2868 1707,2766 1698,2763 1696,2762 1693,2760 1691,2757 1690,2755 1689,2751 1687,2677 1687,2670 1688,2662 1689,2658 1691,2652 1692,2650 1695,2646 1697,2644 1700,2642 1702,2641 1709,2640 1719,2639 2220,2636 2246,2636 2257,2637 2260,2638 2266,2641 2271,2647 2272,2649 2273,2652 2274,2656 2274,2657">
            <metadata id="SAINTOGAN_ZIGPUCE_MILLIONAIRES_025_balloon_5" tailTip="2046,2868" tailDirection="SW" rank="4"/>
        </polygon>
        <polygon points="1107,2686 1106,2834 1083,2926 1082,2927 1081,2927 878,2847 876,2846 873,2844 872,2843 871,2841 871,2833 873,2679 874,2676 877,2670 879,2668 881,2667 884,2666 900,2664 908,2664 1038,2666 1093,2667 1100,2668 1103,2671 1105,2675 1106,2678 1107,2683 1107,2686">
            <metadata id="SAINTOGAN_ZIGPUCE_MILLIONAIRES_025_balloon_2" tailTip="1083,2926" tailDirection="SE" idSpeaker="Zig_Et_Puce_Zig_Et_Puce_MillionnairesPage25Character7" rank="6"/>
        </polygon>
        <polygon points="800,1309 798,1314 760,1400 756,1403 670,1462 664,1466 662,1467 538,1365 537,1364 534,1359 528,1319 528,1304 529,1277 530,1268 532,1254 534,1246 535,1244 536,1243 625,1242 652,1242 717,1243 732,1244 736,1245 742,1247 744,1248 751,1252 786,1273 790,1276 795,1282 796,1284 797,1287 799,1294 800,1300 800,1309">
            <metadata id="SAINTOGAN_ZIGPUCE_MILLIONAIRES_025_balloon_10" tailTip="662,1467" tailDirection="SW" idSpeaker="Zig_Et_Puce_Zig_Et_Puce_MillionnairesPage25Character5" rank="8"/>
        </polygon>
        <polygon points="467,1255 466,1320 454,1438 453,1445 451,1450 447,1457 445,1459 444,1459 142,1412 132,1410 127,1407 123,1404 120,1399 119,1395 117,1336 115,1262 115,1261 116,1254 120,1247 122,1245 133,1242 138,1241 150,1240 345,1238 397,1238 460,1239 463,1240 465,1242 467,1246 467,1255">
            <metadata id="SAINTOGAN_ZIGPUCE_MILLIONAIRES_025_balloon_11" tailTip="444,1459" tailDirection="S" idSpeaker="Zig_Et_Puce_Zig_Et_Puce_MillionnairesPage25Character5" rank="10"/>
        </polygon>
        <polygon points="851,727 849,842 848,845 843,855 841,858 838,861 830,867 822,871 752,900 748,901 601,934 596,934 577,932 572,931 570,930 574,729 576,723 597,676 598,674 602,670 608,665 618,660 626,657 636,655 692,650 761,648 777,648 837,662 845,668 847,671 848,673 849,676 850,681 851,724 851,727">
            <metadata id="SAINTOGAN_ZIGPUCE_MILLIONAIRES_025_balloon_13" tailTip="570,930" tailDirection="W" idSpeaker="Zig_Et_Puce_Zig_Et_Puce_MillionnairesPage25Character17" rank="12"/>
        </polygon>
        <polygon points="2323,1671 2320,1687 2316,1694 2314,1697 2308,1703 2301,1707 2297,1709 2284,1713 2275,1714 2186,1716 2185,1716 2149,1710 2141,1708 2136,1705 2131,1700 2130,1698 2130,1687 2131,1649 2136,1614 2137,1611 2147,1601 2153,1598 2203,1595 2205,1595 2278,1599 2282,1600 2284,1601 2290,1605 2292,1607 2312,1632 2314,1635 2318,1643 2319,1646 2322,1656 2323,1662 2323,1671">
            <metadata id="SAINTOGAN_ZIGPUCE_MILLIONAIRES_025_balloon_7" tailDirection="none" rank="14"/>
        </polygon>
        <polygon points="1318,2788 1315,2798 1264,2956 1260,2965 1258,2968 1254,2972 1253,2972 1130,2891 1125,2886 1124,2884 1123,2881 1123,2871 1129,2695 1131,2689 1132,2687 1136,2683 1138,2682 1190,2677 1199,2677 1203,2678 1210,2680 1220,2683 1228,2686 1233,2688 1250,2695 1261,2700 1267,2703 1280,2711 1289,2717 1302,2730 1306,2735 1309,2740 1315,2753 1316,2756 1317,2760 1318,2766 1318,2788">
            <metadata id="SAINTOGAN_ZIGPUCE_MILLIONAIRES_025_balloon_1" tailTip="1253,2972" tailDirection="S" idSpeaker="Zig_Et_Puce_Zig_Et_Puce_MillionnairesPage25Character7" rank="16"/>
        </polygon>
        <polygon points="835,1187 831,1195 824,1202 821,1203 815,1204 774,1205 598,1207 555,1207 529,1206 518,1205 500,1201 495,1197 493,1195 491,1191 490,1186 490,1185 494,940 767,949 828,952 830,953 833,956 834,1000 835,1178 835,1187">
            <metadata id="SAINTOGAN_ZIGPUCE_MILLIONAIRES_025_balloon_12" tailDirection="none" rank="18"/>
        </polygon>
        <polygon points="449,2898 448,2898 148,2857 138,2855 135,2854 133,2853 128,2850 119,2841 115,2835 114,2831 113,2776 113,2729 116,2682 118,2675 119,2674 133,2668 136,2667 159,2667 398,2668 406,2671 408,2672 415,2679 417,2683 418,2686 449,2897 449,2898">
            <metadata id="SAINTOGAN_ZIGPUCE_MILLIONAIRES_025_balloon_0" tailTip="449,2897" tailDirection="SE" idSpeaker="Zig_Et_Puce_Zig_Et_Puce_MillionnairesPage25Character13" rank="20"/>
        </polygon>
    </svg>
    <svg contentScriptType="text/ecmascript" zoomAndPan="magnify" class="Line" contentStyleType="text/css" preserveAspectRatio="xMidYMid meet" version="1.0">
        <polygon points="879,2756 1013,2756 1013,2783 879,2783 879,2756">
            <metadata id="SAINTOGAN_ZIGPUCE_MILLIONAIRES_025_line_8" rank="0"/>
        </polygon>
        <polygon points="619,1000 773,1000 773,1027 619,1027 619,1000">
            <metadata id="SAINTOGAN_ZIGPUCE_MILLIONAIRES_025_line_86" rank="2"/>
        </polygon>
        <polygon points="1702,2725 1838,2725 1838,2755 1702,2755 1702,2725">
            <metadata id="SAINTOGAN_ZIGPUCE_MILLIONAIRES_025_line_28" rank="4"/>
        </polygon>
        <polygon points="1654,1407 1778,1407 1778,1436 1654,1436 1654,1407">
            <metadata id="SAINTOGAN_ZIGPUCE_MILLIONAIRES_025_line_63" rank="6"/>
        </polygon>
        <polygon points="549,1324 728,1324 728,1353 549,1353 549,1324">
            <metadata id="SAINTOGAN_ZIGPUCE_MILLIONAIRES_025_line_69" rank="8"/>
        </polygon>
        <polygon points="98,1317 235,1317 235,1354 98,1354 98,1317">
            <metadata id="SAINTOGAN_ZIGPUCE_MILLIONAIRES_025_line_70" rank="10"/>
        </polygon>
        <polygon points="749,713 845,713 845,736 749,736 749,713">
            <metadata id="SAINTOGAN_ZIGPUCE_MILLIONAIRES_025_line_95" rank="12"/>
        </polygon>
        <polygon points="612,820 848,820 848,849 612,849 612,820">
            <metadata id="SAINTOGAN_ZIGPUCE_MILLIONAIRES_025_line_92" rank="14"/>
        </polygon>
        <polygon points="1697,2689 2269,2689 2269,2723 1697,2723 1697,2689">
            <metadata id="SAINTOGAN_ZIGPUCE_MILLIONAIRES_025_line_29" rank="16"/>
        </polygon>
        <polygon points="503,960 815,960 815,989 503,989 503,960">
            <metadata id="SAINTOGAN_ZIGPUCE_MILLIONAIRES_025_line_88" rank="18"/>
        </polygon>
        <polygon points="120,2717 269,2717 269,2747 120,2747 120,2717">
            <metadata id="SAINTOGAN_ZIGPUCE_MILLIONAIRES_025_line_25" rank="20"/>
        </polygon>
        <polygon points="1700,2653 2032,2653 2032,2684 1700,2684 1700,2653">
            <metadata id="SAINTOGAN_ZIGPUCE_MILLIONAIRES_025_line_31" rank="22"/>
        </polygon>
        <polygon points="1657,1276 1737,1276 1737,1302 1657,1302 1657,1276">
            <metadata id="SAINTOGAN_ZIGPUCE_MILLIONAIRES_025_line_77" rank="24"/>
        </polygon>
        <polygon points="599,712 689,712 689,742 599,742 599,712">
            <metadata id="SAINTOGAN_ZIGPUCE_MILLIONAIRES_025_line_96" rank="26"/>
        </polygon>
        <polygon points="1133,2865 1254,2865 1254,2896 1133,2896 1133,2865">
            <metadata id="SAINTOGAN_ZIGPUCE_MILLIONAIRES_025_line_14" rank="28"/>
        </polygon>
        <polygon points="493,1102 822,1102 822,1136 493,1136 493,1102">
            <metadata id="SAINTOGAN_ZIGPUCE_MILLIONAIRES_025_line_82" rank="30"/>
        </polygon>
        <polygon points="601,672 838,672 838,700 601,700 601,672">
            <metadata id="SAINTOGAN_ZIGPUCE_MILLIONAIRES_025_line_97" rank="32"/>
        </polygon>
        <polygon points="2217,1618 2286,1618 2286,1641 2217,1641 2217,1618">
            <metadata id="SAINTOGAN_ZIGPUCE_MILLIONAIRES_025_line_55" rank="34"/>
        </polygon>
        <polygon points="132,1243 456,1243 456,1273 132,1273 132,1243">
            <metadata id="SAINTOGAN_ZIGPUCE_MILLIONAIRES_025_line_79" rank="36"/>
        </polygon>
        <polygon points="1871,2731 2047,2731 2047,2758 1871,2758 1871,2731">
            <metadata id="SAINTOGAN_ZIGPUCE_MILLIONAIRES_025_line_27" rank="38"/>
        </polygon>
        <polygon points="121,2676 380,2676 380,2708 121,2708 121,2676">
            <metadata id="SAINTOGAN_ZIGPUCE_MILLIONAIRES_025_line_26" rank="40"/>
        </polygon>
        <polygon points="596,784 844,784 844,815 596,815 596,784">
            <metadata id="SAINTOGAN_ZIGPUCE_MILLIONAIRES_025_line_93" rank="42"/>
        </polygon>
        <polygon points="1791,1462 1982,1462 1982,1515 1791,1515 1791,1462">
            <metadata id="SAINTOGAN_ZIGPUCE_MILLIONAIRES_025_line_60" rank="44"/>
        </polygon>
        <polygon points="1142,2694 1253,2694 1253,2719 1142,2719 1142,2694">
            <metadata id="SAINTOGAN_ZIGPUCE_MILLIONAIRES_025_line_17" rank="46"/>
        </polygon>
        <polygon points="1137,2765 1255,2765 1255,2787 1137,2787 1137,2765">
            <metadata id="SAINTOGAN_ZIGPUCE_MILLIONAIRES_025_line_15" rank="48"/>
        </polygon>
        <polygon points="131,2793 234,2793 234,2826 131,2826 131,2793">
            <metadata id="SAINTOGAN_ZIGPUCE_MILLIONAIRES_025_line_20" rank="50"/>
        </polygon>
        <polygon points="597,746 843,746 843,776 597,776 597,746">
            <metadata id="SAINTOGAN_ZIGPUCE_MILLIONAIRES_025_line_94" rank="52"/>
        </polygon>
        <polygon points="2067,2656 2219,2656 2219,2682 2067,2682 2067,2656">
            <metadata id="SAINTOGAN_ZIGPUCE_MILLIONAIRES_025_line_30" rank="54"/>
        </polygon>
        <polygon points="1815,1278 1963,1278 1963,1307 1815,1307 1815,1278">
            <metadata id="SAINTOGAN_ZIGPUCE_MILLIONAIRES_025_line_76" rank="56"/>
        </polygon>
        <polygon points="505,995 574,995 574,1022 505,1022 505,995">
            <metadata id="SAINTOGAN_ZIGPUCE_MILLIONAIRES_025_line_87" rank="58"/>
        </polygon>
        <polygon points="629,1360 731,1360 731,1395 629,1395 629,1360">
            <metadata id="SAINTOGAN_ZIGPUCE_MILLIONAIRES_025_line_67" rank="60"/>
        </polygon>
        <polygon points="1655,1319 1849,1319 1849,1352 1655,1352 1655,1319">
            <metadata id="SAINTOGAN_ZIGPUCE_MILLIONAIRES_025_line_71" rank="62"/>
        </polygon>
        <polygon points="506,1138 813,1138 813,1170 506,1170 506,1138">
            <metadata id="SAINTOGAN_ZIGPUCE_MILLIONAIRES_025_line_81" rank="64"/>
        </polygon>
        <polygon points="125,2757 201,2757 201,2783 125,2783 125,2757">
            <metadata id="SAINTOGAN_ZIGPUCE_MILLIONAIRES_025_line_22" rank="66"/>
        </polygon>
        <polygon points="876,2669 1094,2669 1094,2703 876,2703 876,2669">
            <metadata id="SAINTOGAN_ZIGPUCE_MILLIONAIRES_025_line_13" rank="68"/>
        </polygon>
        <polygon points="1039,2761 1096,2761 1096,2785 1039,2785 1039,2761">
            <metadata id="SAINTOGAN_ZIGPUCE_MILLIONAIRES_025_line_7" rank="70"/>
        </polygon>
        <polygon points="141,1365 293,1365 293,1397 141,1397 141,1365">
            <metadata id="SAINTOGAN_ZIGPUCE_MILLIONAIRES_025_line_66" rank="72"/>
        </polygon>
        <polygon points="232,2761 379,2761 379,2787 232,2787 232,2761">
            <metadata id="SAINTOGAN_ZIGPUCE_MILLIONAIRES_025_line_21" rank="74"/>
        </polygon>
        <polygon points="307,2721 393,2721 393,2751 307,2751 307,2721">
            <metadata id="SAINTOGAN_ZIGPUCE_MILLIONAIRES_025_line_24" rank="76"/>
        </polygon>
        <polygon points="504,1069 666,1069 666,1099 504,1099 504,1069">
            <metadata id="SAINTOGAN_ZIGPUCE_MILLIONAIRES_025_line_84" rank="78"/>
        </polygon>
        <polygon points="504,1028 796,1028 796,1065 504,1065 504,1028">
            <metadata id="SAINTOGAN_ZIGPUCE_MILLIONAIRES_025_line_85" rank="80"/>
        </polygon>
        <polygon points="604,1246 720,1246 720,1273 604,1273 604,1246">
            <metadata id="SAINTOGAN_ZIGPUCE_MILLIONAIRES_025_line_78" rank="82"/>
        </polygon>
        <polygon points="1138,2727 1287,2727 1287,2752 1138,2752 1138,2727">
            <metadata id="SAINTOGAN_ZIGPUCE_MILLIONAIRES_025_line_16" rank="84"/>
        </polygon>
        <polygon points="880,2714 1075,2714 1075,2739 880,2739 880,2714">
            <metadata id="SAINTOGAN_ZIGPUCE_MILLIONAIRES_025_line_10" rank="86"/>
        </polygon>
        <polygon points="694,1074 794,1074 794,1099 694,1099 694,1074">
            <metadata id="SAINTOGAN_ZIGPUCE_MILLIONAIRES_025_line_83" rank="88"/>
        </polygon>
        <polygon points="1867,1965 2058,1965 2058,1994 1867,1994 1867,1965">
            <metadata id="SAINTOGAN_ZIGPUCE_MILLIONAIRES_025_line_44" rank="90"/>
        </polygon>
        <polygon points="510,1167 598,1167 598,1199 510,1199 510,1167">
            <metadata id="SAINTOGAN_ZIGPUCE_MILLIONAIRES_025_line_80" rank="92"/>
        </polygon>
        <polygon points="883,2792 1094,2792 1094,2827 883,2827 883,2792">
            <metadata id="SAINTOGAN_ZIGPUCE_MILLIONAIRES_025_line_5" rank="94"/>
        </polygon>
        <polygon points="1869,2041 1960,2041 1960,2072 1869,2072 1869,2041">
            <metadata id="SAINTOGAN_ZIGPUCE_MILLIONAIRES_025_line_42" rank="96"/>
        </polygon>
    </svg>
    <svg contentScriptType="text/ecmascript" zoomAndPan="magnify" class="Object" contentStyleType="text/css" preserveAspectRatio="xMidYMid meet" version="1.0">
        <polygon points="106,529 606,529 606,1196 106,1196 106,529">
            <metadata id="Zig_Et_Puce_Zig_Et_Puce_MillionnairesPage25Character17" idBalloon="SAINTOGAN_ZIGPUCE_MILLIONAIRES_025_balloon_13" idPanel="SAINTOGAN_ZIGPUCE_MILLIONAIRES_025_panel_8"/>
        </polygon>
        <polygon points="408,2840 712,2840 712,3171 408,3171 408,2840">
            <metadata id="Zig_Et_Puce_Zig_Et_Puce_MillionnairesPage25Character13" idBalloon="SAINTOGAN_ZIGPUCE_MILLIONAIRES_025_balloon_0" idPanel="SAINTOGAN_ZIGPUCE_MILLIONAIRES_025_panel_0"/>
        </polygon>
        <polygon points="143,1449 659,1449 659,1882 143,1882 143,1449">
            <metadata id="Zig_Et_Puce_Zig_Et_Puce_MillionnairesPage25Character5" idPanel="SAINTOGAN_ZIGPUCE_MILLIONAIRES_025_panel_7"/>
        </polygon>
        <polygon points="865,2930 1335,2930 1335,3317 865,3317 865,2930">
            <metadata id="Zig_Et_Puce_Zig_Et_Puce_MillionnairesPage25Character7" idPanel="SAINTOGAN_ZIGPUCE_MILLIONAIRES_025_panel_1"/>
        </polygon>
    </svg>
    <metadata lastModificationDate="Thu Jun 12 14:27:48 CEST 2014" method="Reasoning on polygon's type" referent="Clément Guérin"/>
</svg>
