<?xml version="1.0" encoding="UTF-8" standalone="no"?>
<svg width="827" xmlns="http://www.w3.org/2000/svg" version="1.0" height="1170">
  <title>TetsuSan_068</title>
  <svg contentScriptType="text/ecmascript" zoomAndPan="magnify" contentStyleType="text/css" class="Page" preserveAspectRatio="xMidYMid meet" version="1.0">
    <image xmlns:xlink="http://www.w3.org/1999/xlink" x="0" y="0" width="827" height="1170" xlink:href="./../../dataset_Manga109/TetsuSan/TetsuSan_068.jpg" xlink:type="simple" xlink:actuate="onLoad" preserveAspectRatio="xMidYMid meet" xlink:show="embed"/>
  </svg>
  <style type="text/css" xml:space="preserve">
        * { stroke-linejoin: round; }
        .Unclassified   { fill: orange; stroke: none;   opacity: 1.0; visibility: hidden; }
        .Noise          { fill: pink;   stroke: none;   opacity: 0.2; visibility: hidden; }
        .Panel          { fill: none;   stroke: red;    stroke-width:3; opacity: 0.5; visibility: visible; image-rendering: optimizeSpeed; }
        .Line           { fill: green;  stroke: none;   opacity: 0.5; visibility: visible; image-rendering: optimizeSpeed; }
        .TextArea       { fill: grey;   stroke: none;   opacity: 0.2; visibility: visible; image-rendering: optimizeSpeed; }
        .Balloon        { fill: cyan;   stroke: none;   opacity: 0.5; visibility: visible; image-rendering: optimizeSpeed; }
        .Letter         { fill: blue;   stroke: none;   opacity: 0.2; visibility: hidden; }
        .Object, .Character, .Face  { fill: yellow; stroke: none;   opacity: 0.5; visibility: visible; image-rendering: optimizeSpeed; }
        .Page           { fill: white;  stroke: none;    opacity: 0.5; visibility: visible; }
        .linkSBSC { fill: blue; stroke: none; opacity: 1.0; visibility: visible; }
        polygon:hover { opacity:1.0; stroke:red; }
</style>
  <svg xmlns="http://www.w3.org/2000/svg" contentScriptType="text/ecmascript" zoomAndPan="magnify" contentStyleType="text/css" class="Balloon" preserveAspectRatio="xMidYMid meet" version="1.0">
    <polygon points="331,863 331,864 332,865 332,866 333,867 333,868 334,869 334,870 334,871 334,872 335,873 335,874 335,875 335,876 335,877 334,878 334,879 334,880 334,881 333,882 333,883 333,884 332,885 332,886 331,887 331,888 330,889 330,890 329,891 329,892 328,893 327,894 328,894 329,894 330,895 331,895 332,896 332,897 333,898 333,899 334,900 335,901 335,902 335,903 335,904 335,905 335,906 335,907 335,908 335,909 335,910 334,911 334,912 334,913 333,914 333,915 332,916 332,917 332,918 331,919 331,920 330,921 329,922 329,923 330,924 331,925 331,926 332,927 332,928 332,929 332,930 332,931 332,932 332,933 332,934 332,935 332,936 332,937 331,938 331,939 331,940 330,941 330,942 330,943 329,944 329,945 328,946 328,947 327,948 328,948 329,949 330,950 330,951 331,952 331,953 331,954 331,955 331,956 331,957 331,958 331,959 330,960 330,961 330,962 330,963 329,964 329,965 328,966 328,967 328,968 327,969 327,970 328,970 329,970 330,970 331,970 332,971 333,971 334,972 334,973 335,974 335,975 335,976 335,977 335,978 335,979 335,980 335,981 335,982 336,982 337,981 338,981 339,980 340,980 341,980 342,980 343,981 344,981 345,982 346,983 347,984 348,985 348,986 349,987 349,988 348,989 349,990 349,991 349,992 349,993 350,992 351,991 352,991 353,990 354,990 355,989 356,989 357,988 358,988 359,987 360,987 361,987 362,986 363,986 364,986 365,986 366,986 367,987 368,987 369,987 370,987 371,987 372,987 373,987 374,988 375,988 375,987 375,986 375,985 375,984 375,983 375,982 375,981 375,980 375,979 375,978 375,977 375,976 375,975 375,974 375,973 375,972 375,971 375,970 375,969 375,968 375,967 375,966 375,965 375,964 375,963 375,962 375,961 375,960 375,959 375,958 375,957 375,956 375,955 375,954 375,953 375,952 375,951 375,950 375,949 375,948 375,947 375,946 375,945 375,944 375,943 375,942 375,941 375,940 375,939 375,938 375,937 375,936 375,935 375,934 375,933 375,932 375,931 375,930 375,929 375,928 375,927 375,926 375,925 375,924 375,923 375,922 375,921 375,920 375,919 375,918 375,917 375,916 375,915 375,914 375,913 375,912 375,911 375,910 375,909 375,908 375,907 375,906 375,905 375,904 375,903 375,902 375,901 375,900 375,899 375,898 375,897 375,896 375,895 375,894 375,893 375,892 375,891 375,890 375,889 375,888 375,887 375,886 375,885 375,884 375,883 375,882 375,881 375,880 375,879 375,878 375,877 375,876 375,875 375,874 375,873 375,872 375,871 375,870 375,869 375,868 375,867 375,866 375,865 375,864 375,863 374,863 373,863 372,863 371,863 370,863 369,863 368,863 367,863 366,863 365,863 364,863 363,863 362,863 361,863 360,863 359,863 358,863 357,863 356,863 355,863 354,863 353,863 352,863 351,863 350,863 349,863 348,863 347,863 346,863 345,863 344,863 343,863 342,863 341,863 340,863 339,863 338,863 337,863 336,863 335,863 334,863 333,863 332,863 331,863">
      <metadata tailDirection="" confidence="0.98" linkedToCharacter="" id="TetsuSan_068_balloon_0" tailTip=""></metadata>
    </polygon>
    <polygon points="256,863 256,864 257,865 257,866 258,867 258,868 258,869 258,870 259,871 259,872 259,873 258,874 258,875 258,876 257,877 257,878 257,879 256,880 255,881 254,882 254,883 254,884 255,885 256,886 256,887 256,888 256,889 256,890 256,891 256,892 256,893 256,894 256,895 256,896 255,897 255,898 254,899 254,900 253,901 253,902 252,903 251,904 251,905 250,906 249,906 250,906 251,907 251,908 252,909 253,910 254,911 254,912 255,913 255,914 255,915 255,916 256,917 256,918 256,919 255,920 255,921 255,922 255,923 255,924 254,925 254,926 254,927 254,928 253,929 253,930 253,931 252,932 252,933 253,933 254,933 255,933 256,933 257,934 258,934 259,935 260,935 261,936 261,937 262,938 263,939 263,940 263,941 263,942 264,943 264,944 264,945 264,946 264,947 265,947 266,946 267,946 268,945 269,945 270,945 271,945 272,944 273,945 274,945 275,945 276,945 277,945 278,945 279,946 280,946 281,947 282,948 283,949 284,950 285,951 285,950 286,949 287,948 288,947 289,946 290,945 291,945 292,944 293,944 294,943 295,943 296,942 297,942 298,942 299,942 300,941 301,941 302,941 303,941 304,941 305,941 306,941 307,941 308,942 309,942 310,942 311,943 312,943 313,944 313,943 313,942 313,941 313,940 313,939 313,938 313,937 313,936 313,935 313,934 314,933 314,932 314,931 314,930 314,929 314,928 314,927 315,926 315,925 315,924 316,923 316,922 316,921 317,920 317,919 318,918 318,917 319,916 320,915 320,914 321,913 322,912 323,911 324,910 323,909 322,908 322,907 321,906 320,905 320,904 319,903 319,902 319,901 318,900 318,899 318,898 318,897 318,896 317,895 317,894 317,893 317,892 317,891 317,890 317,889 317,888 317,887 317,886 318,885 318,884 318,883 318,882 318,881 318,880 317,881 316,881 315,880 314,879 313,878 313,877 313,876 313,875 313,874 313,873 313,872 313,871 314,870 314,869 314,868 314,867 314,866 314,865 314,864 314,863 313,863 312,863 311,863 310,863 309,863 308,863 307,863 306,863 305,863 304,863 303,863 302,863 301,863 300,863 299,863 298,863 297,863 296,863 295,863 294,863 293,863 292,863 291,863 290,863 289,863 288,863 287,863 286,863 285,863 284,863 283,863 282,863 281,863 280,863 279,863 278,863 277,863 276,863 275,863 274,863 273,863 272,863 271,863 270,863 269,863 268,863 267,863 266,863 265,863 264,863 263,863 262,863 261,863 260,863 259,863 258,863 257,863 256,863">
      <metadata tailDirection="" confidence="0.97" linkedToCharacter="" id="TetsuSan_068_balloon_1" tailTip=""></metadata>
    </polygon>
    <polygon points="57,863 57,864 57,865 57,866 57,867 57,868 57,869 57,870 57,871 57,872 57,873 57,874 57,875 57,876 57,877 57,878 57,879 57,880 57,881 57,882 57,883 57,884 57,885 57,886 57,887 57,888 57,889 57,890 57,891 57,892 57,893 57,894 57,895 57,896 57,897 57,898 57,899 57,900 57,901 57,902 57,903 57,904 57,905 57,906 56,907 56,908 56,909 56,910 56,911 56,912 56,913 56,914 56,915 56,916 56,917 56,918 56,919 56,920 56,921 56,922 56,923 56,924 56,925 56,926 56,927 56,928 56,929 56,930 56,931 56,932 56,933 56,934 56,935 56,936 56,937 56,938 56,939 56,940 56,941 56,942 56,943 56,944 56,945 56,946 56,947 56,948 56,949 56,950 56,951 56,952 56,953 56,954 56,955 56,956 56,957 56,958 56,959 57,960 57,961 57,962 57,963 57,964 57,965 57,966 57,967 57,968 57,969 57,970 57,971 57,972 57,973 57,974 57,975 56,976 57,977 57,978 57,979 57,980 57,981 57,982 56,983 56,984 57,985 57,986 57,987 57,988 57,989 57,990 57,991 57,992 57,993 57,994 57,995 57,996 57,997 57,998 57,999 57,1000 57,1001 57,1002 57,1003 57,1004 57,1005 57,1006 57,1007 57,1008 57,1009 57,1010 57,1011 57,1012 57,1013 57,1014 57,1015 57,1016 57,1017 57,1018 57,1019 57,1020 57,1021 57,1022 57,1023 57,1024 57,1025 57,1026 57,1027 57,1028 57,1029 57,1030 57,1031 57,1032 57,1033 57,1034 57,1035 57,1036 57,1037 57,1038 57,1039 57,1040 57,1041 57,1042 57,1043 57,1044 57,1045 57,1046 57,1047 57,1048 57,1049 57,1050 57,1051 57,1052 57,1053 57,1054 57,1055 57,1056 57,1057 57,1058 57,1059 57,1060 57,1061 57,1062 57,1063 57,1064 57,1065 57,1066 57,1067 57,1068 57,1069 57,1070 57,1071 57,1072 57,1073 57,1074 57,1075 57,1076 57,1077 57,1078 57,1079 57,1080 57,1081 57,1082 57,1083 57,1084 57,1085 57,1086 57,1087 57,1088 57,1089 57,1090 57,1091 57,1092 57,1093 58,1093 59,1093 60,1093 61,1093 62,1093 63,1093 64,1093 65,1093 66,1094 67,1094 68,1094 69,1094 70,1094 71,1094 72,1094 73,1094 74,1094 75,1094 76,1094 77,1094 78,1094 79,1094 80,1094 81,1094 82,1094 83,1094 84,1094 85,1094 86,1094 87,1094 88,1094 89,1094 90,1094 91,1094 92,1094 93,1094 94,1094 95,1094 96,1094 97,1094 98,1094 99,1094 100,1094 101,1094 102,1094 103,1094 104,1094 105,1094 106,1094 106,1093 106,1092 106,1091 106,1090 106,1089 107,1088 106,1087 106,1086 107,1085 107,1084 107,1083 106,1082 106,1081 107,1080 107,1079 107,1078 106,1077 106,1076 106,1075 106,1074 106,1073 106,1072 106,1071 106,1070 106,1069 107,1068 106,1067 107,1066 106,1065 106,1064 106,1063 106,1062 106,1061 106,1060 106,1059 106,1058 106,1057 106,1056 106,1055 106,1054 106,1053 106,1052 106,1051 106,1050 106,1049 106,1048 106,1047 106,1046 106,1045 106,1044 106,1043 106,1042 106,1041 106,1040 106,1039 106,1038 106,1037 106,1036 106,1035 106,1034 106,1033 106,1032 106,1031 106,1030 106,1029 106,1028 106,1027 106,1026 106,1025 106,1024 106,1023 106,1022 106,1021 106,1020 106,1019 106,1018 106,1017 106,1016 106,1015 106,1014 106,1013 106,1012 106,1011 106,1010 106,1009 106,1008 106,1007 106,1006 106,1005 106,1004 106,1003 106,1002 106,1001 106,1000 106,999 106,998 106,997 106,996 106,995 106,994 106,993 106,992 106,991 106,990 106,989 106,988 106,987 106,986 106,985 106,984 106,983 106,982 106,981 106,980 106,979 106,978 106,977 106,976 106,975 106,974 106,973 106,972 106,971 106,970 106,969 106,968 106,967 106,966 106,965 106,964 106,963 106,962 106,961 106,960 106,959 106,958 106,957 106,956 106,955 106,954 106,953 106,952 106,951 106,950 106,949 106,948 106,947 106,946 106,945 106,944 106,943 106,942 106,941 106,940 105,939 105,938 105,937 105,936 105,935 105,934 105,933 105,932 105,931 105,930 105,929 105,928 105,927 105,926 105,925 105,924 105,923 105,922 105,921 105,920 105,919 105,918 105,917 105,916 105,915 105,914 105,913 105,912 105,911 105,910 105,909 105,908 105,907 105,906 105,905 105,904 105,903 105,902 105,901 105,900 105,899 105,898 105,897 105,896 105,895 105,894 105,893 105,892 105,891 105,890 105,889 105,888 105,887 105,886 105,885 105,884 105,883 105,882 105,881 105,880 105,879 105,878 105,877 105,876 105,875 105,874 105,873 105,872 105,871 105,870 105,869 105,868 105,867 105,866 105,865 105,864 105,863 104,863 103,863 102,863 101,863 100,863 99,863 98,863 97,863 96,863 95,863 94,863 93,863 92,863 91,863 90,863 89,863 88,863 87,863 86,863 85,863 84,863 83,863 82,863 81,863 80,863 79,863 78,863 77,863 76,863 75,863 74,863 73,863 72,863 71,863 70,863 69,863 68,863 67,863 66,863 65,863 64,863 63,863 62,863 61,863 60,863 59,863 58,863 57,863">
      <metadata tailDirection="" confidence="0.95" linkedToCharacter="" id="TetsuSan_068_balloon_2" tailTip=""></metadata>
    </polygon>
    <polygon points="491,956 490,957 489,957 488,957 487,958 486,958 485,958 484,958 483,959 482,959 481,959 480,960 479,960 478,961 477,961 476,962 475,962 474,963 473,963 472,964 471,965 470,965 469,966 468,967 467,968 467,969 466,970 466,971 466,972 466,973 466,974 466,975 466,976 466,977 466,978 466,979 466,980 466,981 466,982 466,983 466,984 466,985 466,986 466,987 466,988 466,989 466,990 466,991 466,992 466,993 466,994 466,995 466,996 466,997 466,998 466,999 466,1000 466,1001 466,1002 466,1003 466,1004 466,1005 466,1006 466,1007 466,1008 466,1009 466,1010 466,1011 466,1012 466,1013 466,1014 466,1015 466,1016 466,1017 466,1018 466,1019 466,1020 466,1021 466,1022 466,1023 466,1024 466,1025 466,1026 466,1027 466,1028 466,1029 466,1030 466,1031 466,1032 466,1033 466,1034 466,1035 466,1036 466,1037 466,1038 466,1039 466,1040 466,1041 466,1042 466,1043 466,1044 466,1045 466,1046 466,1047 466,1048 466,1049 466,1050 466,1051 466,1052 466,1053 466,1054 466,1055 466,1056 466,1057 466,1058 466,1059 466,1060 466,1061 466,1062 466,1063 466,1064 466,1065 466,1066 466,1067 466,1068 466,1069 466,1070 466,1071 466,1072 466,1073 466,1074 466,1075 466,1076 466,1077 466,1078 466,1079 466,1080 466,1081 466,1082 466,1083 466,1084 466,1085 466,1086 466,1087 466,1088 466,1089 466,1090 466,1091 466,1092 466,1093 467,1094 467,1095 468,1095 469,1095 470,1095 471,1095 472,1095 473,1095 474,1095 475,1095 476,1095 477,1095 478,1095 479,1095 480,1095 481,1095 482,1095 483,1095 484,1095 485,1095 486,1095 487,1095 488,1095 489,1095 490,1095 491,1095 492,1095 493,1095 494,1095 495,1095 496,1095 497,1095 498,1095 499,1095 500,1095 501,1095 502,1095 503,1095 504,1095 505,1095 506,1095 507,1095 508,1095 509,1095 510,1095 511,1095 512,1095 513,1095 514,1095 515,1095 516,1095 517,1095 518,1095 519,1095 520,1095 521,1095 522,1095 523,1095 524,1095 525,1095 526,1095 527,1095 528,1095 529,1095 530,1095 531,1095 532,1095 533,1095 534,1095 535,1095 536,1095 537,1095 538,1095 539,1095 539,1094 540,1093 541,1093 542,1092 542,1091 543,1090 543,1089 544,1088 544,1087 544,1086 545,1085 545,1084 546,1083 547,1082 547,1081 547,1080 548,1079 548,1078 548,1077 549,1076 549,1075 549,1074 550,1073 550,1072 551,1071 551,1070 551,1069 551,1068 552,1067 552,1066 552,1065 552,1064 552,1063 552,1062 552,1061 553,1060 553,1059 553,1058 553,1057 553,1056 553,1055 553,1054 553,1053 554,1052 554,1051 554,1050 554,1049 554,1048 554,1047 554,1046 554,1045 554,1044 554,1043 554,1042 554,1041 553,1040 553,1039 553,1038 553,1037 553,1036 554,1035 555,1034 556,1034 555,1033 554,1032 553,1031 553,1030 553,1029 553,1028 553,1027 553,1026 553,1025 553,1024 553,1023 553,1022 553,1021 553,1020 553,1019 552,1018 552,1017 552,1016 552,1015 551,1014 551,1013 551,1012 551,1011 551,1010 551,1009 550,1008 550,1007 550,1006 550,1005 550,1004 549,1003 549,1002 549,1001 549,1000 548,999 548,998 548,997 548,996 547,995 547,994 547,993 546,992 546,991 546,990 546,989 546,988 546,987 545,986 545,985 544,984 544,983 543,982 543,981 543,980 542,979 542,978 541,977 541,976 540,975 539,974 539,973 539,972 538,971 537,970 536,969 536,968 535,967 534,966 533,966 532,965 531,964 530,963 529,962 528,961 527,960 526,960 525,959 524,959 523,959 522,959 521,958 520,958 519,958 518,957 517,957 516,957 515,957 514,957 513,956 512,956 511,956 510,956 509,956 508,956 507,956 506,956 505,956 504,956 503,956 502,956 501,956 500,956 499,956 498,956 497,956 496,956 495,956 494,956 493,956 492,956 491,956">
      <metadata tailDirection="" confidence="0.87" linkedToCharacter="" id="TetsuSan_068_balloon_3" tailTip=""></metadata>
    </polygon>
    <polygon points="682,863 682,864 681,865 681,866 681,867 680,868 680,869 680,870 680,871 679,872 679,873 679,874 679,875 679,876 679,877 678,878 678,879 678,880 678,881 678,882 678,883 678,884 678,885 678,886 678,887 677,888 677,889 677,890 678,891 677,892 677,893 677,894 677,895 677,896 677,897 677,898 677,899 677,900 677,901 677,902 677,903 677,904 677,905 677,906 677,907 677,908 677,909 677,910 677,911 676,912 675,912 674,912 675,912 676,913 677,914 678,915 677,916 677,917 677,918 677,919 676,920 676,921 676,922 676,923 676,924 675,925 675,926 675,927 675,928 675,929 675,930 675,931 675,932 675,933 675,934 675,935 675,936 675,937 675,938 675,939 675,940 675,941 674,942 674,943 674,944 674,945 674,946 674,947 674,948 674,949 674,950 674,951 674,952 674,953 674,954 674,955 674,956 674,957 674,958 674,959 674,960 674,961 674,962 674,963 674,964 674,965 674,966 674,967 674,968 674,969 674,970 674,971 674,972 674,973 674,974 674,975 674,976 675,977 675,978 675,979 675,980 675,981 675,982 675,983 675,984 676,985 676,986 676,987 676,988 676,989 676,990 677,991 677,992 677,993 677,994 678,995 678,996 678,997 679,998 679,999 679,1000 679,1001 680,1002 680,1003 680,1004 680,1005 681,1006 681,1007 682,1008 682,1009 682,1010 682,1011 683,1012 683,1013 684,1014 684,1015 684,1016 685,1017 685,1018 686,1019 686,1020 686,1021 687,1022 688,1023 688,1024 688,1025 689,1026 689,1027 690,1028 691,1029 691,1030 692,1031 693,1032 694,1033 695,1034 696,1035 697,1036 698,1037 699,1038 700,1038 701,1039 702,1039 703,1040 704,1040 705,1041 706,1041 707,1042 708,1042 709,1042 710,1042 711,1043 712,1043 713,1043 714,1043 715,1043 716,1043 717,1044 718,1044 719,1044 720,1044 721,1044 722,1044 723,1044 724,1044 725,1044 726,1043 727,1043 728,1043 729,1043 730,1042 731,1042 732,1042 733,1041 734,1041 734,1040 734,1039 734,1038 734,1037 734,1036 734,1035 734,1034 734,1033 734,1032 734,1031 734,1030 734,1029 734,1028 734,1027 734,1026 734,1025 734,1024 734,1023 734,1022 734,1021 734,1020 734,1019 734,1018 734,1017 734,1016 734,1015 734,1014 734,1013 734,1012 734,1011 734,1010 734,1009 734,1008 734,1007 734,1006 734,1005 734,1004 734,1003 734,1002 734,1001 734,1000 734,999 734,998 734,997 734,996 734,995 734,994 734,993 734,992 734,991 734,990 734,989 734,988 734,987 734,986 734,985 734,984 734,983 734,982 734,981 734,980 734,979 734,978 734,977 734,976 734,975 734,974 734,973 734,972 734,971 734,970 734,969 734,968 734,967 734,966 734,965 734,964 734,963 734,962 734,961 734,960 734,959 734,958 734,957 734,956 734,955 734,954 734,953 734,952 734,951 734,950 734,949 734,948 734,947 734,946 734,945 734,944 734,943 734,942 734,941 734,940 734,939 734,938 734,937 734,936 734,935 734,934 734,933 734,932 734,931 734,930 734,929 734,928 734,927 734,926 734,925 734,924 734,923 734,922 734,921 734,920 734,919 734,918 734,917 734,916 734,915 734,914 734,913 734,912 734,911 734,910 734,909 734,908 734,907 734,906 734,905 734,904 734,903 734,902 734,901 734,900 734,899 734,898 734,897 734,896 734,895 734,894 734,893 734,892 734,891 734,890 734,889 734,888 734,887 734,886 734,885 734,884 734,883 734,882 734,881 734,880 734,879 734,878 734,877 734,876 734,875 734,874 734,873 734,872 734,871 734,870 734,869 734,868 734,867 734,866 734,865 734,864 733,864 732,864 731,864 730,864 729,864 728,864 727,864 726,864 725,864 724,864 723,864 722,864 721,864 720,864 719,864 718,864 717,864 716,864 715,864 714,864 713,864 712,864 711,864 710,864 709,864 708,864 707,864 706,864 705,864 704,864 703,864 702,864 701,863 700,864 699,864 698,863 697,864 696,864 695,863 694,863 693,863 692,863 691,863 690,863 689,863 688,863 687,863 686,863 685,863 684,863 683,863 682,863">
      <metadata tailDirection="" confidence="0.96" linkedToCharacter="" id="TetsuSan_068_balloon_4" tailTip=""></metadata>
    </polygon>
    <polygon points="415,863 415,864 415,865 415,866 415,867 415,868 415,869 415,870 415,871 415,872 415,873 415,874 415,875 415,876 415,877 415,878 415,879 415,880 415,881 415,882 415,883 415,884 415,885 415,886 415,887 415,888 415,889 415,890 415,891 415,892 415,893 415,894 415,895 415,896 415,897 415,898 415,899 415,900 415,901 415,902 415,903 415,904 415,905 415,906 415,907 415,908 415,909 415,910 415,911 415,912 415,913 415,914 415,915 415,916 415,917 415,918 415,919 415,920 415,921 415,922 415,923 415,924 415,925 415,926 415,927 415,928 415,929 414,930 415,931 415,932 415,933 415,934 415,935 415,936 415,937 415,938 415,939 415,940 415,941 415,942 415,943 415,944 415,945 415,946 415,947 415,948 415,949 415,950 415,951 415,952 415,953 415,954 415,955 415,956 415,957 415,958 415,959 415,960 415,961 415,962 415,963 415,964 415,965 415,966 415,967 415,968 415,969 415,970 415,971 415,972 414,973 415,974 415,975 415,976 415,977 415,978 415,979 415,980 415,981 415,982 415,983 415,984 415,985 415,986 415,987 415,988 415,989 415,990 415,991 415,992 415,993 415,994 415,995 415,996 415,997 415,998 415,999 415,1000 415,1001 415,1002 415,1003 415,1004 415,1005 415,1006 415,1007 415,1008 415,1009 415,1010 415,1011 415,1012 415,1013 415,1014 415,1015 415,1016 415,1017 415,1018 415,1019 415,1020 415,1021 415,1022 415,1023 415,1024 415,1025 415,1026 415,1027 415,1028 415,1029 415,1030 415,1031 415,1032 415,1033 415,1034 415,1035 415,1036 415,1037 415,1038 415,1039 415,1040 415,1041 415,1042 415,1043 415,1044 415,1045 415,1046 415,1047 415,1048 415,1049 415,1050 415,1051 415,1052 415,1053 415,1054 415,1055 415,1056 415,1057 415,1058 415,1059 415,1060 415,1061 415,1062 415,1063 415,1064 415,1065 415,1066 415,1067 415,1068 415,1069 415,1070 415,1071 415,1072 415,1073 415,1074 415,1075 415,1076 415,1077 415,1078 415,1079 415,1080 415,1081 415,1082 415,1083 415,1084 415,1085 415,1086 415,1087 415,1088 415,1089 415,1090 415,1091 415,1092 415,1093 415,1094 416,1094 417,1094 418,1094 419,1094 420,1094 421,1094 422,1094 423,1094 424,1094 425,1094 426,1094 427,1094 428,1094 429,1094 430,1094 431,1094 432,1094 433,1094 434,1094 435,1094 436,1095 437,1095 438,1095 439,1095 440,1095 441,1095 442,1095 443,1095 444,1095 445,1095 446,1095 447,1095 448,1095 449,1095 450,1095 451,1095 452,1095 453,1095 454,1095 455,1095 456,1095 457,1095 458,1095 459,1095 460,1095 461,1095 462,1095 463,1095 463,1094 463,1093 463,1092 463,1091 463,1090 463,1089 463,1088 463,1087 463,1086 463,1085 463,1084 463,1083 463,1082 463,1081 463,1080 463,1079 463,1078 463,1077 463,1076 463,1075 463,1074 463,1073 463,1072 463,1071 463,1070 463,1069 463,1068 463,1067 463,1066 463,1065 463,1064 463,1063 463,1062 463,1061 463,1060 462,1059 462,1058 462,1057 462,1056 462,1055 462,1054 462,1053 462,1052 462,1051 462,1050 462,1049 463,1048 463,1047 463,1046 463,1045 463,1044 463,1043 463,1042 463,1041 463,1040 462,1039 462,1038 463,1037 463,1036 463,1035 463,1034 463,1033 463,1032 463,1031 463,1030 463,1029 463,1028 463,1027 463,1026 463,1025 463,1024 463,1023 463,1022 463,1021 463,1020 463,1019 463,1018 463,1017 463,1016 463,1015 463,1014 463,1013 463,1012 463,1011 463,1010 463,1009 463,1008 463,1007 463,1006 463,1005 463,1004 463,1003 463,1002 463,1001 463,1000 463,999 462,998 463,997 463,996 463,995 463,994 463,993 463,992 463,991 463,990 463,989 463,988 463,987 462,986 462,985 462,984 462,983 462,982 462,981 462,980 462,979 462,978 462,977 462,976 463,975 463,974 463,973 463,972 463,971 463,970 463,969 462,968 462,967 462,966 462,965 462,964 462,963 462,962 462,961 462,960 462,959 462,958 462,957 462,956 462,955 462,954 462,953 462,952 462,951 462,950 462,949 462,948 462,947 462,946 462,945 462,944 462,943 462,942 462,941 462,940 462,939 462,938 462,937 462,936 462,935 462,934 462,933 462,932 462,931 462,930 462,929 462,928 462,927 462,926 462,925 462,924 462,923 462,922 462,921 462,920 462,919 462,918 462,917 462,916 462,915 462,914 462,913 462,912 462,911 462,910 462,909 462,908 462,907 462,906 462,905 462,904 462,903 462,902 462,901 462,900 462,899 462,898 462,897 462,896 462,895 462,894 462,893 462,892 462,891 462,890 462,889 462,888 462,887 462,886 462,885 462,884 462,883 462,882 462,881 462,880 462,879 462,878 462,877 462,876 462,875 462,874 462,873 462,872 462,871 462,870 462,869 462,868 462,867 462,866 462,865 462,864 462,863 461,863 460,863 459,863 458,863 457,863 456,863 455,863 454,863 453,863 452,863 451,863 450,863 449,863 448,863 447,863 446,863 445,863 444,863 443,863 442,863 441,863 440,863 439,863 438,863 437,863 436,863 435,863 434,863 433,863 432,863 431,863 430,863 429,863 428,863 427,863 426,863 425,863 424,863 423,863 422,863 421,863 420,863 419,863 418,863 417,863 416,863 415,863">
      <metadata tailDirection="" confidence="0.95" linkedToCharacter="" id="TetsuSan_068_balloon_5" tailTip=""></metadata>
    </polygon>
    <polygon points="675,618 675,619 675,620 675,621 674,622 674,623 674,624 674,625 674,626 674,627 674,628 674,629 674,630 673,631 673,632 673,633 673,634 673,635 673,636 672,637 672,638 672,639 672,640 672,641 672,642 672,643 672,644 672,645 672,646 671,647 671,648 672,649 672,650 671,651 671,652 671,653 671,654 671,655 671,656 671,657 671,658 671,659 671,660 671,661 670,662 670,663 670,664 670,665 670,666 670,667 670,668 670,669 670,670 670,671 670,672 670,673 670,674 670,675 670,676 670,677 669,678 669,679 669,680 669,681 670,682 670,683 670,684 670,685 669,686 669,687 669,688 669,689 669,690 669,691 669,692 669,693 669,694 669,695 669,696 669,697 669,698 669,699 669,700 669,701 669,702 669,703 669,704 668,705 668,706 668,707 668,708 668,709 668,710 668,711 668,712 668,713 668,714 668,715 668,716 668,717 668,718 668,719 668,720 668,721 668,722 668,723 668,724 668,725 668,726 668,727 668,728 667,729 667,730 667,731 667,732 668,733 668,734 668,735 668,736 667,737 668,738 668,739 668,740 667,741 668,742 668,743 668,744 668,745 668,746 668,747 668,748 668,749 668,750 668,751 668,752 668,753 668,754 668,755 668,756 668,757 668,758 668,759 668,760 668,761 668,762 668,763 668,764 668,765 669,766 669,767 669,768 669,769 669,770 669,771 669,772 669,773 669,774 669,775 670,776 670,777 670,778 670,779 670,780 670,781 670,782 670,783 670,784 671,785 671,786 671,787 671,788 671,789 671,790 672,791 672,792 672,793 672,794 672,795 672,796 673,797 673,798 673,799 674,800 674,801 673,802 673,803 672,804 673,804 674,804 675,803 676,803 677,804 677,805 677,806 678,807 679,808 679,809 680,810 681,811 682,812 683,812 684,813 685,814 686,815 687,815 688,816 689,816 690,817 691,817 692,818 693,818 694,819 695,819 696,819 697,819 698,820 699,820 700,820 701,821 702,821 703,821 704,822 705,822 706,822 707,822 708,822 709,823 710,823 711,823 712,823 713,823 714,823 715,823 716,823 717,823 718,823 719,823 720,823 721,822 722,822 723,822 724,822 725,821 726,821 727,820 728,820 729,820 730,819 731,819 732,818 733,817 734,816 734,815 734,814 734,813 734,812 734,811 734,810 734,809 734,808 734,807 734,806 734,805 734,804 734,803 734,802 734,801 734,800 734,799 734,798 734,797 734,796 734,795 734,794 734,793 734,792 734,791 734,790 734,789 734,788 734,787 734,786 734,785 734,784 734,783 734,782 734,781 734,780 734,779 734,778 734,777 734,776 734,775 734,774 734,773 734,772 734,771 734,770 734,769 734,768 734,767 734,766 734,765 734,764 734,763 734,762 734,761 734,760 734,759 734,758 734,757 734,756 734,755 734,754 734,753 734,752 734,751 734,750 734,749 734,748 734,747 734,746 734,745 734,744 734,743 734,742 734,741 734,740 734,739 734,738 734,737 734,736 734,735 734,734 734,733 734,732 734,731 734,730 734,729 734,728 734,727 734,726 734,725 734,724 734,723 734,722 734,721 734,720 734,719 734,718 734,717 734,716 734,715 734,714 734,713 734,712 734,711 734,710 734,709 734,708 734,707 734,706 734,705 734,704 734,703 734,702 734,701 734,700 734,699 734,698 734,697 734,696 734,695 734,694 734,693 734,692 734,691 734,690 734,689 734,688 734,687 734,686 734,685 734,684 734,683 734,682 734,681 734,680 734,679 734,678 734,677 734,676 734,675 734,674 734,673 734,672 734,671 734,670 734,669 734,668 734,667 734,666 734,665 734,664 734,663 734,662 734,661 734,660 734,659 734,658 734,657 734,656 734,655 734,654 734,653 734,652 734,651 734,650 734,649 734,648 734,647 734,646 734,645 734,644 734,643 734,642 734,641 734,640 734,639 734,638 734,637 734,636 734,635 734,634 734,633 734,632 734,631 734,630 734,629 734,628 734,627 734,626 734,625 734,624 734,623 734,622 734,621 734,620 734,619 734,618 733,618 732,618 731,618 730,618 729,618 728,618 727,618 726,618 725,618 724,618 723,618 722,618 721,618 720,618 719,618 718,618 717,618 716,618 715,618 714,618 713,618 712,618 711,618 710,618 709,618 708,618 707,618 706,618 705,618 704,618 703,618 702,618 701,618 700,618 699,618 698,618 697,618 696,618 695,618 694,618 693,618 692,618 691,618 690,618 689,618 688,618 687,618 686,618 685,618 684,618 683,618 682,618 681,618 680,618 679,618 678,618 677,618 676,618 675,618">
      <metadata tailDirection="" confidence="0.88" linkedToCharacter="" id="TetsuSan_068_balloon_6" tailTip=""></metadata>
    </polygon>
    <polygon points="415,617 415,618 415,619 415,620 415,621 415,622 415,623 415,624 415,625 415,626 415,627 415,628 415,629 415,630 415,631 415,632 415,633 415,634 415,635 415,636 415,637 415,638 415,639 415,640 415,641 415,642 415,643 415,644 415,645 415,646 415,647 415,648 415,649 415,650 415,651 415,652 415,653 415,654 415,655 415,656 415,657 415,658 415,659 415,660 415,661 415,662 415,663 415,664 415,665 415,666 414,667 414,668 414,669 414,670 414,671 414,672 414,673 414,674 414,675 414,676 414,677 414,678 414,679 414,680 414,681 414,682 414,683 414,684 414,685 414,686 414,687 414,688 414,689 414,690 414,691 414,692 414,693 414,694 414,695 414,696 414,697 414,698 414,699 414,700 414,701 414,702 414,703 414,704 414,705 414,706 415,707 415,708 415,709 415,710 414,711 414,712 414,713 414,714 414,715 414,716 414,717 414,718 414,719 414,720 414,721 414,722 414,723 414,724 415,725 414,726 414,727 414,728 414,729 414,730 414,731 414,732 414,733 414,734 415,735 415,736 414,737 414,738 414,739 414,740 414,741 414,742 414,743 414,744 414,745 414,746 414,747 414,748 414,749 414,750 414,751 414,752 414,753 414,754 414,755 414,756 414,757 414,758 414,759 414,760 414,761 414,762 415,763 415,764 414,765 414,766 414,767 414,768 414,769 414,770 414,771 415,772 414,773 414,774 414,775 414,776 414,777 414,778 414,779 414,780 414,781 414,782 414,783 414,784 414,785 414,786 415,787 414,788 414,789 414,790 414,791 415,792 415,793 415,794 415,795 416,796 417,796 418,796 419,797 420,797 421,797 422,798 423,798 424,798 425,798 426,799 427,799 428,799 429,800 430,800 431,800 432,800 433,800 434,800 435,800 436,800 437,800 438,800 439,801 440,801 441,801 442,800 443,800 444,800 445,800 446,800 447,800 448,800 449,799 450,799 451,799 452,798 453,798 454,797 455,797 456,796 457,796 458,795 459,794 460,794 461,794 462,793 463,793 464,793 465,792 466,792 467,791 468,790 469,789 470,788 471,787 472,786 472,785 473,784 474,783 474,782 475,781 475,780 476,779 476,778 477,777 477,776 478,775 478,774 478,773 479,772 480,771 480,770 480,769 480,768 481,767 481,766 481,765 482,764 482,763 482,762 483,761 483,760 483,759 483,758 483,757 484,756 484,755 484,754 484,753 484,752 484,751 484,750 484,749 484,748 485,747 485,746 485,745 485,744 485,743 485,742 485,741 485,740 485,739 485,738 486,737 486,736 486,735 486,734 486,733 486,732 486,731 486,730 486,729 486,728 486,727 486,726 486,725 486,724 486,723 486,722 486,721 486,720 486,719 486,718 486,717 486,716 486,715 486,714 486,713 486,712 486,711 486,710 485,709 485,708 485,707 485,706 485,705 485,704 485,703 485,702 485,701 485,700 485,699 485,698 485,697 485,696 485,695 485,694 484,693 484,692 484,691 484,690 484,689 484,688 484,687 484,686 484,685 484,684 483,683 483,682 483,681 483,680 483,679 483,678 483,677 483,676 483,675 483,674 483,673 483,672 482,671 482,670 482,669 482,668 482,667 482,666 482,665 482,664 482,663 482,662 482,661 482,660 482,659 482,658 481,657 481,656 481,655 481,654 481,653 481,652 481,651 480,650 480,649 480,648 480,647 480,646 480,645 479,644 479,643 479,642 479,641 479,640 478,639 478,638 478,637 478,636 478,635 478,634 478,633 478,632 477,631 477,630 477,629 476,628 476,627 476,626 476,625 475,624 475,623 475,622 475,621 474,620 474,619 474,618 473,617 472,617 471,617 470,617 469,617 468,617 467,617 466,617 465,617 464,617 463,617 462,617 461,617 460,617 459,617 458,617 457,617 456,617 455,617 454,617 453,617 452,617 451,617 450,617 449,617 448,617 447,617 446,617 445,617 444,617 443,617 442,617 441,617 440,617 439,617 438,617 437,617 436,617 435,617 434,617 433,617 432,617 431,617 430,617 429,617 428,617 427,617 426,617 425,617 424,617 423,617 422,617 421,617 420,617 419,617 418,617 417,617 416,617 415,617">
      <metadata tailDirection="" confidence="0.96" linkedToCharacter="" id="TetsuSan_068_balloon_7" tailTip=""></metadata>
    </polygon>
    <polygon points="323,617 323,618 323,619 322,620 322,621 322,622 322,623 321,624 321,625 321,626 321,627 321,628 321,629 321,630 321,631 321,632 321,633 320,634 320,635 320,636 319,637 319,638 319,639 319,640 319,641 319,642 319,643 319,644 319,645 319,646 319,647 318,648 318,649 318,650 318,651 318,652 318,653 318,654 318,655 317,656 317,657 317,658 317,659 317,660 317,661 317,662 317,663 317,664 317,665 317,666 316,667 316,668 316,669 316,670 316,671 316,672 316,673 316,674 316,675 316,676 316,677 316,678 316,679 316,680 316,681 316,682 316,683 316,684 316,685 316,686 316,687 316,688 316,689 316,690 315,691 315,692 315,693 315,694 315,695 315,696 315,697 315,698 316,699 316,700 316,701 315,702 315,703 315,704 315,705 315,706 315,707 315,708 315,709 315,710 315,711 314,712 314,713 314,714 314,715 314,716 314,717 314,718 314,719 314,720 314,721 314,722 314,723 314,724 314,725 314,726 314,727 315,728 315,729 315,730 315,731 315,732 315,733 315,734 315,735 315,736 316,737 316,738 316,739 316,740 316,741 316,742 317,743 317,744 317,745 317,746 317,747 317,748 317,749 317,750 317,751 317,752 317,753 316,754 316,755 316,756 316,757 316,758 315,759 315,760 315,761 315,762 315,763 315,764 315,765 315,766 315,767 315,768 315,769 314,770 314,771 314,772 314,773 314,774 315,775 315,776 314,777 314,778 314,779 314,780 314,781 314,782 314,783 314,784 315,785 315,786 315,787 315,788 315,789 315,790 315,791 315,792 315,793 315,794 315,795 315,796 315,797 315,798 315,799 315,800 316,801 316,802 316,803 316,804 316,805 316,806 316,807 317,808 317,809 317,810 317,811 317,812 318,813 318,814 318,815 318,816 319,817 319,818 319,819 320,820 320,821 320,822 320,823 321,824 321,825 321,826 322,827 322,828 322,829 323,830 323,831 323,832 324,833 324,834 324,835 325,836 325,837 326,838 326,839 327,840 327,841 328,842 328,843 329,844 329,845 330,846 331,847 332,846 333,846 334,846 335,846 336,846 337,846 338,846 339,846 340,846 341,846 342,846 343,846 344,846 345,846 346,846 347,846 348,846 349,846 350,846 351,846 352,846 353,846 354,846 355,846 356,846 357,846 358,846 359,846 360,846 361,846 362,846 363,846 364,846 365,846 366,846 367,846 368,846 369,846 370,846 371,846 372,846 373,846 374,846 375,846 375,845 375,844 375,843 375,842 375,841 375,840 375,839 375,838 375,837 375,836 375,835 375,834 375,833 375,832 375,831 375,830 375,829 375,828 375,827 375,826 375,825 375,824 375,823 375,822 375,821 375,820 375,819 375,818 375,817 375,816 375,815 375,814 375,813 375,812 374,811 375,810 375,809 374,808 374,807 375,806 375,805 375,804 375,803 375,802 375,801 374,800 375,799 375,798 375,797 375,796 375,795 375,794 375,793 375,792 375,791 375,790 375,789 375,788 375,787 375,786 375,785 375,784 374,783 375,782 375,781 374,780 374,779 375,778 375,777 374,776 375,775 375,774 375,773 375,772 375,771 375,770 374,769 374,768 375,767 374,766 374,765 374,764 375,763 375,762 375,761 375,760 375,759 374,758 374,757 374,756 374,755 374,754 374,753 374,752 375,751 375,750 375,749 375,748 375,747 375,746 375,745 375,744 375,743 375,742 375,741 375,740 374,739 375,738 375,737 375,736 375,735 375,734 375,733 375,732 375,731 375,730 375,729 374,728 374,727 375,726 375,725 375,724 375,723 374,722 374,721 374,720 374,719 374,718 375,717 375,716 375,715 375,714 375,713 375,712 374,711 374,710 374,709 374,708 374,707 374,706 374,705 374,704 374,703 374,702 374,701 374,700 374,699 374,698 374,697 374,696 374,695 375,694 375,693 375,692 375,691 375,690 375,689 375,688 375,687 375,686 375,685 375,684 375,683 375,682 375,681 375,680 375,679 375,678 375,677 374,676 374,675 375,674 375,673 375,672 374,671 374,670 374,669 374,668 374,667 374,666 374,665 374,664 374,663 374,662 374,661 374,660 374,659 374,658 374,657 374,656 374,655 374,654 375,653 374,652 374,651 374,650 374,649 374,648 374,647 375,646 375,645 375,644 375,643 375,642 375,641 375,640 375,639 375,638 375,637 375,636 375,635 375,634 375,633 375,632 374,631 374,630 374,629 374,628 374,627 374,626 374,625 374,624 374,623 374,622 374,621 374,620 374,619 374,618 374,617 373,617 372,617 371,617 370,617 369,617 368,617 367,617 366,617 365,617 364,617 363,617 362,617 361,617 360,617 359,617 358,617 357,617 356,617 355,617 354,617 353,617 352,617 351,617 350,617 349,617 348,617 347,617 346,617 345,617 344,617 343,617 342,617 341,617 340,617 339,617 338,617 337,617 336,617 335,617 334,617 333,617 332,617 331,617 330,617 329,617 328,617 327,617 326,617 325,617 324,617 323,617">
      <metadata tailDirection="" confidence="0.93" linkedToCharacter="" id="TetsuSan_068_balloon_8" tailTip=""></metadata>
    </polygon>
    <polygon points="57,616 57,617 57,618 57,619 57,620 57,621 57,622 57,623 57,624 58,625 57,626 57,627 57,628 57,629 57,630 57,631 57,632 57,633 57,634 57,635 57,636 57,637 57,638 57,639 57,640 57,641 57,642 57,643 57,644 57,645 57,646 57,647 57,648 57,649 57,650 57,651 57,652 57,653 57,654 57,655 57,656 57,657 57,658 57,659 57,660 57,661 57,662 57,663 57,664 57,665 57,666 57,667 57,668 57,669 57,670 57,671 57,672 57,673 57,674 57,675 57,676 57,677 57,678 57,679 57,680 57,681 57,682 57,683 57,684 57,685 57,686 57,687 57,688 57,689 57,690 57,691 57,692 57,693 57,694 57,695 57,696 57,697 57,698 57,699 57,700 57,701 57,702 57,703 57,704 57,705 57,706 57,707 57,708 57,709 57,710 57,711 57,712 57,713 57,714 57,715 57,716 57,717 57,718 57,719 57,720 57,721 57,722 57,723 57,724 57,725 57,726 57,727 57,728 57,729 57,730 57,731 57,732 57,733 57,734 57,735 57,736 57,737 57,738 57,739 57,740 57,741 57,742 57,743 57,744 57,745 57,746 57,747 57,748 57,749 57,750 57,751 57,752 57,753 57,754 57,755 57,756 57,757 57,758 57,759 57,760 57,761 57,762 57,763 57,764 57,765 57,766 57,767 57,768 57,769 57,770 57,771 57,772 57,773 57,774 57,775 58,776 59,776 60,777 61,778 62,779 63,780 64,780 65,780 66,781 67,781 68,782 69,782 70,782 71,783 72,783 73,783 74,783 75,783 76,783 77,783 78,783 79,783 80,783 81,783 82,783 83,783 84,783 85,783 86,783 87,783 88,782 89,782 90,782 91,781 92,781 93,781 94,780 95,780 96,779 97,779 98,778 99,778 100,777 101,777 102,776 103,775 104,774 105,774 106,773 106,772 107,771 108,770 109,769 109,768 110,767 111,766 111,765 112,764 112,763 113,762 113,761 113,760 114,759 114,758 115,757 115,756 115,755 116,754 116,753 116,752 116,751 117,750 117,749 117,748 118,747 118,746 118,745 118,744 118,743 118,742 118,741 118,740 118,739 118,738 118,737 117,736 117,735 118,734 119,734 120,735 121,735 122,735 121,734 120,734 119,734 118,733 118,732 117,731 118,730 118,729 118,728 119,727 119,726 119,725 119,724 119,723 119,722 119,721 119,720 119,719 119,718 119,717 119,716 119,715 119,714 120,713 120,712 120,711 120,710 120,709 120,708 120,707 120,706 120,705 120,704 120,703 120,702 120,701 120,700 120,699 120,698 120,697 120,696 120,695 120,694 120,693 120,692 120,691 120,690 120,689 120,688 120,687 120,686 120,685 120,684 120,683 120,682 120,681 120,680 120,679 120,678 120,677 120,676 120,675 120,674 119,673 119,672 119,671 119,670 119,669 119,668 119,667 119,666 119,665 119,664 119,663 119,662 119,661 118,660 118,659 118,658 118,657 118,656 118,655 118,654 118,653 118,652 118,651 117,650 117,649 117,648 117,647 117,646 116,645 116,644 116,643 116,642 116,641 115,640 115,639 115,638 115,637 114,636 114,635 114,634 114,633 114,632 114,631 114,630 113,629 113,628 113,627 113,626 113,625 113,624 112,623 112,622 112,621 111,620 111,619 111,618 110,617 110,616 109,616 108,616 107,616 106,616 105,616 104,616 103,616 102,616 101,616 100,616 99,616 98,616 97,616 96,616 95,616 94,616 93,616 92,616 91,616 90,616 89,616 88,616 87,616 86,616 85,616 84,616 83,616 82,616 81,616 80,616 79,616 78,616 77,616 76,616 75,616 74,616 73,616 72,616 71,616 70,616 69,616 68,616 67,616 66,616 65,616 64,616 63,616 62,616 61,616 60,616 59,616 58,616 57,616">
      <metadata tailDirection="" confidence="0.99" linkedToCharacter="" id="TetsuSan_068_balloon_9" tailTip=""></metadata>
    </polygon>
    <polygon points="676,375 676,376 676,377 676,378 676,379 676,380 676,381 676,382 676,383 676,384 676,385 676,386 676,387 676,388 676,389 676,390 676,391 676,392 676,393 676,394 676,395 676,396 676,397 676,398 676,399 676,400 676,401 676,402 676,403 676,404 676,405 676,406 676,407 676,408 676,409 676,410 676,411 676,412 676,413 676,414 676,415 676,416 676,417 676,418 676,419 676,420 676,421 676,422 676,423 676,424 676,425 676,426 676,427 676,428 676,429 676,430 676,431 676,432 676,433 676,434 676,435 676,436 676,437 676,438 676,439 676,440 676,441 676,442 676,443 676,444 676,445 676,446 676,447 676,448 676,449 676,450 676,451 676,452 676,453 676,454 676,455 676,456 676,457 676,458 676,459 676,460 676,461 676,462 676,463 676,464 676,465 676,466 676,467 676,468 676,469 676,470 676,471 676,472 676,473 676,474 676,475 676,476 676,477 676,478 676,479 676,480 676,481 676,482 676,483 676,484 676,485 676,486 676,487 676,488 676,489 676,490 676,491 676,492 676,493 676,494 676,495 676,496 676,497 676,498 676,499 676,500 676,501 676,502 676,503 676,504 676,505 676,506 676,507 676,508 676,509 676,510 676,511 677,512 676,513 676,514 676,515 676,516 676,517 676,518 676,519 676,520 676,521 676,522 677,523 677,524 677,525 677,526 676,527 677,528 677,529 677,530 677,531 677,532 677,533 677,534 677,535 677,536 677,537 677,538 677,539 677,540 677,541 677,542 677,543 677,544 677,545 677,546 677,547 677,548 677,549 677,550 677,551 677,552 677,553 677,554 677,555 677,556 677,557 677,558 677,559 677,560 677,561 677,562 677,563 677,564 677,565 677,566 677,567 677,568 677,569 677,570 677,571 677,572 677,573 677,574 677,575 677,576 677,577 677,578 677,579 677,580 677,581 677,582 677,583 676,584 677,585 677,586 676,587 676,588 676,589 676,590 676,591 676,592 676,593 676,594 676,595 676,596 676,597 676,598 676,599 677,600 677,601 678,601 679,601 680,601 681,601 682,601 683,601 684,601 685,601 686,601 687,601 688,601 689,601 690,601 691,601 692,601 693,601 694,601 695,601 696,601 697,601 698,601 699,601 700,601 701,601 702,601 703,601 704,601 705,601 706,601 707,601 708,601 709,601 710,601 711,601 712,601 713,601 714,601 715,601 716,601 717,601 718,601 719,601 720,601 721,601 722,601 723,601 724,601 725,601 726,601 727,601 728,601 729,601 730,601 731,601 732,601 733,601 734,600 734,599 734,598 734,597 734,596 734,595 734,594 734,593 734,592 734,591 734,590 734,589 734,588 734,587 734,586 734,585 734,584 734,583 734,582 734,581 734,580 734,579 734,578 734,577 734,576 734,575 734,574 734,573 734,572 734,571 734,570 734,569 734,568 734,567 734,566 734,565 734,564 734,563 734,562 734,561 734,560 734,559 734,558 734,557 734,556 734,555 734,554 734,553 734,552 734,551 734,550 734,549 734,548 734,547 734,546 734,545 734,544 734,543 734,542 734,541 734,540 734,539 734,538 734,537 734,536 734,535 734,534 734,533 734,532 734,531 734,530 734,529 734,528 734,527 734,526 734,525 734,524 734,523 734,522 734,521 734,520 734,519 734,518 734,517 734,516 734,515 734,514 734,513 734,512 734,511 734,510 734,509 734,508 734,507 734,506 734,505 734,504 734,503 734,502 734,501 734,500 734,499 734,498 734,497 734,496 734,495 734,494 734,493 734,492 734,491 734,490 734,489 734,488 734,487 734,486 734,485 734,484 734,483 734,482 734,481 734,480 734,479 734,478 734,477 734,476 734,475 734,474 734,473 734,472 734,471 734,470 734,469 734,468 734,467 734,466 734,465 734,464 734,463 734,462 734,461 734,460 734,459 734,458 734,457 734,456 734,455 734,454 734,453 734,452 734,451 734,450 734,449 734,448 734,447 734,446 734,445 734,444 734,443 734,442 734,441 734,440 734,439 734,438 734,437 734,436 734,435 734,434 734,433 734,432 734,431 734,430 734,429 734,428 734,427 734,426 734,425 734,424 734,423 734,422 734,421 734,420 734,419 734,418 734,417 734,416 734,415 734,414 734,413 734,412 734,411 734,410 734,409 734,408 734,407 734,406 734,405 734,404 734,403 734,402 734,401 734,400 734,399 734,398 734,397 734,396 734,395 734,394 734,393 734,392 734,391 734,390 734,389 734,388 734,387 734,386 734,385 734,384 734,383 734,382 734,381 734,380 734,379 734,378 734,377 734,376 734,375 733,375 732,375 731,375 730,375 729,375 728,375 727,375 726,375 725,375 724,375 723,375 722,375 721,375 720,375 719,375 718,375 717,375 716,375 715,375 714,375 713,375 712,375 711,375 710,375 709,375 708,375 707,375 706,375 705,375 704,375 703,375 702,375 701,375 700,375 699,375 698,375 697,375 696,375 695,375 694,375 693,375 692,375 691,375 690,375 689,375 688,375 687,375 686,375 685,375 684,375 683,375 682,375 681,375 680,375 679,375 678,375 677,375 676,375">
      <metadata tailDirection="" confidence="0.97" linkedToCharacter="" id="TetsuSan_068_balloon_10" tailTip=""></metadata>
    </polygon>
    <polygon points="414,375 415,376 415,377 415,378 415,379 415,380 415,381 415,382 415,383 415,384 415,385 415,386 415,387 415,388 415,389 415,390 415,391 415,392 415,393 415,394 415,395 415,396 415,397 415,398 415,399 414,400 414,401 414,402 415,403 415,404 414,405 414,406 414,407 414,408 414,409 414,410 414,411 414,412 414,413 414,414 414,415 414,416 414,417 414,418 414,419 414,420 414,421 414,422 414,423 414,424 414,425 414,426 414,427 414,428 414,429 414,430 414,431 414,432 414,433 414,434 414,435 414,436 414,437 414,438 414,439 414,440 414,441 414,442 414,443 414,444 414,445 414,446 414,447 414,448 414,449 414,450 414,451 414,452 414,453 414,454 414,455 414,456 414,457 414,458 414,459 414,460 414,461 414,462 414,463 414,464 414,465 414,466 414,467 414,468 414,469 414,470 414,471 414,472 414,473 414,474 414,475 414,476 414,477 414,478 414,479 414,480 414,481 414,482 414,483 414,484 414,485 414,486 414,487 414,488 414,489 414,490 414,491 414,492 414,493 414,494 415,495 416,496 417,496 418,496 419,497 420,497 421,497 422,498 423,498 424,498 425,498 426,498 427,499 428,500 428,501 428,502 428,503 428,502 429,501 429,500 430,499 431,499 432,499 433,499 434,499 435,499 436,499 437,499 438,498 439,498 440,498 441,498 442,497 443,497 444,497 445,496 446,496 447,496 448,496 449,495 450,495 451,495 452,494 453,494 454,493 455,493 456,492 457,492 458,491 459,491 460,490 461,490 462,489 463,488 464,488 465,487 466,486 467,485 468,484 469,483 470,482 471,481 472,480 473,479 474,478 474,477 475,476 475,475 476,474 476,473 477,472 477,471 478,470 478,469 478,468 479,467 479,466 480,465 480,464 480,463 480,462 481,461 481,460 481,459 482,458 482,457 482,456 482,455 482,454 482,453 482,452 482,451 482,450 482,449 482,448 482,447 482,446 482,445 482,444 482,443 482,442 482,441 482,440 482,439 482,438 482,437 482,436 482,435 482,434 482,433 482,432 482,431 482,430 482,429 482,428 482,427 481,426 481,425 481,424 481,423 481,422 481,421 481,420 481,419 481,418 481,417 480,416 480,415 480,414 480,413 480,412 480,411 480,410 479,409 479,408 479,407 479,406 479,405 479,404 478,403 478,402 478,401 478,400 477,399 477,398 477,397 477,396 476,395 476,394 476,393 475,392 475,391 475,390 475,389 474,388 474,387 474,386 474,385 473,384 473,383 473,382 472,381 472,380 471,379 471,378 471,377 470,376 470,375 469,375 468,375 467,375 466,375 465,375 464,375 463,375 462,375 461,375 460,375 459,375 458,375 457,375 456,375 455,375 454,375 453,375 452,375 451,375 450,375 449,375 448,375 447,375 446,375 445,375 444,375 443,375 442,375 441,375 440,375 439,375 438,375 437,375 436,375 435,375 434,375 433,375 432,375 431,375 430,375 429,375 428,375 427,375 426,375 425,375 424,375 423,375 422,375 421,375 420,375 419,375 418,375 417,375 416,375 415,375 414,375">
      <metadata tailDirection="" confidence="0.88" linkedToCharacter="" id="TetsuSan_068_balloon_11" tailTip=""></metadata>
    </polygon>
    <polygon points="57,375 57,376 57,377 57,378 57,379 57,380 57,381 57,382 57,383 57,384 57,385 57,386 57,387 57,388 57,389 57,390 57,391 57,392 57,393 57,394 57,395 57,396 57,397 57,398 57,399 56,400 56,401 56,402 56,403 56,404 56,405 56,406 56,407 56,408 56,409 56,410 56,411 56,412 56,413 56,414 56,415 56,416 56,417 56,418 56,419 56,420 56,421 56,422 56,423 56,424 56,425 56,426 56,427 56,428 56,429 56,430 56,431 56,432 56,433 56,434 56,435 56,436 56,437 56,438 56,439 56,440 56,441 56,442 56,443 56,444 56,445 56,446 56,447 56,448 56,449 56,450 56,451 56,452 56,453 56,454 56,455 56,456 56,457 56,458 56,459 56,460 56,461 56,462 56,463 56,464 56,465 56,466 56,467 56,468 56,469 56,470 56,471 56,472 56,473 56,474 56,475 56,476 56,477 56,478 56,479 56,480 56,481 56,482 56,483 56,484 56,485 56,486 56,487 56,488 56,489 56,490 56,491 56,492 56,493 56,494 56,495 56,496 56,497 56,498 56,499 56,500 56,501 56,502 56,503 56,504 56,505 56,506 56,507 56,508 56,509 56,510 56,511 56,512 56,513 56,514 56,515 56,516 56,517 56,518 56,519 56,520 56,521 56,522 56,523 56,524 56,525 56,526 56,527 56,528 56,529 56,530 56,531 56,532 56,533 56,534 56,535 56,536 56,537 56,538 56,539 56,540 56,541 56,542 56,543 56,544 56,545 56,546 56,547 56,548 56,549 56,550 56,551 56,552 56,553 56,554 56,555 56,556 56,557 56,558 56,559 56,560 56,561 56,562 56,563 56,564 56,565 56,566 56,567 56,568 56,569 56,570 56,571 56,572 56,573 56,574 56,575 56,576 56,577 56,578 56,579 56,580 56,581 56,582 56,583 57,584 58,585 58,586 59,586 60,587 61,588 62,588 63,589 64,590 65,590 66,590 67,590 68,590 69,590 70,591 71,591 72,591 73,591 74,591 75,591 76,591 77,591 78,591 79,591 80,590 81,590 82,590 83,590 84,589 85,589 86,589 87,588 88,588 89,587 90,587 91,587 92,586 93,586 94,585 95,585 96,584 97,583 98,582 99,582 100,581 101,580 102,580 103,579 104,578 105,577 106,576 107,575 108,574 109,573 110,572 111,571 112,570 113,569 114,568 114,567 115,566 115,565 116,564 117,563 118,562 118,561 119,560 119,559 120,558 120,557 120,556 121,555 121,554 121,553 122,552 122,551 122,550 122,549 122,548 123,547 123,546 123,545 123,544 123,543 123,542 123,541 123,540 124,539 124,538 124,537 124,536 124,535 124,534 124,533 124,532 124,531 124,530 124,529 124,528 124,527 124,526 124,525 124,524 124,523 124,522 124,521 124,520 124,519 123,518 123,517 123,516 123,515 123,514 123,513 123,512 123,511 123,510 123,509 123,508 123,507 123,506 123,505 123,504 123,503 123,502 123,501 123,500 123,499 123,498 123,497 123,496 123,495 123,494 123,493 123,492 123,491 123,490 123,489 123,488 123,487 123,486 123,485 123,484 123,483 123,482 123,481 123,480 123,479 122,478 122,477 122,476 122,475 122,474 122,473 122,472 122,471 122,470 122,469 122,468 122,467 122,466 122,465 122,464 122,463 122,462 122,461 122,460 122,459 122,458 121,457 121,456 121,455 121,454 121,453 121,452 121,451 121,450 121,449 121,448 121,447 121,446 121,445 120,444 120,443 120,442 120,441 120,440 120,439 120,438 120,437 120,436 120,435 120,434 120,433 120,432 120,431 120,430 119,429 119,428 119,427 119,426 119,425 119,424 119,423 119,422 119,421 119,420 119,419 119,418 119,417 119,416 118,415 118,414 118,413 118,412 118,411 118,410 118,409 118,408 117,407 118,406 119,405 120,405 121,405 122,404 123,404 124,404 125,404 126,404 127,404 128,403 129,403 130,403 131,403 132,403 131,403 130,403 129,403 128,403 127,403 126,403 125,403 124,404 123,404 122,404 121,404 120,404 119,404 118,405 117,405 116,404 116,403 116,402 116,401 116,400 115,399 115,398 115,397 115,396 114,395 114,394 114,393 114,392 113,391 113,390 113,389 112,388 112,387 112,386 111,385 111,384 111,383 110,382 110,381 109,380 109,379 109,378 108,377 108,376 107,375 106,375 105,375 104,375 103,375 102,375 101,375 100,375 99,375 98,375 97,375 96,375 95,375 94,375 93,375 92,375 91,375 90,375 89,375 88,375 87,375 86,375 85,375 84,375 83,375 82,375 81,375 80,375 79,375 78,375 77,375 76,375 75,375 74,375 73,375 72,375 71,375 70,375 69,375 68,375 67,375 66,375 65,375 64,375 63,375 62,375 61,375 60,375 59,375 58,375 57,375">
      <metadata tailDirection="" confidence="0.92" linkedToCharacter="" id="TetsuSan_068_balloon_12" tailTip=""></metadata>
    </polygon>
    <polygon points="343,374 342,375 341,375 340,375 339,375 338,375 337,375 336,375 335,375 334,375 333,375 332,375 331,375 330,375 329,375 328,375 327,375 326,375 325,375 324,375 323,375 322,375 322,376 321,377 321,378 320,379 320,380 320,381 320,382 320,383 320,384 320,385 319,386 319,387 319,388 319,389 319,390 319,391 319,392 319,393 319,394 319,395 318,396 318,397 318,398 318,399 318,400 319,401 318,402 318,403 318,404 318,405 318,406 318,407 317,408 317,409 317,410 317,411 317,412 317,413 317,414 317,415 317,416 317,417 317,418 316,419 316,420 316,421 316,422 316,423 316,424 316,425 316,426 316,427 316,428 316,429 315,430 315,431 315,432 315,433 315,434 315,435 315,436 315,437 315,438 315,439 315,440 315,441 315,442 315,443 315,444 315,445 315,446 315,447 315,448 315,449 315,450 315,451 315,452 315,453 315,454 315,455 315,456 315,457 316,458 316,459 316,460 316,461 316,462 316,463 316,464 316,465 316,466 316,467 316,468 316,469 316,470 316,471 316,472 316,473 316,474 316,475 316,476 316,477 316,478 316,479 316,480 316,481 316,482 316,483 316,484 316,485 316,486 316,487 316,488 316,489 317,490 317,491 316,492 316,493 316,494 316,495 316,496 316,497 316,498 316,499 316,500 316,501 316,502 316,503 316,504 316,505 316,506 316,507 316,508 316,509 316,510 316,511 316,512 316,513 316,514 316,515 316,516 316,517 316,518 316,519 316,520 316,521 315,522 314,522 313,523 312,523 311,523 312,523 313,524 314,523 315,524 315,525 315,526 315,527 316,528 316,529 316,530 316,531 316,532 316,533 316,534 316,535 316,536 316,537 316,538 316,539 317,540 317,541 317,542 317,543 318,544 318,545 318,546 318,547 319,548 319,549 319,550 319,551 319,552 319,553 320,554 320,555 321,556 322,557 323,558 323,559 323,560 324,561 324,562 325,563 326,564 327,565 328,566 328,567 329,568 330,569 331,570 332,571 333,572 334,573 335,573 336,574 337,575 338,575 339,576 340,576 341,576 342,577 343,577 344,577 345,578 346,578 347,578 348,578 349,578 350,579 351,579 352,579 353,579 354,579 355,580 356,580 357,580 358,580 359,580 360,580 361,580 362,580 363,580 364,580 365,580 366,580 367,580 368,579 369,579 370,579 371,578 372,578 373,578 374,577 375,576 375,575 375,574 375,573 375,572 375,571 375,570 375,569 375,568 375,567 375,566 375,565 375,564 375,563 375,562 375,561 375,560 375,559 375,558 375,557 375,556 375,555 375,554 375,553 375,552 375,551 375,550 375,549 375,548 375,547 375,546 375,545 375,544 374,543 374,542 374,541 374,540 374,539 374,538 374,537 374,536 374,535 374,534 374,533 374,532 374,531 374,530 374,529 374,528 374,527 374,526 374,525 374,524 374,523 375,522 375,521 375,520 375,519 375,518 375,517 375,516 375,515 375,514 375,513 375,512 374,511 374,510 375,509 375,508 375,507 375,506 375,505 375,504 375,503 375,502 375,501 375,500 375,499 375,498 375,497 375,496 375,495 374,494 375,493 375,492 375,491 375,490 374,489 375,488 375,487 375,486 374,485 374,484 374,483 374,482 374,481 374,480 374,479 374,478 374,477 374,476 374,475 374,474 375,473 375,472 374,471 374,470 374,469 374,468 374,467 374,466 374,465 374,464 374,463 375,462 375,461 374,460 374,459 375,458 375,457 375,456 374,455 374,454 374,453 374,452 374,451 374,450 374,449 374,448 374,447 374,446 374,445 374,444 374,443 374,442 374,441 374,440 374,439 374,438 374,437 374,436 374,435 374,434 375,433 374,432 374,431 374,430 374,429 374,428 374,427 374,426 374,425 374,424 374,423 374,422 374,421 374,420 374,419 374,418 374,417 374,416 374,415 374,414 374,413 374,412 374,411 374,410 374,409 374,408 374,407 374,406 374,405 374,404 374,403 374,402 374,401 374,400 374,399 374,398 374,397 374,396 374,395 374,394 374,393 374,392 374,391 374,390 374,389 374,388 374,387 374,386 374,385 374,384 374,383 374,382 374,381 374,380 374,379 374,378 374,377 374,376 374,375 373,375 372,375 371,375 370,375 369,375 368,375 367,375 366,375 365,375 364,375 363,375 362,375 361,375 360,375 359,375 358,375 357,375 356,375 355,375 354,375 353,375 352,375 351,375 350,375 349,375 348,375 347,375 346,375 345,375 344,375 343,374">
      <metadata tailDirection="" confidence="0.91" linkedToCharacter="" id="TetsuSan_068_balloon_13" tailTip=""></metadata>
    </polygon>
    <polygon points="624,163 623,164 622,164 621,164 620,164 619,164 618,164 617,164 616,164 615,164 614,165 613,165 612,165 611,165 610,165 609,165 608,165 607,165 606,165 605,165 604,165 603,166 602,165 601,166 600,166 599,166 599,167 599,168 599,169 599,170 599,171 599,172 599,173 599,174 599,175 599,176 599,177 599,178 599,179 599,180 599,181 599,182 599,183 599,184 599,185 599,186 599,187 599,188 599,189 599,190 599,191 599,192 599,193 599,194 598,195 598,196 598,197 598,198 598,199 598,200 598,201 598,202 598,203 598,204 598,205 598,206 598,207 598,208 598,209 598,210 598,211 598,212 598,213 598,214 598,215 598,216 598,217 598,218 598,219 598,220 598,221 598,222 598,223 598,224 598,225 598,226 598,227 598,228 598,229 598,230 597,231 597,232 597,233 597,234 597,235 597,236 597,237 597,238 597,239 597,240 597,241 597,242 597,243 597,244 597,245 597,246 597,247 597,248 597,249 597,250 597,251 597,252 597,253 597,254 597,255 597,256 597,257 597,258 597,259 597,260 596,261 596,262 596,263 597,263 598,263 599,263 600,262 601,263 602,262 603,262 604,262 605,262 606,262 607,262 608,262 609,262 610,262 611,262 612,262 613,262 614,262 615,262 616,262 617,262 618,262 619,262 620,262 621,262 622,261 623,261 624,261 625,261 626,261 627,261 628,261 629,261 630,261 631,261 632,261 633,261 634,261 635,261 636,261 637,261 638,261 639,261 640,261 641,260 641,259 640,258 640,257 640,256 640,255 640,254 640,253 640,252 640,251 640,250 640,249 640,248 640,247 640,246 640,245 639,244 639,243 639,242 639,241 639,240 639,239 639,238 639,237 639,236 639,235 639,234 639,233 639,232 639,231 638,230 638,229 638,228 638,227 638,226 638,225 638,224 638,223 638,222 638,221 638,220 638,219 638,218 638,217 638,216 637,215 637,214 637,213 637,212 637,211 637,210 637,209 637,208 637,207 637,206 637,205 637,204 637,203 636,202 636,201 636,200 636,199 636,198 636,197 636,196 636,195 636,194 636,193 636,192 636,191 636,190 636,189 636,188 636,187 635,186 635,185 635,184 635,183 635,182 635,181 635,180 635,179 635,178 635,177 635,176 635,175 635,174 635,173 635,172 634,171 634,170 634,169 634,168 634,167 634,166 634,165 634,164 634,163 633,163 632,163 631,163 630,163 629,163 628,163 627,163 626,163 625,163 624,163">
      <metadata tailDirection="" confidence="0.99" linkedToCharacter="" id="TetsuSan_068_balloon_14" tailTip=""></metadata>
    </polygon>
    <polygon points="679,126 679,127 679,128 679,129 679,130 679,131 679,132 679,133 679,134 679,135 679,136 679,137 679,138 679,139 679,140 679,141 679,142 678,143 679,144 679,145 679,146 678,147 679,148 679,149 678,150 678,151 678,152 678,153 678,154 678,155 678,156 678,157 678,158 678,159 679,160 679,161 679,162 678,163 678,164 678,165 678,166 678,167 678,168 678,169 678,170 678,171 678,172 678,173 678,174 678,175 678,176 678,177 678,178 678,179 678,180 678,181 678,182 678,183 678,184 678,185 678,186 678,187 678,188 678,189 678,190 678,191 678,192 678,193 678,194 678,195 678,196 678,197 678,198 678,199 678,200 678,201 678,202 678,203 678,204 678,205 678,206 678,207 678,208 678,209 678,210 678,211 678,212 678,213 678,214 678,215 678,216 678,217 678,218 678,219 678,220 678,221 678,222 678,223 678,224 678,225 678,226 678,227 678,228 678,229 678,230 678,231 678,232 678,233 678,234 678,235 678,236 678,237 678,238 678,239 678,240 678,241 678,242 678,243 678,244 678,245 678,246 678,247 678,248 678,249 678,250 678,251 678,252 678,253 678,254 678,255 678,256 678,257 678,258 678,259 678,260 678,261 678,262 678,263 678,264 678,265 678,266 678,267 678,268 678,269 678,270 678,271 678,272 678,273 678,274 678,275 678,276 678,277 678,278 678,279 678,280 678,281 678,282 678,283 678,284 678,285 678,286 678,287 678,288 678,289 678,290 678,291 678,292 678,293 677,294 677,295 678,296 678,297 678,298 677,299 677,300 677,301 677,302 677,303 677,304 677,305 677,306 677,307 677,308 677,309 677,310 677,311 677,312 677,313 677,314 677,315 677,316 677,317 677,318 677,319 677,320 677,321 677,322 677,323 677,324 677,325 677,326 677,327 677,328 677,329 677,330 677,331 677,332 677,333 677,334 677,335 677,336 677,337 677,338 677,339 677,340 677,341 677,342 677,343 677,344 677,345 677,346 677,347 677,348 677,349 677,350 677,351 677,352 677,353 677,354 677,355 677,356 677,357 677,358 677,359 678,359 679,359 680,359 681,359 682,359 683,359 684,359 685,359 686,359 687,359 688,359 689,359 690,359 691,359 692,359 693,359 694,359 695,359 696,359 697,359 698,359 699,359 700,359 701,359 702,359 703,359 704,359 705,359 706,359 707,359 708,359 709,359 710,359 711,359 712,359 713,359 714,359 715,359 716,359 717,359 718,359 719,359 720,359 721,359 722,359 723,359 724,359 725,359 726,359 727,359 728,359 729,359 730,359 731,359 732,359 733,359 734,359 734,358 734,357 734,356 734,355 734,354 734,353 734,352 734,351 734,350 734,349 734,348 734,347 734,346 734,345 734,344 734,343 734,342 734,341 734,340 734,339 734,338 734,337 734,336 734,335 734,334 734,333 734,332 734,331 734,330 734,329 734,328 734,327 734,326 734,325 734,324 734,323 734,322 734,321 734,320 734,319 734,318 734,317 734,316 734,315 734,314 734,313 734,312 734,311 734,310 734,309 734,308 734,307 734,306 734,305 734,304 734,303 734,302 734,301 734,300 734,299 734,298 734,297 734,296 734,295 734,294 734,293 734,292 734,291 734,290 734,289 734,288 734,287 734,286 734,285 734,284 734,283 734,282 734,281 734,280 734,279 734,278 734,277 734,276 734,275 734,274 734,273 734,272 734,271 734,270 734,269 734,268 734,267 734,266 734,265 734,264 734,263 734,262 734,261 734,260 734,259 734,258 734,257 734,256 734,255 734,254 734,253 734,252 734,251 734,250 734,249 734,248 734,247 734,246 734,245 734,244 734,243 734,242 734,241 734,240 734,239 734,238 734,237 734,236 734,235 734,234 734,233 734,232 734,231 734,230 734,229 734,228 734,227 734,226 734,225 734,224 734,223 734,222 734,221 734,220 734,219 734,218 734,217 734,216 734,215 734,214 734,213 734,212 734,211 734,210 734,209 734,208 734,207 734,206 734,205 734,204 734,203 734,202 734,201 734,200 734,199 734,198 734,197 734,196 734,195 734,194 734,193 734,192 734,191 734,190 734,189 734,188 734,187 734,186 734,185 734,184 734,183 734,182 734,181 734,180 734,179 734,178 734,177 734,176 734,175 734,174 734,173 734,172 734,171 734,170 734,169 734,168 734,167 734,166 734,165 734,164 734,163 734,162 734,161 734,160 734,159 734,158 734,157 734,156 734,155 734,154 734,153 734,152 734,151 734,150 734,149 734,148 734,147 734,146 734,145 734,144 734,143 734,142 734,141 734,140 734,139 734,138 734,137 734,136 734,135 734,134 734,133 734,132 734,131 734,130 734,129 734,128 734,127 733,127 732,127 731,127 730,127 729,127 728,127 727,127 726,127 725,127 724,127 723,127 722,127 721,127 720,127 719,127 718,127 717,127 716,127 715,127 714,127 713,127 712,127 711,126 710,126 709,126 708,126 707,126 706,126 705,126 704,126 703,126 702,126 701,126 700,126 699,126 698,126 697,126 696,126 695,126 694,126 693,126 692,126 691,126 690,126 689,126 688,126 687,126 686,126 685,126 684,126 683,126 682,126 681,126 680,126 679,126">
      <metadata tailDirection="" confidence="1.00" linkedToCharacter="" id="TetsuSan_068_balloon_15" tailTip=""></metadata>
    </polygon>
    <polygon points="321,126 320,127 320,128 320,129 320,130 320,131 319,132 319,133 319,134 319,135 319,136 319,137 319,138 319,139 319,140 319,141 319,142 319,143 319,144 319,145 319,146 319,147 319,148 318,149 318,150 318,151 318,152 318,153 318,154 319,155 318,156 318,157 318,158 318,159 318,160 318,161 319,162 319,163 319,164 319,165 319,166 319,167 318,168 318,169 318,170 318,171 318,172 318,173 318,174 318,175 318,176 318,177 318,178 318,179 318,180 318,181 318,182 318,183 318,184 318,185 318,186 318,187 318,188 318,189 318,190 318,191 318,192 318,193 318,194 318,195 318,196 318,197 318,198 318,199 318,200 318,201 318,202 318,203 318,204 318,205 318,206 318,207 318,208 318,209 318,210 317,211 316,211 316,212 316,213 316,214 316,215 315,216 315,217 315,218 315,219 315,220 315,221 314,222 314,223 314,224 314,225 314,226 314,227 314,228 314,229 313,230 313,231 313,232 313,233 313,234 313,235 313,236 313,237 313,238 313,239 313,240 313,241 313,242 313,243 313,244 313,245 313,246 312,247 312,248 312,249 312,250 312,251 312,252 312,253 312,254 312,255 312,256 312,257 312,258 312,259 312,260 312,261 312,262 312,263 312,264 312,265 312,266 312,267 312,268 312,269 312,270 312,271 313,272 313,273 313,274 313,275 313,276 313,277 313,278 313,279 313,280 313,281 313,282 313,283 313,284 313,285 313,286 314,287 314,288 314,289 314,290 314,291 314,292 314,293 315,294 315,295 315,296 315,297 315,298 315,299 315,300 316,301 316,302 316,303 316,304 317,305 317,306 317,307 317,308 317,309 317,310 318,311 318,312 318,313 318,314 318,315 319,316 319,317 319,318 319,319 320,320 320,321 320,322 321,323 321,324 321,325 322,326 322,327 322,328 322,329 323,330 323,331 323,332 324,333 324,334 325,335 325,336 325,337 326,338 326,339 326,340 327,341 327,342 328,343 328,344 329,345 329,346 330,347 330,348 331,349 332,350 332,351 333,352 333,353 334,354 334,355 335,356 336,357 337,358 338,357 339,358 340,358 341,358 342,358 343,358 344,358 345,358 346,358 347,358 348,358 349,358 350,358 351,358 352,358 353,358 354,358 355,358 356,358 357,358 358,358 359,358 360,358 361,358 362,358 363,358 364,358 365,358 366,358 367,358 368,358 369,358 370,358 371,358 372,358 373,358 374,358 374,357 374,356 374,355 374,354 374,353 374,352 374,351 374,350 374,349 374,348 374,347 374,346 374,345 374,344 374,343 374,342 374,341 374,340 374,339 374,338 374,337 374,336 374,335 374,334 374,333 374,332 374,331 374,330 374,329 374,328 374,327 374,326 374,325 374,324 374,323 374,322 374,321 374,320 374,319 374,318 374,317 374,316 374,315 374,314 374,313 374,312 374,311 374,310 374,309 374,308 374,307 374,306 374,305 374,304 374,303 374,302 374,301 374,300 374,299 374,298 374,297 374,296 374,295 374,294 374,293 374,292 374,291 374,290 374,289 374,288 374,287 374,286 374,285 374,284 374,283 374,282 374,281 374,280 374,279 374,278 374,277 374,276 374,275 374,274 374,273 374,272 374,271 374,270 374,269 374,268 374,267 374,266 374,265 374,264 374,263 374,262 374,261 374,260 374,259 374,258 374,257 374,256 374,255 374,254 374,253 374,252 374,251 374,250 374,249 374,248 374,247 374,246 374,245 374,244 374,243 374,242 374,241 374,240 374,239 374,238 374,237 374,236 374,235 374,234 374,233 374,232 374,231 374,230 374,229 374,228 374,227 374,226 374,225 374,224 374,223 374,222 374,221 374,220 374,219 374,218 374,217 374,216 374,215 374,214 374,213 374,212 374,211 374,210 374,209 374,208 374,207 374,206 374,205 374,204 374,203 374,202 374,201 374,200 374,199 374,198 374,197 374,196 374,195 374,194 374,193 374,192 374,191 374,190 374,189 374,188 374,187 374,186 374,185 374,184 374,183 374,182 374,181 374,180 374,179 374,178 374,177 374,176 374,175 374,174 374,173 374,172 374,171 374,170 374,169 374,168 374,167 374,166 374,165 374,164 374,163 374,162 374,161 374,160 374,159 374,158 374,157 374,156 374,155 374,154 374,153 374,152 374,151 374,150 374,149 374,148 374,147 374,146 374,145 374,144 374,143 374,142 374,141 374,140 374,139 374,138 374,137 374,136 374,135 374,134 374,133 374,132 374,131 374,130 374,129 375,128 374,127 374,126 373,126 372,126 371,126 370,127 369,126 368,126 367,126 366,126 365,126 364,126 363,126 362,126 361,126 360,126 359,126 358,126 357,126 356,126 355,126 354,126 353,126 352,126 351,126 350,126 349,126 348,126 347,126 346,126 345,126 344,126 343,126 342,126 341,126 340,126 339,126 338,126 337,126 336,126 335,126 334,126 333,126 332,126 331,126 330,126 329,126 328,126 327,126 326,126 325,126 324,126 323,126 322,126 321,126">
      <metadata tailDirection="" confidence="0.88" linkedToCharacter="" id="TetsuSan_068_balloon_16" tailTip=""></metadata>
    </polygon>
    <polygon points="63,125 62,126 61,126 60,126 59,126 58,126 57,126 57,127 57,128 57,129 57,130 57,131 57,132 57,133 57,134 57,135 57,136 57,137 57,138 57,139 57,140 57,141 57,142 57,143 57,144 57,145 57,146 57,147 57,148 57,149 57,150 57,151 57,152 57,153 57,154 57,155 57,156 57,157 57,158 57,159 57,160 57,161 57,162 57,163 57,164 57,165 57,166 57,167 57,168 57,169 57,170 57,171 57,172 57,173 57,174 57,175 57,176 57,177 57,178 57,179 57,180 57,181 57,182 57,183 57,184 57,185 57,186 57,187 57,188 57,189 57,190 57,191 57,192 57,193 57,194 57,195 57,196 57,197 57,198 57,199 57,200 57,201 57,202 57,203 57,204 57,205 57,206 57,207 57,208 57,209 57,210 57,211 57,212 57,213 57,214 57,215 57,216 57,217 57,218 57,219 57,220 57,221 57,222 57,223 57,224 57,225 57,226 57,227 57,228 57,229 57,230 57,231 57,232 57,233 57,234 56,235 56,236 56,237 56,238 56,239 56,240 56,241 56,242 56,243 56,244 56,245 56,246 56,247 56,248 56,249 56,250 56,251 56,252 56,253 56,254 56,255 56,256 56,257 56,258 56,259 56,260 56,261 56,262 56,263 56,264 56,265 56,266 56,267 56,268 56,269 56,270 56,271 56,272 56,273 56,274 56,275 56,276 56,277 56,278 56,279 56,280 56,281 56,282 56,283 56,284 56,285 56,286 56,287 56,288 56,289 56,290 56,291 56,292 56,293 56,294 56,295 56,296 56,297 56,298 56,299 56,300 56,301 56,302 56,303 56,304 56,305 56,306 56,307 56,308 56,309 56,310 56,311 56,312 56,313 56,314 56,315 56,316 56,317 56,318 56,319 56,320 56,321 56,322 56,323 56,324 56,325 56,326 56,327 56,328 56,329 56,330 56,331 56,332 56,333 56,334 56,335 56,336 56,337 56,338 56,339 56,340 56,341 56,342 56,343 56,344 56,345 56,346 56,347 56,348 57,348 58,349 59,349 60,350 61,350 62,350 63,351 64,351 65,351 66,351 67,351 68,351 69,352 70,352 71,352 72,352 73,352 74,352 75,352 76,352 77,352 78,352 79,352 80,352 81,352 82,352 83,351 84,351 85,351 86,350 87,350 88,350 89,349 90,349 91,348 92,347 93,347 94,346 95,346 96,345 97,344 98,343 99,342 100,342 100,341 101,340 102,339 103,338 104,337 104,336 105,335 106,334 106,333 107,332 107,331 108,330 108,329 109,328 109,327 110,326 110,325 111,324 111,323 112,322 112,321 113,320 113,319 113,318 114,317 114,316 114,315 115,314 115,313 115,312 116,311 116,310 117,309 117,308 117,307 118,306 118,305 119,304 119,303 118,302 118,301 119,300 119,299 119,298 119,297 119,296 119,295 119,294 119,293 119,292 119,291 119,290 119,289 119,288 119,287 119,286 119,285 119,284 119,283 119,282 119,281 119,280 120,279 120,278 120,277 120,276 120,275 120,274 120,273 120,272 120,271 120,270 120,269 120,268 120,267 120,266 120,265 120,264 120,263 120,262 120,261 120,260 120,259 120,258 120,257 120,256 120,255 120,254 120,253 120,252 120,251 120,250 120,249 120,248 120,247 120,246 120,245 120,244 120,243 120,242 120,241 120,240 120,239 120,238 120,237 120,236 120,235 120,234 120,233 120,232 120,231 120,230 120,229 120,228 120,227 120,226 120,225 120,224 120,223 120,222 120,221 120,220 120,219 120,218 120,217 120,216 120,215 120,214 120,213 120,212 119,211 119,210 119,209 119,208 119,207 119,206 119,205 119,204 119,203 119,202 119,201 119,200 119,199 119,198 119,197 119,196 119,195 119,194 119,193 119,192 118,191 118,190 118,189 118,188 118,187 118,186 118,185 118,184 118,183 118,182 118,181 118,180 117,179 117,178 117,177 117,176 117,175 117,174 117,173 117,172 117,171 117,170 116,169 116,168 116,167 116,166 116,165 116,164 115,163 115,162 115,161 115,160 115,159 114,158 114,157 114,156 114,155 114,154 113,153 113,152 113,151 113,150 112,149 112,148 112,147 112,146 112,145 111,144 111,143 111,142 111,141 110,140 110,139 110,138 110,137 110,136 109,135 109,134 108,133 108,132 108,131 107,130 107,129 107,128 106,127 106,126 105,126 104,126 103,126 102,126 101,126 100,125 99,125 98,125 97,125 96,125 95,125 94,125 93,125 92,125 91,125 90,125 89,125 88,125 87,126 86,126 85,125 84,125 83,125 82,125 81,125 80,125 79,126 78,126 77,126 76,126 75,126 74,125 73,125 72,125 71,125 70,125 69,125 68,125 67,125 66,125 65,125 64,125 63,125">
      <metadata tailDirection="" confidence="0.88" linkedToCharacter="" id="TetsuSan_068_balloon_17" tailTip=""></metadata>
    </polygon>
  </svg>
</svg>
