<?xml version="1.0" encoding="UTF-8" standalone="no"?>
<svg width="827" xmlns="http://www.w3.org/2000/svg" version="1.0" height="1170">
  <title>TetsuSan_047</title>
  <svg contentScriptType="text/ecmascript" zoomAndPan="magnify" contentStyleType="text/css" class="Page" preserveAspectRatio="xMidYMid meet" version="1.0">
    <image xmlns:xlink="http://www.w3.org/1999/xlink" x="0" y="0" width="827" height="1170" xlink:href="./../../dataset_Manga109/TetsuSan/TetsuSan_047.jpg" xlink:type="simple" xlink:actuate="onLoad" preserveAspectRatio="xMidYMid meet" xlink:show="embed"/>
  </svg>
  <style type="text/css" xml:space="preserve">
        * { stroke-linejoin: round; }
        .Unclassified   { fill: orange; stroke: none;   opacity: 1.0; visibility: hidden; }
        .Noise          { fill: pink;   stroke: none;   opacity: 0.2; visibility: hidden; }
        .Panel          { fill: none;   stroke: red;    stroke-width:3; opacity: 0.5; visibility: visible; image-rendering: optimizeSpeed; }
        .Line           { fill: green;  stroke: none;   opacity: 0.5; visibility: visible; image-rendering: optimizeSpeed; }
        .TextArea       { fill: grey;   stroke: none;   opacity: 0.2; visibility: visible; image-rendering: optimizeSpeed; }
        .Balloon        { fill: cyan;   stroke: none;   opacity: 0.5; visibility: visible; image-rendering: optimizeSpeed; }
        .Letter         { fill: blue;   stroke: none;   opacity: 0.2; visibility: hidden; }
        .Object, .Character, .Face  { fill: yellow; stroke: none;   opacity: 0.5; visibility: visible; image-rendering: optimizeSpeed; }
        .Page           { fill: white;  stroke: none;    opacity: 0.5; visibility: visible; }
        .linkSBSC { fill: blue; stroke: none; opacity: 1.0; visibility: visible; }
        polygon:hover { opacity:1.0; stroke:red; }
</style>
  <svg xmlns="http://www.w3.org/2000/svg" contentScriptType="text/ecmascript" zoomAndPan="magnify" contentStyleType="text/css" class="Balloon" preserveAspectRatio="xMidYMid meet" version="1.0">
    <polygon points="356,865 356,866 355,867 355,868 354,869 354,870 354,871 353,872 353,873 353,874 352,875 352,876 352,877 352,878 352,879 352,880 351,881 351,882 351,883 351,884 351,885 351,886 351,887 351,888 350,889 350,890 350,891 350,892 350,893 350,894 350,895 350,896 350,897 349,898 349,899 349,900 349,901 349,902 349,903 349,904 349,905 349,906 349,907 349,908 349,909 348,910 348,911 348,912 348,913 348,914 348,915 348,916 348,917 348,918 348,919 348,920 348,921 348,922 348,923 348,924 348,925 348,926 348,927 348,928 348,929 348,930 348,931 348,932 348,933 348,934 348,935 348,936 348,937 348,938 348,939 348,940 349,941 349,942 348,943 347,944 346,944 345,944 344,944 345,945 346,945 347,945 348,945 349,946 348,947 348,948 348,949 348,950 348,951 348,952 348,953 347,954 347,955 347,956 347,957 347,958 347,959 347,960 347,961 347,962 347,963 347,964 346,965 346,966 346,967 346,968 346,969 346,970 346,971 346,972 346,973 346,974 346,975 346,976 346,977 346,978 346,979 346,980 346,981 346,982 346,983 346,984 346,985 346,986 346,987 346,988 346,989 346,990 346,991 346,992 346,993 346,994 346,995 346,996 346,997 346,998 346,999 346,1000 346,1001 346,1002 346,1003 346,1004 347,1005 347,1006 347,1007 347,1008 347,1009 347,1010 347,1011 347,1012 347,1013 347,1014 348,1015 348,1016 348,1017 348,1018 348,1019 348,1020 348,1021 349,1022 349,1023 349,1024 349,1025 349,1026 349,1027 349,1028 350,1029 350,1030 350,1031 350,1032 351,1033 351,1034 351,1035 351,1036 351,1037 351,1038 352,1039 352,1040 352,1041 353,1042 353,1043 353,1044 354,1045 354,1046 355,1047 355,1048 356,1049 356,1050 357,1051 358,1052 358,1053 359,1054 359,1055 360,1056 360,1057 361,1058 362,1059 362,1060 363,1061 363,1062 364,1063 365,1064 366,1065 367,1065 368,1066 369,1067 370,1067 371,1068 372,1068 373,1069 374,1069 375,1070 376,1070 377,1070 378,1071 379,1072 380,1072 381,1072 382,1073 383,1073 384,1073 385,1073 386,1074 387,1074 388,1074 389,1074 390,1074 391,1075 392,1075 393,1075 394,1075 395,1075 396,1075 397,1075 398,1075 399,1075 400,1076 401,1076 402,1076 403,1075 404,1075 405,1075 406,1075 407,1075 408,1075 409,1074 410,1074 410,1073 410,1072 410,1071 410,1070 410,1069 410,1068 410,1067 410,1066 410,1065 410,1064 410,1063 410,1062 410,1061 410,1060 410,1059 410,1058 410,1057 410,1056 410,1055 410,1054 410,1053 410,1052 410,1051 410,1050 410,1049 410,1048 410,1047 410,1046 410,1045 410,1044 410,1043 410,1042 410,1041 410,1040 410,1039 410,1038 410,1037 410,1036 410,1035 410,1034 410,1033 410,1032 410,1031 410,1030 410,1029 410,1028 410,1027 410,1026 410,1025 410,1024 410,1023 410,1022 410,1021 410,1020 410,1019 410,1018 410,1017 410,1016 410,1015 410,1014 410,1013 410,1012 410,1011 410,1010 410,1009 410,1008 410,1007 410,1006 410,1005 410,1004 410,1003 410,1002 410,1001 410,1000 410,999 410,998 410,997 410,996 410,995 410,994 410,993 410,992 410,991 410,990 410,989 410,988 410,987 410,986 410,985 410,984 410,983 410,982 410,981 410,980 410,979 410,978 410,977 410,976 410,975 410,974 410,973 410,972 410,971 410,970 410,969 410,968 410,967 410,966 410,965 410,964 410,963 410,962 410,961 410,960 410,959 410,958 410,957 410,956 410,955 410,954 410,953 410,952 410,951 410,950 410,949 410,948 410,947 410,946 410,945 410,944 410,943 410,942 410,941 410,940 410,939 410,938 410,937 410,936 410,935 409,934 409,933 410,932 410,931 410,930 410,929 410,928 410,927 410,926 409,925 410,924 410,923 410,922 410,921 410,920 410,919 409,918 410,917 410,916 410,915 410,914 410,913 410,912 410,911 410,910 410,909 410,908 410,907 410,906 410,905 410,904 410,903 410,902 410,901 410,900 410,899 409,898 409,897 409,896 409,895 409,894 409,893 409,892 409,891 410,890 410,889 409,888 409,887 410,886 409,885 409,884 409,883 409,882 409,881 410,880 409,879 409,878 409,877 409,876 409,875 409,874 409,873 409,872 409,871 409,870 409,869 409,868 409,867 409,866 409,865 408,865 407,865 406,865 405,865 404,865 403,865 402,865 401,865 400,865 399,865 398,865 397,865 396,865 395,865 394,865 393,865 392,865 391,865 390,865 389,865 388,865 387,865 386,865 385,865 384,865 383,865 382,865 381,865 380,865 379,865 378,865 377,865 376,866 375,865 374,865 373,865 372,865 371,865 370,865 369,865 368,865 367,865 366,865 365,865 364,865 363,865 362,865 361,865 360,865 359,865 358,865 357,865 356,865">
      <metadata tailDirection="" confidence="0.86" linkedToCharacter="" id="TetsuSan_047_balloon_0" tailTip=""></metadata>
    </polygon>
    <polygon points="450,865 450,866 450,867 450,868 450,869 450,870 450,871 450,872 450,873 450,874 450,875 450,876 450,877 450,878 450,879 450,880 450,881 450,882 450,883 450,884 449,885 450,886 450,887 450,888 450,889 449,890 449,891 450,892 450,893 450,894 450,895 450,896 450,897 450,898 450,899 450,900 450,901 450,902 450,903 450,904 450,905 450,906 450,907 450,908 450,909 450,910 450,911 450,912 450,913 450,914 450,915 450,916 450,917 450,918 450,919 450,920 450,921 450,922 450,923 450,924 450,925 450,926 450,927 450,928 450,929 450,930 450,931 450,932 450,933 450,934 450,935 450,936 450,937 450,938 450,939 450,940 450,941 450,942 450,943 450,944 450,945 450,946 450,947 450,948 450,949 450,950 450,951 450,952 450,953 450,954 450,955 450,956 450,957 450,958 450,959 450,960 450,961 450,962 450,963 450,964 450,965 450,966 450,967 450,968 450,969 450,970 450,971 450,972 450,973 450,974 450,975 450,976 450,977 450,978 450,979 450,980 450,981 450,982 450,983 450,984 450,985 450,986 450,987 450,988 450,989 450,990 450,991 450,992 450,993 450,994 450,995 450,996 450,997 450,998 450,999 451,1000 450,1001 450,1002 450,1003 450,1004 450,1005 450,1006 451,1007 450,1008 450,1009 450,1010 450,1011 450,1012 451,1013 451,1014 450,1015 450,1016 450,1017 450,1018 450,1019 450,1020 451,1021 451,1022 451,1023 451,1024 451,1025 451,1026 450,1027 450,1028 451,1029 451,1030 451,1031 451,1032 450,1033 450,1034 451,1034 452,1035 453,1035 454,1036 455,1036 456,1037 457,1037 458,1037 459,1038 460,1038 461,1038 462,1038 463,1038 464,1039 465,1039 466,1039 467,1039 468,1039 469,1039 470,1039 471,1039 472,1040 473,1040 474,1039 475,1039 476,1039 477,1039 478,1039 479,1039 480,1039 481,1039 482,1039 483,1038 484,1038 485,1038 486,1038 487,1037 488,1037 489,1037 490,1036 491,1036 492,1036 493,1035 494,1035 495,1034 496,1033 497,1033 498,1032 499,1032 500,1031 501,1030 502,1029 503,1028 504,1027 504,1026 505,1025 505,1024 506,1023 507,1022 507,1021 508,1020 508,1019 508,1018 509,1017 509,1016 510,1015 510,1014 510,1013 510,1012 510,1011 511,1010 511,1009 511,1008 511,1007 512,1006 512,1005 512,1004 512,1003 512,1002 513,1001 513,1000 513,999 513,998 513,997 513,996 513,995 513,994 513,993 513,992 513,991 514,990 514,989 514,988 514,987 514,986 514,985 514,984 514,983 514,982 514,981 514,980 514,979 514,978 514,977 513,976 514,975 514,974 514,973 514,972 514,971 514,970 514,969 514,968 514,967 514,966 513,965 513,964 513,963 513,962 514,961 515,960 516,959 515,959 514,960 513,959 512,958 512,957 512,956 512,955 512,954 512,953 512,952 512,951 512,950 513,949 513,948 513,947 513,946 513,945 513,944 513,943 513,942 513,941 513,940 513,939 513,938 513,937 513,936 513,935 513,934 513,933 513,932 513,931 513,930 513,929 513,928 513,927 513,926 513,925 513,924 513,923 513,922 513,921 513,920 513,919 513,918 513,917 513,916 513,915 513,914 513,913 512,912 512,911 512,910 512,909 512,908 512,907 512,906 512,905 512,904 512,903 512,902 511,901 511,900 511,899 511,898 511,897 510,896 510,895 510,894 510,893 509,892 509,891 509,890 509,889 509,888 509,887 508,886 508,885 508,884 508,883 507,882 507,881 507,880 507,879 506,878 506,877 505,876 505,875 505,874 504,873 504,872 503,871 503,870 502,869 502,868 501,867 501,866 500,865 499,865 498,865 497,865 496,865 495,865 494,865 493,865 492,865 491,865 490,865 489,865 488,865 487,865 486,865 485,865 484,865 483,865 482,865 481,865 480,865 479,865 478,865 477,865 476,865 475,865 474,865 473,865 472,865 471,865 470,865 469,865 468,865 467,865 466,865 465,865 464,865 463,865 462,865 461,865 460,865 459,865 458,865 457,865 456,865 455,865 454,865 453,865 452,865 451,865 450,865">
      <metadata tailDirection="" confidence="0.99" linkedToCharacter="" id="TetsuSan_047_balloon_1" tailTip=""></metadata>
    </polygon>
    <polygon points="701,864 700,865 700,866 701,865 702,864 703,864 704,864 705,865 704,866 704,867 704,868 704,869 703,870 703,871 703,872 703,873 703,874 703,875 703,876 703,877 703,876 703,875 703,874 704,873 705,872 705,871 705,870 706,869 706,868 707,867 707,866 708,865 709,864 710,865 710,866 710,867 709,868 709,869 708,870 708,871 708,872 707,873 707,874 707,875 706,876 706,877 706,878 706,879 706,880 707,881 707,882 707,883 708,884 708,885 709,886 709,887 709,888 709,889 708,890 708,891 708,892 708,893 707,894 707,895 707,896 706,897 706,898 705,899 704,900 704,901 704,902 704,903 704,904 704,905 705,906 705,907 706,908 706,909 706,910 706,911 706,912 706,913 706,914 705,915 705,916 705,917 704,918 703,919 703,920 703,921 703,922 703,923 703,924 703,925 703,926 703,927 704,928 704,929 704,930 704,931 705,932 705,933 704,934 704,935 703,936 702,937 701,937 700,937 701,937 702,938 703,938 704,939 704,940 703,941 703,942 703,943 703,944 703,945 703,946 702,947 702,948 703,949 703,950 703,951 703,952 702,953 702,954 702,955 702,956 702,957 701,958 700,959 700,960 700,961 700,962 700,963 701,964 702,965 703,966 704,967 705,968 706,969 706,970 706,971 706,972 705,973 705,974 704,975 704,976 704,977 704,978 703,979 703,980 703,981 703,982 703,983 704,984 704,985 705,985 706,986 707,986 708,986 709,987 710,987 711,988 712,988 713,988 714,988 715,989 716,990 717,991 718,992 718,993 718,994 719,995 719,996 720,997 721,998 722,998 723,998 724,998 725,997 726,997 727,997 728,996 729,996 730,996 731,996 732,997 733,997 734,997 735,998 736,998 737,999 738,999 739,999 740,1000 741,1000 742,999 743,999 744,998 745,998 746,998 747,999 748,1000 749,1000 750,1001 751,1001 752,1002 753,1002 754,1001 755,1001 756,1001 757,1000 758,1000 759,999 760,999 761,998 762,998 763,998 764,998 765,998 766,998 767,998 768,997 768,996 768,995 768,994 768,993 767,992 768,991 768,990 768,989 767,988 767,987 767,986 767,985 767,984 767,983 767,982 767,981 768,980 768,979 767,978 767,977 768,976 768,975 767,974 768,973 768,972 768,971 767,970 767,969 767,968 767,967 767,966 767,965 768,964 767,963 767,962 768,961 768,960 767,959 768,958 767,957 767,956 767,955 767,954 767,953 767,952 767,951 767,950 767,949 767,948 767,947 767,946 768,945 768,944 768,943 768,942 767,941 767,940 768,939 768,938 767,937 767,936 767,935 767,934 767,933 767,932 767,931 767,930 767,929 767,928 767,927 767,926 767,925 767,924 767,923 767,922 767,921 767,920 767,919 767,918 767,917 767,916 767,915 767,914 767,913 767,912 767,911 767,910 767,909 767,908 767,907 767,906 767,905 767,904 767,903 767,902 767,901 767,900 767,899 767,898 767,897 767,896 767,895 767,894 767,893 767,892 767,891 767,890 767,889 767,888 767,887 767,886 767,885 767,884 767,883 767,882 767,881 767,880 767,879 767,878 767,877 767,876 767,875 767,874 767,873 767,872 767,871 767,870 767,869 767,868 767,867 767,866 767,865 767,864 766,864 765,864 764,864 763,864 762,864 761,864 760,864 759,864 758,864 757,864 756,864 755,864 754,864 753,864 752,864 751,864 750,864 749,864 748,864 747,864 746,864 745,864 744,864 743,864 742,864 741,864 740,864 739,864 738,864 737,864 736,864 735,864 734,864 733,864 732,864 731,864 730,864 729,864 728,864 727,864 726,864 725,864 724,864 723,864 722,864 721,864 720,864 719,864 718,864 717,864 716,864 715,864 714,864 713,864 712,864 711,864 710,864 709,864 708,864 707,864 706,864 705,864 704,864 703,864 702,864 701,864">
      <metadata tailDirection="" confidence="0.90" linkedToCharacter="" id="TetsuSan_047_balloon_2" tailTip=""></metadata>
    </polygon>
    <polygon points="728,617 727,618 727,619 727,620 726,621 726,622 726,623 726,624 725,625 725,626 725,627 725,628 724,629 724,630 724,631 724,632 723,633 723,634 723,635 723,636 723,637 722,638 722,639 722,640 722,641 722,642 722,643 721,644 721,645 721,646 721,647 721,648 721,649 721,650 720,651 720,652 720,653 720,654 720,655 720,656 720,657 719,658 719,659 719,660 719,661 719,662 719,663 719,664 719,665 719,666 719,667 719,668 718,669 718,670 718,671 718,672 718,673 718,674 718,675 718,676 718,677 718,678 718,679 718,680 718,681 718,682 718,683 718,684 718,685 718,686 718,687 718,688 718,689 718,690 718,691 718,692 718,693 718,694 718,695 718,696 718,697 718,698 718,699 718,700 718,701 718,702 718,703 718,704 718,705 718,706 718,707 718,708 718,709 718,710 718,711 718,712 718,713 718,714 718,715 718,716 718,717 718,718 718,719 719,720 719,721 719,722 719,723 719,724 719,725 719,726 719,727 719,728 719,729 720,730 720,731 720,732 720,733 720,734 720,735 720,736 721,737 721,738 721,739 721,740 721,741 721,742 721,743 722,744 722,745 722,746 722,747 722,748 723,749 723,750 723,751 723,752 724,753 724,754 724,755 724,756 725,757 725,758 725,759 726,760 726,761 726,762 727,763 727,764 727,765 728,766 729,767 729,768 730,769 730,770 731,771 731,772 732,773 732,774 733,775 733,776 734,777 735,778 735,779 736,780 737,781 738,782 739,783 740,784 740,785 741,785 742,786 743,787 744,788 745,788 746,789 747,789 748,790 749,790 750,791 751,791 752,791 753,792 754,792 755,792 756,792 757,792 758,792 759,792 760,792 761,792 762,792 763,792 764,792 765,792 766,792 767,792 767,791 767,790 767,789 767,788 767,787 767,786 767,785 767,784 767,783 767,782 767,781 767,780 767,779 767,778 767,777 767,776 767,775 767,774 767,773 767,772 767,771 767,770 767,769 767,768 767,767 767,766 767,765 767,764 767,763 767,762 767,761 767,760 767,759 767,758 767,757 767,756 767,755 767,754 767,753 767,752 767,751 767,750 767,749 767,748 767,747 767,746 767,745 767,744 767,743 767,742 767,741 767,740 767,739 767,738 767,737 767,736 767,735 767,734 767,733 767,732 767,731 767,730 767,729 767,728 767,727 767,726 767,725 767,724 767,723 767,722 767,721 767,720 767,719 767,718 767,717 767,716 767,715 767,714 767,713 767,712 767,711 767,710 767,709 767,708 767,707 767,706 767,705 767,704 767,703 767,702 767,701 767,700 767,699 767,698 767,697 767,696 767,695 767,694 767,693 767,692 767,691 767,690 767,689 767,688 767,687 767,686 767,685 767,684 767,683 767,682 767,681 767,680 767,679 767,678 767,677 767,676 767,675 767,674 767,673 767,672 767,671 767,670 767,669 767,668 767,667 767,666 767,665 767,664 767,663 767,662 767,661 767,660 767,659 767,658 767,657 767,656 767,655 767,654 767,653 767,652 767,651 767,650 767,649 767,648 767,647 767,646 767,645 767,644 767,643 767,642 767,641 767,640 767,639 767,638 767,637 767,636 767,635 767,634 767,633 767,632 767,631 767,630 767,629 767,628 767,627 767,626 767,625 767,624 767,623 767,622 767,621 767,620 767,619 767,618 767,617 766,617 765,617 764,617 763,617 762,617 761,617 760,617 759,617 758,617 757,617 756,617 755,617 754,617 753,617 752,617 751,617 750,617 749,617 748,617 747,617 746,617 745,617 744,617 743,617 742,617 741,617 740,617 739,617 738,617 737,617 736,617 735,617 734,617 733,617 732,617 731,617 730,617 729,617 728,617">
      <metadata tailDirection="" confidence="0.92" linkedToCharacter="" id="TetsuSan_047_balloon_3" tailTip=""></metadata>
    </polygon>
    <polygon points="448,617 448,618 448,619 448,620 448,621 448,622 448,623 448,624 448,625 448,626 448,627 448,628 448,629 448,630 448,631 448,632 448,633 448,634 448,635 448,636 448,637 448,638 448,639 448,640 448,641 448,642 448,643 448,644 448,645 448,646 448,647 448,648 448,649 448,650 448,651 448,652 448,653 448,654 448,655 448,656 448,657 448,658 448,659 448,660 448,661 448,662 448,663 448,664 448,665 448,666 448,667 448,668 448,669 448,670 448,671 448,672 448,673 448,674 448,675 448,676 448,677 448,678 448,679 448,680 448,681 448,682 448,683 448,684 448,685 448,686 448,687 448,688 448,689 448,690 448,691 448,692 448,693 448,694 448,695 448,696 448,697 448,698 448,699 448,700 448,701 448,702 448,703 448,704 448,705 448,706 448,707 448,708 448,709 448,710 448,711 448,712 448,713 449,714 449,715 449,716 449,717 449,718 448,719 449,720 449,721 449,722 449,723 449,724 449,725 449,726 449,727 449,728 449,729 449,730 449,731 449,732 449,733 449,734 449,735 449,736 449,737 449,738 449,739 448,740 449,741 449,742 449,743 449,744 449,745 449,746 449,747 449,748 449,749 449,750 449,751 449,752 449,753 449,754 449,755 449,756 449,757 449,758 449,759 449,760 449,761 449,762 449,763 449,764 449,765 449,766 449,767 449,768 449,769 449,770 449,771 449,772 449,773 449,774 449,775 449,776 449,777 449,778 449,779 449,780 449,781 449,782 449,783 449,784 449,785 449,786 449,787 449,788 449,789 449,790 449,791 449,792 449,793 449,794 449,795 449,796 449,797 449,798 449,799 449,800 449,801 449,802 449,803 449,804 449,805 449,806 449,807 449,808 449,809 449,810 449,811 449,812 449,813 449,814 449,815 449,816 449,817 449,818 449,819 449,820 449,821 449,822 449,823 449,824 449,825 449,826 449,827 449,828 449,829 449,830 449,831 449,832 449,833 449,834 449,835 449,836 449,837 449,838 449,839 449,840 449,841 449,842 449,843 449,844 449,845 449,846 450,846 451,846 452,846 453,846 454,846 455,846 456,846 457,846 458,846 459,846 460,846 461,846 462,846 463,846 464,846 465,846 466,846 467,846 468,846 469,846 470,846 471,846 472,846 473,846 474,846 475,846 476,846 477,846 478,846 479,846 480,846 481,846 482,846 483,846 484,846 485,846 486,846 487,846 488,846 489,846 490,846 491,846 492,846 493,846 494,846 495,846 496,846 497,846 498,846 499,846 500,846 501,847 502,847 503,846 504,846 505,846 506,847 507,846 508,846 508,845 509,844 509,843 510,842 510,841 511,840 511,839 511,838 512,837 512,836 513,835 513,834 513,833 513,832 514,831 514,830 515,829 515,828 515,827 515,826 516,825 516,824 516,823 516,822 517,821 517,820 517,819 517,818 517,817 518,816 518,815 518,814 518,813 518,812 519,811 519,810 519,809 519,808 519,807 519,806 519,805 519,804 519,803 520,802 520,801 520,800 520,799 520,798 520,797 520,796 521,795 521,794 521,793 521,792 521,791 521,790 521,789 522,788 522,787 522,786 522,785 522,784 522,783 522,782 522,781 522,780 522,779 522,778 522,777 522,776 522,775 522,774 522,773 523,772 523,771 523,770 523,769 523,768 523,767 523,766 523,765 523,764 523,763 523,762 523,761 523,760 523,759 523,758 523,757 523,756 523,755 523,754 523,753 523,752 523,751 523,750 523,749 523,748 523,747 523,746 523,745 523,744 523,743 523,742 523,741 522,740 522,739 522,738 522,737 522,736 522,735 522,734 522,733 522,732 522,731 522,730 522,729 522,728 522,727 521,726 521,725 521,724 521,723 521,722 521,721 521,720 521,719 521,718 521,717 521,716 521,715 520,714 520,713 520,712 520,711 520,710 520,709 520,708 520,707 520,706 519,705 519,704 519,703 519,702 519,701 519,700 519,699 519,698 519,697 519,696 519,695 518,694 518,693 518,692 518,691 518,690 518,689 518,688 518,687 518,686 518,685 518,684 518,683 518,682 518,681 517,680 517,679 517,678 517,677 517,676 517,675 517,674 517,673 517,672 516,671 516,670 516,669 516,668 516,667 515,666 515,665 515,664 515,663 515,662 514,661 514,660 514,659 514,658 513,657 513,656 513,655 513,654 512,653 512,652 512,651 512,650 512,649 511,648 511,647 511,646 510,645 510,644 510,643 509,642 509,641 509,640 509,639 508,638 508,637 508,636 507,635 507,634 506,633 506,632 506,631 505,630 505,629 505,628 504,627 504,626 504,625 504,624 503,623 502,622 502,621 501,620 501,619 500,618 500,617 499,617 498,617 497,617 496,617 495,617 494,617 493,617 492,617 491,617 490,617 489,617 488,617 487,617 486,617 485,617 484,617 483,617 482,617 481,617 480,617 479,617 478,617 477,617 476,617 475,617 474,617 473,617 472,617 471,617 470,617 469,617 468,617 467,617 466,617 465,617 464,617 463,617 462,617 461,617 460,617 459,617 458,617 457,617 456,617 455,617 454,617 453,617 452,617 451,617 450,617 449,617 448,617">
      <metadata tailDirection="" confidence="0.92" linkedToCharacter="" id="TetsuSan_047_balloon_4" tailTip=""></metadata>
    </polygon>
    <polygon points="88,618 88,619 88,620 88,621 88,622 88,623 88,624 88,625 88,626 88,627 88,628 88,629 88,630 88,631 88,632 88,633 88,634 88,635 88,636 88,637 88,638 88,639 88,640 88,641 88,642 88,643 88,644 88,645 88,646 88,647 88,648 88,649 88,650 88,651 88,652 88,653 88,654 88,655 88,656 88,657 88,658 88,659 88,660 88,661 88,662 88,663 88,664 88,665 88,666 88,667 88,668 88,669 88,670 88,671 88,672 88,673 88,674 88,675 88,676 88,677 88,678 88,679 88,680 88,681 88,682 88,683 88,684 88,685 88,686 88,687 88,688 88,689 88,690 88,691 88,692 88,693 88,694 88,695 88,696 88,697 88,698 88,699 88,700 88,701 88,702 88,703 88,704 88,705 88,706 88,707 88,708 88,709 88,710 88,711 88,712 88,713 88,714 88,715 88,716 88,717 88,718 88,719 88,720 88,721 88,722 88,723 88,724 88,725 88,726 88,727 88,728 88,729 88,730 88,731 88,732 88,733 88,734 88,735 88,736 88,737 88,738 88,739 88,740 88,741 88,742 88,743 88,744 88,745 88,746 88,747 88,748 88,749 88,750 88,751 88,752 88,753 88,754 88,755 88,756 88,757 88,758 88,759 88,760 88,761 88,762 88,763 88,764 88,765 88,766 88,767 88,768 88,769 88,770 88,771 88,772 88,773 88,774 88,775 88,776 88,777 88,778 88,779 88,780 88,781 88,782 88,783 88,784 88,785 88,786 88,787 88,788 88,789 88,790 88,791 88,792 88,793 89,793 90,793 91,794 91,795 92,795 93,795 94,796 95,797 96,797 97,797 98,798 99,798 100,798 101,798 102,798 103,798 104,798 105,799 106,799 107,799 108,799 109,799 110,799 111,799 112,799 113,799 114,799 115,799 116,799 117,799 118,799 119,799 120,798 121,798 122,798 123,798 124,798 125,797 126,797 127,797 128,796 129,796 130,795 131,795 132,794 133,793 134,792 135,791 136,791 137,790 138,789 139,788 140,787 140,786 141,785 142,784 143,783 143,782 144,781 145,780 145,779 146,778 147,777 147,776 148,775 148,774 149,773 149,772 149,771 150,770 150,769 150,768 151,767 151,766 151,765 152,764 152,763 152,762 152,761 153,760 153,759 153,758 154,757 154,756 154,755 154,754 154,753 154,752 155,751 155,750 155,749 155,748 155,747 155,746 155,745 155,744 155,743 155,742 155,741 155,740 155,739 155,738 155,737 155,736 155,735 155,734 155,733 155,732 155,731 155,730 155,729 155,728 155,727 155,726 155,725 155,724 155,723 155,722 155,721 155,720 155,719 155,718 155,717 154,716 154,715 154,714 154,713 154,712 154,711 154,710 154,709 154,708 154,707 154,706 154,705 154,704 154,703 154,702 154,701 154,700 153,699 153,698 154,697 154,696 154,695 154,694 154,693 153,692 153,691 153,690 153,689 153,688 153,687 153,686 153,685 153,684 153,683 153,682 153,681 153,680 153,679 153,678 153,677 153,676 153,675 153,674 153,673 153,672 152,671 152,670 152,669 152,668 152,667 151,666 151,665 151,664 151,663 151,662 150,661 150,660 150,659 149,658 149,657 148,656 148,655 148,654 149,653 148,652 148,651 148,650 147,649 147,648 147,647 147,646 146,645 146,644 146,643 146,642 145,641 145,640 145,639 144,638 144,637 144,636 143,635 143,634 142,633 142,632 141,631 141,630 141,629 140,628 140,627 139,626 139,625 138,624 138,623 137,622 137,621 136,620 136,619 135,618 134,618 133,618 132,618 131,618 130,618 129,618 128,618 127,618 126,618 125,618 124,618 123,618 122,618 121,618 120,618 119,618 118,618 117,618 116,618 115,618 114,618 113,618 112,618 111,618 110,618 109,618 108,618 107,618 106,618 105,618 104,618 103,618 102,618 101,618 100,618 99,618 98,618 97,618 96,618 95,618 94,618 93,618 92,618 91,618 90,618 89,618 88,618">
      <metadata tailDirection="" confidence="0.99" linkedToCharacter="" id="TetsuSan_047_balloon_5" tailTip=""></metadata>
    </polygon>
    <polygon points="358,617 357,618 357,619 357,620 356,621 356,622 356,623 355,624 355,625 355,626 354,627 354,628 354,629 354,630 353,631 353,632 353,633 353,634 352,635 352,636 352,637 352,638 352,639 351,640 351,641 351,642 351,643 350,644 350,645 350,646 350,647 349,648 349,649 349,650 349,651 349,652 349,653 349,654 348,655 348,656 348,657 348,658 348,659 348,660 347,661 347,662 347,663 347,664 347,665 347,666 347,667 347,668 347,669 347,670 347,671 347,672 347,673 347,674 347,675 347,676 347,677 346,678 346,679 346,680 346,681 346,682 346,683 346,684 346,685 346,686 346,687 346,688 346,689 346,690 346,691 346,692 346,693 346,694 346,695 346,696 346,697 346,698 346,699 346,700 346,701 346,702 346,703 345,704 345,705 346,706 346,707 346,708 346,709 346,710 346,711 346,712 346,713 346,714 346,715 346,716 346,717 346,718 346,719 346,720 346,721 346,722 346,723 346,724 346,725 346,726 346,727 346,728 346,729 346,730 346,731 346,732 347,733 347,734 347,735 347,736 347,737 347,738 347,739 347,740 347,741 347,742 347,743 347,744 347,745 348,746 348,747 348,748 348,749 348,750 348,751 348,752 348,753 348,754 349,755 349,756 349,757 349,758 349,759 349,760 350,761 350,762 350,763 350,764 351,765 351,766 351,767 351,768 351,769 351,770 352,771 352,772 352,773 352,774 353,775 353,776 353,777 354,778 354,779 355,780 355,781 355,782 355,783 356,784 356,785 357,786 357,787 358,788 359,789 359,790 359,791 360,792 361,793 362,794 363,795 364,796 365,797 366,798 367,799 368,800 369,801 370,802 371,803 372,804 373,804 374,805 375,806 376,806 377,807 378,807 379,808 380,808 381,808 382,809 383,809 384,809 385,810 386,810 387,810 388,810 389,810 390,810 391,810 392,810 393,810 394,810 395,810 396,810 397,809 398,809 399,809 400,809 401,809 402,808 403,808 404,807 405,806 406,806 407,805 408,805 408,804 409,803 409,802 409,801 409,800 409,799 409,798 409,797 409,796 409,795 409,794 409,793 409,792 409,791 409,790 409,789 409,788 409,787 409,786 409,785 409,784 409,783 409,782 409,781 409,780 409,779 409,778 409,777 409,776 409,775 409,774 409,773 409,772 409,771 409,770 409,769 409,768 409,767 409,766 409,765 409,764 409,763 409,762 409,761 409,760 409,759 409,758 409,757 409,756 409,755 409,754 409,753 409,752 409,751 409,750 409,749 409,748 409,747 409,746 409,745 409,744 409,743 409,742 409,741 409,740 409,739 409,738 409,737 409,736 409,735 409,734 409,733 409,732 409,731 409,730 409,729 409,728 409,727 409,726 409,725 409,724 409,723 409,722 409,721 409,720 409,719 409,718 409,717 409,716 409,715 409,714 409,713 409,712 409,711 409,710 409,709 409,708 409,707 409,706 409,705 409,704 409,703 409,702 409,701 409,700 409,699 409,698 409,697 409,696 409,695 409,694 409,693 409,692 409,691 409,690 409,689 409,688 409,687 409,686 409,685 409,684 409,683 409,682 409,681 409,680 409,679 409,678 409,677 409,676 409,675 409,674 409,673 409,672 409,671 409,670 409,669 409,668 409,667 409,666 409,665 409,664 409,663 409,662 409,661 409,660 409,659 409,658 409,657 409,656 409,655 409,654 409,653 409,652 409,651 409,650 409,649 409,648 409,647 409,646 409,645 409,644 409,643 409,642 409,641 409,640 409,639 409,638 409,637 408,636 408,635 409,634 409,633 408,632 408,631 408,630 408,629 408,628 408,627 408,626 408,625 408,624 408,623 408,622 408,621 408,620 408,619 408,618 407,618 406,618 405,618 404,618 403,618 402,618 401,618 400,617 399,617 398,617 397,618 396,617 395,618 394,618 393,618 392,618 391,617 390,618 389,617 388,617 387,617 386,617 385,617 384,617 383,617 382,617 381,617 380,617 379,617 378,617 377,617 376,617 375,617 374,617 373,617 372,617 371,617 370,617 369,617 368,617 367,617 366,617 365,617 364,617 363,617 362,617 361,617 360,617 359,617 358,617">
      <metadata tailDirection="" confidence="0.99" linkedToCharacter="" id="TetsuSan_047_balloon_6" tailTip=""></metadata>
    </polygon>
    <polygon points="266,470 265,471 264,471 263,471 262,471 261,471 260,471 259,472 258,472 257,472 256,472 255,473 254,473 253,474 252,474 251,475 250,475 249,476 248,476 247,477 246,478 245,479 245,480 246,481 246,482 247,483 248,484 249,485 249,486 249,487 250,488 250,489 251,490 251,491 252,492 252,493 252,494 253,495 253,496 253,497 253,498 254,499 255,498 256,498 257,498 258,498 259,498 260,498 261,497 262,497 263,497 264,497 265,497 266,497 267,497 268,497 269,496 270,496 271,496 272,496 273,496 274,496 275,496 276,496 277,496 278,496 279,495 280,495 281,495 282,495 283,495 284,495 285,495 286,495 287,496 286,497 285,498 284,498 283,498 282,498 281,498 280,498 279,498 278,499 277,499 276,499 275,499 274,499 273,499 272,499 271,499 270,499 269,499 268,499 267,500 266,500 265,500 264,500 263,500 262,500 261,500 260,500 259,501 258,501 257,501 256,501 255,501 254,501 254,502 254,503 254,504 254,505 254,506 254,507 254,508 254,509 255,510 254,511 254,512 254,513 254,514 254,515 254,516 254,517 254,518 254,519 254,520 254,521 253,522 253,523 253,524 252,525 252,526 252,527 251,528 251,529 250,530 251,531 252,531 253,532 254,532 255,532 256,533 257,533 258,533 259,533 260,534 261,534 262,534 263,534 264,534 265,534 266,534 267,534 268,534 269,534 270,534 271,534 272,534 273,534 274,534 275,534 276,534 277,534 278,534 279,534 280,534 281,534 282,534 283,533 284,533 285,533 286,533 287,532 288,532 289,532 290,531 291,531 292,531 293,530 294,530 295,530 296,529 297,529 298,528 299,528 300,527 301,527 302,526 302,525 303,524 304,523 304,522 305,521 305,520 305,519 306,518 306,517 306,516 306,515 307,514 307,513 307,512 307,511 307,510 307,509 307,508 307,507 307,506 307,505 306,504 306,503 307,502 306,501 306,500 306,499 305,498 305,497 305,496 305,495 304,494 304,493 304,492 304,491 303,490 303,489 302,488 302,487 301,486 301,485 300,484 299,483 299,482 298,481 297,480 296,479 295,478 294,477 293,476 292,476 291,475 290,474 289,474 288,473 287,473 286,472 285,472 284,473 283,472 282,472 281,471 280,471 279,471 278,470 277,470 276,470 275,470 274,470 273,470 272,470 271,470 270,470 269,470 268,470 267,470 266,470">
      <metadata tailDirection="" confidence="0.93" linkedToCharacter="" id="TetsuSan_047_balloon_7" tailTip=""></metadata>
    </polygon>
    <polygon points="88,370 88,371 88,372 88,373 88,374 89,375 89,376 89,377 89,378 89,379 89,380 89,381 89,382 88,383 88,384 88,385 88,386 88,387 88,388 88,389 88,390 88,391 88,392 88,393 88,394 88,395 88,396 88,397 88,398 88,399 88,400 88,401 88,402 88,403 88,404 88,405 88,406 88,407 88,408 88,409 88,410 88,411 88,412 88,413 88,414 88,415 88,416 88,417 88,418 88,419 88,420 88,421 88,422 88,423 88,424 88,425 88,426 88,427 88,428 88,429 88,430 88,431 88,432 88,433 88,434 88,435 88,436 88,437 88,438 88,439 88,440 88,441 88,442 88,443 88,444 88,445 88,446 88,447 88,448 88,449 88,450 88,451 88,452 88,453 88,454 88,455 88,456 88,457 88,458 88,459 88,460 88,461 88,462 88,463 88,464 88,465 88,466 88,467 88,468 88,469 88,470 88,471 88,472 88,473 88,474 88,475 88,476 88,477 88,478 88,479 88,480 88,481 88,482 88,483 88,484 88,485 88,486 88,487 88,488 88,489 88,490 88,491 88,492 88,493 88,494 88,495 88,496 88,497 88,498 88,499 88,500 88,501 88,502 88,503 88,504 88,505 88,506 88,507 88,508 88,509 88,510 88,511 88,512 88,513 88,514 88,515 88,516 88,517 88,518 88,519 88,520 88,521 88,522 88,523 88,524 88,525 88,526 88,527 88,528 88,529 88,530 88,531 88,532 88,533 88,534 88,535 88,536 88,537 88,538 88,539 88,540 88,541 88,542 88,543 88,544 88,545 88,546 88,547 89,548 90,549 91,549 92,550 93,550 94,551 95,551 96,551 97,552 98,552 99,552 100,552 101,552 102,552 103,552 104,553 105,553 106,553 107,553 108,553 109,554 110,554 111,554 112,554 113,554 114,554 115,554 116,554 117,554 118,554 119,554 120,554 121,554 122,553 123,553 124,553 125,553 126,552 127,552 128,552 129,551 130,550 131,550 132,549 133,548 134,547 135,546 136,545 137,545 138,544 139,543 139,542 140,541 141,540 141,539 142,538 143,537 144,536 144,535 144,534 145,533 145,532 146,531 146,530 147,529 148,528 148,527 148,526 149,525 150,524 150,523 150,522 150,521 151,520 151,519 152,518 152,517 152,516 152,515 153,514 153,513 153,512 153,511 153,510 154,509 154,508 154,507 154,506 154,505 154,504 155,503 155,502 155,501 155,500 155,499 155,498 155,497 155,496 155,495 155,494 155,493 155,492 155,491 155,490 155,489 155,488 155,487 155,486 155,485 155,484 155,483 155,482 155,481 156,480 156,479 156,478 156,477 156,476 156,475 156,474 156,473 155,472 156,471 156,470 156,469 156,468 156,467 156,466 155,465 155,464 156,463 156,462 156,461 156,460 156,459 155,458 155,457 155,456 155,455 155,454 155,453 155,452 155,451 155,450 155,449 155,448 155,447 155,446 154,445 154,444 155,443 155,442 154,441 154,440 154,439 154,438 154,437 154,436 154,435 154,434 154,433 154,432 154,431 153,430 153,429 153,428 153,427 153,426 153,425 153,424 152,423 152,422 152,421 152,420 152,419 152,418 151,417 151,416 151,415 150,414 150,413 150,412 149,411 149,410 149,409 148,408 148,407 148,406 148,405 148,404 147,403 147,402 146,401 146,400 146,399 146,398 145,397 145,396 145,395 145,394 144,393 144,392 144,391 143,390 143,389 143,388 143,387 142,386 142,385 142,384 142,383 141,382 141,381 141,380 141,379 140,378 140,377 139,376 139,375 138,374 138,373 137,372 137,371 136,370 135,370 134,370 133,370 132,370 131,370 130,370 129,370 128,370 127,370 126,370 125,370 124,370 123,370 122,370 121,370 120,370 119,370 118,370 117,370 116,370 115,370 114,370 113,370 112,370 111,370 110,370 109,370 108,370 107,370 106,370 105,370 104,370 103,370 102,370 101,370 100,370 99,370 98,370 97,370 96,370 95,370 94,370 93,370 92,370 91,370 90,370 89,370 88,370">
      <metadata tailDirection="" confidence="0.99" linkedToCharacter="" id="TetsuSan_047_balloon_8" tailTip=""></metadata>
    </polygon>
    <polygon points="355,369 354,370 354,371 354,372 353,373 353,374 352,375 352,376 352,377 351,378 351,379 350,380 350,381 350,382 350,383 349,384 349,385 349,386 348,387 348,388 348,389 348,390 347,391 347,392 347,393 347,394 346,395 346,396 346,397 346,398 345,399 345,400 345,401 345,402 345,403 345,404 344,405 344,406 344,407 344,408 343,409 343,410 343,411 343,412 343,413 343,414 342,415 342,416 342,417 342,418 342,419 342,420 341,421 341,422 341,423 341,424 341,425 341,426 341,427 340,428 340,429 340,430 340,431 340,432 340,433 340,434 340,435 339,436 339,437 339,438 339,439 339,440 339,441 339,442 339,443 338,444 338,445 338,446 338,447 338,448 338,449 338,450 338,451 338,452 337,453 337,454 337,455 337,456 337,457 337,458 337,459 337,460 337,461 337,462 337,463 337,464 337,465 337,466 337,467 337,468 337,469 337,470 337,471 337,472 337,473 337,474 337,475 337,476 337,477 337,478 337,479 337,480 337,481 337,482 337,483 337,484 337,485 337,486 337,487 337,488 337,489 337,490 337,491 337,492 337,493 337,494 337,495 337,496 337,497 337,498 337,499 337,500 337,501 337,502 337,503 337,504 337,505 337,506 337,507 337,508 337,509 337,510 337,511 337,512 337,513 338,514 338,515 338,516 338,517 338,518 338,519 338,520 338,521 338,522 338,523 338,524 338,525 338,526 338,527 339,528 339,529 339,530 339,531 339,532 339,533 339,534 339,535 339,536 339,537 339,538 339,539 340,540 340,541 340,542 340,543 340,544 340,545 340,546 340,547 341,548 341,549 341,550 341,551 341,552 341,553 341,554 341,555 342,556 342,557 342,558 342,559 343,560 343,561 343,562 343,563 343,564 344,565 344,566 344,567 345,568 345,569 345,570 346,571 346,572 346,573 347,574 347,575 347,576 348,577 348,578 348,579 349,580 349,581 350,582 350,583 350,584 351,585 351,586 352,587 352,588 352,589 353,590 353,591 354,592 355,593 356,594 356,595 357,596 357,597 357,598 358,599 359,600 360,600 361,600 362,600 363,600 364,600 365,600 366,600 367,600 368,600 369,600 370,600 371,600 372,600 373,600 374,600 375,600 376,600 377,600 378,600 379,600 380,600 381,600 382,600 383,600 384,600 385,600 386,600 387,600 388,600 389,600 390,600 391,600 392,600 393,600 394,600 395,600 396,600 397,600 398,600 399,600 400,600 401,600 402,600 403,600 404,600 405,600 406,600 407,600 408,600 408,599 408,598 408,597 408,596 408,595 408,594 408,593 408,592 408,591 408,590 408,589 408,588 408,587 408,586 408,585 408,584 408,583 408,582 408,581 408,580 408,579 408,578 408,577 408,576 408,575 408,574 408,573 408,572 408,571 408,570 408,569 408,568 408,567 408,566 408,565 408,564 408,563 408,562 408,561 408,560 408,559 408,558 408,557 408,556 408,555 408,554 408,553 408,552 408,551 408,550 408,549 408,548 408,547 408,546 408,545 408,544 408,543 408,542 408,541 408,540 408,539 408,538 408,537 408,536 408,535 408,534 408,533 408,532 408,531 408,530 408,529 408,528 408,527 408,526 408,525 408,524 408,523 408,522 408,521 408,520 408,519 408,518 408,517 408,516 408,515 408,514 408,513 408,512 408,511 408,510 408,509 408,508 408,507 408,506 408,505 408,504 408,503 408,502 408,501 408,500 408,499 408,498 408,497 408,496 408,495 408,494 408,493 408,492 408,491 408,490 408,489 408,488 408,487 408,486 408,485 408,484 408,483 408,482 408,481 408,480 408,479 408,478 408,477 408,476 408,475 408,474 408,473 408,472 408,471 408,470 408,469 408,468 408,467 408,466 408,465 408,464 408,463 408,462 408,461 408,460 408,459 408,458 408,457 408,456 408,455 408,454 408,453 408,452 408,451 408,450 408,449 408,448 408,447 408,446 408,445 408,444 408,443 408,442 408,441 408,440 408,439 408,438 408,437 408,436 408,435 408,434 408,433 408,432 408,431 408,430 408,429 408,428 408,427 408,426 408,425 408,424 408,423 408,422 408,421 408,420 408,419 408,418 408,417 408,416 408,415 408,414 408,413 408,412 408,411 408,410 408,409 408,408 408,407 408,406 407,405 408,404 408,403 408,402 408,401 408,400 408,399 408,398 408,397 408,396 408,395 408,394 408,393 408,392 408,391 408,390 408,389 408,388 408,387 408,386 408,385 408,384 408,383 408,382 408,381 407,380 407,379 407,378 407,377 407,376 407,375 407,374 407,373 407,372 407,371 407,370 407,369 406,369 405,369 404,369 403,369 402,369 401,369 400,369 399,369 398,369 397,369 396,369 395,369 394,369 393,369 392,369 391,369 390,369 389,369 388,369 387,369 386,369 385,369 384,369 383,369 382,369 381,369 380,369 379,369 378,369 377,369 376,369 375,369 374,369 373,369 372,369 371,369 370,369 369,369 368,369 367,369 366,369 365,369 364,369 363,369 362,369 361,369 360,369 359,369 358,369 357,369 356,369 355,369">
      <metadata tailDirection="" confidence="0.97" linkedToCharacter="" id="TetsuSan_047_balloon_9" tailTip=""></metadata>
    </polygon>
    <polygon points="712,369 712,370 711,371 711,372 711,373 711,374 711,375 710,376 711,377 711,378 710,379 710,380 710,381 710,382 710,383 710,384 710,385 709,386 709,387 709,388 709,389 709,390 709,391 709,392 709,393 709,394 709,395 709,396 709,397 709,398 709,399 708,400 708,401 708,402 708,403 708,404 708,405 708,406 708,407 708,408 708,409 708,410 708,411 708,412 708,413 708,414 708,415 708,416 708,417 708,418 708,419 708,420 708,421 707,422 707,423 708,424 708,425 708,426 708,427 708,428 708,429 708,430 708,431 708,432 708,433 708,434 708,435 708,436 708,437 708,438 708,439 708,440 708,441 708,442 707,443 706,443 705,443 704,443 705,444 706,445 707,446 706,447 706,448 706,449 706,450 706,451 706,452 706,453 707,454 707,455 706,456 707,457 707,458 707,459 707,460 707,461 707,462 707,463 707,464 707,465 707,466 707,467 707,468 708,469 708,470 708,471 708,472 708,473 708,474 708,475 709,476 709,477 709,478 709,479 709,480 710,481 710,482 710,483 711,484 711,485 711,486 712,487 712,488 712,489 713,490 713,491 713,492 714,493 715,494 715,495 716,496 716,497 717,498 718,499 719,500 720,501 721,502 722,503 723,504 724,505 725,505 726,506 727,506 728,507 729,507 730,508 731,509 732,509 733,509 734,510 735,510 736,510 737,510 738,511 739,511 740,511 741,511 742,512 743,512 744,512 745,512 746,512 747,512 748,512 749,513 750,513 751,513 752,513 753,512 754,512 755,512 756,512 757,512 758,512 759,512 760,512 761,512 762,512 763,511 764,511 765,510 766,509 767,509 767,508 767,507 767,506 767,505 767,504 767,503 767,502 767,501 767,500 767,499 767,498 767,497 767,496 767,495 767,494 767,493 767,492 767,491 767,490 767,489 767,488 767,487 767,486 767,485 767,484 767,483 767,482 767,481 767,480 767,479 767,478 767,477 767,476 767,475 767,474 767,473 767,472 767,471 767,470 767,469 767,468 767,467 767,466 767,465 767,464 767,463 767,462 767,461 767,460 767,459 767,458 767,457 767,456 767,455 767,454 767,453 767,452 767,451 767,450 767,449 767,448 767,447 767,446 767,445 767,444 767,443 767,442 767,441 767,440 767,439 767,438 767,437 767,436 767,435 767,434 767,433 767,432 767,431 767,430 767,429 767,428 767,427 767,426 767,425 767,424 767,423 767,422 767,421 767,420 767,419 767,418 767,417 767,416 767,415 767,414 767,413 767,412 767,411 767,410 767,409 767,408 767,407 767,406 767,405 767,404 767,403 767,402 767,401 767,400 767,399 767,398 767,397 767,396 767,395 767,394 767,393 767,392 767,391 767,390 767,389 767,388 767,387 767,386 767,385 767,384 767,383 767,382 767,381 767,380 767,379 767,378 767,377 767,376 767,375 767,374 767,373 767,372 767,371 767,370 767,369 766,369 765,369 764,369 763,369 762,369 761,369 760,369 759,369 758,369 757,369 756,369 755,369 754,369 753,369 752,369 751,369 750,369 749,369 748,369 747,369 746,369 745,369 744,369 743,369 742,369 741,369 740,369 739,369 738,369 737,369 736,369 735,369 734,369 733,369 732,369 731,369 730,369 729,369 728,369 727,369 726,369 725,369 724,369 723,369 722,369 721,369 720,369 719,369 718,369 717,369 716,369 715,369 714,369 713,369 712,369">
      <metadata tailDirection="" confidence="0.99" linkedToCharacter="" id="TetsuSan_047_balloon_10" tailTip=""></metadata>
    </polygon>
    <polygon points="713,122 713,123 712,124 712,125 712,126 711,127 711,128 711,129 711,130 710,131 710,132 710,133 710,134 710,135 709,136 709,137 709,138 709,139 709,140 709,141 708,142 708,143 708,144 708,145 708,146 708,147 707,148 707,149 707,150 707,151 707,152 707,153 706,154 706,155 706,156 706,157 706,158 706,159 706,160 706,161 706,162 705,163 705,164 705,165 705,166 705,167 705,168 705,169 705,170 705,171 705,172 705,173 705,174 705,175 705,176 705,177 705,178 705,179 705,180 705,181 705,182 705,183 705,184 705,185 705,186 705,187 704,188 703,187 702,187 701,187 702,188 703,189 704,189 705,189 706,190 706,191 706,192 706,193 705,194 705,195 705,196 705,197 705,198 705,199 705,200 705,201 705,202 705,203 704,204 704,205 704,206 704,207 704,208 704,209 704,210 704,211 704,212 704,213 704,214 704,215 704,216 704,217 703,218 703,219 703,220 703,221 703,222 703,223 703,224 703,225 703,226 703,227 703,228 703,229 703,230 703,231 703,232 703,233 703,234 703,235 703,236 703,237 703,238 703,239 703,240 703,241 703,242 703,243 703,244 703,245 703,246 703,247 703,248 703,249 703,250 703,251 703,252 703,253 703,254 703,255 703,256 703,257 703,258 703,259 703,260 703,261 703,262 703,263 703,264 703,265 703,266 703,267 704,268 704,269 703,270 703,271 704,272 704,273 704,274 704,275 704,276 704,277 704,278 704,279 704,280 704,281 704,282 704,283 704,284 704,285 705,286 705,287 705,288 705,289 705,290 705,291 705,292 705,293 706,294 706,295 706,296 706,297 706,298 707,299 707,300 707,301 707,302 707,303 707,304 708,305 708,306 708,307 708,308 708,309 709,310 709,311 709,312 709,313 710,314 710,315 710,316 711,317 711,318 712,319 712,320 712,321 713,322 713,323 714,324 714,325 715,326 715,327 716,328 716,329 717,330 717,331 718,332 718,333 719,334 720,335 721,336 722,337 723,338 724,339 725,340 726,341 727,341 728,342 729,342 730,343 731,343 732,343 733,344 734,344 735,344 736,345 737,345 738,345 739,345 740,346 741,346 742,346 743,346 744,346 745,346 746,346 747,346 748,346 749,346 750,346 751,346 752,346 753,346 754,346 755,346 756,345 757,345 758,345 759,344 760,344 761,343 762,343 763,342 764,341 765,340 766,340 767,339 767,338 767,337 767,336 767,335 767,334 767,333 767,332 767,331 767,330 767,329 767,328 767,327 767,326 767,325 767,324 767,323 767,322 767,321 767,320 767,319 767,318 767,317 767,316 767,315 767,314 767,313 767,312 767,311 767,310 767,309 767,308 767,307 767,306 767,305 767,304 767,303 767,302 767,301 767,300 767,299 767,298 767,297 767,296 767,295 767,294 767,293 767,292 767,291 767,290 767,289 767,288 767,287 767,286 767,285 767,284 767,283 767,282 767,281 767,280 767,279 767,278 767,277 767,276 767,275 767,274 767,273 767,272 767,271 767,270 767,269 767,268 767,267 767,266 767,265 767,264 767,263 767,262 767,261 767,260 767,259 767,258 767,257 767,256 767,255 767,254 767,253 767,252 767,251 767,250 767,249 767,248 767,247 767,246 767,245 767,244 767,243 767,242 767,241 767,240 767,239 767,238 767,237 767,236 767,235 767,234 767,233 767,232 767,231 767,230 767,229 767,228 767,227 767,226 767,225 767,224 768,223 768,222 767,221 767,220 767,219 767,218 767,217 767,216 767,215 767,214 767,213 767,212 767,211 767,210 767,209 767,208 767,207 767,206 767,205 767,204 767,203 767,202 767,201 767,200 767,199 767,198 767,197 767,196 767,195 767,194 767,193 767,192 767,191 767,190 767,189 767,188 767,187 767,186 767,185 767,184 767,183 767,182 767,181 767,180 767,179 768,178 767,177 767,176 767,175 767,174 767,173 767,172 767,171 767,170 767,169 767,168 767,167 767,166 767,165 767,164 767,163 767,162 767,161 767,160 768,159 767,158 768,157 768,156 767,155 767,154 768,153 767,152 767,151 767,150 768,149 768,148 768,147 768,146 768,145 768,144 768,143 768,142 768,141 768,140 768,139 768,138 768,137 768,136 768,135 768,134 768,133 768,132 768,131 768,130 768,129 768,128 768,127 768,126 768,125 768,124 768,123 767,123 766,123 765,123 764,123 763,123 762,123 761,123 760,123 759,123 758,123 757,123 756,123 755,123 754,123 753,123 752,122 751,123 750,123 749,122 748,122 747,122 746,122 745,122 744,122 743,122 742,122 741,122 740,122 739,122 738,122 737,122 736,122 735,122 734,122 733,122 732,122 731,122 730,122 729,122 728,122 727,122 726,122 725,122 724,122 723,122 722,122 721,122 720,122 719,122 718,122 717,122 716,122 715,122 714,122 713,122">
      <metadata tailDirection="" confidence="0.88" linkedToCharacter="" id="TetsuSan_047_balloon_11" tailTip=""></metadata>
    </polygon>
    <polygon points="447,122 447,123 447,124 447,125 447,126 447,127 447,128 447,129 447,130 447,131 447,132 447,133 447,134 447,135 447,136 447,137 447,138 447,139 447,140 447,141 448,142 447,143 447,144 447,145 447,146 448,147 448,148 448,149 448,150 447,151 447,152 447,153 447,154 447,155 447,156 447,157 447,158 447,159 447,160 447,161 447,162 447,163 448,164 447,165 447,166 447,167 447,168 447,169 447,170 447,171 447,172 447,173 447,174 447,175 447,176 447,177 447,178 447,179 447,180 447,181 447,182 447,183 447,184 447,185 447,186 447,187 447,188 447,189 447,190 447,191 447,192 447,193 447,194 447,195 447,196 447,197 447,198 447,199 447,200 447,201 447,202 447,203 447,204 447,205 447,206 447,207 448,208 448,209 448,210 448,211 448,212 448,213 448,214 447,215 447,216 447,217 447,218 447,219 447,220 447,221 448,222 448,223 448,224 447,225 447,226 448,227 448,228 448,229 448,230 447,231 447,232 447,233 447,234 448,235 448,236 448,237 447,238 448,239 448,240 448,241 448,242 448,243 447,244 447,245 448,246 448,247 448,248 448,249 448,250 448,251 448,252 448,253 448,254 448,255 448,256 448,257 448,258 448,259 448,260 448,261 448,262 448,263 448,264 448,265 448,266 448,267 448,268 448,269 448,270 448,271 448,272 448,273 448,274 448,275 448,276 448,277 448,278 448,279 448,280 448,281 448,282 448,283 448,284 448,285 448,286 448,287 448,288 448,289 448,290 448,291 448,292 448,293 448,294 448,295 448,296 448,297 448,298 448,299 448,300 448,301 448,302 448,303 448,304 448,305 448,306 448,307 448,308 448,309 448,310 448,311 448,312 448,313 448,314 448,315 448,316 448,317 448,318 448,319 448,320 448,321 448,322 448,323 448,324 448,325 448,326 448,327 448,328 448,329 448,330 448,331 448,332 448,333 448,334 448,335 448,336 448,337 448,338 448,339 448,340 448,341 448,342 448,343 448,344 448,345 448,346 448,347 448,348 448,349 448,350 448,351 448,352 449,352 450,352 451,352 452,352 453,352 454,352 455,352 456,352 457,352 458,352 459,352 460,352 461,352 462,352 463,352 464,352 465,352 466,352 467,352 468,352 469,352 470,352 471,352 472,352 473,352 474,352 475,352 476,352 477,352 478,352 479,352 480,352 481,352 482,352 483,352 484,352 485,352 486,352 487,352 488,352 489,352 490,352 491,352 492,352 493,352 494,352 495,352 496,352 497,352 498,351 499,350 500,349 500,348 501,347 502,346 502,345 503,344 504,343 504,342 505,341 505,340 505,339 506,338 506,337 507,336 507,335 508,334 508,333 508,332 509,331 509,330 509,329 510,328 510,327 510,326 510,325 510,324 510,323 511,322 511,321 511,320 512,319 512,318 512,317 512,316 512,315 512,314 512,313 512,312 512,311 512,310 512,309 513,308 513,307 513,306 513,305 513,304 513,303 513,302 513,301 513,300 513,299 513,298 513,297 514,296 514,295 514,294 514,293 514,292 514,291 514,290 514,289 514,288 514,287 514,286 514,285 514,284 514,283 514,282 514,281 514,280 514,279 514,278 514,277 514,276 514,275 514,274 514,273 514,272 514,271 514,270 514,269 514,268 514,267 514,266 514,265 514,264 513,263 513,262 514,261 513,260 513,259 513,258 513,257 513,256 513,255 513,254 513,253 513,252 513,251 513,250 513,249 513,248 513,247 513,246 513,245 513,244 513,243 513,242 513,241 513,240 513,239 513,238 513,237 513,236 513,235 513,234 513,233 513,232 513,231 513,230 513,229 513,228 513,227 512,226 512,225 512,224 512,223 513,222 514,222 515,222 516,221 517,221 516,221 515,220 514,220 513,219 512,218 512,217 512,216 512,215 513,214 513,213 513,212 513,211 513,210 513,209 513,208 512,207 512,206 512,205 512,204 512,203 512,202 512,201 512,200 512,199 512,198 512,197 512,196 512,195 512,194 512,193 512,192 512,191 511,190 511,189 511,188 511,187 511,186 511,185 511,184 511,183 511,182 511,181 511,180 511,179 510,178 510,177 510,176 510,175 510,174 510,173 510,172 510,171 510,170 509,169 509,168 509,167 509,166 509,165 508,164 508,163 508,162 508,161 508,160 507,159 507,158 507,157 506,156 506,155 506,154 506,153 506,152 505,151 505,150 505,149 505,148 504,147 504,146 504,145 504,144 503,143 503,142 503,141 503,140 502,139 502,138 502,137 501,136 501,135 501,134 500,133 500,132 500,131 499,130 499,129 498,128 498,127 498,126 497,125 496,124 496,123 495,122 494,122 493,122 492,122 491,122 490,122 489,122 488,122 487,122 486,122 485,122 484,122 483,122 482,122 481,122 480,122 479,122 478,122 477,122 476,122 475,122 474,122 473,122 472,122 471,122 470,122 469,122 468,122 467,122 466,122 465,122 464,122 463,122 462,122 461,122 460,122 459,122 458,122 457,122 456,122 455,122 454,122 453,122 452,122 451,122 450,122 449,122 448,122 447,122">
      <metadata tailDirection="" confidence="0.93" linkedToCharacter="" id="TetsuSan_047_balloon_12" tailTip=""></metadata>
    </polygon>
    <polygon points="342,122 342,123 342,124 342,125 341,126 341,127 341,128 341,129 341,130 340,131 340,132 340,133 340,134 340,135 340,136 340,137 339,138 339,139 339,140 339,141 339,142 339,143 339,144 339,145 339,146 339,147 338,148 338,149 338,150 338,151 338,152 338,153 338,154 338,155 337,156 337,157 337,158 337,159 337,160 337,161 337,162 337,163 337,164 337,165 336,166 336,167 336,168 336,169 336,170 336,171 336,172 336,173 336,174 336,175 336,176 336,177 336,178 336,179 336,180 336,181 336,182 336,183 336,184 336,185 336,186 336,187 336,188 336,189 336,190 336,191 336,192 336,193 336,194 336,195 336,196 336,197 336,198 336,199 335,200 336,201 336,202 335,203 334,203 333,203 332,204 331,204 330,204 331,204 332,205 333,205 334,205 335,206 335,207 335,208 335,209 335,210 335,211 335,212 335,213 335,214 335,215 335,216 335,217 335,218 335,219 335,220 335,221 335,222 335,223 335,224 335,225 335,226 335,227 335,228 335,229 335,230 335,231 335,232 335,233 335,234 335,235 335,236 335,237 335,238 335,239 335,240 335,241 335,242 335,243 335,244 336,245 336,246 336,247 336,248 336,249 336,250 336,251 335,252 336,253 336,254 336,255 336,256 336,257 336,258 336,259 336,260 336,261 336,262 336,263 336,264 336,265 336,266 336,267 336,268 336,269 336,270 336,271 336,272 336,273 337,274 337,275 337,276 337,277 337,278 337,279 337,280 337,281 337,282 337,283 337,284 338,285 338,286 338,287 338,288 338,289 338,290 338,291 338,292 338,293 339,294 339,295 339,296 339,297 339,298 339,299 339,300 339,301 339,302 339,303 339,304 340,305 340,306 340,307 340,308 340,309 340,310 340,311 341,312 341,313 341,314 341,315 341,316 341,317 342,318 342,319 342,320 342,321 342,322 342,323 342,324 343,325 343,326 343,327 343,328 343,329 343,330 344,331 344,332 344,333 344,334 344,335 345,336 345,337 345,338 345,339 345,340 346,341 346,342 346,343 347,344 347,345 347,346 347,347 347,348 347,349 348,350 348,351 348,352 349,352 350,352 351,352 352,352 353,352 354,352 355,352 356,352 357,352 358,352 359,352 360,352 361,352 362,352 363,352 364,352 365,352 366,352 367,352 368,352 369,352 370,352 371,352 372,352 373,352 374,352 375,352 376,352 377,352 378,352 379,352 380,352 381,352 382,352 383,352 384,352 385,352 386,352 387,352 388,352 389,352 390,352 391,352 392,352 393,352 394,352 395,352 396,352 397,352 398,352 399,352 400,352 401,352 402,352 403,352 404,352 405,352 406,352 407,352 407,351 407,350 407,349 407,348 407,347 407,346 407,345 407,344 407,343 407,342 407,341 407,340 407,339 407,338 407,337 407,336 407,335 407,334 407,333 407,332 407,331 407,330 407,329 407,328 407,327 407,326 407,325 407,324 407,323 407,322 407,321 407,320 407,319 407,318 407,317 407,316 407,315 407,314 407,313 407,312 407,311 407,310 407,309 407,308 407,307 407,306 407,305 407,304 407,303 407,302 407,301 407,300 407,299 407,298 407,297 407,296 407,295 407,294 407,293 407,292 407,291 407,290 407,289 407,288 407,287 407,286 407,285 407,284 407,283 407,282 407,281 407,280 407,279 407,278 407,277 407,276 407,275 407,274 407,273 407,272 407,271 407,270 407,269 407,268 407,267 407,266 407,265 407,264 407,263 407,262 407,261 407,260 407,259 407,258 407,257 407,256 407,255 407,254 407,253 407,252 407,251 407,250 407,249 407,248 407,247 407,246 407,245 407,244 407,243 407,242 407,241 407,240 407,239 407,238 407,237 407,236 407,235 407,234 407,233 407,232 407,231 407,230 407,229 407,228 407,227 407,226 407,225 407,224 407,223 407,222 407,221 407,220 407,219 407,218 407,217 407,216 407,215 407,214 407,213 407,212 407,211 407,210 407,209 407,208 407,207 407,206 407,205 407,204 407,203 407,202 407,201 407,200 407,199 407,198 407,197 407,196 407,195 407,194 407,193 407,192 407,191 407,190 407,189 407,188 407,187 407,186 407,185 407,184 407,183 407,182 407,181 407,180 407,179 407,178 407,177 407,176 407,175 407,174 407,173 407,172 407,171 407,170 407,169 407,168 407,167 407,166 407,165 407,164 407,163 407,162 407,161 407,160 407,159 407,158 407,157 407,156 407,155 407,154 407,153 407,152 407,151 407,150 407,149 407,148 407,147 407,146 407,145 407,144 407,143 407,142 407,141 407,140 407,139 407,138 407,137 407,136 407,135 407,134 407,133 407,132 407,131 407,130 407,129 407,128 407,127 407,126 407,125 407,124 407,123 407,122 406,122 405,122 404,122 403,122 402,122 401,122 400,122 399,122 398,122 397,122 396,122 395,122 394,122 393,122 392,122 391,122 390,122 389,122 388,122 387,122 386,122 385,122 384,122 383,122 382,122 381,122 380,122 379,122 378,122 377,122 376,122 375,122 374,122 373,122 372,122 371,122 370,122 369,122 368,122 367,122 366,122 365,122 364,122 363,122 362,122 361,122 360,122 359,122 358,122 357,122 356,122 355,122 354,122 353,122 352,122 351,122 350,122 349,122 348,122 347,122 346,122 345,122 344,122 343,122 342,122">
      <metadata tailDirection="" confidence="0.96" linkedToCharacter="" id="TetsuSan_047_balloon_13" tailTip=""></metadata>
    </polygon>
  </svg>
</svg>
