<?xml version="1.0" encoding="UTF-8" standalone="no"?>
<svg width="827" xmlns="http://www.w3.org/2000/svg" version="1.0" height="1170">
  <title>TetsuSan_022</title>
  <svg contentScriptType="text/ecmascript" zoomAndPan="magnify" contentStyleType="text/css" class="Page" preserveAspectRatio="xMidYMid meet" version="1.0">
    <image xmlns:xlink="http://www.w3.org/1999/xlink" x="0" y="0" width="827" height="1170" xlink:href="./../../dataset_Manga109/TetsuSan/TetsuSan_022.jpg" xlink:type="simple" xlink:actuate="onLoad" preserveAspectRatio="xMidYMid meet" xlink:show="embed"/>
  </svg>
  <style type="text/css" xml:space="preserve">
        * { stroke-linejoin: round; }
        .Unclassified   { fill: orange; stroke: none;   opacity: 1.0; visibility: hidden; }
        .Noise          { fill: pink;   stroke: none;   opacity: 0.2; visibility: hidden; }
        .Panel          { fill: none;   stroke: red;    stroke-width:3; opacity: 0.5; visibility: visible; image-rendering: optimizeSpeed; }
        .Line           { fill: green;  stroke: none;   opacity: 0.5; visibility: visible; image-rendering: optimizeSpeed; }
        .TextArea       { fill: grey;   stroke: none;   opacity: 0.2; visibility: visible; image-rendering: optimizeSpeed; }
        .Balloon        { fill: cyan;   stroke: none;   opacity: 0.5; visibility: visible; image-rendering: optimizeSpeed; }
        .Letter         { fill: blue;   stroke: none;   opacity: 0.2; visibility: hidden; }
        .Object, .Character, .Face  { fill: yellow; stroke: none;   opacity: 0.5; visibility: visible; image-rendering: optimizeSpeed; }
        .Page           { fill: white;  stroke: none;    opacity: 0.5; visibility: visible; }
        .linkSBSC { fill: blue; stroke: none; opacity: 1.0; visibility: visible; }
        polygon:hover { opacity:1.0; stroke:red; }
</style>
  <svg xmlns="http://www.w3.org/2000/svg" contentScriptType="text/ecmascript" zoomAndPan="magnify" contentStyleType="text/css" class="Balloon" preserveAspectRatio="xMidYMid meet" version="1.0">
    <polygon points="70,874 69,875 69,876 68,877 68,878 68,879 68,880 68,881 68,882 68,883 68,884 68,885 68,886 68,887 68,888 68,889 68,890 68,891 68,892 68,893 68,894 68,895 68,896 68,897 68,898 68,899 68,900 68,901 68,902 68,903 68,904 68,905 68,906 68,907 68,908 68,909 68,910 68,911 68,912 68,913 68,914 68,915 68,916 68,917 68,918 68,919 68,920 68,921 68,922 68,923 68,924 68,925 68,926 68,927 68,928 68,929 68,930 68,931 68,932 68,933 68,934 68,935 68,936 68,937 68,938 68,939 68,940 68,941 68,942 68,943 68,944 68,945 68,946 68,947 68,948 68,949 68,950 68,951 68,952 68,953 68,954 68,955 68,956 68,957 68,958 68,959 68,960 68,961 68,962 68,963 68,964 68,965 68,966 68,967 68,968 68,969 68,970 68,971 68,972 68,973 68,974 68,975 68,976 68,977 68,978 68,979 68,980 68,981 68,982 68,983 68,984 68,985 68,986 68,987 68,988 68,989 68,990 68,991 68,992 68,993 68,994 68,995 68,996 68,997 68,998 68,999 68,1000 68,1001 68,1002 68,1003 68,1004 68,1005 68,1006 68,1007 68,1008 68,1009 68,1010 68,1011 68,1012 68,1013 68,1014 68,1015 68,1016 68,1017 68,1018 68,1019 68,1020 68,1021 68,1022 68,1023 68,1024 68,1025 68,1026 68,1027 68,1028 68,1029 68,1030 68,1031 68,1032 68,1033 68,1034 68,1035 68,1036 68,1037 68,1038 68,1039 68,1040 68,1041 68,1042 68,1043 68,1044 68,1045 68,1046 68,1047 68,1048 68,1049 68,1050 68,1051 68,1052 68,1053 68,1054 68,1055 68,1056 68,1057 68,1058 68,1059 68,1060 68,1061 68,1062 68,1063 68,1064 68,1065 68,1066 68,1067 68,1068 68,1069 69,1068 70,1068 71,1068 72,1068 73,1068 74,1067 75,1068 76,1068 77,1068 78,1069 79,1069 80,1070 81,1071 82,1072 82,1073 83,1074 83,1075 84,1076 85,1075 86,1074 87,1074 88,1073 89,1072 90,1072 91,1072 92,1072 93,1071 94,1072 95,1072 96,1072 97,1073 98,1073 99,1074 100,1075 100,1076 101,1075 102,1074 102,1073 103,1072 104,1071 105,1070 106,1069 107,1069 108,1068 109,1068 110,1067 111,1067 112,1066 113,1066 114,1065 115,1065 116,1065 117,1065 118,1065 119,1065 120,1065 121,1066 122,1066 123,1066 124,1067 124,1066 124,1065 125,1064 125,1063 125,1062 125,1061 126,1060 126,1059 126,1058 126,1057 127,1056 127,1055 127,1054 128,1053 128,1052 128,1051 129,1050 129,1049 130,1048 130,1047 131,1046 131,1045 132,1044 132,1043 133,1042 133,1041 134,1040 135,1039 135,1038 136,1037 136,1036 137,1035 138,1034 139,1033 140,1032 140,1031 139,1030 139,1029 138,1028 138,1027 138,1026 137,1025 137,1024 137,1023 137,1022 137,1021 136,1020 136,1019 136,1018 136,1017 136,1016 136,1015 136,1014 136,1013 136,1012 136,1011 136,1010 136,1009 136,1008 136,1007 136,1006 136,1005 136,1004 136,1003 136,1002 136,1001 136,1000 136,999 136,998 137,997 137,996 137,995 138,994 138,993 139,992 139,991 139,990 139,989 139,988 139,987 138,986 138,985 138,984 137,983 137,982 137,981 137,980 137,979 137,978 136,977 136,976 136,975 136,974 136,973 136,972 136,971 135,970 135,969 135,968 135,967 135,966 135,965 135,964 135,963 135,962 135,961 135,960 136,959 136,958 136,957 136,956 136,955 137,954 137,953 138,952 138,951 138,950 139,949 138,948 137,947 136,946 136,945 135,944 135,943 135,942 134,941 134,940 134,939 133,938 133,937 133,936 133,935 132,934 132,933 132,932 132,931 132,930 131,929 131,928 131,927 131,926 131,925 131,924 131,923 131,922 131,921 131,920 130,919 130,918 130,917 130,916 130,915 131,914 131,913 131,912 131,911 131,910 131,909 131,908 132,907 132,906 132,905 132,904 132,903 133,902 133,901 133,900 132,899 131,899 130,898 129,897 128,896 127,895 127,894 126,893 126,892 126,891 126,890 126,889 125,888 125,887 125,886 125,885 126,884 126,883 126,882 126,881 126,880 126,879 127,878 127,877 127,876 128,875 128,874 127,874 126,874 125,874 124,874 123,874 122,874 121,874 120,874 119,874 118,874 117,874 116,874 115,874 114,874 113,874 112,874 111,874 110,874 109,874 108,874 107,874 106,874 105,874 104,874 103,874 102,874 101,874 100,874 99,874 98,874 97,874 96,874 95,874 94,874 93,874 92,874 91,874 90,874 89,874 88,874 87,874 86,874 85,874 84,874 83,874 82,874 81,874 80,874 79,874 78,874 77,874 76,874 75,874 74,874 73,874 72,874 71,874 70,874">
      <metadata tailDirection="" confidence="0.96" linkedToCharacter="" id="TetsuSan_022_balloon_0" tailTip=""></metadata>
    </polygon>
    <polygon points="686,872 686,873 686,874 685,875 685,876 685,877 684,878 684,879 684,880 684,881 684,882 684,883 683,884 683,885 683,886 683,887 683,888 683,889 683,890 683,891 683,892 683,893 682,894 682,895 682,896 682,897 682,898 682,899 682,900 682,901 682,902 682,903 682,904 682,905 681,906 681,907 681,908 681,909 681,910 681,911 681,912 681,913 681,914 681,915 681,916 681,917 681,918 681,919 681,920 681,921 681,922 681,923 681,924 681,925 681,926 681,927 681,928 681,929 681,930 681,931 681,932 681,933 681,934 681,935 681,936 681,937 681,938 681,939 681,940 681,941 681,942 681,943 681,944 681,945 681,946 681,947 681,948 681,949 681,950 681,951 681,952 681,953 681,954 682,955 682,956 682,957 682,958 682,959 683,960 683,961 683,962 682,963 681,964 680,964 679,964 678,964 679,965 680,966 681,967 681,968 681,969 681,970 681,971 681,972 681,973 681,974 681,975 680,976 680,977 681,978 681,979 681,980 681,981 681,982 681,983 681,984 681,985 681,986 681,987 681,988 681,989 681,990 681,991 681,992 682,993 682,994 682,995 682,996 682,997 682,998 682,999 683,1000 683,1001 683,1002 683,1003 683,1004 683,1005 684,1006 684,1007 684,1008 684,1009 685,1010 685,1011 685,1012 686,1013 686,1014 686,1015 687,1016 687,1017 688,1018 688,1019 688,1020 688,1021 689,1022 689,1023 690,1024 690,1025 691,1026 691,1027 691,1028 692,1029 693,1030 694,1031 694,1032 695,1033 696,1034 697,1035 698,1036 699,1037 700,1038 701,1039 702,1040 703,1041 704,1041 705,1042 706,1043 707,1044 708,1045 709,1045 710,1046 711,1046 712,1046 713,1046 714,1047 715,1047 716,1047 717,1048 718,1048 719,1048 720,1049 721,1049 722,1049 723,1049 724,1049 725,1049 726,1049 727,1049 728,1049 729,1049 730,1049 731,1049 732,1049 733,1049 734,1049 735,1049 736,1049 737,1049 738,1048 739,1048 740,1048 741,1048 742,1047 743,1047 744,1046 744,1045 744,1044 744,1043 744,1042 744,1041 744,1040 744,1039 744,1038 744,1037 744,1036 744,1035 744,1034 744,1033 744,1032 744,1031 744,1030 744,1029 744,1028 744,1027 744,1026 744,1025 744,1024 744,1023 744,1022 744,1021 744,1020 744,1019 744,1018 744,1017 744,1016 744,1015 744,1014 744,1013 744,1012 744,1011 744,1010 744,1009 744,1008 744,1007 744,1006 744,1005 744,1004 744,1003 744,1002 744,1001 744,1000 744,999 744,998 744,997 744,996 744,995 744,994 744,993 744,992 744,991 744,990 744,989 744,988 744,987 744,986 744,985 744,984 744,983 744,982 744,981 744,980 744,979 744,978 744,977 744,976 744,975 744,974 744,973 744,972 744,971 744,970 744,969 744,968 744,967 744,966 744,965 744,964 744,963 744,962 744,961 744,960 744,959 744,958 744,957 744,956 744,955 744,954 744,953 744,952 744,951 744,950 744,949 744,948 744,947 744,946 744,945 744,944 744,943 744,942 744,941 744,940 744,939 744,938 744,937 744,936 744,935 744,934 744,933 744,932 744,931 744,930 744,929 744,928 744,927 744,926 744,925 744,924 744,923 744,922 744,921 744,920 744,919 744,918 744,917 744,916 744,915 744,914 744,913 744,912 744,911 744,910 744,909 744,908 744,907 744,906 744,905 744,904 744,903 744,902 744,901 744,900 744,899 744,898 744,897 744,896 744,895 744,894 744,893 744,892 744,891 744,890 744,889 744,888 744,887 744,886 744,885 744,884 744,883 744,882 744,881 744,880 744,879 744,878 744,877 744,876 744,875 744,874 744,873 743,872 742,872 741,872 740,872 739,872 738,872 737,872 736,872 735,872 734,872 733,872 732,872 731,872 730,872 729,872 728,872 727,872 726,872 725,872 724,872 723,872 722,872 721,872 720,872 719,872 718,872 717,872 716,872 715,872 714,872 713,872 712,872 711,872 710,872 709,872 708,872 707,872 706,872 705,872 704,872 703,872 702,872 701,872 700,872 699,872 698,872 697,872 696,872 695,872 694,872 693,872 692,872 691,872 690,872 689,872 688,872 687,872 686,872">
      <metadata tailDirection="" confidence="0.95" linkedToCharacter="" id="TetsuSan_022_balloon_1" tailTip=""></metadata>
    </polygon>
    <polygon points="485,872 484,873 483,873 482,873 481,873 480,873 479,873 478,873 477,873 476,873 475,873 474,873 473,873 472,873 471,873 470,873 469,873 468,873 467,873 466,873 465,873 464,873 463,873 462,873 461,873 460,873 459,873 458,873 457,873 456,873 455,873 454,873 453,873 452,873 451,873 450,873 449,873 448,873 447,873 446,873 445,873 444,873 443,873 442,873 441,873 440,873 439,873 438,873 437,873 436,873 435,873 434,873 433,873 432,873 431,873 430,873 429,873 428,873 427,873 427,874 427,875 427,876 427,877 427,878 427,879 427,880 427,881 427,882 427,883 427,884 427,885 427,886 427,887 427,888 427,889 427,890 427,891 427,892 427,893 427,894 427,895 427,896 427,897 427,898 427,899 427,900 427,901 427,902 427,903 427,904 427,905 427,906 427,907 427,908 427,909 427,910 427,911 427,912 427,913 427,914 427,915 427,916 427,917 427,918 427,919 427,920 427,921 427,922 427,923 427,924 427,925 427,926 427,927 427,928 427,929 427,930 427,931 427,932 427,933 427,934 427,935 427,936 427,937 427,938 427,939 427,940 427,941 427,942 427,943 427,944 427,945 427,946 427,947 427,948 427,949 427,950 427,951 427,952 427,953 427,954 427,955 427,956 427,957 427,958 427,959 427,960 427,961 427,962 427,963 427,964 427,965 428,966 428,967 427,968 428,969 428,970 427,971 428,972 428,973 428,974 428,975 427,976 427,977 427,978 427,979 428,980 428,981 428,982 427,983 428,984 428,985 428,986 428,987 428,988 428,989 428,990 428,991 428,992 428,993 428,994 428,995 428,996 428,997 428,998 428,999 428,1000 428,1001 428,1002 428,1003 428,1004 427,1005 427,1006 427,1007 427,1008 427,1009 427,1010 427,1011 427,1012 427,1013 427,1014 427,1015 427,1016 427,1017 428,1018 428,1019 427,1020 427,1021 427,1022 427,1023 427,1024 427,1025 428,1026 427,1027 427,1028 427,1029 428,1029 429,1028 430,1027 431,1027 432,1026 433,1026 434,1026 435,1026 436,1026 437,1026 438,1026 439,1026 440,1026 441,1027 442,1027 443,1028 444,1029 445,1030 446,1031 446,1032 447,1033 447,1034 448,1035 448,1036 449,1037 449,1038 449,1039 450,1038 451,1037 452,1036 453,1035 454,1034 455,1034 456,1033 457,1032 458,1032 459,1031 460,1031 461,1031 462,1030 463,1030 464,1030 465,1030 466,1030 467,1030 468,1031 469,1031 470,1032 471,1033 471,1032 472,1031 472,1030 472,1029 473,1028 473,1027 473,1026 474,1025 474,1024 475,1023 475,1022 475,1021 476,1020 476,1019 477,1018 477,1017 478,1016 479,1015 480,1014 480,1013 481,1012 482,1012 483,1011 484,1010 485,1009 486,1009 487,1008 488,1007 489,1007 490,1007 491,1006 492,1006 493,1006 494,1006 495,1005 496,1005 497,1005 497,1004 496,1003 496,1002 496,1001 496,1000 496,999 495,998 495,997 495,996 495,995 495,994 494,993 494,992 494,991 494,990 494,989 494,988 494,987 494,986 494,985 494,984 494,983 494,982 494,981 494,980 494,979 494,978 494,977 494,976 494,975 494,974 494,973 494,972 495,971 495,970 495,969 495,968 495,967 496,966 496,965 496,964 497,963 497,962 497,961 498,960 499,959 499,958 500,957 500,956 501,955 502,954 503,953 503,952 502,951 502,950 501,949 501,948 500,947 500,946 499,945 499,944 498,943 498,942 498,941 497,940 497,939 497,938 497,937 496,936 496,935 496,934 496,933 495,932 495,931 495,930 495,929 495,928 495,927 495,926 495,925 495,924 495,923 495,922 495,921 495,920 495,919 495,918 495,917 496,916 496,915 496,914 496,913 497,912 497,911 497,910 498,909 498,908 497,907 496,907 495,906 494,905 493,904 492,903 492,902 491,901 491,900 490,899 490,898 489,897 489,896 489,895 488,894 488,893 488,892 488,891 487,890 487,889 487,888 487,887 487,886 487,885 487,884 487,883 487,882 487,881 488,880 488,879 488,878 488,877 489,876 489,875 489,874 490,873 490,872 489,873 488,873 487,873 486,872 485,872">
      <metadata tailDirection="" confidence="0.93" linkedToCharacter="" id="TetsuSan_022_balloon_2" tailTip=""></metadata>
    </polygon>
    <polygon points="687,625 686,626 686,627 685,628 685,629 685,630 684,631 684,632 684,633 683,634 683,635 683,636 682,637 682,638 682,639 682,640 682,641 681,642 681,643 681,644 681,645 681,646 681,647 680,648 680,649 680,650 680,651 680,652 680,653 679,654 679,655 679,656 679,657 679,658 679,659 679,660 679,661 679,662 679,663 679,664 679,665 679,666 679,667 679,668 678,669 678,670 678,671 678,672 678,673 678,674 678,675 678,676 678,677 678,678 678,679 678,680 678,681 678,682 678,683 678,684 678,685 678,686 678,687 678,688 678,689 677,690 676,691 675,691 674,691 673,692 672,691 671,691 672,692 673,693 674,693 675,694 676,694 677,695 678,696 678,697 678,698 678,699 678,700 678,701 678,702 678,703 678,704 678,705 677,706 677,707 677,708 677,709 677,710 677,711 677,712 677,713 677,714 676,715 676,716 676,717 676,718 676,719 676,720 676,721 676,722 676,723 676,724 675,725 675,726 675,727 675,728 675,729 675,730 675,731 675,732 675,733 675,734 675,735 674,736 674,737 674,738 674,739 674,740 675,741 675,742 675,743 675,744 675,745 675,746 675,747 675,748 675,749 675,750 674,751 674,752 674,753 674,754 674,755 674,756 674,757 674,758 674,759 674,760 674,761 673,762 673,763 673,764 673,765 673,766 673,767 673,768 673,769 673,770 673,771 673,772 673,773 673,774 673,775 673,776 673,777 673,778 673,779 673,780 673,781 673,782 673,783 673,784 673,785 674,786 674,787 673,788 674,789 674,790 674,791 674,792 674,793 674,794 674,795 674,796 674,797 674,798 675,799 675,800 675,801 675,802 675,803 675,804 676,805 676,806 676,807 676,808 677,809 677,810 677,811 677,812 677,813 678,814 678,815 679,816 679,817 679,818 680,819 680,820 680,821 681,822 681,823 681,824 682,825 683,826 683,827 684,828 684,829 684,830 685,831 686,832 686,833 687,834 687,835 687,836 688,837 689,838 689,839 690,840 690,841 691,842 692,843 693,844 693,845 694,846 695,847 696,848 697,849 698,850 699,851 700,852 701,852 702,853 703,854 704,855 705,855 706,855 707,855 708,855 709,855 710,855 711,855 712,855 713,855 714,855 715,855 716,855 717,855 718,855 719,855 720,855 721,855 722,855 723,855 724,855 725,855 726,855 727,855 728,855 729,855 730,855 731,855 732,855 733,855 734,855 735,855 736,855 737,855 738,855 739,854 740,854 741,854 742,854 743,854 743,853 743,852 743,851 743,850 743,849 743,848 743,847 743,846 743,845 743,844 743,843 743,842 743,841 743,840 743,839 743,838 743,837 743,836 743,835 743,834 743,833 743,832 743,831 744,830 744,829 743,828 744,827 744,826 744,825 744,824 744,823 744,822 744,821 744,820 744,819 744,818 744,817 744,816 744,815 744,814 744,813 744,812 744,811 744,810 744,809 744,808 744,807 744,806 744,805 744,804 744,803 744,802 744,801 744,800 744,799 744,798 744,797 744,796 744,795 744,794 744,793 744,792 744,791 744,790 744,789 744,788 744,787 744,786 744,785 744,784 744,783 744,782 744,781 744,780 744,779 744,778 744,777 744,776 744,775 744,774 744,773 744,772 744,771 744,770 744,769 744,768 744,767 744,766 744,765 744,764 744,763 744,762 744,761 744,760 744,759 744,758 744,757 744,756 744,755 744,754 744,753 744,752 744,751 744,750 743,749 743,748 744,747 744,746 744,745 744,744 744,743 744,742 744,741 744,740 744,739 744,738 744,737 744,736 744,735 744,734 744,733 744,732 744,731 744,730 744,729 743,728 743,727 743,726 743,725 743,724 743,723 743,722 743,721 743,720 743,719 743,718 743,717 743,716 743,715 743,714 743,713 743,712 743,711 743,710 743,709 743,708 743,707 743,706 743,705 743,704 743,703 743,702 743,701 743,700 743,699 743,698 743,697 743,696 743,695 743,694 743,693 743,692 743,691 743,690 743,689 743,688 743,687 743,686 743,685 743,684 743,683 743,682 743,681 743,680 743,679 743,678 743,677 743,676 743,675 743,674 743,673 743,672 743,671 743,670 743,669 743,668 743,667 743,666 743,665 743,664 743,663 743,662 743,661 743,660 743,659 743,658 743,657 743,656 743,655 743,654 743,653 743,652 743,651 743,650 743,649 743,648 743,647 743,646 743,645 743,644 743,643 744,642 743,641 743,640 743,639 743,638 743,637 743,636 743,635 743,634 743,633 743,632 743,631 743,630 743,629 743,628 743,627 743,626 743,625 742,625 741,625 740,625 739,625 738,625 737,625 736,625 735,625 734,625 733,625 732,625 731,625 730,625 729,625 728,625 727,625 726,625 725,625 724,625 723,625 722,625 721,625 720,625 719,625 718,625 717,625 716,625 715,625 714,625 713,625 712,625 711,625 710,625 709,625 708,625 707,625 706,625 705,625 704,625 703,625 702,625 701,625 700,625 699,625 698,625 697,625 696,625 695,625 694,625 693,625 692,625 691,625 690,625 689,625 688,625 687,625">
      <metadata tailDirection="" confidence="0.99" linkedToCharacter="" id="TetsuSan_022_balloon_3" tailTip=""></metadata>
    </polygon>
    <polygon points="429,624 428,625 427,626 427,627 427,628 427,629 427,630 427,631 427,632 427,633 428,634 427,635 427,636 427,637 427,638 427,639 427,640 427,641 428,642 428,643 428,644 427,645 427,646 427,647 427,648 427,649 427,650 427,651 427,652 427,653 427,654 427,655 427,656 427,657 427,658 427,659 427,660 427,661 427,662 427,663 427,664 427,665 427,666 427,667 427,668 427,669 427,670 427,671 427,672 427,673 427,674 427,675 427,676 427,677 427,678 427,679 427,680 427,681 427,682 427,683 427,684 427,685 427,686 427,687 427,688 427,689 427,690 427,691 427,692 427,693 427,694 427,695 427,696 427,697 427,698 427,699 427,700 427,701 427,702 427,703 427,704 427,705 427,706 427,707 427,708 427,709 427,710 427,711 427,712 427,713 427,714 427,715 427,716 427,717 427,718 427,719 427,720 427,721 427,722 427,723 427,724 427,725 427,726 427,727 427,728 427,729 427,730 427,731 427,732 427,733 427,734 427,735 427,736 427,737 427,738 427,739 427,740 427,741 427,742 427,743 427,744 427,745 427,746 427,747 427,748 427,749 427,750 427,751 427,752 427,753 427,754 427,755 427,756 427,757 427,758 427,759 427,760 427,761 427,762 427,763 427,764 427,765 427,766 427,767 427,768 427,769 427,770 427,771 427,772 427,773 427,774 427,775 427,776 427,777 427,778 427,779 427,780 427,781 427,782 427,783 427,784 427,785 427,786 427,787 427,788 427,789 427,790 427,791 427,792 427,793 427,794 427,795 427,796 427,797 427,798 428,797 429,797 430,796 431,796 432,796 433,796 434,796 435,796 436,795 437,795 438,796 439,796 440,796 441,796 442,797 443,798 444,799 444,800 445,801 445,802 446,803 446,804 447,804 448,804 449,803 450,803 451,802 452,802 453,802 454,802 455,803 456,803 457,804 458,804 459,805 459,806 460,807 460,806 461,805 461,804 462,803 463,802 463,801 464,800 465,799 466,798 467,797 468,796 469,795 470,794 471,793 472,792 473,792 474,791 475,790 476,790 477,789 478,788 479,788 480,787 481,787 482,786 483,786 484,786 485,785 486,785 487,784 488,784 489,784 490,783 491,783 492,783 493,783 494,783 494,782 494,781 493,780 493,779 493,778 493,777 493,776 493,775 493,774 493,773 492,772 492,771 492,770 492,769 492,768 493,767 493,766 493,765 493,764 493,763 493,762 493,761 493,760 493,759 493,758 494,757 494,756 494,755 494,754 494,753 495,752 495,751 495,750 496,749 496,748 497,747 497,746 498,745 498,744 499,743 500,742 500,741 500,740 500,739 500,738 500,737 500,736 499,735 499,734 499,733 499,732 499,731 498,730 498,729 498,728 498,727 498,726 498,725 498,724 498,723 499,722 499,721 499,720 499,719 499,718 499,717 499,716 499,715 499,714 500,713 500,712 500,711 501,710 501,709 502,708 502,707 501,706 501,705 500,704 500,703 499,702 499,701 499,700 499,699 498,698 498,697 498,696 498,695 497,694 497,693 497,692 497,691 497,690 497,689 497,688 497,687 496,686 496,685 496,684 495,683 495,682 495,681 495,680 495,679 495,678 495,677 495,676 495,675 496,674 496,673 496,672 497,671 496,670 496,669 496,668 496,667 495,666 495,665 495,664 495,663 495,662 495,661 495,660 495,659 496,658 496,657 496,656 496,655 495,654 494,654 493,653 492,653 491,652 490,651 489,650 488,649 488,648 488,647 487,646 487,645 487,644 487,643 486,642 486,641 486,640 486,639 486,638 486,637 486,636 486,635 486,634 486,633 486,632 486,631 486,630 487,629 487,628 487,627 487,626 487,625 486,624 485,624 484,624 483,624 482,624 481,624 480,624 479,624 478,624 477,624 476,624 475,624 474,624 473,624 472,624 471,624 470,624 469,624 468,624 467,624 466,624 465,624 464,624 463,624 462,624 461,624 460,624 459,624 458,624 457,624 456,624 455,624 454,624 453,624 452,624 451,624 450,624 449,624 448,624 447,624 446,624 445,624 444,624 443,624 442,624 441,624 440,624 439,624 438,624 437,624 436,624 435,624 434,624 433,624 432,624 431,624 430,624 429,624">
      <metadata tailDirection="" confidence="0.90" linkedToCharacter="" id="TetsuSan_022_balloon_4" tailTip=""></metadata>
    </polygon>
    <polygon points="70,624 69,625 69,626 69,627 69,628 69,629 69,630 68,631 68,632 69,633 68,634 68,635 68,636 68,637 68,638 68,639 68,640 68,641 68,642 68,643 68,644 68,645 68,646 68,647 68,648 68,649 68,650 68,651 68,652 68,653 68,654 68,655 68,656 68,657 68,658 68,659 68,660 68,661 68,662 68,663 68,664 68,665 68,666 68,667 68,668 68,669 68,670 68,671 68,672 68,673 68,674 68,675 68,676 68,677 68,678 68,679 68,680 68,681 68,682 68,683 68,684 68,685 68,686 68,687 68,688 68,689 68,690 68,691 68,692 68,693 68,694 68,695 68,696 68,697 68,698 68,699 68,700 68,701 68,702 68,703 68,704 68,705 68,706 68,707 68,708 68,709 68,710 68,711 68,712 68,713 68,714 68,715 68,716 68,717 68,718 68,719 68,720 68,721 68,722 68,723 68,724 68,725 68,726 68,727 68,728 68,729 68,730 68,731 68,732 68,733 68,734 68,735 68,736 68,737 68,738 68,739 68,740 68,741 68,742 68,743 68,744 68,745 68,746 68,747 68,748 68,749 68,750 68,751 68,752 68,753 68,754 68,755 68,756 68,757 68,758 68,759 68,760 68,761 68,762 68,763 68,764 68,765 68,766 68,767 68,768 68,769 68,770 68,771 68,772 68,773 68,774 68,775 68,776 68,777 68,778 68,779 68,780 68,781 68,782 68,783 68,784 68,785 68,786 68,787 68,788 68,789 68,790 68,791 68,792 68,793 68,794 68,795 68,796 68,797 68,798 68,799 68,800 68,801 68,802 68,803 68,804 68,805 68,806 68,807 68,808 68,809 68,810 68,811 68,812 68,813 68,814 68,815 68,816 68,817 68,818 68,819 68,820 68,821 68,822 68,823 68,824 68,825 68,826 68,827 68,828 68,829 68,830 68,831 68,832 68,833 68,834 68,835 68,836 68,837 68,838 68,839 68,840 68,841 68,842 68,843 68,844 68,845 68,846 68,847 68,848 68,849 68,850 68,851 68,852 68,853 68,854 68,855 69,856 70,856 71,856 72,856 73,856 74,856 75,856 76,856 77,856 78,856 79,856 80,856 81,856 82,856 83,856 84,856 85,856 86,856 87,856 88,856 89,856 90,856 91,856 92,856 93,856 94,856 95,856 96,856 97,856 98,856 99,856 100,856 101,856 102,856 103,856 104,856 105,856 106,856 107,856 108,856 109,856 110,856 111,856 112,856 113,856 114,856 115,856 116,856 117,856 118,856 119,856 120,856 121,856 122,856 123,856 124,855 125,854 125,853 126,852 127,851 127,850 128,849 129,848 129,847 130,846 131,845 131,844 132,843 132,842 133,841 133,840 133,839 133,838 133,837 133,836 133,835 133,834 133,833 133,832 133,831 133,830 133,829 133,828 133,827 133,826 133,825 133,824 133,823 133,822 133,821 133,820 133,819 133,818 133,817 133,816 133,815 133,814 133,813 133,812 133,811 133,810 133,809 133,808 133,807 133,806 134,805 134,804 134,803 134,802 134,801 134,800 134,799 134,798 134,797 134,796 134,795 134,794 134,793 134,792 134,791 134,790 134,789 134,788 134,787 134,786 134,785 134,784 134,783 134,782 134,781 134,780 134,779 134,778 134,777 134,776 134,775 134,774 134,773 134,772 135,771 135,770 135,769 135,768 135,767 135,766 135,765 135,764 135,763 135,762 135,761 135,760 135,759 135,758 135,757 135,756 135,755 135,754 135,753 135,752 135,751 135,750 135,749 135,748 135,747 135,746 135,745 135,744 135,743 135,742 135,741 135,740 135,739 135,738 135,737 135,736 135,735 135,734 135,733 135,732 135,731 135,730 135,729 135,728 136,727 136,726 136,725 136,724 136,723 136,722 136,721 136,720 136,719 136,718 136,717 136,716 136,715 136,714 136,713 136,712 136,711 136,710 136,709 136,708 136,707 136,706 136,705 136,704 136,703 136,702 136,701 136,700 136,699 136,698 136,697 136,696 136,695 136,694 136,693 136,692 136,691 136,690 136,689 136,688 136,687 136,686 136,685 136,684 136,683 137,682 137,681 137,680 137,679 137,678 137,677 137,676 137,675 137,674 137,673 137,672 137,671 137,670 137,669 137,668 137,667 137,666 137,665 137,664 137,663 137,662 137,661 137,660 137,659 137,658 137,657 137,656 138,655 138,654 137,653 138,652 139,651 140,652 141,653 141,654 141,655 141,656 141,657 141,658 141,659 141,660 141,661 141,662 141,663 141,664 141,665 141,666 141,667 141,668 141,669 141,670 141,671 141,672 141,673 141,674 141,675 141,676 141,677 141,678 141,679 141,680 141,681 141,682 141,683 141,684 141,685 141,686 141,687 141,688 140,689 140,690 140,691 140,692 140,693 140,694 140,695 140,696 140,697 140,698 140,699 140,700 140,701 140,702 140,703 140,704 140,705 140,706 140,707 140,708 140,709 140,710 140,711 140,712 140,713 140,714 140,715 140,716 140,717 140,718 140,719 140,720 140,721 140,722 140,723 140,724 140,725 140,726 140,727 140,728 140,729 140,730 140,731 140,732 140,733 140,734 140,735 140,736 140,737 140,738 140,739 140,740 140,741 140,742 140,743 140,744 140,745 140,746 140,747 140,748 140,749 140,750 140,751 140,752 140,753 139,754 139,755 139,756 139,757 139,758 139,759 139,760 139,761 139,762 139,763 139,764 139,765 139,766 139,767 139,768 139,769 139,770 139,771 139,772 139,773 139,774 139,775 139,776 139,777 139,778 139,779 139,780 139,781 139,782 139,783 139,784 139,785 139,786 139,787 139,788 139,789 139,790 139,791 139,792 139,793 139,794 139,795 139,796 139,797 138,798 138,799 138,800 138,801 138,802 138,803 138,804 138,805 138,806 138,807 138,808 138,809 138,810 138,811 138,812 138,813 138,814 138,815 138,816 138,817 138,818 138,819 138,820 138,821 138,822 138,823 138,824 138,825 138,826 138,827 138,828 138,829 138,830 138,831 137,832 137,833 136,834 136,835 136,836 136,837 136,838 136,839 136,840 137,841 137,842 137,843 136,844 135,845 135,846 134,847 133,848 133,849 132,850 131,851 131,852 130,853 129,854 129,855 128,856 129,856 130,856 131,855 131,854 132,853 133,852 133,851 134,850 135,849 135,848 136,847 136,846 137,845 138,844 139,843 140,843 141,843 142,843 143,844 144,843 145,844 146,844 145,843 144,842 143,841 142,840 141,839 142,838 143,837 144,838 144,839 145,840 146,841 147,842 148,843 149,844 150,845 150,846 149,847 148,847 147,847 146,847 145,846 144,846 143,846 142,846 141,846 140,847 140,848 139,849 139,850 140,851 141,851 142,852 143,852 144,853 145,853 146,853 147,853 148,853 149,853 150,854 151,854 152,854 153,854 154,854 155,854 156,854 157,854 158,853 159,853 160,853 161,853 162,853 163,853 164,853 165,853 166,853 167,852 168,852 169,852 170,851 171,851 172,851 173,850 174,850 175,849 176,849 177,848 178,847 179,846 180,846 181,845 182,844 183,843 184,842 185,841 186,840 186,839 186,838 186,837 187,836 187,835 187,834 187,833 187,832 187,831 187,830 187,829 187,828 187,827 187,826 187,825 187,824 186,823 186,822 186,821 186,820 186,819 185,818 185,817 185,816 184,815 184,814 183,813 183,812 183,811 182,810 182,809 181,808 181,807 180,806 180,805 179,804 179,803 178,802 177,801 177,800 176,799 175,798 175,797 174,796 173,795 173,794 172,793 171,793 170,792 169,792 168,792 167,791 166,791 165,791 164,791 163,790 162,790 161,790 160,789 159,789 158,788 157,788 156,787 155,787 154,786 155,787 156,788 157,789 158,790 159,791 160,791 161,792 160,793 159,794 158,794 157,794 156,793 155,793 154,793 153,792 152,792 151,791 150,791 149,790 148,790 147,789 146,788 145,787 144,786 144,785 144,786 144,787 144,788 144,789 144,790 144,791 144,792 144,793 144,794 144,795 144,796 144,797 144,798 144,799 144,800 144,801 144,802 144,803 144,804 143,805 144,806 144,807 144,808 144,809 143,810 143,811 144,812 143,813 143,814 143,815 143,816 143,817 143,818 143,819 143,820 143,821 143,822 143,823 143,824 143,825 143,826 143,827 143,828 143,829 143,830 142,831 141,832 140,831 140,830 140,829 139,828 139,827 139,826 139,825 139,824 139,823 139,822 139,821 139,820 139,819 139,818 139,817 139,816 139,815 139,814 139,813 139,812 139,811 139,810 139,809 139,808 139,807 139,806 139,805 139,804 139,803 139,802 139,801 140,800 139,799 140,798 140,797 140,796 140,795 140,794 140,793 140,792 140,791 140,790 140,789 140,788 140,787 140,786 140,785 140,784 140,783 140,782 140,781 140,780 140,779 140,778 140,777 140,776 140,775 140,774 140,773 140,772 140,771 140,770 140,769 140,768 140,767 140,766 141,765 141,764 141,763 141,762 141,761 141,760 141,759 141,758 141,757 141,756 141,755 141,754 141,753 141,752 141,751 141,750 141,749 141,748 141,747 141,746 141,745 141,744 141,743 141,742 141,741 141,740 141,739 141,738 141,737 141,736 141,735 141,734 141,733 141,732 141,731 141,730 141,729 141,728 141,727 141,726 141,725 141,724 141,723 141,722 141,721 141,720 141,719 141,718 141,717 141,716 141,715 141,714 141,713 141,712 141,711 141,710 141,709 142,708 142,707 142,706 141,705 141,704 141,703 142,702 142,701 142,700 142,699 142,698 142,697 142,696 142,695 142,694 142,693 142,692 142,691 142,690 142,689 142,688 142,687 142,686 142,685 142,684 142,683 142,682 142,681 142,680 142,679 142,678 142,677 142,676 142,675 142,674 142,673 142,672 142,671 142,670 142,669 142,668 142,667 142,666 142,665 142,664 142,663 142,662 142,661 142,660 142,659 142,658 142,657 142,656 142,655 142,654 142,653 142,652 142,651 143,650 144,651 144,652 144,653 144,654 144,655 144,656 144,657 144,658 144,659 144,660 144,661 144,662 144,663 144,664 144,665 144,666 144,665 144,664 144,663 144,662 144,661 144,660 144,659 144,658 144,657 144,656 144,655 144,654 144,653 144,652 144,651 144,650 144,649 144,648 145,647 146,648 146,649 147,649 147,648 148,647 147,647 146,647 145,647 144,646 144,645 143,644 142,643 142,642 141,641 140,640 140,639 139,638 138,637 137,636 137,635 136,634 135,633 134,632 134,631 133,630 132,629 131,628 131,627 130,626 129,625 129,624 128,624 127,624 128,625 128,626 129,627 130,628 130,629 131,630 132,631 133,632 133,633 134,634 135,635 135,636 136,637 136,638 135,639 134,640 133,639 132,638 132,637 131,636 130,635 129,634 129,633 128,632 127,631 126,630 126,629 125,628 124,627 123,626 122,625 122,624 121,624 120,624 119,624 118,624 117,624 116,624 115,624 114,624 113,624 112,624 111,624 110,624 109,624 108,624 107,624 106,624 105,624 104,624 103,624 102,624 101,624 100,624 99,624 98,624 97,624 96,624 95,624 94,624 93,624 92,624 91,624 90,624 89,624 88,624 87,624 86,624 85,624 84,624 83,624 82,624 81,624 80,624 79,624 78,624 77,624 76,624 75,624 74,624 73,624 72,624 71,624 70,624">
      <metadata tailDirection="" confidence="0.82" linkedToCharacter="" id="TetsuSan_022_balloon_5" tailTip=""></metadata>
    </polygon>
    <polygon points="692,375 692,376 691,377 690,378 690,379 689,380 688,381 688,382 688,383 687,384 687,385 687,386 686,387 686,388 686,389 686,390 686,391 686,392 686,393 685,394 685,395 685,396 685,397 684,398 684,399 684,400 684,401 684,402 684,403 684,404 684,405 684,406 684,407 683,408 683,409 683,410 683,411 683,412 683,413 683,414 683,415 683,416 683,417 683,418 683,419 683,420 683,421 683,422 683,423 683,424 683,425 683,426 683,427 683,428 683,429 683,430 683,431 684,432 684,433 684,434 684,435 684,436 684,437 684,438 684,439 684,440 685,441 685,442 685,443 686,444 687,445 687,446 686,447 686,448 686,449 686,450 686,451 686,452 686,453 686,454 686,455 686,456 686,457 686,458 686,459 686,460 686,461 686,462 686,463 686,464 686,465 686,466 687,467 687,468 687,469 686,470 685,471 684,472 683,473 684,473 685,473 686,472 687,472 688,471 689,471 690,472 690,473 690,474 691,475 691,476 692,477 692,478 693,479 694,480 694,481 695,482 695,483 696,484 697,485 698,486 699,487 700,488 701,488 702,489 703,490 704,490 705,491 706,491 707,492 708,492 709,492 710,493 711,493 712,493 713,493 714,494 715,494 716,494 717,494 718,494 719,494 720,495 721,495 722,495 723,495 724,495 725,495 726,495 727,495 728,495 729,494 730,494 731,494 732,494 733,494 734,494 735,494 736,493 737,493 738,493 739,493 740,492 741,492 742,492 743,492 744,491 744,490 744,489 744,488 744,487 744,486 744,485 744,484 743,483 744,482 744,481 744,480 744,479 744,478 744,477 744,476 743,475 743,474 744,473 744,472 743,471 743,470 744,469 743,468 743,467 743,466 743,465 743,464 743,463 743,462 743,461 743,460 743,459 743,458 743,457 743,456 743,455 743,454 743,453 743,452 743,451 743,450 743,449 743,448 743,447 744,446 744,445 744,444 744,443 743,442 743,441 743,440 743,439 743,438 743,437 743,436 743,435 743,434 743,433 743,432 743,431 743,430 743,429 744,428 743,427 743,426 743,425 743,424 743,423 743,422 743,421 743,420 743,419 743,418 743,417 743,416 743,415 743,414 743,413 743,412 743,411 743,410 743,409 743,408 743,407 743,406 743,405 743,404 743,403 743,402 743,401 743,400 743,399 743,398 743,397 743,396 743,395 743,394 743,393 743,392 743,391 744,390 743,389 743,388 743,387 743,386 743,385 743,384 744,383 744,382 744,381 743,380 743,379 743,378 743,377 743,376 742,376 741,376 740,376 739,375 738,375 737,375 736,375 735,375 734,376 733,375 732,375 731,375 730,375 729,375 728,375 727,375 726,375 725,375 724,375 723,375 722,375 721,375 720,375 719,375 718,375 717,375 716,375 715,375 714,375 713,375 712,375 711,375 710,375 709,375 708,375 707,375 706,375 705,375 704,375 703,375 702,375 701,375 700,375 699,375 698,375 697,375 696,375 695,375 694,375 693,375 692,375">
      <metadata tailDirection="" confidence="0.98" linkedToCharacter="" id="TetsuSan_022_balloon_6" tailTip=""></metadata>
    </polygon>
    <polygon points="428,375 428,376 428,377 428,378 428,379 428,380 428,381 428,382 428,383 427,384 427,385 427,386 427,387 427,388 427,389 427,390 427,391 427,392 427,393 427,394 427,395 427,396 427,397 427,398 428,399 427,400 427,401 427,402 428,403 427,404 427,405 428,406 427,407 427,408 427,409 427,410 427,411 427,412 427,413 427,414 427,415 427,416 427,417 427,418 427,419 427,420 427,421 427,422 427,423 427,424 427,425 427,426 427,427 428,428 427,429 427,430 427,431 427,432 427,433 427,434 427,435 427,436 427,437 427,438 427,439 427,440 427,441 427,442 428,443 428,444 428,445 428,446 428,447 428,448 428,449 428,450 428,451 428,452 428,453 428,454 428,455 428,456 428,457 428,458 427,459 427,460 428,461 428,462 427,463 428,464 428,465 428,466 428,467 428,468 428,469 428,470 428,471 428,472 427,473 427,474 428,475 428,476 428,477 428,478 428,479 428,480 428,481 428,482 428,483 427,484 428,485 427,486 427,487 427,488 427,489 427,490 427,491 427,492 427,493 427,494 427,495 427,496 427,497 427,498 428,499 428,500 427,501 427,502 427,503 427,504 428,505 427,506 427,507 427,508 427,509 427,510 427,511 427,512 427,513 427,514 427,515 427,516 427,517 427,518 427,519 427,520 427,521 427,522 427,523 427,524 427,525 427,526 427,527 427,528 427,529 427,530 427,531 427,532 427,533 427,534 427,535 427,536 428,536 429,535 430,534 431,534 432,534 433,533 434,533 435,533 436,533 437,533 438,533 439,534 440,534 441,534 442,535 443,535 444,536 445,537 446,538 446,539 447,540 448,541 448,542 448,543 449,543 450,542 451,541 452,541 453,541 454,540 455,540 456,539 457,539 458,539 459,539 460,539 461,539 462,540 463,540 464,541 465,541 466,542 467,543 468,544 468,543 468,542 468,541 469,540 470,539 470,538 471,537 472,536 473,535 473,534 474,533 475,533 476,532 477,531 478,530 479,530 480,529 481,529 482,528 483,528 484,528 485,528 486,527 487,527 488,527 489,527 490,527 491,528 492,528 493,528 494,529 494,528 494,527 494,526 494,525 494,524 494,523 494,522 494,521 494,520 494,519 494,518 494,517 494,516 494,515 494,514 494,513 494,512 495,511 495,510 495,509 495,508 495,507 495,506 496,505 496,504 496,503 496,502 496,501 496,500 496,499 497,498 497,497 497,496 497,495 498,494 498,493 498,492 498,491 499,490 499,489 499,488 500,487 500,486 501,485 501,484 501,483 502,482 502,481 503,480 503,479 504,478 505,477 505,476 506,475 507,474 508,473 509,473 508,472 508,471 507,470 507,469 506,468 506,467 506,466 505,465 505,464 505,463 505,462 505,461 504,460 504,459 504,458 504,457 504,456 504,455 504,454 504,453 503,452 503,451 503,450 503,449 503,448 503,447 503,446 503,445 503,444 503,443 503,442 503,441 503,440 504,439 504,438 504,437 505,436 504,435 504,434 503,433 503,432 502,431 502,430 501,429 501,428 501,427 501,426 501,425 501,424 501,423 501,422 501,421 500,420 500,419 499,418 499,417 499,416 498,415 498,414 498,413 498,412 498,411 498,410 499,409 499,408 499,407 500,406 500,405 500,404 501,403 501,402 501,401 501,400 501,399 502,398 502,397 501,396 500,396 499,395 498,394 497,393 496,392 496,391 496,390 496,389 495,388 495,387 495,386 495,385 495,384 495,383 495,382 496,381 496,380 496,379 496,378 496,377 497,376 496,375 495,375 494,375 493,375 492,375 491,375 490,375 489,375 488,375 487,375 486,375 485,375 484,375 483,375 482,375 481,375 480,375 479,375 478,375 477,375 476,375 475,375 474,375 473,375 472,375 471,375 470,375 469,375 468,375 467,375 466,375 465,375 464,375 463,375 462,375 461,375 460,375 459,375 458,375 457,375 456,375 455,375 454,375 453,375 452,375 451,375 450,375 449,375 448,375 447,375 446,375 445,375 444,375 443,375 442,375 441,375 440,375 439,375 438,375 437,375 436,375 435,375 434,375 433,375 432,375 431,375 430,375 429,375 428,375">
      <metadata tailDirection="" confidence="0.93" linkedToCharacter="" id="TetsuSan_022_balloon_7" tailTip=""></metadata>
    </polygon>
    <polygon points="321,375 321,376 320,377 319,378 318,379 317,380 317,381 316,382 316,383 315,384 315,385 315,386 314,387 314,388 314,389 314,390 314,391 314,392 314,393 314,394 314,395 314,396 314,397 314,398 315,399 315,400 315,401 315,402 316,403 316,404 316,405 317,406 317,407 317,408 318,409 318,410 318,411 319,412 318,413 317,414 317,415 316,416 315,417 314,418 314,419 313,420 313,421 313,422 312,423 312,424 312,425 312,426 312,427 311,428 311,429 311,430 311,431 312,432 312,433 312,434 312,435 312,436 312,437 312,438 312,439 313,440 313,441 313,442 313,443 314,444 314,445 315,446 315,447 316,448 315,449 314,449 313,449 312,450 311,450 310,449 309,449 308,449 309,450 310,450 311,451 312,451 313,452 314,452 315,453 315,454 314,455 313,456 312,457 312,458 311,459 311,460 310,461 310,462 310,463 310,464 310,465 310,466 310,467 311,468 311,469 311,470 311,471 312,472 312,473 313,474 313,475 314,476 314,477 315,478 315,479 316,480 315,481 315,482 314,483 313,484 313,485 312,486 312,487 312,488 311,489 311,490 311,491 311,492 311,493 311,494 311,495 311,496 311,497 312,498 312,499 312,500 312,501 313,502 313,503 314,504 314,505 315,506 315,507 316,508 317,509 317,510 318,511 319,511 320,512 321,512 322,513 322,514 321,515 320,516 320,517 320,518 320,519 320,520 320,521 320,522 320,523 320,524 320,525 320,526 320,527 321,528 322,529 322,530 323,531 324,532 325,533 326,533 327,534 328,535 329,535 330,535 331,536 332,536 333,536 334,536 335,536 336,536 337,536 338,536 339,535 340,535 341,535 342,536 343,537 343,538 344,539 345,540 346,541 347,541 348,542 349,542 350,543 351,543 352,543 353,543 354,543 355,543 356,543 357,543 358,543 359,543 360,543 361,543 362,543 363,542 364,542 365,541 366,540 367,539 368,538 369,537 370,536 371,536 372,537 373,538 374,539 375,539 376,540 377,540 378,540 379,541 380,541 381,541 382,541 383,541 384,541 385,541 386,541 387,540 388,540 388,539 388,538 388,537 388,536 388,535 388,534 388,533 388,532 388,531 388,530 388,529 388,528 388,527 388,526 388,525 388,524 388,523 388,522 388,521 388,520 388,519 388,518 388,517 388,516 388,515 388,514 388,513 388,512 388,511 388,510 388,509 388,508 388,507 388,506 388,505 388,504 388,503 388,502 388,501 388,500 387,499 387,498 387,497 388,496 388,495 388,494 388,493 387,492 387,491 388,490 387,489 387,488 387,487 387,486 387,485 387,484 388,483 388,482 388,481 387,480 387,479 387,478 387,477 387,476 387,475 388,474 388,473 387,472 388,471 388,470 388,469 388,468 388,467 388,466 388,465 388,464 388,463 387,462 387,461 388,460 388,459 388,458 388,457 387,456 388,455 388,454 387,453 387,452 387,451 387,450 388,449 388,448 388,447 388,446 388,445 388,444 388,443 388,442 388,441 388,440 388,439 388,438 388,437 388,436 388,435 388,434 388,433 388,432 388,431 388,430 388,429 388,428 388,427 388,426 388,425 388,424 388,423 388,422 388,421 388,420 388,419 388,418 388,417 388,416 388,415 388,414 388,413 388,412 388,411 388,410 388,409 388,408 388,407 388,406 388,405 388,404 388,403 388,402 388,401 388,400 388,399 388,398 388,397 388,396 388,395 388,394 388,393 388,392 388,391 388,390 388,389 388,388 388,387 388,386 388,385 388,384 388,383 388,382 387,381 387,380 387,379 387,378 387,377 387,376 386,376 385,376 384,376 383,376 382,376 381,375 380,375 379,375 378,375 377,375 376,375 375,375 374,375 373,375 372,375 371,375 370,375 369,375 368,375 367,375 366,375 365,375 364,375 363,375 362,375 361,375 360,375 359,375 358,375 357,375 356,375 355,375 354,375 353,375 352,375 351,375 350,375 349,375 348,375 347,375 346,375 345,375 344,375 343,375 342,375 341,375 340,375 339,375 338,375 337,375 336,375 335,375 334,375 333,375 332,375 331,375 330,375 329,375 328,375 327,375 326,375 325,375 324,375 323,375 322,375 321,375">
      <metadata tailDirection="" confidence="0.89" linkedToCharacter="" id="TetsuSan_022_balloon_8" tailTip=""></metadata>
    </polygon>
    <polygon points="70,375 69,376 69,377 69,378 69,379 69,380 68,381 68,382 68,383 68,384 68,385 68,386 68,387 68,388 68,389 68,390 68,391 68,392 68,393 68,394 68,395 68,396 68,397 68,398 68,399 68,400 68,401 68,402 68,403 68,404 68,405 68,406 68,407 68,408 68,409 68,410 68,411 68,412 68,413 68,414 68,415 68,416 68,417 68,418 68,419 68,420 68,421 68,422 68,423 68,424 68,425 68,426 68,427 68,428 68,429 68,430 68,431 68,432 68,433 68,434 68,435 68,436 68,437 68,438 68,439 68,440 68,441 68,442 68,443 68,444 68,445 68,446 69,447 69,448 69,449 69,450 69,451 69,452 69,453 69,454 69,455 69,456 69,457 69,458 69,459 69,460 69,461 69,462 69,463 69,464 69,465 69,466 69,467 69,468 69,469 69,470 69,471 69,472 69,473 69,474 69,475 69,476 69,477 69,478 69,479 69,480 69,481 69,482 69,483 69,484 69,485 69,486 69,487 69,488 69,489 69,490 69,491 69,492 69,493 69,494 70,493 71,492 72,491 73,491 74,490 75,490 76,489 77,489 78,489 79,489 80,489 81,489 82,489 83,489 84,489 85,490 86,490 87,491 88,491 89,492 90,493 91,494 91,495 92,496 92,497 93,498 93,497 94,496 95,495 96,494 97,493 98,492 99,491 100,491 101,491 102,490 103,490 104,490 105,490 106,491 107,491 108,492 109,493 110,494 110,493 111,492 111,491 112,490 112,489 113,488 114,487 115,486 116,485 117,484 118,483 119,483 120,482 121,482 122,481 123,481 124,481 125,481 126,481 127,481 128,481 129,481 130,482 131,482 132,483 133,483 133,482 133,481 133,480 134,479 134,478 134,477 134,476 134,475 135,474 135,473 136,472 136,471 137,470 137,469 137,468 138,467 138,466 139,465 139,464 140,463 140,462 141,461 142,460 142,459 143,458 144,457 144,456 145,455 146,454 147,453 147,452 148,451 148,450 148,449 148,448 147,447 147,446 146,445 146,444 146,443 145,442 145,441 145,440 145,439 144,438 144,437 144,436 144,435 144,434 144,433 143,432 143,431 143,430 143,429 143,428 143,427 143,426 143,425 143,424 143,423 143,422 143,421 143,420 143,419 143,418 143,417 143,416 143,415 143,414 143,413 144,412 144,411 144,410 144,409 145,408 145,407 144,407 143,407 142,406 141,406 140,405 139,404 138,403 138,402 137,401 137,400 136,399 136,398 136,397 136,396 135,395 135,394 135,393 135,392 135,391 135,390 135,389 135,388 135,387 135,386 135,385 135,384 136,383 136,382 136,381 136,380 136,379 136,378 137,377 137,376 137,375 136,375 135,375 134,375 133,375 132,375 131,375 130,375 129,375 128,375 127,375 126,375 125,375 124,375 123,375 122,375 121,375 120,375 119,375 118,375 117,375 116,375 115,375 114,375 113,375 112,375 111,375 110,375 109,375 108,375 107,375 106,375 105,375 104,375 103,375 102,375 101,375 100,375 99,375 98,375 97,375 96,375 95,375 94,375 93,375 92,375 91,375 90,375 89,375 88,375 87,375 86,375 85,375 84,375 83,375 82,375 81,375 80,375 79,375 78,375 77,375 76,375 75,375 74,375 73,375 72,375 71,375 70,375">
      <metadata tailDirection="" confidence="0.98" linkedToCharacter="" id="TetsuSan_022_balloon_9" tailTip=""></metadata>
    </polygon>
    <polygon points="324,126 324,127 325,128 326,129 326,130 327,131 327,132 328,133 328,134 328,135 329,136 329,137 330,138 330,139 330,140 330,141 330,142 330,143 330,144 330,145 330,146 329,147 329,148 329,149 329,150 328,151 328,152 328,153 327,154 327,155 326,156 326,157 325,158 324,159 325,160 326,161 327,162 327,163 328,164 329,165 329,166 329,167 329,168 329,169 330,170 330,171 330,172 329,173 329,174 329,175 329,176 329,177 329,178 328,179 328,180 328,181 327,182 327,183 327,184 326,185 326,186 326,187 325,188 325,189 324,190 323,191 323,192 322,193 321,194 320,195 319,196 318,197 318,198 319,198 320,198 321,199 322,199 323,200 324,201 324,202 325,203 325,204 325,205 325,206 325,207 325,208 325,209 325,210 325,211 325,212 325,213 324,214 324,215 324,216 324,217 323,218 323,219 323,220 322,221 321,222 320,223 320,224 321,224 322,224 323,225 324,226 325,226 326,227 326,228 327,229 327,230 327,231 327,232 328,233 328,234 327,235 327,236 327,237 327,238 327,239 327,240 326,241 326,242 326,243 325,244 325,245 324,246 323,247 323,248 322,249 321,250 320,251 321,251 322,252 323,253 324,254 325,255 325,256 325,257 326,258 326,259 326,260 326,261 325,262 325,263 325,264 324,265 324,266 324,267 323,268 323,269 322,270 322,271 321,272 320,273 320,274 319,275 318,276 318,277 317,278 318,278 319,278 320,279 321,279 322,280 323,281 324,282 325,283 325,284 326,285 326,286 326,287 327,288 327,289 327,290 327,291 326,292 326,293 326,294 326,295 326,296 326,297 325,298 325,299 324,300 324,301 323,302 323,303 322,304 321,305 321,306 320,307 321,307 322,307 323,308 324,309 325,309 326,310 327,311 327,312 328,313 328,314 328,315 329,316 329,317 329,318 329,319 329,320 328,321 328,322 328,323 328,324 328,325 327,326 327,327 327,328 326,329 325,330 325,331 324,332 324,333 324,334 325,335 326,336 327,337 328,338 328,339 328,340 328,341 329,342 329,343 329,344 329,345 329,346 329,347 329,348 329,349 329,350 329,351 329,352 328,353 328,354 328,355 328,356 328,357 329,357 330,357 331,357 332,357 333,357 334,357 335,357 336,357 337,357 338,357 339,357 340,357 341,357 342,357 343,357 344,357 345,357 346,357 347,357 348,357 349,357 350,357 351,357 352,357 353,357 354,357 355,357 356,357 357,357 358,357 359,356 360,357 361,357 362,357 363,357 364,357 365,357 366,356 367,356 368,357 369,357 370,357 371,357 372,357 373,357 374,357 375,357 376,357 377,357 378,357 379,357 380,357 381,357 382,357 383,357 384,357 385,357 386,357 387,357 388,356 388,355 388,354 388,353 388,352 388,351 388,350 388,349 388,348 388,347 388,346 388,345 388,344 388,343 388,342 388,341 388,340 388,339 388,338 388,337 388,336 388,335 388,334 388,333 388,332 388,331 388,330 388,329 388,328 388,327 388,326 388,325 388,324 388,323 388,322 388,321 388,320 388,319 388,318 388,317 388,316 388,315 388,314 388,313 388,312 388,311 388,310 388,309 388,308 388,307 388,306 388,305 388,304 388,303 388,302 388,301 388,300 388,299 388,298 388,297 388,296 388,295 388,294 388,293 388,292 388,291 388,290 388,289 388,288 388,287 388,286 388,285 388,284 388,283 388,282 388,281 388,280 388,279 388,278 388,277 388,276 388,275 388,274 388,273 388,272 388,271 388,270 388,269 388,268 388,267 388,266 388,265 388,264 388,263 388,262 388,261 388,260 388,259 388,258 388,257 388,256 388,255 388,254 388,253 388,252 388,251 388,250 388,249 388,248 388,247 388,246 388,245 388,244 388,243 388,242 388,241 388,240 388,239 388,238 388,237 388,236 388,235 388,234 388,233 388,232 388,231 388,230 388,229 388,228 388,227 388,226 388,225 388,224 388,223 388,222 388,221 388,220 388,219 388,218 388,217 388,216 388,215 388,214 388,213 388,212 388,211 388,210 388,209 388,208 388,207 388,206 388,205 388,204 388,203 388,202 388,201 388,200 388,199 388,198 388,197 388,196 388,195 388,194 388,193 388,192 388,191 388,190 388,189 388,188 388,187 388,186 388,185 388,184 388,183 388,182 388,181 388,180 388,179 388,178 388,177 388,176 388,175 388,174 388,173 388,172 388,171 388,170 388,169 388,168 388,167 388,166 388,165 388,164 388,163 388,162 388,161 388,160 388,159 388,158 388,157 388,156 388,155 388,154 388,153 388,152 388,151 388,150 388,149 388,148 388,147 388,146 388,145 388,144 388,143 388,142 388,141 388,140 388,139 388,138 388,137 388,136 388,135 388,134 388,133 388,132 388,131 388,130 388,129 388,128 388,127 388,126 387,126 386,126 385,126 384,126 383,126 382,126 381,126 380,126 379,126 378,126 377,126 376,126 375,126 374,126 373,126 372,126 371,126 370,126 369,126 368,126 367,126 366,126 365,126 364,126 363,126 362,126 361,126 360,126 359,126 358,126 357,126 356,126 355,126 354,126 353,126 352,126 351,126 350,126 349,126 348,126 347,126 346,126 345,126 344,126 343,126 342,126 341,126 340,126 339,126 338,126 337,126 336,126 335,126 334,126 333,126 332,126 331,126 330,126 329,126 328,126 327,126 326,126 325,126 324,126">
      <metadata tailDirection="" confidence="0.95" linkedToCharacter="" id="TetsuSan_022_balloon_10" tailTip=""></metadata>
    </polygon>
    <polygon points="68,126 68,127 68,128 68,129 68,130 68,131 68,132 68,133 68,134 68,135 68,136 68,137 68,138 68,139 68,140 68,141 68,142 68,143 68,144 68,145 68,146 68,147 68,148 68,149 68,150 68,151 68,152 68,153 68,154 68,155 68,156 68,157 69,158 69,159 69,160 69,161 69,162 69,163 69,164 68,165 68,166 68,167 68,168 68,169 68,170 68,171 68,172 68,173 68,174 68,175 68,176 68,177 68,178 68,179 68,180 68,181 68,182 68,183 68,184 68,185 68,186 68,187 68,188 68,189 68,190 68,191 68,192 68,193 68,194 68,195 68,196 68,197 68,198 68,199 68,200 68,201 68,202 68,203 68,204 68,205 68,206 68,207 68,208 68,209 68,210 68,211 68,212 68,213 68,214 68,215 68,216 68,217 68,218 68,219 68,220 68,221 68,222 68,223 68,224 68,225 68,226 68,227 68,228 68,229 68,230 68,231 68,232 68,233 68,234 68,235 68,236 68,237 68,238 68,239 68,240 68,241 68,242 68,243 68,244 68,245 68,246 68,247 68,248 68,249 68,250 68,251 68,252 68,253 68,254 68,255 68,256 68,257 68,258 68,259 68,260 68,261 68,262 68,263 68,264 68,265 68,266 68,267 68,268 68,269 68,270 68,271 68,272 68,273 68,274 68,275 68,276 68,277 68,278 68,279 68,280 68,281 68,282 68,283 68,284 68,285 68,286 68,287 68,288 68,289 68,290 68,291 68,292 68,293 68,294 68,295 68,296 68,297 68,298 68,299 68,300 68,301 68,302 68,303 68,304 68,305 68,306 68,307 68,308 68,309 68,310 69,311 70,312 71,313 72,314 73,315 74,316 75,316 76,317 77,318 78,318 79,319 80,319 81,320 82,320 83,320 84,320 85,321 86,321 87,321 88,321 89,321 90,321 91,322 92,322 93,322 94,322 95,322 96,321 97,321 98,321 99,321 100,321 101,321 102,320 103,320 104,320 105,320 106,319 107,319 108,319 109,318 110,318 111,318 112,317 113,317 114,316 115,316 116,315 117,315 118,314 119,314 120,313 121,312 122,311 123,310 124,310 125,309 126,308 127,307 127,306 128,305 129,304 129,303 130,302 130,301 130,300 131,299 131,298 132,297 132,296 132,295 133,294 133,293 133,292 134,291 134,290 134,289 134,288 135,287 135,286 135,285 136,284 136,283 136,282 136,281 136,280 137,279 137,278 137,277 137,276 138,275 138,274 138,273 138,272 138,271 138,270 138,269 138,268 139,267 139,266 139,265 139,264 139,263 139,262 139,261 139,260 139,259 140,258 140,257 140,256 140,255 140,254 140,253 140,252 140,251 140,250 140,249 140,248 140,247 140,246 140,245 140,244 140,243 140,242 140,241 140,240 140,239 140,238 140,237 140,236 140,235 140,234 140,233 141,232 141,231 140,230 140,229 140,228 140,227 140,226 140,225 140,224 140,223 140,222 140,221 140,220 140,219 140,218 140,217 140,216 140,215 139,214 139,213 139,212 139,211 139,210 139,209 139,208 140,207 141,206 142,205 141,205 140,205 139,205 138,204 138,203 137,202 137,201 138,200 138,199 138,198 138,197 138,196 138,195 138,194 138,193 138,192 138,191 138,190 138,189 138,188 138,187 138,186 138,185 138,184 138,183 137,182 137,181 137,180 137,179 137,178 137,177 137,176 137,175 137,174 137,173 136,172 136,171 136,170 136,169 136,168 136,167 135,166 135,165 135,164 135,163 135,162 134,161 134,160 134,159 134,158 134,157 133,156 133,155 133,154 133,153 133,152 133,151 132,150 132,149 132,148 132,147 131,146 131,145 131,144 130,143 130,142 130,141 130,140 129,139 129,138 128,137 128,136 128,135 127,134 127,133 127,132 126,131 126,130 125,129 125,128 124,127 124,126 123,126 122,126 121,126 120,126 119,126 118,126 117,126 116,126 115,126 114,126 113,126 112,126 111,126 110,126 109,126 108,126 107,126 106,126 105,126 104,126 103,126 102,126 101,126 100,126 99,126 98,126 97,126 96,126 95,126 94,126 93,126 92,126 91,126 90,126 89,126 88,126 87,126 86,126 85,126 84,126 83,126 82,126 81,126 80,126 79,126 78,126 77,126 76,126 75,126 74,126 73,126 72,126 71,126 70,126 69,126 68,126">
      <metadata tailDirection="" confidence="0.93" linkedToCharacter="" id="TetsuSan_022_balloon_11" tailTip=""></metadata>
    </polygon>
    <polygon points="681,125 681,126 681,127 681,128 680,129 680,130 680,131 680,132 679,133 679,134 679,135 679,136 679,137 679,138 678,139 678,140 678,141 678,142 678,143 678,144 677,145 677,146 677,147 677,148 677,149 677,150 677,151 677,152 677,153 677,154 677,155 677,156 677,157 677,158 677,159 677,160 677,161 677,162 677,163 676,164 676,165 676,166 676,167 676,168 676,169 676,170 676,171 676,172 676,173 676,174 676,175 675,176 674,176 673,177 672,177 671,177 672,177 673,177 674,178 675,178 676,177 677,178 678,179 677,180 677,181 677,182 677,183 677,184 676,185 676,186 676,187 676,188 676,189 676,190 676,191 676,192 676,193 675,194 675,195 675,196 675,197 675,198 675,199 675,200 675,201 675,202 675,203 675,204 675,205 675,206 675,207 675,208 675,209 674,210 674,211 674,212 674,213 674,214 674,215 674,216 674,217 674,218 674,219 674,220 674,221 674,222 674,223 674,224 674,225 674,226 674,227 674,228 674,229 674,230 674,231 674,232 674,233 674,234 674,235 674,236 674,237 674,238 674,239 674,240 674,241 674,242 674,243 674,244 674,245 674,246 674,247 674,248 674,249 674,250 674,251 674,252 674,253 674,254 674,255 674,256 674,257 675,258 675,259 675,260 675,261 675,262 675,263 675,264 675,265 675,266 675,267 675,268 675,269 675,270 676,271 676,272 676,273 676,274 676,275 677,276 677,277 677,278 677,279 677,280 678,281 678,282 678,283 678,284 679,285 679,286 679,287 680,288 680,289 681,290 681,291 681,292 682,293 682,294 683,295 683,296 684,297 684,298 685,299 685,300 686,301 686,302 687,303 688,304 688,305 689,306 690,307 691,308 691,309 692,310 693,311 694,312 695,313 695,314 696,315 697,316 698,317 699,317 700,318 701,319 702,320 703,320 704,321 705,321 706,322 707,323 708,323 709,324 710,324 711,325 712,325 713,326 714,326 715,326 716,326 717,327 718,327 719,327 720,327 721,327 722,328 723,328 724,328 725,328 726,328 727,328 728,328 729,328 730,327 731,327 732,327 733,327 734,327 735,327 736,327 737,326 738,326 739,326 740,325 741,325 742,324 743,323 744,322 744,321 744,320 744,319 744,318 744,317 744,316 744,315 744,314 744,313 744,312 744,311 744,310 744,309 744,308 744,307 744,306 744,305 744,304 744,303 744,302 744,301 744,300 744,299 744,298 744,297 744,296 744,295 744,294 744,293 744,292 744,291 744,290 744,289 744,288 744,287 744,286 744,285 744,284 744,283 744,282 744,281 744,280 744,279 744,278 744,277 744,276 744,275 744,274 744,273 744,272 744,271 744,270 744,269 744,268 744,267 744,266 744,265 744,264 744,263 744,262 744,261 744,260 744,259 744,258 744,257 744,256 744,255 744,254 744,253 744,252 744,251 744,250 744,249 744,248 744,247 744,246 744,245 744,244 744,243 744,242 744,241 744,240 744,239 744,238 744,237 744,236 744,235 744,234 744,233 744,232 744,231 744,230 744,229 744,228 744,227 744,226 744,225 744,224 744,223 744,222 744,221 744,220 744,219 744,218 744,217 744,216 744,215 744,214 744,213 744,212 744,211 744,210 744,209 744,208 744,207 744,206 744,205 744,204 744,203 744,202 744,201 744,200 744,199 744,198 744,197 744,196 744,195 744,194 744,193 744,192 744,191 744,190 744,189 744,188 744,187 744,186 744,185 744,184 744,183 744,182 744,181 744,180 744,179 744,178 744,177 744,176 744,175 744,174 744,173 744,172 744,171 744,170 744,169 744,168 744,167 744,166 744,165 744,164 744,163 744,162 744,161 744,160 744,159 744,158 744,157 744,156 744,155 744,154 744,153 744,152 744,151 744,150 744,149 744,148 744,147 744,146 744,145 744,144 744,143 744,142 744,141 744,140 744,139 744,138 744,137 744,136 744,135 744,134 744,133 744,132 745,131 745,130 745,129 745,128 745,127 745,126 745,125 744,125 743,125 742,125 741,125 740,125 739,125 738,125 737,125 736,125 735,125 734,125 733,125 732,125 731,125 730,125 729,125 728,125 727,125 726,125 725,125 724,125 723,125 722,125 721,125 720,125 719,125 718,125 717,125 716,125 715,125 714,125 713,125 712,125 711,125 710,125 709,125 708,125 707,125 706,125 705,125 704,125 703,125 702,125 701,125 700,125 699,125 698,125 697,125 696,125 695,125 694,125 693,125 692,125 691,125 690,125 689,125 688,125 687,125 686,125 685,125 684,125 683,125 682,125 681,125">
      <metadata tailDirection="" confidence="0.99" linkedToCharacter="" id="TetsuSan_022_balloon_12" tailTip=""></metadata>
    </polygon>
  </svg>
</svg>
