<?xml version="1.0" encoding="UTF-8" standalone="no"?>
<svg width="827" xmlns="http://www.w3.org/2000/svg" version="1.0" height="1170">
  <title>TetsuSan_064</title>
  <svg contentScriptType="text/ecmascript" zoomAndPan="magnify" contentStyleType="text/css" class="Page" preserveAspectRatio="xMidYMid meet" version="1.0">
    <image xmlns:xlink="http://www.w3.org/1999/xlink" x="0" y="0" width="827" height="1170" xlink:href="./../../dataset_Manga109/TetsuSan/TetsuSan_064.jpg" xlink:type="simple" xlink:actuate="onLoad" preserveAspectRatio="xMidYMid meet" xlink:show="embed"/>
  </svg>
  <style type="text/css" xml:space="preserve">
        * { stroke-linejoin: round; }
        .Unclassified   { fill: orange; stroke: none;   opacity: 1.0; visibility: hidden; }
        .Noise          { fill: pink;   stroke: none;   opacity: 0.2; visibility: hidden; }
        .Panel          { fill: none;   stroke: red;    stroke-width:3; opacity: 0.5; visibility: visible; image-rendering: optimizeSpeed; }
        .Line           { fill: green;  stroke: none;   opacity: 0.5; visibility: visible; image-rendering: optimizeSpeed; }
        .TextArea       { fill: grey;   stroke: none;   opacity: 0.2; visibility: visible; image-rendering: optimizeSpeed; }
        .Balloon        { fill: cyan;   stroke: none;   opacity: 0.5; visibility: visible; image-rendering: optimizeSpeed; }
        .Letter         { fill: blue;   stroke: none;   opacity: 0.2; visibility: hidden; }
        .Object, .Character, .Face  { fill: yellow; stroke: none;   opacity: 0.5; visibility: visible; image-rendering: optimizeSpeed; }
        .Page           { fill: white;  stroke: none;    opacity: 0.5; visibility: visible; }
        .linkSBSC { fill: blue; stroke: none; opacity: 1.0; visibility: visible; }
        polygon:hover { opacity:1.0; stroke:red; }
</style>
  <svg xmlns="http://www.w3.org/2000/svg" contentScriptType="text/ecmascript" zoomAndPan="magnify" contentStyleType="text/css" class="Balloon" preserveAspectRatio="xMidYMid meet" version="1.0">
    <polygon points="535,965 534,966 533,966 532,967 531,968 530,968 529,968 528,967 527,968 526,969 525,969 524,969 523,969 522,970 521,970 520,970 519,970 518,969 517,970 516,970 515,970 514,970 513,970 512,970 511,970 510,970 509,970 508,970 507,969 506,969 505,969 504,969 503,969 502,968 501,967 501,968 501,969 501,970 501,971 501,972 501,973 500,974 500,975 500,976 500,977 500,978 499,979 499,980 499,981 499,982 498,983 498,984 498,985 498,986 497,987 497,988 497,989 496,990 496,991 496,992 495,993 495,994 495,995 494,996 494,997 493,998 492,999 492,1000 493,1001 494,1002 494,1003 494,1004 494,1005 494,1006 494,1007 494,1008 494,1009 494,1010 495,1011 495,1012 496,1013 497,1014 497,1015 497,1016 498,1017 498,1018 498,1019 498,1020 498,1021 499,1022 499,1023 499,1024 500,1025 500,1026 500,1027 500,1028 501,1029 502,1029 503,1030 504,1031 505,1032 506,1032 507,1033 508,1033 509,1034 510,1034 511,1035 512,1036 513,1036 514,1036 515,1037 515,1038 515,1039 514,1040 514,1041 514,1042 514,1043 514,1044 515,1044 516,1045 517,1045 518,1045 519,1045 520,1045 521,1045 522,1045 523,1045 523,1044 523,1043 523,1042 523,1041 523,1040 524,1039 525,1040 526,1041 526,1042 526,1043 526,1044 527,1044 528,1044 529,1044 530,1044 531,1044 532,1044 533,1044 534,1043 535,1043 535,1042 535,1041 535,1040 535,1039 535,1038 535,1037 535,1036 535,1035 536,1034 537,1035 537,1036 538,1036 539,1035 540,1034 541,1033 542,1032 542,1031 543,1030 544,1029 544,1028 545,1027 545,1026 545,1025 546,1024 546,1023 546,1022 546,1021 545,1020 545,1019 545,1018 545,1017 545,1016 545,1015 545,1014 545,1013 545,1012 544,1013 543,1013 542,1013 541,1012 541,1011 542,1010 543,1010 544,1009 545,1009 545,1008 546,1007 546,1006 547,1005 547,1004 547,1003 547,1002 547,1001 547,1000 546,999 545,998 545,997 546,996 547,996 547,995 547,994 547,993 548,992 548,991 548,990 547,989 548,988 547,987 547,986 547,985 547,984 546,983 546,982 546,981 545,980 545,979 544,978 543,977 543,976 542,975 541,974 541,973 540,972 539,971 538,970 538,969 537,968 536,967 535,966 535,965">
      <metadata tailDirection="" confidence="0.89" linkedToCharacter="" id="TetsuSan_064_balloon_0" tailTip=""></metadata>
    </polygon>
    <polygon points="688,860 688,861 688,862 687,863 687,864 687,865 687,866 687,867 687,868 686,869 686,870 686,871 686,872 686,873 686,874 686,875 686,876 686,877 685,878 685,879 685,880 685,881 685,882 685,883 685,884 685,885 684,886 684,887 684,888 684,889 684,890 684,891 684,892 684,893 684,894 683,895 683,896 683,897 683,898 683,899 683,900 683,901 683,902 683,903 683,904 682,905 682,906 682,907 682,908 682,909 682,910 682,911 682,912 682,913 682,914 682,915 682,916 682,917 682,918 682,919 682,920 682,921 682,922 682,923 682,924 682,925 682,926 682,927 682,928 682,929 682,930 682,931 681,932 682,933 682,934 682,935 682,936 682,937 682,938 682,939 682,940 682,941 682,942 682,943 682,944 682,945 682,946 682,947 682,948 682,949 682,950 682,951 682,952 682,953 682,954 682,955 682,956 682,957 682,958 682,959 681,960 682,961 681,962 681,963 681,964 681,965 681,966 681,967 682,968 681,969 682,970 682,971 682,972 682,973 682,974 682,975 681,976 681,977 681,978 681,979 681,980 681,981 681,982 681,983 681,984 680,985 679,985 678,985 677,985 678,986 679,987 680,987 681,988 682,989 681,990 681,991 681,992 681,993 680,994 680,995 680,996 680,997 680,998 680,999 680,1000 680,1001 680,1002 680,1003 680,1004 680,1005 680,1006 680,1007 680,1008 680,1009 680,1010 680,1011 680,1012 679,1013 680,1014 680,1015 679,1016 679,1017 679,1018 679,1019 679,1020 679,1021 679,1022 679,1023 679,1024 679,1025 679,1026 679,1027 679,1028 679,1029 679,1030 679,1031 679,1032 679,1033 679,1034 679,1035 679,1036 679,1037 679,1038 679,1039 679,1040 679,1041 679,1042 679,1043 679,1044 679,1045 679,1046 679,1047 679,1048 679,1049 679,1050 679,1051 679,1052 679,1053 679,1054 679,1055 679,1056 679,1057 679,1058 679,1059 680,1060 680,1061 680,1062 680,1063 680,1064 680,1065 680,1066 680,1067 680,1068 680,1069 681,1070 681,1071 681,1072 681,1073 681,1074 681,1075 681,1076 682,1077 682,1078 682,1079 682,1080 682,1081 682,1082 682,1083 683,1084 683,1085 683,1086 683,1087 684,1088 684,1089 685,1090 686,1091 687,1091 688,1091 689,1091 690,1091 691,1091 692,1091 693,1091 694,1091 695,1091 696,1091 697,1091 698,1091 699,1091 700,1091 701,1091 702,1091 703,1091 704,1091 705,1091 706,1091 707,1091 708,1091 709,1091 710,1091 711,1091 712,1091 713,1091 714,1091 715,1091 716,1091 717,1091 718,1091 719,1091 720,1091 721,1091 722,1091 723,1091 724,1091 725,1091 726,1091 727,1091 728,1091 729,1091 730,1091 731,1091 732,1091 733,1091 734,1091 735,1091 736,1091 737,1091 738,1091 739,1091 740,1091 741,1091 742,1091 743,1091 744,1091 745,1091 746,1091 747,1091 747,1090 747,1089 747,1088 747,1087 747,1086 747,1085 747,1084 747,1083 747,1082 747,1081 747,1080 747,1079 747,1078 747,1077 747,1076 747,1075 747,1074 747,1073 747,1072 747,1071 747,1070 747,1069 747,1068 747,1067 747,1066 747,1065 747,1064 747,1063 747,1062 747,1061 747,1060 747,1059 747,1058 747,1057 747,1056 747,1055 747,1054 747,1053 747,1052 747,1051 747,1050 747,1049 747,1048 747,1047 747,1046 747,1045 747,1044 747,1043 747,1042 747,1041 747,1040 747,1039 747,1038 747,1037 747,1036 747,1035 747,1034 747,1033 747,1032 747,1031 747,1030 747,1029 747,1028 747,1027 747,1026 747,1025 747,1024 747,1023 747,1022 747,1021 747,1020 747,1019 747,1018 747,1017 747,1016 747,1015 747,1014 747,1013 747,1012 747,1011 747,1010 747,1009 747,1008 747,1007 747,1006 747,1005 747,1004 747,1003 747,1002 747,1001 747,1000 747,999 748,998 748,997 748,996 748,995 748,994 748,993 748,992 748,991 748,990 748,989 748,988 748,987 748,986 748,985 748,984 747,983 748,982 748,981 748,980 748,979 748,978 748,977 748,976 748,975 748,974 748,973 748,972 748,971 748,970 748,969 748,968 748,967 748,966 748,965 748,964 748,963 748,962 748,961 748,960 748,959 748,958 748,957 748,956 748,955 748,954 748,953 748,952 748,951 748,950 748,949 748,948 748,947 748,946 748,945 748,944 748,943 748,942 748,941 748,940 748,939 748,938 748,937 748,936 748,935 748,934 748,933 748,932 748,931 748,930 748,929 748,928 748,927 748,926 748,925 748,924 748,923 748,922 748,921 748,920 748,919 748,918 748,917 748,916 748,915 748,914 748,913 748,912 748,911 748,910 748,909 748,908 748,907 748,906 748,905 748,904 748,903 748,902 748,901 748,900 748,899 748,898 748,897 748,896 748,895 748,894 748,893 748,892 748,891 748,890 748,889 748,888 748,887 748,886 748,885 748,884 748,883 748,882 748,881 748,880 748,879 748,878 748,877 748,876 748,875 748,874 748,873 748,872 748,871 748,870 748,869 748,868 748,867 748,866 748,865 748,864 748,863 748,862 748,861 747,860 746,860 745,860 744,860 743,860 742,860 741,860 740,860 739,860 738,860 737,860 736,860 735,860 734,860 733,860 732,860 731,860 730,860 729,860 728,860 727,860 726,860 725,860 724,860 723,860 722,860 721,860 720,860 719,860 718,860 717,860 716,860 715,860 714,860 713,860 712,860 711,860 710,860 709,860 708,860 707,860 706,860 705,860 704,860 703,860 702,860 701,860 700,860 699,860 698,860 697,860 696,860 695,860 694,860 693,860 692,860 691,860 690,860 689,860 688,860">
      <metadata tailDirection="" confidence="0.95" linkedToCharacter="" id="TetsuSan_064_balloon_1" tailTip=""></metadata>
    </polygon>
    <polygon points="430,859 430,860 430,861 430,862 430,863 430,864 430,865 430,866 430,867 430,868 430,869 430,870 430,871 430,872 430,873 430,874 430,875 430,876 430,877 430,878 430,879 430,880 430,881 430,882 430,883 430,884 430,885 430,886 430,887 430,888 430,889 430,890 430,891 430,892 430,893 430,894 430,895 430,896 430,897 430,898 430,899 430,900 430,901 430,902 430,903 430,904 430,905 430,906 430,907 430,908 430,909 430,910 430,911 430,912 430,913 430,914 430,915 430,916 430,917 430,918 430,919 429,920 429,921 430,922 430,923 430,924 430,925 429,926 430,927 430,928 430,929 430,930 430,931 430,932 430,933 430,934 430,935 430,936 430,937 430,938 430,939 430,940 430,941 430,942 430,943 430,944 430,945 430,946 430,947 430,948 430,949 430,950 430,951 430,952 430,953 430,954 430,955 430,956 430,957 430,958 430,959 430,960 430,961 430,962 430,963 430,964 430,965 430,966 430,967 430,968 430,969 430,970 430,971 430,972 430,973 430,974 430,975 430,976 430,977 430,978 430,979 430,980 430,981 430,982 430,983 430,984 430,985 430,986 430,987 430,988 430,989 430,990 430,991 430,992 430,993 430,994 430,995 430,996 430,997 430,998 430,999 430,1000 430,1001 430,1002 430,1003 430,1004 431,1005 432,1006 433,1007 434,1007 435,1008 436,1009 437,1009 438,1009 439,1010 440,1010 441,1011 442,1011 443,1011 444,1012 445,1012 446,1012 447,1012 448,1013 449,1013 450,1013 451,1013 452,1013 453,1013 454,1013 455,1013 456,1013 457,1013 458,1013 459,1013 460,1013 461,1013 462,1013 463,1012 464,1012 465,1012 466,1012 467,1012 468,1012 469,1012 470,1011 471,1011 472,1010 473,1010 474,1009 475,1008 476,1008 477,1009 478,1010 478,1011 478,1010 478,1009 479,1008 480,1007 481,1007 482,1006 483,1005 484,1005 485,1004 486,1003 487,1002 487,1001 488,1000 489,999 489,998 490,997 491,996 491,995 492,994 492,993 492,992 493,991 493,990 493,989 494,988 494,987 494,986 495,985 495,984 495,983 495,982 496,981 496,980 496,979 496,978 497,977 497,976 497,975 497,974 497,973 498,972 498,971 498,970 498,969 498,968 498,967 499,966 499,965 499,964 499,963 499,962 499,961 499,960 499,959 499,958 500,957 500,956 500,955 500,954 500,953 500,952 500,951 500,950 500,949 500,948 500,947 500,946 500,945 500,944 500,943 499,942 499,941 499,940 499,939 499,938 499,937 499,936 499,935 499,934 499,933 499,932 499,931 499,930 499,929 499,928 499,927 498,926 498,925 498,924 498,923 498,922 498,921 498,920 497,919 497,918 497,917 497,916 497,915 496,914 496,913 496,912 496,911 496,910 495,909 495,908 495,907 495,906 494,905 494,904 494,903 494,902 494,901 494,900 494,899 494,898 494,897 493,896 493,895 493,894 492,893 492,892 492,891 492,890 492,889 492,888 491,887 491,886 491,885 491,884 490,883 490,882 490,881 489,880 489,879 489,878 488,877 488,876 488,875 488,874 487,873 487,872 487,871 486,870 486,869 485,868 485,867 485,866 484,865 484,864 483,863 483,862 482,861 482,860 481,859 480,859 479,859 478,859 477,859 476,859 475,859 474,859 473,859 472,859 471,859 470,859 469,859 468,859 467,859 466,859 465,859 464,859 463,859 462,859 461,859 460,859 459,859 458,859 457,859 456,859 455,859 454,859 453,859 452,859 451,859 450,859 449,859 448,859 447,859 446,859 445,859 444,859 443,859 442,859 441,859 440,859 439,859 438,859 437,859 436,859 435,859 434,859 433,859 432,859 431,859 430,859">
      <metadata tailDirection="" confidence="0.90" linkedToCharacter="" id="TetsuSan_064_balloon_2" tailTip=""></metadata>
    </polygon>
    <polygon points="334,858 334,859 334,860 334,861 333,862 333,863 333,864 333,865 333,866 333,867 332,868 332,869 332,870 332,871 332,872 332,873 332,874 332,875 332,876 332,877 332,878 332,879 332,880 332,881 332,882 332,883 332,884 332,885 332,886 332,887 331,888 332,889 331,890 331,891 331,892 331,893 331,894 331,895 332,896 331,897 331,898 331,899 331,900 331,901 331,902 331,903 331,904 331,905 331,906 331,907 331,908 331,909 331,910 331,911 331,912 331,913 331,914 331,915 332,916 332,917 331,918 330,918 331,918 332,919 331,920 330,921 330,922 330,923 330,924 330,925 330,926 330,927 330,928 330,929 329,930 329,931 329,932 329,933 329,934 329,935 329,936 329,937 329,938 329,939 329,940 329,941 329,942 329,943 329,944 329,945 329,946 329,947 329,948 329,949 329,950 329,951 329,952 330,953 330,954 330,955 330,956 330,957 330,958 330,959 331,960 331,961 331,962 331,963 331,964 331,965 332,966 332,967 332,968 332,969 332,970 333,971 333,972 333,973 334,974 334,975 335,976 335,977 336,978 336,979 337,980 337,981 338,982 338,983 339,984 339,985 340,986 340,987 341,988 342,989 343,990 343,991 344,992 345,993 346,994 347,995 348,996 349,997 350,997 351,998 352,999 353,999 354,1000 355,1000 356,1001 357,1001 358,1002 359,1002 360,1002 361,1002 362,1003 363,1003 364,1003 365,1004 366,1004 367,1004 368,1004 369,1004 370,1004 371,1004 372,1004 373,1004 374,1004 375,1004 376,1003 377,1003 378,1003 379,1003 380,1003 381,1003 382,1002 383,1002 384,1002 385,1002 386,1002 387,1001 388,1000 389,1000 390,999 390,998 390,997 390,996 390,995 390,994 390,993 390,992 390,991 390,990 390,989 390,988 390,987 390,986 390,985 390,984 390,983 390,982 390,981 390,980 390,979 390,978 390,977 390,976 390,975 390,974 390,973 390,972 390,971 390,970 390,969 390,968 390,967 390,966 390,965 390,964 390,963 390,962 390,961 390,960 390,959 390,958 390,957 390,956 390,955 390,954 390,953 390,952 390,951 390,950 390,949 390,948 390,947 390,946 390,945 390,944 390,943 390,942 390,941 390,940 390,939 390,938 390,937 390,936 390,935 390,934 390,933 390,932 390,931 390,930 390,929 390,928 390,927 390,926 390,925 390,924 390,923 390,922 390,921 390,920 389,919 389,918 389,917 389,916 389,915 389,914 389,913 389,912 390,911 390,910 390,909 390,908 390,907 390,906 390,905 390,904 389,903 390,902 389,901 390,900 390,899 390,898 390,897 390,896 390,895 390,894 389,893 389,892 389,891 389,890 389,889 389,888 389,887 389,886 389,885 389,884 389,883 389,882 389,881 389,880 389,879 390,878 389,877 389,876 389,875 389,874 389,873 390,872 390,871 390,870 390,869 390,868 390,867 390,866 390,865 390,864 389,863 389,862 389,861 390,860 389,859 388,859 387,859 386,859 385,859 384,859 383,859 382,859 381,859 380,859 379,859 378,858 377,858 376,858 375,858 374,858 373,858 372,858 371,859 370,858 369,858 368,858 367,858 366,858 365,858 364,858 363,858 362,858 361,858 360,858 359,858 358,858 357,858 356,858 355,858 354,858 353,858 352,858 351,858 350,858 349,858 348,858 347,858 346,858 345,858 344,858 343,858 342,858 341,858 340,858 339,858 338,858 337,858 336,858 335,858 334,858">
      <metadata tailDirection="" confidence="0.90" linkedToCharacter="" id="TetsuSan_064_balloon_3" tailTip=""></metadata>
    </polygon>
    <polygon points="72,857 71,858 72,859 72,860 72,861 72,862 72,863 72,864 72,865 72,866 71,867 71,868 72,869 71,870 72,871 71,872 72,873 72,874 72,875 72,876 71,877 71,878 71,879 71,880 71,881 71,882 71,883 71,884 71,885 71,886 71,887 71,888 71,889 71,890 71,891 71,892 71,893 71,894 71,895 71,896 71,897 71,898 71,899 71,900 71,901 71,902 71,903 71,904 71,905 71,906 71,907 71,908 71,909 71,910 71,911 71,912 71,913 71,914 71,915 71,916 71,917 71,918 71,919 71,920 71,921 71,922 71,923 71,924 71,925 71,926 71,927 71,928 71,929 71,930 71,931 71,932 71,933 71,934 71,935 71,936 71,937 71,938 71,939 71,940 71,941 71,942 71,943 71,944 71,945 71,946 71,947 71,948 71,949 71,950 71,951 71,952 71,953 71,954 71,955 71,956 71,957 71,958 71,959 71,960 71,961 71,962 71,963 71,964 71,965 71,966 71,967 71,968 71,969 71,970 71,971 71,972 71,973 71,974 71,975 71,976 71,977 71,978 71,979 71,980 71,981 71,982 71,983 71,984 71,985 71,986 71,987 71,988 71,989 71,990 71,991 71,992 71,993 71,994 71,995 71,996 71,997 71,998 71,999 71,1000 71,1001 71,1002 71,1003 71,1004 71,1005 71,1006 71,1007 71,1008 71,1009 71,1010 70,1011 71,1012 71,1013 71,1014 70,1015 71,1016 71,1017 71,1018 70,1019 70,1020 71,1021 71,1022 71,1023 71,1024 71,1025 70,1026 70,1027 70,1028 70,1029 70,1030 70,1031 70,1032 70,1033 70,1034 70,1035 70,1036 71,1037 71,1038 70,1039 71,1040 70,1041 70,1042 71,1043 71,1044 71,1045 70,1046 70,1047 70,1048 70,1049 70,1050 70,1051 70,1052 70,1053 70,1054 71,1055 70,1056 70,1057 71,1058 71,1059 71,1060 71,1061 70,1062 70,1063 71,1064 71,1065 72,1066 73,1066 74,1067 75,1067 76,1068 77,1068 78,1069 79,1069 80,1070 81,1071 82,1071 83,1071 84,1071 85,1071 86,1071 87,1072 88,1072 89,1072 90,1072 91,1072 92,1072 93,1072 94,1072 95,1071 96,1071 97,1071 98,1071 99,1071 100,1071 101,1070 102,1070 103,1070 104,1069 105,1069 106,1069 107,1068 108,1068 109,1067 110,1067 111,1066 112,1065 113,1065 114,1064 115,1063 116,1062 117,1061 118,1061 119,1060 120,1059 121,1058 121,1057 122,1056 123,1055 124,1054 124,1053 125,1052 126,1051 127,1050 127,1049 128,1048 129,1047 129,1046 130,1045 131,1044 131,1043 131,1042 132,1041 132,1040 133,1039 133,1038 133,1037 134,1036 134,1035 134,1034 135,1033 135,1032 135,1031 136,1030 136,1029 136,1028 136,1027 136,1026 136,1025 137,1024 137,1023 137,1022 137,1021 137,1020 136,1019 135,1018 134,1017 134,1016 133,1015 133,1014 133,1013 132,1012 132,1011 132,1010 132,1009 132,1008 132,1007 132,1006 132,1005 132,1004 132,1003 132,1002 133,1001 133,1000 133,999 134,998 134,997 135,996 136,995 137,994 138,993 139,993 140,993 140,992 140,991 140,990 140,989 140,988 140,987 140,986 140,985 140,984 140,983 140,982 140,981 140,980 140,979 140,978 140,977 140,976 140,975 140,974 140,973 140,972 140,971 140,970 139,969 139,968 139,967 139,966 139,965 139,964 139,963 139,962 139,961 139,960 139,959 139,958 139,957 139,956 139,955 138,954 138,953 138,952 138,951 138,950 138,949 138,948 138,947 138,946 138,945 138,944 138,943 138,942 138,941 137,940 137,939 137,938 137,937 137,936 137,935 137,934 137,933 136,932 136,931 136,930 136,929 136,928 136,927 136,926 136,925 136,924 136,923 136,922 135,921 135,920 135,919 135,918 135,917 135,916 135,915 135,914 135,913 135,912 134,911 134,910 134,909 134,908 134,907 134,906 134,905 133,904 133,903 133,902 133,901 133,900 133,899 133,898 133,897 132,896 132,895 132,894 132,893 132,892 132,891 132,890 131,889 131,888 131,887 131,886 131,885 130,884 130,883 130,882 130,881 129,880 129,879 129,878 129,877 129,876 128,875 128,874 128,873 127,872 127,871 127,870 127,869 126,868 126,867 126,866 125,865 125,864 125,863 124,862 124,861 124,860 123,859 123,858 123,857 122,857 121,857 120,857 119,857 118,857 117,857 116,857 115,857 114,857 113,857 112,857 111,857 110,857 109,857 108,857 107,857 106,857 105,857 104,857 103,857 102,857 101,857 100,857 99,857 98,857 97,857 96,857 95,857 94,857 93,857 92,857 91,857 90,857 89,857 88,857 87,857 86,857 85,857 84,857 83,857 82,857 81,857 80,857 79,857 78,857 77,857 76,857 75,857 74,857 73,857 72,857">
      <metadata tailDirection="" confidence="0.88" linkedToCharacter="" id="TetsuSan_064_balloon_4" tailTip=""></metadata>
    </polygon>
    <polygon points="704,612 704,613 704,614 704,615 703,616 703,617 703,618 703,619 702,620 702,621 702,622 702,623 702,624 702,625 701,626 701,627 701,628 701,629 701,630 701,631 701,632 701,633 700,634 700,635 700,636 700,637 700,638 700,639 700,640 700,641 699,642 699,643 699,644 699,645 699,646 699,647 698,648 698,649 698,650 698,651 698,652 698,653 698,654 698,655 698,656 698,657 697,658 697,659 697,660 697,661 697,662 697,663 697,664 697,665 696,666 696,667 696,668 696,669 696,670 696,671 696,672 696,673 695,674 695,675 695,676 695,677 695,678 695,679 695,680 695,681 695,682 695,683 695,684 695,685 694,686 694,687 694,688 694,689 694,690 694,691 694,692 694,693 694,694 694,695 694,696 694,697 694,698 694,699 694,700 694,701 694,702 694,703 694,704 694,705 694,706 694,707 694,708 694,709 694,710 694,711 694,712 694,713 694,714 694,715 694,716 694,717 694,718 694,719 694,720 694,721 694,722 694,723 694,724 694,725 694,726 695,727 695,728 695,729 695,730 695,731 695,732 695,733 695,734 696,735 696,736 696,737 696,738 696,739 696,740 696,741 697,742 697,743 697,744 697,745 698,746 698,747 698,748 698,749 698,750 698,751 699,752 699,753 699,754 700,755 700,756 700,757 701,758 701,759 702,760 702,761 703,762 703,763 704,764 705,765 706,766 706,767 707,768 708,769 709,770 710,771 710,772 710,773 709,774 710,773 711,773 712,773 713,774 713,775 714,776 715,776 716,777 717,777 718,778 719,778 720,778 721,778 722,779 723,779 724,780 725,780 726,780 727,780 728,780 729,781 730,781 731,781 732,781 733,781 734,781 735,781 736,781 737,781 738,782 739,782 740,782 741,782 742,782 743,781 744,781 745,781 746,780 747,780 747,779 747,778 747,777 747,776 747,775 747,774 747,773 747,772 747,771 747,770 747,769 747,768 747,767 747,766 747,765 747,764 747,763 747,762 747,761 747,760 747,759 747,758 747,757 747,756 747,755 747,754 747,753 747,752 747,751 747,750 747,749 747,748 747,747 747,746 747,745 747,744 747,743 747,742 747,741 747,740 747,739 747,738 747,737 747,736 747,735 747,734 747,733 747,732 747,731 747,730 747,729 747,728 747,727 747,726 748,725 747,724 747,723 747,722 747,721 748,720 748,719 747,718 747,717 748,716 748,715 747,714 747,713 747,712 748,711 748,710 748,709 748,708 748,707 748,706 748,705 748,704 748,703 748,702 747,701 748,700 748,699 748,698 748,697 748,696 748,695 748,694 747,693 747,692 747,691 748,690 748,689 747,688 748,687 748,686 748,685 748,684 748,683 748,682 748,681 748,680 748,679 748,678 748,677 748,676 748,675 748,674 748,673 748,672 748,671 748,670 748,669 748,668 748,667 748,666 748,665 748,664 748,663 748,662 748,661 748,660 748,659 748,658 748,657 748,656 748,655 748,654 748,653 748,652 748,651 748,650 748,649 748,648 748,647 748,646 748,645 748,644 748,643 748,642 747,641 747,640 747,639 747,638 747,637 747,636 747,635 747,634 747,633 747,632 747,631 747,630 747,629 747,628 747,627 747,626 747,625 747,624 747,623 747,622 747,621 747,620 747,619 747,618 747,617 747,616 747,615 747,614 747,613 746,613 745,613 744,613 743,613 742,613 741,613 740,613 739,613 738,613 737,613 736,613 735,612 734,613 733,613 732,613 731,613 730,612 729,612 728,612 727,613 726,612 725,612 724,612 723,612 722,612 721,612 720,612 719,612 718,612 717,612 716,612 715,612 714,612 713,612 712,612 711,612 710,612 709,612 708,612 707,612 706,612 705,612 704,612">
      <metadata tailDirection="" confidence="0.82" linkedToCharacter="" id="TetsuSan_064_balloon_5" tailTip=""></metadata>
    </polygon>
    <polygon points="430,611 430,612 430,613 430,614 430,615 430,616 430,617 430,618 430,619 430,620 430,621 430,622 430,623 430,624 430,625 430,626 430,627 430,628 430,629 430,630 430,631 430,632 430,633 430,634 430,635 430,636 430,637 430,638 430,639 430,640 430,641 430,642 430,643 430,644 430,645 430,646 430,647 430,648 430,649 430,650 430,651 430,652 430,653 430,654 430,655 430,656 430,657 430,658 430,659 430,660 430,661 430,662 430,663 430,664 430,665 430,666 430,667 430,668 430,669 430,670 430,671 430,672 430,673 430,674 430,675 430,676 430,677 430,678 430,679 430,680 430,681 430,682 430,683 430,684 430,685 430,686 430,687 430,688 430,689 430,690 430,691 430,692 430,693 430,694 430,695 430,696 430,697 430,698 430,699 430,700 430,701 430,702 430,703 430,704 430,705 430,706 430,707 430,708 430,709 430,710 430,711 430,712 430,713 430,714 430,715 430,716 430,717 430,718 430,719 430,720 430,721 430,722 430,723 430,724 430,725 430,726 430,727 430,728 430,729 430,730 430,731 430,732 431,732 432,733 433,733 434,734 435,734 436,735 437,735 438,735 439,736 440,736 441,736 442,737 443,737 444,737 445,737 446,737 447,737 448,737 449,737 450,737 451,737 452,737 453,737 454,737 455,737 456,736 457,736 458,737 458,738 459,739 459,740 459,739 459,738 460,737 461,736 462,736 463,736 464,736 465,735 466,735 467,735 468,734 469,734 470,733 471,733 472,732 473,731 474,730 475,729 476,728 477,727 478,726 479,725 480,724 481,723 481,722 482,721 482,720 483,719 483,718 484,717 484,716 485,715 485,714 485,713 486,712 486,711 486,710 487,709 487,708 487,707 487,706 488,705 488,704 488,703 488,702 488,701 489,700 489,699 489,698 489,697 489,696 489,695 489,694 490,693 490,692 490,691 490,690 490,689 490,688 490,687 490,686 490,685 490,684 490,683 490,682 490,681 490,680 490,679 490,678 490,677 491,676 491,675 491,674 491,673 491,672 491,671 491,670 490,669 490,668 490,667 490,666 490,665 490,664 490,663 491,662 490,661 490,660 490,659 490,658 490,657 490,656 490,655 490,654 490,653 490,652 490,651 490,650 489,649 489,648 489,647 489,646 489,645 489,644 489,643 489,642 489,641 488,640 488,639 488,638 488,637 487,636 487,635 487,634 487,633 486,632 486,631 486,630 486,629 485,628 485,627 484,626 484,625 484,624 483,623 483,622 483,621 482,620 482,619 481,618 481,617 480,616 480,615 479,614 479,613 478,612 477,611 476,611 475,611 474,611 473,611 472,611 471,611 470,611 469,611 468,611 467,611 466,611 465,611 464,611 463,611 462,611 461,611 460,611 459,611 458,611 457,611 456,611 455,611 454,611 453,611 452,611 451,611 450,611 449,611 448,611 447,611 446,611 445,611 444,611 443,611 442,611 441,611 440,611 439,611 438,611 437,611 436,611 435,611 434,611 433,611 432,611 431,611 430,611">
      <metadata tailDirection="" confidence="0.87" linkedToCharacter="" id="TetsuSan_064_balloon_6" tailTip=""></metadata>
    </polygon>
    <polygon points="73,609 72,610 71,610 70,610 70,611 70,612 70,613 70,614 71,615 71,616 70,617 70,618 70,619 70,620 70,621 70,622 70,623 70,624 70,625 70,626 70,627 70,628 70,629 70,630 70,631 70,632 70,633 70,634 70,635 70,636 70,637 70,638 70,639 70,640 70,641 70,642 70,643 70,644 70,645 70,646 70,647 70,648 70,649 70,650 70,651 70,652 70,653 70,654 70,655 70,656 70,657 70,658 70,659 70,660 70,661 70,662 70,663 70,664 70,665 70,666 70,667 70,668 70,669 70,670 70,671 70,672 70,673 70,674 70,675 70,676 70,677 70,678 70,679 70,680 70,681 70,682 70,683 70,684 70,685 70,686 70,687 70,688 70,689 70,690 70,691 70,692 70,693 70,694 70,695 70,696 70,697 70,698 70,699 70,700 70,701 70,702 70,703 70,704 70,705 70,706 70,707 70,708 70,709 70,710 70,711 70,712 70,713 70,714 70,715 70,716 70,717 70,718 70,719 70,720 70,721 70,722 70,723 70,724 70,725 70,726 70,727 70,728 70,729 70,730 70,731 70,732 70,733 70,734 71,733 72,732 73,731 74,731 75,730 76,730 77,730 78,730 79,730 80,730 81,730 82,730 83,730 84,731 85,731 86,732 87,733 88,734 89,735 89,736 90,737 90,738 91,739 91,740 92,741 93,742 94,741 95,741 96,740 97,740 98,740 99,740 100,740 101,740 102,741 103,741 104,740 104,739 104,738 105,737 105,736 105,735 106,734 106,733 107,732 107,731 108,730 108,729 109,728 109,727 110,726 110,725 111,724 111,723 112,722 113,721 113,720 114,719 115,718 115,717 116,716 116,715 117,714 118,713 119,712 119,711 120,710 121,709 122,708 122,707 123,706 124,705 125,704 126,703 127,702 128,701 129,701 129,700 129,699 128,698 128,697 128,696 128,695 128,694 127,693 127,692 127,691 127,690 127,689 127,688 127,687 126,686 126,685 126,684 126,683 126,682 126,681 126,680 126,679 126,678 126,677 126,676 126,675 126,674 126,673 126,672 126,671 126,670 126,669 126,668 126,667 126,666 127,665 127,664 127,663 127,662 127,661 128,660 128,659 129,658 129,657 128,656 127,655 126,654 126,653 125,652 124,651 124,650 123,649 123,648 123,647 123,646 122,645 122,644 122,643 122,642 122,641 122,640 121,639 122,638 122,637 122,636 122,635 122,634 122,633 122,632 121,633 120,633 119,633 118,633 117,632 116,631 115,630 114,629 114,628 114,627 114,626 114,625 114,624 114,623 114,622 115,621 115,620 115,619 115,618 115,617 116,616 116,615 116,614 117,613 117,612 118,611 118,610 118,609 117,609 116,609 115,610 114,610 113,609 112,609 111,609 110,609 109,609 108,609 107,609 106,609 105,609 104,609 103,609 102,609 101,609 100,609 99,609 98,609 97,609 96,609 95,609 94,609 93,609 92,609 91,609 90,609 89,609 88,609 87,609 86,609 85,609 84,609 83,609 82,609 81,609 80,609 79,609 78,609 77,609 76,609 75,609 74,609 73,609">
      <metadata tailDirection="" confidence="0.87" linkedToCharacter="" id="TetsuSan_064_balloon_7" tailTip=""></metadata>
    </polygon>
    <polygon points="692,363 691,364 691,365 690,366 690,367 690,368 690,369 689,370 689,371 689,372 689,373 689,374 689,375 688,376 688,377 688,378 688,379 688,380 687,381 687,382 687,383 687,384 687,385 687,386 686,387 686,388 686,389 686,390 686,391 686,392 686,393 686,394 685,395 685,396 685,397 685,398 685,399 685,400 685,401 685,402 685,403 685,404 684,405 684,406 684,407 684,408 684,409 684,410 684,411 684,412 684,413 684,414 684,415 684,416 684,417 684,418 683,419 683,420 683,421 683,422 683,423 683,424 683,425 683,426 683,427 683,428 683,429 683,430 683,431 683,432 683,433 683,434 683,435 683,436 682,437 682,438 682,439 682,440 682,441 682,442 682,443 682,444 682,445 682,446 682,447 682,448 682,449 682,450 682,451 682,452 682,453 682,454 682,455 682,456 682,457 682,458 682,459 682,460 682,461 682,462 682,463 682,464 682,465 682,466 682,467 682,468 682,469 682,470 682,471 682,472 682,473 682,474 682,475 682,476 682,477 682,478 682,479 682,480 682,481 682,482 682,483 682,484 682,485 682,486 682,487 682,488 682,489 682,490 682,491 682,492 682,493 682,494 682,495 682,496 682,497 682,498 682,499 682,500 682,501 682,502 682,503 682,504 682,505 682,506 682,507 682,508 682,509 682,510 682,511 682,512 682,513 682,514 682,515 682,516 682,517 682,518 683,519 683,520 683,521 683,522 683,523 683,524 683,525 683,526 683,527 683,528 683,529 683,530 684,531 684,532 684,533 684,534 684,535 684,536 684,537 684,538 684,539 684,540 684,541 684,542 684,543 685,544 685,545 685,546 685,547 685,548 685,549 686,550 686,551 686,552 686,553 686,554 687,555 687,556 688,557 688,558 688,559 688,560 688,561 689,562 689,563 689,564 690,565 690,566 690,567 691,568 691,569 691,570 692,571 692,572 692,573 693,574 693,575 694,576 694,577 695,578 695,579 696,580 696,581 697,582 697,583 698,584 699,585 700,586 701,587 702,588 703,589 704,590 705,591 706,592 707,592 708,593 709,593 710,594 711,595 712,595 713,595 714,596 715,596 716,596 717,596 718,596 719,596 720,596 721,596 722,596 723,596 724,596 725,596 726,596 727,596 728,596 729,596 730,596 731,596 732,596 733,596 734,596 735,596 736,596 737,596 738,596 739,596 740,596 741,596 742,596 743,596 744,596 745,596 746,596 747,596 747,595 747,594 747,593 747,592 747,591 747,590 747,589 747,588 747,587 747,586 747,585 747,584 747,583 747,582 747,581 747,580 747,579 747,578 747,577 747,576 747,575 747,574 747,573 747,572 747,571 747,570 747,569 747,568 748,567 748,566 747,565 747,564 748,563 748,562 748,561 748,560 748,559 748,558 748,557 748,556 748,555 748,554 748,553 748,552 748,551 748,550 748,549 748,548 748,547 748,546 748,545 748,544 748,543 748,542 748,541 748,540 748,539 748,538 748,537 748,536 748,535 748,534 748,533 748,532 748,531 748,530 748,529 748,528 748,527 748,526 748,525 748,524 748,523 748,522 748,521 748,520 748,519 748,518 748,517 748,516 748,515 748,514 748,513 748,512 748,511 748,510 748,509 748,508 748,507 748,506 748,505 748,504 748,503 748,502 748,501 748,500 748,499 748,498 748,497 748,496 748,495 748,494 748,493 748,492 748,491 748,490 748,489 748,488 748,487 748,486 748,485 748,484 748,483 748,482 748,481 748,480 748,479 748,478 748,477 748,476 748,475 748,474 748,473 748,472 748,471 748,470 748,469 748,468 748,467 748,466 748,465 748,464 748,463 748,462 748,461 748,460 748,459 748,458 748,457 748,456 748,455 748,454 748,453 748,452 748,451 748,450 748,449 748,448 748,447 748,446 748,445 748,444 748,443 748,442 748,441 748,440 748,439 748,438 748,437 748,436 748,435 748,434 748,433 748,432 748,431 748,430 748,429 748,428 748,427 748,426 748,425 748,424 748,423 748,422 748,421 748,420 748,419 748,418 748,417 748,416 748,415 748,414 748,413 748,412 748,411 748,410 748,409 748,408 748,407 748,406 748,405 748,404 748,403 748,402 748,401 748,400 748,399 748,398 748,397 748,396 748,395 748,394 748,393 748,392 748,391 748,390 748,389 748,388 748,387 748,386 748,385 748,384 748,383 748,382 748,381 748,380 748,379 748,378 748,377 748,376 748,375 748,374 748,373 748,372 748,371 748,370 748,369 748,368 748,367 748,366 748,365 748,364 748,363 747,363 746,363 745,363 744,363 743,363 742,363 741,363 740,363 739,363 738,363 737,363 736,363 735,363 734,363 733,363 732,363 731,363 730,363 729,363 728,363 727,363 726,363 725,363 724,363 723,363 722,363 721,363 720,363 719,363 718,363 717,363 716,363 715,363 714,363 713,363 712,363 711,363 710,363 709,363 708,363 707,363 706,363 705,363 704,363 703,363 702,363 701,363 700,363 699,363 698,363 697,363 696,363 695,363 694,363 693,363 692,363">
      <metadata tailDirection="" confidence="0.96" linkedToCharacter="" id="TetsuSan_064_balloon_8" tailTip=""></metadata>
    </polygon>
    <polygon points="430,362 429,363 429,364 429,365 429,366 429,367 429,368 429,369 429,370 429,371 429,372 429,373 429,374 429,375 429,376 429,377 429,378 429,379 429,380 429,381 429,382 429,383 429,384 429,385 429,386 429,387 429,388 429,389 429,390 429,391 429,392 429,393 429,394 429,395 429,396 429,397 429,398 429,399 429,400 429,401 429,402 429,403 429,404 429,405 429,406 429,407 429,408 429,409 429,410 429,411 429,412 429,413 429,414 429,415 429,416 429,417 429,418 429,419 429,420 429,421 429,422 429,423 429,424 429,425 429,426 429,427 429,428 429,429 429,430 429,431 429,432 429,433 429,434 429,435 429,436 429,437 429,438 429,439 429,440 429,441 429,442 429,443 429,444 429,445 429,446 429,447 429,448 429,449 429,450 429,451 429,452 429,453 429,454 429,455 429,456 429,457 429,458 429,459 429,460 429,461 429,462 429,463 429,464 429,465 429,466 429,467 429,468 429,469 429,470 429,471 429,472 429,473 429,474 429,475 429,476 429,477 429,478 429,479 429,480 429,481 429,482 429,483 429,484 429,485 429,486 429,487 429,488 429,489 429,490 429,491 429,492 429,493 429,494 429,495 429,496 429,497 429,498 429,499 429,500 429,501 429,502 429,503 429,504 429,505 429,506 429,507 429,508 429,509 429,510 429,511 429,512 429,513 429,514 429,515 429,516 429,517 429,518 429,519 430,520 430,521 430,522 430,523 429,524 430,525 430,526 430,527 429,528 429,529 429,530 429,531 429,532 429,533 430,534 429,535 429,536 430,537 430,538 430,539 430,540 430,541 430,542 430,543 430,544 430,545 430,546 430,547 430,548 430,549 430,550 430,551 430,552 430,553 430,554 430,555 430,556 431,556 432,557 433,557 434,558 435,559 436,559 437,560 438,560 439,560 440,561 441,561 442,561 443,561 444,561 445,561 446,561 447,561 448,561 449,562 450,562 451,562 452,562 453,562 454,562 455,562 456,561 457,561 458,561 459,561 460,561 461,561 462,561 463,561 464,560 465,560 466,559 467,559 468,558 469,558 470,558 471,557 472,557 473,556 474,555 475,555 476,554 477,553 478,553 479,552 480,551 481,550 482,549 482,548 483,547 484,546 484,545 485,544 485,543 486,542 487,541 487,540 488,539 488,538 489,537 489,536 490,535 490,534 490,533 491,532 491,531 491,530 491,529 492,528 492,527 492,526 493,525 493,524 493,523 493,522 493,521 494,520 494,519 494,518 494,517 494,516 494,515 495,514 495,513 495,512 495,511 495,510 495,509 495,508 495,507 495,506 495,505 495,504 496,503 496,502 496,501 496,500 496,499 496,498 496,497 496,496 496,495 497,494 497,493 497,492 497,491 497,490 497,489 497,488 497,487 497,486 497,485 497,484 497,483 497,482 497,481 497,480 497,479 497,478 497,477 497,476 497,475 497,474 497,473 497,472 497,471 497,470 497,469 496,468 496,467 496,466 496,465 496,464 496,463 496,462 496,461 496,460 496,459 496,458 496,457 496,456 496,455 496,454 496,453 496,452 495,451 496,450 496,449 495,448 495,447 495,446 495,445 495,444 495,443 495,442 494,441 494,440 494,439 494,438 494,437 494,436 494,435 494,434 493,433 493,432 493,431 493,430 493,429 493,428 493,427 493,426 493,425 492,424 492,423 492,422 492,421 492,420 491,419 491,418 491,417 491,416 491,415 491,414 490,413 490,412 490,411 490,410 490,409 490,408 490,407 490,406 489,405 489,404 489,403 489,402 489,401 489,400 489,399 488,398 488,397 488,396 488,395 487,394 487,393 487,392 486,391 486,390 486,389 486,388 485,387 485,386 485,385 484,384 484,383 484,382 483,381 483,380 482,379 482,378 482,377 482,376 482,375 481,374 481,373 480,372 480,371 479,370 479,369 479,368 478,367 478,366 477,365 477,364 476,363 475,362 474,362 473,362 472,362 471,362 470,362 469,362 468,362 467,362 466,362 465,362 464,362 463,362 462,362 461,362 460,362 459,362 458,362 457,362 456,362 455,362 454,362 453,362 452,362 451,362 450,362 449,362 448,362 447,362 446,362 445,362 444,362 443,362 442,362 441,362 440,362 439,362 438,362 437,362 436,362 435,362 434,362 433,362 432,362 431,362 430,362">
      <metadata tailDirection="" confidence="0.87" linkedToCharacter="" id="TetsuSan_064_balloon_9" tailTip=""></metadata>
    </polygon>
    <polygon points="71,362 71,363 71,364 71,365 71,366 71,367 71,368 71,369 71,370 71,371 71,372 71,373 71,374 71,375 71,376 71,377 71,378 71,379 71,380 71,381 71,382 71,383 70,384 71,385 71,386 71,387 71,388 71,389 71,390 71,391 71,392 70,393 70,394 71,395 71,396 71,397 71,398 70,399 70,400 70,401 70,402 70,403 70,404 70,405 70,406 70,407 70,408 70,409 70,410 70,411 70,412 70,413 70,414 70,415 70,416 70,417 70,418 70,419 70,420 70,421 70,422 70,423 70,424 70,425 70,426 70,427 70,428 70,429 70,430 70,431 70,432 70,433 70,434 70,435 70,436 70,437 70,438 70,439 70,440 70,441 70,442 70,443 70,444 70,445 70,446 70,447 70,448 70,449 70,450 70,451 70,452 70,453 70,454 70,455 70,456 70,457 70,458 70,459 70,460 70,461 70,462 70,463 70,464 70,465 70,466 70,467 70,468 70,469 70,470 70,471 70,472 70,473 70,474 70,475 70,476 70,477 70,478 70,479 70,480 70,481 70,482 70,483 70,484 70,485 70,486 70,487 70,488 70,489 70,490 70,491 70,492 70,493 70,494 70,495 70,496 70,497 70,498 70,499 70,500 70,501 70,502 70,503 70,504 70,505 70,506 70,507 70,508 70,509 70,510 70,511 70,512 70,513 70,514 70,515 70,516 70,517 71,516 72,515 73,515 74,515 75,515 76,514 77,514 78,514 79,514 80,514 81,515 82,515 83,516 84,516 85,517 86,518 87,519 88,520 88,521 89,522 90,521 91,520 92,519 93,519 94,518 95,518 96,518 97,518 98,518 99,518 100,518 101,518 102,518 103,519 104,519 105,520 106,521 107,522 107,523 108,524 109,523 109,522 109,521 110,520 111,519 111,518 112,517 112,516 113,515 114,514 115,513 116,512 116,511 117,510 118,509 119,508 120,507 121,507 122,506 123,505 124,504 125,503 126,502 127,501 128,500 129,500 130,499 131,498 132,497 133,497 134,496 135,496 136,495 136,494 136,493 136,492 136,491 136,490 136,489 136,488 136,487 136,486 136,485 136,484 136,483 136,482 136,481 137,480 137,479 137,478 137,477 137,476 138,475 138,474 138,473 139,472 139,471 139,470 140,469 141,468 141,467 141,466 140,465 140,464 139,463 139,462 138,461 138,460 138,459 137,458 137,457 137,456 136,455 136,454 136,453 136,452 136,451 136,450 136,449 136,448 136,447 136,446 136,445 136,444 136,443 136,442 137,441 137,440 137,439 137,438 138,437 138,436 139,435 139,434 139,433 139,432 138,431 138,430 137,429 137,428 137,427 136,426 136,425 136,424 136,423 135,422 135,421 135,420 135,419 135,418 134,417 134,416 134,415 134,414 134,413 134,412 134,411 134,410 134,409 134,408 134,407 134,406 134,405 134,404 134,403 134,402 134,401 134,400 134,399 134,398 134,397 134,396 134,395 134,394 135,393 135,392 135,391 135,390 136,389 135,388 134,387 133,386 132,385 131,384 130,383 130,382 129,381 129,380 129,379 129,378 129,377 129,376 129,375 129,374 129,373 129,372 129,371 129,370 129,369 129,368 130,367 130,366 130,365 130,364 131,363 131,362 130,362 129,362 128,362 127,362 126,362 125,362 124,362 123,362 122,362 121,362 120,362 119,362 118,362 117,362 116,362 115,362 114,362 113,362 112,362 111,362 110,362 109,362 108,362 107,362 106,362 105,362 104,362 103,362 102,362 101,362 100,362 99,362 98,362 97,362 96,362 95,362 94,362 93,362 92,362 91,362 90,362 89,362 88,362 87,362 86,362 85,362 84,362 83,362 82,362 81,362 80,362 79,362 78,362 77,362 76,362 75,362 74,362 73,362 72,362 71,362">
      <metadata tailDirection="" confidence="0.80" linkedToCharacter="" id="TetsuSan_064_balloon_10" tailTip=""></metadata>
    </polygon>
    <polygon points="695,121 694,122 694,123 694,124 693,125 693,126 693,127 693,128 692,129 692,130 692,131 692,132 691,133 691,134 691,135 691,136 691,137 691,138 690,139 690,140 690,141 690,142 690,143 690,144 690,145 690,146 689,147 689,148 689,149 689,150 689,151 689,152 689,153 689,154 689,155 689,156 689,157 689,158 689,159 688,160 688,161 688,162 688,163 688,164 688,165 688,166 688,167 688,168 688,169 688,170 688,171 688,172 688,173 688,174 688,175 688,176 687,177 687,178 687,179 687,180 687,181 687,182 687,183 687,184 687,185 687,186 687,187 687,188 687,189 687,190 687,191 687,192 687,193 687,194 687,195 688,196 688,197 688,198 688,199 687,200 686,201 685,201 684,201 683,201 682,201 683,201 684,202 685,203 686,203 687,204 687,205 687,206 687,207 687,208 687,209 687,210 687,211 686,212 686,213 686,214 686,215 686,216 686,217 686,218 686,219 686,220 686,221 686,222 686,223 686,224 686,225 686,226 686,227 686,228 686,229 686,230 686,231 686,232 686,233 686,234 686,235 685,236 685,237 685,238 685,239 685,240 685,241 685,242 685,243 685,244 685,245 685,246 685,247 685,248 685,249 685,250 685,251 685,252 685,253 685,254 685,255 685,256 686,257 686,258 686,259 686,260 686,261 686,262 686,263 686,264 686,265 686,266 686,267 686,268 687,269 687,270 687,271 687,272 688,273 688,274 688,275 688,276 688,277 688,278 688,279 688,280 688,281 688,282 689,283 689,284 689,285 690,286 690,287 690,288 691,289 691,290 691,291 692,292 692,293 692,294 693,295 693,296 694,297 695,298 695,299 696,300 697,301 697,302 698,303 699,304 700,305 701,306 701,307 702,307 703,308 703,309 704,309 705,310 706,311 707,311 708,312 709,312 710,313 711,313 712,314 713,314 714,315 715,315 716,315 717,316 718,316 719,316 720,316 721,316 722,316 723,316 724,316 725,317 726,316 727,317 728,317 729,317 730,317 731,317 732,317 733,317 734,317 735,317 736,317 737,317 738,317 739,317 740,316 741,316 742,316 743,316 744,315 745,315 746,315 747,314 748,314 748,313 748,312 748,311 748,310 748,309 748,308 748,307 748,306 748,305 748,304 748,303 748,302 748,301 748,300 748,299 748,298 748,297 748,296 748,295 748,294 748,293 748,292 748,291 748,290 748,289 748,288 748,287 748,286 748,285 748,284 748,283 748,282 748,281 748,280 748,279 748,278 748,277 748,276 748,275 748,274 748,273 748,272 748,271 748,270 748,269 748,268 748,267 748,266 748,265 748,264 748,263 748,262 748,261 748,260 748,259 748,258 748,257 748,256 748,255 748,254 748,253 748,252 748,251 748,250 748,249 748,248 748,247 748,246 748,245 748,244 748,243 748,242 748,241 748,240 748,239 748,238 748,237 748,236 748,235 748,234 748,233 748,232 748,231 748,230 748,229 748,228 748,227 748,226 748,225 748,224 748,223 748,222 748,221 748,220 748,219 748,218 748,217 748,216 748,215 748,214 748,213 748,212 748,211 748,210 748,209 748,208 748,207 748,206 748,205 748,204 748,203 748,202 748,201 748,200 748,199 748,198 748,197 748,196 748,195 749,194 749,193 748,192 748,191 748,190 749,189 749,188 749,187 749,186 749,185 749,184 749,183 749,182 749,181 749,180 749,179 749,178 749,177 749,176 749,175 749,174 749,173 749,172 749,171 749,170 749,169 749,168 749,167 749,166 749,165 749,164 749,163 749,162 749,161 749,160 749,159 749,158 749,157 749,156 749,155 749,154 749,153 749,152 749,151 749,150 749,149 749,148 749,147 749,146 749,145 749,144 749,143 749,142 749,141 749,140 749,139 749,138 749,137 749,136 749,135 749,134 749,133 749,132 749,131 749,130 749,129 749,128 749,127 749,126 749,125 749,124 749,123 749,122 748,122 747,122 746,122 745,122 744,122 743,121 742,121 741,121 740,121 739,121 738,121 737,121 736,121 735,121 734,121 733,121 732,121 731,121 730,121 729,121 728,121 727,121 726,121 725,121 724,121 723,121 722,121 721,121 720,121 719,121 718,121 717,121 716,121 715,121 714,121 713,121 712,121 711,121 710,121 709,121 708,121 707,121 706,121 705,121 704,121 703,121 702,121 701,121 700,121 699,121 698,121 697,121 696,121 695,121">
      <metadata tailDirection="" confidence="0.99" linkedToCharacter="" id="TetsuSan_064_balloon_11" tailTip=""></metadata>
    </polygon>
    <polygon points="429,121 429,122 429,123 429,124 429,125 429,126 429,127 429,128 429,129 429,130 429,131 429,132 429,133 429,134 429,135 429,136 429,137 429,138 429,139 429,140 429,141 429,142 429,143 429,144 429,145 429,146 429,147 429,148 429,149 429,150 429,151 429,152 429,153 429,154 429,155 429,156 429,157 429,158 429,159 429,160 429,161 429,162 429,163 429,164 429,165 429,166 429,167 429,168 429,169 429,170 429,171 429,172 429,173 429,174 429,175 429,176 429,177 429,178 429,179 429,180 429,181 429,182 429,183 429,184 429,185 429,186 429,187 429,188 429,189 429,190 429,191 429,192 429,193 429,194 429,195 429,196 429,197 429,198 429,199 429,200 429,201 429,202 429,203 429,204 429,205 429,206 429,207 429,208 429,209 429,210 429,211 429,212 429,213 429,214 429,215 429,216 429,217 429,218 429,219 429,220 429,221 429,222 429,223 429,224 429,225 429,226 429,227 429,228 429,229 429,230 429,231 429,232 429,233 429,234 429,235 429,236 429,237 429,238 429,239 429,240 429,241 429,242 429,243 429,244 429,245 429,246 429,247 429,248 429,249 429,250 429,251 429,252 429,253 429,254 429,255 429,256 429,257 429,258 429,259 429,260 429,261 429,262 429,263 429,264 429,265 429,266 429,267 429,268 429,269 429,270 429,271 429,272 429,273 429,274 429,275 429,276 429,277 429,278 429,279 429,280 429,281 429,282 429,283 429,284 429,285 429,286 429,287 429,288 429,289 429,290 430,291 431,292 432,292 433,293 434,293 435,294 436,294 437,294 438,295 439,295 440,295 441,295 442,296 443,296 444,296 445,296 446,296 447,297 448,297 449,297 450,297 451,297 452,297 453,297 454,297 455,297 456,297 457,297 458,297 459,297 460,297 461,297 462,296 463,296 464,296 465,296 466,296 467,295 468,295 469,295 470,295 471,294 472,294 473,293 474,292 475,292 476,292 477,293 478,294 479,295 480,296 480,295 479,294 479,293 478,292 478,291 477,290 478,289 479,288 480,287 480,286 481,285 482,284 483,283 483,282 483,281 484,280 485,279 485,278 486,277 487,276 487,275 487,274 488,273 489,272 489,271 489,270 490,269 490,268 490,267 491,266 491,265 491,264 492,263 492,262 493,261 493,260 493,259 493,258 494,257 494,256 494,255 494,254 494,253 495,252 495,251 495,250 495,249 495,248 496,247 496,246 496,245 496,244 496,243 496,242 497,241 497,240 497,239 497,238 497,237 497,236 497,235 497,234 497,233 497,232 497,231 497,230 497,229 497,228 497,227 497,226 497,225 497,224 497,223 497,222 497,221 497,220 497,219 497,218 497,217 497,216 497,215 497,214 497,213 497,212 497,211 497,210 496,209 496,208 496,207 496,206 496,205 496,204 496,203 496,202 496,201 496,200 496,199 496,198 496,197 496,196 496,195 496,194 496,193 496,192 496,191 496,190 496,189 495,188 495,187 495,186 495,185 495,184 495,183 495,182 495,181 495,180 494,179 494,178 494,177 494,176 494,175 494,174 493,173 493,172 493,171 493,170 493,169 493,168 493,167 492,166 492,165 492,164 492,163 492,162 492,161 491,160 491,159 491,158 491,157 490,156 490,155 490,154 490,153 490,152 490,151 489,150 489,149 489,148 489,147 489,146 488,145 488,144 488,143 488,142 487,141 487,140 487,139 487,138 487,137 486,136 486,135 486,134 485,133 485,132 485,131 484,130 484,129 484,128 484,127 483,126 483,125 483,124 482,123 482,122 482,121 481,121 480,121 479,121 478,121 477,121 476,121 475,121 474,121 473,121 472,121 471,121 470,121 469,121 468,121 467,121 466,121 465,121 464,121 463,121 462,121 461,121 460,121 459,121 458,121 457,121 456,121 455,121 454,121 453,121 452,121 451,121 450,121 449,121 448,121 447,121 446,121 445,121 444,121 443,121 442,121 441,121 440,121 439,121 438,121 437,121 436,121 435,121 434,121 433,121 432,121 431,121 430,122 429,121">
      <metadata tailDirection="" confidence="0.90" linkedToCharacter="" id="TetsuSan_064_balloon_12" tailTip=""></metadata>
    </polygon>
    <polygon points="72,120 71,121 70,121 70,122 70,123 70,124 70,125 70,126 70,127 70,128 70,129 70,130 70,131 70,132 70,133 70,134 70,135 70,136 70,137 70,138 70,139 70,140 70,141 70,142 70,143 70,144 70,145 70,146 70,147 70,148 70,149 70,150 70,151 70,152 70,153 70,154 70,155 70,156 70,157 70,158 70,159 70,160 70,161 70,162 70,163 70,164 70,165 70,166 70,167 70,168 70,169 70,170 70,171 70,172 70,173 70,174 70,175 70,176 70,177 70,178 70,179 70,180 70,181 70,182 70,183 70,184 70,185 70,186 70,187 70,188 70,189 70,190 70,191 70,192 70,193 70,194 70,195 70,196 70,197 70,198 70,199 70,200 70,201 70,202 70,203 70,204 70,205 70,206 70,207 70,208 70,209 70,210 70,211 70,212 70,213 70,214 70,215 70,216 70,217 70,218 70,219 70,220 70,221 70,222 70,223 70,224 70,225 70,226 70,227 70,228 70,229 70,230 70,231 70,232 70,233 70,234 70,235 70,236 70,237 70,238 71,239 70,240 70,241 70,242 70,243 70,244 70,245 70,246 70,247 70,248 70,249 70,250 70,251 70,252 70,253 70,254 70,255 71,256 70,257 70,258 71,259 70,260 70,261 70,262 70,263 71,264 70,265 70,266 70,267 70,268 70,269 70,270 70,271 70,272 70,273 70,274 70,275 70,276 71,276 72,277 73,277 74,278 75,278 76,279 77,279 78,279 79,279 80,280 81,280 82,280 83,280 84,280 85,280 86,280 87,280 88,280 89,281 90,281 91,281 92,280 93,280 94,280 95,280 96,280 97,280 98,280 99,281 100,282 100,283 101,284 100,283 100,282 100,281 101,280 102,280 103,280 104,280 105,280 106,280 107,280 108,280 109,280 110,280 111,280 112,279 113,279 114,279 115,279 116,278 117,277 118,277 119,277 120,276 121,275 122,275 123,274 124,273 125,273 126,272 127,271 128,270 129,269 130,268 130,267 131,266 132,265 132,264 133,263 133,262 134,261 134,260 135,259 135,258 136,257 136,256 137,255 137,254 137,253 138,252 138,251 138,250 139,249 139,248 140,247 140,246 140,245 141,244 141,243 141,242 142,241 142,240 142,239 142,238 143,237 143,236 143,235 143,234 143,233 143,232 144,231 144,230 144,229 144,228 144,227 144,226 144,225 144,224 144,223 144,222 144,221 145,220 145,219 145,218 145,217 145,216 145,215 145,214 145,213 145,212 145,211 145,210 145,209 145,208 145,207 145,206 145,205 145,204 145,203 145,202 145,201 145,200 145,199 145,198 145,197 144,196 144,195 144,194 145,193 144,192 144,191 144,190 144,189 144,188 144,187 144,186 144,185 144,184 144,183 143,182 143,181 143,180 143,179 143,178 143,177 143,176 143,175 142,174 142,173 142,172 142,171 142,170 142,169 142,168 142,167 141,166 141,165 141,164 141,163 141,162 141,161 140,160 140,159 140,158 140,157 140,156 140,155 139,154 139,153 139,152 139,151 139,150 138,149 138,148 138,147 138,146 137,145 137,144 137,143 136,142 136,141 136,140 136,139 136,138 135,137 135,136 135,135 134,134 134,133 134,132 133,131 133,130 132,129 132,128 131,127 131,126 130,125 130,124 129,123 128,122 128,121 127,120 126,120 125,120 124,120 123,120 122,120 121,120 120,120 119,120 118,120 117,120 116,120 115,120 114,120 113,120 112,120 111,120 110,120 109,120 108,120 107,120 106,120 105,120 104,120 103,120 102,120 101,120 100,120 99,120 98,120 97,120 96,120 95,120 94,120 93,120 92,120 91,120 90,120 89,120 88,120 87,120 86,120 85,120 84,120 83,120 82,120 81,120 80,120 79,120 78,120 77,120 76,120 75,120 74,120 73,120 72,120">
      <metadata tailDirection="" confidence="0.95" linkedToCharacter="" id="TetsuSan_064_balloon_13" tailTip=""></metadata>
    </polygon>
  </svg>
</svg>
