<?xml version="1.0" encoding="UTF-8" standalone="no"?>
<svg width="827" xmlns="http://www.w3.org/2000/svg" version="1.0" height="1170">
  <title>TetsuSan_039</title>
  <svg contentScriptType="text/ecmascript" zoomAndPan="magnify" contentStyleType="text/css" class="Page" preserveAspectRatio="xMidYMid meet" version="1.0">
    <image xmlns:xlink="http://www.w3.org/1999/xlink" x="0" y="0" width="827" height="1170" xlink:href="./../../dataset_Manga109/TetsuSan/TetsuSan_039.jpg" xlink:type="simple" xlink:actuate="onLoad" preserveAspectRatio="xMidYMid meet" xlink:show="embed"/>
  </svg>
  <style type="text/css" xml:space="preserve">
        * { stroke-linejoin: round; }
        .Unclassified   { fill: orange; stroke: none;   opacity: 1.0; visibility: hidden; }
        .Noise          { fill: pink;   stroke: none;   opacity: 0.2; visibility: hidden; }
        .Panel          { fill: none;   stroke: red;    stroke-width:3; opacity: 0.5; visibility: visible; image-rendering: optimizeSpeed; }
        .Line           { fill: green;  stroke: none;   opacity: 0.5; visibility: visible; image-rendering: optimizeSpeed; }
        .TextArea       { fill: grey;   stroke: none;   opacity: 0.2; visibility: visible; image-rendering: optimizeSpeed; }
        .Balloon        { fill: cyan;   stroke: none;   opacity: 0.5; visibility: visible; image-rendering: optimizeSpeed; }
        .Letter         { fill: blue;   stroke: none;   opacity: 0.2; visibility: hidden; }
        .Object, .Character, .Face  { fill: yellow; stroke: none;   opacity: 0.5; visibility: visible; image-rendering: optimizeSpeed; }
        .Page           { fill: white;  stroke: none;    opacity: 0.5; visibility: visible; }
        .linkSBSC { fill: blue; stroke: none; opacity: 1.0; visibility: visible; }
        polygon:hover { opacity:1.0; stroke:red; }
</style>
  <svg xmlns="http://www.w3.org/2000/svg" contentScriptType="text/ecmascript" zoomAndPan="magnify" contentStyleType="text/css" class="Balloon" preserveAspectRatio="xMidYMid meet" version="1.0">
    <polygon points="677,910 676,911 676,912 676,913 675,914 675,915 675,916 674,917 674,918 674,919 674,920 673,921 673,922 673,923 672,924 671,924 670,923 670,922 670,921 671,920 671,919 671,920 670,921 670,922 670,923 669,924 668,923 668,922 668,921 668,920 668,919 669,918 669,917 669,916 670,915 670,914 670,913 671,912 671,911 670,911 670,912 669,913 669,914 669,915 668,916 668,917 668,918 667,919 667,920 667,921 666,922 665,923 664,922 664,921 664,920 665,919 665,918 665,917 665,916 666,915 666,914 666,913 667,912 667,911 666,911 665,911 664,911 663,911 662,911 661,911 660,911 659,911 658,911 657,911 656,911 655,911 654,911 653,911 652,911 651,911 650,911 649,911 648,911 647,911 646,911 645,911 644,911 643,911 642,911 641,911 640,911 639,911 638,911 637,911 636,911 635,911 634,911 633,911 632,911 631,911 630,911 629,911 628,911 627,911 626,911 625,911 624,911 623,911 622,911 621,911 620,911 619,911 618,911 617,911 616,911 615,911 614,911 613,911 612,911 611,911 610,911 609,911 608,911 607,911 606,911 605,911 604,911 603,911 602,911 601,911 600,911 600,912 600,913 600,914 600,915 601,916 601,917 601,918 601,919 601,920 602,921 602,922 602,923 602,924 602,925 603,926 603,927 602,928 602,929 601,930 600,931 600,932 600,933 599,934 599,935 599,936 598,937 597,938 597,939 597,940 597,941 596,942 596,943 596,944 596,945 596,946 596,947 596,948 596,949 596,950 596,951 596,952 596,953 596,954 596,955 597,956 597,957 597,958 597,959 598,960 599,960 600,960 601,960 602,960 603,961 604,961 605,961 606,962 607,962 608,963 609,963 610,963 611,964 612,965 612,966 613,966 614,967 615,968 615,969 615,970 616,971 617,972 617,973 617,974 618,975 618,976 617,977 616,978 616,979 616,980 617,981 617,982 617,983 617,984 618,985 618,986 618,987 619,988 619,989 620,990 620,991 619,992 619,993 619,994 619,995 619,996 619,997 619,998 619,999 619,1000 619,1001 619,1002 619,1003 618,1004 618,1005 617,1006 616,1007 617,1008 617,1009 617,1010 616,1011 616,1012 616,1013 615,1014 615,1015 615,1016 615,1017 615,1018 615,1019 615,1020 615,1021 615,1022 616,1021 617,1022 616,1021 616,1020 617,1019 618,1019 619,1020 620,1020 621,1020 622,1019 623,1019 624,1018 625,1018 626,1017 627,1016 628,1016 629,1015 630,1015 631,1014 632,1013 633,1013 634,1012 635,1013 635,1014 636,1014 637,1013 638,1014 639,1014 640,1014 641,1015 642,1015 643,1015 644,1015 645,1015 646,1015 647,1015 648,1015 649,1016 650,1016 651,1016 652,1015 653,1016 654,1017 655,1016 656,1017 657,1018 656,1019 655,1020 654,1019 653,1020 652,1019 651,1018 650,1019 649,1018 648,1019 647,1018 646,1018 645,1018 644,1018 643,1018 642,1018 641,1017 640,1018 639,1017 638,1017 637,1017 636,1017 635,1017 634,1016 633,1016 632,1016 632,1017 631,1018 630,1017 629,1018 628,1019 629,1020 628,1021 627,1022 626,1022 626,1023 625,1024 624,1025 623,1024 622,1023 622,1022 623,1021 624,1022 623,1021 622,1022 621,1022 620,1022 620,1023 619,1024 618,1025 619,1026 618,1027 619,1028 618,1029 617,1030 618,1029 619,1030 619,1031 619,1032 619,1033 620,1034 619,1035 618,1035 617,1035 617,1036 617,1037 616,1038 617,1037 618,1037 619,1038 618,1039 617,1040 618,1039 619,1040 620,1041 619,1042 618,1043 617,1042 618,1043 617,1044 616,1045 617,1046 618,1047 617,1048 618,1049 617,1050 617,1051 617,1052 617,1051 617,1050 618,1049 619,1050 619,1051 619,1052 619,1053 618,1054 617,1054 617,1055 617,1056 617,1057 618,1058 619,1057 620,1057 621,1058 620,1059 619,1060 618,1060 618,1061 618,1062 618,1063 619,1064 618,1065 619,1065 620,1065 621,1066 620,1067 619,1067 619,1068 619,1069 620,1070 621,1071 620,1072 621,1073 620,1074 621,1075 622,1074 623,1074 622,1074 621,1073 620,1072 621,1071 620,1070 619,1069 619,1068 620,1067 621,1068 622,1069 623,1068 624,1069 625,1068 626,1067 627,1068 627,1069 628,1070 628,1071 628,1072 628,1073 628,1072 628,1071 628,1070 627,1069 628,1068 627,1068 626,1067 627,1066 628,1066 628,1065 627,1064 628,1063 628,1062 628,1061 628,1060 628,1059 628,1058 628,1057 628,1056 627,1055 628,1054 627,1053 628,1052 627,1051 628,1050 629,1049 629,1048 629,1047 629,1046 629,1045 629,1044 630,1043 630,1042 630,1041 630,1040 631,1039 631,1038 631,1037 631,1036 631,1035 632,1034 632,1033 632,1032 633,1031 634,1030 635,1031 635,1032 635,1033 635,1034 635,1035 634,1036 634,1037 634,1038 634,1039 633,1040 634,1041 633,1042 633,1043 633,1044 633,1045 632,1046 633,1047 632,1048 633,1049 632,1050 631,1051 632,1052 631,1053 632,1054 631,1055 632,1056 631,1057 631,1058 631,1059 631,1060 631,1061 631,1062 631,1063 631,1064 631,1065 631,1066 631,1067 632,1068 631,1069 632,1070 631,1071 632,1072 631,1073 632,1074 633,1073 634,1074 635,1075 636,1076 635,1077 636,1076 637,1075 638,1074 639,1073 640,1074 641,1075 641,1076 640,1077 639,1077 639,1078 640,1077 641,1078 642,1077 643,1078 644,1079 643,1080 642,1081 641,1082 640,1082 639,1081 640,1082 639,1083 640,1082 641,1082 642,1081 643,1080 644,1081 645,1080 646,1081 647,1082 646,1083 647,1082 648,1081 647,1080 648,1079 649,1078 650,1079 651,1080 652,1079 653,1078 652,1079 651,1078 650,1077 651,1076 652,1075 653,1076 652,1075 653,1074 653,1073 654,1072 655,1073 656,1072 657,1072 657,1071 658,1070 659,1070 659,1069 658,1068 659,1067 660,1066 659,1065 660,1064 659,1063 660,1062 660,1061 660,1060 660,1059 659,1058 660,1057 659,1056 660,1055 660,1054 660,1053 660,1052 660,1051 660,1050 660,1049 660,1048 660,1047 660,1046 660,1045 660,1044 660,1043 659,1042 658,1041 659,1040 660,1039 659,1038 660,1037 661,1036 660,1035 661,1034 662,1033 663,1032 664,1031 665,1032 666,1031 667,1030 668,1029 668,1028 669,1027 670,1028 671,1027 672,1027 673,1026 672,1026 671,1025 670,1024 669,1023 668,1022 667,1021 666,1022 665,1021 664,1020 663,1019 662,1018 661,1019 660,1018 660,1017 660,1016 659,1015 658,1015 657,1014 656,1015 655,1014 654,1015 653,1014 652,1015 651,1014 650,1013 649,1014 648,1013 647,1014 646,1014 645,1013 644,1014 643,1013 642,1014 641,1013 640,1013 639,1013 638,1014 637,1013 636,1013 635,1012 636,1011 637,1010 637,1009 638,1008 638,1007 639,1006 640,1007 640,1008 640,1009 639,1010 640,1010 641,1010 642,1010 643,1010 644,1011 645,1010 646,1011 647,1011 648,1011 649,1011 650,1011 651,1011 652,1011 653,1011 654,1011 655,1011 656,1011 657,1011 658,1012 659,1013 660,1013 661,1014 662,1015 663,1015 664,1015 665,1015 666,1015 667,1015 668,1015 669,1015 670,1014 671,1013 671,1012 672,1011 672,1010 672,1009 673,1008 673,1007 673,1006 673,1005 674,1004 674,1003 674,1002 674,1001 674,1000 674,999 675,998 675,997 674,996 674,995 674,994 674,993 674,992 674,991 674,990 674,989 674,988 673,988 672,988 671,988 670,989 670,990 670,991 670,992 670,993 670,994 670,995 670,996 670,997 670,998 670,999 669,1000 668,1000 667,999 666,998 666,997 666,996 666,995 666,994 666,993 666,992 666,991 666,990 666,989 665,989 664,989 664,990 664,991 663,992 663,993 663,994 663,995 663,996 663,997 663,998 663,997 663,996 663,995 663,994 663,993 664,992 665,991 666,992 666,993 665,994 665,995 665,996 665,997 665,998 666,999 667,1000 666,1001 665,1001 664,1001 665,1002 666,1003 667,1004 667,1003 666,1002 666,1001 667,1000 668,1001 669,1001 670,1002 670,1003 670,1004 669,1005 668,1006 667,1006 666,1006 665,1005 664,1005 663,1004 663,1003 662,1002 662,1003 661,1004 660,1005 659,1006 658,1007 657,1008 656,1009 655,1010 654,1010 653,1009 654,1008 653,1008 652,1008 651,1008 650,1008 649,1008 648,1008 647,1008 646,1008 647,1008 648,1008 649,1008 650,1008 651,1008 652,1008 653,1009 652,1010 651,1010 650,1010 649,1010 648,1010 647,1010 646,1010 645,1010 644,1009 643,1009 642,1009 641,1008 640,1007 639,1006 638,1005 637,1004 636,1003 636,1002 635,1002 634,1003 633,1003 632,1004 631,1004 630,1005 629,1005 628,1005 627,1004 628,1003 629,1003 630,1002 631,1002 632,1001 633,1001 634,1000 635,1000 635,999 634,998 634,997 634,996 633,995 633,994 633,993 632,992 632,991 632,990 631,989 631,988 631,987 630,986 630,985 629,986 628,986 627,987 626,987 625,988 624,988 623,987 624,986 625,985 626,985 627,984 628,984 629,983 630,983 629,983 628,984 627,984 626,985 625,985 624,986 623,986 622,987 621,987 620,986 621,985 622,984 623,984 624,983 625,983 626,982 627,982 628,981 629,981 630,980 630,979 630,978 630,977 630,976 630,975 630,974 631,973 631,972 631,971 632,970 633,969 633,968 634,967 635,966 636,965 637,964 638,964 639,963 640,962 641,962 642,961 643,961 644,960 645,960 646,959 647,959 648,959 649,959 650,959 651,958 652,958 653,958 654,958 655,958 656,958 657,958 658,958 659,958 660,959 661,959 662,959 663,959 664,959 665,960 666,960 667,961 668,961 669,961 670,962 671,962 672,963 673,963 674,964 675,965 675,966 675,967 674,968 674,969 674,970 673,971 673,972 673,973 674,974 674,975 675,976 675,977 675,978 676,979 676,980 676,981 676,982 676,983 676,984 676,985 676,986 676,987 676,988 676,989 676,990 676,991 676,992 676,993 677,994 677,995 677,996 677,997 677,998 677,999 677,1000 677,1001 677,1002 676,1003 676,1004 676,1005 676,1006 676,1007 675,1008 675,1009 675,1010 674,1011 674,1012 673,1013 673,1014 672,1015 671,1016 670,1017 669,1017 668,1017 667,1017 666,1017 665,1017 664,1017 665,1018 666,1018 667,1019 668,1019 669,1020 670,1021 671,1022 672,1022 673,1023 674,1024 675,1025 676,1026 677,1026 678,1027 679,1028 680,1029 680,1028 680,1027 680,1026 680,1025 680,1024 680,1023 680,1022 680,1021 680,1020 680,1019 680,1018 680,1017 681,1016 682,1015 682,1014 683,1013 684,1012 684,1011 685,1010 685,1009 686,1008 687,1008 688,1009 688,1010 688,1011 688,1012 688,1011 689,1010 689,1009 690,1008 691,1008 692,1008 693,1009 694,1010 695,1011 696,1012 696,1013 696,1014 697,1013 698,1013 699,1014 699,1015 699,1016 699,1017 699,1018 699,1019 699,1020 698,1021 698,1022 697,1023 697,1024 697,1025 697,1026 697,1027 697,1028 697,1029 697,1030 696,1031 697,1031 697,1030 698,1029 698,1028 698,1027 699,1026 699,1025 699,1024 699,1023 699,1022 700,1021 700,1020 700,1019 700,1018 700,1017 700,1016 700,1015 700,1014 699,1013 699,1012 699,1011 698,1010 697,1009 696,1008 695,1008 694,1008 693,1007 692,1008 691,1008 690,1007 690,1006 690,1005 691,1004 692,1004 692,1003 692,1002 693,1001 693,1000 694,999 694,998 694,997 694,996 695,995 695,994 695,993 695,992 695,991 695,990 695,989 695,988 694,987 693,986 692,985 691,985 690,985 689,985 688,986 687,986 686,985 686,984 687,983 688,983 689,982 690,982 690,981 691,980 692,979 692,978 693,977 693,976 694,975 694,974 694,973 694,972 695,971 695,970 695,969 695,968 695,967 695,966 695,965 695,964 695,963 694,962 693,961 692,960 691,960 690,959 689,959 688,958 687,958 686,957 687,956 688,955 689,955 689,954 690,953 691,952 692,951 693,950 693,949 694,948 694,947 695,946 695,945 696,944 696,943 696,942 697,941 697,940 697,939 697,938 697,937 697,936 696,935 696,934 696,933 695,932 694,931 693,932 692,932 691,931 691,930 692,929 693,929 692,928 693,927 694,926 695,927 695,926 696,925 697,924 697,923 698,922 699,921 699,920 700,919 700,918 701,917 701,916 702,915 702,914 702,913 702,912 702,911 702,910 701,910 700,910 699,910 698,910 697,910 696,911 696,912 696,913 695,914 695,915 695,916 694,917 694,918 694,919 693,920 692,921 691,920 691,919 692,918 692,917 692,916 692,915 693,914 693,913 693,912 694,911 694,910 694,911 693,912 693,913 693,914 692,915 692,916 692,917 692,918 691,919 691,920 691,921 690,922 690,923 689,924 688,925 687,924 687,923 686,923 685,922 686,921 686,920 686,919 687,918 687,917 687,916 687,915 688,914 688,913 688,912 689,911 689,910 688,910 687,910 686,910 685,910 684,910 683,911 683,912 682,913 682,914 682,915 681,916 681,917 680,918 680,919 680,920 679,921 679,922 679,923 678,924 678,925 677,926 677,927 676,928 675,927 675,926 675,925 675,924 676,923 676,922 677,921 677,920 677,919 678,918 678,917 678,916 679,915 679,914 679,913 680,912 680,911 680,910 679,911 678,911 677,910">
      <metadata tailDirection="" confidence="0.83" linkedToCharacter="" id="TetsuSan_039_balloon_0" tailTip=""></metadata>
    </polygon>
    <polygon points="700,865 701,866 702,867 702,868 703,869 704,870 704,871 704,872 705,873 705,874 705,875 705,876 706,877 706,878 706,879 706,880 706,881 706,882 706,883 706,884 706,885 706,886 706,887 706,888 706,889 705,890 705,891 705,892 705,893 704,894 704,895 704,896 703,897 703,898 702,899 702,900 702,901 703,902 703,903 704,904 704,905 705,906 705,907 705,908 705,909 705,910 705,911 705,912 705,913 705,914 704,915 704,916 704,917 703,918 703,919 702,920 702,921 701,922 701,923 700,924 700,925 699,926 698,927 697,928 697,929 698,930 699,931 699,932 699,933 700,934 700,935 700,936 700,937 700,938 700,939 700,940 700,941 700,942 699,943 699,944 699,945 698,946 698,947 697,948 697,949 696,950 695,951 694,952 694,953 693,954 692,955 691,956 692,956 693,957 694,957 695,958 696,959 697,960 698,961 698,962 698,963 699,964 699,965 698,966 698,967 698,968 698,969 698,970 698,971 698,972 697,973 697,974 697,975 696,976 696,977 695,978 695,979 694,980 694,981 693,982 694,983 695,983 696,984 697,985 697,986 698,987 698,988 698,989 698,990 698,991 698,992 698,993 698,994 698,995 698,996 698,997 697,998 697,999 696,1000 696,1001 696,1002 695,1003 694,1004 695,1004 696,1004 697,1004 698,1005 699,1005 700,1006 701,1007 701,1008 702,1009 702,1010 702,1011 702,1012 703,1013 703,1014 703,1015 703,1016 703,1017 703,1018 703,1019 703,1020 703,1021 703,1022 702,1023 702,1024 702,1025 702,1026 701,1027 701,1028 701,1029 700,1030 701,1030 702,1030 703,1029 704,1030 705,1030 706,1030 707,1031 708,1032 708,1033 709,1034 709,1035 709,1036 709,1037 710,1038 711,1037 712,1037 713,1036 714,1036 715,1036 716,1035 717,1035 718,1034 719,1034 720,1034 721,1034 722,1033 723,1033 724,1033 725,1033 726,1034 727,1034 728,1034 729,1035 730,1035 731,1036 732,1037 733,1038 733,1039 734,1040 735,1041 735,1042 736,1043 737,1042 738,1041 739,1040 740,1039 741,1038 742,1037 743,1037 744,1037 745,1036 746,1036 747,1036 748,1036 749,1035 750,1035 751,1035 752,1035 753,1035 754,1035 755,1035 756,1035 757,1035 758,1035 759,1035 760,1035 761,1035 761,1034 761,1033 761,1032 761,1031 761,1030 761,1029 761,1028 761,1027 761,1026 761,1025 761,1024 761,1023 761,1022 761,1021 761,1020 761,1019 761,1018 761,1017 761,1016 761,1015 761,1014 761,1013 761,1012 761,1011 761,1010 761,1009 761,1008 761,1007 761,1006 761,1005 761,1004 761,1003 761,1002 761,1001 761,1000 761,999 761,998 761,997 761,996 761,995 761,994 761,993 761,992 761,991 761,990 761,989 761,988 761,987 761,986 761,985 761,984 761,983 761,982 761,981 761,980 761,979 761,978 761,977 761,976 761,975 761,974 761,973 761,972 761,971 761,970 761,969 761,968 761,967 761,966 761,965 761,964 761,963 761,962 761,961 761,960 761,959 761,958 761,957 761,956 761,955 761,954 761,953 761,952 761,951 761,950 761,949 761,948 761,947 761,946 761,945 761,944 761,943 761,942 761,941 761,940 761,939 761,938 761,937 761,936 761,935 761,934 761,933 761,932 761,931 761,930 761,929 761,928 761,927 761,926 761,925 761,924 761,923 761,922 761,921 761,920 761,919 761,918 761,917 761,916 761,915 761,914 761,913 761,912 761,911 761,910 761,909 761,908 761,907 761,906 761,905 761,904 761,903 761,902 761,901 761,900 761,899 761,898 761,897 761,896 761,895 761,894 761,893 761,892 761,891 761,890 761,889 761,888 761,887 761,886 761,885 761,884 761,883 761,882 761,881 760,880 761,879 761,878 760,877 761,876 761,875 761,874 761,873 761,872 761,871 760,870 760,869 760,868 760,867 760,866 760,865 759,865 758,865 757,865 756,865 755,865 754,865 753,865 752,865 751,865 750,865 749,865 748,865 747,865 746,865 745,865 744,865 743,865 742,865 741,865 740,865 739,865 738,865 737,865 736,865 735,865 734,865 733,865 732,865 731,865 730,865 729,865 728,865 727,865 726,865 725,865 724,865 723,865 722,865 721,865 720,865 719,865 718,865 717,865 716,865 715,865 714,865 713,865 712,865 711,865 710,865 709,865 708,865 707,865 706,865 705,865 704,865 703,865 702,865 701,865 700,865">
      <metadata tailDirection="" confidence="0.92" linkedToCharacter="" id="TetsuSan_039_balloon_1" tailTip=""></metadata>
    </polygon>
    <polygon points="513,865 513,866 514,867 514,868 514,869 515,870 515,871 515,872 516,873 516,874 516,875 516,876 516,877 517,878 517,879 517,880 517,881 517,882 517,883 517,884 516,885 516,886 516,887 516,888 516,889 515,890 515,891 515,892 514,893 514,894 513,895 513,896 512,897 512,898 511,899 511,900 510,901 509,902 509,903 510,904 511,904 512,905 513,906 513,907 514,908 514,909 515,910 515,911 515,912 515,913 516,914 516,915 516,916 516,917 516,918 516,919 515,920 515,921 515,922 515,923 515,924 514,925 514,926 514,927 513,928 513,929 514,930 515,931 516,932 517,933 517,934 517,935 517,936 517,937 517,938 517,939 517,940 517,941 517,942 517,943 517,944 516,945 516,946 516,947 515,948 515,949 515,950 514,951 514,952 513,953 513,954 512,955 512,956 511,957 511,958 512,958 513,959 514,960 514,961 515,962 516,963 516,964 516,965 517,966 517,967 517,968 517,969 517,970 517,971 517,972 516,973 516,974 516,975 516,976 516,977 516,978 517,978 518,978 519,979 520,979 521,979 522,979 523,979 524,980 525,980 526,980 527,981 528,981 529,982 530,983 530,984 531,985 532,986 532,987 532,988 532,989 533,990 533,991 534,990 535,990 536,990 537,989 538,989 539,989 540,989 541,989 542,989 543,990 544,990 545,991 546,992 547,993 547,994 547,995 548,996 548,995 549,994 550,994 551,993 552,992 553,992 554,991 555,991 556,991 557,991 558,991 559,991 560,991 561,991 562,991 563,992 564,992 565,993 566,994 567,995 568,996 569,997 569,996 569,995 569,994 570,993 570,992 571,991 572,990 572,989 573,988 574,987 575,986 576,985 576,984 577,983 578,982 579,981 580,980 581,979 582,979 583,978 584,977 585,976 586,976 587,975 588,974 589,974 590,973 591,973 592,972 593,971 594,971 595,970 596,970 597,970 598,969 599,969 598,968 597,967 597,966 596,965 596,964 595,963 595,962 594,961 594,960 594,959 594,958 593,957 593,956 593,955 593,954 593,953 593,952 593,951 593,950 593,949 593,948 593,947 593,946 593,945 593,944 593,943 593,942 594,941 594,940 594,939 594,938 595,937 595,936 596,935 596,934 596,933 597,932 597,931 598,930 598,929 599,928 600,927 600,926 599,925 599,924 599,923 599,922 598,921 598,920 598,919 598,918 597,917 597,916 597,915 597,914 597,913 596,912 596,911 596,910 596,909 596,908 596,907 596,906 595,905 595,904 595,903 595,902 595,901 595,900 595,899 595,898 595,897 595,896 596,895 596,894 596,893 597,892 597,891 596,890 595,890 594,889 593,888 592,887 592,886 591,885 591,884 591,883 591,882 591,881 590,880 590,879 590,878 590,877 590,876 590,875 590,874 590,873 591,872 591,871 591,870 591,869 591,868 591,867 592,866 592,865 591,865 590,865 589,865 588,865 587,865 586,865 585,865 584,865 583,865 582,865 581,865 580,865 579,865 578,865 577,865 576,865 575,865 574,865 573,865 572,865 571,865 570,865 569,865 568,865 567,865 566,865 565,865 564,865 563,865 562,865 561,865 560,865 559,865 558,865 557,865 556,865 555,865 554,865 553,865 552,865 551,865 550,865 549,865 548,865 547,865 546,865 545,865 544,865 543,865 542,865 541,865 540,865 539,865 538,865 537,865 536,865 535,865 534,865 533,865 532,865 531,865 530,865 529,865 528,865 527,865 526,865 525,865 524,865 523,865 522,865 521,865 520,865 519,865 518,865 517,865 516,865 515,865 514,865 513,865">
      <metadata tailDirection="" confidence="0.93" linkedToCharacter="" id="TetsuSan_039_balloon_2" tailTip=""></metadata>
    </polygon>
    <polygon points="443,865 442,866 442,867 442,868 442,869 442,870 442,871 442,872 442,873 442,874 442,875 442,876 442,877 442,878 442,879 442,880 442,881 442,882 442,883 442,884 442,885 442,886 442,887 442,888 442,889 442,890 442,891 442,892 442,893 442,894 442,895 442,896 442,897 442,898 442,899 442,900 442,901 442,902 442,903 442,904 442,905 442,906 442,907 442,908 442,909 442,910 442,911 442,912 442,913 442,914 442,915 442,916 442,917 442,918 442,919 442,920 442,921 442,922 442,923 442,924 442,925 442,926 442,927 442,928 442,929 442,930 442,931 442,932 442,933 442,934 442,935 442,936 442,937 442,938 442,939 442,940 442,941 442,942 442,943 442,944 442,945 442,946 442,947 442,948 442,949 442,950 442,951 442,952 442,953 442,954 442,955 442,956 442,957 442,958 442,959 442,960 442,961 442,962 442,963 442,964 442,965 442,966 442,967 442,968 442,969 442,970 442,971 442,972 442,973 442,974 442,975 442,976 442,977 442,978 442,979 442,980 442,981 442,982 442,983 442,984 442,985 442,986 442,987 442,988 442,989 442,990 442,991 442,992 442,993 442,994 442,995 442,996 442,997 442,998 442,999 442,1000 442,1001 442,1002 442,1003 442,1004 442,1005 442,1006 442,1007 442,1008 442,1009 442,1010 442,1011 442,1012 442,1013 442,1014 442,1015 442,1016 442,1017 442,1018 442,1019 442,1020 442,1021 442,1022 442,1023 442,1024 442,1025 442,1026 442,1027 442,1028 442,1029 442,1030 442,1031 442,1032 442,1033 442,1034 442,1035 442,1036 442,1037 442,1038 442,1039 442,1040 442,1041 443,1042 444,1042 445,1043 446,1044 447,1044 448,1045 449,1045 450,1045 451,1046 452,1046 453,1046 454,1046 455,1046 456,1046 457,1045 458,1045 459,1044 460,1044 461,1044 462,1045 463,1045 464,1045 465,1045 466,1046 467,1046 468,1046 469,1046 470,1046 471,1046 472,1046 473,1046 474,1046 475,1046 476,1046 477,1045 478,1044 479,1043 480,1042 481,1041 482,1041 483,1041 484,1041 485,1041 486,1041 487,1041 488,1041 489,1040 490,1040 491,1039 492,1038 493,1037 494,1037 495,1036 495,1035 495,1034 495,1033 496,1032 497,1031 498,1030 499,1029 500,1028 501,1028 501,1027 502,1026 502,1025 502,1024 502,1023 502,1022 501,1021 502,1020 502,1019 502,1018 502,1017 502,1016 503,1015 503,1014 504,1013 504,1012 505,1011 505,1010 505,1009 505,1008 505,1007 504,1006 504,1005 504,1004 504,1003 503,1002 503,1001 503,1000 503,999 504,998 504,997 504,996 505,995 505,994 505,993 505,992 504,991 504,990 504,989 504,988 505,987 506,986 507,986 508,986 507,986 506,985 505,985 504,984 504,983 504,982 504,981 504,980 504,979 504,978 505,977 505,976 505,975 505,974 505,973 505,972 505,971 505,970 504,969 504,968 503,967 503,966 503,965 503,964 503,963 503,962 504,961 505,960 505,959 505,958 505,957 505,956 504,955 504,954 504,953 504,952 504,951 504,950 504,949 503,948 503,947 503,946 503,945 503,944 504,943 504,942 505,941 505,940 505,939 505,938 505,937 505,936 505,935 505,934 504,933 504,932 504,931 503,930 503,929 503,928 503,927 503,926 503,925 503,924 503,923 503,922 503,921 504,920 504,919 504,918 504,917 504,916 504,915 504,914 503,913 503,912 503,911 503,910 503,909 503,908 503,907 503,906 503,905 503,904 503,903 503,902 503,901 503,900 503,899 503,898 503,897 503,896 503,895 503,894 502,893 502,892 502,891 502,890 501,889 501,888 501,887 500,886 500,885 500,884 500,883 500,882 501,881 501,880 501,879 501,878 501,877 501,876 501,875 500,874 500,873 500,872 499,871 499,870 498,869 497,868 496,867 495,866 495,865 494,865 493,865 492,865 491,865 490,865 489,865 488,865 487,865 486,865 485,865 484,865 483,865 482,865 481,865 480,865 479,865 478,865 477,865 476,865 475,865 474,865 473,865 472,865 471,865 470,865 469,865 468,865 467,865 466,865 465,865 464,865 463,865 462,865 461,865 460,865 459,865 458,865 457,865 456,865 455,865 454,865 453,865 452,865 451,865 450,865 449,865 448,865 447,865 446,865 445,865 444,865 443,865">
      <metadata tailDirection="" confidence="0.90" linkedToCharacter="" id="TetsuSan_039_balloon_3" tailTip=""></metadata>
    </polygon>
    <polygon points="84,866 84,867 84,868 84,869 84,870 84,871 84,872 84,873 83,874 83,875 83,876 83,877 83,878 83,879 83,880 83,881 83,882 83,883 83,884 83,885 83,886 83,887 83,888 83,889 83,890 83,891 83,892 83,893 83,894 83,895 83,896 83,897 83,898 83,899 83,900 83,901 83,902 83,903 83,904 83,905 83,906 83,907 83,908 83,909 83,910 83,911 83,912 83,913 83,914 83,915 83,916 83,917 83,918 83,919 83,920 83,921 83,922 83,923 83,924 83,925 83,926 83,927 83,928 83,929 83,930 83,931 83,932 83,933 83,934 83,935 83,936 83,937 83,938 83,939 83,940 83,941 83,942 83,943 83,944 83,945 83,946 83,947 83,948 83,949 83,950 83,951 83,952 83,953 83,954 83,955 83,956 83,957 83,958 83,959 83,960 83,961 83,962 83,963 83,964 83,965 83,966 83,967 83,968 83,969 83,970 83,971 83,972 83,973 83,974 83,975 83,976 83,977 83,978 83,979 83,980 83,981 83,982 83,983 83,984 83,985 83,986 83,987 83,988 83,989 83,990 83,991 83,992 83,993 83,994 83,995 83,996 83,997 83,998 83,999 83,1000 83,1001 83,1002 83,1003 83,1004 83,1005 83,1006 83,1007 83,1008 83,1009 83,1010 83,1011 83,1012 83,1013 83,1014 83,1015 83,1016 83,1017 83,1018 83,1019 83,1020 83,1021 83,1022 83,1023 83,1024 83,1025 83,1026 83,1027 83,1028 83,1029 83,1030 83,1031 83,1032 83,1033 83,1034 84,1035 85,1036 86,1037 87,1037 88,1037 89,1038 90,1038 91,1039 92,1039 93,1039 94,1039 95,1039 96,1040 97,1040 98,1040 99,1040 100,1040 101,1040 102,1040 103,1040 104,1040 105,1040 106,1040 107,1040 108,1040 109,1040 110,1039 111,1039 112,1039 113,1039 114,1039 115,1038 116,1038 117,1038 118,1037 119,1037 120,1037 121,1036 122,1036 123,1036 124,1035 125,1034 126,1034 127,1034 128,1033 129,1032 130,1031 131,1031 132,1030 133,1029 134,1028 135,1027 136,1026 137,1025 137,1024 138,1023 139,1022 139,1021 140,1020 141,1019 142,1018 142,1017 143,1016 144,1015 144,1014 145,1013 145,1012 145,1011 146,1010 146,1009 147,1008 147,1007 148,1006 148,1005 148,1004 149,1003 149,1002 149,1001 150,1000 150,999 150,998 150,997 151,996 151,995 151,994 152,993 152,992 152,991 152,990 152,989 152,988 152,987 152,986 153,985 153,984 153,983 153,982 153,981 153,980 153,979 153,978 153,977 153,976 153,975 153,974 153,973 153,972 153,971 153,970 153,969 153,968 153,967 153,966 153,965 153,964 153,963 153,962 153,961 153,960 153,959 153,958 153,957 153,956 154,955 153,954 154,953 154,952 154,951 154,950 154,949 154,948 153,947 153,946 153,945 153,944 154,943 153,942 153,941 153,940 153,939 153,938 153,937 154,936 153,935 153,934 153,933 153,932 153,931 154,930 154,929 154,928 154,927 153,926 153,925 153,924 153,923 154,922 153,921 153,920 153,919 153,918 153,917 153,916 153,915 153,914 153,913 153,912 153,911 153,910 153,909 153,908 153,907 153,906 153,905 153,904 153,903 153,902 153,901 153,900 153,899 153,898 153,897 153,896 153,895 153,894 153,893 152,892 152,891 152,890 152,889 152,888 152,887 152,886 152,885 152,884 152,883 152,882 152,881 152,880 151,879 151,878 151,877 151,876 151,875 150,874 150,873 150,872 150,871 149,870 149,869 149,868 149,867 148,866 147,866 146,866 145,866 144,866 143,866 142,866 141,866 140,866 139,866 138,866 137,866 136,866 135,866 134,866 133,866 132,866 131,866 130,866 129,866 128,866 127,866 126,866 125,866 124,866 123,866 122,866 121,866 120,866 119,866 118,866 117,866 116,866 115,866 114,866 113,866 112,866 111,866 110,866 109,866 108,866 107,866 106,866 105,866 104,866 103,866 102,866 101,866 100,866 99,866 98,866 97,866 96,866 95,866 94,866 93,866 92,866 91,866 90,866 89,866 88,866 87,866 86,866 85,866 84,866">
      <metadata tailDirection="" confidence="0.99" linkedToCharacter="" id="TetsuSan_039_balloon_4" tailTip=""></metadata>
    </polygon>
    <polygon points="335,865 335,866 336,867 337,868 338,869 339,870 340,871 340,872 341,873 341,874 342,875 342,876 343,877 343,878 343,879 343,880 343,881 343,882 343,883 343,884 343,885 342,886 342,887 342,888 342,889 341,890 341,891 340,892 340,893 339,894 339,895 339,896 340,897 340,898 341,899 341,900 341,901 341,902 341,903 341,904 341,905 341,906 341,907 341,908 341,909 341,910 341,911 341,912 340,913 340,914 340,915 340,916 339,917 339,918 339,919 338,920 338,921 337,922 337,923 336,924 336,925 336,926 337,927 338,928 338,929 338,930 339,931 339,932 339,933 340,934 340,935 340,936 340,937 340,938 340,939 340,940 340,941 339,942 339,943 339,944 339,945 339,946 338,947 338,948 338,949 337,950 337,951 336,952 335,953 335,954 335,955 335,956 336,957 336,958 336,959 336,960 337,961 337,962 337,963 337,964 337,965 337,966 337,967 337,968 337,969 337,970 337,971 337,972 337,973 337,974 337,975 337,976 337,977 336,978 336,979 336,980 335,981 335,982 336,983 337,984 337,985 338,986 338,987 339,988 339,989 340,990 340,991 341,992 341,993 341,994 341,995 341,996 342,997 342,998 342,999 342,1000 342,1001 342,1002 342,1003 341,1004 341,1005 341,1006 340,1007 340,1008 340,1009 339,1010 340,1011 341,1012 342,1013 342,1014 343,1015 343,1016 343,1017 344,1018 344,1019 344,1020 344,1021 344,1022 344,1023 344,1024 344,1025 344,1026 344,1027 344,1028 344,1029 343,1030 344,1030 345,1030 346,1030 347,1029 348,1029 349,1030 350,1031 350,1032 351,1032 352,1033 353,1034 354,1034 355,1035 356,1035 357,1036 357,1037 358,1038 359,1039 359,1040 360,1041 360,1042 360,1043 361,1042 362,1041 363,1040 364,1039 365,1038 366,1038 367,1037 368,1037 369,1037 370,1037 371,1038 372,1038 373,1039 374,1039 375,1040 375,1041 376,1042 377,1043 378,1043 379,1042 380,1041 380,1040 381,1039 382,1039 383,1038 384,1037 385,1037 386,1037 387,1037 388,1037 389,1038 390,1038 391,1039 392,1039 393,1038 394,1037 395,1037 396,1036 397,1036 398,1035 399,1035 400,1035 401,1035 402,1036 403,1036 403,1035 403,1034 403,1033 403,1032 403,1031 403,1030 403,1029 403,1028 403,1027 403,1026 403,1025 403,1024 403,1023 403,1022 403,1021 403,1020 403,1019 403,1018 403,1017 403,1016 403,1015 403,1014 403,1013 403,1012 403,1011 403,1010 403,1009 403,1008 403,1007 403,1006 403,1005 403,1004 403,1003 403,1002 403,1001 403,1000 403,999 403,998 403,997 403,996 403,995 403,994 403,993 403,992 403,991 403,990 403,989 403,988 403,987 403,986 403,985 403,984 403,983 403,982 403,981 403,980 403,979 403,978 403,977 403,976 403,975 403,974 403,973 403,972 403,971 403,970 403,969 403,968 403,967 403,966 403,965 403,964 403,963 403,962 403,961 403,960 403,959 403,958 403,957 403,956 403,955 403,954 403,953 403,952 403,951 403,950 403,949 403,948 403,947 403,946 403,945 403,944 403,943 403,942 403,941 403,940 403,939 403,938 403,937 403,936 403,935 403,934 403,933 403,932 403,931 403,930 403,929 403,928 403,927 403,926 403,925 403,924 403,923 403,922 403,921 403,920 403,919 403,918 403,917 403,916 403,915 403,914 403,913 403,912 403,911 403,910 403,909 403,908 403,907 403,906 403,905 403,904 403,903 403,902 403,901 403,900 403,899 403,898 403,897 403,896 403,895 403,894 403,893 403,892 403,891 403,890 403,889 403,888 403,887 403,886 403,885 403,884 403,883 403,882 403,881 403,880 403,879 403,878 403,877 403,876 403,875 403,874 403,873 403,872 403,871 403,870 403,869 403,868 403,867 403,866 403,865 402,865 401,865 400,865 399,865 398,865 397,865 396,865 395,865 394,865 393,865 392,865 391,865 390,865 389,865 388,865 387,865 386,865 385,865 384,865 383,865 382,865 381,865 380,865 379,865 378,865 377,865 376,865 375,865 374,865 373,865 372,865 371,865 370,865 369,865 368,865 367,865 366,865 365,865 364,865 363,865 362,865 361,865 360,865 359,865 358,865 357,865 356,865 355,865 354,865 353,865 352,865 351,865 350,865 349,865 348,865 347,865 346,865 345,865 344,865 343,865 342,865 341,865 340,865 339,865 338,865 337,865 336,865 335,865">
      <metadata tailDirection="" confidence="0.98" linkedToCharacter="" id="TetsuSan_039_balloon_5" tailTip=""></metadata>
    </polygon>
    <polygon points="692,617 691,618 691,619 690,620 690,621 689,622 689,623 688,624 688,625 687,626 686,627 686,628 685,629 685,630 684,631 683,632 682,633 681,633 680,634 679,633 678,632 679,633 680,634 681,635 682,636 682,637 682,638 682,639 682,640 682,641 682,642 682,643 682,644 682,645 682,646 682,647 682,648 682,649 682,650 682,651 682,652 682,653 682,654 682,655 682,656 682,657 682,658 682,659 682,660 682,661 682,662 682,663 682,664 682,665 682,666 682,667 682,668 682,669 682,670 682,671 682,672 682,673 682,674 682,675 682,676 682,677 682,678 682,679 682,680 682,681 682,682 682,683 682,684 683,685 682,686 682,687 682,688 682,689 682,690 682,691 682,692 682,693 682,694 682,695 682,696 682,697 682,698 682,699 682,700 682,701 682,702 682,703 682,704 682,705 682,706 682,707 682,708 682,709 682,710 683,711 682,712 682,713 682,714 682,715 682,716 683,717 683,718 682,719 682,720 682,721 682,722 682,723 682,724 682,725 682,726 682,727 682,728 682,729 682,730 682,731 682,732 682,733 682,734 682,735 683,736 683,737 683,738 682,739 683,740 682,741 682,742 682,743 682,744 682,745 682,746 682,747 682,748 682,749 682,750 682,751 682,752 682,753 682,754 682,755 682,756 682,757 682,758 682,759 682,760 682,761 682,762 682,763 682,764 682,765 682,766 682,767 682,768 682,769 682,770 682,771 682,772 682,773 682,774 682,775 682,776 682,777 682,778 682,779 683,780 683,781 683,782 683,783 683,784 683,785 682,786 682,787 683,788 683,789 683,790 682,791 682,792 682,793 683,794 683,795 683,796 683,797 683,798 683,799 683,800 683,801 683,802 683,803 683,804 683,805 683,806 683,807 683,808 682,809 682,810 682,811 682,812 682,813 682,814 682,815 682,816 681,817 680,817 679,817 678,816 678,815 678,814 678,813 678,812 678,811 678,810 678,809 678,808 678,807 678,806 678,805 678,804 677,803 676,802 676,801 675,800 675,799 674,798 673,797 672,796 672,795 671,794 670,793 669,792 668,791 668,790 667,789 666,788 665,787 664,786 663,785 663,784 662,783 661,782 660,781 659,780 658,780 657,779 656,778 655,777 654,777 653,777 652,777 651,777 650,777 649,777 648,777 647,777 646,778 645,778 644,779 643,779 642,780 641,780 640,781 639,782 638,783 637,784 636,784 635,785 634,786 633,787 632,788 631,788 630,789 629,790 628,791 627,792 626,793 625,794 625,795 624,796 624,797 624,798 624,799 624,800 624,801 624,802 624,803 624,804 624,805 624,806 624,807 624,808 624,809 624,810 624,811 624,812 624,813 624,814 624,815 624,816 624,817 624,818 624,819 624,820 624,821 624,822 624,823 624,824 624,825 624,826 624,827 624,828 624,829 624,830 624,831 624,832 624,833 624,834 624,835 624,836 624,837 624,838 624,839 624,840 624,841 624,842 624,843 624,844 624,845 624,846 624,847 624,848 625,848 626,848 627,847 628,848 629,848 630,848 631,848 632,848 633,848 634,848 635,848 636,848 637,848 638,848 639,848 640,848 641,847 642,847 643,848 644,848 645,848 646,848 647,847 648,848 649,848 650,848 651,848 652,848 653,848 654,848 655,848 656,848 657,848 658,848 659,848 660,847 661,848 662,848 663,848 664,848 665,848 666,848 667,848 668,848 669,848 670,848 671,848 672,848 673,848 674,848 675,848 676,848 677,848 678,848 679,848 680,848 681,848 682,848 683,848 684,848 685,848 686,848 687,848 688,848 689,848 690,848 691,848 692,848 692,847 692,846 691,845 691,844 690,843 690,842 689,841 689,840 688,839 688,838 687,837 687,836 686,835 686,834 685,833 685,832 684,831 683,830 684,831 684,832 685,833 685,834 686,835 686,836 687,837 687,838 688,839 688,840 689,841 689,842 689,843 690,844 690,845 691,846 691,847 690,848 689,848 688,848 687,847 686,846 686,845 685,844 685,843 684,842 684,841 683,840 683,839 682,838 682,837 681,836 681,835 680,834 680,833 679,832 679,831 680,830 679,830 678,830 677,830 676,830 675,831 674,830 673,829 673,828 674,827 675,826 676,826 677,825 678,824 679,823 680,823 681,824 681,825 680,826 679,827 680,827 681,827 682,827 683,827 684,827 685,827 686,827 687,828 688,829 689,830 689,831 690,832 690,833 691,834 691,835 692,836 692,837 693,838 693,839 693,840 694,841 694,842 695,843 695,844 696,845 695,846 694,846 695,847 695,848 696,848 697,848 698,848 699,848 700,848 701,848 702,848 703,848 704,848 705,848 706,848 707,848 708,848 709,848 710,848 711,848 712,848 713,848 714,848 715,848 716,848 717,848 718,848 719,848 720,848 721,848 722,848 723,848 724,848 725,848 726,848 727,848 728,848 729,848 730,848 731,848 732,848 733,848 734,848 735,848 736,848 737,848 738,848 739,848 740,848 741,848 742,848 743,848 744,848 745,848 746,848 747,848 748,848 749,848 750,848 751,848 752,848 753,848 754,848 755,848 756,848 757,848 758,848 759,848 760,848 760,847 760,846 760,845 760,844 760,843 760,842 760,841 760,840 760,839 760,838 760,837 760,836 760,835 760,834 760,833 760,832 760,831 760,830 761,829 760,828 760,827 760,826 760,825 760,824 760,823 760,822 760,821 760,820 760,819 760,818 760,817 760,816 760,815 760,814 760,813 760,812 760,811 760,810 760,809 760,808 760,807 760,806 760,805 760,804 760,803 760,802 760,801 760,800 760,799 760,798 760,797 760,796 760,795 760,794 760,793 760,792 760,791 760,790 760,789 760,788 760,787 760,786 760,785 760,784 760,783 760,782 760,781 760,780 760,779 760,778 760,777 760,776 760,775 760,774 760,773 760,772 760,771 760,770 760,769 760,768 760,767 760,766 760,765 760,764 760,763 760,762 760,761 760,760 760,759 760,758 760,757 760,756 760,755 760,754 760,753 760,752 760,751 760,750 760,749 760,748 760,747 760,746 760,745 760,744 761,743 761,742 761,741 761,740 760,739 760,738 760,737 760,736 760,735 760,734 760,733 760,732 760,731 760,730 760,729 760,728 760,727 760,726 760,725 760,724 760,723 760,722 760,721 760,720 760,719 760,718 760,717 760,716 760,715 760,714 760,713 760,712 760,711 760,710 760,709 760,708 760,707 760,706 760,705 760,704 760,703 760,702 760,701 760,700 760,699 760,698 760,697 760,696 760,695 760,694 760,693 760,692 760,691 760,690 760,689 760,688 760,687 760,686 760,685 760,684 760,683 760,682 760,681 760,680 760,679 760,678 760,677 760,676 760,675 760,674 760,673 760,672 760,671 760,670 760,669 760,668 760,667 760,666 760,665 760,664 760,663 760,662 760,661 760,660 760,659 760,658 760,657 760,656 760,655 760,654 760,653 760,652 760,651 760,650 760,649 760,648 760,647 760,646 760,645 760,644 760,643 760,642 760,641 760,640 760,639 760,638 760,637 760,636 760,635 760,634 760,633 760,632 760,631 760,630 760,629 760,628 760,627 760,626 760,625 760,624 760,623 760,622 760,621 760,620 760,619 760,618 759,618 758,618 757,618 756,618 755,618 754,618 753,618 752,618 751,618 750,618 749,618 748,618 747,618 746,618 745,618 744,618 743,618 742,618 741,618 740,618 739,618 738,618 737,618 736,618 735,618 734,618 733,618 732,618 731,618 730,618 729,618 728,618 727,617 726,618 725,618 724,617 723,617 722,617 721,617 720,617 719,617 718,617 717,617 716,617 715,617 714,617 713,617 712,617 711,617 710,617 709,617 708,617 707,617 706,617 705,617 704,617 703,617 702,617 701,617 700,617 699,617 698,617 697,617 696,617 696,618 695,619 695,620 694,621 694,622 693,623 693,624 692,625 692,626 691,627 691,628 690,629 689,630 689,631 688,632 687,633 686,634 685,633 685,632 685,631 686,630 686,629 687,628 688,627 688,626 689,625 689,624 690,623 690,622 691,621 691,620 692,619 692,618 692,617">
      <metadata tailDirection="" confidence="0.81" linkedToCharacter="" id="TetsuSan_039_balloon_6" tailTip=""></metadata>
    </polygon>
    <polygon points="343,617 343,618 343,619 343,620 342,621 342,622 342,623 342,624 342,625 342,626 342,627 342,628 342,629 342,630 341,631 341,632 341,633 341,634 341,635 341,636 341,637 341,638 341,639 341,640 341,641 340,642 340,643 340,644 340,645 340,646 340,647 340,648 340,649 340,650 340,651 340,652 340,653 340,654 340,655 340,656 340,657 340,658 340,659 340,660 340,661 340,662 340,663 340,664 339,665 338,665 337,666 336,666 337,666 338,667 339,668 339,669 339,670 340,671 340,672 340,673 340,674 340,675 340,676 340,677 340,678 340,679 340,680 340,681 340,682 340,683 340,684 339,685 339,686 339,687 339,688 339,689 339,690 339,691 339,692 339,693 339,694 339,695 339,696 339,697 339,698 339,699 339,700 339,701 339,702 338,703 338,704 338,705 338,706 338,707 338,708 338,709 338,710 338,711 338,712 338,713 338,714 338,715 338,716 338,717 338,718 338,719 338,720 338,721 338,722 338,723 338,724 338,725 338,726 338,727 338,728 338,729 338,730 338,731 338,732 338,733 338,734 338,735 338,736 338,737 338,738 338,739 338,740 339,741 339,742 339,743 339,744 339,745 339,746 339,747 339,748 339,749 339,750 339,751 339,752 339,753 339,754 339,755 339,756 340,757 340,758 340,759 340,760 340,761 340,762 340,763 341,764 341,765 341,766 341,767 341,768 341,769 341,770 342,771 342,772 342,773 342,774 343,775 343,776 343,777 343,778 344,779 344,780 344,781 345,782 345,783 346,784 346,785 347,786 347,787 348,788 348,789 349,790 349,791 350,792 351,793 352,794 352,795 353,796 354,797 355,798 356,799 357,799 358,800 359,801 360,802 361,802 362,803 363,803 364,804 365,805 366,805 367,805 368,806 369,806 370,807 371,807 372,808 373,808 374,808 375,808 376,808 377,809 378,809 379,809 380,809 381,809 382,809 383,809 384,809 385,809 386,809 387,809 388,809 389,808 390,808 391,808 392,808 393,808 394,808 395,807 396,807 397,807 398,807 399,806 400,806 401,806 402,805 403,805 403,804 403,803 403,802 403,801 403,800 403,799 403,798 403,797 403,796 403,795 403,794 403,793 403,792 403,791 403,790 403,789 403,788 403,787 403,786 403,785 403,784 403,783 403,782 403,781 403,780 403,779 403,778 403,777 404,776 403,775 403,774 403,773 403,772 403,771 403,770 403,769 403,768 403,767 403,766 403,765 403,764 403,763 403,762 403,761 403,760 403,759 403,758 403,757 403,756 403,755 403,754 403,753 403,752 403,751 403,750 403,749 403,748 404,747 404,746 403,745 403,744 403,743 404,742 404,741 404,740 404,739 404,738 404,737 404,736 404,735 404,734 404,733 404,732 403,731 403,730 403,729 403,728 404,727 404,726 404,725 404,724 404,723 404,722 404,721 404,720 404,719 404,718 404,717 404,716 404,715 404,714 404,713 404,712 404,711 404,710 404,709 404,708 404,707 404,706 404,705 404,704 404,703 404,702 404,701 404,700 404,699 404,698 404,697 404,696 404,695 404,694 404,693 404,692 404,691 404,690 404,689 404,688 404,687 404,686 404,685 404,684 404,683 404,682 404,681 404,680 404,679 404,678 404,677 404,676 404,675 404,674 404,673 404,672 404,671 404,670 404,669 404,668 404,667 404,666 404,665 404,664 404,663 404,662 404,661 404,660 404,659 404,658 404,657 404,656 404,655 404,654 404,653 404,652 404,651 404,650 404,649 404,648 404,647 404,646 404,645 404,644 404,643 404,642 404,641 404,640 404,639 404,638 404,637 404,636 404,635 404,634 404,633 404,632 404,631 404,630 404,629 404,628 404,627 404,626 404,625 404,624 404,623 404,622 404,621 404,620 404,619 404,618 404,617 403,617 402,617 401,617 400,617 399,617 398,617 397,617 396,617 395,617 394,617 393,617 392,617 391,617 390,617 389,617 388,617 387,617 386,617 385,617 384,617 383,617 382,617 381,617 380,617 379,617 378,617 377,617 376,617 375,617 374,617 373,617 372,617 371,617 370,617 369,617 368,617 367,617 366,617 365,617 364,617 363,617 362,617 361,617 360,617 359,617 358,617 357,617 356,617 355,617 354,617 353,617 352,617 351,617 350,617 349,617 348,617 347,617 346,617 345,617 344,617 343,617">
      <metadata tailDirection="" confidence="0.86" linkedToCharacter="" id="TetsuSan_039_balloon_7" tailTip=""></metadata>
    </polygon>
    <polygon points="84,617 84,618 84,619 84,620 84,621 84,622 84,623 84,624 84,625 84,626 84,627 84,628 84,629 84,630 84,631 84,632 84,633 84,634 84,635 84,636 84,637 84,638 84,639 84,640 84,641 84,642 84,643 84,644 84,645 84,646 84,647 84,648 84,649 84,650 84,651 84,652 84,653 84,654 84,655 84,656 84,657 84,658 84,659 84,660 84,661 84,662 84,663 84,664 84,665 84,666 84,667 84,668 84,669 84,670 84,671 84,672 84,673 84,674 83,675 83,676 84,677 84,678 83,679 83,680 84,681 84,682 84,683 84,684 84,685 84,686 84,687 84,688 84,689 83,690 83,691 83,692 83,693 83,694 83,695 83,696 83,697 83,698 83,699 83,700 83,701 84,702 84,703 84,704 84,705 83,706 83,707 83,708 83,709 83,710 83,711 84,712 84,713 83,714 83,715 83,716 84,717 84,718 83,719 83,720 83,721 83,722 83,723 83,724 84,725 84,726 84,727 83,728 83,729 83,730 83,731 83,732 83,733 83,734 83,735 83,736 83,737 83,738 83,739 84,740 84,741 84,742 84,743 84,744 84,745 84,746 83,747 83,748 83,749 84,750 83,751 83,752 83,753 83,754 83,755 83,756 83,757 84,758 84,759 83,760 83,761 84,762 83,763 83,764 84,765 84,766 84,767 84,768 84,769 84,770 84,771 84,772 84,773 83,774 83,775 84,776 83,777 84,778 84,779 83,780 83,781 83,782 84,783 83,784 83,785 83,786 84,787 85,787 86,787 87,788 88,788 89,788 90,788 91,788 92,787 93,787 94,786 95,786 96,786 97,786 98,787 99,788 100,789 101,789 102,789 103,789 104,789 105,789 106,788 107,788 108,788 109,787 110,787 111,787 112,787 113,787 114,787 115,787 116,788 117,788 118,788 119,788 120,788 121,789 122,789 123,788 124,788 125,787 126,787 127,786 128,785 128,784 129,783 129,782 130,781 131,781 132,781 133,781 134,781 135,781 136,782 137,782 138,782 139,782 140,782 141,781 142,781 143,780 143,779 144,778 144,777 145,776 146,776 147,776 148,777 149,777 150,777 151,777 150,777 149,776 148,775 148,774 148,773 148,772 148,771 149,770 149,769 149,768 149,767 149,766 149,765 149,764 149,763 150,762 151,761 151,760 152,759 153,758 153,757 154,756 154,755 154,754 154,753 154,752 154,751 153,750 153,749 152,748 152,747 152,746 152,745 151,744 151,743 152,742 152,741 153,740 153,739 154,738 154,737 154,736 155,735 155,734 155,733 155,732 155,731 155,730 155,729 154,728 154,727 154,726 153,725 153,724 152,723 152,722 152,721 152,720 152,719 152,718 152,717 153,716 153,715 153,714 154,713 154,712 155,711 155,710 155,709 155,708 155,707 155,706 155,705 155,704 155,703 155,702 154,701 154,700 153,699 153,698 152,697 152,696 152,695 152,694 152,693 151,692 151,691 152,690 152,689 152,688 152,687 152,686 153,685 153,684 153,683 153,682 154,681 153,680 153,679 153,678 153,677 152,676 152,675 152,674 151,673 151,672 150,671 150,670 150,669 150,668 150,667 150,666 150,665 150,664 151,663 151,662 151,661 151,660 152,659 152,658 152,657 152,656 152,655 152,654 152,653 152,652 151,651 151,650 150,649 150,648 150,647 149,646 149,645 148,644 148,643 147,642 147,641 147,640 146,639 146,638 146,637 146,636 146,635 146,634 146,633 147,632 147,631 147,630 147,629 147,628 148,627 148,626 148,625 148,624 147,623 146,622 145,621 144,620 143,619 142,619 141,618 142,617 141,617 140,617 139,617 138,617 137,617 136,617 135,617 134,617 133,617 132,617 131,617 130,617 129,617 128,617 127,617 126,617 125,617 124,617 123,617 122,617 121,617 120,617 119,617 118,617 117,617 116,617 115,617 114,617 113,617 112,617 111,617 110,617 109,617 108,617 107,617 106,617 105,617 104,617 103,617 102,617 101,617 100,617 99,617 98,617 97,617 96,617 95,617 94,617 93,617 92,617 91,617 90,617 89,617 88,617 87,617 86,617 85,617 84,617">
      <metadata tailDirection="" confidence="0.85" linkedToCharacter="" id="TetsuSan_039_balloon_8" tailTip=""></metadata>
    </polygon>
    <polygon points="444,367 444,368 444,369 444,370 444,371 444,372 444,373 444,374 444,375 444,376 444,377 444,378 444,379 444,380 444,381 444,382 444,383 444,384 444,385 444,386 444,387 444,388 444,389 444,390 444,391 444,392 444,393 443,394 444,395 444,396 443,397 443,398 444,399 443,400 443,401 444,402 444,403 444,404 444,405 444,406 444,407 444,408 444,409 444,410 443,411 443,412 443,413 443,414 443,415 443,416 443,417 443,418 443,419 443,420 443,421 443,422 443,423 443,424 443,425 443,426 443,427 443,428 443,429 443,430 443,431 443,432 443,433 443,434 443,435 443,436 443,437 443,438 443,439 443,440 443,441 443,442 443,443 443,444 443,445 443,446 443,447 443,448 443,449 443,450 443,451 443,452 443,453 443,454 443,455 443,456 443,457 443,458 443,459 443,460 443,461 443,462 443,463 443,464 443,465 443,466 443,467 443,468 443,469 443,470 443,471 443,472 443,473 443,474 443,475 443,476 443,477 443,478 443,479 443,480 443,481 443,482 443,483 443,484 443,485 443,486 443,487 443,488 443,489 443,490 443,491 443,492 443,493 443,494 443,495 443,496 443,497 443,498 443,499 443,500 443,501 443,502 443,503 443,504 443,505 443,506 443,507 444,507 445,508 446,509 447,509 448,510 449,511 450,511 451,512 452,512 453,513 454,513 455,513 456,513 457,513 458,514 459,514 460,514 461,514 462,514 463,515 464,515 465,515 466,515 467,515 468,515 469,515 470,515 471,515 472,516 473,515 474,515 475,516 475,517 475,518 475,517 476,516 476,515 477,514 478,514 479,514 480,514 481,514 482,514 483,514 484,514 485,513 486,513 487,513 488,513 489,513 490,512 491,512 492,511 493,511 494,510 495,509 496,509 497,508 498,507 499,507 499,506 500,505 501,504 502,503 503,502 504,501 504,500 505,499 506,498 507,497 507,496 508,495 508,494 509,493 509,492 509,491 510,490 510,489 511,488 511,487 512,486 512,485 512,484 513,483 513,482 513,481 514,480 514,479 514,478 514,477 515,476 515,475 515,474 515,473 515,472 516,471 516,470 516,469 516,468 516,467 516,466 516,465 516,464 516,463 517,462 517,461 517,460 517,459 517,458 517,457 517,456 517,455 517,454 517,453 517,452 517,451 517,450 517,449 517,448 517,447 517,446 517,445 517,444 517,443 517,442 517,441 517,440 517,439 517,438 517,437 517,436 517,435 517,434 517,433 517,432 517,431 516,430 516,429 516,428 516,427 516,426 516,425 516,424 516,423 515,422 515,421 515,420 515,419 515,418 515,417 515,416 515,415 515,414 515,413 514,412 514,411 514,410 514,409 514,408 513,407 513,406 513,405 513,404 512,403 512,402 512,401 512,400 511,399 511,398 511,397 511,396 511,395 510,394 510,393 510,392 510,391 510,390 509,389 509,388 509,387 508,386 508,385 508,384 507,383 507,382 507,381 507,380 506,379 506,378 505,377 505,376 504,375 504,374 504,373 503,372 503,371 503,370 502,369 501,368 501,367 500,367 499,367 498,367 497,367 496,367 495,367 494,367 493,367 492,367 491,367 490,367 489,367 488,367 487,367 486,367 485,367 484,367 483,367 482,367 481,367 480,367 479,367 478,367 477,367 476,367 475,367 474,367 473,367 472,367 471,367 470,367 469,367 468,367 467,367 466,367 465,367 464,367 463,367 462,367 461,367 460,367 459,367 458,367 457,367 456,367 455,367 454,367 453,367 452,367 451,367 450,367 449,367 448,367 447,367 446,367 445,367 444,367">
      <metadata tailDirection="" confidence="0.91" linkedToCharacter="" id="TetsuSan_039_balloon_9" tailTip=""></metadata>
    </polygon>
    <polygon points="341,367 341,368 340,369 339,369 339,370 338,371 338,372 338,373 337,374 337,375 336,376 336,377 336,378 336,379 336,380 336,381 336,382 336,383 336,384 335,385 335,386 335,387 335,388 336,389 336,390 336,391 336,392 336,393 336,394 336,395 337,396 337,397 337,398 338,399 338,400 339,401 340,402 340,403 340,404 339,405 338,406 338,407 337,408 337,409 336,410 336,411 336,412 335,413 335,414 334,415 334,416 334,417 333,418 333,419 333,420 333,421 333,422 333,423 333,424 333,425 333,426 333,427 333,428 333,429 334,430 334,431 334,432 334,433 334,434 334,435 335,436 335,437 335,438 335,439 336,440 336,441 337,442 337,443 337,444 336,445 335,445 334,445 333,446 332,446 331,446 330,446 329,445 330,446 331,446 332,446 333,446 334,446 335,447 336,448 336,449 336,450 335,451 335,452 335,453 334,454 334,455 334,456 334,457 334,458 333,459 333,460 333,461 333,462 333,463 333,464 333,465 333,466 333,467 333,468 334,469 334,470 334,471 335,472 335,473 335,474 336,475 336,476 337,477 337,478 338,479 338,480 337,481 337,482 337,483 336,484 336,485 335,486 335,487 335,488 334,489 334,490 333,491 332,491 331,491 330,490 330,489 331,488 332,488 332,487 332,486 331,485 330,485 329,484 329,485 329,486 330,487 330,488 330,489 330,490 330,491 330,492 331,493 332,493 332,492 333,491 334,491 335,492 335,493 335,494 335,495 335,496 335,497 336,498 336,499 337,500 337,501 338,502 338,503 339,504 340,505 341,506 342,507 343,508 342,509 342,510 343,511 343,512 343,513 344,514 344,515 345,516 345,517 346,518 346,519 347,520 348,521 349,521 350,522 351,522 352,523 353,523 354,524 355,524 356,524 357,524 358,524 359,524 360,524 361,524 362,524 363,524 364,524 365,524 366,524 367,524 368,523 369,522 370,523 371,524 372,525 373,526 374,527 375,528 376,528 377,529 378,529 379,530 380,530 381,530 382,530 383,531 384,531 385,531 386,531 387,531 388,531 389,531 390,531 391,530 392,530 393,530 394,530 395,530 396,530 397,529 398,529 399,529 400,528 401,528 402,527 403,526 404,525 404,524 404,523 404,522 404,521 404,520 404,519 404,518 404,517 404,516 404,515 404,514 404,513 404,512 404,511 404,510 404,509 404,508 404,507 404,506 404,505 404,504 404,503 404,502 404,501 404,500 404,499 404,498 404,497 404,496 404,495 404,494 404,493 404,492 404,491 404,490 404,489 404,488 404,487 404,486 404,485 404,484 404,483 404,482 404,481 404,480 404,479 404,478 404,477 404,476 404,475 404,474 404,473 404,472 404,471 404,470 404,469 404,468 404,467 404,466 404,465 404,464 404,463 404,462 404,461 404,460 404,459 404,458 404,457 404,456 404,455 404,454 404,453 404,452 404,451 404,450 404,449 404,448 404,447 404,446 404,445 404,444 404,443 404,442 404,441 404,440 404,439 404,438 404,437 404,436 404,435 404,434 404,433 404,432 404,431 404,430 404,429 404,428 404,427 404,426 404,425 404,424 404,423 404,422 404,421 404,420 404,419 404,418 404,417 404,416 404,415 404,414 404,413 404,412 404,411 404,410 404,409 404,408 404,407 404,406 404,405 404,404 404,403 404,402 404,401 404,400 404,399 404,398 404,397 404,396 404,395 404,394 404,393 404,392 404,391 404,390 404,389 404,388 404,387 404,386 404,385 404,384 404,383 404,382 404,381 404,380 404,379 404,378 404,377 404,376 404,375 404,374 404,373 404,372 404,371 404,370 404,369 404,368 404,367 403,367 402,367 401,367 400,367 399,367 398,367 397,367 396,367 395,367 394,367 393,367 392,367 391,367 390,367 389,367 388,367 387,367 386,367 385,367 384,367 383,367 382,367 381,367 380,367 379,367 378,367 377,367 376,367 375,367 374,367 373,367 372,367 371,367 370,367 369,367 368,367 367,367 366,367 365,367 364,367 363,367 362,367 361,367 360,367 359,367 358,367 357,367 356,367 355,367 354,367 353,367 352,367 351,367 350,367 349,367 348,367 347,367 346,367 345,367 344,367 343,367 342,367 341,367">
      <metadata tailDirection="" confidence="0.97" linkedToCharacter="" id="TetsuSan_039_balloon_10" tailTip=""></metadata>
    </polygon>
    <polygon points="84,367 84,368 84,369 84,370 84,371 84,372 84,373 84,374 84,375 84,376 84,377 84,378 84,379 84,380 84,381 84,382 84,383 84,384 84,385 84,386 84,387 84,388 84,389 84,390 84,391 84,392 84,393 84,394 84,395 84,396 84,397 84,398 84,399 84,400 84,401 84,402 84,403 84,404 84,405 84,406 84,407 84,408 84,409 84,410 84,411 84,412 84,413 84,414 84,415 84,416 84,417 84,418 84,419 84,420 84,421 84,422 84,423 84,424 84,425 84,426 84,427 84,428 84,429 84,430 84,431 84,432 84,433 84,434 84,435 84,436 84,437 84,438 84,439 84,440 84,441 84,442 84,443 84,444 84,445 84,446 84,447 84,448 84,449 84,450 84,451 84,452 84,453 84,454 84,455 84,456 84,457 84,458 84,459 84,460 84,461 84,462 84,463 84,464 84,465 84,466 84,467 84,468 84,469 84,470 84,471 84,472 84,473 84,474 84,475 84,476 84,477 84,478 84,479 84,480 84,481 84,482 84,483 84,484 84,485 84,486 84,487 84,488 84,489 84,490 84,491 84,492 84,493 84,494 84,495 84,496 84,497 84,498 84,499 84,500 83,501 83,502 83,503 84,504 84,505 84,506 83,507 83,508 83,509 83,510 83,511 83,512 83,513 83,514 84,514 85,515 86,516 87,516 88,517 89,517 90,518 91,518 92,519 93,519 94,519 95,519 96,519 97,519 98,519 99,519 100,519 101,519 102,519 103,519 104,518 105,518 106,517 107,517 108,516 109,515 110,514 110,513 111,512 112,513 113,514 114,514 115,515 116,515 117,516 118,516 119,516 120,517 121,517 122,517 123,518 124,518 125,518 126,518 127,518 128,518 129,518 130,518 131,518 132,518 133,518 134,518 135,517 136,517 137,516 138,516 139,515 140,515 141,514 142,513 143,512 144,511 144,510 144,509 145,508 145,507 145,506 145,505 146,504 147,503 148,503 149,503 150,503 151,503 152,502 153,502 154,502 155,501 156,500 157,499 158,499 158,498 159,497 160,496 161,495 161,494 162,493 162,492 162,491 162,490 162,489 163,488 163,487 162,486 162,485 162,484 162,483 162,482 161,481 161,480 161,479 160,478 160,477 159,476 159,475 159,474 160,473 161,472 162,471 163,470 163,469 164,468 164,467 165,466 165,465 165,464 165,463 165,462 165,461 165,460 165,459 165,458 165,457 165,456 165,455 164,454 164,453 164,452 163,453 162,452 162,451 162,450 162,449 162,448 162,447 161,446 160,445 160,444 160,443 160,442 161,441 162,441 163,441 164,440 165,440 166,440 167,439 168,439 167,439 166,439 165,439 164,439 163,438 162,437 163,436 164,436 165,436 166,436 167,436 168,436 168,435 169,434 169,433 170,432 171,431 171,430 172,429 173,428 174,427 175,426 175,425 176,424 177,423 178,422 179,422 180,422 181,421 182,421 183,421 184,421 185,421 186,420 187,420 188,420 189,420 190,420 191,420 192,419 193,419 194,419 195,419 196,419 197,419 198,419 199,419 200,418 200,417 200,416 200,415 201,414 201,413 202,412 202,411 203,410 204,409 205,408 206,408 207,407 208,406 209,406 210,405 211,405 212,405 213,404 214,404 215,403 216,403 217,403 218,402 219,402 220,402 221,401 222,401 223,401 224,400 225,400 226,400 227,400 228,400 229,400 230,400 231,400 232,400 233,400 234,400 235,400 236,400 237,401 238,401 239,401 240,402 241,402 242,403 243,403 244,403 245,404 246,404 247,405 248,405 249,406 250,407 251,407 252,408 253,408 254,409 255,410 256,410 257,411 258,412 259,413 260,414 261,415 261,416 262,417 262,418 262,419 262,420 263,420 264,420 265,420 266,420 267,420 268,420 269,420 270,420 271,420 272,420 273,420 274,420 275,420 276,420 277,420 278,420 279,420 280,420 281,420 282,420 283,420 284,421 284,420 285,419 285,418 286,417 287,416 287,415 288,414 289,413 290,412 291,411 292,410 293,409 294,408 295,407 296,407 297,406 298,405 299,405 300,404 301,404 302,403 303,403 304,403 305,403 306,402 307,402 308,402 309,402 310,402 311,401 312,401 313,401 314,401 315,401 316,402 317,402 318,401 319,400 320,399 321,398 322,397 323,396 324,395 325,394 326,393 327,392 328,391 329,390 330,389 330,388 331,387 332,386 332,385 332,386 331,387 330,388 329,389 328,390 327,391 327,392 326,393 325,394 324,395 323,396 322,397 321,398 320,398 319,397 319,396 320,395 321,394 322,393 323,392 324,391 325,390 326,389 326,388 327,387 328,386 329,385 330,384 330,383 331,382 332,381 332,380 333,379 333,378 333,377 333,376 334,375 334,374 334,373 335,372 335,371 335,370 336,369 336,368 337,367 336,367 335,367 334,367 333,367 332,367 331,367 330,367 329,367 328,367 327,367 326,367 325,368 325,369 324,370 323,371 323,372 322,373 321,374 321,375 320,376 319,377 318,378 317,379 317,380 316,381 315,382 314,383 314,384 313,385 312,386 311,387 310,388 309,389 309,390 308,391 307,391 306,390 306,389 307,388 308,387 309,386 309,385 310,384 311,383 312,382 312,381 313,380 314,379 315,378 316,377 316,376 317,375 317,374 318,373 319,372 320,371 320,370 321,369 322,368 323,367 322,367 321,367 320,367 319,367 318,367 317,367 316,367 315,367 314,367 313,367 312,367 311,367 310,368 310,369 309,370 309,371 308,372 307,373 307,374 306,375 305,376 305,377 304,378 303,379 302,380 301,381 300,382 300,383 299,384 298,385 297,386 296,387 295,388 294,388 293,387 293,386 294,385 295,384 296,383 297,382 298,381 299,380 299,379 300,378 301,377 302,376 302,375 303,374 304,373 304,372 305,371 306,370 306,369 307,368 307,367 306,367 305,367 304,367 303,367 302,367 301,367 300,367 299,367 298,367 297,367 296,367 295,367 294,367 293,367 292,367 291,367 290,367 289,367 288,367 287,367 286,367 285,367 284,367 283,367 282,367 281,367 280,367 279,367 278,367 277,367 276,367 275,367 274,367 273,367 272,367 271,367 270,367 269,367 268,367 267,367 266,367 265,367 264,367 263,367 262,367 261,367 260,367 259,367 258,367 257,367 256,367 255,367 254,367 253,367 252,367 251,367 250,367 249,367 248,367 247,367 246,367 245,367 244,367 243,367 242,367 241,367 240,367 239,367 238,367 237,367 236,367 235,367 234,367 233,367 232,367 231,367 230,367 229,367 228,367 227,367 226,367 225,367 224,367 223,367 222,367 221,367 220,367 219,367 218,367 217,367 216,367 215,367 214,367 213,367 212,367 211,367 210,367 209,367 208,367 207,367 206,367 205,367 204,367 203,367 202,367 201,367 200,367 199,367 198,367 197,367 196,367 195,367 194,367 193,367 192,367 191,367 190,367 189,367 188,367 187,367 186,367 186,368 186,369 187,370 187,371 187,372 188,373 188,374 188,375 189,376 189,377 189,378 190,379 190,380 191,381 191,382 191,383 192,384 192,385 193,386 193,387 194,388 194,389 195,390 195,391 196,392 196,393 197,394 197,395 198,396 199,397 199,398 198,399 197,399 196,398 196,397 195,396 194,395 194,394 193,393 192,392 192,391 191,390 191,389 190,388 190,387 189,386 189,385 188,384 188,383 187,382 187,381 186,380 186,379 186,378 185,377 185,376 185,375 185,374 184,373 184,372 184,371 183,370 183,369 183,368 182,367 181,367 180,367 179,367 178,367 177,367 176,367 175,367 174,367 173,367 172,367 171,367 170,367 169,367 168,367 167,367 166,367 166,368 167,369 167,370 167,371 167,372 168,373 168,374 168,375 169,376 169,377 170,378 170,379 171,380 171,381 171,382 172,383 172,384 173,385 173,386 174,387 174,388 175,389 175,390 176,391 176,392 177,393 177,394 178,395 178,396 177,397 176,397 175,396 175,395 174,394 173,393 173,392 172,391 172,390 171,389 171,388 170,387 170,386 169,385 169,384 168,383 168,382 167,381 167,380 167,379 166,378 166,377 165,376 165,375 165,374 164,373 164,372 164,371 163,370 163,369 163,368 163,367 162,367 161,367 162,368 162,369 163,370 163,371 163,372 164,373 164,374 164,375 165,376 165,377 166,378 166,379 167,380 167,381 167,382 168,383 168,384 169,385 169,386 168,387 167,387 166,386 166,385 165,384 165,383 164,382 164,381 163,380 163,379 162,378 162,377 162,376 161,375 161,374 160,373 160,372 160,371 159,370 159,369 159,368 158,367 157,367 156,367 155,367 154,367 153,367 152,367 153,368 154,369 155,370 156,371 157,372 157,373 158,374 159,375 159,376 159,377 160,378 160,379 160,380 160,381 161,382 161,383 161,384 161,385 161,386 161,387 161,388 161,389 161,390 161,391 161,392 161,393 161,394 161,395 161,396 160,397 160,398 160,399 160,400 159,401 159,402 158,403 159,403 160,404 161,404 162,405 163,406 164,407 165,408 165,409 166,410 166,411 166,412 167,413 167,414 167,415 168,416 168,417 168,418 168,419 168,420 169,421 169,422 169,423 169,424 169,425 168,426 168,427 168,428 168,429 168,430 168,431 167,432 166,433 166,434 165,435 164,436 163,436 162,435 162,434 162,433 163,432 164,431 164,430 165,429 165,428 165,427 165,426 165,425 165,424 165,423 165,422 165,421 165,420 165,419 165,418 164,417 164,416 164,415 163,414 163,413 163,412 162,411 162,410 161,409 160,408 159,407 158,406 157,405 156,405 155,404 154,403 155,402 155,401 156,400 156,399 157,398 157,397 157,396 157,395 157,394 157,393 157,392 158,391 158,390 158,389 157,388 157,387 157,386 157,385 157,384 157,383 157,382 157,381 156,380 156,379 156,378 156,377 155,376 155,375 154,374 154,373 153,372 152,371 151,370 150,369 149,368 148,367 147,367 146,367 145,367 144,367 143,367 142,367 141,367 140,367 139,367 138,367 137,367 136,367 135,367 134,367 133,367 132,367 131,367 130,367 129,367 128,367 127,367 126,367 125,367 124,367 123,367 122,367 121,367 120,367 119,367 118,367 117,367 116,367 115,367 114,367 113,367 112,367 111,367 110,367 109,367 108,367 107,367 106,367 105,367 104,367 103,367 102,367 101,367 100,367 99,367 98,367 97,367 96,367 95,367 94,367 93,367 92,367 91,367 90,367 89,367 88,367 87,367 86,367 85,367 84,367">
      <metadata tailDirection="" confidence="0.83" linkedToCharacter="" id="TetsuSan_039_balloon_11" tailTip=""></metadata>
    </polygon>
    <polygon points="702,119 701,120 701,121 700,122 699,123 699,124 698,125 697,126 697,127 696,128 695,129 695,130 694,131 693,132 693,133 692,134 691,135 690,134 690,133 689,133 690,134 691,135 692,136 692,137 692,138 692,139 692,140 692,141 692,142 692,143 692,144 692,145 692,146 692,147 692,148 692,149 692,150 693,151 692,152 693,153 692,154 692,155 692,156 693,157 693,158 693,159 693,160 693,161 693,162 693,163 693,164 693,165 693,166 693,167 693,168 693,169 693,170 693,171 693,172 693,173 693,174 693,175 693,176 693,177 693,178 693,179 693,180 693,181 693,182 693,183 693,184 693,185 693,186 693,187 693,188 693,189 693,190 693,191 693,192 693,193 693,194 693,195 693,196 693,197 693,198 693,199 693,200 693,201 693,202 693,203 693,204 693,205 693,206 693,207 693,208 693,209 693,210 693,211 693,212 693,213 693,214 693,215 693,216 693,217 693,218 693,219 693,220 693,221 693,222 693,223 693,224 693,225 693,226 693,227 693,228 693,229 693,230 693,231 693,232 693,233 693,234 693,235 693,236 693,237 693,238 693,239 693,240 693,241 693,242 693,243 693,244 693,245 693,246 693,247 693,248 692,249 692,250 692,251 691,252 690,251 690,252 690,253 690,254 690,255 690,256 690,257 690,258 690,259 690,260 691,260 692,260 693,260 694,261 695,262 696,263 696,264 697,265 697,266 698,267 699,268 699,269 700,270 701,271 701,272 702,273 702,274 703,275 704,276 704,277 705,278 705,279 705,280 705,281 706,282 707,282 708,282 709,281 708,280 709,279 709,278 709,277 710,276 711,276 712,276 713,276 714,276 715,276 716,276 717,276 718,276 719,276 720,276 721,276 722,276 723,276 724,276 725,276 726,276 727,276 728,276 729,276 730,276 731,276 732,277 733,277 734,277 735,277 736,277 737,277 738,277 739,277 740,277 741,277 742,277 743,277 744,277 745,277 746,277 747,277 748,277 749,277 750,277 751,277 752,277 753,277 754,277 755,277 756,277 757,277 758,277 759,277 760,277 761,277 761,276 761,275 761,274 761,273 761,272 761,271 761,270 761,269 761,268 761,267 761,266 761,265 761,264 761,263 761,262 761,261 761,260 761,259 761,258 761,257 761,256 761,255 761,254 761,253 761,252 761,251 761,250 761,249 761,248 761,247 761,246 761,245 761,244 761,243 761,242 761,241 761,240 761,239 761,238 761,237 761,236 761,235 761,234 761,233 761,232 761,231 761,230 761,229 761,228 761,227 761,226 761,225 761,224 761,223 761,222 761,221 761,220 761,219 761,218 761,217 761,216 761,215 761,214 761,213 761,212 761,211 761,210 761,209 761,208 761,207 761,206 761,205 761,204 761,203 761,202 761,201 761,200 761,199 761,198 761,197 761,196 761,195 761,194 761,193 761,192 761,191 761,190 761,189 761,188 761,187 761,186 761,185 761,184 761,183 761,182 761,181 761,180 761,179 761,178 761,177 761,176 761,175 761,174 761,173 761,172 761,171 761,170 761,169 761,168 761,167 761,166 761,165 761,164 761,163 761,162 761,161 761,160 761,159 761,158 761,157 761,156 761,155 761,154 761,153 761,152 761,151 761,150 761,149 761,148 761,147 761,146 761,145 761,144 761,143 761,142 761,141 761,140 761,139 761,138 761,137 761,136 761,135 761,134 761,133 761,132 761,131 761,130 761,129 761,128 761,127 761,126 761,125 761,124 761,123 761,122 761,121 761,120 760,120 759,120 758,120 757,119 756,119 755,119 754,119 753,119 752,119 751,119 750,119 749,119 748,119 747,119 746,119 745,119 744,119 743,119 742,119 741,119 740,119 739,119 738,119 737,119 736,119 735,119 734,119 733,119 732,119 731,119 730,119 729,119 728,119 727,119 726,119 725,119 724,119 723,119 722,119 721,119 720,119 719,119 718,119 717,119 716,119 715,119 714,119 713,119 712,119 711,119 710,119 709,119 708,119 707,119 706,119 705,120 705,121 704,122 704,123 703,124 703,125 702,126 702,127 701,128 700,129 700,130 699,131 698,131 698,132 697,133 697,134 697,135 697,136 697,137 697,138 697,139 697,140 697,141 697,142 697,143 697,144 697,145 697,146 697,147 697,148 697,149 697,150 697,151 697,152 697,153 697,154 697,155 697,156 697,157 697,158 697,159 697,160 697,161 697,162 697,163 697,164 697,165 697,166 697,167 697,168 697,169 698,170 698,171 698,172 698,173 698,174 698,175 698,176 698,177 698,178 698,179 698,180 698,181 698,182 698,183 698,184 698,185 698,186 698,187 698,188 698,189 698,190 698,191 698,192 698,193 698,194 698,195 698,196 698,197 698,198 698,199 698,200 698,201 698,202 698,203 698,204 698,205 698,206 698,207 698,208 698,209 698,210 698,211 698,212 698,213 698,214 698,215 698,216 698,217 698,218 698,219 698,220 698,221 698,222 698,223 698,224 698,225 698,226 698,227 698,228 698,229 698,230 698,231 698,232 698,233 698,234 698,235 698,236 698,237 698,238 698,239 698,240 698,241 698,242 698,243 698,244 698,245 698,246 698,247 697,248 697,249 697,250 697,251 697,252 697,253 697,254 697,255 698,256 699,257 700,258 700,259 701,260 701,261 702,262 702,263 703,264 704,265 704,266 705,267 705,268 706,269 706,270 707,271 708,272 708,273 708,274 708,275 708,276 707,277 706,277 705,276 705,275 704,274 704,273 703,272 702,271 702,270 701,269 700,268 700,267 699,266 698,265 698,264 697,263 697,262 696,261 695,260 694,259 694,258 695,257 694,256 694,255 694,254 694,253 694,252 694,251 694,250 694,249 693,248 693,247 693,246 693,245 693,244 693,243 693,242 693,241 693,240 693,239 693,238 693,237 693,236 693,235 693,234 693,233 693,232 693,231 693,230 693,229 693,228 693,227 693,226 693,225 693,224 693,223 693,222 693,221 693,220 693,219 693,218 693,217 693,216 693,215 693,214 693,213 693,212 693,211 693,210 693,209 693,208 693,207 693,206 693,205 693,204 693,203 693,202 693,201 693,200 693,199 693,198 693,197 693,196 693,195 693,194 693,193 693,192 693,191 693,190 693,189 693,188 693,187 693,186 693,185 693,184 693,183 693,182 693,181 693,180 693,179 693,178 693,177 693,176 693,175 693,174 693,173 693,172 693,171 693,170 693,169 693,168 693,167 693,166 693,165 693,164 693,163 693,162 693,161 693,160 693,159 693,158 693,157 693,156 693,155 693,154 693,153 693,152 693,151 693,150 693,149 693,148 693,147 693,146 693,145 693,144 693,143 693,142 693,141 693,140 693,139 693,138 693,137 693,136 693,135 694,134 694,133 695,132 696,131 696,130 697,129 698,128 698,127 699,126 699,125 700,124 700,123 701,122 701,121 702,120 702,119">
      <metadata tailDirection="" confidence="0.81" linkedToCharacter="" id="TetsuSan_039_balloon_12" tailTip=""></metadata>
    </polygon>
  </svg>
</svg>
