<?xml version="1.0" encoding="UTF-8" standalone="no"?>
<svg width="827" xmlns="http://www.w3.org/2000/svg" version="1.0" height="1170">
  <title>TetsuSan_020</title>
  <svg contentScriptType="text/ecmascript" zoomAndPan="magnify" contentStyleType="text/css" class="Page" preserveAspectRatio="xMidYMid meet" version="1.0">
    <image xmlns:xlink="http://www.w3.org/1999/xlink" x="0" y="0" width="827" height="1170" xlink:href="./../../dataset_Manga109/TetsuSan/TetsuSan_020.jpg" xlink:type="simple" xlink:actuate="onLoad" preserveAspectRatio="xMidYMid meet" xlink:show="embed"/>
  </svg>
  <style type="text/css" xml:space="preserve">
        * { stroke-linejoin: round; }
        .Unclassified   { fill: orange; stroke: none;   opacity: 1.0; visibility: hidden; }
        .Noise          { fill: pink;   stroke: none;   opacity: 0.2; visibility: hidden; }
        .Panel          { fill: none;   stroke: red;    stroke-width:3; opacity: 0.5; visibility: visible; image-rendering: optimizeSpeed; }
        .Line           { fill: green;  stroke: none;   opacity: 0.5; visibility: visible; image-rendering: optimizeSpeed; }
        .TextArea       { fill: grey;   stroke: none;   opacity: 0.2; visibility: visible; image-rendering: optimizeSpeed; }
        .Balloon        { fill: cyan;   stroke: none;   opacity: 0.5; visibility: visible; image-rendering: optimizeSpeed; }
        .Letter         { fill: blue;   stroke: none;   opacity: 0.2; visibility: hidden; }
        .Object, .Character, .Face  { fill: yellow; stroke: none;   opacity: 0.5; visibility: visible; image-rendering: optimizeSpeed; }
        .Page           { fill: white;  stroke: none;    opacity: 0.5; visibility: visible; }
        .linkSBSC { fill: blue; stroke: none; opacity: 1.0; visibility: visible; }
        polygon:hover { opacity:1.0; stroke:red; }
</style>
  <svg xmlns="http://www.w3.org/2000/svg" contentScriptType="text/ecmascript" zoomAndPan="magnify" contentStyleType="text/css" class="Balloon" preserveAspectRatio="xMidYMid meet" version="1.0">
    <polygon points="125,868 125,869 125,870 125,871 125,872 125,873 125,874 125,875 125,876 125,877 125,878 125,879 125,880 125,881 125,882 125,883 125,884 125,885 125,886 125,887 125,888 125,889 125,890 125,891 125,892 125,893 125,894 125,895 125,896 125,897 125,898 125,899 125,900 125,901 125,902 125,903 125,904 125,905 126,906 126,907 126,908 126,909 126,910 126,911 126,912 126,913 126,914 126,915 125,916 125,917 125,918 126,919 126,920 126,921 126,922 126,923 126,924 126,925 126,926 126,927 126,928 126,929 126,930 126,931 126,932 126,933 126,934 126,935 126,936 126,937 126,938 126,939 126,940 126,941 126,942 126,943 126,944 126,945 126,946 126,947 126,948 126,949 126,950 126,951 126,952 126,953 126,954 126,955 126,956 126,957 126,958 126,959 126,960 126,961 126,962 126,963 126,964 126,965 126,966 127,967 128,968 129,968 130,969 131,970 132,970 133,971 134,971 135,971 136,972 137,972 138,972 139,973 140,973 141,973 142,973 143,973 144,974 145,974 146,974 147,974 148,974 149,974 150,974 151,975 152,975 153,975 154,975 155,975 156,975 157,975 158,974 159,974 160,974 161,974 162,975 162,976 163,977 163,978 163,979 163,980 163,979 163,978 164,977 164,976 165,975 166,975 167,975 168,975 169,975 170,975 171,974 172,974 173,974 174,974 175,974 176,974 177,974 178,974 179,973 180,973 181,973 182,973 183,973 184,972 185,972 186,972 187,971 188,971 189,971 190,970 191,970 192,970 193,969 194,969 195,968 196,968 197,967 198,966 199,966 200,965 201,964 202,963 203,962 204,961 205,961 206,960 207,959 208,958 209,957 209,956 210,955 211,954 212,953 212,952 213,951 214,950 214,949 215,948 215,947 216,946 216,945 217,944 217,943 217,942 218,941 218,940 218,939 219,938 219,937 219,936 220,935 220,934 220,933 220,932 220,931 221,930 221,929 221,928 221,927 221,926 221,925 221,924 221,923 221,922 222,921 222,920 222,919 222,918 222,917 222,916 222,915 222,914 222,913 222,912 222,911 222,910 222,909 222,908 222,907 221,906 221,905 221,904 221,903 221,902 221,901 220,900 220,899 220,898 220,897 220,896 219,895 219,894 219,893 218,892 218,891 218,890 217,889 217,888 217,887 216,886 216,885 216,884 215,883 215,882 214,881 214,880 213,879 213,878 212,877 212,876 211,875 211,874 210,873 210,872 209,871 208,870 208,869 207,868 206,868 205,868 204,868 203,868 202,868 201,868 200,868 199,868 198,868 197,868 196,868 195,868 194,868 193,868 192,868 191,868 190,868 189,868 188,868 187,868 186,868 185,868 184,868 183,868 182,868 181,868 180,868 179,868 178,868 177,868 176,868 175,868 174,868 173,868 172,868 171,868 170,868 169,868 168,868 167,868 166,868 165,868 164,868 163,868 162,868 161,868 160,868 159,868 158,868 157,868 156,868 155,868 154,868 153,868 152,868 151,868 150,868 149,868 148,868 147,868 146,868 145,868 144,868 143,868 142,868 141,868 140,868 139,868 138,868 137,868 136,868 135,868 134,868 133,868 132,868 131,868 130,868 129,868 128,868 127,868 126,868 125,868">
      <metadata tailDirection="" confidence="0.89" linkedToCharacter="" id="TetsuSan_020_balloon_0" tailTip=""></metadata>
    </polygon>
    <polygon points="70,868 69,869 69,870 69,871 69,872 69,873 69,874 69,875 69,876 69,877 69,878 69,879 69,880 69,881 69,882 69,883 69,884 69,885 69,886 69,887 69,888 69,889 69,890 69,891 69,892 69,893 69,894 69,895 69,896 69,897 69,898 69,899 69,900 69,901 69,902 69,903 69,904 69,905 69,906 69,907 69,908 69,909 69,910 69,911 69,912 69,913 69,914 69,915 69,916 69,917 69,918 69,919 69,920 69,921 69,922 69,923 69,924 69,925 69,926 69,927 69,928 69,929 69,930 69,931 69,932 69,933 69,934 69,935 69,936 69,937 69,938 69,939 69,940 69,941 69,942 69,943 69,944 69,945 69,946 69,947 69,948 69,949 69,950 69,951 69,952 69,953 69,954 69,955 69,956 69,957 69,958 69,959 69,960 69,961 69,962 69,963 69,964 69,965 69,966 69,967 69,968 69,969 69,970 69,971 69,972 69,973 69,974 69,975 69,976 69,977 69,978 69,979 69,980 69,981 69,982 69,983 69,984 69,985 69,986 69,987 69,988 69,989 69,990 69,991 69,992 69,993 69,994 69,995 69,996 69,997 69,998 69,999 69,1000 69,1001 69,1002 69,1003 69,1004 69,1005 69,1006 69,1007 69,1008 69,1009 69,1010 69,1011 69,1012 69,1013 69,1014 69,1015 69,1016 69,1017 69,1018 69,1019 69,1020 69,1021 69,1022 69,1023 69,1024 69,1025 69,1026 69,1027 69,1028 69,1029 69,1030 69,1031 69,1032 69,1033 69,1034 69,1035 69,1036 69,1037 69,1038 69,1039 69,1040 69,1041 69,1042 69,1043 69,1044 69,1045 69,1046 69,1047 69,1048 69,1049 69,1050 69,1051 69,1052 69,1053 69,1054 69,1055 69,1056 69,1057 69,1058 69,1059 69,1060 69,1061 69,1062 69,1063 69,1064 69,1065 69,1066 69,1067 69,1068 69,1069 69,1070 69,1071 69,1072 69,1073 69,1074 69,1075 69,1076 69,1077 69,1078 69,1079 69,1080 69,1081 69,1082 69,1083 69,1084 69,1085 69,1086 69,1087 69,1088 70,1088 71,1088 72,1088 73,1088 74,1088 75,1088 76,1088 77,1088 78,1088 79,1088 80,1088 81,1088 82,1088 83,1088 84,1088 85,1088 86,1088 87,1088 88,1088 89,1088 90,1088 91,1088 92,1088 93,1088 94,1088 95,1088 96,1088 97,1088 98,1088 99,1088 100,1088 101,1088 102,1088 103,1088 104,1088 105,1088 106,1088 107,1088 108,1088 109,1088 110,1088 111,1088 112,1088 113,1088 114,1088 115,1088 116,1088 117,1088 118,1088 119,1088 120,1088 121,1088 122,1088 123,1088 123,1087 123,1086 123,1085 123,1084 123,1083 123,1082 123,1081 123,1080 123,1079 123,1078 123,1077 123,1076 123,1075 123,1074 123,1073 123,1072 123,1071 123,1070 123,1069 123,1068 123,1067 123,1066 123,1065 123,1064 123,1063 123,1062 123,1061 123,1060 123,1059 123,1058 123,1057 123,1056 123,1055 123,1054 123,1053 123,1052 123,1051 123,1050 123,1049 123,1048 123,1047 123,1046 123,1045 123,1044 123,1043 123,1042 123,1041 123,1040 123,1039 123,1038 123,1037 123,1036 123,1035 123,1034 123,1033 123,1032 123,1031 123,1030 123,1029 123,1028 123,1027 123,1026 123,1025 123,1024 123,1023 123,1022 123,1021 123,1020 123,1019 123,1018 123,1017 123,1016 123,1015 123,1014 123,1013 123,1012 123,1011 123,1010 123,1009 123,1008 123,1007 123,1006 123,1005 123,1004 123,1003 123,1002 123,1001 123,1000 123,999 123,998 123,997 123,996 123,995 123,994 123,993 123,992 123,991 123,990 123,989 123,988 123,987 123,986 123,985 123,984 123,983 123,982 123,981 123,980 123,979 123,978 123,977 123,976 123,975 123,974 123,973 123,972 123,971 123,970 123,969 123,968 123,967 123,966 123,965 123,964 123,963 123,962 123,961 123,960 123,959 123,958 123,957 123,956 123,955 123,954 123,953 123,952 123,951 123,950 123,949 122,948 122,947 122,946 122,945 122,944 122,943 122,942 122,941 122,940 122,939 122,938 122,937 122,936 122,935 122,934 122,933 122,932 122,931 122,930 122,929 122,928 122,927 122,926 122,925 122,924 122,923 122,922 122,921 122,920 122,919 122,918 122,917 122,916 122,915 122,914 122,913 122,912 122,911 122,910 122,909 122,908 122,907 122,906 122,905 122,904 122,903 122,902 122,901 122,900 122,899 122,898 122,897 122,896 122,895 122,894 122,893 122,892 122,891 122,890 122,889 122,888 122,887 122,886 122,885 122,884 122,883 121,882 121,881 121,880 122,879 122,878 122,877 122,876 122,875 122,874 122,873 122,872 122,871 122,870 122,869 122,868 121,868 120,868 119,868 118,868 117,868 116,868 115,868 114,868 113,868 112,868 111,868 110,868 109,868 108,868 107,868 106,868 105,868 104,868 103,868 102,868 101,868 100,868 99,868 98,868 97,868 96,868 95,868 94,868 93,868 92,868 91,868 90,868 89,868 88,868 87,868 86,868 85,868 84,868 83,868 82,868 81,868 80,868 79,868 78,868 77,868 76,868 75,868 74,868 73,868 72,868 71,868 70,868">
      <metadata tailDirection="" confidence="1.00" linkedToCharacter="" id="TetsuSan_020_balloon_1" tailTip=""></metadata>
    </polygon>
    <polygon points="338,867 337,868 336,869 336,870 335,871 335,872 335,873 335,874 334,875 334,876 334,877 334,878 334,879 334,880 333,881 333,882 333,883 333,884 333,885 333,886 332,887 332,888 332,889 332,890 332,891 331,892 331,893 331,894 331,895 331,896 331,897 331,898 330,899 330,900 330,901 330,902 330,903 330,904 330,905 330,906 330,907 329,908 329,909 329,910 329,911 329,912 329,913 329,914 329,915 329,916 329,917 328,918 328,919 328,920 328,921 328,922 328,923 328,924 328,925 328,926 328,927 328,928 328,929 328,930 327,931 327,932 327,933 327,934 327,935 327,936 327,937 327,938 327,939 327,940 327,941 327,942 327,943 327,944 327,945 327,946 327,947 327,948 327,949 327,950 327,951 327,952 327,953 327,954 327,955 327,956 327,957 327,958 327,959 327,960 327,961 327,962 327,963 327,964 327,965 327,966 327,967 327,968 327,969 327,970 327,971 327,972 327,973 327,974 328,975 327,976 326,977 325,977 324,977 323,977 324,977 325,978 326,978 327,979 327,980 327,981 327,982 327,983 327,984 327,985 327,986 327,987 327,988 327,989 327,990 328,991 328,992 328,993 328,994 329,995 329,996 329,997 329,998 329,999 329,1000 330,1001 330,1002 331,1003 331,1004 331,1005 332,1006 332,1007 333,1008 333,1009 334,1010 334,1011 335,1012 336,1013 336,1014 337,1015 338,1016 339,1017 340,1018 341,1019 342,1020 343,1021 344,1022 345,1022 346,1023 347,1023 348,1024 349,1024 350,1024 351,1024 352,1025 353,1025 354,1025 355,1026 356,1026 357,1026 358,1026 359,1026 360,1026 361,1027 362,1027 363,1027 364,1027 365,1027 366,1027 367,1027 368,1027 369,1027 370,1027 371,1026 372,1026 373,1026 374,1026 375,1026 376,1025 377,1025 378,1025 379,1025 380,1024 381,1024 382,1023 383,1023 384,1022 385,1022 386,1021 387,1021 388,1020 388,1019 388,1018 388,1017 388,1016 388,1015 388,1014 388,1013 388,1012 388,1011 388,1010 388,1009 388,1008 388,1007 388,1006 388,1005 388,1004 388,1003 388,1002 388,1001 387,1000 388,999 388,998 388,997 388,996 388,995 388,994 388,993 388,992 388,991 388,990 388,989 388,988 388,987 388,986 388,985 388,984 388,983 388,982 388,981 388,980 388,979 388,978 388,977 388,976 388,975 388,974 388,973 388,972 388,971 388,970 388,969 388,968 388,967 388,966 388,965 388,964 388,963 388,962 388,961 388,960 388,959 388,958 388,957 388,956 388,955 388,954 388,953 388,952 388,951 388,950 388,949 388,948 388,947 388,946 388,945 388,944 388,943 388,942 388,941 388,940 388,939 388,938 388,937 388,936 388,935 388,934 388,933 388,932 388,931 388,930 388,929 388,928 388,927 388,926 388,925 388,924 388,923 388,922 388,921 388,920 388,919 388,918 388,917 388,916 388,915 388,914 388,913 388,912 388,911 388,910 388,909 388,908 388,907 388,906 388,905 388,904 388,903 388,902 388,901 388,900 388,899 388,898 388,897 388,896 388,895 388,894 388,893 388,892 388,891 388,890 388,889 388,888 388,887 388,886 388,885 388,884 388,883 388,882 388,881 388,880 388,879 388,878 388,877 388,876 388,875 388,874 388,873 388,872 388,871 388,870 388,869 388,868 388,867 387,868 386,868 385,867 384,867 383,867 382,867 381,867 380,867 379,867 378,868 377,867 376,867 375,867 374,867 373,867 372,867 371,867 370,867 369,867 368,867 367,867 366,867 365,867 364,867 363,867 362,867 361,867 360,867 359,867 358,867 357,867 356,867 355,867 354,867 353,867 352,867 351,867 350,867 349,867 348,867 347,867 346,867 345,867 344,867 343,867 342,867 341,867 340,867 339,867 338,867">
      <metadata tailDirection="" confidence="0.85" linkedToCharacter="" id="TetsuSan_020_balloon_2" tailTip=""></metadata>
    </polygon>
    <polygon points="427,867 427,868 427,869 427,870 427,871 427,872 427,873 427,874 427,875 427,876 427,877 427,878 427,879 427,880 427,881 427,882 427,883 427,884 427,885 427,886 427,887 427,888 427,889 427,890 427,891 427,892 427,893 427,894 427,895 427,896 427,897 427,898 427,899 427,900 427,901 427,902 427,903 427,904 427,905 427,906 427,907 427,908 427,909 427,910 427,911 427,912 427,913 427,914 427,915 427,916 427,917 427,918 427,919 427,920 427,921 427,922 427,923 427,924 427,925 427,926 427,927 427,928 427,929 427,930 427,931 427,932 427,933 427,934 427,935 427,936 427,937 427,938 427,939 427,940 427,941 426,942 426,943 426,944 426,945 426,946 426,947 426,948 426,949 426,950 426,951 426,952 427,953 427,954 427,955 426,956 426,957 426,958 426,959 426,960 427,961 427,962 426,963 426,964 426,965 426,966 426,967 426,968 426,969 426,970 426,971 426,972 426,973 426,974 426,975 426,976 426,977 426,978 426,979 426,980 426,981 426,982 426,983 426,984 426,985 426,986 426,987 426,988 426,989 426,990 426,991 426,992 426,993 426,994 426,995 426,996 426,997 426,998 426,999 426,1000 426,1001 426,1002 426,1003 426,1004 426,1005 426,1006 427,1006 428,1005 429,1005 430,1005 431,1005 432,1005 433,1005 434,1005 435,1005 436,1005 437,1006 438,1007 439,1008 440,1009 441,1010 442,1011 443,1012 443,1013 444,1014 445,1015 445,1016 446,1017 446,1018 446,1019 447,1020 447,1019 448,1018 448,1017 449,1016 450,1015 450,1014 451,1013 452,1013 453,1012 454,1012 455,1011 456,1011 457,1011 458,1011 459,1011 460,1012 461,1012 462,1013 463,1014 464,1015 464,1016 464,1017 465,1017 465,1016 465,1015 465,1014 466,1013 466,1012 467,1011 467,1010 468,1009 468,1008 469,1007 470,1006 471,1005 471,1004 472,1003 473,1002 474,1001 474,1000 475,999 476,998 477,998 478,997 479,996 480,996 481,995 482,994 483,994 484,994 485,993 486,993 487,992 488,992 489,992 490,992 491,991 492,991 493,991 494,991 495,991 495,990 494,989 494,988 494,987 493,986 493,985 493,984 492,983 492,982 492,981 491,980 491,979 491,978 491,977 491,976 490,975 490,974 490,973 490,972 490,971 490,970 490,969 490,968 490,967 490,966 490,965 490,964 490,963 490,962 490,961 490,960 490,959 490,958 490,957 491,956 491,955 491,954 491,953 491,952 491,951 491,950 492,949 492,948 492,947 492,946 493,945 493,944 493,943 493,942 494,941 494,940 495,939 494,938 494,937 494,936 493,935 493,934 493,933 493,932 493,931 492,930 492,929 492,928 492,927 492,926 491,925 491,924 491,923 491,922 491,921 490,920 490,919 490,918 490,917 490,916 490,915 490,914 490,913 490,912 490,911 490,910 491,909 491,908 491,907 491,906 491,905 492,904 492,903 492,902 492,901 493,900 493,899 493,898 494,897 494,896 493,896 492,896 491,896 490,895 489,895 488,894 487,893 486,892 485,891 485,890 485,889 484,888 484,887 484,886 484,885 484,884 484,883 484,882 484,881 484,880 484,879 484,878 484,877 485,876 485,875 485,874 485,873 485,872 485,871 485,870 486,869 486,868 487,867 486,867 485,867 484,867 483,867 482,867 481,867 480,867 479,867 478,867 477,867 476,867 475,867 474,867 473,867 472,867 471,867 470,867 469,867 468,867 467,867 466,867 465,867 464,867 463,867 462,867 461,867 460,867 459,867 458,867 457,867 456,867 455,867 454,867 453,867 452,867 451,867 450,867 449,867 448,867 447,867 446,867 445,867 444,867 443,867 442,867 441,867 440,867 439,867 438,867 437,867 436,867 435,867 434,867 433,867 432,867 431,867 430,867 429,867 428,867 427,867">
      <metadata tailDirection="" confidence="0.90" linkedToCharacter="" id="TetsuSan_020_balloon_3" tailTip=""></metadata>
    </polygon>
    <polygon points="691,866 690,867 690,868 690,869 689,870 689,871 689,872 688,873 688,874 688,875 688,876 688,877 687,878 687,879 687,880 687,881 687,882 686,883 686,884 686,885 686,886 686,887 685,888 685,889 685,890 685,891 685,892 685,893 684,894 684,895 684,896 684,897 684,898 684,899 684,900 684,901 684,902 684,903 684,904 684,905 683,906 683,907 683,908 683,909 683,910 683,911 683,912 683,913 683,914 683,915 683,916 683,917 683,918 683,919 683,920 683,921 682,922 682,923 682,924 682,925 682,926 682,927 682,928 682,929 682,930 682,931 682,932 682,933 682,934 682,935 682,936 682,937 682,938 682,939 682,940 683,941 683,942 682,943 683,944 683,945 683,946 683,947 683,948 683,949 683,950 683,951 683,952 683,953 683,954 683,955 683,956 683,957 683,958 683,959 683,960 683,961 683,962 683,963 683,964 683,965 683,966 683,967 683,968 683,969 683,970 683,971 683,972 683,973 683,974 683,975 683,976 683,977 683,978 683,979 683,980 684,981 683,982 683,983 683,984 683,985 683,986 683,987 683,988 683,989 684,990 684,991 684,992 684,993 684,994 684,995 684,996 684,997 684,998 684,999 684,1000 684,1001 684,1002 684,1003 684,1004 684,1005 684,1006 684,1007 684,1008 684,1009 684,1010 684,1011 685,1012 684,1013 684,1014 684,1015 684,1016 684,1017 684,1018 684,1019 684,1020 685,1021 685,1022 685,1023 685,1024 685,1025 685,1026 685,1027 685,1028 685,1029 685,1030 685,1031 685,1032 685,1033 686,1034 686,1035 686,1036 686,1037 686,1038 686,1039 687,1040 687,1041 687,1042 687,1043 687,1044 688,1045 688,1046 687,1047 688,1048 688,1049 687,1050 686,1050 685,1051 684,1051 683,1052 682,1052 683,1052 684,1052 685,1052 686,1052 687,1053 688,1054 688,1055 688,1056 688,1057 688,1058 689,1059 689,1060 689,1061 689,1062 690,1063 690,1064 690,1065 690,1066 690,1067 691,1068 691,1069 692,1070 692,1071 692,1072 692,1073 693,1074 693,1075 694,1076 694,1077 695,1078 695,1079 696,1080 696,1081 697,1082 697,1083 698,1084 698,1085 699,1086 699,1087 700,1088 701,1088 702,1088 703,1088 704,1088 705,1088 706,1088 707,1088 708,1088 709,1088 710,1087 711,1088 712,1088 713,1088 714,1088 715,1088 716,1088 717,1088 718,1088 719,1087 720,1088 721,1088 722,1088 723,1088 724,1087 725,1087 726,1087 727,1087 728,1087 729,1088 730,1088 731,1088 732,1088 733,1088 734,1088 735,1087 736,1087 737,1087 738,1088 739,1088 740,1087 741,1087 742,1087 743,1087 744,1087 744,1086 744,1085 745,1084 745,1083 745,1082 745,1081 745,1080 745,1079 745,1078 745,1077 745,1076 745,1075 745,1074 745,1073 745,1072 745,1071 745,1070 745,1069 745,1068 745,1067 745,1066 745,1065 745,1064 745,1063 745,1062 745,1061 745,1060 745,1059 745,1058 745,1057 745,1056 745,1055 745,1054 745,1053 745,1052 745,1051 745,1050 745,1049 745,1048 745,1047 745,1046 745,1045 745,1044 745,1043 745,1042 745,1041 745,1040 745,1039 745,1038 745,1037 745,1036 745,1035 745,1034 745,1033 745,1032 745,1031 745,1030 745,1029 745,1028 745,1027 745,1026 745,1025 745,1024 745,1023 745,1022 745,1021 745,1020 745,1019 745,1018 745,1017 745,1016 745,1015 745,1014 745,1013 745,1012 745,1011 745,1010 745,1009 745,1008 745,1007 745,1006 745,1005 745,1004 745,1003 745,1002 745,1001 745,1000 745,999 745,998 745,997 745,996 745,995 745,994 745,993 745,992 745,991 745,990 745,989 745,988 745,987 745,986 745,985 745,984 745,983 745,982 745,981 745,980 745,979 745,978 745,977 745,976 745,975 745,974 745,973 745,972 745,971 745,970 745,969 745,968 745,967 745,966 745,965 745,964 745,963 745,962 745,961 745,960 745,959 745,958 745,957 745,956 745,955 745,954 745,953 745,952 745,951 745,950 745,949 745,948 745,947 745,946 745,945 745,944 745,943 745,942 745,941 745,940 745,939 745,938 745,937 745,936 745,935 745,934 745,933 745,932 745,931 745,930 745,929 745,928 745,927 745,926 745,925 745,924 745,923 745,922 745,921 745,920 745,919 745,918 745,917 745,916 745,915 745,914 745,913 745,912 745,911 745,910 745,909 745,908 745,907 745,906 745,905 745,904 745,903 745,902 745,901 745,900 745,899 745,898 745,897 745,896 745,895 745,894 745,893 745,892 745,891 745,890 745,889 745,888 745,887 745,886 745,885 745,884 745,883 745,882 745,881 745,880 745,879 745,878 745,877 745,876 745,875 745,874 745,873 745,872 745,871 745,870 745,869 745,868 745,867 745,866 744,866 743,866 742,866 741,866 740,866 739,866 738,866 737,866 736,866 735,866 734,866 733,866 732,866 731,866 730,866 729,866 728,866 727,866 726,866 725,866 724,866 723,866 722,866 721,866 720,866 719,866 718,866 717,866 716,866 715,866 714,866 713,866 712,866 711,866 710,866 709,866 708,866 707,866 706,866 705,866 704,866 703,866 702,866 701,866 700,866 699,866 698,866 697,866 696,866 695,866 694,866 693,866 692,866 691,866">
      <metadata tailDirection="" confidence="0.94" linkedToCharacter="" id="TetsuSan_020_balloon_4" tailTip=""></metadata>
    </polygon>
    <polygon points="704,619 703,620 703,621 703,622 703,623 702,624 702,625 702,626 702,627 701,628 701,629 701,630 701,631 701,632 701,633 700,634 700,635 700,636 700,637 700,638 699,639 699,640 699,641 699,642 699,643 699,644 699,645 699,646 699,647 699,648 698,649 698,650 698,651 698,652 698,653 698,654 698,655 698,656 697,657 697,658 697,659 697,660 697,661 697,662 697,663 697,664 697,665 697,666 697,667 697,668 697,669 697,670 697,671 696,672 696,673 696,674 696,675 696,676 696,677 696,678 696,679 696,680 696,681 696,682 696,683 696,684 696,685 696,686 696,687 696,688 696,689 695,690 694,691 695,692 696,693 696,694 696,695 696,696 696,697 696,698 696,699 696,700 696,701 696,702 696,703 696,704 696,705 696,706 696,707 696,708 696,709 696,710 696,711 696,712 696,713 696,714 697,715 697,716 697,717 697,718 697,719 697,720 698,721 698,722 698,723 698,724 699,725 699,726 700,727 700,728 700,729 701,730 701,731 701,732 702,733 702,734 702,735 703,736 704,737 704,738 705,739 705,740 706,741 707,742 708,743 709,744 710,745 711,746 712,747 713,747 714,748 715,749 716,750 717,751 718,752 719,752 720,753 721,753 722,754 723,755 724,755 725,755 726,756 727,756 728,756 729,757 730,757 731,757 732,757 733,758 734,758 735,758 736,758 737,758 738,758 739,758 740,758 741,758 742,758 743,758 744,757 745,757 745,756 745,755 745,754 745,753 745,752 745,751 745,750 745,749 745,748 745,747 745,746 745,745 745,744 745,743 745,742 745,741 745,740 745,739 745,738 745,737 745,736 745,735 745,734 745,733 745,732 745,731 745,730 745,729 745,728 745,727 745,726 745,725 745,724 745,723 745,722 745,721 745,720 745,719 745,718 745,717 745,716 745,715 745,714 745,713 745,712 745,711 745,710 745,709 745,708 745,707 745,706 745,705 745,704 745,703 745,702 745,701 745,700 745,699 745,698 745,697 745,696 745,695 745,694 745,693 745,692 745,691 745,690 745,689 745,688 745,687 745,686 745,685 745,684 745,683 745,682 745,681 745,680 745,679 745,678 745,677 745,676 745,675 745,674 745,673 745,672 745,671 745,670 745,669 745,668 745,667 745,666 745,665 745,664 745,663 745,662 745,661 745,660 745,659 745,658 745,657 745,656 745,655 745,654 745,653 745,652 745,651 745,650 745,649 745,648 745,647 745,646 745,645 745,644 745,643 745,642 745,641 745,640 745,639 745,638 745,637 745,636 745,635 745,634 745,633 745,632 745,631 745,630 745,629 745,628 745,627 745,626 745,625 745,624 745,623 745,622 745,621 745,620 744,619 743,619 742,619 741,619 740,619 739,619 738,619 737,619 736,619 735,619 734,619 733,619 732,619 731,619 730,619 729,619 728,619 727,619 726,619 725,619 724,619 723,619 722,619 721,619 720,619 719,619 718,619 717,619 716,619 715,619 714,619 713,619 712,619 711,619 710,619 709,619 708,619 707,619 706,619 705,619 704,619">
      <metadata tailDirection="" confidence="0.99" linkedToCharacter="" id="TetsuSan_020_balloon_5" tailTip=""></metadata>
    </polygon>
    <polygon points="219,756 219,757 219,758 219,759 219,760 220,760 221,761 222,761 223,762 224,763 224,764 225,765 226,766 227,767 228,768 229,769 230,770 230,771 229,772 228,772 227,772 228,773 228,774 227,775 226,776 225,776 224,776 224,777 223,778 222,778 221,777 220,777 219,777 218,777 217,776 217,775 216,774 216,773 215,772 215,771 214,772 213,773 212,773 211,772 211,771 211,770 211,769 212,768 213,767 213,766 213,765 213,764 213,763 213,762 212,761 211,760 211,759 211,760 210,761 209,762 208,763 207,763 206,763 205,764 205,765 204,766 205,767 205,768 206,769 206,770 207,771 208,772 208,773 208,774 209,775 209,776 209,777 209,778 209,779 209,780 209,781 209,782 209,783 209,784 209,785 209,786 209,787 209,788 208,789 207,789 206,790 205,790 204,790 203,790 202,790 201,791 200,791 199,791 198,791 197,791 196,791 195,791 194,790 193,790 192,790 191,789 191,788 190,787 190,786 189,785 189,784 189,783 189,782 189,781 189,780 189,779 189,778 188,777 188,776 188,775 188,774 189,773 189,772 190,771 191,771 191,770 191,769 191,768 191,767 191,766 190,765 190,766 190,767 189,768 189,769 189,770 189,771 189,772 188,773 188,774 188,775 188,776 188,777 187,778 187,779 187,780 187,781 187,782 187,783 186,784 186,785 186,786 186,787 186,788 186,789 185,790 185,791 185,792 185,793 185,794 185,795 184,796 184,797 184,798 184,799 184,800 183,801 183,802 183,803 183,804 183,805 183,806 182,807 182,808 182,809 182,810 182,811 181,812 181,813 181,814 182,814 183,814 184,814 185,814 186,814 187,813 188,813 189,813 190,813 191,813 192,813 193,813 194,813 195,813 196,812 197,812 198,812 199,812 200,812 201,812 202,812 203,812 204,812 205,811 206,811 207,811 208,811 209,811 210,811 211,811 212,811 213,811 214,810 215,810 216,810 217,810 218,810 219,810 220,810 221,810 222,810 223,809 224,809 225,809 226,809 227,809 228,809 229,809 230,809 231,809 232,808 233,808 234,808 235,808 236,809 237,809 237,808 237,807 237,806 237,805 237,804 237,803 237,802 237,801 237,800 237,799 237,798 237,797 237,796 237,795 237,794 237,793 237,792 237,791 237,790 237,789 237,788 237,787 237,786 237,785 237,784 237,783 237,782 237,781 237,780 237,779 237,778 237,777 237,776 237,775 237,774 237,773 237,772 237,771 237,770 237,769 237,768 237,767 237,766 237,765 237,764 237,763 236,762 237,761 237,760 236,759 236,760 236,761 236,762 236,763 236,764 236,765 236,766 236,767 236,768 235,769 234,770 233,769 232,768 232,767 231,766 231,765 231,764 231,763 230,762 230,761 230,760 230,759 230,758 230,757 229,756 228,756 227,756 226,756 225,756 224,756 223,756 222,756 221,756 220,756 219,756">
      <metadata tailDirection="" confidence="0.90" linkedToCharacter="" id="TetsuSan_020_balloon_6" tailTip=""></metadata>
    </polygon>
    <polygon points="332,617 333,618 333,619 332,620 332,621 332,622 332,623 331,624 331,625 331,626 331,627 331,628 330,629 330,630 330,631 330,632 330,633 330,634 330,635 329,636 329,637 329,638 329,639 329,640 329,641 329,642 329,643 328,644 328,645 328,646 328,647 328,648 328,649 328,650 328,651 328,652 328,653 328,654 328,655 328,656 328,657 328,658 328,659 328,660 328,661 328,662 328,663 328,664 328,665 328,666 328,667 328,668 328,669 328,670 328,671 328,672 328,673 328,674 328,675 327,676 327,677 326,678 325,678 326,679 327,679 328,680 328,681 328,682 328,683 328,684 328,685 328,686 328,687 328,688 328,689 328,690 328,691 327,692 327,693 327,694 327,695 327,696 327,697 327,698 326,699 326,700 326,701 326,702 326,703 326,704 326,705 326,706 326,707 326,708 326,709 326,710 326,711 326,712 326,713 326,714 326,715 326,716 326,717 326,718 326,719 326,720 326,721 326,722 326,723 326,724 326,725 326,726 326,727 326,728 326,729 326,730 326,731 326,732 326,733 326,734 326,735 326,736 326,737 327,738 327,739 327,740 327,741 327,742 327,743 327,744 328,745 328,746 328,747 328,748 328,749 328,750 328,751 329,752 329,753 329,754 329,755 329,756 330,757 330,758 330,759 330,760 330,761 331,762 331,763 331,764 332,765 332,766 332,767 332,768 333,769 333,770 333,771 333,772 333,773 334,774 334,775 335,776 335,777 335,778 335,779 336,780 336,781 336,782 337,783 337,784 338,785 338,786 339,787 339,788 340,789 341,790 341,791 342,792 343,793 344,794 345,795 346,796 347,797 348,798 349,798 350,799 351,800 352,800 353,801 354,801 355,802 356,802 357,802 358,803 359,803 360,803 361,803 362,803 363,804 364,804 365,804 366,804 367,804 368,804 369,804 370,804 371,804 372,804 373,804 374,804 375,804 376,804 377,803 378,803 379,803 380,803 381,803 382,803 383,802 384,802 385,802 386,801 387,801 388,800 389,800 389,799 389,798 389,797 389,796 388,795 389,794 389,793 388,792 389,791 389,790 389,789 389,788 388,787 388,786 389,785 389,784 389,783 389,782 389,781 389,780 389,779 389,778 389,777 389,776 389,775 389,774 389,773 389,772 389,771 389,770 389,769 389,768 389,767 389,766 388,765 389,764 389,763 389,762 389,761 389,760 389,759 389,758 389,757 389,756 389,755 389,754 389,753 389,752 389,751 389,750 389,749 389,748 389,747 389,746 389,745 389,744 389,743 389,742 389,741 389,740 389,739 389,738 389,737 389,736 389,735 389,734 389,733 389,732 389,731 389,730 389,729 389,728 389,727 389,726 389,725 389,724 389,723 389,722 389,721 389,720 389,719 389,718 389,717 389,716 389,715 389,714 389,713 389,712 389,711 389,710 389,709 389,708 389,707 389,706 389,705 389,704 389,703 389,702 389,701 389,700 389,699 389,698 389,697 389,696 389,695 389,694 389,693 389,692 389,691 389,690 389,689 389,688 389,687 389,686 389,685 389,684 389,683 389,682 389,681 389,680 389,679 389,678 389,677 389,676 389,675 389,674 389,673 389,672 389,671 389,670 389,669 389,668 389,667 389,666 389,665 389,664 389,663 389,662 389,661 389,660 389,659 389,658 389,657 389,656 389,655 389,654 389,653 389,652 389,651 389,650 389,649 389,648 389,647 389,646 389,645 389,644 389,643 389,642 389,641 389,640 389,639 389,638 389,637 389,636 389,635 389,634 389,633 389,632 389,631 389,630 389,629 389,628 389,627 389,626 388,625 388,624 389,623 389,622 389,621 388,620 389,619 389,618 388,618 387,618 386,618 385,618 384,618 383,618 382,618 381,618 380,618 379,618 378,618 377,618 376,618 375,618 374,618 373,618 372,618 371,618 370,618 369,618 368,618 367,617 366,617 365,617 364,617 363,617 362,617 361,617 360,617 359,617 358,617 357,617 356,617 355,617 354,617 353,617 352,617 351,617 350,617 349,617 348,617 347,617 346,617 345,617 344,617 343,617 342,617 341,617 340,617 339,617 338,617 337,617 336,617 335,617 334,617 333,617 332,617">
      <metadata tailDirection="" confidence="0.96" linkedToCharacter="" id="TetsuSan_020_balloon_7" tailTip=""></metadata>
    </polygon>
    <polygon points="70,616 69,617 69,618 69,619 69,620 69,621 69,622 69,623 69,624 69,625 69,626 69,627 69,628 69,629 69,630 69,631 69,632 69,633 69,634 69,635 69,636 69,637 69,638 69,639 69,640 69,641 69,642 69,643 69,644 69,645 69,646 69,647 69,648 69,649 69,650 69,651 69,652 69,653 69,654 69,655 69,656 69,657 69,658 69,659 69,660 69,661 69,662 69,663 69,664 69,665 69,666 69,667 69,668 69,669 69,670 69,671 69,672 69,673 69,674 69,675 69,676 69,677 69,678 69,679 69,680 69,681 69,682 69,683 69,684 69,685 69,686 69,687 69,688 69,689 69,690 69,691 69,692 69,693 69,694 69,695 69,696 69,697 69,698 69,699 69,700 69,701 69,702 69,703 69,704 69,705 69,706 69,707 69,708 69,709 69,710 69,711 69,712 69,713 69,714 69,715 69,716 69,717 69,718 69,719 69,720 69,721 69,722 69,723 69,724 69,725 69,726 69,727 69,728 69,729 69,730 69,731 69,732 69,733 69,734 69,735 69,736 69,737 69,738 69,739 69,740 69,741 69,742 69,743 69,744 69,745 69,746 69,747 69,748 69,749 69,750 69,751 69,752 69,753 69,754 69,755 69,756 69,757 69,758 69,759 69,760 69,761 69,762 69,763 69,764 69,765 69,766 69,767 69,768 69,769 69,770 69,771 69,772 69,773 69,774 69,775 69,776 69,777 69,778 69,779 69,780 69,781 69,782 69,783 69,784 69,785 69,786 69,787 69,788 69,789 69,790 69,791 69,792 69,793 69,794 69,795 69,796 69,797 69,798 69,799 69,800 69,801 69,802 69,803 69,804 69,805 69,806 69,807 69,808 69,809 69,810 69,811 69,812 69,813 69,814 69,815 69,816 69,817 69,818 69,819 69,820 69,821 69,822 69,823 69,824 69,825 69,826 69,827 69,828 69,829 69,830 69,831 69,832 69,833 69,834 69,835 69,836 69,837 69,838 69,839 69,840 69,841 69,842 70,842 71,843 72,843 73,844 74,844 75,844 76,845 77,845 78,845 79,846 80,846 81,846 82,846 83,847 84,847 85,847 86,848 87,848 88,848 89,848 90,848 91,848 92,848 93,848 94,848 95,848 96,848 97,847 98,847 99,847 100,847 101,846 102,846 103,846 104,845 105,845 106,844 107,844 108,843 109,843 110,842 111,842 112,841 113,840 114,839 115,838 116,837 117,836 118,835 119,834 120,833 120,832 121,831 122,830 123,829 123,828 124,827 124,826 125,825 126,824 126,823 127,822 127,821 127,820 128,819 128,818 129,817 129,816 129,815 130,814 130,813 131,812 131,811 131,810 132,809 132,808 132,807 133,806 133,805 133,804 133,803 133,802 134,801 134,800 134,799 135,798 135,797 135,796 135,795 136,794 136,793 136,792 136,791 136,790 136,789 137,788 137,787 137,786 137,785 137,784 137,783 137,782 137,781 137,780 137,779 137,778 138,777 138,776 138,775 138,774 138,773 138,772 139,771 139,770 139,769 139,768 139,767 139,766 139,765 139,764 139,763 139,762 139,761 139,760 139,759 139,758 139,757 139,756 139,755 139,754 139,753 139,752 139,751 139,750 139,749 139,748 140,747 140,746 140,745 140,744 140,743 140,742 140,741 140,740 140,739 140,738 139,737 139,736 139,735 139,734 139,733 139,732 139,731 139,730 139,729 139,728 139,727 139,726 138,725 138,724 138,723 138,722 138,721 138,720 138,719 138,718 137,717 137,716 137,715 137,714 137,713 136,712 136,711 137,710 137,709 137,708 137,707 137,706 137,705 137,704 138,703 138,702 138,701 138,700 138,699 138,698 138,697 138,696 138,695 138,694 138,693 138,692 138,691 138,690 138,689 138,688 138,687 138,686 138,685 138,684 137,683 137,682 137,681 137,680 137,679 137,678 137,677 137,676 137,675 137,674 136,673 136,672 136,671 136,670 136,669 136,668 136,667 136,666 136,665 135,664 135,663 135,662 135,661 135,660 134,659 134,658 134,657 135,656 134,655 133,654 133,653 133,652 133,651 133,650 133,649 133,648 132,647 132,646 132,645 132,644 132,643 132,642 132,641 131,640 131,639 131,638 130,637 130,636 130,635 130,634 129,633 129,632 129,631 128,630 128,629 127,628 127,627 127,626 126,625 126,624 126,623 125,622 125,621 124,620 124,619 123,618 123,617 123,616 122,616 121,616 120,616 119,616 118,616 117,616 116,616 115,616 114,616 113,616 112,616 111,616 110,616 109,616 108,616 107,616 106,616 105,616 104,616 103,616 102,616 101,616 100,616 99,616 98,616 97,616 96,616 95,616 94,616 93,616 92,616 91,616 90,616 89,616 88,616 87,616 86,616 85,616 84,616 83,616 82,616 81,616 80,616 79,616 78,616 77,616 76,616 75,616 74,616 73,616 72,616 71,616 70,616">
      <metadata tailDirection="" confidence="0.95" linkedToCharacter="" id="TetsuSan_020_balloon_8" tailTip=""></metadata>
    </polygon>
    <polygon points="687,369 687,370 686,371 686,372 686,373 685,374 685,375 685,376 684,377 684,378 684,379 684,380 684,381 683,382 683,383 683,384 683,385 683,386 683,387 683,388 682,389 682,390 682,391 682,392 682,393 682,394 681,395 681,396 681,397 681,398 681,399 681,400 681,401 681,402 681,403 680,404 680,405 680,406 680,407 680,408 680,409 680,410 680,411 680,412 680,413 680,414 680,415 680,416 680,417 679,418 679,419 679,420 679,421 679,422 680,423 680,424 679,425 679,426 679,427 679,428 679,429 679,430 679,431 679,432 679,433 679,434 679,435 679,436 679,437 679,438 679,439 679,440 679,441 679,442 679,443 679,444 679,445 679,446 679,447 679,448 679,449 680,450 680,451 680,452 680,453 679,454 678,455 677,455 678,455 679,455 680,455 681,456 681,457 680,458 680,459 680,460 680,461 680,462 680,463 680,464 680,465 680,466 680,467 680,468 679,469 679,470 679,471 679,472 679,473 679,474 679,475 679,476 679,477 679,478 679,479 679,480 679,481 679,482 679,483 679,484 679,485 679,486 679,487 679,488 679,489 679,490 679,491 679,492 679,493 679,494 679,495 679,496 679,497 679,498 679,499 679,500 679,501 679,502 679,503 679,504 679,505 680,506 680,507 680,508 680,509 680,510 680,511 680,512 680,513 681,514 681,515 681,516 681,517 681,518 681,519 682,520 682,521 682,522 682,523 682,524 682,525 683,526 683,527 683,528 683,529 683,530 683,531 684,532 684,533 684,534 685,535 685,536 685,537 685,538 685,539 686,540 686,541 686,542 687,543 687,544 688,545 688,546 689,547 689,548 689,549 690,550 690,551 691,552 692,553 692,554 693,555 693,556 694,557 695,558 695,559 696,560 697,561 698,562 699,563 699,564 700,565 701,566 702,567 703,568 704,568 705,569 706,569 707,570 708,570 709,571 710,572 711,572 712,572 713,573 714,573 715,573 716,574 717,574 718,575 719,575 720,576 721,576 722,576 723,577 724,577 725,577 726,578 727,578 728,578 729,578 730,578 731,578 732,578 733,578 734,578 735,578 736,578 737,578 738,578 739,578 740,577 741,577 742,577 743,577 744,577 745,576 745,575 745,574 745,573 745,572 745,571 745,570 745,569 745,568 745,567 745,566 745,565 745,564 745,563 745,562 745,561 745,560 745,559 745,558 745,557 745,556 745,555 745,554 745,553 745,552 745,551 745,550 745,549 745,548 745,547 745,546 745,545 745,544 745,543 745,542 745,541 745,540 745,539 745,538 745,537 745,536 745,535 745,534 745,533 745,532 745,531 745,530 745,529 745,528 745,527 745,526 745,525 745,524 745,523 745,522 745,521 745,520 745,519 745,518 745,517 745,516 746,515 745,514 745,513 745,512 745,511 745,510 745,509 746,508 746,507 745,506 745,505 746,504 746,503 746,502 746,501 746,500 745,499 745,498 745,497 746,496 745,495 745,494 745,493 745,492 745,491 745,490 745,489 745,488 746,487 745,486 745,485 746,484 745,483 745,482 745,481 745,480 745,479 745,478 745,477 745,476 745,475 745,474 745,473 745,472 745,471 746,470 746,469 745,468 745,467 745,466 745,465 745,464 745,463 745,462 745,461 745,460 745,459 745,458 745,457 745,456 745,455 745,454 745,453 745,452 745,451 745,450 745,449 745,448 745,447 745,446 745,445 745,444 745,443 745,442 745,441 745,440 745,439 745,438 745,437 745,436 745,435 745,434 745,433 745,432 745,431 745,430 745,429 745,428 745,427 745,426 745,425 745,424 745,423 745,422 745,421 745,420 745,419 745,418 745,417 745,416 745,415 746,414 746,413 746,412 745,411 745,410 745,409 745,408 745,407 745,406 745,405 745,404 745,403 745,402 745,401 745,400 746,399 745,398 745,397 745,396 745,395 745,394 745,393 745,392 745,391 745,390 745,389 745,388 745,387 745,386 745,385 745,384 745,383 746,382 745,381 745,380 745,379 745,378 745,377 745,376 746,375 745,374 745,373 745,372 745,371 745,370 744,370 743,370 742,370 741,370 740,370 739,370 738,370 737,370 736,370 735,370 734,369 733,370 732,370 731,369 730,369 729,370 728,370 727,370 726,370 725,370 724,370 723,369 722,369 721,369 720,369 719,369 718,369 717,369 716,369 715,369 714,369 713,369 712,369 711,369 710,369 709,369 708,369 707,369 706,369 705,369 704,369 703,369 702,370 701,369 700,369 699,369 698,369 697,369 696,369 695,369 694,369 693,369 692,369 691,369 690,369 689,369 688,369 687,369">
      <metadata tailDirection="" confidence="0.87" linkedToCharacter="" id="TetsuSan_020_balloon_9" tailTip=""></metadata>
    </polygon>
    <polygon points="429,369 428,370 428,371 428,372 428,373 428,374 428,375 428,376 428,377 428,378 428,379 428,380 428,381 428,382 428,383 427,384 427,385 428,386 428,387 428,388 428,389 428,390 428,391 428,392 428,393 428,394 428,395 428,396 428,397 427,398 427,399 427,400 427,401 428,402 428,403 427,404 427,405 427,406 427,407 427,408 427,409 427,410 427,411 427,412 427,413 427,414 427,415 427,416 427,417 427,418 427,419 427,420 427,421 427,422 427,423 427,424 428,425 427,426 427,427 428,428 427,429 427,430 427,431 427,432 427,433 428,434 427,435 427,436 427,437 427,438 427,439 427,440 427,441 427,442 427,443 427,444 427,445 427,446 427,447 427,448 427,449 427,450 427,451 427,452 427,453 427,454 427,455 427,456 427,457 427,458 427,459 427,460 427,461 427,462 427,463 427,464 427,465 427,466 427,467 427,468 427,469 427,470 427,471 427,472 427,473 427,474 427,475 427,476 427,477 427,478 427,479 427,480 427,481 427,482 427,483 427,484 427,485 427,486 427,487 427,488 427,489 427,490 427,491 427,492 427,493 427,494 427,495 427,496 427,497 427,498 427,499 427,500 427,501 427,502 427,503 427,504 427,505 427,506 427,507 427,508 427,509 427,510 427,511 427,512 427,513 427,514 427,515 427,516 427,517 427,518 427,519 427,520 427,521 427,522 427,523 427,524 427,525 427,526 427,527 427,528 427,529 427,530 427,531 427,532 427,533 427,534 427,535 427,536 427,537 427,538 427,539 427,540 427,541 427,542 427,543 427,544 427,545 427,546 427,547 427,548 427,549 427,550 427,551 427,552 427,553 427,554 427,555 427,556 427,557 427,558 427,559 427,560 427,561 427,562 427,563 427,564 427,565 427,566 428,565 429,564 430,563 431,563 432,562 433,562 434,561 435,561 436,561 437,561 438,561 439,561 440,561 441,561 442,561 443,562 444,562 445,563 446,563 447,564 448,565 449,566 449,567 450,568 450,569 451,570 451,571 452,571 452,570 453,569 453,568 454,567 455,566 456,565 457,565 458,564 459,564 460,564 461,563 462,563 463,563 464,564 465,564 466,564 467,565 468,566 469,567 469,566 470,565 470,564 470,563 471,562 471,561 472,560 472,559 473,558 473,557 474,556 475,555 475,554 476,553 477,552 478,551 479,551 479,550 480,549 481,548 482,547 483,546 484,546 485,545 486,544 487,544 488,543 489,543 490,543 491,542 492,542 493,542 494,542 495,541 496,541 497,541 496,540 496,539 496,538 496,537 496,536 496,535 496,534 495,533 495,532 495,531 495,530 495,529 495,528 495,527 495,526 495,525 495,524 495,523 495,522 495,521 495,520 495,519 495,518 495,517 495,516 495,515 495,514 495,513 495,512 495,511 495,510 495,509 496,508 496,507 496,506 496,505 496,504 497,503 497,502 497,501 497,500 497,499 497,498 498,497 498,496 498,495 498,494 499,493 499,492 499,491 500,490 500,489 500,488 499,487 499,486 498,485 498,484 498,483 497,482 497,481 496,480 496,479 496,478 496,477 495,476 495,475 495,474 495,473 495,472 494,471 494,470 494,469 494,468 494,467 494,466 494,465 494,464 494,463 494,462 494,461 494,460 494,459 494,458 494,457 494,456 495,455 495,454 495,453 495,452 496,451 496,450 497,449 497,448 498,447 499,446 499,445 498,444 497,443 497,442 496,441 496,440 495,439 495,438 494,437 494,436 494,435 493,434 493,433 493,432 493,431 492,430 492,429 492,428 492,427 492,426 492,425 492,424 492,423 492,422 492,421 492,420 492,419 492,418 492,417 492,416 492,415 493,414 493,413 493,412 493,411 493,410 494,409 494,408 494,407 494,406 494,405 495,404 495,403 495,402 495,401 496,400 496,399 496,398 497,397 497,396 496,396 495,396 494,396 493,395 492,395 491,394 490,393 489,392 489,391 488,390 488,389 488,388 488,387 488,386 488,385 488,384 488,383 488,382 488,381 488,380 489,379 489,378 489,377 489,376 490,375 490,374 490,373 491,372 491,371 491,370 492,369 491,369 490,369 489,369 488,369 487,369 486,369 485,369 484,369 483,369 482,369 481,369 480,369 479,369 478,369 477,369 476,369 475,369 474,369 473,369 472,369 471,369 470,369 469,369 468,369 467,369 466,369 465,369 464,369 463,369 462,369 461,369 460,369 459,369 458,369 457,369 456,369 455,369 454,369 453,369 452,369 451,369 450,369 449,369 448,369 447,369 446,369 445,369 444,369 443,369 442,369 441,369 440,369 439,369 438,369 437,369 436,369 435,369 434,369 433,369 432,369 431,369 430,369 429,369">
      <metadata tailDirection="" confidence="0.93" linkedToCharacter="" id="TetsuSan_020_balloon_10" tailTip=""></metadata>
    </polygon>
    <polygon points="241,545 240,546 239,546 238,547 237,547 236,548 235,548 234,549 233,549 232,550 231,550 230,551 229,551 228,551 227,552 226,552 225,553 224,553 223,554 222,554 221,555 220,555 219,556 218,556 217,556 216,557 215,557 214,558 213,558 212,559 211,559 210,559 209,560 208,560 207,561 206,561 205,562 204,562 203,563 202,563 201,564 200,564 199,564 198,565 197,565 196,564 197,563 196,564 195,564 196,565 196,566 197,567 197,568 198,569 199,570 199,571 200,572 200,573 201,574 201,575 202,576 203,577 203,578 204,579 204,580 205,581 206,582 206,583 207,584 207,585 208,586 209,587 209,588 210,589 210,590 211,591 211,592 212,593 213,594 213,595 214,596 214,597 215,598 215,599 216,600 217,600 218,600 219,600 220,600 221,600 222,600 223,600 224,600 225,600 226,600 227,600 228,600 229,600 230,600 231,600 232,600 233,600 234,600 235,600 236,600 237,600 238,600 239,600 240,600 241,600 242,600 243,600 244,600 245,600 246,600 247,600 248,600 249,600 250,600 251,600 252,600 253,600 254,600 255,600 256,600 257,600 257,599 257,598 257,597 257,596 257,595 257,594 257,593 257,592 257,591 257,590 257,589 258,588 258,587 259,586 258,585 257,585 256,585 255,584 254,583 253,583 252,582 251,581 251,580 251,579 250,578 250,577 250,576 250,575 251,574 251,573 252,572 253,572 254,572 255,573 256,573 257,574 258,574 259,575 260,575 259,574 258,573 258,572 257,571 256,570 256,569 255,568 255,567 254,566 253,565 253,564 252,563 252,562 251,561 250,560 250,559 249,558 249,557 248,556 247,555 247,554 246,553 245,552 245,551 244,550 244,549 243,548 243,547 242,546 241,545">
      <metadata tailDirection="" confidence="0.96" linkedToCharacter="" id="TetsuSan_020_balloon_11" tailTip=""></metadata>
    </polygon>
    <polygon points="192,490 191,491 190,491 189,491 188,491 187,491 186,492 185,491 184,491 183,491 182,491 181,491 180,491 179,491 178,491 177,492 176,492 175,492 174,493 173,493 172,493 171,494 170,494 169,495 168,495 167,496 166,496 165,497 165,498 165,499 165,500 165,501 165,502 164,503 164,504 164,505 164,506 164,507 164,508 164,509 164,510 164,511 164,512 164,513 164,514 164,515 165,516 165,517 165,518 165,519 165,520 166,521 166,522 166,523 166,524 167,525 167,526 167,527 168,528 168,529 169,529 170,530 170,531 170,532 170,533 171,532 172,533 172,534 171,535 172,535 173,536 173,537 174,536 175,537 175,538 175,539 176,540 177,541 177,542 178,541 179,542 179,543 180,544 180,545 181,545 182,546 183,547 184,547 185,547 186,547 187,548 187,547 188,546 189,547 189,548 189,549 189,548 190,547 191,547 192,548 193,547 194,548 195,548 196,549 197,549 196,548 195,547 195,546 196,545 197,546 198,545 199,545 199,544 200,543 201,544 201,543 202,542 203,541 204,541 204,540 205,539 206,540 206,539 207,538 208,539 207,538 207,537 208,536 209,536 209,535 210,534 210,533 211,532 212,532 212,531 212,530 212,529 212,528 212,527 213,526 213,525 213,524 213,523 213,522 213,521 213,522 212,523 212,524 212,525 212,526 212,527 211,528 210,529 209,528 209,527 209,526 209,525 209,524 209,523 209,522 209,521 210,520 211,519 212,518 212,517 213,516 213,515 214,514 215,514 216,515 215,516 215,517 215,518 215,519 215,518 215,517 216,516 216,515 216,514 216,513 216,512 216,511 216,510 216,509 215,508 215,507 215,506 215,505 215,504 215,503 214,502 214,501 214,500 214,499 214,498 213,497 213,496 213,495 213,494 212,494 211,494 210,493 209,493 208,493 207,493 206,493 205,492 204,492 203,492 202,492 201,492 200,491 199,491 198,491 197,491 196,491 195,491 194,491 193,491 192,490">
      <metadata tailDirection="" confidence="0.81" linkedToCharacter="" id="TetsuSan_020_balloon_12" tailTip=""></metadata>
    </polygon>
    <polygon points="330,369 329,370 329,371 329,372 328,373 328,374 328,375 327,376 327,377 327,378 327,379 326,380 326,381 326,382 326,383 326,384 326,385 325,386 325,387 325,388 325,389 325,390 325,391 324,392 324,393 324,394 324,395 323,396 323,397 323,398 323,399 323,400 323,401 323,402 323,403 323,404 322,405 322,406 322,407 322,408 322,409 322,410 322,411 322,412 321,413 321,414 321,415 321,416 321,417 321,418 321,419 321,420 321,421 321,422 321,423 321,424 321,425 321,426 321,427 321,428 320,429 320,430 320,431 320,432 320,433 320,434 320,435 320,436 320,437 320,438 320,439 320,440 320,441 320,442 320,443 320,444 319,445 319,446 319,447 319,448 319,449 319,450 319,451 319,452 319,453 319,454 319,455 319,456 319,457 319,458 319,459 319,460 319,461 319,462 320,463 319,464 319,465 319,466 320,467 320,468 320,469 320,470 320,471 320,472 320,473 320,474 320,475 320,476 320,477 320,478 320,479 320,480 320,481 320,482 320,483 320,484 320,485 320,486 320,487 320,488 321,489 321,490 321,491 321,492 321,493 321,494 321,495 321,496 321,497 321,498 321,499 321,500 321,501 322,502 322,503 322,504 323,505 324,506 325,507 326,508 326,509 326,510 327,511 327,512 327,513 327,514 327,515 328,516 328,517 328,518 328,519 328,520 328,521 328,522 328,523 328,524 328,525 328,526 328,527 327,528 327,529 327,530 327,531 326,532 326,533 326,534 325,535 324,536 324,537 323,538 323,539 323,540 323,541 323,542 322,543 322,544 322,545 322,546 322,547 322,548 322,549 322,550 322,551 321,552 321,553 322,554 321,555 321,556 321,557 321,558 322,559 322,560 322,561 322,562 322,563 322,564 322,565 322,566 323,567 323,568 323,569 323,570 323,571 324,572 324,573 324,574 324,575 325,576 325,577 325,578 325,579 326,580 326,581 326,582 326,583 327,584 327,585 328,586 328,587 329,588 329,589 330,590 330,591 331,592 332,593 332,594 333,595 333,596 334,597 334,598 335,599 336,600 337,601 338,600 339,600 340,600 341,600 342,600 343,600 344,600 345,600 346,600 347,600 348,600 349,600 350,600 351,600 352,600 353,601 354,600 355,600 356,600 357,600 358,600 359,601 360,600 361,600 362,600 363,600 364,600 365,600 366,600 367,601 368,600 369,600 370,600 371,600 372,600 373,601 374,600 375,600 376,600 377,600 378,601 379,601 380,601 381,601 382,600 383,600 384,600 385,600 386,600 387,600 388,599 388,598 388,597 388,596 388,595 388,594 388,593 388,592 388,591 388,590 388,589 388,588 388,587 388,586 388,585 388,584 388,583 388,582 388,581 388,580 388,579 388,578 388,577 388,576 388,575 388,574 388,573 388,572 388,571 388,570 388,569 388,568 388,567 388,566 388,565 388,564 388,563 388,562 388,561 388,560 388,559 388,558 388,557 388,556 388,555 388,554 388,553 388,552 388,551 388,550 388,549 388,548 388,547 388,546 388,545 388,544 388,543 388,542 388,541 388,540 388,539 388,538 388,537 388,536 388,535 388,534 388,533 388,532 388,531 388,530 388,529 388,528 388,527 388,526 388,525 388,524 388,523 388,522 388,521 388,520 388,519 388,518 388,517 388,516 388,515 388,514 388,513 388,512 388,511 388,510 388,509 388,508 388,507 388,506 388,505 388,504 388,503 388,502 388,501 388,500 388,499 388,498 388,497 388,496 388,495 388,494 388,493 388,492 388,491 388,490 388,489 388,488 388,487 388,486 388,485 388,484 388,483 388,482 388,481 388,480 388,479 388,478 388,477 388,476 388,475 388,474 388,473 388,472 388,471 388,470 388,469 389,468 388,467 388,466 388,465 388,464 388,463 388,462 388,461 388,460 388,459 388,458 388,457 388,456 388,455 388,454 388,453 388,452 388,451 388,450 388,449 388,448 388,447 388,446 388,445 388,444 388,443 388,442 388,441 388,440 388,439 388,438 388,437 388,436 388,435 388,434 388,433 388,432 388,431 388,430 388,429 388,428 388,427 388,426 388,425 388,424 388,423 388,422 388,421 388,420 388,419 388,418 388,417 388,416 388,415 388,414 388,413 388,412 388,411 388,410 388,409 388,408 388,407 388,406 388,405 388,404 388,403 388,402 388,401 388,400 388,399 388,398 388,397 389,396 389,395 389,394 389,393 389,392 389,391 389,390 389,389 389,388 389,387 389,386 389,385 389,384 389,383 389,382 389,381 389,380 389,379 389,378 389,377 389,376 389,375 389,374 389,373 389,372 389,371 389,370 388,369 387,369 386,369 385,369 384,369 383,369 382,369 381,369 380,369 379,369 378,369 377,369 376,369 375,369 374,369 373,369 372,369 371,369 370,369 369,369 368,369 367,369 366,369 365,369 364,369 363,369 362,369 361,369 360,369 359,369 358,369 357,369 356,369 355,369 354,369 353,369 352,369 351,369 350,369 349,369 348,369 347,369 346,369 345,369 344,369 343,369 342,369 341,369 340,369 339,369 338,369 337,369 336,369 335,369 334,369 333,369 332,369 331,369 330,369">
      <metadata tailDirection="" confidence="0.90" linkedToCharacter="" id="TetsuSan_020_balloon_13" tailTip=""></metadata>
    </polygon>
    <polygon points="80,368 79,369 78,369 77,369 76,369 75,369 74,369 73,369 72,369 71,369 70,369 69,369 69,370 69,371 69,372 69,373 69,374 69,375 69,376 69,377 69,378 69,379 69,380 69,381 69,382 69,383 69,384 69,385 69,386 69,387 69,388 69,389 69,390 69,391 69,392 69,393 69,394 69,395 69,396 69,397 69,398 69,399 69,400 69,401 69,402 69,403 69,404 69,405 69,406 69,407 69,408 69,409 69,410 69,411 69,412 69,413 69,414 69,415 69,416 69,417 69,418 69,419 69,420 69,421 69,422 69,423 69,424 69,425 69,426 69,427 69,428 69,429 69,430 69,431 69,432 69,433 69,434 69,435 69,436 69,437 69,438 69,439 69,440 69,441 69,442 69,443 69,444 69,445 69,446 69,447 69,448 69,449 69,450 69,451 69,452 69,453 69,454 69,455 69,456 69,457 69,458 69,459 69,460 69,461 69,462 69,463 69,464 69,465 69,466 69,467 69,468 69,469 69,470 69,471 69,472 69,473 69,474 69,475 69,476 69,477 69,478 69,479 69,480 69,481 70,482 70,483 70,484 70,485 71,486 72,487 73,488 74,488 75,489 76,490 77,490 78,491 79,491 80,492 81,492 82,493 83,493 84,493 85,494 86,494 87,494 88,495 89,495 90,495 91,495 92,495 93,495 94,496 95,496 96,496 97,496 98,496 99,497 100,497 101,497 102,497 103,497 104,497 105,497 106,497 107,497 108,497 109,497 110,497 111,497 112,497 113,497 114,497 115,497 116,498 117,498 118,498 119,498 120,498 121,498 122,497 123,497 124,497 125,497 126,497 127,497 128,497 129,497 130,497 131,497 132,497 133,496 134,496 135,496 136,495 137,495 138,495 139,494 140,494 141,493 142,493 143,492 144,492 145,491 146,491 147,490 148,490 149,489 150,489 151,488 152,487 153,487 154,486 155,485 156,484 157,483 158,482 159,481 160,480 161,479 162,478 162,477 163,476 164,475 165,474 166,473 166,472 167,471 168,470 169,469 169,468 170,467 170,466 171,465 172,464 172,463 173,462 173,461 174,460 174,459 174,458 175,457 175,456 175,455 176,454 176,453 176,452 177,451 177,450 177,449 178,448 178,447 178,446 179,445 179,444 179,443 179,442 179,441 180,440 180,439 180,438 180,437 180,436 180,435 180,434 180,433 181,432 181,431 181,430 181,429 181,428 181,427 181,426 182,425 182,424 183,423 184,423 185,423 186,423 187,423 188,423 189,423 190,423 191,423 192,423 193,423 192,423 191,423 190,422 189,422 188,422 187,421 186,421 185,421 184,421 183,421 182,421 181,421 180,420 180,419 180,418 180,417 180,416 180,415 180,414 181,413 181,412 180,411 180,410 180,409 180,408 180,407 180,406 180,405 180,404 180,403 180,402 180,401 179,400 179,399 179,398 179,397 179,396 178,395 178,394 178,393 178,392 177,391 177,390 177,389 176,388 176,387 176,386 176,385 176,384 175,383 175,382 175,381 174,380 174,379 173,378 173,377 173,376 173,375 172,374 172,373 171,372 171,371 170,370 170,369 169,368 168,368 167,368 166,368 165,368 164,368 163,368 162,368 161,368 160,368 159,368 158,368 157,368 156,368 155,368 154,368 153,368 152,368 151,368 150,368 149,368 148,368 147,368 146,368 145,368 144,368 143,368 142,368 141,368 140,368 139,368 138,368 137,368 136,368 135,368 134,368 133,368 132,368 131,368 130,368 129,368 128,368 127,368 126,368 125,368 124,368 123,368 122,368 121,368 120,368 119,368 118,368 117,368 116,368 115,368 114,368 113,368 112,368 111,368 110,368 109,368 108,368 107,368 106,368 105,368 104,368 103,368 102,368 101,368 100,368 99,368 98,368 97,368 96,368 95,369 94,368 93,368 92,368 91,368 90,368 89,368 88,368 87,368 86,369 85,369 84,369 83,368 82,368 81,368 80,368">
      <metadata tailDirection="" confidence="0.91" linkedToCharacter="" id="TetsuSan_020_balloon_14" tailTip=""></metadata>
    </polygon>
    <polygon points="676,119 677,120 678,121 678,122 679,123 679,124 680,125 680,126 680,127 681,128 681,129 681,130 681,131 682,132 682,133 682,134 682,135 682,136 682,137 682,138 682,139 682,140 683,141 682,142 682,143 682,144 682,145 682,146 682,147 681,148 681,149 681,150 680,151 680,152 679,153 679,154 678,155 678,156 677,157 677,158 676,159 675,160 674,161 673,162 673,163 674,163 675,163 676,164 677,165 678,166 678,167 679,168 679,169 680,170 680,171 680,172 680,173 680,174 680,175 680,176 679,177 679,178 679,179 679,180 679,181 678,182 678,183 678,184 677,185 677,186 676,187 676,188 676,189 675,190 675,191 674,192 673,193 673,194 672,195 671,196 671,197 670,198 669,199 669,200 670,200 671,201 672,201 673,201 674,202 675,203 676,204 677,205 677,206 677,207 678,208 678,209 678,210 678,211 678,212 678,213 677,214 677,215 677,216 677,217 677,218 676,219 676,220 676,221 675,222 675,223 674,224 674,225 673,226 673,227 673,228 672,229 671,230 670,231 670,232 671,232 672,233 673,234 674,235 674,236 675,237 675,238 675,239 676,240 676,241 676,242 676,243 676,244 676,245 676,246 676,247 676,248 676,249 676,250 676,251 676,252 675,253 675,254 675,255 675,256 675,257 674,258 674,259 673,260 673,261 673,262 672,263 671,264 671,265 670,266 671,266 672,266 673,266 674,266 675,267 676,267 677,268 678,269 679,270 679,271 679,272 680,273 680,274 680,275 680,276 680,277 680,278 680,279 680,280 680,281 680,282 680,283 679,284 679,285 679,286 679,287 680,286 681,286 682,286 683,286 684,286 685,286 686,286 687,287 688,288 689,289 689,290 690,291 690,292 690,293 691,294 691,295 691,296 692,297 692,298 692,299 693,298 694,297 695,297 696,296 697,296 698,295 699,295 700,295 701,295 702,295 703,295 704,295 705,295 706,295 707,295 708,296 709,297 710,297 711,298 712,299 712,300 713,301 714,302 714,303 715,303 715,302 716,301 717,300 718,299 719,299 720,298 721,298 722,297 723,296 724,296 725,296 726,295 727,295 728,294 729,294 730,294 731,294 732,293 733,293 734,293 735,293 736,293 737,293 738,293 739,293 740,293 741,293 742,293 743,293 744,294 745,294 746,294 746,293 746,292 746,291 746,290 746,289 746,288 746,287 746,286 746,285 746,284 746,283 746,282 746,281 746,280 746,279 746,278 746,277 746,276 746,275 746,274 746,273 745,272 745,271 746,270 746,269 746,268 746,267 746,266 746,265 746,264 746,263 746,262 746,261 746,260 746,259 746,258 746,257 746,256 746,255 746,254 746,253 746,252 746,251 746,250 746,249 746,248 746,247 746,246 746,245 746,244 746,243 746,242 746,241 745,240 746,239 746,238 746,237 746,236 746,235 746,234 746,233 746,232 746,231 746,230 746,229 746,228 746,227 746,226 746,225 746,224 746,223 746,222 746,221 746,220 746,219 746,218 746,217 746,216 746,215 746,214 746,213 746,212 746,211 746,210 746,209 746,208 746,207 746,206 746,205 746,204 746,203 746,202 746,201 746,200 746,199 746,198 746,197 746,196 746,195 746,194 746,193 746,192 746,191 746,190 746,189 746,188 746,187 746,186 746,185 746,184 746,183 746,182 746,181 746,180 746,179 746,178 746,177 746,176 746,175 746,174 746,173 746,172 746,171 746,170 746,169 746,168 746,167 746,166 746,165 746,164 746,163 746,162 746,161 746,160 746,159 746,158 746,157 746,156 746,155 746,154 746,153 746,152 746,151 746,150 746,149 746,148 746,147 746,146 746,145 746,144 746,143 746,142 746,141 746,140 746,139 746,138 746,137 746,136 746,135 746,134 746,133 746,132 746,131 746,130 746,129 746,128 746,127 746,126 746,125 746,124 746,123 746,122 746,121 746,120 746,119 745,119 744,119 743,119 742,119 741,119 740,119 739,119 738,119 737,119 736,119 735,119 734,119 733,119 732,119 731,119 730,119 729,119 728,119 727,119 726,119 725,119 724,119 723,119 722,119 721,119 720,119 719,119 718,119 717,119 716,119 715,119 714,119 713,119 712,119 711,119 710,119 709,119 708,119 707,119 706,119 705,119 704,119 703,119 702,119 701,119 700,119 699,119 698,119 697,119 696,119 695,119 694,119 693,119 692,119 691,119 690,119 689,119 688,119 687,119 686,119 685,119 684,119 683,119 682,119 681,119 680,119 679,119 678,119 677,119 676,119">
      <metadata tailDirection="" confidence="0.93" linkedToCharacter="" id="TetsuSan_020_balloon_15" tailTip=""></metadata>
    </polygon>
    <polygon points="428,119 428,120 428,121 428,122 428,123 428,124 428,125 428,126 428,127 428,128 428,129 428,130 428,131 428,132 428,133 428,134 428,135 428,136 428,137 428,138 428,139 428,140 428,141 428,142 428,143 428,144 428,145 428,146 428,147 428,148 428,149 428,150 428,151 428,152 428,153 428,154 428,155 428,156 428,157 428,158 428,159 428,160 428,161 428,162 428,163 428,164 428,165 428,166 428,167 428,168 428,169 428,170 428,171 428,172 428,173 428,174 428,175 428,176 428,177 428,178 428,179 428,180 428,181 428,182 428,183 428,184 428,185 428,186 428,187 428,188 428,189 428,190 428,191 428,192 428,193 428,194 428,195 428,196 428,197 428,198 428,199 428,200 428,201 428,202 428,203 428,204 428,205 428,206 428,207 428,208 428,209 428,210 428,211 428,212 428,213 428,214 428,215 428,216 428,217 428,218 428,219 428,220 428,221 428,222 428,223 428,224 428,225 428,226 428,227 428,228 428,229 428,230 428,231 428,232 428,233 428,234 428,235 428,236 428,237 428,238 428,239 428,240 428,241 428,242 428,243 428,244 428,245 428,246 428,247 428,248 428,249 428,250 428,251 428,252 428,253 428,254 428,255 428,256 428,257 428,258 428,259 428,260 428,261 428,262 428,263 428,264 428,265 428,266 428,267 428,268 428,269 428,270 428,271 428,272 428,273 428,274 428,275 428,276 428,277 428,278 428,279 428,280 428,281 428,282 428,283 428,284 428,285 428,286 428,287 428,288 428,289 428,290 428,291 428,292 428,293 428,294 428,295 428,296 428,297 428,298 428,299 428,300 428,301 428,302 428,303 428,304 428,305 428,306 428,307 428,308 428,309 428,310 428,311 428,312 428,313 427,314 428,315 428,316 429,317 430,317 431,318 432,318 433,318 434,319 435,319 436,320 437,320 438,320 439,321 440,321 441,321 442,321 443,322 444,322 445,322 446,322 447,323 448,323 449,322 450,322 451,322 452,322 453,322 454,322 455,322 456,322 457,322 458,322 459,322 460,322 461,322 462,321 463,321 464,321 465,321 466,320 467,320 468,320 469,319 470,318 471,318 472,318 473,317 474,316 475,316 476,315 477,314 478,313 479,312 480,311 481,310 482,309 483,308 484,307 485,306 485,305 486,304 486,303 487,302 488,301 489,300 489,299 490,298 490,297 491,296 492,295 492,294 493,293 493,292 494,291 494,290 495,289 495,288 496,287 496,286 496,285 497,284 497,283 497,282 498,281 498,280 498,279 498,278 499,277 499,276 499,275 500,274 500,273 501,272 501,271 501,270 501,269 501,268 502,267 502,266 502,265 502,264 502,263 502,262 502,261 503,260 503,259 503,258 503,257 503,256 503,255 504,254 504,253 504,252 504,251 504,250 504,249 504,248 504,247 504,246 504,245 504,244 504,243 504,242 504,241 505,240 505,239 505,238 505,237 505,236 505,235 505,234 505,233 505,232 505,231 505,230 505,229 505,228 505,227 505,226 505,225 505,224 505,223 505,222 505,221 505,220 506,219 505,218 505,217 505,216 505,215 505,214 505,213 505,212 505,211 505,210 506,209 505,208 505,207 505,206 505,205 505,204 505,203 505,202 505,201 505,200 505,199 505,198 505,197 505,196 505,195 505,194 505,193 505,192 505,191 505,190 505,189 505,188 505,187 505,186 505,185 505,184 504,183 504,182 504,181 504,180 504,179 504,178 504,177 504,176 504,175 504,174 504,173 504,172 504,171 504,170 504,169 503,168 503,167 503,166 503,165 503,164 503,163 503,162 503,161 503,160 503,159 503,158 502,157 502,156 502,155 502,154 502,153 502,152 501,151 501,150 501,149 501,148 501,147 500,146 500,145 500,144 500,143 499,142 499,141 499,140 499,139 498,138 498,137 498,136 498,135 498,134 497,133 497,132 497,131 497,130 496,129 496,128 496,127 496,126 496,125 495,124 495,123 495,122 494,121 494,120 494,119 493,119 492,119 491,119 490,119 489,119 488,119 487,119 486,119 485,119 484,119 483,119 482,119 481,119 480,119 479,119 478,119 477,119 476,119 475,119 474,119 473,119 472,119 471,119 470,119 469,119 468,119 467,119 466,119 465,119 464,119 463,119 462,119 461,119 460,119 459,119 458,119 457,119 456,119 455,119 454,119 453,119 452,119 451,119 450,119 449,119 448,119 447,119 446,119 445,119 444,119 443,119 442,119 441,119 440,119 439,119 438,119 437,119 436,119 435,119 434,119 433,119 432,119 431,119 430,119 429,119 428,119">
      <metadata tailDirection="" confidence="0.91" linkedToCharacter="" id="TetsuSan_020_balloon_16" tailTip=""></metadata>
    </polygon>
    <polygon points="332,118 331,119 331,120 331,121 331,122 331,123 331,124 331,125 331,126 331,127 331,128 331,129 332,130 332,131 332,132 332,133 332,134 332,135 332,136 332,137 332,138 332,139 332,140 332,141 332,142 332,143 332,144 332,145 332,146 332,147 332,148 332,149 332,150 332,151 332,152 332,153 332,154 332,155 332,156 332,157 332,158 332,159 332,160 332,161 332,162 332,163 332,164 332,165 332,166 332,167 332,168 332,169 332,170 332,171 332,172 332,173 332,174 332,175 332,176 332,177 332,178 332,179 332,180 332,181 331,182 331,183 331,184 331,185 331,186 331,187 331,188 331,189 331,190 331,191 331,192 331,193 331,194 331,195 331,196 331,197 331,198 331,199 331,200 331,201 331,202 331,203 331,204 331,205 331,206 331,207 331,208 331,209 331,210 331,211 331,212 331,213 331,214 331,215 331,216 331,217 331,218 331,219 331,220 331,221 331,222 331,223 331,224 331,225 331,226 331,227 331,228 331,229 331,230 331,231 331,232 330,233 330,234 331,235 331,236 331,237 330,238 331,239 330,240 331,241 331,242 331,243 331,244 331,245 331,246 331,247 331,248 331,249 331,250 331,251 331,252 331,253 330,254 330,255 331,256 331,257 331,258 330,259 330,260 330,261 330,262 330,263 330,264 330,265 330,266 330,267 330,268 330,269 330,270 330,271 330,272 330,273 330,274 330,275 330,276 330,277 330,278 330,279 330,280 330,281 330,282 331,283 331,284 331,285 330,286 330,287 330,288 330,289 330,290 330,291 330,292 330,293 330,294 330,295 330,296 330,297 330,298 330,299 330,300 330,301 330,302 330,303 330,304 330,305 330,306 330,307 330,308 330,309 330,310 330,311 330,312 330,313 330,314 330,315 330,316 330,317 330,318 330,319 330,320 330,321 330,322 330,323 330,324 330,325 330,326 330,327 330,328 330,329 330,330 330,331 330,332 330,333 330,334 330,335 330,336 330,337 330,338 330,339 330,340 330,341 330,342 330,343 330,344 330,345 330,346 330,347 330,348 330,349 330,350 331,350 332,351 333,351 334,351 335,351 336,351 337,351 338,351 339,351 340,351 341,351 342,351 343,351 344,351 345,350 346,350 347,351 348,351 349,351 350,350 351,350 352,351 353,351 354,351 355,351 356,351 357,351 358,351 359,351 360,351 361,351 362,351 363,351 364,351 365,351 366,351 367,351 368,351 369,351 370,351 371,351 372,351 373,351 374,351 375,351 376,351 377,351 378,351 379,351 380,351 381,351 382,351 383,351 384,351 385,351 386,351 387,351 388,351 388,350 388,349 388,348 388,347 388,346 388,345 388,344 388,343 388,342 388,341 388,340 388,339 388,338 388,337 388,336 388,335 388,334 389,333 389,332 389,331 388,330 388,329 388,328 388,327 389,326 389,325 389,324 389,323 389,322 389,321 389,320 389,319 389,318 389,317 389,316 389,315 389,314 389,313 389,312 389,311 388,310 388,309 389,308 389,307 389,306 389,305 389,304 389,303 389,302 389,301 389,300 389,299 389,298 389,297 389,296 389,295 389,294 389,293 389,292 389,291 389,290 389,289 389,288 389,287 389,286 389,285 389,284 389,283 389,282 389,281 389,280 389,279 389,278 389,277 389,276 389,275 389,274 389,273 389,272 389,271 389,270 389,269 389,268 389,267 389,266 389,265 389,264 389,263 389,262 389,261 389,260 389,259 389,258 389,257 389,256 389,255 389,254 389,253 389,252 389,251 389,250 389,249 389,248 389,247 389,246 389,245 389,244 389,243 389,242 389,241 389,240 389,239 389,238 389,237 389,236 389,235 389,234 389,233 389,232 389,231 389,230 389,229 389,228 389,227 389,226 389,225 389,224 389,223 389,222 389,221 389,220 389,219 389,218 389,217 389,216 389,215 389,214 389,213 389,212 389,211 389,210 389,209 389,208 389,207 389,206 389,205 389,204 389,203 389,202 389,201 389,200 389,199 389,198 389,197 389,196 389,195 389,194 389,193 389,192 389,191 389,190 389,189 389,188 389,187 389,186 389,185 389,184 389,183 389,182 389,181 389,180 389,179 389,178 389,177 389,176 389,175 389,174 389,173 389,172 389,171 389,170 389,169 389,168 389,167 389,166 389,165 389,164 389,163 389,162 389,161 389,160 389,159 389,158 389,157 389,156 389,155 389,154 389,153 389,152 389,151 389,150 389,149 389,148 389,147 389,146 389,145 389,144 389,143 389,142 389,141 389,140 389,139 389,138 389,137 389,136 389,135 389,134 389,133 389,132 389,131 389,130 389,129 389,128 389,127 389,126 389,125 389,124 389,123 389,122 389,121 389,120 389,119 388,119 387,119 386,119 385,119 384,119 383,119 382,119 381,119 380,119 379,119 378,119 377,119 376,119 375,119 374,119 373,119 372,119 371,119 370,119 369,119 368,119 367,118 366,118 365,118 364,118 363,118 362,118 361,118 360,118 359,118 358,118 357,118 356,118 355,118 354,118 353,118 352,118 351,118 350,118 349,118 348,118 347,118 346,118 345,118 344,118 343,118 342,118 341,118 340,118 339,118 338,118 337,118 336,118 335,118 334,118 333,118 332,118">
      <metadata tailDirection="" confidence="0.97" linkedToCharacter="" id="TetsuSan_020_balloon_17" tailTip=""></metadata>
    </polygon>
    <polygon points="69,118 69,119 69,120 69,121 69,122 69,123 69,124 69,125 69,126 69,127 69,128 69,129 69,130 69,131 69,132 69,133 69,134 69,135 69,136 69,137 69,138 69,139 69,140 69,141 69,142 69,143 69,144 69,145 69,146 69,147 69,148 69,149 69,150 69,151 69,152 69,153 69,154 69,155 69,156 69,157 69,158 69,159 69,160 69,161 69,162 69,163 69,164 69,165 69,166 69,167 69,168 69,169 69,170 69,171 69,172 69,173 69,174 69,175 69,176 69,177 69,178 69,179 69,180 69,181 69,182 69,183 69,184 69,185 69,186 69,187 69,188 69,189 69,190 69,191 69,192 69,193 69,194 69,195 69,196 69,197 69,198 69,199 69,200 69,201 69,202 69,203 69,204 69,205 69,206 69,207 69,208 69,209 69,210 69,211 69,212 69,213 69,214 69,215 69,216 69,217 69,218 69,219 69,220 69,221 69,222 69,223 69,224 69,225 69,226 69,227 69,228 69,229 69,230 69,231 69,232 69,233 69,234 69,235 69,236 69,237 69,238 69,239 69,240 69,241 69,242 69,243 69,244 69,245 69,246 69,247 69,248 69,249 69,250 69,251 69,252 69,253 69,254 69,255 69,256 69,257 69,258 69,259 69,260 69,261 69,262 69,263 69,264 69,265 69,266 69,267 69,268 69,269 69,270 69,271 69,272 69,273 69,274 69,275 69,276 69,277 69,278 69,279 69,280 69,281 69,282 69,283 69,284 69,285 69,286 69,287 69,288 69,289 69,290 69,291 69,292 69,293 69,294 69,295 69,296 69,297 69,298 69,299 69,300 69,301 69,302 69,303 69,304 69,305 69,306 69,307 69,308 69,309 69,310 69,311 69,312 69,313 69,314 69,315 69,316 69,317 69,318 69,319 69,320 69,321 69,322 69,323 69,324 69,325 69,326 69,327 69,328 69,329 69,330 69,331 69,332 69,333 69,334 69,335 69,336 69,337 69,338 69,339 69,340 69,341 69,342 69,343 69,344 69,345 69,346 69,347 69,348 69,349 70,349 71,349 72,350 73,350 74,350 75,350 76,350 77,350 78,350 79,350 80,350 81,350 82,350 83,350 84,350 85,350 86,350 87,350 88,350 89,350 90,350 91,350 92,350 93,350 94,350 95,350 96,350 97,350 98,350 99,350 100,350 101,350 102,350 103,350 104,350 105,350 106,350 107,350 108,350 109,350 110,350 111,350 112,350 113,350 114,350 115,350 116,350 117,350 118,350 119,350 120,350 121,350 122,350 123,350 124,350 125,350 125,349 125,348 125,347 125,346 125,345 125,344 125,343 125,342 125,341 125,340 125,339 125,338 125,337 125,336 125,335 125,334 124,333 125,332 125,331 125,330 125,329 125,328 125,327 125,326 125,325 125,324 125,323 125,322 125,321 125,320 125,319 125,318 125,317 125,316 125,315 125,314 125,313 125,312 125,311 125,310 125,309 125,308 125,307 125,306 125,305 125,304 125,303 125,302 125,301 125,300 125,299 125,298 125,297 125,296 125,295 125,294 125,293 125,292 125,291 125,290 125,289 125,288 125,287 125,286 125,285 125,284 125,283 125,282 125,281 125,280 125,279 125,278 125,277 125,276 125,275 125,274 125,273 125,272 125,271 125,270 125,269 125,268 125,267 125,266 125,265 125,264 125,263 125,262 125,261 125,260 125,259 125,258 125,257 126,256 125,255 125,254 126,253 126,252 126,251 126,250 126,249 126,248 126,247 126,246 126,245 126,244 126,243 126,242 126,241 126,240 126,239 126,238 126,237 126,236 126,235 126,234 126,233 126,232 126,231 126,230 126,229 126,228 126,227 126,226 126,225 126,224 126,223 126,222 126,221 126,220 126,219 126,218 126,217 126,216 126,215 126,214 126,213 126,212 126,211 126,210 126,209 126,208 126,207 126,206 126,205 126,204 126,203 126,202 126,201 126,200 126,199 126,198 126,197 126,196 126,195 126,194 126,193 126,192 126,191 126,190 126,189 126,188 126,187 126,186 126,185 126,184 126,183 126,182 126,181 126,180 126,179 126,178 126,177 126,176 126,175 126,174 126,173 126,172 126,171 126,170 126,169 126,168 126,167 126,166 126,165 126,164 126,163 126,162 126,161 126,160 126,159 126,158 127,157 127,156 127,155 127,154 127,153 127,152 127,151 127,150 127,149 127,148 127,147 127,146 127,145 127,144 127,143 127,142 127,141 127,140 127,139 127,138 127,137 127,136 127,135 127,134 127,133 127,132 127,131 127,130 127,129 127,128 127,127 127,126 127,125 127,124 128,123 128,122 128,121 128,120 128,119 128,118 127,118 126,118 125,118 124,118 123,118 122,118 121,118 120,118 119,118 118,118 117,118 116,118 115,118 114,118 113,118 112,118 111,118 110,118 109,118 108,118 107,118 106,118 105,118 104,118 103,118 102,118 101,118 100,118 99,118 98,118 97,118 96,118 95,118 94,118 93,118 92,118 91,118 90,118 89,118 88,118 87,118 86,118 85,118 84,118 83,118 82,118 81,118 80,118 79,118 78,118 77,118 76,118 75,118 74,118 73,118 72,118 71,118 70,118 69,118">
      <metadata tailDirection="" confidence="1.00" linkedToCharacter="" id="TetsuSan_020_balloon_18" tailTip=""></metadata>
    </polygon>
  </svg>
</svg>
