<?xml version="1.0" encoding="UTF-8" standalone="no"?>
<svg width="827" xmlns="http://www.w3.org/2000/svg" version="1.0" height="1170">
  <title>TetsuSan_006</title>
  <svg contentScriptType="text/ecmascript" zoomAndPan="magnify" contentStyleType="text/css" class="Page" preserveAspectRatio="xMidYMid meet" version="1.0">
    <image xmlns:xlink="http://www.w3.org/1999/xlink" x="0" y="0" width="827" height="1170" xlink:href="./../../dataset_Manga109/TetsuSan/TetsuSan_006.jpg" xlink:type="simple" xlink:actuate="onLoad" preserveAspectRatio="xMidYMid meet" xlink:show="embed"/>
  </svg>
  <style type="text/css" xml:space="preserve">
        * { stroke-linejoin: round; }
        .Unclassified   { fill: orange; stroke: none;   opacity: 1.0; visibility: hidden; }
        .Noise          { fill: pink;   stroke: none;   opacity: 0.2; visibility: hidden; }
        .Panel          { fill: none;   stroke: red;    stroke-width:3; opacity: 0.5; visibility: visible; image-rendering: optimizeSpeed; }
        .Line           { fill: green;  stroke: none;   opacity: 0.5; visibility: visible; image-rendering: optimizeSpeed; }
        .TextArea       { fill: grey;   stroke: none;   opacity: 0.2; visibility: visible; image-rendering: optimizeSpeed; }
        .Balloon        { fill: cyan;   stroke: none;   opacity: 0.5; visibility: visible; image-rendering: optimizeSpeed; }
        .Letter         { fill: blue;   stroke: none;   opacity: 0.2; visibility: hidden; }
        .Object, .Character, .Face  { fill: yellow; stroke: none;   opacity: 0.5; visibility: visible; image-rendering: optimizeSpeed; }
        .Page           { fill: white;  stroke: none;    opacity: 0.5; visibility: visible; }
        .linkSBSC { fill: blue; stroke: none; opacity: 1.0; visibility: visible; }
        polygon:hover { opacity:1.0; stroke:red; }
</style>
  <svg xmlns="http://www.w3.org/2000/svg" contentScriptType="text/ecmascript" zoomAndPan="magnify" contentStyleType="text/css" class="Balloon" preserveAspectRatio="xMidYMid meet" version="1.0">
    <polygon points="71,1106 70,1107 69,1107 69,1108 69,1109 69,1110 69,1111 69,1112 69,1113 69,1114 69,1115 69,1116 69,1117 69,1118 69,1119 69,1120 69,1121 69,1122 69,1123 69,1124 69,1125 69,1126 69,1127 69,1128 69,1129 69,1130 69,1131 69,1132 69,1133 69,1134 69,1135 69,1136 69,1137 69,1138 69,1139 69,1140 69,1141 70,1141 71,1141 72,1141 73,1141 74,1141 75,1141 76,1141 77,1141 78,1141 79,1141 80,1141 81,1141 82,1141 83,1141 84,1141 85,1141 86,1141 87,1141 88,1141 89,1141 90,1141 91,1141 92,1141 93,1141 94,1141 95,1141 96,1141 97,1141 98,1141 99,1141 100,1141 101,1141 102,1141 103,1141 104,1141 105,1141 106,1141 107,1141 108,1141 109,1141 110,1140 111,1140 112,1140 113,1140 114,1140 115,1140 116,1140 117,1140 118,1140 119,1140 120,1140 121,1140 122,1140 123,1140 124,1140 125,1140 126,1140 127,1140 128,1140 129,1140 130,1140 131,1140 132,1140 133,1140 134,1140 135,1140 136,1140 137,1140 138,1140 139,1140 140,1140 141,1140 142,1140 143,1140 144,1140 145,1140 146,1140 147,1140 148,1140 149,1140 150,1140 151,1140 152,1140 153,1140 154,1140 155,1140 156,1140 157,1140 158,1140 159,1140 160,1140 161,1140 162,1140 163,1140 164,1139 165,1139 166,1139 167,1139 168,1139 169,1139 170,1139 171,1139 172,1139 173,1139 174,1139 175,1139 176,1139 177,1139 178,1139 179,1139 180,1139 181,1139 182,1139 183,1139 184,1139 185,1139 186,1139 187,1139 188,1139 189,1139 190,1139 191,1139 192,1139 193,1139 194,1139 195,1139 196,1139 197,1139 198,1139 199,1139 200,1139 201,1139 202,1139 203,1139 204,1139 205,1139 206,1139 207,1139 208,1139 209,1139 210,1139 211,1139 212,1139 213,1139 214,1139 215,1139 216,1139 217,1139 218,1139 219,1139 220,1139 221,1139 222,1139 223,1139 224,1139 225,1139 226,1139 227,1139 228,1139 229,1139 230,1139 231,1139 232,1139 233,1139 234,1139 235,1139 236,1139 237,1139 238,1139 239,1139 240,1139 241,1139 242,1139 243,1139 244,1139 245,1139 246,1139 247,1139 248,1139 249,1139 250,1139 251,1139 252,1139 253,1139 254,1139 255,1139 256,1140 257,1140 258,1140 259,1140 260,1140 261,1139 262,1139 263,1139 264,1140 265,1140 266,1140 267,1140 268,1140 269,1140 270,1140 271,1140 272,1140 273,1140 274,1139 275,1139 276,1139 277,1140 278,1140 279,1140 280,1140 281,1140 282,1140 283,1140 284,1139 285,1139 286,1139 287,1139 288,1139 289,1139 290,1140 291,1139 292,1139 293,1139 294,1139 295,1139 296,1139 297,1139 298,1139 297,1139 296,1138 297,1137 298,1137 298,1136 297,1135 298,1134 298,1133 298,1132 298,1131 298,1130 298,1129 298,1128 298,1127 298,1126 298,1125 298,1124 298,1123 298,1122 298,1121 298,1120 298,1119 298,1118 298,1117 298,1116 298,1115 298,1114 298,1113 298,1112 298,1111 298,1110 298,1109 298,1108 298,1107 297,1107 296,1107 295,1107 294,1107 293,1107 292,1107 291,1107 290,1107 289,1107 288,1107 287,1107 286,1107 285,1107 284,1107 283,1107 282,1107 281,1107 280,1107 279,1107 278,1107 277,1107 276,1107 275,1107 274,1107 273,1107 272,1107 271,1107 270,1107 269,1107 268,1107 267,1107 266,1107 265,1107 264,1107 263,1107 262,1107 261,1107 260,1107 259,1107 258,1107 257,1107 256,1107 255,1107 254,1107 253,1107 252,1107 251,1107 250,1107 249,1107 248,1107 247,1107 246,1107 245,1107 244,1107 243,1107 242,1107 241,1107 240,1107 239,1107 238,1107 237,1107 236,1107 235,1107 234,1107 233,1107 232,1107 231,1107 230,1106 229,1106 228,1106 227,1106 226,1106 225,1106 224,1106 223,1106 222,1106 221,1106 220,1106 219,1106 218,1106 217,1106 216,1106 215,1106 214,1106 213,1106 212,1106 211,1106 210,1106 209,1106 208,1106 207,1106 206,1106 205,1106 204,1106 203,1106 202,1106 201,1106 200,1106 199,1106 198,1106 197,1106 196,1106 195,1106 194,1106 193,1106 192,1106 191,1106 190,1106 189,1106 188,1106 187,1106 186,1106 185,1106 184,1106 183,1106 182,1106 181,1106 180,1106 179,1106 178,1106 177,1106 176,1106 175,1106 174,1106 173,1106 172,1106 171,1106 170,1106 169,1106 168,1106 167,1106 166,1106 165,1106 164,1106 163,1106 162,1106 161,1106 160,1106 159,1106 158,1106 157,1106 156,1106 155,1106 154,1106 153,1106 152,1107 151,1107 150,1107 149,1107 148,1107 147,1107 146,1107 145,1107 144,1107 143,1107 142,1107 141,1107 140,1107 139,1107 138,1107 137,1107 136,1107 135,1107 134,1107 133,1107 132,1107 131,1107 130,1107 129,1107 128,1107 127,1107 126,1107 125,1107 124,1107 123,1107 122,1107 121,1107 120,1107 119,1107 118,1107 117,1107 116,1107 115,1107 114,1107 113,1107 112,1107 111,1107 110,1107 109,1107 108,1107 107,1107 106,1107 105,1107 104,1107 103,1107 102,1107 101,1107 100,1107 99,1107 98,1107 97,1107 96,1107 95,1107 94,1107 93,1107 92,1107 91,1107 90,1107 89,1107 88,1107 87,1107 86,1107 85,1107 84,1107 83,1107 82,1107 81,1107 80,1107 79,1107 78,1107 77,1107 76,1107 75,1107 74,1107 73,1107 72,1106 71,1106">
      <metadata tailDirection="" confidence="0.86" linkedToCharacter="" id="TetsuSan_006_balloon_0" tailTip=""></metadata>
    </polygon>
    <polygon points="690,867 689,868 689,869 689,870 689,871 688,872 688,873 688,874 688,875 687,876 687,877 687,878 687,879 687,880 686,881 686,882 686,883 686,884 686,885 686,886 686,887 685,888 685,889 685,890 685,891 685,892 685,893 684,894 684,895 684,896 684,897 684,898 684,899 684,900 684,901 683,902 683,903 683,904 683,905 683,906 683,907 683,908 683,909 683,910 683,911 683,912 683,913 682,914 682,915 682,916 682,917 682,918 682,919 682,920 682,921 682,922 682,923 682,924 682,925 682,926 682,927 682,928 682,929 682,930 682,931 682,932 682,933 682,934 682,935 681,936 681,937 682,938 682,939 682,940 682,941 682,942 682,943 682,944 682,945 682,946 682,947 682,948 682,949 682,950 682,951 682,952 682,953 682,954 682,955 682,956 682,957 683,958 683,959 683,960 683,961 683,962 683,963 683,964 683,965 683,966 683,967 683,968 683,969 683,970 683,971 684,972 684,973 683,974 684,975 684,976 684,977 684,978 684,979 684,980 685,981 685,982 685,983 685,984 685,985 686,986 686,987 686,988 686,989 687,990 687,991 687,992 687,993 688,994 688,995 689,996 689,997 690,998 690,999 691,1000 691,1001 692,1002 692,1003 693,1004 694,1005 694,1006 695,1007 695,1008 696,1009 697,1010 698,1011 698,1012 699,1012 700,1013 700,1014 700,1015 700,1016 701,1017 702,1017 703,1017 704,1018 705,1019 706,1019 707,1020 708,1020 709,1021 710,1021 711,1022 712,1022 713,1022 714,1023 715,1023 716,1024 717,1024 718,1024 719,1025 720,1025 721,1025 722,1025 723,1026 724,1026 725,1026 726,1026 727,1026 728,1026 729,1026 730,1026 731,1026 732,1026 733,1026 734,1026 735,1026 736,1026 737,1026 738,1026 739,1026 740,1026 741,1026 742,1025 743,1025 744,1025 745,1025 746,1025 747,1025 748,1024 749,1024 749,1023 749,1022 749,1021 749,1020 749,1019 749,1018 749,1017 749,1016 749,1015 749,1014 749,1013 749,1012 749,1011 749,1010 749,1009 749,1008 749,1007 749,1006 749,1005 749,1004 749,1003 749,1002 749,1001 749,1000 749,999 749,998 749,997 749,996 749,995 749,994 749,993 749,992 749,991 749,990 749,989 749,988 749,987 749,986 749,985 749,984 749,983 749,982 749,981 749,980 749,979 749,978 749,977 749,976 749,975 749,974 749,973 749,972 749,971 749,970 749,969 749,968 749,967 749,966 749,965 749,964 749,963 749,962 749,961 749,960 749,959 749,958 749,957 749,956 749,955 749,954 749,953 749,952 749,951 749,950 749,949 749,948 749,947 749,946 749,945 749,944 749,943 749,942 749,941 749,940 749,939 749,938 749,937 749,936 749,935 749,934 749,933 749,932 749,931 749,930 749,929 749,928 749,927 749,926 749,925 749,924 749,923 749,922 749,921 749,920 749,919 749,918 749,917 749,916 749,915 749,914 749,913 749,912 749,911 749,910 749,909 749,908 749,907 749,906 749,905 749,904 749,903 749,902 749,901 749,900 749,899 749,898 749,897 749,896 749,895 749,894 749,893 749,892 749,891 749,890 749,889 749,888 749,887 749,886 749,885 749,884 749,883 749,882 749,881 749,880 749,879 749,878 749,877 749,876 749,875 749,874 749,873 749,872 749,871 749,870 749,869 748,868 748,867 747,867 746,867 745,867 744,867 743,867 742,867 741,867 740,867 739,867 738,867 737,867 736,867 735,867 734,867 733,867 732,867 731,867 730,867 729,867 728,867 727,867 726,867 725,867 724,867 723,867 722,867 721,867 720,867 719,867 718,867 717,867 716,867 715,867 714,867 713,867 712,867 711,867 710,867 709,867 708,867 707,867 706,867 705,867 704,867 703,867 702,867 701,867 700,867 699,867 698,867 697,867 696,867 695,867 694,867 693,867 692,867 691,867 690,867">
      <metadata tailDirection="" confidence="0.92" linkedToCharacter="" id="TetsuSan_006_balloon_1" tailTip=""></metadata>
    </polygon>
    <polygon points="349,877 348,878 347,878 346,879 345,879 344,879 343,880 342,881 341,881 340,882 339,882 338,883 337,884 336,885 335,885 334,886 333,887 332,888 332,889 331,890 330,891 330,892 329,893 328,894 328,895 327,896 327,897 327,898 326,899 326,900 325,901 325,902 325,903 324,904 324,905 324,906 323,907 323,908 323,909 323,910 323,911 322,912 322,913 322,914 322,915 322,916 322,917 322,918 321,919 321,920 321,921 321,922 320,923 320,924 320,925 320,926 320,927 320,928 320,929 320,930 320,931 320,932 320,933 320,934 320,935 320,936 320,937 320,938 320,939 320,940 321,941 321,942 321,943 321,944 321,945 321,946 321,947 321,948 321,949 321,950 321,951 321,952 321,953 322,954 322,955 322,956 322,957 323,958 323,959 323,960 323,961 324,962 324,963 324,964 325,965 325,966 326,967 326,968 326,969 326,970 327,971 327,972 328,973 328,974 329,975 329,976 329,977 330,978 331,979 331,980 332,981 333,982 333,983 334,984 335,985 336,986 337,987 338,988 339,989 340,989 341,990 342,991 343,991 344,992 345,992 346,992 347,993 348,993 349,993 350,993 351,994 352,994 353,994 354,994 355,993 356,993 357,993 358,993 359,992 360,992 361,992 362,991 363,991 364,990 365,990 366,989 367,988 368,987 369,987 370,986 371,985 372,984 373,983 373,982 374,981 375,980 375,979 376,978 377,977 378,976 378,975 379,974 379,973 380,972 381,971 381,970 382,969 382,968 383,967 383,966 384,965 384,964 384,963 385,962 385,961 386,960 386,959 386,958 386,957 387,956 387,955 387,954 387,953 388,952 388,951 388,950 388,949 388,948 388,947 388,946 389,945 389,944 389,943 389,942 389,941 389,940 389,939 389,938 389,937 389,936 389,935 389,934 389,933 389,932 388,931 388,930 388,929 388,928 388,927 388,926 388,925 388,924 388,923 388,922 387,921 387,920 387,919 387,918 387,917 387,916 387,915 387,914 387,913 387,912 386,911 386,910 386,909 386,908 385,907 385,906 385,905 385,904 384,903 384,902 383,901 383,900 383,899 382,898 382,897 381,896 381,895 380,894 380,893 380,892 379,891 378,890 378,889 377,888 376,887 375,886 374,885 373,884 372,883 371,882 370,881 369,880 368,880 367,879 366,879 365,878 364,878 363,878 362,877 361,877 360,877 359,877 358,877 357,877 356,877 355,877 354,877 353,877 352,877 351,877 350,877 349,877">
      <metadata tailDirection="" confidence="0.99" linkedToCharacter="" id="TetsuSan_006_balloon_2" tailTip=""></metadata>
    </polygon>
    <polygon points="93,865 92,866 91,866 90,867 89,867 88,868 87,868 86,869 85,870 84,870 83,871 82,872 81,873 80,874 80,875 79,876 78,877 77,878 77,879 76,880 75,881 75,882 74,883 74,884 73,885 73,886 72,887 72,888 71,889 71,890 71,891 70,892 70,893 70,894 70,895 70,896 70,897 70,898 70,899 69,900 70,901 70,902 70,903 70,904 69,905 69,906 70,907 70,908 70,909 70,910 70,911 70,912 70,913 70,914 70,915 69,916 69,917 70,918 70,919 70,920 70,921 70,922 70,923 70,924 70,925 70,926 69,927 70,928 70,929 70,930 70,931 70,932 69,933 70,934 70,935 70,936 70,937 70,938 70,939 69,940 69,941 70,942 69,943 69,944 69,945 70,946 70,947 69,948 69,949 70,950 70,951 70,952 70,953 69,954 70,955 70,956 70,957 70,958 70,959 70,960 70,961 70,962 69,963 70,964 70,965 69,966 70,967 69,968 70,969 69,970 69,971 69,972 69,973 70,974 70,975 70,976 70,977 70,978 69,979 69,980 70,981 70,982 70,983 69,984 69,985 70,986 70,987 70,988 71,989 71,990 72,991 73,992 73,993 74,994 75,995 76,996 76,997 77,998 78,999 79,1000 80,1001 81,1002 82,1003 83,1004 84,1004 85,1005 86,1006 87,1007 88,1007 89,1008 90,1009 91,1009 92,1009 93,1010 94,1010 95,1010 96,1011 97,1011 98,1011 99,1011 100,1011 101,1011 102,1012 103,1012 104,1012 105,1012 106,1012 107,1012 108,1012 109,1012 110,1012 111,1012 112,1012 113,1012 114,1012 115,1012 116,1012 117,1012 118,1012 119,1011 120,1011 121,1010 122,1010 123,1010 124,1009 125,1008 126,1008 127,1007 128,1007 129,1006 130,1005 131,1004 132,1004 133,1003 134,1002 135,1001 135,1000 136,999 137,998 138,997 139,996 139,995 140,994 141,993 142,992 142,991 143,990 143,989 144,988 145,987 145,986 145,985 146,984 147,983 147,982 147,981 148,980 148,979 148,978 149,977 149,976 149,975 150,974 150,973 150,972 151,971 151,970 151,969 151,968 151,967 151,966 151,965 151,964 151,963 152,962 152,961 152,960 152,959 152,958 152,957 152,956 152,955 152,954 152,953 153,952 153,951 153,950 153,949 153,948 153,947 153,946 153,945 153,944 153,943 153,942 153,941 153,940 153,939 153,938 152,937 152,936 152,935 152,934 152,933 151,932 151,931 151,930 151,929 151,928 151,927 151,926 150,925 150,924 150,923 150,922 149,921 149,920 148,919 148,918 148,917 148,916 147,915 147,914 147,913 147,912 146,911 146,910 145,909 145,908 145,907 145,906 144,905 144,904 143,903 143,902 143,901 142,900 142,899 142,898 141,897 141,896 140,895 140,894 140,893 139,892 139,891 138,890 138,889 137,888 137,887 136,886 136,885 135,884 135,883 134,882 133,881 133,880 132,879 131,878 131,877 130,876 129,875 128,874 127,873 126,872 125,871 124,870 123,870 122,869 121,868 120,868 119,867 118,867 117,866 116,866 115,866 114,865 113,865 112,865 111,865 110,865 109,865 108,865 107,865 106,865 105,865 104,865 103,865 102,865 101,865 100,865 99,865 98,865 97,865 96,865 95,865 94,865 93,865">
      <metadata tailDirection="" confidence="0.93" linkedToCharacter="" id="TetsuSan_006_balloon_3" tailTip=""></metadata>
    </polygon>
    <polygon points="697,618 697,619 696,620 696,621 696,622 695,623 695,624 695,625 694,626 694,627 693,628 693,629 693,630 693,631 693,632 692,633 692,634 692,635 692,636 691,637 691,638 691,639 691,640 691,641 690,642 690,643 690,644 690,645 690,646 690,647 690,648 690,649 689,650 689,651 689,652 689,653 689,654 689,655 689,656 689,657 689,658 689,659 688,660 688,661 688,662 688,663 688,664 688,665 688,666 688,667 688,668 688,669 688,670 688,671 688,672 688,673 688,674 688,675 688,676 688,677 688,678 688,679 688,680 688,681 688,682 688,683 689,684 689,685 688,686 687,686 686,686 685,686 686,687 687,687 688,687 689,688 689,689 689,690 689,691 689,692 688,693 688,694 688,695 688,696 688,697 688,698 688,699 688,700 688,701 688,702 688,703 688,704 687,705 687,706 687,707 687,708 687,709 687,710 687,711 688,712 687,713 687,714 688,715 688,716 688,717 688,718 688,719 688,720 688,721 688,722 688,723 688,724 688,725 688,726 688,727 688,728 688,729 688,730 688,731 688,732 689,733 689,734 689,735 689,736 689,737 689,738 690,739 690,740 690,741 690,742 690,743 690,744 690,745 690,746 691,747 691,748 692,749 692,750 692,751 692,752 693,753 693,754 693,755 693,756 694,757 694,758 694,759 694,760 695,761 695,762 696,763 696,764 696,765 697,766 697,767 697,768 698,769 698,770 699,771 699,772 700,773 700,774 701,775 702,776 702,777 703,778 704,779 705,780 706,781 706,782 707,783 708,783 709,784 710,785 711,786 712,786 713,787 714,788 715,788 716,789 717,789 718,789 719,790 720,791 721,791 722,791 723,791 724,792 725,792 726,791 727,792 728,792 729,792 730,792 731,792 732,792 733,792 734,792 735,792 736,792 737,792 738,792 739,791 740,791 741,791 742,790 743,790 744,790 745,789 746,788 747,788 748,787 749,786 749,785 749,784 749,783 749,782 749,781 748,780 748,779 748,778 748,777 748,776 749,775 749,774 748,773 748,772 748,771 748,770 748,769 748,768 748,767 748,766 748,765 748,764 749,763 749,762 749,761 749,760 749,759 748,758 748,757 748,756 749,755 749,754 749,753 748,752 748,751 748,750 748,749 748,748 748,747 749,746 749,745 748,744 748,743 748,742 748,741 748,740 748,739 748,738 748,737 748,736 748,735 749,734 749,733 749,732 749,731 749,730 748,729 748,728 748,727 748,726 749,725 749,724 748,723 748,722 748,721 749,720 749,719 749,718 749,717 748,716 748,715 748,714 748,713 748,712 748,711 748,710 748,709 748,708 748,707 748,706 748,705 748,704 748,703 748,702 748,701 748,700 748,699 748,698 748,697 748,696 749,695 748,694 748,693 748,692 748,691 748,690 748,689 749,688 749,687 749,686 749,685 748,684 748,683 749,682 749,681 749,680 748,679 748,678 748,677 748,676 748,675 748,674 748,673 749,672 748,671 748,670 748,669 748,668 748,667 748,666 748,665 748,664 748,663 748,662 748,661 748,660 748,659 748,658 749,657 749,656 749,655 749,654 749,653 749,652 749,651 748,650 748,649 748,648 748,647 748,646 749,645 749,644 749,643 749,642 748,641 749,640 749,639 749,638 749,637 749,636 749,635 749,634 748,633 748,632 748,631 749,630 749,629 748,628 748,627 749,626 749,625 748,624 748,623 748,622 748,621 748,620 748,619 747,618 746,619 745,619 744,619 743,618 742,618 741,618 740,618 739,618 738,618 737,618 736,618 735,618 734,618 733,618 732,618 731,618 730,618 729,618 728,618 727,618 726,618 725,618 724,618 723,618 722,618 721,618 720,618 719,618 718,618 717,618 716,618 715,618 714,618 713,618 712,618 711,618 710,618 709,618 708,618 707,618 706,618 705,618 704,618 703,618 702,618 701,618 700,618 699,618 698,618 697,618">
      <metadata tailDirection="" confidence="0.88" linkedToCharacter="" id="TetsuSan_006_balloon_4" tailTip=""></metadata>
    </polygon>
    <polygon points="430,617 430,618 430,619 430,620 430,621 430,622 430,623 430,624 430,625 430,626 430,627 430,628 430,629 430,630 430,631 430,632 430,633 430,634 430,635 430,636 430,637 430,638 430,639 430,640 430,641 430,642 430,643 430,644 430,645 430,646 430,647 430,648 430,649 430,650 430,651 430,652 430,653 430,654 429,655 430,656 430,657 430,658 430,659 430,660 430,661 430,662 430,663 430,664 430,665 430,666 430,667 430,668 430,669 430,670 430,671 430,672 430,673 430,674 430,675 430,676 430,677 430,678 430,679 430,680 430,681 430,682 430,683 430,684 430,685 430,686 430,687 430,688 430,689 430,690 430,691 430,692 430,693 430,694 430,695 430,696 430,697 430,698 430,699 430,700 430,701 430,702 430,703 430,704 430,705 430,706 430,707 430,708 430,709 430,710 430,711 430,712 430,713 430,714 430,715 430,716 430,717 430,718 430,719 430,720 430,721 430,722 430,723 430,724 430,725 430,726 430,727 430,728 430,729 430,730 430,731 430,732 430,733 430,734 430,735 430,736 430,737 430,738 430,739 430,740 430,741 430,742 430,743 430,744 430,745 430,746 430,747 430,748 430,749 430,750 430,751 430,752 430,753 430,754 430,755 430,756 430,757 430,758 430,759 430,760 430,761 430,762 430,763 430,764 430,765 430,766 430,767 430,768 430,769 430,770 430,771 430,772 430,773 430,774 430,775 430,776 430,777 430,778 430,779 430,780 430,781 430,782 430,783 430,784 430,785 430,786 430,787 430,788 430,789 430,790 430,791 430,792 430,793 430,794 430,795 430,796 430,797 430,798 430,799 430,800 430,801 430,802 430,803 430,804 430,805 430,806 430,807 430,808 430,809 430,810 430,811 430,812 430,813 430,814 430,815 430,816 430,817 430,818 430,819 430,820 430,821 430,822 430,823 430,824 430,825 430,826 430,827 430,828 430,829 430,830 430,831 430,832 430,833 430,834 430,835 430,836 430,837 430,838 430,839 431,838 432,837 433,837 434,837 435,837 436,836 437,836 438,836 439,836 440,836 441,836 442,836 443,836 444,836 445,837 446,837 447,838 447,839 448,840 449,841 449,842 450,842 451,841 452,841 453,840 454,839 455,839 456,838 457,838 458,838 459,837 460,837 461,837 462,837 463,837 464,837 465,837 466,838 467,838 468,839 469,840 470,841 471,842 471,841 472,840 472,839 473,838 473,837 474,836 474,835 475,834 476,833 477,832 478,831 479,830 480,829 481,828 482,828 483,827 484,826 485,826 486,825 487,824 488,824 489,824 490,823 491,823 492,823 493,823 494,823 495,823 496,823 497,823 496,822 496,821 496,820 496,819 496,818 496,817 496,816 496,815 496,814 496,813 497,812 497,811 497,810 497,809 498,808 498,807 498,806 498,805 499,804 499,803 499,802 499,801 500,800 500,799 500,798 501,797 501,796 501,795 502,794 502,793 502,792 503,791 503,790 503,789 504,788 504,787 505,786 506,785 506,784 506,783 505,782 505,781 504,780 504,779 504,778 504,777 504,776 504,775 504,774 504,773 504,772 504,771 504,770 504,769 505,768 505,767 505,766 506,765 506,764 505,763 505,762 504,761 504,760 503,759 503,758 503,757 503,756 502,755 502,754 502,753 502,752 502,751 502,750 502,749 501,748 501,747 501,746 501,745 501,744 501,743 501,742 502,741 502,740 502,739 502,738 503,737 503,736 503,735 504,734 503,733 503,732 502,731 502,730 501,729 501,728 501,727 501,726 501,725 501,724 501,723 500,722 500,721 500,720 500,719 500,718 500,717 500,716 500,715 500,714 500,713 500,712 501,711 501,710 501,709 501,708 501,707 501,706 502,705 502,704 502,703 502,702 502,701 503,700 503,699 504,698 503,697 503,696 502,695 502,694 502,693 501,692 501,691 501,690 500,689 500,688 500,687 500,686 500,685 499,684 499,683 499,682 499,681 499,680 499,679 499,678 499,677 499,676 498,675 498,674 498,673 498,672 498,671 498,670 498,669 498,668 498,667 498,666 498,665 498,664 499,663 499,662 499,661 499,660 499,659 499,658 500,657 500,656 500,655 500,654 499,653 498,653 497,652 497,651 496,650 495,649 495,648 494,647 494,646 494,645 493,644 493,643 493,642 493,641 493,640 493,639 493,638 493,637 493,636 493,635 493,634 493,633 493,632 493,631 493,630 493,629 493,628 493,627 493,626 493,625 494,624 494,623 494,622 494,621 494,620 494,619 494,618 495,617 494,617 493,617 492,617 491,617 490,617 489,617 488,617 487,617 486,617 485,617 484,617 483,617 482,617 481,617 480,617 479,617 478,617 477,617 476,617 475,617 474,617 473,617 472,617 471,617 470,617 469,617 468,617 467,617 466,617 465,617 464,617 463,617 462,617 461,617 460,617 459,617 458,617 457,617 456,617 455,617 454,617 453,617 452,617 451,617 450,617 449,617 448,617 447,617 446,617 445,617 444,617 443,617 442,617 441,617 440,617 439,617 438,617 437,617 436,617 435,617 434,617 433,617 432,617 431,617 430,617">
      <metadata tailDirection="" confidence="0.90" linkedToCharacter="" id="TetsuSan_006_balloon_5" tailTip=""></metadata>
    </polygon>
    <polygon points="338,616 337,617 336,618 336,619 336,620 335,621 335,622 335,623 334,624 334,625 334,626 333,627 333,628 333,629 332,630 332,631 332,632 332,633 331,634 331,635 331,636 331,637 331,638 330,639 330,640 330,641 330,642 330,643 330,644 330,645 329,646 329,647 329,648 329,649 329,650 329,651 329,652 328,653 328,654 328,655 328,656 328,657 328,658 328,659 328,660 328,661 328,662 328,663 328,664 328,665 327,666 327,667 327,668 327,669 327,670 327,671 327,672 327,673 327,674 327,675 327,676 327,677 327,678 327,679 327,680 327,681 327,682 327,683 327,684 327,685 327,686 327,687 327,688 327,689 327,690 327,691 327,692 327,693 327,694 327,695 328,696 328,697 328,698 328,699 328,700 328,701 328,702 328,703 329,704 329,705 329,706 328,707 327,708 326,708 325,708 324,708 323,708 324,708 325,709 326,709 327,710 328,710 329,710 330,711 329,712 328,712 328,713 328,714 328,715 327,716 327,717 327,718 327,719 327,720 327,721 327,722 327,723 327,724 327,725 327,726 327,727 326,728 326,729 326,730 326,731 326,732 326,733 326,734 326,735 326,736 326,737 326,738 326,739 326,740 326,741 326,742 326,743 326,744 326,745 326,746 326,747 326,748 326,749 326,750 326,751 326,752 326,753 326,754 326,755 326,756 326,757 326,758 326,759 326,760 326,761 326,762 326,763 326,764 327,765 327,766 327,767 327,768 327,769 327,770 327,771 327,772 327,773 327,774 327,775 327,776 327,777 328,778 328,779 328,780 328,781 328,782 328,783 329,784 329,785 329,786 329,787 329,788 330,789 330,790 331,791 331,792 331,793 332,794 332,795 332,796 333,797 333,798 333,799 334,800 334,801 334,802 335,803 335,804 336,805 336,806 337,807 337,808 338,809 338,810 339,811 340,812 340,813 341,814 342,815 342,816 343,817 344,818 345,819 346,820 347,821 348,822 349,823 350,823 351,824 352,825 353,825 354,826 355,826 356,827 357,827 358,828 359,828 360,829 361,829 362,829 363,830 364,830 365,830 366,830 367,830 368,830 369,830 370,830 371,831 372,831 373,831 374,831 375,831 376,831 377,831 378,831 379,830 380,830 381,830 382,830 383,830 384,830 385,830 386,829 387,829 388,828 389,828 390,827 391,826 391,825 391,824 391,823 391,822 391,821 391,820 391,819 391,818 391,817 390,816 390,815 391,814 391,813 391,812 391,811 391,810 391,809 391,808 391,807 391,806 391,805 391,804 390,803 390,802 390,801 390,800 391,799 390,798 390,797 390,796 390,795 390,794 390,793 390,792 390,791 390,790 390,789 390,788 390,787 391,786 391,785 391,784 390,783 390,782 390,781 390,780 390,779 390,778 390,777 390,776 390,775 390,774 390,773 390,772 390,771 390,770 390,769 390,768 390,767 390,766 390,765 390,764 390,763 390,762 390,761 390,760 391,759 390,758 390,757 390,756 390,755 390,754 390,753 390,752 390,751 390,750 390,749 390,748 390,747 390,746 390,745 390,744 390,743 390,742 390,741 390,740 390,739 390,738 390,737 390,736 390,735 390,734 390,733 390,732 390,731 390,730 390,729 390,728 390,727 390,726 390,725 390,724 390,723 390,722 390,721 390,720 390,719 390,718 390,717 390,716 390,715 390,714 390,713 390,712 390,711 390,710 390,709 390,708 390,707 390,706 390,705 390,704 390,703 390,702 390,701 390,700 390,699 390,698 390,697 390,696 390,695 390,694 390,693 390,692 390,691 390,690 390,689 390,688 390,687 390,686 390,685 390,684 390,683 390,682 390,681 390,680 390,679 390,678 390,677 390,676 390,675 390,674 390,673 390,672 390,671 390,670 390,669 390,668 390,667 390,666 390,665 390,664 390,663 390,662 390,661 390,660 390,659 390,658 390,657 390,656 390,655 390,654 390,653 390,652 390,651 390,650 390,649 390,648 390,647 390,646 390,645 390,644 390,643 390,642 390,641 390,640 390,639 390,638 390,637 390,636 390,635 390,634 390,633 390,632 390,631 390,630 390,629 390,628 390,627 390,626 390,625 390,624 390,623 390,622 390,621 390,620 390,619 390,618 390,617 389,617 388,617 387,617 386,617 385,617 384,617 383,617 382,617 381,617 380,617 379,617 378,617 377,617 376,617 375,616 374,616 373,616 372,616 371,616 370,616 369,616 368,616 367,616 366,616 365,616 364,616 363,616 362,616 361,616 360,616 359,616 358,616 357,616 356,616 355,616 354,616 353,616 352,616 351,616 350,616 349,616 348,616 347,616 346,616 345,616 344,616 343,616 342,616 341,616 340,616 339,616 338,616">
      <metadata tailDirection="" confidence="0.91" linkedToCharacter="" id="TetsuSan_006_balloon_6" tailTip=""></metadata>
    </polygon>
    <polygon points="73,615 72,616 71,616 70,616 69,616 69,617 69,618 69,619 69,620 69,621 69,622 69,623 69,624 69,625 69,626 69,627 69,628 69,629 69,630 69,631 69,632 69,633 69,634 69,635 69,636 69,637 69,638 69,639 69,640 69,641 69,642 69,643 69,644 69,645 69,646 69,647 69,648 69,649 69,650 69,651 69,652 69,653 69,654 69,655 69,656 69,657 69,658 69,659 69,660 69,661 69,662 69,663 69,664 69,665 69,666 69,667 69,668 69,669 69,670 69,671 69,672 69,673 69,674 69,675 69,676 69,677 69,678 69,679 69,680 69,681 69,682 69,683 69,684 69,685 69,686 69,687 69,688 69,689 69,690 69,691 69,692 69,693 69,694 69,695 69,696 69,697 69,698 69,699 69,700 69,701 69,702 69,703 69,704 69,705 69,706 69,707 69,708 69,709 69,710 69,711 69,712 69,713 69,714 69,715 69,716 69,717 69,718 69,719 69,720 69,721 69,722 69,723 69,724 69,725 69,726 69,727 69,728 69,729 69,730 69,731 69,732 69,733 69,734 69,735 69,736 69,737 69,738 69,739 69,740 69,741 69,742 69,743 69,744 69,745 69,746 69,747 69,748 69,749 69,750 70,750 71,750 72,751 73,751 74,752 75,753 76,754 77,755 78,755 79,756 80,756 81,756 82,757 83,757 84,758 85,758 86,759 87,759 88,759 89,760 90,760 91,760 92,761 93,761 94,761 95,761 96,762 97,762 98,762 99,763 100,763 101,763 102,763 103,763 104,764 105,764 106,764 107,764 108,764 109,765 110,765 111,765 112,765 113,765 114,765 115,765 116,765 117,765 118,765 119,765 120,765 121,765 122,765 123,765 124,765 125,765 126,765 127,764 128,764 129,764 130,764 131,764 132,763 133,763 134,763 135,762 136,762 137,762 138,761 139,761 140,761 141,761 142,760 143,760 144,760 145,759 146,759 147,758 148,758 149,757 150,757 151,756 152,755 153,755 154,754 155,753 156,753 157,752 158,751 159,750 160,749 161,749 162,748 163,747 164,746 165,745 166,744 166,743 167,742 168,741 169,740 170,739 170,738 171,737 172,736 172,735 173,734 173,733 174,732 175,731 175,730 176,729 176,728 177,727 177,726 178,725 178,724 178,723 179,722 179,721 179,720 180,719 180,718 180,717 180,716 181,715 181,714 181,713 182,712 182,711 182,710 182,709 182,708 182,707 182,706 182,705 182,704 182,703 182,702 182,701 182,700 182,699 182,698 182,697 182,696 182,695 182,694 182,693 182,692 182,691 182,690 182,689 182,688 182,687 182,686 182,685 182,684 182,683 182,682 182,681 183,680 184,679 183,679 182,678 182,677 182,676 182,675 182,674 182,673 182,672 182,671 182,670 183,669 182,668 182,667 182,666 182,665 182,664 182,663 182,662 182,661 182,660 182,659 182,658 182,657 182,656 182,655 181,654 181,653 181,652 181,651 181,650 181,649 181,648 180,647 180,646 180,645 180,644 180,643 180,642 180,641 179,640 179,639 179,638 179,637 179,636 179,635 178,634 178,633 178,632 178,631 177,630 177,629 177,628 177,627 177,626 176,625 176,624 176,623 175,622 175,621 175,620 174,619 174,618 174,617 173,616 172,616 171,616 170,616 169,616 168,616 167,616 166,616 165,616 164,616 163,616 162,616 161,616 160,616 159,616 158,616 157,616 156,616 155,616 154,616 153,616 152,616 151,616 150,616 149,616 148,616 147,616 146,616 145,616 144,616 143,616 142,616 141,616 140,616 139,616 138,616 137,616 136,616 135,616 134,616 133,616 132,616 131,616 130,616 129,616 128,616 127,616 126,616 125,616 124,616 123,616 122,615 121,616 120,615 119,615 118,615 117,616 116,616 115,616 114,615 113,615 112,616 111,615 110,615 109,615 108,615 107,615 106,616 105,616 104,616 103,615 102,616 101,616 100,615 99,615 98,616 97,616 96,616 95,616 94,616 93,616 92,616 91,616 90,616 89,615 88,615 87,616 86,616 85,615 84,615 83,615 82,615 81,615 80,615 79,615 78,615 77,615 76,615 75,615 74,615 73,615">
      <metadata tailDirection="" confidence="0.95" linkedToCharacter="" id="TetsuSan_006_balloon_7" tailTip=""></metadata>
    </polygon>
    <polygon points="685,368 686,369 687,370 687,371 688,372 689,373 689,374 689,375 689,376 689,377 690,378 690,379 690,380 690,381 690,382 690,383 690,384 690,385 690,386 690,387 689,388 689,389 689,390 689,391 688,392 688,393 687,394 687,395 686,396 686,397 685,398 686,398 687,399 688,400 689,401 689,402 690,403 690,404 690,405 690,406 690,407 690,408 690,409 690,410 690,411 690,412 690,413 689,414 689,415 689,416 689,417 688,418 688,419 687,420 687,421 686,422 685,423 685,424 684,425 683,426 684,426 685,427 686,428 686,429 687,430 687,431 687,432 687,433 687,434 686,435 686,436 685,437 685,438 684,439 684,440 683,441 682,442 681,443 680,444 679,445 679,446 678,447 677,447 676,448 675,449 674,450 675,450 676,450 677,450 678,450 679,451 680,452 681,453 682,454 682,455 683,456 683,457 683,458 683,459 683,460 683,461 683,462 683,463 683,464 683,465 682,466 682,467 682,468 681,469 681,470 681,471 680,472 680,473 679,474 679,475 678,476 677,477 677,478 678,478 679,478 680,478 681,479 682,480 683,480 684,481 684,482 685,483 685,484 685,485 685,486 686,487 686,488 686,489 686,490 685,491 685,492 685,493 685,494 685,495 684,496 684,497 684,498 683,499 683,500 682,501 682,502 681,503 681,504 682,504 683,504 684,505 685,505 686,505 687,506 688,506 689,506 690,507 691,508 692,509 693,510 693,511 694,512 694,513 695,514 695,515 695,516 695,517 696,518 696,519 696,520 696,521 696,522 696,523 695,524 695,525 696,524 697,524 698,524 699,523 700,523 701,523 702,523 703,523 704,523 705,523 706,523 707,523 708,523 709,524 710,524 711,525 712,525 713,526 714,527 714,528 715,529 716,530 716,531 717,532 717,533 717,534 717,535 718,534 719,533 720,533 721,532 722,532 723,532 724,532 725,533 726,534 727,534 728,535 729,536 730,537 731,538 732,539 732,540 732,539 733,538 734,537 735,536 735,535 736,534 737,533 738,532 739,531 740,530 741,529 742,529 743,528 744,527 745,526 746,526 747,525 748,525 749,525 749,524 749,523 749,522 749,521 749,520 749,519 749,518 749,517 749,516 749,515 749,514 749,513 749,512 749,511 749,510 749,509 749,508 749,507 749,506 749,505 749,504 749,503 749,502 749,501 749,500 749,499 749,498 749,497 749,496 749,495 749,494 749,493 749,492 749,491 749,490 749,489 749,488 749,487 749,486 749,485 749,484 749,483 749,482 749,481 749,480 749,479 749,478 749,477 749,476 749,475 749,474 749,473 749,472 749,471 749,470 749,469 749,468 749,467 749,466 749,465 749,464 749,463 749,462 749,461 749,460 749,459 749,458 749,457 749,456 749,455 749,454 749,453 749,452 749,451 749,450 749,449 749,448 749,447 749,446 749,445 749,444 749,443 749,442 749,441 749,440 749,439 749,438 749,437 749,436 749,435 749,434 749,433 749,432 749,431 749,430 749,429 749,428 749,427 749,426 749,425 749,424 749,423 749,422 749,421 749,420 749,419 749,418 749,417 749,416 749,415 749,414 749,413 749,412 749,411 749,410 749,409 749,408 749,407 749,406 749,405 749,404 749,403 749,402 749,401 749,400 749,399 749,398 749,397 749,396 749,395 749,394 749,393 749,392 749,391 749,390 749,389 749,388 749,387 749,386 749,385 749,384 749,383 749,382 749,381 749,380 749,379 749,378 749,377 749,376 749,375 749,374 749,373 749,372 749,371 749,370 749,369 749,368 748,368 747,368 746,368 745,368 744,368 743,368 742,368 741,368 740,368 739,368 738,368 737,368 736,368 735,368 734,368 733,368 732,368 731,368 730,368 729,368 728,368 727,368 726,368 725,368 724,368 723,368 722,368 721,368 720,368 719,368 718,368 717,368 716,368 715,368 714,368 713,368 712,368 711,368 710,368 709,368 708,368 707,368 706,368 705,368 704,368 703,368 702,368 701,368 700,368 699,368 698,368 697,368 696,368 695,368 694,368 693,368 692,368 691,368 690,368 689,368 688,368 687,368 686,368 685,368">
      <metadata tailDirection="" confidence="0.89" linkedToCharacter="" id="TetsuSan_006_balloon_8" tailTip=""></metadata>
    </polygon>
    <polygon points="430,367 430,368 430,369 430,370 429,371 429,372 429,373 429,374 429,375 429,376 429,377 429,378 429,379 429,380 429,381 429,382 429,383 429,384 429,385 429,386 429,387 429,388 429,389 429,390 429,391 429,392 429,393 429,394 429,395 429,396 429,397 429,398 429,399 429,400 429,401 429,402 429,403 429,404 429,405 429,406 429,407 429,408 429,409 429,410 429,411 429,412 429,413 429,414 429,415 429,416 429,417 429,418 429,419 429,420 429,421 429,422 429,423 429,424 429,425 429,426 429,427 429,428 429,429 429,430 429,431 429,432 429,433 429,434 429,435 429,436 429,437 429,438 429,439 429,440 429,441 429,442 429,443 429,444 429,445 429,446 429,447 429,448 429,449 429,450 429,451 429,452 429,453 429,454 429,455 429,456 429,457 429,458 429,459 429,460 429,461 429,462 429,463 429,464 429,465 429,466 429,467 429,468 429,469 429,470 429,471 429,472 429,473 429,474 429,475 429,476 429,477 429,478 429,479 429,480 429,481 429,482 429,483 429,484 429,485 429,486 429,487 429,488 429,489 429,490 429,491 429,492 429,493 429,494 429,495 429,496 429,497 429,498 429,499 429,500 429,501 429,502 429,503 429,504 429,505 429,506 429,507 429,508 429,509 429,510 429,511 429,512 429,513 430,514 431,515 431,516 432,516 433,517 434,518 435,518 436,519 437,519 438,520 439,520 440,521 441,521 442,521 443,521 444,522 445,522 446,521 447,522 448,521 449,521 450,521 451,520 452,520 453,519 454,518 455,517 456,517 457,518 457,519 457,520 458,521 458,522 459,522 459,521 458,520 458,519 458,518 457,517 457,516 458,515 459,515 460,516 461,516 462,516 463,516 464,517 465,517 466,517 467,517 468,517 469,517 470,517 471,517 472,517 473,517 474,517 475,517 476,517 477,517 478,517 479,517 480,516 481,515 482,515 483,514 484,513 484,512 485,511 486,512 487,511 487,510 488,509 489,508 489,507 490,506 490,505 490,504 491,503 491,502 491,501 491,500 491,499 491,498 492,497 493,496 494,496 495,495 495,494 496,493 496,492 497,491 497,490 497,489 498,488 498,487 498,486 498,485 499,484 498,483 498,482 498,481 498,480 498,479 498,478 497,477 497,476 497,475 496,474 495,473 494,472 493,472 492,471 492,470 492,469 492,468 493,467 494,466 495,465 495,464 496,463 496,462 497,461 497,460 497,459 498,458 498,457 498,456 499,455 499,454 499,453 499,452 499,451 499,450 499,449 499,448 499,447 499,446 498,445 498,444 497,443 497,442 496,441 495,440 494,439 493,439 492,438 491,437 490,436 490,435 491,434 492,433 493,432 494,431 494,430 495,429 495,428 496,427 496,426 496,425 497,424 497,423 497,422 497,421 497,420 497,419 497,418 497,417 497,416 497,415 497,414 496,413 496,412 496,411 495,410 495,409 494,408 494,407 493,406 492,405 491,404 490,403 489,402 488,401 489,400 489,399 490,398 491,397 491,396 492,395 492,394 493,393 493,392 494,391 494,390 494,389 494,388 494,387 494,386 494,385 494,384 494,383 493,382 493,381 493,380 493,379 492,378 492,377 491,376 491,375 490,374 489,373 488,372 487,371 486,370 485,369 484,368 483,368 482,367 481,367 480,367 479,367 478,367 477,367 476,367 475,367 474,367 473,367 472,367 471,367 470,367 469,367 468,367 467,367 466,367 465,367 464,367 463,367 462,367 461,367 460,367 459,367 458,367 457,367 456,367 455,367 454,367 453,367 452,367 451,367 450,367 449,367 448,367 447,367 446,367 445,367 444,367 443,367 442,367 441,367 440,367 439,367 438,367 437,367 436,367 435,367 434,367 433,367 432,367 431,367 430,367">
      <metadata tailDirection="" confidence="0.98" linkedToCharacter="" id="TetsuSan_006_balloon_9" tailTip=""></metadata>
    </polygon>
    <polygon points="321,366 321,367 320,368 320,369 320,370 319,371 319,372 318,373 318,374 318,375 317,376 317,377 317,378 317,379 316,380 316,381 316,382 316,383 316,384 315,385 315,386 315,387 315,388 314,389 314,390 314,391 314,392 314,393 314,394 313,395 313,396 313,397 313,398 313,399 313,400 313,401 313,402 313,403 313,404 313,405 313,406 313,407 313,408 313,409 312,410 312,411 312,412 312,413 312,414 312,415 312,416 312,417 312,418 312,419 312,420 312,421 312,422 312,423 312,424 312,425 312,426 312,427 311,428 311,429 312,430 312,431 311,432 311,433 312,434 312,435 312,436 312,437 312,438 312,439 312,440 311,441 311,442 311,443 311,444 311,445 311,446 311,447 312,448 312,449 312,450 312,451 312,452 312,453 313,454 313,455 313,456 313,457 313,458 314,459 314,460 314,461 315,462 315,463 315,464 315,465 316,466 316,467 316,468 316,469 317,470 317,471 318,472 318,473 319,474 319,475 320,476 320,477 321,478 321,479 322,480 322,481 323,482 324,483 324,484 325,485 325,486 326,487 327,488 328,489 329,490 330,491 331,492 332,493 333,493 334,494 335,495 336,495 337,496 338,497 339,497 340,498 341,498 342,498 343,498 344,499 345,499 346,499 347,500 348,500 349,500 350,500 351,500 352,501 353,500 354,500 355,501 356,501 357,501 358,501 359,501 360,501 361,501 362,501 363,501 364,501 365,501 366,501 367,500 368,500 369,500 370,500 371,500 372,500 373,500 374,500 375,500 376,499 377,499 378,499 379,499 380,498 381,498 382,498 383,497 384,497 385,497 386,496 387,496 388,496 389,495 390,494 390,493 390,492 390,491 390,490 390,489 390,488 390,487 390,486 390,485 390,484 390,483 390,482 390,481 390,480 390,479 390,478 390,477 390,476 390,475 390,474 390,473 390,472 390,471 390,470 390,469 390,468 390,467 390,466 390,465 390,464 390,463 390,462 390,461 390,460 390,459 390,458 390,457 390,456 390,455 390,454 390,453 390,452 390,451 390,450 390,449 390,448 390,447 390,446 390,445 390,444 390,443 390,442 390,441 390,440 390,439 390,438 390,437 390,436 390,435 390,434 390,433 390,432 390,431 390,430 390,429 390,428 390,427 390,426 390,425 390,424 390,423 390,422 390,421 390,420 390,419 390,418 390,417 390,416 390,415 390,414 390,413 390,412 390,411 390,410 390,409 390,408 390,407 390,406 390,405 390,404 390,403 390,402 390,401 390,400 390,399 390,398 390,397 390,396 390,395 390,394 390,393 390,392 390,391 390,390 390,389 390,388 390,387 390,386 390,385 390,384 390,383 390,382 390,381 390,380 390,379 390,378 390,377 390,376 390,375 390,374 390,373 390,372 390,371 390,370 390,369 390,368 390,367 389,367 388,367 387,367 386,367 385,367 384,367 383,367 382,367 381,367 380,367 379,367 378,367 377,367 376,367 375,367 374,366 373,366 372,366 371,366 370,366 369,366 368,366 367,366 366,366 365,366 364,366 363,366 362,366 361,366 360,366 359,366 358,366 357,366 356,366 355,366 354,366 353,366 352,366 351,366 350,366 349,366 348,366 347,366 346,366 345,366 344,366 343,366 342,366 341,366 340,366 339,366 338,366 337,366 336,366 335,366 334,366 333,366 332,366 331,366 330,366 329,366 328,366 327,366 326,366 325,366 324,366 323,366 322,366 321,366">
      <metadata tailDirection="" confidence="0.93" linkedToCharacter="" id="TetsuSan_006_balloon_10" tailTip=""></metadata>
    </polygon>
    <polygon points="336,256 336,257 336,258 336,259 336,260 336,261 336,262 336,263 336,264 336,265 336,266 336,267 336,268 336,269 336,270 336,271 336,272 336,273 336,274 336,275 336,276 336,277 336,278 336,279 336,280 336,281 336,282 336,283 336,284 336,285 336,286 336,287 336,288 336,289 336,290 336,291 336,292 336,293 336,294 336,295 336,296 336,295 336,294 337,293 338,294 339,295 338,296 338,297 338,298 338,299 338,300 339,301 339,302 339,303 338,304 337,304 336,303 336,302 336,301 336,300 336,299 336,298 336,299 336,300 336,301 336,302 336,303 336,304 336,305 336,306 336,307 336,308 336,309 336,310 336,311 336,312 336,313 336,314 337,315 338,316 338,317 338,318 338,319 338,320 338,321 338,322 338,323 338,324 338,325 337,326 336,326 336,327 336,328 336,329 336,330 336,331 336,332 336,333 336,334 336,335 336,336 336,337 336,338 336,339 336,340 336,341 336,342 336,343 336,344 336,345 336,346 336,347 336,348 337,348 338,348 339,348 340,348 341,348 342,348 343,348 344,348 345,348 346,348 347,348 348,348 349,348 350,348 351,348 352,347 352,346 352,345 352,344 352,343 352,342 352,341 352,340 352,339 352,338 352,337 351,336 350,335 351,334 351,333 351,332 351,331 351,330 352,329 352,328 352,327 352,326 352,325 352,324 352,323 352,322 352,321 352,320 352,319 352,318 352,317 352,316 352,315 352,314 352,313 352,312 352,311 352,310 352,309 352,308 352,307 352,306 352,305 352,304 352,303 352,302 352,301 352,300 352,299 352,298 352,297 352,296 352,295 352,294 352,293 352,292 352,291 352,290 352,289 352,288 352,287 352,286 352,285 352,284 352,283 352,282 351,281 351,280 351,279 352,278 352,277 352,276 352,275 352,274 351,273 350,273 349,272 348,272 347,271 346,270 345,269 344,268 343,267 342,266 341,265 340,264 339,263 339,262 338,261 338,260 337,259 337,258 336,257 336,256">
      <metadata tailDirection="" confidence="0.82" linkedToCharacter="" id="TetsuSan_006_balloon_11" tailTip=""></metadata>
    </polygon>
    <polygon points="337,116 336,117 336,118 335,119 335,120 335,121 335,122 334,123 334,124 334,125 334,126 334,127 333,128 333,129 333,130 333,131 332,132 332,133 332,134 332,135 332,136 331,137 331,138 331,139 331,140 331,141 331,142 330,143 330,144 330,145 330,146 330,147 330,148 330,149 329,150 329,151 329,152 329,153 329,154 329,155 328,156 328,157 328,158 328,159 328,160 328,161 328,162 328,163 327,164 327,165 327,166 327,167 327,168 327,169 327,170 327,171 327,172 327,173 327,174 327,175 327,176 327,177 327,178 326,179 326,180 326,181 326,182 326,183 326,184 326,185 326,186 326,187 326,188 326,189 326,190 326,191 326,192 326,193 326,194 326,195 326,196 326,197 326,198 326,199 326,200 326,201 326,202 326,203 326,204 326,205 326,206 326,207 326,208 326,209 326,210 327,211 327,212 327,213 327,214 327,215 327,216 327,217 328,218 328,219 328,220 328,221 328,222 328,223 328,224 328,225 328,226 329,227 329,228 329,229 329,230 329,231 329,232 329,233 329,234 329,235 330,236 330,237 331,238 331,239 331,240 332,241 332,242 333,243 333,244 334,245 334,246 335,247 335,248 336,249 336,250 336,251 337,252 337,253 338,254 339,255 339,256 340,257 340,258 341,259 341,260 341,261 342,262 343,263 344,264 344,265 345,266 346,267 347,267 348,268 349,269 350,270 351,270 352,271 353,271 354,272 355,273 356,273 357,273 358,273 359,274 360,274 361,274 362,275 363,275 364,275 365,275 366,276 367,276 368,276 369,276 370,276 371,276 372,276 373,276 374,276 375,276 376,276 377,275 378,275 379,275 380,274 381,274 382,274 383,274 384,273 385,273 386,272 387,272 388,271 389,271 390,271 390,270 390,269 390,268 390,267 390,266 390,265 390,264 390,263 390,262 390,261 390,260 390,259 390,258 390,257 390,256 390,255 390,254 390,253 390,252 390,251 390,250 390,249 390,248 390,247 390,246 390,245 390,244 390,243 390,242 390,241 390,240 390,239 390,238 390,237 390,236 390,235 390,234 390,233 390,232 390,231 390,230 390,229 390,228 390,227 390,226 390,225 390,224 390,223 390,222 390,221 390,220 390,219 390,218 390,217 390,216 390,215 390,214 390,213 390,212 390,211 390,210 390,209 390,208 390,207 390,206 390,205 390,204 390,203 390,202 390,201 390,200 390,199 390,198 390,197 390,196 390,195 390,194 390,193 390,192 390,191 390,190 390,189 390,188 390,187 390,186 390,185 390,184 390,183 390,182 390,181 390,180 390,179 390,178 390,177 390,176 390,175 390,174 390,173 390,172 390,171 390,170 390,169 390,168 390,167 390,166 390,165 390,164 390,163 390,162 390,161 390,160 390,159 390,158 390,157 390,156 390,155 390,154 390,153 390,152 390,151 390,150 390,149 390,148 390,147 390,146 390,145 390,144 390,143 390,142 390,141 390,140 390,139 390,138 390,137 390,136 390,135 390,134 390,133 390,132 390,131 390,130 390,129 390,128 390,127 390,126 390,125 390,124 390,123 390,122 390,121 390,120 390,119 390,118 390,117 389,117 388,117 387,117 386,117 385,116 384,116 383,116 382,117 381,117 380,116 379,116 378,116 377,116 376,116 375,116 374,116 373,116 372,116 371,116 370,116 369,116 368,116 367,116 366,116 365,116 364,116 363,116 362,116 361,116 360,116 359,116 358,116 357,116 356,116 355,116 354,116 353,116 352,116 351,116 350,116 349,116 348,116 347,116 346,116 345,116 344,116 343,116 342,116 341,116 340,116 339,116 338,116 337,116">
      <metadata tailDirection="" confidence="0.82" linkedToCharacter="" id="TetsuSan_006_balloon_12" tailTip=""></metadata>
    </polygon>
    <polygon points="69,116 69,117 69,118 69,119 69,120 69,121 69,122 69,123 69,124 69,125 69,126 69,127 69,128 69,129 69,130 69,131 69,132 69,133 69,134 69,135 69,136 69,137 69,138 69,139 69,140 69,141 69,142 69,143 69,144 69,145 69,146 69,147 69,148 69,149 69,150 69,151 69,152 69,153 69,154 69,155 69,156 69,157 69,158 69,159 69,160 69,161 69,162 69,163 69,164 69,165 69,166 69,167 69,168 69,169 69,170 69,171 69,172 69,173 69,174 69,175 69,176 69,177 69,178 69,179 69,180 69,181 69,182 69,183 69,184 69,185 69,186 69,187 69,188 69,189 69,190 69,191 69,192 69,193 69,194 69,195 69,196 69,197 69,198 69,199 69,200 69,201 69,202 69,203 69,204 69,205 69,206 69,207 69,208 69,209 69,210 69,211 69,212 69,213 69,214 69,215 69,216 69,217 69,218 69,219 70,220 70,221 69,222 69,223 69,224 70,225 70,226 70,227 69,228 69,229 69,230 69,231 70,232 69,233 69,234 70,235 70,236 69,237 69,238 69,239 69,240 69,241 70,242 70,243 69,244 69,245 70,246 69,247 69,248 69,249 70,250 70,251 70,252 70,253 69,254 70,255 69,256 69,257 69,258 70,259 69,260 69,261 69,262 69,263 70,264 70,265 70,266 69,267 70,268 70,269 70,270 71,271 71,272 72,273 73,274 74,275 75,276 76,277 77,277 78,278 79,279 80,279 81,280 82,280 83,281 84,281 85,281 86,281 87,282 88,282 89,282 90,282 91,282 92,283 93,283 94,283 95,283 96,283 97,283 98,283 99,283 100,283 101,283 102,283 103,283 104,282 105,282 106,282 107,282 108,281 109,281 110,280 111,280 112,279 113,279 114,279 115,278 116,277 117,277 117,276 118,275 119,274 120,273 121,272 121,271 122,270 123,269 124,268 124,267 125,266 125,265 126,264 127,263 127,262 128,261 128,260 129,259 129,258 130,257 130,256 131,255 132,254 132,253 133,252 133,251 133,250 134,249 134,248 134,247 135,246 135,245 135,244 135,243 135,242 136,241 136,240 136,239 136,238 136,237 136,236 137,235 137,234 137,233 137,232 137,231 137,230 137,229 138,228 138,227 138,226 138,225 138,224 138,223 138,222 138,221 138,220 138,219 138,218 138,217 138,216 139,215 139,214 139,213 139,212 139,211 139,210 139,209 139,208 139,207 139,206 139,205 139,204 139,203 139,202 139,201 139,200 139,199 139,198 139,197 139,196 139,195 139,194 138,193 138,192 138,191 138,190 138,189 138,188 138,187 138,186 138,185 138,184 138,183 138,182 138,181 138,180 138,179 137,178 137,177 137,176 137,175 137,174 137,173 137,172 137,171 137,170 137,169 136,168 136,167 136,166 136,165 136,164 136,163 136,162 136,161 135,160 135,159 135,158 135,157 135,156 135,155 134,154 134,153 134,152 134,151 134,150 134,149 133,148 133,147 133,146 132,145 132,144 132,143 132,142 131,141 131,140 131,139 130,138 130,137 130,136 129,135 129,134 128,133 128,132 128,131 127,130 127,129 127,128 126,127 126,126 125,125 125,124 125,123 124,122 124,121 123,120 123,119 122,118 122,117 121,116 120,116 119,116 118,116 117,116 116,116 115,116 114,116 113,116 112,116 111,116 110,116 109,116 108,116 107,116 106,116 105,116 104,116 103,116 102,116 101,116 100,116 99,116 98,116 97,116 96,116 95,116 94,116 93,116 92,116 91,116 90,116 89,116 88,116 87,116 86,116 85,116 84,116 83,116 82,116 81,116 80,116 79,116 78,116 77,116 76,116 75,116 74,116 73,116 72,116 71,116 70,116 69,116">
      <metadata tailDirection="" confidence="0.91" linkedToCharacter="" id="TetsuSan_006_balloon_13" tailTip=""></metadata>
    </polygon>
    <polygon points="688,117 689,118 689,119 690,120 690,121 690,122 690,123 691,124 691,125 691,126 691,127 691,128 691,129 690,130 690,131 690,132 690,133 690,134 690,135 689,136 689,137 689,138 688,139 688,140 687,141 687,142 686,143 685,144 686,144 687,145 688,146 688,147 689,148 689,149 689,150 690,151 690,152 690,153 690,154 690,155 690,156 690,157 690,158 690,159 689,160 689,161 689,162 689,163 688,164 688,165 687,166 687,167 686,168 686,169 685,170 685,171 686,172 687,173 687,174 688,175 688,176 688,177 688,178 688,179 688,180 688,181 687,182 687,183 686,184 685,185 685,186 684,187 683,188 682,189 681,190 680,191 679,192 678,193 679,193 680,193 681,193 682,193 683,194 684,194 685,195 686,196 687,197 687,198 688,199 688,200 688,201 688,202 688,203 688,204 688,205 688,206 687,207 687,208 687,209 686,210 686,211 686,212 685,213 685,214 684,215 683,216 684,216 685,217 686,218 687,218 688,219 688,220 689,221 689,222 689,223 689,224 690,225 690,226 690,227 690,228 690,229 689,230 689,231 689,232 689,233 689,234 688,235 688,236 688,237 687,238 687,239 686,240 686,241 685,242 685,243 684,244 685,245 686,246 687,247 688,248 688,249 689,250 689,251 689,252 689,253 689,254 690,255 690,256 690,257 690,258 689,259 690,260 689,261 689,262 689,263 689,264 689,265 689,266 689,267 688,268 688,269 688,270 688,271 687,272 687,273 686,274 686,275 685,276 685,277 684,278 684,279 683,280 684,280 685,280 686,279 687,279 688,279 689,279 690,279 691,278 692,278 693,278 694,278 695,279 696,279 697,279 698,280 699,281 700,282 701,283 701,284 702,285 702,286 703,287 703,288 704,289 704,290 704,291 704,292 705,293 705,294 705,295 705,296 706,295 707,295 708,294 709,294 710,293 711,293 712,293 713,292 714,292 715,292 716,292 717,292 718,292 719,292 720,292 721,293 722,293 723,294 724,295 725,296 726,297 727,298 727,299 728,300 728,301 728,302 729,301 730,300 731,299 732,298 733,297 734,296 735,296 736,295 737,295 738,294 739,294 740,293 741,293 742,293 743,293 744,293 745,293 746,293 747,292 748,292 749,292 749,291 749,290 749,289 749,288 749,287 749,286 749,285 749,284 749,283 749,282 749,281 749,280 749,279 749,278 749,277 749,276 749,275 749,274 749,273 749,272 749,271 749,270 749,269 749,268 749,267 749,266 749,265 749,264 749,263 749,262 749,261 749,260 749,259 749,258 749,257 749,256 749,255 749,254 749,253 749,252 749,251 749,250 749,249 749,248 749,247 749,246 749,245 749,244 749,243 749,242 749,241 749,240 749,239 749,238 749,237 749,236 749,235 749,234 749,233 749,232 749,231 749,230 749,229 749,228 749,227 749,226 749,225 749,224 749,223 749,222 749,221 749,220 749,219 749,218 749,217 749,216 749,215 749,214 749,213 749,212 749,211 749,210 749,209 749,208 749,207 749,206 749,205 749,204 749,203 749,202 749,201 749,200 749,199 749,198 749,197 749,196 749,195 749,194 749,193 749,192 749,191 749,190 749,189 749,188 749,187 749,186 749,185 749,184 749,183 749,182 749,181 749,180 749,179 749,178 749,177 749,176 749,175 749,174 749,173 749,172 749,171 749,170 749,169 749,168 749,167 749,166 749,165 749,164 749,163 749,162 749,161 749,160 749,159 749,158 749,157 749,156 749,155 749,154 749,153 749,152 749,151 749,150 749,149 749,148 749,147 749,146 749,145 749,144 749,143 749,142 749,141 749,140 749,139 749,138 749,137 749,136 749,135 749,134 749,133 749,132 749,131 749,130 749,129 749,128 749,127 749,126 750,125 749,124 749,123 749,122 749,121 749,120 749,119 749,118 748,118 747,118 746,118 745,118 744,117 743,117 742,118 741,118 740,117 739,117 738,117 737,117 736,117 735,117 734,117 733,117 732,117 731,117 730,117 729,117 728,117 727,117 726,117 725,117 724,117 723,117 722,117 721,117 720,117 719,117 718,117 717,117 716,117 715,117 714,117 713,117 712,117 711,117 710,117 709,117 708,117 707,117 706,117 705,117 704,117 703,117 702,117 701,117 700,117 699,117 698,117 697,117 696,117 695,117 694,117 693,117 692,117 691,117 690,117 689,117 688,117">
      <metadata tailDirection="" confidence="0.93" linkedToCharacter="" id="TetsuSan_006_balloon_14" tailTip=""></metadata>
    </polygon>
    <polygon points="432,116 431,117 430,117 429,117 429,118 429,119 429,120 429,121 429,122 429,123 429,124 429,125 429,126 429,127 429,128 429,129 429,130 429,131 429,132 429,133 429,134 429,135 429,136 429,137 429,138 429,139 429,140 429,141 429,142 429,143 429,144 429,145 429,146 429,147 429,148 429,149 429,150 429,151 429,152 429,153 429,154 429,155 429,156 429,157 429,158 429,159 429,160 429,161 429,162 429,163 429,164 429,165 429,166 429,167 429,168 429,169 429,170 429,171 429,172 429,173 429,174 429,175 429,176 429,177 429,178 429,179 429,180 429,181 429,182 429,183 429,184 429,185 429,186 429,187 429,188 429,189 429,190 429,191 429,192 429,193 429,194 429,195 429,196 429,197 429,198 429,199 429,200 429,201 429,202 429,203 429,204 429,205 429,206 429,207 429,208 429,209 429,210 429,211 429,212 429,213 429,214 429,215 429,216 429,217 429,218 429,219 429,220 429,221 429,222 429,223 429,224 429,225 429,226 429,227 429,228 429,229 429,230 429,231 429,232 429,233 429,234 429,235 429,236 429,237 429,238 429,239 429,240 429,241 429,242 429,243 429,244 429,245 429,246 429,247 429,248 429,249 429,250 429,251 429,252 429,253 429,254 429,255 429,256 429,257 429,258 429,259 429,260 429,261 429,262 429,263 429,264 429,265 429,266 429,267 429,268 429,269 429,270 429,271 429,272 429,273 429,274 429,275 429,276 429,277 429,278 429,279 429,280 429,281 429,282 429,283 429,284 429,285 429,286 429,287 429,288 429,289 429,290 429,291 429,292 429,293 429,294 429,295 429,296 429,297 429,298 429,299 429,300 430,299 431,298 432,297 433,297 434,297 435,296 436,296 437,296 438,296 439,296 440,296 441,296 442,296 443,296 444,297 445,297 446,298 447,299 448,300 449,301 450,302 450,303 451,304 451,305 451,304 452,303 453,302 454,301 455,300 456,299 457,298 458,298 459,297 460,297 461,296 462,296 463,296 464,296 465,296 466,296 467,296 468,296 469,296 470,297 471,297 472,298 473,298 473,297 474,296 474,295 474,294 475,293 475,292 475,291 476,290 476,289 476,288 477,287 477,286 478,285 478,284 479,283 479,282 480,281 480,280 481,279 482,278 482,277 483,276 483,275 484,274 485,273 486,272 487,271 488,270 489,269 490,268 491,267 492,267 493,266 494,266 495,265 496,265 497,265 497,264 497,263 497,262 497,261 497,260 496,259 496,258 496,257 496,256 496,255 495,254 495,253 495,252 495,251 495,250 495,249 495,248 495,247 495,246 495,245 495,244 495,243 495,242 495,241 495,240 495,239 496,238 496,237 496,236 496,235 496,234 496,233 496,232 497,231 497,230 497,229 498,228 498,227 498,226 499,225 499,224 499,223 500,222 501,221 502,221 501,220 500,219 500,218 499,217 499,216 498,215 498,214 498,213 497,212 497,211 497,210 496,209 496,208 496,207 496,206 496,205 496,204 496,203 496,202 496,201 496,200 496,199 496,198 496,197 496,196 496,195 496,194 497,193 497,192 497,191 498,190 498,189 498,188 498,187 498,186 497,185 497,184 497,183 497,182 497,181 496,180 496,179 496,178 496,177 496,176 496,175 496,174 496,173 495,172 495,171 495,170 495,169 495,168 495,167 495,166 495,165 495,164 495,163 495,162 495,161 495,160 495,159 496,158 496,157 496,156 496,155 496,154 496,153 496,152 497,151 497,150 497,149 497,148 498,147 497,147 496,146 495,146 494,145 493,144 492,143 491,142 491,141 490,140 490,139 490,138 489,137 489,136 489,135 488,134 488,133 488,132 488,131 488,130 488,129 488,128 488,127 488,126 488,125 488,124 488,123 488,122 488,121 488,120 488,119 488,118 488,117 489,116 488,116 487,117 486,116 485,116 484,116 483,116 482,116 481,116 480,116 479,116 478,116 477,116 476,116 475,116 474,116 473,116 472,116 471,116 470,116 469,116 468,116 467,116 466,116 465,116 464,116 463,116 462,116 461,116 460,116 459,116 458,116 457,116 456,116 455,116 454,116 453,116 452,116 451,116 450,116 449,116 448,116 447,116 446,116 445,116 444,116 443,116 442,116 441,116 440,116 439,116 438,116 437,116 436,116 435,116 434,116 433,116 432,116">
      <metadata tailDirection="" confidence="0.92" linkedToCharacter="" id="TetsuSan_006_balloon_15" tailTip=""></metadata>
    </polygon>
  </svg>
</svg>
