<?xml version="1.0" encoding="UTF-8" standalone="no"?>
<svg width="827" xmlns="http://www.w3.org/2000/svg" version="1.0" height="1170">
  <title>TetsuSan_051</title>
  <svg contentScriptType="text/ecmascript" zoomAndPan="magnify" contentStyleType="text/css" class="Page" preserveAspectRatio="xMidYMid meet" version="1.0">
    <image xmlns:xlink="http://www.w3.org/1999/xlink" x="0" y="0" width="827" height="1170" xlink:href="./../../dataset_Manga109/TetsuSan/TetsuSan_051.jpg" xlink:type="simple" xlink:actuate="onLoad" preserveAspectRatio="xMidYMid meet" xlink:show="embed"/>
  </svg>
  <style type="text/css" xml:space="preserve">
        * { stroke-linejoin: round; }
        .Unclassified   { fill: orange; stroke: none;   opacity: 1.0; visibility: hidden; }
        .Noise          { fill: pink;   stroke: none;   opacity: 0.2; visibility: hidden; }
        .Panel          { fill: none;   stroke: red;    stroke-width:3; opacity: 0.5; visibility: visible; image-rendering: optimizeSpeed; }
        .Line           { fill: green;  stroke: none;   opacity: 0.5; visibility: visible; image-rendering: optimizeSpeed; }
        .TextArea       { fill: grey;   stroke: none;   opacity: 0.2; visibility: visible; image-rendering: optimizeSpeed; }
        .Balloon        { fill: cyan;   stroke: none;   opacity: 0.5; visibility: visible; image-rendering: optimizeSpeed; }
        .Letter         { fill: blue;   stroke: none;   opacity: 0.2; visibility: hidden; }
        .Object, .Character, .Face  { fill: yellow; stroke: none;   opacity: 0.5; visibility: visible; image-rendering: optimizeSpeed; }
        .Page           { fill: white;  stroke: none;    opacity: 0.5; visibility: visible; }
        .linkSBSC { fill: blue; stroke: none; opacity: 1.0; visibility: visible; }
        polygon:hover { opacity:1.0; stroke:red; }
</style>
  <svg xmlns="http://www.w3.org/2000/svg" contentScriptType="text/ecmascript" zoomAndPan="magnify" contentStyleType="text/css" class="Balloon" preserveAspectRatio="xMidYMid meet" version="1.0">
    <polygon points="693,866 694,867 694,868 695,869 696,870 696,871 697,872 698,873 698,874 699,875 699,876 700,876 701,876 702,877 702,878 701,879 700,879 699,879 698,879 697,879 696,879 695,879 694,879 695,879 696,879 697,879 698,879 699,879 700,880 701,881 700,882 701,883 702,884 703,885 703,886 702,887 702,888 702,889 702,890 702,891 702,892 702,893 702,894 702,895 702,896 702,897 702,898 702,899 702,900 702,901 702,902 702,903 702,904 702,905 702,906 702,907 702,908 702,909 702,910 702,911 702,912 702,913 702,914 702,915 702,916 702,917 702,918 702,919 702,920 702,921 702,922 702,923 702,924 702,925 702,926 702,927 702,928 702,929 702,930 702,931 702,932 702,933 702,934 702,935 702,936 702,937 703,938 703,939 703,940 703,941 703,942 703,943 703,944 703,945 702,946 702,947 703,948 703,949 703,950 703,951 703,952 703,953 703,954 703,955 703,956 703,957 703,958 703,959 703,960 703,961 703,962 703,963 703,964 703,965 703,966 703,967 703,968 703,969 703,970 703,971 703,972 703,973 703,974 703,975 703,976 703,977 703,978 703,979 703,980 703,981 703,982 703,983 703,984 703,985 703,986 703,987 703,988 703,989 703,990 703,991 703,992 703,993 703,994 703,995 703,996 702,997 702,998 702,999 702,1000 702,1001 702,1002 702,1003 701,1004 700,1003 700,1002 700,1001 699,1000 698,1000 697,999 696,999 695,998 695,997 694,996 695,995 696,995 695,994 694,994 693,993 692,993 691,993 690,992 689,991 688,991 687,991 686,990 685,990 685,991 686,992 687,992 688,992 689,992 690,993 690,994 689,995 688,995 687,995 686,994 685,994 684,995 685,995 686,995 687,995 688,995 689,995 690,995 691,996 692,996 693,996 694,996 695,997 695,998 694,999 693,999 692,999 691,999 690,999 689,999 688,999 687,999 686,998 685,998 684,999 683,998 682,998 681,998 680,998 679,998 678,998 677,998 676,998 675,998 674,998 673,998 672,998 671,998 670,998 669,998 668,998 667,998 666,998 665,998 664,998 663,998 662,998 661,998 660,998 659,998 658,998 657,998 656,998 655,998 654,998 653,998 652,998 651,998 650,998 649,998 648,998 647,998 646,998 645,998 644,998 643,998 642,998 641,998 640,998 639,998 638,998 637,998 636,998 635,997 634,997 633,997 632,997 631,997 630,997 629,997 628,997 627,997 626,997 625,997 624,997 623,997 622,997 621,997 620,997 619,997 618,997 617,997 616,997 615,997 614,997 613,997 612,997 611,997 610,997 609,997 608,997 607,997 606,997 605,997 604,997 603,997 602,997 601,997 600,996 599,997 598,996 597,996 598,997 598,998 598,999 599,1000 599,1001 599,1002 600,1003 600,1004 600,1005 601,1005 601,1004 601,1003 601,1002 602,1001 603,1001 604,1000 605,1001 606,1001 607,1002 608,1003 609,1004 609,1005 610,1006 610,1007 611,1007 612,1007 613,1007 614,1007 615,1007 616,1007 617,1007 618,1007 619,1007 620,1007 621,1007 622,1007 623,1007 624,1007 625,1007 626,1007 627,1007 628,1007 629,1007 630,1007 631,1007 632,1007 633,1007 634,1007 635,1007 636,1007 637,1007 638,1007 639,1007 640,1007 641,1007 642,1007 643,1007 644,1007 645,1007 646,1007 647,1007 648,1007 649,1007 650,1007 651,1007 652,1007 653,1007 654,1007 655,1007 656,1007 657,1007 658,1007 659,1007 660,1007 661,1007 662,1007 663,1008 664,1008 665,1008 666,1008 667,1008 668,1008 669,1008 670,1008 671,1008 672,1008 673,1008 674,1008 675,1008 676,1008 677,1008 678,1008 679,1008 680,1008 681,1008 682,1008 683,1008 684,1008 685,1008 686,1008 687,1008 688,1008 689,1008 690,1008 691,1008 692,1008 693,1008 694,1008 695,1008 696,1008 697,1008 698,1008 698,1007 699,1006 699,1005 700,1004 701,1004 702,1005 702,1006 701,1007 700,1008 700,1009 699,1010 700,1010 701,1009 702,1009 703,1009 704,1009 705,1010 706,1011 706,1012 707,1013 708,1014 709,1015 709,1016 710,1017 710,1018 711,1019 712,1020 712,1021 713,1022 713,1023 714,1024 715,1025 715,1026 716,1027 716,1028 717,1029 718,1030 718,1031 719,1032 719,1033 718,1034 718,1035 717,1036 718,1035 719,1034 720,1034 721,1034 722,1034 722,1033 723,1032 724,1032 725,1032 726,1032 727,1032 728,1032 729,1032 730,1032 731,1032 732,1032 733,1032 734,1032 735,1032 736,1032 737,1032 738,1032 739,1032 740,1032 741,1032 742,1032 743,1032 744,1032 745,1032 746,1032 747,1032 748,1032 749,1032 750,1032 751,1032 752,1032 753,1032 754,1032 755,1033 755,1032 755,1031 754,1031 753,1031 752,1031 751,1031 750,1031 749,1031 748,1031 747,1031 746,1031 745,1031 744,1031 743,1031 742,1031 741,1031 740,1031 739,1031 738,1031 737,1031 736,1031 735,1031 734,1031 733,1031 732,1031 731,1031 730,1031 729,1031 728,1031 727,1031 726,1031 725,1031 724,1031 723,1031 722,1031 721,1030 720,1030 719,1029 718,1028 717,1027 717,1026 716,1025 715,1024 715,1023 714,1022 714,1021 713,1020 712,1019 712,1018 711,1017 710,1016 710,1015 709,1014 709,1013 708,1012 707,1011 707,1010 706,1009 705,1008 704,1007 704,1006 703,1005 704,1004 704,1003 703,1002 703,1001 703,1000 703,999 703,998 703,997 703,996 703,995 703,994 703,993 703,992 703,991 703,990 703,989 703,988 703,987 703,986 703,985 703,984 703,983 703,982 703,981 703,980 703,979 703,978 703,977 703,976 703,975 703,974 703,973 703,972 703,971 703,970 703,969 703,968 703,967 703,966 703,965 703,964 703,963 703,962 703,961 703,960 703,959 703,958 703,957 703,956 703,955 703,954 703,953 703,952 703,951 703,950 703,949 703,948 703,947 703,946 703,945 703,944 703,943 703,942 703,941 703,940 703,939 703,938 703,937 703,936 703,935 703,934 703,933 703,932 703,931 703,930 703,929 703,928 703,927 703,926 703,925 703,924 703,923 703,922 703,921 702,920 702,919 702,918 702,917 702,916 702,915 702,914 702,913 702,912 702,911 702,910 702,909 702,908 702,907 702,906 702,905 702,904 702,903 702,902 702,901 702,900 702,899 702,898 702,897 702,896 702,895 702,894 702,893 702,892 702,891 702,890 702,889 702,888 702,887 703,886 704,886 704,885 704,884 705,883 706,884 706,885 706,886 706,887 706,888 706,889 706,890 706,891 706,892 706,893 706,894 706,895 706,896 706,897 706,898 706,899 706,900 706,901 706,902 706,903 706,904 706,905 706,906 706,907 706,908 706,909 707,910 707,911 706,912 707,913 707,914 707,915 707,916 707,917 707,918 706,919 707,920 707,921 707,922 707,923 707,924 707,925 707,926 707,927 707,928 707,929 707,930 707,931 707,932 707,933 707,934 707,935 707,936 707,937 707,938 707,939 707,940 707,941 707,942 707,943 707,944 707,945 707,946 707,947 707,948 707,949 707,950 707,951 707,952 707,953 707,954 707,955 707,956 707,957 707,958 707,959 707,960 707,961 707,962 707,963 707,964 707,965 707,966 707,967 707,968 707,969 707,970 707,971 707,972 707,973 707,974 707,975 707,976 707,977 707,978 707,979 707,980 707,981 707,982 707,983 707,984 707,985 707,986 707,987 707,988 707,989 707,990 707,991 707,992 707,993 707,994 707,995 707,996 707,997 706,998 706,999 706,1000 706,1001 706,1002 707,1003 707,1004 708,1005 709,1006 709,1007 710,1008 710,1009 711,1010 712,1011 712,1012 713,1013 714,1014 714,1015 715,1016 716,1017 716,1018 717,1019 717,1020 718,1021 719,1022 719,1023 720,1024 721,1025 721,1026 722,1027 723,1026 724,1026 725,1026 726,1027 727,1027 728,1027 729,1027 730,1027 731,1027 732,1027 733,1027 734,1027 735,1027 736,1027 737,1027 738,1027 739,1027 740,1027 741,1027 742,1027 743,1027 744,1027 745,1027 746,1027 747,1027 748,1027 749,1027 750,1027 751,1027 752,1027 753,1027 754,1027 755,1027 755,1026 755,1025 755,1024 755,1023 755,1022 755,1021 755,1020 755,1019 755,1018 755,1017 755,1016 755,1015 755,1014 755,1013 755,1012 755,1011 755,1010 755,1009 755,1008 755,1007 755,1006 755,1005 755,1004 755,1003 755,1002 755,1001 755,1000 755,999 755,998 755,997 755,996 755,995 755,994 755,993 755,992 755,991 755,990 755,989 755,988 755,987 755,986 755,985 755,984 755,983 755,982 755,981 755,980 755,979 755,978 755,977 755,976 755,975 755,974 755,973 755,972 755,971 755,970 755,969 755,968 755,967 755,966 755,965 755,964 755,963 755,962 755,961 755,960 755,959 755,958 755,957 755,956 755,955 755,954 755,953 755,952 755,951 755,950 755,949 755,948 755,947 755,946 755,945 755,944 755,943 755,942 755,941 755,940 755,939 755,938 755,937 755,936 755,935 755,934 755,933 755,932 755,931 755,930 755,929 755,928 755,927 755,926 755,925 755,924 755,923 755,922 755,921 755,920 755,919 755,918 755,917 755,916 755,915 755,914 755,913 755,912 755,911 755,910 755,909 755,908 755,907 755,906 755,905 755,904 755,903 755,902 755,901 755,900 755,899 755,898 755,897 755,896 755,895 755,894 755,893 755,892 755,891 755,890 755,889 755,888 755,887 755,886 755,885 755,884 755,883 755,882 755,881 755,880 755,879 755,878 755,877 755,876 755,875 755,874 755,873 755,872 755,871 755,870 755,869 755,868 755,867 754,867 753,867 752,867 751,867 750,867 749,867 748,867 747,867 746,867 745,867 744,867 743,867 742,867 741,867 740,867 739,867 738,867 737,867 736,867 735,867 734,867 733,867 732,867 731,867 730,867 729,867 728,867 727,866 726,866 725,866 724,866 723,866 722,866 721,866 720,866 719,866 718,866 717,866 716,866 715,866 714,867 714,868 714,869 713,870 713,871 712,872 712,873 711,874 711,875 710,876 710,877 709,878 709,879 708,880 708,881 707,882 706,882 705,881 705,880 705,879 706,878 706,877 707,876 707,875 707,874 708,873 708,872 709,871 709,870 710,869 710,868 711,867 711,866 710,867 710,868 710,869 709,870 709,871 708,872 708,873 707,874 707,875 706,876 706,877 705,878 705,879 704,880 703,881 702,880 702,879 703,878 703,877 704,876 704,875 704,874 705,873 705,872 705,871 706,870 706,869 707,868 707,867 707,866 706,866 705,866 704,866 703,866 702,866 701,866 700,866 699,866 698,866 697,866 696,866 695,866 694,866 693,866">
      <metadata tailDirection="" confidence="0.87" linkedToCharacter="" id="TetsuSan_051_balloon_0" tailTip=""></metadata>
    </polygon>
    <polygon points="437,865 437,866 437,867 437,868 437,869 437,870 437,871 437,872 437,873 437,874 437,875 437,876 437,877 437,878 437,879 437,880 437,881 437,882 437,883 437,884 437,885 437,886 437,887 437,888 437,889 437,890 437,891 437,892 437,893 437,894 437,895 437,896 437,897 437,898 437,899 437,900 437,901 437,902 437,903 437,904 437,905 437,906 437,907 437,908 437,909 437,910 437,911 437,912 437,913 437,914 437,915 437,916 437,917 437,918 437,919 437,920 437,921 437,922 437,923 437,924 437,925 437,926 437,927 437,928 437,929 437,930 437,931 437,932 437,933 437,934 437,935 437,936 437,937 437,938 437,939 437,940 437,941 437,942 437,943 437,944 437,945 437,946 437,947 437,948 437,949 437,950 437,951 437,952 437,953 437,954 437,955 437,956 437,957 437,958 437,959 437,960 437,961 437,962 437,963 437,964 437,965 437,966 437,967 437,968 437,969 437,970 437,971 437,972 437,973 437,974 437,975 437,976 437,977 437,978 437,979 437,980 437,981 437,982 437,983 437,984 437,985 437,986 437,987 437,988 437,989 437,990 437,991 437,992 437,993 437,994 437,995 437,996 437,997 437,998 437,999 437,1000 437,1001 438,1001 439,1001 440,1001 441,1002 442,1002 443,1003 444,1004 444,1003 444,1002 445,1001 445,1000 446,999 446,998 447,997 448,996 448,995 449,994 450,993 451,993 452,992 453,991 454,991 455,991 456,991 457,991 458,992 459,993 459,994 460,995 460,996 460,997 460,998 460,999 460,1000 460,1001 461,1001 462,1001 463,1001 464,1001 465,1002 466,1002 467,1003 468,1004 469,1005 470,1006 470,1007 471,1008 471,1007 472,1006 473,1005 474,1004 475,1003 476,1003 477,1002 478,1002 479,1001 480,1001 481,1001 482,1001 483,1001 484,1001 485,1001 486,1002 486,1001 487,1000 487,999 488,998 489,997 490,996 491,996 492,995 493,994 494,994 495,993 496,993 497,992 498,991 498,990 498,989 498,988 498,987 498,986 498,985 498,984 498,983 498,982 498,981 498,980 499,979 499,978 499,977 499,976 499,975 500,974 500,973 500,972 500,971 501,970 501,969 502,968 502,967 503,966 503,965 504,964 505,963 504,962 503,961 503,960 502,959 502,958 501,957 501,956 501,955 501,954 500,953 500,952 500,951 500,950 500,949 500,948 500,947 500,946 500,945 500,944 500,943 500,942 500,941 500,940 500,939 501,938 501,937 502,936 502,935 503,934 503,933 503,932 502,931 501,930 501,929 500,928 500,927 500,926 499,925 499,924 499,923 499,922 498,921 498,920 498,919 498,918 498,917 498,916 498,915 498,914 498,913 498,912 498,911 498,910 498,909 498,908 498,907 498,906 498,905 499,904 499,903 499,902 499,901 499,900 499,899 500,898 500,897 500,896 499,896 498,895 497,894 496,893 495,892 494,891 494,890 493,889 493,888 493,887 492,886 492,885 492,884 492,883 492,882 492,881 492,880 492,879 492,878 492,877 492,876 492,875 492,874 493,873 493,872 493,871 493,870 493,869 494,868 494,867 494,866 495,865 494,865 493,865 492,865 491,865 490,865 489,865 488,865 487,865 486,865 485,865 484,865 483,865 482,865 481,865 480,865 479,865 478,865 477,865 476,865 475,865 474,865 473,865 472,865 471,865 470,865 469,865 468,865 467,865 466,865 465,865 464,865 463,865 462,865 461,865 460,865 459,865 458,865 457,865 456,865 455,865 454,865 453,865 452,865 451,865 450,865 449,865 448,865 447,865 446,865 445,865 444,865 443,865 442,865 441,865 440,865 439,865 438,865 437,865">
      <metadata tailDirection="" confidence="0.90" linkedToCharacter="" id="TetsuSan_051_balloon_1" tailTip=""></metadata>
    </polygon>
    <polygon points="338,864 337,865 337,866 336,867 336,868 335,869 335,870 334,871 334,872 333,873 332,874 332,875 331,876 331,877 330,878 329,878 328,879 328,880 328,881 328,882 328,883 328,884 328,885 328,886 328,887 328,888 328,889 328,890 328,891 328,892 328,893 328,894 328,895 328,896 328,897 328,898 328,899 328,900 328,901 328,902 328,903 329,904 328,905 328,906 328,907 329,908 329,909 329,910 329,911 329,912 329,913 329,914 329,915 329,916 329,917 329,918 329,919 329,920 329,921 329,922 329,923 329,924 329,925 329,926 329,927 329,928 329,929 329,930 329,931 329,932 329,933 329,934 329,935 329,936 329,937 329,938 329,939 329,940 329,941 329,942 329,943 329,944 329,945 329,946 329,947 329,948 329,949 329,950 329,951 329,952 329,953 329,954 329,955 329,956 329,957 329,958 329,959 329,960 329,961 329,962 329,963 329,964 329,965 329,966 329,967 329,968 329,969 329,970 329,971 329,972 329,973 329,974 329,975 329,976 329,977 329,978 329,979 329,980 329,981 329,982 329,983 330,984 330,985 330,986 330,987 330,988 330,989 330,990 330,991 330,992 330,993 330,994 330,995 330,996 330,997 330,998 330,999 330,1000 330,1001 330,1002 330,1003 330,1004 330,1005 330,1006 330,1007 330,1008 330,1009 330,1010 330,1011 330,1012 330,1013 330,1014 330,1015 330,1016 330,1017 330,1018 330,1019 330,1020 330,1021 330,1022 330,1023 330,1024 330,1025 330,1026 330,1027 330,1028 329,1029 329,1030 329,1031 328,1032 327,1033 328,1032 329,1032 330,1033 331,1034 331,1033 332,1032 333,1032 334,1033 334,1034 335,1035 335,1036 336,1037 337,1038 337,1039 338,1040 339,1041 339,1042 340,1043 341,1044 341,1045 342,1046 343,1047 343,1048 344,1049 343,1050 344,1051 344,1052 343,1053 342,1053 342,1054 342,1055 343,1054 343,1053 344,1052 345,1053 346,1053 347,1052 348,1052 349,1052 350,1051 351,1051 352,1052 353,1051 354,1051 355,1051 356,1051 357,1051 358,1051 359,1051 360,1051 361,1051 362,1051 363,1051 364,1051 365,1051 366,1051 367,1051 368,1051 369,1051 370,1051 371,1051 372,1051 373,1051 374,1051 375,1051 376,1051 377,1051 378,1051 379,1051 380,1051 381,1052 382,1052 383,1052 384,1052 385,1052 386,1052 387,1052 388,1052 389,1052 390,1051 391,1052 392,1052 393,1052 394,1052 395,1052 396,1052 397,1052 398,1052 398,1051 398,1050 397,1050 396,1050 395,1050 394,1050 393,1050 392,1050 391,1050 390,1050 389,1050 388,1050 387,1050 386,1050 385,1050 384,1050 383,1050 382,1050 381,1050 380,1049 379,1049 378,1049 377,1049 376,1049 375,1049 374,1049 373,1049 372,1049 371,1049 370,1049 369,1049 368,1049 367,1049 366,1049 365,1049 364,1049 363,1049 362,1049 361,1049 360,1049 359,1049 358,1049 357,1049 356,1049 355,1049 354,1049 353,1049 352,1049 351,1049 350,1049 349,1049 348,1048 348,1047 349,1046 350,1046 351,1046 352,1046 353,1046 354,1046 355,1046 356,1046 357,1046 358,1046 359,1046 360,1046 361,1046 362,1046 363,1046 364,1046 365,1046 366,1046 367,1046 368,1046 369,1046 370,1046 371,1046 372,1046 373,1046 374,1046 375,1046 376,1046 377,1046 378,1046 379,1046 380,1046 381,1046 382,1046 383,1046 384,1046 385,1046 386,1046 387,1046 388,1046 389,1046 390,1046 391,1046 392,1046 393,1046 394,1046 395,1046 396,1046 397,1045 398,1046 398,1045 398,1044 398,1043 398,1042 398,1041 398,1040 398,1039 398,1038 398,1037 398,1036 398,1035 398,1034 398,1033 398,1032 398,1031 398,1030 398,1029 398,1028 398,1027 398,1026 398,1025 398,1024 398,1023 398,1022 398,1021 398,1020 398,1019 398,1018 398,1017 398,1016 398,1015 398,1014 398,1013 398,1012 398,1011 398,1010 398,1009 398,1008 398,1007 398,1006 398,1005 398,1004 398,1003 398,1002 398,1001 398,1000 398,999 398,998 398,997 398,996 398,995 398,994 398,993 398,992 398,991 398,990 398,989 398,988 398,987 398,986 398,985 398,984 398,983 398,982 398,981 398,980 398,979 398,978 398,977 398,976 398,975 397,974 398,973 397,972 398,971 398,970 397,969 398,968 398,967 398,966 398,965 397,964 397,963 397,962 397,961 398,960 397,959 397,958 397,957 397,956 397,955 397,954 397,953 397,952 397,951 398,950 398,949 397,948 398,947 398,946 397,945 397,944 398,943 398,942 398,941 398,940 398,939 397,938 397,937 397,936 397,935 397,934 397,933 397,932 397,931 397,930 397,929 397,928 397,927 397,926 397,925 397,924 397,923 397,922 397,921 397,920 397,919 397,918 397,917 397,916 397,915 397,914 397,913 397,912 397,911 397,910 397,909 397,908 397,907 397,906 397,905 397,904 397,903 397,902 397,901 397,900 397,899 397,898 397,897 397,896 397,895 397,894 397,893 397,892 397,891 397,890 397,889 397,888 397,887 397,886 397,885 397,884 397,883 397,882 397,881 397,880 397,879 397,878 397,877 397,876 397,875 397,874 397,873 397,872 397,871 397,870 397,869 397,868 397,867 397,866 397,865 396,865 395,865 394,865 393,865 392,865 391,865 390,865 389,865 388,865 387,865 386,865 385,865 384,865 383,865 382,865 381,865 380,865 379,865 378,865 377,865 376,865 375,865 374,865 373,865 372,865 371,865 370,865 369,865 368,865 367,864 366,865 365,865 364,865 363,865 362,864 361,864 360,865 359,864 358,864 357,864 356,864 355,864 354,864 353,864 352,864 351,864 350,864 349,864 348,864 347,864 346,864 345,864 344,864 343,864 342,864 341,865 341,866 340,867 339,868 339,869 338,870 338,871 337,872 337,873 336,874 335,875 335,876 334,877 333,878 332,879 331,879 330,878 331,877 332,876 332,875 333,874 333,873 334,872 334,871 335,870 335,869 336,868 337,867 337,866 338,865 338,864">
      <metadata tailDirection="" confidence="0.94" linkedToCharacter="" id="TetsuSan_051_balloon_2" tailTip=""></metadata>
    </polygon>
    <polygon points="79,864 78,865 78,866 79,867 79,868 79,869 78,870 79,871 78,872 78,873 78,874 78,875 78,876 78,877 78,878 78,879 78,880 78,881 78,882 78,883 78,884 78,885 78,886 78,887 78,888 78,889 78,890 78,891 78,892 78,893 78,894 78,895 78,896 78,897 78,898 78,899 78,900 78,901 78,902 78,903 78,904 78,905 78,906 78,907 78,908 78,909 78,910 78,911 78,912 78,913 78,914 78,915 78,916 78,917 78,918 78,919 78,920 78,921 78,922 78,923 78,924 78,925 78,926 78,927 78,928 78,929 78,930 79,931 79,932 78,933 78,934 78,935 78,936 78,937 78,938 78,939 78,940 78,941 78,942 78,943 78,944 78,945 78,946 78,947 78,948 78,949 78,950 78,951 78,952 78,953 78,954 78,955 78,956 78,957 78,958 78,959 78,960 78,961 78,962 78,963 78,964 78,965 78,966 78,967 78,968 78,969 78,970 78,971 78,972 78,973 78,974 78,975 78,976 78,977 79,978 80,979 81,980 82,981 83,981 84,982 85,982 86,983 87,983 88,983 89,984 90,984 91,984 92,984 93,984 94,985 95,985 96,985 97,985 98,985 99,985 100,985 101,985 102,984 103,984 104,984 105,984 106,983 107,983 108,982 109,982 110,982 111,981 112,980 113,980 114,979 115,978 116,977 117,976 118,975 119,974 120,973 121,972 122,971 123,970 124,969 124,968 125,967 125,966 126,965 126,964 127,963 127,962 128,961 128,960 129,959 129,958 129,957 129,956 130,955 130,954 130,953 131,952 131,951 131,950 131,949 132,948 132,947 132,946 132,945 133,944 133,943 133,942 133,941 133,940 133,939 133,938 133,937 134,936 134,935 134,934 134,933 134,932 134,931 134,930 134,929 134,928 134,927 134,926 134,925 134,924 134,923 134,922 134,921 134,920 133,919 133,918 133,917 132,916 133,915 133,914 134,913 135,913 136,912 137,912 136,912 135,912 134,912 133,911 132,910 131,909 131,908 131,907 131,906 131,905 131,904 131,903 130,902 130,901 130,900 130,899 130,898 130,897 130,896 129,895 129,894 129,893 129,892 129,891 129,890 128,889 128,888 128,887 128,886 127,885 127,884 127,883 126,882 126,881 126,880 126,879 126,878 125,877 125,876 125,875 124,874 124,873 123,872 123,871 123,870 122,869 122,868 121,867 120,866 120,865 119,864 118,864 117,864 116,864 115,864 114,864 113,864 112,864 111,864 110,864 109,864 108,864 107,864 106,864 105,864 104,864 103,864 102,864 101,864 100,864 99,864 98,864 97,864 96,864 95,864 94,864 93,864 92,864 91,864 90,864 89,864 88,864 87,864 86,864 85,864 84,864 83,864 82,864 81,864 80,864 79,864">
      <metadata tailDirection="" confidence="0.86" linkedToCharacter="" id="TetsuSan_051_balloon_3" tailTip=""></metadata>
    </polygon>
    <polygon points="610,692 609,693 608,693 607,694 607,695 606,696 605,696 604,696 604,697 604,698 603,699 602,698 602,697 602,698 601,699 600,698 600,699 599,700 598,700 597,700 597,701 598,702 599,702 600,703 599,704 598,704 599,704 600,705 599,706 598,706 597,706 596,705 596,704 596,703 595,703 594,703 594,704 594,705 593,706 593,707 592,708 591,707 591,706 591,707 591,708 590,709 589,709 588,709 587,708 588,709 589,709 590,710 589,711 588,711 587,712 586,712 585,712 586,712 587,713 587,714 588,715 588,716 588,717 587,718 586,717 586,716 586,717 585,718 585,719 585,720 585,719 586,718 587,719 587,720 587,721 586,722 586,723 586,722 587,721 588,722 588,723 588,724 587,725 587,726 588,727 589,727 590,728 589,729 590,730 590,731 591,732 591,733 590,734 589,733 588,733 587,732 587,731 586,730 586,729 585,728 585,727 584,726 584,725 584,726 585,727 585,728 586,729 586,730 587,731 586,732 587,733 586,734 586,735 587,735 588,736 587,737 587,738 587,739 587,740 586,741 586,742 587,743 586,744 587,745 587,746 587,747 586,748 586,749 586,750 587,751 587,752 586,753 586,754 586,755 586,756 586,757 585,758 586,758 587,759 586,760 586,761 586,762 585,763 585,764 585,765 585,766 586,767 585,768 584,768 584,769 584,770 583,771 583,772 583,773 582,774 582,775 582,774 583,773 584,774 584,775 584,776 583,777 583,778 583,779 584,780 584,781 584,782 584,783 584,784 585,785 584,786 585,786 586,787 586,788 585,789 584,790 585,790 585,789 586,788 587,787 588,788 588,789 589,790 590,790 591,790 592,789 593,790 594,789 595,790 596,790 597,790 598,790 599,790 600,789 601,790 602,790 603,790 604,790 605,790 606,789 607,789 608,790 609,790 610,790 610,789 610,788 610,787 610,786 609,785 610,784 609,784 608,783 609,782 610,781 610,780 609,779 610,778 611,778 611,777 611,776 612,775 613,775 614,774 615,774 615,773 616,772 617,772 618,771 618,770 618,769 617,768 617,767 617,766 616,765 616,764 615,763 614,762 614,761 615,760 615,759 615,758 614,757 615,756 615,755 616,754 615,753 616,752 616,751 616,750 616,749 616,748 615,747 616,746 617,746 616,745 616,744 616,743 616,742 615,741 616,740 616,739 616,738 616,737 616,736 615,735 616,734 617,733 617,732 616,731 615,730 615,729 615,728 616,727 616,726 616,725 616,724 616,723 617,722 617,721 617,720 617,721 616,722 615,721 615,720 615,719 616,718 617,718 616,717 617,716 617,715 617,714 617,713 617,712 616,711 617,710 617,709 617,708 616,707 616,706 616,705 616,704 615,703 615,702 614,701 613,700 613,701 612,702 611,701 611,700 610,699 610,698 610,697 611,696 612,697 612,698 612,697 611,696 611,695 611,694 610,693 610,692">
      <metadata tailDirection="" confidence="0.91" linkedToCharacter="" id="TetsuSan_051_balloon_4" tailTip=""></metadata>
    </polygon>
    <polygon points="475,503 474,504 473,504 472,504 471,505 470,506 469,506 468,506 467,506 466,507 465,508 464,508 463,508 462,507 461,508 460,508 459,509 458,509 457,509 456,509 455,508 454,509 453,509 452,510 451,509 452,510 452,511 452,512 452,513 452,514 451,515 451,516 452,517 452,518 453,519 453,520 453,521 452,522 452,523 453,524 453,525 453,526 453,527 453,528 453,529 452,530 453,531 453,532 453,533 453,534 453,535 453,536 454,537 453,538 453,539 453,540 453,541 454,542 453,543 453,544 454,545 454,546 454,547 454,548 454,549 453,550 452,551 451,551 450,551 449,551 448,551 447,550 446,550 445,549 444,548 444,547 444,546 443,546 442,546 441,546 440,545 439,545 438,545 437,546 436,547 436,548 436,549 436,550 436,551 436,552 436,553 436,554 436,555 437,556 437,557 438,558 438,559 438,560 439,561 439,562 440,563 441,564 442,565 443,566 444,567 445,568 446,568 447,569 448,569 449,569 450,569 451,568 452,567 452,566 452,565 453,564 453,563 454,562 455,563 455,564 455,565 455,566 455,567 454,568 454,569 454,570 453,571 452,572 451,572 450,573 451,574 451,575 452,576 452,577 452,578 453,579 453,580 454,581 454,582 454,583 454,584 455,585 455,586 455,587 455,588 455,589 456,590 457,590 458,591 459,591 460,591 461,591 462,592 463,592 464,592 465,593 466,593 467,594 468,595 469,595 470,596 471,596 472,596 473,595 473,594 473,593 474,592 475,591 476,592 476,593 476,594 476,595 475,596 475,597 476,598 477,599 478,599 479,599 480,599 481,599 482,599 483,599 484,599 485,599 486,599 487,598 487,597 487,596 487,595 488,594 488,593 488,592 488,591 489,590 490,591 491,592 491,593 491,594 490,595 490,596 490,597 490,598 491,599 492,599 493,598 494,598 494,597 494,596 494,595 494,594 495,593 495,592 495,591 495,590 495,589 495,588 495,587 495,586 495,585 495,584 495,583 495,582 495,581 495,580 496,579 496,578 495,578 494,578 493,578 492,579 491,579 490,579 489,579 488,580 487,580 486,580 485,580 484,580 483,580 482,579 481,578 481,577 481,576 482,575 483,576 484,577 485,577 486,577 487,576 488,576 489,576 490,576 491,575 492,575 493,575 494,575 495,574 496,574 497,574 497,573 496,573 495,574 494,574 493,574 492,574 491,574 490,574 489,574 488,575 487,575 486,575 485,576 484,576 483,576 482,575 482,574 483,573 484,572 485,572 486,572 487,571 488,571 489,570 490,570 491,569 492,569 493,568 494,567 495,566 496,566 497,566 498,567 498,566 497,565 497,564 497,563 497,562 497,561 497,560 497,559 496,558 496,557 497,556 497,555 497,554 497,553 498,552 499,551 500,551 501,550 502,549 502,548 502,547 501,546 500,545 499,544 498,543 497,542 496,541 496,540 495,539 495,538 494,537 494,536 493,535 492,534 492,533 491,532 490,531 490,530 489,529 488,528 488,527 487,526 487,525 488,524 487,523 487,522 487,521 487,520 486,519 486,518 486,517 485,516 484,515 483,514 483,513 482,512 481,511 480,510 480,509 479,508 478,507 477,506 477,505 476,504 475,503">
      <metadata tailDirection="" confidence="0.80" linkedToCharacter="" id="TetsuSan_051_balloon_5" tailTip=""></metadata>
    </polygon>
    <polygon points="444,372 443,373 442,373 441,373 440,373 439,373 438,373 437,373 436,373 436,374 436,375 436,376 436,377 436,378 436,379 436,380 436,381 436,382 436,383 436,384 436,385 436,386 436,387 436,388 436,389 436,390 436,391 436,392 436,393 436,394 436,395 436,396 436,397 436,398 436,399 436,400 436,401 436,402 436,403 436,404 436,405 436,406 436,407 436,408 436,409 436,410 436,411 435,412 436,413 436,414 436,415 436,416 436,417 436,418 436,419 436,420 436,421 436,422 436,423 436,424 436,425 436,426 436,427 436,428 436,429 436,430 436,431 436,432 436,433 436,434 436,435 436,436 436,437 436,438 436,439 436,440 436,441 436,442 436,443 436,444 436,445 436,446 436,447 436,448 436,449 436,450 436,451 436,452 436,453 436,454 436,455 436,456 436,457 436,458 435,459 436,460 436,461 436,462 436,463 435,464 436,465 435,466 436,467 436,468 436,469 435,470 436,471 436,472 436,473 436,474 435,475 436,476 436,477 436,478 436,479 435,480 435,481 435,482 435,483 435,484 435,485 435,486 435,487 436,488 435,489 435,490 435,491 435,492 435,493 436,494 437,494 438,495 439,496 440,496 441,497 442,497 443,497 444,498 445,498 446,498 447,498 448,499 449,499 450,499 451,499 452,499 453,499 454,499 455,499 456,499 457,499 458,499 459,499 460,499 461,499 462,499 463,499 464,498 465,498 466,498 467,498 468,497 469,497 470,496 471,496 472,495 473,495 474,494 475,494 476,493 477,493 478,492 479,492 480,491 481,490 482,490 483,489 484,488 485,487 486,486 487,485 488,484 489,483 490,482 491,482 492,481 493,481 494,482 495,482 496,482 495,481 494,480 493,479 493,478 493,477 494,476 494,475 495,474 495,473 496,472 496,471 496,470 497,469 497,468 497,467 497,466 498,465 498,464 498,463 498,462 499,461 499,460 499,459 500,458 500,457 500,456 500,455 500,454 500,453 500,452 501,451 501,450 501,449 501,448 501,447 501,446 501,445 501,444 501,443 501,442 501,441 502,440 502,439 502,438 502,437 502,436 502,435 502,434 501,433 501,432 501,431 501,430 501,429 501,428 501,427 501,426 501,425 501,424 500,423 500,422 500,421 500,420 500,419 500,418 499,417 499,416 499,415 499,414 499,413 499,412 498,411 498,410 498,409 498,408 498,407 497,406 497,405 497,404 496,403 496,402 496,401 495,400 495,399 495,398 494,397 494,396 493,395 493,394 492,393 492,392 491,391 491,390 490,389 490,388 490,387 490,386 489,385 489,384 488,383 487,382 487,381 486,380 486,379 485,378 485,377 485,376 484,375 483,374 482,373 482,372 481,372 480,372 479,372 478,372 477,373 476,372 475,372 474,372 473,372 472,372 471,372 470,372 469,372 468,372 467,372 466,372 465,372 464,373 463,372 462,372 461,372 460,372 459,372 458,372 457,372 456,372 455,372 454,372 453,372 452,372 451,373 450,372 449,372 448,373 447,372 446,372 445,372 444,372">
      <metadata tailDirection="" confidence="0.89" linkedToCharacter="" id="TetsuSan_051_balloon_6" tailTip=""></metadata>
    </polygon>
    <polygon points="335,371 335,372 334,373 334,374 334,375 333,376 333,377 333,378 332,379 332,380 332,381 332,382 331,383 331,384 331,385 331,386 331,387 330,388 330,389 330,390 330,391 330,392 330,393 330,394 329,395 329,396 329,397 329,398 329,399 329,400 329,401 329,402 329,403 329,404 329,405 328,406 328,407 328,408 328,409 328,410 328,411 328,412 328,413 328,414 328,415 328,416 328,417 328,418 328,419 328,420 328,421 328,422 328,423 328,424 328,425 328,426 328,427 328,428 328,429 328,430 327,431 327,432 327,433 327,434 327,435 327,436 327,437 327,438 327,439 327,440 327,441 327,442 327,443 327,444 327,445 327,446 327,447 327,448 327,449 327,450 327,451 327,452 327,453 327,454 327,455 328,456 328,457 328,458 328,459 327,460 326,461 325,462 324,462 323,462 322,462 321,462 321,463 322,463 323,464 324,464 325,464 326,464 327,465 327,466 327,467 327,468 327,469 326,470 326,471 326,472 326,473 326,474 326,475 326,476 326,477 326,478 326,479 326,480 326,481 326,482 326,483 326,484 326,485 326,486 326,487 326,488 326,489 326,490 326,491 326,492 326,493 326,494 326,495 326,496 326,497 327,498 327,499 327,500 327,501 327,502 327,503 327,504 327,505 327,506 327,507 327,508 327,509 327,510 327,511 327,512 327,513 327,514 328,515 328,516 328,517 328,518 328,519 328,520 328,521 328,522 328,523 328,524 329,525 329,526 329,527 329,528 329,529 329,530 329,531 329,532 330,533 330,534 330,535 330,536 330,537 330,538 331,539 331,540 331,541 331,542 331,543 331,544 331,545 331,546 332,547 332,548 332,549 332,550 332,551 332,552 333,553 333,554 333,555 333,556 334,557 334,558 334,559 334,560 334,561 335,562 335,563 335,564 335,565 335,566 336,567 336,568 336,569 336,570 336,571 337,572 337,573 337,574 338,575 338,576 338,577 338,578 339,579 339,580 339,581 339,582 340,583 340,584 340,585 341,586 341,587 341,588 342,589 342,590 342,591 343,592 343,593 344,594 345,595 345,596 345,597 346,598 346,599 347,599 348,599 349,599 350,599 351,599 352,599 353,599 354,599 355,599 356,599 357,599 358,599 359,599 360,599 361,599 362,599 363,599 364,599 365,599 366,599 367,599 368,599 369,599 370,599 371,599 372,599 373,599 374,599 375,599 376,599 377,599 378,599 379,599 380,599 381,599 382,599 383,599 384,599 385,599 386,599 387,599 388,599 389,599 390,599 391,599 392,599 393,599 394,599 395,599 395,598 395,597 395,596 395,595 395,594 395,593 395,592 395,591 395,590 395,589 395,588 395,587 395,586 395,585 395,584 395,583 395,582 395,581 395,580 395,579 395,578 395,577 395,576 395,575 395,574 395,573 395,572 395,571 395,570 395,569 395,568 395,567 395,566 395,565 395,564 395,563 395,562 395,561 395,560 395,559 395,558 395,557 395,556 395,555 395,554 395,553 395,552 395,551 395,550 395,549 395,548 395,547 395,546 395,545 395,544 395,543 395,542 395,541 395,540 395,539 395,538 395,537 395,536 395,535 395,534 395,533 395,532 395,531 395,530 395,529 395,528 395,527 395,526 395,525 395,524 395,523 395,522 395,521 395,520 395,519 395,518 395,517 395,516 395,515 395,514 395,513 395,512 395,511 395,510 395,509 395,508 395,507 395,506 395,505 395,504 395,503 395,502 395,501 395,500 395,499 395,498 395,497 395,496 395,495 395,494 395,493 395,492 395,491 395,490 395,489 395,488 395,487 395,486 395,485 395,484 395,483 395,482 395,481 395,480 395,479 395,478 395,477 395,476 395,475 395,474 395,473 395,472 395,471 395,470 395,469 395,468 395,467 395,466 395,465 395,464 395,463 395,462 395,461 395,460 395,459 395,458 395,457 395,456 395,455 395,454 395,453 395,452 395,451 395,450 395,449 395,448 395,447 395,446 395,445 395,444 395,443 395,442 395,441 395,440 395,439 395,438 395,437 395,436 395,435 395,434 395,433 395,432 395,431 395,430 395,429 395,428 395,427 395,426 395,425 395,424 395,423 395,422 395,421 395,420 395,419 395,418 395,417 395,416 395,415 395,414 395,413 395,412 395,411 395,410 395,409 395,408 395,407 395,406 395,405 395,404 395,403 395,402 395,401 395,400 395,399 395,398 395,397 395,396 395,395 395,394 395,393 395,392 395,391 395,390 395,389 395,388 395,387 395,386 395,385 395,384 395,383 395,382 395,381 395,380 395,379 395,378 395,377 395,376 395,375 395,374 395,373 395,372 394,372 393,372 392,372 391,372 390,372 389,372 388,372 387,372 386,372 385,372 384,372 383,371 382,371 381,371 380,371 379,371 378,371 377,371 376,371 375,371 374,371 373,371 372,371 371,371 370,371 369,371 368,371 367,371 366,371 365,371 364,371 363,371 362,371 361,371 360,371 359,372 358,372 357,372 356,371 355,371 354,371 353,371 352,371 351,371 350,371 349,371 348,371 347,371 346,372 345,372 344,372 343,371 342,371 341,371 340,371 339,371 338,371 337,371 336,371 335,371">
      <metadata tailDirection="" confidence="0.86" linkedToCharacter="" id="TetsuSan_051_balloon_7" tailTip=""></metadata>
    </polygon>
    <polygon points="616,125 617,126 617,127 617,128 617,129 617,130 617,131 617,132 617,133 617,134 617,135 617,136 617,137 617,138 617,139 617,140 617,141 617,142 617,143 617,144 618,144 619,144 620,144 621,143 622,143 623,143 624,143 625,144 626,144 627,144 628,145 629,145 630,146 631,147 632,147 633,146 634,146 635,145 636,145 637,145 638,144 639,144 640,144 641,143 642,144 643,144 644,144 645,144 646,144 647,144 648,145 649,145 650,145 651,145 652,145 653,146 654,146 655,146 656,146 657,147 658,147 659,147 660,147 661,148 662,148 663,148 664,148 665,148 666,149 667,149 668,149 669,149 670,150 670,149 670,148 671,147 670,146 670,145 670,144 671,143 670,142 670,141 671,140 671,139 671,138 672,137 673,137 674,137 675,136 676,136 677,136 678,136 679,136 680,137 681,137 682,137 683,137 684,138 684,139 684,140 684,141 684,142 684,143 684,144 684,145 684,146 684,147 684,148 684,149 684,150 684,151 684,152 685,152 685,151 685,150 685,149 685,148 686,147 686,146 686,145 686,144 686,143 687,142 687,141 687,140 687,139 687,138 687,137 687,136 688,135 688,134 688,133 689,132 689,131 689,130 690,129 690,128 690,127 691,126 692,125 693,126 693,127 693,128 692,129 692,130 692,131 691,132 691,133 691,134 691,135 690,136 690,137 690,138 690,139 690,140 690,141 689,142 689,143 689,144 689,145 689,146 689,147 688,148 688,149 688,150 688,151 688,152 688,153 688,154 687,155 687,156 687,157 687,158 687,159 687,160 687,161 687,162 687,163 687,164 687,165 687,166 687,167 687,168 687,169 687,170 687,171 687,172 687,173 687,174 687,175 687,176 687,177 687,178 687,179 687,180 687,181 687,182 687,183 687,184 687,185 687,186 687,187 687,188 686,189 685,189 684,189 683,189 682,189 681,188 681,189 682,189 683,189 684,190 685,191 686,191 687,192 687,193 687,194 687,195 686,196 686,197 686,198 686,199 686,200 686,201 686,202 686,203 686,204 686,205 685,206 685,207 685,208 685,209 685,210 685,211 685,212 685,213 685,214 685,215 685,216 685,217 685,218 685,219 685,220 685,221 685,222 685,223 685,224 685,225 685,226 685,227 685,228 685,229 685,230 685,231 685,232 685,233 685,234 685,235 685,236 685,237 685,238 685,239 685,240 685,241 685,242 685,243 685,244 685,245 685,246 686,247 686,248 686,249 686,250 686,251 686,252 686,253 686,254 686,255 686,256 686,257 686,258 686,259 686,260 687,261 687,262 687,263 687,264 687,265 687,266 687,267 687,268 687,269 687,270 688,271 688,272 688,273 688,274 688,275 688,276 688,277 689,278 689,279 689,280 690,281 690,282 690,283 690,284 691,285 691,286 691,287 691,288 692,289 692,290 692,291 693,292 693,293 693,294 694,295 694,296 694,297 695,298 695,299 696,300 696,301 697,302 697,303 697,304 698,305 698,306 698,307 699,308 699,309 700,310 701,311 702,312 702,313 703,314 704,315 705,316 706,317 707,318 708,319 709,320 710,321 711,322 712,322 713,323 714,324 715,324 716,325 717,325 718,326 719,326 720,327 721,327 722,328 723,328 724,328 725,329 726,329 727,329 728,329 729,329 730,329 731,330 732,330 733,329 734,330 735,330 736,330 737,330 738,330 739,330 740,330 741,330 742,330 743,330 744,330 745,329 746,329 747,329 748,329 749,329 750,328 751,328 752,327 753,327 754,326 755,325 755,324 755,323 755,322 755,321 755,320 755,319 755,318 755,317 755,316 754,315 754,314 754,313 755,312 755,311 755,310 755,309 755,308 755,307 755,306 755,305 755,304 755,303 755,302 755,301 755,300 755,299 755,298 755,297 755,296 755,295 755,294 755,293 755,292 755,291 755,290 755,289 755,288 755,287 755,286 755,285 755,284 755,283 755,282 755,281 755,280 755,279 755,278 755,277 755,276 755,275 755,274 755,273 755,272 755,271 755,270 755,269 755,268 755,267 755,266 755,265 755,264 755,263 755,262 755,261 755,260 755,259 755,258 755,257 755,256 755,255 755,254 755,253 755,252 755,251 755,250 755,249 755,248 755,247 755,246 755,245 755,244 755,243 755,242 755,241 755,240 755,239 755,238 755,237 755,236 755,235 755,234 755,233 755,232 755,231 755,230 755,229 755,228 755,227 755,226 755,225 755,224 755,223 755,222 755,221 755,220 755,219 755,218 755,217 755,216 755,215 755,214 755,213 755,212 755,211 755,210 755,209 755,208 755,207 755,206 755,205 755,204 755,203 755,202 755,201 755,200 755,199 755,198 755,197 755,196 755,195 755,194 755,193 755,192 755,191 755,190 755,189 755,188 755,187 755,186 755,185 755,184 755,183 755,182 755,181 755,180 755,179 755,178 755,177 755,176 755,175 755,174 755,173 755,172 755,171 755,170 755,169 755,168 755,167 755,166 755,165 755,164 755,163 755,162 755,161 755,160 755,159 755,158 755,157 755,156 755,155 755,154 755,153 755,152 755,151 755,150 755,149 755,148 755,147 755,146 755,145 755,144 755,143 755,142 755,141 755,140 755,139 755,138 755,137 755,136 755,135 755,134 755,133 755,132 755,131 755,130 755,129 755,128 755,127 755,126 755,125 754,126 753,125 752,125 751,125 750,125 749,125 748,125 747,125 746,125 745,125 744,125 743,125 742,125 741,125 740,125 739,125 738,125 737,125 736,125 735,125 734,125 733,125 732,125 731,125 730,125 729,125 728,125 727,125 726,125 725,125 724,125 723,125 722,125 721,125 720,125 719,125 718,125 717,125 716,125 715,125 714,125 713,125 712,125 711,125 710,125 709,125 708,125 707,125 706,125 705,125 704,125 703,125 702,125 701,125 700,125 699,125 698,125 697,125 696,125 695,125 694,125 693,125 692,125 691,125 690,125 689,125 688,125 687,125 686,125 685,125 684,125 683,125 682,125 681,125 680,125 679,125 678,125 677,125 676,125 675,125 674,125 673,125 672,125 671,125 670,125 669,125 668,125 667,125 666,125 665,125 664,125 663,125 662,125 661,125 660,125 659,125 658,125 657,125 656,125 655,125 654,125 653,125 652,125 651,125 650,125 649,125 648,125 647,125 646,125 645,125 644,125 643,125 642,125 641,125 640,125 639,125 638,125 637,125 636,125 635,125 634,125 633,125 632,125 631,125 630,125 629,125 628,125 627,125 626,125 625,125 624,125 623,125 622,125 621,125 620,125 619,125 618,125 617,125 616,125">
      <metadata tailDirection="" confidence="0.85" linkedToCharacter="" id="TetsuSan_051_balloon_8" tailTip=""></metadata>
    </polygon>
    <polygon points="332,125 331,126 331,127 331,128 330,129 330,130 330,131 330,132 329,133 329,134 329,135 329,136 329,137 328,138 328,139 328,140 328,141 328,142 328,143 328,144 328,145 328,146 328,147 327,148 327,149 327,150 327,151 327,152 327,153 327,154 327,155 327,156 327,157 326,158 326,159 326,160 326,161 326,162 326,163 326,164 326,165 326,166 326,167 325,168 325,169 325,170 325,171 325,172 325,173 325,174 325,175 325,176 325,177 325,178 325,179 325,180 325,181 325,182 325,183 325,184 325,185 325,186 325,187 325,188 325,189 325,190 325,191 325,192 325,193 325,194 325,195 325,196 325,197 324,198 324,199 325,200 325,201 324,202 324,203 324,204 324,205 324,206 324,207 324,208 324,209 324,210 324,211 324,212 324,213 324,214 324,215 324,216 324,217 324,218 324,219 324,220 324,221 324,222 324,223 324,224 325,225 325,226 325,227 325,228 325,229 325,230 325,231 326,232 326,233 326,234 326,235 325,236 324,237 323,238 322,238 321,238 320,238 319,238 320,238 321,239 322,239 323,239 324,239 325,240 326,241 325,242 325,243 325,244 325,245 325,246 325,247 325,248 325,249 325,250 325,251 325,252 325,253 325,254 325,255 325,256 325,257 325,258 325,259 325,260 325,261 325,262 325,263 325,264 325,265 325,266 325,267 325,268 325,269 325,270 325,271 325,272 325,273 326,274 326,275 326,276 326,277 326,278 326,279 326,280 326,281 326,282 326,283 327,284 327,285 327,286 327,287 327,288 327,289 327,290 327,291 327,292 327,293 328,294 328,295 328,296 328,297 328,298 328,299 328,300 328,301 329,302 329,303 329,304 329,305 329,306 329,307 329,308 329,309 330,310 330,311 330,312 330,313 330,314 330,315 330,316 331,317 331,318 331,319 331,320 331,321 331,322 331,323 331,324 332,325 332,326 332,327 332,328 332,329 333,330 333,331 333,332 333,333 334,334 334,335 334,336 335,337 335,338 335,339 336,340 336,341 336,342 337,343 337,344 338,345 338,346 339,347 339,348 340,349 341,350 342,351 343,352 343,353 344,354 345,354 346,354 347,354 348,354 349,354 350,354 351,354 352,354 353,354 354,354 355,354 356,354 357,354 358,354 359,354 360,354 361,354 362,354 363,354 364,354 365,354 366,354 367,354 368,354 369,354 370,354 371,354 372,354 373,354 374,354 375,354 376,354 377,354 378,354 379,354 380,354 381,354 382,354 383,354 384,354 385,354 386,354 387,354 388,354 389,354 390,354 391,354 392,354 393,354 394,354 395,354 395,353 395,352 395,351 395,350 395,349 395,348 395,347 395,346 395,345 395,344 395,343 395,342 395,341 395,340 395,339 395,338 395,337 395,336 395,335 395,334 395,333 395,332 395,331 395,330 395,329 395,328 395,327 395,326 395,325 395,324 395,323 395,322 395,321 395,320 395,319 395,318 395,317 395,316 395,315 395,314 395,313 395,312 395,311 395,310 395,309 395,308 395,307 395,306 395,305 395,304 395,303 395,302 395,301 395,300 395,299 395,298 395,297 395,296 395,295 395,294 395,293 395,292 395,291 395,290 395,289 395,288 395,287 395,286 395,285 395,284 395,283 395,282 395,281 395,280 395,279 395,278 395,277 395,276 395,275 395,274 395,273 395,272 395,271 395,270 395,269 395,268 395,267 395,266 395,265 395,264 395,263 395,262 395,261 395,260 395,259 395,258 395,257 395,256 396,255 395,254 395,253 395,252 395,251 395,250 395,249 395,248 395,247 395,246 395,245 395,244 395,243 395,242 395,241 395,240 395,239 395,238 395,237 395,236 395,235 395,234 395,233 395,232 395,231 395,230 395,229 395,228 395,227 395,226 395,225 395,224 395,223 395,222 395,221 395,220 395,219 395,218 395,217 395,216 395,215 395,214 395,213 395,212 395,211 395,210 395,209 395,208 395,207 395,206 395,205 395,204 395,203 395,202 395,201 395,200 395,199 395,198 395,197 395,196 395,195 395,194 395,193 395,192 395,191 395,190 395,189 395,188 395,187 395,186 395,185 395,184 395,183 395,182 395,181 395,180 395,179 396,178 395,177 395,176 395,175 395,174 395,173 395,172 395,171 395,170 395,169 395,168 395,167 395,166 396,165 395,164 395,163 395,162 395,161 395,160 396,159 396,158 395,157 395,156 395,155 395,154 396,153 396,152 396,151 396,150 396,149 396,148 396,147 396,146 396,145 396,144 396,143 396,142 396,141 396,140 396,139 396,138 396,137 396,136 396,135 396,134 396,133 396,132 396,131 396,130 396,129 396,128 396,127 396,126 395,125 394,125 393,125 392,125 391,125 390,125 389,125 388,125 387,125 386,125 385,125 384,125 383,125 382,125 381,125 380,125 379,125 378,125 377,125 376,125 375,125 374,125 373,125 372,125 371,125 370,125 369,125 368,125 367,125 366,125 365,125 364,125 363,125 362,125 361,125 360,125 359,125 358,125 357,125 356,125 355,125 354,125 353,125 352,125 351,125 350,125 349,125 348,125 347,125 346,125 345,125 344,125 343,125 342,125 341,125 340,125 339,125 338,125 337,125 336,125 335,125 334,125 333,125 332,125">
      <metadata tailDirection="" confidence="0.94" linkedToCharacter="" id="TetsuSan_051_balloon_9" tailTip=""></metadata>
    </polygon>
    <polygon points="104,125 103,126 102,126 101,126 100,126 99,126 98,126 97,126 96,126 95,126 94,126 93,126 92,126 91,126 90,126 89,126 88,126 87,126 86,126 85,126 84,126 83,126 82,126 81,126 80,126 79,126 78,126 77,126 77,127 77,128 77,129 77,130 77,131 77,132 77,133 77,134 77,135 77,136 77,137 77,138 77,139 77,140 77,141 77,142 77,143 77,144 77,145 77,146 77,147 77,148 77,149 77,150 77,151 77,152 77,153 77,154 77,155 77,156 77,157 77,158 77,159 77,160 77,161 77,162 77,163 77,164 77,165 77,166 77,167 77,168 77,169 77,170 77,171 77,172 77,173 77,174 77,175 77,176 77,177 77,178 77,179 77,180 77,181 77,182 77,183 77,184 77,185 77,186 77,187 77,188 77,189 77,190 77,191 77,192 77,193 77,194 77,195 77,196 77,197 77,198 77,199 77,200 77,201 77,202 77,203 77,204 77,205 77,206 77,207 77,208 77,209 77,210 77,211 77,212 77,213 77,214 77,215 77,216 77,217 77,218 77,219 77,220 77,221 77,222 77,223 77,224 77,225 77,226 77,227 77,228 77,229 77,230 77,231 77,232 77,233 77,234 77,235 77,236 77,237 77,238 77,239 77,240 77,241 77,242 77,243 77,244 77,245 77,246 77,247 77,248 77,249 77,250 77,251 77,252 77,253 77,254 77,255 77,256 77,257 77,258 77,259 77,260 77,261 77,262 77,263 77,264 77,265 77,266 77,267 77,268 77,269 77,270 77,271 77,272 77,273 77,274 77,275 77,276 77,277 77,278 77,279 77,280 77,281 77,282 77,283 77,284 77,285 77,286 77,287 77,288 77,289 77,290 77,291 77,292 77,293 77,294 77,295 77,296 77,297 77,298 77,299 77,300 77,301 77,302 77,303 77,304 77,305 77,306 77,307 77,308 77,309 77,310 77,311 77,312 78,312 79,313 80,314 81,315 82,315 83,316 84,317 85,317 86,317 87,316 88,316 89,316 90,315 91,314 92,313 93,313 94,313 95,313 96,313 97,313 98,314 99,314 100,314 101,315 102,315 103,316 104,316 105,316 106,316 107,316 108,316 109,316 110,315 111,314 112,313 113,313 114,313 115,313 116,313 117,313 118,313 119,313 120,313 121,314 122,314 123,314 124,314 125,314 126,314 127,313 127,312 127,311 128,310 128,309 129,308 130,307 131,306 132,305 133,305 134,304 135,304 136,303 137,303 138,302 139,301 140,300 141,299 141,298 142,297 142,296 142,295 142,294 142,293 142,292 142,291 142,290 142,289 142,288 142,287 143,286 144,285 145,284 146,283 146,282 146,281 147,280 147,279 146,278 146,277 146,276 146,275 145,274 145,273 145,272 145,271 145,270 145,269 145,268 145,267 145,266 145,265 145,264 145,263 146,262 146,261 146,260 145,259 146,258 146,257 145,256 145,255 145,254 146,253 146,252 146,251 145,250 145,249 144,248 144,247 144,246 144,245 144,244 145,243 146,242 147,241 147,240 147,239 148,238 148,237 147,236 147,235 146,234 146,233 146,232 146,231 146,230 145,229 145,228 145,227 145,226 146,225 146,224 146,223 146,222 146,221 147,220 147,219 146,218 146,217 145,216 145,215 145,214 144,213 144,212 144,211 144,210 144,209 144,208 144,207 144,206 145,205 145,204 145,203 145,202 145,201 145,200 145,199 145,198 145,197 145,196 144,195 144,194 143,193 143,192 142,191 142,190 142,189 142,188 142,187 142,186 142,185 142,184 143,183 143,182 143,181 143,180 144,179 144,178 144,177 144,176 144,175 144,174 143,173 143,172 143,171 142,170 142,169 142,168 142,167 142,166 142,165 142,164 142,163 142,162 143,161 143,160 143,159 143,158 143,157 143,156 144,155 143,154 143,153 143,152 142,151 141,150 141,149 140,148 140,147 140,146 139,145 139,144 139,143 138,142 138,141 138,140 139,139 139,138 139,137 139,136 139,135 138,134 138,133 138,132 137,131 137,130 136,129 135,128 135,127 134,126 133,125 132,126 131,126 130,126 129,126 128,126 127,126 126,126 125,125 124,125 123,125 122,125 121,125 120,125 119,125 118,125 117,125 116,125 115,126 114,125 113,125 112,125 111,125 110,125 109,125 108,125 107,125 106,125 105,125 104,125">
      <metadata tailDirection="" confidence="0.89" linkedToCharacter="" id="TetsuSan_051_balloon_10" tailTip=""></metadata>
    </polygon>
  </svg>
</svg>
