<?xml version="1.0" encoding="UTF-8" standalone="no"?>
<svg width="827" xmlns="http://www.w3.org/2000/svg" version="1.0" height="1170">
  <title>TetsuSan_030</title>
  <svg contentScriptType="text/ecmascript" zoomAndPan="magnify" contentStyleType="text/css" class="Page" preserveAspectRatio="xMidYMid meet" version="1.0">
    <image xmlns:xlink="http://www.w3.org/1999/xlink" x="0" y="0" width="827" height="1170" xlink:href="./../../dataset_Manga109/TetsuSan/TetsuSan_030.jpg" xlink:type="simple" xlink:actuate="onLoad" preserveAspectRatio="xMidYMid meet" xlink:show="embed"/>
  </svg>
  <style type="text/css" xml:space="preserve">
        * { stroke-linejoin: round; }
        .Unclassified   { fill: orange; stroke: none;   opacity: 1.0; visibility: hidden; }
        .Noise          { fill: pink;   stroke: none;   opacity: 0.2; visibility: hidden; }
        .Panel          { fill: none;   stroke: red;    stroke-width:3; opacity: 0.5; visibility: visible; image-rendering: optimizeSpeed; }
        .Line           { fill: green;  stroke: none;   opacity: 0.5; visibility: visible; image-rendering: optimizeSpeed; }
        .TextArea       { fill: grey;   stroke: none;   opacity: 0.2; visibility: visible; image-rendering: optimizeSpeed; }
        .Balloon        { fill: cyan;   stroke: none;   opacity: 0.5; visibility: visible; image-rendering: optimizeSpeed; }
        .Letter         { fill: blue;   stroke: none;   opacity: 0.2; visibility: hidden; }
        .Object, .Character, .Face  { fill: yellow; stroke: none;   opacity: 0.5; visibility: visible; image-rendering: optimizeSpeed; }
        .Page           { fill: white;  stroke: none;    opacity: 0.5; visibility: visible; }
        .linkSBSC { fill: blue; stroke: none; opacity: 1.0; visibility: visible; }
        polygon:hover { opacity:1.0; stroke:red; }
</style>
  <svg xmlns="http://www.w3.org/2000/svg" contentScriptType="text/ecmascript" zoomAndPan="magnify" contentStyleType="text/css" class="Balloon" preserveAspectRatio="xMidYMid meet" version="1.0">
    <polygon points="330,897 329,898 328,898 327,898 326,898 325,898 324,899 323,899 322,899 321,900 320,900 319,900 318,901 317,902 316,902 315,903 314,904 313,904 312,905 311,906 310,907 309,908 308,909 307,910 306,911 305,912 305,913 304,914 304,915 303,916 303,917 302,918 301,919 301,920 300,921 300,922 299,923 299,924 298,925 298,926 297,927 297,928 297,929 296,930 296,931 296,932 295,933 295,934 295,935 294,936 294,937 294,938 293,939 293,940 293,941 293,942 293,943 292,944 292,945 292,946 292,947 292,948 292,949 292,950 292,951 292,952 291,953 291,954 291,955 291,956 291,957 291,958 291,959 291,960 291,961 291,962 292,963 292,964 292,965 292,966 292,967 292,968 292,969 292,970 293,971 293,972 293,973 293,974 293,975 294,976 294,977 294,978 295,979 295,980 295,981 295,982 296,983 296,984 297,985 297,986 297,987 298,988 298,989 298,990 299,991 300,992 300,993 300,994 301,995 301,996 302,997 302,998 303,999 303,1000 304,1001 305,1002 305,1003 306,1004 307,1005 308,1006 309,1007 310,1008 311,1009 312,1010 313,1011 314,1011 315,1012 316,1013 317,1013 318,1014 319,1014 320,1014 321,1015 322,1015 323,1015 324,1015 325,1015 326,1014 327,1014 328,1014 329,1014 330,1014 331,1014 332,1014 333,1014 334,1014 335,1014 336,1013 337,1013 338,1013 339,1013 340,1012 341,1012 342,1011 343,1011 344,1010 345,1010 346,1009 347,1009 348,1008 349,1008 350,1007 351,1006 352,1005 353,1005 353,1004 354,1003 354,1002 355,1001 356,1000 356,999 357,998 357,997 358,996 358,995 359,994 359,993 360,992 360,991 360,990 361,989 361,988 362,987 362,986 362,985 362,984 363,983 363,982 363,981 363,980 364,979 364,978 364,977 364,976 365,975 365,974 365,973 365,972 365,971 365,970 365,969 365,968 365,967 365,966 365,965 365,964 365,963 365,962 365,961 365,960 365,959 365,958 365,957 365,956 365,955 365,954 365,953 365,952 365,951 365,950 365,949 364,948 364,947 364,946 364,945 363,944 363,943 363,942 363,941 363,940 362,939 362,938 362,937 362,936 362,935 361,934 361,933 361,932 360,931 360,930 360,929 360,928 359,927 359,926 359,925 359,924 358,923 358,922 358,921 357,920 357,919 356,918 356,917 356,916 355,915 354,914 354,913 353,912 353,911 352,910 352,909 351,908 350,907 349,906 348,905 347,904 346,903 346,902 345,902 344,901 343,900 342,900 341,899 340,898 339,898 338,898 337,897 336,897 335,897 334,897 333,897 332,897 331,897 330,897">
      <metadata tailDirection="" confidence="0.99" linkedToCharacter="" id="TetsuSan_030_balloon_0" tailTip=""></metadata>
    </polygon>
    <polygon points="58,619 57,620 57,621 57,622 57,623 57,624 57,625 57,626 57,627 57,628 57,629 57,630 57,631 57,632 57,633 57,634 57,635 57,636 57,637 57,638 57,639 57,640 57,641 57,642 57,643 57,644 57,645 57,646 57,647 57,648 57,649 57,650 57,651 57,652 57,653 57,654 57,655 57,656 57,657 57,658 57,659 57,660 57,661 57,662 57,663 57,664 57,665 57,666 57,667 57,668 57,669 57,670 57,671 57,672 57,673 57,674 57,675 57,676 57,677 57,678 57,679 57,680 57,681 57,682 57,683 57,684 57,685 57,686 57,687 57,688 57,689 57,690 57,691 57,692 57,693 57,694 57,695 57,696 57,697 57,698 57,699 57,700 57,701 57,702 57,703 57,704 57,705 57,706 57,707 57,708 57,709 57,710 57,711 57,712 57,713 57,714 57,715 57,716 57,717 57,718 57,719 57,720 57,721 57,722 57,723 57,724 57,725 57,726 57,727 57,728 57,729 57,730 57,731 57,732 57,733 57,734 57,735 57,736 57,737 57,738 57,739 57,740 57,741 57,742 57,743 57,744 57,745 57,746 57,747 57,748 57,749 57,750 57,751 57,752 57,753 57,754 57,755 57,756 57,757 57,758 57,759 57,760 57,761 57,762 57,763 57,764 57,765 57,766 57,767 57,768 57,769 58,770 59,771 60,772 61,773 62,774 63,774 64,775 65,776 66,776 67,777 68,777 69,778 70,778 71,779 72,779 73,779 74,780 75,780 76,780 77,780 78,780 79,780 80,780 81,780 82,780 83,780 84,780 85,780 86,781 87,781 88,781 89,781 90,781 91,781 92,780 93,780 94,780 95,780 96,779 97,779 98,779 99,778 100,778 101,777 102,777 103,776 104,776 105,775 106,774 107,774 108,773 109,772 110,771 111,771 112,770 113,769 114,768 115,767 116,766 116,765 117,764 118,763 118,762 119,761 119,760 120,759 121,758 121,757 122,756 122,755 123,754 123,753 123,752 124,751 124,750 124,749 125,748 125,747 125,746 125,745 126,744 126,743 126,742 126,741 126,740 127,739 127,738 127,737 127,736 127,735 128,734 128,733 128,732 128,731 128,730 128,729 128,728 128,727 128,726 128,725 128,724 128,723 128,722 128,721 128,720 128,719 128,718 128,717 128,716 128,715 128,714 128,713 128,712 128,711 128,710 127,709 127,708 127,707 127,706 127,705 127,704 127,703 127,702 127,701 127,700 126,699 126,698 126,697 127,696 128,695 127,695 126,694 125,694 124,693 124,692 125,691 125,690 125,689 125,688 125,687 125,686 125,685 125,684 125,683 125,682 125,681 125,680 125,679 125,678 125,677 125,676 125,675 125,674 125,673 125,672 125,671 124,670 124,669 124,668 124,667 124,666 123,665 123,664 123,663 123,662 123,661 123,660 122,659 122,658 122,657 122,656 121,655 121,654 121,653 120,652 120,651 120,650 120,649 119,648 119,647 119,646 118,645 118,644 118,643 118,642 117,641 117,640 117,639 116,638 116,637 115,636 115,635 115,634 114,633 114,632 113,631 112,630 112,629 111,628 111,627 111,626 110,625 110,624 109,623 108,622 107,621 106,620 105,620 104,620 103,620 102,620 101,620 100,620 99,620 98,620 97,619 96,619 95,619 94,619 93,619 92,619 91,619 90,619 89,619 88,619 87,619 86,619 85,619 84,619 83,619 82,619 81,619 80,619 79,619 78,619 77,619 76,619 75,619 74,619 73,619 72,619 71,619 70,619 69,619 68,619 67,619 66,619 65,619 64,619 63,619 62,619 61,619 60,619 59,619 58,619">
      <metadata tailDirection="" confidence="0.84" linkedToCharacter="" id="TetsuSan_030_balloon_1" tailTip=""></metadata>
    </polygon>
    <polygon points="316,618 315,619 314,619 314,620 313,621 313,622 313,623 312,624 312,625 312,626 311,627 311,628 311,629 311,630 311,631 311,632 310,633 310,634 310,635 310,636 310,637 310,638 310,639 310,640 309,641 309,642 309,643 309,644 309,645 309,646 309,647 309,648 309,649 309,650 309,651 309,652 309,653 308,654 308,655 308,656 308,657 308,658 308,659 308,660 308,661 308,662 308,663 308,664 308,665 308,666 308,667 308,668 308,669 308,670 308,671 308,672 308,673 307,674 307,675 307,676 307,677 307,678 307,679 307,680 307,681 307,682 307,683 307,684 307,685 307,686 307,687 307,688 307,689 307,690 307,691 307,692 307,693 307,694 307,695 308,696 308,697 308,698 308,699 308,700 308,701 309,702 308,703 307,704 306,704 305,705 304,705 303,706 302,706 301,706 302,706 303,706 304,706 305,706 306,705 307,705 308,706 308,707 309,708 308,709 307,710 307,711 307,712 307,713 306,714 306,715 306,716 306,717 306,718 306,719 306,720 306,721 306,722 305,723 305,724 305,725 305,726 305,727 305,728 305,729 305,730 305,731 305,732 305,733 305,734 305,735 305,736 305,737 305,738 305,739 305,740 305,741 306,742 306,743 306,744 305,745 305,746 305,747 305,748 305,749 305,750 305,751 305,752 305,753 305,754 306,755 306,756 306,757 306,758 306,759 306,760 306,761 306,762 306,763 306,764 306,765 306,766 306,767 306,768 306,769 306,770 306,771 307,772 307,773 307,774 307,775 307,776 307,777 307,778 307,779 308,780 308,781 308,782 308,783 308,784 308,785 308,786 309,787 309,788 309,789 309,790 309,791 309,792 309,793 310,794 310,795 310,796 311,797 311,798 311,799 311,800 312,801 312,802 312,803 312,804 312,805 313,806 313,807 313,808 313,809 314,810 314,811 314,812 315,813 315,814 315,815 316,816 316,817 317,818 317,819 318,820 318,821 318,822 319,823 319,824 319,825 320,826 320,827 321,828 321,829 322,830 322,831 323,832 323,833 324,834 325,835 326,836 327,837 327,838 328,839 329,840 330,841 331,842 331,843 332,843 333,844 334,845 335,846 336,847 337,847 338,848 339,848 340,848 341,848 342,848 343,848 344,848 345,848 346,848 347,848 348,848 349,848 350,848 351,848 352,848 353,848 354,847 355,847 356,847 357,847 358,848 359,848 360,848 361,848 362,848 363,848 364,848 365,848 366,848 367,848 368,848 369,848 370,848 371,848 372,848 373,848 374,847 375,848 376,848 377,847 377,846 377,845 377,844 377,843 377,842 377,841 377,840 377,839 377,838 377,837 376,836 376,835 376,834 376,833 376,832 376,831 376,830 376,829 376,828 376,827 376,826 376,825 376,824 376,823 376,822 376,821 376,820 376,819 376,818 376,817 376,816 376,815 376,814 376,813 376,812 376,811 376,810 376,809 376,808 376,807 376,806 376,805 376,804 376,803 376,802 376,801 376,800 376,799 376,798 376,797 376,796 376,795 376,794 376,793 376,792 376,791 376,790 376,789 376,788 376,787 376,786 376,785 376,784 376,783 376,782 376,781 376,780 376,779 376,778 376,777 376,776 376,775 376,774 376,773 376,772 376,771 376,770 376,769 376,768 376,767 377,766 376,765 376,764 376,763 376,762 376,761 376,760 376,759 376,758 376,757 376,756 376,755 376,754 376,753 376,752 376,751 376,750 376,749 376,748 376,747 376,746 376,745 376,744 376,743 376,742 376,741 376,740 376,739 376,738 376,737 376,736 376,735 376,734 376,733 376,732 376,731 376,730 376,729 376,728 376,727 376,726 376,725 376,724 376,723 376,722 376,721 376,720 376,719 376,718 376,717 376,716 376,715 376,714 376,713 376,712 376,711 376,710 376,709 376,708 376,707 376,706 376,705 376,704 376,703 376,702 376,701 376,700 376,699 376,698 376,697 376,696 376,695 376,694 376,693 376,692 376,691 376,690 376,689 376,688 376,687 376,686 376,685 376,684 376,683 376,682 376,681 376,680 376,679 376,678 376,677 376,676 376,675 376,674 376,673 376,672 376,671 376,670 376,669 376,668 376,667 376,666 376,665 376,664 376,663 376,662 376,661 376,660 376,659 376,658 376,657 376,656 376,655 376,654 376,653 376,652 376,651 376,650 376,649 376,648 376,647 376,646 376,645 376,644 376,643 376,642 376,641 376,640 376,639 376,638 376,637 376,636 376,635 376,634 376,633 376,632 376,631 376,630 376,629 376,628 376,627 376,626 376,625 376,624 376,623 376,622 376,621 376,620 376,619 375,619 374,619 373,619 372,619 371,619 370,619 369,619 368,619 367,619 366,619 365,619 364,619 363,619 362,619 361,618 360,618 359,618 358,619 357,619 356,619 355,618 354,618 353,619 352,619 351,618 350,618 349,619 348,619 347,619 346,619 345,618 344,618 343,618 342,618 341,618 340,618 339,619 338,619 337,619 336,619 335,619 334,619 333,619 332,619 331,619 330,619 329,619 328,618 327,619 326,619 325,619 324,619 323,619 322,619 321,619 320,619 319,619 318,619 317,619 316,618">
      <metadata tailDirection="" confidence="0.95" linkedToCharacter="" id="TetsuSan_030_balloon_2" tailTip=""></metadata>
    </polygon>
    <polygon points="673,617 673,618 672,619 672,620 672,621 672,622 671,623 671,624 671,625 670,626 670,627 670,628 670,629 670,630 670,631 670,632 669,633 669,634 669,635 669,636 669,637 669,638 668,639 668,640 668,641 668,642 668,643 667,644 667,645 667,646 667,647 667,648 667,649 667,650 667,651 666,652 666,653 666,654 666,655 666,656 666,657 666,658 666,659 666,660 666,661 666,662 665,663 665,664 665,665 665,666 665,667 665,668 665,669 665,670 665,671 665,672 665,673 665,674 665,675 665,676 664,677 664,678 664,679 664,680 664,681 664,682 664,683 664,684 664,685 664,686 664,687 664,688 664,689 664,690 664,691 664,692 664,693 664,694 664,695 664,696 664,697 664,698 664,699 664,700 664,701 664,702 664,703 664,704 664,705 664,706 664,707 664,708 664,709 664,710 664,711 664,712 663,713 663,714 663,715 664,716 664,717 663,718 663,719 663,720 663,721 663,722 664,723 663,724 663,725 663,726 663,727 664,728 664,729 664,730 664,731 664,732 664,733 664,734 664,735 664,736 664,737 663,738 664,739 663,740 663,741 663,742 663,743 663,744 663,745 663,746 663,747 664,748 664,749 664,750 664,751 664,752 664,753 664,754 664,755 664,756 664,757 664,758 664,759 664,760 664,761 664,762 665,763 665,764 665,765 665,766 665,767 665,768 665,769 665,770 666,771 665,772 664,773 663,773 662,774 661,774 660,774 661,775 662,775 663,775 664,775 665,776 665,777 665,778 665,779 665,780 664,781 664,782 664,783 664,784 664,785 664,786 664,787 664,788 664,789 664,790 664,791 664,792 664,793 664,794 664,795 664,796 664,797 664,798 664,799 665,800 665,801 665,802 665,803 665,804 665,805 665,806 665,807 665,808 665,809 666,810 666,811 666,812 666,813 666,814 666,815 666,816 667,817 667,818 667,819 667,820 667,821 668,822 668,823 668,824 668,825 668,826 669,827 669,828 669,829 670,830 670,831 670,832 671,833 671,834 671,835 672,836 672,837 672,838 673,839 673,840 674,841 674,842 675,843 675,844 676,845 676,846 677,846 678,846 679,846 680,846 681,846 682,846 683,846 684,846 685,846 686,846 687,846 688,846 689,846 690,846 691,846 692,846 693,846 694,846 695,846 696,846 697,846 698,846 699,846 700,846 701,846 702,846 703,846 704,846 705,846 706,846 707,846 708,846 709,846 710,846 711,846 712,846 713,846 714,846 715,846 716,846 717,846 718,846 719,846 720,846 721,846 722,846 723,846 724,846 725,846 726,846 727,846 728,846 729,846 730,846 731,846 732,846 733,846 734,846 735,846 735,845 735,844 735,843 735,842 735,841 735,840 735,839 735,838 735,837 735,836 735,835 735,834 735,833 735,832 735,831 735,830 735,829 735,828 735,827 735,826 735,825 735,824 735,823 735,822 735,821 735,820 735,819 735,818 735,817 735,816 735,815 735,814 735,813 735,812 735,811 735,810 735,809 735,808 735,807 735,806 735,805 735,804 735,803 735,802 735,801 735,800 735,799 735,798 736,797 735,796 735,795 736,794 735,793 735,792 735,791 735,790 735,789 735,788 735,787 735,786 735,785 735,784 735,783 735,782 735,781 736,780 736,779 736,778 736,777 735,776 735,775 736,774 736,773 736,772 735,771 735,770 735,769 736,768 736,767 736,766 736,765 735,764 735,763 735,762 735,761 735,760 735,759 736,758 736,757 735,756 735,755 736,754 736,753 736,752 735,751 735,750 736,749 736,748 735,747 736,746 736,745 736,744 736,743 736,742 736,741 736,740 736,739 735,738 735,737 736,736 735,735 735,734 735,733 735,732 735,731 736,730 736,729 735,728 735,727 736,726 736,725 735,724 735,723 735,722 735,721 736,720 735,719 735,718 735,717 736,716 735,715 735,714 735,713 736,712 736,711 735,710 735,709 736,708 736,707 735,706 735,705 735,704 735,703 735,702 735,701 735,700 735,699 735,698 735,697 735,696 735,695 735,694 735,693 735,692 735,691 735,690 735,689 735,688 736,687 735,686 735,685 735,684 735,683 736,682 736,681 735,680 735,679 735,678 735,677 735,676 735,675 735,674 735,673 735,672 735,671 735,670 735,669 735,668 735,667 735,666 735,665 735,664 735,663 735,662 735,661 735,660 735,659 735,658 735,657 735,656 735,655 735,654 735,653 735,652 735,651 735,650 735,649 735,648 735,647 735,646 735,645 735,644 735,643 735,642 735,641 735,640 735,639 735,638 735,637 735,636 735,635 735,634 735,633 735,632 735,631 735,630 735,629 735,628 735,627 735,626 735,625 735,624 735,623 735,622 735,621 735,620 735,619 735,618 735,617 734,617 733,617 732,617 731,617 730,617 729,617 728,617 727,617 726,617 725,617 724,617 723,617 722,617 721,617 720,617 719,617 718,617 717,617 716,617 715,617 714,617 713,617 712,617 711,617 710,617 709,617 708,617 707,617 706,617 705,617 704,617 703,617 702,617 701,617 700,617 699,617 698,617 697,617 696,617 695,617 694,617 693,617 692,617 691,617 690,617 689,617 688,617 687,617 686,617 685,617 684,617 683,617 682,617 681,617 680,617 679,617 678,617 677,617 676,617 675,617 674,617 673,617">
      <metadata tailDirection="" confidence="0.92" linkedToCharacter="" id="TetsuSan_030_balloon_3" tailTip=""></metadata>
    </polygon>
    <polygon points="304,371 303,372 302,373 302,374 302,375 301,376 301,377 301,378 300,379 300,380 300,381 300,382 299,383 299,384 299,385 298,386 298,387 298,388 298,389 297,390 297,391 297,392 297,393 297,394 296,395 296,396 296,397 296,398 296,399 295,400 295,401 295,402 295,403 295,404 295,405 295,406 294,407 294,408 294,409 294,410 294,411 294,412 294,413 294,414 294,415 294,416 294,417 294,418 294,419 294,420 294,421 293,422 293,423 293,424 293,425 293,426 293,427 293,428 293,429 293,430 293,431 293,432 293,433 293,434 293,435 293,436 293,437 293,438 293,439 293,440 293,441 293,442 293,443 293,444 293,445 293,446 293,447 293,448 293,449 294,450 293,451 293,452 293,453 293,454 293,455 294,456 294,457 294,458 294,459 294,460 294,461 294,462 294,463 294,464 294,465 294,466 294,467 293,468 292,469 291,469 290,470 289,470 288,470 287,471 288,471 289,471 290,472 291,472 292,472 293,473 293,474 293,475 293,476 293,477 293,478 292,479 292,480 292,481 292,482 292,483 292,484 292,485 292,486 292,487 292,488 292,489 292,490 292,491 292,492 292,493 292,494 292,495 292,496 292,497 292,498 292,499 292,500 292,501 292,502 292,503 292,504 292,505 292,506 292,507 292,508 292,509 292,510 292,511 292,512 292,513 293,514 292,515 292,516 292,517 292,518 293,519 293,520 293,521 292,522 292,523 292,524 293,525 293,526 293,527 293,528 293,529 293,530 293,531 293,532 293,533 293,534 293,535 293,536 293,537 293,538 293,539 293,540 294,541 294,542 294,543 294,544 294,545 294,546 294,547 295,548 295,549 295,550 295,551 295,552 296,553 296,554 296,555 296,556 296,557 297,558 297,559 297,560 297,561 297,562 298,563 298,564 298,565 299,566 299,567 299,568 299,569 300,570 300,571 300,572 301,573 301,574 301,575 301,576 302,577 302,578 302,579 303,580 303,581 304,582 304,583 304,584 305,585 305,586 306,587 306,588 307,589 307,590 308,591 308,592 309,593 310,594 310,595 311,596 312,596 313,597 314,598 315,599 315,600 316,600 317,600 318,600 319,600 320,600 321,600 322,600 323,600 324,600 325,600 326,600 327,600 328,600 329,600 330,600 331,600 332,600 333,600 334,600 335,600 336,600 337,600 338,600 339,600 340,600 341,600 342,600 343,600 344,600 345,600 346,600 347,600 348,600 349,600 350,600 351,600 352,600 353,600 354,600 355,600 356,600 357,600 358,600 359,600 360,600 361,600 362,600 363,600 364,600 365,600 366,600 367,600 368,600 369,600 370,600 371,600 372,600 373,600 374,600 375,600 376,600 376,599 376,598 376,597 376,596 376,595 376,594 376,593 376,592 376,591 376,590 376,589 376,588 376,587 376,586 376,585 376,584 376,583 376,582 376,581 376,580 376,579 376,578 376,577 376,576 376,575 376,574 376,573 376,572 376,571 376,570 376,569 376,568 376,567 376,566 376,565 376,564 376,563 376,562 376,561 376,560 376,559 376,558 376,557 376,556 376,555 376,554 376,553 376,552 376,551 376,550 376,549 376,548 376,547 376,546 376,545 376,544 376,543 376,542 376,541 376,540 376,539 376,538 376,537 376,536 376,535 376,534 376,533 376,532 376,531 376,530 376,529 376,528 376,527 376,526 376,525 376,524 376,523 376,522 376,521 376,520 376,519 376,518 376,517 376,516 376,515 376,514 376,513 376,512 376,511 376,510 376,509 376,508 376,507 376,506 376,505 376,504 376,503 376,502 376,501 376,500 376,499 376,498 376,497 376,496 376,495 376,494 376,493 376,492 376,491 376,490 376,489 376,488 376,487 376,486 376,485 376,484 376,483 376,482 376,481 376,480 376,479 376,478 376,477 376,476 376,475 376,474 376,473 376,472 376,471 376,470 376,469 376,468 376,467 376,466 376,465 376,464 376,463 376,462 376,461 376,460 376,459 376,458 376,457 376,456 376,455 376,454 376,453 376,452 376,451 376,450 376,449 376,448 376,447 376,446 376,445 376,444 376,443 376,442 376,441 376,440 376,439 376,438 376,437 376,436 376,435 376,434 376,433 376,432 376,431 376,430 376,429 376,428 376,427 376,426 376,425 376,424 376,423 376,422 376,421 376,420 376,419 376,418 376,417 376,416 376,415 376,414 376,413 376,412 376,411 376,410 376,409 376,408 376,407 376,406 376,405 376,404 376,403 376,402 376,401 376,400 376,399 376,398 376,397 376,396 376,395 376,394 376,393 376,392 376,391 376,390 376,389 376,388 376,387 376,386 376,385 376,384 376,383 376,382 376,381 376,380 376,379 376,378 376,377 376,376 376,375 376,374 376,373 376,372 376,371 375,371 374,371 373,371 372,371 371,371 370,371 369,371 368,371 367,371 366,371 365,371 364,371 363,371 362,371 361,371 360,371 359,371 358,371 357,371 356,371 355,371 354,371 353,371 352,371 351,371 350,371 349,371 348,371 347,371 346,371 345,371 344,371 343,371 342,371 341,371 340,371 339,371 338,371 337,371 336,371 335,371 334,371 333,371 332,371 331,371 330,371 329,371 328,371 327,371 326,371 325,371 324,371 323,371 322,371 321,371 320,371 319,371 318,371 317,371 316,371 315,371 314,371 313,371 312,371 311,371 310,371 309,371 308,371 307,371 306,371 305,371 304,371">
      <metadata tailDirection="" confidence="0.95" linkedToCharacter="" id="TetsuSan_030_balloon_4" tailTip=""></metadata>
    </polygon>
    <polygon points="432,426 431,427 430,427 429,427 428,428 427,428 426,428 425,428 424,429 423,429 422,430 421,431 420,431 419,432 418,433 417,434 416,435 417,436 417,437 417,438 417,439 417,440 417,441 417,442 417,443 417,444 417,445 417,446 417,447 417,448 417,449 417,450 417,451 417,452 417,453 417,454 417,455 417,456 417,457 417,458 417,459 417,460 417,461 417,462 417,463 417,464 417,465 417,466 417,467 417,468 417,469 417,470 417,471 417,472 417,473 417,474 417,475 416,476 416,477 417,478 417,479 417,480 417,481 417,482 417,483 417,484 417,485 417,486 417,487 417,488 417,489 417,490 417,491 417,492 416,493 416,494 417,495 417,496 417,497 417,498 417,499 417,500 417,501 416,502 417,503 417,504 417,505 417,506 417,507 417,508 417,509 417,510 417,511 417,512 417,513 417,514 417,515 417,516 417,517 417,518 417,519 417,520 417,521 417,522 417,523 417,524 417,525 417,526 417,527 417,528 417,529 417,530 417,531 417,532 417,533 417,534 417,535 417,536 417,537 417,538 417,539 416,540 417,541 417,542 417,543 417,544 417,545 417,546 417,547 417,548 417,549 417,550 417,551 417,552 417,553 417,554 417,555 417,556 417,557 417,558 417,559 417,560 417,561 417,562 417,563 417,564 417,565 417,566 417,567 417,568 417,569 417,570 417,571 417,572 417,573 417,574 417,575 417,576 417,577 417,578 417,579 417,580 417,581 417,582 417,583 417,584 417,585 417,586 417,587 417,588 417,589 417,590 417,591 417,592 417,593 417,594 417,595 417,596 417,597 417,598 417,599 418,599 419,599 420,599 421,599 422,599 423,599 424,599 425,599 426,599 427,599 428,599 429,599 430,599 431,599 432,599 433,599 434,599 435,599 436,599 437,599 438,599 439,599 440,599 441,599 442,599 443,599 444,599 445,599 446,599 447,599 448,599 449,599 450,599 451,599 452,599 453,600 454,600 455,599 456,599 457,599 458,599 459,599 460,599 461,599 462,599 463,600 464,599 465,599 466,599 467,599 468,600 469,600 470,600 471,599 472,599 473,599 474,599 475,599 476,599 477,599 478,600 479,600 480,599 481,600 482,599 482,598 482,597 483,596 483,595 483,594 484,593 484,592 484,591 485,590 485,589 485,588 485,587 485,586 486,585 486,584 486,583 486,582 487,581 487,580 487,579 487,578 487,577 487,576 488,575 488,574 488,573 488,572 488,571 488,570 488,569 488,568 488,567 488,566 488,565 488,564 489,563 489,562 489,561 489,560 489,559 489,558 489,557 489,556 489,555 489,554 489,553 489,552 489,551 489,550 489,549 489,548 489,547 489,546 489,545 489,544 489,543 489,542 489,541 489,540 489,539 489,538 489,537 489,536 489,535 488,534 488,533 488,532 488,531 488,530 488,529 488,528 488,527 488,526 488,525 487,524 487,523 487,522 487,521 487,520 487,519 486,518 486,517 486,516 486,515 485,514 485,513 486,512 486,511 487,510 488,509 489,509 490,508 489,508 488,508 487,508 486,508 485,507 484,506 485,505 485,504 485,503 485,502 485,501 485,500 485,499 485,498 485,497 485,496 485,495 485,494 485,493 485,492 485,491 485,490 485,489 485,488 485,487 485,486 485,485 485,484 485,483 485,482 485,481 485,480 485,479 485,478 484,477 484,476 484,475 484,474 484,473 483,472 483,471 483,470 483,469 483,468 482,467 482,466 482,465 482,464 481,463 481,462 481,461 480,460 480,459 480,458 480,457 479,456 479,455 478,454 478,453 477,452 477,451 476,450 476,449 475,448 475,447 474,446 473,445 473,444 472,443 471,442 470,441 470,440 469,439 468,438 467,437 466,436 465,435 464,434 463,433 462,433 461,432 460,431 459,430 458,430 457,429 456,429 455,429 454,428 453,428 452,428 451,427 450,427 449,426 448,426 447,426 446,426 445,426 444,426 443,426 442,426 441,426 440,426 439,426 438,426 437,426 436,426 435,426 434,426 433,426 432,426">
      <metadata tailDirection="" confidence="0.95" linkedToCharacter="" id="TetsuSan_030_balloon_5" tailTip=""></metadata>
    </polygon>
    <polygon points="416,122 416,123 416,124 416,125 416,126 416,127 416,128 416,129 416,130 416,131 416,132 416,133 416,134 416,135 416,136 416,137 416,138 416,139 416,140 416,141 416,142 416,143 416,144 416,145 416,146 416,147 416,148 416,149 416,150 417,151 416,152 416,153 416,154 416,155 416,156 417,157 417,158 417,159 417,160 417,161 417,162 417,163 417,164 417,165 417,166 417,167 417,168 417,169 417,170 417,171 416,172 416,173 416,174 416,175 416,176 416,177 416,178 416,179 416,180 416,181 416,182 416,183 416,184 416,185 416,186 416,187 416,188 417,189 417,190 416,191 416,192 416,193 416,194 416,195 416,196 416,197 416,198 416,199 416,200 416,201 416,202 416,203 416,204 416,205 416,206 416,207 416,208 416,209 416,210 416,211 416,212 416,213 416,214 416,215 416,216 416,217 416,218 416,219 416,220 416,221 416,222 416,223 416,224 416,225 416,226 416,227 416,228 416,229 416,230 416,231 416,232 416,233 416,234 416,235 416,236 416,237 416,238 416,239 416,240 416,241 416,242 416,243 417,244 416,245 416,246 416,247 416,248 416,249 416,250 416,251 416,252 416,253 416,254 416,255 416,256 416,257 416,258 416,259 416,260 416,261 416,262 416,263 416,264 416,265 416,266 416,267 416,268 416,269 416,270 416,271 416,272 416,273 416,274 416,275 416,276 416,277 416,278 416,279 416,280 416,281 416,282 416,283 416,284 416,285 416,286 416,287 416,288 416,289 416,290 416,291 416,292 416,293 417,294 417,295 417,296 417,297 417,298 416,299 416,300 416,301 416,302 416,303 416,304 416,305 416,306 416,307 416,308 416,309 416,310 416,311 416,312 416,313 416,314 416,315 417,316 418,317 418,318 419,319 420,320 421,321 422,322 423,323 424,324 425,325 426,326 427,327 428,327 429,328 430,329 431,329 432,330 433,330 434,331 435,331 436,331 437,331 438,332 439,332 440,332 441,332 442,332 443,332 444,332 445,332 446,332 447,332 448,332 449,332 450,332 451,332 452,332 453,332 454,332 455,332 456,332 457,331 458,331 459,331 460,331 461,330 462,330 463,330 464,329 465,328 466,328 467,328 467,327 467,326 467,325 467,324 467,323 468,322 468,321 468,320 468,319 469,318 469,317 469,316 470,315 471,314 471,313 472,312 473,311 474,310 475,309 476,308 477,307 478,307 479,306 480,306 481,306 482,306 483,307 484,307 484,306 484,305 484,304 485,303 485,302 485,301 486,300 486,299 486,298 487,297 487,296 487,295 487,294 488,293 488,292 488,291 488,290 489,289 489,288 489,287 489,286 489,285 490,284 490,283 490,282 490,281 490,280 491,279 491,278 491,277 491,276 491,275 491,274 491,273 491,272 491,271 491,270 492,269 492,268 492,267 492,266 492,265 492,264 492,263 492,262 492,261 492,260 492,259 492,258 492,257 492,256 492,255 492,254 493,253 493,252 493,251 493,250 493,249 493,248 493,247 493,246 493,245 493,244 493,243 493,242 493,241 493,240 493,239 493,238 493,237 493,236 493,235 493,234 493,233 493,232 493,231 493,230 493,229 493,228 493,227 493,226 493,225 493,224 493,223 493,222 493,221 493,220 493,219 493,218 493,217 493,216 493,215 493,214 493,213 493,212 493,211 493,210 492,209 492,208 492,207 492,206 492,205 492,204 492,203 492,202 492,201 492,200 492,199 492,198 492,197 492,196 492,195 492,194 492,193 492,192 492,191 492,190 491,189 491,188 491,187 491,186 491,185 491,184 491,183 491,182 491,181 491,180 491,179 491,178 491,177 491,176 490,175 490,174 490,173 490,172 490,171 490,170 490,169 490,168 490,167 490,166 489,165 489,164 489,163 489,162 489,161 489,160 489,159 488,158 488,157 488,156 488,155 487,154 487,153 487,152 487,151 486,150 486,149 486,148 486,147 486,146 485,145 485,144 485,143 485,142 485,141 484,140 484,139 484,138 484,137 483,136 483,135 483,134 482,133 482,132 482,131 481,130 481,129 480,128 480,127 480,126 479,125 479,124 478,123 478,122 477,122 476,122 475,122 474,122 473,122 472,122 471,122 470,122 469,122 468,122 467,122 466,122 465,122 464,122 463,122 462,122 461,122 460,122 459,122 458,122 457,122 456,122 455,122 454,122 453,122 452,122 451,122 450,122 449,122 448,122 447,122 446,122 445,122 444,122 443,122 442,122 441,122 440,122 439,122 438,122 437,122 436,122 435,122 434,122 433,122 432,122 431,122 430,122 429,122 428,122 427,122 426,122 425,122 424,122 423,122 422,122 421,122 420,122 419,122 418,122 417,122 416,122">
      <metadata tailDirection="" confidence="0.89" linkedToCharacter="" id="TetsuSan_030_balloon_6" tailTip=""></metadata>
    </polygon>
    <polygon points="679,121 678,122 678,123 677,124 677,125 677,126 676,127 676,128 675,129 675,130 675,131 675,132 674,133 674,134 674,135 673,136 673,137 673,138 673,139 673,140 672,141 672,142 672,143 672,144 672,145 671,146 671,147 671,148 671,149 670,150 670,151 670,152 670,153 670,154 670,155 670,156 669,157 669,158 669,159 669,160 669,161 669,162 669,163 669,164 668,165 668,166 668,167 668,168 668,169 668,170 668,171 668,172 668,173 668,174 668,175 668,176 668,177 668,178 667,179 667,180 667,181 667,182 667,183 667,184 667,185 667,186 667,187 667,188 668,189 668,190 668,191 668,192 668,193 668,194 667,195 668,196 668,197 668,198 668,199 668,200 668,201 668,202 668,203 668,204 668,205 668,206 668,207 668,208 668,209 668,210 668,211 668,212 668,213 668,214 668,215 668,216 668,217 668,218 668,219 668,220 668,221 668,222 668,223 668,224 668,225 668,226 668,227 669,228 668,229 668,230 668,231 668,232 668,233 668,234 668,235 668,236 669,237 669,238 669,239 669,240 669,241 669,242 669,243 669,244 669,245 669,246 669,247 670,248 670,249 670,250 670,251 670,252 671,253 671,254 671,255 671,256 671,257 670,258 669,258 668,258 667,258 666,258 666,259 667,259 668,260 669,260 670,260 671,260 672,261 672,262 672,263 673,264 673,265 674,266 674,267 675,268 675,269 676,270 677,271 678,272 678,273 679,274 679,275 680,276 681,277 681,278 682,278 683,279 684,280 685,281 686,282 687,283 688,284 689,284 690,285 691,285 692,286 693,286 694,287 695,287 696,287 697,288 698,288 699,288 700,288 701,289 702,289 703,289 704,289 705,289 706,290 707,290 708,290 709,290 710,290 711,290 712,290 713,289 714,289 715,289 716,289 717,289 718,289 719,289 720,289 721,289 722,288 723,288 724,288 725,288 726,288 727,287 728,287 729,287 730,286 731,286 732,286 733,285 734,284 735,284 736,283 736,282 736,281 736,280 736,279 736,278 736,277 736,276 736,275 736,274 736,273 736,272 736,271 735,270 735,269 735,268 735,267 735,266 735,265 735,264 735,263 735,262 736,261 736,260 736,259 736,258 735,257 735,256 736,255 735,254 735,253 736,252 736,251 735,250 735,249 735,248 735,247 736,246 735,245 735,244 735,243 735,242 735,241 735,240 735,239 735,238 735,237 736,236 736,235 735,234 735,233 736,232 735,231 735,230 735,229 736,228 736,227 736,226 736,225 736,224 736,223 736,222 736,221 736,220 736,219 735,218 735,217 736,216 736,215 736,214 736,213 736,212 736,211 736,210 736,209 735,208 735,207 736,206 736,205 736,204 736,203 736,202 736,201 736,200 736,199 735,198 735,197 735,196 736,195 735,194 736,193 736,192 736,191 735,190 735,189 735,188 735,187 736,186 736,185 736,184 735,183 735,182 736,181 736,180 735,179 735,178 735,177 735,176 735,175 735,174 735,173 735,172 735,171 735,170 735,169 736,168 735,167 735,166 735,165 735,164 735,163 735,162 735,161 735,160 735,159 735,158 735,157 735,156 735,155 735,154 735,153 735,152 735,151 735,150 735,149 735,148 735,147 735,146 735,145 736,144 736,143 735,142 736,141 736,140 735,139 735,138 735,137 735,136 735,135 736,134 736,133 736,132 736,131 736,130 736,129 736,128 736,127 736,126 736,125 736,124 736,123 736,122 735,122 734,122 733,122 732,122 731,122 730,122 729,122 728,122 727,122 726,122 725,122 724,122 723,122 722,122 721,122 720,122 719,121 718,121 717,121 716,121 715,122 714,122 713,122 712,122 711,121 710,121 709,121 708,121 707,121 706,121 705,121 704,121 703,121 702,121 701,121 700,121 699,121 698,121 697,121 696,121 695,121 694,121 693,121 692,121 691,121 690,121 689,121 688,121 687,121 686,121 685,121 684,121 683,121 682,121 681,121 680,121 679,121">
      <metadata tailDirection="" confidence="0.94" linkedToCharacter="" id="TetsuSan_030_balloon_7" tailTip=""></metadata>
    </polygon>
  </svg>
</svg>
