<?xml version="1.0" encoding="UTF-8" standalone="no"?>
<svg width="827" xmlns="http://www.w3.org/2000/svg" version="1.0" height="1170">
  <title>TetsuSan_052</title>
  <svg contentScriptType="text/ecmascript" zoomAndPan="magnify" contentStyleType="text/css" class="Page" preserveAspectRatio="xMidYMid meet" version="1.0">
    <image xmlns:xlink="http://www.w3.org/1999/xlink" x="0" y="0" width="827" height="1170" xlink:href="./../../dataset_Manga109/TetsuSan/TetsuSan_052.jpg" xlink:type="simple" xlink:actuate="onLoad" preserveAspectRatio="xMidYMid meet" xlink:show="embed"/>
  </svg>
  <style type="text/css" xml:space="preserve">
        * { stroke-linejoin: round; }
        .Unclassified   { fill: orange; stroke: none;   opacity: 1.0; visibility: hidden; }
        .Noise          { fill: pink;   stroke: none;   opacity: 0.2; visibility: hidden; }
        .Panel          { fill: none;   stroke: red;    stroke-width:3; opacity: 0.5; visibility: visible; image-rendering: optimizeSpeed; }
        .Line           { fill: green;  stroke: none;   opacity: 0.5; visibility: visible; image-rendering: optimizeSpeed; }
        .TextArea       { fill: grey;   stroke: none;   opacity: 0.2; visibility: visible; image-rendering: optimizeSpeed; }
        .Balloon        { fill: cyan;   stroke: none;   opacity: 0.5; visibility: visible; image-rendering: optimizeSpeed; }
        .Letter         { fill: blue;   stroke: none;   opacity: 0.2; visibility: hidden; }
        .Object, .Character, .Face  { fill: yellow; stroke: none;   opacity: 0.5; visibility: visible; image-rendering: optimizeSpeed; }
        .Page           { fill: white;  stroke: none;    opacity: 0.5; visibility: visible; }
        .linkSBSC { fill: blue; stroke: none; opacity: 1.0; visibility: visible; }
        polygon:hover { opacity:1.0; stroke:red; }
</style>
  <svg xmlns="http://www.w3.org/2000/svg" contentScriptType="text/ecmascript" zoomAndPan="magnify" contentStyleType="text/css" class="Balloon" preserveAspectRatio="xMidYMid meet" version="1.0">
    <polygon points="689,864 689,865 688,866 688,867 687,868 687,869 686,870 686,871 685,872 684,873 684,874 683,875 683,876 682,877 681,878 680,877 679,876 678,876 678,877 679,878 680,879 680,880 681,880 682,881 682,882 682,883 682,884 682,885 682,886 682,887 682,888 682,889 682,890 682,891 682,892 682,893 682,894 682,895 682,896 682,897 682,898 682,899 682,900 682,901 682,902 682,903 682,904 682,905 683,906 683,907 683,908 683,909 683,910 683,911 683,912 683,913 683,914 683,915 683,916 683,917 683,918 683,919 683,920 683,921 683,922 683,923 683,924 683,925 683,926 683,927 683,928 683,929 683,930 683,931 683,932 683,933 683,934 683,935 683,936 683,937 683,938 683,939 683,940 683,941 683,942 683,943 683,944 683,945 683,946 683,947 683,948 683,949 683,950 683,951 683,952 683,953 683,954 683,955 683,956 683,957 683,958 683,959 683,960 683,961 683,962 683,963 683,964 683,965 683,966 683,967 683,968 683,969 683,970 683,971 683,972 683,973 683,974 683,975 683,976 683,977 683,978 683,979 683,980 683,981 683,982 683,983 683,984 683,985 683,986 683,987 683,988 683,989 683,990 683,991 683,992 683,993 683,994 683,995 683,996 683,997 683,998 683,999 683,1000 683,1001 683,1002 683,1003 683,1004 683,1005 683,1006 683,1007 683,1008 683,1009 683,1010 683,1011 683,1012 683,1013 683,1014 683,1015 683,1016 683,1017 683,1018 683,1019 683,1020 683,1021 683,1022 683,1023 683,1024 683,1025 683,1026 683,1027 683,1028 683,1029 683,1030 683,1031 683,1032 683,1033 683,1034 683,1035 683,1036 683,1037 684,1037 685,1038 686,1039 686,1040 687,1041 688,1042 689,1043 690,1044 690,1045 691,1046 692,1047 693,1048 694,1049 694,1050 695,1051 696,1052 696,1053 697,1054 697,1055 697,1056 698,1057 698,1056 699,1055 700,1055 701,1055 702,1055 703,1055 704,1055 705,1055 706,1055 707,1055 708,1055 709,1055 710,1055 711,1055 712,1055 713,1055 714,1055 715,1055 716,1055 717,1055 718,1055 719,1055 720,1055 721,1055 722,1055 723,1055 724,1055 725,1055 726,1055 727,1055 728,1055 729,1055 730,1055 731,1055 732,1055 733,1055 734,1055 735,1055 736,1055 737,1055 738,1055 739,1055 740,1055 741,1055 742,1055 743,1055 744,1055 745,1055 746,1055 747,1055 748,1055 748,1054 747,1054 746,1054 745,1054 744,1054 743,1054 742,1054 741,1054 740,1054 739,1054 738,1054 737,1054 736,1054 735,1054 734,1054 733,1054 732,1054 731,1054 730,1054 729,1054 728,1054 727,1054 726,1054 725,1054 724,1054 723,1054 722,1054 721,1054 720,1054 719,1053 718,1053 717,1053 716,1053 715,1053 714,1053 713,1053 712,1053 711,1053 710,1053 709,1053 708,1053 707,1053 706,1053 705,1053 704,1053 703,1053 702,1053 701,1053 700,1053 699,1052 698,1051 698,1050 697,1050 696,1049 695,1048 694,1047 694,1046 693,1045 692,1044 691,1043 691,1042 690,1041 689,1040 688,1039 687,1038 687,1037 687,1036 687,1035 688,1034 689,1035 690,1036 691,1037 692,1038 693,1039 693,1040 694,1041 695,1042 696,1043 696,1044 697,1045 698,1046 698,1047 699,1048 700,1049 701,1050 702,1050 703,1050 704,1051 705,1051 706,1051 707,1051 708,1051 709,1051 710,1051 711,1051 712,1051 713,1051 714,1051 715,1051 716,1051 717,1051 718,1051 719,1051 720,1051 721,1051 722,1051 723,1051 724,1051 725,1051 726,1051 727,1051 728,1051 729,1051 730,1051 731,1051 732,1051 733,1051 734,1051 735,1051 736,1051 737,1051 738,1051 739,1051 740,1051 741,1051 742,1051 743,1051 744,1051 745,1051 746,1051 747,1051 748,1051 748,1050 748,1049 748,1048 748,1047 748,1046 748,1045 748,1044 748,1043 748,1042 748,1041 748,1040 748,1039 748,1038 748,1037 748,1036 748,1035 748,1034 748,1033 748,1032 748,1031 748,1030 748,1029 748,1028 748,1027 748,1026 748,1025 748,1024 748,1023 748,1022 748,1021 748,1020 748,1019 748,1018 748,1017 748,1016 748,1015 748,1014 748,1013 748,1012 748,1011 748,1010 748,1009 748,1008 748,1007 748,1006 748,1005 748,1004 748,1003 748,1002 748,1001 748,1000 748,999 748,998 748,997 748,996 748,995 748,994 748,993 748,992 748,991 748,990 748,989 748,988 748,987 748,986 748,985 748,984 748,983 748,982 748,981 748,980 748,979 748,978 748,977 748,976 748,975 748,974 748,973 748,972 748,971 748,970 748,969 748,968 748,967 748,966 748,965 748,964 748,963 748,962 748,961 748,960 748,959 748,958 748,957 748,956 748,955 748,954 748,953 748,952 748,951 748,950 748,949 748,948 748,947 748,946 748,945 748,944 748,943 748,942 748,941 748,940 748,939 748,938 748,937 748,936 748,935 748,934 748,933 748,932 748,931 748,930 748,929 748,928 748,927 748,926 748,925 748,924 748,923 748,922 748,921 748,920 748,919 748,918 748,917 748,916 748,915 748,914 748,913 748,912 748,911 748,910 748,909 748,908 748,907 748,906 748,905 748,904 748,903 748,902 748,901 748,900 748,899 748,898 748,897 748,896 748,895 748,894 748,893 748,892 748,891 748,890 748,889 748,888 748,887 748,886 748,885 748,884 748,883 748,882 748,881 748,880 748,879 748,878 748,877 748,876 748,875 748,874 748,873 748,872 748,871 748,870 748,869 748,868 748,867 748,866 748,865 747,865 746,865 745,865 744,865 743,865 742,865 741,865 740,865 739,865 738,865 737,865 736,865 735,864 734,864 733,864 732,864 731,864 730,864 729,864 728,865 727,864 726,864 725,864 724,864 723,864 722,864 721,864 720,864 719,864 718,864 717,864 716,864 715,864 714,864 713,864 712,864 711,864 710,864 709,864 708,864 707,864 706,864 705,864 704,864 703,864 702,864 701,864 700,864 699,864 698,864 697,864 696,864 695,864 694,865 694,866 693,867 693,868 692,869 692,870 691,871 691,872 690,873 690,874 689,875 689,876 688,877 687,876 686,875 686,874 687,873 687,872 688,871 688,870 689,869 689,868 690,867 690,866 691,865 691,864 690,864 689,864">
      <metadata tailDirection="" confidence="0.86" linkedToCharacter="" id="TetsuSan_052_balloon_0" tailTip=""></metadata>
    </polygon>
    <polygon points="430,863 430,864 430,865 430,866 430,867 430,868 430,869 430,870 430,871 430,872 430,873 430,874 430,875 430,876 430,877 430,878 430,879 430,880 430,881 430,882 430,883 430,884 430,885 430,886 430,887 430,888 430,889 430,890 430,891 430,892 430,893 430,894 430,895 430,896 430,897 430,898 430,899 430,900 430,901 430,902 430,903 430,904 430,905 430,906 430,907 430,908 430,909 430,910 430,911 430,912 430,913 430,914 430,915 430,916 430,917 430,918 430,919 430,920 430,921 430,922 430,923 430,924 430,925 430,926 430,927 430,928 430,929 430,930 430,931 430,932 430,933 430,934 430,935 430,936 430,937 430,938 430,939 430,940 430,941 430,942 430,943 430,944 430,945 430,946 430,947 430,948 430,949 430,950 430,951 430,952 430,953 430,954 430,955 430,956 430,957 430,958 430,959 430,960 430,961 430,962 430,963 430,964 430,965 430,966 430,967 430,968 430,969 430,970 430,971 430,972 430,973 430,974 430,975 430,976 430,977 430,978 430,979 430,980 430,981 430,982 430,983 430,984 430,985 430,986 430,987 430,988 431,989 431,990 432,991 432,992 433,993 434,994 435,994 436,995 437,996 438,996 439,996 440,997 441,996 442,996 443,995 444,995 445,995 446,995 447,996 448,996 449,996 450,996 451,997 452,997 453,998 454,998 455,998 456,998 457,998 458,998 459,998 460,997 461,996 461,995 462,994 462,993 463,992 463,991 464,990 465,989 466,989 467,989 468,989 469,989 470,989 471,988 472,988 473,988 474,988 475,987 475,986 475,985 476,984 476,983 476,982 477,981 477,980 478,979 478,978 479,977 480,977 481,977 482,976 482,975 483,974 483,973 483,972 483,971 484,970 484,969 485,968 486,967 486,966 487,965 487,964 487,963 487,962 488,961 487,960 487,959 487,958 486,957 486,956 485,955 485,954 485,953 485,952 485,951 485,950 485,949 485,948 485,947 485,946 485,945 485,944 486,943 486,942 486,941 487,940 487,939 487,938 488,937 488,936 488,935 487,934 487,933 487,932 486,931 485,930 485,929 484,928 484,927 484,926 484,925 484,924 484,923 484,922 484,921 484,920 485,919 485,918 485,917 486,916 486,915 486,914 487,913 487,912 487,911 487,910 487,909 487,908 486,907 486,906 485,905 485,904 484,903 484,902 485,901 486,900 486,899 485,899 484,899 483,898 483,897 483,896 483,895 483,894 483,893 483,892 484,891 484,890 484,889 484,888 484,887 484,886 485,885 484,884 484,883 484,882 483,881 483,880 482,879 481,878 481,877 481,876 481,875 481,874 481,873 482,872 482,871 482,870 482,869 482,868 482,867 481,866 480,865 480,864 479,863 478,863 477,863 476,863 475,863 474,863 473,863 472,863 471,863 470,863 469,863 468,863 467,863 466,863 465,863 464,863 463,863 462,863 461,863 460,863 459,863 458,863 457,863 456,863 455,863 454,863 453,863 452,863 451,863 450,863 449,863 448,863 447,863 446,863 445,863 444,863 443,863 442,863 441,863 440,863 439,863 438,863 437,863 436,863 435,863 434,863 433,863 432,863 431,863 430,863">
      <metadata tailDirection="" confidence="0.99" linkedToCharacter="" id="TetsuSan_052_balloon_1" tailTip=""></metadata>
    </polygon>
    <polygon points="517,615 518,615 519,615 520,615 521,615 522,615 523,615 524,615 525,615 526,615 527,615 528,615 529,615 530,615 531,615 532,615 533,615 534,615 535,615 536,615 537,615 538,615 539,615 540,615 541,615 542,615 543,615 544,615 545,615 546,615 547,615 548,615 549,615 550,615 551,615 552,615 553,615 554,615 555,615 556,615 557,615 558,615 559,615 560,615 561,615 562,615 563,615 564,615 565,615 566,615 567,615 568,615 569,615 570,615 571,615 572,615 573,615 574,615 575,615 576,615 577,616 578,616 579,616 580,615 581,616 582,616 583,616 584,616 585,616 586,616 587,616 588,616 589,616 590,616 591,616 592,616 593,616 594,616 595,616 596,616 597,616 598,616 599,616 600,616 601,616 602,616 603,616 604,616 605,616 606,616 607,616 608,616 609,616 610,616 611,616 612,616 613,616 614,616 615,616 616,616 617,616 618,616 619,616 620,616 621,616 622,616 623,616 624,616 625,616 626,616 627,616 628,616 629,616 630,616 631,616 632,616 633,616 634,616 635,616 636,616 637,616 638,617 639,617 640,617 641,617 642,617 643,617 644,617 645,617 646,617 647,617 648,617 649,617 650,617 651,617 652,617 653,617 654,617 655,617 656,617 657,617 658,617 659,617 660,617 661,617 662,617 663,617 664,617 665,617 666,617 667,617 668,617 669,617 670,617 671,617 672,617 673,617 674,617 675,617 676,617 677,617 677,616 678,615 679,615 680,616 680,617 679,618 678,619 678,620 677,621 677,622 677,623 676,624 676,625 676,626 676,627 676,628 675,629 675,630 675,631 675,632 675,633 676,634 676,635 676,636 676,637 677,638 677,639 678,640 678,641 678,642 679,643 678,644 678,645 677,646 677,647 677,648 676,649 676,650 676,651 675,652 675,653 675,654 675,655 674,656 674,657 674,658 674,659 674,660 674,661 673,662 673,663 673,664 673,665 673,666 673,667 674,668 674,669 674,670 674,671 674,672 675,673 675,674 675,675 676,676 676,677 677,678 677,679 678,680 678,681 677,682 676,682 675,682 674,682 673,682 672,682 671,682 670,682 669,682 670,683 671,683 672,684 673,684 674,685 675,685 676,686 676,687 676,688 675,689 675,690 674,691 674,692 673,693 673,694 672,695 672,696 672,697 672,698 672,699 672,700 672,701 672,702 672,703 672,704 672,705 672,706 672,707 672,708 673,709 673,710 673,711 674,712 674,713 674,714 675,715 675,716 676,717 677,718 677,719 678,719 679,720 679,721 678,722 677,721 676,722 676,723 676,724 676,725 676,726 675,727 675,728 675,729 675,730 676,731 676,732 676,733 676,734 676,735 677,736 677,737 678,738 679,739 679,740 680,741 681,742 681,743 682,744 683,745 684,745 685,746 686,747 687,747 688,748 689,748 690,748 691,749 692,749 693,749 694,749 695,749 696,749 697,749 698,749 699,750 699,751 700,752 701,753 701,754 702,755 703,755 704,756 705,756 706,757 707,757 708,758 709,758 710,758 711,758 712,759 713,759 714,759 715,759 716,759 717,759 718,758 719,758 720,758 721,757 722,757 723,757 724,757 725,757 726,757 727,758 728,758 729,759 730,759 731,760 732,760 733,761 734,761 735,761 736,761 737,762 738,762 739,762 740,762 741,762 742,762 743,763 744,763 745,763 746,762 747,762 748,762 748,761 749,760 748,759 748,758 748,757 748,756 748,755 748,754 748,753 748,752 748,751 748,750 748,749 748,748 748,747 748,746 748,745 748,744 748,743 748,742 748,741 748,740 748,739 748,738 748,737 748,736 748,735 748,734 748,733 748,732 748,731 748,730 748,729 748,728 748,727 748,726 748,725 748,724 748,723 748,722 748,721 748,720 748,719 748,718 748,717 748,716 748,715 748,714 748,713 748,712 748,711 748,710 748,709 748,708 748,707 748,706 748,705 749,704 748,703 748,702 748,701 748,700 748,699 748,698 748,697 748,696 748,695 748,694 748,693 748,692 748,691 748,690 749,689 749,688 748,687 748,686 748,685 748,684 748,683 748,682 748,681 748,680 748,679 748,678 748,677 748,676 748,675 748,674 748,673 748,672 748,671 748,670 748,669 748,668 748,667 748,666 748,665 748,664 748,663 748,662 748,661 748,660 748,659 748,658 748,657 748,656 748,655 748,654 748,653 748,652 748,651 748,650 748,649 748,648 748,647 748,646 748,645 748,644 748,643 748,642 748,641 748,640 748,639 748,638 748,637 748,636 748,635 748,634 748,633 748,632 748,631 748,630 748,629 748,628 748,627 748,626 748,625 748,624 748,623 748,622 748,621 748,620 748,619 748,618 748,617 748,616 747,616 746,616 745,616 744,616 743,616 742,616 741,616 740,616 739,616 738,616 737,616 736,616 735,616 734,616 733,616 732,616 731,616 730,616 729,616 728,616 727,616 726,616 725,616 724,616 723,616 722,616 721,616 720,616 719,616 718,616 717,616 716,616 715,616 714,616 713,616 712,616 711,616 710,616 709,616 708,616 707,616 706,616 705,616 704,616 703,616 702,616 701,616 700,616 699,616 698,616 697,615 696,616 695,616 694,616 693,615 692,615 691,615 690,615 689,615 688,615 687,615 686,615 685,615 684,615 683,615 682,615 681,615 680,615 679,615 678,615 677,615 676,615 675,615 674,615 673,615 672,615 671,615 670,615 669,615 668,615 667,615 666,615 665,615 664,615 663,615 662,615 661,615 660,615 659,615 658,615 657,615 656,615 655,615 654,615 653,615 652,615 651,615 650,615 649,615 648,615 647,615 646,615 645,615 644,615 643,615 642,615 641,615 640,615 639,615 638,615 637,615 636,615 635,615 634,615 633,615 632,615 631,615 630,615 629,615 628,615 627,615 626,615 625,615 624,615 623,615 622,615 621,615 620,615 619,615 618,615 617,615 616,615 615,615 614,615 613,615 612,615 611,615 610,615 609,615 608,615 607,615 606,615 605,615 604,615 603,615 602,615 601,615 600,615 599,615 598,615 597,615 596,615 595,615 594,615 593,615 592,615 591,615 590,615 589,615 588,615 587,615 586,615 585,615 584,615 583,615 582,615 581,615 580,615 579,615 578,615 577,615 576,615 575,615 574,615 573,615 572,615 571,615 570,615 569,615 568,615 567,615 566,615 565,615 564,615 563,615 562,615 561,615 560,615 559,615 558,615 557,615 556,615 555,615 554,615 553,615 552,615 551,615 550,615 549,615 548,615 547,615 546,615 545,615 544,615 543,615 542,615 541,615 540,615 539,615 538,615 537,615 536,615 535,615 534,615 533,615 532,615 531,615 530,615 529,615 528,615 527,615 526,615 525,615 524,615 523,615 522,615 521,615 520,615 519,615 518,615 517,615">
      <metadata tailDirection="" confidence="0.89" linkedToCharacter="" id="TetsuSan_052_balloon_2" tailTip=""></metadata>
    </polygon>
    <polygon points="694,372 693,373 692,373 691,373 690,373 689,373 688,373 687,373 687,374 686,375 686,376 686,377 685,378 685,379 685,380 685,381 685,382 684,383 684,384 684,385 684,386 684,387 683,388 683,389 683,390 683,391 683,392 683,393 683,394 682,395 682,396 682,397 682,398 682,399 682,400 681,401 681,402 681,403 681,404 681,405 681,406 681,407 681,408 681,409 681,410 681,411 681,412 681,413 681,414 680,415 680,416 680,417 680,418 680,419 680,420 680,421 680,422 680,423 680,424 680,425 680,426 680,427 680,428 680,429 680,430 680,431 680,432 680,433 680,434 680,435 680,436 680,437 680,438 680,439 680,440 680,441 681,442 681,443 681,444 681,445 681,446 681,447 681,448 681,449 681,450 680,451 679,452 678,452 677,453 678,453 679,454 680,455 680,456 680,457 680,458 680,459 680,460 680,461 679,462 679,463 679,464 679,465 679,466 679,467 679,468 679,469 679,470 679,471 678,472 678,473 678,474 678,475 678,476 678,477 678,478 678,479 678,480 678,481 678,482 678,483 678,484 677,485 677,486 677,487 677,488 677,489 677,490 677,491 677,492 677,493 677,494 677,495 677,496 677,497 677,498 677,499 677,500 677,501 677,502 677,503 677,504 677,505 677,506 677,507 677,508 677,509 677,510 677,511 677,512 677,513 677,514 677,515 677,516 677,517 678,518 678,519 678,520 678,521 678,522 678,523 678,524 678,525 678,526 679,527 679,528 679,529 679,530 679,531 679,532 679,533 679,534 679,535 680,536 680,537 680,538 680,539 680,540 680,541 681,542 681,543 681,544 681,545 681,546 682,547 682,548 682,549 682,550 683,551 683,552 683,553 683,554 684,555 684,556 684,557 684,558 685,559 685,560 686,561 686,562 686,563 687,564 687,565 687,566 688,567 688,568 689,569 689,570 690,571 691,572 692,573 692,574 693,575 693,576 694,577 695,578 696,579 696,580 697,581 698,582 699,583 699,584 700,585 701,586 702,587 703,588 704,589 705,590 706,591 707,592 708,593 709,594 710,595 711,596 712,597 713,597 714,598 715,598 716,598 717,598 718,599 719,598 720,598 721,598 722,598 723,598 724,598 725,598 726,598 727,598 728,598 729,598 730,598 731,598 732,598 733,598 734,598 735,598 736,598 737,598 738,598 739,598 740,598 741,598 742,598 743,598 744,598 745,598 746,598 747,598 748,598 749,598 749,597 749,596 749,595 749,594 749,593 749,592 749,591 749,590 749,589 749,588 749,587 749,586 749,585 749,584 749,583 749,582 749,581 749,580 749,579 749,578 749,577 749,576 749,575 749,574 749,573 749,572 749,571 749,570 749,569 749,568 749,567 749,566 749,565 749,564 749,563 749,562 749,561 749,560 749,559 749,558 749,557 749,556 749,555 749,554 749,553 749,552 749,551 749,550 749,549 749,548 749,547 749,546 749,545 750,544 749,543 749,542 749,541 749,540 749,539 749,538 749,537 750,536 749,535 749,534 749,533 749,532 749,531 749,530 749,529 749,528 749,527 749,526 749,525 749,524 749,523 749,522 749,521 750,520 750,519 750,518 750,517 750,516 750,515 749,514 749,513 750,512 750,511 749,510 749,509 749,508 750,507 749,506 749,505 749,504 749,503 749,502 749,501 749,500 749,499 749,498 749,497 749,496 749,495 749,494 749,493 749,492 749,491 749,490 749,489 750,488 750,487 750,486 749,485 749,484 749,483 749,482 749,481 750,480 749,479 749,478 749,477 749,476 749,475 749,474 749,473 749,472 749,471 749,470 749,469 749,468 749,467 749,466 750,465 749,464 749,463 749,462 749,461 749,460 749,459 749,458 749,457 749,456 749,455 749,454 749,453 749,452 749,451 749,450 749,449 749,448 749,447 749,446 749,445 749,444 749,443 749,442 749,441 749,440 749,439 749,438 749,437 749,436 749,435 749,434 749,433 749,432 749,431 749,430 749,429 749,428 749,427 749,426 749,425 749,424 749,423 749,422 749,421 749,420 749,419 749,418 749,417 749,416 749,415 749,414 749,413 749,412 749,411 749,410 749,409 749,408 749,407 749,406 749,405 749,404 749,403 749,402 749,401 749,400 749,399 749,398 749,397 749,396 749,395 749,394 749,393 749,392 749,391 749,390 749,389 749,388 749,387 749,386 749,385 749,384 749,383 749,382 749,381 749,380 749,379 749,378 749,377 749,376 749,375 749,374 749,373 748,373 747,373 746,373 745,373 744,373 743,373 742,373 741,373 740,373 739,373 738,373 737,373 736,373 735,373 734,373 733,373 732,373 731,373 730,373 729,373 728,373 727,373 726,373 725,373 724,373 723,373 722,373 721,373 720,373 719,373 718,373 717,373 716,373 715,373 714,373 713,373 712,373 711,373 710,373 709,373 708,373 707,373 706,373 705,373 704,372 703,372 702,373 701,373 700,373 699,373 698,373 697,373 696,373 695,372 694,372">
      <metadata tailDirection="" confidence="0.86" linkedToCharacter="" id="TetsuSan_052_balloon_3" tailTip=""></metadata>
    </polygon>
    <polygon points="342,372 342,373 341,374 341,375 340,376 340,377 339,378 339,379 338,380 338,381 337,382 337,383 336,384 335,385 335,386 335,387 334,388 333,389 333,390 332,391 332,392 331,393 331,394 330,395 329,396 328,395 328,394 327,394 326,394 325,394 324,394 325,395 326,396 325,397 324,398 323,398 324,399 325,400 325,401 325,402 325,403 325,404 325,405 325,406 325,407 325,408 325,409 325,410 325,411 325,412 325,413 325,414 325,415 325,416 325,417 325,418 325,419 325,420 325,421 325,422 325,423 325,424 325,425 325,426 325,427 325,428 325,429 325,430 325,431 325,432 325,433 325,434 325,435 325,436 325,437 325,438 325,439 325,440 325,441 325,442 325,443 325,444 325,445 325,446 325,447 325,448 325,449 325,450 325,451 325,452 325,453 325,454 325,455 325,456 325,457 325,458 325,459 325,460 325,461 325,462 325,463 325,464 325,465 325,466 325,467 325,468 325,469 325,470 325,471 325,472 325,473 325,474 325,475 325,476 325,477 325,478 325,479 325,480 325,481 325,482 325,483 325,484 325,485 325,486 325,487 325,488 325,489 325,490 325,491 325,492 325,493 325,494 325,495 325,496 325,497 325,498 325,499 325,500 325,501 325,502 325,503 325,504 325,505 325,506 325,507 325,508 325,509 325,510 325,511 325,512 325,513 325,514 325,515 325,516 325,517 325,518 325,519 325,520 325,521 325,522 325,523 325,524 325,525 325,526 325,527 325,528 325,529 325,530 325,531 325,532 325,533 325,534 325,535 325,536 325,537 325,538 325,539 325,540 325,541 325,542 325,543 325,544 325,545 325,546 325,547 325,548 325,549 325,550 325,551 325,552 325,553 325,554 325,555 325,556 325,557 325,558 325,559 325,560 325,561 325,562 324,563 324,564 324,565 324,566 323,567 323,568 323,569 323,570 323,571 323,572 323,573 324,574 323,575 322,576 321,577 322,577 323,576 324,576 325,576 326,575 327,576 328,577 328,578 328,579 328,580 329,581 329,582 330,583 330,584 330,585 331,586 331,587 331,588 332,589 332,590 332,591 333,592 333,593 334,594 334,595 334,596 335,597 336,597 335,596 335,595 335,594 334,593 334,592 334,591 333,590 333,589 332,588 332,587 332,586 331,585 331,584 331,583 330,582 330,581 330,580 329,579 329,578 329,577 328,576 328,575 327,574 328,573 328,572 328,571 329,570 330,571 330,572 331,573 331,574 331,575 332,576 332,577 332,578 333,579 333,580 333,581 334,582 334,583 335,584 335,585 335,586 336,587 336,588 336,589 337,590 337,591 338,592 338,593 338,594 339,595 339,596 340,597 341,597 342,597 343,597 344,597 345,597 346,597 347,597 348,597 349,597 350,597 351,597 352,597 353,597 354,597 355,597 356,597 357,597 358,597 359,597 360,597 361,597 362,597 363,597 364,597 365,597 366,597 367,597 368,597 369,597 370,597 371,597 372,597 373,597 374,597 375,597 376,597 377,597 378,597 379,597 380,597 381,597 382,597 383,597 384,597 385,597 386,597 387,597 388,597 388,596 389,595 389,594 389,593 389,592 389,591 389,590 389,589 389,588 389,587 389,586 389,585 389,584 389,583 389,582 389,581 389,580 389,579 389,578 389,577 389,576 389,575 389,574 389,573 389,572 389,571 389,570 389,569 389,568 389,567 389,566 389,565 389,564 389,563 389,562 389,561 389,560 389,559 389,558 389,557 389,556 389,555 389,554 389,553 389,552 389,551 389,550 389,549 389,548 389,547 389,546 389,545 389,544 389,543 389,542 389,541 389,540 389,539 389,538 389,537 389,536 389,535 389,534 389,533 389,532 389,531 389,530 389,529 389,528 389,527 389,526 389,525 389,524 389,523 389,522 389,521 389,520 389,519 389,518 389,517 389,516 389,515 389,514 389,513 389,512 389,511 389,510 389,509 389,508 389,507 389,506 389,505 389,504 389,503 389,502 389,501 389,500 389,499 389,498 389,497 389,496 389,495 389,494 389,493 389,492 389,491 389,490 389,489 389,488 389,487 389,486 389,485 389,484 389,483 389,482 389,481 389,480 389,479 389,478 389,477 389,476 389,475 389,474 389,473 389,472 389,471 389,470 389,469 389,468 389,467 389,466 389,465 389,464 389,463 389,462 389,461 389,460 389,459 389,458 389,457 389,456 389,455 389,454 389,453 389,452 389,451 389,450 389,449 389,448 389,447 389,446 389,445 389,444 389,443 389,442 389,441 389,440 389,439 389,438 389,437 389,436 389,435 389,434 389,433 389,432 389,431 389,430 389,429 389,428 389,427 389,426 389,425 389,424 389,423 389,422 389,421 389,420 389,419 389,418 389,417 389,416 389,415 389,414 389,413 389,412 389,411 389,410 389,409 389,408 389,407 389,406 389,405 389,404 389,403 389,402 389,401 389,400 389,399 389,398 389,397 389,396 389,395 389,394 389,393 389,392 389,391 389,390 389,389 389,388 389,387 389,386 389,385 389,384 389,383 389,382 389,381 389,380 389,379 389,378 389,377 389,376 389,375 389,374 389,373 388,373 387,373 386,373 385,373 384,373 383,373 382,373 381,373 380,373 379,373 378,373 377,373 376,373 375,373 374,373 373,373 372,373 371,373 370,373 369,373 368,373 367,373 366,373 365,373 364,373 363,373 362,373 361,373 360,373 359,372 358,372 357,372 356,372 355,372 354,372 353,372 352,372 351,372 350,372 349,372 348,372 347,372 346,372 345,372 344,372 343,372 342,372">
      <metadata tailDirection="" confidence="0.94" linkedToCharacter="" id="TetsuSan_052_balloon_4" tailTip=""></metadata>
    </polygon>
    <polygon points="689,127 689,128 689,129 688,130 688,131 688,132 688,133 688,134 687,135 687,136 687,137 687,138 687,139 687,140 687,141 687,142 687,143 686,144 686,145 686,146 686,147 686,148 686,149 686,150 686,151 685,152 685,153 685,154 685,155 685,156 685,157 685,158 685,159 685,160 685,161 685,162 685,163 685,164 685,165 684,166 684,167 684,168 684,169 684,170 684,171 684,172 684,173 684,174 684,175 684,176 684,177 684,178 684,179 684,180 684,181 684,182 684,183 684,184 684,185 683,186 683,187 684,188 684,189 684,190 684,191 684,192 684,193 684,194 684,195 684,196 684,197 684,198 684,199 684,200 684,201 684,202 684,203 684,204 683,205 682,206 681,206 680,206 679,206 678,207 677,207 678,207 679,207 680,207 681,208 682,207 683,208 684,209 683,210 683,211 683,212 683,213 683,214 683,215 683,216 683,217 683,218 683,219 683,220 683,221 683,222 683,223 683,224 682,225 682,226 682,227 682,228 682,229 682,230 682,231 682,232 682,233 682,234 682,235 682,236 682,237 682,238 682,239 682,240 682,241 682,242 682,243 682,244 682,245 683,246 683,247 683,248 683,249 683,250 683,251 683,252 683,253 683,254 683,255 683,256 683,257 683,258 683,259 683,260 683,261 683,262 683,263 684,264 684,265 684,266 684,267 685,268 685,269 685,270 685,271 685,272 686,273 686,274 686,275 686,276 686,277 687,278 687,279 687,280 688,281 688,282 688,283 688,284 689,285 689,286 689,287 689,288 689,289 690,290 690,291 690,292 691,293 691,294 691,295 692,296 692,297 693,298 693,299 694,300 694,301 695,302 695,303 696,304 696,305 697,306 698,307 699,308 699,309 700,310 701,311 702,312 703,313 704,314 705,315 706,316 707,316 708,317 709,318 710,318 711,319 712,319 713,319 714,320 715,320 716,320 717,321 718,321 719,321 720,322 721,322 722,322 723,322 724,322 725,322 726,323 727,323 728,323 729,323 730,323 731,323 732,323 733,323 734,323 735,323 736,323 737,323 738,323 739,322 740,322 741,322 742,322 743,322 744,322 745,321 746,321 747,320 748,320 749,319 749,318 749,317 749,316 749,315 749,314 749,313 749,312 749,311 749,310 749,309 749,308 749,307 749,306 749,305 749,304 749,303 749,302 749,301 749,300 749,299 749,298 749,297 749,296 749,295 749,294 749,293 749,292 749,291 749,290 749,289 749,288 749,287 749,286 749,285 749,284 749,283 749,282 749,281 749,280 749,279 749,278 749,277 749,276 749,275 749,274 749,273 750,272 750,271 749,270 749,269 750,268 750,267 750,266 750,265 750,264 750,263 750,262 749,261 750,260 750,259 750,258 750,257 750,256 750,255 750,254 750,253 750,252 750,251 750,250 750,249 750,248 750,247 750,246 750,245 750,244 750,243 750,242 750,241 750,240 750,239 750,238 750,237 750,236 750,235 750,234 750,233 750,232 750,231 750,230 750,229 750,228 750,227 750,226 750,225 750,224 750,223 750,222 750,221 750,220 750,219 750,218 750,217 750,216 750,215 750,214 750,213 750,212 750,211 750,210 750,209 750,208 750,207 750,206 750,205 750,204 750,203 750,202 750,201 750,200 750,199 750,198 750,197 750,196 750,195 750,194 750,193 750,192 750,191 750,190 750,189 750,188 750,187 750,186 750,185 750,184 750,183 750,182 750,181 750,180 750,179 750,178 750,177 750,176 750,175 750,174 750,173 750,172 750,171 750,170 750,169 750,168 750,167 750,166 750,165 750,164 750,163 750,162 750,161 750,160 750,159 750,158 750,157 750,156 750,155 750,154 750,153 750,152 750,151 750,150 750,149 750,148 750,147 750,146 750,145 750,144 750,143 750,142 750,141 750,140 750,139 750,138 750,137 750,136 750,135 750,134 750,133 750,132 750,131 750,130 750,129 750,128 749,127 748,127 747,127 746,127 745,127 744,127 743,127 742,127 741,127 740,127 739,127 738,127 737,127 736,127 735,127 734,127 733,127 732,127 731,127 730,127 729,127 728,127 727,127 726,127 725,127 724,127 723,127 722,127 721,127 720,127 719,127 718,127 717,127 716,127 715,127 714,127 713,127 712,127 711,127 710,127 709,127 708,127 707,127 706,127 705,127 704,127 703,127 702,127 701,127 700,127 699,127 698,127 697,127 696,127 695,127 694,127 693,127 692,127 691,127 690,127 689,127">
      <metadata tailDirection="" confidence="0.88" linkedToCharacter="" id="TetsuSan_052_balloon_5" tailTip=""></metadata>
    </polygon>
    <polygon points="432,126 431,127 431,128 431,129 431,130 431,131 431,132 431,133 431,134 431,135 431,136 431,137 431,138 431,139 431,140 431,141 431,142 431,143 431,144 431,145 431,146 431,147 431,148 431,149 431,150 431,151 431,152 431,153 431,154 431,155 431,156 431,157 431,158 431,159 431,160 431,161 431,162 431,163 431,164 431,165 431,166 431,167 431,168 431,169 431,170 431,171 431,172 431,173 431,174 431,175 431,176 431,177 431,178 431,179 431,180 431,181 431,182 431,183 431,184 431,185 431,186 431,187 431,188 431,189 431,190 431,191 431,192 431,193 431,194 431,195 431,196 431,197 431,198 431,199 431,200 431,201 431,202 431,203 431,204 431,205 431,206 431,207 431,208 431,209 431,210 431,211 431,212 431,213 431,214 431,215 431,216 431,217 431,218 431,219 431,220 431,221 431,222 431,223 431,224 431,225 431,226 431,227 431,228 431,229 431,230 431,231 431,232 431,233 431,234 431,235 431,236 431,237 431,238 431,239 431,240 431,241 431,242 431,243 431,244 431,245 431,246 431,247 431,248 431,249 431,250 431,251 431,252 431,253 431,254 431,255 431,256 431,257 431,258 431,259 431,260 431,261 431,262 431,263 431,264 431,265 431,266 431,267 431,268 431,269 431,270 431,271 431,272 431,273 431,274 431,275 431,276 431,277 431,278 431,279 431,280 431,281 431,282 431,283 431,284 431,285 431,286 431,287 431,288 431,289 431,290 431,291 431,292 431,293 431,294 431,295 431,296 431,297 431,298 431,299 431,300 431,301 431,302 431,303 431,304 431,305 431,306 431,307 431,308 431,309 431,310 431,311 431,312 431,313 431,314 431,315 431,316 431,317 431,318 431,319 431,320 431,321 431,322 431,323 431,324 431,325 431,326 431,327 431,328 431,329 431,330 431,331 431,332 431,333 431,334 431,335 431,336 431,337 431,338 431,339 431,340 431,341 431,342 431,343 431,344 431,345 431,346 431,347 431,348 431,349 431,350 431,351 431,352 431,353 431,354 432,354 433,354 434,354 435,354 436,354 437,354 438,354 439,354 440,354 441,355 442,355 443,355 444,354 445,355 446,355 447,354 448,355 449,355 450,355 451,355 452,355 453,355 454,355 455,355 456,355 457,355 458,355 459,355 460,355 461,355 462,355 463,355 464,355 465,355 466,355 467,355 468,355 469,355 470,355 471,355 472,355 473,355 474,355 475,355 476,355 477,355 478,355 479,355 480,355 480,354 480,353 481,352 481,351 482,350 483,349 484,349 485,349 486,348 487,348 488,347 488,346 489,345 490,344 490,343 491,342 491,341 492,340 492,339 492,338 493,337 493,336 493,335 493,334 493,333 493,332 492,331 492,330 491,329 491,328 491,327 492,326 493,325 494,324 495,323 496,322 496,321 497,320 498,319 498,318 499,317 499,316 500,315 500,314 501,313 501,312 501,311 502,310 502,309 502,308 502,307 502,306 502,305 502,304 502,303 501,302 501,301 501,300 502,299 502,298 503,297 503,296 503,295 504,294 504,293 504,292 504,291 505,290 505,289 505,288 505,287 504,286 504,285 504,284 503,283 502,282 502,281 501,280 501,279 500,278 501,277 501,276 502,275 502,274 503,273 503,272 503,271 504,270 504,269 504,268 504,267 504,266 504,265 504,264 504,263 504,262 504,261 503,260 503,259 503,258 502,257 501,256 500,255 500,254 500,253 501,252 501,251 502,250 502,249 502,248 503,247 503,246 503,245 503,244 503,243 503,242 503,241 503,240 503,239 503,238 502,237 502,236 502,235 501,234 500,233 500,232 500,231 500,230 501,229 502,229 503,229 504,228 505,228 504,227 503,227 502,226 501,225 501,224 501,223 501,222 502,221 502,220 502,219 503,218 503,217 503,216 503,215 503,214 503,213 503,212 503,211 503,210 503,209 503,208 503,207 503,206 502,205 502,204 502,203 502,202 501,201 501,200 501,199 500,198 500,197 499,196 500,195 500,194 500,193 501,192 501,191 501,190 501,189 502,188 502,187 502,186 502,185 502,184 502,183 502,182 502,181 501,180 501,179 501,178 500,177 500,176 499,175 498,174 497,173 497,172 497,171 497,170 497,169 498,168 498,167 498,166 498,165 498,164 498,163 498,162 498,161 497,160 497,159 496,158 496,157 495,156 494,155 493,154 492,153 491,152 491,151 491,150 491,149 492,148 492,147 492,146 492,145 492,144 492,143 491,142 491,141 491,140 491,139 491,138 490,137 490,136 490,135 489,134 489,133 488,132 487,131 487,130 486,129 485,128 484,127 483,126 482,126 481,126 480,126 479,126 478,126 477,126 476,126 475,126 474,126 473,126 472,126 471,126 470,126 469,126 468,126 467,126 466,126 465,126 464,126 463,126 462,126 461,126 460,126 459,126 458,126 457,126 456,126 455,126 454,126 453,126 452,126 451,126 450,126 449,126 448,126 447,126 446,126 445,126 444,126 443,126 442,126 441,126 440,126 439,126 438,126 437,126 436,126 435,126 434,126 433,126 432,126">
      <metadata tailDirection="" confidence="0.96" linkedToCharacter="" id="TetsuSan_052_balloon_6" tailTip=""></metadata>
    </polygon>
    <polygon points="264,229 264,230 263,231 262,232 261,233 260,234 260,235 259,236 258,236 257,235 257,234 257,233 257,232 256,233 256,234 255,235 254,234 254,233 253,233 252,233 251,234 250,235 249,235 248,235 247,236 247,237 247,238 248,238 249,238 250,238 251,238 252,238 253,238 254,239 254,238 255,237 256,236 257,237 257,238 257,239 256,240 256,241 256,242 256,241 257,240 257,239 257,238 258,237 259,238 259,239 259,240 259,241 258,242 258,243 258,244 258,245 258,246 258,247 257,248 257,249 257,250 256,251 256,252 256,253 256,254 255,255 255,256 255,257 254,258 254,259 254,260 253,261 253,262 253,263 252,264 252,265 252,266 251,267 251,268 251,269 251,270 250,271 250,272 250,273 249,274 249,275 248,276 248,277 248,278 248,279 247,280 247,281 246,282 246,283 246,284 247,284 248,285 247,286 246,286 245,286 244,286 243,286 242,286 241,286 240,286 239,286 238,286 237,286 236,286 235,286 236,287 237,287 238,288 239,288 240,288 241,288 242,288 243,288 244,287 245,288 245,289 245,290 244,291 243,291 242,291 241,291 240,291 239,291 239,292 240,292 241,293 241,294 240,295 240,296 240,297 239,298 239,299 239,300 240,301 240,302 240,303 240,304 240,305 241,306 241,307 242,307 243,308 243,309 244,310 243,311 243,312 244,313 245,314 245,315 245,316 245,317 245,318 245,319 244,320 243,320 243,321 243,322 243,323 244,323 245,323 246,323 247,324 247,325 246,326 245,326 244,326 243,326 242,326 241,326 240,326 239,326 238,326 237,326 236,327 235,326 234,325 233,325 232,325 231,325 230,325 229,324 228,324 227,323 226,323 225,323 224,323 223,322 223,321 224,320 225,321 226,321 227,321 228,321 229,322 229,321 229,320 229,319 228,318 228,317 228,316 228,315 227,314 227,313 227,312 227,311 227,310 226,309 226,308 226,307 226,306 225,305 225,304 225,303 224,302 224,301 224,300 223,299 223,298 223,297 222,296 222,295 221,294 221,293 221,292 220,291 220,290 219,289 219,288 218,288 218,289 218,290 218,291 218,292 219,293 219,294 219,295 220,296 220,297 221,298 221,299 221,300 222,301 222,302 223,303 223,304 223,305 224,306 224,307 224,308 225,309 225,310 225,311 226,312 226,313 226,314 227,315 227,316 227,317 226,318 225,317 225,316 224,315 224,314 224,313 223,312 223,311 223,310 222,309 222,308 221,307 221,306 221,305 220,304 220,303 219,302 219,301 219,300 218,299 218,298 218,297 217,296 217,295 216,294 216,293 216,292 216,291 216,290 215,289 215,288 214,288 213,289 212,288 212,287 213,286 214,286 215,286 216,286 217,286 218,285 219,285 220,285 221,285 222,285 223,285 224,285 225,285 224,284 223,283 222,282 222,283 222,284 221,285 220,285 219,284 219,283 220,282 220,281 221,280 221,279 221,278 222,277 222,276 222,275 223,274 223,273 223,272 223,271 224,270 224,269 224,268 224,267 224,266 225,265 225,264 225,263 225,262 225,261 225,260 225,259 225,258 226,257 226,256 226,255 226,254 226,253 226,252 227,251 226,250 226,249 225,248 224,247 224,246 225,245 225,244 225,243 224,243 223,244 222,244 221,243 220,243 219,243 218,243 217,242 216,242 215,242 215,243 215,244 214,245 213,245 214,246 213,247 212,248 213,248 214,248 215,249 214,250 213,250 212,250 212,251 212,252 212,253 212,254 211,255 212,256 213,257 214,258 215,259 214,260 213,260 212,259 211,258 211,259 210,260 210,261 210,262 210,263 210,264 210,265 211,266 212,266 213,265 213,264 214,263 214,262 215,261 214,260 215,259 216,259 217,258 217,257 217,256 218,255 219,256 220,257 219,258 219,259 218,260 217,261 217,262 216,263 216,264 215,265 215,266 214,267 213,268 213,269 212,270 212,271 211,272 211,273 211,274 210,275 210,276 209,277 209,278 209,279 209,280 209,281 209,282 209,283 209,284 209,285 209,286 209,287 210,288 210,289 210,290 211,291 211,292 212,293 213,294 213,295 214,296 214,297 215,298 216,299 217,300 218,301 218,302 219,303 219,304 219,305 220,306 220,307 221,308 221,309 222,310 222,311 222,312 223,313 223,314 223,315 224,316 224,317 224,318 224,319 223,320 223,321 223,322 223,323 223,324 222,325 222,326 221,327 222,328 223,329 224,330 225,329 226,329 227,329 228,329 229,330 230,330 231,330 232,331 231,332 230,332 229,332 228,333 227,333 226,333 225,333 224,333 223,333 222,333 222,334 222,335 223,336 223,337 224,338 225,338 226,339 227,339 228,339 229,339 230,339 231,339 232,340 233,340 234,340 235,340 236,340 237,340 238,340 239,340 240,340 241,341 242,341 243,341 244,341 245,341 246,341 247,341 248,341 249,340 250,340 251,340 252,340 253,340 254,340 255,340 256,340 257,340 258,340 259,340 260,340 261,339 262,339 263,339 264,339 265,338 266,338 267,339 267,340 266,341 265,342 264,342 263,342 262,342 261,342 260,342 259,342 258,342 257,343 256,343 255,343 254,343 253,343 252,343 251,343 250,343 249,343 248,343 247,343 246,343 245,344 244,343 243,343 242,343 241,343 240,343 239,343 238,343 237,343 236,343 235,343 234,343 233,343 232,342 231,342 230,342 229,342 228,341 227,341 226,341 225,341 224,340 223,340 223,341 222,342 222,343 222,344 221,345 221,346 221,347 220,348 220,349 220,350 220,351 220,352 220,353 220,354 221,355 222,355 223,355 224,355 225,355 226,355 227,355 228,355 229,355 230,355 231,355 232,355 233,355 234,355 235,355 236,355 237,355 238,355 239,355 240,355 241,355 242,355 243,355 244,355 245,355 246,355 247,355 248,355 249,355 250,355 251,355 252,355 253,355 254,355 255,355 256,355 257,355 258,355 259,355 260,355 261,355 262,355 263,355 264,355 265,355 266,355 267,355 268,355 269,355 270,355 271,355 272,355 273,355 274,355 274,354 274,353 274,352 274,351 274,350 274,349 274,348 274,347 274,346 274,345 274,344 274,343 274,342 274,341 274,340 274,339 274,338 274,337 274,336 274,335 274,334 274,333 274,332 274,331 274,330 274,329 274,328 274,327 274,326 274,325 274,324 274,323 274,322 274,321 274,320 274,319 274,318 274,317 274,316 274,315 274,314 274,313 274,312 274,311 274,310 274,309 274,308 274,307 274,306 274,305 274,304 274,303 274,302 275,301 276,302 276,303 276,304 276,305 276,306 276,307 276,308 276,309 276,310 276,311 276,312 276,313 276,314 276,315 276,316 276,317 276,318 276,319 276,320 276,321 276,322 276,323 276,324 276,325 276,326 276,327 276,328 276,329 276,330 276,331 276,332 276,333 276,332 276,331 276,330 276,329 276,328 276,327 276,326 276,325 276,324 276,323 276,322 276,321 276,320 276,319 276,318 276,317 276,316 276,315 276,314 276,313 276,312 276,311 276,310 276,309 276,308 276,307 276,306 276,305 276,304 276,303 277,302 278,303 278,304 278,305 278,306 278,307 278,308 278,309 278,310 278,311 278,312 278,313 278,314 278,315 278,316 278,317 278,318 278,319 278,320 278,321 278,322 278,323 278,324 278,325 278,326 278,327 278,328 278,329 278,330 278,331 278,332 278,333 278,334 278,335 278,336 278,337 278,338 278,339 278,340 278,341 278,342 278,343 278,344 278,345 278,346 278,347 278,348 278,349 278,350 278,351 277,352 276,351 276,350 276,351 277,352 277,353 276,354 277,355 278,355 279,355 279,354 279,353 279,352 279,351 279,350 279,349 279,348 279,347 279,346 279,345 279,344 279,343 279,342 279,341 279,340 279,339 279,338 279,337 279,336 279,335 279,334 279,333 279,332 279,331 279,330 279,329 279,328 279,327 279,326 279,325 279,324 279,323 279,322 279,321 279,320 279,319 279,318 279,317 279,316 279,315 279,314 279,313 279,312 279,311 279,310 279,309 279,308 279,307 279,306 279,305 279,304 279,303 279,302 279,301 279,300 279,299 279,298 279,297 279,296 279,295 279,294 279,293 279,292 280,291 281,292 281,293 281,294 281,295 281,296 281,297 281,298 281,299 281,300 281,301 281,302 281,303 281,304 281,305 281,306 281,307 281,308 281,309 281,310 281,311 281,312 281,313 281,314 281,315 281,316 281,317 281,318 281,319 281,320 281,321 281,322 281,323 281,324 281,325 281,326 281,327 281,328 281,329 281,330 281,331 281,332 281,333 281,334 281,335 281,336 281,337 281,338 281,339 281,340 281,341 281,342 281,343 281,344 281,345 281,346 281,347 281,348 281,349 281,350 281,351 281,352 281,353 281,354 282,355 283,355 284,355 284,354 284,353 284,352 285,351 285,350 284,349 285,348 285,347 285,346 285,345 285,344 285,343 284,342 285,341 284,340 285,339 285,338 285,337 284,336 285,335 284,334 284,333 284,332 284,331 284,330 284,329 284,328 284,327 284,326 284,325 284,324 284,323 284,322 284,321 284,320 284,319 284,318 284,317 284,316 284,315 284,314 284,313 284,312 284,311 284,310 284,309 284,308 284,307 284,306 284,305 284,304 284,303 284,302 284,301 284,300 284,299 284,298 284,297 284,296 284,295 284,294 284,293 284,292 284,291 284,290 284,289 284,288 284,287 284,286 284,285 284,284 284,283 284,282 284,281 284,280 284,279 284,278 284,277 284,276 284,275 284,274 284,273 284,272 284,271 284,270 284,269 284,268 284,267 284,266 284,265 284,264 284,263 284,262 284,261 284,260 284,259 284,258 284,257 284,256 284,255 284,254 284,253 284,252 284,251 284,250 284,249 284,248 284,247 284,246 284,245 284,244 284,243 284,242 284,241 284,240 284,239 284,238 284,237 284,236 284,235 284,234 284,233 284,232 284,231 284,230 284,229 284,230 284,231 284,232 284,233 284,234 283,235 282,234 283,235 283,236 283,237 283,238 284,239 284,240 284,241 284,242 283,243 282,243 281,243 280,242 281,241 282,241 282,240 281,239 281,238 281,237 280,237 279,238 278,238 277,238 276,238 275,238 274,238 273,238 272,238 271,238 270,239 269,240 268,239 267,239 266,239 265,239 264,239 263,239 263,240 263,241 263,242 263,243 263,244 262,245 262,246 262,247 262,248 262,249 262,250 261,251 261,252 261,253 261,254 260,255 260,256 260,257 260,258 260,259 259,260 259,261 259,262 259,263 258,264 258,265 258,266 257,267 257,268 257,269 257,270 256,271 256,272 255,273 255,274 255,275 254,276 254,277 254,278 253,279 253,280 253,281 252,282 252,283 253,284 252,285 251,285 250,284 250,283 250,282 250,281 250,280 251,279 251,278 251,277 252,276 252,275 252,274 253,273 253,272 253,271 254,270 254,269 255,268 255,267 255,266 255,265 256,264 256,263 256,262 257,261 257,260 257,259 257,258 257,257 258,256 258,255 258,254 259,253 259,252 259,251 259,250 259,249 260,248 260,247 260,246 260,245 260,244 260,243 261,242 261,241 261,240 261,239 261,238 261,237 262,236 263,236 264,237 265,237 266,237 267,237 268,237 269,237 269,236 268,235 267,234 266,233 266,232 265,231 265,230 265,229 264,229">
      <metadata tailDirection="" confidence="0.82" linkedToCharacter="" id="TetsuSan_052_balloon_7" tailTip=""></metadata>
    </polygon>
    <polygon points="337,125 336,126 336,127 335,128 335,129 334,130 334,131 333,132 332,133 332,134 331,135 331,136 330,137 330,138 330,139 329,140 328,140 327,140 326,140 325,139 324,140 325,140 326,141 327,142 328,143 327,144 327,145 327,146 327,147 327,148 327,149 327,150 327,151 327,152 327,153 327,154 327,155 327,156 327,157 327,158 327,159 327,160 327,161 327,162 327,163 327,164 327,165 327,166 327,167 327,168 327,169 327,170 327,171 327,172 327,173 327,174 327,175 327,176 327,177 327,178 327,179 327,180 327,181 327,182 327,183 327,184 327,185 327,186 327,187 327,188 327,189 327,190 327,191 327,192 327,193 327,194 327,195 327,196 327,197 327,198 327,199 327,200 327,201 327,202 327,203 327,204 327,205 327,206 327,207 327,208 327,209 327,210 327,211 327,212 327,213 327,214 327,215 327,216 327,217 327,218 327,219 327,220 327,221 327,222 327,223 327,224 327,225 327,226 327,227 327,228 327,229 327,230 327,231 327,232 327,233 327,234 327,235 327,236 327,237 327,238 327,239 327,240 327,241 327,242 327,243 327,244 327,245 327,246 327,247 327,248 327,249 327,250 327,251 327,252 327,253 327,254 327,255 327,256 327,257 327,258 327,259 327,260 327,261 327,262 327,263 327,264 327,265 327,266 327,267 327,268 327,269 327,270 327,271 327,272 327,273 327,274 327,275 327,276 327,277 327,278 327,279 327,280 327,281 327,282 327,283 327,284 327,285 327,286 327,287 327,288 327,289 327,290 327,291 327,292 327,293 327,294 327,295 327,296 327,297 327,298 327,299 327,300 327,301 327,302 327,303 327,304 327,305 327,306 327,307 327,308 327,309 327,310 327,311 327,312 327,313 327,314 327,315 327,316 327,317 327,318 327,319 328,319 329,320 328,321 327,322 328,322 329,322 330,322 331,322 332,322 333,323 333,324 332,325 332,326 333,327 333,328 334,329 334,330 333,331 332,330 332,331 332,332 332,333 332,334 332,335 332,336 332,337 332,338 332,339 332,340 332,341 333,342 333,343 333,344 333,345 333,346 333,347 334,348 334,349 334,350 334,351 334,352 334,353 334,354 333,355 334,355 335,355 336,355 337,355 338,355 338,354 338,353 338,352 338,351 338,350 338,349 338,348 338,347 338,346 339,345 339,344 338,343 338,342 337,341 337,340 336,339 336,338 336,337 337,336 338,337 338,338 339,339 340,338 341,339 341,340 340,341 341,340 342,341 342,342 343,343 344,344 344,345 345,346 345,347 346,348 346,349 347,350 347,351 348,352 348,353 348,354 347,355 348,355 349,355 350,355 350,354 349,353 349,352 348,351 348,350 347,349 347,348 346,347 346,346 346,345 345,344 344,343 344,342 344,341 343,340 342,339 342,338 341,337 341,336 340,335 340,334 339,333 339,332 338,331 338,330 338,329 337,328 336,327 336,326 336,325 335,324 335,323 334,322 334,321 334,320 334,319 335,318 336,319 337,320 338,321 338,322 339,323 339,324 340,325 340,326 341,327 341,328 342,329 342,330 343,331 343,332 344,333 344,334 345,335 345,336 346,337 346,338 347,339 347,340 348,341 348,342 349,343 349,344 350,345 350,346 351,347 351,348 352,349 352,350 353,351 353,352 354,353 354,354 355,355 356,355 357,355 358,355 359,355 360,355 361,355 362,355 363,355 364,355 365,355 366,355 367,355 368,355 369,355 370,355 371,355 372,355 373,355 374,355 375,355 376,355 377,355 378,355 379,355 380,355 381,355 382,355 383,355 384,355 385,355 386,355 387,355 388,355 389,355 389,354 389,353 389,352 389,351 389,350 389,349 389,348 389,347 389,346 389,345 389,344 389,343 389,342 389,341 389,340 389,339 389,338 389,337 389,336 389,335 389,334 389,333 389,332 389,331 389,330 389,329 389,328 389,327 389,326 389,325 389,324 389,323 389,322 389,321 389,320 389,319 389,318 389,317 389,316 389,315 389,314 389,313 389,312 389,311 389,310 389,309 389,308 389,307 389,306 389,305 389,304 389,303 389,302 389,301 389,300 389,299 389,298 389,297 389,296 389,295 389,294 389,293 389,292 389,291 389,290 389,289 389,288 389,287 389,286 389,285 389,284 389,283 389,282 389,281 389,280 389,279 389,278 389,277 389,276 389,275 389,274 389,273 389,272 389,271 389,270 389,269 389,268 389,267 389,266 389,265 389,264 389,263 389,262 389,261 389,260 389,259 389,258 389,257 389,256 389,255 389,254 389,253 389,252 389,251 389,250 389,249 389,248 389,247 389,246 389,245 389,244 389,243 389,242 389,241 389,240 389,239 389,238 389,237 389,236 389,235 389,234 389,233 389,232 389,231 389,230 389,229 389,228 389,227 389,226 389,225 389,224 389,223 389,222 389,221 389,220 389,219 389,218 389,217 389,216 390,215 390,214 390,213 389,212 389,211 390,210 390,209 390,208 390,207 390,206 390,205 390,204 390,203 390,202 390,201 390,200 390,199 390,198 390,197 390,196 390,195 390,194 390,193 390,192 390,191 390,190 390,189 390,188 390,187 390,186 390,185 390,184 390,183 390,182 390,181 390,180 390,179 390,178 390,177 390,176 390,175 389,174 390,173 390,172 390,171 390,170 390,169 390,168 390,167 390,166 390,165 390,164 390,163 390,162 390,161 390,160 390,159 390,158 390,157 390,156 390,155 390,154 390,153 390,152 390,151 390,150 390,149 390,148 390,147 390,146 390,145 390,144 390,143 390,142 390,141 390,140 390,139 390,138 390,137 390,136 390,135 390,134 390,133 390,132 390,131 390,130 390,129 390,128 390,127 390,126 389,126 388,126 387,126 386,126 385,126 384,126 383,126 382,126 381,126 380,126 379,126 378,126 377,126 376,126 375,126 374,126 373,126 372,126 371,126 370,126 369,126 368,126 367,126 366,126 365,126 364,126 363,126 362,125 361,125 360,125 359,125 358,126 357,125 356,125 355,125 354,125 353,125 352,125 351,125 350,125 349,125 348,125 347,125 346,125 345,125 344,125 343,125 342,125 341,125 341,126 340,127 339,128 339,129 339,130 338,131 337,132 337,133 336,134 336,135 335,136 335,137 334,138 334,139 334,140 334,141 334,142 334,143 334,144 334,145 334,146 334,147 334,148 334,149 334,150 334,151 334,152 334,153 334,154 334,155 334,156 334,157 334,158 334,159 334,160 334,161 334,162 334,163 334,164 334,165 334,166 334,167 334,168 334,169 334,170 334,171 334,172 334,173 334,174 334,175 334,176 334,177 334,178 334,179 334,180 334,181 334,182 334,183 334,184 334,185 334,186 334,187 334,188 334,189 334,190 334,191 334,192 334,193 334,194 334,195 334,196 334,197 334,198 334,199 334,200 334,201 334,202 334,203 334,204 334,205 334,206 334,207 334,208 334,209 334,210 334,211 334,212 334,213 334,214 334,215 334,216 334,217 334,218 334,219 334,220 334,221 334,222 334,223 334,224 334,225 334,226 334,227 334,228 334,229 334,230 334,231 334,232 335,233 335,234 335,235 334,236 334,237 334,238 335,239 335,240 335,241 334,242 334,243 335,244 335,245 335,246 335,247 335,248 335,249 335,250 335,251 335,252 335,253 335,254 335,255 335,256 335,257 335,258 335,259 335,260 335,261 335,262 335,263 335,264 335,265 335,266 335,267 335,268 335,269 335,270 335,271 335,272 335,273 335,274 335,275 335,276 335,277 335,278 335,279 335,280 335,281 335,282 335,283 335,284 335,285 335,286 335,287 335,288 335,289 335,290 335,291 335,292 335,293 335,294 335,295 335,296 335,297 335,298 335,299 335,300 335,301 335,302 335,303 335,304 335,305 335,306 335,307 335,308 335,309 335,310 334,311 333,310 333,309 333,308 333,307 333,306 333,305 333,304 333,303 333,302 333,301 333,300 333,299 333,298 333,297 333,296 333,295 333,294 333,293 333,292 333,291 333,290 333,289 333,290 333,291 333,292 333,293 333,294 333,295 333,296 333,297 333,298 333,299 333,300 333,301 333,302 333,303 333,304 333,305 333,306 333,307 332,308 331,307 330,306 330,305 330,304 330,303 330,302 330,301 330,300 330,299 330,298 330,297 330,296 330,295 330,294 330,293 330,292 330,291 330,290 330,289 330,288 330,287 330,286 330,285 330,284 330,283 330,282 330,281 330,280 330,279 330,278 330,277 330,276 330,275 330,274 330,273 330,272 330,271 330,270 330,269 330,268 330,267 330,266 330,265 330,264 330,263 330,262 330,261 330,260 330,259 330,258 330,257 330,256 330,255 330,254 330,253 330,252 330,251 330,250 330,249 330,248 330,247 330,246 330,245 330,244 330,243 330,242 330,241 330,240 330,239 330,238 330,237 330,236 330,235 330,234 330,233 330,232 330,231 330,230 330,229 330,228 330,227 330,226 330,225 330,224 330,223 330,222 330,221 330,220 330,219 330,218 330,217 330,216 330,215 330,214 330,213 330,212 330,211 330,210 330,209 330,208 330,207 330,206 330,205 330,204 330,203 330,202 330,201 330,200 330,199 330,198 330,197 330,196 330,195 330,194 330,193 330,192 330,191 330,190 330,189 330,188 330,187 330,186 330,185 330,184 330,183 330,182 330,181 330,180 330,179 330,178 330,177 330,176 330,175 330,174 330,173 330,172 330,171 330,170 330,169 330,168 330,167 330,166 330,165 330,164 330,163 330,162 330,161 330,160 330,159 330,158 330,157 330,156 330,155 330,154 330,153 330,152 330,151 330,150 330,149 330,148 330,147 330,146 330,145 330,144 330,143 330,142 331,141 332,141 332,140 331,139 331,138 332,137 332,136 333,135 333,134 334,133 334,132 335,131 335,130 336,129 337,128 337,127 338,126 338,125 337,125">
      <metadata tailDirection="" confidence="0.84" linkedToCharacter="" id="TetsuSan_052_balloon_8" tailTip=""></metadata>
    </polygon>
    <polygon points="82,124 81,125 80,125 79,125 78,125 77,125 76,125 75,125 74,125 73,125 72,125 72,126 72,127 71,128 72,129 71,130 71,131 71,132 71,133 71,134 72,135 71,136 72,137 71,138 72,139 72,140 72,141 71,142 72,143 72,144 72,145 72,146 72,147 71,148 71,149 71,150 71,151 71,152 72,153 72,154 72,155 72,156 72,157 72,158 72,159 71,160 71,161 71,162 71,163 71,164 71,165 71,166 71,167 71,168 71,169 71,170 71,171 71,172 71,173 71,174 71,175 71,176 71,177 71,178 71,179 71,180 71,181 71,182 71,183 71,184 71,185 71,186 71,187 71,188 71,189 71,190 71,191 71,192 71,193 71,194 71,195 71,196 71,197 71,198 71,199 71,200 71,201 71,202 71,203 71,204 71,205 71,206 71,207 71,208 71,209 71,210 71,211 71,212 71,213 71,214 71,215 71,216 71,217 71,218 71,219 71,220 71,221 71,222 71,223 71,224 71,225 71,226 71,227 71,228 71,229 71,230 71,231 71,232 71,233 71,234 71,235 71,236 71,237 71,238 71,239 71,240 71,241 71,242 71,243 71,244 71,245 71,246 71,247 71,248 71,249 71,250 71,251 71,252 71,253 71,254 71,255 71,256 71,257 71,258 71,259 71,260 71,261 71,262 71,263 71,264 71,265 71,266 71,267 71,268 71,269 71,270 71,271 71,272 71,273 71,274 71,275 71,276 71,277 71,278 71,279 71,280 71,281 71,282 71,283 71,284 71,285 71,286 71,287 72,288 71,289 71,290 71,291 72,292 72,293 72,294 72,295 72,296 72,297 72,298 72,299 72,300 72,301 72,302 72,303 72,304 72,305 72,306 72,307 72,308 72,309 72,310 72,311 72,312 72,313 72,314 72,315 72,316 72,317 72,318 72,319 72,320 72,321 72,322 72,323 72,324 72,325 72,326 72,327 72,328 73,328 74,328 75,328 76,328 77,328 78,328 79,328 80,328 81,328 82,328 83,328 84,328 85,327 86,327 87,327 88,327 89,327 90,327 91,327 92,327 93,327 94,327 95,327 96,327 97,327 98,327 99,327 100,327 101,327 102,327 103,327 104,327 105,327 106,328 107,328 108,329 107,330 106,330 105,330 104,330 103,330 102,331 101,331 100,331 99,331 98,331 97,331 96,331 95,331 94,331 93,331 92,331 91,331 90,331 89,331 88,331 87,331 86,331 85,331 84,331 83,331 82,331 81,331 80,331 79,331 78,331 77,331 76,331 75,331 74,331 73,331 72,331 72,332 72,333 72,334 73,333 74,333 75,333 76,333 77,333 78,333 79,333 80,333 81,333 82,333 83,333 84,333 85,333 86,333 87,333 88,333 89,333 90,333 91,333 92,333 93,333 94,333 95,333 96,333 97,333 98,333 99,333 100,333 101,333 102,334 103,334 104,334 105,334 106,335 107,334 108,334 109,335 110,335 111,335 112,335 113,335 114,336 115,337 115,338 116,339 116,340 116,339 116,338 116,337 116,336 116,335 117,334 118,335 118,334 118,333 118,332 119,331 120,330 121,329 121,328 122,327 123,326 124,325 125,324 125,323 126,322 127,321 128,320 129,319 129,318 130,317 131,316 132,316 133,315 134,315 135,316 134,317 133,318 133,319 133,320 133,321 134,322 135,323 135,324 136,325 136,326 136,327 137,328 137,329 137,330 138,331 138,332 139,333 140,334 141,335 142,336 143,336 144,337 145,337 146,337 147,337 148,336 149,336 150,335 151,334 152,334 153,335 152,336 151,337 150,338 149,339 148,339 147,339 146,340 145,340 144,340 143,339 142,340 142,341 142,342 141,343 141,344 141,345 140,346 139,347 139,348 138,349 138,350 137,351 136,352 136,353 135,354 135,355 136,355 137,355 138,355 139,355 140,355 141,354 142,355 143,354 144,355 145,354 146,354 147,354 148,354 149,354 150,354 151,354 152,354 153,354 154,354 155,354 156,354 157,354 158,354 159,354 160,354 161,355 162,354 163,354 164,354 165,354 166,354 167,354 168,354 169,354 170,354 171,354 172,354 173,354 174,354 175,355 176,355 177,355 178,354 178,353 179,352 180,351 180,350 181,349 181,348 182,347 182,346 182,345 183,344 183,343 183,342 184,341 184,340 184,339 184,338 184,337 185,336 185,335 185,334 185,333 185,332 185,331 185,330 185,329 185,328 185,327 185,326 184,325 184,324 184,323 184,322 184,321 183,320 183,319 183,318 183,317 182,316 182,315 182,314 182,313 181,312 181,311 181,310 180,309 180,308 179,307 179,306 178,305 178,304 177,303 176,302 176,301 175,300 174,299 173,298 173,297 174,296 175,297 176,298 177,299 177,298 176,297 176,296 175,295 175,294 175,293 174,292 174,291 173,290 174,291 174,292 174,293 174,294 174,295 173,296 172,295 172,294 171,295 170,295 169,296 168,296 167,297 166,297 165,298 164,299 163,299 162,300 161,300 160,301 159,301 158,302 157,303 156,303 155,304 154,305 153,305 152,306 151,307 150,308 149,308 148,309 147,309 146,310 146,311 147,312 147,313 147,314 147,315 148,316 148,317 149,318 149,319 149,320 149,321 150,322 150,323 150,324 151,325 151,326 152,327 152,328 153,329 154,330 154,331 153,332 152,332 151,331 151,330 150,329 149,328 148,327 147,326 146,325 146,324 145,323 144,322 144,321 143,320 143,319 142,318 141,318 140,317 139,317 138,316 137,315 136,314 137,313 138,313 139,314 138,313 138,312 137,311 137,310 137,309 137,308 137,307 136,307 135,306 135,305 135,304 135,303 135,302 135,301 135,300 135,299 135,298 135,297 135,296 135,295 135,294 135,293 135,292 135,291 135,290 135,289 135,288 135,287 135,286 135,285 135,284 135,283 135,282 135,281 135,280 135,279 135,278 135,277 135,276 135,275 135,274 136,273 136,272 135,271 135,270 136,269 137,268 136,267 136,266 136,265 136,264 136,263 136,262 136,261 136,260 136,259 136,258 136,257 136,256 136,255 136,254 136,253 136,252 136,251 136,250 136,249 136,248 136,247 136,246 136,245 136,244 136,243 136,242 136,241 136,240 136,239 136,238 136,237 136,236 136,235 136,234 136,233 136,232 136,231 136,230 136,229 136,228 136,227 136,226 136,225 136,224 136,223 136,222 136,221 136,220 136,219 136,218 136,217 136,216 136,215 136,214 136,213 136,212 136,211 136,210 136,209 136,208 136,207 136,206 136,205 136,204 136,203 136,202 136,201 136,200 136,199 136,198 136,197 136,196 136,195 136,194 136,193 136,192 136,191 136,190 136,189 136,188 136,187 136,186 136,185 136,184 136,183 136,182 136,181 136,180 136,179 136,178 136,177 136,176 136,175 136,174 136,173 136,172 136,171 136,170 136,169 136,168 136,167 136,166 136,165 136,164 136,163 136,162 136,161 136,160 136,159 136,158 136,157 136,156 136,155 136,154 136,153 136,152 136,151 136,150 136,149 136,148 136,147 137,146 136,145 136,144 137,143 138,143 139,142 139,141 138,142 137,142 136,142 135,141 134,140 134,139 133,138 133,137 132,136 132,135 131,134 130,133 130,132 129,131 128,132 127,131 127,130 128,129 127,130 126,129 125,128 125,127 126,126 126,125 126,126 125,127 124,126 123,125 123,124 122,124 122,125 123,126 123,127 124,128 124,129 125,130 126,131 126,132 127,133 127,134 128,135 128,136 129,137 129,138 129,139 129,140 130,141 130,142 129,143 128,142 127,141 127,140 126,139 126,138 125,137 125,136 124,135 123,134 123,133 122,132 122,131 121,130 121,129 120,128 119,127 119,126 118,125 118,124 117,124 116,124 115,124 114,124 113,124 112,124 111,124 110,124 109,124 108,124 107,124 106,124 105,124 104,124 103,124 102,124 101,124 100,124 99,124 98,124 97,124 96,124 95,124 94,124 93,124 92,124 91,124 90,124 89,124 88,124 87,124 86,124 85,124 84,124 83,124 82,124">
      <metadata tailDirection="" confidence="0.80" linkedToCharacter="" id="TetsuSan_052_balloon_9" tailTip=""></metadata>
    </polygon>
  </svg>
</svg>
