<?xml version="1.0" encoding="UTF-8" standalone="no"?>
<svg width="827" xmlns="http://www.w3.org/2000/svg" version="1.0" height="1170">
  <title>TetsuSan_013</title>
  <svg contentScriptType="text/ecmascript" zoomAndPan="magnify" contentStyleType="text/css" class="Page" preserveAspectRatio="xMidYMid meet" version="1.0">
    <image xmlns:xlink="http://www.w3.org/1999/xlink" x="0" y="0" width="827" height="1170" xlink:href="./../../dataset_Manga109/TetsuSan/TetsuSan_013.jpg" xlink:type="simple" xlink:actuate="onLoad" preserveAspectRatio="xMidYMid meet" xlink:show="embed"/>
  </svg>
  <style type="text/css" xml:space="preserve">
        * { stroke-linejoin: round; }
        .Unclassified   { fill: orange; stroke: none;   opacity: 1.0; visibility: hidden; }
        .Noise          { fill: pink;   stroke: none;   opacity: 0.2; visibility: hidden; }
        .Panel          { fill: none;   stroke: red;    stroke-width:3; opacity: 0.5; visibility: visible; image-rendering: optimizeSpeed; }
        .Line           { fill: green;  stroke: none;   opacity: 0.5; visibility: visible; image-rendering: optimizeSpeed; }
        .TextArea       { fill: grey;   stroke: none;   opacity: 0.2; visibility: visible; image-rendering: optimizeSpeed; }
        .Balloon        { fill: cyan;   stroke: none;   opacity: 0.5; visibility: visible; image-rendering: optimizeSpeed; }
        .Letter         { fill: blue;   stroke: none;   opacity: 0.2; visibility: hidden; }
        .Object, .Character, .Face  { fill: yellow; stroke: none;   opacity: 0.5; visibility: visible; image-rendering: optimizeSpeed; }
        .Page           { fill: white;  stroke: none;    opacity: 0.5; visibility: visible; }
        .linkSBSC { fill: blue; stroke: none; opacity: 1.0; visibility: visible; }
        polygon:hover { opacity:1.0; stroke:red; }
</style>
  <svg xmlns="http://www.w3.org/2000/svg" contentScriptType="text/ecmascript" zoomAndPan="magnify" contentStyleType="text/css" class="Balloon" preserveAspectRatio="xMidYMid meet" version="1.0">
    <polygon points="646,592 646,593 647,594 647,595 648,596 648,597 649,598 649,599 649,600 650,601 650,602 650,603 651,604 651,605 651,606 651,607 651,608 652,609 652,610 652,611 652,612 652,613 652,614 652,615 652,616 652,617 652,618 652,619 653,620 652,621 652,622 652,623 652,624 652,625 652,626 652,627 652,628 652,629 652,630 651,631 651,632 651,633 650,634 650,635 649,636 649,637 648,638 647,639 646,640 645,641 644,642 643,643 644,644 645,644 646,645 647,646 647,647 648,648 648,649 649,650 649,651 649,652 649,653 650,654 650,655 650,656 650,657 650,658 650,659 650,660 649,661 649,662 649,663 648,664 648,665 648,666 647,667 647,668 646,669 646,670 645,671 644,672 644,673 643,674 642,675 643,675 644,676 645,676 646,677 647,678 647,679 647,680 647,681 647,682 647,683 646,684 646,685 645,686 645,687 644,688 643,689 642,690 641,691 640,692 639,693 638,693 637,694 636,695 635,695 634,696 633,697 634,697 635,697 636,697 637,697 638,697 639,697 640,697 641,697 642,697 643,698 644,698 645,699 646,699 647,700 648,701 649,702 650,703 650,704 650,705 651,706 651,707 651,708 651,709 651,710 651,711 651,712 651,713 650,714 650,715 650,716 649,717 649,718 648,719 648,720 648,721 647,722 646,723 646,724 645,725 645,726 644,727 643,728 643,729 642,730 641,731 641,732 642,732 643,732 644,733 645,733 646,734 647,735 648,736 649,737 650,738 651,739 651,740 652,741 652,742 652,743 652,744 652,745 653,746 653,747 653,748 653,749 653,750 653,751 652,752 652,753 651,754 651,755 650,756 649,757 649,758 648,759 647,760 646,761 645,762 644,763 643,764 643,765 644,765 645,765 646,765 647,766 648,766 649,766 650,767 651,768 652,769 652,770 653,771 653,772 653,773 653,774 653,775 653,776 653,777 653,778 653,779 652,780 652,781 652,782 651,783 651,784 650,785 650,786 649,787 648,788 647,789 647,790 648,790 649,791 650,791 651,792 652,793 653,793 654,794 654,795 655,796 656,797 656,798 657,799 657,800 658,801 658,802 658,803 659,804 659,805 659,806 659,807 660,808 660,809 660,810 660,811 660,812 660,813 660,814 660,815 660,816 660,817 660,818 660,819 660,820 660,821 659,822 659,823 659,824 659,825 658,826 658,827 659,827 660,826 661,826 662,825 663,825 664,824 665,824 666,823 667,823 668,822 669,822 670,822 671,821 672,821 673,821 674,821 675,821 676,820 677,820 678,820 679,821 680,821 681,821 682,821 683,822 684,822 685,823 686,823 687,824 688,825 689,826 690,827 691,828 691,829 692,830 692,831 693,832 693,833 693,834 693,835 693,836 693,837 694,836 695,835 696,834 697,833 698,832 699,831 700,830 701,829 702,829 703,828 704,828 705,827 706,827 707,827 708,826 709,826 710,826 711,826 712,826 713,826 714,826 715,827 716,827 717,827 718,827 719,828 720,829 721,830 722,831 723,832 724,833 725,834 725,835 725,836 726,836 727,835 728,834 729,833 730,832 731,831 732,830 733,830 734,829 735,829 736,828 737,827 738,827 739,827 740,826 741,826 742,825 743,825 744,825 745,824 746,824 747,824 748,824 749,824 750,823 751,823 752,823 753,823 754,823 755,823 756,823 756,822 756,821 756,820 756,819 756,818 756,817 756,816 756,815 756,814 756,813 756,812 756,811 756,810 756,809 756,808 756,807 756,806 756,805 756,804 756,803 756,802 756,801 756,800 756,799 756,798 756,797 756,796 756,795 756,794 756,793 756,792 756,791 756,790 756,789 756,788 756,787 756,786 756,785 756,784 756,783 756,782 756,781 756,780 756,779 756,778 756,777 756,776 756,775 756,774 756,773 756,772 756,771 756,770 756,769 756,768 756,767 756,766 756,765 756,764 756,763 756,762 756,761 756,760 756,759 756,758 756,757 756,756 756,755 756,754 756,753 756,752 756,751 756,750 756,749 756,748 756,747 756,746 756,745 756,744 756,743 756,742 756,741 756,740 756,739 756,738 756,737 756,736 756,735 756,734 756,733 756,732 756,731 756,730 756,729 756,728 756,727 756,726 756,725 756,724 756,723 756,722 756,721 756,720 756,719 756,718 756,717 756,716 756,715 756,714 756,713 756,712 756,711 756,710 756,709 756,708 756,707 756,706 756,705 756,704 756,703 756,702 756,701 756,700 756,699 756,698 756,697 756,696 756,695 756,694 756,693 756,692 756,691 756,690 756,689 756,688 756,687 756,686 756,685 756,684 756,683 756,682 756,681 756,680 756,679 756,678 756,677 756,676 756,675 756,674 756,673 756,672 756,671 756,670 756,669 756,668 756,667 756,666 756,665 756,664 756,663 756,662 756,661 756,660 756,659 756,658 756,657 756,656 756,655 756,654 756,653 756,652 756,651 756,650 756,649 756,648 756,647 756,646 756,645 756,644 756,643 756,642 756,641 756,640 756,639 756,638 756,637 756,636 756,635 756,634 756,633 756,632 756,631 756,630 756,629 755,628 755,627 756,626 756,625 755,624 756,623 756,622 756,621 755,620 756,619 755,618 755,617 756,616 756,615 755,614 755,613 756,612 756,611 756,610 755,609 755,608 756,607 756,606 755,605 755,604 755,603 755,602 756,601 756,600 756,599 756,598 756,597 756,596 755,595 755,594 756,593 756,592 755,592 754,592 753,592 752,592 751,592 750,592 749,592 748,592 747,592 746,592 745,592 744,592 743,592 742,592 741,592 740,592 739,592 738,592 737,592 736,592 735,592 734,592 733,592 732,592 731,592 730,592 729,592 728,592 727,592 726,592 725,592 724,592 723,592 722,592 721,592 720,592 719,592 718,592 717,592 716,592 715,592 714,592 713,592 712,592 711,592 710,592 709,592 708,592 707,592 706,592 705,592 704,592 703,592 702,592 701,592 700,592 699,592 698,592 697,592 696,592 695,592 694,592 693,592 692,592 691,592 690,592 689,592 688,592 687,592 686,592 685,592 684,592 683,592 682,592 681,592 680,592 679,592 678,592 677,592 676,592 675,592 674,592 673,592 672,592 671,592 670,592 669,592 668,592 667,592 666,592 665,592 664,592 663,592 662,592 661,592 660,592 659,592 658,592 657,592 656,592 655,592 654,592 653,592 652,592 651,592 650,592 649,592 648,592 647,592 646,592">
      <metadata tailDirection="" confidence="0.92" linkedToCharacter="" id="TetsuSan_013_balloon_0" tailTip=""></metadata>
    </polygon>
    <polygon points="205,592 206,593 207,594 208,595 208,596 209,597 210,598 210,599 211,600 211,601 211,602 211,603 212,604 212,605 212,606 213,607 213,608 213,609 214,610 214,611 214,612 214,613 214,614 215,615 215,616 215,617 215,618 215,619 215,620 214,621 214,622 214,623 214,624 213,625 213,626 213,627 212,628 212,629 211,630 211,631 210,632 210,633 209,634 208,635 208,636 207,637 206,638 205,639 205,640 204,641 203,642 202,643 201,644 202,644 203,644 204,645 205,645 206,646 207,646 208,647 209,648 210,649 211,650 212,651 212,652 213,653 213,654 214,655 214,656 215,657 215,658 215,659 215,660 216,661 216,662 216,663 216,664 216,665 216,666 216,667 215,668 215,669 215,670 215,671 214,672 214,673 214,674 214,675 213,676 213,677 212,678 212,679 211,680 210,681 210,682 209,683 208,684 207,685 207,686 208,686 209,687 209,688 210,689 211,690 211,691 211,692 212,693 212,694 212,695 212,696 212,697 212,698 212,699 212,700 212,701 212,702 212,703 212,704 212,705 211,706 211,707 211,708 210,709 210,710 210,711 209,712 209,713 209,714 208,715 208,716 207,717 207,718 206,719 206,720 205,721 205,722 204,723 204,724 204,725 205,725 206,725 207,726 208,727 209,728 210,729 211,730 211,731 211,732 212,733 212,734 212,735 212,736 212,737 212,738 212,739 212,740 212,741 212,742 212,743 212,744 212,745 212,746 212,747 212,748 212,749 213,750 212,751 211,752 211,753 211,754 211,755 210,756 210,757 211,758 210,759 209,760 209,761 210,760 211,759 212,758 213,757 214,757 215,756 216,755 217,755 218,754 219,754 220,753 221,753 222,752 223,752 224,752 225,751 226,751 227,751 228,751 229,751 230,750 231,750 232,750 233,750 234,750 235,750 236,750 237,750 238,751 239,751 240,751 241,752 242,752 243,753 244,753 245,754 246,755 247,755 248,756 249,757 249,758 250,759 251,760 251,761 252,762 252,763 253,764 253,765 253,766 254,767 254,768 255,769 255,770 255,771 255,772 255,773 255,774 255,775 255,776 255,777 255,778 255,779 255,780 255,781 255,782 255,783 256,783 256,782 256,781 257,780 258,779 258,778 259,777 260,776 261,775 262,774 263,773 264,772 265,771 266,771 267,770 268,769 269,768 270,768 271,767 272,766 273,766 274,765 275,765 276,764 277,764 278,763 279,763 280,763 281,763 282,762 283,762 284,762 285,761 286,761 287,761 288,761 289,761 290,761 291,761 292,761 293,761 294,761 295,761 296,761 297,761 298,761 299,761 300,761 301,762 302,762 303,762 304,762 305,762 306,763 307,763 308,763 309,764 310,764 311,765 312,766 312,767 313,768 314,769 315,770 316,771 315,770 315,769 315,768 315,767 315,766 315,765 315,764 316,763 316,762 316,761 316,760 316,759 317,758 317,757 317,756 317,755 317,754 318,753 318,752 318,751 319,750 319,749 319,748 320,747 320,746 320,745 321,744 321,743 321,742 322,741 322,740 323,739 323,738 324,737 325,736 325,735 326,734 326,733 327,732 328,731 328,730 329,729 330,728 331,727 332,726 332,725 333,724 334,723 335,722 335,721 336,720 337,719 338,718 339,717 340,716 341,715 342,714 343,713 344,712 345,711 346,710 347,709 348,708 349,707 350,707 350,706 349,705 349,704 349,703 348,702 348,701 347,700 347,699 347,698 346,697 346,696 345,695 345,694 345,693 345,692 344,691 344,690 344,689 344,688 344,687 344,686 344,685 344,684 344,683 344,682 344,681 344,680 344,679 344,678 344,677 344,676 345,675 345,674 345,673 345,672 345,671 345,670 345,669 345,668 346,667 346,666 346,665 346,664 346,663 346,662 347,661 347,660 348,659 348,658 349,657 349,656 350,655 351,654 352,653 351,652 350,652 349,651 348,651 347,650 346,650 345,649 344,649 343,648 342,647 341,646 340,645 339,644 339,643 338,642 338,641 337,640 337,639 337,638 337,637 336,636 336,635 336,634 336,633 336,632 336,631 336,630 336,629 336,628 336,627 335,626 335,625 335,624 335,623 335,622 335,621 335,620 335,619 335,618 335,617 335,616 336,615 336,614 336,613 336,612 336,611 336,610 337,609 337,608 337,607 337,606 337,605 337,604 338,603 338,602 338,601 339,600 339,599 339,598 340,597 340,596 340,595 340,594 341,593 341,592 340,592 339,592 338,592 337,592 336,592 335,592 334,592 333,592 332,592 331,592 330,592 329,592 328,592 327,592 326,592 325,592 324,592 323,592 322,592 321,592 320,592 319,592 318,592 317,592 316,592 315,592 314,592 313,592 312,592 311,592 310,592 309,592 308,592 307,592 306,592 305,592 304,592 303,592 302,592 301,592 300,592 299,592 298,592 297,592 296,592 295,592 294,592 293,592 292,592 291,592 290,592 289,592 288,592 287,592 286,592 285,592 284,592 283,592 282,592 281,592 280,592 279,592 278,592 277,592 276,592 275,592 274,592 273,592 272,592 271,592 270,592 269,592 268,592 267,592 266,592 265,592 264,592 263,592 262,592 261,592 260,592 259,592 258,592 257,592 256,592 255,592 254,592 253,592 252,592 251,592 250,592 249,592 248,592 247,592 246,592 245,592 244,592 243,592 242,592 241,592 240,592 239,592 238,592 237,592 236,592 235,592 234,592 233,592 232,592 231,592 230,592 229,592 228,592 227,592 226,592 225,592 224,592 223,592 222,592 221,592 220,592 219,592 218,592 217,592 216,592 215,592 214,592 213,592 212,592 211,592 210,592 209,592 208,592 207,592 206,592 205,592">
      <metadata tailDirection="" confidence="0.84" linkedToCharacter="" id="TetsuSan_013_balloon_1" tailTip=""></metadata>
    </polygon>
    <polygon points="77,592 77,593 77,594 78,595 77,596 77,597 77,598 78,599 77,600 77,601 78,602 78,603 78,604 78,605 77,606 77,607 77,608 78,609 78,610 78,611 77,612 77,613 78,614 78,615 78,616 78,617 77,618 77,619 78,620 78,621 77,622 78,623 78,624 77,625 77,626 77,627 77,628 78,629 78,630 78,631 78,632 78,633 78,634 78,635 77,636 77,637 78,638 78,639 78,640 78,641 77,642 77,643 77,644 77,645 77,646 77,647 77,648 77,649 78,650 78,651 78,652 78,653 78,654 78,655 78,656 78,657 78,658 78,659 78,660 78,661 78,662 78,663 78,664 78,665 78,666 78,667 78,668 78,669 78,670 78,671 78,672 78,673 78,674 78,675 78,676 78,677 78,678 78,679 78,680 78,681 78,682 78,683 78,684 78,685 78,686 78,687 78,688 78,689 78,690 78,691 78,692 78,693 78,694 78,695 78,696 78,697 78,698 78,699 78,700 78,701 78,702 78,703 78,704 78,705 78,706 78,707 78,708 78,709 78,710 78,711 78,712 78,713 78,714 78,715 78,716 78,717 78,718 78,719 78,720 78,721 78,722 78,723 78,724 78,725 78,726 78,727 78,728 78,729 78,730 78,731 78,732 78,733 78,734 78,735 78,736 78,737 78,738 78,739 78,740 78,741 78,742 78,743 78,744 78,745 78,746 79,747 79,748 79,749 79,750 79,751 79,752 79,753 79,754 79,755 79,756 79,757 79,758 79,759 79,760 79,761 79,762 79,763 79,764 79,765 79,766 79,767 79,768 79,769 79,770 79,771 79,772 79,773 79,774 79,775 79,776 79,777 79,778 79,779 79,780 79,781 79,782 79,783 79,784 79,785 79,786 79,787 79,788 79,789 79,790 79,791 79,792 79,793 79,794 79,795 79,796 79,797 79,798 79,799 79,800 79,801 79,802 79,803 79,804 79,805 79,806 79,807 79,808 79,809 79,810 79,811 79,812 79,813 79,814 79,815 79,816 79,817 79,818 79,819 79,820 79,821 79,822 79,823 79,824 79,825 79,826 79,827 79,828 79,829 79,830 79,831 79,832 79,833 79,834 79,835 79,836 79,837 79,838 79,839 79,840 79,841 79,842 79,843 79,844 79,845 79,846 79,847 79,848 79,849 79,850 79,851 79,852 79,853 79,854 79,855 79,856 79,857 79,858 79,859 79,860 79,861 79,862 79,863 79,864 79,865 79,866 79,867 79,868 79,869 79,870 79,871 79,872 79,873 79,874 79,875 79,876 79,877 79,878 79,879 79,880 79,881 79,882 79,883 79,884 79,885 79,886 79,887 79,888 79,889 79,890 79,891 79,892 80,892 81,892 82,892 83,892 84,892 85,893 86,893 87,893 88,893 89,893 90,892 91,892 92,892 93,892 94,892 95,892 96,892 97,892 98,892 99,892 100,892 101,892 102,892 103,892 104,892 105,892 106,892 107,892 108,892 109,892 110,892 111,893 112,892 113,892 114,892 115,892 116,892 117,892 118,892 119,892 120,892 121,892 122,892 123,892 124,892 125,892 126,892 127,892 128,892 129,892 130,892 131,892 132,892 133,893 134,893 135,893 136,893 137,893 138,893 139,893 140,893 141,893 142,893 143,893 144,893 145,893 146,893 147,893 148,893 149,893 150,893 151,893 152,893 153,893 154,893 155,893 156,893 157,893 158,893 159,893 160,893 161,893 162,893 163,893 164,893 165,893 166,893 167,893 168,893 169,893 170,893 171,893 172,893 173,893 174,893 175,893 176,893 177,893 178,893 179,893 180,893 181,893 182,893 183,893 184,893 185,893 186,893 187,893 188,893 189,893 190,893 191,893 192,892 192,891 192,890 192,889 192,888 192,887 192,886 192,885 192,884 191,883 191,882 191,881 191,880 191,879 191,878 191,877 191,876 191,875 191,874 191,873 191,872 191,871 191,870 191,869 191,868 191,867 191,866 191,865 191,864 191,863 191,862 191,861 191,860 191,859 191,858 191,857 191,856 191,855 191,854 191,853 191,852 191,851 191,850 191,849 191,848 191,847 191,846 191,845 191,844 191,843 191,842 191,841 191,840 191,839 191,838 191,837 191,836 191,835 191,834 191,833 191,832 191,831 191,830 191,829 191,828 191,827 190,826 190,825 190,824 190,823 190,822 190,821 190,820 190,819 190,818 190,817 190,816 190,815 190,814 190,813 190,812 190,811 190,810 190,809 190,808 190,807 190,806 190,805 190,804 190,803 190,802 190,801 190,800 190,799 190,798 190,797 190,796 190,795 190,794 190,793 190,792 190,791 190,790 190,789 190,788 190,787 190,786 190,785 190,784 190,783 190,782 190,781 190,780 190,779 190,778 189,777 189,776 189,775 189,774 189,773 189,772 189,771 189,770 189,769 189,768 189,767 189,766 189,765 189,764 189,763 189,762 189,761 189,760 189,759 189,758 189,757 189,756 189,755 189,754 189,753 189,752 189,751 189,750 189,749 189,748 189,747 189,746 189,745 189,744 189,743 189,742 189,741 189,740 189,739 189,738 189,737 189,736 189,735 189,734 189,733 189,732 189,731 189,730 189,729 189,728 189,727 189,726 189,725 189,724 189,723 189,722 189,721 189,720 189,719 189,718 188,717 188,716 188,715 188,714 188,713 188,712 188,711 188,710 188,709 188,708 188,707 188,706 188,705 188,704 188,703 188,702 188,701 188,700 188,699 188,698 188,697 188,696 188,695 188,694 188,693 188,692 188,691 188,690 188,689 188,688 188,687 188,686 188,685 188,684 188,683 188,682 188,681 188,680 188,679 188,678 188,677 188,676 188,675 188,674 188,673 188,672 188,671 188,670 188,669 188,668 188,667 188,666 188,665 188,664 188,663 188,662 188,661 188,660 188,659 188,658 188,657 188,656 188,655 188,654 188,653 188,652 188,651 188,650 188,649 188,648 188,647 188,646 188,645 188,644 188,643 188,642 188,641 188,640 188,639 188,638 188,637 188,636 188,635 188,634 188,633 188,632 188,631 188,630 188,629 188,628 188,627 188,626 188,625 188,624 188,623 188,622 188,621 188,620 188,619 188,618 188,617 188,616 188,615 188,614 188,613 188,612 188,611 188,610 188,609 188,608 188,607 188,606 188,605 188,604 188,603 188,602 188,601 188,600 188,599 188,598 188,597 189,596 189,595 189,594 189,593 189,592 188,592 187,592 186,592 185,592 184,592 183,592 182,592 181,592 180,592 179,592 178,592 177,592 176,592 175,592 174,592 173,592 172,592 171,592 170,592 169,592 168,592 167,592 166,592 165,592 164,592 163,592 162,592 161,592 160,592 159,592 158,592 157,592 156,592 155,592 154,592 153,592 152,592 151,592 150,592 149,592 148,592 147,592 146,592 145,592 144,592 143,592 142,592 141,592 140,592 139,592 138,592 137,592 136,592 135,592 134,592 133,592 132,592 131,592 130,592 129,592 128,592 127,592 126,592 125,592 124,592 123,592 122,592 121,592 120,592 119,592 118,592 117,592 116,592 115,592 114,592 113,592 112,592 111,592 110,592 109,592 108,592 107,592 106,592 105,592 104,592 103,592 102,592 101,592 100,592 99,592 98,592 97,592 96,592 95,592 94,592 93,592 92,592 91,592 90,592 89,592 88,592 87,592 86,592 85,592 84,592 83,592 82,592 81,592 80,592 79,592 78,592 77,592">
      <metadata tailDirection="" confidence="1.00" linkedToCharacter="" id="TetsuSan_013_balloon_2" tailTip=""></metadata>
    </polygon>
    <polygon points="696,329 696,330 696,331 696,332 696,333 696,334 696,335 696,336 696,337 696,338 696,339 696,340 696,341 696,342 696,343 696,344 696,345 696,346 696,347 696,348 696,349 696,350 696,351 696,352 696,353 696,354 696,355 696,356 696,357 695,358 695,359 695,360 695,361 695,362 695,363 695,364 695,365 695,366 695,367 695,368 695,369 695,370 695,371 695,372 695,373 695,374 695,375 695,376 695,377 695,378 695,379 695,380 695,381 695,382 695,383 695,384 695,385 695,386 695,387 695,388 695,389 695,390 695,391 695,392 695,393 695,394 695,395 695,396 695,397 695,398 695,399 695,400 695,401 695,402 695,403 695,404 695,405 695,406 695,407 695,408 695,409 695,410 695,411 695,412 695,413 695,414 695,415 695,416 695,417 695,418 695,419 695,420 695,421 695,422 695,423 695,424 695,425 695,426 695,427 695,428 695,429 695,430 695,431 695,432 695,433 695,434 695,435 695,436 695,437 695,438 695,439 695,440 695,441 695,442 695,443 695,444 695,445 695,446 695,447 695,448 695,449 695,450 695,451 695,452 695,453 695,454 695,455 695,456 695,457 695,458 695,459 695,460 695,461 695,462 695,463 695,464 695,465 695,466 695,467 695,468 695,469 695,470 694,471 695,472 695,473 694,474 694,475 694,476 694,477 695,478 694,479 694,480 694,481 694,482 694,483 694,484 694,485 694,486 694,487 694,488 694,489 694,490 694,491 694,492 694,493 694,494 694,495 694,496 694,497 694,498 695,499 695,500 694,501 694,502 695,503 695,504 695,505 695,506 695,507 695,508 695,509 695,510 695,511 694,512 694,513 694,514 694,515 694,516 694,517 694,518 694,519 694,520 694,521 694,522 694,523 694,524 694,525 694,526 694,527 694,528 694,529 694,530 694,531 694,532 694,533 694,534 694,535 694,536 694,537 695,538 695,539 695,540 695,541 695,542 695,543 695,544 695,545 695,546 695,547 695,548 695,549 695,550 695,551 695,552 695,553 695,554 695,555 695,556 695,557 695,558 695,559 695,560 695,561 695,562 695,563 695,564 695,565 695,566 695,567 695,568 695,569 694,570 694,571 694,572 695,573 696,572 697,572 698,572 699,572 700,572 701,572 702,572 703,572 704,572 705,572 706,572 707,572 708,572 709,573 710,573 711,573 712,573 713,573 714,573 715,573 716,573 717,573 718,573 719,573 720,573 721,573 722,573 723,572 724,572 725,573 726,573 727,573 728,573 729,572 730,572 731,573 732,572 733,573 734,573 735,572 736,572 737,572 738,572 739,573 740,573 741,573 742,573 743,573 744,573 745,573 746,573 747,572 748,572 749,572 750,572 751,572 752,572 753,572 754,572 755,572 756,572 756,571 756,570 755,569 755,568 756,567 756,566 756,565 756,564 756,563 756,562 756,561 756,560 756,559 756,558 756,557 756,556 756,555 756,554 756,553 756,552 756,551 756,550 756,549 756,548 756,547 756,546 756,545 756,544 756,543 756,542 756,541 756,540 756,539 756,538 756,537 756,536 756,535 756,534 756,533 756,532 756,531 756,530 756,529 756,528 756,527 756,526 756,525 756,524 756,523 756,522 756,521 756,520 756,519 756,518 756,517 756,516 756,515 756,514 756,513 756,512 756,511 756,510 756,509 756,508 756,507 756,506 756,505 756,504 756,503 756,502 756,501 756,500 756,499 756,498 756,497 756,496 756,495 756,494 756,493 756,492 756,491 756,490 756,489 756,488 756,487 756,486 756,485 756,484 756,483 756,482 756,481 756,480 756,479 756,478 756,477 756,476 756,475 756,474 756,473 756,472 756,471 756,470 756,469 756,468 756,467 756,466 756,465 756,464 756,463 756,462 756,461 756,460 756,459 756,458 756,457 756,456 756,455 756,454 756,453 756,452 756,451 756,450 756,449 756,448 756,447 756,446 756,445 756,444 756,443 756,442 756,441 756,440 756,439 756,438 756,437 756,436 756,435 756,434 756,433 756,432 756,431 756,430 756,429 756,428 756,427 756,426 756,425 756,424 756,423 756,422 756,421 756,420 756,419 756,418 756,417 756,416 756,415 756,414 756,413 756,412 756,411 756,410 756,409 756,408 756,407 756,406 756,405 756,404 756,403 756,402 756,401 756,400 756,399 756,398 756,397 756,396 756,395 756,394 756,393 756,392 756,391 756,390 756,389 756,388 756,387 756,386 756,385 756,384 756,383 756,382 756,381 756,380 756,379 756,378 756,377 756,376 756,375 756,374 756,373 756,372 756,371 756,370 756,369 756,368 756,367 756,366 756,365 756,364 756,363 756,362 756,361 756,360 756,359 756,358 756,357 756,356 756,355 756,354 756,353 756,352 756,351 756,350 756,349 756,348 756,347 756,346 756,345 756,344 756,343 756,342 756,341 756,340 756,339 756,338 756,337 756,336 756,335 756,334 756,333 756,332 756,331 756,330 756,329 755,329 754,329 753,329 752,329 751,329 750,329 749,329 748,329 747,329 746,329 745,329 744,329 743,329 742,329 741,329 740,329 739,329 738,329 737,329 736,329 735,329 734,329 733,329 732,329 731,329 730,329 729,329 728,329 727,329 726,329 725,329 724,329 723,329 722,329 721,329 720,329 719,329 718,329 717,329 716,329 715,329 714,329 713,329 712,329 711,329 710,329 709,329 708,329 707,329 706,329 705,329 704,329 703,329 702,329 701,329 700,329 699,329 698,329 697,329 696,329">
      <metadata tailDirection="" confidence="0.96" linkedToCharacter="" id="TetsuSan_013_balloon_3" tailTip=""></metadata>
    </polygon>
    <polygon points="440,329 440,330 440,331 440,332 440,333 440,334 440,335 440,336 440,337 440,338 440,339 440,340 440,341 440,342 440,343 440,344 440,345 440,346 440,347 440,348 440,349 440,350 440,351 440,352 440,353 440,354 440,355 440,356 440,357 440,358 440,359 440,360 440,361 440,362 440,363 440,364 440,365 440,366 440,367 440,368 440,369 440,370 440,371 440,372 440,373 440,374 440,375 440,376 440,377 440,378 440,379 440,380 440,381 440,382 440,383 440,384 440,385 440,386 440,387 440,388 440,389 440,390 440,391 440,392 440,393 440,394 440,395 440,396 440,397 440,398 440,399 440,400 440,401 440,402 440,403 440,404 440,405 440,406 440,407 440,408 440,409 440,410 440,411 440,412 440,413 440,414 440,415 440,416 440,417 440,418 440,419 440,420 440,421 440,422 440,423 440,424 440,425 440,426 440,427 440,428 440,429 440,430 440,431 440,432 440,433 440,434 440,435 440,436 440,437 440,438 440,439 440,440 440,441 440,442 440,443 440,444 440,445 440,446 440,447 440,448 440,449 440,450 440,451 440,452 440,453 440,454 440,455 440,456 440,457 440,458 440,459 440,460 440,461 440,462 440,463 440,464 440,465 440,466 440,467 440,468 440,469 440,470 440,471 440,472 440,473 440,474 440,475 440,476 440,477 440,478 440,479 440,480 440,481 440,482 440,483 440,484 440,485 441,484 442,484 443,484 444,484 445,484 446,485 447,485 448,484 449,484 450,484 451,484 452,484 453,484 454,485 455,485 456,485 457,485 458,485 459,485 460,485 461,485 462,485 463,485 464,485 465,485 466,485 467,485 468,485 469,485 470,485 471,485 472,485 473,485 474,485 475,485 476,485 477,485 478,485 479,485 480,485 481,485 482,485 483,485 484,485 485,485 486,485 487,485 488,485 489,485 490,485 491,485 492,485 493,485 494,485 494,484 494,483 494,482 495,481 495,480 495,479 495,478 495,477 495,476 495,475 495,474 495,473 495,472 495,471 495,470 495,469 495,468 495,467 495,466 495,465 495,464 495,463 495,462 495,461 495,460 495,459 495,458 495,457 495,456 495,455 495,454 495,453 495,452 495,451 495,450 495,449 495,448 495,447 495,446 495,445 495,444 495,443 495,442 495,441 495,440 495,439 495,438 495,437 495,436 495,435 495,434 495,433 495,432 495,431 495,430 495,429 495,428 495,427 495,426 495,425 495,424 495,423 495,422 495,421 495,420 495,419 495,418 495,417 495,416 495,415 495,414 495,413 495,412 495,411 495,410 495,409 495,408 495,407 495,406 495,405 495,404 495,403 495,402 495,401 495,400 495,399 495,398 495,397 495,396 495,395 495,394 495,393 495,392 495,391 495,390 495,389 495,388 495,387 495,386 495,385 495,384 495,383 495,382 495,381 495,380 495,379 495,378 495,377 495,376 495,375 495,374 495,373 495,372 495,371 495,370 495,369 495,368 495,367 495,366 495,365 495,364 495,363 495,362 495,361 495,360 495,359 495,358 495,357 495,356 495,355 495,354 495,353 495,352 495,351 495,350 495,349 495,348 495,347 495,346 495,345 495,344 495,343 495,342 495,341 495,340 495,339 495,338 495,337 495,336 495,335 495,334 495,333 495,332 495,331 495,330 495,329 494,329 493,329 492,329 491,329 490,329 489,329 488,329 487,329 486,329 485,329 484,329 483,329 482,329 481,329 480,329 479,329 478,329 477,329 476,329 475,329 474,329 473,329 472,329 471,329 470,329 469,329 468,329 467,329 466,329 465,329 464,329 463,329 462,329 461,329 460,329 459,329 458,329 457,329 456,329 455,329 454,329 453,329 452,329 451,329 450,329 449,329 448,329 447,329 446,329 445,329 444,329 443,329 442,329 441,329 440,329">
      <metadata tailDirection="" confidence="0.91" linkedToCharacter="" id="TetsuSan_013_balloon_4" tailTip=""></metadata>
    </polygon>
    <polygon points="696,68 696,69 696,70 696,71 696,72 696,73 696,74 696,75 696,76 696,77 696,78 696,79 696,80 696,81 696,82 696,83 696,84 696,85 696,86 696,87 696,88 696,89 696,90 696,91 696,92 696,93 696,94 696,95 696,96 696,97 696,98 696,99 696,100 696,101 696,102 696,103 696,104 696,105 696,106 696,107 696,108 696,109 696,110 696,111 696,112 696,113 696,114 696,115 696,116 696,117 696,118 696,119 696,120 696,121 696,122 696,123 696,124 696,125 696,126 696,127 696,128 696,129 696,130 695,131 695,132 695,133 695,134 695,135 695,136 695,137 695,138 695,139 695,140 695,141 695,142 695,143 695,144 695,145 695,146 695,147 695,148 695,149 695,150 695,151 695,152 695,153 695,154 695,155 695,156 695,157 695,158 695,159 695,160 695,161 695,162 695,163 695,164 695,165 695,166 695,167 695,168 695,169 695,170 695,171 695,172 695,173 695,174 695,175 695,176 695,177 695,178 695,179 695,180 695,181 695,182 695,183 695,184 695,185 695,186 695,187 695,188 695,189 695,190 695,191 695,192 695,193 695,194 695,195 695,196 695,197 695,198 695,199 695,200 695,201 695,202 695,203 695,204 695,205 695,206 695,207 695,208 695,209 695,210 695,211 695,212 695,213 695,214 695,215 695,216 695,217 695,218 695,219 695,220 695,221 695,222 695,223 695,224 695,225 695,226 695,227 695,228 695,229 695,230 695,231 695,232 695,233 695,234 695,235 695,236 695,237 695,238 695,239 695,240 695,241 695,242 695,243 695,244 695,245 695,246 695,247 695,248 695,249 695,250 695,251 695,252 695,253 695,254 695,255 695,256 695,257 695,258 695,259 695,260 695,261 695,262 695,263 695,264 695,265 695,266 695,267 695,268 695,269 695,270 695,271 695,272 695,273 695,274 695,275 695,276 695,277 695,278 695,279 695,280 695,281 695,282 695,283 695,284 695,285 695,286 695,287 695,288 695,289 695,290 695,291 695,292 695,293 695,294 695,295 695,296 695,297 695,298 695,299 695,300 695,301 695,302 695,303 695,304 695,305 695,306 695,307 695,308 695,309 695,310 696,310 697,310 698,310 699,310 700,310 701,310 702,310 703,310 704,310 705,310 706,310 707,310 708,310 709,310 710,310 711,310 712,310 713,310 714,310 715,310 716,310 717,310 718,310 719,310 720,310 721,310 722,310 723,310 724,310 725,310 726,310 727,310 728,310 729,310 730,310 731,310 732,310 733,310 734,310 735,310 736,310 737,310 738,310 739,310 740,310 741,310 742,310 743,310 744,310 745,310 746,310 747,310 748,310 749,310 750,310 751,310 752,310 753,310 754,310 755,310 756,309 755,308 755,307 756,306 756,305 756,304 756,303 756,302 755,301 755,300 755,299 755,298 755,297 755,296 755,295 755,294 755,293 755,292 756,291 756,290 756,289 756,288 756,287 756,286 756,285 756,284 756,283 756,282 756,281 755,280 756,279 755,278 755,277 755,276 755,275 755,274 755,273 755,272 755,271 756,270 755,269 755,268 755,267 756,266 756,265 756,264 755,263 756,262 756,261 755,260 755,259 756,258 756,257 756,256 756,255 756,254 756,253 756,252 756,251 756,250 756,249 756,248 756,247 756,246 755,245 756,244 756,243 756,242 756,241 756,240 756,239 756,238 756,237 756,236 756,235 756,234 756,233 756,232 756,231 756,230 756,229 756,228 756,227 756,226 756,225 756,224 756,223 756,222 756,221 756,220 756,219 756,218 756,217 756,216 756,215 756,214 756,213 756,212 756,211 756,210 756,209 756,208 756,207 756,206 756,205 756,204 756,203 756,202 756,201 756,200 756,199 756,198 756,197 756,196 756,195 756,194 756,193 756,192 756,191 756,190 756,189 756,188 756,187 756,186 756,185 756,184 756,183 756,182 756,181 756,180 756,179 756,178 756,177 756,176 756,175 756,174 756,173 756,172 756,171 756,170 756,169 756,168 756,167 756,166 756,165 756,164 756,163 756,162 756,161 756,160 756,159 756,158 756,157 756,156 756,155 756,154 756,153 756,152 756,151 756,150 756,149 756,148 756,147 756,146 756,145 756,144 756,143 756,142 756,141 756,140 756,139 756,138 756,137 756,136 756,135 756,134 756,133 756,132 756,131 756,130 756,129 756,128 756,127 756,126 756,125 756,124 756,123 756,122 756,121 756,120 756,119 756,118 756,117 756,116 756,115 756,114 756,113 756,112 756,111 756,110 756,109 756,108 756,107 756,106 756,105 756,104 756,103 756,102 756,101 756,100 756,99 756,98 756,97 756,96 756,95 756,94 756,93 756,92 756,91 756,90 756,89 756,88 756,87 756,86 756,85 756,84 756,83 756,82 756,81 756,80 756,79 756,78 756,77 756,76 756,75 756,74 756,73 756,72 756,71 756,70 756,69 756,68 755,68 754,68 753,68 752,68 751,68 750,68 749,68 748,68 747,68 746,68 745,68 744,68 743,68 742,68 741,68 740,68 739,68 738,68 737,68 736,68 735,68 734,68 733,68 732,68 731,68 730,68 729,68 728,68 727,68 726,68 725,68 724,68 723,68 722,68 721,68 720,68 719,68 718,68 717,68 716,68 715,68 714,68 713,68 712,68 711,68 710,68 709,68 708,68 707,68 706,68 705,68 704,68 703,68 702,68 701,68 700,68 699,68 698,68 697,68 696,68">
      <metadata tailDirection="" confidence="1.00" linkedToCharacter="" id="TetsuSan_013_balloon_5" tailTip=""></metadata>
    </polygon>
    <polygon points="440,68 440,69 440,70 440,71 440,72 440,73 440,74 440,75 440,76 440,77 440,78 440,79 440,80 440,81 440,82 440,83 440,84 440,85 440,86 440,87 440,88 440,89 440,90 440,91 440,92 440,93 440,94 440,95 440,96 440,97 440,98 440,99 440,100 440,101 440,102 440,103 440,104 440,105 440,106 440,107 440,108 440,109 440,110 440,111 440,112 440,113 440,114 440,115 440,116 440,117 440,118 440,119 440,120 440,121 440,122 440,123 440,124 440,125 440,126 440,127 440,128 440,129 440,130 440,131 440,132 440,133 440,134 440,135 440,136 440,137 440,138 440,139 440,140 440,141 440,142 440,143 440,144 440,145 440,146 440,147 440,148 440,149 440,150 440,151 440,152 440,153 440,154 440,155 440,156 440,157 440,158 440,159 440,160 440,161 440,162 440,163 440,164 440,165 440,166 440,167 440,168 440,169 440,170 440,171 440,172 440,173 440,174 440,175 440,176 440,177 440,178 440,179 440,180 440,181 440,182 440,183 440,184 440,185 440,186 440,187 440,188 440,189 440,190 440,191 440,192 440,193 440,194 440,195 440,196 440,197 440,198 440,199 440,200 440,201 440,202 440,203 440,204 440,205 440,206 440,207 440,208 440,209 440,210 440,211 440,212 440,213 440,214 440,215 440,216 440,217 440,218 440,219 440,220 440,221 440,222 440,223 440,224 440,225 440,226 440,227 440,228 440,229 440,230 440,231 440,232 440,233 440,234 440,235 440,236 440,237 440,238 440,239 440,240 440,241 440,242 440,243 440,244 440,245 440,246 440,247 440,248 440,249 440,250 440,251 440,252 440,253 440,254 440,255 440,256 440,257 440,258 440,259 440,260 440,261 440,262 440,263 440,264 440,265 440,266 440,267 440,268 440,269 440,270 440,271 440,272 440,273 440,274 440,275 440,276 440,277 440,278 440,279 440,280 440,281 440,282 440,283 440,284 440,285 440,286 440,287 440,288 440,289 440,290 440,291 440,292 440,293 440,294 440,295 440,296 440,297 440,298 440,299 440,300 440,301 440,302 440,303 440,304 440,305 440,306 440,307 440,308 440,309 440,310 441,310 442,310 443,310 444,310 445,310 446,310 447,310 448,310 449,310 450,310 451,310 452,310 453,310 454,310 455,310 456,310 457,310 458,310 459,310 460,310 461,310 462,310 463,310 464,310 465,310 466,310 467,310 468,310 469,310 470,310 471,310 472,310 473,310 474,310 475,310 476,310 477,310 478,310 479,310 480,310 481,310 482,310 483,310 484,310 485,310 486,310 487,310 488,310 489,310 490,311 491,311 492,311 493,311 494,311 495,311 496,311 497,311 498,311 499,311 500,310 501,311 501,310 501,309 501,308 501,307 501,306 501,305 501,304 501,303 501,302 501,301 501,300 501,299 501,298 501,297 501,296 501,295 501,294 501,293 501,292 501,291 501,290 501,289 501,288 501,287 501,286 501,285 501,284 501,283 501,282 501,281 501,280 501,279 501,278 501,277 501,276 501,275 501,274 501,273 501,272 501,271 501,270 501,269 501,268 501,267 501,266 501,265 501,264 501,263 501,262 501,261 501,260 501,259 501,258 501,257 501,256 501,255 501,254 501,253 501,252 501,251 501,250 501,249 501,248 501,247 501,246 501,245 501,244 501,243 501,242 501,241 501,240 501,239 501,238 501,237 501,236 501,235 501,234 501,233 501,232 501,231 501,230 501,229 501,228 501,227 501,226 501,225 501,224 501,223 501,222 501,221 501,220 501,219 501,218 501,217 501,216 501,215 501,214 501,213 501,212 501,211 501,210 501,209 501,208 501,207 501,206 501,205 501,204 501,203 501,202 501,201 501,200 501,199 501,198 501,197 501,196 501,195 501,194 501,193 501,192 501,191 501,190 501,189 501,188 501,187 501,186 501,185 501,184 501,183 501,182 501,181 501,180 501,179 501,178 501,177 501,176 501,175 501,174 501,173 501,172 501,171 501,170 501,169 501,168 501,167 501,166 501,165 501,164 501,163 501,162 501,161 501,160 501,159 501,158 501,157 501,156 501,155 501,154 501,153 501,152 501,151 501,150 501,149 502,148 501,147 501,146 502,145 502,144 501,143 502,142 502,141 502,140 501,139 501,138 501,137 501,136 501,135 501,134 501,133 501,132 501,131 501,130 502,129 502,128 502,127 502,126 502,125 502,124 502,123 502,122 502,121 502,120 502,119 502,118 502,117 502,116 502,115 502,114 502,113 502,112 502,111 502,110 502,109 502,108 502,107 502,106 502,105 502,104 502,103 502,102 502,101 502,100 502,99 502,98 502,97 502,96 502,95 502,94 502,93 502,92 502,91 502,90 502,89 502,88 502,87 502,86 502,85 502,84 502,83 502,82 502,81 502,80 502,79 502,78 502,77 502,76 502,75 502,74 502,73 502,72 502,71 502,70 502,69 502,68 501,68 500,68 499,68 498,68 497,68 496,68 495,68 494,68 493,68 492,68 491,68 490,68 489,68 488,68 487,68 486,68 485,68 484,68 483,68 482,68 481,68 480,68 479,68 478,68 477,68 476,68 475,68 474,68 473,68 472,68 471,68 470,68 469,68 468,68 467,68 466,68 465,68 464,68 463,68 462,68 461,68 460,68 459,68 458,68 457,68 456,68 455,68 454,68 453,68 452,68 451,68 450,68 449,68 448,68 447,68 446,68 445,68 444,68 443,68 442,68 441,68 440,68">
      <metadata tailDirection="" confidence="0.95" linkedToCharacter="" id="TetsuSan_013_balloon_6" tailTip=""></metadata>
    </polygon>
    <polygon points="341,68 341,69 341,70 341,71 341,72 341,73 341,74 341,75 341,76 341,77 341,78 341,79 341,80 341,81 341,82 341,83 341,84 341,85 341,86 341,87 341,88 341,89 341,90 341,91 341,92 341,93 341,94 341,95 341,96 341,97 341,98 341,99 341,100 341,101 341,102 341,103 341,104 341,105 341,106 340,107 340,108 340,109 340,110 340,111 340,112 340,113 340,114 340,115 340,116 340,117 340,118 340,119 340,120 340,121 340,122 340,123 340,124 340,125 340,126 340,127 340,128 340,129 340,130 340,131 340,132 340,133 340,134 340,135 340,136 340,137 340,138 340,139 340,140 340,141 340,142 340,143 340,144 340,145 340,146 340,147 340,148 340,149 340,150 340,151 340,152 340,153 340,154 340,155 340,156 340,157 340,158 340,159 340,160 340,161 340,162 340,163 340,164 340,165 340,166 340,167 340,168 340,169 340,170 340,171 340,172 340,173 340,174 340,175 340,176 340,177 340,178 340,179 340,180 340,181 340,182 340,183 340,184 340,185 340,186 340,187 340,188 340,189 340,190 340,191 340,192 340,193 340,194 340,195 340,196 340,197 340,198 340,199 340,200 340,201 340,202 340,203 340,204 340,205 340,206 340,207 339,208 339,209 339,210 339,211 339,212 339,213 339,214 339,215 339,216 339,217 339,218 339,219 339,220 339,221 340,221 341,221 342,221 343,221 344,221 345,221 346,221 347,221 348,221 349,221 350,221 351,221 352,221 353,221 354,221 355,221 356,221 357,221 358,221 359,221 360,221 361,221 362,221 363,221 364,221 365,221 366,221 367,221 368,221 369,221 370,221 371,221 372,221 373,221 374,221 375,221 376,221 377,221 378,221 379,221 380,221 381,221 382,221 383,221 384,221 385,221 386,221 387,221 388,221 389,221 390,221 391,221 392,221 392,220 392,219 392,218 392,217 392,216 392,215 392,214 392,213 392,212 392,211 392,210 392,209 392,208 392,207 392,206 392,205 392,204 392,203 392,202 392,201 392,200 392,199 392,198 392,197 392,196 392,195 392,194 392,193 392,192 392,191 392,190 392,189 392,188 392,187 392,186 392,185 392,184 392,183 392,182 392,181 392,180 392,179 392,178 392,177 392,176 392,175 392,174 392,173 392,172 392,171 392,170 392,169 392,168 392,167 392,166 392,165 392,164 392,163 392,162 392,161 392,160 392,159 392,158 392,157 392,156 392,155 392,154 392,153 392,152 392,151 392,150 392,149 392,148 392,147 392,146 392,145 392,144 392,143 392,142 392,141 392,140 392,139 392,138 392,137 392,136 392,135 392,134 392,133 392,132 392,131 392,130 393,129 393,128 392,127 393,126 393,125 393,124 393,123 393,122 393,121 393,120 393,119 393,118 393,117 393,116 393,115 393,114 393,113 393,112 393,111 393,110 393,109 393,108 393,107 393,106 393,105 393,104 393,103 393,102 393,101 393,100 393,99 393,98 393,97 393,96 393,95 393,94 393,93 393,92 393,91 393,90 393,89 393,88 393,87 393,86 393,85 393,84 393,83 393,82 393,81 393,80 393,79 393,78 393,77 393,76 393,75 393,74 393,73 393,72 393,71 393,70 393,69 393,68 392,68 391,68 390,68 389,68 388,68 387,68 386,68 385,68 384,68 383,68 382,68 381,68 380,68 379,68 378,68 377,68 376,68 375,68 374,68 373,68 372,68 371,68 370,68 369,68 368,68 367,68 366,68 365,68 364,68 363,68 362,68 361,68 360,68 359,68 358,68 357,68 356,68 355,68 354,68 353,68 352,68 351,68 350,68 349,68 348,68 347,68 346,68 345,68 344,68 343,68 342,68 341,68">
      <metadata tailDirection="" confidence="1.00" linkedToCharacter="" id="TetsuSan_013_balloon_7" tailTip=""></metadata>
    </polygon>
    <polygon points="76,68 76,69 76,70 76,71 76,72 76,73 76,74 76,75 76,76 76,77 76,78 76,79 76,80 76,81 76,82 76,83 76,84 76,85 76,86 76,87 76,88 76,89 76,90 76,91 76,92 76,93 76,94 76,95 76,96 76,97 76,98 76,99 76,100 76,101 76,102 76,103 76,104 76,105 76,106 76,107 76,108 76,109 76,110 76,111 76,112 76,113 76,114 76,115 76,116 76,117 76,118 76,119 76,120 76,121 76,122 76,123 76,124 76,125 76,126 76,127 76,128 76,129 76,130 76,131 76,132 76,133 76,134 76,135 76,136 76,137 76,138 76,139 76,140 76,141 76,142 76,143 76,144 76,145 76,146 76,147 76,148 76,149 76,150 76,151 76,152 76,153 76,154 76,155 76,156 76,157 76,158 76,159 76,160 76,161 76,162 76,163 76,164 76,165 76,166 76,167 76,168 76,169 76,170 76,171 76,172 76,173 76,174 76,175 76,176 76,177 76,178 76,179 76,180 76,181 76,182 76,183 76,184 76,185 76,186 76,187 76,188 76,189 76,190 77,191 76,192 77,193 77,194 76,195 76,196 76,197 76,198 76,199 76,200 76,201 77,202 77,203 77,204 77,205 77,206 77,207 77,208 77,209 77,210 76,211 76,212 76,213 77,214 77,215 76,216 77,217 77,218 77,219 77,220 77,221 77,222 77,223 77,224 77,225 77,226 77,227 77,228 77,229 77,230 77,231 77,232 77,233 77,234 77,235 77,236 77,237 77,238 77,239 77,240 77,241 77,242 77,243 77,244 77,245 78,245 79,246 79,247 80,247 81,248 82,248 83,249 84,249 85,250 86,250 87,250 88,251 89,251 90,251 91,251 92,252 93,252 94,252 95,252 96,252 97,252 98,252 99,253 100,253 101,253 102,253 103,253 104,253 105,253 106,253 107,253 108,253 109,254 110,254 111,254 112,254 113,254 114,254 115,254 116,254 117,254 118,254 119,254 120,254 121,254 122,253 123,253 124,253 125,253 126,253 127,252 128,252 129,252 130,251 131,251 132,250 133,250 134,249 135,249 136,248 137,247 138,246 139,245 140,245 141,244 142,243 142,242 143,241 144,240 145,239 146,238 146,237 147,236 147,235 148,234 148,233 149,232 149,231 149,230 150,229 150,228 150,227 151,226 151,225 151,224 152,223 152,222 152,221 152,220 153,219 153,218 153,217 154,216 154,215 154,214 154,213 154,212 154,211 154,210 154,209 154,208 155,207 156,207 157,206 158,206 157,206 156,206 155,205 155,204 155,203 156,202 156,201 157,200 157,199 157,198 157,197 157,196 157,195 158,194 158,193 158,192 158,191 158,190 158,189 158,188 158,187 158,186 158,185 158,184 158,183 158,182 158,181 158,180 158,179 158,178 158,177 158,176 158,175 158,174 158,173 158,172 158,171 158,170 158,169 158,168 158,167 158,166 158,165 158,164 158,163 158,162 158,161 158,160 158,159 158,158 158,157 157,156 157,155 157,154 157,153 157,152 156,151 156,150 156,149 156,148 156,147 156,146 157,145 157,144 157,143 157,142 157,141 157,140 157,139 157,138 157,137 157,136 157,135 157,134 157,133 157,132 156,131 156,130 156,129 156,128 156,127 156,126 156,125 156,124 156,123 155,122 155,121 155,120 155,119 155,118 155,117 155,116 154,115 154,114 154,113 154,112 154,111 154,110 154,109 153,108 153,107 153,106 153,105 152,104 152,103 152,102 152,101 152,100 152,99 151,98 151,97 151,96 151,95 151,94 150,93 150,92 150,91 149,90 149,89 149,88 149,87 148,86 148,85 148,84 147,83 147,82 147,81 146,80 146,79 145,78 145,77 145,76 144,75 144,74 143,73 143,72 142,71 142,70 141,69 141,68 140,68 139,68 138,68 137,68 136,68 135,68 134,68 133,68 132,68 131,68 130,68 129,68 128,68 127,68 126,68 125,68 124,68 123,68 122,68 121,68 120,68 119,68 118,68 117,68 116,68 115,68 114,68 113,68 112,68 111,68 110,68 109,68 108,68 107,68 106,68 105,68 104,68 103,68 102,68 101,68 100,68 99,68 98,68 97,68 96,68 95,68 94,68 93,68 92,68 91,68 90,68 89,68 88,68 87,68 86,68 85,68 84,68 83,68 82,68 81,68 80,68 79,68 78,68 77,68 76,68">
      <metadata tailDirection="" confidence="0.96" linkedToCharacter="" id="TetsuSan_013_balloon_8" tailTip=""></metadata>
    </polygon>
  </svg>
</svg>
