<?xml version="1.0" encoding="UTF-8" standalone="no"?>
<svg width="827" xmlns="http://www.w3.org/2000/svg" version="1.0" height="1170">
  <title>TetsuSan_032</title>
  <svg contentScriptType="text/ecmascript" zoomAndPan="magnify" contentStyleType="text/css" class="Page" preserveAspectRatio="xMidYMid meet" version="1.0">
    <image xmlns:xlink="http://www.w3.org/1999/xlink" x="0" y="0" width="827" height="1170" xlink:href="./../../dataset_Manga109/TetsuSan/TetsuSan_032.jpg" xlink:type="simple" xlink:actuate="onLoad" preserveAspectRatio="xMidYMid meet" xlink:show="embed"/>
  </svg>
  <style type="text/css" xml:space="preserve">
        * { stroke-linejoin: round; }
        .Unclassified   { fill: orange; stroke: none;   opacity: 1.0; visibility: hidden; }
        .Noise          { fill: pink;   stroke: none;   opacity: 0.2; visibility: hidden; }
        .Panel          { fill: none;   stroke: red;    stroke-width:3; opacity: 0.5; visibility: visible; image-rendering: optimizeSpeed; }
        .Line           { fill: green;  stroke: none;   opacity: 0.5; visibility: visible; image-rendering: optimizeSpeed; }
        .TextArea       { fill: grey;   stroke: none;   opacity: 0.2; visibility: visible; image-rendering: optimizeSpeed; }
        .Balloon        { fill: cyan;   stroke: none;   opacity: 0.5; visibility: visible; image-rendering: optimizeSpeed; }
        .Letter         { fill: blue;   stroke: none;   opacity: 0.2; visibility: hidden; }
        .Object, .Character, .Face  { fill: yellow; stroke: none;   opacity: 0.5; visibility: visible; image-rendering: optimizeSpeed; }
        .Page           { fill: white;  stroke: none;    opacity: 0.5; visibility: visible; }
        .linkSBSC { fill: blue; stroke: none; opacity: 1.0; visibility: visible; }
        polygon:hover { opacity:1.0; stroke:red; }
</style>
  <svg xmlns="http://www.w3.org/2000/svg" contentScriptType="text/ecmascript" zoomAndPan="magnify" contentStyleType="text/css" class="Balloon" preserveAspectRatio="xMidYMid meet" version="1.0">
    <polygon points="340,867 340,868 340,869 339,870 339,871 339,872 339,873 339,874 338,875 338,876 338,877 338,878 337,879 337,880 337,881 337,882 337,883 337,884 337,885 337,886 337,887 337,888 337,889 337,890 337,891 337,892 337,893 336,894 336,895 336,896 336,897 336,898 336,899 336,900 336,901 336,902 336,903 336,904 336,905 335,906 335,907 336,908 336,909 335,910 335,911 335,912 335,913 335,914 335,915 335,916 335,917 335,918 335,919 335,920 335,921 335,922 335,923 335,924 335,925 335,926 335,927 335,928 335,929 335,930 335,931 335,932 335,933 335,934 335,935 335,936 335,937 335,938 335,939 335,940 335,941 335,942 335,943 335,944 334,945 333,945 332,945 331,945 332,946 333,947 334,948 334,949 335,950 335,951 334,952 334,953 334,954 334,955 335,956 335,957 335,958 335,959 335,960 335,961 335,962 335,963 335,964 335,965 335,966 335,967 335,968 336,969 336,970 336,971 336,972 336,973 336,974 336,975 336,976 336,977 336,978 336,979 336,980 337,981 337,982 337,983 337,984 337,985 337,986 337,987 338,988 338,989 338,990 338,991 338,992 338,993 339,994 339,995 340,996 340,997 340,998 341,999 341,1000 341,1001 342,1002 343,1003 343,1004 344,1005 345,1006 346,1007 347,1008 347,1009 348,1010 348,1011 349,1011 350,1012 351,1013 352,1014 353,1015 354,1015 355,1016 356,1017 357,1017 358,1017 359,1018 360,1018 361,1019 362,1019 363,1019 364,1019 365,1020 366,1020 367,1020 368,1020 369,1020 370,1020 371,1020 372,1020 373,1020 374,1020 375,1020 376,1020 377,1020 378,1019 379,1019 380,1019 381,1018 382,1018 383,1017 384,1016 384,1015 384,1014 384,1013 384,1012 384,1011 384,1010 384,1009 384,1008 384,1007 384,1006 384,1005 384,1004 384,1003 384,1002 384,1001 384,1000 384,999 384,998 384,997 384,996 384,995 384,994 384,993 384,992 384,991 384,990 384,989 384,988 384,987 384,986 384,985 384,984 384,983 384,982 384,981 384,980 384,979 384,978 384,977 384,976 384,975 384,974 384,973 384,972 384,971 384,970 384,969 384,968 384,967 384,966 384,965 384,964 384,963 384,962 384,961 384,960 384,959 384,958 384,957 384,956 384,955 384,954 384,953 384,952 384,951 384,950 384,949 384,948 384,947 384,946 384,945 384,944 384,943 384,942 384,941 384,940 384,939 384,938 384,937 384,936 384,935 384,934 384,933 384,932 384,931 384,930 384,929 384,928 384,927 384,926 384,925 384,924 384,923 384,922 384,921 384,920 384,919 384,918 384,917 384,916 384,915 384,914 384,913 384,912 384,911 384,910 384,909 384,908 384,907 384,906 384,905 384,904 384,903 384,902 384,901 384,900 384,899 384,898 384,897 384,896 384,895 384,894 384,893 384,892 384,891 384,890 384,889 384,888 384,887 384,886 384,885 384,884 384,883 384,882 384,881 384,880 384,879 384,878 384,877 384,876 384,875 384,874 384,873 384,872 384,871 384,870 384,869 384,868 383,867 382,867 381,867 380,867 379,867 378,867 377,867 376,867 375,867 374,867 373,867 372,867 371,867 370,867 369,867 368,867 367,867 366,867 365,867 364,867 363,867 362,867 361,867 360,867 359,867 358,867 357,867 356,867 355,867 354,867 353,867 352,867 351,867 350,867 349,867 348,867 347,867 346,867 345,867 344,867 343,867 342,867 341,867 340,867">
      <metadata tailDirection="" confidence="0.99" linkedToCharacter="" id="TetsuSan_032_balloon_0" tailTip=""></metadata>
    </polygon>
    <polygon points="172,867 171,868 171,869 170,870 170,871 169,872 169,873 169,874 168,875 168,876 168,877 167,878 167,879 167,880 166,881 166,882 166,883 166,884 166,885 166,886 166,887 165,888 165,889 165,890 165,891 165,892 165,893 165,894 165,895 165,896 165,897 165,898 165,899 165,900 165,901 165,902 165,903 165,904 165,905 165,906 165,907 166,908 166,909 166,910 166,911 166,912 166,913 166,914 167,915 167,916 167,917 168,918 168,919 168,920 169,921 169,922 169,923 170,924 170,925 170,926 171,927 171,928 172,929 172,930 173,931 174,932 174,933 175,934 176,935 177,936 178,937 179,938 180,938 181,939 182,940 183,940 184,941 185,941 186,942 187,942 188,943 189,943 190,944 191,944 192,944 193,945 194,945 195,946 196,946 197,946 198,947 199,947 200,947 201,947 202,948 203,948 204,948 205,948 206,948 207,948 208,948 209,948 210,948 211,948 212,948 213,948 214,948 215,948 216,948 217,948 218,947 219,947 220,947 221,948 221,949 222,950 223,951 223,952 224,953 225,954 224,953 224,952 223,951 223,950 223,949 222,948 222,947 223,946 224,946 225,946 226,945 227,944 228,944 229,943 230,943 231,942 232,941 233,941 234,940 235,939 236,938 237,937 238,936 239,935 240,934 240,933 241,932 242,931 242,930 242,929 243,928 243,927 244,926 244,925 245,924 245,923 246,922 246,921 246,920 247,919 247,918 247,917 248,916 248,915 249,914 248,913 249,912 249,911 249,910 249,909 250,908 250,907 250,906 250,905 250,904 250,903 250,902 250,901 250,900 250,899 250,898 250,897 250,896 249,895 249,894 249,893 249,892 249,891 249,890 248,889 248,888 248,887 248,886 248,885 248,884 248,883 247,882 247,881 247,880 247,879 247,878 246,877 246,876 245,875 245,874 245,873 244,872 244,871 244,870 243,869 243,868 242,867 241,867 240,867 239,867 238,868 237,868 236,868 235,868 234,867 233,867 232,867 231,867 230,867 229,867 228,867 227,867 226,867 225,867 224,867 223,867 222,867 221,867 220,867 219,867 218,867 217,867 216,867 215,868 214,867 213,867 212,867 211,867 210,867 209,868 208,868 207,868 206,868 205,868 204,867 203,867 202,867 201,867 200,867 199,867 198,867 197,867 196,867 195,867 194,867 193,867 192,867 191,867 190,867 189,867 188,867 187,867 186,867 185,867 184,867 183,867 182,867 181,867 180,867 179,867 178,867 177,867 176,867 175,867 174,867 173,867 172,867">
      <metadata tailDirection="" confidence="0.87" linkedToCharacter="" id="TetsuSan_032_balloon_1" tailTip=""></metadata>
    </polygon>
    <polygon points="68,867 67,868 66,868 65,868 65,869 65,870 65,871 65,872 65,873 65,874 65,875 65,876 65,877 65,878 65,879 65,880 65,881 65,882 65,883 65,884 65,885 65,886 65,887 65,888 65,889 65,890 65,891 65,892 65,893 65,894 65,895 65,896 65,897 65,898 65,899 65,900 65,901 65,902 65,903 65,904 65,905 65,906 65,907 65,908 65,909 65,910 65,911 65,912 65,913 65,914 65,915 65,916 65,917 65,918 65,919 65,920 65,921 65,922 65,923 65,924 65,925 65,926 65,927 65,928 65,929 65,930 65,931 65,932 65,933 65,934 65,935 65,936 65,937 65,938 65,939 65,940 65,941 65,942 65,943 65,944 65,945 65,946 65,947 65,948 65,949 65,950 65,951 65,952 65,953 65,954 65,955 65,956 65,957 65,958 65,959 65,960 65,961 65,962 65,963 65,964 65,965 65,966 65,967 65,968 65,969 65,970 65,971 65,972 65,973 65,974 65,975 65,976 65,977 65,978 65,979 65,980 65,981 65,982 65,983 65,984 65,985 65,986 65,987 65,988 65,989 65,990 65,991 65,992 65,993 65,994 65,995 65,996 65,997 65,998 65,999 65,1000 65,1001 65,1002 65,1003 65,1004 65,1005 65,1006 65,1007 65,1008 65,1009 66,1008 67,1008 68,1007 69,1007 70,1007 71,1007 72,1006 73,1006 74,1006 75,1007 76,1007 77,1007 78,1008 79,1008 80,1009 81,1009 82,1010 83,1011 84,1012 85,1013 85,1014 86,1015 87,1014 88,1013 89,1013 90,1012 91,1012 92,1012 93,1012 94,1012 95,1012 96,1013 97,1013 98,1014 99,1014 99,1013 99,1012 100,1011 100,1010 101,1009 101,1008 102,1007 102,1006 103,1005 104,1004 105,1003 106,1002 107,1001 108,1000 109,999 110,998 111,998 112,997 113,996 114,996 115,996 116,996 117,996 118,996 118,995 118,994 118,993 118,992 119,991 119,990 119,989 120,988 120,987 120,986 121,985 121,984 122,983 123,982 123,981 124,980 125,979 125,978 126,977 127,976 128,975 127,974 127,973 127,972 126,971 126,970 125,969 125,968 125,967 125,966 124,965 124,964 124,963 124,962 124,961 123,960 123,959 123,958 123,957 123,956 123,955 123,954 123,953 123,952 123,951 123,950 123,949 123,948 123,947 123,946 123,945 123,944 123,943 123,942 124,941 124,940 124,939 124,938 124,937 124,936 125,935 125,934 125,933 125,932 126,931 126,930 126,929 127,928 127,927 128,926 128,925 129,924 129,923 129,922 128,921 127,920 126,919 126,918 125,917 125,916 125,915 124,914 124,913 124,912 124,911 123,910 123,909 123,908 123,907 123,906 122,905 122,904 122,903 122,902 123,901 123,900 123,899 123,898 123,897 123,896 124,895 124,894 124,893 123,893 122,892 121,891 120,890 119,889 118,888 118,887 118,886 117,885 117,884 117,883 117,882 117,881 117,880 117,879 117,878 117,877 117,876 117,875 117,874 117,873 117,872 117,871 117,870 118,869 118,868 118,867 117,867 116,867 115,867 114,867 113,867 112,867 111,867 110,867 109,867 108,867 107,867 106,867 105,867 104,867 103,867 102,867 101,867 100,867 99,867 98,867 97,867 96,867 95,867 94,867 93,867 92,867 91,867 90,867 89,867 88,867 87,867 86,867 85,868 84,867 83,867 82,867 81,867 80,867 79,867 78,868 77,868 76,867 75,867 74,867 73,867 72,867 71,867 70,867 69,867 68,867">
      <metadata tailDirection="" confidence="0.92" linkedToCharacter="" id="TetsuSan_032_balloon_2" tailTip=""></metadata>
    </polygon>
    <polygon points="681,867 681,868 681,869 682,870 682,871 682,872 683,873 683,874 684,875 684,876 684,877 685,878 685,879 685,880 685,881 686,882 686,883 686,884 686,885 686,886 686,887 686,888 686,889 686,890 685,891 685,892 685,893 685,894 684,895 684,896 684,897 683,898 683,899 682,900 682,901 682,902 681,903 680,904 680,905 679,906 678,907 678,908 677,909 676,910 675,911 674,912 674,913 675,913 676,914 677,915 678,916 679,917 680,918 680,919 681,920 682,921 682,922 682,923 682,924 682,925 682,926 683,927 683,928 683,929 682,930 682,931 682,932 682,933 682,934 682,935 681,936 681,937 681,938 680,939 680,940 680,941 679,942 679,943 679,944 678,945 678,946 677,947 676,948 675,949 675,950 676,951 677,952 678,953 678,954 678,955 678,956 679,957 679,958 679,959 679,960 679,961 679,962 679,963 679,964 679,965 679,966 678,967 678,968 678,969 678,970 677,971 677,972 677,973 677,974 676,975 675,976 675,977 676,978 677,979 677,980 678,981 678,982 679,983 679,984 679,985 679,986 679,987 679,988 679,989 679,990 679,991 679,992 679,993 679,994 678,995 678,996 678,997 678,998 677,999 677,1000 677,1001 676,1002 676,1003 676,1004 675,1005 675,1006 674,1007 674,1008 674,1009 673,1010 672,1011 672,1012 673,1012 674,1013 675,1014 676,1015 677,1016 677,1017 678,1018 678,1019 678,1020 679,1021 679,1022 679,1023 679,1024 680,1025 680,1026 680,1027 680,1028 680,1029 680,1030 680,1031 680,1032 680,1033 679,1034 679,1035 679,1036 679,1037 679,1038 678,1039 678,1040 677,1041 677,1042 676,1043 677,1044 678,1045 679,1046 679,1047 680,1048 680,1049 681,1050 681,1051 682,1052 682,1053 682,1054 682,1055 682,1056 683,1057 683,1058 683,1059 683,1060 683,1061 683,1062 683,1063 682,1064 682,1065 682,1066 682,1067 682,1068 682,1069 681,1070 681,1071 681,1072 681,1073 681,1074 680,1075 680,1076 679,1077 679,1078 678,1079 678,1080 678,1081 679,1082 680,1083 680,1084 681,1085 681,1086 681,1087 682,1088 682,1089 682,1090 682,1091 682,1092 682,1093 683,1093 684,1093 685,1093 686,1093 687,1093 688,1093 689,1093 690,1093 691,1093 692,1093 693,1093 694,1093 695,1093 696,1093 697,1093 698,1093 699,1093 700,1093 701,1093 702,1093 703,1093 704,1093 705,1093 706,1093 707,1093 708,1093 709,1093 710,1093 711,1093 712,1093 713,1093 714,1093 715,1093 716,1093 717,1093 718,1093 719,1093 720,1093 721,1093 722,1093 723,1093 724,1093 725,1093 726,1093 727,1093 728,1093 729,1093 730,1093 731,1093 732,1093 733,1093 734,1093 735,1093 736,1093 737,1093 738,1093 739,1093 740,1093 741,1093 742,1093 743,1093 743,1092 743,1091 743,1090 743,1089 743,1088 743,1087 743,1086 743,1085 743,1084 743,1083 743,1082 743,1081 743,1080 743,1079 743,1078 743,1077 743,1076 743,1075 743,1074 743,1073 743,1072 743,1071 743,1070 743,1069 743,1068 743,1067 743,1066 743,1065 743,1064 743,1063 743,1062 743,1061 743,1060 743,1059 743,1058 743,1057 743,1056 743,1055 743,1054 743,1053 743,1052 743,1051 743,1050 743,1049 743,1048 743,1047 743,1046 743,1045 743,1044 743,1043 743,1042 743,1041 743,1040 743,1039 743,1038 743,1037 743,1036 743,1035 743,1034 743,1033 743,1032 743,1031 743,1030 743,1029 743,1028 743,1027 743,1026 743,1025 743,1024 743,1023 743,1022 743,1021 743,1020 743,1019 743,1018 743,1017 743,1016 743,1015 743,1014 743,1013 743,1012 743,1011 743,1010 743,1009 743,1008 743,1007 743,1006 743,1005 743,1004 743,1003 743,1002 743,1001 743,1000 743,999 743,998 743,997 743,996 743,995 743,994 743,993 743,992 743,991 743,990 743,989 743,988 743,987 743,986 743,985 743,984 743,983 743,982 743,981 743,980 743,979 743,978 743,977 743,976 743,975 743,974 743,973 743,972 743,971 743,970 743,969 743,968 743,967 743,966 743,965 743,964 743,963 743,962 743,961 743,960 743,959 743,958 743,957 743,956 743,955 743,954 743,953 743,952 743,951 743,950 743,949 743,948 743,947 743,946 743,945 743,944 743,943 743,942 743,941 743,940 743,939 743,938 743,937 743,936 743,935 743,934 743,933 743,932 743,931 743,930 743,929 743,928 743,927 743,926 743,925 743,924 743,923 743,922 743,921 743,920 743,919 743,918 743,917 743,916 743,915 743,914 743,913 743,912 743,911 743,910 743,909 743,908 743,907 743,906 743,905 743,904 743,903 743,902 743,901 743,900 743,899 743,898 743,897 743,896 743,895 743,894 743,893 743,892 743,891 743,890 743,889 743,888 743,887 743,886 743,885 743,884 743,883 743,882 743,881 743,880 743,879 743,878 743,877 743,876 743,875 743,874 743,873 743,872 743,871 743,870 743,869 743,868 743,867 742,867 741,867 740,867 739,867 738,867 737,867 736,867 735,867 734,867 733,867 732,867 731,867 730,867 729,867 728,867 727,867 726,867 725,867 724,867 723,867 722,867 721,867 720,867 719,867 718,867 717,867 716,867 715,867 714,867 713,867 712,867 711,867 710,867 709,867 708,867 707,867 706,867 705,867 704,867 703,867 702,867 701,867 700,867 699,867 698,867 697,867 696,867 695,867 694,867 693,867 692,867 691,867 690,867 689,867 688,867 687,867 686,867 685,867 684,867 683,867 682,867 681,867">
      <metadata tailDirection="" confidence="0.99" linkedToCharacter="" id="TetsuSan_032_balloon_3" tailTip=""></metadata>
    </polygon>
    <polygon points="425,867 424,868 424,869 424,870 424,871 424,872 424,873 424,874 424,875 424,876 424,877 424,878 424,879 424,880 424,881 424,882 424,883 424,884 424,885 424,886 424,887 424,888 424,889 424,890 424,891 424,892 424,893 424,894 424,895 424,896 424,897 424,898 424,899 424,900 424,901 424,902 424,903 424,904 424,905 424,906 424,907 424,908 424,909 424,910 424,911 424,912 424,913 424,914 424,915 424,916 424,917 424,918 424,919 424,920 424,921 424,922 424,923 424,924 424,925 424,926 424,927 424,928 424,929 424,930 424,931 424,932 424,933 424,934 424,935 424,936 424,937 424,938 424,939 424,940 424,941 424,942 424,943 424,944 424,945 424,946 424,947 424,948 424,949 424,950 424,951 424,952 424,953 424,954 424,955 424,956 424,957 424,958 424,959 424,960 424,961 424,962 424,963 424,964 424,965 424,966 424,967 424,968 424,969 424,970 424,971 424,972 424,973 424,974 424,975 424,976 424,977 424,978 424,979 424,980 424,981 424,982 424,983 424,984 424,985 424,986 424,987 424,988 424,989 424,990 424,991 424,992 424,993 424,994 424,995 424,996 424,997 424,998 424,999 424,1000 424,1001 424,1002 424,1003 424,1004 424,1005 424,1006 425,1007 426,1007 427,1008 428,1009 429,1010 430,1011 431,1011 432,1011 433,1011 434,1011 435,1010 436,1010 437,1010 438,1009 439,1009 440,1009 441,1008 442,1009 443,1009 444,1009 445,1010 446,1010 447,1011 448,1011 449,1012 450,1012 451,1012 452,1012 453,1013 454,1013 455,1013 456,1012 457,1011 458,1010 459,1010 460,1009 461,1009 462,1009 463,1009 464,1010 465,1010 466,1010 467,1011 468,1011 469,1011 470,1011 471,1011 472,1011 472,1010 472,1009 473,1008 474,1008 475,1008 476,1009 477,1009 478,1010 479,1011 480,1012 481,1012 480,1011 480,1010 479,1009 479,1008 479,1007 479,1006 480,1005 481,1004 481,1003 482,1002 483,1002 484,1001 485,1000 486,999 487,998 488,997 487,996 487,995 487,994 487,993 487,992 487,991 487,990 487,989 488,988 488,987 488,986 488,985 489,984 490,984 491,983 492,982 493,981 493,980 493,979 493,978 493,977 493,976 493,975 493,974 492,973 492,972 491,971 491,970 490,969 490,968 490,967 490,966 490,965 490,964 490,963 491,962 491,961 491,960 492,959 492,958 492,957 492,956 493,955 493,954 493,953 493,952 493,951 493,950 492,949 492,948 491,947 491,946 490,945 489,944 489,943 488,942 488,941 488,940 488,939 488,938 488,937 489,936 489,935 489,934 489,933 490,932 490,931 490,930 491,929 491,928 491,927 491,926 490,925 490,924 490,923 489,922 489,921 488,920 488,919 487,918 487,917 486,916 486,915 485,914 486,913 486,912 486,911 486,910 486,909 486,908 486,907 487,906 487,905 487,904 487,903 487,902 488,901 488,900 488,899 487,898 487,897 486,896 485,895 484,894 484,893 483,892 483,891 483,890 483,889 483,888 483,887 484,886 484,885 484,884 485,883 485,882 485,881 485,880 485,879 485,878 485,877 484,876 484,875 484,874 483,873 483,872 483,871 482,870 481,869 481,868 480,867 479,867 478,867 477,867 476,867 475,867 474,867 473,867 472,867 471,867 470,867 469,867 468,867 467,867 466,867 465,867 464,867 463,867 462,867 461,867 460,867 459,867 458,867 457,867 456,867 455,867 454,867 453,867 452,867 451,867 450,867 449,867 448,867 447,867 446,867 445,867 444,867 443,867 442,867 441,867 440,867 439,867 438,867 437,867 436,867 435,867 434,867 433,867 432,867 431,867 430,867 429,867 428,867 427,867 426,867 425,867">
      <metadata tailDirection="" confidence="0.81" linkedToCharacter="" id="TetsuSan_032_balloon_4" tailTip=""></metadata>
    </polygon>
    <polygon points="479,620 478,621 477,621 476,621 475,621 474,621 473,621 472,621 471,621 470,621 469,621 468,621 467,621 466,621 465,621 464,621 463,621 462,621 461,621 460,621 459,621 458,621 457,621 456,621 455,621 454,621 453,621 452,621 451,621 450,621 449,621 448,621 447,621 446,621 445,621 444,621 443,621 442,621 441,621 440,621 439,621 438,621 437,621 436,621 435,621 434,621 433,621 432,621 431,621 430,621 429,621 428,621 427,621 426,621 425,621 424,621 424,622 424,623 424,624 424,625 424,626 424,627 424,628 424,629 424,630 424,631 424,632 424,633 424,634 424,635 424,636 424,637 424,638 424,639 424,640 424,641 424,642 424,643 424,644 424,645 424,646 424,647 424,648 424,649 424,650 424,651 424,652 424,653 424,654 424,655 424,656 424,657 424,658 424,659 424,660 424,661 424,662 424,663 424,664 424,665 424,666 424,667 424,668 424,669 424,670 424,671 424,672 424,673 424,674 424,675 424,676 424,677 424,678 424,679 424,680 424,681 424,682 424,683 424,684 424,685 424,686 424,687 424,688 424,689 424,690 424,691 424,692 424,693 424,694 424,695 424,696 424,697 424,698 424,699 424,700 424,701 424,702 424,703 424,704 424,705 424,706 424,707 424,708 424,709 424,710 424,711 424,712 424,713 424,714 424,715 424,716 424,717 424,718 424,719 424,720 424,721 424,722 424,723 424,724 424,725 424,726 424,727 424,728 424,729 424,730 424,731 424,732 424,733 424,734 424,735 424,736 424,737 424,738 424,739 424,740 424,741 424,742 424,743 424,744 424,745 424,746 424,747 424,748 424,749 424,750 424,751 424,752 424,753 424,754 424,755 424,756 424,757 424,758 424,759 424,760 424,761 424,762 424,763 424,764 424,765 424,766 424,767 424,768 424,769 424,770 424,771 424,772 424,773 424,774 424,775 424,776 424,777 424,778 424,779 424,780 424,781 424,782 424,783 424,784 424,785 424,786 424,787 424,788 424,789 424,790 424,791 424,792 424,793 424,794 424,795 424,796 424,797 424,798 424,799 424,800 424,801 424,802 424,803 424,804 424,805 424,806 424,807 424,808 424,809 424,810 424,811 424,812 424,813 424,814 424,815 424,816 424,817 424,818 424,819 424,820 424,821 424,822 424,823 424,824 424,825 424,826 424,827 424,828 424,829 424,830 424,831 424,832 424,833 424,834 424,835 424,836 424,837 424,838 424,839 424,840 424,841 424,842 424,843 424,844 424,845 424,846 424,847 424,848 424,849 424,850 425,850 426,850 427,850 428,850 429,850 430,850 431,850 432,850 433,850 434,850 435,850 436,850 437,850 438,850 439,850 440,850 441,850 442,850 443,850 444,850 445,850 446,850 447,850 448,850 449,850 450,850 451,850 452,850 453,850 454,850 455,850 456,850 457,850 458,850 459,850 460,850 461,850 462,850 463,850 464,850 465,850 466,850 467,850 468,850 469,850 470,850 471,850 472,850 473,850 474,850 475,850 476,850 477,850 478,850 479,850 480,850 480,849 480,848 480,847 480,846 480,845 480,844 481,843 481,842 481,841 480,840 481,839 481,838 480,837 481,836 481,835 480,834 481,833 481,832 481,831 481,830 481,829 481,828 481,827 481,826 481,825 481,824 481,823 481,822 481,821 481,820 481,819 481,818 481,817 481,816 481,815 481,814 481,813 481,812 481,811 481,810 481,809 481,808 481,807 481,806 481,805 481,804 481,803 481,802 481,801 481,800 481,799 481,798 481,797 481,796 481,795 481,794 481,793 481,792 481,791 481,790 481,789 481,788 481,787 481,786 481,785 481,784 481,783 481,782 481,781 482,780 481,779 482,778 481,777 481,776 481,775 481,774 481,773 482,772 482,771 482,770 482,769 481,768 481,767 481,766 481,765 482,764 482,763 482,762 482,761 481,760 481,759 482,758 482,757 482,756 481,755 482,754 482,753 482,752 482,751 482,750 482,749 482,748 482,747 482,746 482,745 482,744 482,743 482,742 482,741 482,740 482,739 482,738 481,737 481,736 482,735 482,734 482,733 481,732 481,731 482,730 481,729 481,728 482,727 481,726 482,725 482,724 481,723 482,722 482,721 482,720 482,719 482,718 482,717 482,716 482,715 481,714 481,713 481,712 481,711 481,710 481,709 481,708 481,707 481,706 481,705 481,704 481,703 481,702 481,701 482,700 482,699 482,698 481,697 481,696 482,695 482,694 481,693 481,692 481,691 482,690 482,689 482,688 481,687 481,686 482,685 482,684 482,683 481,682 481,681 482,680 481,679 482,678 482,677 482,676 482,675 482,674 482,673 481,672 481,671 481,670 481,669 482,668 481,667 481,666 482,665 482,664 481,663 481,662 481,661 481,660 481,659 481,658 481,657 481,656 481,655 481,654 481,653 481,652 481,651 481,650 481,649 481,648 481,647 481,646 481,645 481,644 481,643 482,642 481,641 481,640 481,639 481,638 481,637 481,636 481,635 481,634 481,633 481,632 482,631 481,630 481,629 481,628 481,627 481,626 481,625 481,624 481,623 481,622 481,621 481,620 480,620 479,620">
      <metadata tailDirection="" confidence="0.94" linkedToCharacter="" id="TetsuSan_032_balloon_5" tailTip=""></metadata>
    </polygon>
    <polygon points="100,372 99,373 98,373 97,373 96,373 95,373 94,373 93,373 92,373 91,373 90,373 89,373 88,373 87,373 86,373 85,373 84,373 83,373 82,373 81,373 80,373 79,373 78,373 77,373 76,373 75,373 74,373 73,373 72,373 71,373 70,373 69,373 68,373 67,373 66,373 65,373 65,374 65,375 65,376 65,377 65,378 65,379 65,380 65,381 65,382 65,383 65,384 65,385 65,386 65,387 65,388 65,389 65,390 65,391 65,392 65,393 65,394 65,395 65,396 65,397 65,398 65,399 65,400 65,401 65,402 65,403 65,404 65,405 65,406 65,407 65,408 65,409 65,410 65,411 65,412 65,413 65,414 65,415 65,416 65,417 65,418 65,419 65,420 65,421 65,422 65,423 65,424 65,425 65,426 65,427 65,428 65,429 65,430 65,431 65,432 65,433 65,434 65,435 65,436 65,437 65,438 65,439 65,440 65,441 65,442 65,443 65,444 65,445 65,446 65,447 65,448 65,449 65,450 65,451 65,452 65,453 65,454 65,455 65,456 65,457 65,458 65,459 65,460 65,461 65,462 65,463 65,464 65,465 65,466 65,467 65,468 65,469 65,470 65,471 65,472 65,473 65,474 65,475 65,476 65,477 65,478 65,479 65,480 65,481 65,482 65,483 65,484 65,485 65,486 65,487 65,488 65,489 65,490 65,491 65,492 65,493 65,494 65,495 65,496 65,497 65,498 65,499 66,500 65,501 65,502 65,503 65,504 65,505 65,506 65,507 65,508 65,509 65,510 66,511 66,512 66,513 65,514 65,515 66,516 66,517 66,518 66,519 66,520 66,521 66,522 66,523 66,524 66,525 66,526 66,527 66,528 66,529 66,530 66,531 66,532 66,533 66,534 66,535 66,536 66,537 66,538 66,539 66,540 66,541 66,542 66,543 66,544 66,545 66,546 66,547 66,548 66,549 66,550 66,551 66,552 66,553 66,554 66,555 66,556 66,557 66,558 66,559 66,560 66,561 66,562 66,563 66,564 66,565 66,566 66,567 66,568 66,569 66,570 66,571 66,572 66,573 66,574 66,575 66,576 66,577 66,578 66,579 67,580 68,581 68,582 69,582 70,583 71,584 72,585 73,585 74,586 74,587 75,587 76,588 77,588 78,589 79,589 80,589 81,589 82,590 83,590 84,590 85,591 86,591 87,591 88,591 89,591 90,592 91,592 92,592 93,592 94,592 95,592 96,592 97,592 98,592 99,592 100,592 101,592 102,591 103,591 104,591 105,591 106,591 107,590 108,590 109,590 110,590 111,590 112,589 113,589 114,588 115,588 116,587 117,586 118,586 119,585 120,584 121,583 122,582 123,581 124,580 125,579 126,578 127,577 128,576 129,575 129,574 129,573 130,572 130,571 130,570 131,569 132,568 132,567 133,566 133,565 133,564 134,563 134,562 134,561 135,560 135,559 135,558 136,557 136,556 136,555 137,554 137,553 137,552 137,551 137,550 137,549 138,548 138,547 138,546 138,545 139,544 139,543 139,542 139,541 139,540 139,539 139,538 140,537 140,536 140,535 140,534 140,533 140,532 141,531 141,530 141,529 141,528 141,527 141,526 141,525 142,524 142,523 142,522 142,521 142,520 142,519 142,518 142,517 142,516 142,515 143,514 143,513 143,512 143,511 143,510 143,509 143,508 142,507 142,506 142,505 142,504 142,503 142,502 142,501 142,500 142,499 142,498 142,497 142,496 142,495 142,494 142,493 142,492 142,491 141,490 141,489 141,488 141,487 141,486 140,485 140,484 140,483 140,482 140,481 140,480 139,479 139,478 139,477 139,476 139,475 139,474 139,473 138,472 138,471 138,470 138,469 138,468 137,467 137,466 137,465 137,464 137,463 137,462 138,461 139,461 140,460 141,460 142,460 143,459 144,459 143,459 142,459 141,459 140,458 139,457 138,456 138,455 138,454 138,453 138,452 138,451 138,450 138,449 138,448 138,447 138,446 137,445 137,444 137,443 137,442 137,441 137,440 137,439 137,438 137,437 137,436 136,435 136,434 136,433 136,432 136,431 136,430 136,429 135,428 135,427 135,426 135,425 135,424 135,423 135,422 135,421 135,420 135,419 134,418 134,417 134,416 134,415 134,414 134,413 134,412 134,411 133,410 133,409 133,408 133,407 133,406 133,405 133,404 133,403 132,402 132,401 132,400 132,399 131,398 131,397 131,396 131,395 131,394 131,393 130,392 130,391 130,390 130,389 129,388 129,387 129,386 129,385 128,384 128,383 128,382 127,381 127,380 127,379 126,378 126,377 126,376 125,375 125,374 125,373 124,372 123,372 122,372 121,372 120,372 119,372 118,372 117,372 116,372 115,372 114,372 113,372 112,372 111,372 110,372 109,372 108,372 107,372 106,372 105,372 104,372 103,372 102,372 101,372 100,372">
      <metadata tailDirection="" confidence="0.91" linkedToCharacter="" id="TetsuSan_032_balloon_6" tailTip=""></metadata>
    </polygon>
    <polygon points="323,371 322,372 322,373 322,374 322,375 321,376 321,377 321,378 321,379 321,380 320,381 320,382 320,383 320,384 320,385 320,386 319,387 319,388 319,389 319,390 319,391 319,392 319,393 319,394 318,395 318,396 318,397 318,398 318,399 318,400 318,401 318,402 318,403 318,404 318,405 318,406 318,407 318,408 318,409 318,410 318,411 318,412 318,413 318,414 318,415 318,416 318,417 318,418 318,419 318,420 318,421 318,422 318,423 318,424 318,425 318,426 318,427 317,428 318,429 318,430 318,431 318,432 318,433 318,434 318,435 318,436 318,437 318,438 318,439 318,440 318,441 318,442 318,443 318,444 318,445 318,446 317,447 316,448 315,448 314,448 314,449 315,449 316,449 317,450 318,449 319,450 319,451 319,452 318,453 318,454 318,455 318,456 318,457 318,458 318,459 317,460 317,461 317,462 317,463 317,464 317,465 317,466 317,467 317,468 317,469 317,470 316,471 317,472 316,473 316,474 316,475 316,476 316,477 316,478 316,479 316,480 316,481 316,482 316,483 316,484 316,485 316,486 317,487 316,488 317,489 316,490 316,491 317,492 317,493 317,494 317,495 317,496 317,497 317,498 317,499 317,500 317,501 317,502 317,503 317,504 317,505 317,506 317,507 318,508 318,509 318,510 318,511 318,512 318,513 318,514 318,515 319,516 319,517 319,518 319,519 320,520 320,521 320,522 321,523 321,524 321,525 321,526 321,527 322,528 322,529 322,530 323,531 323,532 323,533 324,534 324,535 325,536 325,537 326,538 326,539 327,540 328,541 329,542 330,543 330,544 331,545 332,546 333,547 333,548 334,549 335,549 336,550 337,551 338,552 339,552 340,553 341,554 342,554 343,555 344,555 345,555 346,556 347,556 348,557 349,557 350,557 351,558 352,558 353,558 354,559 355,559 356,560 357,560 358,560 359,560 360,560 361,560 362,560 363,560 364,560 365,560 366,560 367,560 368,560 369,560 370,560 371,560 372,559 373,559 374,559 375,559 376,559 377,559 378,558 379,558 380,557 381,557 382,556 383,555 384,555 384,554 385,553 385,552 385,551 385,550 385,549 385,548 385,547 385,546 385,545 385,544 385,543 385,542 385,541 385,540 385,539 385,538 385,537 385,536 385,535 385,534 385,533 385,532 385,531 385,530 385,529 385,528 385,527 385,526 385,525 385,524 385,523 385,522 385,521 385,520 385,519 385,518 385,517 385,516 385,515 385,514 385,513 385,512 385,511 385,510 385,509 385,508 385,507 385,506 385,505 385,504 385,503 385,502 385,501 385,500 385,499 385,498 385,497 385,496 385,495 385,494 385,493 385,492 385,491 385,490 385,489 385,488 385,487 385,486 385,485 385,484 385,483 385,482 385,481 385,480 385,479 385,478 385,477 385,476 385,475 385,474 385,473 385,472 385,471 385,470 385,469 385,468 385,467 385,466 385,465 385,464 385,463 385,462 385,461 385,460 385,459 385,458 385,457 385,456 385,455 385,454 385,453 385,452 385,451 385,450 385,449 385,448 385,447 385,446 385,445 385,444 385,443 385,442 385,441 385,440 385,439 385,438 385,437 385,436 385,435 385,434 385,433 385,432 385,431 385,430 385,429 385,428 385,427 385,426 385,425 385,424 385,423 385,422 385,421 385,420 385,419 385,418 385,417 385,416 385,415 385,414 385,413 385,412 385,411 385,410 385,409 385,408 385,407 385,406 385,405 385,404 385,403 385,402 385,401 385,400 385,399 385,398 385,397 385,396 385,395 385,394 385,393 385,392 385,391 385,390 385,389 385,388 385,387 385,386 385,385 385,384 385,383 385,382 385,381 385,380 385,379 385,378 385,377 385,376 385,375 385,374 385,373 385,372 384,372 383,372 382,372 381,372 380,372 379,372 378,372 377,372 376,372 375,372 374,372 373,372 372,372 371,372 370,372 369,372 368,372 367,372 366,372 365,372 364,372 363,372 362,372 361,372 360,372 359,372 358,372 357,372 356,372 355,372 354,372 353,372 352,372 351,372 350,372 349,372 348,372 347,372 346,372 345,372 344,372 343,372 342,371 341,372 340,372 339,372 338,372 337,372 336,371 335,372 334,372 333,372 332,372 331,372 330,371 329,371 328,371 327,372 326,372 325,372 324,372 323,371">
      <metadata tailDirection="" confidence="0.99" linkedToCharacter="" id="TetsuSan_032_balloon_7" tailTip=""></metadata>
    </polygon>
    <polygon points="426,371 425,372 425,373 425,374 425,375 425,376 425,377 425,378 425,379 425,380 425,381 425,382 425,383 425,384 425,385 425,386 425,387 425,388 425,389 425,390 425,391 425,392 425,393 425,394 425,395 425,396 425,397 425,398 425,399 424,400 425,401 425,402 425,403 425,404 425,405 425,406 425,407 425,408 425,409 425,410 425,411 425,412 425,413 425,414 425,415 425,416 425,417 424,418 424,419 424,420 425,421 424,422 424,423 424,424 424,425 424,426 424,427 424,428 424,429 424,430 424,431 424,432 424,433 424,434 424,435 424,436 424,437 424,438 424,439 424,440 424,441 424,442 424,443 424,444 424,445 424,446 424,447 424,448 424,449 424,450 424,451 424,452 424,453 424,454 424,455 424,456 424,457 424,458 424,459 424,460 424,461 424,462 424,463 424,464 424,465 424,466 424,467 424,468 424,469 424,470 424,471 424,472 424,473 424,474 424,475 424,476 424,477 424,478 424,479 424,480 424,481 424,482 424,483 424,484 424,485 424,486 424,487 424,488 424,489 424,490 424,491 424,492 424,493 424,494 424,495 424,496 424,497 424,498 424,499 424,500 424,501 424,502 424,503 424,504 424,505 424,506 424,507 424,508 424,509 424,510 424,511 424,512 424,513 424,514 424,515 424,516 424,517 424,518 424,519 424,520 424,521 424,522 424,523 424,524 424,525 424,526 424,527 424,528 424,529 424,530 424,531 424,532 424,533 424,534 424,535 424,536 424,537 424,538 424,539 424,540 424,541 424,542 424,543 424,544 424,545 424,546 424,547 424,548 424,549 424,550 424,551 424,552 424,553 424,554 424,555 424,556 424,557 424,558 424,559 424,560 424,561 424,562 424,563 424,564 424,565 424,566 424,567 424,568 424,569 424,570 424,571 424,572 424,573 424,574 424,575 424,576 424,577 424,578 424,579 424,580 424,581 424,582 424,583 424,584 424,585 424,586 424,587 424,588 424,589 424,590 424,591 424,592 424,593 424,594 424,595 424,596 424,597 424,598 424,599 424,600 424,601 425,601 426,601 427,601 428,601 429,601 430,601 431,601 432,601 433,601 434,601 435,601 436,601 437,601 438,601 439,601 440,601 441,601 442,601 443,601 444,601 445,601 446,601 447,601 448,601 449,601 450,601 451,601 452,601 453,601 454,601 455,601 456,601 457,601 458,601 459,601 460,601 461,601 462,601 463,601 464,601 465,601 466,601 467,601 468,601 469,601 470,601 471,601 472,601 473,601 474,601 475,601 476,601 477,601 478,601 479,601 480,601 480,600 480,599 480,598 480,597 480,596 480,595 480,594 480,593 480,592 480,591 480,590 480,589 480,588 480,587 480,586 480,585 480,584 480,583 480,582 480,581 480,580 480,579 480,578 480,577 480,576 480,575 480,574 480,573 480,572 480,571 480,570 480,569 480,568 480,567 480,566 480,565 480,564 480,563 480,562 480,561 480,560 480,559 480,558 480,557 480,556 480,555 480,554 480,553 480,552 480,551 480,550 480,549 480,548 480,547 480,546 480,545 480,544 480,543 480,542 480,541 480,540 480,539 480,538 480,537 480,536 480,535 480,534 480,533 480,532 480,531 480,530 480,529 480,528 480,527 480,526 480,525 480,524 480,523 480,522 480,521 480,520 480,519 480,518 480,517 480,516 480,515 480,514 480,513 480,512 480,511 480,510 480,509 480,508 480,507 480,506 480,505 480,504 480,503 481,502 481,501 481,500 481,499 481,498 481,497 481,496 481,495 481,494 481,493 481,492 480,491 481,490 481,489 481,488 481,487 481,486 481,485 481,484 481,483 481,482 481,481 481,480 481,479 481,478 481,477 481,476 481,475 481,474 481,473 481,472 481,471 481,470 481,469 481,468 481,467 481,466 481,465 481,464 481,463 481,462 481,461 481,460 481,459 480,458 480,457 481,456 481,455 481,454 481,453 481,452 481,451 481,450 481,449 481,448 481,447 481,446 481,445 481,444 481,443 481,442 481,441 481,440 481,439 481,438 481,437 481,436 481,435 481,434 481,433 481,432 481,431 481,430 481,429 481,428 481,427 481,426 481,425 481,424 480,423 481,422 481,421 480,420 480,419 480,418 480,417 480,416 480,415 480,414 480,413 480,412 480,411 480,410 480,409 480,408 480,407 480,406 480,405 480,404 480,403 480,402 480,401 480,400 480,399 480,398 480,397 480,396 480,395 480,394 480,393 480,392 480,391 480,390 480,389 480,388 480,387 480,386 480,385 480,384 480,383 480,382 480,381 480,380 480,379 480,378 480,377 480,376 480,375 480,374 481,373 481,372 481,371 480,371 479,371 478,371 477,371 476,371 475,371 474,371 473,371 472,371 471,371 470,371 469,371 468,371 467,371 466,371 465,371 464,371 463,371 462,371 461,371 460,371 459,371 458,371 457,371 456,371 455,371 454,371 453,371 452,371 451,371 450,371 449,371 448,371 447,371 446,371 445,371 444,371 443,371 442,371 441,371 440,371 439,371 438,371 437,371 436,371 435,371 434,371 433,371 432,371 431,371 430,371 429,371 428,371 427,371 426,371">
      <metadata tailDirection="" confidence="0.95" linkedToCharacter="" id="TetsuSan_032_balloon_8" tailTip=""></metadata>
    </polygon>
    <polygon points="683,370 683,371 683,372 683,373 683,374 683,375 683,376 683,377 683,378 683,379 683,380 683,381 683,382 683,383 683,384 683,385 683,386 683,387 683,388 683,389 683,390 683,391 683,392 683,393 683,394 683,395 683,396 683,397 683,398 683,399 683,400 683,401 683,402 683,403 683,404 683,405 683,406 683,407 683,408 683,409 683,410 683,411 683,412 683,413 683,414 682,415 682,416 682,417 682,418 683,419 682,420 682,421 682,422 682,423 682,424 682,425 682,426 682,427 682,428 682,429 682,430 682,431 682,432 682,433 682,434 682,435 682,436 682,437 682,438 682,439 682,440 682,441 682,442 682,443 682,444 682,445 682,446 682,447 682,448 682,449 682,450 682,451 682,452 682,453 682,454 682,455 682,456 682,457 682,458 682,459 682,460 682,461 682,462 682,463 682,464 682,465 682,466 682,467 682,468 682,469 682,470 682,471 682,472 682,473 682,474 682,475 682,476 682,477 682,478 682,479 682,480 682,481 682,482 682,483 682,484 682,485 682,486 682,487 682,488 682,489 682,490 682,491 682,492 682,493 682,494 682,495 682,496 682,497 682,498 682,499 682,500 682,501 682,502 682,503 682,504 682,505 682,506 681,507 681,508 681,509 681,510 681,511 681,512 681,513 681,514 681,515 681,516 681,517 681,518 681,519 681,520 681,521 681,522 681,523 681,524 681,525 681,526 681,527 681,528 681,529 681,530 681,531 681,532 681,533 681,534 681,535 681,536 681,537 681,538 681,539 681,540 681,541 681,542 681,543 681,544 681,545 681,546 681,547 681,548 681,549 681,550 681,551 681,552 681,553 681,554 681,555 681,556 681,557 681,558 681,559 681,560 681,561 681,562 681,563 681,564 681,565 681,566 681,567 681,568 681,569 681,570 681,571 681,572 681,573 681,574 681,575 681,576 681,577 681,578 681,579 681,580 681,581 681,582 681,583 681,584 681,585 681,586 681,587 681,588 681,589 680,590 681,591 681,592 681,593 680,594 680,595 680,596 680,597 680,598 680,599 680,600 681,601 682,601 683,601 684,601 685,601 686,601 687,601 688,601 689,601 690,601 691,601 692,601 693,601 694,601 695,601 696,601 697,601 698,601 699,601 700,601 701,601 702,601 703,601 704,601 705,601 706,601 707,601 708,601 709,601 710,601 711,601 712,601 713,601 714,601 715,601 716,601 717,601 718,601 719,601 720,601 721,601 722,601 723,601 724,601 725,601 726,601 727,601 728,601 729,601 730,601 731,601 732,601 733,601 734,601 735,601 736,601 737,601 738,601 739,601 740,601 741,601 742,601 742,600 742,599 742,598 742,597 742,596 742,595 742,594 742,593 742,592 742,591 742,590 742,589 743,588 743,587 743,586 742,585 742,584 743,583 743,582 743,581 743,580 743,579 743,578 743,577 743,576 743,575 743,574 743,573 743,572 743,571 743,570 743,569 743,568 743,567 743,566 743,565 743,564 743,563 743,562 743,561 743,560 743,559 743,558 743,557 743,556 743,555 743,554 743,553 743,552 743,551 743,550 743,549 743,548 743,547 743,546 743,545 743,544 743,543 743,542 743,541 743,540 743,539 743,538 743,537 743,536 743,535 743,534 743,533 743,532 743,531 743,530 743,529 743,528 743,527 743,526 743,525 743,524 743,523 743,522 743,521 743,520 743,519 743,518 743,517 743,516 743,515 743,514 743,513 743,512 743,511 743,510 743,509 743,508 743,507 743,506 743,505 743,504 743,503 743,502 743,501 743,500 743,499 743,498 743,497 743,496 743,495 743,494 743,493 743,492 743,491 743,490 743,489 743,488 743,487 743,486 743,485 743,484 743,483 743,482 743,481 743,480 743,479 743,478 743,477 743,476 743,475 743,474 743,473 743,472 743,471 743,470 743,469 743,468 743,467 743,466 743,465 743,464 743,463 743,462 743,461 743,460 743,459 743,458 743,457 743,456 743,455 743,454 743,453 743,452 743,451 743,450 743,449 743,448 743,447 743,446 743,445 743,444 743,443 743,442 743,441 743,440 743,439 743,438 743,437 743,436 743,435 743,434 743,433 743,432 743,431 743,430 743,429 743,428 743,427 743,426 743,425 743,424 743,423 743,422 743,421 743,420 743,419 743,418 743,417 743,416 743,415 743,414 743,413 743,412 743,411 743,410 743,409 743,408 743,407 743,406 743,405 743,404 743,403 743,402 743,401 743,400 743,399 743,398 743,397 743,396 743,395 743,394 743,393 743,392 743,391 743,390 743,389 743,388 743,387 743,386 743,385 743,384 743,383 743,382 743,381 743,380 743,379 743,378 743,377 743,376 743,375 743,374 743,373 743,372 743,371 742,371 741,371 740,371 739,371 738,371 737,371 736,371 735,371 734,371 733,371 732,371 731,371 730,371 729,371 728,371 727,371 726,371 725,371 724,371 723,370 722,370 721,371 720,371 719,370 718,370 717,370 716,370 715,370 714,370 713,370 712,370 711,371 710,370 709,370 708,370 707,371 706,371 705,371 704,370 703,370 702,370 701,370 700,370 699,370 698,370 697,370 696,370 695,370 694,370 693,370 692,370 691,370 690,370 689,370 688,370 687,370 686,370 685,370 684,370 683,370">
      <metadata tailDirection="" confidence="0.97" linkedToCharacter="" id="TetsuSan_032_balloon_9" tailTip=""></metadata>
    </polygon>
    <polygon points="514,201 513,202 512,202 511,202 510,202 509,202 508,202 507,203 506,203 505,203 504,204 503,204 502,205 501,205 500,206 499,207 498,208 497,209 496,210 496,211 495,212 495,213 494,214 493,215 492,216 491,217 490,218 490,219 491,220 491,221 492,222 493,222 494,223 495,224 496,224 497,225 497,226 497,227 497,228 497,229 497,230 496,231 496,232 496,233 496,234 496,235 496,236 496,237 496,238 497,239 496,240 495,241 494,240 493,239 493,238 493,237 493,236 493,235 493,234 492,233 491,233 490,234 490,235 489,236 489,237 489,238 489,239 489,240 489,239 489,238 489,237 490,236 491,235 492,235 493,236 493,237 493,238 492,239 492,240 493,240 494,241 495,242 496,243 496,244 495,245 494,245 493,244 493,243 492,243 491,244 492,245 492,246 493,247 494,248 495,247 495,246 496,245 497,245 498,246 498,247 497,248 497,249 496,250 495,250 495,251 496,252 496,253 497,254 498,255 499,256 500,257 501,258 502,259 503,259 504,260 505,260 506,261 507,261 508,261 509,262 510,262 511,262 512,263 513,263 514,263 515,263 516,263 517,263 518,263 519,263 520,263 521,263 522,263 523,263 524,263 525,263 526,263 527,263 528,263 529,262 530,262 531,262 532,262 533,262 534,261 535,261 536,260 537,260 538,260 539,260 540,260 541,259 542,258 543,257 544,257 545,256 546,255 547,254 548,253 548,252 548,251 549,250 549,249 550,248 550,247 550,246 550,245 550,244 551,243 551,242 551,241 551,240 551,239 551,238 551,237 550,236 550,235 550,234 550,233 550,232 549,231 548,231 547,230 548,229 548,228 548,227 548,226 548,225 548,224 548,223 547,222 547,221 546,220 546,219 546,218 545,217 545,216 544,215 543,214 543,213 542,212 541,211 540,210 539,209 538,208 537,208 536,207 535,206 534,205 533,205 532,204 531,204 530,203 529,203 528,203 527,202 526,202 525,202 524,201 523,201 522,201 521,201 520,201 519,201 518,201 517,201 516,201 515,201 514,201">
      <metadata tailDirection="" confidence="0.80" linkedToCharacter="" id="TetsuSan_032_balloon_10" tailTip=""></metadata>
    </polygon>
    <polygon points="678,121 678,122 678,123 679,124 679,125 679,126 680,127 680,128 680,129 681,130 681,131 681,132 682,133 682,134 682,135 682,136 682,137 682,138 682,139 682,140 682,141 682,142 682,143 682,144 682,145 682,146 681,147 681,148 681,149 681,150 680,151 680,152 680,153 679,154 679,155 678,156 678,157 677,158 677,159 676,160 677,161 678,162 679,163 679,164 680,165 680,166 680,167 681,168 681,169 681,170 681,171 681,172 681,173 681,174 682,175 681,176 681,177 681,178 681,179 681,180 681,181 681,182 681,183 680,184 680,185 680,186 679,187 679,188 678,189 678,190 677,191 677,192 678,193 678,194 679,195 679,196 679,197 680,198 680,199 680,200 680,201 680,202 680,203 680,204 680,205 680,206 680,207 680,208 680,209 680,210 680,211 679,212 679,213 679,214 678,215 678,216 678,217 677,218 677,219 676,220 676,221 675,222 675,223 674,224 673,225 674,226 674,227 675,228 676,229 676,230 677,231 677,232 677,233 678,234 678,235 678,236 678,237 678,238 679,239 679,240 679,241 679,242 678,243 678,244 678,245 678,246 678,247 678,248 677,249 677,250 677,251 677,252 676,253 676,254 676,255 675,256 675,257 674,258 674,259 675,259 676,260 677,261 677,262 678,263 678,264 679,265 679,266 679,267 679,268 680,269 680,270 680,271 680,272 680,273 680,274 680,275 680,276 680,277 680,278 680,279 680,280 680,281 680,282 679,283 679,284 679,285 679,286 678,287 678,288 677,289 677,290 676,291 676,292 677,292 678,293 679,294 680,295 680,296 680,297 681,298 681,299 681,300 682,301 682,302 682,303 682,304 682,305 682,306 682,307 682,308 682,309 682,310 682,311 682,312 682,313 681,314 681,315 681,316 680,317 680,318 679,319 679,320 680,321 681,322 681,323 682,324 682,325 683,326 683,327 683,328 683,329 683,330 683,331 683,332 683,333 683,334 683,335 683,336 683,337 683,338 683,339 683,340 683,341 683,342 682,343 682,344 682,345 681,346 681,347 680,348 680,349 679,350 679,351 678,352 678,353 679,353 680,353 681,353 682,353 683,353 684,353 685,353 686,353 687,353 688,353 689,353 690,352 691,352 692,352 693,352 694,353 695,353 696,352 697,352 698,353 699,353 700,353 701,353 702,352 703,352 704,352 705,352 706,352 707,352 708,352 709,352 710,352 711,352 712,352 713,352 714,352 715,352 716,352 717,353 718,353 719,352 720,352 721,352 722,352 723,352 724,352 725,352 726,352 727,352 728,352 729,352 730,352 731,352 732,352 733,352 734,352 735,352 736,352 737,352 738,352 739,352 740,352 741,352 742,352 743,352 743,351 743,350 743,349 743,348 743,347 743,346 743,345 743,344 743,343 743,342 743,341 743,340 743,339 743,338 743,337 743,336 743,335 743,334 743,333 743,332 743,331 744,330 744,329 743,328 744,327 743,326 744,325 744,324 744,323 744,322 744,321 743,320 744,319 743,318 744,317 744,316 743,315 743,314 743,313 744,312 744,311 743,310 744,309 744,308 744,307 744,306 744,305 744,304 744,303 744,302 744,301 744,300 744,299 744,298 744,297 744,296 744,295 744,294 744,293 744,292 744,291 744,290 744,289 744,288 744,287 744,286 744,285 744,284 744,283 744,282 744,281 744,280 744,279 744,278 744,277 744,276 744,275 744,274 744,273 744,272 744,271 744,270 744,269 744,268 744,267 744,266 744,265 744,264 744,263 744,262 744,261 744,260 744,259 744,258 744,257 744,256 744,255 744,254 744,253 744,252 744,251 744,250 744,249 744,248 744,247 744,246 744,245 744,244 744,243 744,242 744,241 744,240 744,239 744,238 744,237 744,236 744,235 744,234 744,233 744,232 744,231 744,230 744,229 744,228 744,227 744,226 744,225 744,224 744,223 744,222 744,221 744,220 744,219 744,218 744,217 744,216 744,215 744,214 744,213 744,212 744,211 744,210 744,209 744,208 744,207 744,206 744,205 744,204 744,203 744,202 744,201 744,200 744,199 744,198 744,197 744,196 744,195 744,194 744,193 744,192 744,191 744,190 744,189 744,188 744,187 744,186 744,185 744,184 744,183 744,182 744,181 744,180 744,179 744,178 744,177 744,176 744,175 744,174 744,173 744,172 744,171 744,170 744,169 744,168 744,167 744,166 744,165 744,164 744,163 744,162 744,161 744,160 744,159 744,158 744,157 744,156 744,155 744,154 744,153 744,152 744,151 744,150 744,149 744,148 744,147 744,146 744,145 744,144 744,143 744,142 744,141 744,140 744,139 744,138 744,137 744,136 744,135 744,134 744,133 744,132 744,131 744,130 744,129 745,128 745,127 745,126 745,125 745,124 745,123 744,122 743,122 742,122 741,122 740,122 739,122 738,122 737,122 736,122 735,122 734,122 733,122 732,122 731,122 730,122 729,122 728,122 727,122 726,122 725,122 724,122 723,122 722,122 721,122 720,122 719,122 718,122 717,122 716,122 715,122 714,122 713,122 712,121 711,121 710,121 709,121 708,121 707,121 706,121 705,121 704,121 703,121 702,121 701,121 700,121 699,121 698,121 697,121 696,121 695,121 694,121 693,121 692,121 691,121 690,121 689,121 688,121 687,121 686,121 685,121 684,121 683,121 682,121 681,121 680,121 679,121 678,121">
      <metadata tailDirection="" confidence="0.90" linkedToCharacter="" id="TetsuSan_032_balloon_11" tailTip=""></metadata>
    </polygon>
    <polygon points="314,122 314,123 314,124 313,125 313,126 313,127 313,128 313,129 313,130 312,131 312,132 312,133 312,134 312,135 312,136 312,137 312,138 312,139 312,140 312,141 311,142 311,143 311,144 311,145 311,146 311,147 311,148 311,149 311,150 311,151 311,152 311,153 311,154 310,155 311,156 311,157 311,158 311,159 311,160 311,161 311,162 311,163 311,164 311,165 311,166 311,167 311,168 311,169 311,170 311,171 311,172 311,173 311,174 311,175 311,176 311,177 311,178 312,179 312,180 312,181 312,182 312,183 312,184 311,185 310,186 309,186 308,186 307,186 306,186 305,187 304,187 303,186 304,187 305,187 306,188 307,188 308,188 309,188 310,189 310,190 310,191 310,192 310,193 310,194 310,195 310,196 310,197 310,198 310,199 310,200 310,201 310,202 310,203 310,204 310,205 310,206 310,207 310,208 310,209 309,210 309,211 309,212 309,213 309,214 309,215 309,216 309,217 309,218 309,219 309,220 309,221 309,222 309,223 309,224 309,225 309,226 309,227 309,228 309,229 309,230 309,231 309,232 309,233 309,234 309,235 309,236 309,237 309,238 309,239 309,240 309,241 309,242 309,243 309,244 309,245 309,246 309,247 310,248 310,249 310,250 310,251 309,252 309,253 309,254 309,255 310,256 310,257 310,258 310,259 310,260 310,261 310,262 310,263 310,264 310,265 310,266 310,267 311,268 311,269 310,270 311,271 311,272 311,273 311,274 311,275 311,276 311,277 311,278 311,279 311,280 311,281 311,282 311,283 311,284 311,285 311,286 311,287 311,288 312,289 312,290 312,291 312,292 312,293 312,294 312,295 312,296 312,297 312,298 312,299 313,300 313,301 313,302 313,303 313,304 313,305 314,306 314,307 314,308 314,309 314,310 314,311 314,312 315,313 315,314 315,315 315,316 316,317 316,318 315,319 316,320 316,321 316,322 316,323 317,324 317,325 317,326 317,327 317,328 317,329 318,330 318,331 318,332 318,333 318,334 319,335 319,336 319,337 319,338 320,339 320,340 320,341 320,342 320,343 321,344 321,345 321,346 322,347 322,348 322,349 323,350 323,351 323,352 324,353 325,353 326,353 327,353 328,353 329,353 330,353 331,353 332,353 333,353 334,353 335,353 336,353 337,353 338,353 339,353 340,353 341,353 342,353 343,353 344,353 345,353 346,353 347,353 348,353 349,353 350,353 351,353 352,353 353,353 354,353 355,353 356,353 357,353 358,353 359,353 360,353 361,353 362,353 363,353 364,353 365,353 366,353 367,353 368,353 369,353 370,353 371,353 372,353 373,353 374,353 375,353 376,353 377,353 378,353 379,353 380,353 381,353 382,353 383,353 384,353 385,352 385,351 385,350 385,349 385,348 385,347 385,346 385,345 385,344 385,343 385,342 385,341 385,340 385,339 385,338 385,337 385,336 385,335 385,334 385,333 385,332 385,331 385,330 385,329 385,328 385,327 385,326 385,325 385,324 385,323 385,322 385,321 385,320 385,319 385,318 385,317 385,316 385,315 385,314 385,313 385,312 385,311 385,310 385,309 385,308 385,307 385,306 385,305 385,304 385,303 385,302 385,301 385,300 385,299 385,298 385,297 385,296 385,295 385,294 385,293 385,292 385,291 385,290 385,289 385,288 385,287 385,286 385,285 385,284 385,283 385,282 385,281 385,280 385,279 385,278 385,277 385,276 385,275 385,274 385,273 385,272 385,271 385,270 385,269 385,268 385,267 385,266 385,265 385,264 385,263 385,262 385,261 385,260 385,259 385,258 385,257 385,256 385,255 385,254 385,253 385,252 385,251 385,250 385,249 385,248 385,247 385,246 385,245 385,244 385,243 385,242 385,241 385,240 385,239 385,238 385,237 385,236 385,235 385,234 385,233 385,232 385,231 385,230 385,229 385,228 385,227 385,226 385,225 385,224 385,223 385,222 385,221 385,220 385,219 385,218 385,217 385,216 385,215 385,214 385,213 385,212 385,211 385,210 385,209 385,208 385,207 385,206 385,205 385,204 385,203 385,202 385,201 385,200 385,199 385,198 385,197 385,196 385,195 385,194 385,193 385,192 385,191 385,190 385,189 385,188 385,187 385,186 385,185 385,184 385,183 385,182 385,181 385,180 385,179 385,178 385,177 385,176 385,175 385,174 385,173 385,172 385,171 385,170 385,169 385,168 385,167 385,166 385,165 385,164 385,163 385,162 385,161 385,160 385,159 385,158 385,157 385,156 385,155 385,154 385,153 385,152 385,151 385,150 385,149 385,148 385,147 385,146 385,145 385,144 385,143 385,142 385,141 385,140 386,139 386,138 386,137 386,136 386,135 386,134 386,133 386,132 386,131 386,130 386,129 386,128 386,127 386,126 386,125 386,124 386,123 385,123 384,122 383,122 382,122 381,122 380,122 379,122 378,122 377,122 376,122 375,122 374,122 373,122 372,122 371,122 370,122 369,122 368,122 367,122 366,122 365,122 364,122 363,122 362,122 361,122 360,122 359,122 358,122 357,122 356,122 355,122 354,122 353,122 352,122 351,122 350,122 349,122 348,122 347,122 346,122 345,122 344,122 343,122 342,122 341,122 340,122 339,122 338,122 337,122 336,122 335,122 334,122 333,122 332,122 331,122 330,122 329,122 328,122 327,122 326,122 325,122 324,122 323,122 322,122 321,122 320,122 319,122 318,122 317,122 316,122 315,122 314,122">
      <metadata tailDirection="" confidence="0.92" linkedToCharacter="" id="TetsuSan_032_balloon_12" tailTip=""></metadata>
    </polygon>
    <polygon points="78,122 77,123 76,123 75,123 74,123 73,123 72,123 71,123 70,123 69,123 68,123 67,123 66,123 65,123 65,124 65,125 65,126 65,127 65,128 65,129 65,130 65,131 65,132 65,133 65,134 65,135 65,136 65,137 65,138 65,139 65,140 65,141 65,142 65,143 65,144 65,145 65,146 65,147 65,148 65,149 65,150 65,151 65,152 65,153 65,154 65,155 65,156 65,157 65,158 65,159 65,160 65,161 65,162 65,163 65,164 65,165 65,166 65,167 65,168 65,169 65,170 65,171 65,172 65,173 65,174 65,175 65,176 65,177 65,178 65,179 65,180 65,181 65,182 65,183 65,184 65,185 65,186 65,187 65,188 65,189 65,190 65,191 65,192 65,193 65,194 65,195 65,196 65,197 65,198 65,199 65,200 65,201 65,202 65,203 65,204 65,205 65,206 65,207 65,208 65,209 65,210 65,211 65,212 65,213 65,214 65,215 65,216 65,217 65,218 65,219 65,220 65,221 65,222 65,223 65,224 65,225 65,226 65,227 65,228 65,229 65,230 65,231 65,232 65,233 65,234 65,235 65,236 65,237 65,238 65,239 65,240 65,241 65,242 65,243 65,244 65,245 65,246 65,247 65,248 65,249 66,250 67,251 68,252 69,252 70,253 71,253 72,254 73,254 74,255 75,255 76,255 77,255 78,256 79,256 80,256 81,256 82,256 83,256 84,257 85,257 86,257 87,257 88,256 89,256 90,256 91,256 92,256 93,256 94,256 95,256 96,256 97,255 98,255 99,255 100,254 101,254 102,253 103,253 104,252 105,252 106,253 107,254 108,255 108,256 109,256 108,255 108,254 107,253 108,252 109,251 110,250 111,249 111,248 112,247 112,246 113,245 113,244 113,243 114,242 114,241 114,240 115,239 115,238 115,237 116,236 116,235 116,234 117,233 117,232 117,231 118,230 118,229 118,228 118,227 118,226 119,225 119,224 119,223 119,222 119,221 120,220 120,219 120,218 120,217 121,216 121,215 121,214 121,213 122,212 122,211 122,210 122,209 122,208 122,207 122,206 122,205 122,204 122,203 122,202 122,201 123,200 123,199 123,198 123,197 122,196 122,195 122,194 123,193 123,192 123,191 123,190 123,189 123,188 123,187 123,186 123,185 123,184 122,183 122,182 122,181 122,180 122,179 122,178 122,177 122,176 122,175 122,174 122,173 122,172 121,171 121,170 121,169 121,168 121,167 121,166 121,165 121,164 120,163 120,162 120,161 120,160 120,159 120,158 120,157 119,156 119,155 119,154 119,153 119,152 118,151 118,150 118,149 118,148 118,147 117,146 117,145 117,144 117,143 116,142 116,141 115,140 115,139 115,138 114,137 114,136 114,135 114,134 113,133 113,132 112,131 112,130 111,129 111,128 110,127 110,126 109,125 109,124 108,123 108,122 107,122 106,122 105,122 104,122 103,122 102,122 101,122 100,122 99,122 98,122 97,122 96,122 95,122 94,122 93,122 92,122 91,122 90,122 89,122 88,122 87,122 86,122 85,122 84,122 83,122 82,122 81,122 80,123 79,122 78,122">
      <metadata tailDirection="" confidence="0.91" linkedToCharacter="" id="TetsuSan_032_balloon_13" tailTip=""></metadata>
    </polygon>
  </svg>
</svg>
