<?xml version="1.0" encoding="UTF-8" standalone="no"?>
<svg width="827" xmlns="http://www.w3.org/2000/svg" version="1.0" height="1170">
  <title>TetsuSan_055</title>
  <svg contentScriptType="text/ecmascript" zoomAndPan="magnify" contentStyleType="text/css" class="Page" preserveAspectRatio="xMidYMid meet" version="1.0">
    <image xmlns:xlink="http://www.w3.org/1999/xlink" x="0" y="0" width="827" height="1170" xlink:href="./../../dataset_Manga109/TetsuSan/TetsuSan_055.jpg" xlink:type="simple" xlink:actuate="onLoad" preserveAspectRatio="xMidYMid meet" xlink:show="embed"/>
  </svg>
  <style type="text/css" xml:space="preserve">
        * { stroke-linejoin: round; }
        .Unclassified   { fill: orange; stroke: none;   opacity: 1.0; visibility: hidden; }
        .Noise          { fill: pink;   stroke: none;   opacity: 0.2; visibility: hidden; }
        .Panel          { fill: none;   stroke: red;    stroke-width:3; opacity: 0.5; visibility: visible; image-rendering: optimizeSpeed; }
        .Line           { fill: green;  stroke: none;   opacity: 0.5; visibility: visible; image-rendering: optimizeSpeed; }
        .TextArea       { fill: grey;   stroke: none;   opacity: 0.2; visibility: visible; image-rendering: optimizeSpeed; }
        .Balloon        { fill: cyan;   stroke: none;   opacity: 0.5; visibility: visible; image-rendering: optimizeSpeed; }
        .Letter         { fill: blue;   stroke: none;   opacity: 0.2; visibility: hidden; }
        .Object, .Character, .Face  { fill: yellow; stroke: none;   opacity: 0.5; visibility: visible; image-rendering: optimizeSpeed; }
        .Page           { fill: white;  stroke: none;    opacity: 0.5; visibility: visible; }
        .linkSBSC { fill: blue; stroke: none; opacity: 1.0; visibility: visible; }
        polygon:hover { opacity:1.0; stroke:red; }
</style>
  <svg xmlns="http://www.w3.org/2000/svg" contentScriptType="text/ecmascript" zoomAndPan="magnify" contentStyleType="text/css" class="Balloon" preserveAspectRatio="xMidYMid meet" version="1.0">
    <polygon points="156,594 155,595 154,595 153,595 152,595 151,595 150,595 149,595 148,595 147,595 146,595 145,595 144,595 143,595 142,595 141,595 140,595 139,595 138,595 137,595 136,595 135,595 134,595 133,595 132,595 131,595 130,595 129,595 128,595 127,595 126,595 125,595 124,595 123,595 122,595 121,595 120,595 119,595 118,595 117,595 116,595 115,595 114,595 113,595 112,595 111,595 110,595 109,595 108,595 107,595 106,595 105,595 104,595 103,595 102,595 101,595 100,595 99,595 98,595 97,595 96,595 95,595 94,595 93,595 92,595 92,596 92,597 92,598 92,599 92,600 92,601 92,602 92,603 92,604 92,605 92,606 92,607 92,608 92,609 92,610 92,611 92,612 92,613 92,614 92,615 92,616 92,617 92,618 92,619 92,620 92,621 92,622 92,623 92,624 92,625 92,626 92,627 92,628 92,629 92,630 92,631 92,632 92,633 92,634 92,635 92,636 92,637 92,638 92,639 92,640 92,641 92,642 92,643 92,644 92,645 92,646 92,647 92,648 92,649 92,650 92,651 92,652 92,653 92,654 92,655 92,656 92,657 92,658 92,659 92,660 92,661 92,662 92,663 92,664 92,665 92,666 92,667 92,668 92,669 92,670 92,671 92,672 92,673 92,674 92,675 92,676 92,677 92,678 92,679 92,680 92,681 92,682 92,683 92,684 92,685 92,686 92,687 92,688 92,689 92,690 92,691 92,692 92,693 92,694 92,695 92,696 92,697 92,698 92,699 92,700 92,701 92,702 92,703 92,704 92,705 92,706 92,707 92,708 92,709 92,710 92,711 92,712 92,713 92,714 92,715 92,716 92,717 92,718 92,719 92,720 92,721 92,722 92,723 92,724 92,725 92,726 92,727 92,728 92,729 93,730 93,731 92,732 92,733 92,734 92,735 92,736 92,737 92,738 92,739 92,740 92,741 92,742 92,743 93,744 93,745 93,746 93,747 93,748 92,749 92,750 92,751 93,752 93,753 93,754 92,755 92,756 92,757 93,758 92,759 92,760 93,761 92,762 92,763 93,764 92,765 93,766 92,767 92,768 93,769 93,770 92,771 92,772 93,773 93,774 92,775 93,776 93,777 92,778 92,779 93,780 93,781 93,782 93,783 93,784 93,785 93,786 93,787 93,788 93,789 93,790 93,791 93,792 93,793 93,794 93,795 93,796 93,797 93,798 93,799 93,800 93,801 93,802 93,803 93,804 93,805 93,806 93,807 93,808 93,809 93,810 93,811 93,812 93,813 93,814 93,815 93,816 93,817 93,818 93,819 93,820 93,821 93,822 93,823 93,824 93,825 93,826 93,827 93,828 93,829 93,830 92,831 93,832 93,833 93,834 93,835 93,836 93,837 93,838 93,839 93,840 93,841 93,842 93,843 93,844 93,845 93,846 93,847 93,848 93,849 93,850 93,851 93,852 93,853 93,854 93,855 93,856 93,857 93,858 93,859 93,860 93,861 93,862 93,863 93,864 93,865 93,866 93,867 93,868 93,869 93,870 93,871 93,872 93,873 93,874 93,875 93,876 93,877 93,878 93,879 93,880 93,881 93,882 93,883 93,884 93,885 93,886 93,887 93,888 93,889 93,890 93,891 93,892 93,893 93,894 93,895 93,896 93,897 93,898 93,899 93,900 93,901 93,902 93,903 93,904 93,905 93,906 93,907 93,908 93,909 93,910 93,911 93,912 93,913 93,914 93,915 93,916 93,917 93,918 93,919 93,920 93,921 93,922 93,923 93,924 93,925 93,926 93,927 93,928 93,929 93,930 93,931 93,932 93,933 93,934 93,935 93,936 93,937 93,938 93,939 93,940 93,941 93,942 93,943 93,944 93,945 93,946 93,947 93,948 93,949 93,950 93,951 93,952 93,953 93,954 93,955 93,956 93,957 93,958 93,959 93,960 93,961 93,962 93,963 93,964 93,965 93,966 93,967 93,968 93,969 93,970 93,971 93,972 93,973 93,974 93,975 93,976 93,977 93,978 93,979 93,980 93,981 93,982 93,983 93,984 93,985 93,986 93,987 93,988 93,989 93,990 93,991 93,992 93,993 93,994 93,995 93,996 93,997 93,998 93,999 93,1000 93,1001 93,1002 93,1003 94,1003 95,1003 96,1003 97,1003 98,1003 99,1003 100,1003 101,1003 102,1003 103,1003 104,1003 105,1003 106,1003 107,1003 108,1003 109,1003 110,1003 111,1003 112,1003 113,1003 114,1003 115,1003 116,1003 117,1003 118,1003 119,1003 120,1003 121,1003 122,1003 123,1003 124,1003 125,1003 126,1003 127,1003 128,1003 129,1003 130,1003 131,1003 132,1003 133,1003 134,1003 135,1003 136,1003 137,1003 138,1003 139,1003 140,1003 141,1003 142,1003 143,1003 144,1003 145,1003 146,1003 147,1003 148,1003 149,1003 150,1003 151,1003 152,1003 153,1003 154,1003 155,1003 156,1003 157,1003 158,1003 159,1003 160,1003 161,1003 162,1003 163,1003 164,1003 165,1003 166,1003 167,1003 168,1003 169,1003 170,1003 171,1003 172,1003 173,1003 174,1003 175,1003 176,1003 177,1003 178,1003 179,1003 180,1003 181,1003 182,1003 183,1003 184,1003 185,1003 186,1003 187,1003 188,1003 189,1003 190,1003 191,1003 192,1003 193,1003 194,1003 195,1003 196,1003 197,1003 198,1003 199,1003 200,1003 201,1003 202,1003 203,1003 204,1003 205,1003 205,1002 205,1001 205,1000 205,999 205,998 205,997 205,996 205,995 205,994 205,993 205,992 205,991 205,990 205,989 205,988 205,987 205,986 205,985 205,984 205,983 205,982 205,981 205,980 205,979 205,978 205,977 205,976 205,975 205,974 205,973 205,972 205,971 205,970 205,969 205,968 205,967 205,966 205,965 205,964 205,963 205,962 205,961 205,960 205,959 205,958 205,957 205,956 205,955 205,954 205,953 205,952 205,951 205,950 205,949 205,948 205,947 205,946 205,945 205,944 205,943 205,942 205,941 205,940 205,939 205,938 205,937 205,936 205,935 205,934 205,933 205,932 205,931 205,930 205,929 205,928 205,927 205,926 205,925 205,924 205,923 205,922 205,921 205,920 205,919 205,918 205,917 205,916 205,915 205,914 205,913 205,912 205,911 205,910 205,909 205,908 205,907 205,906 205,905 205,904 205,903 205,902 205,901 205,900 205,899 204,898 204,897 204,896 204,895 204,894 204,893 204,892 204,891 204,890 204,889 204,888 205,887 204,886 204,885 204,884 204,883 204,882 204,881 204,880 205,879 204,878 204,877 204,876 205,875 205,874 204,873 204,872 204,871 204,870 204,869 204,868 204,867 204,866 204,865 204,864 204,863 204,862 204,861 204,860 204,859 204,858 204,857 204,856 204,855 204,854 204,853 204,852 204,851 204,850 204,849 204,848 204,847 204,846 204,845 204,844 204,843 204,842 204,841 204,840 204,839 204,838 204,837 204,836 204,835 204,834 204,833 204,832 204,831 204,830 204,829 204,828 204,827 204,826 204,825 204,824 204,823 204,822 204,821 204,820 204,819 204,818 204,817 204,816 204,815 204,814 204,813 204,812 204,811 204,810 204,809 204,808 204,807 204,806 204,805 204,804 204,803 204,802 204,801 204,800 204,799 204,798 204,797 204,796 204,795 204,794 204,793 204,792 204,791 204,790 204,789 204,788 204,787 204,786 204,785 204,784 204,783 204,782 204,781 204,780 204,779 204,778 204,777 204,776 204,775 204,774 204,773 204,772 204,771 204,770 204,769 204,768 204,767 204,766 204,765 204,764 204,763 204,762 204,761 204,760 204,759 204,758 204,757 204,756 204,755 204,754 204,753 204,752 204,751 204,750 204,749 204,748 204,747 204,746 204,745 204,744 203,743 204,742 204,741 204,740 204,739 204,738 204,737 204,736 204,735 204,734 204,733 204,732 204,731 204,730 204,729 204,728 204,727 204,726 204,725 204,724 204,723 204,722 203,721 203,720 203,719 203,718 203,717 203,716 204,715 203,714 203,713 203,712 203,711 203,710 203,709 203,708 203,707 203,706 203,705 203,704 203,703 203,702 203,701 203,700 203,699 203,698 203,697 203,696 203,695 203,694 203,693 203,692 203,691 203,690 203,689 203,688 203,687 203,686 203,685 203,684 203,683 203,682 203,681 203,680 203,679 203,678 203,677 203,676 203,675 203,674 203,673 203,672 203,671 203,670 203,669 203,668 203,667 203,666 203,665 203,664 203,663 203,662 203,661 203,660 203,659 203,658 203,657 203,656 203,655 203,654 203,653 203,652 203,651 203,650 203,649 203,648 203,647 203,646 203,645 203,644 203,643 203,642 203,641 203,640 203,639 203,638 203,637 203,636 203,635 203,634 203,633 203,632 203,631 203,630 203,629 203,628 203,627 203,626 203,625 203,624 203,623 203,622 203,621 203,620 203,619 203,618 203,617 203,616 203,615 203,614 203,613 203,612 203,611 203,610 203,609 203,608 203,607 203,606 203,605 203,604 203,603 203,602 203,601 203,600 203,599 203,598 203,597 203,596 203,595 203,594 202,594 201,594 200,594 199,594 198,594 197,594 196,594 195,594 194,594 193,594 192,594 191,594 190,594 189,594 188,594 187,594 186,594 185,594 184,594 183,594 182,594 181,594 180,594 179,594 178,594 177,594 176,594 175,594 174,594 173,594 172,594 171,594 170,594 169,594 168,594 167,594 166,595 165,595 164,595 163,595 162,594 161,595 160,595 159,594 158,595 157,594 156,594">
      <metadata tailDirection="" confidence="1.00" linkedToCharacter="" id="TetsuSan_055_balloon_0" tailTip=""></metadata>
    </polygon>
    <polygon points="653,593 654,594 655,595 655,596 656,597 657,598 657,599 658,600 658,601 659,602 659,603 660,604 660,605 660,606 661,607 661,608 661,609 661,610 662,611 662,612 662,613 662,614 662,615 662,616 662,617 662,618 662,619 662,620 662,621 662,622 662,623 662,624 662,625 662,626 662,627 661,628 661,629 661,630 661,631 661,632 660,633 660,634 659,635 659,636 659,637 658,638 658,639 657,640 656,641 655,642 654,643 653,644 652,645 651,646 650,646 650,647 651,648 652,649 653,650 653,651 654,652 654,653 655,654 655,655 655,656 656,657 656,658 656,659 656,660 656,661 656,662 656,663 656,664 656,665 656,666 656,667 656,668 655,669 655,670 654,671 654,672 654,673 653,674 652,675 652,676 651,677 650,678 649,679 648,680 649,680 650,681 651,682 652,683 653,683 654,684 654,685 655,686 655,687 656,688 656,689 656,690 656,691 656,692 657,693 657,694 657,695 657,696 657,697 657,698 657,699 657,700 657,701 657,702 657,703 656,704 656,705 656,706 656,707 655,708 655,709 655,710 655,711 654,712 654,713 654,714 653,715 653,716 653,717 652,718 651,719 651,720 650,721 649,722 648,723 647,724 646,725 645,726 644,727 644,728 645,729 646,730 647,731 648,732 649,733 649,734 649,735 649,736 650,737 650,738 650,739 650,740 651,741 651,742 651,743 651,744 652,745 652,746 652,747 652,748 652,749 652,750 652,751 652,752 652,753 652,754 652,755 651,756 651,757 651,758 651,759 651,760 651,761 650,762 650,763 650,764 649,765 649,766 648,767 648,768 647,769 647,770 646,771 645,772 645,773 644,774 643,775 643,776 642,777 641,778 642,778 643,778 644,778 645,779 646,779 647,779 648,780 649,780 650,781 651,782 652,783 653,784 653,785 654,786 654,787 654,788 654,789 654,790 654,791 654,792 654,793 654,794 654,795 654,796 653,797 653,798 653,799 652,800 652,801 652,802 651,803 651,804 650,805 650,806 649,807 648,808 648,809 647,810 646,811 646,812 645,813 644,814 643,815 642,816 641,817 641,818 640,819 641,819 642,820 643,820 644,821 645,821 646,821 647,822 648,823 649,824 650,825 651,825 652,826 652,827 653,828 654,829 654,830 655,831 655,832 655,833 656,834 656,835 656,836 657,837 657,838 657,839 657,840 657,841 657,842 657,843 657,844 657,845 657,846 657,847 657,848 657,849 657,850 657,851 657,852 656,853 656,854 656,855 656,856 656,857 655,858 655,859 655,860 654,861 654,862 654,863 653,864 653,865 654,864 655,864 656,864 657,864 658,864 659,865 660,865 661,865 662,865 663,866 664,866 665,867 666,867 667,867 668,868 668,869 669,869 670,870 671,871 671,872 672,873 673,874 673,875 673,876 674,877 674,878 674,879 675,880 675,881 675,882 675,883 675,884 675,885 675,886 675,887 675,888 675,889 675,890 675,891 674,892 674,893 674,894 674,895 674,896 674,897 673,898 674,897 675,896 676,896 677,895 678,895 679,894 680,894 681,893 682,893 683,893 684,893 685,892 686,892 687,892 688,892 689,892 690,892 691,892 692,892 693,892 694,892 695,892 696,892 697,893 698,893 699,893 700,894 701,895 702,895 703,896 704,896 705,897 706,898 707,899 708,900 708,901 709,902 709,903 710,904 710,905 710,904 711,903 712,902 713,901 714,900 715,899 716,898 717,897 718,896 719,896 720,895 721,895 722,894 723,894 724,894 725,893 726,893 727,893 728,893 729,892 730,892 731,893 732,893 733,893 734,893 735,893 736,894 737,894 738,895 739,895 740,896 741,897 742,898 743,899 744,900 744,901 745,902 745,903 746,904 745,905 746,904 747,903 748,902 749,901 750,900 751,900 752,899 753,898 754,898 755,897 756,896 757,896 758,895 759,894 760,894 761,893 762,893 763,893 764,892 765,892 766,891 767,891 768,891 769,890 770,890 771,890 771,889 771,888 771,887 771,886 771,885 771,884 771,883 771,882 771,881 771,880 771,879 771,878 771,877 771,876 771,875 771,874 771,873 771,872 771,871 771,870 771,869 771,868 771,867 771,866 771,865 771,864 771,863 771,862 770,861 770,860 770,859 771,858 771,857 770,856 771,855 771,854 771,853 771,852 771,851 771,850 771,849 771,848 771,847 771,846 771,845 771,844 771,843 771,842 771,841 771,840 771,839 771,838 771,837 771,836 771,835 771,834 771,833 771,832 771,831 771,830 771,829 771,828 771,827 771,826 771,825 771,824 770,823 770,822 770,821 771,820 771,819 771,818 770,817 771,816 770,815 770,814 770,813 770,812 770,811 770,810 770,809 770,808 771,807 771,806 771,805 771,804 771,803 771,802 770,801 770,800 770,799 771,798 771,797 771,796 771,795 770,794 771,793 771,792 771,791 771,790 771,789 771,788 771,787 771,786 771,785 771,784 770,783 770,782 770,781 770,780 771,779 771,778 771,777 771,776 771,775 770,774 771,773 771,772 771,771 770,770 771,769 771,768 771,767 771,766 771,765 771,764 771,763 771,762 771,761 771,760 771,759 771,758 771,757 771,756 771,755 771,754 771,753 771,752 771,751 771,750 771,749 771,748 771,747 771,746 771,745 771,744 770,743 771,742 771,741 771,740 771,739 771,738 771,737 771,736 771,735 771,734 771,733 771,732 771,731 771,730 771,729 771,728 770,727 771,726 771,725 771,724 771,723 771,722 771,721 771,720 770,719 770,718 770,717 771,716 771,715 771,714 770,713 770,712 771,711 771,710 771,709 771,708 771,707 771,706 771,705 771,704 771,703 771,702 771,701 771,700 771,699 771,698 771,697 771,696 771,695 771,694 771,693 771,692 771,691 771,690 771,689 771,688 771,687 771,686 771,685 771,684 771,683 771,682 771,681 771,680 771,679 771,678 771,677 771,676 771,675 771,674 771,673 771,672 771,671 771,670 771,669 771,668 771,667 771,666 771,665 771,664 771,663 771,662 771,661 771,660 771,659 771,658 771,657 771,656 771,655 771,654 770,653 770,652 770,651 771,650 771,649 771,648 771,647 771,646 771,645 771,644 771,643 771,642 770,641 770,640 770,639 770,638 771,637 771,636 771,635 771,634 771,633 771,632 770,631 771,630 771,629 770,628 771,627 771,626 771,625 770,624 771,623 770,622 770,621 770,620 770,619 770,618 770,617 770,616 770,615 770,614 770,613 770,612 770,611 770,610 770,609 770,608 770,607 770,606 770,605 770,604 770,603 770,602 770,601 770,600 770,599 770,598 770,597 770,596 770,595 770,594 769,594 768,594 767,593 766,593 765,593 764,593 763,593 762,593 761,593 760,593 759,593 758,593 757,593 756,593 755,593 754,593 753,593 752,593 751,593 750,593 749,593 748,593 747,593 746,593 745,593 744,593 743,593 742,593 741,593 740,593 739,593 738,593 737,593 736,593 735,593 734,593 733,593 732,593 731,593 730,593 729,593 728,593 727,593 726,593 725,593 724,593 723,593 722,593 721,593 720,593 719,593 718,593 717,593 716,593 715,593 714,593 713,593 712,593 711,593 710,593 709,593 708,593 707,593 706,593 705,593 704,593 703,593 702,593 701,593 700,593 699,593 698,593 697,593 696,593 695,593 694,593 693,593 692,593 691,593 690,593 689,593 688,593 687,593 686,593 685,593 684,593 683,593 682,593 681,593 680,593 679,593 678,593 677,593 676,593 675,593 674,593 673,593 672,593 671,593 670,593 669,593 668,593 667,593 666,593 665,593 664,593 663,593 662,593 661,593 660,593 659,593 658,593 657,593 656,593 655,593 654,593 653,593">
      <metadata tailDirection="" confidence="0.86" linkedToCharacter="" id="TetsuSan_055_balloon_1" tailTip=""></metadata>
    </polygon>
    <polygon points="113,334 112,335 111,335 110,335 109,335 108,335 107,335 106,335 105,335 104,335 103,335 102,335 101,335 100,335 99,335 98,335 97,335 96,335 95,335 94,335 93,335 93,336 93,337 93,338 93,339 93,340 93,341 93,342 93,343 93,344 93,345 93,346 93,347 93,348 93,349 93,350 93,351 93,352 93,353 93,354 93,355 93,356 93,357 93,358 93,359 93,360 93,361 93,362 93,363 93,364 93,365 93,366 93,367 93,368 93,369 93,370 93,371 93,372 93,373 93,374 93,375 93,376 93,377 93,378 93,379 93,380 93,381 93,382 93,383 93,384 93,385 93,386 93,387 93,388 93,389 92,390 93,391 93,392 93,393 93,394 93,395 93,396 92,397 93,398 93,399 93,400 93,401 93,402 93,403 93,404 93,405 93,406 93,407 92,408 93,409 93,410 93,411 93,412 93,413 93,414 93,415 93,416 93,417 93,418 93,419 93,420 93,421 93,422 93,423 93,424 93,425 93,426 93,427 93,428 93,429 93,430 93,431 93,432 93,433 93,434 93,435 93,436 93,437 93,438 93,439 93,440 93,441 93,442 93,443 93,444 93,445 93,446 93,447 93,448 93,449 93,450 93,451 93,452 93,453 93,454 93,455 92,456 93,457 93,458 93,459 93,460 93,461 93,462 93,463 93,464 93,465 93,466 93,467 93,468 93,469 93,470 92,471 93,472 93,473 92,474 92,475 93,476 93,477 92,478 92,479 92,480 92,481 92,482 92,483 92,484 92,485 92,486 92,487 92,488 92,489 93,489 94,489 95,489 96,489 97,489 98,489 99,489 100,489 101,489 102,489 103,489 104,489 105,489 106,489 107,489 108,490 109,490 110,489 111,489 112,489 113,489 114,490 115,489 116,490 117,490 118,490 119,490 120,490 121,490 122,490 123,490 124,490 125,490 126,490 127,489 128,490 129,490 130,490 131,490 132,490 133,490 134,490 135,490 136,490 137,490 138,490 139,490 140,490 141,490 142,490 143,490 144,490 145,490 146,490 147,490 148,489 147,488 147,487 148,486 148,485 148,484 147,483 147,482 148,481 148,480 147,479 147,478 147,477 148,476 147,475 147,474 147,473 147,472 147,471 147,470 147,469 147,468 147,467 147,466 147,465 148,464 148,463 148,462 148,461 147,460 148,459 147,458 147,457 148,456 147,455 147,454 147,453 147,452 147,451 147,450 147,449 147,448 147,447 147,446 147,445 147,444 147,443 147,442 147,441 147,440 147,439 147,438 147,437 147,436 147,435 147,434 147,433 147,432 147,431 147,430 147,429 147,428 147,427 147,426 147,425 147,424 147,423 147,422 147,421 147,420 147,419 147,418 147,417 147,416 147,415 147,414 147,413 147,412 147,411 147,410 147,409 147,408 147,407 147,406 147,405 147,404 147,403 147,402 147,401 147,400 147,399 147,398 147,397 147,396 147,395 147,394 147,393 147,392 147,391 147,390 147,389 147,388 147,387 147,386 147,385 147,384 147,383 147,382 147,381 147,380 147,379 147,378 147,377 147,376 147,375 147,374 147,373 147,372 147,371 147,370 147,369 147,368 147,367 147,366 147,365 147,364 147,363 147,362 147,361 147,360 147,359 147,358 147,357 147,356 147,355 147,354 147,353 147,352 147,351 147,350 147,349 147,348 147,347 147,346 147,345 147,344 147,343 147,342 147,341 147,340 147,339 147,338 147,337 147,336 147,335 147,334 146,334 145,334 144,334 143,334 142,334 141,334 140,334 139,334 138,334 137,334 136,334 135,334 134,334 133,334 132,335 131,334 130,334 129,334 128,334 127,335 126,335 125,335 124,335 123,334 122,335 121,335 120,335 119,335 118,335 117,335 116,335 115,334 114,334 113,334">
      <metadata tailDirection="" confidence="0.99" linkedToCharacter="" id="TetsuSan_055_balloon_2" tailTip=""></metadata>
    </polygon>
    <polygon points="363,333 364,334 364,335 365,336 365,337 365,338 366,339 366,340 366,341 366,342 366,343 366,344 366,345 366,346 366,347 366,348 366,349 366,350 366,351 365,352 365,353 365,354 364,355 364,356 364,357 363,358 363,359 362,360 362,361 361,362 360,363 359,364 359,365 358,366 358,367 359,368 360,368 361,369 361,370 362,371 362,372 362,373 362,374 362,375 363,376 363,377 362,378 362,379 362,380 362,381 362,382 362,383 361,384 361,385 360,386 360,387 359,388 359,389 358,390 357,391 357,392 358,393 359,394 360,395 360,396 360,397 360,398 360,399 360,400 360,401 360,402 360,403 360,404 359,405 359,406 359,407 358,408 358,409 357,410 357,411 356,412 356,413 355,414 356,414 357,415 358,415 359,416 360,417 360,418 361,419 361,420 361,421 361,422 361,423 361,424 361,425 361,426 361,427 360,428 360,429 360,430 360,431 359,432 359,433 358,434 358,435 357,436 358,436 359,436 360,435 361,435 362,435 363,435 364,435 365,436 366,436 367,436 368,437 369,438 370,439 371,440 371,441 371,442 372,443 372,444 373,445 373,446 373,447 374,447 375,446 376,445 377,445 378,444 379,444 380,444 381,444 382,444 383,444 384,445 385,446 386,447 387,448 388,449 388,450 389,451 389,452 389,453 390,452 391,451 392,451 393,450 394,449 395,448 396,448 397,447 398,446 399,446 400,445 401,445 402,445 403,444 404,444 405,444 406,444 407,443 408,443 409,443 410,443 411,443 411,442 411,441 411,440 411,439 411,438 411,437 411,436 411,435 411,434 411,433 411,432 411,431 411,430 411,429 411,428 411,427 411,426 411,425 411,424 411,423 411,422 411,421 411,420 411,419 411,418 411,417 411,416 411,415 411,414 411,413 411,412 411,411 411,410 411,409 411,408 411,407 411,406 411,405 411,404 411,403 411,402 411,401 411,400 411,399 411,398 411,397 411,396 411,395 411,394 411,393 411,392 411,391 411,390 411,389 411,388 411,387 411,386 411,385 411,384 411,383 411,382 411,381 411,380 411,379 411,378 411,377 411,376 411,375 411,374 411,373 411,372 411,371 411,370 411,369 411,368 411,367 411,366 411,365 411,364 411,363 411,362 411,361 411,360 411,359 411,358 411,357 411,356 411,355 411,354 411,353 411,352 411,351 411,350 411,349 411,348 411,347 411,346 411,345 411,344 411,343 411,342 411,341 411,340 411,339 411,338 411,337 411,336 411,335 411,334 411,333 410,333 409,333 408,333 407,333 406,333 405,333 404,333 403,333 402,333 401,333 400,333 399,333 398,333 397,333 396,333 395,333 394,333 393,333 392,333 391,333 390,333 389,333 388,333 387,333 386,333 385,333 384,333 383,333 382,333 381,333 380,333 379,333 378,333 377,333 376,333 375,333 374,333 373,333 372,333 371,333 370,333 369,333 368,333 367,333 366,333 365,333 364,333 363,333">
      <metadata tailDirection="" confidence="0.98" linkedToCharacter="" id="TetsuSan_055_balloon_3" tailTip=""></metadata>
    </polygon>
    <polygon points="350,74 350,75 350,76 349,77 349,78 349,79 349,80 349,81 348,82 348,83 348,84 348,85 348,86 347,87 347,88 347,89 347,90 347,91 347,92 346,93 346,94 346,95 346,96 346,97 346,98 346,99 346,100 346,101 345,102 345,103 345,104 345,105 345,106 345,107 345,108 345,109 345,110 344,111 344,112 344,113 344,114 344,115 344,116 344,117 344,118 344,119 344,120 344,121 344,122 344,123 344,124 344,125 343,126 344,127 344,128 344,129 344,130 344,131 344,132 344,133 344,134 344,135 344,136 344,137 344,138 344,139 344,140 344,141 344,142 344,143 344,144 345,145 345,146 345,147 344,148 343,149 342,149 341,150 340,150 339,150 338,150 339,150 340,150 341,151 342,151 343,151 344,152 344,153 344,154 344,155 344,156 343,157 343,158 343,159 343,160 343,161 343,162 343,163 343,164 343,165 343,166 343,167 343,168 343,169 343,170 343,171 343,172 343,173 343,174 343,175 343,176 343,177 343,178 343,179 343,180 343,181 343,182 343,183 343,184 343,185 343,186 343,187 343,188 343,189 343,190 343,191 343,192 343,193 343,194 343,195 343,196 343,197 343,198 343,199 343,200 343,201 343,202 342,203 343,204 343,205 342,206 342,207 342,208 342,209 342,210 342,211 342,212 342,213 342,214 342,215 342,216 342,217 342,218 342,219 342,220 342,221 342,222 342,223 342,224 342,225 342,226 342,227 342,228 342,229 342,230 342,231 342,232 342,233 342,234 342,235 342,236 342,237 342,238 342,239 342,240 342,241 342,242 342,243 342,244 342,245 342,246 342,247 342,248 342,249 342,250 342,251 342,252 342,253 343,254 343,255 343,256 343,257 343,258 343,259 343,260 343,261 343,262 343,263 343,264 344,265 344,266 344,267 344,268 344,269 344,270 344,271 344,272 345,273 345,274 345,275 345,276 346,277 346,278 346,279 346,280 346,281 347,282 347,283 347,284 347,285 348,286 348,287 348,288 348,289 349,290 349,291 349,292 349,293 350,294 350,295 350,296 350,297 351,298 351,299 352,300 352,301 353,302 353,303 354,304 354,305 355,306 355,307 356,308 356,309 357,310 358,311 358,312 359,313 359,314 360,315 361,315 362,315 363,315 364,315 365,315 366,316 367,316 368,315 369,315 370,315 371,315 372,315 373,315 374,315 375,315 376,315 377,315 378,315 379,315 380,315 381,315 382,315 383,315 384,315 385,315 386,315 387,315 388,315 389,315 390,315 391,315 392,315 393,315 394,315 395,315 396,315 397,315 398,315 399,315 400,315 401,315 402,315 403,315 404,315 405,315 406,315 407,315 408,315 409,315 410,315 411,315 411,314 411,313 411,312 411,311 411,310 411,309 411,308 411,307 411,306 411,305 411,304 411,303 411,302 411,301 411,300 411,299 411,298 411,297 411,296 411,295 411,294 411,293 411,292 411,291 411,290 411,289 411,288 411,287 411,286 411,285 411,284 411,283 411,282 411,281 411,280 411,279 411,278 411,277 411,276 411,275 411,274 411,273 411,272 411,271 411,270 411,269 411,268 411,267 411,266 411,265 411,264 411,263 411,262 411,261 411,260 411,259 411,258 411,257 411,256 411,255 411,254 411,253 411,252 411,251 411,250 411,249 411,248 411,247 411,246 411,245 411,244 411,243 411,242 411,241 411,240 411,239 411,238 411,237 411,236 411,235 411,234 411,233 412,232 411,231 411,230 411,229 411,228 411,227 412,226 412,225 411,224 412,223 412,222 412,221 412,220 412,219 412,218 412,217 412,216 411,215 412,214 412,213 412,212 412,211 412,210 412,209 412,208 412,207 412,206 412,205 412,204 412,203 412,202 412,201 412,200 412,199 412,198 412,197 412,196 412,195 412,194 412,193 412,192 412,191 412,190 412,189 412,188 412,187 412,186 412,185 412,184 412,183 412,182 412,181 412,180 412,179 412,178 412,177 412,176 412,175 412,174 412,173 412,172 412,171 412,170 412,169 412,168 412,167 412,166 412,165 412,164 412,163 412,162 412,161 412,160 412,159 412,158 412,157 412,156 412,155 412,154 412,153 412,152 412,151 412,150 412,149 412,148 412,147 412,146 412,145 412,144 412,143 412,142 412,141 412,140 412,139 412,138 412,137 412,136 412,135 412,134 412,133 412,132 412,131 412,130 412,129 412,128 412,127 412,126 412,125 412,124 412,123 412,122 412,121 412,120 412,119 412,118 412,117 412,116 412,115 412,114 412,113 412,112 412,111 412,110 412,109 412,108 412,107 412,106 412,105 412,104 412,103 412,102 412,101 412,100 412,99 412,98 412,97 412,96 412,95 412,94 412,93 412,92 412,91 412,90 412,89 412,88 412,87 412,86 412,85 412,84 412,83 412,82 412,81 412,80 412,79 412,78 412,77 412,76 412,75 412,74 411,74 410,74 409,74 408,74 407,74 406,74 405,74 404,74 403,74 402,74 401,74 400,74 399,74 398,74 397,74 396,74 395,74 394,74 393,74 392,74 391,74 390,74 389,74 388,74 387,74 386,74 385,74 384,74 383,74 382,74 381,74 380,74 379,74 378,74 377,74 376,74 375,74 374,74 373,74 372,74 371,74 370,74 369,74 368,74 367,74 366,74 365,74 364,74 363,74 362,74 361,74 360,74 359,74 358,74 357,74 356,74 355,74 354,74 353,74 352,74 351,74 350,74">
      <metadata tailDirection="" confidence="0.94" linkedToCharacter="" id="TetsuSan_055_balloon_4" tailTip=""></metadata>
    </polygon>
    <polygon points="94,74 93,75 93,76 93,77 93,78 93,79 93,80 93,81 93,82 93,83 93,84 93,85 93,86 93,87 93,88 93,89 93,90 93,91 93,92 93,93 93,94 93,95 93,96 93,97 93,98 93,99 93,100 93,101 93,102 93,103 93,104 93,105 93,106 93,107 93,108 93,109 93,110 93,111 93,112 93,113 93,114 93,115 93,116 93,117 93,118 93,119 93,120 93,121 93,122 93,123 93,124 93,125 93,126 93,127 93,128 93,129 93,130 93,131 93,132 93,133 93,134 93,135 93,136 93,137 93,138 93,139 93,140 93,141 93,142 93,143 93,144 93,145 93,146 93,147 93,148 93,149 93,150 93,151 93,152 93,153 93,154 93,155 93,156 93,157 93,158 93,159 93,160 93,161 93,162 93,163 93,164 93,165 93,166 93,167 93,168 93,169 93,170 93,171 93,172 93,173 93,174 93,175 93,176 93,177 93,178 93,179 93,180 93,181 93,182 93,183 93,184 93,185 93,186 93,187 93,188 93,189 93,190 93,191 93,192 93,193 93,194 92,195 92,196 92,197 93,198 93,199 92,200 92,201 92,202 92,203 92,204 92,205 92,206 92,207 92,208 92,209 92,210 92,211 92,212 92,213 92,214 92,215 92,216 92,217 92,218 92,219 92,220 92,221 92,222 92,223 92,224 92,225 92,226 92,227 92,228 92,229 92,230 92,231 92,232 92,233 92,234 92,235 92,236 92,237 92,238 93,239 94,240 95,241 96,242 97,242 98,243 99,244 100,244 101,244 102,245 103,245 104,245 105,245 106,245 107,245 108,246 109,246 110,246 111,246 112,246 113,246 114,247 115,247 116,247 117,247 118,247 119,247 120,247 121,247 122,247 123,247 124,247 125,247 126,247 127,246 128,246 129,246 130,245 131,245 132,245 133,244 134,243 135,243 136,242 137,242 138,241 139,240 140,239 141,238 142,237 143,236 144,235 145,234 146,233 146,232 147,231 148,230 149,229 149,228 150,227 150,226 151,225 152,224 152,223 152,222 153,221 154,220 154,219 155,218 155,217 155,216 156,215 157,214 157,213 158,212 158,211 158,210 159,209 159,208 159,207 160,206 160,205 160,204 160,203 160,202 160,201 160,200 161,199 161,198 161,197 161,196 161,195 161,194 161,193 161,192 161,191 161,190 161,189 161,188 161,187 162,186 162,185 162,184 162,183 162,182 162,181 162,180 162,179 162,178 162,177 162,176 162,175 162,174 162,173 162,172 162,171 162,170 162,169 162,168 162,167 162,166 162,165 162,164 162,163 163,162 163,161 163,160 163,159 162,158 162,157 162,156 162,155 163,154 163,153 163,152 163,151 163,150 162,149 162,148 162,147 162,146 162,145 162,144 162,143 162,142 162,141 162,140 162,139 162,138 162,137 163,136 164,135 165,135 166,135 165,135 164,135 163,134 162,133 162,132 162,131 162,130 162,129 162,128 162,127 162,126 162,125 161,124 161,123 161,122 161,121 161,120 161,119 161,118 161,117 160,116 160,115 160,114 160,113 160,112 159,111 159,110 159,109 159,108 159,107 159,106 158,105 158,104 158,103 157,102 157,101 157,100 157,99 157,98 157,97 156,96 156,95 156,94 156,93 155,92 155,91 155,90 154,89 154,88 154,87 153,86 153,85 153,84 152,83 152,82 151,81 151,80 150,79 150,78 150,77 149,76 149,75 148,74 147,74 146,74 145,74 144,74 143,74 142,74 141,74 140,74 139,74 138,74 137,74 136,74 135,74 134,74 133,74 132,74 131,74 130,74 129,74 128,74 127,74 126,74 125,74 124,74 123,74 122,74 121,74 120,74 119,74 118,74 117,74 116,74 115,74 114,74 113,74 112,74 111,74 110,74 109,74 108,74 107,74 106,74 105,74 104,74 103,74 102,74 101,74 100,74 99,74 98,74 97,74 96,74 95,74 94,74">
      <metadata tailDirection="" confidence="0.93" linkedToCharacter="" id="TetsuSan_055_balloon_5" tailTip=""></metadata>
    </polygon>
    <polygon points="736,73 735,74 734,74 733,74 732,74 731,74 730,74 729,74 728,74 727,74 726,74 725,74 724,74 723,74 722,74 721,74 720,74 719,74 719,75 719,76 719,77 719,78 719,79 719,80 719,81 719,82 719,83 720,84 720,85 720,86 719,87 720,88 720,89 720,90 719,91 719,92 719,93 719,94 719,95 719,96 719,97 719,98 719,99 719,100 719,101 719,102 719,103 719,104 719,105 719,106 719,107 719,108 719,109 719,110 719,111 719,112 719,113 719,114 719,115 719,116 719,117 719,118 719,119 719,120 719,121 719,122 719,123 719,124 719,125 719,126 719,127 719,128 719,129 719,130 719,131 719,132 719,133 719,134 719,135 719,136 719,137 719,138 719,139 719,140 719,141 719,142 719,143 719,144 719,145 719,146 719,147 719,148 719,149 719,150 719,151 719,152 719,153 719,154 719,155 719,156 719,157 719,158 719,159 719,160 719,161 719,162 719,163 719,164 719,165 719,166 719,167 719,168 719,169 719,170 719,171 719,172 719,173 719,174 719,175 719,176 719,177 718,178 718,179 718,180 718,181 718,182 718,183 718,184 718,185 718,186 718,187 718,188 718,189 718,190 718,191 718,192 718,193 718,194 718,195 718,196 718,197 718,198 718,199 718,200 718,201 718,202 718,203 718,204 718,205 718,206 718,207 718,208 718,209 718,210 718,211 718,212 718,213 718,214 718,215 718,216 718,217 718,218 718,219 718,220 718,221 718,222 718,223 718,224 718,225 718,226 718,227 718,228 718,229 718,230 718,231 718,232 718,233 718,234 718,235 718,236 718,237 718,238 718,239 718,240 718,241 718,242 718,243 718,244 718,245 718,246 718,247 718,248 718,249 718,250 718,251 718,252 718,253 718,254 718,255 718,256 718,257 718,258 718,259 718,260 718,261 718,262 718,263 718,264 718,265 718,266 718,267 718,268 718,269 718,270 718,271 718,272 718,273 718,274 718,275 718,276 718,277 718,278 718,279 718,280 718,281 718,282 718,283 718,284 718,285 718,286 718,287 718,288 718,289 718,290 718,291 718,292 718,293 718,294 718,295 718,296 718,297 718,298 718,299 718,300 718,301 718,302 718,303 718,304 718,305 718,306 718,307 718,308 718,309 718,310 718,311 718,312 718,313 718,314 718,315 719,315 720,315 721,315 722,315 723,315 724,315 725,315 726,315 727,315 728,315 729,315 730,315 731,315 732,315 733,315 734,315 735,315 736,315 737,315 738,315 739,315 740,315 741,315 742,315 743,315 744,315 745,315 746,315 747,315 748,315 749,315 750,315 751,315 752,315 753,315 754,315 755,315 756,314 757,314 758,314 759,314 760,314 761,314 762,314 763,315 764,314 765,314 766,314 767,314 768,314 769,314 770,314 770,313 770,312 770,311 770,310 770,309 770,308 770,307 770,306 770,305 770,304 770,303 770,302 770,301 770,300 770,299 770,298 770,297 770,296 770,295 770,294 770,293 770,292 770,291 770,290 770,289 770,288 770,287 770,286 770,285 770,284 770,283 770,282 770,281 770,280 770,279 770,278 770,277 770,276 770,275 770,274 770,273 770,272 770,271 770,270 770,269 770,268 770,267 770,266 770,265 770,264 770,263 770,262 770,261 770,260 770,259 770,258 770,257 770,256 770,255 770,254 770,253 770,252 770,251 770,250 770,249 770,248 770,247 771,246 771,245 771,244 770,243 771,242 771,241 771,240 771,239 771,238 770,237 770,236 771,235 771,234 771,233 771,232 771,231 771,230 771,229 771,228 771,227 770,226 770,225 770,224 770,223 771,222 771,221 771,220 771,219 771,218 771,217 771,216 771,215 771,214 771,213 771,212 770,211 770,210 770,209 771,208 771,207 771,206 770,205 770,204 771,203 770,202 771,201 771,200 771,199 771,198 771,197 771,196 771,195 771,194 771,193 771,192 771,191 771,190 771,189 770,188 770,187 770,186 770,185 770,184 771,183 771,182 770,181 770,180 770,179 770,178 771,177 771,176 771,175 771,174 771,173 770,172 771,171 771,170 771,169 771,168 771,167 770,166 770,165 770,164 770,163 770,162 770,161 770,160 771,159 771,158 771,157 770,156 770,155 770,154 770,153 770,152 771,151 771,150 771,149 771,148 770,147 771,146 771,145 770,144 770,143 771,142 771,141 771,140 771,139 771,138 771,137 771,136 771,135 771,134 770,133 770,132 770,131 770,130 771,129 770,128 771,127 771,126 770,125 770,124 771,123 770,122 770,121 770,120 771,119 771,118 771,117 771,116 771,115 771,114 771,113 770,112 770,111 770,110 771,109 771,108 770,107 770,106 770,105 770,104 770,103 770,102 770,101 770,100 770,99 770,98 770,97 770,96 770,95 770,94 770,93 770,92 770,91 770,90 770,89 770,88 770,87 771,86 771,85 771,84 771,83 771,82 771,81 771,80 771,79 771,78 770,77 770,76 770,75 769,75 768,75 767,74 766,74 765,74 764,74 763,74 762,74 761,74 760,74 759,74 758,74 757,74 756,74 755,74 754,74 753,74 752,74 751,74 750,74 749,74 748,74 747,74 746,74 745,74 744,74 743,74 742,74 741,74 740,74 739,74 738,74 737,74 736,73">
      <metadata tailDirection="" confidence="0.99" linkedToCharacter="" id="TetsuSan_055_balloon_6" tailTip=""></metadata>
    </polygon>
    <polygon points="454,73 453,74 453,75 453,76 453,77 453,78 453,79 453,80 453,81 453,82 453,83 453,84 453,85 453,86 453,87 453,88 453,89 453,90 453,91 453,92 453,93 453,94 453,95 453,96 453,97 453,98 453,99 453,100 453,101 453,102 453,103 453,104 453,105 453,106 453,107 453,108 453,109 453,110 453,111 453,112 453,113 453,114 453,115 453,116 453,117 453,118 453,119 452,120 452,121 453,122 453,123 453,124 453,125 453,126 453,127 453,128 453,129 453,130 453,131 452,132 453,133 452,134 452,135 452,136 453,137 453,138 453,139 452,140 452,141 452,142 452,143 452,144 452,145 453,146 453,147 453,148 453,149 453,150 452,151 452,152 452,153 453,154 453,155 452,156 452,157 452,158 452,159 452,160 452,161 452,162 453,163 453,164 452,165 452,166 452,167 452,168 452,169 452,170 452,171 452,172 452,173 452,174 452,175 452,176 452,177 452,178 452,179 452,180 452,181 452,182 452,183 452,184 452,185 452,186 452,187 452,188 452,189 452,190 452,191 452,192 452,193 452,194 452,195 452,196 452,197 452,198 452,199 452,200 452,201 452,202 452,203 452,204 452,205 452,206 452,207 452,208 452,209 452,210 452,211 452,212 452,213 452,214 452,215 452,216 452,217 452,218 452,219 452,220 452,221 452,222 452,223 452,224 452,225 452,226 452,227 452,228 452,229 452,230 452,231 452,232 452,233 452,234 452,235 452,236 452,237 452,238 452,239 452,240 452,241 452,242 452,243 452,244 452,245 452,246 452,247 452,248 452,249 452,250 452,251 452,252 452,253 452,254 452,255 452,256 452,257 452,258 452,259 452,260 452,261 452,262 452,263 452,264 452,265 452,266 452,267 452,268 452,269 452,270 452,271 452,272 452,273 452,274 452,275 452,276 452,277 452,278 452,279 452,280 452,281 452,282 452,283 452,284 452,285 452,286 452,287 452,288 452,289 452,290 452,291 452,292 452,293 452,294 452,295 452,296 452,297 453,298 453,299 452,300 452,301 452,302 452,303 452,304 453,305 453,306 453,307 452,308 452,309 452,310 453,311 453,312 452,313 452,314 453,315 454,315 455,315 456,315 457,315 458,315 459,315 460,315 461,315 462,315 463,315 464,315 465,315 466,315 467,315 468,315 469,315 470,315 471,315 472,315 473,315 474,315 475,315 476,315 477,315 478,315 479,315 480,315 481,315 482,315 483,315 484,315 485,315 486,315 487,315 488,315 489,315 490,315 491,315 492,315 493,315 494,315 495,315 496,315 497,315 498,315 499,315 500,315 501,315 502,315 503,315 504,315 505,315 506,315 507,315 508,315 509,315 510,315 511,315 512,315 513,315 514,315 515,315 516,315 517,315 518,315 519,315 520,315 521,315 522,315 523,315 524,315 525,315 525,314 525,313 525,312 525,311 525,310 525,309 525,308 525,307 525,306 525,305 525,304 525,303 525,302 525,301 525,300 525,299 525,298 525,297 525,296 525,295 525,294 525,293 525,292 525,291 525,290 525,289 525,288 525,287 525,286 525,285 525,284 525,283 525,282 525,281 525,280 525,279 525,278 525,277 525,276 525,275 525,274 525,273 525,272 525,271 525,270 525,269 525,268 525,267 525,266 525,265 525,264 525,263 525,262 525,261 525,260 525,259 525,258 525,257 525,256 525,255 525,254 525,253 525,252 525,251 525,250 525,249 525,248 525,247 525,246 525,245 525,244 525,243 525,242 525,241 525,240 525,239 525,238 525,237 525,236 525,235 525,234 525,233 525,232 525,231 525,230 525,229 525,228 525,227 525,226 525,225 525,224 525,223 525,222 525,221 525,220 525,219 525,218 525,217 525,216 525,215 525,214 525,213 525,212 525,211 525,210 525,209 525,208 525,207 525,206 525,205 525,204 525,203 525,202 525,201 525,200 525,199 525,198 525,197 525,196 525,195 525,194 525,193 525,192 525,191 525,190 525,189 525,188 525,187 525,186 525,185 525,184 525,183 525,182 525,181 525,180 525,179 525,178 525,177 525,176 525,175 525,174 525,173 525,172 525,171 525,170 525,169 525,168 525,167 525,166 525,165 525,164 525,163 525,162 525,161 525,160 525,159 525,158 525,157 525,156 525,155 525,154 525,153 525,152 525,151 525,150 525,149 525,148 525,147 525,146 525,145 525,144 525,143 525,142 525,141 525,140 525,139 525,138 525,137 525,136 525,135 525,134 525,133 525,132 525,131 525,130 525,129 525,128 525,127 525,126 525,125 525,124 525,123 525,122 525,121 525,120 525,119 525,118 525,117 525,116 525,115 525,114 525,113 525,112 525,111 525,110 525,109 525,108 525,107 525,106 525,105 525,104 525,103 525,102 525,101 525,100 525,99 525,98 525,97 525,96 525,95 525,94 525,93 525,92 525,91 525,90 525,89 525,88 525,87 525,86 525,85 525,84 525,83 525,82 525,81 525,80 525,79 525,78 525,77 525,76 525,75 525,74 525,73 524,73 523,73 522,74 521,73 520,73 519,73 518,73 517,73 516,73 515,73 514,73 513,73 512,73 511,73 510,73 509,73 508,73 507,73 506,73 505,73 504,73 503,73 502,73 501,73 500,73 499,73 498,73 497,73 496,73 495,73 494,73 493,73 492,73 491,73 490,73 489,73 488,73 487,73 486,73 485,73 484,73 483,73 482,73 481,73 480,73 479,73 478,73 477,73 476,73 475,73 474,73 473,73 472,73 471,73 470,73 469,73 468,73 467,73 466,73 465,73 464,73 463,73 462,73 461,73 460,73 459,73 458,73 457,74 456,74 455,73 454,73">
      <metadata tailDirection="" confidence="1.00" linkedToCharacter="" id="TetsuSan_055_balloon_7" tailTip=""></metadata>
    </polygon>
  </svg>
</svg>
