<?xml version="1.0" encoding="UTF-8" standalone="no"?>
<svg width="827" xmlns="http://www.w3.org/2000/svg" version="1.0" height="1170">
  <title>TetsuSan_005</title>
  <svg contentScriptType="text/ecmascript" zoomAndPan="magnify" contentStyleType="text/css" class="Page" preserveAspectRatio="xMidYMid meet" version="1.0">
    <image xmlns:xlink="http://www.w3.org/1999/xlink" x="0" y="0" width="827" height="1170" xlink:href="./../../dataset_Manga109/TetsuSan/TetsuSan_005.jpg" xlink:type="simple" xlink:actuate="onLoad" preserveAspectRatio="xMidYMid meet" xlink:show="embed"/>
  </svg>
  <style type="text/css" xml:space="preserve">
        * { stroke-linejoin: round; }
        .Unclassified   { fill: orange; stroke: none;   opacity: 1.0; visibility: hidden; }
        .Noise          { fill: pink;   stroke: none;   opacity: 0.2; visibility: hidden; }
        .Panel          { fill: none;   stroke: red;    stroke-width:3; opacity: 0.5; visibility: visible; image-rendering: optimizeSpeed; }
        .Line           { fill: green;  stroke: none;   opacity: 0.5; visibility: visible; image-rendering: optimizeSpeed; }
        .TextArea       { fill: grey;   stroke: none;   opacity: 0.2; visibility: visible; image-rendering: optimizeSpeed; }
        .Balloon        { fill: cyan;   stroke: none;   opacity: 0.5; visibility: visible; image-rendering: optimizeSpeed; }
        .Letter         { fill: blue;   stroke: none;   opacity: 0.2; visibility: hidden; }
        .Object, .Character, .Face  { fill: yellow; stroke: none;   opacity: 0.5; visibility: visible; image-rendering: optimizeSpeed; }
        .Page           { fill: white;  stroke: none;    opacity: 0.5; visibility: visible; }
        .linkSBSC { fill: blue; stroke: none; opacity: 1.0; visibility: visible; }
        polygon:hover { opacity:1.0; stroke:red; }
</style>
  <svg xmlns="http://www.w3.org/2000/svg" contentScriptType="text/ecmascript" zoomAndPan="magnify" contentStyleType="text/css" class="Balloon" preserveAspectRatio="xMidYMid meet" version="1.0">
    <polygon points="82,866 81,867 80,867 79,867 78,867 78,868 78,869 78,870 78,871 78,872 78,873 78,874 78,875 78,876 78,877 78,878 78,879 78,880 78,881 78,882 78,883 78,884 78,885 78,886 78,887 78,888 78,889 78,890 78,891 78,892 78,893 78,894 78,895 78,896 78,897 78,898 78,899 78,900 78,901 78,902 78,903 78,904 78,905 78,906 78,907 78,908 78,909 78,910 78,911 78,912 78,913 78,914 78,915 78,916 78,917 78,918 78,919 78,920 78,921 78,922 78,923 78,924 78,925 78,926 78,927 78,928 78,929 78,930 78,931 78,932 78,933 78,934 78,935 78,936 78,937 78,938 78,939 78,940 78,941 78,942 78,943 78,944 78,945 78,946 78,947 78,948 78,949 78,950 78,951 78,952 78,953 78,954 78,955 78,956 78,957 78,958 78,959 78,960 78,961 78,962 78,963 78,964 78,965 78,966 78,967 78,968 78,969 78,970 78,971 78,972 78,973 78,974 78,975 78,976 78,977 78,978 78,979 78,980 78,981 78,982 78,983 78,984 78,985 78,986 78,987 78,988 78,989 78,990 78,991 78,992 78,993 78,994 78,995 78,996 78,997 78,998 78,999 78,1000 78,1001 78,1002 78,1003 78,1004 78,1005 78,1006 78,1007 78,1008 78,1009 78,1010 78,1011 78,1012 78,1013 78,1014 78,1015 78,1016 78,1017 78,1018 78,1019 78,1020 78,1021 78,1022 78,1023 78,1024 78,1025 78,1026 78,1027 78,1028 78,1029 78,1030 78,1031 78,1032 78,1033 78,1034 78,1035 78,1036 78,1037 78,1038 78,1039 78,1040 78,1041 78,1042 78,1043 78,1044 78,1045 78,1046 78,1047 78,1048 78,1049 78,1050 78,1051 78,1052 78,1053 78,1054 78,1055 78,1056 78,1057 78,1058 78,1059 78,1060 78,1061 78,1062 78,1063 78,1064 78,1065 78,1066 78,1067 78,1068 78,1069 78,1070 79,1071 78,1072 78,1073 78,1074 79,1075 79,1076 79,1077 79,1078 79,1079 79,1080 79,1081 79,1082 79,1083 79,1084 79,1085 79,1086 79,1087 79,1088 79,1089 79,1090 79,1091 79,1092 79,1093 80,1093 81,1093 82,1093 83,1093 84,1094 85,1093 86,1094 87,1094 88,1094 89,1094 90,1094 91,1094 92,1094 93,1094 94,1094 95,1094 96,1094 97,1094 98,1094 99,1094 100,1094 101,1094 102,1094 103,1094 104,1094 105,1094 106,1094 107,1094 108,1094 109,1094 110,1094 111,1094 112,1094 113,1094 114,1094 115,1094 116,1094 117,1094 118,1094 119,1094 120,1094 121,1094 122,1094 123,1094 124,1094 125,1094 126,1094 127,1094 128,1094 129,1094 130,1094 131,1094 132,1094 133,1094 134,1094 134,1093 134,1092 134,1091 134,1090 134,1089 134,1088 135,1087 135,1086 134,1085 134,1084 135,1083 135,1082 135,1081 135,1080 135,1079 135,1078 135,1077 135,1076 135,1075 135,1074 135,1073 135,1072 135,1071 135,1070 135,1069 135,1068 135,1067 135,1066 135,1065 135,1064 135,1063 135,1062 135,1061 135,1060 135,1059 135,1058 135,1057 135,1056 135,1055 135,1054 135,1053 135,1052 135,1051 135,1050 135,1049 135,1048 135,1047 135,1046 135,1045 135,1044 135,1043 135,1042 135,1041 135,1040 135,1039 135,1038 135,1037 135,1036 135,1035 135,1034 135,1033 135,1032 135,1031 135,1030 135,1029 134,1028 134,1027 134,1026 134,1025 134,1024 134,1023 134,1022 134,1021 134,1020 134,1019 134,1018 134,1017 134,1016 134,1015 134,1014 134,1013 134,1012 134,1011 134,1010 134,1009 134,1008 134,1007 134,1006 134,1005 134,1004 134,1003 134,1002 134,1001 134,1000 134,999 134,998 134,997 134,996 134,995 134,994 134,993 134,992 134,991 134,990 134,989 134,988 134,987 134,986 134,985 134,984 134,983 134,982 134,981 134,980 134,979 134,978 134,977 134,976 134,975 134,974 134,973 134,972 134,971 134,970 134,969 134,968 134,967 134,966 134,965 134,964 134,963 134,962 134,961 134,960 134,959 134,958 134,957 134,956 134,955 134,954 134,953 134,952 134,951 134,950 134,949 134,948 134,947 134,946 134,945 134,944 135,943 135,942 135,941 135,940 135,939 135,938 135,937 135,936 135,935 135,934 135,933 135,932 135,931 135,930 135,929 135,928 135,927 135,926 135,925 135,924 135,923 135,922 135,921 135,920 135,919 135,918 135,917 135,916 135,915 135,914 135,913 135,912 135,911 135,910 135,909 135,908 135,907 135,906 135,905 135,904 135,903 135,902 135,901 135,900 135,899 135,898 135,897 135,896 135,895 135,894 135,893 135,892 135,891 135,890 135,889 135,888 135,887 135,886 135,885 135,884 135,883 136,882 135,881 136,880 136,879 136,878 136,877 136,876 136,875 136,874 136,873 136,872 136,871 136,870 136,869 136,868 136,867 136,866 135,866 134,866 133,866 132,866 131,866 130,866 129,866 128,866 127,866 126,866 125,866 124,866 123,866 122,866 121,866 120,866 119,866 118,866 117,866 116,866 115,866 114,866 113,866 112,866 111,866 110,866 109,866 108,867 107,867 106,866 105,866 104,867 103,867 102,867 101,867 100,867 99,866 98,866 97,866 96,866 95,866 94,866 93,866 92,866 91,866 90,866 89,866 88,866 87,866 86,866 85,866 84,866 83,866 82,866">
      <metadata tailDirection="" confidence="0.90" linkedToCharacter="" id="TetsuSan_005_balloon_0" tailTip=""></metadata>
    </polygon>
    <polygon points="705,865 705,866 704,867 704,868 704,869 703,870 703,871 703,872 702,873 702,874 702,875 702,876 701,877 701,878 701,879 701,880 700,881 700,882 700,883 700,884 700,885 699,886 699,887 699,888 699,889 699,890 699,891 698,892 698,893 698,894 698,895 698,896 698,897 698,898 698,899 698,900 698,901 697,902 697,903 697,904 697,905 697,906 697,907 697,908 697,909 697,910 697,911 697,912 697,913 697,914 697,915 697,916 697,917 697,918 697,919 697,920 697,921 697,922 697,923 697,924 697,925 697,926 697,927 697,928 697,929 697,930 697,931 697,932 697,933 697,934 697,935 697,936 697,937 697,938 697,939 697,940 697,941 697,942 697,943 697,944 697,945 697,946 697,947 697,948 697,949 697,950 697,951 697,952 697,953 697,954 697,955 697,956 697,957 697,958 697,959 697,960 697,961 697,962 697,963 697,964 697,965 697,966 697,967 697,968 697,969 697,970 697,971 697,972 697,973 697,974 697,975 697,976 698,977 698,978 698,979 697,980 696,980 695,980 694,980 693,980 692,980 691,980 690,980 691,980 692,980 693,981 694,981 695,982 696,982 697,982 698,983 698,984 698,985 697,986 697,987 697,988 697,989 697,990 697,991 697,992 697,993 697,994 697,995 697,996 697,997 697,998 697,999 697,1000 698,1001 698,1002 698,1003 698,1004 698,1005 698,1006 698,1007 698,1008 699,1009 699,1010 699,1011 699,1012 699,1013 699,1014 700,1015 700,1016 700,1017 701,1018 701,1019 701,1020 701,1021 702,1022 702,1023 703,1024 703,1025 703,1026 704,1027 704,1028 705,1029 705,1030 706,1031 706,1032 707,1033 707,1034 708,1034 709,1035 710,1036 711,1037 712,1038 713,1039 714,1040 715,1040 716,1041 717,1042 718,1043 719,1043 720,1044 721,1044 722,1044 723,1045 724,1045 725,1046 726,1046 727,1047 728,1047 729,1047 730,1047 731,1047 732,1047 733,1047 734,1047 735,1047 736,1047 737,1047 738,1047 739,1047 740,1047 741,1047 742,1047 743,1047 744,1047 745,1046 746,1046 747,1046 748,1045 749,1045 750,1044 751,1044 752,1043 753,1042 754,1042 755,1041 756,1040 757,1039 757,1038 757,1037 757,1036 757,1035 757,1034 757,1033 757,1032 757,1031 757,1030 757,1029 757,1028 757,1027 757,1026 757,1025 757,1024 757,1023 757,1022 757,1021 757,1020 757,1019 757,1018 757,1017 757,1016 757,1015 757,1014 757,1013 757,1012 757,1011 757,1010 757,1009 757,1008 757,1007 757,1006 757,1005 757,1004 757,1003 757,1002 757,1001 757,1000 757,999 757,998 757,997 757,996 757,995 757,994 757,993 757,992 757,991 757,990 757,989 757,988 757,987 757,986 757,985 757,984 757,983 757,982 757,981 757,980 757,979 757,978 757,977 757,976 757,975 757,974 757,973 757,972 757,971 757,970 757,969 757,968 757,967 757,966 757,965 757,964 757,963 757,962 757,961 757,960 757,959 757,958 757,957 757,956 757,955 757,954 757,953 757,952 757,951 757,950 757,949 757,948 757,947 757,946 757,945 757,944 757,943 757,942 757,941 757,940 757,939 757,938 757,937 757,936 757,935 757,934 757,933 757,932 757,931 757,930 757,929 757,928 757,927 757,926 757,925 757,924 757,923 757,922 757,921 757,920 757,919 757,918 757,917 757,916 757,915 757,914 757,913 757,912 757,911 757,910 757,909 757,908 757,907 757,906 757,905 757,904 757,903 757,902 757,901 757,900 757,899 757,898 757,897 757,896 757,895 757,894 757,893 757,892 757,891 757,890 757,889 757,888 757,887 757,886 757,885 757,884 757,883 757,882 757,881 757,880 757,879 757,878 757,877 757,876 757,875 757,874 757,873 757,872 757,871 757,870 757,869 757,868 757,867 757,866 756,866 755,866 754,866 753,866 752,866 751,866 750,866 749,866 748,866 747,866 746,866 745,866 744,866 743,866 742,866 741,865 740,865 739,865 738,865 737,865 736,865 735,865 734,865 733,865 732,865 731,865 730,865 729,865 728,865 727,865 726,865 725,865 724,865 723,865 722,865 721,865 720,865 719,865 718,865 717,865 716,865 715,865 714,865 713,865 712,865 711,865 710,865 709,865 708,865 707,865 706,865 705,865">
      <metadata tailDirection="" confidence="0.99" linkedToCharacter="" id="TetsuSan_005_balloon_1" tailTip=""></metadata>
    </polygon>
    <polygon points="655,865 654,866 653,866 652,866 651,866 650,866 649,866 648,866 647,866 646,866 645,866 644,866 643,866 642,866 641,866 640,866 639,866 638,866 637,866 636,866 635,866 634,866 633,866 632,866 631,866 630,866 629,866 628,866 627,866 626,866 625,866 624,866 623,866 622,867 622,868 621,869 621,870 620,871 620,872 620,873 619,874 619,875 619,876 619,877 618,878 618,879 618,880 617,881 617,882 617,883 617,884 617,885 617,886 616,887 616,888 616,889 616,890 616,891 616,892 616,893 615,894 615,895 615,896 615,897 615,898 615,899 615,900 615,901 615,902 615,903 615,904 615,905 615,906 615,907 615,908 615,909 615,910 615,911 615,912 615,913 615,914 615,915 615,916 616,917 616,918 616,919 616,920 616,921 616,922 616,923 616,924 617,925 617,926 617,927 618,928 618,929 618,930 618,931 619,932 619,933 620,934 620,935 621,936 622,937 621,938 622,938 623,939 623,940 623,941 624,942 625,943 625,944 626,945 627,946 627,947 628,948 629,949 630,949 631,950 632,951 633,952 634,952 635,953 636,954 637,954 638,954 639,954 640,955 641,955 642,955 643,955 644,955 645,956 646,956 647,956 648,956 649,956 650,957 651,957 652,957 653,958 654,958 655,958 656,958 657,958 658,958 659,958 660,957 661,957 662,957 663,956 664,956 665,956 666,955 667,955 668,955 669,954 670,954 671,954 672,953 673,952 674,952 675,951 676,950 677,950 677,949 678,948 679,948 680,947 681,946 681,945 682,944 683,943 683,942 684,941 684,940 685,939 685,938 686,937 686,936 687,935 687,934 688,933 688,932 688,931 689,930 689,929 689,928 690,927 690,926 690,925 690,924 691,923 691,922 691,921 691,920 691,919 691,918 692,917 692,916 692,915 692,914 692,913 692,912 692,911 692,910 692,909 692,908 692,907 692,906 692,905 692,904 692,903 692,902 692,901 692,900 692,899 692,898 692,897 691,896 691,895 691,894 691,893 691,892 691,891 690,890 690,889 690,888 690,887 690,886 689,885 689,884 689,883 689,882 689,881 688,880 688,879 688,878 687,877 687,876 687,875 686,874 686,873 685,872 685,871 684,870 684,869 684,868 683,867 682,866 682,865 681,865 680,866 679,865 678,866 677,866 676,865 675,865 674,865 673,865 672,865 671,866 670,865 669,865 668,865 667,866 666,866 665,866 664,865 663,866 662,866 661,866 660,866 659,866 658,866 657,865 656,865 655,865">
      <metadata tailDirection="" confidence="0.99" linkedToCharacter="" id="TetsuSan_005_balloon_2" tailTip=""></metadata>
    </polygon>
    <polygon points="438,616 438,617 437,618 437,619 437,620 437,621 437,622 437,623 437,624 437,625 437,626 437,627 437,628 437,629 437,630 437,631 437,632 437,633 437,634 437,635 437,636 437,637 437,638 437,639 437,640 437,641 437,642 437,643 437,644 437,645 437,646 437,647 437,648 437,649 437,650 437,651 437,652 437,653 437,654 437,655 437,656 437,657 437,658 437,659 437,660 437,661 437,662 437,663 437,664 437,665 437,666 437,667 437,668 437,669 437,670 437,671 437,672 437,673 437,674 437,675 437,676 437,677 437,678 437,679 437,680 437,681 437,682 437,683 437,684 437,685 437,686 437,687 437,688 437,689 437,690 437,691 437,692 437,693 437,694 437,695 437,696 437,697 437,698 437,699 437,700 437,701 437,702 437,703 437,704 437,705 437,706 437,707 437,708 437,709 437,710 437,711 437,712 437,713 437,714 437,715 437,716 437,717 437,718 437,719 437,720 437,721 437,722 437,723 437,724 437,725 437,726 437,727 437,728 437,729 437,730 437,731 437,732 437,733 437,734 437,735 437,736 437,737 437,738 437,739 437,740 437,741 437,742 437,743 437,744 437,745 437,746 437,747 437,748 437,749 437,750 437,751 437,752 437,753 437,754 437,755 437,756 437,757 437,758 437,759 437,760 437,761 437,762 437,763 438,764 438,765 438,766 438,767 437,768 438,769 439,769 440,770 441,771 442,772 443,773 444,774 445,775 446,775 447,775 448,776 449,776 450,777 451,777 452,777 453,777 454,777 455,777 456,777 457,777 458,777 459,777 460,776 461,776 462,776 463,776 464,775 465,774 466,773 467,772 468,771 468,770 469,769 470,769 471,769 472,770 472,771 473,771 474,772 475,773 476,773 477,774 478,774 479,775 480,775 481,775 482,776 483,776 484,776 485,776 486,776 487,775 488,775 489,775 490,774 491,774 492,773 491,772 492,771 493,771 494,771 495,771 496,771 497,771 498,771 499,771 500,771 501,771 502,770 503,770 504,770 505,769 506,769 507,768 508,767 509,766 510,765 511,764 512,763 512,762 513,761 513,760 514,759 514,758 514,757 515,756 515,755 515,754 515,753 515,752 515,751 514,750 513,749 512,748 513,747 514,746 515,745 516,744 516,743 517,742 517,741 518,740 518,739 519,738 519,737 519,736 519,735 520,734 520,733 520,732 520,731 520,730 519,729 519,728 519,727 519,726 518,725 518,724 517,723 517,722 516,721 517,720 518,719 519,719 520,718 521,717 522,717 521,717 520,717 519,717 518,716 518,715 518,714 519,713 520,712 520,711 520,710 521,709 521,708 521,707 522,706 522,705 522,704 522,703 522,702 522,701 522,700 522,699 522,698 522,697 522,696 521,695 521,694 521,693 520,692 520,691 519,690 518,689 517,689 516,688 516,687 517,686 518,685 519,684 519,683 520,682 520,681 521,680 521,679 521,678 521,677 522,676 522,675 522,674 522,673 522,672 522,671 522,670 522,669 522,668 522,667 521,666 521,665 521,664 520,663 520,662 519,661 518,660 517,659 517,658 516,657 515,656 514,655 513,654 512,653 511,652 511,651 511,650 512,649 513,648 513,647 513,646 514,645 514,644 515,643 515,642 515,641 516,640 516,639 516,638 516,637 516,636 516,635 516,634 516,633 515,632 515,631 515,630 515,629 514,628 514,627 514,626 513,625 513,624 512,623 512,622 511,621 510,620 509,619 509,618 508,617 507,616 506,616 505,616 504,616 503,616 502,616 501,616 500,616 499,616 498,616 497,616 496,616 495,616 494,616 493,616 492,616 491,616 490,616 489,616 488,616 487,616 486,616 485,616 484,616 483,616 482,616 481,616 480,616 479,616 478,616 477,616 476,616 475,616 474,616 473,616 472,616 471,616 470,616 469,616 468,616 467,616 466,616 465,616 464,616 463,616 462,616 461,616 460,616 459,616 458,616 457,616 456,616 455,616 454,616 453,616 452,616 451,616 450,616 449,616 448,616 447,616 446,616 445,616 444,616 443,616 442,616 441,616 440,616 439,616 438,616">
      <metadata tailDirection="" confidence="0.85" linkedToCharacter="" id="TetsuSan_005_balloon_3" tailTip=""></metadata>
    </polygon>
    <polygon points="350,616 350,617 349,618 348,619 348,620 347,621 347,622 346,623 346,624 345,625 345,626 344,627 344,628 344,629 344,630 344,631 344,632 344,633 344,634 344,635 344,636 344,637 344,638 344,639 344,640 344,641 344,642 344,643 344,644 344,645 344,646 344,647 344,648 344,649 344,650 344,651 344,652 344,653 344,654 344,655 344,656 344,657 344,658 344,659 344,660 344,661 344,662 344,663 344,664 344,665 344,666 344,667 344,668 344,669 344,670 344,671 344,672 344,673 344,674 344,675 344,676 344,677 344,678 344,679 344,680 344,681 344,682 344,683 344,684 344,685 344,686 344,687 344,688 344,689 344,690 344,691 344,692 344,693 344,694 344,695 344,696 343,697 343,698 344,699 344,700 343,701 343,702 344,703 344,704 343,705 343,706 344,707 343,708 343,709 343,710 343,711 343,712 343,713 343,714 343,715 343,716 343,717 343,718 343,719 343,720 343,721 343,722 343,723 343,724 343,725 343,726 343,727 343,728 343,729 343,730 343,731 343,732 343,733 343,734 343,735 343,736 343,737 343,738 343,739 343,740 343,741 343,742 343,743 343,744 343,745 343,746 343,747 343,748 343,749 343,750 343,751 343,752 343,753 343,754 343,755 343,756 343,757 343,758 344,759 345,760 345,761 346,762 347,763 348,764 349,765 350,766 351,767 352,768 352,769 353,770 354,771 355,771 356,771 357,771 358,771 359,771 360,771 361,771 362,771 363,771 364,771 365,771 366,771 367,771 368,771 369,771 370,771 371,771 372,771 373,771 374,771 375,772 376,771 377,771 378,771 379,771 380,771 381,771 382,772 383,772 384,772 385,772 386,772 387,772 388,772 389,772 390,772 391,772 392,772 393,772 394,772 395,772 396,772 397,772 398,772 398,771 398,770 398,769 398,768 398,767 398,766 398,765 398,764 397,763 398,762 398,761 398,760 398,759 398,758 398,757 397,756 397,755 397,754 398,753 398,752 397,751 397,750 397,749 397,748 397,747 397,746 397,745 397,744 397,743 397,742 398,741 398,740 398,739 398,738 398,737 398,736 398,735 398,734 398,733 397,732 397,731 397,730 397,729 397,728 397,727 397,726 397,725 398,724 398,723 397,722 397,721 398,720 397,719 397,718 397,717 397,716 397,715 397,714 397,713 397,712 397,711 397,710 397,709 397,708 397,707 397,706 397,705 397,704 397,703 397,702 397,701 397,700 397,699 397,698 397,697 398,696 397,695 397,694 397,693 397,692 397,691 397,690 397,689 397,688 397,687 397,686 397,685 397,684 397,683 397,682 397,681 397,680 397,679 397,678 397,677 397,676 397,675 397,674 397,673 397,672 397,671 397,670 397,669 397,668 397,667 397,666 397,665 397,664 397,663 397,662 397,661 397,660 397,659 397,658 397,657 397,656 397,655 397,654 397,653 397,652 397,651 397,650 397,649 397,648 397,647 397,646 397,645 397,644 397,643 397,642 397,641 397,640 397,639 397,638 397,637 397,636 397,635 397,634 397,633 397,632 397,631 397,630 397,629 397,628 397,627 397,626 397,625 397,624 397,623 397,622 397,621 397,620 397,619 397,618 397,617 396,616 395,617 394,617 393,617 392,616 391,616 390,616 389,616 388,616 387,616 386,616 385,616 384,616 383,616 382,616 381,616 380,616 379,616 378,616 377,616 376,616 375,616 374,616 373,616 372,616 371,616 370,616 369,616 368,616 367,616 366,616 365,616 364,616 363,616 362,616 361,616 360,616 359,616 358,616 357,616 356,616 355,616 354,616 353,616 352,616 351,616 350,616">
      <metadata tailDirection="" confidence="0.95" linkedToCharacter="" id="TetsuSan_005_balloon_4" tailTip=""></metadata>
    </polygon>
    <polygon points="78,616 78,617 78,618 77,619 77,620 77,621 77,622 77,623 77,624 77,625 77,626 77,627 77,628 77,629 77,630 77,631 77,632 77,633 77,634 77,635 77,636 77,637 77,638 77,639 78,640 77,641 77,642 77,643 77,644 77,645 77,646 77,647 77,648 77,649 77,650 77,651 78,652 77,653 77,654 77,655 77,656 77,657 77,658 77,659 77,660 77,661 78,662 78,663 77,664 77,665 77,666 77,667 77,668 77,669 77,670 77,671 77,672 77,673 77,674 77,675 77,676 77,677 77,678 77,679 77,680 77,681 77,682 77,683 77,684 77,685 77,686 77,687 77,688 77,689 77,690 77,691 78,692 78,693 77,694 78,695 77,696 77,697 77,698 77,699 77,700 78,701 78,702 78,703 77,704 77,705 77,706 77,707 77,708 77,709 78,710 77,711 77,712 78,713 77,714 78,715 78,716 78,717 77,718 77,719 78,720 78,721 78,722 78,723 78,724 78,725 78,726 78,727 78,728 78,729 78,730 78,731 78,732 78,733 78,734 78,735 78,736 78,737 78,738 78,739 78,740 78,741 78,742 78,743 78,744 78,745 78,746 78,747 78,748 78,749 78,750 78,751 78,752 78,753 78,754 78,755 78,756 78,757 78,758 78,759 78,760 78,761 78,762 78,763 78,764 78,765 78,766 78,767 78,768 78,769 78,770 78,771 78,772 78,773 78,774 78,775 78,776 78,777 78,778 78,779 78,780 78,781 78,782 78,783 78,784 78,785 78,786 78,787 78,788 78,789 78,790 78,791 78,792 78,793 78,794 78,795 78,796 78,797 78,798 78,799 78,800 78,801 78,802 78,803 78,804 78,805 78,806 78,807 78,808 78,809 78,810 78,811 78,812 78,813 78,814 78,815 78,816 78,817 78,818 78,819 78,820 78,821 78,822 78,823 78,824 78,825 78,826 78,827 78,828 78,829 78,830 78,831 78,832 78,833 78,834 78,835 78,836 78,837 78,838 78,839 78,840 78,841 78,842 78,843 78,844 78,845 78,846 78,847 79,848 80,848 81,848 82,848 83,848 84,847 85,847 86,848 87,848 88,847 89,847 90,848 91,848 92,848 93,848 94,847 95,848 96,848 97,848 98,848 99,848 100,848 101,848 102,848 103,848 104,848 105,848 106,848 107,848 108,848 109,848 110,848 111,848 112,848 113,848 114,848 115,848 116,848 117,848 118,848 119,848 120,848 121,848 122,848 123,848 124,848 125,848 126,848 127,848 128,848 129,848 130,848 131,848 132,848 133,848 134,848 135,848 136,848 137,848 138,848 139,847 140,846 141,846 142,845 143,844 144,844 145,843 146,843 147,842 148,841 149,841 150,840 151,840 152,839 153,838 154,837 155,837 155,836 155,835 155,834 155,833 155,832 155,831 155,830 155,829 155,828 155,827 155,826 155,825 155,824 155,823 155,822 155,821 155,820 155,819 155,818 155,817 155,816 155,815 155,814 155,813 155,812 155,811 155,810 156,809 155,808 156,807 156,806 155,805 156,804 156,803 156,802 156,801 156,800 156,799 156,798 156,797 156,796 156,795 156,794 156,793 156,792 156,791 156,790 156,789 156,788 156,787 156,786 156,785 156,784 156,783 156,782 156,781 156,780 156,779 156,778 156,777 156,776 156,775 156,774 156,773 156,772 156,771 156,770 156,769 156,768 156,767 156,766 156,765 156,764 156,763 156,762 156,761 156,760 156,759 156,758 156,757 156,756 156,755 156,754 156,753 156,752 156,751 156,750 156,749 156,748 156,747 156,746 157,745 156,744 156,743 157,742 157,741 157,740 157,739 157,738 157,737 157,736 157,735 157,734 157,733 157,732 157,731 157,730 157,729 157,728 157,727 157,726 157,725 157,724 157,723 157,722 157,721 157,720 157,719 157,718 157,717 157,716 157,715 157,714 157,713 157,712 157,711 157,710 157,709 157,708 157,707 157,706 157,705 157,704 157,703 157,702 157,701 157,700 157,699 157,698 157,697 157,696 157,695 157,694 157,693 157,692 157,691 157,690 157,689 157,688 157,687 157,686 157,685 157,684 157,683 157,682 157,681 157,680 157,679 157,678 157,677 157,676 157,675 157,674 157,673 157,672 157,671 157,670 157,669 157,668 157,667 158,666 158,665 158,664 158,663 158,662 157,661 158,660 158,659 158,658 158,657 158,656 158,655 158,654 158,653 158,652 158,651 158,650 158,649 158,648 158,647 158,646 158,645 158,644 158,643 158,642 158,641 158,640 158,639 158,638 158,637 158,636 158,635 158,634 158,633 158,632 158,631 158,630 158,629 158,628 158,627 158,626 157,625 156,624 155,623 155,622 154,622 153,621 152,620 151,619 150,618 149,617 148,616 147,616 146,616 145,616 144,616 143,616 142,616 141,616 140,616 139,616 138,616 137,616 136,616 135,616 134,616 133,616 132,616 131,616 130,616 129,616 128,616 127,616 126,616 125,616 124,616 123,616 122,616 121,616 120,616 119,616 118,616 117,616 116,616 115,616 114,616 113,616 112,616 111,616 110,616 109,616 108,616 107,616 106,616 105,616 104,616 103,616 102,616 101,616 100,616 99,616 98,616 97,616 96,616 95,616 94,616 93,616 92,616 91,616 90,616 89,616 88,616 87,616 86,616 85,616 84,616 83,616 82,616 81,616 80,616 79,616 78,616">
      <metadata tailDirection="" confidence="0.93" linkedToCharacter="" id="TetsuSan_005_balloon_5" tailTip=""></metadata>
    </polygon>
    <polygon points="699,367 698,368 698,369 697,370 697,371 697,372 697,373 696,374 696,375 696,376 696,377 696,378 695,379 695,380 695,381 695,382 694,383 694,384 694,385 694,386 694,387 694,388 693,389 693,390 693,391 693,392 693,393 693,394 693,395 693,396 693,397 692,398 692,399 692,400 692,401 692,402 692,403 692,404 692,405 692,406 692,407 692,408 691,409 691,410 691,411 691,412 691,413 691,414 691,415 691,416 691,417 691,418 691,419 690,420 690,421 690,422 690,423 690,424 690,425 690,426 690,427 690,428 690,429 690,430 690,431 690,432 690,433 690,434 690,435 689,436 689,437 689,438 689,439 689,440 689,441 689,442 689,443 689,444 689,445 689,446 690,447 689,448 689,449 689,450 689,451 690,452 689,453 689,454 689,455 689,456 689,457 689,458 689,459 689,460 689,461 689,462 689,463 689,464 689,465 689,466 689,467 689,468 689,469 689,470 689,471 689,472 689,473 689,474 689,475 689,476 689,477 689,478 689,479 689,480 690,481 690,482 690,483 690,484 690,485 690,486 690,487 691,488 691,489 691,490 691,491 691,492 691,493 691,494 690,495 689,496 688,496 687,496 686,496 687,496 688,497 689,497 690,498 691,499 690,500 691,501 691,502 691,503 691,504 691,505 692,506 692,507 692,508 692,509 693,510 693,511 693,512 694,513 694,514 694,515 695,516 695,517 695,518 696,519 696,520 697,521 697,522 697,523 698,524 698,525 699,526 699,527 700,528 700,529 701,530 701,531 702,532 702,533 703,534 704,535 705,536 706,537 707,538 708,539 709,540 710,541 711,542 712,542 713,543 714,543 715,544 716,544 717,545 718,545 719,545 720,545 721,546 722,546 723,546 724,546 725,547 726,547 727,547 728,547 729,548 730,548 731,548 732,548 733,548 734,548 735,548 736,548 737,548 738,548 739,548 740,548 741,548 742,548 743,548 744,548 745,548 746,548 747,547 748,547 749,547 750,547 751,546 752,546 753,546 754,546 755,545 756,545 757,544 757,543 757,542 757,541 757,540 757,539 757,538 757,537 757,536 757,535 757,534 757,533 757,532 757,531 757,530 757,529 757,528 757,527 757,526 757,525 757,524 757,523 757,522 757,521 757,520 757,519 757,518 757,517 757,516 757,515 757,514 757,513 757,512 757,511 757,510 757,509 757,508 757,507 757,506 757,505 757,504 757,503 757,502 757,501 757,500 757,499 757,498 757,497 757,496 757,495 757,494 757,493 757,492 757,491 757,490 757,489 757,488 757,487 757,486 757,485 757,484 757,483 757,482 757,481 757,480 757,479 757,478 757,477 757,476 757,475 757,474 757,473 757,472 757,471 757,470 757,469 757,468 757,467 757,466 757,465 757,464 757,463 757,462 757,461 757,460 757,459 757,458 757,457 757,456 757,455 757,454 757,453 757,452 757,451 757,450 757,449 757,448 757,447 757,446 757,445 757,444 757,443 757,442 757,441 757,440 757,439 757,438 757,437 757,436 757,435 757,434 757,433 757,432 757,431 757,430 757,429 757,428 757,427 757,426 757,425 757,424 757,423 757,422 757,421 757,420 757,419 757,418 757,417 757,416 757,415 757,414 757,413 757,412 757,411 757,410 757,409 757,408 757,407 757,406 757,405 757,404 757,403 757,402 757,401 757,400 757,399 757,398 757,397 757,396 757,395 757,394 757,393 757,392 757,391 757,390 757,389 757,388 757,387 757,386 757,385 757,384 757,383 757,382 757,381 757,380 757,379 757,378 757,377 757,376 758,375 758,374 757,373 757,372 757,371 757,370 757,369 757,368 756,368 755,368 754,368 753,368 752,368 751,368 750,367 749,367 748,367 747,367 746,367 745,367 744,367 743,367 742,367 741,367 740,367 739,367 738,367 737,367 736,367 735,367 734,367 733,367 732,367 731,367 730,367 729,367 728,367 727,367 726,367 725,367 724,367 723,367 722,367 721,367 720,367 719,367 718,367 717,367 716,367 715,367 714,367 713,367 712,367 711,367 710,367 709,367 708,367 707,367 706,367 705,367 704,367 703,367 702,367 701,367 700,367 699,367">
      <metadata tailDirection="" confidence="0.92" linkedToCharacter="" id="TetsuSan_005_balloon_6" tailTip=""></metadata>
    </polygon>
    <polygon points="438,366 438,367 438,368 438,369 438,370 438,371 438,372 438,373 438,374 438,375 438,376 438,377 438,378 438,379 438,380 438,381 438,382 438,383 438,384 438,385 438,386 438,387 438,388 438,389 438,390 438,391 438,392 438,393 438,394 438,395 438,396 438,397 438,398 438,399 438,400 438,401 438,402 438,403 438,404 438,405 438,406 438,407 438,408 438,409 438,410 438,411 438,412 438,413 438,414 438,415 438,416 438,417 438,418 438,419 438,420 438,421 438,422 438,423 438,424 438,425 438,426 438,427 438,428 438,429 438,430 438,431 438,432 438,433 438,434 438,435 438,436 438,437 438,438 438,439 438,440 438,441 438,442 438,443 438,444 438,445 438,446 438,447 438,448 438,449 438,450 438,451 438,452 438,453 438,454 438,455 438,456 438,457 438,458 438,459 438,460 438,461 438,462 438,463 438,464 438,465 438,466 438,467 438,468 438,469 438,470 438,471 438,472 438,473 438,474 438,475 438,476 438,477 438,478 438,479 438,480 438,481 438,482 438,483 438,484 438,485 438,486 438,487 438,488 438,489 438,490 438,491 438,492 438,493 438,494 438,495 438,496 438,497 438,498 438,499 438,500 438,501 439,501 440,500 441,500 442,499 443,499 444,499 445,498 446,498 447,498 448,499 449,499 450,499 451,499 452,500 453,501 454,502 455,503 455,504 456,505 456,506 457,507 458,507 459,506 460,506 461,505 462,505 463,505 464,504 465,504 466,504 467,504 468,505 469,505 470,506 471,507 471,506 472,505 473,504 474,503 475,502 476,501 477,500 478,499 479,498 480,498 481,497 482,497 483,496 484,496 485,496 486,496 487,496 488,496 489,495 489,494 490,493 490,492 491,491 491,490 492,489 493,488 493,487 494,486 495,485 496,484 497,483 498,482 499,481 500,480 501,480 502,479 501,478 501,477 501,476 501,475 501,474 500,473 500,472 500,471 501,470 501,469 501,468 501,467 501,466 501,465 502,464 502,463 502,462 503,461 503,460 503,459 503,458 503,457 503,456 503,455 503,454 502,453 502,452 502,451 502,450 502,449 502,448 502,447 501,446 501,445 501,444 502,443 502,442 502,441 502,440 502,439 502,438 502,437 502,436 502,435 502,434 503,433 503,432 503,431 503,430 503,429 504,428 504,427 505,426 505,425 505,424 505,423 504,422 504,421 504,420 503,419 503,418 502,417 502,416 502,415 501,414 501,413 501,412 501,411 501,410 501,409 501,408 500,407 500,406 500,405 500,404 500,403 500,402 500,401 501,400 501,399 501,398 501,397 501,396 500,397 499,396 498,396 497,395 496,394 496,393 495,392 495,391 495,390 494,389 494,388 494,387 494,386 494,385 494,384 494,383 494,382 493,381 493,380 493,379 493,378 493,377 493,376 494,375 494,374 494,373 494,372 494,371 494,370 495,369 495,368 495,367 495,366 494,366 493,366 492,366 491,366 490,366 489,366 488,366 487,366 486,366 485,366 484,366 483,366 482,366 481,366 480,366 479,366 478,366 477,366 476,366 475,366 474,366 473,366 472,366 471,366 470,366 469,366 468,366 467,366 466,366 465,366 464,366 463,366 462,366 461,366 460,366 459,366 458,366 457,366 456,366 455,366 454,366 453,366 452,366 451,366 450,366 449,366 448,366 447,366 446,366 445,366 444,366 443,366 442,366 441,366 440,366 439,366 438,366">
      <metadata tailDirection="" confidence="0.80" linkedToCharacter="" id="TetsuSan_005_balloon_7" tailTip=""></metadata>
    </polygon>
    <polygon points="342,365 341,366 341,367 340,368 340,369 339,370 339,371 339,372 338,373 338,374 338,375 337,376 337,377 337,378 337,379 337,380 337,381 336,382 336,383 336,384 335,385 335,386 335,387 335,388 335,389 335,390 335,391 334,392 334,393 334,394 334,395 334,396 334,397 333,398 333,399 333,400 333,401 333,402 333,403 332,404 332,405 332,406 332,407 332,408 332,409 332,410 331,411 331,412 331,413 331,414 331,415 331,416 330,417 330,418 330,419 330,420 330,421 330,422 330,423 330,424 329,425 329,426 329,427 329,428 329,429 329,430 329,431 329,432 329,433 328,434 328,435 328,436 328,437 328,438 328,439 328,440 328,441 328,442 328,443 328,444 328,445 328,446 328,447 328,448 328,449 328,450 327,451 327,452 327,453 327,454 327,455 327,456 327,457 327,458 327,459 327,460 326,461 326,462 326,463 326,464 327,465 326,466 326,467 327,468 327,469 327,470 327,471 327,472 327,473 327,474 327,475 327,476 326,477 326,478 326,479 326,480 326,481 326,482 326,483 326,484 327,485 327,486 327,487 327,488 327,489 327,490 327,491 327,492 327,493 327,494 327,495 327,496 327,497 327,498 327,499 327,500 327,501 327,502 327,503 327,504 328,505 328,506 328,507 328,508 328,509 328,510 328,511 328,512 328,513 328,514 328,515 329,516 329,517 329,518 329,519 329,520 329,521 329,522 329,523 329,524 329,525 329,526 329,527 329,528 329,529 330,530 330,531 330,532 330,533 330,534 330,535 330,536 330,537 331,538 331,539 331,540 331,541 331,542 331,543 332,544 332,545 332,546 332,547 332,548 333,549 333,550 333,551 333,552 333,553 333,554 334,555 334,556 334,557 334,558 335,559 335,560 335,561 335,562 336,563 336,564 337,565 337,566 337,567 338,568 338,569 338,570 339,571 339,572 339,573 340,574 340,575 341,576 341,577 342,578 342,579 343,580 343,581 344,582 344,583 345,584 346,585 346,586 347,587 347,588 348,589 349,590 349,591 350,592 351,593 351,594 352,595 353,596 354,597 355,598 356,598 357,598 358,598 359,598 360,598 361,598 362,598 363,598 364,598 365,598 366,598 367,598 368,598 369,598 370,598 371,598 372,598 373,598 374,598 375,598 376,598 377,598 378,598 379,598 380,598 381,598 382,598 383,598 384,598 385,598 386,598 387,598 388,598 389,598 390,598 391,598 392,598 393,598 394,598 395,598 396,598 397,598 397,597 397,596 397,595 397,594 397,593 397,592 397,591 397,590 397,589 397,588 397,587 397,586 397,585 397,584 397,583 397,582 397,581 397,580 397,579 397,578 397,577 397,576 397,575 397,574 397,573 397,572 397,571 397,570 397,569 397,568 397,567 397,566 397,565 397,564 397,563 397,562 397,561 397,560 397,559 397,558 397,557 397,556 397,555 397,554 397,553 397,552 397,551 397,550 397,549 397,548 397,547 397,546 397,545 397,544 397,543 397,542 397,541 397,540 397,539 397,538 397,537 397,536 397,535 397,534 397,533 397,532 397,531 397,530 397,529 397,528 397,527 397,526 397,525 397,524 397,523 397,522 397,521 397,520 397,519 397,518 397,517 397,516 397,515 397,514 397,513 397,512 397,511 397,510 397,509 397,508 397,507 397,506 397,505 397,504 397,503 397,502 397,501 397,500 397,499 397,498 397,497 397,496 397,495 397,494 397,493 397,492 397,491 397,490 397,489 397,488 397,487 397,486 397,485 397,484 397,483 397,482 397,481 397,480 397,479 397,478 397,477 397,476 397,475 397,474 397,473 397,472 397,471 397,470 397,469 397,468 397,467 397,466 397,465 397,464 397,463 397,462 397,461 397,460 398,459 398,458 398,457 397,456 397,455 397,454 397,453 397,452 397,451 397,450 398,449 397,448 397,447 397,446 398,445 398,444 397,443 398,442 398,441 398,440 398,439 398,438 398,437 398,436 398,435 398,434 398,433 398,432 398,431 398,430 397,429 397,428 398,427 398,426 398,425 398,424 398,423 398,422 398,421 398,420 398,419 398,418 398,417 398,416 397,415 398,414 398,413 398,412 398,411 398,410 398,409 398,408 398,407 398,406 398,405 398,404 398,403 398,402 398,401 398,400 398,399 398,398 398,397 398,396 398,395 398,394 398,393 398,392 398,391 398,390 398,389 398,388 398,387 398,386 398,385 398,384 398,383 398,382 398,381 398,380 398,379 398,378 398,377 398,376 398,375 398,374 398,373 398,372 397,371 397,370 398,369 398,368 397,367 398,366 397,366 396,366 395,366 394,366 393,366 392,366 391,366 390,366 389,366 388,366 387,366 386,366 385,366 384,366 383,366 382,366 381,366 380,366 379,366 378,366 377,366 376,366 375,365 374,366 373,366 372,366 371,366 370,366 369,366 368,365 367,365 366,365 365,365 364,365 363,365 362,365 361,365 360,365 359,366 358,366 357,366 356,366 355,365 354,365 353,365 352,365 351,365 350,365 349,365 348,365 347,365 346,365 345,365 344,365 343,365 342,365">
      <metadata tailDirection="" confidence="0.90" linkedToCharacter="" id="TetsuSan_005_balloon_8" tailTip=""></metadata>
    </polygon>
    <polygon points="79,364 78,365 78,366 78,367 78,368 78,369 78,370 78,371 78,372 78,373 78,374 78,375 78,376 78,377 78,378 78,379 78,380 78,381 78,382 78,383 78,384 78,385 78,386 78,387 78,388 78,389 78,390 78,391 78,392 78,393 78,394 78,395 78,396 78,397 78,398 78,399 78,400 78,401 78,402 78,403 78,404 78,405 78,406 78,407 78,408 78,409 78,410 78,411 78,412 78,413 78,414 78,415 78,416 78,417 78,418 78,419 78,420 78,421 78,422 78,423 78,424 78,425 78,426 78,427 78,428 78,429 78,430 78,431 78,432 78,433 78,434 78,435 78,436 78,437 78,438 78,439 78,440 78,441 78,442 78,443 78,444 78,445 78,446 78,447 78,448 78,449 78,450 78,451 78,452 78,453 78,454 78,455 78,456 78,457 78,458 78,459 78,460 78,461 78,462 78,463 78,464 78,465 78,466 78,467 78,468 78,469 78,470 78,471 78,472 78,473 78,474 78,475 78,476 78,477 78,478 78,479 78,480 78,481 78,482 78,483 78,484 78,485 78,486 78,487 78,488 78,489 78,490 78,491 78,492 78,493 78,494 78,495 78,496 78,497 78,498 78,499 78,500 78,501 78,502 78,503 78,504 78,505 78,506 78,507 78,508 78,509 78,510 78,511 78,512 78,513 78,514 78,515 78,516 78,517 78,518 78,519 78,520 78,521 78,522 78,523 78,524 78,525 78,526 78,527 78,528 78,529 78,530 78,531 78,532 78,533 78,534 78,535 78,536 78,537 78,538 78,539 78,540 78,541 78,542 78,543 78,544 78,545 78,546 78,547 78,548 78,549 78,550 78,551 78,552 79,553 80,554 81,554 82,554 83,555 84,555 85,555 86,555 87,555 88,555 89,555 90,556 91,556 92,556 93,555 94,555 95,555 96,555 97,555 98,555 99,555 100,555 101,555 102,555 103,555 104,554 105,554 106,554 107,553 108,553 109,553 110,552 111,552 112,551 113,550 114,550 115,549 116,548 117,548 118,547 119,546 120,545 121,544 122,543 123,542 123,541 124,540 125,539 125,538 126,537 127,536 127,535 128,534 128,533 129,532 129,531 129,530 130,529 131,528 131,527 132,526 132,525 132,524 133,523 133,522 133,521 134,520 134,519 134,518 135,517 135,516 136,515 136,514 137,513 137,512 137,511 137,510 138,509 138,508 138,507 139,506 139,505 139,504 139,503 140,502 140,501 140,500 140,499 141,498 141,497 141,496 141,495 141,494 142,493 142,492 142,491 142,490 142,489 142,488 143,487 143,486 143,485 143,484 143,483 143,482 143,481 144,480 144,479 144,478 144,477 144,476 144,475 144,474 144,473 144,472 144,471 144,470 144,469 144,468 144,467 144,466 144,465 144,464 144,463 144,462 144,461 144,460 144,459 144,458 144,457 144,456 144,455 144,454 144,453 144,452 143,451 143,450 143,449 143,448 143,447 143,446 143,445 143,444 143,443 143,442 143,441 143,440 143,439 143,438 143,437 143,436 143,435 143,434 143,433 143,432 143,431 143,430 143,429 142,428 142,427 142,426 142,425 142,424 142,423 142,422 141,421 141,420 141,419 141,418 141,417 141,416 141,415 141,414 141,413 141,412 140,411 140,410 140,409 140,408 139,407 139,406 139,405 139,404 139,403 138,402 138,401 138,400 138,399 138,398 137,397 137,396 137,395 137,394 137,393 136,392 136,391 136,390 136,389 135,388 135,387 135,386 135,385 134,384 134,383 134,382 133,381 133,380 133,379 132,378 132,377 132,376 131,375 131,374 131,373 130,372 129,371 128,370 128,369 128,368 127,367 127,366 126,365 125,364 124,364 123,364 122,364 121,364 120,364 119,364 118,364 117,364 116,364 115,364 114,364 113,364 112,364 111,364 110,364 109,364 108,364 107,364 106,364 105,364 104,364 103,364 102,364 101,364 100,364 99,364 98,364 97,364 96,364 95,364 94,364 93,364 92,364 91,364 90,364 89,364 88,364 87,364 86,364 85,364 84,364 83,364 82,364 81,364 80,364 79,364">
      <metadata tailDirection="" confidence="0.94" linkedToCharacter="" id="TetsuSan_005_balloon_9" tailTip=""></metadata>
    </polygon>
    <polygon points="699,117 700,118 700,119 700,120 700,121 699,122 699,123 699,124 698,125 698,126 697,127 697,128 696,129 696,130 695,131 695,132 695,133 696,134 696,135 696,136 697,137 697,138 697,139 697,140 697,141 697,142 697,143 697,144 697,145 697,146 696,147 696,148 696,149 696,150 696,151 696,152 696,153 696,154 696,155 697,156 697,157 697,158 697,159 698,160 698,161 698,162 698,163 698,164 698,165 697,166 697,167 697,168 696,169 696,170 696,171 696,172 696,173 696,174 696,175 696,176 696,177 696,178 697,179 697,180 697,181 697,182 697,183 697,184 697,185 697,186 696,187 696,188 696,189 695,190 695,191 694,192 694,193 694,194 695,195 694,196 694,197 695,198 695,199 695,200 695,201 695,202 695,203 695,204 694,205 693,206 692,207 692,208 691,209 690,209 689,209 690,210 691,210 692,210 693,211 693,212 694,213 694,214 695,215 695,216 695,217 695,218 695,219 695,220 694,221 694,222 693,223 693,224 693,225 692,226 692,227 692,228 692,229 693,230 693,231 694,232 694,233 695,234 695,235 695,236 696,237 696,238 696,239 696,240 695,241 695,242 694,243 694,244 693,245 693,246 693,247 693,248 693,249 693,250 694,251 695,252 695,253 696,254 696,255 697,256 697,257 696,258 696,259 696,260 696,261 696,262 695,263 695,264 695,265 694,266 694,267 694,268 695,269 695,270 696,271 696,272 697,273 697,274 698,275 698,276 698,277 699,278 699,279 698,280 698,281 698,282 698,283 697,284 697,285 697,286 696,287 697,288 697,289 698,290 699,291 700,292 701,293 702,293 703,293 704,293 705,293 706,293 707,294 708,294 709,294 710,294 711,295 712,296 713,297 714,298 715,299 715,300 716,301 716,302 717,303 718,303 719,302 720,302 721,301 722,301 723,300 724,300 725,300 726,300 727,301 728,301 729,302 730,302 731,303 732,304 733,305 734,306 735,306 736,306 737,307 738,307 739,307 740,306 741,305 742,304 743,303 744,302 745,302 746,302 747,302 748,302 749,302 750,303 751,303 752,303 753,303 754,303 755,303 756,303 757,303 757,302 757,301 757,300 757,299 757,298 757,297 757,296 757,295 757,294 757,293 757,292 757,291 757,290 757,289 757,288 757,287 757,286 757,285 757,284 757,283 757,282 757,281 757,280 757,279 757,278 757,277 757,276 757,275 757,274 757,273 757,272 757,271 757,270 757,269 757,268 757,267 757,266 757,265 757,264 757,263 757,262 757,261 757,260 757,259 757,258 757,257 757,256 757,255 757,254 757,253 757,252 757,251 757,250 757,249 757,248 757,247 757,246 757,245 757,244 757,243 757,242 757,241 757,240 757,239 757,238 757,237 757,236 757,235 757,234 757,233 757,232 757,231 757,230 757,229 757,228 757,227 757,226 757,225 757,224 757,223 757,222 757,221 757,220 757,219 757,218 757,217 757,216 757,215 757,214 757,213 757,212 757,211 757,210 757,209 757,208 757,207 757,206 757,205 757,204 757,203 757,202 757,201 757,200 757,199 757,198 757,197 757,196 757,195 757,194 757,193 757,192 757,191 757,190 757,189 757,188 757,187 757,186 757,185 757,184 757,183 757,182 757,181 757,180 757,179 757,178 757,177 757,176 757,175 757,174 757,173 757,172 757,171 757,170 757,169 757,168 757,167 757,166 757,165 757,164 757,163 757,162 757,161 757,160 757,159 757,158 757,157 757,156 757,155 757,154 757,153 757,152 757,151 757,150 757,149 757,148 757,147 757,146 757,145 757,144 757,143 758,142 757,141 757,140 757,139 757,138 757,137 757,136 757,135 757,134 757,133 757,132 757,131 757,130 757,129 757,128 757,127 757,126 757,125 757,124 757,123 757,122 757,121 757,120 757,119 757,118 756,118 755,117 754,117 753,117 752,117 751,117 750,117 749,117 748,117 747,117 746,117 745,117 744,117 743,117 742,117 741,117 740,117 739,117 738,117 737,117 736,117 735,117 734,117 733,117 732,117 731,117 730,117 729,117 728,117 727,117 726,117 725,117 724,117 723,117 722,117 721,117 720,117 719,117 718,117 717,117 716,117 715,117 714,117 713,117 712,117 711,117 710,117 709,117 708,117 707,117 706,117 705,117 704,117 703,117 702,117 701,117 700,117 699,117">
      <metadata tailDirection="" confidence="0.95" linkedToCharacter="" id="TetsuSan_005_balloon_10" tailTip=""></metadata>
    </polygon>
    <polygon points="438,116 438,117 438,118 438,119 438,120 438,121 438,122 438,123 438,124 438,125 438,126 438,127 438,128 438,129 438,130 438,131 438,132 438,133 438,134 438,135 438,136 438,137 438,138 438,139 438,140 438,141 438,142 438,143 438,144 438,145 438,146 438,147 438,148 438,149 438,150 438,151 438,152 438,153 438,154 438,155 438,156 438,157 438,158 438,159 438,160 438,161 438,162 438,163 438,164 438,165 438,166 438,167 438,168 438,169 438,170 438,171 438,172 438,173 438,174 438,175 438,176 438,177 438,178 438,179 438,180 438,181 438,182 438,183 438,184 438,185 438,186 438,187 438,188 438,189 438,190 438,191 438,192 438,193 438,194 438,195 438,196 438,197 438,198 438,199 438,200 438,201 438,202 438,203 438,204 438,205 438,206 438,207 438,208 438,209 438,210 438,211 438,212 438,213 438,214 438,215 438,216 438,217 438,218 438,219 438,220 438,221 438,222 438,223 438,224 438,225 438,226 438,227 438,228 438,229 438,230 438,231 438,232 438,233 438,234 438,235 438,236 438,237 438,238 438,239 438,240 438,241 438,242 438,243 438,244 438,245 438,246 438,247 438,248 438,249 438,250 438,251 438,252 438,253 438,254 438,255 438,256 438,257 438,258 438,259 438,260 438,261 438,262 438,263 438,264 438,265 438,266 438,267 438,268 438,269 438,270 438,271 438,272 438,273 438,274 438,275 438,276 438,277 438,278 438,279 438,280 438,281 438,282 438,283 438,284 438,285 438,286 438,287 438,288 438,289 438,290 438,291 438,292 438,293 438,294 438,295 438,296 438,297 438,298 438,299 438,300 438,301 438,302 438,303 438,304 438,305 438,306 438,307 438,308 438,309 438,310 438,311 438,312 438,313 438,314 438,315 438,316 438,317 438,318 438,319 438,320 438,321 438,322 438,323 438,324 438,325 438,326 438,327 438,328 438,329 438,330 438,331 438,332 438,333 438,334 438,335 438,336 438,337 438,338 438,339 438,340 438,341 438,342 438,343 438,344 438,345 438,346 438,347 438,348 439,348 440,349 441,349 442,349 443,349 444,349 445,349 446,349 447,349 448,349 449,349 450,349 451,349 452,349 453,349 454,349 455,349 456,349 457,349 458,349 459,349 460,349 461,349 462,349 463,349 464,349 465,349 466,349 467,349 468,349 469,349 470,349 471,349 472,349 473,349 474,349 475,349 476,349 477,349 478,349 479,349 480,349 481,349 482,349 483,349 484,349 485,348 486,347 486,346 487,345 488,344 488,343 489,342 490,341 490,340 491,339 491,338 491,337 492,336 492,335 493,334 493,333 494,332 494,331 495,330 495,329 495,328 496,327 496,326 496,325 497,324 497,323 498,322 498,321 498,320 498,319 498,318 499,317 499,316 499,315 499,314 500,313 500,312 500,311 500,310 500,309 501,308 501,307 501,306 501,305 502,304 502,303 502,302 502,301 502,300 503,299 503,298 503,297 503,296 503,295 503,294 503,293 503,292 504,291 504,290 504,289 504,288 504,287 504,286 504,285 504,284 504,283 504,282 504,281 504,280 505,279 505,278 505,277 505,276 505,275 505,274 505,273 505,272 505,271 505,270 505,269 505,268 505,267 505,266 505,265 505,264 505,263 505,262 505,261 505,260 505,259 505,258 506,257 506,256 506,255 506,254 506,253 506,252 506,251 506,250 506,249 506,248 506,247 506,246 506,245 506,244 506,243 506,242 506,241 506,240 506,239 506,238 506,237 506,236 506,235 506,234 506,233 506,232 506,231 506,230 506,229 506,228 506,227 506,226 506,225 506,224 506,223 506,222 506,221 506,220 506,219 506,218 506,217 506,216 506,215 506,214 506,213 506,212 506,211 506,210 506,209 506,208 506,207 506,206 506,205 506,204 506,203 506,202 506,201 506,200 505,199 505,198 505,197 505,196 505,195 505,194 505,193 505,192 505,191 505,190 505,189 504,188 504,187 504,186 504,185 504,184 505,183 506,182 507,182 508,182 509,182 508,182 507,182 506,182 505,182 504,182 503,181 503,180 503,179 503,178 503,177 503,176 503,175 504,174 504,173 504,172 504,171 504,170 504,169 504,168 504,167 504,166 504,165 504,164 504,163 503,162 503,161 503,160 503,159 503,158 503,157 503,156 503,155 503,154 503,153 503,152 503,151 502,150 502,149 502,148 502,147 502,146 501,145 501,144 501,143 501,142 501,141 500,140 500,139 500,138 499,137 499,136 499,135 499,134 498,133 498,132 498,131 497,130 497,129 497,128 496,127 496,126 496,125 495,124 495,123 494,122 494,121 494,120 493,119 493,118 492,117 491,116 490,116 489,116 488,116 487,116 486,116 485,116 484,116 483,116 482,116 481,116 480,116 479,116 478,116 477,116 476,116 475,116 474,116 473,116 472,116 471,116 470,116 469,116 468,116 467,116 466,116 465,116 464,116 463,116 462,116 461,116 460,116 459,116 458,116 457,116 456,116 455,116 454,116 453,116 452,116 451,116 450,116 449,116 448,116 447,116 446,116 445,116 444,116 443,116 442,116 441,116 440,116 439,116 438,116">
      <metadata tailDirection="" confidence="0.90" linkedToCharacter="" id="TetsuSan_005_balloon_11" tailTip=""></metadata>
    </polygon>
    <polygon points="345,116 345,117 345,118 345,119 344,120 344,121 344,122 344,123 343,124 343,125 343,126 343,127 343,128 343,129 343,130 344,131 344,132 344,133 344,134 344,135 344,136 344,137 344,138 343,139 343,140 343,141 342,142 342,143 342,144 342,145 341,146 341,147 341,148 341,149 341,150 341,151 342,152 342,153 342,154 342,155 343,156 343,157 343,158 343,159 343,160 343,161 342,162 342,163 342,164 341,165 341,166 342,167 342,168 342,169 342,170 343,171 343,172 343,173 343,174 343,175 343,176 343,177 343,178 343,179 342,180 342,181 342,182 342,183 342,184 342,185 342,186 342,187 342,188 343,189 343,190 343,191 343,192 343,193 343,194 343,195 343,196 343,197 342,198 342,199 342,200 341,201 341,202 342,203 342,204 342,205 342,206 342,207 342,208 342,209 342,210 342,211 342,212 342,213 342,214 342,215 342,216 342,217 342,218 343,219 343,220 342,221 341,222 340,222 339,223 338,223 339,223 340,223 341,224 342,224 343,224 344,225 343,226 343,227 343,228 343,229 343,230 343,231 343,232 342,233 342,234 342,235 341,236 341,237 340,238 340,239 340,240 339,241 339,242 339,243 340,244 340,245 340,246 341,247 341,248 342,249 342,250 342,251 342,252 342,253 343,254 343,255 343,256 343,257 342,258 342,259 342,260 342,261 341,262 341,263 341,264 341,265 341,266 342,267 342,268 343,269 343,270 343,271 343,272 343,273 342,274 342,275 342,276 342,277 341,278 340,279 340,280 340,281 340,282 340,283 340,284 340,285 341,286 341,287 342,288 342,289 343,290 343,291 343,292 343,293 343,294 343,295 343,296 342,297 342,298 341,299 341,300 341,301 341,302 341,303 341,304 341,305 341,306 342,307 343,308 343,309 344,310 344,311 344,312 344,313 344,314 344,315 343,316 343,317 343,318 343,319 343,320 344,321 345,321 346,321 347,321 348,322 349,322 350,322 351,323 351,324 352,325 353,326 353,327 354,328 355,329 356,330 357,331 358,331 359,331 360,331 361,332 362,332 363,331 364,331 365,331 366,330 367,330 368,330 369,329 370,329 371,329 372,330 373,331 373,332 374,333 375,333 376,333 377,333 378,333 379,333 380,333 381,333 382,332 383,332 384,332 385,331 386,330 387,330 388,330 389,329 390,329 391,329 392,330 393,330 394,330 395,330 396,330 397,330 398,329 398,328 398,327 398,326 398,325 398,324 398,323 398,322 398,321 398,320 398,319 398,318 398,317 398,316 398,315 398,314 398,313 398,312 398,311 398,310 398,309 398,308 398,307 398,306 398,305 398,304 398,303 398,302 398,301 398,300 398,299 398,298 398,297 398,296 398,295 398,294 398,293 398,292 398,291 398,290 398,289 398,288 398,287 398,286 398,285 398,284 398,283 398,282 398,281 398,280 398,279 398,278 398,277 398,276 398,275 398,274 398,273 398,272 398,271 398,270 398,269 398,268 398,267 398,266 398,265 398,264 398,263 398,262 398,261 398,260 398,259 398,258 398,257 398,256 398,255 398,254 398,253 398,252 398,251 398,250 398,249 398,248 398,247 398,246 398,245 398,244 398,243 398,242 398,241 398,240 398,239 398,238 398,237 398,236 398,235 398,234 398,233 398,232 398,231 398,230 398,229 398,228 398,227 398,226 398,225 398,224 398,223 398,222 398,221 398,220 398,219 398,218 398,217 398,216 398,215 398,214 398,213 398,212 398,211 398,210 398,209 398,208 398,207 398,206 398,205 398,204 398,203 398,202 398,201 398,200 398,199 398,198 398,197 398,196 398,195 398,194 398,193 398,192 398,191 398,190 398,189 398,188 398,187 398,186 398,185 398,184 398,183 398,182 398,181 398,180 398,179 398,178 398,177 398,176 398,175 398,174 398,173 398,172 398,171 398,170 398,169 398,168 398,167 398,166 398,165 398,164 398,163 398,162 398,161 398,160 398,159 398,158 398,157 398,156 398,155 398,154 398,153 398,152 398,151 398,150 398,149 398,148 398,147 398,146 398,145 398,144 398,143 398,142 398,141 398,140 398,139 398,138 398,137 398,136 398,135 398,134 398,133 398,132 398,131 398,130 398,129 398,128 398,127 398,126 398,125 398,124 398,123 398,122 398,121 398,120 398,119 398,118 398,117 398,116 397,116 396,116 395,116 394,116 393,116 392,116 391,116 390,116 389,116 388,116 387,116 386,116 385,116 384,116 383,116 382,116 381,116 380,116 379,116 378,116 377,116 376,116 375,116 374,116 373,116 372,116 371,116 370,116 369,116 368,116 367,116 366,116 365,116 364,116 363,116 362,116 361,116 360,116 359,116 358,116 357,116 356,116 355,116 354,116 353,116 352,116 351,116 350,116 349,116 348,116 347,116 346,116 345,116">
      <metadata tailDirection="" confidence="0.93" linkedToCharacter="" id="TetsuSan_005_balloon_12" tailTip=""></metadata>
    </polygon>
    <polygon points="78,115 78,116 78,117 78,118 78,119 78,120 78,121 78,122 78,123 78,124 78,125 78,126 78,127 78,128 78,129 78,130 78,131 78,132 78,133 78,134 78,135 78,136 78,137 78,138 78,139 78,140 78,141 78,142 78,143 78,144 78,145 78,146 78,147 78,148 78,149 78,150 78,151 78,152 78,153 78,154 78,155 78,156 78,157 78,158 78,159 78,160 78,161 78,162 78,163 78,164 78,165 78,166 78,167 78,168 78,169 78,170 78,171 78,172 78,173 78,174 78,175 78,176 78,177 78,178 78,179 78,180 78,181 78,182 78,183 78,184 78,185 78,186 78,187 78,188 78,189 78,190 78,191 78,192 78,193 78,194 78,195 78,196 78,197 78,198 78,199 78,200 78,201 78,202 78,203 78,204 78,205 78,206 78,207 78,208 78,209 78,210 78,211 78,212 78,213 78,214 78,215 78,216 78,217 78,218 78,219 78,220 78,221 78,222 77,223 77,224 78,225 78,226 78,227 78,228 78,229 78,230 78,231 78,232 78,233 78,234 78,235 78,236 78,237 78,238 78,239 78,240 78,241 78,242 78,243 78,244 78,245 78,246 78,247 77,248 78,249 78,250 78,251 78,252 78,253 78,254 78,255 77,256 77,257 77,258 78,259 78,260 78,261 78,262 78,263 79,264 80,264 81,265 82,265 83,265 84,265 85,265 86,265 87,265 88,265 89,266 90,266 91,266 92,266 93,266 94,265 95,265 96,265 97,265 98,265 99,265 100,265 101,264 102,264 103,264 104,263 105,262 106,262 107,262 108,261 109,260 110,260 111,259 112,258 113,258 114,257 115,257 116,256 117,255 117,254 118,253 119,252 120,251 121,250 121,249 122,248 122,247 123,246 123,245 124,244 124,243 125,242 125,241 126,240 126,239 126,238 127,237 127,236 127,235 128,234 128,233 128,232 128,231 129,230 129,229 129,228 129,227 129,226 130,225 130,224 130,223 130,222 130,221 131,220 131,219 131,218 131,217 131,216 131,215 131,214 131,213 131,212 131,211 131,210 131,209 131,208 131,207 131,206 131,205 132,204 132,203 132,202 131,201 131,200 131,199 131,198 131,197 131,196 131,195 131,194 131,193 131,192 131,191 131,190 130,189 130,188 130,187 130,186 130,185 129,184 129,183 130,182 131,182 131,181 130,181 129,180 129,179 129,178 129,177 129,176 129,175 129,174 129,173 129,172 129,171 129,170 129,169 129,168 129,167 129,166 129,165 129,164 129,163 129,162 128,161 128,160 128,159 128,158 128,157 128,156 127,155 127,154 127,153 127,152 127,151 126,150 126,149 126,148 126,147 125,146 125,145 125,144 125,143 124,142 124,141 124,140 123,139 123,138 123,137 123,136 122,135 122,134 122,133 122,132 121,131 121,130 120,129 120,128 120,127 119,126 119,125 118,124 118,123 117,122 116,121 116,120 115,119 115,118 114,117 113,116 113,115 112,115 111,115 110,115 109,115 108,115 107,115 106,115 105,115 104,115 103,115 102,115 101,115 100,115 99,115 98,115 97,115 96,115 95,115 94,115 93,115 92,115 91,115 90,115 89,115 88,115 87,115 86,115 85,115 84,115 83,115 82,115 81,115 80,115 79,115 78,115">
      <metadata tailDirection="" confidence="0.99" linkedToCharacter="" id="TetsuSan_005_balloon_13" tailTip=""></metadata>
    </polygon>
  </svg>
</svg>
