<?xml version="1.0" encoding="UTF-8" standalone="no"?>
<svg width="827" xmlns="http://www.w3.org/2000/svg" version="1.0" height="1170">
  <title>TetsuSan_036</title>
  <svg contentScriptType="text/ecmascript" zoomAndPan="magnify" contentStyleType="text/css" class="Page" preserveAspectRatio="xMidYMid meet" version="1.0">
    <image xmlns:xlink="http://www.w3.org/1999/xlink" x="0" y="0" width="827" height="1170" xlink:href="./../../dataset_Manga109/TetsuSan/TetsuSan_036.jpg" xlink:type="simple" xlink:actuate="onLoad" preserveAspectRatio="xMidYMid meet" xlink:show="embed"/>
  </svg>
  <style type="text/css" xml:space="preserve">
        * { stroke-linejoin: round; }
        .Unclassified   { fill: orange; stroke: none;   opacity: 1.0; visibility: hidden; }
        .Noise          { fill: pink;   stroke: none;   opacity: 0.2; visibility: hidden; }
        .Panel          { fill: none;   stroke: red;    stroke-width:3; opacity: 0.5; visibility: visible; image-rendering: optimizeSpeed; }
        .Line           { fill: green;  stroke: none;   opacity: 0.5; visibility: visible; image-rendering: optimizeSpeed; }
        .TextArea       { fill: grey;   stroke: none;   opacity: 0.2; visibility: visible; image-rendering: optimizeSpeed; }
        .Balloon        { fill: cyan;   stroke: none;   opacity: 0.5; visibility: visible; image-rendering: optimizeSpeed; }
        .Letter         { fill: blue;   stroke: none;   opacity: 0.2; visibility: hidden; }
        .Object, .Character, .Face  { fill: yellow; stroke: none;   opacity: 0.5; visibility: visible; image-rendering: optimizeSpeed; }
        .Page           { fill: white;  stroke: none;    opacity: 0.5; visibility: visible; }
        .linkSBSC { fill: blue; stroke: none; opacity: 1.0; visibility: visible; }
        polygon:hover { opacity:1.0; stroke:red; }
</style>
  <svg xmlns="http://www.w3.org/2000/svg" contentScriptType="text/ecmascript" zoomAndPan="magnify" contentStyleType="text/css" class="Balloon" preserveAspectRatio="xMidYMid meet" version="1.0">
    <polygon points="676,867 677,868 677,869 678,870 678,871 679,872 679,873 679,874 680,875 680,876 680,877 680,878 680,879 681,880 681,881 681,882 681,883 681,884 681,885 681,886 681,887 680,888 680,889 680,890 680,891 680,892 679,893 679,894 679,895 678,896 678,897 678,898 677,899 676,900 676,901 675,902 676,903 677,904 678,905 679,906 679,907 679,908 680,909 680,910 680,911 680,912 680,913 680,914 680,915 680,916 680,917 679,918 679,919 679,920 679,921 679,922 678,923 678,924 678,925 677,926 677,927 677,928 676,929 676,930 675,931 674,932 674,933 674,934 675,935 676,936 677,937 677,938 678,939 678,940 678,941 678,942 679,943 678,944 678,945 678,946 678,947 678,948 678,949 678,950 677,951 677,952 677,953 677,954 676,955 676,956 675,957 675,958 674,959 675,959 676,959 677,960 678,961 678,962 678,963 678,964 678,965 678,966 677,967 677,968 676,969 676,970 675,971 674,972 673,973 672,974 671,975 670,976 671,976 672,977 673,977 674,978 675,979 676,980 677,981 677,982 678,983 678,984 679,985 679,986 679,987 679,988 680,989 680,990 680,991 680,992 680,993 679,994 679,995 679,996 679,997 679,998 678,999 678,1000 678,1001 678,1002 677,1003 677,1004 676,1005 676,1006 676,1007 675,1008 675,1009 674,1010 674,1011 673,1012 672,1013 671,1014 671,1015 672,1015 673,1016 674,1017 675,1018 675,1019 676,1020 676,1021 676,1022 676,1023 676,1024 676,1025 677,1026 677,1027 677,1028 676,1029 676,1030 676,1031 676,1032 676,1033 676,1034 676,1035 676,1036 676,1037 675,1038 675,1039 675,1040 675,1041 674,1042 674,1043 674,1044 675,1044 676,1044 677,1045 678,1045 679,1046 680,1047 680,1048 681,1049 681,1050 681,1051 681,1052 681,1053 681,1054 681,1055 681,1056 681,1057 681,1058 681,1059 681,1060 681,1061 681,1062 682,1062 683,1062 684,1062 685,1062 686,1062 687,1062 688,1063 689,1064 690,1065 691,1066 691,1067 692,1068 692,1069 692,1070 693,1071 693,1072 693,1073 693,1074 693,1075 694,1074 695,1074 696,1073 697,1073 698,1073 699,1073 700,1073 701,1073 702,1073 703,1073 704,1073 705,1073 706,1073 707,1074 708,1075 709,1076 710,1077 710,1078 711,1079 711,1080 711,1081 712,1080 713,1080 714,1079 715,1078 716,1077 717,1077 718,1076 719,1076 720,1075 721,1075 722,1075 723,1074 724,1074 725,1074 726,1074 727,1074 728,1074 729,1073 730,1073 731,1073 732,1073 733,1073 734,1073 735,1073 736,1073 737,1073 737,1072 737,1071 737,1070 737,1069 737,1068 737,1067 737,1066 737,1065 737,1064 737,1063 737,1062 737,1061 737,1060 737,1059 737,1058 737,1057 737,1056 737,1055 737,1054 737,1053 737,1052 737,1051 737,1050 737,1049 737,1048 737,1047 737,1046 737,1045 737,1044 737,1043 737,1042 737,1041 737,1040 737,1039 737,1038 737,1037 737,1036 737,1035 737,1034 737,1033 737,1032 737,1031 737,1030 737,1029 737,1028 737,1027 737,1026 737,1025 737,1024 737,1023 737,1022 737,1021 737,1020 737,1019 737,1018 737,1017 737,1016 737,1015 737,1014 737,1013 737,1012 737,1011 737,1010 737,1009 737,1008 737,1007 737,1006 737,1005 737,1004 737,1003 737,1002 737,1001 737,1000 737,999 737,998 737,997 737,996 737,995 737,994 737,993 737,992 737,991 737,990 737,989 737,988 737,987 737,986 737,985 737,984 737,983 737,982 737,981 737,980 737,979 737,978 737,977 737,976 737,975 737,974 737,973 737,972 737,971 737,970 737,969 737,968 737,967 737,966 737,965 737,964 737,963 737,962 737,961 737,960 737,959 737,958 737,957 737,956 737,955 737,954 737,953 737,952 737,951 737,950 737,949 737,948 737,947 737,946 737,945 737,944 737,943 737,942 737,941 737,940 737,939 737,938 737,937 737,936 737,935 737,934 737,933 737,932 737,931 737,930 737,929 737,928 737,927 737,926 737,925 737,924 737,923 737,922 737,921 737,920 737,919 737,918 737,917 737,916 737,915 737,914 737,913 737,912 737,911 737,910 737,909 737,908 737,907 737,906 737,905 737,904 737,903 737,902 737,901 737,900 737,899 737,898 737,897 737,896 737,895 737,894 737,893 737,892 737,891 737,890 737,889 737,888 737,887 737,886 737,885 737,884 737,883 737,882 737,881 737,880 737,879 737,878 737,877 737,876 737,875 737,874 737,873 737,872 737,871 737,870 737,869 737,868 737,867 736,867 735,867 734,867 733,867 732,867 731,867 730,867 729,867 728,867 727,867 726,867 725,867 724,867 723,867 722,867 721,867 720,867 719,867 718,867 717,867 716,867 715,867 714,867 713,867 712,867 711,867 710,867 709,867 708,867 707,867 706,867 705,867 704,867 703,867 702,867 701,867 700,867 699,867 698,867 697,867 696,867 695,867 694,867 693,867 692,867 691,867 690,867 689,867 688,867 687,867 686,867 685,867 684,867 683,867 682,867 681,867 680,867 679,867 678,867 677,867 676,867">
      <metadata tailDirection="" confidence="0.98" linkedToCharacter="" id="TetsuSan_036_balloon_0" tailTip=""></metadata>
    </polygon>
    <polygon points="317,865 317,866 316,867 316,868 316,869 316,870 316,871 315,872 315,873 315,874 315,875 315,876 314,877 314,878 314,879 314,880 314,881 314,882 314,883 314,884 313,885 313,886 313,887 313,888 313,889 313,890 313,891 312,892 312,893 312,894 312,895 312,896 312,897 312,898 312,899 312,900 312,901 312,902 312,903 312,904 312,905 312,906 312,907 312,908 311,909 311,910 311,911 311,912 311,913 311,914 311,915 311,916 311,917 311,918 311,919 311,920 311,921 311,922 311,923 311,924 311,925 311,926 311,927 311,928 311,929 311,930 311,931 311,932 311,933 311,934 311,935 311,936 311,937 311,938 311,939 311,940 311,941 311,942 311,943 311,944 311,945 311,946 311,947 311,948 311,949 311,950 311,951 311,952 311,953 311,954 311,955 311,956 311,957 311,958 311,959 311,960 311,961 311,962 311,963 311,964 311,965 311,966 312,967 312,968 312,969 312,970 312,971 312,972 312,973 311,974 310,974 309,974 308,975 307,975 308,976 309,976 310,977 310,978 310,979 310,980 311,981 311,982 311,983 310,984 310,985 310,986 310,987 310,988 310,989 310,990 310,991 310,992 310,993 310,994 310,995 310,996 310,997 310,998 310,999 310,1000 310,1001 310,1002 310,1003 310,1004 311,1005 311,1006 311,1007 311,1008 311,1009 311,1010 311,1011 312,1012 312,1013 312,1014 312,1015 312,1016 312,1017 312,1018 313,1019 313,1020 313,1021 313,1022 313,1023 314,1024 314,1025 314,1026 314,1027 314,1028 314,1029 315,1030 315,1031 315,1032 316,1033 316,1034 316,1035 317,1036 317,1037 317,1038 318,1039 318,1040 319,1041 319,1042 319,1043 320,1044 321,1045 321,1046 322,1047 322,1048 323,1049 324,1050 324,1051 325,1052 326,1053 327,1054 328,1055 329,1056 330,1057 331,1057 332,1058 333,1059 334,1060 335,1060 336,1061 337,1061 338,1062 339,1062 340,1063 341,1064 342,1064 343,1065 344,1065 345,1065 346,1066 347,1066 348,1066 349,1066 350,1066 351,1066 352,1067 353,1067 354,1066 355,1066 356,1067 357,1067 358,1067 359,1067 360,1067 361,1067 362,1067 363,1067 364,1067 365,1067 366,1067 367,1066 368,1066 369,1065 370,1065 371,1065 372,1065 373,1064 374,1064 375,1063 376,1063 377,1062 378,1062 378,1061 378,1060 378,1059 378,1058 378,1057 378,1056 378,1055 378,1054 378,1053 378,1052 378,1051 378,1050 378,1049 378,1048 378,1047 378,1046 378,1045 378,1044 378,1043 378,1042 378,1041 378,1040 378,1039 378,1038 378,1037 379,1036 378,1035 378,1034 378,1033 378,1032 378,1031 378,1030 379,1029 378,1028 378,1027 378,1026 378,1025 378,1024 378,1023 378,1022 378,1021 378,1020 379,1019 379,1018 379,1017 378,1016 378,1015 378,1014 378,1013 378,1012 378,1011 379,1010 378,1009 378,1008 378,1007 378,1006 378,1005 378,1004 378,1003 378,1002 378,1001 378,1000 378,999 378,998 378,997 378,996 378,995 378,994 378,993 378,992 378,991 378,990 378,989 378,988 378,987 378,986 378,985 378,984 378,983 378,982 378,981 378,980 378,979 378,978 378,977 378,976 378,975 378,974 378,973 378,972 378,971 378,970 378,969 378,968 378,967 378,966 378,965 378,964 378,963 378,962 378,961 378,960 378,959 378,958 378,957 378,956 378,955 378,954 378,953 378,952 378,951 378,950 378,949 378,948 378,947 378,946 378,945 378,944 378,943 378,942 378,941 378,940 378,939 378,938 378,937 378,936 378,935 378,934 378,933 378,932 378,931 378,930 378,929 378,928 378,927 378,926 378,925 378,924 378,923 378,922 378,921 378,920 378,919 378,918 378,917 378,916 378,915 378,914 378,913 378,912 378,911 378,910 378,909 378,908 378,907 378,906 378,905 378,904 378,903 378,902 378,901 378,900 378,899 378,898 378,897 378,896 378,895 378,894 378,893 378,892 378,891 378,890 378,889 378,888 378,887 378,886 378,885 378,884 378,883 378,882 378,881 378,880 378,879 378,878 378,877 378,876 378,875 378,874 378,873 378,872 378,871 378,870 378,869 378,868 378,867 378,866 377,866 376,866 375,866 374,866 373,866 372,865 371,866 370,866 369,866 368,866 367,866 366,866 365,866 364,866 363,865 362,866 361,866 360,866 359,865 358,865 357,865 356,865 355,865 354,865 353,865 352,865 351,865 350,865 349,865 348,865 347,865 346,865 345,865 344,865 343,865 342,865 341,865 340,865 339,865 338,865 337,865 336,865 335,865 334,865 333,865 332,865 331,865 330,865 329,865 328,865 327,865 326,865 325,865 324,865 323,865 322,865 321,865 320,865 319,865 318,865 317,865">
      <metadata tailDirection="" confidence="0.90" linkedToCharacter="" id="TetsuSan_036_balloon_1" tailTip=""></metadata>
    </polygon>
    <polygon points="78,864 77,865 76,865 75,865 74,865 73,865 72,865 71,865 70,865 69,865 68,865 67,865 66,865 65,865 64,865 63,865 62,865 61,865 60,865 60,866 60,867 60,868 60,869 60,870 60,871 60,872 60,873 60,874 60,875 60,876 60,877 60,878 60,879 60,880 60,881 60,882 60,883 60,884 60,885 60,886 60,887 60,888 60,889 60,890 60,891 60,892 60,893 60,894 60,895 60,896 60,897 60,898 60,899 60,900 60,901 60,902 60,903 60,904 60,905 60,906 60,907 60,908 60,909 60,910 60,911 60,912 60,913 60,914 60,915 60,916 60,917 60,918 60,919 60,920 60,921 60,922 60,923 60,924 60,925 60,926 60,927 60,928 60,929 60,930 60,931 60,932 60,933 60,934 60,935 60,936 60,937 60,938 60,939 60,940 60,941 60,942 60,943 60,944 60,945 60,946 60,947 60,948 60,949 60,950 60,951 60,952 60,953 60,954 60,955 60,956 60,957 60,958 60,959 61,960 61,961 60,962 60,963 61,964 60,965 60,966 60,967 60,968 61,969 61,970 60,971 61,972 61,973 61,974 61,975 61,976 61,977 61,978 61,979 61,980 61,981 61,982 61,983 61,984 61,985 61,986 61,987 61,988 61,989 61,990 61,991 61,992 61,993 62,994 63,995 64,995 65,996 66,996 67,997 68,997 69,997 70,997 71,998 72,998 73,998 74,998 75,999 76,999 77,999 78,999 79,999 80,999 81,999 82,999 83,999 84,999 85,999 86,999 87,998 88,998 89,998 90,998 91,998 92,997 93,997 94,997 95,996 96,996 97,996 98,995 99,995 100,995 101,994 102,993 103,993 104,992 105,991 106,990 107,989 107,988 108,987 109,986 110,985 110,984 111,983 112,983 113,983 114,984 115,984 114,984 113,983 112,982 111,981 111,980 112,979 113,978 114,977 115,976 115,975 116,974 116,973 116,972 117,971 117,970 118,969 118,968 118,967 119,966 119,965 119,964 119,963 120,962 120,961 120,960 120,959 120,958 120,957 121,956 121,955 121,954 121,953 121,952 121,951 121,950 121,949 121,948 121,947 121,946 121,945 121,944 121,943 121,942 122,941 121,940 121,939 121,938 121,937 121,936 121,935 121,934 121,933 121,932 121,931 121,930 121,929 121,928 121,927 121,926 121,925 121,924 121,923 121,922 121,921 121,920 121,919 121,918 121,917 121,916 121,915 121,914 120,913 120,912 120,911 120,910 120,909 120,908 120,907 120,906 120,905 119,904 119,903 119,902 119,901 119,900 118,899 118,898 118,897 118,896 118,895 118,894 118,893 117,892 117,891 117,890 117,889 117,888 117,887 116,886 116,885 116,884 116,883 115,882 115,881 114,880 114,879 114,878 114,877 113,876 113,875 113,874 112,873 112,872 111,871 111,870 111,869 110,868 110,867 109,866 109,865 108,865 107,865 106,865 105,865 104,865 103,865 102,865 101,865 100,865 99,865 98,865 97,865 96,865 95,865 94,865 93,865 92,865 91,864 90,864 89,864 88,864 87,865 86,865 85,865 84,865 83,865 82,865 81,865 80,865 79,864 78,864">
      <metadata tailDirection="" confidence="0.99" linkedToCharacter="" id="TetsuSan_036_balloon_2" tailTip=""></metadata>
    </polygon>
    <polygon points="692,619 692,620 693,621 694,622 694,623 695,624 695,625 695,626 695,627 695,628 695,629 695,630 695,631 695,632 695,633 695,634 695,635 694,636 694,637 694,638 693,639 693,640 692,641 692,642 691,643 690,644 689,645 688,646 688,647 689,648 690,649 691,650 691,651 691,652 691,653 691,654 692,655 692,656 692,657 691,658 691,659 691,660 691,661 691,662 691,663 690,664 690,665 690,666 690,667 690,668 690,669 689,670 688,671 688,672 689,672 690,673 691,674 692,675 693,676 693,677 693,678 694,679 694,680 694,681 694,682 694,683 694,684 694,685 694,686 693,687 693,688 693,689 692,690 692,691 692,692 691,693 691,694 690,695 690,696 689,697 689,698 688,699 687,700 686,701 686,702 687,703 688,704 688,705 688,706 689,707 689,708 689,709 689,710 689,711 689,712 689,713 689,714 689,715 689,716 689,717 689,718 689,719 688,720 688,721 688,722 687,723 687,724 687,725 687,726 686,727 686,728 686,729 685,730 684,731 685,732 686,732 687,733 688,734 688,735 688,736 689,737 689,738 689,739 689,740 689,741 689,742 689,743 688,744 688,745 688,746 688,747 688,748 688,749 688,750 687,751 686,752 686,753 686,754 685,755 685,756 686,756 687,756 688,756 689,756 690,756 691,756 692,756 693,757 694,757 695,758 696,759 696,760 697,761 697,762 698,763 698,764 698,765 698,766 698,767 698,768 699,769 699,770 699,771 699,772 699,773 698,774 698,775 698,776 698,777 698,778 698,779 699,778 700,777 701,777 702,777 703,776 704,776 705,776 706,777 707,777 708,777 709,777 710,777 711,778 712,778 713,779 714,780 715,781 715,782 716,783 716,784 717,783 718,783 719,782 720,782 721,781 722,780 723,780 724,779 725,779 726,779 727,779 728,779 729,779 730,779 731,778 732,779 733,778 734,778 735,778 736,778 737,779 737,778 737,777 737,776 737,775 737,774 737,773 737,772 737,771 737,770 737,769 737,768 737,767 737,766 737,765 737,764 737,763 737,762 737,761 737,760 737,759 737,758 737,757 737,756 737,755 737,754 737,753 737,752 737,751 737,750 737,749 737,748 737,747 737,746 737,745 737,744 737,743 737,742 737,741 737,740 737,739 737,738 737,737 737,736 737,735 737,734 737,733 737,732 737,731 737,730 737,729 737,728 737,727 737,726 737,725 737,724 737,723 737,722 737,721 737,720 737,719 737,718 737,717 737,716 737,715 737,714 737,713 737,712 737,711 737,710 737,709 737,708 737,707 737,706 737,705 737,704 737,703 737,702 737,701 737,700 737,699 737,698 737,697 737,696 737,695 737,694 737,693 737,692 737,691 737,690 737,689 737,688 737,687 737,686 737,685 737,684 737,683 737,682 737,681 737,680 737,679 737,678 737,677 737,676 737,675 737,674 737,673 737,672 737,671 737,670 737,669 737,668 737,667 737,666 737,665 737,664 737,663 737,662 737,661 737,660 737,659 737,658 737,657 737,656 737,655 737,654 737,653 737,652 737,651 737,650 737,649 737,648 737,647 737,646 737,645 737,644 737,643 737,642 737,641 737,640 737,639 737,638 737,637 737,636 737,635 737,634 737,633 737,632 737,631 737,630 737,629 737,628 737,627 737,626 737,625 737,624 737,623 737,622 737,621 737,620 736,620 735,620 734,620 733,620 732,620 731,620 730,620 729,620 728,620 727,620 726,620 725,620 724,619 723,619 722,619 721,619 720,619 719,619 718,619 717,619 716,619 715,619 714,619 713,619 712,619 711,619 710,619 709,620 708,619 707,619 706,619 705,619 704,619 703,619 702,619 701,619 700,619 699,619 698,619 697,619 696,619 695,619 694,619 693,620 692,619">
      <metadata tailDirection="" confidence="0.93" linkedToCharacter="" id="TetsuSan_036_balloon_3" tailTip=""></metadata>
    </polygon>
    <polygon points="420,619 420,620 420,621 420,622 420,623 420,624 420,625 420,626 419,627 419,628 419,629 419,630 419,631 419,632 419,633 419,634 419,635 419,636 419,637 419,638 419,639 419,640 419,641 419,642 419,643 419,644 419,645 419,646 419,647 419,648 419,649 419,650 419,651 419,652 419,653 419,654 419,655 419,656 419,657 419,658 419,659 419,660 419,661 419,662 419,663 419,664 419,665 419,666 419,667 419,668 419,669 419,670 419,671 419,672 419,673 419,674 419,675 419,676 419,677 419,678 419,679 419,680 419,681 419,682 419,683 419,684 419,685 419,686 419,687 419,688 419,689 419,690 419,691 419,692 419,693 419,694 419,695 419,696 419,697 419,698 419,699 419,700 419,701 419,702 419,703 419,704 419,705 419,706 419,707 419,708 419,709 419,710 419,711 419,712 419,713 419,714 419,715 419,716 419,717 419,718 419,719 419,720 419,721 419,722 419,723 419,724 419,725 419,726 419,727 419,728 419,729 419,730 419,731 419,732 419,733 419,734 419,735 419,736 419,737 419,738 419,739 419,740 419,741 419,742 419,743 419,744 419,745 419,746 419,747 419,748 419,749 419,750 419,751 419,752 419,753 419,754 419,755 419,756 419,757 419,758 419,759 419,760 419,761 419,762 419,763 419,764 419,765 419,766 419,767 419,768 419,769 419,770 419,771 419,772 419,773 419,774 419,775 419,776 419,777 419,778 419,779 419,780 419,781 419,782 419,783 419,784 419,785 419,786 419,787 419,788 419,789 419,790 419,791 419,792 419,793 419,794 419,795 419,796 419,797 419,798 419,799 419,800 419,801 419,802 419,803 419,804 419,805 419,806 419,807 419,808 419,809 419,810 419,811 419,812 419,813 419,814 419,815 419,816 419,817 419,818 419,819 419,820 419,821 419,822 419,823 419,824 419,825 420,824 421,824 422,824 423,823 424,823 425,823 426,824 427,824 428,824 429,824 430,824 431,824 432,824 433,824 434,825 435,825 436,825 437,826 438,826 439,827 440,827 441,828 442,828 443,829 444,830 445,831 446,832 447,833 448,834 449,835 449,836 450,835 450,834 451,833 452,832 453,831 454,831 455,830 456,829 457,829 458,828 459,828 460,828 461,828 462,828 463,827 464,827 465,827 466,827 467,828 468,828 469,828 470,828 471,829 472,829 473,829 473,828 473,827 474,826 474,825 475,824 475,823 476,822 477,821 477,820 478,819 479,818 480,817 480,816 481,815 482,814 483,813 484,812 485,811 486,811 487,810 488,809 489,808 490,807 489,806 489,805 489,804 489,803 488,802 488,801 488,800 488,799 488,798 488,797 488,796 488,795 488,794 488,793 488,792 488,791 488,790 488,789 488,788 488,787 488,786 488,785 489,784 489,783 489,782 489,781 490,780 490,779 490,778 491,777 491,776 492,775 492,774 491,773 490,772 490,771 490,770 489,769 489,768 489,767 489,766 488,765 489,764 489,763 489,762 489,761 489,760 489,759 489,758 489,757 489,756 489,755 489,754 489,753 489,752 490,751 490,750 490,749 490,748 491,747 491,746 491,745 491,744 492,743 492,742 492,741 493,740 493,739 494,738 494,737 495,736 495,735 495,734 494,733 494,732 493,731 493,730 493,729 493,728 492,727 492,726 492,725 492,724 492,723 491,722 491,721 491,720 491,719 491,718 491,717 491,716 491,715 491,714 491,713 491,712 491,711 491,710 491,709 491,708 491,707 491,706 491,705 491,704 491,703 491,702 491,701 492,700 492,699 492,698 492,697 493,696 493,695 493,694 494,693 494,692 494,691 493,690 493,689 492,688 492,687 491,686 491,685 491,684 490,683 490,682 490,681 490,680 489,679 489,678 489,677 489,676 489,675 488,674 488,673 488,672 488,671 488,670 488,669 488,668 488,667 488,666 488,665 488,664 488,663 488,662 488,661 488,660 488,659 489,658 489,657 489,656 489,655 490,654 490,653 490,652 490,651 490,650 489,649 488,648 487,647 487,646 486,645 486,644 485,643 485,642 484,641 484,640 484,639 483,638 483,637 483,636 483,635 483,634 482,633 483,632 483,631 483,630 483,629 483,628 483,627 483,626 483,625 483,624 484,623 484,622 484,621 485,620 485,619 484,619 483,619 482,619 481,619 480,619 479,619 478,619 477,619 476,619 475,619 474,619 473,619 472,619 471,619 470,619 469,619 468,619 467,619 466,619 465,619 464,619 463,619 462,619 461,619 460,619 459,619 458,619 457,619 456,619 455,619 454,619 453,619 452,619 451,619 450,619 449,619 448,619 447,619 446,619 445,619 444,619 443,619 442,619 441,619 440,619 439,619 438,619 437,619 436,619 435,619 434,619 433,619 432,619 431,619 430,619 429,619 428,619 427,619 426,619 425,619 424,619 423,619 422,619 421,619 420,619">
      <metadata tailDirection="" confidence="0.90" linkedToCharacter="" id="TetsuSan_036_balloon_4" tailTip=""></metadata>
    </polygon>
    <polygon points="314,619 314,620 314,621 313,622 313,623 313,624 313,625 313,626 313,627 313,628 312,629 312,630 312,631 312,632 311,633 311,634 311,635 311,636 311,637 310,638 310,639 310,640 310,641 310,642 310,643 310,644 310,645 310,646 309,647 309,648 309,649 309,650 309,651 309,652 309,653 309,654 309,655 309,656 309,657 309,658 309,659 309,660 309,661 309,662 309,663 309,664 308,665 307,666 306,666 305,666 304,666 303,666 304,667 305,667 306,667 307,668 307,669 308,670 308,671 308,672 308,673 308,674 308,675 308,676 308,677 308,678 308,679 308,680 308,681 308,682 307,683 307,684 307,685 307,686 307,687 307,688 307,689 307,690 307,691 307,692 307,693 307,694 307,695 307,696 308,697 308,698 308,699 308,700 308,701 308,702 308,703 308,704 308,705 308,706 308,707 308,708 308,709 308,710 308,711 308,712 308,713 309,714 309,715 309,716 309,717 310,718 310,719 310,720 310,721 310,722 311,723 311,724 311,725 311,726 312,727 312,728 312,729 313,730 313,731 313,732 314,733 314,734 315,735 315,736 316,737 316,738 317,739 318,740 318,741 319,742 319,743 320,744 320,745 321,746 322,747 323,748 323,749 324,750 325,751 326,752 327,753 328,754 329,754 330,755 331,756 332,756 333,757 334,758 335,759 336,759 337,760 338,761 339,761 340,761 341,761 342,762 343,762 344,762 345,762 346,762 347,763 348,763 349,763 350,763 351,763 352,763 353,763 354,763 355,763 356,763 357,763 358,763 359,763 360,763 361,763 362,763 363,763 364,763 365,763 366,763 367,763 368,763 369,762 370,762 371,762 372,761 373,761 374,761 375,760 376,759 377,758 378,758 378,757 378,756 378,755 378,754 378,753 378,752 378,751 378,750 378,749 378,748 378,747 378,746 378,745 378,744 378,743 378,742 378,741 378,740 378,739 378,738 378,737 378,736 378,735 378,734 378,733 378,732 378,731 378,730 378,729 378,728 378,727 378,726 378,725 378,724 378,723 378,722 378,721 378,720 378,719 378,718 378,717 378,716 378,715 378,714 378,713 378,712 378,711 378,710 378,709 378,708 378,707 378,706 378,705 378,704 378,703 378,702 378,701 378,700 378,699 378,698 378,697 378,696 378,695 378,694 378,693 378,692 378,691 378,690 378,689 378,688 378,687 378,686 378,685 378,684 378,683 378,682 378,681 378,680 378,679 378,678 378,677 378,676 378,675 378,674 378,673 378,672 378,671 378,670 378,669 378,668 378,667 378,666 378,665 378,664 378,663 378,662 378,661 378,660 378,659 378,658 378,657 378,656 378,655 378,654 378,653 378,652 378,651 378,650 378,649 378,648 378,647 378,646 378,645 378,644 378,643 379,642 379,641 378,640 378,639 378,638 378,637 378,636 378,635 378,634 378,633 378,632 378,631 379,630 379,629 379,628 379,627 378,626 378,625 378,624 379,623 378,622 378,621 378,620 378,619 377,619 376,619 375,619 374,619 373,619 372,619 371,619 370,619 369,619 368,619 367,619 366,619 365,619 364,619 363,619 362,619 361,619 360,619 359,619 358,619 357,619 356,619 355,619 354,619 353,619 352,619 351,619 350,619 349,619 348,619 347,619 346,619 345,619 344,619 343,619 342,619 341,619 340,619 339,619 338,619 337,619 336,619 335,619 334,619 333,619 332,619 331,619 330,619 329,619 328,619 327,619 326,619 325,619 324,619 323,619 322,619 321,619 320,619 319,619 318,619 317,619 316,619 315,619 314,619">
      <metadata tailDirection="" confidence="0.87" linkedToCharacter="" id="TetsuSan_036_balloon_5" tailTip=""></metadata>
    </polygon>
    <polygon points="62,618 62,619 62,620 61,621 61,622 61,623 61,624 61,625 61,626 61,627 61,628 61,629 61,630 61,631 61,632 61,633 61,634 61,635 61,636 61,637 61,638 61,639 61,640 61,641 61,642 61,643 61,644 61,645 61,646 61,647 61,648 61,649 61,650 61,651 61,652 61,653 61,654 61,655 61,656 61,657 61,658 61,659 61,660 61,661 61,662 61,663 61,664 61,665 61,666 61,667 61,668 61,669 61,670 61,671 61,672 61,673 61,674 61,675 61,676 61,677 61,678 61,679 61,680 61,681 61,682 61,683 61,684 61,685 61,686 61,687 61,688 61,689 61,690 61,691 61,692 61,693 61,694 61,695 61,696 61,697 61,698 61,699 61,700 61,701 61,702 61,703 61,704 61,705 61,706 61,707 61,708 61,709 61,710 61,711 61,712 61,713 61,714 61,715 61,716 61,717 61,718 61,719 61,720 61,721 61,722 61,723 61,724 61,725 61,726 61,727 61,728 61,729 61,730 61,731 61,732 61,733 61,734 61,735 61,736 61,737 61,738 61,739 61,740 61,741 61,742 61,743 61,744 61,745 61,746 61,747 61,748 61,749 61,750 61,751 61,752 61,753 61,754 61,755 61,756 61,757 61,758 61,759 61,760 61,761 61,762 61,763 61,764 61,765 61,766 61,767 61,768 61,769 61,770 61,771 61,772 61,773 61,774 61,775 61,776 61,777 61,778 61,779 61,780 61,781 62,782 62,783 63,784 64,785 65,786 66,787 67,787 68,788 69,788 70,789 71,789 72,789 73,790 74,790 75,790 76,791 77,791 78,791 79,791 80,792 81,792 82,792 83,792 84,792 85,792 86,792 87,792 88,792 89,792 90,792 91,792 92,792 93,792 94,792 95,792 96,792 97,792 98,791 99,791 100,791 101,791 102,790 103,790 104,790 105,789 106,789 107,789 108,788 109,787 110,787 111,786 112,785 113,785 114,784 115,783 116,783 117,782 118,781 119,780 120,780 121,779 122,778 123,777 123,776 124,775 125,774 126,773 126,772 127,771 128,770 128,769 128,768 129,767 129,766 130,765 130,764 131,763 131,762 132,761 132,760 132,759 133,758 133,757 133,756 133,755 133,754 133,753 133,752 133,751 133,750 134,749 134,748 134,747 134,746 134,745 134,744 134,743 134,742 134,741 134,740 134,739 134,738 134,737 134,736 134,735 134,734 135,733 135,732 135,731 135,730 135,729 135,728 135,727 135,726 135,725 135,724 135,723 135,722 135,721 135,720 135,719 135,718 135,717 135,716 135,715 135,714 135,713 135,712 134,711 134,710 134,709 134,708 134,707 134,706 134,705 134,704 134,703 134,702 134,701 134,700 133,699 133,698 133,697 133,696 133,695 133,694 133,693 132,692 132,691 132,690 132,689 132,688 132,687 132,686 132,685 132,684 133,683 134,683 135,683 136,682 137,682 136,682 135,683 134,683 133,682 132,682 131,681 131,680 131,679 131,678 131,677 131,676 131,675 131,674 131,673 131,672 131,671 131,670 131,669 130,668 130,667 130,666 130,665 130,664 130,663 130,662 130,661 130,660 130,659 130,658 130,657 130,656 130,655 129,654 129,653 129,652 128,651 128,650 128,649 128,648 128,647 128,646 128,645 127,644 127,643 127,642 127,641 127,640 126,639 126,638 126,637 126,636 126,635 125,634 125,633 125,632 124,631 124,630 124,629 123,628 123,627 122,626 122,625 122,624 121,623 121,622 120,621 120,620 119,619 119,618 118,618 117,618 116,618 115,618 114,618 113,618 112,618 111,618 110,618 109,618 108,618 107,618 106,618 105,618 104,618 103,618 102,618 101,618 100,618 99,618 98,618 97,618 96,618 95,618 94,618 93,618 92,618 91,618 90,618 89,618 88,618 87,618 86,618 85,618 84,618 83,618 82,618 81,618 80,618 79,618 78,618 77,618 76,618 75,618 74,618 73,618 72,618 71,618 70,618 69,618 68,618 67,618 66,618 65,618 64,618 63,618 62,618">
      <metadata tailDirection="" confidence="0.92" linkedToCharacter="" id="TetsuSan_036_balloon_6" tailTip=""></metadata>
    </polygon>
    <polygon points="323,371 323,372 323,373 322,374 322,375 322,376 322,377 321,378 321,379 321,380 320,381 320,382 320,383 320,384 320,385 320,386 320,387 319,388 319,389 319,390 319,391 319,392 318,393 318,394 318,395 318,396 318,397 318,398 318,399 317,400 317,401 317,402 317,403 317,404 317,405 317,406 316,407 316,408 316,409 316,410 316,411 316,412 316,413 315,414 315,415 315,416 315,417 315,418 315,419 315,420 315,421 315,422 315,423 315,424 315,425 315,426 315,427 315,428 314,429 314,430 314,431 314,432 314,433 314,434 314,435 314,436 314,437 314,438 314,439 314,440 314,441 314,442 314,443 314,444 314,445 314,446 314,447 314,448 314,449 314,450 314,451 314,452 314,453 314,454 314,455 314,456 314,457 315,458 314,459 314,460 315,461 315,462 315,463 315,464 315,465 315,466 315,467 315,468 315,469 315,470 315,471 315,472 315,473 315,474 315,475 315,476 315,477 315,478 315,479 316,480 316,481 316,482 316,483 316,484 316,485 316,486 316,487 316,488 317,489 317,490 317,491 317,492 317,493 318,494 318,495 318,496 318,497 319,498 319,499 319,500 319,501 320,502 320,503 320,504 320,505 320,506 320,507 321,508 321,509 321,510 321,511 322,512 322,513 322,514 323,515 323,516 322,517 321,518 320,518 319,519 320,519 321,519 322,519 323,520 323,521 323,522 323,523 324,524 324,525 324,526 324,527 324,528 324,529 325,530 325,531 325,532 325,533 326,534 326,535 327,536 327,537 328,538 328,539 329,540 329,541 330,542 330,543 331,544 332,545 333,546 333,547 334,548 335,549 336,550 337,551 338,551 339,552 340,553 341,554 342,554 343,555 344,555 345,556 346,556 347,557 348,557 349,558 350,558 351,558 352,558 353,558 354,559 355,559 356,559 357,559 358,559 359,559 360,560 361,560 362,560 363,560 364,560 365,560 366,560 367,560 368,560 369,559 370,559 371,559 372,559 373,558 374,558 375,558 376,557 377,557 378,557 379,556 379,555 379,554 379,553 379,552 379,551 379,550 379,549 379,548 379,547 379,546 379,545 378,544 379,543 379,542 379,541 379,540 379,539 379,538 379,537 379,536 379,535 379,534 379,533 379,532 379,531 379,530 379,529 379,528 379,527 379,526 379,525 379,524 379,523 379,522 379,521 379,520 379,519 379,518 379,517 379,516 379,515 379,514 379,513 379,512 379,511 379,510 379,509 379,508 379,507 379,506 379,505 379,504 379,503 379,502 379,501 379,500 379,499 379,498 379,497 379,496 379,495 379,494 379,493 379,492 379,491 379,490 379,489 379,488 379,487 379,486 379,485 379,484 379,483 379,482 379,481 379,480 379,479 379,478 379,477 379,476 379,475 379,474 379,473 379,472 379,471 379,470 379,469 379,468 379,467 379,466 379,465 379,464 379,463 379,462 379,461 379,460 379,459 379,458 379,457 379,456 379,455 379,454 379,453 379,452 379,451 379,450 379,449 379,448 379,447 379,446 379,445 379,444 379,443 379,442 379,441 379,440 379,439 379,438 379,437 379,436 379,435 379,434 379,433 379,432 379,431 378,430 378,429 379,428 379,427 379,426 379,425 379,424 379,423 379,422 379,421 379,420 379,419 379,418 379,417 379,416 379,415 379,414 379,413 379,412 379,411 379,410 379,409 379,408 379,407 379,406 379,405 379,404 379,403 379,402 379,401 379,400 379,399 379,398 379,397 379,396 379,395 379,394 379,393 379,392 379,391 379,390 379,389 379,388 379,387 379,386 379,385 379,384 379,383 379,382 379,381 379,380 379,379 379,378 379,377 379,376 379,375 379,374 379,373 379,372 378,371 377,371 376,371 375,371 374,371 373,371 372,371 371,371 370,371 369,371 368,371 367,371 366,371 365,371 364,371 363,371 362,371 361,371 360,371 359,371 358,371 357,371 356,371 355,371 354,371 353,371 352,371 351,371 350,371 349,371 348,371 347,371 346,371 345,371 344,371 343,371 342,371 341,371 340,371 339,371 338,371 337,371 336,371 335,371 334,371 333,371 332,371 331,371 330,371 329,371 328,371 327,371 326,371 325,371 324,371 323,371">
      <metadata tailDirection="" confidence="0.96" linkedToCharacter="" id="TetsuSan_036_balloon_7" tailTip=""></metadata>
    </polygon>
    <polygon points="680,121 679,122 679,123 679,124 679,125 678,126 678,127 678,128 678,129 678,130 677,131 677,132 677,133 677,134 677,135 677,136 676,137 676,138 676,139 676,140 676,141 676,142 676,143 676,144 676,145 676,146 675,147 675,148 675,149 675,150 675,151 675,152 675,153 675,154 675,155 674,156 674,157 674,158 674,159 674,160 674,161 674,162 674,163 674,164 673,165 673,166 673,167 673,168 673,169 673,170 673,171 673,172 673,173 673,174 673,175 673,176 673,177 673,178 673,179 673,180 673,181 673,182 672,183 672,184 672,185 673,186 673,187 673,188 672,189 672,190 672,191 672,192 672,193 672,194 672,195 672,196 672,197 672,198 672,199 671,200 670,200 669,199 668,199 669,200 670,200 671,201 671,202 671,203 671,204 671,205 671,206 671,207 671,208 671,209 671,210 671,211 671,212 671,213 671,214 670,215 671,216 671,217 671,218 671,219 671,220 671,221 671,222 671,223 671,224 671,225 670,226 670,227 670,228 670,229 670,230 670,231 670,232 670,233 670,234 670,235 670,236 670,237 670,238 670,239 670,240 670,241 670,242 670,243 670,244 670,245 670,246 670,247 670,248 670,249 670,250 670,251 670,252 670,253 670,254 670,255 670,256 670,257 670,258 671,259 671,260 671,261 671,262 671,263 671,264 671,265 671,266 671,267 671,268 671,269 671,270 671,271 671,272 671,273 671,274 671,275 671,276 671,277 671,278 672,279 672,280 672,281 672,282 672,283 672,284 672,285 673,286 673,287 673,288 673,289 673,290 674,291 674,292 674,293 674,294 674,295 675,296 675,297 675,298 675,299 676,300 676,301 676,302 677,303 677,304 677,305 677,306 677,307 678,308 678,309 678,310 679,311 679,312 679,313 680,314 680,315 681,316 681,317 681,318 682,319 682,320 683,321 683,322 684,323 684,324 685,325 686,326 687,327 688,328 688,329 689,329 690,330 691,331 692,332 693,333 694,334 695,334 696,335 697,335 698,336 699,336 700,337 701,337 702,337 703,338 704,338 705,338 706,339 707,339 708,339 709,340 710,340 711,340 712,340 713,340 714,340 715,340 716,340 717,340 718,340 719,340 720,340 721,340 722,340 723,340 724,340 725,340 726,340 727,340 728,339 729,339 730,339 731,339 732,338 733,338 734,337 735,337 736,336 737,335 737,334 737,333 737,332 737,331 737,330 737,329 737,328 737,327 737,326 737,325 737,324 737,323 737,322 737,321 737,320 737,319 737,318 737,317 737,316 737,315 737,314 737,313 737,312 737,311 737,310 737,309 737,308 737,307 737,306 737,305 737,304 737,303 737,302 737,301 737,300 737,299 737,298 737,297 737,296 738,295 737,294 737,293 737,292 737,291 737,290 737,289 737,288 737,287 737,286 737,285 737,284 737,283 737,282 737,281 737,280 738,279 738,278 738,277 738,276 737,275 737,274 737,273 737,272 737,271 737,270 737,269 737,268 737,267 738,266 738,265 738,264 737,263 737,262 737,261 737,260 737,259 737,258 737,257 738,256 738,255 738,254 737,253 737,252 737,251 737,250 737,249 738,248 738,247 738,246 738,245 738,244 738,243 738,242 738,241 738,240 738,239 738,238 738,237 738,236 738,235 738,234 738,233 738,232 738,231 738,230 738,229 738,228 738,227 738,226 738,225 738,224 738,223 738,222 738,221 738,220 738,219 738,218 738,217 738,216 738,215 738,214 738,213 738,212 738,211 738,210 738,209 738,208 738,207 738,206 738,205 738,204 738,203 738,202 738,201 738,200 738,199 738,198 738,197 738,196 738,195 738,194 738,193 738,192 738,191 738,190 738,189 738,188 738,187 738,186 738,185 738,184 738,183 738,182 738,181 738,180 738,179 738,178 738,177 738,176 738,175 738,174 738,173 738,172 738,171 738,170 738,169 738,168 738,167 738,166 738,165 738,164 738,163 738,162 738,161 738,160 738,159 738,158 738,157 738,156 738,155 738,154 738,153 738,152 738,151 738,150 738,149 738,148 738,147 738,146 738,145 738,144 738,143 738,142 738,141 738,140 738,139 738,138 738,137 738,136 738,135 738,134 738,133 738,132 739,131 739,130 739,129 739,128 739,127 739,126 739,125 739,124 739,123 739,122 738,122 737,122 736,122 735,121 734,121 733,121 732,121 731,121 730,121 729,121 728,121 727,121 726,121 725,121 724,121 723,121 722,121 721,121 720,121 719,121 718,121 717,121 716,121 715,121 714,121 713,121 712,121 711,121 710,121 709,121 708,121 707,121 706,121 705,121 704,121 703,121 702,121 701,121 700,121 699,121 698,121 697,121 696,121 695,121 694,121 693,121 692,121 691,121 690,121 689,121 688,121 687,121 686,121 685,121 684,121 683,121 682,121 681,121 680,121">
      <metadata tailDirection="" confidence="0.91" linkedToCharacter="" id="TetsuSan_036_balloon_8" tailTip=""></metadata>
    </polygon>
    <polygon points="320,122 320,123 319,124 319,125 319,126 319,127 318,128 318,129 318,130 318,131 318,132 318,133 317,134 317,135 317,136 317,137 317,138 316,139 316,140 316,141 316,142 316,143 316,144 316,145 316,146 315,147 315,148 315,149 315,150 315,151 315,152 315,153 315,154 315,155 314,156 314,157 314,158 314,159 314,160 314,161 314,162 314,163 314,164 314,165 314,166 313,167 313,168 313,169 313,170 313,171 313,172 313,173 313,174 312,175 312,176 312,177 312,178 312,179 312,180 312,181 312,182 312,183 312,184 312,185 312,186 312,187 312,188 311,189 311,190 311,191 311,192 311,193 311,194 311,195 311,196 311,197 311,198 311,199 311,200 311,201 311,202 311,203 311,204 311,205 311,206 311,207 311,208 311,209 311,210 311,211 311,212 311,213 311,214 311,215 311,216 311,217 311,218 311,219 311,220 311,221 311,222 311,223 311,224 311,225 311,226 311,227 311,228 311,229 311,230 311,231 311,232 311,233 311,234 311,235 311,236 311,237 311,238 311,239 311,240 311,241 311,242 311,243 311,244 311,245 311,246 310,247 310,248 311,249 311,250 311,251 311,252 311,253 310,254 311,255 311,256 311,257 311,258 311,259 311,260 311,261 311,262 312,263 312,264 312,265 312,266 312,267 312,268 312,269 312,270 313,271 313,272 313,273 313,274 313,275 314,276 314,277 314,278 314,279 314,280 314,281 315,282 315,283 315,284 315,285 315,286 315,287 316,288 316,289 316,290 316,291 316,292 317,293 317,294 317,295 317,296 317,297 317,298 318,299 318,300 318,301 318,302 319,303 319,304 319,305 319,306 320,307 320,308 320,309 320,310 320,311 320,312 320,313 321,314 321,315 321,316 322,317 322,318 322,319 322,320 323,321 323,322 323,323 323,324 324,325 324,326 325,327 325,328 325,329 325,330 326,331 326,332 326,333 327,334 327,335 327,336 328,337 328,338 328,339 329,340 329,341 330,342 330,343 331,344 331,345 332,346 333,347 333,348 334,349 334,350 335,351 336,352 336,353 337,353 338,353 339,353 340,353 341,353 342,353 343,353 344,353 345,353 346,353 347,353 348,353 349,353 350,353 351,353 352,353 353,353 354,353 355,353 356,353 357,353 358,353 359,353 360,353 361,353 362,353 363,353 364,353 365,353 366,353 367,353 368,353 369,353 370,353 371,353 372,353 373,353 374,353 375,353 376,353 377,353 378,353 378,352 379,351 379,350 379,349 379,348 379,347 379,346 379,345 379,344 379,343 379,342 379,341 379,340 379,339 379,338 379,337 379,336 379,335 379,334 379,333 379,332 379,331 379,330 379,329 379,328 379,327 379,326 379,325 379,324 379,323 379,322 379,321 379,320 379,319 379,318 379,317 379,316 379,315 379,314 379,313 379,312 379,311 379,310 379,309 379,308 379,307 379,306 379,305 379,304 379,303 379,302 379,301 379,300 379,299 379,298 379,297 379,296 379,295 379,294 379,293 379,292 379,291 379,290 379,289 379,288 379,287 379,286 379,285 379,284 379,283 379,282 379,281 379,280 379,279 379,278 379,277 379,276 379,275 379,274 379,273 379,272 379,271 379,270 379,269 379,268 379,267 379,266 379,265 379,264 379,263 379,262 379,261 379,260 379,259 379,258 379,257 379,256 379,255 379,254 379,253 379,252 379,251 379,250 379,249 379,248 379,247 379,246 379,245 379,244 379,243 379,242 379,241 379,240 379,239 379,238 379,237 379,236 379,235 379,234 379,233 379,232 379,231 379,230 379,229 379,228 379,227 379,226 379,225 379,224 379,223 379,222 379,221 379,220 379,219 379,218 379,217 379,216 379,215 379,214 379,213 379,212 379,211 379,210 379,209 379,208 379,207 379,206 379,205 379,204 379,203 379,202 379,201 379,200 379,199 379,198 379,197 379,196 379,195 379,194 379,193 379,192 379,191 379,190 379,189 379,188 379,187 379,186 379,185 379,184 379,183 379,182 379,181 379,180 379,179 379,178 379,177 379,176 379,175 379,174 379,173 379,172 379,171 379,170 379,169 379,168 379,167 379,166 379,165 379,164 379,163 379,162 379,161 379,160 379,159 379,158 379,157 379,156 379,155 379,154 379,153 379,152 379,151 379,150 379,149 379,148 379,147 379,146 379,145 379,144 379,143 379,142 379,141 379,140 379,139 379,138 379,137 379,136 379,135 379,134 379,133 379,132 379,131 379,130 380,129 380,128 380,127 380,126 379,125 379,124 379,123 378,122 377,122 376,122 375,122 374,122 373,122 372,122 371,122 370,122 369,122 368,122 367,122 366,122 365,122 364,122 363,122 362,122 361,122 360,122 359,122 358,122 357,122 356,122 355,122 354,122 353,122 352,122 351,122 350,122 349,122 348,122 347,122 346,122 345,122 344,122 343,122 342,122 341,122 340,122 339,122 338,122 337,122 336,122 335,122 334,122 333,122 332,122 331,122 330,122 329,122 328,122 327,122 326,122 325,122 324,122 323,122 322,122 321,122 320,122">
      <metadata tailDirection="" confidence="0.94" linkedToCharacter="" id="TetsuSan_036_balloon_9" tailTip=""></metadata>
    </polygon>
    <polygon points="86,122 85,123 84,123 83,123 82,123 81,123 80,123 79,123 78,123 77,123 76,123 75,123 74,123 73,123 72,123 71,123 70,123 69,123 68,123 67,123 66,123 65,123 64,123 63,123 62,123 61,123 61,124 61,125 61,126 61,127 61,128 61,129 61,130 61,131 61,132 61,133 61,134 61,135 61,136 61,137 61,138 61,139 61,140 61,141 61,142 61,143 61,144 61,145 61,146 61,147 61,148 61,149 61,150 61,151 61,152 61,153 61,154 61,155 61,156 61,157 61,158 61,159 61,160 61,161 61,162 61,163 61,164 61,165 61,166 61,167 61,168 61,169 61,170 61,171 61,172 61,173 61,174 61,175 61,176 61,177 61,178 61,179 61,180 61,181 61,182 60,183 61,184 61,185 61,186 61,187 60,188 60,189 60,190 61,191 60,192 60,193 60,194 60,195 60,196 60,197 60,198 60,199 60,200 60,201 60,202 60,203 60,204 60,205 60,206 60,207 60,208 60,209 60,210 60,211 60,212 60,213 60,214 60,215 60,216 60,217 60,218 60,219 60,220 60,221 60,222 60,223 60,224 60,225 60,226 60,227 60,228 60,229 60,230 60,231 60,232 60,233 60,234 60,235 60,236 60,237 60,238 60,239 60,240 60,241 60,242 60,243 60,244 60,245 60,246 60,247 60,248 60,249 60,250 60,251 60,252 60,253 60,254 60,255 60,256 60,257 60,258 60,259 60,260 60,261 61,262 61,263 62,264 63,265 64,266 65,267 66,268 67,268 68,269 69,269 70,270 71,270 72,270 73,271 74,271 75,271 76,271 77,271 78,271 79,271 80,272 81,271 82,272 83,272 84,271 85,271 86,271 87,271 88,271 89,271 90,271 91,271 92,270 93,270 94,270 95,270 96,270 97,269 98,268 99,268 100,267 101,267 102,266 103,266 104,265 105,264 106,263 106,262 107,261 108,260 108,259 109,258 109,257 110,256 111,255 111,254 111,253 112,252 112,251 112,250 113,249 113,248 113,247 113,246 114,245 114,244 114,243 115,242 115,241 115,240 115,239 115,238 116,237 116,236 116,235 116,234 116,233 116,232 117,231 117,230 117,229 117,228 117,227 117,226 118,225 118,224 118,223 118,222 118,221 118,220 119,219 119,218 118,217 119,216 119,215 119,214 119,213 119,212 119,211 119,210 119,209 119,208 120,207 120,206 120,205 120,204 120,203 120,202 120,201 120,200 120,199 120,198 120,197 120,196 120,195 120,194 120,193 120,192 120,191 120,190 120,189 120,188 120,187 120,186 120,185 120,184 120,183 120,182 120,181 121,180 121,179 121,178 121,177 121,176 121,175 121,174 121,173 121,172 121,171 121,170 120,169 120,168 120,167 121,166 120,165 120,164 120,163 120,162 120,161 120,160 120,159 120,158 120,157 120,156 119,155 119,154 119,153 119,152 119,151 119,150 119,149 119,148 118,147 118,146 118,145 118,144 118,143 118,142 118,141 117,140 117,139 117,138 117,137 117,136 116,135 116,134 116,133 116,132 116,131 116,130 115,129 115,128 115,127 115,126 115,125 115,124 114,123 114,122 113,122 112,122 111,122 110,122 109,122 108,122 107,122 106,122 105,122 104,122 103,122 102,122 101,122 100,122 99,122 98,122 97,122 96,122 95,122 94,122 93,122 92,122 91,122 90,122 89,123 88,123 87,122 86,122">
      <metadata tailDirection="" confidence="0.88" linkedToCharacter="" id="TetsuSan_036_balloon_10" tailTip=""></metadata>
    </polygon>
  </svg>
</svg>
