<?xml version="1.0" encoding="UTF-8" standalone="no"?>
<svg width="827" xmlns="http://www.w3.org/2000/svg" version="1.0" height="1170">
  <title>TetsuSan_066</title>
  <svg contentScriptType="text/ecmascript" zoomAndPan="magnify" contentStyleType="text/css" class="Page" preserveAspectRatio="xMidYMid meet" version="1.0">
    <image xmlns:xlink="http://www.w3.org/1999/xlink" x="0" y="0" width="827" height="1170" xlink:href="./../../dataset_Manga109/TetsuSan/TetsuSan_066.jpg" xlink:type="simple" xlink:actuate="onLoad" preserveAspectRatio="xMidYMid meet" xlink:show="embed"/>
  </svg>
  <style type="text/css" xml:space="preserve">
        * { stroke-linejoin: round; }
        .Unclassified   { fill: orange; stroke: none;   opacity: 1.0; visibility: hidden; }
        .Noise          { fill: pink;   stroke: none;   opacity: 0.2; visibility: hidden; }
        .Panel          { fill: none;   stroke: red;    stroke-width:3; opacity: 0.5; visibility: visible; image-rendering: optimizeSpeed; }
        .Line           { fill: green;  stroke: none;   opacity: 0.5; visibility: visible; image-rendering: optimizeSpeed; }
        .TextArea       { fill: grey;   stroke: none;   opacity: 0.2; visibility: visible; image-rendering: optimizeSpeed; }
        .Balloon        { fill: cyan;   stroke: none;   opacity: 0.5; visibility: visible; image-rendering: optimizeSpeed; }
        .Letter         { fill: blue;   stroke: none;   opacity: 0.2; visibility: hidden; }
        .Object, .Character, .Face  { fill: yellow; stroke: none;   opacity: 0.5; visibility: visible; image-rendering: optimizeSpeed; }
        .Page           { fill: white;  stroke: none;    opacity: 0.5; visibility: visible; }
        .linkSBSC { fill: blue; stroke: none; opacity: 1.0; visibility: visible; }
        polygon:hover { opacity:1.0; stroke:red; }
</style>
  <svg xmlns="http://www.w3.org/2000/svg" contentScriptType="text/ecmascript" zoomAndPan="magnify" contentStyleType="text/css" class="Balloon" preserveAspectRatio="xMidYMid meet" version="1.0">
    <polygon points="272,1099 271,1100 270,1100 269,1100 268,1100 267,1100 266,1100 265,1100 264,1100 263,1100 262,1100 261,1100 260,1100 259,1100 258,1100 257,1100 256,1100 255,1100 254,1100 253,1100 252,1100 251,1100 250,1100 249,1100 248,1100 247,1100 246,1100 245,1100 244,1100 243,1100 242,1100 241,1100 240,1100 239,1100 238,1100 237,1100 236,1100 235,1100 234,1100 233,1100 232,1100 231,1100 230,1100 229,1100 228,1100 227,1100 226,1100 225,1100 224,1100 223,1100 222,1100 221,1100 220,1100 219,1100 218,1100 217,1100 216,1100 215,1100 214,1100 213,1100 212,1100 211,1100 210,1100 209,1100 208,1100 207,1100 206,1100 205,1100 204,1100 203,1100 202,1100 201,1100 200,1100 199,1100 198,1100 197,1100 196,1100 195,1100 194,1100 193,1100 192,1100 191,1100 190,1100 189,1100 188,1100 187,1100 186,1100 185,1100 184,1100 183,1100 182,1100 181,1100 180,1100 179,1100 178,1100 177,1100 176,1100 175,1100 174,1100 173,1100 172,1100 171,1100 170,1100 169,1100 168,1100 167,1100 166,1100 165,1100 164,1100 163,1100 162,1100 161,1100 160,1100 159,1100 158,1100 157,1100 156,1100 155,1100 154,1100 153,1100 152,1100 151,1100 150,1100 149,1100 148,1100 147,1100 146,1100 145,1100 144,1100 143,1100 142,1100 141,1100 140,1100 139,1100 138,1100 137,1100 136,1100 135,1100 134,1100 133,1100 132,1100 131,1100 130,1100 129,1100 128,1100 127,1100 126,1100 125,1100 124,1100 123,1100 122,1100 121,1100 120,1100 119,1100 118,1100 117,1100 116,1100 115,1100 114,1100 113,1100 112,1100 111,1100 110,1100 109,1100 108,1100 107,1100 106,1100 105,1100 104,1100 103,1100 102,1100 101,1100 100,1100 99,1100 98,1100 97,1100 96,1100 95,1100 94,1100 93,1100 92,1100 91,1100 90,1100 89,1100 88,1100 87,1100 86,1100 85,1100 84,1100 83,1100 82,1100 81,1100 80,1100 79,1100 78,1100 77,1100 76,1100 75,1100 74,1100 73,1100 72,1100 71,1100 71,1101 71,1102 71,1103 71,1104 71,1105 71,1106 71,1107 71,1108 71,1109 71,1110 71,1111 71,1112 71,1113 71,1114 71,1115 71,1116 71,1117 71,1118 71,1119 71,1120 71,1121 71,1122 71,1123 71,1124 71,1125 71,1126 71,1127 71,1128 71,1129 71,1130 71,1131 71,1132 71,1133 72,1133 73,1133 74,1133 75,1133 76,1133 77,1133 78,1133 79,1133 80,1133 81,1133 82,1133 83,1133 84,1133 85,1133 86,1133 87,1133 88,1133 89,1133 90,1133 91,1133 92,1133 93,1133 94,1133 95,1133 96,1132 97,1133 98,1132 99,1132 100,1132 101,1132 102,1132 103,1132 104,1132 105,1132 106,1132 107,1132 108,1132 109,1132 110,1132 111,1132 112,1132 113,1132 114,1132 115,1132 116,1132 117,1132 118,1132 119,1132 120,1132 121,1132 122,1132 123,1132 124,1132 125,1132 126,1132 127,1132 128,1132 129,1132 130,1132 131,1132 132,1132 133,1132 134,1132 135,1132 136,1132 137,1132 138,1132 139,1132 140,1132 141,1132 142,1132 143,1132 144,1132 145,1132 146,1132 147,1132 148,1132 149,1132 150,1132 151,1132 152,1132 153,1132 154,1132 155,1132 156,1132 157,1132 158,1132 159,1132 160,1132 161,1132 162,1132 163,1132 164,1132 165,1132 166,1132 167,1132 168,1132 169,1132 170,1132 171,1132 172,1132 173,1132 174,1132 175,1132 176,1132 177,1132 178,1132 179,1132 180,1132 181,1132 182,1132 183,1132 184,1132 185,1132 186,1132 187,1132 188,1132 189,1132 190,1132 191,1132 192,1132 193,1132 194,1132 195,1132 196,1132 197,1132 198,1132 199,1132 200,1132 201,1132 202,1132 203,1132 204,1132 205,1132 206,1132 207,1132 208,1132 209,1132 210,1132 211,1132 212,1132 213,1132 214,1132 215,1132 216,1132 217,1132 218,1132 219,1132 220,1132 221,1132 222,1132 223,1132 224,1132 225,1132 226,1132 227,1132 228,1132 229,1132 230,1132 231,1132 232,1132 233,1132 234,1132 235,1132 236,1132 237,1132 238,1132 239,1132 240,1132 241,1132 242,1132 243,1132 244,1132 245,1132 246,1132 247,1132 248,1132 249,1132 250,1132 251,1132 252,1132 253,1132 254,1132 255,1132 256,1132 257,1132 258,1132 259,1132 260,1132 261,1132 262,1132 263,1132 264,1132 265,1132 266,1132 267,1132 268,1132 269,1132 270,1132 271,1132 272,1132 273,1132 274,1132 275,1132 276,1132 277,1132 278,1132 279,1132 280,1132 281,1132 282,1132 283,1132 284,1132 285,1132 286,1132 287,1132 288,1132 289,1132 290,1132 291,1132 292,1132 293,1132 294,1132 295,1132 296,1132 297,1132 298,1132 299,1132 300,1132 301,1132 302,1132 303,1132 304,1132 305,1132 306,1132 306,1131 306,1130 306,1129 306,1128 306,1127 306,1126 306,1125 306,1124 306,1123 306,1122 306,1121 306,1120 306,1119 306,1118 306,1117 306,1116 306,1115 306,1114 306,1113 306,1112 306,1111 306,1110 306,1109 306,1108 306,1107 306,1106 306,1105 306,1104 306,1103 306,1102 306,1101 306,1100 306,1099 305,1099 304,1099 303,1099 302,1099 301,1099 300,1099 299,1099 298,1099 297,1099 296,1099 295,1099 294,1099 293,1099 292,1099 291,1099 290,1099 289,1099 288,1099 287,1099 286,1099 285,1099 284,1099 283,1099 282,1099 281,1099 280,1099 279,1099 278,1099 277,1099 276,1099 275,1099 274,1099 273,1099 272,1099">
      <metadata tailDirection="" confidence="0.81" linkedToCharacter="" id="TetsuSan_066_balloon_0" tailTip=""></metadata>
    </polygon>
    <polygon points="431,866 430,867 430,868 430,869 430,870 430,871 430,872 430,873 430,874 430,875 430,876 430,877 430,878 430,879 431,880 430,881 430,882 430,883 430,884 430,885 430,886 430,887 430,888 430,889 430,890 430,891 430,892 430,893 430,894 430,895 430,896 430,897 430,898 430,899 430,900 430,901 430,902 430,903 430,904 430,905 430,906 430,907 430,908 430,909 430,910 430,911 430,912 430,913 430,914 430,915 430,916 430,917 430,918 430,919 430,920 430,921 430,922 430,923 430,924 430,925 430,926 430,927 430,928 430,929 430,930 430,931 430,932 430,933 430,934 430,935 430,936 430,937 430,938 430,939 430,940 430,941 430,942 430,943 430,944 430,945 430,946 430,947 430,948 430,949 430,950 431,951 430,952 430,953 430,954 430,955 430,956 430,957 430,958 430,959 430,960 430,961 430,962 430,963 430,964 430,965 430,966 430,967 430,968 430,969 430,970 430,971 430,972 430,973 430,974 431,975 430,976 430,977 430,978 430,979 430,980 430,981 430,982 430,983 430,984 430,985 430,986 430,987 430,988 430,989 430,990 430,991 430,992 430,993 430,994 430,995 430,996 430,997 430,998 431,997 432,996 433,996 434,995 435,995 436,994 437,994 438,994 439,994 440,994 441,994 442,994 443,995 444,995 445,996 446,997 447,998 448,999 448,1000 449,1001 449,1000 450,999 451,998 452,997 453,996 454,996 455,996 456,995 457,995 458,995 459,995 460,995 461,996 462,996 463,997 464,998 465,999 466,1000 466,1001 467,1002 467,1003 468,1002 468,1001 469,1000 470,999 470,998 471,997 472,996 473,995 474,994 475,993 476,992 477,991 477,990 478,989 479,989 480,988 481,987 482,986 483,985 484,985 485,984 486,984 487,983 488,983 489,982 490,982 490,981 489,980 489,979 489,978 488,977 488,976 488,975 487,974 487,973 487,972 487,971 487,970 487,969 486,968 486,967 486,966 486,965 486,964 486,963 486,962 486,961 486,960 486,959 486,958 486,957 486,956 486,955 486,954 487,953 487,952 487,951 487,950 487,949 487,948 487,947 487,946 488,945 488,944 488,943 488,942 489,941 489,940 489,939 490,938 490,937 490,936 491,935 491,934 492,933 493,932 493,931 494,930 493,929 493,928 492,927 492,926 491,925 491,924 491,923 490,922 490,921 490,920 490,919 490,918 489,917 489,916 489,915 489,914 489,913 489,912 489,911 489,910 489,909 489,908 489,907 489,906 489,905 489,904 489,903 489,902 489,901 489,900 489,899 489,898 489,897 489,896 490,895 490,894 490,893 490,892 489,893 488,893 487,893 486,893 485,892 484,892 483,891 482,890 481,889 481,888 481,887 481,886 480,885 480,884 480,883 480,882 481,881 481,880 481,879 481,878 481,877 481,876 481,875 482,874 482,873 482,872 482,871 483,870 483,869 483,868 484,867 484,866 483,866 482,866 481,866 480,866 479,866 478,866 477,866 476,866 475,866 474,866 473,866 472,866 471,866 470,866 469,866 468,866 467,866 466,866 465,866 464,866 463,866 462,866 461,866 460,866 459,866 458,866 457,866 456,866 455,866 454,866 453,866 452,866 451,866 450,866 449,866 448,866 447,866 446,866 445,866 444,866 443,866 442,866 441,866 440,866 439,866 438,866 437,866 436,866 435,866 434,866 433,866 432,866 431,866">
      <metadata tailDirection="" confidence="0.98" linkedToCharacter="" id="TetsuSan_066_balloon_1" tailTip=""></metadata>
    </polygon>
    <polygon points="338,865 338,866 337,867 337,868 337,869 337,870 337,871 336,872 336,873 336,874 336,875 336,876 336,877 336,878 335,879 335,880 335,881 335,882 334,883 334,884 334,885 334,886 334,887 333,888 333,889 333,890 333,891 333,892 333,893 333,894 333,895 333,896 332,897 332,898 332,899 332,900 332,901 332,902 332,903 332,904 332,905 332,906 332,907 332,908 331,909 331,910 331,911 331,912 331,913 331,914 331,915 331,916 330,917 330,918 330,919 330,920 330,921 330,922 330,923 330,924 330,925 330,926 330,927 330,928 330,929 330,930 329,931 329,932 329,933 329,934 329,935 329,936 329,937 329,938 329,939 329,940 329,941 329,942 329,943 329,944 329,945 329,946 329,947 329,948 329,949 329,950 328,951 328,952 328,953 329,954 329,955 329,956 329,957 329,958 329,959 329,960 329,961 329,962 329,963 329,964 329,965 329,966 328,967 328,968 329,969 329,970 329,971 329,972 329,973 329,974 329,975 329,976 329,977 329,978 329,979 329,980 328,981 327,982 326,982 325,982 326,982 327,982 328,981 329,981 330,982 330,983 329,984 329,985 330,986 330,987 330,988 330,989 330,990 330,991 330,992 330,993 330,994 331,995 331,996 331,997 331,998 331,999 331,1000 331,1001 331,1002 331,1003 332,1004 332,1005 332,1006 332,1007 332,1008 333,1009 333,1010 333,1011 333,1012 333,1013 334,1014 334,1015 334,1016 335,1017 335,1018 335,1019 336,1020 336,1021 337,1022 337,1023 337,1024 338,1025 338,1026 339,1027 339,1028 340,1029 340,1030 340,1031 341,1032 341,1033 342,1034 343,1035 343,1036 344,1037 344,1038 345,1039 345,1040 346,1041 347,1042 347,1043 348,1044 349,1045 350,1046 351,1047 352,1048 353,1049 354,1050 355,1051 356,1051 357,1052 358,1052 359,1053 360,1054 361,1054 362,1055 363,1055 364,1055 365,1056 366,1056 367,1056 368,1056 369,1057 370,1057 371,1057 372,1057 373,1057 374,1057 375,1057 376,1057 377,1057 378,1057 379,1057 380,1058 381,1058 382,1058 383,1058 384,1057 385,1057 386,1057 387,1057 388,1057 389,1057 390,1056 391,1055 391,1054 391,1053 391,1052 391,1051 391,1050 391,1049 391,1048 391,1047 391,1046 391,1045 391,1044 391,1043 391,1042 391,1041 391,1040 391,1039 391,1038 391,1037 391,1036 391,1035 391,1034 391,1033 391,1032 391,1031 391,1030 391,1029 391,1028 391,1027 391,1026 391,1025 391,1024 391,1023 391,1022 391,1021 391,1020 391,1019 391,1018 391,1017 391,1016 391,1015 391,1014 391,1013 391,1012 391,1011 391,1010 391,1009 391,1008 391,1007 391,1006 391,1005 391,1004 391,1003 391,1002 391,1001 391,1000 391,999 391,998 391,997 391,996 391,995 391,994 391,993 391,992 391,991 391,990 391,989 391,988 391,987 391,986 391,985 391,984 391,983 391,982 391,981 391,980 391,979 391,978 391,977 391,976 391,975 391,974 391,973 391,972 391,971 391,970 391,969 391,968 391,967 391,966 391,965 391,964 391,963 391,962 391,961 391,960 391,959 391,958 391,957 391,956 391,955 391,954 391,953 391,952 391,951 391,950 391,949 391,948 391,947 391,946 391,945 391,944 391,943 391,942 391,941 391,940 391,939 391,938 391,937 391,936 391,935 391,934 391,933 391,932 391,931 391,930 391,929 391,928 391,927 391,926 391,925 391,924 391,923 391,922 391,921 391,920 391,919 391,918 391,917 391,916 391,915 391,914 391,913 391,912 391,911 391,910 391,909 391,908 391,907 391,906 391,905 391,904 391,903 391,902 391,901 391,900 391,899 391,898 391,897 391,896 391,895 391,894 391,893 391,892 391,891 391,890 391,889 391,888 391,887 391,886 391,885 391,884 391,883 391,882 391,881 391,880 391,879 391,878 391,877 391,876 391,875 391,874 391,873 391,872 391,871 391,870 391,869 391,868 391,867 391,866 390,866 389,865 388,865 387,865 386,865 385,865 384,865 383,865 382,865 381,865 380,865 379,865 378,865 377,865 376,865 375,865 374,865 373,865 372,865 371,865 370,865 369,865 368,865 367,865 366,865 365,865 364,865 363,866 362,865 361,865 360,865 359,865 358,865 357,865 356,865 355,865 354,865 353,865 352,865 351,865 350,865 349,865 348,865 347,865 346,865 345,865 344,865 343,865 342,865 341,865 340,865 339,865 338,865">
      <metadata tailDirection="" confidence="0.89" linkedToCharacter="" id="TetsuSan_066_balloon_2" tailTip=""></metadata>
    </polygon>
    <polygon points="72,865 72,866 72,867 72,868 72,869 72,870 72,871 72,872 72,873 72,874 72,875 72,876 72,877 72,878 72,879 72,880 72,881 72,882 72,883 72,884 72,885 72,886 72,887 72,888 72,889 72,890 72,891 72,892 72,893 72,894 72,895 72,896 72,897 72,898 72,899 72,900 72,901 72,902 72,903 72,904 72,905 72,906 72,907 72,908 72,909 72,910 72,911 72,912 72,913 72,914 72,915 72,916 72,917 72,918 72,919 72,920 72,921 72,922 72,923 72,924 72,925 72,926 72,927 72,928 72,929 72,930 72,931 72,932 72,933 72,934 72,935 72,936 72,937 72,938 72,939 72,940 72,941 72,942 72,943 72,944 72,945 72,946 72,947 72,948 72,949 72,950 72,951 72,952 72,953 72,954 72,955 72,956 72,957 72,958 72,959 72,960 72,961 72,962 72,963 72,964 72,965 72,966 72,967 72,968 72,969 72,970 72,971 72,972 72,973 72,974 72,975 72,976 72,977 72,978 72,979 72,980 72,981 72,982 72,983 72,984 72,985 72,986 72,987 72,988 72,989 72,990 72,991 72,992 72,993 72,994 72,995 72,996 72,997 72,998 72,999 72,1000 72,1001 72,1002 72,1003 72,1004 72,1005 72,1006 72,1007 72,1008 72,1009 72,1010 72,1011 72,1012 72,1013 72,1014 72,1015 72,1016 72,1017 72,1018 73,1019 73,1020 73,1021 73,1022 73,1023 73,1024 73,1025 73,1026 73,1027 73,1028 73,1029 73,1030 73,1031 73,1032 73,1033 73,1034 73,1035 73,1036 73,1037 73,1038 73,1039 73,1040 73,1041 73,1042 73,1043 73,1044 73,1045 73,1046 73,1047 73,1048 73,1049 73,1050 73,1051 73,1052 73,1053 73,1054 73,1055 73,1056 73,1057 73,1058 73,1059 73,1060 73,1061 73,1062 73,1063 73,1064 73,1065 73,1066 73,1067 73,1068 73,1069 73,1070 73,1071 73,1072 73,1073 73,1074 73,1075 73,1076 73,1077 73,1078 73,1079 73,1080 73,1081 73,1082 74,1083 75,1084 76,1084 77,1085 78,1085 79,1086 80,1086 81,1086 82,1086 83,1086 84,1087 85,1087 86,1087 87,1088 88,1088 89,1088 90,1088 91,1088 92,1089 93,1089 94,1089 95,1089 96,1089 97,1089 98,1089 99,1089 100,1089 101,1089 102,1089 103,1089 104,1089 105,1089 106,1089 107,1088 108,1088 109,1088 110,1088 111,1088 112,1088 113,1087 114,1087 115,1086 116,1086 117,1085 118,1085 119,1084 120,1083 120,1082 121,1081 121,1080 122,1079 123,1078 124,1077 124,1076 124,1075 125,1074 126,1073 126,1072 127,1071 127,1070 128,1069 129,1068 129,1067 129,1066 130,1065 130,1064 130,1063 131,1062 131,1061 132,1060 132,1059 132,1058 133,1057 133,1056 133,1055 133,1054 133,1053 134,1052 134,1051 134,1050 134,1049 135,1048 135,1047 135,1046 135,1045 135,1044 136,1043 136,1042 136,1041 136,1040 136,1039 137,1038 137,1037 137,1036 137,1035 137,1034 137,1033 138,1032 138,1031 138,1030 138,1029 138,1028 138,1027 138,1026 138,1025 138,1024 138,1023 138,1022 138,1021 138,1020 138,1019 138,1018 139,1017 139,1016 139,1015 139,1014 139,1013 139,1012 139,1011 139,1010 139,1009 139,1008 139,1007 139,1006 139,1005 139,1004 139,1003 139,1002 140,1001 140,1000 140,999 140,998 140,997 140,996 140,995 140,994 140,993 140,992 140,991 140,990 140,989 140,988 140,987 140,986 140,985 140,984 140,983 140,982 140,981 140,980 140,979 140,978 140,977 140,976 140,975 140,974 140,973 140,972 140,971 140,970 140,969 140,968 140,967 139,966 139,965 139,964 139,963 139,962 139,961 139,960 139,959 139,958 140,957 141,958 140,957 141,956 142,955 143,954 142,954 141,955 140,955 139,954 139,953 139,952 139,951 139,950 139,949 139,948 139,947 139,946 139,945 139,944 139,943 139,942 139,941 139,940 139,939 139,938 139,937 139,936 139,935 139,934 139,933 139,932 139,931 139,930 139,929 139,928 138,927 138,926 138,925 138,924 138,923 138,922 138,921 138,920 138,919 138,918 138,917 138,916 138,915 138,914 137,913 137,912 137,911 137,910 137,909 137,908 137,907 136,906 136,905 136,904 136,903 136,902 135,901 135,900 135,899 135,898 135,897 135,896 134,895 134,894 134,893 133,892 133,891 133,890 133,889 132,888 132,887 132,886 132,885 131,884 131,883 131,882 130,881 130,880 129,879 129,878 129,877 128,876 128,875 127,874 127,873 126,872 126,871 125,870 125,869 124,868 124,867 123,866 123,865 122,865 121,865 120,865 119,865 118,865 117,865 116,865 115,865 114,865 113,865 112,865 111,865 110,865 109,865 108,865 107,865 106,865 105,865 104,865 103,865 102,865 101,865 100,865 99,865 98,865 97,865 96,865 95,865 94,865 93,865 92,865 91,865 90,865 89,865 88,865 87,865 86,865 85,865 84,865 83,865 82,865 81,865 80,865 79,865 78,865 77,865 76,865 75,865 74,865 73,865 72,865">
      <metadata tailDirection="" confidence="0.85" linkedToCharacter="" id="TetsuSan_066_balloon_3" tailTip=""></metadata>
    </polygon>
    <polygon points="333,618 333,619 333,620 332,621 332,622 332,623 332,624 332,625 331,626 331,627 331,628 331,629 330,630 330,631 330,632 330,633 330,634 330,635 330,636 330,637 329,638 329,639 329,640 329,641 329,642 329,643 329,644 329,645 329,646 329,647 329,648 329,649 329,650 329,651 329,652 329,653 328,654 328,655 328,656 328,657 328,658 328,659 328,660 328,661 328,662 328,663 328,664 328,665 328,666 328,667 328,668 328,669 328,670 327,671 327,672 327,673 327,674 327,675 327,676 327,677 327,678 327,679 327,680 327,681 327,682 327,683 327,684 327,685 327,686 327,687 327,688 327,689 327,690 327,691 327,692 327,693 327,694 327,695 327,696 327,697 327,698 327,699 327,700 327,701 327,702 327,703 327,704 327,705 327,706 327,707 327,708 327,709 327,710 327,711 327,712 327,713 327,714 327,715 327,716 327,717 327,718 327,719 327,720 327,721 326,722 325,722 324,722 323,722 322,722 321,722 322,723 323,723 324,724 325,725 326,726 326,727 326,728 326,729 326,730 326,731 326,732 325,733 325,734 325,735 325,736 325,737 325,738 325,739 325,740 325,741 324,742 324,743 324,744 324,745 324,746 324,747 324,748 324,749 324,750 324,751 324,752 324,753 324,754 324,755 324,756 324,757 324,758 324,759 324,760 324,761 324,762 324,763 324,764 324,765 324,766 324,767 324,768 324,769 324,770 324,771 324,772 324,773 324,774 324,775 324,776 324,777 324,778 324,779 324,780 324,781 324,782 324,783 324,784 324,785 324,786 325,787 325,788 325,789 325,790 325,791 325,792 325,793 325,794 325,795 325,796 326,797 326,798 326,799 326,800 326,801 326,802 326,803 326,804 327,805 327,806 327,807 327,808 327,809 327,810 328,811 328,812 328,813 328,814 328,815 329,816 329,817 329,818 329,819 329,820 330,821 330,822 330,823 330,824 331,825 331,826 331,827 331,828 332,829 332,830 332,831 333,832 333,833 333,834 334,835 334,836 334,837 335,838 335,839 335,840 336,841 336,842 337,843 338,844 338,845 339,846 340,847 340,848 341,848 342,848 343,848 344,848 345,848 346,848 347,848 348,848 349,848 350,848 351,848 352,848 353,848 354,848 355,848 356,848 357,848 358,848 359,848 360,848 361,848 362,848 363,848 364,848 365,848 366,848 367,848 368,848 369,848 370,848 371,848 372,848 373,848 374,848 375,848 376,848 377,848 378,848 379,848 380,848 381,848 382,848 383,848 384,848 385,848 386,848 387,848 388,848 389,848 390,848 391,848 391,847 391,846 391,845 391,844 391,843 391,842 391,841 391,840 391,839 391,838 391,837 391,836 391,835 391,834 391,833 391,832 391,831 391,830 391,829 391,828 391,827 391,826 391,825 391,824 391,823 391,822 391,821 391,820 391,819 391,818 391,817 391,816 391,815 391,814 391,813 391,812 391,811 391,810 391,809 391,808 391,807 391,806 391,805 391,804 391,803 391,802 391,801 391,800 391,799 391,798 391,797 391,796 391,795 391,794 391,793 391,792 391,791 391,790 391,789 391,788 391,787 391,786 391,785 391,784 391,783 391,782 391,781 391,780 391,779 391,778 391,777 391,776 391,775 391,774 391,773 391,772 391,771 391,770 391,769 391,768 391,767 391,766 391,765 391,764 391,763 391,762 391,761 391,760 391,759 391,758 391,757 391,756 391,755 391,754 391,753 391,752 391,751 391,750 391,749 391,748 391,747 391,746 391,745 391,744 391,743 391,742 391,741 391,740 391,739 391,738 391,737 391,736 391,735 391,734 391,733 391,732 391,731 391,730 391,729 391,728 391,727 391,726 391,725 391,724 391,723 391,722 391,721 391,720 391,719 391,718 391,717 391,716 391,715 391,714 391,713 391,712 391,711 391,710 391,709 391,708 391,707 391,706 391,705 391,704 391,703 391,702 391,701 391,700 391,699 391,698 391,697 391,696 391,695 391,694 391,693 391,692 391,691 391,690 391,689 391,688 391,687 391,686 391,685 391,684 391,683 391,682 391,681 391,680 391,679 391,678 391,677 391,676 391,675 391,674 391,673 391,672 391,671 391,670 391,669 391,668 391,667 391,666 391,665 391,664 391,663 391,662 391,661 391,660 391,659 391,658 391,657 391,656 391,655 391,654 391,653 391,652 391,651 391,650 391,649 391,648 391,647 391,646 391,645 391,644 391,643 391,642 391,641 391,640 391,639 390,638 390,637 390,636 390,635 390,634 390,633 390,632 390,631 390,630 390,629 390,628 390,627 390,626 390,625 390,624 390,623 390,622 390,621 390,620 390,619 390,618 389,618 388,618 387,618 386,618 385,618 384,618 383,619 382,619 381,618 380,618 379,618 378,618 377,618 376,618 375,618 374,618 373,618 372,618 371,618 370,618 369,618 368,618 367,618 366,618 365,618 364,618 363,618 362,618 361,618 360,618 359,618 358,618 357,618 356,618 355,618 354,618 353,618 352,619 351,618 350,618 349,618 348,618 347,618 346,618 345,618 344,618 343,618 342,618 341,618 340,618 339,618 338,618 337,619 336,618 335,618 334,618 333,618">
      <metadata tailDirection="" confidence="0.96" linkedToCharacter="" id="TetsuSan_066_balloon_4" tailTip=""></metadata>
    </polygon>
    <polygon points="71,618 71,619 71,620 71,621 71,622 71,623 71,624 71,625 71,626 71,627 71,628 71,629 71,630 71,631 71,632 71,633 71,634 71,635 71,636 71,637 71,638 71,639 71,640 71,641 71,642 71,643 71,644 71,645 71,646 71,647 71,648 71,649 71,650 71,651 71,652 71,653 71,654 71,655 71,656 71,657 71,658 71,659 71,660 71,661 71,662 71,663 71,664 71,665 71,666 71,667 71,668 71,669 71,670 71,671 71,672 71,673 71,674 71,675 71,676 71,677 71,678 71,679 71,680 71,681 71,682 71,683 71,684 71,685 71,686 71,687 71,688 71,689 71,690 71,691 71,692 71,693 71,694 71,695 71,696 71,697 71,698 71,699 71,700 71,701 71,702 71,703 71,704 71,705 71,706 71,707 71,708 71,709 71,710 71,711 71,712 71,713 71,714 71,715 71,716 71,717 71,718 71,719 71,720 71,721 71,722 71,723 71,724 71,725 71,726 71,727 71,728 71,729 71,730 71,731 71,732 71,733 71,734 71,735 71,736 71,737 71,738 71,739 71,740 71,741 71,742 71,743 71,744 71,745 71,746 71,747 71,748 71,749 71,750 71,751 71,752 71,753 71,754 71,755 72,756 73,757 74,758 75,759 76,759 77,760 78,761 79,761 80,762 81,762 82,763 83,763 84,763 85,764 86,764 87,764 88,764 89,764 90,764 91,765 92,764 93,764 94,764 95,764 96,764 97,764 98,764 99,763 100,763 101,763 102,763 103,763 104,762 105,762 106,762 107,762 108,761 109,761 110,760 111,760 112,759 113,759 114,758 115,758 116,757 117,756 118,755 118,754 119,753 120,752 121,751 122,750 123,749 124,748 125,747 125,746 126,745 126,744 127,743 127,742 127,741 128,740 128,739 128,738 129,737 129,736 129,735 129,734 130,733 130,732 130,731 130,730 130,729 131,728 131,727 131,726 131,725 131,724 131,723 131,722 132,721 132,720 132,719 132,718 132,717 132,716 132,715 132,714 132,713 133,712 133,711 133,710 133,709 133,708 133,707 133,706 133,705 133,704 133,703 133,702 132,701 132,700 132,699 132,698 132,697 132,696 132,695 133,694 134,694 135,694 136,694 135,694 134,694 133,693 132,693 131,692 130,691 131,690 131,689 131,688 131,687 131,686 131,685 131,684 131,683 131,682 131,681 131,680 131,679 131,678 131,677 131,676 131,675 131,674 131,673 131,672 130,671 130,670 130,669 130,668 130,667 130,666 130,665 130,664 129,663 129,662 129,661 129,660 129,659 129,658 129,657 129,656 129,655 128,654 128,653 128,652 128,651 128,650 128,649 128,648 128,647 127,646 127,645 127,644 127,643 127,642 126,641 126,640 126,639 126,638 125,637 125,636 125,635 125,634 124,633 124,632 124,631 124,630 123,629 123,628 122,627 122,626 122,625 121,624 121,623 120,622 120,621 120,620 119,619 119,618 118,618 117,618 116,618 115,618 114,618 113,618 112,618 111,618 110,618 109,618 108,618 107,618 106,618 105,618 104,618 103,618 102,618 101,618 100,618 99,618 98,618 97,618 96,618 95,618 94,618 93,618 92,618 91,618 90,618 89,618 88,618 87,618 86,618 85,618 84,618 83,618 82,618 81,618 80,618 79,618 78,618 77,618 76,618 75,618 74,618 73,618 72,618 71,618">
      <metadata tailDirection="" confidence="0.91" linkedToCharacter="" id="TetsuSan_066_balloon_5" tailTip=""></metadata>
    </polygon>
    <polygon points="335,370 335,371 335,372 335,373 334,374 334,375 334,376 334,377 333,378 333,379 333,380 333,381 333,382 332,383 332,384 332,385 332,386 332,387 332,388 332,389 331,390 331,391 331,392 331,393 331,394 331,395 330,396 330,397 330,398 330,399 330,400 330,401 330,402 330,403 329,404 329,405 329,406 329,407 329,408 329,409 329,410 328,411 328,412 328,413 328,414 328,415 328,416 328,417 328,418 328,419 328,420 328,421 328,422 328,423 328,424 328,425 328,426 328,427 328,428 328,429 328,430 328,431 328,432 328,433 328,434 328,435 328,436 328,437 328,438 328,439 328,440 328,441 328,442 328,443 328,444 328,445 328,446 328,447 327,448 326,449 325,449 326,450 327,451 328,452 328,453 328,454 328,455 327,456 327,457 327,458 328,459 328,460 328,461 328,462 327,463 327,464 327,465 327,466 327,467 327,468 327,469 327,470 327,471 327,472 327,473 327,474 327,475 327,476 327,477 327,478 327,479 327,480 327,481 327,482 327,483 328,484 328,485 328,486 328,487 328,488 328,489 328,490 328,491 328,492 328,493 328,494 328,495 328,496 328,497 329,498 329,499 329,500 329,501 329,502 329,503 329,504 329,505 329,506 329,507 330,508 330,509 330,510 330,511 330,512 330,513 331,514 331,515 331,516 331,517 331,518 332,519 332,520 332,521 333,522 333,523 333,524 333,525 333,526 333,527 334,528 334,529 334,530 335,531 335,532 336,533 336,534 337,535 337,536 337,537 338,538 338,539 339,540 340,541 341,542 341,543 342,544 343,545 344,545 345,546 346,547 347,548 348,548 349,549 350,550 351,551 352,551 353,552 354,552 355,553 356,553 357,553 358,554 359,554 360,554 361,554 362,554 363,554 364,555 365,555 366,555 367,555 368,555 369,555 370,555 371,555 372,555 373,555 374,555 375,555 376,555 377,555 378,555 379,555 380,555 381,554 382,554 383,554 384,553 385,553 386,552 387,551 388,551 389,550 390,549 390,548 390,547 390,546 390,545 390,544 390,543 390,542 390,541 390,540 390,539 390,538 390,537 390,536 390,535 390,534 390,533 390,532 390,531 390,530 390,529 390,528 390,527 390,526 390,525 390,524 390,523 390,522 390,521 390,520 390,519 390,518 390,517 390,516 390,515 390,514 390,513 390,512 390,511 390,510 390,509 390,508 390,507 390,506 390,505 390,504 390,503 390,502 390,501 390,500 390,499 390,498 390,497 390,496 390,495 390,494 390,493 390,492 390,491 390,490 390,489 390,488 390,487 390,486 390,485 390,484 390,483 390,482 390,481 390,480 390,479 390,478 390,477 390,476 390,475 390,474 390,473 390,472 390,471 390,470 390,469 390,468 390,467 390,466 390,465 390,464 390,463 390,462 390,461 390,460 390,459 390,458 390,457 390,456 390,455 390,454 390,453 390,452 390,451 390,450 390,449 390,448 390,447 390,446 390,445 390,444 390,443 390,442 390,441 390,440 390,439 390,438 390,437 390,436 390,435 390,434 390,433 390,432 390,431 390,430 390,429 390,428 390,427 390,426 390,425 390,424 390,423 390,422 390,421 390,420 390,419 390,418 390,417 390,416 390,415 390,414 390,413 390,412 390,411 390,410 390,409 390,408 390,407 390,406 390,405 390,404 390,403 390,402 390,401 390,400 390,399 390,398 390,397 390,396 390,395 390,394 390,393 390,392 390,391 390,390 390,389 390,388 390,387 390,386 390,385 390,384 390,383 390,382 390,381 390,380 390,379 390,378 390,377 390,376 390,375 390,374 390,373 390,372 390,371 390,370 389,370 388,370 387,370 386,370 385,370 384,370 383,370 382,370 381,370 380,370 379,370 378,370 377,370 376,370 375,370 374,370 373,370 372,370 371,370 370,370 369,370 368,370 367,370 366,370 365,370 364,370 363,370 362,370 361,370 360,370 359,370 358,370 357,370 356,370 355,370 354,370 353,370 352,370 351,370 350,370 349,370 348,370 347,370 346,370 345,370 344,370 343,370 342,370 341,370 340,370 339,370 338,370 337,370 336,370 335,370">
      <metadata tailDirection="" confidence="0.99" linkedToCharacter="" id="TetsuSan_066_balloon_6" tailTip=""></metadata>
    </polygon>
    <polygon points="691,120 690,121 690,122 689,123 689,124 690,125 691,126 692,127 692,128 693,129 693,130 693,131 693,132 693,133 693,134 692,135 691,136 691,137 690,138 689,139 688,140 687,141 686,141 685,142 684,143 683,144 682,145 681,146 680,147 679,147 678,148 679,148 680,148 681,148 682,148 683,148 684,149 685,149 686,150 687,151 688,152 688,153 689,154 689,155 689,156 690,157 690,158 690,159 690,160 690,161 690,162 690,163 690,164 690,165 691,166 691,167 692,168 692,169 692,170 692,171 692,172 692,173 693,174 693,175 693,176 693,177 693,178 693,179 693,180 693,181 693,182 693,183 693,184 692,185 692,186 692,187 692,188 692,189 691,190 691,191 690,192 690,193 689,194 689,195 688,196 688,197 687,198 687,199 687,200 688,201 688,202 688,203 688,204 689,205 689,206 689,207 689,208 689,209 688,210 688,211 688,212 688,213 688,214 687,215 687,216 687,217 686,218 686,219 686,220 687,221 687,222 688,223 688,224 688,225 689,226 689,227 689,228 689,229 689,230 689,231 689,232 689,233 689,234 689,235 688,236 688,237 688,238 688,239 687,240 687,241 686,242 686,243 686,244 687,244 688,244 689,244 690,245 691,246 692,247 692,248 692,249 692,250 692,251 692,252 692,253 692,254 692,255 692,256 692,257 692,258 691,259 691,260 691,261 691,262 690,263 690,264 690,265 689,266 689,267 688,268 688,269 688,270 689,270 690,270 691,270 692,270 693,271 694,272 695,273 695,274 695,275 695,276 696,277 696,278 696,279 696,280 696,281 696,282 697,281 698,281 699,281 700,280 701,280 702,280 703,280 704,280 705,281 706,281 707,282 708,283 709,284 709,285 709,286 710,287 710,288 710,289 711,290 711,291 711,292 711,293 711,294 712,293 713,293 714,292 715,292 716,291 717,291 718,291 719,290 720,290 721,290 722,291 723,291 724,291 725,292 726,293 727,294 728,295 728,296 729,297 729,298 729,299 730,300 730,301 731,300 732,299 733,298 734,297 735,296 736,295 737,294 738,293 739,293 740,292 741,292 742,291 743,291 744,291 745,291 746,291 747,290 748,290 749,290 749,289 749,288 749,287 749,286 749,285 749,284 749,283 749,282 749,281 749,280 749,279 749,278 749,277 749,276 749,275 749,274 749,273 749,272 749,271 749,270 749,269 749,268 749,267 749,266 749,265 749,264 749,263 749,262 749,261 749,260 749,259 749,258 749,257 749,256 749,255 749,254 749,253 749,252 749,251 749,250 749,249 749,248 749,247 749,246 749,245 749,244 749,243 749,242 749,241 749,240 749,239 749,238 749,237 749,236 749,235 749,234 749,233 749,232 749,231 749,230 749,229 749,228 749,227 749,226 749,225 749,224 749,223 749,222 749,221 749,220 749,219 749,218 749,217 749,216 749,215 749,214 749,213 749,212 749,211 749,210 749,209 749,208 749,207 749,206 749,205 749,204 749,203 749,202 749,201 749,200 749,199 749,198 749,197 749,196 749,195 749,194 749,193 749,192 749,191 749,190 749,189 749,188 749,187 749,186 749,185 749,184 749,183 749,182 749,181 749,180 749,179 749,178 749,177 749,176 749,175 749,174 749,173 749,172 749,171 749,170 749,169 749,168 749,167 749,166 749,165 749,164 749,163 749,162 749,161 749,160 749,159 749,158 749,157 749,156 749,155 749,154 749,153 749,152 749,151 749,150 749,149 749,148 749,147 749,146 749,145 749,144 749,143 749,142 749,141 749,140 749,139 749,138 749,137 749,136 749,135 749,134 749,133 749,132 749,131 749,130 749,129 749,128 749,127 749,126 749,125 749,124 749,123 749,122 749,121 749,120 748,121 747,120 746,120 745,121 744,121 743,120 742,120 741,120 740,120 739,120 738,120 737,120 736,120 735,120 734,120 733,120 732,120 731,120 730,120 729,120 728,120 727,120 726,120 725,120 724,120 723,120 722,120 721,120 720,120 719,120 718,120 717,120 716,120 715,120 714,120 713,120 712,120 711,120 710,120 709,120 708,120 707,120 706,120 705,120 704,120 703,120 702,120 701,120 700,120 699,120 698,120 697,120 696,120 695,120 694,120 693,120 692,120 691,120">
      <metadata tailDirection="" confidence="0.88" linkedToCharacter="" id="TetsuSan_066_balloon_7" tailTip=""></metadata>
    </polygon>
    <polygon points="71,121 71,122 71,123 71,124 71,125 71,126 71,127 71,128 71,129 71,130 71,131 71,132 71,133 71,134 71,135 71,136 71,137 71,138 71,139 71,140 71,141 71,142 71,143 71,144 71,145 71,146 71,147 71,148 71,149 71,150 71,151 71,152 71,153 71,154 71,155 71,156 71,157 71,158 71,159 71,160 71,161 71,162 71,163 71,164 71,165 71,166 71,167 71,168 71,169 71,170 71,171 71,172 71,173 71,174 71,175 71,176 71,177 71,178 71,179 71,180 71,181 71,182 71,183 71,184 71,185 71,186 71,187 71,188 71,189 71,190 71,191 71,192 71,193 71,194 71,195 71,196 71,197 71,198 71,199 71,200 71,201 71,202 71,203 71,204 71,205 71,206 71,207 71,208 71,209 71,210 71,211 71,212 71,213 71,214 71,215 71,216 71,217 71,218 71,219 71,220 71,221 71,222 71,223 71,224 71,225 71,226 71,227 71,228 71,229 71,230 71,231 71,232 71,233 71,234 71,235 71,236 71,237 71,238 71,239 71,240 71,241 71,242 71,243 71,244 71,245 71,246 71,247 71,248 71,249 71,250 71,251 71,252 71,253 71,254 71,255 71,256 71,257 71,258 71,259 71,260 71,261 72,262 72,263 73,264 74,265 75,266 76,267 77,267 78,268 79,268 80,268 81,269 82,269 83,269 84,269 85,270 86,270 87,270 88,270 89,270 90,270 91,270 92,270 93,270 94,269 95,269 96,269 97,269 98,268 99,268 100,268 101,267 102,266 103,266 104,265 105,265 106,264 107,263 108,262 109,261 110,261 111,260 111,259 112,258 113,257 114,256 115,255 115,254 116,253 117,252 117,251 118,250 118,249 119,248 119,247 120,246 121,245 122,244 122,243 122,242 123,241 123,240 123,239 124,238 124,237 124,236 124,235 124,234 125,233 125,232 125,231 125,230 125,229 126,228 126,227 126,226 126,225 126,224 126,223 126,222 126,221 127,220 127,219 127,218 127,217 127,216 127,215 127,214 127,213 127,212 127,211 127,210 127,209 127,208 127,207 127,206 127,205 127,204 127,203 127,202 127,201 127,200 127,199 127,198 127,197 127,196 127,195 127,194 127,193 127,192 127,191 127,190 127,189 127,188 127,187 127,186 127,185 127,184 127,183 126,182 126,181 126,180 126,179 126,178 126,177 126,176 126,175 126,174 126,173 125,172 125,171 125,170 125,169 125,168 125,167 125,166 125,165 125,164 124,163 124,162 124,161 124,160 124,159 124,158 124,157 124,156 124,155 123,154 123,153 123,152 123,151 123,150 122,149 122,148 122,147 122,146 121,145 121,144 121,143 121,142 120,141 120,140 120,139 120,138 120,137 119,136 119,135 119,134 118,133 118,132 118,131 118,130 117,129 117,128 117,127 116,126 116,125 116,124 115,123 115,122 115,121 114,121 113,121 112,121 111,121 110,121 109,121 108,121 107,121 106,121 105,121 104,121 103,121 102,121 101,121 100,121 99,121 98,121 97,121 96,121 95,121 94,121 93,121 92,121 91,121 90,121 89,121 88,121 87,121 86,121 85,121 84,121 83,121 82,121 81,121 80,121 79,121 78,121 77,121 76,121 75,121 74,121 73,121 72,121 71,121">
      <metadata tailDirection="" confidence="0.91" linkedToCharacter="" id="TetsuSan_066_balloon_8" tailTip=""></metadata>
    </polygon>
    <polygon points="335,120 334,121 334,122 334,123 334,124 333,125 333,126 333,127 332,128 332,129 332,130 332,131 331,132 331,133 331,134 331,135 331,136 331,137 330,138 330,139 330,140 330,141 330,142 330,143 330,144 329,145 329,146 329,147 329,148 329,149 329,150 329,151 328,152 328,153 328,154 328,155 328,156 328,157 328,158 328,159 328,160 328,161 328,162 328,163 328,164 328,165 328,166 328,167 328,168 328,169 328,170 328,171 328,172 328,173 328,174 328,175 328,176 328,177 328,178 328,179 328,180 328,181 328,182 328,183 328,184 328,185 328,186 328,187 328,188 328,189 328,190 328,191 329,192 329,193 329,194 329,195 329,196 329,197 329,198 329,199 329,200 329,201 329,202 329,203 329,204 329,205 329,206 329,207 329,208 330,209 330,210 330,211 330,212 330,213 330,214 330,215 330,216 330,217 330,218 330,219 330,220 330,221 330,222 330,223 330,224 330,225 330,226 330,227 330,228 331,229 331,230 331,231 331,232 331,233 331,234 331,235 331,236 331,237 331,238 332,239 332,240 332,241 332,242 332,243 333,244 333,245 333,246 333,247 333,248 334,249 334,250 334,251 335,252 335,253 335,254 335,255 336,256 336,257 336,258 336,259 337,260 337,261 338,262 338,263 339,264 339,265 339,266 340,267 341,268 341,269 342,270 343,271 344,272 345,273 346,274 347,275 348,276 349,277 350,278 351,279 352,280 353,281 354,282 355,282 356,283 357,283 358,284 359,284 360,285 361,285 362,285 363,286 364,286 365,286 366,286 367,287 368,287 369,287 370,287 371,287 372,287 373,287 374,287 375,287 376,287 377,287 378,287 379,287 380,286 381,286 382,286 383,285 384,285 385,285 386,284 387,284 388,283 389,282 390,281 389,280 390,279 389,278 389,277 390,276 390,275 390,274 390,273 390,272 389,271 389,270 389,269 389,268 389,267 389,266 389,265 389,264 389,263 389,262 389,261 389,260 389,259 389,258 389,257 389,256 389,255 389,254 389,253 389,252 389,251 389,250 389,249 389,248 389,247 389,246 389,245 389,244 389,243 389,242 389,241 389,240 389,239 389,238 389,237 389,236 389,235 389,234 389,233 389,232 389,231 389,230 389,229 389,228 389,227 389,226 389,225 389,224 389,223 389,222 389,221 389,220 389,219 389,218 389,217 389,216 389,215 389,214 389,213 389,212 389,211 389,210 389,209 389,208 389,207 389,206 389,205 389,204 389,203 389,202 389,201 389,200 389,199 389,198 389,197 389,196 389,195 389,194 389,193 389,192 389,191 389,190 389,189 389,188 389,187 389,186 389,185 389,184 389,183 389,182 389,181 389,180 389,179 389,178 389,177 389,176 389,175 389,174 389,173 389,172 389,171 389,170 389,169 389,168 389,167 389,166 389,165 389,164 389,163 389,162 389,161 389,160 389,159 389,158 389,157 389,156 389,155 389,154 389,153 389,152 389,151 389,150 389,149 389,148 389,147 389,146 389,145 389,144 389,143 389,142 389,141 389,140 389,139 389,138 389,137 389,136 389,135 389,134 389,133 389,132 389,131 389,130 389,129 389,128 389,127 389,126 389,125 389,124 389,123 389,122 389,121 389,120 388,121 387,121 386,121 385,121 384,120 383,120 382,120 381,120 380,120 379,120 378,120 377,120 376,120 375,120 374,120 373,120 372,120 371,120 370,120 369,120 368,120 367,120 366,120 365,120 364,120 363,120 362,120 361,120 360,120 359,120 358,120 357,120 356,120 355,120 354,120 353,120 352,120 351,120 350,120 349,120 348,120 347,120 346,120 345,120 344,120 343,120 342,120 341,120 340,120 339,120 338,120 337,120 336,120 335,120">
      <metadata tailDirection="" confidence="0.94" linkedToCharacter="" id="TetsuSan_066_balloon_9" tailTip=""></metadata>
    </polygon>
  </svg>
</svg>
