<?xml version="1.0" encoding="UTF-8" standalone="no"?>
<svg width="569" xmlns="http://www.w3.org/2000/svg" version="1.0" height="661">
  <title>CYB_COSMOZONE_008</title>
  <svg contentScriptType="text/ecmascript" zoomAndPan="magnify" contentStyleType="text/css" class="Page" preserveAspectRatio="xMidYMid meet" version="1.0">
    <image xmlns:xlink="http://www.w3.org/1999/xlink" x="0" y="0" width="569" height="661" xlink:href="/media/Donnees/DATA/DATASET/eBDtheque_100/CYB_COSMOZONE_008.jpg" xlink:type="simple" xlink:actuate="onLoad" preserveAspectRatio="xMidYMid meet" xlink:show="embed"/>
  </svg>
  <style type="text/css" xml:space="preserve">
        * { stroke-linejoin: round; }
        .Unclassified   { fill: orange; stroke: none;   opacity: 1.0; visibility: hidden; }
        .Noise          { fill: pink;   stroke: none;   opacity: 0.2; visibility: hidden; }
        .Panel          { fill: none;   stroke: red;    stroke-width:3; opacity: 0.5; visibility: visible; image-rendering: optimizeSpeed; }
        .Line           { fill: green;  stroke: none;   opacity: 0.5; visibility: visible; image-rendering: optimizeSpeed; }
        .TextArea       { fill: grey;   stroke: none;   opacity: 0.2; visibility: visible; image-rendering: optimizeSpeed; }
        .Balloon        { fill: cyan;   stroke: none;   opacity: 0.5; visibility: visible; image-rendering: optimizeSpeed; }
        .Letter         { fill: blue;   stroke: none;   opacity: 0.2; visibility: hidden; }
        .Object, .Character, .Face  { fill: yellow; stroke: none;   opacity: 0.5; visibility: visible; image-rendering: optimizeSpeed; }
        .Page           { fill: white;  stroke: none;    opacity: 0.5; visibility: visible; }
        .linkSBSC { fill: blue; stroke: none; opacity: 1.0; visibility: visible; }
        polygon:hover { opacity:0.2; }
</style>
  <svg xmlns="http://www.w3.org/2000/svg" contentScriptType="text/ecmascript" zoomAndPan="magnify" contentStyleType="text/css" class="Balloon" preserveAspectRatio="xMidYMid meet" version="1.0">
    <polygon points="474,642 475,641 476,641 477,641 478,641 479,642 478,643 477,643 476,643 477,643 478,643 479,642 480,643 481,643 480,643 479,642 480,641 481,641 482,641 483,641 484,641 485,641 486,641 487,641 488,641 489,641 490,642 491,641 492,642 492,643 491,644 491,645 491,646 490,647 489,647 488,647 487,646 488,645 488,644 488,643 488,644 487,645 486,646 485,647 484,647 483,647 482,646 483,645 483,644 483,643 483,644 482,645 481,646 480,645 479,645 478,645 477,646 476,646 475,645 474,644 474,643 474,642">
      <metadata tailDirection="" confidence="0.00" linkedToCharacter="" id="CYB_COSMOZONE_008_balloon_0" tailTip=""></metadata>
    </polygon>
    <polygon points="521,640 522,639 523,640 524,641 525,641 526,642 527,641 528,641 528,640 529,639 530,640 530,641 531,641 532,641 533,642 533,643 533,644 532,645 531,646 530,645 529,646 528,645 528,644 528,643 527,644 527,645 527,646 526,647 525,647 524,647 523,646 524,645 524,644 524,643 523,643 522,642 521,642 521,643 522,643 523,643 524,644 523,645 522,646 521,645 520,645 519,644 519,643 519,642 519,641 520,640 521,640">
      <metadata tailDirection="" confidence="0.00" linkedToCharacter="" id="CYB_COSMOZONE_008_balloon_1" tailTip=""></metadata>
    </polygon>
    <polygon points="434,640 435,639 436,639 437,640 437,641 438,640 439,639 440,639 441,640 440,641 439,642 439,643 440,643 440,642 440,641 441,640 442,641 442,642 442,643 442,644 441,645 440,646 439,646 438,645 437,644 436,645 435,646 434,645 433,644 433,643 433,642 433,641 434,640">
      <metadata tailDirection="" confidence="0.00" linkedToCharacter="" id="CYB_COSMOZONE_008_balloon_2" tailTip=""></metadata>
    </polygon>
    <polygon points="437,393 436,394 435,394 434,394 433,394 432,394 431,394 430,394 429,395 428,395 427,395 426,395 425,395 424,395 423,396 422,396 421,396 420,396 419,397 418,397 417,398 416,398 415,399 414,399 413,399 412,400 411,400 410,400 409,401 408,402 407,402 406,403 405,403 404,404 403,405 402,405 401,406 400,406 399,407 398,408 397,409 397,410 396,411 395,412 395,413 395,414 394,415 394,416 394,417 394,418 394,419 394,420 394,421 394,422 395,423 395,424 395,425 395,426 396,427 396,428 397,429 397,430 398,431 399,432 400,433 401,434 402,435 403,436 404,437 405,437 406,438 407,439 408,439 409,440 410,441 411,441 412,441 413,442 414,442 415,443 416,443 417,443 418,444 419,444 420,445 421,445 422,445 423,446 424,446 425,446 426,446 427,446 428,447 429,447 430,447 431,447 432,448 433,448 434,448 435,449 436,449 437,448 438,448 439,448 440,449 441,449 442,449 443,449 444,449 445,449 446,449 447,449 448,449 449,449 450,449 451,449 452,449 453,449 454,449 455,449 456,449 457,449 458,449 459,449 460,449 461,449 462,449 463,449 464,449 465,449 466,449 467,449 468,448 469,448 470,448 471,448 472,448 473,447 474,447 475,447 476,447 477,447 478,447 479,446 480,446 481,446 482,446 483,445 484,445 485,445 486,444 487,444 488,444 489,444 490,444 491,444 492,445 493,446 494,447 494,448 495,449 495,448 495,447 495,446 495,445 494,444 494,443 494,442 494,441 495,440 496,439 497,439 498,438 499,438 500,437 501,436 502,436 503,435 504,435 505,434 506,433 507,432 508,431 509,430 509,429 510,428 511,427 511,426 512,425 512,424 512,423 513,422 513,421 513,420 513,419 513,418 513,417 513,416 512,415 512,414 511,413 511,412 510,411 510,410 509,409 508,408 508,407 507,406 506,405 505,404 504,403 503,402 502,401 501,400 500,400 499,399 498,399 497,399 496,398 495,398 494,398 493,397 492,397 491,397 490,397 489,397 488,396 487,396 486,396 485,396 484,396 483,396 482,396 481,396 480,395 479,395 478,395 477,395 476,395 475,394 474,394 473,394 472,394 471,394 470,394 469,394 468,394 467,394 466,394 465,394 464,394 463,393 462,393 461,393 460,393 459,393 458,393 457,393 456,393 455,393 454,393 453,393 452,393 451,393 450,393 449,393 448,393 447,393 446,393 445,393 444,393 443,393 442,393 441,393 440,393 439,393 438,393 437,393">
      <metadata tailDirection="" confidence="0.00" linkedToCharacter="" id="CYB_COSMOZONE_008_balloon_3" tailTip=""></metadata>
    </polygon>
    <polygon points="376,228 375,229 374,229 373,230 372,230 371,231 370,232 369,233 368,234 367,235 366,235 365,236 365,237 364,238 363,238 363,239 362,240 362,241 361,242 361,243 360,244 360,245 359,246 359,247 359,248 358,249 358,250 358,251 358,252 358,253 358,254 357,255 357,256 357,257 357,258 357,259 357,260 357,261 358,262 357,263 358,264 358,265 358,266 358,267 359,266 360,266 361,267 362,268 363,269 362,270 362,271 363,272 363,273 363,274 363,275 362,276 363,277 363,278 364,278 365,277 366,277 367,277 368,277 369,277 370,277 371,277 372,277 373,276 374,276 375,276 376,276 377,276 378,276 379,276 380,275 381,275 382,275 383,275 383,274 383,273 383,272 383,271 384,270 385,270 386,271 387,271 388,271 389,271 390,271 391,271 392,271 393,271 394,271 395,271 396,270 397,270 398,270 399,270 400,270 401,271 402,271 403,271 404,271 405,272 406,272 407,272 408,273 408,274 408,275 408,276 409,276 410,276 411,277 412,277 413,277 414,277 415,277 416,277 417,278 417,277 416,276 416,275 416,274 416,273 415,272 415,271 415,270 415,269 415,268 415,267 414,266 414,265 414,264 414,263 414,262 414,261 413,260 413,259 413,258 413,257 413,256 412,255 412,254 412,253 412,252 412,253 412,254 412,255 413,256 413,257 413,258 413,259 413,260 413,261 414,262 414,263 414,264 414,265 414,266 413,267 412,268 411,268 410,268 409,268 408,267 407,267 406,267 405,267 404,266 403,266 402,266 401,266 400,265 400,264 401,263 402,263 403,263 404,263 405,263 406,263 407,263 408,264 409,264 410,264 410,263 410,262 409,261 409,260 409,259 409,258 409,257 409,256 409,255 408,254 408,253 408,252 408,251 407,250 407,249 407,248 406,247 405,246 405,245 404,245 403,244 402,244 401,244 400,244 399,244 398,245 397,246 396,245 396,244 397,243 397,242 398,241 399,241 400,240 401,240 402,240 403,240 404,240 405,241 406,241 407,242 408,243 408,244 409,245 409,244 408,243 408,242 407,241 407,240 406,240 405,240 404,239 403,238 402,237 401,237 400,236 400,235 400,234 400,233 399,232 398,232 397,232 396,231 395,231 394,230 393,229 392,229 391,229 390,229 389,229 388,230 389,231 389,232 389,233 388,234 387,234 386,235 385,235 384,235 383,235 382,235 381,235 380,235 379,235 378,236 377,236 376,236 375,237 374,237 373,238 372,237 371,236 371,235 372,234 372,233 373,232 374,231 375,230 376,229 376,228">
      <metadata tailDirection="" confidence="0.00" linkedToCharacter="" id="CYB_COSMOZONE_008_balloon_4" tailTip=""></metadata>
    </polygon>
    <polygon points="295,88 295,89 295,90 295,91 295,92 295,93 295,94 295,95 295,96 295,97 295,98 295,99 295,100 295,101 295,102 295,103 295,104 295,105 295,106 295,107 295,108 295,109 295,110 295,111 295,112 295,113 295,114 295,115 295,116 295,117 295,118 295,119 295,120 295,121 294,122 294,123 294,124 294,125 294,126 294,127 294,128 294,129 294,130 294,131 294,132 294,133 294,134 294,135 294,136 294,137 294,138 294,139 294,140 294,141 294,142 294,143 294,144 294,145 294,146 294,147 294,148 295,149 295,150 296,151 297,152 297,153 298,154 298,155 299,155 300,156 300,157 301,158 302,159 303,160 304,161 305,162 306,163 307,164 308,165 309,166 310,167 311,168 312,168 313,169 314,170 315,170 316,171 317,172 318,172 319,173 320,174 321,174 322,175 323,175 324,176 325,176 326,177 327,177 328,178 329,178 330,179 331,179 332,179 333,180 334,180 335,180 336,181 337,181 338,181 339,182 340,183 341,183 342,183 343,184 344,185 344,186 345,187 345,188 345,189 345,190 345,191 345,192 345,193 345,194 345,195 345,196 345,197 345,198 345,199 345,198 345,197 345,196 346,195 346,194 346,193 346,192 346,191 347,190 347,189 347,188 347,187 348,186 349,186 350,186 351,186 352,187 353,187 354,187 355,187 356,188 357,188 358,188 359,188 360,188 361,188 362,188 363,189 364,189 365,189 366,189 367,189 368,190 369,190 370,190 371,190 372,190 373,190 374,190 375,190 376,191 377,191 378,191 379,191 380,191 381,191 382,191 383,191 384,191 385,191 386,191 387,191 388,191 389,191 390,191 391,192 392,192 393,192 394,192 395,192 396,192 397,192 398,192 399,192 400,192 401,192 402,192 403,192 404,192 405,192 406,192 407,192 408,192 409,192 410,192 411,192 412,192 413,192 414,192 415,191 416,191 417,191 418,191 419,191 420,191 421,191 422,191 423,191 424,190 425,190 426,190 427,189 428,189 429,189 430,189 431,188 432,188 433,188 434,188 435,187 436,187 437,187 438,187 439,187 440,186 441,186 442,186 443,185 444,185 445,184 446,184 447,184 448,183 449,183 450,183 451,182 452,182 453,181 454,181 455,181 456,181 457,180 458,180 459,179 460,179 461,179 462,179 463,178 464,178 465,177 466,176 467,176 468,175 469,174 470,173 471,173 472,172 473,171 474,171 475,170 476,169 477,168 478,167 479,166 480,165 481,164 482,164 483,163 484,162 485,162 486,161 486,160 487,159 488,158 489,157 489,156 489,155 490,154 490,153 491,152 491,151 492,150 492,149 493,148 494,147 494,146 494,145 495,144 495,143 495,142 495,141 496,140 496,139 496,138 496,137 496,136 496,135 497,134 497,133 497,132 497,131 497,130 497,129 497,128 497,127 497,126 497,125 497,124 496,123 496,122 496,121 495,120 495,119 494,118 494,117 494,116 493,115 493,114 492,113 492,112 491,111 491,110 490,109 490,108 489,107 488,106 487,105 486,104 486,103 485,102 484,101 483,100 482,99 481,98 480,98 479,97 478,96 477,95 477,94 476,93 475,92 474,91 473,91 472,90 471,89 470,89 469,88 468,88 467,88 466,88 465,88 464,88 463,88 462,88 461,88 460,88 459,88 458,88 457,88 456,88 455,88 454,88 453,88 452,88 451,88 450,88 449,88 448,88 447,88 446,88 445,88 444,88 443,88 442,88 441,88 440,88 439,88 438,88 437,88 436,88 435,88 434,88 433,88 432,88 431,88 430,88 429,88 428,88 427,88 426,88 425,88 424,88 423,88 422,88 421,88 420,88 419,88 418,88 417,88 416,88 415,88 414,88 413,88 412,88 411,88 410,88 409,88 408,88 407,88 406,88 405,88 404,88 403,88 402,88 401,88 400,88 399,88 398,88 397,88 396,88 395,88 394,88 393,88 392,88 391,88 390,88 389,88 388,88 387,88 386,88 385,88 384,88 383,88 382,88 381,88 380,88 379,88 378,88 377,88 376,88 375,88 374,88 373,88 372,88 371,88 370,88 369,88 368,88 367,88 366,88 365,88 364,88 363,88 362,88 361,88 360,88 359,88 358,88 357,88 356,88 355,88 354,88 353,88 352,88 351,88 350,88 349,88 348,88 347,88 346,88 345,88 344,88 343,88 342,88 341,88 340,88 339,88 338,88 337,88 336,88 335,88 334,88 333,88 332,88 331,88 330,88 329,88 328,88 327,88 326,88 325,88 324,88 323,88 322,88 321,88 320,88 319,88 318,88 317,88 316,88 315,88 314,88 313,88 312,88 311,88 310,88 309,88 308,88 307,88 306,88 305,88 304,88 303,88 302,88 301,88 300,88 299,88 298,88 297,88 296,88 295,88">
      <metadata tailDirection="" confidence="0.00" linkedToCharacter="" id="CYB_COSMOZONE_008_balloon_5" tailTip=""></metadata>
    </polygon>
    <polygon points="14,88 14,89 14,90 14,91 14,92 14,93 14,94 14,95 14,96 14,97 14,98 14,99 14,100 14,101 14,102 13,103 14,104 14,105 14,106 14,107 14,108 14,109 14,110 14,111 14,112 14,113 14,114 14,115 14,116 14,117 14,118 14,119 14,120 14,121 13,122 14,123 14,124 13,125 14,126 14,127 14,128 14,129 13,130 13,131 14,132 13,133 14,134 14,135 13,136 13,137 14,138 14,139 13,140 13,141 14,142 14,143 14,144 14,145 14,146 13,147 13,148 13,149 14,150 13,151 13,152 13,153 13,154 13,155 14,156 15,157 16,158 17,159 18,159 19,160 20,160 21,161 22,162 23,162 24,163 25,163 26,164 27,165 28,165 29,166 30,166 31,167 32,167 33,168 34,168 35,169 36,169 37,169 38,170 39,170 40,171 41,171 42,172 43,172 44,172 45,173 46,173 47,173 48,174 49,174 50,174 51,175 52,175 53,175 54,175 55,176 56,176 57,176 58,176 59,177 60,177 61,177 62,177 63,178 64,178 65,178 66,178 67,178 68,178 69,178 70,178 71,178 72,178 73,179 73,180 74,181 74,182 74,183 74,182 74,181 75,180 76,179 77,178 78,178 79,178 80,178 81,179 82,179 83,179 84,179 85,179 86,179 87,179 88,179 89,180 90,179 91,179 92,179 93,179 94,179 95,179 96,179 97,179 98,179 99,179 100,179 101,179 102,179 103,179 104,179 105,179 106,179 107,179 108,179 109,179 110,179 111,179 112,179 113,179 114,179 115,178 116,178 117,178 118,178 119,178 120,178 121,177 122,177 123,177 124,177 125,177 126,177 127,177 128,176 129,176 130,176 131,176 132,176 133,175 134,175 135,175 136,175 137,175 138,174 139,174 140,174 141,174 142,173 143,173 144,172 145,172 146,172 147,171 148,171 149,170 150,170 151,170 152,169 153,169 154,168 155,168 156,168 157,167 158,167 159,166 160,165 161,164 162,164 163,163 164,162 165,162 166,161 167,160 168,160 169,159 170,158 171,157 172,156 173,155 174,154 174,153 175,152 176,151 176,150 177,149 178,148 179,147 179,146 179,145 180,144 180,143 181,142 181,141 182,140 182,139 182,138 182,137 183,136 183,135 183,134 184,133 184,132 184,131 183,130 184,129 184,128 184,127 184,126 184,125 184,124 184,123 184,122 183,121 183,120 183,119 183,118 183,117 183,116 183,115 182,114 182,113 182,112 182,111 181,110 181,109 180,108 180,107 180,106 179,105 179,104 179,103 178,102 178,101 177,100 177,99 176,98 175,97 175,96 174,95 174,94 173,93 172,92 172,91 171,90 170,89 170,88 169,88 168,88 167,88 166,88 165,88 164,88 163,88 162,88 161,88 160,88 159,88 158,88 157,88 156,88 155,88 154,88 153,88 152,88 151,88 150,88 149,88 148,88 147,88 146,88 145,88 144,88 143,88 142,88 141,88 140,88 139,88 138,88 137,88 136,88 135,88 134,88 133,88 132,88 131,88 130,88 129,88 128,88 127,88 126,88 125,88 124,88 123,88 122,88 121,88 120,88 119,88 118,88 117,88 116,88 115,88 114,88 113,88 112,88 111,88 110,88 109,88 108,88 107,88 106,88 105,88 104,88 103,88 102,88 101,88 100,88 99,88 98,88 97,88 96,88 95,88 94,88 93,88 92,88 91,88 90,88 89,88 88,88 87,88 86,88 85,88 84,88 83,88 82,88 81,88 80,88 79,88 78,88 77,88 76,88 75,88 74,88 73,88 72,88 71,88 70,88 69,88 68,88 67,88 66,88 65,88 64,88 63,88 62,88 61,88 60,88 59,88 58,88 57,88 56,88 55,88 54,88 53,88 52,88 51,88 50,88 49,88 48,88 47,88 46,88 45,88 44,88 43,88 42,88 41,88 40,88 39,88 38,88 37,88 36,88 35,88 34,88 33,88 32,88 31,88 30,88 29,88 28,88 27,88 26,88 25,88 24,88 23,88 22,88 21,88 20,88 19,88 18,88 17,88 16,88 15,88 14,88">
      <metadata tailDirection="" confidence="0.00" linkedToCharacter="" id="CYB_COSMOZONE_008_balloon_6" tailTip=""></metadata>
    </polygon>
    <polygon points="136,117 137,116 138,116 139,116 140,116 141,116 142,117 143,117 144,116 145,116 146,116 147,116 148,116 149,117 148,118 147,118 146,118 146,119 147,119 148,119 149,120 150,121 150,122 149,123 148,124 147,125 146,125 145,125 144,125 143,124 142,124 141,125 140,125 139,125 138,125 137,124 136,124 135,123 135,122 135,121 135,120 135,119 135,118 136,117">
      <metadata tailDirection="" confidence="0.00" linkedToCharacter="" id="CYB_COSMOZONE_008_balloon_7" tailTip=""></metadata>
    </polygon>
    <polygon points="137,35 138,34 139,34 140,35 141,36 141,37 141,38 141,39 141,40 141,41 141,42 142,42 143,42 144,42 145,43 146,43 147,44 148,45 148,46 149,46 150,45 151,44 152,43 153,43 154,43 155,44 156,44 157,45 158,46 158,47 159,48 159,49 158,50 158,51 157,52 156,53 155,53 154,54 153,54 152,54 151,53 150,53 149,52 148,52 147,53 146,54 145,54 144,55 143,55 142,55 142,56 141,57 140,57 139,56 139,55 139,54 139,53 138,52 138,51 138,50 138,49 138,48 138,47 138,46 137,47 137,48 136,49 136,50 136,51 135,52 135,53 135,54 134,55 134,56 134,57 133,58 133,59 132,60 132,61 132,62 132,63 131,64 130,64 129,64 128,63 128,62 128,61 129,60 129,59 130,58 130,57 130,56 131,55 131,54 130,53 129,52 129,51 128,50 128,49 128,48 127,47 127,46 126,46 125,46 124,46 123,47 122,48 122,49 122,50 123,51 123,52 124,52 125,52 126,53 127,54 127,55 126,56 125,56 124,56 123,56 122,55 121,54 120,53 119,52 119,51 119,50 119,49 119,48 119,47 120,46 120,45 121,44 122,44 123,43 124,43 125,42 126,43 127,43 128,43 129,44 130,45 130,46 131,47 131,48 132,49 132,50 133,50 133,49 133,48 134,47 134,46 134,45 135,44 136,44 137,44 138,43 138,42 137,41 137,40 137,39 137,38 137,37 137,36 137,35">
      <metadata tailDirection="" confidence="0.00" linkedToCharacter="" id="CYB_COSMOZONE_008_balloon_8" tailTip=""></metadata>
    </polygon>
  </svg>
</svg>
