<?xml version="1.0" encoding="UTF-8" standalone="no"?>
<svg width="749" xmlns="http://www.w3.org/2000/svg" version="1.0" height="1052">
  <title>CYB_MOUETTEMAN_002</title>
  <svg contentScriptType="text/ecmascript" zoomAndPan="magnify" contentStyleType="text/css" class="Page" preserveAspectRatio="xMidYMid meet" version="1.0">
    <image xmlns:xlink="http://www.w3.org/1999/xlink" x="0" y="0" width="749" height="1052" xlink:href="/media/Donnees/DATA/DATASET/eBDtheque_100/CYB_MOUETTEMAN_002.jpg" xlink:type="simple" xlink:actuate="onLoad" preserveAspectRatio="xMidYMid meet" xlink:show="embed"/>
  </svg>
  <style type="text/css" xml:space="preserve">
        * { stroke-linejoin: round; }
        .Unclassified   { fill: orange; stroke: none;   opacity: 1.0; visibility: hidden; }
        .Noise          { fill: pink;   stroke: none;   opacity: 0.2; visibility: hidden; }
        .Panel          { fill: none;   stroke: red;    stroke-width:3; opacity: 0.5; visibility: visible; image-rendering: optimizeSpeed; }
        .Line           { fill: green;  stroke: none;   opacity: 0.5; visibility: visible; image-rendering: optimizeSpeed; }
        .TextArea       { fill: grey;   stroke: none;   opacity: 0.2; visibility: visible; image-rendering: optimizeSpeed; }
        .Balloon        { fill: cyan;   stroke: none;   opacity: 0.5; visibility: visible; image-rendering: optimizeSpeed; }
        .Letter         { fill: blue;   stroke: none;   opacity: 0.2; visibility: hidden; }
        .Object, .Character, .Face  { fill: yellow; stroke: none;   opacity: 0.5; visibility: visible; image-rendering: optimizeSpeed; }
        .Page           { fill: white;  stroke: none;    opacity: 0.5; visibility: visible; }
        .linkSBSC { fill: blue; stroke: none; opacity: 1.0; visibility: visible; }
        polygon:hover { opacity:0.2; }
</style>
  <svg xmlns="http://www.w3.org/2000/svg" contentScriptType="text/ecmascript" zoomAndPan="magnify" contentStyleType="text/css" class="Balloon" preserveAspectRatio="xMidYMid meet" version="1.0">
    <polygon points="359,960 358,961 357,961 356,962 355,962 354,963 353,963 352,964 352,965 351,966 351,967 351,968 350,969 350,970 350,971 350,972 349,973 349,974 349,975 349,976 349,977 349,978 349,979 349,980 349,981 350,981 351,982 352,983 352,984 351,985 350,984 351,985 351,986 352,987 353,988 353,989 353,990 353,991 353,992 353,993 354,994 355,995 356,995 355,995 354,994 353,993 353,992 353,991 353,990 353,989 353,988 352,987 353,986 354,986 355,985 356,985 357,985 358,985 359,986 359,987 359,988 359,989 359,990 359,991 359,992 360,993 360,994 360,995 360,996 360,997 360,996 360,995 360,994 360,993 360,992 359,991 359,990 359,989 359,988 359,987 359,986 360,985 361,986 362,987 362,988 362,989 363,990 363,991 364,992 364,993 365,994 366,994 367,993 367,992 367,991 367,990 367,989 367,988 367,987 367,986 366,985 367,984 368,983 369,982 370,983 370,984 369,985 369,986 370,986 371,985 372,985 373,984 374,984 375,984 376,984 377,984 378,984 379,984 380,985 381,985 382,985 383,985 384,985 385,985 385,984 386,983 385,983 384,983 383,983 382,983 381,983 380,983 379,983 378,983 377,982 377,981 378,980 379,981 380,981 381,981 382,981 383,981 384,981 385,980 386,980 387,980 388,980 389,980 390,980 391,981 391,982 390,983 390,984 390,985 390,986 390,987 390,988 389,989 389,990 389,991 388,992 388,993 387,994 386,995 385,995 384,994 383,993 383,992 384,991 384,990 384,989 383,989 382,989 381,988 380,988 379,988 378,988 377,988 376,988 376,989 377,990 378,991 379,991 380,992 381,993 382,993 383,993 384,994 384,995 385,996 385,997 386,998 386,999 386,1000 386,1001 386,1000 386,999 387,998 388,997 388,996 389,995 390,994 391,994 392,994 393,993 394,993 395,992 396,992 397,991 398,990 398,989 399,988 399,987 398,987 397,986 396,986 396,987 396,988 395,989 394,990 393,990 392,990 391,989 392,988 393,987 393,986 392,985 391,984 391,983 392,982 393,981 393,980 394,979 395,979 396,980 397,980 398,980 399,980 400,980 401,980 400,979 400,978 400,977 400,976 399,975 399,974 399,973 399,972 399,971 399,970 399,969 398,968 398,967 398,966 397,966 396,966 395,966 394,966 393,966 392,966 391,967 390,967 389,967 390,967 391,967 392,967 393,968 392,969 391,969 390,969 389,970 388,970 387,969 386,969 385,969 384,969 383,969 382,969 381,969 380,969 379,969 378,969 377,969 376,969 375,969 374,969 373,969 373,970 374,970 375,970 376,969 377,969 378,969 379,969 380,969 381,970 382,971 381,972 380,972 379,972 378,972 377,972 376,972 375,972 374,973 373,973 372,973 371,973 370,973 369,974 368,975 367,974 366,974 365,975 364,975 363,974 362,975 361,975 360,974 360,973 360,972 360,971 361,970 361,969 361,968 361,967 361,966 361,965 362,964 362,963 362,962 361,961 360,961 359,960">
      <metadata tailDirection="" confidence="0.00" linkedToCharacter="" id="CYB_MOUETTEMAN_002_balloon_0" tailTip=""></metadata>
    </polygon>
    <polygon points="434,914 433,915 432,916 431,917 430,917 429,917 428,917 427,918 427,919 427,920 427,921 427,922 427,923 427,924 427,925 428,926 428,927 428,928 429,929 429,930 430,931 430,932 430,933 430,934 429,935 429,936 429,937 428,938 428,939 428,940 427,941 427,942 427,943 427,944 427,945 427,946 427,947 427,948 427,949 427,950 427,951 427,952 427,953 427,954 427,955 427,956 427,957 427,958 427,959 427,960 426,961 425,961 424,960 424,959 424,958 424,957 424,956 424,955 424,954 424,953 424,952 424,951 424,950 424,949 424,950 424,951 424,952 424,953 424,954 424,955 424,956 424,957 424,958 424,959 424,960 423,961 422,962 421,961 421,960 421,959 421,958 420,959 420,960 419,961 418,962 418,963 418,964 419,965 419,966 419,967 419,968 419,969 419,970 419,971 420,972 420,973 419,974 418,973 417,972 417,971 417,970 417,969 416,968 416,967 416,966 415,965 414,964 413,965 412,965 411,965 410,964 409,964 408,963 407,963 406,963 405,964 404,964 403,965 402,965 401,965 401,966 402,967 402,968 402,969 402,970 402,971 403,972 403,973 403,974 403,975 403,976 403,977 403,978 404,979 404,980 405,980 406,979 407,979 408,979 408,978 408,977 408,976 408,975 407,974 407,973 407,972 407,971 407,970 407,969 406,968 406,967 405,966 406,965 407,965 408,965 409,966 409,967 410,968 411,969 412,970 412,971 412,972 411,973 411,974 411,975 411,976 412,976 413,977 413,978 413,979 413,980 413,981 413,982 414,983 413,984 412,985 411,986 410,987 409,988 409,989 408,990 407,989 407,988 407,987 408,986 409,985 408,985 407,986 406,986 405,986 404,986 403,986 402,987 402,988 402,989 401,990 400,991 399,992 398,993 397,994 397,995 397,996 397,997 397,998 398,998 399,999 400,998 401,998 402,997 403,997 404,997 405,997 406,998 407,999 408,998 408,997 408,996 408,995 409,994 410,994 411,995 412,994 412,993 412,992 413,991 414,992 415,991 415,990 416,989 417,989 418,989 419,990 420,990 421,990 422,990 423,989 424,989 425,989 425,988 425,987 425,986 425,985 425,984 425,983 426,982 427,982 428,983 428,984 428,985 428,986 428,987 429,986 430,986 431,986 432,985 433,985 434,985 435,985 436,986 437,986 438,987 439,988 440,989 440,990 441,991 440,992 439,992 438,991 437,990 436,989 435,989 434,988 433,988 432,989 431,989 430,989 429,990 428,990 427,991 426,992 425,992 424,992 425,993 426,994 427,995 428,996 428,997 428,996 428,995 428,994 428,993 429,992 430,991 431,990 432,990 433,990 434,990 435,991 436,992 437,993 438,994 438,995 439,996 439,997 439,998 439,999 440,1000 440,1001 440,1002 440,1003 441,1004 441,1005 442,1006 443,1007 443,1008 443,1009 444,1010 444,1011 444,1012 445,1013 445,1014 445,1015 445,1016 444,1017 444,1018 444,1019 445,1020 446,1021 447,1022 448,1022 449,1023 450,1024 451,1024 452,1025 453,1026 454,1027 455,1028 456,1029 457,1030 458,1031 458,1032 459,1033 460,1033 461,1032 462,1032 463,1032 464,1032 465,1033 466,1033 467,1033 468,1032 469,1033 469,1032 469,1031 469,1030 470,1029 471,1028 472,1028 473,1027 474,1026 475,1025 475,1024 476,1023 477,1022 477,1021 476,1021 475,1021 474,1020 473,1020 472,1020 471,1021 470,1021 469,1022 468,1023 467,1024 467,1025 466,1026 466,1027 466,1028 466,1029 466,1030 465,1031 464,1030 464,1029 463,1029 462,1028 463,1027 464,1026 464,1025 464,1024 465,1023 466,1022 467,1021 468,1020 469,1019 470,1019 469,1018 469,1017 469,1016 470,1015 471,1015 472,1016 473,1017 474,1017 475,1017 476,1017 477,1018 478,1018 479,1017 478,1017 477,1016 477,1015 478,1014 479,1013 478,1013 477,1013 476,1013 475,1014 474,1014 473,1014 472,1014 471,1014 470,1014 469,1013 469,1014 469,1015 469,1016 468,1017 467,1017 466,1018 465,1018 464,1019 463,1020 462,1021 461,1022 461,1023 461,1024 460,1025 459,1025 458,1024 458,1023 459,1022 459,1021 460,1020 459,1020 458,1020 457,1020 456,1020 455,1020 454,1020 453,1020 452,1020 451,1020 450,1020 449,1020 448,1019 447,1019 446,1018 446,1017 446,1016 446,1015 447,1014 448,1013 449,1013 449,1012 449,1011 449,1010 449,1009 449,1008 449,1007 448,1006 448,1005 447,1004 447,1003 447,1002 447,1001 446,1000 445,1000 444,1000 443,1000 442,1000 441,999 440,998 439,997 439,996 439,995 440,994 441,994 442,995 442,996 443,996 444,996 445,997 446,997 446,996 445,995 444,994 443,994 442,993 442,992 441,991 441,990 440,989 440,988 441,987 442,986 442,985 442,984 441,983 442,982 443,982 444,981 445,982 446,983 446,984 446,983 447,982 448,982 449,982 450,982 451,983 452,982 453,982 454,982 455,983 456,983 457,983 458,983 459,983 460,983 461,983 462,983 463,983 464,984 465,984 466,984 467,984 468,984 469,985 470,985 471,986 470,987 471,987 472,987 473,987 474,987 474,986 474,985 475,984 476,984 477,984 478,984 479,984 480,983 481,983 481,982 481,981 482,980 482,979 482,978 482,977 482,976 482,975 481,974 481,973 481,972 481,971 481,970 481,969 482,968 483,967 484,968 484,969 484,970 484,971 485,972 485,973 485,974 485,975 486,976 486,977 486,978 486,979 487,979 488,979 489,980 490,979 491,979 492,979 493,979 494,979 494,978 493,977 493,976 493,975 493,974 493,973 493,972 493,971 492,970 492,969 492,968 491,967 491,966 490,965 489,964 489,963 490,962 491,963 492,964 493,964 494,964 495,965 496,965 497,966 498,967 498,968 499,969 499,970 499,971 500,972 501,973 501,974 502,974 502,973 502,972 502,971 501,970 501,969 500,968 500,967 501,966 502,966 503,967 504,968 505,969 506,968 507,967 508,967 509,966 510,966 511,967 511,968 511,969 510,970 509,971 509,972 508,973 507,974 507,975 506,976 505,977 504,978 503,977 504,978 504,979 503,980 502,981 501,982 502,982 503,982 504,982 505,981 506,980 507,981 508,982 509,983 510,983 511,984 511,983 511,982 510,981 509,980 508,979 507,978 507,977 508,976 509,975 510,976 511,977 511,978 511,977 511,976 511,975 511,974 511,973 511,972 511,971 511,970 511,969 511,968 511,967 511,966 511,965 511,964 511,963 511,962 511,961 511,960 511,959 511,958 511,957 511,956 511,955 511,954 511,953 511,952 511,951 511,950 511,949 511,948 511,947 511,946 511,945 511,944 511,943 511,942 511,941 511,940 511,939 511,938 510,939 509,938 508,937 508,936 507,935 507,934 506,934 506,935 506,936 505,937 504,938 503,938 502,938 501,938 501,939 501,940 501,941 501,942 501,943 500,944 499,944 498,945 497,945 496,946 495,946 494,946 493,946 493,947 493,948 493,949 493,950 493,951 493,952 494,952 495,952 496,953 497,954 496,955 495,955 494,955 493,955 492,954 491,954 490,954 489,953 489,952 489,951 489,950 489,949 490,948 491,947 490,947 490,948 489,949 489,950 488,951 487,951 486,951 485,951 485,952 484,953 483,953 482,952 482,951 482,950 483,949 482,949 481,948 480,947 479,946 479,945 478,945 477,945 476,945 475,946 474,946 473,945 474,944 473,945 472,945 471,946 470,946 469,945 468,945 467,945 468,946 468,947 468,948 468,949 467,950 466,951 465,952 464,952 463,952 462,952 463,952 464,953 465,954 465,955 464,956 464,957 463,958 464,958 465,958 466,958 467,958 468,958 469,958 470,958 471,957 472,956 472,955 471,955 470,954 470,953 471,952 472,952 473,952 474,952 475,952 476,951 477,951 478,951 479,952 479,953 478,954 477,954 476,955 477,956 477,957 476,958 475,958 474,958 473,959 473,960 473,961 473,962 474,962 475,963 476,963 477,963 478,962 478,961 479,960 479,959 480,958 481,958 482,959 482,960 482,961 483,961 484,961 485,962 484,963 483,964 482,964 481,964 480,965 479,965 478,965 477,966 476,966 475,966 474,966 473,966 472,965 471,965 470,964 469,964 468,964 467,964 466,964 465,964 464,964 463,964 462,964 461,963 460,963 459,964 458,965 457,965 456,965 455,965 454,965 453,964 453,963 452,963 451,963 450,963 449,963 448,963 447,962 446,961 445,962 444,962 443,962 442,961 442,960 442,959 441,958 441,957 442,956 443,955 444,955 445,955 446,954 447,954 448,953 447,953 446,953 445,954 444,955 443,955 442,955 441,955 440,954 439,953 439,952 438,951 438,950 438,949 438,948 437,947 437,946 437,945 437,944 437,943 436,942 436,941 436,940 436,939 435,938 435,937 435,936 434,935 434,934 434,933 433,932 433,931 433,930 433,929 433,928 432,927 433,926 432,925 432,924 432,923 432,922 432,921 432,920 431,919 431,918 431,917 432,916 433,915 434,914">
      <metadata tailDirection="" confidence="0.00" linkedToCharacter="" id="CYB_MOUETTEMAN_002_balloon_1" tailTip=""></metadata>
    </polygon>
    <polygon points="342,817 341,818 340,818 339,818 338,818 337,818 336,819 335,819 334,819 333,819 332,820 331,820 330,821 329,821 328,821 327,822 326,822 325,823 324,823 323,824 322,824 321,825 320,825 319,826 318,827 317,827 316,828 315,829 314,830 313,830 312,831 311,832 311,833 310,834 309,835 309,836 308,837 307,838 307,839 306,840 306,841 306,842 305,843 305,844 305,845 304,846 304,847 304,848 304,849 304,850 304,851 304,852 304,853 305,854 305,855 305,856 306,857 306,858 306,859 307,860 307,861 308,862 308,863 309,864 310,865 311,866 311,867 312,868 313,869 314,869 315,870 316,871 317,872 318,872 319,873 320,874 321,874 322,875 323,875 324,876 325,876 326,877 327,877 328,878 329,878 330,878 331,879 332,879 333,879 334,880 335,880 336,880 337,880 338,881 339,881 340,881 341,881 342,882 343,882 344,882 345,883 345,884 345,885 345,886 345,887 345,888 345,889 344,890 345,891 345,892 345,893 345,894 346,895 346,896 346,897 347,898 347,899 348,900 348,901 348,900 348,899 348,898 347,897 347,896 347,895 347,894 347,893 347,892 347,891 347,890 348,889 348,888 348,887 348,886 349,885 349,884 350,883 351,883 352,882 353,882 354,882 355,882 356,882 357,882 358,882 359,882 360,882 361,882 362,882 363,882 364,882 365,881 366,881 367,881 368,881 369,880 370,880 371,880 372,880 373,879 374,879 375,879 376,878 377,878 378,878 379,877 380,877 381,876 382,876 383,875 384,875 385,874 386,874 387,873 388,872 389,872 390,871 391,870 392,869 393,868 394,867 395,866 396,865 397,864 397,863 398,862 399,861 399,860 400,859 400,858 400,857 401,856 401,855 401,854 401,853 402,852 402,851 402,850 402,849 402,848 402,847 402,846 401,845 401,844 401,843 400,842 400,841 400,840 399,839 399,838 398,837 397,836 397,835 396,834 395,833 395,832 394,831 393,830 392,830 391,829 390,828 389,827 388,827 387,826 386,825 385,825 384,824 383,824 382,823 381,823 380,822 379,822 378,821 377,821 376,821 375,820 374,820 373,820 372,819 371,819 370,819 369,819 368,818 367,818 366,818 365,818 364,817 363,817 362,817 361,817 360,817 359,817 358,817 357,817 356,817 355,817 354,817 353,817 352,817 351,817 350,817 349,817 348,817 347,817 346,817 345,817 344,817 343,817 342,817">
      <metadata tailDirection="" confidence="0.00" linkedToCharacter="" id="CYB_MOUETTEMAN_002_balloon_2" tailTip=""></metadata>
    </polygon>
    <polygon points="449,563 450,562 451,562 452,562 453,562 454,563 454,564 453,565 452,566 451,565 451,564 450,565 449,566 448,567 447,568 447,569 448,570 449,569 450,569 451,569 452,569 452,568 453,567 453,566 454,565 455,564 456,563 457,563 458,563 459,564 460,565 460,566 460,567 460,568 460,569 459,570 458,571 457,572 456,572 455,573 454,572 453,571 452,571 451,572 450,572 449,573 448,572 447,572 446,571 445,570 445,569 445,568 445,567 446,566 447,565 448,564 449,563">
      <metadata tailDirection="" confidence="0.00" linkedToCharacter="" id="CYB_MOUETTEMAN_002_balloon_3" tailTip=""></metadata>
    </polygon>
    <polygon points="415,563 416,562 417,562 418,562 419,562 420,562 421,563 422,564 422,565 421,566 422,567 422,566 423,565 424,564 425,563 426,563 427,563 428,564 429,563 430,564 431,565 432,565 433,564 434,565 434,566 433,567 432,568 432,569 431,570 430,569 430,568 430,567 429,566 429,567 429,568 428,569 427,568 427,567 427,566 426,566 425,566 424,567 424,568 423,569 424,570 425,570 426,569 427,568 428,569 428,570 427,571 426,572 425,572 424,573 423,572 422,571 421,571 420,571 419,572 418,572 417,572 416,573 415,572 414,571 414,570 414,569 415,568 415,567 415,566 415,565 415,564 415,563">
      <metadata tailDirection="" confidence="0.00" linkedToCharacter="" id="CYB_MOUETTEMAN_002_balloon_4" tailTip=""></metadata>
    </polygon>
    <polygon points="231,271 232,270 233,270 234,270 235,270 236,270 237,270 238,270 239,271 240,271 241,271 242,271 243,271 244,271 245,271 246,271 247,271 248,271 249,271 250,271 251,271 252,271 253,271 254,271 255,271 256,271 257,271 258,271 259,271 260,271 261,271 262,271 263,271 264,271 265,271 266,271 267,271 268,271 269,271 270,271 271,271 272,271 273,271 274,271 275,271 276,271 277,271 278,271 279,271 280,271 281,271 282,271 283,271 284,271 285,271 286,271 287,271 288,271 289,271 290,271 291,271 292,271 293,271 294,271 295,271 296,271 297,271 298,271 299,271 300,271 301,271 302,271 303,271 304,271 305,271 306,271 307,271 308,271 309,271 310,271 311,271 312,271 313,271 314,271 315,271 316,271 317,271 318,271 319,271 320,271 321,271 322,271 323,271 324,271 325,271 326,271 327,271 328,271 329,271 330,271 331,271 332,271 333,271 334,271 335,271 336,271 337,271 338,271 339,271 340,271 341,271 342,271 343,271 344,271 345,271 346,271 347,271 348,271 349,271 350,271 351,271 352,271 353,271 354,271 355,271 356,271 357,271 358,271 359,271 360,271 361,271 362,271 363,271 364,271 365,271 366,271 367,271 368,271 369,271 370,271 371,271 372,271 373,271 374,271 375,271 376,271 377,271 378,271 379,271 380,271 381,271 382,271 383,271 384,271 385,271 386,271 387,271 388,271 389,271 390,271 391,271 392,271 393,271 394,271 395,271 396,271 397,271 398,271 399,271 400,271 401,271 402,271 403,271 404,271 405,271 406,271 407,271 408,271 409,271 410,271 411,271 412,271 413,271 414,271 415,271 416,271 417,271 418,271 419,271 420,271 421,271 422,271 423,271 424,271 425,271 426,271 427,271 428,271 429,271 430,271 431,271 432,271 433,271 434,271 435,271 436,271 437,271 438,271 439,271 440,271 441,271 442,271 443,271 444,271 445,271 446,271 447,271 448,271 449,271 450,271 451,271 452,271 453,271 454,271 455,271 456,271 457,271 458,271 459,271 460,271 461,271 462,271 463,271 464,271 465,271 466,271 467,271 468,271 469,271 470,271 471,271 472,271 473,271 474,271 475,272 476,271 477,272 478,271 479,271 480,271 481,271 482,271 483,272 484,272 485,271 486,271 487,271 488,272 489,272 490,272 491,272 492,272 493,271 494,271 495,272 496,272 497,272 498,272 499,271 500,272 501,272 502,272 503,272 504,272 505,272 506,272 507,272 508,271 509,271 510,271 511,271 512,272 513,271 514,272 515,272 516,273 516,274 516,275 516,276 516,277 516,278 516,279 516,280 516,281 515,282 516,283 516,284 516,285 515,286 515,287 515,288 515,289 515,290 516,291 515,292 515,293 515,294 515,295 515,296 516,297 515,298 515,299 515,300 516,301 516,302 515,303 515,304 515,305 515,306 515,307 515,308 515,309 515,310 515,311 515,312 515,313 515,314 515,315 516,316 516,317 515,318 515,319 515,320 515,321 515,322 515,323 515,324 515,325 515,326 515,327 515,328 515,329 515,330 515,331 515,332 515,333 515,334 515,335 515,336 515,337 515,338 515,339 515,340 515,341 515,342 515,343 515,344 515,345 515,346 515,347 515,348 515,349 515,350 515,351 515,352 515,353 515,354 515,355 515,356 515,357 515,358 515,359 515,360 515,361 515,362 515,363 515,364 515,365 515,366 515,367 515,368 515,369 515,370 515,371 515,372 515,373 515,374 515,375 515,376 515,377 515,378 515,379 515,380 515,381 515,382 515,383 515,384 515,385 515,386 515,387 515,388 515,389 515,390 515,391 515,392 515,393 515,394 516,395 517,396 516,397 515,397 515,398 515,399 515,400 515,401 515,402 515,403 515,404 515,405 515,406 515,407 516,408 515,409 515,410 515,411 515,412 515,413 515,414 515,415 515,416 515,417 515,418 515,419 515,420 515,421 515,422 515,423 515,424 515,425 515,426 515,427 515,428 515,429 515,430 515,431 515,432 516,433 516,434 515,435 515,436 515,437 515,438 515,439 515,440 515,441 515,442 515,443 515,444 515,445 515,446 515,447 515,448 515,449 515,450 515,451 515,452 515,453 515,454 515,455 515,456 515,457 515,458 515,459 515,460 515,461 515,462 515,463 515,464 515,465 515,466 515,467 515,468 515,469 515,470 515,471 515,472 515,473 515,474 515,475 515,476 515,477 515,478 515,479 515,480 515,481 515,482 515,483 515,484 515,485 515,486 515,487 515,488 515,489 515,490 515,491 515,492 515,493 515,494 515,495 515,496 515,497 515,498 515,499 516,500 515,501 515,502 515,503 515,504 515,505 515,506 515,507 515,508 515,509 516,510 515,511 515,512 516,513 516,514 515,515 514,515 513,516 512,516 511,516 510,516 509,516 508,516 507,516 506,516 505,516 504,516 503,516 502,516 501,516 500,516 499,516 498,516 497,516 496,516 495,516 494,516 493,516 492,516 491,516 490,516 489,516 488,516 487,516 486,516 485,516 484,516 483,516 482,516 481,516 480,516 479,516 478,516 477,516 476,516 475,516 474,516 473,516 472,516 471,516 470,516 469,516 468,516 467,516 466,516 465,516 464,516 463,516 462,516 461,516 460,516 459,516 458,516 457,516 456,516 455,516 454,516 453,516 452,516 451,516 450,516 449,516 448,516 447,516 446,516 445,516 444,516 443,516 442,516 441,516 440,516 439,516 438,516 437,516 436,516 435,516 434,516 433,516 432,516 431,516 430,516 429,516 428,516 427,516 426,516 425,516 424,516 423,516 422,516 421,516 420,516 419,516 418,516 417,516 416,516 415,516 414,516 413,516 412,516 411,516 410,516 409,516 408,516 407,516 406,516 405,516 404,516 403,516 402,516 401,516 400,516 399,516 398,516 397,516 396,516 395,516 394,516 393,516 392,516 391,516 390,516 389,516 388,516 387,516 386,516 385,516 384,516 383,516 382,516 381,516 380,516 379,516 378,516 377,516 376,516 375,516 374,516 373,516 372,516 371,516 370,516 369,516 368,516 367,516 366,516 365,516 364,516 363,516 362,516 361,516 360,516 359,516 358,516 357,516 356,516 355,516 354,516 353,516 352,516 351,516 350,516 349,516 348,516 347,516 346,516 345,516 344,516 343,516 342,516 341,516 340,516 339,516 338,516 337,516 336,516 335,516 334,516 333,516 332,516 331,516 330,516 329,516 328,516 327,516 326,516 325,516 324,516 323,516 322,516 321,516 320,516 319,516 318,516 317,516 316,516 315,516 314,516 313,516 312,516 311,516 310,516 309,516 308,516 307,516 306,516 305,516 304,516 303,516 302,516 301,516 300,516 299,516 298,516 297,516 296,516 295,516 294,516 293,516 292,516 291,516 290,516 289,516 288,516 287,516 286,516 285,516 284,516 283,516 282,516 281,516 280,516 279,516 278,516 277,516 276,516 275,516 274,516 273,516 272,516 271,516 270,516 269,516 268,516 267,516 266,516 265,516 264,516 263,516 262,516 261,516 260,516 259,516 258,516 257,516 256,516 255,516 254,516 253,516 252,516 251,516 250,516 249,516 248,516 247,516 246,516 245,516 244,516 243,516 242,516 241,516 240,516 239,516 238,516 237,516 236,516 235,516 234,516 233,516 232,515 231,515 230,514 229,513 229,512 229,511 229,510 229,509 229,508 229,507 229,506 229,505 229,504 229,503 229,502 229,501 229,500 229,499 229,498 229,497 229,496 229,495 229,494 229,493 229,492 229,491 229,490 229,489 229,488 229,487 229,486 229,485 229,484 229,483 229,482 229,481 229,480 229,479 229,478 229,477 229,476 229,475 229,474 229,473 229,472 229,471 229,470 229,469 229,468 229,467 229,466 229,465 229,464 229,463 229,462 229,461 229,460 229,459 229,458 229,457 229,456 229,455 229,454 229,453 229,452 229,451 229,450 229,449 229,448 229,447 229,446 229,445 229,444 229,443 229,442 229,441 229,440 229,439 229,438 229,437 229,436 229,435 229,434 229,433 229,432 229,431 229,430 229,429 229,428 229,427 229,426 229,425 229,424 229,423 229,422 229,421 229,420 229,419 229,418 229,417 229,416 229,415 229,414 229,413 229,412 229,411 229,410 229,409 229,408 229,407 229,406 229,405 229,404 229,403 229,402 229,401 229,400 229,399 229,398 229,397 229,396 229,395 229,394 229,393 229,392 229,391 229,390 229,389 229,388 229,387 229,386 229,385 229,384 229,383 229,382 229,381 229,380 229,379 229,378 229,377 229,376 229,375 229,374 229,373 229,372 229,371 229,370 229,369 229,368 229,367 229,366 229,365 229,364 229,363 229,362 229,361 229,360 229,359 229,358 229,357 229,356 229,355 229,354 229,353 229,352 229,351 229,350 229,349 229,348 229,347 229,346 229,345 229,344 229,343 229,342 229,341 229,340 229,339 229,338 229,337 229,336 229,335 229,334 229,333 229,332 229,331 229,330 229,329 229,328 229,327 229,326 229,325 229,324 229,323 229,322 229,321 229,320 229,319 229,318 229,317 229,316 229,315 229,314 229,313 229,312 229,311 229,310 229,309 229,308 229,307 229,306 229,305 229,304 229,303 229,302 229,301 229,300 229,299 229,298 229,297 229,296 229,295 229,294 229,293 229,292 229,291 229,290 229,289 229,288 229,287 229,286 229,285 229,284 229,283 229,282 229,281 229,280 229,279 229,278 229,277 229,276 229,275 229,274 229,273 229,272 230,271 231,271">
      <metadata tailDirection="" confidence="0.00" linkedToCharacter="" id="CYB_MOUETTEMAN_002_balloon_5" tailTip=""></metadata>
    </polygon>
    <polygon points="234,275 234,276 234,277 234,278 234,279 234,280 233,281 233,282 233,283 233,284 233,285 233,286 233,287 233,288 233,289 233,290 233,291 233,292 233,293 233,294 233,295 233,296 233,297 233,298 233,299 233,300 233,301 233,302 233,303 233,304 233,305 233,306 233,307 233,308 233,309 233,310 233,311 233,312 233,313 233,314 233,315 233,316 233,317 233,318 233,319 233,320 233,321 233,322 233,323 233,324 233,325 233,326 233,327 233,328 233,329 233,330 233,331 233,332 233,333 233,334 233,335 233,336 233,337 233,338 233,339 233,340 233,341 233,342 233,343 233,344 233,345 233,346 233,347 233,348 233,349 233,350 233,351 233,352 233,353 233,354 233,355 233,356 233,357 233,358 233,359 233,360 233,361 233,362 234,363 234,364 235,365 236,366 237,367 238,368 239,369 240,369 241,370 242,371 243,371 244,372 245,372 246,373 247,373 248,374 249,374 250,375 251,375 252,376 253,376 254,377 255,377 256,377 257,378 258,378 259,378 260,379 261,379 262,380 263,380 264,380 265,381 266,381 267,381 268,382 269,382 270,382 271,382 272,383 273,383 274,383 275,383 276,384 277,384 278,384 279,384 280,384 281,385 282,385 283,385 284,385 285,385 286,385 287,385 288,385 289,386 289,387 289,388 289,389 288,390 288,391 287,392 287,393 287,394 286,395 286,396 285,397 285,398 285,399 284,400 283,401 283,402 282,403 282,404 281,405 281,406 282,406 283,406 284,406 285,406 286,406 287,406 288,406 289,406 290,406 291,406 292,407 293,408 293,409 293,410 292,411 292,412 291,413 291,414 291,415 290,416 290,417 290,418 289,419 289,420 289,421 289,422 288,423 288,424 288,425 289,425 290,426 291,426 292,426 293,426 294,426 295,426 296,426 297,426 298,426 299,426 300,426 301,426 302,426 303,426 304,427 305,427 306,427 307,427 308,427 307,426 306,426 305,426 304,425 303,425 302,424 301,424 300,424 299,424 298,424 297,423 296,423 295,423 294,422 293,421 293,420 293,419 293,418 294,417 294,416 295,415 295,414 295,413 296,412 296,411 297,410 297,409 298,408 299,407 299,406 298,405 297,405 296,405 295,404 294,404 293,404 292,403 291,403 290,402 290,401 290,400 290,399 291,398 291,397 292,396 293,395 294,394 295,393 295,392 296,391 296,390 296,389 297,388 298,388 299,387 300,388 301,388 302,388 303,388 304,388 305,388 306,388 307,388 308,388 309,388 310,388 311,389 312,389 313,389 314,389 315,389 316,389 317,389 318,389 319,389 320,389 321,389 322,389 323,389 324,389 325,389 326,389 327,389 328,389 329,389 330,389 331,389 332,389 333,389 334,389 335,389 336,389 337,389 338,390 339,390 340,390 341,390 342,390 343,390 344,390 345,390 346,389 347,389 348,389 349,389 350,389 351,389 352,389 353,389 354,389 355,389 356,389 357,389 358,389 359,388 360,387 360,386 361,385 361,384 360,383 359,383 358,382 357,382 356,381 355,381 354,380 353,380 352,379 352,378 352,377 352,376 353,375 354,374 354,373 355,372 356,371 357,370 358,369 359,369 360,368 361,367 362,366 363,366 364,365 365,365 366,364 367,364 368,363 369,363 370,363 371,362 372,362 373,362 374,362 375,361 376,361 377,361 378,361 379,361 380,361 381,361 382,361 383,361 384,360 385,360 386,360 387,359 388,359 389,358 390,358 391,358 392,357 393,357 394,357 395,356 396,356 397,356 398,356 399,356 400,355 401,355 402,355 403,355 404,355 405,354 406,354 407,354 408,354 409,354 410,354 411,354 412,354 413,354 414,354 415,354 416,354 417,354 418,354 419,354 420,354 421,354 422,354 423,354 424,354 425,354 426,354 427,354 428,354 429,354 430,354 431,354 432,355 433,355 434,355 435,356 436,356 437,356 438,356 439,357 440,357 441,357 442,357 443,358 444,358 445,358 446,359 447,360 448,360 449,361 450,361 451,362 452,363 453,364 454,365 455,365 456,366 457,367 458,368 459,369 460,369 461,368 462,368 463,367 464,366 465,366 466,365 467,364 468,363 469,363 470,362 471,361 472,360 473,359 474,359 475,358 475,357 476,356 477,356 478,355 479,354 479,353 480,352 481,351 481,350 482,349 483,348 483,347 484,346 484,345 485,344 485,343 485,342 486,341 486,340 487,339 487,338 487,337 487,336 488,335 488,334 488,333 488,332 488,331 488,330 488,329 488,328 488,327 488,326 488,325 488,324 488,323 488,322 488,321 488,320 488,319 488,318 488,317 488,316 488,315 488,314 488,313 487,312 487,311 487,310 487,309 487,308 486,307 486,306 486,305 485,304 485,303 485,302 484,301 484,300 483,299 483,298 483,297 482,296 481,295 481,294 481,293 480,292 479,291 479,290 479,289 478,288 477,287 477,286 476,285 476,284 475,283 474,282 474,281 473,280 472,279 471,278 470,277 469,276 468,275 467,275 466,275 465,275 464,275 463,275 462,275 461,275 460,275 459,276 458,275 457,275 456,275 455,275 454,275 453,275 452,275 451,275 450,275 449,275 448,275 447,275 446,275 445,275 444,275 443,275 442,275 441,275 440,275 439,275 438,275 437,275 436,275 435,275 434,275 433,275 432,275 431,275 430,275 429,275 428,275 427,275 426,275 425,275 424,275 423,275 422,275 421,275 420,275 419,275 418,275 417,275 416,275 415,275 414,275 413,275 412,275 411,275 410,275 409,275 408,275 407,275 406,275 405,275 404,275 403,275 402,275 401,275 400,275 399,275 398,275 397,275 396,275 395,275 394,275 393,275 392,275 391,275 390,275 389,275 388,275 387,275 386,275 385,275 384,275 383,275 382,275 381,275 380,275 379,275 378,275 377,275 376,275 375,275 374,275 373,275 372,275 371,275 370,275 369,275 368,275 367,275 366,275 365,275 364,275 363,275 362,275 361,275 360,275 359,275 358,275 357,275 356,275 355,275 354,275 353,275 352,275 351,275 350,275 349,275 348,275 347,275 346,275 345,275 344,275 343,275 342,275 341,275 340,275 339,275 338,275 337,275 336,275 335,275 334,275 333,275 332,275 331,275 330,275 329,275 328,275 327,275 326,275 325,275 324,275 323,275 322,275 321,275 320,275 319,275 318,275 317,275 316,275 315,275 314,275 313,275 312,275 311,275 310,275 309,275 308,275 307,275 306,275 305,275 304,275 303,275 302,275 301,275 300,275 299,275 298,275 297,275 296,275 295,275 294,275 293,275 292,275 291,275 290,275 289,275 288,275 287,275 286,275 285,275 284,275 283,275 282,275 281,275 280,275 279,275 278,275 277,275 276,275 275,275 274,275 273,275 272,275 271,275 270,275 269,275 268,275 267,275 266,275 265,275 264,275 263,275 262,275 261,275 260,275 259,275 258,275 257,275 256,275 255,275 254,275 253,275 252,275 251,275 250,275 249,275 248,275 247,275 246,275 245,275 244,275 243,275 242,275 241,275 240,275 239,275 238,275 237,275 236,275 235,275 234,275">
      <metadata tailDirection="" confidence="0.00" linkedToCharacter="" id="CYB_MOUETTEMAN_002_balloon_6" tailTip=""></metadata>
    </polygon>
  </svg>
</svg>
