<?xml version="1.0" encoding="UTF-8" standalone="no"?>
<svg width="1280" xmlns="http://www.w3.org/2000/svg" version="1.0" height="1798">
  <title>CYB_MOUETTEMAN_006</title>
  <svg contentScriptType="text/ecmascript" zoomAndPan="magnify" contentStyleType="text/css" class="Page" preserveAspectRatio="xMidYMid meet" version="1.0">
    <image xmlns:xlink="http://www.w3.org/1999/xlink" x="0" y="0" width="1280" height="1798" xlink:href="/media/Donnees/DATA/DATASET/eBDtheque_100/CYB_MOUETTEMAN_006.jpg" xlink:type="simple" xlink:actuate="onLoad" preserveAspectRatio="xMidYMid meet" xlink:show="embed"/>
  </svg>
  <style type="text/css" xml:space="preserve">
        * { stroke-linejoin: round; }
        .Unclassified   { fill: orange; stroke: none;   opacity: 1.0; visibility: hidden; }
        .Noise          { fill: pink;   stroke: none;   opacity: 0.2; visibility: hidden; }
        .Panel          { fill: none;   stroke: red;    stroke-width:3; opacity: 0.5; visibility: visible; image-rendering: optimizeSpeed; }
        .Line           { fill: green;  stroke: none;   opacity: 0.5; visibility: visible; image-rendering: optimizeSpeed; }
        .TextArea       { fill: grey;   stroke: none;   opacity: 0.2; visibility: visible; image-rendering: optimizeSpeed; }
        .Balloon        { fill: cyan;   stroke: none;   opacity: 0.5; visibility: visible; image-rendering: optimizeSpeed; }
        .Letter         { fill: blue;   stroke: none;   opacity: 0.2; visibility: hidden; }
        .Object, .Character, .Face  { fill: yellow; stroke: none;   opacity: 0.5; visibility: visible; image-rendering: optimizeSpeed; }
        .Page           { fill: white;  stroke: none;    opacity: 0.5; visibility: visible; }
        .linkSBSC { fill: blue; stroke: none; opacity: 1.0; visibility: visible; }
        polygon:hover { opacity:0.2; }
</style>
  <svg xmlns="http://www.w3.org/2000/svg" contentScriptType="text/ecmascript" zoomAndPan="magnify" contentStyleType="text/css" class="Balloon" preserveAspectRatio="xMidYMid meet" version="1.0">
    <polygon points="191,1686 190,1687 190,1688 189,1689 189,1690 190,1689 190,1688 191,1687 192,1686 193,1687 194,1688 194,1689 194,1690 195,1691 195,1692 196,1693 196,1694 196,1695 196,1696 197,1697 197,1698 197,1699 198,1700 198,1701 199,1702 199,1703 199,1704 200,1705 200,1706 201,1707 201,1708 202,1709 202,1710 203,1711 203,1712 204,1713 204,1714 205,1714 206,1714 207,1714 207,1713 206,1712 205,1711 205,1710 205,1709 205,1708 206,1707 207,1707 208,1707 209,1707 210,1708 210,1709 211,1710 211,1711 211,1712 212,1713 212,1714 213,1714 214,1714 215,1714 216,1714 217,1714 218,1714 219,1715 220,1715 219,1714 219,1713 218,1712 217,1711 217,1710 216,1709 217,1708 218,1707 219,1708 220,1708 221,1708 222,1709 222,1710 223,1711 223,1712 224,1713 223,1714 222,1715 223,1715 224,1715 225,1715 226,1715 227,1715 228,1715 229,1715 230,1715 231,1715 232,1715 233,1715 234,1715 235,1715 236,1715 237,1715 238,1715 239,1715 240,1715 241,1715 242,1715 243,1715 244,1715 245,1715 246,1715 247,1715 248,1715 249,1715 250,1715 251,1715 251,1714 250,1713 249,1712 249,1711 248,1710 248,1709 247,1708 246,1707 246,1706 245,1705 244,1704 244,1703 243,1702 242,1701 242,1700 241,1699 241,1698 240,1697 240,1696 239,1695 238,1694 238,1693 237,1692 237,1691 236,1690 235,1689 235,1688 234,1688 233,1688 232,1688 231,1688 230,1688 229,1688 228,1688 227,1688 226,1688 225,1688 224,1688 223,1688 222,1688 221,1688 220,1688 219,1688 218,1688 217,1688 216,1688 215,1688 214,1688 213,1688 212,1687 211,1687 210,1687 209,1687 208,1687 207,1687 206,1687 205,1687 204,1687 203,1686 202,1686 201,1686 200,1686 199,1686 198,1686 197,1686 196,1686 195,1686 194,1686 193,1686 192,1686 191,1686">
      <metadata tailDirection="" confidence="0.00" linkedToCharacter="" id="CYB_MOUETTEMAN_006_balloon_0" tailTip=""></metadata>
    </polygon>
    <polygon points="948,1302 947,1303 946,1303 945,1303 944,1303 943,1304 942,1304 941,1304 940,1304 939,1304 938,1304 937,1305 936,1305 935,1305 934,1305 933,1305 932,1306 931,1306 930,1306 929,1306 928,1306 927,1307 926,1307 925,1307 924,1307 923,1307 922,1308 921,1308 920,1308 919,1308 918,1309 917,1309 916,1309 915,1310 914,1310 913,1310 912,1310 911,1311 910,1311 909,1311 908,1312 907,1312 906,1312 905,1313 904,1313 903,1313 902,1314 901,1314 900,1314 899,1315 898,1315 897,1316 896,1316 895,1316 894,1317 893,1317 892,1318 891,1318 890,1319 889,1319 888,1320 887,1320 886,1321 885,1321 884,1321 883,1322 882,1322 881,1323 880,1324 879,1325 878,1326 877,1326 876,1327 875,1328 874,1329 873,1329 873,1330 872,1331 871,1331 870,1332 870,1333 869,1334 868,1334 867,1335 866,1336 865,1337 864,1338 863,1339 862,1340 861,1341 860,1342 859,1343 859,1344 858,1345 857,1346 856,1347 856,1348 855,1349 855,1350 854,1351 854,1352 853,1353 853,1354 852,1355 852,1356 851,1357 850,1358 850,1359 849,1360 849,1361 849,1362 848,1363 848,1364 847,1365 847,1366 847,1367 846,1368 846,1369 846,1370 845,1371 845,1372 845,1373 844,1374 844,1375 844,1376 843,1377 843,1378 843,1379 842,1380 842,1381 842,1382 842,1383 842,1384 842,1385 842,1386 842,1387 841,1388 841,1389 841,1390 841,1391 841,1392 841,1393 841,1394 841,1395 841,1396 841,1397 841,1398 841,1399 841,1400 841,1401 841,1402 841,1403 841,1404 841,1405 841,1406 841,1407 841,1408 841,1409 841,1410 841,1411 841,1412 841,1413 842,1414 842,1415 842,1416 842,1417 843,1418 843,1419 843,1420 844,1421 844,1422 844,1423 845,1424 845,1425 846,1426 846,1427 846,1428 847,1429 848,1430 848,1431 849,1432 849,1433 850,1434 851,1435 852,1436 852,1437 853,1438 854,1439 855,1440 856,1441 857,1442 858,1443 859,1443 860,1444 861,1444 862,1445 863,1446 864,1446 865,1447 866,1448 867,1448 868,1449 869,1449 870,1450 871,1450 872,1451 873,1452 874,1452 875,1453 876,1453 877,1454 878,1454 879,1455 880,1455 881,1456 882,1456 883,1456 884,1457 885,1457 886,1458 887,1458 888,1459 889,1459 890,1459 891,1460 892,1460 893,1460 894,1460 895,1461 896,1461 897,1461 898,1462 899,1462 900,1462 901,1462 902,1463 903,1463 904,1463 905,1463 906,1464 907,1464 908,1464 909,1464 910,1464 911,1465 912,1465 913,1465 914,1465 915,1465 916,1465 917,1465 918,1466 919,1466 920,1466 921,1466 922,1467 923,1467 924,1467 925,1467 926,1467 927,1468 928,1468 929,1468 930,1468 931,1468 932,1468 933,1469 934,1469 935,1469 936,1469 937,1470 938,1470 939,1470 940,1470 941,1470 942,1470 943,1470 944,1470 945,1470 946,1470 947,1470 948,1471 949,1470 950,1471 951,1471 952,1471 953,1471 954,1471 955,1471 956,1471 957,1471 958,1471 959,1471 960,1471 961,1471 962,1471 963,1471 964,1471 965,1472 966,1472 967,1472 968,1472 969,1472 970,1472 971,1472 972,1472 973,1472 974,1472 975,1472 976,1472 977,1472 978,1472 979,1472 980,1472 981,1472 982,1472 983,1472 984,1472 985,1472 986,1472 987,1472 988,1472 989,1472 990,1472 991,1472 992,1472 993,1472 994,1471 995,1471 996,1471 997,1471 998,1471 999,1470 1000,1469 1001,1470 1002,1469 1003,1469 1004,1470 1004,1471 1005,1472 1005,1473 1005,1474 1005,1475 1004,1476 1004,1477 1003,1478 1002,1479 1002,1480 1001,1481 1001,1482 1000,1483 999,1484 999,1485 998,1486 997,1487 996,1488 996,1489 995,1490 994,1491 994,1492 995,1492 996,1492 997,1492 998,1492 999,1493 1000,1492 1001,1493 1002,1493 1003,1493 1004,1493 1005,1493 1006,1493 1007,1494 1008,1494 1009,1495 1010,1496 1010,1497 1010,1498 1010,1499 1010,1500 1009,1501 1009,1502 1009,1503 1008,1504 1008,1505 1007,1506 1007,1507 1007,1508 1006,1509 1007,1508 1008,1507 1009,1506 1009,1505 1010,1504 1011,1503 1011,1502 1012,1501 1013,1500 1013,1499 1014,1498 1014,1497 1015,1496 1015,1495 1016,1494 1016,1493 1015,1493 1014,1493 1013,1493 1012,1493 1011,1493 1010,1492 1009,1492 1008,1492 1007,1492 1006,1492 1005,1491 1004,1491 1003,1491 1002,1490 1002,1489 1001,1488 1002,1487 1003,1486 1003,1485 1004,1484 1005,1483 1006,1482 1006,1481 1007,1480 1008,1479 1008,1478 1009,1477 1010,1476 1010,1475 1011,1474 1011,1473 1011,1472 1012,1471 1012,1470 1013,1469 1014,1468 1015,1467 1016,1466 1017,1466 1018,1466 1019,1465 1020,1465 1021,1464 1022,1464 1023,1463 1024,1463 1025,1462 1026,1462 1027,1462 1028,1461 1029,1461 1030,1461 1031,1460 1032,1460 1033,1459 1034,1459 1035,1458 1036,1458 1037,1457 1038,1457 1039,1456 1040,1456 1041,1455 1042,1455 1043,1454 1044,1454 1045,1453 1046,1452 1047,1452 1048,1451 1049,1451 1050,1450 1051,1449 1052,1449 1053,1448 1054,1447 1055,1447 1056,1446 1057,1445 1058,1444 1059,1443 1060,1443 1060,1442 1061,1441 1062,1440 1063,1439 1064,1438 1065,1437 1065,1436 1066,1435 1067,1434 1067,1433 1068,1432 1068,1431 1069,1430 1069,1429 1070,1428 1070,1427 1071,1426 1071,1425 1071,1424 1072,1423 1072,1422 1072,1421 1073,1420 1073,1419 1073,1418 1074,1417 1074,1416 1074,1415 1074,1414 1074,1413 1074,1412 1075,1411 1075,1410 1075,1409 1075,1408 1075,1407 1075,1406 1075,1405 1075,1404 1075,1403 1075,1402 1075,1401 1075,1400 1075,1399 1075,1398 1074,1397 1074,1396 1074,1395 1074,1394 1074,1393 1074,1392 1074,1391 1074,1390 1073,1389 1073,1388 1073,1387 1073,1386 1073,1385 1073,1384 1072,1383 1072,1382 1072,1381 1072,1380 1071,1379 1071,1378 1071,1377 1070,1376 1070,1375 1070,1374 1070,1373 1069,1372 1069,1371 1069,1370 1068,1369 1068,1368 1068,1367 1067,1366 1067,1365 1066,1364 1066,1363 1066,1362 1065,1361 1065,1360 1064,1359 1063,1358 1063,1357 1063,1356 1062,1355 1062,1354 1061,1353 1060,1352 1060,1351 1059,1350 1059,1349 1058,1348 1058,1347 1057,1346 1056,1345 1055,1344 1054,1343 1054,1342 1053,1341 1052,1340 1051,1339 1051,1338 1050,1338 1049,1337 1049,1336 1048,1335 1047,1334 1046,1333 1045,1332 1044,1332 1043,1331 1042,1330 1041,1329 1040,1328 1039,1328 1038,1327 1037,1326 1036,1325 1035,1325 1034,1324 1033,1323 1032,1323 1031,1322 1030,1321 1029,1321 1028,1320 1027,1319 1026,1319 1025,1318 1024,1317 1023,1317 1022,1316 1021,1315 1020,1315 1019,1314 1018,1314 1017,1313 1016,1313 1015,1312 1014,1312 1013,1311 1012,1311 1011,1310 1010,1309 1009,1309 1008,1308 1007,1308 1006,1308 1005,1307 1004,1307 1003,1307 1002,1306 1001,1306 1000,1306 999,1306 998,1306 997,1306 996,1306 995,1305 994,1305 993,1305 992,1304 991,1304 990,1304 989,1304 988,1304 987,1304 986,1303 985,1303 984,1303 983,1303 982,1303 981,1303 980,1303 979,1302 978,1302 977,1302 976,1302 975,1302 974,1302 973,1302 972,1302 971,1302 970,1302 969,1302 968,1302 967,1302 966,1302 965,1302 964,1302 963,1302 962,1302 961,1302 960,1302 959,1302 958,1302 957,1302 956,1302 955,1302 954,1302 953,1302 952,1302 951,1302 950,1302 949,1302 948,1302">
      <metadata tailDirection="" confidence="0.00" linkedToCharacter="" id="CYB_MOUETTEMAN_006_balloon_1" tailTip=""></metadata>
    </polygon>
    <polygon points="313,1288 312,1289 311,1289 310,1289 309,1289 308,1289 307,1289 306,1290 305,1290 304,1290 303,1290 302,1290 301,1290 300,1290 299,1291 298,1291 297,1291 296,1291 295,1291 294,1291 293,1291 292,1291 291,1291 290,1291 289,1292 288,1292 287,1292 286,1293 285,1293 284,1293 283,1293 282,1294 281,1294 280,1294 279,1294 278,1294 277,1294 276,1295 275,1295 274,1295 273,1295 272,1296 271,1296 270,1296 269,1297 268,1297 267,1297 266,1297 265,1298 264,1298 263,1298 262,1299 261,1299 260,1300 259,1300 258,1300 257,1301 256,1301 255,1302 254,1302 253,1303 252,1303 251,1304 250,1304 249,1304 248,1305 247,1305 246,1306 245,1306 244,1307 243,1307 242,1308 241,1308 240,1309 239,1309 238,1310 237,1310 236,1311 235,1311 234,1312 233,1313 232,1313 231,1314 230,1315 229,1315 228,1316 227,1317 226,1318 225,1319 224,1320 223,1321 222,1321 221,1322 220,1323 220,1324 219,1325 218,1325 218,1326 217,1327 216,1328 215,1329 214,1330 214,1331 213,1332 212,1333 212,1334 211,1335 211,1336 210,1337 210,1338 209,1339 209,1340 208,1341 207,1342 207,1343 206,1344 206,1345 206,1346 205,1347 205,1348 204,1349 204,1350 204,1351 204,1352 203,1353 203,1354 203,1355 203,1356 203,1357 203,1358 203,1359 202,1360 202,1361 202,1362 202,1363 202,1364 202,1365 202,1366 202,1367 202,1368 202,1369 201,1370 201,1371 201,1372 201,1373 201,1374 201,1375 201,1376 201,1377 201,1378 201,1379 201,1380 201,1381 202,1382 202,1383 202,1384 202,1385 201,1386 201,1387 201,1388 201,1389 202,1390 202,1391 202,1392 202,1393 202,1394 203,1395 203,1396 203,1397 203,1398 203,1399 203,1400 204,1401 204,1402 205,1403 205,1404 205,1405 205,1406 206,1407 206,1408 207,1409 207,1410 208,1411 208,1412 209,1413 209,1414 210,1415 210,1416 211,1417 211,1418 211,1419 212,1420 213,1421 213,1422 214,1423 215,1424 216,1425 216,1426 217,1427 218,1428 219,1429 219,1430 220,1431 221,1432 222,1433 223,1434 224,1435 225,1436 226,1437 227,1438 228,1439 229,1440 230,1441 231,1442 232,1442 233,1443 234,1443 235,1444 236,1444 237,1445 238,1444 239,1445 240,1446 240,1447 240,1448 239,1449 239,1450 238,1451 238,1452 237,1453 237,1454 236,1455 235,1456 235,1457 235,1458 234,1459 234,1460 234,1461 234,1462 233,1463 233,1464 233,1465 233,1466 233,1467 234,1468 234,1469 234,1470 234,1471 234,1472 234,1473 235,1474 235,1475 236,1476 236,1477 236,1476 235,1475 235,1474 235,1473 235,1472 235,1471 235,1470 235,1469 235,1468 235,1467 235,1466 235,1465 235,1464 235,1463 236,1462 236,1461 236,1460 237,1459 237,1458 238,1457 239,1456 239,1455 240,1454 241,1453 242,1452 243,1451 244,1450 245,1449 246,1448 247,1448 248,1449 249,1449 250,1449 251,1449 252,1449 253,1450 254,1450 255,1450 256,1450 257,1450 258,1451 259,1451 260,1451 261,1451 262,1451 263,1451 264,1452 265,1452 266,1452 267,1452 268,1452 269,1452 270,1453 271,1453 272,1453 273,1453 274,1453 275,1453 276,1453 277,1453 278,1454 279,1454 280,1454 281,1454 282,1454 283,1454 284,1454 285,1454 286,1454 287,1454 288,1454 289,1454 290,1454 291,1454 292,1454 293,1454 294,1454 295,1454 296,1454 297,1454 298,1454 299,1454 300,1455 301,1455 302,1455 303,1455 304,1455 305,1455 306,1455 307,1455 308,1455 309,1455 310,1455 311,1456 312,1456 313,1456 314,1456 315,1456 316,1456 317,1456 318,1456 319,1456 320,1456 321,1456 322,1456 323,1456 324,1456 325,1456 326,1456 327,1456 328,1456 329,1456 330,1456 331,1456 332,1456 333,1456 334,1456 335,1456 336,1456 337,1456 338,1456 339,1456 340,1456 341,1456 342,1456 343,1456 344,1456 345,1456 346,1456 347,1456 348,1456 349,1456 350,1455 351,1455 352,1455 353,1455 354,1456 355,1456 356,1456 357,1455 358,1455 359,1455 360,1455 361,1455 362,1455 363,1455 364,1455 365,1454 366,1454 367,1454 368,1454 369,1453 370,1453 371,1453 372,1453 373,1452 374,1452 375,1452 376,1452 377,1451 378,1451 379,1451 380,1451 381,1451 382,1450 383,1450 384,1450 385,1450 386,1450 387,1449 388,1449 389,1449 390,1449 391,1448 392,1448 393,1448 394,1448 395,1447 396,1447 397,1447 398,1446 399,1446 400,1445 401,1445 402,1445 403,1444 404,1444 405,1443 406,1442 407,1442 408,1441 409,1440 410,1439 411,1439 412,1438 413,1437 414,1437 415,1436 416,1435 417,1434 418,1433 419,1433 420,1432 421,1431 422,1430 423,1429 423,1428 424,1427 425,1426 426,1425 426,1424 426,1423 427,1422 428,1421 428,1420 429,1419 429,1418 430,1417 430,1416 431,1415 432,1414 432,1413 433,1412 433,1411 433,1410 434,1409 434,1408 434,1407 434,1406 435,1405 435,1404 435,1403 435,1402 435,1401 435,1400 435,1399 435,1398 436,1397 436,1396 436,1395 436,1394 436,1393 436,1392 436,1391 436,1390 436,1389 436,1388 436,1387 436,1386 436,1385 435,1384 435,1383 435,1382 435,1381 435,1380 435,1379 435,1378 435,1377 435,1376 435,1375 435,1374 435,1373 435,1372 435,1371 435,1370 434,1369 434,1368 434,1367 434,1366 434,1365 434,1364 434,1363 433,1362 433,1361 433,1360 433,1359 432,1358 432,1357 432,1356 432,1355 431,1354 431,1353 431,1352 431,1351 431,1350 430,1349 430,1348 430,1347 429,1346 429,1345 428,1344 428,1343 427,1342 427,1341 426,1340 426,1339 425,1338 425,1337 424,1336 424,1335 423,1334 423,1333 422,1332 422,1331 421,1330 420,1329 420,1328 419,1327 418,1326 418,1325 417,1324 416,1323 415,1322 415,1321 414,1320 413,1319 412,1318 411,1317 411,1316 410,1315 409,1314 408,1313 407,1312 407,1311 406,1310 405,1309 404,1309 403,1308 403,1307 402,1307 401,1306 400,1305 400,1304 399,1304 398,1303 397,1303 396,1302 395,1301 394,1301 393,1301 392,1301 391,1300 390,1299 389,1299 388,1298 387,1298 386,1297 385,1297 384,1297 383,1296 382,1296 381,1296 380,1295 379,1295 378,1295 377,1295 376,1294 375,1294 374,1293 373,1293 372,1293 371,1293 370,1293 369,1292 368,1292 367,1292 366,1292 365,1292 364,1291 363,1291 362,1291 361,1291 360,1291 359,1291 358,1291 357,1290 356,1290 355,1290 354,1290 353,1290 352,1290 351,1290 350,1290 349,1290 348,1290 347,1290 346,1289 345,1289 344,1289 343,1289 342,1289 341,1289 340,1289 339,1288 338,1289 337,1289 336,1289 335,1288 334,1288 333,1288 332,1288 331,1288 330,1288 329,1289 328,1289 327,1288 326,1288 325,1288 324,1288 323,1288 322,1288 321,1288 320,1288 319,1288 318,1288 317,1289 316,1288 315,1288 314,1288 313,1288">
      <metadata tailDirection="" confidence="0.00" linkedToCharacter="" id="CYB_MOUETTEMAN_006_balloon_2" tailTip=""></metadata>
    </polygon>
    <polygon points="592,1277 591,1278 590,1278 589,1278 588,1278 587,1278 586,1278 585,1278 584,1278 583,1278 582,1278 581,1278 580,1278 579,1278 578,1278 577,1278 576,1279 575,1279 574,1279 573,1279 572,1279 571,1280 570,1279 569,1280 568,1280 567,1280 566,1280 565,1280 564,1281 563,1281 562,1281 561,1281 560,1281 559,1282 558,1282 557,1282 556,1282 555,1282 554,1282 553,1282 552,1283 551,1283 550,1283 549,1283 548,1283 547,1284 546,1284 545,1284 544,1284 543,1285 542,1285 541,1285 540,1286 539,1286 538,1286 537,1286 536,1287 535,1287 534,1287 533,1288 532,1288 531,1288 530,1288 529,1289 528,1289 527,1290 526,1290 525,1290 524,1291 523,1292 522,1292 521,1293 520,1293 519,1294 518,1294 517,1295 516,1295 515,1295 514,1296 513,1297 512,1297 511,1297 510,1298 509,1299 508,1299 507,1300 506,1301 505,1301 504,1302 503,1302 502,1302 501,1303 500,1304 499,1304 498,1305 497,1306 496,1306 495,1307 494,1308 493,1309 492,1309 491,1310 490,1311 489,1312 488,1313 487,1313 486,1314 485,1315 485,1316 484,1317 484,1318 483,1319 482,1320 481,1321 480,1322 479,1323 479,1324 478,1325 478,1326 477,1327 476,1328 476,1329 475,1330 475,1331 474,1332 474,1333 473,1334 473,1335 472,1336 472,1337 471,1338 471,1339 471,1340 470,1341 470,1342 469,1343 469,1344 469,1345 468,1346 468,1347 468,1348 468,1349 467,1350 467,1351 467,1352 467,1353 467,1354 467,1355 466,1356 466,1357 466,1358 466,1359 466,1360 466,1361 466,1362 466,1363 466,1364 466,1365 466,1366 466,1367 466,1368 466,1369 467,1370 467,1371 467,1372 467,1373 467,1374 467,1375 467,1376 467,1377 467,1378 467,1379 468,1380 468,1381 468,1382 468,1383 469,1384 469,1385 469,1386 469,1387 470,1388 470,1389 470,1390 471,1391 471,1392 472,1393 472,1394 473,1395 473,1396 474,1397 474,1398 475,1399 475,1400 476,1401 476,1402 477,1403 478,1404 478,1405 479,1406 480,1407 481,1408 482,1409 482,1410 483,1411 484,1412 485,1413 486,1414 487,1414 488,1415 489,1416 490,1417 491,1418 492,1419 493,1419 494,1420 495,1421 496,1421 497,1422 498,1422 499,1423 500,1423 501,1424 502,1425 503,1425 504,1426 505,1426 506,1427 507,1428 508,1428 509,1429 510,1429 511,1429 512,1430 513,1430 514,1430 515,1431 516,1431 517,1431 518,1431 519,1432 520,1432 521,1432 522,1433 523,1433 524,1433 525,1434 526,1434 527,1434 528,1434 529,1435 530,1435 531,1435 532,1435 533,1436 534,1436 535,1436 536,1436 537,1436 538,1437 539,1437 540,1437 541,1437 542,1437 543,1437 544,1438 545,1438 546,1438 547,1438 548,1438 549,1439 550,1439 551,1439 552,1439 553,1439 554,1440 555,1440 556,1440 557,1440 558,1440 559,1440 560,1440 561,1440 562,1441 563,1441 564,1441 565,1441 566,1441 567,1441 568,1441 569,1441 570,1441 571,1442 572,1442 573,1442 574,1442 575,1442 576,1442 577,1442 578,1442 579,1442 580,1442 581,1442 582,1442 583,1442 584,1442 585,1442 586,1442 587,1442 588,1442 589,1442 590,1442 591,1442 592,1442 593,1442 594,1442 595,1442 596,1442 597,1442 598,1442 599,1442 600,1442 601,1442 602,1442 603,1442 604,1442 605,1442 606,1442 607,1442 608,1442 609,1442 610,1442 611,1442 612,1442 613,1442 614,1442 615,1442 616,1442 617,1442 618,1442 619,1442 620,1442 621,1442 622,1442 623,1442 624,1442 625,1442 626,1442 627,1441 628,1441 629,1441 630,1441 631,1441 632,1441 633,1441 634,1441 635,1441 636,1441 637,1441 638,1441 639,1440 640,1440 641,1440 642,1440 643,1440 644,1440 645,1440 646,1439 647,1439 648,1439 649,1439 650,1439 651,1439 652,1439 653,1438 654,1438 655,1438 656,1438 657,1438 658,1438 659,1438 660,1438 661,1438 662,1437 663,1437 664,1437 665,1437 666,1437 667,1437 668,1436 669,1436 670,1436 671,1436 672,1435 673,1435 674,1435 675,1435 676,1435 677,1434 678,1434 679,1434 680,1434 681,1434 682,1433 683,1433 684,1433 685,1432 686,1432 687,1432 688,1432 689,1431 690,1431 691,1431 692,1430 693,1430 694,1430 695,1429 696,1429 697,1428 698,1428 699,1427 700,1427 701,1427 702,1426 703,1426 703,1425 704,1424 705,1423 706,1423 707,1424 708,1425 708,1426 709,1427 710,1428 710,1429 711,1430 712,1431 712,1432 713,1433 714,1434 714,1435 714,1436 715,1437 715,1438 715,1439 716,1440 716,1441 716,1442 716,1443 716,1444 716,1445 716,1446 716,1447 715,1448 715,1449 716,1449 716,1448 717,1447 717,1446 717,1445 718,1444 718,1443 718,1442 717,1441 717,1440 717,1439 717,1438 716,1437 716,1436 716,1435 715,1434 715,1433 715,1432 714,1431 713,1430 712,1429 712,1428 711,1427 710,1426 710,1425 709,1424 708,1423 708,1422 709,1421 709,1420 710,1419 711,1418 712,1418 713,1417 714,1416 714,1415 715,1414 716,1413 717,1412 718,1411 718,1410 719,1409 720,1408 720,1407 721,1406 721,1405 722,1404 722,1403 723,1402 724,1401 724,1400 724,1399 725,1398 726,1397 726,1396 727,1395 727,1394 728,1393 728,1392 728,1391 729,1390 729,1389 729,1388 730,1387 730,1386 730,1385 730,1384 730,1383 730,1382 730,1381 730,1380 730,1379 731,1378 731,1377 731,1376 731,1375 731,1374 731,1373 731,1372 731,1371 731,1370 731,1369 731,1368 731,1367 731,1366 731,1365 731,1364 731,1363 731,1362 730,1361 730,1360 730,1359 730,1358 730,1357 730,1356 730,1355 730,1354 730,1353 730,1352 730,1351 730,1350 730,1349 729,1348 729,1347 729,1346 729,1345 729,1344 728,1343 728,1342 728,1341 728,1340 728,1339 727,1338 727,1337 727,1336 726,1335 726,1334 726,1333 725,1332 724,1331 724,1330 723,1329 723,1328 722,1327 722,1326 721,1325 721,1324 720,1323 720,1322 719,1321 719,1320 718,1319 717,1318 716,1317 715,1316 715,1315 714,1314 713,1313 713,1312 712,1311 711,1311 710,1310 709,1309 709,1308 708,1307 707,1306 706,1305 705,1304 704,1303 703,1302 702,1301 701,1300 700,1299 699,1298 698,1298 697,1297 696,1297 695,1296 694,1295 693,1295 692,1294 691,1294 690,1293 689,1293 688,1292 687,1291 686,1291 685,1290 684,1290 683,1289 682,1289 681,1289 680,1288 679,1288 678,1288 677,1288 676,1288 675,1287 674,1287 673,1286 672,1286 671,1286 670,1285 669,1285 668,1285 667,1284 666,1284 665,1284 664,1283 663,1283 662,1283 661,1283 660,1283 659,1283 658,1283 657,1283 656,1282 655,1282 654,1282 653,1282 652,1282 651,1282 650,1281 649,1281 648,1281 647,1281 646,1281 645,1280 644,1280 643,1280 642,1280 641,1280 640,1280 639,1279 638,1279 637,1279 636,1279 635,1279 634,1279 633,1279 632,1278 631,1278 630,1278 629,1278 628,1278 627,1278 626,1278 625,1278 624,1278 623,1278 622,1278 621,1278 620,1278 619,1278 618,1278 617,1278 616,1278 615,1277 614,1277 613,1277 612,1278 611,1277 610,1277 609,1277 608,1277 607,1277 606,1277 605,1277 604,1277 603,1277 602,1277 601,1277 600,1277 599,1277 598,1277 597,1277 596,1277 595,1277 594,1278 593,1277 592,1277">
      <metadata tailDirection="" confidence="0.00" linkedToCharacter="" id="CYB_MOUETTEMAN_006_balloon_3" tailTip=""></metadata>
    </polygon>
    <polygon points="1036,1034 1037,1033 1038,1033 1039,1034 1040,1034 1041,1035 1041,1036 1041,1037 1042,1038 1042,1039 1042,1040 1042,1041 1042,1042 1042,1043 1042,1044 1042,1045 1042,1046 1042,1047 1043,1048 1043,1049 1043,1050 1042,1051 1042,1052 1042,1053 1042,1054 1043,1055 1043,1056 1043,1057 1043,1058 1043,1059 1043,1060 1043,1061 1042,1062 1042,1063 1042,1064 1042,1065 1042,1066 1042,1067 1042,1068 1042,1069 1042,1070 1042,1071 1042,1072 1041,1073 1040,1073 1039,1074 1038,1074 1037,1074 1036,1074 1035,1074 1034,1074 1033,1073 1032,1073 1031,1073 1030,1073 1029,1073 1028,1073 1027,1073 1026,1073 1025,1073 1024,1073 1023,1073 1022,1073 1021,1073 1020,1073 1019,1073 1018,1073 1017,1073 1016,1073 1015,1072 1014,1071 1014,1070 1014,1069 1014,1068 1014,1067 1014,1066 1014,1065 1013,1064 1013,1063 1013,1062 1013,1061 1013,1060 1013,1059 1013,1058 1013,1057 1013,1056 1013,1055 1013,1054 1013,1053 1013,1052 1013,1051 1013,1050 1013,1049 1013,1048 1013,1047 1013,1046 1013,1045 1013,1044 1013,1043 1013,1042 1013,1041 1013,1040 1013,1039 1013,1038 1012,1037 1013,1036 1014,1035 1015,1034 1016,1034 1017,1034 1018,1034 1019,1034 1020,1035 1021,1034 1022,1034 1023,1034 1024,1034 1025,1034 1026,1034 1027,1034 1028,1034 1029,1034 1030,1034 1031,1034 1032,1034 1033,1034 1034,1034 1035,1034 1036,1034">
      <metadata tailDirection="" confidence="0.00" linkedToCharacter="" id="CYB_MOUETTEMAN_006_balloon_4" tailTip=""></metadata>
    </polygon>
    <polygon points="609,789 608,790 607,790 606,790 605,790 604,790 603,790 602,790 601,790 600,790 599,790 598,790 597,790 596,790 595,790 594,790 593,790 592,790 591,790 590,790 589,790 588,790 587,790 586,790 585,790 584,790 583,790 582,790 581,790 580,790 579,790 578,791 577,791 576,791 575,791 574,790 573,790 572,791 571,790 570,790 569,791 568,791 567,791 566,791 565,791 564,791 563,791 562,792 561,792 560,791 559,791 558,792 557,792 556,792 555,792 554,792 553,792 552,792 551,792 550,792 549,792 548,792 547,792 546,793 545,793 544,793 543,793 542,793 541,793 540,793 539,794 538,794 537,794 536,794 535,794 534,794 533,794 532,794 531,794 530,795 529,795 528,795 527,795 526,795 525,795 524,795 523,796 522,796 521,796 520,796 519,796 518,796 517,797 516,797 515,797 514,797 513,798 512,798 511,798 510,798 509,798 508,798 507,799 506,799 505,799 504,799 503,799 502,799 501,799 500,800 499,800 498,800 497,800 496,801 495,801 494,801 493,801 492,802 491,802 490,802 489,803 488,803 487,803 486,804 485,804 484,805 483,805 482,805 481,805 480,806 479,806 478,806 477,806 476,807 475,807 474,808 473,808 472,809 471,809 470,810 469,811 468,812 467,812 466,813 465,813 464,814 463,814 462,815 461,815 460,816 459,816 458,816 457,817 456,818 455,819 454,820 453,820 452,821 451,822 450,822 449,823 448,824 448,825 447,826 446,827 445,827 444,828 443,829 442,830 441,831 440,832 439,833 438,834 437,835 436,836 435,837 435,838 434,839 434,840 433,841 433,842 432,843 432,844 431,845 431,846 430,847 430,848 429,849 429,850 428,851 428,852 427,853 427,854 426,855 426,856 426,857 425,858 425,859 425,860 425,861 425,862 425,863 424,864 424,865 424,866 424,867 424,868 424,869 423,870 423,871 423,872 424,873 423,874 424,875 424,876 424,877 424,878 424,879 424,880 425,881 425,882 425,883 426,884 426,885 426,886 427,887 427,888 427,889 428,890 429,891 429,892 430,893 430,894 430,895 431,896 432,897 433,898 433,899 434,900 435,901 436,902 436,903 437,903 438,904 439,905 440,906 441,906 442,907 443,908 444,909 445,909 446,910 447,910 448,911 449,912 450,913 451,913 452,914 453,914 454,915 455,915 456,916 457,916 458,917 459,917 460,918 461,919 462,919 463,920 464,920 465,920 466,921 467,921 468,922 469,922 470,923 471,923 472,923 473,924 474,924 475,925 476,925 477,926 478,926 479,926 480,927 481,927 482,927 483,928 484,928 485,928 486,928 487,929 488,929 489,929 490,930 491,930 492,930 493,931 494,931 495,931 496,931 497,932 498,932 499,932 500,932 501,932 502,933 503,933 504,933 505,933 506,934 507,934 508,934 509,935 510,935 511,935 512,935 513,936 514,936 515,937 516,937 517,937 518,937 519,937 520,937 521,937 522,937 523,937 524,938 525,938 526,938 527,938 528,939 529,939 530,939 531,939 532,939 533,939 534,940 535,940 536,940 537,940 538,940 539,940 540,940 541,941 542,942 541,943 541,944 540,945 540,946 539,947 539,948 538,949 538,950 537,951 536,952 536,953 535,954 534,955 534,956 533,957 532,958 532,959 532,960 532,961 533,961 534,961 535,962 536,962 537,963 538,964 538,965 538,966 538,967 538,968 537,969 536,970 535,971 534,972 533,973 534,972 535,971 536,970 537,970 537,969 538,968 539,967 540,966 540,965 541,964 540,963 539,962 538,961 537,960 536,959 536,958 536,957 537,956 538,955 538,954 539,953 540,952 541,951 542,950 543,949 544,948 545,947 545,946 546,945 547,945 548,944 549,943 550,942 551,942 552,943 553,943 554,943 555,944 556,944 557,944 558,944 559,944 560,944 561,944 562,944 563,945 564,945 565,945 566,945 567,945 568,945 569,945 570,945 571,945 572,945 573,945 574,945 575,945 576,945 577,945 578,945 579,945 580,945 581,945 582,945 583,945 584,945 585,945 586,945 587,945 588,945 589,945 590,945 591,945 592,945 593,945 594,945 595,945 596,945 597,945 598,945 599,945 600,945 601,945 602,945 603,945 604,945 605,945 606,945 607,946 608,946 609,946 610,946 611,946 612,945 613,945 614,945 615,945 616,945 617,945 618,945 619,945 620,945 621,945 622,945 623,945 624,945 625,945 626,945 627,945 628,945 629,945 630,945 631,945 632,945 633,945 634,945 635,945 636,944 637,944 638,944 639,944 640,944 641,944 642,944 643,944 644,944 645,944 646,943 647,943 648,943 649,943 650,943 651,942 652,942 653,942 654,942 655,942 656,942 657,942 658,942 659,941 660,941 661,941 662,941 663,941 664,941 665,941 666,941 667,940 668,940 669,940 670,940 671,940 672,940 673,940 674,940 675,940 676,939 677,939 678,939 679,939 680,939 681,939 682,939 683,939 684,939 685,938 686,938 687,938 688,938 689,937 690,937 691,937 692,937 693,937 694,936 695,936 696,936 697,936 698,936 699,936 700,936 701,936 702,935 703,935 704,935 705,935 706,934 707,934 708,934 709,934 710,933 711,933 712,933 713,932 714,932 715,931 716,931 717,931 718,930 719,930 720,930 721,929 722,929 723,928 724,928 725,928 726,927 727,926 728,926 729,926 730,925 731,925 732,925 733,924 734,923 735,923 736,923 737,922 738,922 739,921 740,921 740,920 741,919 742,919 743,919 744,919 745,918 746,918 747,917 748,917 749,916 750,916 751,915 752,915 753,914 754,914 755,914 756,913 757,913 758,912 759,912 760,911 761,911 762,910 763,909 764,909 765,908 766,908 767,907 768,906 769,905 770,904 771,903 772,902 773,901 774,900 775,899 775,898 776,897 777,896 777,895 778,894 779,893 779,892 779,891 780,890 780,889 780,888 781,887 781,886 782,885 782,884 782,883 782,882 783,881 783,880 783,879 783,878 783,877 783,876 783,875 783,874 783,873 783,872 783,871 783,870 783,869 783,868 783,867 783,866 783,865 783,864 782,863 782,862 782,861 781,860 781,859 781,858 781,857 780,856 780,855 779,854 779,853 778,852 778,851 778,850 777,849 777,848 776,847 775,846 775,845 774,844 773,843 772,842 772,841 771,840 770,839 769,838 768,837 768,836 767,836 766,835 765,834 764,833 764,832 763,832 762,831 762,830 761,830 760,829 759,828 758,827 757,827 756,826 755,825 754,825 753,824 752,824 751,823 750,822 749,822 748,821 747,821 746,820 745,819 745,818 744,818 743,817 742,816 741,816 740,815 739,815 738,814 737,814 736,813 735,813 734,813 733,812 732,812 731,811 730,811 729,810 728,809 727,809 726,808 725,808 724,807 723,807 722,806 721,806 720,805 719,805 718,805 717,804 716,804 715,803 714,803 713,803 712,802 711,801 710,801 709,801 708,801 707,800 706,800 705,800 704,800 703,799 702,799 701,798 700,799 699,799 698,798 697,798 696,798 695,798 694,798 693,798 692,798 691,798 690,797 689,797 688,797 687,796 686,796 685,796 684,796 683,796 682,795 681,795 680,795 679,795 678,795 677,795 676,795 675,795 674,795 673,795 672,794 671,794 670,794 669,794 668,794 667,794 666,794 665,793 664,793 663,793 662,793 661,793 660,793 659,793 658,793 657,792 656,792 655,792 654,792 653,792 652,792 651,792 650,792 649,792 648,792 647,792 646,792 645,791 644,791 643,791 642,791 641,791 640,791 639,791 638,791 637,791 636,791 635,791 634,790 633,791 632,791 631,791 630,790 629,790 628,790 627,790 626,790 625,790 624,790 623,790 622,790 621,790 620,790 619,790 618,789 617,789 616,789 615,789 614,789 613,789 612,789 611,789 610,789 609,789">
      <metadata tailDirection="" confidence="0.00" linkedToCharacter="" id="CYB_MOUETTEMAN_006_balloon_5" tailTip=""></metadata>
    </polygon>
    <polygon points="980,781 979,782 978,782 977,782 976,782 975,782 974,782 973,782 972,782 971,782 970,782 969,782 968,782 967,782 966,782 965,782 964,782 963,782 962,782 961,782 960,782 959,782 958,782 957,782 956,782 955,782 954,782 953,782 952,782 951,782 950,782 949,782 948,782 947,782 946,782 945,782 944,782 943,782 942,782 941,782 940,782 939,782 938,782 937,782 936,782 935,782 934,782 933,782 932,782 931,782 930,782 929,782 928,782 927,782 926,782 925,782 924,782 923,782 922,782 921,782 920,783 919,783 918,783 917,783 916,783 915,783 914,783 913,783 912,783 911,783 910,783 909,783 908,783 907,782 906,783 905,783 904,783 903,783 902,783 901,783 900,783 899,783 898,782 897,783 896,783 895,783 894,783 893,783 892,783 891,783 890,783 889,783 888,783 887,783 886,783 885,783 884,783 883,783 882,783 881,783 880,783 879,782 878,783 877,783 876,783 875,783 874,783 873,783 872,783 871,783 870,783 869,783 868,783 867,783 866,783 865,783 864,783 863,783 862,783 861,783 860,783 859,783 858,783 857,783 856,783 855,782 854,783 853,783 852,782 851,782 850,782 849,782 848,782 847,782 846,782 845,783 844,782 843,783 842,783 841,783 840,783 839,783 838,783 837,783 836,783 835,783 834,783 833,783 832,783 831,782 830,783 829,783 828,783 827,783 826,783 825,783 824,783 823,783 822,783 821,783 820,783 819,783 818,783 817,783 816,782 815,783 814,783 813,782 812,783 811,783 810,783 809,783 808,783 807,783 806,783 805,783 804,783 803,782 802,783 801,783 800,783 799,783 798,782 797,782 796,783 795,783 794,783 793,783 792,783 791,783 790,783 789,783 788,783 787,783 786,783 785,783 784,783 783,783 782,783 781,783 780,783 779,783 778,783 777,783 776,783 775,783 774,783 773,783 772,783 771,783 770,783 769,783 768,783 767,783 766,783 765,783 764,783 763,783 762,783 761,783 760,783 759,783 758,783 757,783 756,783 755,783 754,783 753,783 752,783 751,783 750,783 749,783 748,783 747,783 746,783 745,783 744,783 743,783 743,784 743,785 742,786 741,786 740,787 739,787 738,786 738,785 739,784 740,783 741,783 740,783 739,783 738,783 737,783 736,783 735,783 734,783 733,783 732,783 731,783 730,783 729,783 728,783 727,783 726,783 725,783 724,783 723,783 722,783 721,783 720,783 719,783 718,783 717,783 716,783 715,783 714,783 713,783 712,782 711,783 710,783 709,783 708,783 707,783 706,783 705,783 704,783 703,783 702,783 701,783 700,783 699,783 698,783 697,783 696,783 695,783 694,783 693,783 692,783 691,783 690,783 689,783 688,783 687,783 686,783 685,783 684,783 683,783 682,783 681,783 680,783 679,783 678,783 677,783 676,783 675,783 674,783 673,783 672,783 671,783 670,783 669,783 668,783 667,783 666,783 665,783 664,783 663,783 662,783 661,783 660,783 659,783 658,783 657,783 656,783 655,783 654,783 653,783 652,783 651,783 650,783 649,783 648,783 647,783 646,783 645,783 644,783 643,783 642,783 641,783 640,783 639,783 638,783 637,783 636,783 635,783 634,783 633,783 632,783 631,783 630,783 629,783 628,783 627,783 626,783 625,783 624,783 623,783 622,783 621,783 620,783 619,783 618,783 617,783 616,783 615,783 614,783 613,783 612,783 611,783 610,783 609,783 608,783 607,783 606,783 605,783 604,783 603,783 602,783 601,783 600,783 599,783 598,783 597,783 596,783 595,783 594,783 593,783 592,783 591,783 590,783 589,783 588,783 587,783 586,783 585,783 584,783 583,783 582,783 581,783 580,783 579,783 578,783 577,783 576,783 575,783 574,783 573,783 572,783 571,783 570,783 569,783 568,783 567,783 566,783 565,783 564,783 563,783 562,783 561,783 560,783 559,783 558,783 557,783 556,783 555,783 554,783 553,783 552,783 551,783 550,783 549,783 548,783 547,783 546,783 545,783 544,783 543,783 542,783 541,783 540,783 539,783 538,783 537,783 536,783 535,783 534,783 533,783 532,783 531,783 530,783 529,783 528,783 527,783 526,783 525,783 524,783 523,783 522,783 521,783 520,783 519,783 518,783 517,783 516,783 515,783 514,783 513,783 512,783 511,783 510,783 509,783 508,783 507,783 506,783 505,783 504,783 503,783 502,783 501,783 500,783 499,783 498,783 497,783 496,783 495,783 494,783 493,783 492,783 491,783 490,783 489,783 488,783 487,783 486,783 485,783 484,783 483,783 482,783 481,783 480,783 479,783 478,783 477,783 476,783 475,783 474,783 473,783 472,783 471,783 470,783 469,783 468,783 467,783 466,783 465,783 464,783 463,783 462,783 461,783 460,783 459,783 458,783 457,783 456,783 455,783 454,783 453,783 452,783 451,783 450,783 449,783 448,783 447,783 446,783 445,783 444,783 443,783 442,783 441,783 440,783 439,783 438,783 437,783 436,783 435,783 434,783 433,783 432,783 431,783 430,783 429,783 428,783 427,783 426,783 425,783 424,783 423,783 422,783 421,783 420,783 419,783 418,783 417,783 416,783 415,783 414,783 413,783 412,783 411,783 410,783 409,783 408,783 407,783 406,784 405,783 404,783 403,783 402,783 401,783 400,783 399,783 398,783 397,783 396,784 395,784 394,783 393,783 392,783 391,784 390,783 389,783 388,783 387,783 386,783 385,784 384,783 383,783 382,783 381,783 380,783 379,783 378,784 377,783 376,783 375,783 374,783 373,783 372,783 371,783 370,783 369,783 368,784 367,784 366,784 365,784 364,784 363,784 362,784 361,784 360,784 359,784 358,784 357,783 356,783 355,783 354,784 353,784 352,784 351,783 350,783 349,784 348,784 347,784 346,784 345,784 344,784 343,784 342,784 341,784 340,784 339,784 338,784 337,784 336,784 335,784 334,784 333,784 332,784 331,784 330,784 329,784 328,784 327,784 326,784 325,784 324,784 323,784 322,784 321,784 320,784 319,784 318,784 317,784 316,784 315,784 314,784 313,784 312,784 311,784 310,784 309,784 308,784 307,784 306,784 305,784 304,784 303,784 302,784 301,784 300,784 299,784 298,784 297,784 296,784 295,784 294,784 293,784 292,784 291,784 290,784 289,784 288,784 287,784 286,784 285,784 284,784 283,784 282,784 281,784 280,784 279,784 278,784 277,784 276,784 275,784 274,784 273,784 272,784 271,784 270,784 269,784 268,784 267,784 266,784 265,784 264,784 263,784 262,784 261,784 260,784 259,784 258,784 257,784 256,784 255,784 254,784 253,784 252,784 251,784 250,784 249,784 248,784 247,784 246,784 245,784 244,784 243,784 242,784 241,784 240,784 239,784 238,784 237,784 236,784 235,784 234,784 233,784 232,784 231,784 230,784 229,784 228,784 227,784 226,784 225,784 224,784 223,784 222,784 221,784 220,784 219,784 218,784 217,784 216,784 215,784 214,784 213,784 212,784 211,784 210,784 209,784 208,784 207,784 206,784 205,784 204,784 203,784 202,784 201,784 200,784 199,784 198,784 197,784 196,784 195,784 194,784 193,784 192,784 191,784 190,784 189,785 188,785 187,785 186,785 185,785 184,785 183,785 183,786 183,787 183,788 183,789 183,790 183,791 183,792 183,793 183,794 183,795 183,796 183,797 183,798 183,799 183,800 183,801 183,802 183,803 184,804 183,805 183,806 183,807 184,808 183,809 183,810 184,811 183,812 183,813 183,814 183,815 183,816 183,817 183,818 184,819 183,820 183,821 183,822 183,823 183,824 183,825 183,826 183,827 183,828 183,829 183,830 183,831 184,832 185,832 186,833 187,833 188,833 189,833 190,834 191,834 192,834 193,834 194,835 195,835 196,835 197,835 198,836 199,836 200,836 201,837 202,837 203,837 204,837 205,838 206,838 207,838 208,839 209,839 210,840 211,840 212,840 213,840 214,841 215,841 216,841 217,841 218,842 219,842 220,842 221,842 222,843 223,843 224,844 225,844 226,844 227,844 228,844 229,845 230,845 231,845 232,846 233,846 234,846 235,846 236,846 237,846 238,847 239,847 240,847 241,847 242,848 243,848 244,848 245,849 246,849 247,849 248,850 249,850 250,850 251,850 252,851 253,851 254,851 255,851 256,851 257,851 258,852 259,852 260,852 261,852 262,852 263,853 264,853 265,853 266,853 267,853 268,853 269,854 270,853 271,853 272,853 273,854 274,854 275,854 276,855 277,855 278,855 279,855 280,855 281,856 282,856 283,856 284,856 285,856 286,856 287,857 288,857 289,857 290,857 291,857 292,858 293,858 294,858 295,858 296,858 297,858 298,859 299,859 300,859 301,859 302,859 303,859 304,860 305,860 306,860 307,860 308,860 309,860 310,861 311,861 312,861 313,861 314,861 315,861 316,862 317,862 318,862 319,862 320,862 321,862 322,862 323,862 324,862 325,863 326,863 327,863 328,863 329,863 330,863 331,863 332,863 333,863 334,864 335,864 336,864 337,864 338,864 339,864 340,864 341,864 342,865 343,865 344,865 345,865 346,865 347,865 348,865 349,865 350,866 351,866 352,866 353,866 354,866 355,866 356,866 357,866 358,866 359,866 360,866 361,866 362,867 363,867 364,867 365,867 366,867 367,867 368,867 369,868 370,868 371,868 372,868 373,868 374,868 375,868 376,868 377,868 378,868 379,868 380,869 381,869 382,869 383,868 384,869 385,869 386,869 387,869 388,869 389,869 390,870 391,870 392,870 393,870 394,870 395,870 396,870 397,870 398,871 399,871 400,871 401,871 402,871 403,871 404,871 405,871 406,871 407,871 408,871 409,871 410,871 411,872 412,872 413,872 414,872 415,872 416,871 417,871 417,870 417,869 417,868 417,867 418,866 418,865 418,864 418,863 418,862 419,861 419,860 419,859 419,858 420,857 420,856 420,855 421,854 421,853 421,852 422,851 422,850 423,849 423,848 424,847 424,846 425,845 425,844 426,843 426,842 427,841 427,840 428,839 428,838 429,837 430,836 430,835 431,834 430,833 431,832 432,832 433,831 434,830 435,829 436,828 437,827 438,826 439,825 440,824 441,824 442,823 443,823 444,822 444,821 445,820 446,819 447,819 448,818 449,817 450,817 451,816 452,816 453,815 454,814 455,813 456,813 457,812 458,811 459,811 460,811 461,810 462,810 463,809 464,808 465,808 466,808 467,807 468,807 469,807 470,806 471,805 472,805 473,805 474,804 475,804 476,804 477,803 478,803 479,802 480,802 481,802 482,801 483,801 484,800 485,800 486,800 487,799 488,798 489,797 490,797 491,797 492,797 493,796 494,796 495,796 496,796 497,795 498,795 499,795 500,795 501,794 502,794 503,794 504,794 505,794 506,793 507,793 508,793 509,793 510,793 511,792 512,792 513,792 514,792 515,792 516,792 517,791 518,791 519,791 520,791 521,790 522,790 523,790 524,790 525,790 526,790 527,789 528,789 529,789 530,789 531,789 532,788 533,788 534,788 535,788 536,788 537,788 538,788 539,788 540,788 541,788 542,788 543,788 544,787 545,787 546,787 547,787 548,787 549,786 550,786 551,786 552,786 553,786 554,786 555,786 556,786 557,786 558,786 559,786 560,786 561,786 562,786 563,786 564,786 565,786 566,786 567,785 568,785 569,785 570,785 571,785 572,785 573,785 574,785 575,785 576,785 577,785 578,785 579,785 580,785 581,785 582,784 583,784 584,784 585,784 586,784 587,784 588,784 589,784 590,784 591,784 592,784 593,784 594,784 595,784 596,784 597,784 598,784 599,784 600,784 601,784 602,784 603,784 604,784 605,784 606,784 607,784 608,784 609,784 610,784 611,784 612,784 613,784 614,784 615,784 616,784 617,784 618,784 619,784 620,784 621,784 622,784 623,784 624,784 625,784 626,784 627,784 628,784 629,785 630,784 631,785 632,785 633,785 634,785 635,785 636,785 637,785 638,785 639,786 640,786 641,786 642,786 643,786 644,786 645,786 646,786 647,786 648,786 649,786 650,786 651,786 652,786 653,786 654,787 655,787 656,787 657,787 658,787 659,787 660,787 661,787 662,787 663,788 664,788 665,788 666,788 667,788 668,788 669,788 670,788 671,788 672,789 673,789 674,789 675,789 676,789 677,789 678,789 679,789 680,790 681,790 682,790 683,790 684,790 685,790 686,790 687,791 688,791 689,791 690,792 691,792 692,792 693,792 694,793 695,793 696,793 697,793 698,794 699,794 700,794 701,794 702,794 703,794 704,794 705,794 706,795 707,795 708,795 709,795 710,796 711,796 712,797 713,797 714,797 715,798 716,798 717,798 718,799 719,799 720,799 721,800 722,800 723,801 724,801 725,802 726,802 727,803 728,803 729,804 730,804 731,805 732,805 733,806 734,806 735,807 736,807 737,807 738,808 739,808 740,809 741,809 742,809 743,810 744,810 745,811 746,811 747,812 748,813 749,814 750,815 751,815 752,816 753,817 754,818 755,818 756,819 757,820 758,821 759,821 760,822 761,821 762,822 763,823 762,824 763,825 764,825 765,826 766,827 767,827 768,828 769,829 770,830 771,831 771,832 772,832 773,833 773,834 774,835 775,836 775,837 776,838 777,839 778,840 778,841 779,842 780,842 781,843 782,844 781,845 782,846 782,847 783,848 783,849 784,850 785,850 786,851 787,852 786,853 786,854 787,855 787,856 788,857 787,858 788,859 788,860 789,861 789,862 789,863 789,864 789,865 789,866 789,867 790,868 790,869 790,870 790,871 790,872 789,873 789,874 789,875 789,876 790,876 791,876 792,876 793,876 794,876 795,876 796,876 797,876 798,876 799,876 800,876 801,876 802,876 803,876 804,876 805,876 806,876 807,876 808,876 809,876 810,876 811,876 812,876 813,875 814,875 815,875 816,875 817,875 818,875 819,875 820,875 821,875 822,875 823,875 824,875 825,874 826,874 827,874 828,874 829,874 830,874 831,874 832,874 833,874 834,874 835,874 836,874 837,873 838,873 839,873 840,873 841,873 842,873 843,873 844,873 845,873 846,873 847,873 848,872 849,872 850,872 850,871 850,870 851,869 852,869 853,868 854,868 855,869 856,869 857,868 858,868 859,868 860,868 861,869 862,869 863,869 864,868 865,868 866,868 867,868 868,868 869,868 870,868 871,868 872,868 873,868 874,868 875,868 876,868 877,868 878,868 879,868 880,868 881,868 882,868 883,868 884,868 885,868 886,868 887,868 888,868 889,868 890,868 891,868 892,867 893,867 894,867 895,867 896,867 897,867 898,867 899,867 900,867 901,867 902,867 903,867 904,867 905,867 906,866 907,866 908,866 909,866 910,866 911,866 912,866 913,866 914,866 915,866 916,865 917,865 918,865 919,865 920,865 921,865 922,865 923,865 924,865 925,865 926,865 927,865 928,865 929,865 930,865 931,865 932,865 933,865 934,864 935,864 936,864 937,864 938,864 939,864 940,864 941,864 942,864 943,864 944,864 945,864 946,863 947,863 948,863 949,863 950,863 951,863 952,863 953,863 954,863 955,863 956,863 957,863 958,863 959,863 960,863 961,863 962,862 963,862 964,862 965,862 966,862 967,862 968,862 969,862 970,862 971,862 972,862 973,862 974,861 975,861 976,861 977,861 978,861 979,861 980,861 981,861 982,861 983,861 984,860 985,860 986,860 987,860 988,860 989,860 990,860 991,859 992,859 993,859 994,859 995,859 996,859 997,859 998,859 999,859 1000,859 1001,859 1002,859 1003,859 1004,859 1005,859 1006,859 1007,858 1008,858 1009,858 1010,858 1011,858 1012,858 1013,858 1014,858 1015,858 1016,857 1017,858 1018,857 1019,857 1020,857 1021,857 1022,856 1023,857 1024,857 1025,857 1026,856 1027,856 1028,856 1029,856 1030,855 1031,855 1032,855 1033,855 1034,855 1035,854 1036,854 1037,854 1038,854 1039,854 1040,854 1041,853 1042,853 1043,853 1044,853 1045,853 1046,852 1047,852 1048,852 1049,852 1050,852 1051,851 1052,851 1053,851 1054,851 1055,851 1056,850 1057,850 1058,850 1059,850 1060,850 1061,850 1062,850 1063,850 1064,849 1065,849 1066,849 1067,849 1068,849 1069,848 1070,848 1071,848 1072,848 1073,848 1074,848 1075,848 1076,848 1077,847 1078,847 1079,847 1080,847 1081,846 1082,846 1083,846 1084,846 1085,846 1086,845 1087,845 1088,845 1089,845 1090,844 1091,844 1091,843 1091,842 1091,841 1091,840 1091,839 1091,838 1091,837 1091,836 1091,835 1091,834 1091,833 1091,832 1091,831 1091,830 1091,829 1091,828 1091,827 1091,826 1091,825 1091,824 1091,823 1091,822 1091,821 1091,820 1090,820 1089,820 1088,820 1087,819 1087,818 1088,817 1089,817 1090,817 1091,816 1091,815 1091,814 1091,813 1091,812 1091,811 1091,810 1091,809 1091,808 1091,807 1091,806 1091,805 1091,804 1091,803 1091,802 1091,801 1091,800 1091,799 1091,798 1090,798 1089,798 1088,797 1087,797 1086,797 1085,797 1084,797 1083,796 1082,797 1081,797 1080,797 1079,796 1078,796 1077,796 1076,796 1075,796 1074,796 1073,796 1072,796 1071,797 1070,797 1069,797 1068,796 1069,795 1070,794 1071,794 1072,794 1073,794 1074,794 1075,794 1076,794 1077,794 1078,794 1079,794 1080,794 1081,793 1082,794 1083,794 1084,794 1085,793 1086,794 1087,794 1088,794 1089,794 1090,794 1091,794 1090,793 1090,792 1090,791 1090,790 1090,789 1089,788 1089,787 1089,786 1090,785 1091,785 1090,785 1089,786 1088,787 1087,786 1087,785 1088,784 1088,783 1087,783 1086,783 1085,782 1086,781 1087,781 1088,781 1089,781 1088,781 1087,781 1086,781 1085,781 1084,781 1083,781 1082,781 1081,781 1080,781 1079,781 1078,781 1077,781 1076,781 1075,781 1074,781 1073,781 1072,781 1071,781 1070,781 1069,781 1068,781 1067,781 1066,781 1065,781 1064,781 1063,781 1062,781 1061,781 1060,781 1059,781 1058,781 1057,781 1056,781 1055,781 1054,781 1053,781 1052,781 1051,781 1050,781 1049,781 1048,781 1047,781 1046,781 1045,781 1044,781 1043,781 1042,781 1041,781 1040,781 1039,781 1038,781 1037,781 1036,781 1035,781 1034,781 1033,781 1032,781 1031,781 1030,781 1029,781 1028,781 1027,781 1026,781 1025,781 1024,781 1023,781 1022,781 1021,781 1020,781 1019,782 1018,781 1017,781 1016,782 1015,782 1014,781 1013,782 1012,782 1011,782 1010,782 1009,782 1008,781 1007,782 1006,782 1005,782 1004,782 1003,782 1002,781 1001,782 1000,782 999,781 998,781 997,782 996,782 995,782 994,782 993,782 992,782 991,782 990,782 989,782 988,782 987,782 986,782 985,782 984,782 983,782 982,782 981,781 980,781">
      <metadata tailDirection="" confidence="0.00" linkedToCharacter="" id="CYB_MOUETTEMAN_006_balloon_6" tailTip=""></metadata>
    </polygon>
    <polygon points="602,307 601,308 600,308 599,308 598,308 597,308 596,308 595,308 594,308 593,308 592,308 591,308 590,308 589,308 588,308 587,308 586,308 585,308 584,308 583,308 582,308 581,308 580,309 579,308 578,309 577,309 576,309 575,309 574,309 573,309 572,309 571,309 570,309 569,309 568,309 567,309 566,309 565,309 564,309 563,309 562,310 561,310 560,310 559,309 558,310 557,310 556,310 555,310 554,310 553,310 552,310 551,310 550,310 549,310 548,310 547,310 546,311 545,311 544,311 543,311 542,311 541,311 540,311 539,311 538,312 537,312 536,312 535,312 534,312 533,312 532,312 531,312 530,313 529,313 528,313 527,313 526,313 525,313 524,313 523,313 522,314 521,314 520,314 519,314 518,314 517,315 516,315 515,315 514,316 513,316 512,316 511,316 510,316 509,316 508,317 507,317 506,317 505,317 504,318 503,318 502,318 501,318 500,318 499,318 498,318 497,319 496,319 495,319 494,320 493,320 492,321 491,321 490,321 489,322 488,322 487,322 486,323 485,324 484,324 483,324 482,325 481,325 480,326 479,326 478,327 477,327 476,328 475,328 474,329 473,329 472,329 471,330 470,330 469,330 468,331 467,331 466,332 465,332 464,333 463,333 462,334 461,334 460,335 459,335 458,336 457,336 456,337 455,337 454,338 453,339 452,340 451,341 450,341 449,342 448,343 447,343 447,344 446,345 445,345 444,346 443,347 442,348 441,349 440,350 439,350 439,351 438,352 437,353 436,354 435,355 434,356 434,357 433,358 433,359 432,360 432,361 431,362 431,363 430,364 430,365 429,366 429,367 428,368 428,369 428,370 427,371 426,372 426,373 426,374 425,375 425,376 425,377 425,378 424,379 424,380 424,381 424,382 424,383 423,384 423,385 423,386 423,387 423,388 423,389 423,390 423,391 423,392 423,393 423,394 423,395 424,396 424,397 424,398 424,399 424,400 425,401 425,402 425,403 425,404 426,405 426,406 427,407 427,408 428,409 428,410 429,411 429,412 430,413 430,414 431,415 432,416 433,417 433,418 434,419 435,420 436,421 437,422 438,423 439,424 440,424 441,425 442,426 443,426 444,427 445,428 446,429 447,429 448,430 449,430 450,431 451,432 452,432 453,433 454,433 455,434 456,435 457,435 458,436 459,436 460,437 461,438 462,438 463,438 464,438 465,438 466,439 466,440 467,440 468,441 469,441 470,441 471,442 472,442 473,443 474,443 475,443 476,444 477,444 478,444 479,445 480,445 481,445 482,446 483,446 484,446 485,447 486,447 487,447 488,448 489,448 490,448 491,448 492,449 493,449 494,449 495,449 496,450 497,450 498,450 499,450 500,451 501,451 502,451 503,451 504,451 505,452 506,452 507,452 508,452 509,452 510,453 511,453 512,454 513,454 514,455 515,455 516,455 517,455 518,456 519,456 520,456 521,456 522,456 523,456 524,456 525,457 526,457 527,457 528,457 529,457 530,458 531,458 532,458 533,458 534,458 535,459 536,459 537,459 538,459 539,459 540,460 541,460 542,460 543,460 544,460 545,460 546,461 547,461 548,461 549,461 550,461 551,461 552,461 553,462 554,462 555,462 556,462 557,462 558,462 559,462 560,463 561,462 562,463 563,463 564,463 565,463 566,463 567,462 568,462 569,463 570,463 571,463 572,463 573,463 574,463 575,463 576,463 577,463 578,463 579,463 580,463 581,463 582,463 583,462 584,463 585,463 586,463 587,464 588,464 589,464 590,464 591,464 592,464 593,464 594,464 595,464 596,464 597,464 598,464 599,464 600,464 601,464 602,464 603,464 604,464 605,464 606,464 607,464 608,464 609,464 610,464 611,464 612,464 613,464 614,464 615,464 616,464 617,464 618,464 619,465 620,464 621,464 622,465 623,464 624,464 625,464 626,464 627,465 628,465 629,464 630,465 631,464 632,464 633,464 634,464 635,464 636,464 637,464 638,464 639,464 640,464 641,464 642,464 643,464 644,464 645,464 646,464 647,464 648,464 649,464 650,464 651,464 652,464 653,464 654,464 655,464 656,464 657,464 658,464 659,464 660,464 661,464 662,464 663,464 664,464 665,464 666,464 667,464 668,464 669,464 670,464 671,464 672,464 673,464 674,464 675,464 676,464 677,464 678,464 679,464 680,464 681,464 682,464 683,463 684,462 685,462 686,463 687,464 687,465 688,466 687,467 687,468 688,469 688,470 688,471 688,472 689,473 689,474 689,475 689,476 690,477 690,478 691,477 692,477 693,476 694,476 695,477 695,478 696,479 696,480 696,481 696,482 696,481 696,480 696,479 695,478 695,477 696,476 696,475 696,474 695,474 694,475 693,476 692,476 691,475 690,474 690,473 689,472 689,471 689,470 689,469 689,468 689,467 689,466 689,465 689,464 690,463 691,462 692,463 693,463 694,464 695,464 696,464 697,464 698,464 699,464 700,464 701,464 702,464 703,464 704,464 705,464 706,464 707,464 708,464 709,464 710,464 711,464 712,463 713,463 714,463 715,463 716,463 717,463 718,463 719,464 720,464 721,464 722,464 723,464 724,463 725,463 726,463 727,463 728,463 729,463 730,463 731,463 732,463 733,463 734,463 735,463 736,463 737,463 738,462 739,462 740,462 741,462 742,462 743,462 744,462 745,462 746,462 747,462 748,462 749,462 750,462 751,462 752,462 753,461 754,461 755,461 756,461 757,461 758,461 759,461 760,461 761,461 762,461 763,461 764,461 765,460 766,460 767,460 768,460 769,460 770,459 771,459 772,459 773,459 774,459 775,459 776,459 777,459 778,459 779,459 780,459 781,458 782,458 783,458 784,458 785,458 786,458 787,458 788,458 789,458 790,457 791,457 792,457 793,457 794,456 795,456 796,456 797,456 798,456 799,455 800,455 801,455 802,455 803,455 804,455 805,455 806,455 807,454 808,454 809,454 810,454 811,454 812,453 813,453 814,453 815,453 816,452 817,452 818,451 819,451 820,450 821,450 822,450 823,449 824,449 825,449 826,448 827,448 828,447 829,447 830,446 831,446 832,446 833,445 834,445 835,444 836,444 837,444 838,443 839,443 840,442 841,442 842,441 843,441 844,440 845,440 846,439 847,439 848,438 849,438 850,437 851,437 852,436 853,436 854,435 855,435 856,434 857,434 858,433 859,433 860,433 861,432 862,432 863,431 864,431 865,430 866,429 867,429 868,428 869,428 870,427 871,427 872,426 873,425 874,424 875,423 876,422 877,421 878,420 879,419 880,418 880,417 881,416 882,415 882,414 883,413 883,412 884,411 884,410 885,409 885,408 885,407 886,406 886,405 887,404 887,403 887,402 888,401 888,400 888,399 888,398 888,397 888,396 888,395 888,394 888,393 888,392 888,391 888,390 888,389 888,388 888,387 888,386 888,385 888,384 888,383 888,382 887,381 887,380 887,379 886,378 886,377 886,376 885,375 885,374 885,373 884,372 884,371 883,370 883,369 882,368 882,367 881,366 880,365 880,364 879,363 878,362 878,361 877,360 876,359 876,358 875,357 874,356 873,355 872,354 871,353 870,352 869,351 868,350 867,349 866,348 865,347 864,347 863,346 862,345 861,344 860,343 859,342 858,341 857,341 856,340 855,339 854,339 853,338 852,338 851,337 850,337 849,336 848,335 847,335 846,334 845,334 844,333 843,333 842,332 841,332 840,332 839,331 838,331 837,330 836,330 835,330 834,329 833,328 832,328 831,327 830,326 829,326 828,325 827,325 826,325 825,324 824,324 823,323 822,323 821,323 820,322 819,322 818,321 817,321 816,320 815,320 814,320 813,319 812,319 811,319 810,319 809,318 808,318 807,318 806,317 805,318 804,317 803,317 802,317 801,317 800,317 799,317 798,317 797,317 796,316 795,316 794,316 793,315 792,315 791,315 790,315 789,314 788,314 787,314 786,314 785,314 784,314 783,313 782,313 781,313 780,313 779,313 778,313 777,313 776,313 775,313 774,313 773,312 772,312 771,312 770,312 769,312 768,312 767,312 766,311 765,311 764,311 763,311 762,311 761,311 760,311 759,311 758,310 757,311 756,311 755,310 754,310 753,310 752,310 751,310 750,310 749,310 748,310 747,309 746,310 745,310 744,310 743,310 742,309 741,309 740,309 739,309 738,309 737,309 736,309 735,309 734,309 733,309 732,309 731,309 730,309 729,309 728,308 727,308 726,308 725,308 724,308 723,308 722,308 721,308 720,308 719,308 718,308 717,308 716,308 715,308 714,308 713,308 712,308 711,308 710,308 709,308 708,308 707,308 706,308 705,308 704,308 703,308 702,307 701,308 700,307 699,307 698,307 697,307 696,307 695,307 694,307 693,307 692,307 691,307 690,307 689,307 688,307 687,307 686,307 685,307 684,307 683,307 682,307 681,308 680,308 679,308 678,308 677,308 676,307 675,307 674,308 673,308 672,308 671,307 670,307 669,308 668,307 667,308 666,308 665,308 664,308 663,308 662,308 661,308 660,308 659,308 658,308 657,308 656,308 655,308 654,308 653,308 652,308 651,308 650,307 649,308 648,308 647,308 646,308 645,308 644,308 643,308 642,308 641,308 640,308 639,308 638,308 637,308 636,308 635,308 634,308 633,308 632,308 631,307 630,307 629,308 628,308 627,308 626,308 625,308 624,308 623,308 622,307 621,307 620,307 619,308 618,308 617,308 616,308 615,308 614,308 613,308 612,308 611,308 610,308 609,308 608,308 607,308 606,307 605,307 604,308 603,307 602,307">
      <metadata tailDirection="" confidence="0.00" linkedToCharacter="" id="CYB_MOUETTEMAN_006_balloon_7" tailTip=""></metadata>
    </polygon>
  </svg>
</svg>
