<?xml version="1.0" encoding="UTF-8" standalone="no"?>
<svg width="750" xmlns="http://www.w3.org/2000/svg" version="1.0" height="1060">
  <title>CYB_BUBBLEGOM_T01_028</title>
  <svg contentScriptType="text/ecmascript" zoomAndPan="magnify" contentStyleType="text/css" class="Page" preserveAspectRatio="xMidYMid meet" version="1.0">
    <image xmlns:xlink="http://www.w3.org/1999/xlink" x="0" y="0" width="750" height="1060" xlink:href="/media/Donnees/DATA/DATASET/eBDtheque_100/CYB_BUBBLEGOM_T01_028.jpg" xlink:type="simple" xlink:actuate="onLoad" preserveAspectRatio="xMidYMid meet" xlink:show="embed"/>
  </svg>
  <style type="text/css" xml:space="preserve">
        * { stroke-linejoin: round; }
        .Unclassified   { fill: orange; stroke: none;   opacity: 1.0; visibility: hidden; }
        .Noise          { fill: pink;   stroke: none;   opacity: 0.2; visibility: hidden; }
        .Panel          { fill: none;   stroke: red;    stroke-width:3; opacity: 0.5; visibility: visible; image-rendering: optimizeSpeed; }
        .Line           { fill: green;  stroke: none;   opacity: 0.5; visibility: visible; image-rendering: optimizeSpeed; }
        .TextArea       { fill: grey;   stroke: none;   opacity: 0.2; visibility: visible; image-rendering: optimizeSpeed; }
        .Balloon        { fill: cyan;   stroke: none;   opacity: 0.5; visibility: visible; image-rendering: optimizeSpeed; }
        .Letter         { fill: blue;   stroke: none;   opacity: 0.2; visibility: hidden; }
        .Object, .Character, .Face  { fill: yellow; stroke: none;   opacity: 0.5; visibility: visible; image-rendering: optimizeSpeed; }
        .Page           { fill: white;  stroke: none;    opacity: 0.5; visibility: visible; }
        .linkSBSC { fill: blue; stroke: none; opacity: 1.0; visibility: visible; }
        polygon:hover { opacity:0.2; }
</style>
  <svg xmlns="http://www.w3.org/2000/svg" contentScriptType="text/ecmascript" zoomAndPan="magnify" contentStyleType="text/css" class="Balloon" preserveAspectRatio="xMidYMid meet" version="1.0">
    <polygon points="684,64 683,65 682,66 681,67 680,67 679,68 678,68 677,69 676,70 675,71 674,72 673,73 672,74 671,75 670,74 669,73 669,72 670,71 670,70 670,69 671,68 671,67 671,66 671,65 670,66 669,67 668,68 667,69 666,70 665,71 665,72 664,73 663,74 662,75 661,76 660,76 659,75 659,74 659,73 660,72 660,71 660,70 660,69 660,68 661,67 661,66 660,67 659,68 658,69 657,70 656,71 655,72 654,73 653,73 652,72 652,71 651,70 651,69 650,68 650,67 650,66 650,65 649,66 648,67 647,68 647,69 647,70 648,71 649,72 649,73 649,74 649,75 648,76 647,77 647,78 646,79 645,79 644,80 643,81 642,81 641,82 640,82 639,82 638,83 637,83 636,83 635,84 634,84 633,84 633,85 633,86 633,87 634,88 635,88 636,89 637,90 638,91 638,92 638,93 638,94 639,95 639,96 639,97 639,98 639,99 639,100 638,101 637,102 636,103 635,104 634,104 633,105 632,105 631,105 630,106 629,106 628,106 627,106 626,106 625,106 624,106 623,106 622,106 621,105 620,105 619,104 618,103 617,104 616,105 615,105 614,106 613,106 612,106 611,107 610,107 609,107 608,107 607,107 606,107 605,107 604,106 603,106 602,105 601,105 600,104 599,103 598,102 598,101 597,100 597,99 597,98 597,97 597,96 598,95 598,94 599,93 598,92 598,91 598,90 597,89 597,88 597,87 597,86 596,85 596,84 596,83 596,82 596,81 596,80 596,79 595,78 594,77 593,77 592,76 591,76 592,77 592,78 592,79 593,80 593,81 592,82 591,82 590,82 589,81 588,81 587,80 586,80 585,79 586,80 587,81 587,82 588,83 589,84 589,85 590,86 590,87 589,88 588,88 587,88 586,88 585,88 584,87 583,87 582,87 581,86 580,86 579,85 578,85 579,86 580,87 581,88 582,88 583,89 584,90 585,91 586,92 586,93 586,94 585,95 584,95 583,94 582,94 581,94 580,94 579,94 580,95 581,96 582,96 583,97 584,98 584,99 585,100 586,100 587,100 588,100 589,101 590,101 591,102 591,103 591,104 590,105 589,105 588,105 587,105 586,106 585,106 584,106 583,106 582,106 581,107 580,107 579,107 578,107 579,107 580,107 581,107 582,107 583,108 584,108 585,108 586,108 587,108 588,108 589,109 590,109 591,109 592,110 592,111 591,112 590,113 589,113 588,114 587,115 586,115 585,116 584,117 583,117 582,118 581,119 580,119 579,120 580,120 581,120 582,119 583,119 584,119 585,118 586,118 587,118 588,117 589,117 590,117 591,117 592,118 592,119 592,120 591,121 590,122 589,123 588,124 588,125 587,126 588,125 589,125 590,125 591,125 592,125 593,124 594,124 595,124 596,123 597,123 598,124 598,125 598,126 597,127 597,128 597,129 596,130 597,130 598,130 599,130 600,129 601,129 602,129 603,129 604,128 605,128 606,128 607,128 608,127 609,128 609,129 609,130 608,131 608,132 607,133 606,134 606,135 607,135 608,134 609,134 610,134 611,133 612,132 613,132 614,133 614,134 615,135 615,136 615,137 615,138 615,139 616,138 617,137 618,137 619,136 620,135 621,134 622,133 623,133 624,134 624,135 624,136 624,137 623,138 623,139 622,140 622,141 623,140 624,139 625,139 626,138 627,137 628,137 629,136 630,136 631,136 632,137 633,137 634,137 635,136 636,135 637,134 638,133 639,134 640,135 640,136 640,137 640,138 640,139 641,139 641,138 642,137 643,137 644,136 644,135 645,134 646,134 647,135 647,136 648,137 648,138 648,139 649,139 649,138 650,137 650,136 651,135 652,134 653,134 654,135 655,136 656,137 656,138 657,138 658,137 658,136 658,135 659,134 659,133 660,132 661,132 662,133 663,134 664,135 664,136 665,137 665,138 666,139 667,140 667,139 667,138 667,137 668,136 668,135 668,134 669,133 670,134 671,135 672,136 673,137 673,138 674,139 674,140 675,141 676,142 676,143 676,142 676,141 676,140 677,139 677,138 678,137 678,136 678,135 679,134 680,134 681,135 682,136 682,137 683,138 684,139 685,140 686,141 687,142 688,143 689,144 689,145 690,146 691,147 692,148 693,149 694,149 695,150 695,151 696,151 697,151 697,150 696,149 695,148 694,147 694,146 693,145 692,144 692,143 691,142 690,141 689,140 689,139 690,138 691,138 692,139 693,139 694,140 695,140 694,139 694,138 693,137 693,136 693,135 694,134 695,135 696,136 697,136 698,137 699,138 700,139 701,140 702,141 703,142 704,142 703,141 702,140 702,139 701,138 701,137 700,136 699,135 699,134 700,133 701,133 702,134 703,134 704,135 705,135 706,136 707,136 708,137 709,137 710,138 711,138 712,139 713,139 714,139 715,140 716,140 715,140 714,139 713,138 712,137 711,136 710,135 709,134 708,134 707,133 706,132 705,132 704,131 703,130 704,129 705,129 706,129 707,129 708,129 709,129 710,130 711,130 712,130 713,130 714,130 715,131 716,131 717,131 718,131 719,132 718,131 717,131 716,130 715,129 714,128 713,127 712,126 711,125 710,124 709,123 710,122 711,122 712,121 713,121 714,121 715,121 716,120 717,120 718,120 719,120 720,120 721,120 722,120 723,120 722,120 721,120 720,120 719,120 718,120 717,119 716,119 715,119 714,118 715,117 716,116 717,116 718,116 719,115 720,115 721,115 722,115 723,115 724,114 725,114 726,114 727,114 728,114 729,114 730,113 729,113 728,113 727,112 726,112 725,112 724,111 723,111 722,111 721,111 720,110 719,110 718,109 717,109 716,108 715,108 714,107 715,106 716,106 717,105 718,105 719,105 720,105 721,104 722,104 723,104 724,104 725,103 726,103 727,103 726,103 725,103 724,103 723,102 722,102 721,102 720,102 719,102 718,102 717,102 716,102 715,102 714,102 713,102 712,102 711,101 710,100 711,99 712,99 713,99 714,98 715,97 716,96 717,95 718,95 717,95 716,95 715,95 714,94 713,94 712,94 711,94 710,94 709,95 708,95 707,95 706,94 706,93 707,92 708,91 709,90 710,89 711,88 712,87 713,86 714,85 715,84 716,83 715,83 714,83 713,83 712,83 711,84 710,84 709,84 708,85 707,85 706,85 705,86 704,86 703,87 702,87 701,86 701,85 702,84 703,83 704,82 705,81 706,80 707,80 706,80 705,80 704,80 703,81 702,81 701,81 700,82 699,82 698,83 697,83 696,83 695,82 695,81 696,80 696,79 697,78 697,77 698,76 698,75 699,74 699,73 700,72 699,72 698,73 697,73 696,74 695,74 694,75 693,76 692,76 691,77 690,77 689,78 688,79 687,79 686,80 685,80 684,81 683,81 682,80 682,79 683,78 684,77 684,76 685,75 686,74 685,75 684,76 683,77 682,77 681,76 681,75 681,74 681,73 681,72 682,71 682,70 683,69 683,68 684,67 684,66 685,65 685,64 684,64">
      <metadata tailDirection="" confidence="0.00" linkedToCharacter="" id="CYB_BUBBLEGOM_T01_028_balloon_0" tailTip=""></metadata>
    </polygon>
    <polygon points="333,877 334,876 335,876 336,876 337,877 338,877 339,877 340,877 341,878 342,878 343,879 344,880 345,881 346,882 346,883 347,884 347,885 348,886 349,886 350,886 351,886 352,886 353,886 354,885 355,885 356,885 357,885 358,885 359,885 360,885 361,885 362,885 363,885 364,885 365,885 366,885 367,886 368,886 369,886 370,886 371,886 372,887 373,887 374,887 375,888 376,888 377,888 378,889 379,889 379,888 379,887 379,886 379,885 380,884 380,883 381,882 382,881 383,880 384,880 385,879 386,879 387,879 388,879 389,880 390,880 391,880 392,881 393,881 394,882 395,883 395,884 396,885 397,886 397,887 397,888 398,889 398,890 399,891 399,892 399,893 400,894 400,895 400,896 400,897 400,898 400,899 400,900 400,901 400,902 400,903 400,904 400,905 400,906 400,907 400,908 400,909 399,910 399,911 398,912 398,913 398,914 398,915 397,916 397,917 396,918 396,919 395,920 395,921 395,922 394,923 394,924 394,925 394,926 394,927 393,928 393,929 393,930 393,931 392,932 392,933 392,934 393,935 393,936 394,937 394,938 394,939 394,940 393,941 392,942 391,943 391,944 391,945 391,946 392,947 392,948 393,949 393,950 392,951 391,951 390,950 389,950 388,949 389,948 390,948 389,947 389,946 389,945 388,945 387,945 386,944 385,944 384,943 383,942 382,941 382,940 382,939 383,938 383,937 383,936 382,937 381,937 381,938 381,939 381,940 382,941 382,942 383,943 384,944 384,945 385,945 386,946 387,947 386,948 385,948 384,947 383,947 382,946 381,945 382,946 383,947 382,948 381,948 380,947 379,946 378,945 378,944 377,943 377,942 377,941 377,940 378,939 379,940 379,941 379,940 379,939 378,939 377,940 376,940 375,940 374,941 373,941 372,941 371,942 370,942 369,942 369,943 368,944 368,945 369,946 370,947 371,948 372,949 373,949 374,950 375,951 376,952 375,953 374,953 373,953 372,953 371,953 370,953 369,953 368,953 367,953 366,953 365,953 364,953 363,953 362,953 361,953 360,953 359,953 358,953 357,953 356,954 355,953 354,953 353,953 352,953 351,953 350,953 349,953 348,953 347,953 346,953 345,953 344,953 343,953 342,953 341,953 340,953 339,952 339,951 340,950 341,950 342,951 343,950 344,951 345,951 346,951 347,950 348,949 349,948 349,947 350,946 351,945 352,945 353,945 352,944 352,943 351,942 351,941 350,941 349,940 348,940 347,939 346,939 345,939 344,938 343,938 342,937 341,936 340,935 339,934 338,935 338,936 338,937 338,938 338,939 337,940 336,941 335,941 335,942 334,943 333,943 332,944 331,945 330,946 329,947 328,948 327,948 326,947 325,946 326,945 326,944 327,943 326,944 325,945 325,946 325,947 324,948 323,948 322,947 322,946 321,945 321,944 321,943 321,942 321,941 321,940 321,939 321,938 321,937 321,936 321,935 321,934 321,933 322,932 322,931 322,930 323,929 323,928 323,927 323,926 323,925 323,924 323,923 323,922 322,921 322,920 322,919 321,918 320,917 320,916 319,915 318,914 318,913 317,912 317,911 316,910 316,909 315,908 315,907 314,906 314,905 314,904 314,903 314,902 314,901 314,900 314,899 314,898 314,897 314,896 315,895 315,894 316,893 316,892 317,891 317,890 318,889 318,888 319,887 320,886 320,885 321,884 322,883 323,882 324,881 325,881 326,880 327,879 328,879 329,878 330,878 331,877 332,877 333,877">
      <metadata tailDirection="" confidence="0.00" linkedToCharacter="" id="CYB_BUBBLEGOM_T01_028_balloon_1" tailTip=""></metadata>
    </polygon>
    <polygon points="355,928 354,929 353,930 353,931 353,932 353,933 353,934 354,935 354,936 355,937 356,938 357,939 358,939 359,939 360,939 361,940 362,940 363,940 364,940 365,939 366,939 367,939 368,939 369,939 369,938 370,937 370,936 371,935 371,934 371,933 371,932 372,931 372,930 372,929 371,929 370,930 369,930 368,930 367,930 366,930 365,930 364,930 363,929 362,928 361,928 360,928 359,928 358,928 357,928 356,928 355,928">
      <metadata tailDirection="" confidence="0.00" linkedToCharacter="" id="CYB_BUBBLEGOM_T01_028_balloon_2" tailTip=""></metadata>
    </polygon>
    <polygon points="546,806 545,807 544,808 543,809 542,810 541,811 540,812 540,813 540,814 539,815 539,816 538,817 538,818 538,819 538,820 537,821 537,822 537,823 537,824 537,825 537,826 537,827 537,828 538,828 539,829 540,829 541,829 542,830 543,831 542,832 541,833 540,834 539,835 538,835 539,836 539,837 539,838 540,839 540,840 540,841 541,842 541,843 542,844 543,845 543,846 544,847 545,848 546,849 547,850 548,850 549,851 550,852 551,852 552,853 553,854 554,854 555,855 556,855 557,855 558,855 559,856 560,856 561,857 562,857 563,858 564,858 565,858 566,859 567,859 568,859 569,859 570,860 571,860 572,861 573,861 574,861 575,861 576,861 577,861 578,861 579,862 580,862 581,862 582,862 583,863 584,862 585,862 586,862 587,863 588,863 589,862 590,862 591,861 592,861 593,860 594,860 595,859 596,859 597,858 598,858 599,858 600,858 601,858 602,857 603,857 604,857 605,857 606,857 607,857 608,857 609,858 610,858 611,858 612,859 613,860 614,861 615,861 616,861 617,861 618,861 619,861 620,861 621,861 622,861 623,861 624,861 625,861 626,861 627,861 628,861 629,861 630,862 631,862 632,862 633,861 633,860 634,859 635,859 636,858 637,858 638,858 639,858 640,858 641,858 642,858 643,859 644,858 645,859 646,859 647,859 648,859 649,859 650,860 651,860 652,860 653,861 654,861 655,861 656,862 657,862 658,863 659,863 660,864 661,864 662,864 663,864 664,863 665,863 666,863 667,862 668,862 669,862 670,861 671,861 672,860 673,859 674,859 675,858 676,857 677,857 678,857 679,857 680,858 681,859 682,860 683,861 684,862 684,863 684,864 685,865 685,864 685,863 685,862 685,861 685,860 685,859 684,858 683,857 683,856 682,856 681,855 681,854 680,853 680,852 681,851 682,850 682,849 682,848 683,847 684,846 684,845 684,844 685,843 685,842 685,841 685,840 686,839 686,838 686,837 686,836 686,835 687,834 687,833 687,832 687,831 687,830 687,829 687,828 687,827 687,826 687,825 687,824 687,823 687,822 687,821 687,820 687,819 687,818 686,817 686,816 685,815 684,815 683,815 682,815 681,815 680,814 679,813 679,812 680,811 681,810 682,810 683,809 683,808 682,808 681,807 680,807 679,807 678,807 677,807 676,807 675,807 674,807 673,807 672,807 671,807 670,807 669,807 668,807 667,807 666,807 665,807 664,807 663,807 662,807 661,807 660,807 659,807 658,807 657,807 656,807 655,807 654,807 653,807 652,807 651,807 650,807 649,807 648,807 647,807 646,807 645,807 644,807 643,807 642,807 641,807 640,807 639,807 638,807 637,807 636,807 635,807 634,807 633,807 632,807 631,807 630,807 629,807 628,807 627,807 626,807 625,807 624,807 623,807 622,807 621,807 620,807 619,807 618,807 617,807 616,807 615,807 614,807 613,807 612,807 611,806 610,806 609,806 608,806 607,806 606,806 605,806 604,806 603,806 602,806 601,806 600,806 599,806 598,807 597,806 596,806 595,807 594,806 593,806 592,806 591,806 590,806 589,806 588,806 587,806 586,806 585,806 584,806 583,806 582,806 581,806 580,806 579,806 578,806 577,806 576,806 575,806 574,806 573,806 572,806 571,806 570,806 569,806 568,806 567,806 566,806 565,806 564,806 563,806 562,806 561,806 560,806 559,806 558,806 557,806 556,806 555,806 554,806 553,806 552,806 551,806 550,806 549,806 548,806 547,806 546,806">
      <metadata tailDirection="" confidence="0.00" linkedToCharacter="" id="CYB_BUBBLEGOM_T01_028_balloon_3" tailTip=""></metadata>
    </polygon>
    <polygon points="376,805 377,806 378,806 379,807 380,808 381,809 382,810 381,811 380,812 379,813 378,813 379,813 380,813 381,814 382,815 382,816 381,817 380,817 379,818 378,818 377,818 376,818 375,819 374,819 373,819 372,820 371,820 370,820 371,820 372,821 373,821 374,821 375,821 376,821 377,821 378,822 379,823 378,824 377,825 376,826 375,826 374,827 373,827 374,827 375,827 376,827 377,827 378,827 379,828 380,829 379,830 378,831 377,831 376,832 375,832 374,833 373,833 372,834 371,834 372,834 373,834 374,834 375,835 376,835 377,835 378,836 378,837 377,838 376,838 375,839 374,839 373,840 374,840 375,840 376,840 377,840 378,840 379,841 378,842 377,843 376,844 375,844 374,845 373,846 372,846 371,847 370,847 369,848 368,848 367,849 368,848 369,848 370,848 371,848 372,848 373,847 374,847 375,847 376,847 377,848 377,849 376,850 375,851 374,852 373,853 372,854 371,854 370,855 369,856 370,855 371,855 372,855 373,855 374,855 375,854 376,854 377,854 378,853 379,853 380,853 381,853 382,852 383,852 384,851 385,852 386,853 385,854 384,855 383,856 382,857 381,858 380,858 379,859 378,860 377,861 376,862 377,862 378,861 379,861 380,861 381,861 382,860 383,860 384,860 385,859 386,859 387,859 388,858 389,858 390,859 390,860 390,861 389,862 388,863 387,864 386,865 387,865 388,864 389,864 390,864 391,864 392,863 393,863 394,862 395,862 396,863 397,864 396,865 395,866 394,867 394,868 393,869 392,870 391,871 390,872 389,873 390,873 391,872 392,872 393,871 394,871 395,871 396,870 397,870 398,869 399,869 400,868 401,868 402,867 403,867 404,867 405,867 406,868 406,869 405,870 405,871 404,872 405,871 406,871 407,870 408,870 409,870 410,869 411,869 412,868 413,868 414,868 415,869 415,870 415,871 414,872 414,873 414,874 413,875 414,875 415,874 416,873 417,873 418,873 419,872 420,872 421,871 422,871 423,871 424,872 424,873 424,874 424,875 423,876 422,877 422,878 421,879 421,880 421,881 422,882 423,882 424,883 425,884 425,885 424,886 423,887 422,887 421,888 420,888 419,889 419,890 420,891 421,892 422,893 423,892 423,891 422,891 421,890 421,889 422,888 423,887 424,887 425,886 426,885 427,885 428,884 427,883 427,882 426,882 425,881 425,880 424,879 424,878 425,877 425,876 425,875 426,874 426,873 427,872 428,871 429,871 430,871 431,872 432,873 432,874 432,875 432,876 433,876 433,875 434,874 434,873 435,872 436,872 437,872 438,873 438,874 438,875 438,876 439,877 439,878 439,879 440,880 440,879 441,878 442,877 442,876 443,875 443,874 444,873 445,872 446,872 447,873 448,874 449,875 449,874 449,873 450,872 450,871 450,870 451,869 452,869 453,870 454,871 455,872 456,873 456,874 457,875 458,874 458,873 459,872 459,871 460,870 461,871 462,872 463,873 464,873 465,874 466,875 467,876 468,877 469,877 469,876 470,875 470,874 470,873 471,872 471,871 472,870 473,870 474,870 475,871 476,872 477,873 478,873 479,874 479,873 479,872 479,871 479,870 479,869 480,868 481,867 482,868 482,869 483,870 483,871 484,872 484,871 484,870 484,869 485,868 486,867 487,867 488,868 489,869 490,870 489,869 489,868 489,867 489,866 489,865 490,864 491,863 492,864 493,865 494,866 495,865 496,864 496,863 496,862 496,861 496,860 497,859 498,860 499,860 500,860 501,859 502,859 502,858 503,857 504,856 505,857 506,857 507,857 508,857 509,856 510,856 509,855 509,854 508,853 509,852 510,852 511,852 512,852 513,853 514,853 513,852 512,851 511,850 511,849 511,848 512,847 513,847 514,847 515,847 516,848 517,848 516,847 515,847 514,846 513,845 513,844 512,843 513,842 514,841 515,841 516,841 517,841 518,841 519,842 520,842 519,841 518,840 517,839 517,838 517,837 518,836 519,836 520,836 521,836 520,835 519,835 518,834 517,834 516,833 515,833 514,832 514,831 514,830 515,829 516,829 517,829 518,829 519,829 520,829 519,829 518,828 517,827 516,826 515,826 514,825 514,824 514,823 515,822 516,821 517,821 518,821 519,821 518,821 517,820 516,820 515,819 514,819 513,818 512,817 512,816 512,815 513,814 514,813 515,813 514,812 513,812 512,812 511,812 510,811 509,810 509,809 510,808 511,807 512,806 513,806 512,806 511,806 510,806 509,806 508,806 507,806 506,806 505,806 504,806 503,806 502,806 501,806 500,806 499,806 498,806 497,806 496,806 495,806 494,806 493,806 492,806 491,805 490,806 489,806 488,806 487,806 486,806 485,806 484,806 483,806 482,806 481,806 480,806 479,806 478,806 477,806 476,806 475,806 474,806 473,806 472,806 471,806 470,806 469,806 468,806 467,806 466,806 465,806 464,806 463,806 462,806 461,806 460,806 459,806 458,806 457,806 456,806 455,806 454,806 453,806 452,806 451,806 450,806 449,806 448,806 447,806 446,806 445,806 444,806 443,806 442,806 441,806 440,806 439,806 438,806 437,806 436,806 435,805 434,805 433,805 432,805 431,805 430,805 429,805 428,806 427,806 426,806 425,806 424,806 423,806 422,806 421,806 420,806 419,806 418,806 417,806 416,806 415,806 414,806 413,806 412,806 411,806 410,805 409,806 408,806 407,806 406,806 405,806 404,806 403,806 402,806 401,806 400,806 399,806 398,806 397,806 396,806 395,806 394,806 393,806 392,806 391,806 390,806 389,806 388,806 387,806 386,806 385,805 384,806 383,805 382,805 381,805 380,805 379,805 378,805 377,805 376,805">
      <metadata tailDirection="" confidence="0.00" linkedToCharacter="" id="CYB_BUBBLEGOM_T01_028_balloon_4" tailTip=""></metadata>
    </polygon>
    <polygon points="165,808 165,809 165,810 164,811 163,811 163,812 162,813 161,813 161,814 160,815 159,815 158,815 158,816 158,817 159,818 160,819 160,820 161,821 162,822 163,823 163,824 164,825 165,826 166,827 167,828 168,829 168,830 169,831 170,832 170,833 170,834 170,835 170,836 170,837 169,838 168,838 167,839 166,840 165,840 164,840 163,840 162,840 161,840 160,840 159,839 158,839 157,838 156,837 155,836 154,836 153,835 152,834 151,834 151,835 150,836 151,837 151,838 152,839 153,840 153,841 154,842 154,843 154,844 154,845 154,846 155,846 156,847 157,848 157,849 158,849 159,849 160,850 161,850 162,849 163,848 164,849 163,848 164,847 165,846 166,847 167,846 168,847 168,848 169,848 170,847 171,846 172,845 173,846 173,847 174,848 175,847 176,846 177,847 176,846 175,845 176,844 177,843 178,843 179,843 180,844 179,845 180,846 181,847 182,846 183,845 184,844 185,844 186,845 185,846 184,847 183,848 182,849 181,849 180,850 181,850 182,849 183,848 184,847 185,848 186,847 186,846 187,845 188,844 189,844 189,843 190,842 189,841 190,840 191,839 190,838 189,837 190,836 191,835 191,834 192,833 192,832 192,831 192,830 192,829 191,828 190,827 191,826 191,825 190,824 189,823 189,822 188,821 187,820 187,819 187,818 187,817 187,816 186,816 185,816 184,815 184,814 183,814 182,814 181,813 181,812 181,811 180,811 179,811 178,811 177,810 176,810 175,810 174,810 173,810 172,810 171,810 170,809 170,808 169,808 168,808 167,808 166,808 165,808">
      <metadata tailDirection="" confidence="0.00" linkedToCharacter="" id="CYB_BUBBLEGOM_T01_028_balloon_5" tailTip=""></metadata>
    </polygon>
    <polygon points="91,804 92,804 93,805 94,806 94,807 94,808 94,809 95,809 96,809 97,809 98,809 99,809 100,809 101,810 102,811 103,812 104,812 105,812 106,813 107,814 108,814 109,814 110,815 111,815 112,815 113,816 114,816 115,816 116,817 117,817 118,817 119,817 120,818 121,818 122,819 123,818 124,818 125,818 126,817 127,817 128,817 129,816 130,816 131,815 132,815 133,815 134,814 135,814 136,813 137,813 138,813 139,812 140,812 141,811 142,810 143,810 144,809 145,809 146,808 147,808 148,808 149,807 150,807 151,807 152,808 153,808 154,809 155,810 155,811 156,812 156,813 157,813 158,812 159,811 160,810 161,809 162,809 163,808 163,807 164,806 165,806 166,805 167,805 168,805 169,805 170,806 171,806 172,807 173,807 174,807 175,807 176,807 177,808 178,808 179,808 180,808 181,808 182,808 183,809 183,810 184,811 185,811 186,812 187,813 188,814 189,815 190,816 190,817 190,818 190,819 190,820 191,821 192,822 193,823 194,824 194,825 194,826 194,827 194,828 195,829 195,830 195,831 195,832 194,833 194,834 194,835 193,836 193,837 193,838 193,839 194,840 193,841 192,842 192,843 192,844 191,845 190,846 189,846 189,847 189,848 188,849 187,850 186,850 185,851 184,852 183,852 182,852 181,853 180,853 179,853 178,854 177,854 176,854 176,855 177,855 178,855 179,855 180,855 181,856 181,857 182,857 183,858 183,859 184,860 185,860 186,861 187,862 188,863 188,864 189,865 190,865 191,865 192,865 193,865 194,865 195,865 196,865 197,865 198,865 199,865 200,865 201,865 202,865 203,864 204,864 205,864 206,865 207,864 208,864 209,864 210,864 211,864 212,864 213,864 214,864 215,864 216,864 217,864 218,864 219,864 220,864 221,864 222,864 223,864 224,864 225,864 226,864 227,864 228,864 229,864 230,864 231,864 232,864 233,864 234,864 235,864 236,864 237,864 238,864 239,864 240,864 241,864 242,864 243,864 244,864 245,864 246,864 247,864 247,863 248,862 249,861 250,861 251,860 252,860 253,860 254,861 253,862 252,863 251,864 250,864 251,864 252,864 253,865 254,865 255,864 256,864 257,864 258,864 259,864 260,864 261,864 261,863 261,862 261,861 261,860 261,859 261,858 261,857 260,856 259,857 258,858 257,858 256,858 255,857 255,856 256,855 257,855 258,855 257,855 256,854 255,853 255,852 256,851 257,852 258,852 259,852 260,852 261,852 262,851 263,851 264,852 265,852 266,852 266,851 266,850 266,849 266,848 266,847 266,846 266,845 266,844 266,843 266,842 266,841 266,840 266,839 266,838 266,837 266,836 266,835 266,834 266,833 266,832 266,831 266,830 266,829 266,828 266,827 266,826 266,825 266,824 266,823 266,822 266,821 266,820 266,819 266,818 266,817 266,816 266,815 266,814 266,813 266,812 266,811 266,810 266,809 266,808 266,807 266,806 265,806 264,806 263,806 262,806 261,806 260,806 259,806 258,806 257,806 256,806 255,807 254,807 253,808 254,809 254,810 253,811 252,812 251,812 251,813 251,814 252,815 251,816 250,817 249,817 248,817 247,817 246,818 246,819 245,820 245,821 245,822 246,823 245,824 244,825 244,826 243,827 243,828 243,829 243,830 243,831 243,832 243,833 242,834 241,834 240,833 240,832 240,831 240,830 240,829 240,828 240,827 240,826 241,825 242,824 242,823 242,822 242,821 242,820 242,819 243,818 244,817 245,816 246,815 247,814 248,814 248,813 248,812 248,811 249,810 250,809 251,809 251,808 251,807 252,806 251,806 250,806 249,806 248,806 247,806 246,806 245,806 244,806 243,806 242,805 241,805 240,806 239,805 238,805 237,805 236,805 235,805 234,805 233,805 232,805 231,805 230,805 229,805 228,805 227,805 226,805 225,805 224,805 223,805 222,805 221,805 220,805 219,805 218,805 217,805 216,805 215,805 214,805 213,805 212,805 211,805 210,805 209,805 208,805 207,805 206,805 205,805 204,805 203,805 202,805 201,805 200,805 199,805 198,805 197,805 196,805 195,805 194,805 193,805 192,805 191,805 190,805 189,805 188,805 187,805 186,805 185,805 184,805 183,805 182,804 181,805 180,805 179,804 178,805 177,805 176,805 175,805 174,804 173,804 172,804 171,804 170,804 169,804 168,804 167,804 166,804 165,804 164,804 163,804 162,804 161,804 160,804 159,804 158,804 157,804 156,804 155,804 154,804 153,804 152,804 151,804 150,804 149,804 148,804 147,804 146,804 145,804 144,804 143,804 142,804 141,804 140,804 139,804 138,804 137,804 136,804 135,804 134,804 133,804 132,804 131,804 130,804 129,804 128,804 127,804 126,804 125,804 124,804 123,804 122,804 121,804 120,804 119,804 118,804 117,804 116,804 115,804 114,804 113,804 112,804 111,804 110,804 109,804 108,804 107,804 106,804 105,804 104,804 103,804 102,804 101,804 100,804 99,804 98,804 97,804 96,804 95,804 94,804 93,804 92,804 91,804">
      <metadata tailDirection="" confidence="0.00" linkedToCharacter="" id="CYB_BUBBLEGOM_T01_028_balloon_6" tailTip=""></metadata>
    </polygon>
    <polygon points="218,842 219,841 220,841 221,842 221,843 222,843 223,844 222,845 223,846 223,847 223,846 224,845 225,844 226,845 226,846 226,847 225,848 224,849 224,850 224,851 223,852 224,852 225,851 226,850 227,849 228,848 229,847 230,846 231,845 232,845 233,844 234,844 235,844 236,843 237,844 238,844 239,844 240,845 239,846 240,847 240,848 241,849 242,849 243,850 244,850 245,851 245,852 245,853 245,854 245,855 245,856 244,857 245,857 246,858 246,859 245,860 244,860 243,859 242,859 241,860 240,860 239,860 238,860 239,860 240,861 240,862 239,863 238,864 237,864 236,863 236,862 235,861 234,861 233,861 232,861 231,861 230,861 229,860 228,860 227,861 226,862 225,862 224,861 224,860 225,859 226,858 226,857 226,856 225,855 225,854 224,855 223,855 222,854 221,855 220,856 220,857 220,858 221,859 220,860 219,860 218,861 217,860 216,860 215,859 215,858 216,857 217,857 216,857 215,857 214,857 213,857 212,856 211,857 211,858 210,859 209,859 208,859 207,859 206,858 206,857 207,856 208,855 209,855 210,855 209,854 209,853 208,852 207,852 206,852 205,853 204,853 203,852 203,851 203,850 204,849 205,848 206,849 207,850 208,849 208,848 208,847 208,846 208,845 209,844 209,843 210,842 211,842 212,842 213,842 214,842 215,842 216,842 217,842 218,842">
      <metadata tailDirection="" confidence="0.00" linkedToCharacter="" id="CYB_BUBBLEGOM_T01_028_balloon_7" tailTip=""></metadata>
    </polygon>
    <polygon points="290,791 291,790 292,790 293,790 294,790 295,790 296,790 297,790 298,790 299,790 300,790 301,790 302,790 303,790 304,790 305,790 306,791 307,791 308,791 309,791 310,791 311,791 312,791 313,791 314,792 314,793 315,792 316,791 317,791 318,791 319,791 320,791 321,791 322,791 323,791 324,791 325,791 326,791 327,792 328,792 329,792 330,792 331,792 332,791 333,791 334,791 335,791 336,791 337,791 338,791 339,791 340,791 341,791 342,791 343,791 344,791 345,791 346,791 347,791 348,791 349,791 350,791 351,791 352,791 353,791 354,791 355,791 356,791 357,791 358,791 359,791 360,791 361,791 362,791 363,792 364,793 364,794 364,795 364,796 363,797 363,798 363,799 363,800 363,801 363,802 363,803 363,804 363,805 363,806 363,807 363,808 362,809 362,810 362,811 362,812 362,813 361,814 361,815 361,816 360,817 360,818 360,819 359,820 359,821 359,822 360,823 360,824 360,825 360,826 360,827 360,828 360,829 359,830 359,831 359,832 359,833 359,834 359,835 359,836 358,837 359,838 359,839 359,840 359,841 359,842 359,843 359,844 359,845 358,846 357,847 356,847 355,848 354,848 353,848 352,848 351,848 350,848 349,848 348,847 347,847 346,847 345,846 344,846 343,846 342,846 341,846 340,845 339,844 340,845 339,846 338,846 337,846 336,846 335,846 334,846 333,845 332,845 331,845 330,845 329,845 328,845 327,845 326,845 325,845 324,845 323,845 322,845 321,845 320,845 319,845 318,845 317,845 316,845 315,845 314,845 313,845 312,845 311,845 310,845 309,845 308,845 307,845 306,845 305,845 304,845 303,845 302,845 301,845 300,846 299,846 298,846 297,846 296,846 295,846 294,846 293,846 292,845 291,845 290,845 289,845 288,845 287,845 286,844 285,845 284,845 283,845 282,845 281,845 280,845 279,846 278,846 277,846 276,847 275,847 274,847 273,846 272,845 272,844 272,843 272,842 272,841 271,840 271,839 271,838 271,837 271,836 271,835 271,834 271,833 272,832 271,831 271,830 271,829 271,828 271,827 271,826 271,825 271,824 272,823 272,822 272,821 272,820 272,819 272,818 272,817 273,816 273,815 273,814 273,813 273,812 273,811 273,810 273,809 273,808 274,807 274,806 274,805 274,804 274,803 274,802 274,801 274,800 274,799 275,798 274,797 274,796 274,795 275,794 276,793 277,792 278,792 279,792 280,792 281,792 282,792 283,791 284,791 285,791 286,791 287,791 288,791 289,791 290,791">
      <metadata tailDirection="" confidence="0.00" linkedToCharacter="" id="CYB_BUBBLEGOM_T01_028_balloon_8" tailTip=""></metadata>
    </polygon>
    <polygon points="293,793 292,794 291,794 290,794 289,794 288,794 287,794 286,794 285,794 284,794 283,795 282,795 281,795 280,795 279,795 278,796 278,797 278,798 278,799 278,800 277,801 277,802 277,803 277,804 277,805 277,806 276,807 276,808 276,809 276,810 276,811 276,812 276,813 276,814 276,815 276,816 275,817 276,818 276,819 276,820 277,821 277,822 276,823 275,824 275,825 275,826 275,827 275,828 275,829 275,830 275,831 275,832 275,833 275,834 275,835 275,836 275,837 276,838 276,839 276,840 276,841 276,842 276,843 277,842 278,842 279,842 280,842 281,842 282,842 283,842 284,842 285,841 286,841 287,841 288,841 289,841 290,841 291,841 292,842 293,842 294,842 295,842 296,842 297,842 298,842 299,842 300,842 301,842 302,842 303,842 304,842 305,842 306,842 307,842 308,842 309,842 310,841 311,841 312,841 313,841 314,841 315,841 316,841 317,842 318,842 319,842 320,842 321,842 322,842 323,842 324,842 325,842 326,842 327,842 328,842 329,842 330,842 331,842 332,842 333,842 334,842 335,842 336,842 337,841 338,840 339,840 340,840 341,841 342,841 343,842 344,842 345,842 346,842 347,843 348,843 349,843 350,843 351,843 352,843 353,843 354,844 355,844 355,843 355,842 355,841 355,840 355,839 355,838 355,837 355,836 355,835 355,834 355,833 355,832 355,831 356,830 356,829 356,828 357,827 356,826 357,825 356,824 356,823 356,822 356,821 356,820 357,819 357,818 357,817 357,816 358,815 358,814 358,813 359,812 359,811 359,810 359,809 359,808 359,807 359,806 359,805 359,804 359,803 360,802 360,801 360,800 360,799 360,798 360,797 360,796 360,795 359,794 358,794 357,794 356,794 355,794 354,794 353,794 352,794 351,794 350,794 349,794 348,794 347,794 346,794 345,794 344,794 343,794 342,794 341,794 340,794 339,794 338,794 337,795 336,795 335,795 334,795 333,795 332,795 331,795 330,795 329,795 328,795 327,795 326,795 325,795 324,795 323,795 322,795 321,795 320,795 319,795 318,795 317,795 316,795 315,796 314,797 313,798 312,798 311,798 310,797 310,796 310,795 310,794 309,794 308,794 307,794 306,794 305,794 304,794 303,794 302,794 301,794 300,794 299,794 298,794 297,794 296,794 295,793 294,793 293,793">
      <metadata tailDirection="" confidence="0.00" linkedToCharacter="" id="CYB_BUBBLEGOM_T01_028_balloon_9" tailTip=""></metadata>
    </polygon>
    <polygon points="577,629 576,630 575,630 574,630 573,630 572,630 571,630 571,631 571,632 571,633 571,634 570,635 569,635 568,634 567,633 566,632 565,632 564,632 563,632 562,632 561,633 560,633 559,633 558,634 557,634 556,635 555,635 554,636 553,636 552,637 551,638 550,638 549,639 548,640 547,641 546,641 546,642 545,643 544,644 543,645 543,646 542,647 542,648 542,649 542,650 542,651 542,652 542,653 542,654 542,655 542,656 542,657 543,658 544,659 545,660 546,661 547,662 548,662 549,663 550,663 551,664 552,664 553,664 554,665 555,665 556,666 557,666 558,666 559,666 560,666 561,667 562,667 563,667 564,667 565,667 566,667 567,667 568,667 569,667 570,668 571,668 572,668 573,668 574,668 575,668 576,668 577,668 578,667 579,667 580,668 580,669 580,670 580,671 580,672 580,673 580,672 581,671 581,670 582,669 583,668 584,667 585,667 586,667 587,667 588,667 589,667 590,667 591,666 592,666 593,666 594,666 595,666 596,666 597,665 598,665 599,665 600,665 601,664 602,664 603,664 604,663 605,663 606,662 607,662 608,661 609,661 610,660 611,659 612,659 612,658 613,657 614,656 614,655 614,654 615,653 615,652 615,651 615,650 615,649 615,648 615,647 615,646 614,645 614,644 613,643 613,642 612,641 611,640 610,639 609,638 608,637 607,637 606,636 605,635 604,635 603,634 602,633 601,633 600,632 599,632 598,632 597,631 596,631 595,631 594,631 593,630 592,630 591,630 590,630 589,630 588,630 587,630 586,630 585,630 584,630 583,630 582,630 581,630 580,630 579,630 578,629 577,629">
      <metadata tailDirection="" confidence="0.00" linkedToCharacter="" id="CYB_BUBBLEGOM_T01_028_balloon_10" tailTip=""></metadata>
    </polygon>
    <polygon points="584,553 584,554 585,555 586,556 587,557 587,558 588,559 589,560 590,561 591,562 592,563 592,564 593,565 594,566 594,567 593,568 592,568 591,567 590,567 589,567 588,567 587,567 586,567 587,568 588,569 589,569 590,570 590,571 589,572 588,572 587,572 586,572 585,572 584,572 583,572 582,572 583,572 584,573 585,573 586,574 587,575 588,575 589,576 590,577 591,578 592,579 591,580 590,580 589,580 588,580 587,580 586,581 585,581 584,581 583,581 582,581 581,581 580,581 579,581 578,581 577,581 576,581 575,581 574,581 575,581 576,582 577,582 578,582 579,583 580,583 581,584 582,584 583,584 584,585 585,585 586,585 587,586 588,586 589,587 590,587 591,588 592,589 591,590 590,590 589,591 588,591 587,591 586,591 585,590 584,591 583,591 582,591 583,591 584,591 585,592 586,593 585,594 584,594 583,594 582,595 581,595 580,595 579,595 578,596 577,596 576,596 575,597 574,597 573,597 572,597 571,597 570,598 569,598 568,598 567,598 566,599 565,599 564,599 563,599 564,599 565,599 566,599 567,599 568,600 569,600 570,600 571,600 572,600 573,600 574,600 575,600 576,600 577,600 578,601 579,601 580,601 581,601 582,601 583,601 584,601 585,601 586,601 587,601 588,602 589,602 590,602 591,602 592,602 593,603 594,604 593,605 592,605 591,606 590,606 589,606 588,607 587,607 586,607 585,608 584,608 583,609 582,609 583,609 584,609 585,609 586,609 587,609 588,609 589,609 590,609 591,609 592,610 593,610 594,610 595,611 594,612 593,612 592,613 591,613 590,614 589,614 588,615 587,616 586,616 585,617 584,617 585,617 586,617 587,616 588,616 589,616 590,616 591,615 592,615 593,615 594,615 595,615 596,615 597,614 598,614 599,614 600,614 601,614 602,614 603,613 604,613 605,613 606,613 607,614 607,615 606,616 605,617 604,618 603,619 603,620 604,620 605,619 606,619 607,618 608,618 609,617 610,617 611,617 612,616 613,616 614,615 615,616 615,617 615,618 615,619 614,620 614,621 614,622 613,623 613,624 613,625 614,624 615,624 616,623 617,623 618,622 619,621 620,621 621,620 622,620 623,619 624,619 625,620 625,621 625,622 626,621 627,621 628,622 628,623 628,624 627,625 627,626 627,627 627,628 627,629 626,630 626,631 626,632 626,633 625,634 625,635 625,636 624,637 624,638 624,639 624,640 624,641 625,640 626,639 627,638 628,637 629,636 630,635 631,634 631,633 632,632 633,631 634,630 635,629 636,628 636,627 637,626 638,625 639,625 640,626 640,627 640,628 639,629 639,630 639,631 639,632 639,633 639,634 639,635 638,636 638,637 639,637 640,636 641,635 642,634 643,633 644,632 645,632 645,631 646,630 647,630 648,631 648,632 649,633 649,634 649,635 649,636 649,637 649,638 649,639 649,640 650,641 650,642 650,641 651,640 652,639 653,638 653,637 654,636 654,635 655,634 656,633 656,632 657,631 657,630 658,629 659,628 659,627 660,626 660,625 661,624 661,623 662,622 663,621 664,622 665,623 665,624 665,625 666,626 666,627 666,628 667,629 667,630 668,629 668,628 669,627 669,626 670,625 670,624 670,623 671,622 671,621 672,620 673,621 674,622 675,623 675,624 676,625 676,626 677,627 677,628 678,629 678,630 679,631 680,632 681,633 681,634 682,635 682,636 683,637 684,636 683,635 683,634 682,633 682,632 682,631 682,630 681,629 681,628 680,627 680,626 680,625 679,624 679,623 679,622 678,621 678,620 677,619 677,618 677,617 678,616 679,617 680,617 681,618 682,618 683,619 684,620 685,621 686,622 686,621 685,620 685,619 684,618 684,617 683,616 684,615 685,615 686,615 687,615 688,615 689,616 690,616 691,616 692,616 693,616 693,615 693,614 693,613 692,612 691,611 690,610 691,609 692,608 693,608 693,607 693,606 693,605 693,604 693,603 693,602 693,601 693,600 693,599 693,598 693,597 693,596 693,595 693,594 693,593 693,592 693,591 693,590 693,589 693,588 693,587 693,586 693,585 693,584 693,583 693,582 693,581 693,580 693,579 693,578 693,577 693,576 693,575 693,574 693,573 693,572 693,571 693,570 693,569 693,568 693,567 693,566 693,565 693,564 693,563 693,562 693,561 693,560 693,559 693,558 693,557 693,556 693,555 693,554 693,553 692,553 691,553 690,553 689,553 688,553 687,553 686,553 685,553 684,553 683,553 682,553 681,553 680,553 679,553 678,553 677,553 676,553 675,553 674,553 673,553 672,553 671,553 670,553 669,553 668,553 667,553 666,553 665,553 664,553 663,553 662,553 661,553 660,553 659,553 658,553 657,553 656,553 655,553 654,553 653,553 652,553 651,553 650,553 649,553 648,553 647,553 646,553 645,553 644,553 643,553 642,553 641,553 640,553 639,553 638,553 637,553 636,553 635,553 634,553 633,553 632,553 631,553 630,553 629,553 628,553 627,553 626,553 625,553 624,553 623,553 622,553 621,553 620,553 619,553 618,553 617,553 616,553 615,553 614,553 613,553 612,553 611,553 610,553 609,553 608,553 607,553 607,554 606,555 605,556 604,555 604,554 603,554 602,553 601,553 600,553 599,553 598,553 598,554 598,555 599,556 600,557 600,558 600,559 599,560 598,560 597,559 596,559 595,558 594,557 593,557 592,556 591,555 590,555 589,554 588,553 587,553 586,553 585,553 584,553">
      <metadata tailDirection="" confidence="0.00" linkedToCharacter="" id="CYB_BUBBLEGOM_T01_028_balloon_11" tailTip=""></metadata>
    </polygon>
    <polygon points="231,602 231,603 232,603 233,603 234,604 235,605 236,605 237,606 238,607 239,608 239,609 240,610 241,611 241,612 241,613 242,614 242,615 242,616 242,617 242,618 242,619 241,620 240,619 239,618 238,617 237,616 236,615 235,615 234,614 233,613 232,613 231,613 230,613 229,613 230,613 231,614 232,615 233,615 234,616 235,617 236,618 237,619 238,620 239,621 239,622 239,623 239,624 239,625 239,626 239,627 240,628 239,629 238,630 237,630 236,630 235,629 234,629 233,629 232,629 231,629 230,629 229,629 228,629 227,629 226,629 225,629 224,629 223,629 222,629 221,629 220,629 219,629 218,630 217,630 216,630 215,630 214,630 213,631 212,631 211,632 210,632 209,633 208,633 207,633 206,634 205,634 204,635 203,635 202,636 201,636 200,637 199,637 198,638 197,639 196,640 195,641 194,641 193,642 192,643 191,644 190,645 189,646 188,646 188,647 189,647 190,647 191,648 192,649 191,650 190,650 189,650 188,651 187,651 186,651 185,651 184,651 184,652 183,653 183,654 183,655 182,656 182,657 182,658 181,659 181,660 181,661 181,662 180,663 180,664 180,665 180,666 181,667 182,667 183,667 184,668 185,668 186,669 187,669 188,669 189,669 190,670 191,670 192,670 193,670 194,670 195,671 196,671 197,671 198,671 199,671 200,671 201,671 202,671 203,671 204,671 205,671 206,671 207,670 208,670 209,670 210,670 211,670 212,670 213,670 214,670 215,670 216,671 217,670 218,671 219,671 220,671 221,672 222,672 223,673 223,674 223,675 223,676 223,677 223,678 223,679 222,680 222,681 221,682 221,683 220,684 220,685 219,686 219,687 218,688 217,689 216,690 216,691 215,692 215,693 214,694 214,695 213,696 213,697 212,698 212,699 211,700 211,701 210,702 210,703 210,704 209,705 209,706 209,707 209,708 209,709 208,710 208,711 208,712 208,713 208,714 208,715 208,716 208,717 208,718 208,719 209,720 208,721 207,722 206,722 205,722 204,722 203,721 202,721 201,720 200,720 199,719 198,719 197,718 196,718 195,717 196,718 196,719 197,720 198,721 199,722 200,722 201,723 202,724 203,725 204,725 205,726 206,727 207,727 208,727 209,728 210,728 211,729 212,729 213,729 214,730 215,730 216,730 217,730 218,730 219,730 220,731 221,731 222,731 223,731 224,731 225,732 226,732 227,732 228,732 229,732 230,732 231,732 232,732 233,732 234,732 235,732 236,732 237,732 238,732 239,731 240,731 241,730 242,729 243,729 244,728 245,727 246,726 247,726 248,727 249,727 250,728 251,728 252,728 253,728 254,728 255,727 256,727 257,726 258,726 259,725 260,724 261,723 261,722 262,721 262,720 263,719 264,719 265,720 266,720 267,719 267,718 268,717 269,717 270,717 271,716 272,716 273,716 274,715 274,714 275,713 276,712 275,712 274,712 273,712 272,712 271,712 270,712 269,712 268,712 267,712 266,712 265,713 264,713 263,713 262,713 261,713 260,713 259,713 258,714 257,714 256,714 255,714 254,715 253,715 252,715 251,716 250,716 249,716 248,717 247,717 246,717 245,717 244,717 243,717 242,717 241,717 240,716 239,716 238,715 238,714 237,713 237,712 236,711 236,710 236,709 236,708 236,707 236,706 236,705 236,704 236,703 237,702 237,701 238,700 238,699 238,698 239,697 239,696 240,695 240,694 241,693 242,692 243,691 244,690 245,689 246,688 247,688 246,688 245,689 244,690 243,690 242,691 241,691 240,692 239,693 238,693 237,694 236,695 235,696 234,696 233,697 232,698 231,697 231,696 230,695 231,694 232,693 233,693 234,694 235,693 234,692 235,691 236,690 237,689 238,689 239,690 238,691 239,690 238,689 239,688 240,687 241,687 242,688 241,689 242,688 243,687 244,687 245,686 246,686 247,685 248,685 249,684 250,684 251,683 252,683 253,683 254,683 255,684 256,684 257,683 258,683 259,684 260,684 261,684 262,684 263,684 264,685 265,685 266,685 267,685 268,685 269,686 270,686 271,686 272,686 273,686 274,686 275,686 276,686 277,686 278,685 279,685 279,684 279,683 279,682 279,681 279,680 278,679 278,678 278,677 278,676 278,675 278,674 278,673 277,672 277,671 277,670 277,669 277,668 276,667 276,666 276,665 276,664 275,663 275,662 275,661 274,660 274,659 274,658 273,657 273,656 272,655 272,654 271,653 270,652 270,651 269,650 269,649 268,648 268,647 267,646 266,645 266,644 265,643 264,642 263,641 262,640 261,639 260,638 261,637 262,636 263,635 264,635 265,634 266,633 267,632 268,631 269,630 270,629 270,628 270,627 271,626 271,625 271,624 271,623 271,622 271,621 271,620 271,619 271,618 271,617 271,618 270,619 270,620 269,621 268,622 267,623 267,624 266,625 265,626 264,627 263,627 262,627 261,626 261,625 262,624 262,623 262,622 262,621 261,620 261,619 261,618 261,617 261,616 261,615 260,614 260,613 260,612 259,611 258,610 258,609 257,608 256,607 255,607 254,606 253,605 252,604 251,604 250,604 249,603 248,603 247,603 246,602 245,602 244,602 243,602 242,602 241,602 240,602 239,602 238,602 237,602 236,602 235,602 234,602 233,602 232,602 231,602">
      <metadata tailDirection="" confidence="0.00" linkedToCharacter="" id="CYB_BUBBLEGOM_T01_028_balloon_12" tailTip=""></metadata>
    </polygon>
    <polygon points="341,543 340,544 339,544 338,544 337,544 336,544 335,544 334,544 333,545 332,545 331,545 330,545 329,545 328,546 327,546 326,546 325,546 324,546 323,547 322,547 321,548 320,548 319,548 318,549 317,549 316,549 315,550 314,550 313,551 312,551 311,552 310,552 309,553 308,554 307,554 306,555 305,556 304,557 303,557 303,558 302,559 301,560 300,561 299,562 299,563 298,564 298,565 298,566 297,567 297,568 297,569 297,570 297,571 297,572 298,573 298,574 298,575 299,576 299,577 300,578 301,579 301,580 302,581 303,582 304,583 305,583 306,584 307,585 308,586 309,586 310,587 311,587 312,588 313,589 314,589 315,589 316,590 317,590 318,591 319,591 320,591 321,592 322,592 323,592 324,593 325,593 326,593 327,594 328,594 329,594 330,594 331,594 332,595 333,595 334,595 335,595 336,595 337,595 338,595 339,596 340,596 341,596 342,596 343,596 344,596 345,596 346,596 347,596 348,596 349,596 350,596 351,596 352,596 353,596 354,596 355,596 356,596 357,596 358,597 358,598 358,599 357,600 357,601 356,602 356,603 355,604 355,605 354,606 354,607 353,608 354,607 355,606 356,605 357,604 358,603 359,603 360,602 361,601 362,600 363,599 364,598 365,597 366,597 367,596 368,595 369,594 370,594 371,594 372,593 373,593 374,593 375,592 376,592 377,592 378,592 379,591 380,591 381,591 382,590 383,590 384,589 385,589 386,588 387,588 388,587 389,587 390,586 391,585 392,585 393,584 394,583 395,582 396,581 397,580 398,579 399,578 399,577 400,576 400,575 401,574 401,573 401,572 401,571 401,570 401,569 401,568 401,567 401,566 401,565 400,564 400,563 399,562 399,561 398,560 397,559 396,558 395,557 394,556 393,555 392,554 391,554 390,553 389,553 388,552 387,551 386,551 385,550 384,550 383,549 382,549 381,549 380,548 379,548 378,548 377,547 376,547 375,547 374,546 373,546 372,546 371,546 370,545 369,545 368,545 367,545 366,545 365,544 364,544 363,544 362,544 361,544 360,544 359,544 358,543 357,543 356,543 355,543 354,543 353,543 352,543 351,543 350,543 349,543 348,543 347,543 346,543 345,543 344,543 343,543 342,543 341,543">
      <metadata tailDirection="" confidence="0.00" linkedToCharacter="" id="CYB_BUBBLEGOM_T01_028_balloon_13" tailTip=""></metadata>
    </polygon>
    <polygon points="471,437 472,436 473,437 474,438 474,439 475,440 475,441 475,442 475,441 475,440 476,439 476,438 477,437 478,437 479,436 480,437 481,437 482,437 483,436 484,436 485,436 486,437 485,438 484,438 483,439 482,439 483,439 484,439 485,439 486,440 485,441 484,441 483,441 484,441 485,441 486,442 485,443 484,444 483,444 482,444 481,444 480,443 479,444 478,444 477,444 476,444 475,444 474,444 473,443 473,442 472,442 471,442 471,443 470,444 469,443 469,442 469,441 470,440 470,439 470,438 471,437">
      <metadata tailDirection="" confidence="0.00" linkedToCharacter="" id="CYB_BUBBLEGOM_T01_028_balloon_14" tailTip=""></metadata>
    </polygon>
    <polygon points="209,411 208,412 207,412 206,413 205,414 204,414 203,415 202,416 201,416 200,417 199,418 198,419 197,420 196,421 195,422 194,423 194,424 194,425 195,426 195,427 195,428 195,429 196,430 196,431 197,432 197,433 198,434 199,435 199,436 200,437 201,438 202,439 203,440 204,441 205,442 206,443 207,444 208,445 208,444 208,443 208,442 208,441 208,440 208,439 208,438 208,437 208,436 209,435 209,434 210,433 211,432 212,431 213,430 214,429 215,429 216,428 217,427 218,426 219,426 220,425 221,425 222,425 223,425 224,426 225,426 226,427 227,428 228,429 228,430 229,431 228,432 227,432 226,431 225,430 224,429 223,429 222,428 221,428 220,429 219,429 218,430 217,430 216,431 215,432 214,433 214,434 214,435 214,436 214,437 214,438 214,439 214,440 214,441 214,442 214,443 214,444 215,445 215,446 216,446 217,446 218,447 219,447 220,448 221,449 222,450 223,451 223,452 224,453 224,454 225,455 225,456 225,457 225,458 226,459 226,460 227,461 227,462 226,463 226,464 225,465 224,466 223,467 222,467 221,467 220,468 219,468 218,468 217,467 216,467 215,466 215,465 214,464 214,465 214,466 215,466 216,467 215,468 214,468 214,469 215,470 214,471 214,472 215,473 214,474 215,473 216,473 217,474 216,475 215,476 214,476 214,477 215,476 216,477 217,477 218,476 219,476 220,477 219,478 218,479 217,479 216,479 215,479 214,479 213,480 212,481 211,482 210,483 209,483 208,484 207,484 206,484 205,483 204,482 203,481 202,481 201,480 200,479 199,479 198,478 197,478 196,478 196,479 196,480 196,481 197,482 198,483 198,484 198,485 199,486 200,487 199,486 199,485 199,484 198,483 198,482 197,481 197,480 197,479 198,478 199,479 200,480 201,481 202,481 203,482 204,483 205,484 206,484 207,484 208,485 209,484 210,484 211,484 212,483 213,482 214,482 215,481 216,481 217,481 218,480 219,480 220,481 221,482 222,483 223,483 224,484 225,485 226,485 227,484 228,483 229,483 230,482 231,482 232,481 233,481 234,481 235,480 236,481 237,481 238,482 239,483 240,483 241,484 242,484 243,484 244,484 245,483 246,483 247,482 248,481 249,481 250,480 251,480 252,481 253,481 254,482 255,483 256,484 257,485 258,485 259,485 260,485 261,485 262,484 263,484 264,484 265,483 266,483 267,482 266,482 265,482 264,482 263,483 262,483 261,484 260,484 259,484 258,484 257,485 256,484 255,483 254,482 253,481 252,480 251,479 250,479 249,479 248,479 247,478 248,477 249,476 250,476 250,475 250,474 249,473 250,472 250,471 250,470 249,470 248,469 249,468 250,468 250,467 250,466 250,465 250,464 250,463 250,462 249,463 248,464 247,465 246,466 245,466 244,467 243,467 242,467 241,466 240,466 239,465 238,464 238,463 237,462 237,461 237,460 237,459 237,458 237,457 238,456 238,455 238,454 239,453 239,452 240,451 241,450 242,449 243,449 244,448 245,447 246,447 247,446 248,446 249,446 250,446 250,445 250,444 250,443 250,442 250,441 250,440 250,439 250,438 250,437 250,436 250,435 250,434 250,433 250,432 249,431 249,430 250,429 251,429 251,428 250,428 249,427 248,427 247,427 246,427 245,428 244,428 243,429 242,429 241,430 241,431 240,432 239,432 238,431 238,430 238,429 239,428 240,427 241,426 242,426 243,425 244,425 245,424 246,424 247,424 248,424 249,424 250,424 251,425 252,426 253,427 254,428 255,429 256,430 257,431 257,432 257,433 258,434 258,435 258,436 258,437 258,438 258,439 258,440 258,441 258,442 259,443 259,444 259,445 259,446 259,447 258,448 259,447 260,447 261,446 262,445 263,444 264,443 265,443 266,442 267,441 267,440 267,439 267,438 267,437 267,436 267,435 267,434 267,433 267,432 267,431 267,430 267,429 267,428 267,427 267,426 267,425 267,424 267,423 267,422 267,421 267,420 267,419 266,418 265,417 264,417 263,416 262,415 261,415 260,414 259,414 258,413 257,413 256,412 255,412 254,412 253,412 252,412 251,413 250,413 249,414 248,415 247,416 246,417 245,418 244,419 243,418 243,417 244,416 244,415 245,414 244,414 243,413 242,413 241,413 240,413 239,413 238,412 237,412 236,412 235,412 234,412 233,412 232,412 231,412 230,412 229,412 228,412 227,412 226,413 225,413 224,413 223,413 222,413 223,414 224,415 225,416 226,417 226,418 225,419 224,418 223,418 222,417 221,416 220,415 219,414 218,414 217,413 216,412 215,411 214,411 213,411 212,411 211,411 210,411 209,411">
      <metadata tailDirection="" confidence="0.00" linkedToCharacter="" id="CYB_BUBBLEGOM_T01_028_balloon_15" tailTip=""></metadata>
    </polygon>
    <polygon points="62,378 61,379 60,380 59,381 58,382 57,383 57,384 57,385 57,386 57,387 57,388 57,389 57,390 57,391 57,392 57,393 57,394 57,395 57,396 57,397 57,398 57,399 57,400 57,401 57,402 57,403 57,404 57,405 57,406 57,407 57,408 57,409 57,410 57,411 57,412 57,413 57,414 57,415 57,416 57,417 57,418 57,419 57,420 57,421 57,422 57,423 57,424 57,425 58,426 59,426 60,426 61,427 62,427 63,428 64,429 64,430 65,431 65,432 66,433 66,434 66,435 66,436 67,437 67,438 66,439 66,440 66,441 67,441 68,440 69,441 70,441 71,441 72,440 73,439 74,439 75,439 76,439 77,438 78,437 79,437 80,437 81,437 82,436 83,436 84,436 85,436 86,436 87,436 88,436 89,435 90,435 91,435 92,435 93,435 94,435 95,435 96,435 97,436 98,436 99,436 100,436 101,436 102,436 103,437 104,437 105,437 106,438 107,438 108,438 109,439 110,439 111,439 112,439 113,439 114,438 115,437 115,436 116,435 117,434 118,433 119,432 120,432 121,431 122,431 123,430 124,430 125,430 126,430 127,430 128,429 129,429 129,428 130,427 131,427 131,426 132,425 133,424 134,423 135,422 136,421 137,421 138,420 138,419 139,418 140,417 140,416 141,415 142,415 141,415 140,416 139,416 138,416 137,415 136,415 135,416 134,416 133,416 132,417 131,417 130,417 129,417 128,416 127,416 126,416 125,416 124,417 124,418 124,419 124,420 124,421 125,422 125,423 125,424 125,425 125,426 126,426 127,427 128,428 128,429 127,430 126,429 125,429 124,429 123,428 123,427 122,426 122,425 122,424 122,423 121,422 120,421 119,420 119,419 119,418 119,417 119,416 118,416 117,416 116,416 115,416 114,416 113,415 112,415 111,415 110,415 109,415 108,414 107,414 106,414 105,415 104,415 103,415 102,414 101,414 100,414 99,414 98,414 97,414 96,414 95,413 94,413 93,412 92,411 91,410 91,409 90,408 90,407 90,406 90,405 90,404 90,403 90,402 89,401 89,400 89,399 88,398 88,397 88,396 88,395 87,394 87,393 87,392 87,391 87,390 87,389 86,389 85,390 85,391 84,392 84,393 83,394 84,393 85,393 86,393 87,394 88,395 88,396 88,397 87,398 87,399 87,400 86,401 86,402 85,403 85,404 84,405 85,405 86,405 87,405 88,405 89,406 90,407 90,408 89,409 89,410 88,411 88,412 88,413 87,414 87,415 87,416 87,417 86,418 86,419 85,420 85,421 85,422 85,423 85,424 85,425 85,426 84,427 84,428 84,429 84,430 83,431 82,432 81,431 81,430 80,429 80,428 80,427 80,426 80,425 81,424 81,423 81,422 81,421 81,420 81,419 81,418 81,417 80,418 79,418 78,419 77,420 76,420 75,420 74,419 74,418 74,417 74,416 74,415 75,414 75,413 75,412 75,411 76,410 76,409 76,408 76,407 76,406 77,405 77,404 76,404 75,405 74,405 73,406 72,407 71,407 70,406 70,405 70,404 71,403 71,402 71,401 71,400 72,399 72,398 73,397 73,396 73,395 74,394 74,393 75,392 76,391 76,390 75,391 74,392 73,392 72,393 71,394 70,395 69,395 68,394 68,393 69,392 69,391 69,390 70,389 70,388 70,387 70,386 70,385 69,386 68,387 67,388 66,389 65,390 64,391 63,391 62,392 61,392 60,391 60,390 61,389 61,388 61,387 62,386 62,385 62,384 62,383 62,382 62,381 62,380 62,379 62,378">
      <metadata tailDirection="" confidence="0.00" linkedToCharacter="" id="CYB_BUBBLEGOM_T01_028_balloon_16" tailTip=""></metadata>
    </polygon>
    <polygon points="118,370 117,371 116,371 115,371 114,372 113,372 112,373 111,373 110,374 109,374 108,374 107,375 106,375 105,375 104,375 103,375 102,376 101,376 100,377 99,378 98,378 97,379 96,380 96,381 95,382 94,383 93,384 93,385 92,386 92,387 91,388 91,389 91,390 90,391 90,392 90,393 90,394 90,395 91,396 91,397 91,398 92,399 92,400 92,401 93,402 93,403 93,404 93,405 93,406 93,407 93,408 94,409 94,410 95,410 96,411 97,411 98,411 99,412 100,412 101,412 102,412 103,412 104,412 105,412 106,412 107,412 108,412 109,412 110,412 111,412 112,412 113,412 114,413 115,413 116,413 117,413 118,413 119,413 120,413 121,412 122,412 123,413 123,414 123,415 122,416 122,417 122,416 123,415 123,414 124,413 125,412 126,413 127,413 128,413 129,414 130,414 131,414 132,414 133,413 134,413 135,413 136,413 137,413 138,413 139,413 140,413 141,412 142,412 143,411 144,411 143,410 142,410 141,410 140,410 139,411 138,411 137,411 136,410 135,409 136,408 136,407 137,406 138,405 139,404 140,403 141,402 142,401 143,401 144,400 145,400 146,399 147,399 148,398 149,398 150,398 151,397 152,397 153,397 154,397 155,397 156,397 157,396 158,395 158,394 158,393 158,392 158,391 158,390 157,389 157,388 157,387 156,386 155,385 155,384 154,383 155,382 154,381 154,380 154,379 154,378 153,377 152,376 152,375 151,374 150,374 149,373 148,373 147,372 146,372 145,372 144,372 143,372 142,372 141,373 140,373 139,373 138,373 137,373 136,373 135,372 134,372 133,372 132,372 131,372 130,371 129,371 128,371 127,371 126,370 125,370 124,370 123,370 122,370 121,370 120,370 119,370 118,370">
      <metadata tailDirection="" confidence="0.00" linkedToCharacter="" id="CYB_BUBBLEGOM_T01_028_balloon_17" tailTip=""></metadata>
    </polygon>
    <polygon points="515,299 516,298 517,298 518,298 519,299 520,299 521,299 522,299 523,299 524,299 525,299 526,299 527,299 528,299 529,299 530,299 531,299 532,299 533,299 534,299 535,299 536,299 537,299 538,299 539,299 540,299 541,299 542,299 543,299 544,299 545,299 546,299 547,299 548,299 549,299 550,299 551,299 552,299 553,299 554,299 555,299 556,299 557,299 558,299 559,299 560,299 561,299 562,299 563,299 564,299 565,299 566,299 567,299 568,299 569,299 570,299 571,299 572,299 573,299 574,299 575,299 576,299 577,299 578,299 579,299 580,299 581,299 582,299 583,299 584,299 585,299 586,299 587,299 588,299 589,299 590,299 591,299 592,299 593,299 594,299 595,299 596,299 597,299 598,299 599,299 600,299 601,299 602,299 603,299 604,299 605,299 606,299 607,299 608,299 609,299 610,299 611,299 612,299 613,299 614,299 615,299 616,299 617,299 618,299 619,299 620,299 621,299 622,299 623,299 624,299 625,299 626,299 627,299 628,299 629,299 630,299 631,299 632,299 633,299 634,299 635,299 636,299 637,299 638,299 639,299 640,299 641,299 642,299 643,299 644,299 645,299 646,299 647,299 648,299 649,299 650,299 651,299 652,299 653,299 654,299 655,299 656,299 657,299 658,299 659,299 660,299 661,299 662,299 663,299 664,299 665,299 666,299 667,299 668,299 669,299 670,299 671,299 672,299 673,299 674,299 675,299 676,299 677,299 678,299 679,299 680,299 681,299 682,299 683,299 684,299 685,299 686,299 687,299 688,299 689,299 690,299 691,299 692,299 693,299 694,299 695,299 696,300 696,301 696,302 696,303 696,304 696,305 696,306 696,307 696,308 696,309 696,310 696,311 696,312 696,313 696,314 696,315 696,316 696,317 696,318 696,319 696,320 696,321 696,322 696,323 696,324 696,325 696,326 696,327 696,328 696,329 696,330 696,331 696,332 696,333 696,334 696,335 696,336 696,337 696,338 696,339 696,340 696,341 696,342 696,343 696,344 696,345 696,346 696,347 696,348 696,349 696,350 696,351 696,352 696,353 696,354 696,355 696,356 696,357 696,358 696,359 696,360 696,361 696,362 696,363 696,364 696,365 696,366 696,367 696,368 696,369 696,370 696,371 696,372 696,373 696,374 696,375 696,376 696,377 696,378 696,379 696,380 696,381 696,382 696,383 696,384 696,385 696,386 696,387 696,388 696,389 696,390 696,391 696,392 696,393 696,394 696,395 696,396 696,397 696,398 696,399 696,400 696,401 696,402 696,403 696,404 696,405 696,406 696,407 696,408 696,409 696,410 696,411 696,412 696,413 696,414 696,415 696,416 696,417 696,418 696,419 696,420 696,421 696,422 696,423 696,424 696,425 696,426 696,427 696,428 696,429 696,430 696,431 696,432 696,433 696,434 696,435 696,436 696,437 696,438 696,439 696,440 696,441 696,442 696,443 696,444 696,445 696,446 696,447 696,448 696,449 696,450 696,451 696,452 696,453 696,454 696,455 696,456 696,457 696,458 696,459 696,460 696,461 696,462 696,463 696,464 696,465 696,466 696,467 696,468 696,469 696,470 696,471 696,472 696,473 696,474 696,475 696,476 696,477 696,478 696,479 696,480 696,481 696,482 696,483 696,484 696,485 696,486 696,487 696,488 696,489 696,490 696,491 696,492 696,493 696,494 696,495 696,496 696,497 696,498 697,499 697,500 697,501 697,502 697,503 697,504 697,505 697,506 697,507 697,508 697,509 697,510 697,511 697,512 697,513 697,514 698,515 697,516 696,517 695,517 694,517 693,517 692,517 691,517 690,517 689,517 688,517 687,517 686,517 685,517 684,517 683,517 682,517 681,517 680,517 679,517 678,517 677,517 676,517 675,517 674,517 673,517 672,517 671,517 670,517 669,517 668,517 667,517 666,517 665,517 664,517 663,517 662,517 661,517 660,517 659,517 658,517 657,517 656,517 655,517 654,517 653,517 652,517 651,517 650,517 649,517 648,517 647,517 646,517 645,517 644,517 643,517 642,517 641,517 640,517 639,517 638,517 637,517 636,517 635,517 634,517 633,517 632,517 631,517 630,517 629,517 628,517 627,517 626,517 625,517 624,517 623,517 622,517 621,517 620,517 619,517 618,517 617,517 616,517 615,517 614,517 613,517 612,517 611,517 610,517 609,517 608,517 607,517 606,517 605,517 604,517 603,517 602,517 601,517 600,517 599,517 598,517 597,517 596,517 595,517 594,517 593,517 592,517 591,517 590,517 589,517 588,517 587,517 586,517 585,517 584,517 583,517 582,517 581,517 580,517 579,517 578,517 577,517 576,517 575,517 574,517 573,517 572,517 571,517 570,517 569,517 568,517 567,517 566,517 565,517 564,517 563,517 562,517 561,517 560,517 559,517 558,517 557,517 556,517 555,517 554,517 553,517 552,517 551,517 550,517 549,517 548,517 547,517 546,517 545,517 544,517 543,517 542,517 541,517 540,517 539,517 538,517 537,517 536,517 535,517 534,517 533,517 532,517 531,517 530,517 529,517 528,517 527,517 526,517 525,517 524,517 523,517 522,517 521,517 520,517 519,517 518,516 518,515 517,514 517,513 517,512 517,511 517,510 517,509 517,508 517,507 517,506 517,505 517,504 517,503 517,502 517,501 517,500 517,499 517,498 517,497 517,496 517,495 517,494 517,493 517,492 517,491 517,490 517,489 517,488 517,487 517,486 517,485 517,484 517,483 517,482 517,481 517,480 517,479 517,478 517,477 517,476 517,475 517,474 517,473 517,472 517,471 517,470 517,469 517,468 517,467 517,466 517,465 517,464 517,463 517,462 517,461 517,460 517,459 517,458 517,457 517,456 517,455 517,454 517,453 517,452 517,451 517,450 517,449 517,448 517,447 517,446 517,445 517,444 517,443 517,442 517,441 517,440 517,439 517,438 517,437 517,436 517,435 517,434 517,433 517,432 517,431 517,430 516,429 517,428 517,427 517,426 517,425 516,424 516,423 516,422 516,421 516,420 516,419 516,418 516,417 516,416 516,415 516,414 516,413 516,412 516,411 516,410 516,409 516,408 516,407 516,406 516,405 516,404 516,403 516,402 516,401 516,400 516,399 516,398 516,397 516,396 516,395 516,394 516,393 516,392 516,391 516,390 516,389 516,388 516,387 516,386 516,385 516,384 516,383 516,382 516,381 516,380 516,379 516,378 516,377 516,376 516,375 516,374 516,373 516,372 516,371 516,370 516,369 516,368 516,367 516,366 516,365 516,364 516,363 516,362 516,361 516,360 516,359 516,358 516,357 516,356 516,355 516,354 516,353 516,352 516,351 516,350 516,349 516,348 516,347 516,346 516,345 516,344 516,343 516,342 516,341 516,340 516,339 516,338 516,337 516,336 516,335 516,334 516,333 516,332 516,331 516,330 516,329 516,328 516,327 516,326 515,325 515,324 516,323 515,322 515,321 515,320 515,319 515,318 515,317 515,316 515,315 515,314 515,313 515,312 515,311 515,310 515,309 515,308 515,307 515,306 515,305 515,304 515,303 515,302 515,301 515,300 515,299">
      <metadata tailDirection="" confidence="0.00" linkedToCharacter="" id="CYB_BUBBLEGOM_T01_028_balloon_18" tailTip=""></metadata>
    </polygon>
    <polygon points="667,303 667,304 668,305 668,306 669,307 669,308 669,309 670,310 670,311 670,312 670,313 671,314 671,315 670,316 670,317 670,318 670,319 669,320 669,321 668,322 667,323 667,324 667,325 668,326 669,327 670,328 671,329 672,330 672,331 673,332 674,333 675,334 675,335 676,336 676,337 677,338 677,339 678,340 678,341 679,342 679,343 679,344 680,345 680,346 680,347 680,348 680,349 681,350 681,351 681,352 681,353 681,354 681,355 681,356 681,357 681,358 681,359 681,360 681,361 681,362 681,363 681,364 680,365 680,366 680,367 679,368 678,368 677,367 677,366 677,365 677,364 677,363 677,362 677,361 677,360 677,359 677,358 678,357 677,356 677,355 677,354 677,353 677,352 677,351 677,350 676,349 676,348 676,347 676,346 675,345 675,344 674,343 674,342 673,341 673,340 672,339 672,338 671,337 670,336 669,335 668,334 667,333 666,333 665,332 664,331 663,331 662,331 661,331 660,332 659,333 658,334 657,335 656,335 655,336 654,337 653,337 652,338 651,338 650,339 649,339 648,340 647,340 646,340 645,341 644,341 643,342 642,342 641,342 640,343 639,343 638,343 637,343 636,344 635,344 634,344 633,344 632,345 631,345 630,345 629,345 628,345 627,346 626,346 625,346 624,346 623,346 622,347 621,347 620,347 619,347 618,347 617,347 616,348 615,348 614,348 613,348 612,348 611,348 610,348 609,349 608,349 607,349 606,349 605,349 604,349 603,349 602,349 601,349 600,349 599,350 598,350 597,350 596,350 595,350 594,350 593,351 592,350 592,349 592,348 591,349 590,350 589,351 588,351 587,351 586,351 585,350 584,350 583,350 582,350 581,350 580,350 579,350 578,350 577,350 576,349 575,349 574,349 573,349 572,349 573,349 574,350 575,351 576,352 577,353 578,353 579,354 579,355 580,356 580,357 579,358 578,358 577,358 576,358 575,358 574,358 573,359 572,359 573,359 574,359 575,359 576,359 577,359 578,360 579,360 580,360 581,360 582,361 583,361 584,362 585,363 586,364 587,365 587,366 588,367 589,368 589,369 589,370 589,371 589,372 589,373 589,374 589,375 589,376 589,377 590,378 591,379 592,380 593,380 594,381 595,382 596,383 597,384 598,385 599,386 599,387 600,388 601,389 601,390 602,391 602,392 603,393 603,394 604,395 604,396 605,396 606,396 607,396 608,397 609,397 610,397 611,397 612,398 613,398 614,399 615,400 616,401 616,402 617,402 618,402 619,401 620,400 621,400 622,400 623,399 624,399 625,399 626,398 627,398 628,398 629,397 630,397 631,397 632,397 633,397 634,397 635,396 636,396 637,396 638,396 639,396 640,396 641,396 642,396 643,396 644,396 645,396 646,396 647,396 648,396 649,396 650,396 651,396 652,396 653,396 654,396 655,396 656,396 657,396 658,396 659,396 660,397 661,397 662,397 663,397 664,397 665,398 666,398 667,398 668,398 669,397 670,397 671,396 672,396 673,396 674,396 675,396 676,396 677,397 678,397 679,397 680,397 681,398 682,398 683,398 684,399 685,400 686,400 687,401 688,401 689,402 690,403 691,404 692,405 693,406 693,405 693,404 693,403 693,402 693,401 693,400 693,399 693,398 693,397 693,396 693,395 693,394 693,393 693,392 693,391 693,390 693,389 693,388 693,387 693,386 693,385 693,384 693,383 693,382 693,381 693,380 693,379 693,378 693,377 693,376 693,375 693,374 692,373 692,372 693,371 693,370 693,369 693,368 693,367 693,366 693,365 692,364 692,363 692,362 692,361 692,360 692,359 692,358 692,357 692,356 692,355 692,354 692,353 692,352 692,351 692,350 692,349 692,348 692,347 692,346 692,345 692,344 692,343 692,342 692,341 692,340 692,339 692,338 692,337 692,336 692,335 692,334 692,333 692,332 692,331 692,330 692,329 692,328 692,327 692,326 692,325 692,324 692,323 692,322 692,321 692,320 692,319 692,318 692,317 692,316 692,315 692,314 692,313 692,312 692,311 692,310 692,309 692,308 692,307 692,306 692,305 692,304 691,304 690,304 689,304 688,303 687,304 686,304 685,303 684,303 683,303 682,303 681,303 680,303 679,303 678,303 677,303 676,303 675,303 674,303 673,303 672,303 671,303 670,303 669,303 668,303 667,303">
      <metadata tailDirection="" confidence="0.00" linkedToCharacter="" id="CYB_BUBBLEGOM_T01_028_balloon_19" tailTip=""></metadata>
    </polygon>
    <polygon points="519,303 519,304 519,305 519,306 519,307 519,308 519,309 519,310 519,311 519,312 519,313 519,314 519,315 519,316 519,317 519,318 519,319 519,320 519,321 519,322 519,323 519,324 519,325 520,325 521,326 522,327 523,327 524,328 525,329 526,329 527,330 528,330 529,331 530,331 531,332 532,332 533,333 534,333 535,334 536,334 537,335 538,335 539,336 540,336 541,337 542,337 543,337 544,338 545,338 546,338 547,339 548,339 549,339 550,340 551,340 552,340 553,341 554,341 555,341 556,342 557,342 558,342 559,342 560,343 561,343 562,343 563,343 564,344 565,344 566,344 567,344 568,344 569,345 570,345 571,345 572,345 573,345 574,345 575,345 576,346 577,346 578,346 579,346 580,346 581,346 582,346 583,346 584,346 585,346 586,346 587,347 588,346 589,346 590,345 591,344 592,343 593,343 594,342 595,341 596,341 597,342 597,343 597,344 597,345 597,346 598,346 599,346 600,346 601,346 602,345 603,345 604,345 605,345 606,345 607,345 608,345 609,344 610,345 611,344 612,344 613,344 614,344 615,344 616,343 617,343 618,343 619,343 620,343 621,343 622,343 623,342 624,342 625,342 626,342 627,342 628,341 629,341 630,341 631,341 632,340 633,340 634,340 635,340 636,340 637,339 638,339 639,339 640,338 641,338 642,338 643,337 644,337 645,337 646,336 647,336 648,335 649,335 650,334 651,334 652,334 653,333 654,332 655,331 656,330 657,329 658,328 658,327 659,326 660,326 661,326 662,326 663,327 664,327 663,326 662,325 661,324 660,323 659,322 660,321 661,321 662,322 663,322 664,321 664,320 665,319 665,318 666,317 666,316 666,315 666,314 666,313 666,312 666,311 665,310 665,309 665,308 664,307 664,306 663,305 663,304 662,303 661,303 660,303 659,303 658,303 657,303 656,303 655,303 654,303 653,303 652,303 651,303 650,303 649,303 648,303 647,303 646,303 645,303 644,303 643,303 642,303 641,303 640,303 639,303 638,303 637,303 636,303 635,303 634,303 633,303 632,303 631,303 630,303 629,303 628,303 627,303 626,303 625,303 624,303 623,303 622,303 621,303 620,303 619,303 618,303 617,303 616,303 615,303 614,303 613,303 612,303 611,303 610,303 609,303 608,303 607,303 606,303 605,303 604,303 603,303 602,303 601,303 600,303 599,303 598,303 597,303 596,303 595,303 594,303 593,303 592,303 591,303 590,303 589,303 588,303 587,303 586,303 585,303 584,303 583,303 582,303 581,303 580,303 579,303 578,303 577,303 576,303 575,303 574,303 573,303 572,303 571,303 570,303 569,303 568,303 567,303 566,303 565,303 564,303 563,303 562,303 561,303 560,303 559,303 558,303 557,303 556,303 555,303 554,303 553,303 552,303 551,303 550,303 549,303 548,303 547,303 546,303 545,303 544,303 543,303 542,303 541,303 540,303 539,303 538,303 537,303 536,303 535,303 534,303 533,303 532,303 531,303 530,303 529,303 528,303 527,303 526,303 525,303 524,303 523,303 522,303 521,303 520,303 519,303">
      <metadata tailDirection="" confidence="0.00" linkedToCharacter="" id="CYB_BUBBLEGOM_T01_028_balloon_20" tailTip=""></metadata>
    </polygon>
    <polygon points="498,279 499,278 500,278 501,278 502,279 503,279 504,280 505,280 506,281 507,281 508,281 509,282 510,282 511,283 511,284 510,285 510,286 510,287 509,288 509,289 509,290 508,291 508,292 508,293 507,294 507,295 507,296 506,297 506,298 506,299 505,300 505,301 505,302 505,303 505,304 505,305 505,306 505,307 504,308 503,309 502,309 501,309 500,309 499,309 498,309 497,308 496,308 495,307 494,306 494,305 494,304 494,303 495,302 495,301 494,302 493,303 492,304 491,304 490,305 489,306 488,306 488,307 489,308 490,309 490,310 491,310 492,310 492,309 492,308 493,307 494,307 495,308 496,309 497,310 498,310 499,309 500,309 501,310 502,310 503,309 504,308 505,309 506,310 505,311 505,312 506,312 507,312 508,313 507,314 506,315 505,316 506,317 507,318 507,319 507,320 506,321 505,321 505,322 505,323 504,324 503,325 503,326 502,327 501,326 500,325 499,326 498,325 498,324 497,323 496,323 495,324 494,324 493,324 492,323 492,322 492,321 492,320 491,320 490,320 489,320 488,320 487,319 487,318 488,317 487,317 486,317 485,317 484,316 484,315 483,314 484,315 484,316 483,317 482,318 481,317 480,317 479,317 478,317 477,316 477,315 477,316 476,317 475,318 474,318 473,318 472,317 471,317 470,317 469,316 469,315 468,314 467,313 468,314 468,315 468,316 468,317 467,318 466,318 465,318 464,317 463,317 462,317 461,316 461,315 461,314 461,313 460,312 460,311 461,310 460,309 460,308 460,307 460,306 460,305 460,304 460,303 460,302 459,302 458,303 457,303 456,303 456,304 457,305 457,306 457,307 458,308 458,309 458,310 459,311 459,312 459,313 460,314 460,315 461,316 460,317 459,318 458,318 457,318 456,318 455,318 454,318 453,318 452,317 452,316 451,315 451,314 451,315 451,316 451,317 451,318 450,319 449,319 448,319 447,319 446,319 445,319 444,319 443,318 443,317 443,316 443,315 443,314 443,313 443,312 443,311 443,310 443,309 442,309 441,309 440,310 440,311 440,312 440,313 440,314 439,315 439,316 438,317 437,318 436,319 435,319 434,320 433,320 432,321 431,321 430,321 429,321 428,321 427,321 426,321 425,320 424,320 423,319 422,318 421,317 420,316 420,315 419,314 419,313 419,312 418,311 418,310 418,309 418,308 418,307 418,306 418,305 418,304 419,303 419,302 419,301 419,300 420,299 420,298 420,297 421,296 421,295 422,294 422,293 423,292 424,291 424,290 425,289 426,288 427,287 428,287 429,286 430,285 431,284 432,284 433,283 434,283 435,283 436,282 437,282 438,282 439,283 440,283 441,284 442,285 443,286 443,287 444,288 444,289 445,290 445,291 445,292 445,293 445,292 445,291 446,290 446,289 446,288 447,287 448,286 449,285 450,284 451,284 452,283 453,283 454,282 455,282 456,282 457,282 458,281 459,281 460,281 461,281 462,282 463,282 464,283 465,284 466,285 467,285 468,284 469,284 470,283 471,283 472,283 473,283 474,283 475,283 476,283 477,284 478,284 479,285 480,285 481,286 482,286 483,286 484,286 485,285 486,285 487,285 488,286 489,286 490,286 491,287 492,287 493,288 494,289 494,290 495,291 496,292 496,293 496,294 496,295 496,296 496,295 496,294 496,293 496,292 496,291 496,290 496,289 496,288 496,287 497,286 497,285 497,284 497,283 497,282 497,281 497,280 498,279">
      <metadata tailDirection="" confidence="0.00" linkedToCharacter="" id="CYB_BUBBLEGOM_T01_028_balloon_21" tailTip=""></metadata>
    </polygon>
    <polygon points="195,216 194,217 193,218 192,218 191,219 190,220 189,221 188,222 187,223 186,224 185,225 184,226 183,227 182,228 181,229 180,230 179,231 178,232 177,233 176,234 175,235 174,236 173,237 172,238 171,239 171,240 172,241 173,241 174,242 175,243 176,244 177,245 178,246 179,247 180,248 181,249 182,250 183,251 184,252 185,253 186,253 187,254 188,255 189,256 190,257 191,258 192,259 193,258 193,257 194,256 195,256 196,256 197,256 198,256 199,256 200,256 201,256 202,256 203,256 204,256 205,256 206,256 207,256 208,256 209,256 210,256 211,256 212,256 213,256 214,256 215,256 216,256 217,256 218,256 219,256 220,256 221,256 222,256 223,256 224,256 225,256 226,256 227,256 228,256 229,256 230,256 231,256 232,256 233,256 234,256 235,256 236,256 237,256 238,256 239,256 240,256 241,256 242,256 243,256 244,256 245,256 246,256 247,256 248,256 249,256 250,256 251,256 252,256 253,256 254,256 255,256 256,256 257,256 258,256 259,256 260,256 261,256 262,256 263,256 264,256 265,256 266,256 267,256 268,256 269,256 270,256 271,256 272,256 273,256 274,256 275,256 276,255 277,255 278,255 277,255 276,254 275,253 274,252 274,251 274,250 275,249 276,248 277,247 277,246 276,245 275,244 274,243 273,242 273,241 273,240 274,239 275,238 276,237 275,236 274,235 274,234 273,233 273,232 273,231 274,230 275,229 276,228 276,227 275,226 275,225 274,224 274,223 274,222 275,221 275,220 276,219 275,219 274,219 273,219 272,219 271,219 270,219 269,219 268,219 267,219 266,219 265,219 264,219 263,219 262,219 261,219 260,219 259,219 258,219 257,219 256,219 255,219 254,219 253,219 252,219 251,218 250,218 249,219 248,219 247,219 246,219 245,219 244,219 243,219 242,219 241,219 240,219 239,219 238,219 237,219 236,219 235,219 234,219 233,219 232,219 231,219 230,219 229,219 228,219 227,219 226,219 225,219 224,219 223,219 222,219 221,219 220,219 219,219 218,219 217,219 216,219 215,219 214,219 213,219 212,219 211,219 210,219 209,219 208,219 207,218 206,218 205,218 204,218 203,218 202,219 201,219 200,219 199,219 198,219 197,218 196,218 195,217 195,216">
      <metadata tailDirection="" confidence="0.00" linkedToCharacter="" id="CYB_BUBBLEGOM_T01_028_balloon_22" tailTip=""></metadata>
    </polygon>
  </svg>
</svg>
