<?xml version="1.0" encoding="UTF-8" standalone="no"?>
<svg width="1280" xmlns="http://www.w3.org/2000/svg" version="1.0" height="1844">
  <title>FOX_CHILLINTALES_T17_016</title>
  <svg contentScriptType="text/ecmascript" zoomAndPan="magnify" contentStyleType="text/css" class="Page" preserveAspectRatio="xMidYMid meet" version="1.0">
    <image xmlns:xlink="http://www.w3.org/1999/xlink" x="0" y="0" width="1280" height="1844" xlink:href="/media/Donnees/DATA/DATASET/eBDtheque_100/FOX_CHILLINTALES_T17_016.jpg" xlink:type="simple" xlink:actuate="onLoad" preserveAspectRatio="xMidYMid meet" xlink:show="embed"/>
  </svg>
  <style type="text/css" xml:space="preserve">
        * { stroke-linejoin: round; }
        .Unclassified   { fill: orange; stroke: none;   opacity: 1.0; visibility: hidden; }
        .Noise          { fill: pink;   stroke: none;   opacity: 0.2; visibility: hidden; }
        .Panel          { fill: none;   stroke: red;    stroke-width:3; opacity: 0.5; visibility: visible; image-rendering: optimizeSpeed; }
        .Line           { fill: green;  stroke: none;   opacity: 0.5; visibility: visible; image-rendering: optimizeSpeed; }
        .TextArea       { fill: grey;   stroke: none;   opacity: 0.2; visibility: visible; image-rendering: optimizeSpeed; }
        .Balloon        { fill: cyan;   stroke: none;   opacity: 0.5; visibility: visible; image-rendering: optimizeSpeed; }
        .Letter         { fill: blue;   stroke: none;   opacity: 0.2; visibility: hidden; }
        .Object, .Character, .Face  { fill: yellow; stroke: none;   opacity: 0.5; visibility: visible; image-rendering: optimizeSpeed; }
        .Page           { fill: white;  stroke: none;    opacity: 0.5; visibility: visible; }
        .linkSBSC { fill: blue; stroke: none; opacity: 1.0; visibility: visible; }
        polygon:hover { opacity:0.2; }
</style>
  <svg xmlns="http://www.w3.org/2000/svg" contentScriptType="text/ecmascript" zoomAndPan="magnify" contentStyleType="text/css" class="Balloon" preserveAspectRatio="xMidYMid meet" version="1.0">
    <polygon points="438,1204 437,1205 437,1206 436,1207 436,1208 435,1209 434,1210 434,1211 433,1212 433,1213 433,1214 433,1215 432,1216 432,1217 432,1218 432,1219 431,1220 431,1221 431,1222 431,1223 431,1224 431,1225 430,1226 430,1227 430,1228 430,1229 430,1230 430,1231 431,1232 431,1233 431,1234 431,1235 431,1236 431,1237 431,1238 431,1239 432,1240 432,1241 432,1242 433,1243 433,1244 433,1245 433,1246 434,1247 434,1248 435,1249 435,1250 436,1251 436,1252 437,1253 438,1254 438,1255 439,1256 440,1257 441,1258 442,1259 442,1260 443,1260 444,1261 444,1262 445,1263 446,1264 447,1265 448,1265 449,1266 450,1266 451,1267 452,1267 453,1268 454,1268 455,1268 456,1269 457,1269 458,1269 459,1269 460,1269 461,1269 462,1269 463,1270 464,1270 465,1270 466,1270 467,1270 468,1270 469,1270 470,1270 471,1270 472,1270 473,1271 474,1271 475,1271 476,1272 477,1273 477,1274 477,1275 476,1276 476,1277 475,1278 475,1279 475,1280 475,1281 475,1282 475,1283 475,1284 476,1285 476,1286 476,1287 477,1288 477,1289 478,1290 479,1291 480,1292 481,1293 482,1294 483,1295 484,1295 485,1295 486,1296 487,1296 488,1297 489,1297 490,1297 491,1297 492,1298 493,1298 494,1298 495,1298 496,1298 497,1299 498,1299 499,1299 500,1299 501,1299 502,1300 503,1300 504,1300 505,1300 506,1300 507,1301 508,1301 509,1301 510,1301 511,1301 512,1301 513,1301 514,1301 515,1302 516,1303 517,1304 517,1305 517,1306 517,1307 517,1308 517,1309 517,1310 517,1311 517,1312 518,1313 518,1314 518,1315 518,1316 518,1317 518,1318 518,1319 519,1320 519,1321 519,1322 519,1323 520,1324 520,1325 520,1326 520,1327 520,1328 520,1329 521,1330 521,1331 521,1332 521,1333 521,1334 521,1335 521,1336 521,1337 521,1338 521,1339 521,1340 522,1341 522,1342 522,1343 522,1344 522,1345 522,1346 522,1347 522,1348 522,1349 522,1350 523,1351 523,1352 523,1353 523,1354 523,1355 523,1356 523,1357 523,1358 524,1359 524,1360 524,1361 524,1362 524,1363 524,1364 524,1363 524,1362 524,1361 524,1360 525,1359 525,1358 525,1357 525,1356 525,1355 525,1354 525,1353 525,1352 526,1351 526,1350 526,1349 526,1348 526,1347 526,1346 526,1345 526,1344 526,1343 526,1342 527,1341 527,1340 527,1339 527,1338 527,1337 527,1336 527,1335 528,1334 528,1333 528,1332 528,1331 528,1330 528,1329 528,1328 528,1327 528,1326 528,1325 528,1324 528,1323 528,1322 528,1321 528,1320 529,1319 529,1318 529,1317 529,1316 529,1315 529,1314 529,1313 529,1312 530,1311 530,1310 530,1309 530,1308 530,1307 531,1306 531,1305 531,1304 532,1303 533,1303 534,1302 535,1302 536,1302 537,1302 538,1303 539,1303 540,1303 541,1303 542,1303 543,1303 544,1303 545,1303 546,1303 547,1303 548,1303 549,1302 550,1302 551,1302 552,1302 553,1301 554,1301 555,1301 556,1301 557,1300 558,1300 559,1300 560,1300 561,1299 562,1299 563,1299 564,1299 565,1298 566,1298 567,1298 568,1297 569,1297 570,1297 571,1296 572,1296 573,1295 574,1295 575,1295 576,1294 577,1294 578,1293 578,1292 579,1291 580,1291 580,1290 581,1289 582,1289 582,1288 583,1287 583,1286 583,1285 583,1284 584,1283 584,1282 584,1281 584,1280 584,1279 584,1278 584,1277 584,1276 584,1275 583,1274 583,1273 582,1272 581,1271 580,1270 579,1269 579,1268 579,1267 580,1266 581,1266 582,1266 583,1266 584,1267 585,1268 586,1268 587,1269 588,1269 589,1269 590,1269 591,1270 592,1270 593,1270 594,1270 595,1270 596,1270 597,1270 598,1270 599,1270 600,1269 601,1269 602,1269 603,1269 604,1269 605,1269 606,1269 607,1269 608,1269 609,1269 610,1268 611,1268 612,1268 613,1267 614,1267 615,1267 616,1267 617,1266 618,1266 619,1266 620,1266 621,1265 622,1265 623,1265 624,1265 625,1264 626,1263 627,1263 628,1262 629,1262 630,1261 631,1261 632,1260 633,1259 634,1258 635,1257 635,1256 636,1255 637,1254 637,1253 637,1252 637,1251 637,1250 637,1249 637,1248 637,1247 637,1246 637,1245 637,1244 637,1243 637,1242 637,1241 637,1240 637,1239 637,1238 637,1237 637,1236 637,1235 637,1234 637,1233 637,1232 637,1231 637,1230 637,1229 637,1228 637,1227 637,1226 637,1225 637,1224 637,1223 637,1222 637,1221 637,1220 637,1219 637,1218 637,1217 637,1216 637,1215 637,1214 637,1213 637,1212 637,1211 637,1210 637,1209 637,1208 637,1207 637,1206 637,1205 636,1204 635,1204 634,1204 633,1204 632,1205 631,1204 630,1204 629,1204 628,1204 627,1204 626,1205 625,1205 624,1205 623,1206 622,1205 621,1204 620,1205 619,1205 618,1205 617,1205 616,1205 615,1206 614,1206 613,1206 612,1205 611,1204 610,1204 609,1204 608,1205 607,1205 606,1205 605,1206 604,1206 603,1206 602,1206 601,1206 600,1206 599,1205 598,1205 597,1205 596,1204 595,1205 594,1206 593,1205 593,1204 592,1204 591,1204 590,1204 589,1204 588,1204 587,1204 586,1204 585,1204 584,1204 583,1205 582,1205 581,1205 580,1205 579,1204 578,1204 577,1204 576,1204 575,1204 574,1204 573,1205 572,1206 571,1206 570,1205 569,1205 568,1204 567,1205 566,1205 565,1204 564,1204 563,1204 562,1204 561,1204 560,1204 559,1204 558,1204 557,1204 556,1204 555,1204 554,1204 553,1204 552,1204 551,1204 550,1205 549,1204 548,1204 547,1204 546,1204 545,1204 544,1204 543,1204 542,1204 541,1204 540,1204 539,1204 538,1204 537,1204 536,1204 535,1204 534,1205 533,1205 532,1204 531,1204 530,1204 529,1204 528,1204 527,1204 526,1204 525,1204 524,1204 523,1204 522,1204 521,1204 520,1204 519,1205 518,1204 517,1204 516,1204 515,1204 514,1205 513,1205 512,1205 511,1205 510,1205 509,1205 508,1205 507,1205 506,1205 505,1204 504,1204 503,1204 502,1204 501,1204 500,1204 499,1204 498,1204 497,1204 496,1204 495,1204 494,1204 493,1204 492,1204 491,1205 490,1205 489,1204 488,1204 487,1205 486,1205 485,1204 484,1204 483,1205 482,1204 481,1204 480,1205 479,1204 478,1204 477,1204 476,1204 475,1204 474,1204 473,1204 472,1204 471,1204 470,1204 469,1204 468,1204 467,1204 466,1204 465,1204 465,1205 464,1206 463,1205 463,1204 462,1204 461,1204 460,1204 459,1204 458,1204 457,1204 456,1204 455,1204 454,1204 453,1204 452,1204 451,1204 450,1204 449,1204 448,1204 447,1204 446,1204 445,1204 444,1204 443,1204 442,1204 441,1204 440,1204 439,1204 438,1204">
      <metadata tailDirection="" confidence="0.00" linkedToCharacter="" id="FOX_CHILLINTALES_T17_016_balloon_0" tailTip=""></metadata>
    </polygon>
    <polygon points="68,1203 67,1204 66,1204 65,1204 64,1204 63,1204 62,1204 61,1204 60,1204 59,1204 58,1204 57,1204 56,1204 55,1204 54,1204 53,1205 52,1205 51,1205 50,1205 49,1205 48,1205 47,1205 46,1204 45,1204 44,1204 43,1204 42,1204 41,1204 40,1204 40,1205 40,1206 40,1207 40,1208 41,1209 40,1210 40,1211 40,1212 40,1213 40,1214 40,1215 40,1216 40,1217 40,1218 40,1219 40,1220 40,1221 40,1222 40,1223 40,1224 40,1225 40,1226 40,1227 40,1228 40,1229 40,1230 40,1231 40,1232 40,1233 40,1234 40,1235 40,1236 40,1237 40,1238 40,1239 40,1240 40,1241 40,1242 40,1243 40,1244 40,1245 40,1246 40,1247 40,1248 40,1249 40,1250 40,1251 40,1252 40,1253 40,1254 40,1255 40,1256 40,1257 40,1258 40,1259 40,1260 40,1261 40,1262 40,1263 40,1264 40,1265 40,1266 40,1267 40,1268 40,1269 40,1270 40,1271 40,1272 40,1273 40,1274 40,1275 40,1276 40,1277 40,1278 40,1279 40,1280 40,1281 40,1282 40,1283 40,1284 40,1285 40,1286 40,1287 40,1288 40,1289 40,1290 40,1291 40,1292 40,1293 40,1294 40,1295 40,1296 40,1297 41,1298 42,1299 43,1300 44,1301 44,1302 45,1303 46,1304 47,1305 48,1306 49,1307 50,1308 51,1309 52,1310 53,1311 54,1311 55,1312 56,1313 57,1313 58,1314 59,1314 60,1315 61,1316 62,1317 63,1318 64,1318 65,1318 66,1319 67,1319 68,1320 69,1320 70,1321 71,1321 72,1322 73,1322 74,1323 75,1323 76,1323 77,1323 78,1324 79,1324 80,1324 81,1325 82,1325 83,1326 84,1326 85,1326 86,1327 87,1327 88,1327 89,1327 90,1327 91,1328 92,1328 93,1328 94,1328 95,1329 96,1329 97,1329 98,1329 99,1329 100,1330 101,1330 102,1330 103,1330 104,1330 105,1330 106,1330 107,1331 108,1331 109,1331 110,1331 111,1331 112,1331 113,1332 114,1332 115,1332 116,1332 117,1333 118,1333 119,1333 120,1333 121,1333 122,1333 123,1333 124,1334 125,1334 126,1334 127,1334 128,1334 129,1334 130,1334 131,1335 132,1335 133,1335 134,1335 135,1335 136,1336 137,1335 138,1335 139,1335 140,1336 141,1336 142,1336 143,1336 144,1336 145,1336 146,1336 147,1336 148,1337 149,1337 150,1337 151,1337 152,1337 153,1337 154,1337 155,1337 156,1337 157,1337 158,1337 159,1337 160,1337 161,1337 162,1337 163,1337 164,1337 165,1337 166,1337 167,1337 168,1337 169,1337 170,1337 171,1337 172,1337 173,1337 174,1337 175,1337 176,1337 177,1337 178,1337 179,1336 180,1337 181,1337 182,1336 183,1336 184,1336 185,1336 186,1336 187,1336 188,1336 189,1336 190,1336 191,1336 192,1335 193,1335 194,1335 195,1335 196,1334 197,1334 198,1334 199,1334 200,1333 201,1333 202,1333 203,1333 204,1333 205,1333 206,1332 207,1332 208,1332 209,1332 210,1332 211,1331 212,1331 213,1330 214,1330 215,1330 216,1330 217,1329 218,1330 219,1331 219,1332 220,1333 220,1334 220,1335 220,1336 220,1337 220,1338 220,1339 220,1340 220,1341 220,1342 220,1343 220,1344 220,1345 220,1346 220,1347 220,1348 220,1349 220,1350 220,1351 220,1352 220,1353 220,1354 220,1355 220,1356 220,1357 220,1358 220,1359 219,1360 219,1361 219,1362 220,1363 220,1364 220,1365 220,1366 219,1367 218,1367 217,1368 218,1367 219,1367 220,1368 220,1369 220,1370 220,1371 220,1372 219,1373 218,1372 218,1371 218,1372 219,1373 220,1374 220,1375 219,1376 218,1377 217,1376 217,1375 217,1376 217,1377 216,1378 217,1379 217,1380 216,1381 215,1380 215,1381 216,1381 217,1382 218,1383 218,1384 218,1383 218,1382 219,1381 220,1381 221,1381 222,1381 223,1381 224,1381 224,1380 224,1379 224,1380 223,1381 222,1381 221,1380 221,1379 221,1378 221,1377 222,1376 222,1375 222,1374 222,1373 222,1372 222,1371 223,1370 223,1369 223,1368 223,1367 223,1366 224,1365 224,1364 224,1363 224,1362 224,1361 224,1360 225,1359 225,1358 225,1357 225,1356 225,1355 226,1354 226,1353 226,1352 226,1351 226,1350 226,1349 226,1348 226,1347 227,1346 227,1345 227,1344 227,1343 227,1342 227,1341 227,1340 227,1339 227,1338 228,1337 228,1336 228,1335 228,1334 228,1333 228,1332 228,1331 228,1330 229,1329 229,1328 229,1327 229,1326 230,1325 231,1324 232,1323 233,1322 234,1322 235,1321 236,1320 237,1319 238,1318 239,1318 240,1317 241,1317 241,1316 242,1315 243,1315 244,1314 245,1314 246,1313 247,1312 248,1311 249,1310 250,1309 251,1308 251,1307 252,1306 253,1305 254,1304 255,1303 256,1302 256,1301 257,1300 257,1299 258,1298 258,1297 259,1296 259,1295 260,1294 260,1293 261,1292 261,1291 261,1290 262,1289 262,1288 262,1287 263,1286 263,1285 264,1284 264,1283 264,1282 264,1281 265,1280 265,1279 265,1278 265,1277 265,1276 265,1275 265,1274 265,1273 265,1272 265,1271 264,1270 264,1269 263,1268 262,1267 262,1266 262,1265 262,1264 263,1263 264,1263 265,1263 266,1263 267,1263 268,1264 269,1265 270,1266 271,1266 272,1267 273,1267 274,1268 275,1268 276,1268 277,1269 278,1269 279,1269 280,1270 281,1270 282,1271 283,1271 284,1271 285,1272 286,1272 287,1272 288,1272 289,1273 290,1273 291,1273 292,1273 293,1273 294,1273 295,1274 296,1273 297,1273 298,1274 299,1274 300,1274 301,1274 302,1274 303,1274 304,1274 305,1274 306,1274 307,1274 308,1274 309,1274 310,1274 311,1274 312,1274 313,1274 314,1274 315,1274 316,1274 317,1274 318,1274 319,1274 320,1274 321,1274 322,1274 323,1274 324,1274 325,1274 326,1274 327,1274 328,1274 329,1274 330,1274 331,1274 332,1274 333,1274 334,1274 335,1274 336,1274 337,1274 338,1274 339,1274 340,1274 341,1273 342,1273 343,1273 344,1273 345,1273 346,1273 347,1273 348,1273 349,1273 350,1273 351,1273 352,1273 353,1273 354,1272 355,1272 356,1272 357,1271 358,1271 359,1271 360,1271 361,1271 362,1270 363,1270 364,1270 365,1270 366,1269 367,1269 368,1269 369,1269 370,1268 371,1268 372,1268 373,1267 374,1266 375,1266 376,1266 377,1265 378,1264 379,1264 380,1263 381,1262 382,1261 383,1261 384,1260 385,1259 386,1259 387,1258 388,1257 389,1256 390,1256 391,1255 391,1254 392,1253 393,1252 393,1251 394,1250 394,1249 394,1248 395,1247 395,1246 396,1245 396,1244 396,1243 397,1242 397,1241 397,1240 398,1239 398,1238 398,1237 398,1236 398,1235 398,1234 399,1233 399,1232 399,1231 399,1230 399,1229 399,1228 399,1227 399,1226 398,1225 398,1224 398,1223 398,1222 398,1221 398,1220 397,1219 397,1218 397,1217 396,1216 396,1215 395,1214 395,1213 395,1212 394,1211 394,1210 393,1209 392,1208 391,1207 390,1206 389,1205 388,1204 387,1204 386,1204 385,1204 384,1204 383,1204 382,1204 381,1204 380,1204 379,1204 378,1204 377,1204 376,1204 375,1204 374,1204 373,1204 372,1204 371,1204 370,1204 369,1204 368,1204 367,1204 366,1204 365,1204 364,1204 363,1204 362,1204 361,1204 360,1204 359,1204 358,1204 357,1204 356,1204 355,1204 354,1204 353,1204 352,1204 351,1204 350,1204 349,1204 348,1204 347,1204 346,1204 345,1204 344,1204 343,1204 342,1204 341,1204 340,1204 339,1204 338,1204 337,1204 336,1204 335,1204 334,1204 333,1204 332,1204 331,1204 330,1204 329,1204 328,1204 327,1204 326,1204 325,1204 324,1204 323,1204 322,1204 321,1204 320,1204 319,1204 318,1204 317,1204 316,1204 315,1204 314,1204 313,1204 312,1204 311,1204 310,1204 309,1204 308,1204 307,1204 306,1204 305,1204 304,1204 303,1204 302,1204 301,1204 300,1204 299,1204 298,1204 297,1204 296,1204 295,1204 294,1204 293,1204 292,1204 291,1204 290,1204 289,1204 288,1204 287,1204 286,1204 285,1204 284,1204 283,1204 282,1204 281,1204 280,1204 279,1204 278,1204 277,1204 276,1204 275,1204 274,1204 273,1204 272,1204 271,1204 270,1204 269,1204 268,1204 267,1204 266,1204 265,1204 264,1204 263,1204 262,1204 261,1204 260,1204 259,1204 258,1204 257,1204 256,1204 255,1204 254,1204 253,1204 252,1204 251,1204 250,1204 249,1204 248,1204 247,1204 246,1204 245,1204 244,1204 243,1204 242,1204 241,1204 240,1204 239,1204 238,1204 237,1204 236,1204 235,1204 234,1204 233,1204 232,1204 231,1204 230,1204 229,1204 228,1204 227,1204 226,1204 225,1204 224,1204 223,1204 222,1204 221,1204 220,1204 219,1204 218,1204 217,1204 216,1204 215,1204 214,1204 213,1204 212,1204 211,1204 210,1204 209,1204 208,1204 207,1204 206,1204 205,1204 204,1204 203,1204 202,1204 201,1204 200,1204 199,1204 198,1204 197,1204 196,1204 195,1204 194,1204 193,1204 192,1204 191,1204 190,1204 189,1204 188,1204 187,1204 186,1204 185,1204 184,1204 183,1204 182,1204 181,1204 180,1204 179,1204 178,1204 177,1204 176,1204 175,1204 174,1204 173,1204 172,1204 171,1204 170,1204 169,1204 168,1204 167,1204 166,1204 165,1204 164,1204 163,1204 162,1204 161,1204 160,1204 159,1204 158,1204 157,1204 156,1204 155,1204 154,1204 153,1204 152,1204 151,1204 150,1204 149,1204 148,1204 147,1204 146,1204 145,1204 144,1204 143,1204 142,1204 141,1204 140,1204 139,1204 138,1204 137,1204 136,1204 135,1204 134,1204 133,1204 132,1204 131,1204 130,1204 129,1204 128,1204 127,1204 126,1204 125,1204 124,1204 123,1204 122,1204 121,1204 120,1204 119,1204 118,1204 117,1204 116,1204 115,1204 114,1204 113,1204 112,1204 111,1204 110,1204 109,1204 108,1204 107,1204 106,1204 105,1204 104,1204 103,1204 102,1204 101,1204 100,1204 99,1204 98,1204 97,1204 96,1204 95,1204 94,1204 93,1204 92,1204 91,1204 90,1204 89,1204 88,1205 87,1205 86,1204 85,1204 84,1204 83,1204 82,1204 81,1204 80,1204 79,1204 78,1204 77,1203 76,1204 75,1204 74,1204 73,1204 72,1204 71,1204 70,1204 69,1203 68,1203">
      <metadata tailDirection="" confidence="0.00" linkedToCharacter="" id="FOX_CHILLINTALES_T17_016_balloon_1" tailTip=""></metadata>
    </polygon>
    <polygon points="921,1710 920,1711 919,1712 919,1713 918,1714 918,1715 919,1714 920,1715 920,1716 919,1717 919,1718 919,1719 918,1720 918,1721 917,1722 916,1722 916,1723 915,1724 914,1723 914,1722 913,1721 913,1720 913,1719 914,1718 915,1717 915,1716 915,1715 916,1714 916,1713 916,1712 916,1711 915,1711 914,1711 913,1711 912,1711 911,1711 910,1712 910,1713 909,1714 909,1715 910,1716 910,1717 909,1718 909,1719 909,1720 909,1721 909,1722 909,1723 908,1724 908,1725 908,1726 907,1727 906,1728 905,1729 905,1730 905,1731 904,1732 903,1733 903,1734 902,1735 901,1735 900,1734 900,1733 901,1732 901,1731 902,1730 902,1729 903,1728 903,1727 904,1726 904,1725 904,1724 905,1723 905,1722 905,1721 905,1720 904,1720 903,1720 902,1720 901,1720 900,1721 899,1720 899,1719 898,1719 897,1720 897,1721 896,1722 896,1723 897,1724 896,1725 896,1726 895,1727 895,1728 895,1729 895,1730 894,1731 893,1730 893,1729 893,1728 893,1727 893,1726 893,1725 893,1724 893,1723 893,1722 892,1722 891,1722 890,1723 889,1723 888,1723 887,1724 886,1723 885,1723 885,1724 885,1725 884,1726 884,1727 883,1728 882,1729 881,1729 880,1730 880,1731 880,1732 879,1733 878,1734 878,1735 878,1736 877,1737 877,1738 877,1739 877,1740 877,1741 876,1742 876,1743 876,1744 876,1745 876,1746 876,1747 876,1748 876,1749 876,1750 876,1751 876,1752 876,1753 876,1754 876,1755 877,1756 877,1757 877,1758 877,1759 876,1760 876,1761 876,1762 876,1763 876,1764 876,1765 876,1766 876,1767 875,1768 875,1769 874,1770 874,1771 875,1772 875,1773 876,1773 877,1774 878,1775 879,1775 879,1774 880,1773 881,1773 882,1774 882,1775 883,1775 884,1776 884,1777 885,1777 884,1776 883,1775 883,1774 884,1773 885,1773 886,1774 886,1775 887,1776 888,1777 889,1777 888,1776 887,1775 886,1774 886,1773 887,1772 888,1773 889,1773 890,1774 890,1775 890,1774 890,1773 891,1772 891,1771 892,1770 893,1769 894,1770 895,1771 894,1772 893,1772 893,1773 892,1774 893,1774 893,1773 894,1772 895,1771 896,1771 897,1770 898,1770 899,1771 899,1772 898,1773 897,1773 897,1774 896,1775 897,1774 898,1774 898,1773 899,1772 900,1772 901,1773 901,1774 900,1775 901,1774 902,1773 903,1772 904,1772 905,1771 906,1770 906,1769 907,1768 908,1767 908,1766 909,1765 910,1764 911,1763 912,1762 913,1762 914,1761 915,1760 916,1760 917,1759 918,1758 919,1758 920,1758 920,1757 921,1756 922,1755 923,1754 924,1753 925,1752 926,1751 927,1750 928,1749 929,1748 930,1749 930,1750 929,1751 928,1752 927,1753 926,1754 925,1755 924,1756 923,1757 923,1758 923,1759 922,1760 922,1761 922,1762 921,1763 920,1762 919,1762 920,1763 920,1764 919,1765 918,1765 917,1764 916,1764 915,1764 914,1765 914,1766 915,1767 916,1768 915,1769 914,1769 913,1768 912,1767 912,1768 913,1769 913,1770 912,1771 911,1770 910,1770 909,1771 909,1772 909,1771 910,1770 911,1770 912,1771 912,1772 911,1773 911,1774 912,1775 911,1774 911,1773 912,1772 913,1772 913,1771 914,1770 915,1770 916,1770 917,1771 917,1772 916,1773 915,1774 916,1773 917,1773 918,1772 918,1771 919,1770 920,1771 920,1772 920,1773 919,1774 919,1775 920,1774 921,1773 922,1773 923,1774 923,1775 924,1774 925,1773 926,1772 927,1771 928,1771 928,1770 929,1769 930,1769 930,1768 931,1767 932,1766 933,1765 933,1764 933,1763 933,1762 932,1761 933,1760 934,1760 935,1761 935,1760 935,1759 936,1758 937,1757 938,1756 939,1755 940,1754 941,1755 941,1756 941,1757 940,1758 940,1759 941,1760 940,1761 939,1761 939,1762 939,1763 938,1764 937,1764 937,1765 936,1766 936,1767 935,1768 934,1769 933,1770 932,1771 931,1772 930,1773 931,1773 932,1772 933,1772 934,1773 934,1772 933,1771 934,1770 935,1770 936,1771 936,1772 936,1771 937,1770 938,1770 939,1769 940,1770 940,1771 939,1772 938,1772 938,1773 937,1774 937,1775 938,1774 939,1774 939,1773 939,1772 940,1771 941,1771 942,1772 942,1773 942,1772 942,1771 943,1770 944,1771 945,1772 946,1772 947,1773 948,1772 949,1772 950,1772 951,1773 951,1772 952,1771 953,1772 954,1772 955,1773 955,1774 956,1774 957,1774 958,1773 959,1773 960,1774 961,1774 962,1773 962,1772 961,1771 960,1770 960,1769 961,1768 962,1769 963,1769 964,1770 965,1771 966,1772 965,1773 964,1774 964,1775 963,1776 962,1776 963,1776 964,1775 965,1774 966,1773 967,1773 968,1774 968,1773 967,1772 966,1771 966,1770 967,1769 968,1770 969,1771 970,1771 971,1772 971,1773 971,1774 970,1775 971,1776 971,1777 972,1777 972,1776 973,1775 974,1775 974,1774 975,1773 975,1772 974,1771 974,1770 975,1769 976,1769 977,1770 977,1771 977,1772 978,1772 979,1773 979,1774 978,1775 977,1775 976,1776 976,1777 977,1777 978,1776 979,1776 979,1775 980,1774 981,1775 982,1775 983,1776 984,1776 985,1776 986,1776 986,1775 987,1774 988,1774 989,1774 990,1775 991,1776 991,1775 992,1774 993,1774 994,1774 993,1773 994,1772 995,1772 996,1773 996,1774 996,1775 995,1776 996,1776 996,1775 997,1774 998,1773 999,1772 1000,1773 1001,1774 1002,1774 1001,1774 1000,1773 1000,1772 1001,1771 1002,1771 1003,1772 1004,1772 1005,1771 1006,1771 1007,1772 1007,1773 1006,1774 1007,1774 1008,1773 1009,1774 1010,1775 1010,1774 1009,1773 1009,1772 1010,1771 1011,1771 1012,1772 1012,1773 1013,1773 1013,1772 1014,1771 1015,1772 1016,1773 1015,1774 1014,1775 1013,1776 1012,1776 1013,1776 1014,1775 1015,1774 1016,1773 1017,1774 1017,1773 1017,1772 1016,1772 1015,1771 1015,1770 1016,1769 1017,1769 1018,1768 1019,1769 1019,1770 1019,1771 1020,1770 1021,1769 1022,1770 1022,1771 1021,1772 1021,1773 1022,1773 1022,1772 1023,1771 1024,1771 1025,1770 1026,1770 1027,1771 1026,1772 1025,1773 1026,1773 1027,1772 1028,1771 1029,1772 1029,1773 1030,1774 1030,1773 1031,1772 1032,1772 1033,1773 1033,1772 1033,1771 1034,1770 1035,1771 1036,1772 1037,1773 1037,1772 1037,1771 1038,1770 1039,1771 1040,1772 1041,1772 1042,1773 1043,1774 1044,1774 1045,1773 1046,1773 1047,1774 1047,1773 1046,1772 1046,1771 1047,1770 1048,1771 1049,1772 1050,1772 1051,1771 1052,1770 1053,1771 1053,1772 1053,1773 1052,1774 1053,1773 1054,1773 1055,1774 1055,1775 1056,1774 1055,1774 1054,1773 1054,1772 1054,1771 1053,1770 1054,1769 1054,1768 1055,1767 1056,1767 1057,1766 1058,1766 1059,1767 1058,1768 1058,1769 1059,1770 1059,1771 1058,1772 1059,1771 1060,1771 1061,1771 1062,1772 1061,1771 1060,1771 1059,1770 1058,1769 1058,1768 1059,1767 1060,1767 1061,1768 1062,1769 1061,1768 1060,1767 1061,1766 1062,1765 1063,1765 1064,1766 1064,1767 1065,1768 1065,1769 1064,1770 1064,1771 1065,1771 1066,1772 1065,1771 1065,1770 1066,1769 1067,1769 1066,1769 1065,1768 1065,1767 1066,1766 1067,1766 1068,1767 1069,1767 1070,1768 1069,1767 1069,1766 1068,1766 1067,1765 1068,1764 1069,1763 1070,1763 1071,1764 1072,1764 1073,1763 1074,1764 1075,1765 1076,1765 1077,1766 1077,1767 1076,1768 1075,1768 1075,1769 1076,1770 1077,1771 1078,1771 1079,1772 1079,1773 1079,1772 1078,1771 1077,1771 1076,1770 1077,1769 1078,1768 1079,1769 1080,1770 1081,1771 1082,1772 1083,1773 1084,1774 1085,1773 1086,1773 1087,1772 1088,1773 1088,1774 1088,1775 1089,1774 1090,1773 1091,1773 1092,1773 1093,1774 1094,1774 1095,1773 1096,1773 1096,1772 1097,1771 1098,1771 1099,1772 1099,1773 1100,1773 1100,1772 1101,1771 1102,1771 1103,1772 1104,1773 1105,1773 1106,1772 1106,1771 1105,1772 1104,1772 1103,1771 1104,1770 1104,1769 1103,1768 1103,1767 1102,1766 1103,1765 1104,1765 1105,1766 1106,1766 1107,1766 1108,1767 1107,1768 1108,1769 1108,1770 1109,1770 1110,1771 1111,1772 1112,1773 1113,1774 1113,1775 1114,1776 1115,1776 1115,1775 1114,1776 1113,1775 1113,1774 1114,1773 1115,1772 1116,1773 1117,1774 1118,1775 1119,1776 1120,1775 1121,1775 1122,1774 1122,1773 1123,1772 1124,1773 1125,1774 1124,1775 1124,1776 1125,1776 1126,1775 1127,1774 1127,1773 1128,1772 1128,1771 1129,1770 1130,1770 1131,1770 1132,1771 1132,1772 1133,1772 1133,1771 1133,1770 1132,1769 1132,1768 1132,1767 1131,1766 1130,1767 1129,1766 1129,1765 1128,1765 1127,1764 1127,1763 1126,1762 1126,1761 1127,1760 1126,1759 1126,1758 1125,1757 1124,1756 1123,1755 1122,1754 1121,1753 1121,1752 1121,1751 1121,1750 1120,1750 1119,1750 1118,1750 1117,1750 1117,1751 1117,1752 1116,1753 1115,1753 1114,1753 1113,1754 1112,1754 1111,1754 1110,1753 1109,1752 1108,1751 1107,1750 1107,1749 1107,1748 1106,1747 1106,1746 1106,1745 1106,1744 1106,1743 1106,1742 1105,1741 1104,1740 1103,1739 1103,1738 1103,1737 1102,1736 1103,1735 1102,1734 1102,1733 1101,1732 1101,1731 1101,1730 1100,1730 1099,1730 1098,1730 1097,1730 1096,1730 1095,1730 1094,1730 1093,1729 1092,1730 1091,1730 1090,1730 1089,1730 1088,1730 1087,1730 1086,1730 1085,1729 1084,1729 1083,1729 1082,1729 1081,1729 1080,1728 1079,1729 1078,1729 1077,1729 1076,1729 1075,1728 1074,1729 1073,1729 1072,1729 1071,1728 1070,1728 1069,1728 1068,1728 1067,1728 1066,1728 1065,1728 1064,1729 1063,1728 1062,1728 1061,1728 1061,1729 1061,1730 1061,1731 1061,1732 1061,1733 1060,1734 1060,1735 1059,1736 1058,1736 1058,1737 1057,1738 1056,1738 1056,1739 1055,1740 1054,1740 1053,1740 1052,1740 1051,1740 1050,1740 1050,1741 1049,1742 1048,1742 1047,1742 1046,1743 1045,1743 1044,1743 1043,1743 1042,1743 1041,1743 1040,1744 1039,1745 1038,1744 1038,1743 1037,1743 1036,1743 1035,1744 1034,1744 1033,1744 1032,1744 1031,1745 1030,1745 1029,1746 1028,1746 1027,1746 1026,1746 1025,1747 1024,1748 1023,1748 1022,1748 1021,1749 1020,1750 1019,1750 1018,1751 1017,1751 1016,1752 1015,1752 1014,1752 1013,1753 1012,1753 1011,1754 1010,1753 1009,1754 1008,1754 1007,1754 1006,1755 1005,1756 1004,1756 1003,1756 1002,1756 1001,1756 1000,1757 999,1757 998,1757 997,1757 996,1757 995,1757 994,1757 993,1757 992,1757 991,1758 990,1758 989,1758 988,1759 987,1759 986,1759 985,1759 984,1759 983,1759 982,1759 981,1758 980,1758 979,1759 978,1758 977,1758 976,1758 975,1758 974,1758 973,1758 972,1758 971,1758 970,1758 969,1758 968,1758 967,1759 966,1758 965,1757 964,1757 963,1757 962,1756 962,1755 961,1755 960,1755 959,1754 959,1753 959,1752 960,1751 961,1750 962,1750 963,1749 964,1748 965,1748 966,1747 967,1746 968,1746 969,1746 970,1745 971,1745 972,1745 973,1744 974,1744 975,1743 976,1742 977,1741 978,1740 979,1739 978,1739 977,1740 976,1740 975,1739 974,1740 973,1740 972,1741 971,1742 970,1742 969,1741 968,1742 967,1742 966,1742 965,1741 964,1741 963,1742 962,1742 961,1742 960,1742 959,1743 958,1743 957,1744 956,1745 955,1746 954,1745 953,1745 952,1745 951,1745 950,1745 949,1745 948,1745 947,1745 946,1746 945,1746 944,1746 943,1746 942,1746 941,1746 940,1746 939,1746 938,1746 937,1746 936,1746 935,1746 934,1746 933,1746 932,1746 932,1747 931,1748 930,1749 929,1748 929,1747 929,1746 930,1745 930,1744 930,1743 930,1742 931,1741 931,1740 931,1739 931,1738 931,1737 931,1736 931,1735 930,1734 930,1733 931,1732 930,1731 930,1730 931,1729 930,1729 929,1730 928,1730 928,1731 929,1732 928,1733 927,1733 927,1734 927,1735 927,1736 926,1737 927,1738 926,1739 925,1740 924,1741 923,1742 923,1743 922,1744 921,1745 920,1746 919,1747 918,1747 917,1747 916,1747 915,1746 915,1745 915,1744 915,1743 915,1742 915,1741 915,1740 915,1739 916,1738 916,1737 917,1736 918,1736 918,1735 918,1734 918,1733 918,1732 918,1731 919,1730 919,1729 919,1728 919,1727 919,1726 920,1725 920,1724 920,1723 921,1722 921,1721 921,1720 922,1719 922,1718 923,1717 923,1716 924,1715 924,1714 925,1713 925,1712 926,1711 925,1711 924,1711 923,1710 922,1710 921,1710">
      <metadata tailDirection="" confidence="0.00" linkedToCharacter="" id="FOX_CHILLINTALES_T17_016_balloon_2" tailTip=""></metadata>
    </polygon>
    <polygon points="761,1697 762,1697 763,1698 763,1699 764,1700 765,1701 765,1702 766,1703 766,1704 767,1705 767,1706 767,1707 767,1708 768,1709 769,1709 770,1708 771,1708 772,1708 773,1708 774,1707 775,1707 776,1706 777,1705 778,1705 779,1705 780,1705 781,1704 782,1704 783,1704 784,1703 785,1703 786,1703 787,1703 788,1702 789,1702 790,1702 791,1701 792,1701 793,1701 794,1701 795,1700 796,1700 795,1699 794,1700 793,1700 792,1699 791,1699 790,1699 789,1699 788,1699 787,1699 786,1699 785,1699 784,1699 783,1699 782,1698 781,1698 781,1699 780,1700 779,1699 778,1698 777,1699 776,1698 775,1698 774,1698 773,1698 772,1698 771,1699 770,1698 770,1697 769,1697 770,1698 770,1699 771,1700 771,1701 772,1702 773,1703 772,1704 771,1704 770,1704 769,1703 769,1702 768,1701 767,1700 766,1699 766,1698 765,1697 764,1697 763,1697 762,1697 761,1697">
      <metadata tailDirection="" confidence="0.00" linkedToCharacter="" id="FOX_CHILLINTALES_T17_016_balloon_3" tailTip=""></metadata>
    </polygon>
    <polygon points="878,1283 877,1284 876,1284 875,1284 874,1285 873,1285 872,1285 871,1285 870,1285 869,1286 868,1286 867,1287 866,1286 865,1286 864,1286 863,1287 862,1286 861,1286 860,1286 859,1286 858,1286 857,1286 856,1286 856,1287 856,1288 856,1289 856,1290 856,1291 857,1292 856,1293 857,1294 857,1295 856,1296 857,1297 857,1298 857,1299 856,1300 857,1301 856,1302 856,1303 856,1304 857,1305 856,1306 856,1307 857,1308 857,1309 856,1310 857,1311 856,1312 857,1313 856,1314 856,1315 856,1316 856,1317 857,1318 856,1319 857,1320 857,1321 857,1322 856,1323 856,1324 856,1325 857,1325 858,1325 859,1325 860,1325 859,1324 860,1323 860,1322 860,1321 860,1320 860,1319 860,1318 860,1317 861,1316 862,1315 863,1314 864,1314 865,1314 866,1314 867,1314 868,1315 869,1315 870,1316 870,1317 870,1318 870,1319 870,1320 870,1321 870,1322 871,1322 872,1322 873,1322 874,1322 875,1322 876,1322 876,1321 877,1320 877,1319 877,1318 876,1317 876,1316 876,1315 877,1314 878,1314 879,1313 880,1313 880,1312 880,1311 880,1310 880,1309 880,1308 880,1307 880,1306 880,1305 880,1304 880,1303 880,1302 879,1301 879,1300 879,1299 879,1298 880,1297 880,1296 880,1295 879,1294 880,1293 880,1292 880,1291 880,1290 880,1289 880,1288 880,1287 880,1286 880,1285 881,1284 880,1283 879,1284 878,1283">
      <metadata tailDirection="" confidence="0.00" linkedToCharacter="" id="FOX_CHILLINTALES_T17_016_balloon_4" tailTip=""></metadata>
    </polygon>
    <polygon points="1110,1258 1109,1259 1109,1260 1109,1261 1109,1262 1109,1263 1108,1264 1107,1263 1106,1262 1105,1262 1104,1262 1103,1262 1102,1262 1101,1261 1100,1260 1100,1259 1100,1260 1100,1261 1100,1262 1099,1263 1098,1263 1097,1263 1096,1263 1095,1263 1094,1263 1093,1263 1092,1263 1092,1264 1092,1265 1092,1266 1092,1267 1093,1267 1094,1268 1094,1269 1094,1270 1095,1271 1094,1272 1093,1273 1092,1272 1092,1271 1091,1272 1090,1271 1090,1270 1089,1269 1088,1269 1087,1268 1087,1267 1086,1266 1087,1265 1086,1264 1085,1263 1084,1264 1083,1263 1082,1262 1081,1262 1081,1263 1081,1264 1080,1265 1080,1266 1080,1267 1080,1268 1079,1269 1079,1270 1080,1271 1081,1272 1081,1273 1080,1274 1081,1275 1081,1274 1082,1273 1083,1272 1084,1271 1085,1272 1086,1273 1086,1274 1085,1275 1086,1275 1087,1275 1088,1275 1089,1276 1090,1277 1091,1277 1092,1278 1092,1279 1093,1280 1094,1281 1094,1282 1093,1283 1093,1284 1093,1285 1093,1286 1093,1287 1092,1288 1092,1289 1092,1290 1093,1290 1094,1290 1095,1290 1096,1290 1097,1290 1098,1291 1098,1292 1097,1293 1096,1294 1095,1295 1094,1295 1093,1295 1092,1295 1091,1295 1090,1296 1089,1296 1088,1296 1087,1295 1087,1294 1087,1293 1087,1292 1088,1291 1088,1290 1088,1289 1089,1288 1089,1287 1088,1286 1087,1285 1086,1285 1085,1285 1084,1285 1083,1284 1082,1284 1081,1284 1080,1284 1079,1283 1078,1283 1078,1284 1078,1285 1078,1286 1079,1287 1079,1288 1080,1289 1081,1290 1082,1291 1083,1291 1084,1292 1084,1293 1085,1294 1084,1295 1084,1296 1084,1297 1084,1298 1084,1299 1085,1300 1085,1301 1085,1302 1085,1303 1085,1304 1085,1305 1084,1306 1083,1305 1083,1304 1083,1303 1083,1302 1083,1301 1082,1300 1082,1299 1082,1298 1082,1297 1082,1296 1082,1297 1082,1298 1082,1299 1082,1300 1082,1301 1082,1302 1082,1303 1082,1304 1083,1305 1083,1306 1083,1307 1084,1308 1084,1309 1084,1310 1085,1311 1086,1312 1087,1312 1088,1312 1089,1312 1090,1313 1091,1313 1092,1313 1093,1313 1094,1313 1095,1314 1095,1313 1096,1312 1097,1313 1098,1314 1099,1314 1100,1313 1101,1313 1102,1313 1102,1312 1103,1311 1104,1310 1104,1309 1105,1308 1106,1307 1107,1306 1107,1305 1107,1304 1107,1303 1108,1302 1108,1301 1109,1300 1109,1299 1110,1298 1110,1297 1111,1296 1110,1295 1109,1295 1108,1296 1107,1297 1107,1298 1106,1299 1106,1300 1106,1301 1105,1302 1104,1302 1103,1301 1103,1300 1102,1299 1103,1298 1104,1297 1104,1296 1105,1295 1105,1294 1106,1293 1107,1293 1107,1292 1108,1291 1109,1290 1110,1289 1111,1288 1112,1287 1113,1286 1114,1286 1113,1285 1113,1284 1114,1283 1114,1282 1113,1283 1112,1284 1111,1283 1110,1283 1109,1284 1108,1284 1107,1284 1106,1285 1105,1285 1104,1285 1103,1286 1102,1287 1101,1287 1100,1286 1099,1286 1098,1287 1097,1286 1097,1285 1097,1284 1096,1283 1096,1282 1096,1281 1096,1280 1096,1279 1097,1278 1098,1278 1099,1278 1100,1277 1101,1277 1102,1277 1103,1277 1104,1277 1105,1277 1106,1277 1107,1277 1108,1278 1109,1278 1110,1279 1110,1280 1111,1281 1112,1280 1112,1279 1112,1278 1112,1277 1112,1276 1112,1275 1111,1274 1111,1273 1110,1272 1111,1271 1111,1270 1112,1269 1112,1268 1111,1267 1111,1266 1111,1265 1112,1264 1113,1263 1114,1262 1113,1262 1112,1261 1111,1260 1111,1259 1110,1258">
      <metadata tailDirection="" confidence="0.00" linkedToCharacter="" id="FOX_CHILLINTALES_T17_016_balloon_5" tailTip=""></metadata>
    </polygon>
    <polygon points="1201,1014 1201,1015 1200,1016 1199,1016 1198,1016 1198,1017 1198,1018 1198,1019 1197,1020 1197,1021 1196,1022 1196,1023 1195,1024 1194,1025 1195,1026 1195,1027 1194,1028 1193,1028 1194,1029 1193,1030 1193,1031 1192,1032 1193,1033 1193,1034 1192,1035 1191,1035 1191,1036 1190,1037 1190,1038 1189,1039 1188,1040 1189,1041 1188,1042 1188,1043 1188,1044 1187,1045 1187,1046 1187,1047 1186,1048 1186,1049 1186,1050 1185,1051 1185,1052 1184,1053 1183,1054 1183,1055 1184,1056 1183,1057 1183,1058 1184,1057 1185,1057 1186,1058 1186,1059 1185,1060 1184,1060 1183,1061 1182,1061 1181,1061 1180,1062 1180,1063 1180,1064 1181,1064 1182,1064 1183,1064 1184,1064 1185,1064 1186,1064 1187,1064 1188,1064 1189,1064 1190,1064 1191,1063 1192,1064 1193,1064 1194,1064 1195,1064 1196,1064 1197,1063 1198,1063 1199,1064 1200,1064 1201,1064 1202,1063 1203,1063 1204,1063 1205,1064 1206,1064 1207,1064 1208,1064 1209,1064 1210,1064 1211,1064 1212,1064 1213,1064 1214,1063 1215,1063 1216,1064 1217,1063 1218,1063 1219,1064 1220,1063 1221,1063 1222,1063 1223,1063 1224,1063 1225,1063 1225,1062 1224,1061 1224,1060 1225,1059 1226,1058 1227,1057 1228,1056 1229,1055 1229,1054 1228,1053 1228,1052 1228,1051 1229,1050 1230,1051 1230,1052 1231,1053 1232,1053 1232,1052 1232,1051 1231,1051 1230,1051 1229,1050 1230,1049 1231,1048 1232,1048 1232,1047 1233,1046 1234,1047 1235,1047 1234,1047 1233,1046 1233,1045 1232,1044 1232,1043 1233,1042 1233,1041 1232,1040 1231,1039 1231,1038 1232,1037 1233,1037 1234,1038 1234,1037 1233,1037 1232,1037 1231,1036 1231,1035 1232,1034 1233,1034 1233,1033 1233,1032 1232,1033 1231,1034 1230,1035 1229,1036 1228,1036 1227,1035 1227,1034 1228,1033 1229,1032 1230,1031 1231,1030 1232,1029 1232,1028 1231,1029 1231,1030 1230,1031 1229,1031 1228,1032 1227,1031 1227,1030 1228,1029 1229,1029 1229,1028 1228,1027 1227,1026 1226,1025 1225,1024 1225,1023 1224,1023 1223,1023 1222,1024 1221,1023 1221,1022 1220,1022 1219,1022 1218,1021 1217,1020 1216,1019 1215,1019 1214,1019 1213,1018 1213,1017 1212,1017 1211,1017 1210,1018 1209,1018 1208,1017 1207,1016 1207,1015 1206,1015 1205,1014 1204,1015 1203,1016 1202,1015 1202,1014 1201,1014">
      <metadata tailDirection="" confidence="0.00" linkedToCharacter="" id="FOX_CHILLINTALES_T17_016_balloon_6" tailTip=""></metadata>
    </polygon>
    <polygon points="1185,935 1184,936 1183,937 1182,936 1181,936 1180,936 1179,937 1180,938 1181,939 1182,940 1183,940 1184,941 1183,942 1183,943 1184,944 1184,945 1184,946 1185,947 1186,948 1186,949 1187,950 1187,951 1187,952 1188,953 1189,954 1189,955 1190,955 1191,956 1191,957 1192,957 1193,957 1194,958 1193,959 1192,959 1193,960 1194,961 1194,962 1194,963 1195,964 1196,965 1196,966 1197,967 1197,968 1197,969 1198,970 1198,971 1199,972 1200,973 1201,974 1201,975 1202,976 1202,977 1203,978 1204,979 1205,980 1205,981 1206,982 1206,983 1207,984 1207,985 1208,985 1209,985 1210,985 1211,986 1212,986 1213,986 1214,987 1215,987 1216,987 1217,986 1218,986 1219,987 1218,988 1219,989 1220,988 1221,989 1222,989 1223,990 1223,989 1224,988 1225,988 1225,987 1226,986 1227,986 1228,987 1228,988 1229,988 1228,987 1228,986 1227,985 1226,985 1225,984 1225,983 1226,982 1227,982 1227,981 1226,980 1225,981 1224,980 1224,979 1225,978 1226,978 1226,977 1226,976 1225,975 1225,974 1225,973 1224,972 1224,971 1224,970 1223,969 1223,968 1222,967 1222,966 1222,965 1221,964 1221,963 1221,962 1220,962 1219,961 1219,960 1220,959 1219,958 1218,957 1218,956 1217,955 1217,954 1218,953 1218,952 1218,951 1218,950 1218,949 1217,948 1217,947 1217,946 1217,945 1218,944 1219,945 1219,946 1219,947 1220,948 1220,949 1221,950 1221,951 1222,952 1222,953 1223,954 1223,955 1224,956 1224,957 1224,958 1224,959 1225,960 1225,961 1225,962 1226,963 1226,964 1227,965 1227,966 1227,967 1228,968 1228,969 1228,970 1229,971 1229,972 1229,973 1230,974 1230,975 1230,976 1230,977 1231,978 1231,979 1231,980 1232,981 1232,982 1232,983 1233,984 1233,985 1233,986 1234,987 1234,988 1235,989 1235,990 1235,991 1236,992 1236,993 1236,992 1236,991 1236,990 1236,989 1236,988 1236,987 1236,986 1236,985 1236,984 1236,983 1236,982 1236,981 1236,980 1236,979 1236,978 1236,977 1236,976 1236,975 1236,974 1236,973 1235,972 1235,971 1234,970 1234,969 1233,968 1233,967 1232,966 1232,965 1232,964 1231,963 1231,962 1231,961 1230,960 1230,959 1229,958 1229,957 1228,956 1228,955 1227,954 1227,953 1226,952 1226,951 1225,950 1225,949 1224,948 1223,947 1223,946 1222,945 1223,944 1222,943 1222,942 1221,941 1220,940 1220,939 1219,940 1219,941 1219,942 1219,943 1218,944 1217,945 1216,944 1215,944 1214,944 1213,945 1212,944 1211,943 1210,943 1209,943 1208,942 1207,942 1206,942 1205,942 1204,941 1203,941 1202,941 1201,942 1200,941 1201,942 1200,943 1199,944 1198,944 1197,943 1198,942 1198,941 1198,940 1197,939 1196,939 1195,939 1194,940 1193,940 1192,939 1193,938 1193,937 1192,937 1191,937 1190,936 1189,936 1188,935 1187,935 1186,935 1185,935">
      <metadata tailDirection="" confidence="0.00" linkedToCharacter="" id="FOX_CHILLINTALES_T17_016_balloon_7" tailTip=""></metadata>
    </polygon>
    <polygon points="1117,786 1117,787 1117,788 1117,789 1117,790 1117,791 1117,792 1117,793 1117,794 1117,795 1117,796 1116,797 1117,798 1116,799 1117,800 1117,801 1116,802 1116,803 1117,804 1116,805 1116,806 1116,807 1116,808 1115,809 1115,810 1115,811 1114,812 1114,813 1114,814 1115,815 1114,816 1114,817 1114,818 1114,819 1114,820 1114,821 1114,822 1113,823 1113,824 1113,825 1113,826 1112,827 1113,828 1112,829 1112,830 1112,831 1112,832 1112,833 1113,833 1114,834 1114,835 1114,836 1114,837 1114,838 1114,839 1114,840 1114,841 1115,840 1116,840 1117,840 1117,839 1118,838 1119,839 1119,840 1120,839 1121,838 1122,838 1123,839 1124,838 1125,839 1126,838 1127,837 1128,836 1129,836 1130,837 1129,838 1130,838 1131,838 1132,837 1132,836 1133,835 1134,835 1135,836 1135,837 1136,836 1137,835 1138,836 1138,835 1139,834 1140,834 1141,835 1142,835 1141,834 1141,833 1142,832 1143,833 1144,834 1145,833 1146,832 1147,832 1148,831 1149,831 1150,832 1151,832 1151,831 1152,830 1153,831 1153,830 1154,829 1155,829 1156,829 1157,829 1156,828 1155,827 1154,828 1153,827 1153,826 1153,825 1152,824 1151,823 1151,822 1150,823 1149,822 1149,821 1149,820 1148,820 1147,819 1147,818 1147,817 1146,817 1145,817 1144,816 1145,815 1146,815 1145,814 1144,813 1144,812 1143,812 1142,811 1142,810 1142,809 1142,808 1141,808 1140,807 1140,806 1139,807 1138,806 1138,805 1139,804 1138,803 1137,802 1136,801 1135,801 1134,800 1134,799 1133,798 1132,797 1131,796 1130,795 1129,794 1128,793 1128,792 1127,791 1126,791 1125,790 1124,789 1123,788 1122,788 1121,788 1120,787 1119,786 1118,786 1117,786">
      <metadata tailDirection="" confidence="0.00" linkedToCharacter="" id="FOX_CHILLINTALES_T17_016_balloon_8" tailTip=""></metadata>
    </polygon>
    <polygon points="849,595 848,596 847,596 846,596 845,596 844,596 843,596 842,596 841,596 840,596 839,596 838,596 837,596 836,596 835,596 834,596 833,596 832,596 831,596 830,596 829,596 828,597 827,596 826,596 825,596 824,596 823,596 822,596 821,596 820,596 819,596 818,596 817,596 816,596 815,596 814,596 813,596 812,596 811,596 810,596 809,596 808,596 807,596 806,596 805,596 804,596 803,596 802,596 801,596 800,596 799,596 798,596 797,596 796,596 795,596 794,596 793,596 792,596 791,596 790,596 789,596 788,596 787,596 786,596 785,596 784,596 783,596 782,596 781,596 780,596 779,596 778,596 777,596 776,596 775,596 774,596 773,596 772,596 771,596 770,596 769,596 768,596 767,596 766,596 765,596 764,596 763,596 762,596 761,596 760,596 759,596 758,596 757,596 756,596 755,596 754,596 753,596 752,596 751,596 750,596 749,596 748,596 747,596 746,596 745,596 744,596 743,596 742,596 741,596 740,596 739,596 738,596 737,596 736,596 735,596 734,596 733,596 732,596 731,596 730,596 729,597 729,598 729,599 728,600 728,601 728,602 729,603 729,604 729,605 729,606 729,607 729,608 729,609 729,610 729,611 729,612 728,613 728,614 729,615 729,616 729,617 729,618 728,619 729,620 729,621 729,622 729,623 729,624 729,625 728,626 728,627 728,628 728,629 728,630 729,631 728,632 728,633 728,634 728,635 728,636 728,637 728,638 728,639 728,640 728,641 728,642 728,643 728,644 728,645 728,646 728,647 728,648 728,649 728,650 728,651 728,652 728,653 728,654 729,655 728,656 728,657 728,658 728,659 728,660 728,661 728,662 728,663 728,664 728,665 728,666 728,667 728,668 728,669 728,670 728,671 728,672 728,673 728,674 728,675 728,676 728,677 728,678 728,679 728,680 728,681 728,682 728,683 728,684 728,685 728,686 728,687 728,688 728,689 728,690 728,691 728,692 728,693 729,693 730,693 731,693 732,694 733,694 734,694 735,694 736,695 737,695 738,695 739,696 740,696 741,696 742,696 743,696 744,696 745,697 746,697 747,697 748,697 749,698 750,698 751,698 752,699 753,699 754,699 755,699 756,699 757,699 758,699 759,699 760,699 761,700 762,700 763,700 764,700 765,700 766,700 767,700 768,700 769,700 770,700 771,700 772,701 773,701 774,701 775,701 776,701 777,701 778,701 779,701 780,702 781,703 782,703 783,703 784,703 785,703 786,702 787,702 788,702 789,703 790,703 791,703 792,702 793,702 794,703 795,702 796,702 797,703 798,704 797,703 798,702 799,702 800,702 801,703 800,704 801,703 802,704 802,703 803,702 804,702 805,702 806,703 807,703 808,703 809,703 810,703 811,703 812,703 813,702 814,702 815,702 816,702 817,702 818,703 817,704 818,704 818,703 819,702 820,702 821,702 822,702 823,702 824,702 825,702 826,702 827,702 828,702 829,702 830,702 831,702 832,702 833,702 834,702 835,702 836,701 837,701 838,701 839,701 840,701 841,701 842,701 843,701 844,701 845,701 846,701 847,702 847,701 848,700 849,700 850,700 851,700 852,700 853,699 854,699 855,699 856,699 857,698 858,698 859,698 860,698 861,698 862,697 863,697 864,696 865,696 866,696 867,696 868,695 869,695 870,695 871,695 872,694 873,694 874,693 875,693 876,692 877,692 878,692 879,691 880,690 881,689 882,688 883,687 884,687 884,686 884,685 885,684 885,683 885,682 885,681 885,680 885,679 885,678 885,677 885,676 885,675 884,674 884,673 884,672 883,671 882,670 882,669 883,668 884,667 885,667 886,667 887,667 888,667 889,668 890,668 891,668 892,669 893,669 894,669 895,670 896,670 897,670 898,670 899,670 900,670 901,671 902,671 903,671 904,671 905,671 906,672 907,672 908,672 909,672 910,672 911,673 912,674 913,674 914,674 915,675 916,676 917,677 917,678 918,679 918,680 919,681 920,682 920,683 921,684 921,685 922,686 922,687 923,688 924,689 924,690 925,691 926,692 926,693 927,694 928,695 928,696 929,697 930,698 931,699 931,700 932,701 933,702 934,703 934,704 935,705 936,706 936,707 937,708 937,709 937,708 937,707 937,706 936,705 936,704 936,703 936,702 935,701 935,700 935,699 935,698 934,697 934,696 933,695 933,694 933,693 933,692 932,691 932,690 932,689 932,688 931,687 931,686 931,685 930,684 930,683 930,682 930,681 930,680 929,679 929,678 929,677 929,676 929,675 929,674 930,673 931,673 932,673 933,673 934,673 935,673 936,673 937,673 938,673 939,673 940,673 941,673 942,673 943,673 944,673 945,673 946,673 947,673 948,673 949,673 950,673 951,673 952,673 953,673 954,672 955,672 956,672 957,673 958,673 959,672 960,672 961,672 962,672 963,672 964,672 965,671 966,671 967,671 968,671 969,671 970,671 971,671 972,671 973,671 974,671 975,670 976,670 977,670 978,670 979,670 980,670 981,669 982,669 983,669 984,669 985,669 986,668 987,668 988,668 989,668 990,667 991,667 992,667 993,667 994,666 995,666 996,666 997,666 998,665 999,665 1000,664 1001,664 1002,664 1003,663 1004,663 1005,663 1006,662 1007,662 1008,661 1009,660 1010,660 1011,659 1012,658 1013,657 1014,657 1014,656 1015,655 1016,655 1017,654 1018,653 1018,652 1019,651 1020,650 1021,649 1021,648 1022,647 1022,646 1022,645 1022,644 1023,643 1023,642 1023,641 1023,640 1024,639 1024,638 1024,637 1024,636 1024,635 1024,634 1024,633 1024,632 1024,631 1024,630 1023,629 1023,628 1023,627 1023,626 1023,625 1023,624 1023,623 1022,622 1022,621 1022,620 1021,619 1021,618 1020,617 1020,616 1020,615 1019,614 1018,613 1017,612 1017,611 1016,610 1015,609 1015,608 1014,607 1014,606 1013,605 1012,604 1011,603 1010,602 1009,601 1008,600 1007,600 1006,599 1005,598 1004,597 1003,597 1002,596 1001,595 1000,595 999,595 998,595 997,595 996,595 995,595 994,595 993,595 992,595 991,595 990,595 989,595 988,595 987,595 986,595 985,595 984,595 983,595 982,595 981,595 980,595 979,595 978,595 977,595 976,595 975,595 974,595 973,595 972,595 971,595 970,595 969,595 968,595 967,595 966,595 965,595 964,595 963,596 962,595 961,595 960,595 959,595 958,595 957,595 956,595 955,595 954,595 953,595 952,595 951,595 950,595 949,595 948,595 947,595 946,595 945,595 944,595 943,596 942,595 941,595 940,595 939,595 938,595 937,595 936,596 935,595 934,595 933,595 932,596 931,595 930,595 929,595 928,595 927,595 926,595 925,595 924,595 923,595 922,595 921,595 920,595 919,595 918,595 917,595 916,595 915,595 914,595 913,595 912,596 911,596 910,596 909,596 908,596 907,596 906,596 905,596 904,596 903,595 902,596 901,596 900,596 899,596 898,596 897,596 896,596 895,596 894,596 893,596 892,595 891,596 890,596 889,596 888,596 887,596 886,596 885,596 884,596 883,596 882,596 881,596 880,596 879,596 878,596 877,596 876,596 875,595 874,595 873,595 872,595 871,595 870,595 869,595 868,595 867,595 866,595 865,595 864,595 863,595 862,595 861,595 860,595 859,595 858,595 857,595 856,595 855,595 854,595 853,595 852,595 851,595 850,595 849,595">
      <metadata tailDirection="" confidence="0.00" linkedToCharacter="" id="FOX_CHILLINTALES_T17_016_balloon_9" tailTip=""></metadata>
    </polygon>
    <polygon points="1063,594 1062,595 1061,595 1060,595 1059,596 1058,596 1057,597 1056,597 1055,598 1054,598 1053,599 1052,599 1051,600 1050,601 1049,602 1048,603 1048,604 1047,605 1046,606 1046,607 1045,608 1044,609 1044,610 1043,611 1042,612 1042,613 1041,614 1041,615 1040,616 1040,617 1040,618 1040,619 1039,620 1039,621 1039,622 1039,623 1038,624 1038,625 1038,626 1038,627 1038,628 1038,629 1038,630 1038,631 1038,632 1038,633 1038,634 1038,635 1038,636 1039,637 1039,638 1039,639 1040,640 1040,641 1041,642 1041,643 1041,644 1041,645 1041,646 1042,647 1042,648 1042,649 1043,650 1044,651 1044,652 1044,653 1045,654 1046,655 1047,656 1047,657 1048,658 1049,659 1050,659 1051,660 1052,660 1053,661 1054,661 1055,662 1056,663 1057,663 1058,663 1059,664 1060,664 1061,665 1062,665 1063,665 1064,666 1065,666 1066,666 1067,667 1068,667 1069,667 1070,668 1071,668 1072,668 1073,669 1074,669 1075,669 1076,669 1077,670 1078,670 1079,670 1080,671 1081,671 1082,671 1083,671 1084,671 1085,672 1086,672 1087,672 1088,672 1089,672 1090,672 1091,672 1092,672 1093,673 1094,673 1095,673 1096,673 1097,673 1098,673 1099,673 1100,673 1101,673 1102,673 1103,673 1104,673 1105,673 1106,673 1107,674 1108,675 1108,676 1108,677 1108,678 1107,679 1107,680 1107,681 1106,682 1106,683 1106,684 1105,685 1105,686 1105,687 1105,688 1104,689 1104,690 1103,691 1103,692 1103,693 1102,694 1102,695 1101,696 1101,697 1100,698 1100,699 1100,700 1099,701 1099,702 1098,703 1098,704 1099,704 1100,703 1101,702 1101,701 1102,700 1103,699 1104,699 1105,698 1105,697 1106,696 1107,695 1108,694 1108,693 1109,692 1110,691 1111,690 1112,689 1113,688 1113,687 1114,686 1115,685 1116,684 1117,683 1118,682 1118,681 1119,680 1119,679 1120,678 1121,678 1122,677 1122,676 1123,675 1124,674 1125,674 1126,674 1127,674 1128,674 1129,674 1130,674 1131,674 1132,674 1133,674 1134,674 1135,674 1136,675 1137,675 1138,675 1139,675 1140,675 1141,675 1142,675 1143,675 1144,675 1145,675 1146,675 1147,675 1148,675 1149,675 1150,675 1151,675 1152,675 1153,675 1154,674 1155,674 1156,674 1157,674 1158,674 1159,674 1160,674 1161,674 1162,674 1163,674 1164,674 1165,674 1166,674 1167,674 1168,673 1169,673 1170,673 1171,673 1172,673 1173,673 1174,673 1175,672 1176,672 1177,672 1178,672 1179,672 1180,672 1181,671 1182,671 1183,671 1184,671 1185,671 1186,671 1187,670 1188,670 1189,670 1190,669 1191,669 1192,669 1193,668 1194,668 1195,667 1196,667 1197,667 1198,666 1199,666 1200,666 1201,665 1202,665 1203,665 1204,664 1205,663 1206,663 1207,663 1208,662 1209,662 1210,662 1211,661 1212,660 1213,660 1213,659 1212,658 1212,657 1213,656 1214,656 1215,657 1216,658 1217,657 1218,656 1219,655 1220,654 1221,653 1222,652 1223,651 1224,650 1224,649 1225,648 1226,647 1226,646 1226,645 1227,644 1227,643 1228,642 1228,641 1228,640 1229,639 1229,638 1229,637 1229,636 1229,635 1229,634 1229,633 1229,632 1229,631 1229,630 1229,629 1229,628 1229,627 1229,626 1229,625 1229,624 1229,623 1228,622 1228,621 1228,620 1227,619 1227,618 1226,617 1226,616 1226,615 1225,614 1224,613 1223,612 1223,611 1223,610 1222,609 1221,608 1220,607 1219,606 1219,605 1219,604 1218,603 1217,603 1216,602 1215,601 1214,600 1213,599 1212,599 1211,598 1210,597 1209,596 1208,595 1207,595 1206,595 1205,595 1204,594 1203,594 1202,594 1201,594 1200,594 1199,594 1198,594 1197,594 1196,594 1195,594 1194,594 1193,594 1192,594 1191,595 1190,594 1189,594 1188,595 1187,595 1186,594 1185,594 1184,594 1183,594 1182,594 1181,595 1180,595 1179,595 1178,594 1177,594 1176,594 1175,594 1174,594 1173,594 1172,594 1171,594 1170,595 1169,595 1168,594 1167,594 1166,594 1165,594 1164,594 1163,594 1162,594 1161,594 1160,594 1159,595 1158,594 1157,594 1156,594 1155,594 1154,594 1153,594 1152,594 1151,594 1150,594 1149,594 1148,594 1147,595 1146,594 1145,594 1144,594 1143,594 1142,594 1141,594 1140,594 1139,594 1138,594 1137,594 1136,594 1135,594 1134,594 1133,594 1132,594 1131,594 1130,594 1129,594 1128,595 1127,595 1126,595 1125,594 1124,594 1123,594 1122,594 1121,594 1120,595 1119,594 1118,594 1117,594 1116,594 1115,594 1114,594 1113,594 1112,594 1111,594 1110,594 1109,594 1108,594 1107,594 1106,594 1105,594 1104,594 1103,594 1102,594 1101,594 1100,594 1099,594 1098,594 1097,594 1096,594 1095,594 1094,594 1093,594 1092,594 1091,594 1090,594 1089,594 1088,594 1087,594 1086,594 1085,594 1084,594 1083,595 1082,595 1081,595 1080,595 1079,595 1078,595 1077,595 1076,595 1075,595 1074,595 1073,595 1072,595 1071,595 1070,595 1069,595 1068,595 1067,594 1066,594 1065,594 1064,594 1063,594">
      <metadata tailDirection="" confidence="0.00" linkedToCharacter="" id="FOX_CHILLINTALES_T17_016_balloon_10" tailTip=""></metadata>
    </polygon>
    <polygon points="836,66 835,67 834,67 833,67 832,67 831,67 830,67 829,67 828,67 827,67 826,67 825,67 824,67 823,67 822,67 821,67 820,67 819,67 818,67 817,67 816,67 815,67 814,67 813,67 812,67 811,67 810,67 809,67 808,67 807,67 806,67 805,67 804,67 803,67 802,67 801,67 800,67 799,67 798,67 797,67 796,67 795,67 794,67 793,67 792,67 791,67 790,67 789,67 788,67 787,67 786,67 785,67 784,67 783,67 782,67 781,67 780,67 779,67 778,67 777,67 776,67 775,67 774,67 773,67 772,67 771,67 770,67 769,67 768,67 767,67 766,67 765,67 764,67 763,67 762,67 761,67 760,67 759,67 758,67 757,67 756,67 755,67 754,67 753,67 752,67 751,67 750,67 749,67 748,67 747,67 746,67 745,67 744,67 743,67 742,67 741,67 740,67 739,67 738,67 737,67 736,67 735,67 734,67 733,67 732,67 731,67 730,67 729,67 728,67 727,67 726,67 725,67 724,67 723,68 722,67 721,67 720,67 719,67 718,67 717,67 716,67 715,67 714,67 713,67 712,67 711,67 710,67 709,67 708,67 707,67 706,67 705,67 704,67 703,67 702,67 701,67 700,67 699,67 698,67 697,67 696,67 695,67 694,67 693,67 692,67 691,67 690,67 689,67 688,67 687,67 686,67 685,67 684,67 683,67 682,67 681,67 680,67 679,67 678,67 677,68 676,67 675,67 674,67 673,67 672,67 671,67 670,67 669,67 668,67 667,67 666,67 665,67 664,67 663,67 662,67 661,67 660,67 659,67 658,67 657,67 656,67 655,67 654,67 653,67 652,67 651,67 650,67 649,67 648,67 647,68 646,67 645,67 644,67 643,67 642,67 641,67 640,67 639,67 638,67 637,67 636,67 635,67 634,67 633,67 632,67 631,67 630,67 629,67 628,67 627,67 626,67 625,67 624,68 623,68 622,68 621,68 620,68 619,67 618,67 617,67 616,67 615,67 614,67 613,67 612,67 611,67 610,67 609,67 608,67 607,67 606,67 605,67 604,67 603,67 602,67 601,67 600,67 599,67 598,67 597,67 596,67 595,67 594,67 593,67 592,67 591,67 590,67 589,67 588,67 587,67 586,67 585,67 584,67 583,67 582,67 581,67 580,67 579,67 578,67 577,67 576,68 575,67 574,67 573,67 572,67 572,68 571,69 570,68 570,67 569,67 568,67 567,67 566,67 565,67 564,67 563,67 562,67 561,67 560,67 559,67 558,67 557,67 556,67 555,67 554,67 553,67 552,67 551,67 550,67 549,68 548,68 547,68 546,68 545,69 544,69 543,68 542,67 541,67 540,67 539,67 538,67 537,67 536,68 535,68 534,68 533,68 532,68 531,67 530,67 529,68 528,68 527,68 526,68 525,68 524,68 523,68 522,68 521,68 520,68 519,68 518,68 517,68 516,67 516,68 516,69 516,70 516,71 516,72 516,73 516,74 516,75 516,76 516,77 516,78 516,79 515,80 515,81 516,82 516,83 516,84 516,85 516,86 516,87 516,88 516,89 515,90 516,91 516,92 516,93 516,94 516,95 516,96 516,97 516,98 516,99 516,100 516,101 516,102 516,103 516,104 516,105 516,106 516,107 516,108 516,109 516,110 516,111 516,112 516,113 516,114 516,115 516,116 516,117 516,118 516,119 516,120 516,121 516,122 516,123 516,124 516,125 516,126 516,127 516,128 516,129 516,130 516,131 516,132 516,133 516,134 516,135 516,136 516,137 516,138 516,139 516,140 516,141 516,142 515,143 516,144 516,145 516,146 516,147 516,148 516,149 516,150 516,151 516,152 516,153 516,154 516,155 516,156 516,157 516,158 516,159 516,160 516,161 516,162 516,163 516,164 516,165 516,166 516,167 516,168 516,169 516,170 516,171 516,172 516,173 516,174 516,175 516,176 516,177 516,178 516,179 516,180 516,181 516,182 516,183 516,184 516,185 516,186 516,187 516,188 516,189 516,190 516,191 516,192 516,193 516,194 516,195 516,196 515,197 516,198 517,198 518,198 519,198 520,198 521,198 522,198 523,199 524,199 525,199 526,199 527,199 528,200 529,200 530,200 531,200 532,201 533,201 534,201 535,201 536,202 537,202 538,202 539,202 540,202 541,202 542,202 543,202 544,202 545,203 546,203 547,203 548,203 549,203 550,203 551,203 552,204 553,204 554,204 555,204 556,204 557,204 558,204 559,204 560,204 561,204 562,205 563,205 564,205 565,205 566,205 567,205 568,205 569,205 570,205 571,205 572,206 573,206 574,206 575,206 576,206 577,206 578,206 579,206 580,206 581,206 582,206 583,207 584,207 585,206 586,207 587,207 588,207 589,207 590,207 591,207 592,207 593,207 594,207 595,207 596,207 597,207 598,207 599,207 600,208 601,208 602,208 603,208 604,208 605,208 606,208 607,208 608,208 609,208 610,208 611,208 612,208 613,208 614,208 615,208 616,208 617,208 618,208 619,208 620,208 621,208 622,208 623,208 624,208 625,208 626,208 627,208 628,208 629,208 630,208 631,208 632,208 633,208 634,208 635,208 636,208 637,208 638,208 639,208 640,208 641,209 642,209 643,208 644,208 645,209 646,209 647,209 648,208 649,208 650,208 651,208 652,208 653,208 654,208 655,208 656,208 657,208 658,208 659,208 660,208 661,208 662,208 663,208 664,208 665,208 666,209 667,210 667,211 667,212 667,213 667,214 668,215 668,216 668,217 669,218 668,219 668,220 668,221 667,222 667,223 667,224 667,225 667,226 666,227 666,228 666,229 666,230 665,231 665,232 665,233 665,234 665,235 665,236 665,237 665,238 665,239 665,240 665,241 665,242 665,243 665,244 665,245 665,246 664,247 664,248 664,249 664,250 664,251 664,252 664,253 664,254 664,255 664,256 664,257 663,258 663,259 663,260 663,261 663,262 663,263 662,264 662,265 662,266 663,265 663,264 663,263 664,262 664,261 664,260 665,259 665,258 666,257 666,256 667,255 667,254 667,253 668,252 668,251 668,250 669,249 669,248 669,247 670,246 670,245 671,244 671,243 671,242 672,241 672,240 672,239 673,238 673,237 674,236 674,235 675,234 675,233 675,232 675,231 676,230 676,229 676,228 676,227 676,226 676,225 677,224 677,223 677,222 678,221 678,220 679,219 680,218 680,217 680,216 681,215 681,214 682,213 682,212 682,211 682,210 683,209 684,208 685,208 686,207 687,207 688,207 689,207 690,207 691,207 692,207 693,207 694,207 695,207 696,207 697,207 698,207 699,207 700,207 701,207 702,207 703,207 704,207 705,207 706,207 707,207 708,207 709,207 710,207 711,207 712,207 713,207 714,207 715,207 716,207 717,207 718,207 719,207 720,207 721,207 722,207 723,207 724,207 725,207 726,207 727,207 728,207 729,207 730,207 731,207 732,207 733,207 734,207 735,207 736,207 737,206 738,206 739,206 740,206 741,206 742,206 743,206 744,206 745,205 746,205 747,205 748,205 749,205 750,205 751,205 752,205 753,205 754,205 755,204 756,204 757,204 758,204 759,204 760,204 761,204 762,204 763,204 764,204 765,203 766,203 767,203 768,203 769,203 770,202 771,202 771,201 770,200 771,199 772,199 773,199 774,200 774,201 775,201 776,201 777,201 778,201 779,201 780,201 781,200 782,200 783,200 784,200 785,200 786,199 787,199 788,199 789,198 790,198 791,198 792,197 793,197 794,196 795,196 796,195 797,195 798,195 799,194 800,194 801,193 802,192 803,191 804,190 805,189 806,188 806,187 806,186 807,185 807,184 807,183 807,182 807,181 807,180 807,179 806,178 805,177 804,176 803,175 803,174 802,173 802,172 801,171 801,170 802,169 803,169 804,168 805,169 806,169 807,169 808,169 809,169 810,170 811,170 812,170 813,170 814,170 815,171 816,171 817,171 818,171 819,171 820,171 821,171 822,171 823,171 824,171 825,172 826,172 827,172 828,172 829,172 830,172 831,172 832,172 833,172 834,172 835,172 836,172 837,172 838,172 839,172 840,172 841,172 842,172 843,172 844,172 845,173 846,173 847,173 848,172 849,173 850,173 851,173 852,173 853,173 854,173 855,173 856,173 857,173 858,173 859,173 860,173 861,173 862,172 863,172 864,172 865,172 866,172 867,172 868,172 869,172 870,172 871,172 872,172 873,172 874,172 875,171 876,171 877,171 878,171 879,171 880,171 881,171 882,171 883,171 884,171 885,171 886,171 887,170 888,170 889,170 890,170 891,170 892,169 893,169 894,169 895,169 896,168 897,168 898,168 899,168 900,168 901,167 902,167 903,167 904,166 905,166 906,166 907,166 908,165 909,165 910,165 911,164 912,164 913,163 914,163 915,162 916,162 917,161 918,161 919,160 920,160 921,159 922,159 923,158 924,158 925,157 926,157 927,156 928,156 929,155 930,155 931,154 932,153 933,153 934,152 935,151 936,150 937,149 938,149 938,148 939,147 940,147 940,146 941,145 942,144 943,143 943,142 944,141 945,140 945,139 946,138 946,137 947,136 947,135 948,134 948,133 949,132 949,131 950,130 950,129 951,128 951,127 951,126 952,125 952,124 952,123 952,122 953,121 953,120 953,119 953,118 954,117 954,116 954,115 954,114 954,113 954,112 954,111 955,110 955,109 955,108 955,107 955,106 955,105 955,104 955,103 955,102 955,101 955,100 955,99 955,98 955,97 955,96 955,95 955,94 955,93 955,92 955,91 954,90 954,89 954,88 954,87 953,86 953,85 952,84 952,83 952,82 951,81 951,80 950,79 949,78 948,77 948,76 947,75 947,74 946,73 946,72 945,72 944,71 943,70 942,70 941,69 940,68 939,67 938,67 937,66 936,66 935,66 934,66 933,66 932,66 931,66 930,66 929,66 928,66 927,66 926,66 925,66 924,66 923,66 922,66 921,66 920,66 919,66 918,66 917,66 916,66 915,66 914,66 913,66 912,66 911,66 910,66 909,66 908,66 907,66 906,66 905,66 904,66 903,66 902,66 901,66 900,66 899,66 898,66 897,66 896,66 895,66 894,66 893,66 892,66 891,66 890,66 889,66 888,66 887,66 886,66 885,67 884,67 883,66 882,66 881,66 880,66 879,66 878,66 877,66 876,66 875,66 874,66 873,66 872,66 871,67 870,66 869,66 868,66 867,66 866,66 865,66 864,66 863,66 862,67 861,67 860,67 859,67 858,66 857,66 856,66 855,66 854,66 853,66 852,66 851,66 850,67 849,66 848,66 847,66 846,66 845,67 844,67 843,67 842,67 841,67 840,66 839,67 838,67 837,67 836,66">
      <metadata tailDirection="" confidence="0.00" linkedToCharacter="" id="FOX_CHILLINTALES_T17_016_balloon_11" tailTip=""></metadata>
    </polygon>
    <polygon points="80,611 79,612 78,613 77,613 76,613 75,614 74,613 73,614 72,615 71,614 70,613 70,614 70,615 70,616 70,617 70,618 71,619 71,620 70,621 70,622 70,623 70,624 70,625 70,626 70,627 70,628 70,629 71,630 70,631 70,632 70,633 70,634 70,635 70,636 71,637 70,638 70,639 70,640 71,641 71,642 71,643 70,644 71,645 71,646 72,647 73,646 74,646 74,645 74,644 74,643 73,642 73,641 73,640 73,639 73,638 73,637 73,636 73,635 73,634 73,633 73,632 74,631 74,630 74,629 75,628 75,627 76,626 76,625 77,624 78,624 79,623 80,622 81,622 82,621 83,620 84,621 85,622 86,622 87,622 88,623 89,624 89,625 90,626 91,627 91,628 92,629 92,630 92,631 92,632 93,633 93,634 93,635 93,636 93,637 93,638 93,639 93,640 93,641 93,642 94,641 95,640 95,639 95,638 96,637 96,636 96,635 95,634 96,633 95,632 95,631 95,630 95,629 95,628 95,627 95,626 95,625 95,624 95,623 95,622 95,621 96,620 97,619 98,619 99,618 99,617 100,616 101,616 102,616 103,615 104,615 105,615 106,615 107,615 108,615 109,615 110,616 111,617 112,617 113,618 114,619 115,619 116,620 116,621 116,622 117,623 117,624 117,625 117,626 117,627 118,628 118,629 119,630 119,631 120,632 121,633 121,634 121,635 122,635 123,635 124,635 124,634 124,633 125,632 126,633 126,634 127,634 127,633 126,632 126,631 127,630 127,629 127,628 126,627 127,626 127,625 128,624 128,623 128,622 128,621 129,620 129,619 130,618 131,617 131,616 132,615 133,614 133,613 133,614 132,615 131,615 130,616 129,617 128,616 128,615 129,614 128,614 127,613 126,613 125,613 124,613 123,613 123,614 122,615 121,614 121,613 120,613 119,613 118,614 117,613 117,612 116,612 115,612 114,611 113,611 112,611 111,612 110,611 109,611 108,611 107,611 106,611 105,611 104,612 103,612 102,612 101,612 100,612 99,612 98,612 97,612 97,613 96,614 95,613 94,613 93,612 92,612 91,612 90,611 89,612 88,612 87,612 86,611 85,611 84,611 83,611 82,611 81,611 80,611">
      <metadata tailDirection="" confidence="0.00" linkedToCharacter="" id="FOX_CHILLINTALES_T17_016_balloon_12" tailTip=""></metadata>
    </polygon>
    <polygon points="349,610 348,611 347,611 346,611 345,611 344,612 343,611 342,611 341,611 340,611 339,611 338,611 337,611 336,611 335,611 334,611 333,611 332,611 331,611 330,611 329,612 328,612 327,612 326,612 325,612 324,612 323,612 322,612 321,612 320,612 319,612 318,612 317,612 316,612 315,612 314,612 313,612 312,612 311,612 310,612 309,612 308,612 307,612 306,613 305,613 304,613 303,613 302,613 301,614 300,613 299,613 298,613 297,613 296,613 295,613 294,613 293,613 292,613 291,612 290,612 289,612 288,612 287,612 286,612 285,612 284,612 283,613 282,613 281,613 280,613 279,613 278,613 277,613 276,613 275,613 274,613 273,613 272,613 271,613 270,613 269,614 268,614 267,614 266,613 265,613 264,613 263,612 262,612 261,612 260,612 259,612 258,612 257,612 256,612 255,612 254,612 253,613 252,613 251,613 250,613 249,613 248,613 247,613 246,613 245,613 244,613 243,613 242,613 241,613 240,613 239,613 238,612 237,612 236,613 235,613 234,613 233,613 232,613 231,614 230,614 229,614 228,614 227,614 226,614 225,614 224,614 223,614 222,614 221,614 220,614 219,613 218,613 217,613 216,613 215,613 214,613 213,613 212,612 211,612 210,612 209,612 208,612 207,612 206,612 205,612 204,612 203,612 202,612 201,612 200,612 199,612 198,613 197,614 196,614 195,614 194,614 193,613 192,613 191,613 190,613 189,613 188,613 187,613 186,612 185,612 184,612 183,612 182,612 181,612 180,613 179,613 178,613 177,613 176,614 175,613 174,614 173,614 172,614 171,614 170,614 169,614 168,614 167,614 166,614 165,614 164,614 163,614 162,614 161,614 160,613 159,613 158,614 157,613 156,613 155,613 154,613 153,614 152,614 151,614 150,614 149,614 148,614 147,614 146,615 145,614 144,614 143,614 142,614 141,614 140,614 139,614 138,614 138,615 137,616 136,617 136,618 135,619 135,620 135,621 134,622 134,623 134,624 134,625 133,626 133,627 134,628 134,629 133,630 133,631 134,632 133,633 134,634 134,635 134,636 134,637 135,638 135,639 135,640 135,641 135,642 136,643 136,644 137,645 137,646 138,647 138,648 139,649 140,650 141,651 142,652 143,653 144,654 145,654 146,655 147,656 148,657 149,658 150,658 151,659 152,659 153,660 154,660 155,660 156,661 157,661 158,661 159,661 160,662 161,662 162,663 163,663 164,663 165,663 166,663 167,664 168,664 169,664 170,664 171,665 172,665 173,665 174,665 175,665 176,666 177,666 178,666 179,666 180,667 181,667 182,667 183,667 184,667 185,667 186,667 187,668 188,668 189,668 190,668 191,668 192,668 193,668 194,668 195,668 196,668 197,668 198,668 199,669 200,669 201,669 202,669 203,669 204,669 205,669 206,669 207,669 208,670 209,670 210,670 211,670 212,670 213,670 214,670 215,670 216,670 217,670 218,670 219,670 220,670 221,670 222,670 223,671 224,671 225,671 226,671 227,671 228,671 229,671 230,671 231,671 232,671 233,671 234,671 235,671 236,671 237,671 238,671 239,671 240,671 241,671 242,671 243,671 244,671 245,672 246,672 247,673 248,674 248,675 248,676 249,677 249,678 249,679 249,680 249,681 249,682 250,683 250,684 250,685 250,686 250,687 250,688 250,689 250,690 251,691 251,692 251,693 251,694 251,695 251,696 251,697 251,698 251,699 252,700 252,701 252,702 252,703 252,704 253,705 253,706 253,707 253,708 253,709 253,710 253,711 253,712 253,713 253,714 253,715 253,716 253,717 253,718 253,719 254,720 254,721 254,722 254,723 254,724 254,725 254,726 254,727 254,728 254,729 254,730 254,731 254,732 254,733 254,734 254,735 254,736 255,737 255,738 254,739 254,740 255,741 255,742 255,743 255,744 255,745 256,746 256,747 256,748 256,749 256,750 257,751 257,752 257,753 257,754 257,755 257,756 257,757 257,758 257,759 257,760 257,761 257,762 257,763 258,764 258,765 258,766 258,767 258,768 259,769 259,770 259,771 259,772 259,773 259,774 259,775 259,776 259,777 260,778 260,779 260,780 260,781 260,782 260,783 260,784 261,785 261,786 261,787 261,788 261,789 262,790 262,791 262,792 262,793 263,794 263,795 263,796 263,797 263,798 263,799 264,800 264,801 264,802 264,803 264,804 265,805 265,806 265,807 265,808 265,809 265,810 265,811 265,812 265,813 265,814 265,815 266,816 266,817 266,818 266,819 266,820 267,821 267,822 267,823 267,824 267,825 267,826 267,827 267,828 267,829 268,830 268,831 268,832 268,833 268,834 269,835 269,836 269,837 268,838 269,839 269,840 269,841 269,842 269,843 270,844 270,845 270,846 270,847 270,848 270,849 270,850 270,851 270,852 270,853 270,854 271,855 271,856 271,857 271,858 271,859 271,860 272,861 272,862 272,863 273,863 273,862 272,861 272,860 272,859 272,858 272,857 272,856 272,855 272,854 272,853 272,852 272,851 272,850 272,849 272,848 272,847 272,846 272,845 272,844 272,843 272,842 272,841 272,840 272,839 271,838 271,837 271,836 272,835 271,834 271,833 271,832 271,831 271,830 271,829 271,828 271,827 271,826 271,825 271,824 271,823 271,822 271,821 270,820 270,819 270,818 270,817 270,816 270,815 270,814 270,813 270,812 270,811 270,810 270,809 270,808 270,807 270,806 270,805 270,804 270,803 270,802 270,801 270,800 269,799 269,798 269,797 269,796 269,795 269,794 269,793 269,792 269,791 269,790 269,789 269,788 269,787 269,786 269,785 269,784 269,783 269,782 269,781 269,780 269,779 269,778 269,777 269,776 269,775 269,774 269,773 269,772 269,771 269,770 269,769 269,768 268,767 268,766 268,765 268,764 268,763 268,762 268,761 268,760 268,759 268,758 268,757 268,756 268,755 268,754 268,753 267,752 267,751 267,750 267,749 267,748 267,747 267,746 267,745 267,744 267,743 267,742 267,741 267,740 267,739 267,738 267,737 267,736 266,735 266,734 266,733 266,732 266,731 266,730 266,729 266,728 266,727 266,726 266,725 266,724 266,723 266,722 265,721 265,720 265,719 265,718 265,717 265,716 265,715 265,714 265,713 265,712 264,711 264,710 264,709 264,708 264,707 264,706 264,705 263,704 263,703 263,702 263,701 263,700 263,699 264,698 263,697 263,696 263,695 263,694 263,693 263,692 263,691 263,690 263,689 263,688 263,687 263,686 262,685 262,684 263,683 262,682 262,681 262,680 262,679 262,678 262,677 262,676 262,675 263,674 264,673 265,673 266,673 267,673 268,673 269,673 270,673 271,673 272,673 273,673 274,673 275,673 276,674 277,675 278,674 279,673 280,673 281,673 282,673 283,673 284,673 285,673 286,673 287,673 288,673 289,673 290,673 291,673 292,673 293,673 294,673 295,673 296,673 297,673 298,673 299,673 300,673 301,673 302,673 303,673 304,674 305,674 306,674 307,674 308,674 309,674 310,674 311,674 312,674 313,673 314,673 315,673 316,673 317,673 318,673 319,673 320,673 321,673 322,673 323,673 324,673 325,673 326,673 327,673 328,672 329,672 330,672 331,672 332,672 333,672 334,672 335,672 336,671 337,671 338,671 339,671 340,671 341,671 342,671 343,671 344,671 345,671 346,670 347,670 348,670 349,670 350,670 351,670 352,670 353,670 354,669 355,669 356,669 357,669 358,669 359,668 360,668 361,668 362,668 363,668 364,668 365,667 366,667 367,667 368,666 369,666 370,666 371,666 372,666 373,666 374,665 375,665 376,665 377,664 378,664 379,664 380,663 381,663 382,663 383,663 384,662 385,662 386,661 387,661 388,660 389,660 390,660 391,659 392,659 393,659 394,658 395,657 396,657 397,656 398,655 399,654 400,654 401,653 402,652 403,651 404,650 404,649 405,648 406,647 406,646 406,645 407,644 407,643 408,642 408,641 408,640 409,639 409,638 409,637 409,636 409,635 409,634 409,633 409,632 409,631 408,630 408,629 408,628 408,627 407,626 407,625 406,624 406,623 406,622 405,621 405,620 404,619 404,618 403,617 402,616 401,615 400,614 399,613 398,613 397,612 396,612 395,611 394,611 393,610 392,610 391,610 390,610 389,610 388,610 387,610 386,610 385,610 384,610 383,611 382,611 381,611 380,611 379,611 378,612 377,611 376,611 375,611 374,611 373,610 372,610 371,610 370,610 369,610 368,610 367,611 366,611 365,611 364,611 363,611 362,611 361,611 360,611 359,611 358,611 357,610 356,610 355,610 354,610 353,610 352,610 351,610 350,610 349,610">
      <metadata tailDirection="" confidence="0.00" linkedToCharacter="" id="FOX_CHILLINTALES_T17_016_balloon_13" tailTip=""></metadata>
    </polygon>
    <polygon points="452,609 451,610 450,610 449,610 448,610 447,611 446,611 445,612 444,612 443,612 442,612 441,612 440,612 439,612 438,612 437,611 436,611 435,611 434,612 433,613 432,614 432,615 431,616 431,617 430,618 430,619 429,620 428,621 428,622 427,623 426,624 426,625 425,626 425,627 424,628 424,629 424,630 423,631 422,632 422,633 422,634 421,635 421,636 421,637 421,638 420,639 420,640 420,641 420,642 420,643 420,644 420,645 419,646 419,647 419,648 419,649 419,650 419,651 419,652 419,653 419,654 419,655 419,656 419,657 419,658 419,659 419,660 418,661 419,662 419,663 419,664 420,665 420,666 420,667 421,668 421,669 421,670 421,671 422,672 422,673 422,674 423,675 423,676 423,677 424,678 424,679 425,680 425,681 426,682 427,683 428,684 428,685 429,686 430,687 431,688 432,689 433,690 434,691 435,692 436,692 437,693 438,694 439,695 440,696 441,697 442,697 443,698 444,698 445,699 446,700 447,700 448,701 449,702 450,702 451,703 452,704 453,704 454,705 455,705 456,706 457,706 458,707 459,707 460,707 461,708 462,708 463,708 464,709 465,709 466,709 467,710 468,711 469,711 470,712 470,713 471,714 471,715 471,716 471,717 470,718 470,719 469,720 469,721 469,722 469,723 469,724 468,725 468,726 468,727 468,728 468,729 467,730 467,731 467,732 466,733 466,734 465,735 465,736 465,737 465,738 465,739 464,740 464,741 464,742 464,743 463,744 463,745 463,746 463,747 462,748 462,749 461,750 461,751 461,752 460,753 460,754 460,755 459,756 459,757 459,758 459,759 459,760 459,761 458,762 458,763 458,764 458,765 457,766 457,767 457,768 457,769 457,770 456,771 456,772 455,773 455,774 455,775 455,776 455,777 455,778 454,779 454,780 454,781 454,782 454,783 454,784 453,785 453,786 453,787 452,788 452,789 452,790 452,791 451,792 451,793 451,794 450,795 450,796 450,797 449,798 449,799 449,800 449,801 448,802 448,803 448,804 448,805 448,806 447,807 447,808 447,809 447,810 446,811 446,812 445,813 445,814 444,815 444,816 444,817 444,818 445,817 445,816 445,815 446,814 446,813 446,812 447,811 447,810 448,809 448,808 448,807 449,806 449,805 450,804 450,803 451,802 451,801 452,800 452,799 453,798 453,797 453,796 454,795 454,794 454,793 455,792 455,791 456,790 456,789 457,788 458,787 458,786 458,785 459,784 459,783 460,782 460,781 461,780 461,779 461,778 462,777 462,776 463,775 463,774 464,773 464,772 464,771 465,770 465,769 466,768 466,767 467,766 467,765 467,764 467,763 468,762 468,761 469,760 469,759 469,758 470,757 470,756 471,755 471,754 471,753 472,752 472,751 472,750 473,749 473,748 474,747 474,746 475,745 475,744 476,743 476,742 476,741 477,740 477,739 477,738 478,737 478,736 479,735 479,734 480,733 480,732 480,731 481,730 481,729 481,728 482,727 483,726 484,725 484,724 484,723 485,722 485,721 485,720 486,719 487,718 487,717 488,716 489,716 490,715 491,716 492,716 493,716 494,716 495,716 496,716 497,716 498,716 499,716 500,716 501,716 502,716 503,716 504,716 505,716 506,716 507,716 508,717 509,717 510,717 511,717 512,717 513,717 514,717 515,717 516,717 517,717 518,717 519,717 520,717 521,717 522,717 523,717 524,717 525,717 526,717 527,717 528,717 529,717 530,717 531,717 532,717 533,718 534,718 535,718 536,717 537,717 538,717 539,717 540,717 541,717 542,717 543,717 544,717 545,717 546,717 547,717 548,717 549,717 550,717 551,717 552,716 553,716 554,716 555,716 556,716 557,716 558,716 559,716 560,716 561,716 562,716 563,716 564,715 565,715 566,715 567,715 568,715 569,715 570,715 571,715 572,715 573,714 574,714 575,714 576,714 577,714 578,714 579,713 580,713 581,713 582,713 583,713 584,713 585,713 586,713 587,712 588,712 589,712 590,712 591,712 592,711 593,711 594,710 595,710 596,710 597,710 598,709 599,709 600,709 601,709 602,708 603,708 604,707 605,707 606,706 607,706 608,705 609,705 610,705 611,704 612,703 613,703 614,702 615,702 616,702 617,701 618,701 619,701 620,700 621,700 622,700 623,700 624,700 625,700 626,700 627,699 628,699 629,698 630,698 631,697 632,697 633,696 634,695 635,695 636,694 637,693 638,692 639,691 640,690 641,689 642,688 643,687 644,686 645,685 646,684 646,683 647,682 648,681 649,680 649,679 650,678 651,677 651,676 652,675 652,674 652,673 653,672 653,671 653,670 654,669 654,668 654,667 655,666 655,665 656,664 656,663 657,662 657,661 657,660 657,659 657,658 658,657 658,656 658,655 658,654 658,653 658,652 658,651 658,650 658,649 658,648 658,647 658,646 658,645 658,644 658,643 659,642 658,641 658,640 658,639 657,638 657,637 657,636 657,635 657,634 656,633 656,632 656,631 655,630 655,629 655,628 654,627 654,626 653,625 652,624 652,623 652,622 651,621 650,620 650,619 649,618 649,617 648,616 647,615 646,614 645,614 644,613 643,612 642,611 641,611 640,611 639,610 638,610 637,610 636,610 635,610 634,611 633,611 632,611 631,611 630,611 629,611 628,611 627,611 626,610 625,610 624,610 623,610 622,610 621,610 620,610 619,610 618,610 617,610 616,610 615,610 614,611 613,611 612,611 611,611 610,611 609,611 608,611 607,611 606,611 605,611 604,611 603,612 602,612 601,612 600,612 599,611 598,612 597,612 596,612 595,612 594,612 593,612 592,611 591,611 590,611 589,611 588,611 587,611 586,611 585,611 584,610 583,610 582,610 581,610 580,610 579,610 578,611 577,610 576,610 575,610 574,610 573,610 572,611 571,611 570,611 569,611 568,611 567,611 566,610 565,611 564,611 563,610 562,610 561,611 560,610 559,610 558,609 557,609 556,609 555,609 554,609 553,610 552,610 551,610 550,610 549,611 548,611 547,611 546,611 545,611 544,612 543,611 542,612 541,611 540,611 539,611 538,611 537,611 536,612 535,612 534,613 533,612 533,611 533,610 532,610 531,611 530,610 529,610 528,611 527,611 526,611 525,611 524,611 523,612 522,612 521,612 520,612 519,612 518,612 517,612 516,612 515,612 514,612 513,612 512,612 511,611 510,611 509,611 508,611 507,611 506,610 505,610 504,610 503,610 502,611 501,611 500,611 499,611 498,611 497,611 496,611 495,611 494,611 493,611 492,611 491,611 490,611 489,611 488,611 487,611 486,611 485,610 484,610 483,610 482,610 481,610 480,610 479,610 478,610 477,610 476,611 475,611 474,611 473,611 472,611 471,611 470,611 469,611 468,611 467,611 466,612 465,612 464,612 463,612 462,612 461,612 460,611 459,611 458,610 457,610 456,610 455,610 454,609 453,609 452,609">
      <metadata tailDirection="" confidence="0.00" linkedToCharacter="" id="FOX_CHILLINTALES_T17_016_balloon_14" tailTip=""></metadata>
    </polygon>
    <polygon points="485,123 484,124 483,125 482,126 481,127 480,128 479,129 478,130 477,131 476,132 475,132 474,132 473,133 472,133 471,134 470,134 469,134 468,134 467,135 466,135 465,135 464,136 463,136 462,135 461,135 460,135 459,135 458,135 457,136 456,136 455,137 454,137 453,136 452,136 451,136 450,136 449,136 448,136 447,136 446,137 445,137 444,137 443,137 442,137 441,137 440,137 439,137 438,137 437,137 436,137 435,137 434,137 433,137 432,137 431,137 430,138 429,137 428,137 427,137 426,137 425,137 424,137 423,138 422,137 421,137 420,137 419,137 418,138 417,138 416,138 415,137 414,138 413,138 412,138 411,138 410,138 409,138 408,138 407,138 406,138 405,138 404,138 403,138 402,138 401,138 400,138 399,138 398,138 397,138 396,138 395,138 394,138 393,137 392,137 391,137 390,137 389,137 388,137 387,137 386,137 385,136 384,136 383,136 382,136 381,137 380,137 379,137 378,137 377,136 376,137 375,136 374,136 373,136 372,136 371,136 370,136 369,136 368,136 367,136 366,136 365,136 364,136 363,136 362,136 361,136 360,136 359,136 358,136 357,136 356,136 355,136 354,136 353,136 352,136 351,136 350,136 349,136 348,136 347,136 346,136 345,136 344,136 343,136 342,136 341,136 340,136 339,135 338,135 337,135 336,135 335,135 334,135 333,135 332,135 331,135 330,135 329,135 328,135 327,135 326,135 325,135 324,135 323,134 322,134 321,134 320,135 319,135 320,136 320,137 321,138 321,139 321,140 322,141 322,142 322,143 322,144 322,145 322,146 321,147 321,148 321,149 320,150 320,151 320,152 320,153 319,154 318,155 318,156 317,157 316,158 315,159 314,160 313,161 312,162 311,163 310,164 309,165 308,165 307,166 306,166 305,166 304,166 303,167 302,167 301,167 300,168 299,168 298,168 297,168 296,169 295,169 294,170 293,170 292,170 291,171 290,171 289,171 288,171 287,171 286,171 285,172 284,172 283,172 282,172 281,172 280,172 279,172 278,172 277,172 276,172 275,172 274,173 273,174 272,174 271,173 270,173 269,173 268,173 267,173 266,173 265,173 264,173 263,173 262,173 261,173 260,173 259,173 258,174 257,174 256,174 255,173 254,173 253,174 252,174 251,173 250,173 249,173 248,173 247,173 246,173 245,173 244,173 243,173 243,174 242,175 241,174 240,174 239,173 238,173 237,173 236,173 235,173 234,172 233,172 232,173 231,172 230,172 229,172 228,172 227,172 226,172 225,172 224,172 223,172 222,172 221,171 220,171 219,171 218,171 217,171 216,171 215,170 214,170 213,169 212,169 211,169 210,169 209,169 209,170 209,171 210,172 210,173 210,174 210,175 209,176 209,177 209,178 208,179 208,180 208,181 207,182 207,183 206,184 205,185 204,186 203,186 202,187 201,188 200,188 199,188 198,189 197,190 196,190 195,191 194,191 193,191 192,192 191,193 190,193 189,193 188,193 187,194 186,194 185,194 184,194 183,194 182,194 181,195 180,195 179,195 178,195 177,195 176,195 175,195 174,196 173,196 172,196 171,196 170,197 170,198 169,199 168,200 167,201 166,202 166,203 165,204 165,205 164,206 164,207 163,208 163,209 162,210 162,211 161,212 161,213 161,214 161,215 161,216 161,217 161,218 161,219 161,220 161,221 161,222 161,223 161,224 161,225 161,226 161,227 161,228 161,229 161,230 161,231 161,232 161,233 162,234 162,235 162,236 163,237 163,238 164,239 164,240 165,241 165,242 166,243 167,243 168,244 169,244 170,245 171,245 172,246 173,247 174,247 175,248 176,249 177,250 178,251 179,252 180,252 181,253 182,254 182,255 183,256 184,257 184,258 185,258 186,258 187,258 188,258 189,259 190,259 191,259 192,260 193,260 194,260 195,260 196,260 197,261 198,261 199,261 200,262 201,262 202,262 203,262 204,262 205,262 206,262 207,263 208,263 209,263 210,263 211,263 212,263 213,264 214,264 215,264 216,264 217,264 218,264 219,264 220,264 221,264 222,265 223,265 224,265 225,265 226,265 227,265 228,265 229,265 230,265 231,265 232,265 233,265 234,265 235,265 236,265 237,265 238,265 239,265 240,265 241,265 242,265 243,265 244,266 245,266 246,266 247,266 248,266 249,266 250,266 251,266 252,266 253,266 254,266 255,266 256,266 257,266 258,266 259,266 260,266 261,266 262,266 263,266 264,266 265,266 266,267 267,266 268,266 269,266 270,266 271,266 272,266 273,266 274,266 275,266 276,266 277,266 278,266 279,266 280,266 281,266 282,266 283,266 284,267 285,267 286,267 287,267 288,267 289,267 290,267 291,267 292,267 293,267 294,266 295,266 296,267 297,267 298,267 299,267 300,267 301,267 302,267 303,267 304,267 305,267 306,267 307,267 308,267 309,267 310,267 311,267 312,267 313,267 314,267 315,267 316,267 317,267 318,267 319,267 320,267 321,267 322,267 323,267 324,267 325,267 326,267 327,267 328,267 329,267 330,267 331,267 332,267 333,267 334,267 335,267 336,267 337,267 338,267 339,267 340,267 341,267 342,267 343,267 344,267 345,267 346,267 347,267 348,267 349,267 350,267 351,267 352,267 353,267 354,267 355,267 356,267 357,267 358,267 359,267 360,267 361,267 362,267 363,267 364,267 365,266 366,266 367,266 368,266 369,266 370,266 371,266 372,266 373,266 374,266 375,266 376,266 377,266 378,266 379,266 380,266 381,266 382,266 383,266 384,266 385,266 386,266 387,266 388,266 389,266 390,266 391,266 392,266 393,266 394,266 395,266 396,266 397,266 398,266 399,266 400,266 401,266 402,266 403,266 404,266 405,266 406,266 407,266 408,267 409,267 410,268 410,269 410,270 410,271 409,272 409,273 409,274 408,275 408,276 408,277 407,278 407,279 407,280 407,281 407,282 406,283 406,284 406,285 405,286 405,287 405,288 405,289 404,290 404,291 404,292 403,293 403,294 403,295 402,296 402,297 402,298 401,299 401,300 401,301 401,302 400,303 400,304 400,305 399,306 399,307 398,308 398,309 398,310 398,311 397,312 397,313 397,314 396,315 396,316 396,317 395,318 395,319 396,319 396,318 397,317 397,316 398,315 398,314 399,313 400,312 400,311 401,310 402,309 402,308 403,307 404,306 405,305 405,304 406,303 406,302 407,301 407,300 407,299 408,298 409,297 409,296 410,295 411,294 411,293 411,292 412,291 413,290 414,289 414,288 415,287 415,286 416,285 417,284 417,283 418,282 418,281 419,280 419,279 420,278 420,277 421,276 421,275 422,274 423,273 423,272 424,271 424,270 425,269 426,269 426,268 427,267 428,266 429,265 430,265 431,264 432,264 433,264 434,263 435,263 436,263 437,263 438,263 439,263 440,263 441,263 442,263 443,263 444,263 445,263 446,263 447,263 448,262 449,262 450,262 451,262 452,262 453,262 454,262 455,262 456,262 457,262 458,262 459,262 460,261 461,261 462,261 463,261 464,261 465,261 466,261 467,260 468,260 469,260 470,260 471,259 472,259 473,259 474,259 475,259 476,258 477,258 478,258 479,258 480,258 481,257 482,257 483,256 484,256 485,255 485,254 485,253 486,252 486,251 486,250 486,249 486,248 486,247 485,246 485,245 485,244 485,243 485,242 485,241 485,240 485,239 485,238 485,237 485,236 485,235 485,234 485,233 485,232 485,231 485,230 485,229 485,228 485,227 486,226 486,225 486,224 486,223 486,222 485,221 485,220 485,219 485,218 485,217 485,216 485,215 485,214 485,213 485,212 485,211 485,210 485,209 485,208 485,207 485,206 485,205 485,204 486,203 485,202 485,201 485,200 485,199 485,198 485,197 485,196 485,195 485,194 485,193 486,192 485,191 485,190 485,189 485,188 485,187 485,186 485,185 485,184 485,183 485,182 485,181 485,180 485,179 485,178 485,177 485,176 485,175 485,174 485,173 485,172 485,171 485,170 486,169 486,168 485,167 485,166 486,165 486,164 485,163 485,162 485,161 485,160 485,159 485,158 485,157 485,156 485,155 485,154 485,153 485,152 485,151 485,150 485,149 485,148 485,147 485,146 485,145 485,144 485,143 485,142 485,141 485,140 485,139 485,138 485,137 485,136 485,135 485,134 485,133 485,132 485,131 485,130 485,129 485,128 485,127 485,126 485,125 485,124 485,123">
      <metadata tailDirection="" confidence="0.00" linkedToCharacter="" id="FOX_CHILLINTALES_T17_016_balloon_15" tailTip=""></metadata>
    </polygon>
    <polygon points="298,68 297,69 296,69 295,69 294,69 293,69 292,69 291,69 290,69 289,69 288,69 287,69 286,69 285,69 284,69 283,69 282,69 281,69 280,69 279,69 278,69 277,69 276,69 275,69 274,69 273,69 272,69 271,69 270,69 269,69 268,69 267,69 266,69 265,69 264,69 263,69 262,69 261,69 260,69 259,69 258,69 257,69 256,69 255,69 254,69 253,69 252,69 251,69 250,69 249,69 248,69 247,69 246,69 245,69 244,69 243,69 242,69 241,69 240,69 239,69 238,69 237,69 236,69 235,69 234,69 233,69 232,69 231,69 230,69 229,69 228,69 227,69 226,69 225,69 224,69 223,69 222,69 221,69 220,69 219,69 218,69 217,69 216,69 215,69 214,69 213,69 212,69 211,69 210,69 209,69 208,69 207,69 206,69 205,69 204,69 203,69 202,69 201,69 200,69 199,69 198,69 197,69 196,69 195,69 194,69 193,69 192,69 191,69 190,69 189,69 188,69 187,69 186,69 185,69 184,69 183,69 182,69 181,69 180,70 179,70 178,69 177,69 176,69 175,69 174,69 173,69 172,69 171,70 170,69 169,69 168,69 167,69 166,69 165,69 164,69 163,70 162,70 161,70 160,70 159,70 158,70 157,70 156,70 155,70 154,70 153,69 152,69 151,70 150,70 149,70 148,69 147,69 146,69 145,69 144,69 143,70 142,69 141,70 140,70 139,70 138,70 137,70 136,70 135,70 134,70 133,70 132,70 131,70 130,70 129,70 128,70 127,70 126,70 125,70 124,70 123,70 122,70 121,70 120,70 119,70 118,70 117,70 116,70 115,70 114,70 113,70 112,70 111,70 110,70 109,70 108,70 107,70 106,70 105,70 104,70 103,70 102,70 101,70 100,70 99,70 98,70 97,70 96,70 95,70 94,70 93,70 92,70 91,70 90,70 89,70 88,70 87,70 86,70 85,70 84,70 83,70 82,70 81,70 80,70 79,70 78,70 77,70 76,70 75,70 74,70 73,70 72,70 71,70 70,70 69,70 68,70 67,70 66,70 65,70 64,70 63,70 62,70 61,70 60,70 59,70 58,70 57,70 56,70 55,70 54,70 53,71 52,72 51,71 50,71 49,72 48,72 47,71 46,71 46,72 46,73 46,74 45,75 45,76 45,77 45,78 45,79 46,80 45,81 45,82 45,83 45,84 45,85 46,86 45,87 46,88 45,89 45,90 45,91 46,92 45,93 45,94 45,95 45,96 45,97 45,98 45,99 45,100 45,101 45,102 45,103 45,104 45,105 45,106 45,107 45,108 45,109 45,110 45,111 45,112 45,113 45,114 45,115 45,116 45,117 45,118 45,119 45,120 45,121 45,122 45,123 45,124 45,125 45,126 45,127 45,128 45,129 45,130 45,131 45,132 45,133 45,134 45,135 44,136 44,137 45,138 45,139 45,140 45,141 44,142 44,143 45,144 45,145 45,146 45,147 45,148 45,149 45,150 45,151 45,152 45,153 45,154 45,155 45,156 45,157 45,158 45,159 45,160 45,161 45,162 45,163 45,164 45,165 45,166 45,167 45,168 45,169 45,170 45,171 44,172 44,173 44,174 44,175 45,176 45,177 44,178 44,179 44,180 44,181 44,182 44,183 44,184 44,185 44,186 44,187 44,188 45,188 46,189 47,189 48,190 49,190 50,190 51,191 52,191 53,191 54,191 55,191 56,191 57,191 58,191 59,192 60,192 61,193 62,194 63,195 63,196 63,197 64,198 64,199 64,200 65,201 65,202 65,203 65,204 65,205 65,206 66,207 66,208 66,209 66,210 66,211 66,212 67,213 67,214 67,215 67,216 67,217 67,218 67,219 67,220 68,221 68,222 68,223 68,224 68,225 68,226 69,227 69,228 69,229 69,230 69,231 69,232 69,233 70,234 70,235 70,236 71,237 70,238 70,239 71,238 71,237 71,236 71,235 70,234 71,233 71,232 71,231 71,230 72,229 72,228 72,227 72,226 72,225 72,224 72,223 72,222 73,221 73,220 73,219 73,218 73,217 73,216 73,215 73,214 73,213 74,212 74,211 74,210 74,209 74,208 74,207 74,206 74,205 74,204 75,203 75,202 75,201 75,200 75,199 75,198 76,197 76,196 77,195 78,194 79,193 80,193 81,192 82,192 83,192 84,192 85,192 86,193 87,193 88,193 89,193 90,193 91,193 92,193 93,193 94,193 95,193 96,193 97,193 98,193 99,193 100,193 101,193 102,193 103,193 104,193 105,193 106,193 107,193 108,193 109,193 110,193 111,193 112,193 113,193 114,193 115,193 116,193 117,193 118,193 119,193 120,193 121,193 122,193 123,193 124,193 125,193 126,193 127,193 128,193 129,193 130,193 131,193 132,193 133,193 134,193 135,193 136,193 137,193 138,193 139,193 140,193 141,193 142,193 143,192 144,192 145,192 146,192 147,192 148,192 149,192 150,192 151,192 152,192 153,191 154,192 155,191 156,192 157,191 158,191 159,191 160,191 161,190 162,190 163,190 164,190 165,190 166,190 167,190 168,190 169,189 170,189 171,189 172,189 173,188 174,188 175,188 176,188 177,188 178,187 179,187 180,187 181,187 182,186 183,186 184,186 185,186 186,186 187,185 188,185 189,185 190,185 191,184 192,184 193,184 194,184 195,183 196,183 197,182 198,181 199,181 200,181 201,180 202,179 203,179 203,178 204,177 204,176 204,175 204,174 204,173 203,172 203,171 203,170 202,169 202,168 201,167 201,166 200,165 200,164 199,163 200,162 201,161 202,161 203,161 204,161 205,161 206,162 207,162 208,162 209,162 210,163 211,163 212,163 213,163 214,163 215,163 216,164 217,164 218,164 219,164 220,164 221,164 222,164 223,164 224,165 225,165 226,164 227,164 228,165 229,165 230,165 231,165 232,165 233,165 234,165 235,165 236,166 237,165 238,166 239,166 240,166 241,166 242,166 243,166 244,166 245,166 246,166 247,166 248,166 249,166 250,166 251,166 252,166 253,166 254,166 255,166 256,166 257,166 258,166 259,166 260,166 261,166 262,166 263,166 264,166 265,166 266,166 267,165 268,165 269,165 270,165 271,165 272,165 273,165 274,165 275,165 276,165 277,165 278,165 279,165 280,165 281,165 282,165 283,164 284,164 285,164 286,164 287,164 288,164 289,163 290,163 291,162 292,162 293,162 294,162 295,162 296,162 297,161 298,161 299,161 300,160 301,160 302,160 303,159 304,159 305,159 306,158 307,158 308,157 309,157 310,156 311,155 312,154 313,153 313,152 314,151 314,150 315,149 316,148 316,147 316,146 316,145 316,144 316,143 316,142 316,141 315,140 315,139 314,138 314,137 314,136 313,135 313,134 313,133 312,132 311,132 310,131 309,130 309,129 310,128 311,127 312,126 313,126 314,126 315,126 316,126 317,127 318,127 319,127 320,127 321,127 322,127 323,127 324,127 325,127 326,127 327,128 328,128 329,128 330,128 331,128 332,128 333,128 334,129 335,129 336,129 337,129 338,129 339,129 340,129 341,129 342,129 343,129 344,129 345,129 346,129 347,129 348,129 349,130 350,130 351,130 352,130 353,130 354,130 355,130 356,130 357,130 358,130 359,130 360,130 361,130 362,130 363,130 364,130 365,130 366,130 367,131 368,131 369,131 370,131 371,131 372,131 373,131 374,131 375,131 376,131 377,131 378,131 379,131 380,131 381,131 382,131 383,131 384,131 385,131 386,131 387,131 388,131 389,131 390,131 391,131 392,131 393,131 394,131 395,131 396,131 397,131 398,131 399,131 400,131 401,132 402,132 403,131 404,131 405,132 406,132 407,132 408,132 409,132 410,132 411,132 412,132 413,132 414,131 415,131 416,131 417,131 418,131 419,131 420,131 421,131 422,131 423,131 424,131 425,131 426,131 427,131 428,131 429,131 430,131 431,131 432,131 433,131 434,130 435,131 436,131 437,131 438,131 439,131 440,131 441,131 442,131 443,131 444,131 445,131 446,130 447,130 448,130 449,130 450,130 451,130 452,130 453,129 454,129 455,130 456,129 457,129 458,129 459,129 460,129 461,129 462,129 463,128 464,128 465,128 466,128 467,128 468,127 469,127 470,127 471,126 472,126 473,125 474,125 475,124 476,124 477,123 478,123 479,122 480,121 481,120 482,120 482,119 483,118 484,117 484,116 484,115 485,114 485,113 485,112 485,111 485,110 485,109 485,108 485,107 485,106 485,105 485,104 485,103 485,102 485,101 485,100 485,99 485,98 485,97 484,96 484,95 485,94 485,93 485,92 485,91 484,90 484,89 485,88 485,87 485,86 485,85 484,84 484,83 484,82 484,81 484,80 484,79 484,78 484,77 484,76 485,75 485,74 484,73 484,72 484,71 484,70 484,69 484,68 483,68 482,68 481,69 480,68 479,68 478,68 477,68 476,68 475,68 474,68 473,68 472,68 471,68 470,68 469,68 468,68 467,68 466,68 465,68 464,68 463,68 462,68 461,68 460,68 459,68 458,68 457,68 456,68 455,68 454,68 453,68 452,68 451,68 450,68 449,68 448,68 447,68 446,68 445,68 444,68 443,68 442,68 441,68 440,68 439,68 438,68 437,68 436,68 435,68 434,68 433,68 432,68 431,68 430,68 429,68 428,68 427,68 426,68 425,68 424,68 423,68 422,68 421,68 420,68 419,68 418,68 417,68 416,68 415,68 414,68 413,68 412,68 411,68 410,68 409,68 408,68 407,68 406,68 405,68 404,68 403,68 402,68 401,68 400,68 399,68 398,68 397,68 396,68 395,68 394,68 393,68 392,68 391,68 390,68 389,68 388,68 387,68 386,68 385,68 384,68 383,68 382,68 381,68 380,68 379,68 378,68 377,68 376,69 375,69 374,69 373,69 372,69 371,69 370,69 369,69 368,69 367,69 366,69 365,68 364,68 363,68 362,68 361,68 360,68 359,68 358,68 357,68 356,68 355,68 354,68 353,68 352,68 351,68 350,68 349,68 348,68 347,68 346,68 345,68 344,68 343,69 342,69 341,69 340,69 339,69 338,69 337,69 336,69 335,68 334,68 333,68 332,68 331,68 330,68 329,68 328,68 327,68 326,68 325,69 324,69 323,68 322,68 321,68 320,68 319,69 318,69 317,69 316,69 315,69 314,69 313,69 312,69 311,69 310,69 309,69 308,69 307,69 306,69 305,69 304,69 303,68 302,68 301,68 300,68 299,68 298,68">
      <metadata tailDirection="" confidence="0.00" linkedToCharacter="" id="FOX_CHILLINTALES_T17_016_balloon_16" tailTip=""></metadata>
    </polygon>
  </svg>
</svg>
