<?xml version="1.0" encoding="UTF-8" standalone="no"?>
<svg width="800" xmlns="http://www.w3.org/2000/svg" version="1.0" height="301">
  <title>LAMISSEB_ETPISTAF_005</title>
  <svg contentScriptType="text/ecmascript" zoomAndPan="magnify" contentStyleType="text/css" class="Page" preserveAspectRatio="xMidYMid meet" version="1.0">
    <image xmlns:xlink="http://www.w3.org/1999/xlink" x="0" y="0" width="800" height="301" xlink:href="/media/Donnees/DATA/DATASET/eBDtheque_100/LAMISSEB_ETPISTAF_005.jpg" xlink:type="simple" xlink:actuate="onLoad" preserveAspectRatio="xMidYMid meet" xlink:show="embed"/>
  </svg>
  <style type="text/css" xml:space="preserve">
        * { stroke-linejoin: round; }
        .Unclassified   { fill: orange; stroke: none;   opacity: 1.0; visibility: hidden; }
        .Noise          { fill: pink;   stroke: none;   opacity: 0.2; visibility: hidden; }
        .Panel          { fill: none;   stroke: red;    stroke-width:3; opacity: 0.5; visibility: visible; image-rendering: optimizeSpeed; }
        .Line           { fill: green;  stroke: none;   opacity: 0.5; visibility: visible; image-rendering: optimizeSpeed; }
        .TextArea       { fill: grey;   stroke: none;   opacity: 0.2; visibility: visible; image-rendering: optimizeSpeed; }
        .Balloon        { fill: cyan;   stroke: none;   opacity: 0.5; visibility: visible; image-rendering: optimizeSpeed; }
        .Letter         { fill: blue;   stroke: none;   opacity: 0.2; visibility: hidden; }
        .Object, .Character, .Face  { fill: yellow; stroke: none;   opacity: 0.5; visibility: visible; image-rendering: optimizeSpeed; }
        .Page           { fill: white;  stroke: none;    opacity: 0.5; visibility: visible; }
        .linkSBSC { fill: blue; stroke: none; opacity: 1.0; visibility: visible; }
        polygon:hover { opacity:0.2; }
</style>
  <svg xmlns="http://www.w3.org/2000/svg" contentScriptType="text/ecmascript" zoomAndPan="magnify" contentStyleType="text/css" class="Balloon" preserveAspectRatio="xMidYMid meet" version="1.0">
    <polygon points="635,189 635,190 635,191 635,192 635,193 635,194 636,195 636,196 636,197 636,198 636,199 636,200 636,201 636,202 636,203 636,204 637,205 637,206 637,207 637,208 637,209 637,210 637,211 637,212 637,213 637,214 637,215 637,216 637,217 637,218 636,219 636,220 636,221 636,222 636,223 636,224 636,225 636,226 636,227 636,228 637,228 638,228 639,228 640,229 641,229 642,229 643,229 644,229 645,230 646,230 646,229 646,228 646,227 645,226 645,225 644,224 644,223 645,222 646,222 647,223 648,224 648,225 649,226 649,227 649,228 650,229 650,230 650,231 651,231 652,232 653,232 654,232 655,232 656,232 657,233 658,233 659,233 660,233 661,233 662,234 663,234 664,234 665,233 666,232 667,231 668,230 669,231 669,232 669,233 668,234 668,235 669,235 670,235 671,235 672,235 673,236 674,236 675,236 676,237 677,237 678,237 679,237 680,237 681,237 682,238 683,238 684,238 685,238 686,238 687,239 688,240 689,240 690,240 691,240 692,240 693,241 694,241 695,241 696,241 697,241 698,242 699,242 700,242 701,242 702,242 703,242 704,242 705,243 706,243 707,243 708,243 709,244 710,244 711,244 712,244 713,244 714,244 715,245 716,245 717,245 718,245 719,246 720,246 721,245 722,244 723,243 724,243 725,244 725,245 724,246 723,247 724,247 725,247 726,248 727,248 728,248 729,249 730,249 731,249 732,249 733,250 734,250 735,250 736,250 737,251 738,251 739,251 740,251 741,252 742,252 743,252 744,253 745,253 746,253 745,252 745,251 745,250 745,249 744,248 745,247 746,246 747,247 748,248 748,249 748,250 748,251 748,252 748,253 749,253 750,254 751,254 752,254 753,254 754,254 755,255 756,255 757,255 758,255 759,255 759,254 759,253 759,252 759,251 759,250 759,249 759,248 759,247 759,246 758,245 759,244 759,243 759,242 759,241 759,240 759,239 759,238 759,237 759,236 759,235 759,234 759,233 759,232 759,231 759,230 759,229 759,228 759,227 759,226 759,225 759,224 759,223 759,222 759,221 759,220 759,219 759,218 759,217 759,216 759,215 759,214 758,213 758,212 758,211 758,210 758,209 758,208 758,207 758,206 758,205 758,204 759,203 759,202 759,201 759,200 759,199 759,198 759,197 759,196 758,196 757,196 756,196 755,196 754,196 753,196 752,196 751,196 750,196 749,196 748,196 747,196 746,196 745,196 744,196 743,196 742,196 741,196 740,196 739,196 738,196 737,196 736,196 735,195 734,195 733,195 732,195 731,195 730,195 729,195 728,195 727,195 726,195 725,195 724,194 723,194 722,194 721,194 720,194 719,194 718,193 717,193 716,193 715,194 714,194 713,194 712,193 711,193 710,193 709,193 708,193 707,193 706,193 705,193 704,193 703,193 702,193 701,193 700,193 699,193 698,193 697,193 696,193 695,193 694,193 693,193 692,193 691,193 690,193 689,193 688,193 687,192 686,192 685,192 684,192 683,192 682,192 681,192 680,192 679,192 678,192 677,191 676,191 675,192 674,192 673,192 672,192 671,191 670,191 669,191 668,191 667,191 666,191 665,191 664,191 663,191 662,191 661,191 660,191 659,191 658,191 657,191 656,191 655,191 654,190 653,190 652,190 651,190 650,190 649,190 648,190 647,190 646,190 645,190 644,190 643,189 642,189 641,190 640,189 639,189 638,189 637,189 636,189 635,189">
      <metadata tailDirection="" confidence="0.00" linkedToCharacter="" id="LAMISSEB_ETPISTAF_005_balloon_0" tailTip=""></metadata>
    </polygon>
    <polygon points="772,100 772,101 771,102 770,101 769,102 768,102 767,103 766,104 767,104 768,105 769,106 770,107 771,107 772,106 771,105 772,104 773,103 774,104 775,105 774,106 775,105 776,104 777,105 778,104 779,103 780,104 781,103 782,104 783,104 784,104 783,104 782,104 781,103 780,102 779,101 778,101 777,100 776,100 775,100 774,100 773,100 772,100">
      <metadata tailDirection="" confidence="0.00" linkedToCharacter="" id="LAMISSEB_ETPISTAF_005_balloon_1" tailTip=""></metadata>
    </polygon>
    <polygon points="484,169 485,168 486,168 487,168 488,169 489,169 490,168 491,168 492,168 493,169 494,168 495,168 496,168 497,168 498,168 499,168 500,168 501,168 502,168 503,168 504,168 505,168 506,168 507,168 508,168 509,168 510,168 511,168 512,168 513,168 514,168 515,168 516,168 517,168 518,168 519,168 520,168 521,168 522,168 523,168 524,168 525,168 526,168 527,168 528,168 529,168 530,168 531,168 532,168 533,168 534,168 535,168 536,168 537,168 538,168 539,168 540,168 541,168 542,168 543,168 544,168 545,168 546,168 547,168 548,169 548,170 548,171 548,172 548,173 547,174 547,175 547,176 547,177 547,178 547,179 546,180 545,180 544,180 543,180 542,180 541,180 540,180 539,180 538,180 537,180 536,180 535,181 534,181 533,181 532,181 531,181 530,181 529,181 528,181 527,181 526,181 525,181 524,181 523,181 522,181 521,181 520,181 519,181 518,181 517,181 516,181 515,181 514,181 513,181 512,181 511,181 510,181 509,181 508,182 507,182 506,182 505,182 504,182 503,182 502,182 501,182 500,182 499,182 498,182 497,182 496,182 495,182 494,182 493,182 492,182 491,182 490,182 489,182 488,182 487,182 486,182 485,181 484,180 484,179 484,178 484,177 483,176 483,175 483,174 483,173 483,172 483,171 483,170 484,169">
      <metadata tailDirection="" confidence="0.00" linkedToCharacter="" id="LAMISSEB_ETPISTAF_005_balloon_2" tailTip=""></metadata>
    </polygon>
    <polygon points="539,100 538,101 537,101 536,101 535,101 534,101 533,101 532,101 531,101 530,101 529,101 528,101 527,101 526,101 525,101 524,101 523,102 522,103 521,104 520,105 520,106 519,107 518,108 517,109 516,110 516,111 515,112 514,113 513,114 512,115 511,116 511,117 510,118 509,119 508,120 507,120 506,119 507,118 508,117 508,116 509,115 510,114 511,113 512,112 512,111 513,110 514,109 515,108 516,107 517,106 517,105 518,104 519,103 520,102 521,101 520,101 519,101 518,101 517,101 516,102 515,102 514,102 513,102 512,102 511,102 510,102 509,102 508,102 507,102 506,102 505,103 504,104 503,103 503,102 502,102 501,103 500,103 499,102 498,103 497,103 496,103 495,103 494,103 493,103 492,103 491,103 490,103 489,103 488,103 487,103 486,103 485,103 484,103 483,103 482,103 481,103 480,103 479,103 478,104 477,104 477,105 477,106 476,107 476,108 475,109 475,110 474,111 474,112 473,113 473,114 472,115 472,116 472,117 471,118 471,119 471,120 471,121 470,122 471,122 472,121 473,121 474,120 475,120 476,120 477,119 478,119 479,119 480,119 481,119 482,119 483,119 484,119 485,119 486,119 487,119 488,119 489,119 490,118 491,119 492,119 493,119 494,120 495,120 496,120 497,121 498,121 499,121 500,120 501,120 502,120 503,120 504,121 505,122 505,123 505,124 506,124 507,123 508,124 509,125 509,126 509,127 509,128 508,129 508,130 508,131 508,132 508,133 508,134 509,135 509,136 509,137 509,138 509,139 508,140 508,141 509,141 510,141 511,141 512,141 513,141 514,141 515,141 516,141 517,141 518,141 519,141 520,141 520,140 520,139 520,138 521,137 521,136 522,135 523,134 524,133 525,132 526,132 527,132 528,131 529,131 530,131 531,130 532,130 533,130 534,130 535,130 536,130 537,130 538,129 539,130 540,130 541,130 542,131 543,131 544,132 545,132 546,132 547,133 548,134 548,135 549,136 549,137 549,138 550,138 551,138 552,138 553,138 554,138 555,138 556,137 557,137 558,137 559,137 560,137 561,137 561,136 561,135 561,134 561,133 561,132 561,131 560,130 560,129 560,128 559,127 559,126 559,125 558,124 558,123 558,122 558,121 557,120 557,119 556,118 556,117 556,116 555,115 555,114 555,113 554,112 554,111 553,110 553,109 552,108 552,107 551,106 551,105 550,104 550,103 549,102 549,101 548,100 547,100 546,100 545,100 544,100 543,100 542,100 541,100 540,100 539,100">
      <metadata tailDirection="" confidence="0.00" linkedToCharacter="" id="LAMISSEB_ETPISTAF_005_balloon_3" tailTip=""></metadata>
    </polygon>
    <polygon points="277,242 276,243 275,243 274,243 273,243 272,244 271,244 270,245 269,245 268,245 267,246 266,246 265,247 264,247 263,248 262,248 261,249 260,249 259,249 258,250 257,250 256,251 256,252 256,253 256,254 256,255 256,256 256,257 256,258 256,259 256,260 256,261 256,262 256,263 256,264 256,265 256,266 256,267 256,268 256,269 256,270 256,271 256,272 256,273 256,274 256,275 256,276 256,277 256,278 256,279 256,280 256,281 256,282 256,283 257,283 258,283 259,283 260,283 261,283 262,283 263,283 264,283 265,283 266,283 267,283 268,283 269,283 270,283 271,283 272,283 273,283 274,283 275,283 276,283 277,283 278,283 279,283 280,283 281,283 282,283 283,283 284,283 285,282 285,281 286,280 287,279 288,278 289,277 289,276 290,275 291,274 292,273 293,272 294,272 295,271 296,270 297,269 298,268 299,268 300,267 301,266 302,266 303,265 304,265 305,264 306,264 306,263 305,263 304,262 303,261 302,260 301,260 300,259 299,258 298,257 297,256 296,256 295,255 294,254 293,254 292,253 291,253 290,252 289,251 288,251 287,252 286,252 285,252 284,253 283,253 282,253 281,253 280,253 279,253 278,253 277,253 276,252 275,251 274,250 273,249 273,248 273,247 274,246 275,245 276,244 277,244 278,243 279,243 280,243 281,243 280,242 279,242 278,242 277,242">
      <metadata tailDirection="" confidence="0.00" linkedToCharacter="" id="LAMISSEB_ETPISTAF_005_balloon_4" tailTip=""></metadata>
    </polygon>
    <polygon points="319,27 318,28 317,28 316,28 315,28 314,28 313,28 312,28 311,28 310,28 309,28 308,28 307,28 306,28 305,28 304,28 303,28 302,28 301,28 300,28 299,28 298,28 297,28 296,29 295,29 294,29 293,29 292,29 291,29 290,29 289,30 288,30 287,30 286,30 285,31 284,31 283,31 282,31 281,32 280,32 279,32 278,33 277,33 276,33 275,34 274,34 273,35 272,35 271,36 271,37 271,38 270,39 270,40 270,41 269,42 269,43 269,44 269,45 268,46 268,47 268,48 268,49 268,50 268,51 268,52 268,53 268,54 267,55 267,56 267,57 267,58 267,59 267,60 267,61 267,62 267,63 267,64 267,65 267,66 267,67 267,68 267,69 267,70 267,71 267,72 267,73 267,74 267,75 267,76 267,77 267,78 267,79 268,80 268,81 268,82 268,83 269,84 269,85 269,86 270,87 270,88 270,89 271,90 271,91 271,92 272,93 272,94 273,95 273,96 274,97 275,98 276,98 277,99 278,99 279,99 280,99 281,100 282,100 283,100 284,100 285,100 286,100 287,100 288,100 289,100 290,100 291,100 292,100 293,101 294,101 294,100 294,99 295,98 296,98 297,99 297,100 297,101 297,102 297,103 297,104 297,105 298,106 298,107 298,108 298,109 298,110 299,111 299,112 299,113 300,114 300,115 300,116 301,117 301,118 302,119 302,120 303,121 303,122 303,121 302,120 302,119 302,118 301,117 301,116 301,115 301,114 301,113 300,112 300,111 300,110 300,109 299,108 299,107 299,106 299,105 299,104 299,103 299,102 300,101 300,100 301,99 302,100 303,100 304,100 305,100 306,100 307,100 308,100 309,100 310,100 311,100 312,100 313,100 314,100 315,100 316,100 317,100 318,100 319,100 320,100 321,99 322,99 323,99 324,99 325,99 326,99 327,99 328,99 329,99 330,99 331,99 332,99 333,99 334,99 335,99 336,99 337,99 338,99 339,99 340,99 341,99 342,99 343,99 344,99 345,99 346,99 347,99 348,99 349,99 350,99 351,99 352,99 353,99 354,99 355,99 356,99 357,98 358,98 359,98 360,98 361,98 362,98 363,98 364,98 365,98 366,98 367,98 368,98 369,98 370,98 371,97 372,97 373,97 374,97 375,96 376,96 377,95 378,94 378,93 379,92 379,91 379,90 380,89 380,88 380,87 380,86 380,85 380,84 381,83 381,82 381,81 381,80 381,79 381,78 381,77 381,76 382,75 382,74 382,73 382,72 382,71 382,70 382,69 382,68 382,67 382,66 382,65 382,64 382,63 382,62 382,61 382,60 382,59 382,58 382,57 382,56 382,55 381,54 381,53 381,52 381,51 381,50 380,49 380,48 380,47 380,46 379,45 379,44 379,43 379,42 378,41 378,40 378,39 377,38 376,37 376,36 375,35 374,34 373,33 372,32 371,31 370,31 369,30 368,30 367,30 366,29 365,29 364,29 363,29 362,29 361,29 360,29 359,28 358,28 357,28 356,28 355,28 354,28 353,28 352,28 351,28 350,28 349,28 348,28 347,28 346,28 345,28 344,28 343,28 342,28 341,27 340,27 339,27 338,27 337,27 336,27 335,27 334,27 333,27 332,27 331,27 330,27 329,27 328,27 327,27 326,27 325,27 324,27 323,27 322,27 321,27 320,27 319,27">
      <metadata tailDirection="" confidence="0.00" linkedToCharacter="" id="LAMISSEB_ETPISTAF_005_balloon_5" tailTip=""></metadata>
    </polygon>
    <polygon points="16,138 16,139 16,140 16,141 16,142 16,143 16,144 16,145 16,146 16,147 16,148 16,149 17,149 18,149 19,149 20,149 21,149 22,149 23,150 24,151 24,152 24,153 24,154 24,155 24,156 24,157 24,158 24,159 24,160 24,161 24,162 24,163 24,164 24,165 24,166 24,167 24,168 24,169 24,170 24,171 24,172 24,173 24,174 24,175 24,176 25,177 25,178 25,179 25,180 25,181 25,182 25,183 24,184 23,184 22,184 21,184 20,184 19,184 18,184 17,184 16,185 16,186 16,187 16,188 16,189 16,190 16,191 16,192 16,193 16,194 16,195 16,196 16,197 16,198 16,199 16,200 16,201 16,202 16,203 16,204 16,205 16,206 16,207 16,208 16,209 16,210 16,211 16,212 16,213 16,214 16,215 16,216 16,217 16,218 16,219 16,220 16,221 16,222 16,223 16,224 16,225 16,226 16,227 16,228 16,229 16,230 16,231 16,232 16,233 16,234 16,235 16,236 16,237 16,238 16,239 16,240 16,241 16,242 16,243 16,244 16,245 16,246 16,247 16,248 16,249 16,250 16,251 16,252 16,253 16,254 16,255 16,256 16,257 16,258 16,259 16,260 17,260 18,259 19,259 20,258 21,258 22,258 23,257 24,257 25,257 26,256 27,256 28,256 29,255 30,255 30,254 30,253 31,252 31,251 31,250 31,249 31,248 31,247 31,246 31,245 31,244 31,243 31,242 31,241 31,240 31,239 31,238 31,237 31,236 31,235 31,234 31,233 31,232 31,231 31,230 31,229 31,228 31,227 31,226 31,225 31,224 31,223 31,222 31,221 31,220 31,219 31,218 31,217 31,216 31,215 31,214 31,213 31,212 31,211 31,210 31,209 31,208 31,207 31,206 31,205 31,204 31,203 31,202 31,201 31,200 31,199 31,198 31,197 31,196 31,195 31,194 31,193 31,192 31,191 31,190 31,189 31,188 31,187 31,186 31,185 31,184 31,183 31,182 31,181 31,180 31,179 31,178 31,177 31,176 31,175 31,174 31,173 31,172 31,171 31,170 31,169 31,168 31,167 31,166 31,165 31,164 31,163 31,162 31,161 31,160 31,159 31,158 31,157 31,156 31,155 31,154 31,153 31,152 31,151 31,150 31,149 31,148 31,147 31,146 31,145 31,144 31,143 31,142 31,141 31,140 30,140 29,140 28,139 27,139 26,139 25,139 24,139 23,139 22,139 21,139 20,139 19,138 18,138 17,138 16,138">
      <metadata tailDirection="" confidence="0.00" linkedToCharacter="" id="LAMISSEB_ETPISTAF_005_balloon_6" tailTip=""></metadata>
    </polygon>
    <polygon points="21,196 22,195 23,195 24,195 25,195 26,195 27,196 28,197 28,198 28,199 28,200 27,201 26,202 25,203 24,203 23,203 22,203 21,203 20,202 19,201 18,200 18,199 19,198 20,197 21,196">
      <metadata tailDirection="" confidence="0.00" linkedToCharacter="" id="LAMISSEB_ETPISTAF_005_balloon_7" tailTip=""></metadata>
    </polygon>
    <polygon points="27,14 26,15 25,15 24,15 23,16 22,16 21,17 20,18 19,19 18,20 17,21 17,22 16,23 16,24 16,25 15,26 15,27 15,28 14,29 14,30 14,31 14,32 13,33 13,34 13,35 13,36 13,37 13,38 13,39 13,40 13,41 14,42 14,43 14,44 14,45 14,46 14,47 15,48 15,49 15,50 16,51 16,52 17,53 17,54 18,55 19,55 20,56 21,56 22,57 23,57 24,57 25,57 26,58 27,58 28,58 29,58 30,58 31,58 32,58 33,58 34,58 35,58 36,58 37,58 38,58 39,58 40,58 41,58 42,58 43,58 44,58 45,58 46,58 47,58 48,58 49,58 50,58 51,58 52,58 53,58 54,58 55,58 56,57 57,57 58,57 59,57 60,57 61,57 62,57 63,57 64,57 65,57 66,57 67,57 68,57 69,57 70,57 71,57 72,57 73,57 74,57 75,57 76,57 77,57 78,57 79,57 80,57 81,57 82,57 83,57 84,57 85,57 86,57 87,57 88,57 89,57 90,57 91,57 92,56 93,56 94,56 95,56 96,56 97,56 98,56 99,56 100,56 101,56 102,56 103,56 104,56 105,56 106,56 107,56 108,56 109,56 110,55 111,55 112,55 113,55 114,56 115,56 116,56 117,56 118,55 119,56 120,56 121,56 122,56 123,56 124,56 125,56 126,56 127,56 128,56 129,57 129,58 130,59 131,60 131,61 132,62 132,63 132,64 133,65 133,66 134,67 134,68 134,69 135,70 135,71 135,72 135,73 135,74 134,75 133,74 132,74 131,74 130,74 129,74 128,75 127,75 126,75 125,75 124,75 123,75 122,75 121,75 120,75 119,75 118,75 117,75 116,75 115,75 114,75 113,75 112,75 111,75 110,75 109,75 108,75 107,75 106,75 105,75 104,75 103,75 102,75 101,75 100,75 99,75 98,75 97,75 96,75 95,75 94,75 93,75 92,75 91,75 90,75 89,75 88,75 87,75 86,75 85,75 84,75 83,75 82,75 81,75 80,75 79,75 78,75 77,75 76,75 75,75 74,75 73,75 72,75 71,75 70,75 69,75 68,75 67,75 66,75 65,76 64,76 63,76 62,76 61,76 60,76 59,76 58,76 57,77 56,77 55,77 54,77 53,78 52,78 51,79 50,80 49,81 49,82 48,83 47,84 47,85 47,86 46,87 46,88 45,89 45,90 44,91 43,92 43,93 43,94 42,95 42,96 42,97 42,98 41,99 41,100 41,101 41,102 41,103 41,104 41,105 41,106 41,107 41,108 42,109 42,110 42,111 42,112 42,113 43,114 43,115 43,116 43,117 44,118 44,119 44,120 45,121 45,122 46,123 46,124 47,125 47,126 48,127 49,128 49,129 50,130 51,130 52,131 53,131 54,132 55,132 56,132 57,133 58,133 59,133 60,133 61,133 62,133 63,133 64,133 65,133 66,133 67,133 68,133 69,133 70,133 71,133 72,133 73,133 74,132 75,132 76,132 77,132 78,132 79,132 80,132 81,132 82,132 83,132 84,132 85,132 86,132 87,132 88,132 89,132 90,132 91,132 92,132 93,132 94,132 95,132 96,132 97,132 98,131 99,132 100,132 101,132 102,132 103,132 104,132 105,132 106,132 107,132 108,132 109,132 110,132 111,132 112,132 113,132 114,132 115,132 116,132 117,132 118,132 119,132 120,132 121,132 122,132 123,132 124,132 125,132 126,132 127,132 128,132 129,132 130,132 131,132 132,131 133,131 134,131 135,131 136,131 137,131 138,131 139,131 140,131 141,131 142,131 143,131 144,131 145,131 146,131 147,131 148,131 149,131 150,131 151,131 152,131 153,131 154,131 155,131 156,131 157,131 158,131 159,130 160,130 161,130 162,130 163,130 164,130 165,129 166,130 167,131 168,132 168,133 169,134 169,135 170,136 170,137 170,138 171,139 171,140 171,141 171,142 171,143 172,144 172,145 172,146 172,147 172,148 172,149 172,150 172,151 173,152 173,153 173,154 173,155 173,156 173,157 173,158 173,159 173,160 173,161 173,162 173,163 172,164 171,165 170,164 170,163 169,163 168,163 167,163 166,164 165,164 164,164 163,164 162,164 161,164 160,164 159,164 158,165 157,165 156,165 155,165 154,166 153,166 152,167 151,167 150,168 149,168 148,169 148,170 147,171 146,172 145,173 145,174 144,175 144,176 143,177 143,178 142,179 142,180 142,181 141,182 141,183 141,184 141,185 140,186 140,187 140,188 140,189 140,190 140,191 140,192 140,193 140,194 139,195 139,196 140,197 140,198 140,199 140,200 140,201 140,202 140,203 140,204 140,205 140,206 141,207 141,208 141,209 141,210 141,211 142,212 142,213 142,214 142,215 143,216 143,217 144,218 144,219 145,220 146,221 147,222 148,222 149,222 150,223 151,223 152,223 153,224 154,224 155,224 156,224 157,225 158,225 159,225 160,225 161,225 162,225 163,225 164,225 165,226 165,227 165,228 164,229 164,230 164,231 163,232 163,233 162,234 161,235 161,236 160,237 159,237 158,238 157,238 156,239 155,239 154,238 153,238 152,238 151,238 152,238 153,238 154,239 155,239 156,240 157,240 158,240 159,240 160,240 161,239 162,238 163,237 163,236 164,235 165,234 166,233 166,232 167,231 168,230 168,229 169,228 170,227 170,226 171,225 172,224 173,224 174,225 175,225 176,225 177,225 178,225 179,225 180,225 181,225 182,225 183,225 184,225 185,225 186,225 187,225 188,225 189,225 190,225 191,225 192,225 193,225 194,225 195,225 196,225 197,225 198,225 199,225 200,225 201,225 202,225 203,225 204,225 205,225 206,225 207,225 208,225 209,225 210,225 211,225 212,225 213,225 214,224 215,224 216,224 217,224 218,224 219,224 220,224 221,224 222,224 223,224 224,224 225,224 226,224 227,224 228,224 229,224 230,224 231,224 232,224 233,224 234,224 235,223 236,223 237,222 238,222 239,221 240,220 240,219 241,218 241,217 241,216 242,215 242,214 242,213 242,212 243,211 243,210 243,209 243,208 243,207 244,206 244,205 244,204 244,203 244,202 244,201 244,200 244,199 244,198 244,197 244,196 244,195 244,194 244,193 244,192 244,191 244,190 243,189 243,188 243,187 243,186 243,185 243,184 242,183 242,182 242,181 242,180 241,179 241,178 241,177 240,176 240,175 239,174 239,173 238,172 238,171 237,170 236,170 235,169 234,169 233,168 232,168 231,168 230,167 229,167 228,167 227,166 226,166 225,166 224,166 223,166 222,166 221,166 220,165 219,165 218,165 217,165 216,165 215,165 214,165 213,165 212,165 211,165 210,165 209,164 208,164 207,164 206,164 205,164 204,164 203,164 202,164 201,164 200,164 199,164 198,164 197,164 196,164 195,164 194,164 193,164 192,164 191,164 190,164 189,164 188,164 187,163 186,163 185,163 184,163 183,163 182,163 181,164 180,164 179,163 178,162 178,161 178,160 177,159 177,158 177,157 177,156 176,155 176,154 176,153 175,152 175,151 175,150 175,149 174,148 174,147 174,146 174,145 174,144 173,143 173,142 173,141 173,140 173,139 173,138 172,137 172,136 172,135 172,134 171,133 171,132 171,131 171,130 172,129 173,129 174,128 175,128 176,128 177,128 178,128 179,128 180,128 181,127 182,127 183,127 184,127 185,127 186,127 187,127 188,127 189,127 190,126 191,126 192,126 193,126 194,126 195,126 196,125 197,125 198,125 199,125 200,124 201,123 202,123 202,122 203,121 204,120 205,119 205,118 206,117 207,116 207,115 208,114 208,113 209,112 209,111 209,110 210,109 210,108 210,107 210,106 210,105 210,104 210,103 210,102 210,101 210,100 210,99 210,98 210,97 210,96 210,95 210,94 210,93 210,92 210,91 210,90 210,89 209,88 209,87 209,86 209,85 208,84 208,83 208,82 207,81 207,80 206,80 205,79 204,78 203,78 202,77 201,77 200,77 199,77 198,77 197,77 196,76 195,76 194,76 193,76 192,77 191,76 190,76 189,76 188,76 187,76 186,76 185,76 184,76 183,76 182,76 181,76 180,76 179,76 178,76 177,75 176,75 175,75 174,75 173,75 172,75 171,75 170,75 169,75 168,75 167,75 166,75 165,75 164,75 163,75 162,75 161,75 160,75 159,75 158,75 157,75 156,75 155,75 154,75 153,75 152,75 151,75 150,75 149,75 148,75 147,75 146,75 145,75 144,75 143,75 142,75 141,74 140,73 140,72 139,71 138,70 137,69 137,68 136,67 136,66 135,65 135,64 135,63 134,62 134,61 134,60 133,59 133,58 133,57 134,56 135,56 136,57 137,57 138,57 139,57 140,57 141,57 142,57 143,57 144,57 145,57 146,57 147,57 148,57 149,57 150,57 151,57 152,58 153,58 154,58 155,58 156,58 157,58 158,58 159,58 160,58 161,58 162,58 163,58 164,58 165,58 166,58 167,58 168,58 169,58 170,57 171,57 172,57 173,57 174,57 175,56 176,56 177,56 178,55 179,55 180,55 181,54 182,54 183,53 184,52 185,51 185,50 185,49 186,48 186,47 186,46 187,45 187,44 187,43 187,42 188,41 188,40 188,39 188,38 188,37 189,36 189,35 189,34 189,33 189,32 189,31 189,30 189,29 189,28 189,27 188,26 188,25 188,24 187,23 186,22 186,21 185,20 184,20 183,19 182,19 181,18 180,18 179,18 178,17 177,17 176,17 175,17 174,17 173,17 172,17 171,17 170,17 169,17 168,17 167,17 166,17 165,17 164,17 163,16 162,16 161,16 160,16 159,16 158,16 157,16 156,16 155,16 154,16 153,16 152,16 151,16 150,16 149,16 148,16 147,16 146,16 145,16 144,16 143,16 142,16 141,16 140,16 139,16 138,16 137,16 136,16 135,16 134,16 133,16 132,16 131,16 130,16 129,16 128,16 127,16 126,16 125,16 124,16 123,16 122,16 121,16 120,16 119,16 118,16 117,16 116,16 115,16 114,16 113,16 112,16 111,16 110,16 109,16 108,16 107,16 106,16 105,16 104,16 103,16 102,16 101,16 100,16 99,16 98,16 97,16 96,16 95,16 94,16 93,16 92,16 91,16 90,16 89,16 88,16 87,16 86,16 85,16 84,16 83,16 82,16 81,15 80,15 79,15 78,15 77,15 76,15 75,15 74,15 73,15 72,15 71,15 70,15 69,15 68,15 67,15 66,15 65,15 64,15 63,15 62,15 61,15 60,15 59,15 58,15 57,15 56,15 55,15 54,15 53,15 52,15 51,15 50,15 49,15 48,15 47,15 46,15 45,14 44,14 43,14 42,14 41,14 40,14 39,14 38,14 37,14 36,14 35,14 34,14 33,14 32,14 31,14 30,14 29,14 28,14 27,14">
      <metadata tailDirection="" confidence="0.00" linkedToCharacter="" id="LAMISSEB_ETPISTAF_005_balloon_8" tailTip=""></metadata>
    </polygon>
  </svg>
</svg>
