<?xml version="1.0" encoding="UTF-8" standalone="no"?>
<svg width="800" xmlns="http://www.w3.org/2000/svg" version="1.0" height="301">
  <title>LAMISSEB_ETPISTAF_017</title>
  <svg contentScriptType="text/ecmascript" zoomAndPan="magnify" contentStyleType="text/css" class="Page" preserveAspectRatio="xMidYMid meet" version="1.0">
    <image xmlns:xlink="http://www.w3.org/1999/xlink" x="0" y="0" width="800" height="301" xlink:href="/media/Donnees/DATA/DATASET/eBDtheque_100/LAMISSEB_ETPISTAF_017.jpg" xlink:type="simple" xlink:actuate="onLoad" preserveAspectRatio="xMidYMid meet" xlink:show="embed"/>
  </svg>
  <style type="text/css" xml:space="preserve">
        * { stroke-linejoin: round; }
        .Unclassified   { fill: orange; stroke: none;   opacity: 1.0; visibility: hidden; }
        .Noise          { fill: pink;   stroke: none;   opacity: 0.2; visibility: hidden; }
        .Panel          { fill: none;   stroke: red;    stroke-width:3; opacity: 0.5; visibility: visible; image-rendering: optimizeSpeed; }
        .Line           { fill: green;  stroke: none;   opacity: 0.5; visibility: visible; image-rendering: optimizeSpeed; }
        .TextArea       { fill: grey;   stroke: none;   opacity: 0.2; visibility: visible; image-rendering: optimizeSpeed; }
        .Balloon        { fill: cyan;   stroke: none;   opacity: 0.5; visibility: visible; image-rendering: optimizeSpeed; }
        .Letter         { fill: blue;   stroke: none;   opacity: 0.2; visibility: hidden; }
        .Object, .Character, .Face  { fill: yellow; stroke: none;   opacity: 0.5; visibility: visible; image-rendering: optimizeSpeed; }
        .Page           { fill: white;  stroke: none;    opacity: 0.5; visibility: visible; }
        .linkSBSC { fill: blue; stroke: none; opacity: 1.0; visibility: visible; }
        polygon:hover { opacity:0.2; }
</style>
  <svg xmlns="http://www.w3.org/2000/svg" contentScriptType="text/ecmascript" zoomAndPan="magnify" contentStyleType="text/css" class="Balloon" preserveAspectRatio="xMidYMid meet" version="1.0">
    <polygon points="475,246 476,245 477,245 478,246 478,247 478,248 478,249 478,250 479,251 479,252 479,253 480,254 479,255 478,256 477,256 476,255 475,255 474,256 473,256 473,257 473,258 474,259 474,260 474,261 475,262 475,263 475,262 476,261 477,261 478,262 479,262 480,262 481,262 482,262 483,263 482,264 482,265 482,266 481,267 481,268 481,269 481,270 480,271 480,272 480,273 480,274 480,275 479,276 478,276 477,275 476,275 475,275 474,274 473,275 472,275 471,275 470,275 469,274 468,273 469,272 470,271 470,270 471,269 472,268 472,267 471,268 470,269 469,269 468,268 468,267 468,266 467,265 467,264 467,263 467,262 467,261 467,260 467,259 466,258 466,257 466,256 465,257 466,258 465,259 464,259 463,259 462,259 461,259 460,259 460,260 461,260 462,260 463,260 464,261 463,262 463,263 464,264 463,265 462,265 461,265 460,266 461,266 462,266 463,265 464,264 465,264 466,265 466,266 466,267 467,268 467,269 467,270 468,271 467,272 466,273 465,273 464,273 463,273 462,273 461,273 460,274 459,274 458,274 457,275 456,275 455,276 454,275 453,274 453,273 452,273 451,274 450,274 449,274 448,275 447,275 446,275 445,274 444,273 443,273 443,274 442,275 443,276 444,277 445,278 446,279 447,280 447,281 446,282 445,282 444,282 443,282 442,282 441,281 440,281 439,282 438,282 437,282 436,281 436,280 435,280 434,280 433,280 432,281 431,281 430,281 429,280 428,280 427,280 426,279 425,279 424,278 423,277 422,276 422,275 422,274 422,273 422,272 422,271 423,270 424,269 424,268 424,267 425,266 425,265 425,264 425,263 424,263 423,263 422,263 422,264 421,265 421,266 421,267 420,268 419,269 418,268 417,268 416,267 415,266 414,267 413,267 412,266 412,265 413,264 414,263 415,262 415,261 416,260 417,259 418,258 419,257 419,256 420,255 420,254 421,253 421,252 422,251 423,251 424,251 425,251 426,251 427,251 428,251 429,251 430,251 431,250 432,251 433,252 432,253 432,254 432,255 432,256 432,257 432,258 432,259 433,258 434,258 435,257 436,257 437,257 438,257 439,257 440,257 441,257 442,258 443,258 444,258 445,258 446,257 447,257 448,256 449,256 450,257 450,258 449,259 449,260 449,261 449,262 449,263 449,264 449,265 450,265 450,264 451,263 451,262 451,261 451,260 451,259 450,258 451,257 452,256 453,257 453,256 453,255 452,254 452,253 453,252 454,252 455,252 456,252 457,252 458,252 459,252 458,251 458,250 457,249 457,248 458,247 459,247 460,247 461,247 462,247 463,247 464,248 465,248 466,248 467,248 468,248 469,248 470,247 471,247 472,247 473,247 474,246 475,246">
      <metadata tailDirection="" confidence="0.00" linkedToCharacter="" id="LAMISSEB_ETPISTAF_017_balloon_0" tailTip=""></metadata>
    </polygon>
    <polygon points="264,40 264,41 263,42 263,43 263,44 263,45 263,46 263,47 263,48 263,49 263,50 263,51 263,52 263,53 263,54 263,55 263,56 263,57 263,58 263,59 263,60 263,61 263,62 263,63 263,64 263,65 263,66 263,67 263,68 263,69 263,70 263,71 263,72 263,73 263,74 263,75 263,76 263,77 263,78 263,79 263,80 263,81 263,82 263,83 263,84 263,85 263,86 263,87 263,88 263,89 263,90 263,91 263,92 263,93 263,94 263,95 263,96 263,97 263,98 263,99 263,100 263,101 263,102 263,103 263,104 263,105 263,106 263,107 263,108 263,109 263,110 263,111 263,112 263,113 263,114 263,115 263,116 263,117 263,118 263,119 263,120 263,121 263,122 263,123 263,124 263,125 263,126 263,127 263,128 263,129 263,130 263,131 263,132 263,133 263,134 263,135 263,136 263,137 263,138 263,139 263,140 263,141 263,142 263,143 263,144 263,145 263,146 263,147 263,148 263,149 263,150 263,151 263,152 263,153 263,154 263,155 263,156 263,157 263,158 263,159 263,160 263,161 263,162 263,163 263,164 263,165 263,166 263,167 263,168 263,169 263,170 263,171 263,172 263,173 263,174 263,175 263,176 263,177 263,178 263,179 263,180 263,181 263,182 263,183 263,184 263,185 263,186 263,187 263,188 263,189 263,190 263,191 263,192 263,193 263,194 263,195 263,196 263,197 264,197 265,197 266,197 267,197 268,197 269,197 270,197 271,196 272,196 273,196 274,196 275,196 276,196 277,196 278,196 279,196 280,197 281,197 282,197 283,197 284,197 285,197 286,197 287,197 288,197 289,197 290,197 291,196 292,196 293,196 294,196 295,196 296,196 297,196 298,196 299,196 300,196 301,196 302,195 302,194 302,193 303,192 303,191 303,190 304,189 304,188 304,187 305,186 305,185 305,184 306,183 306,182 306,181 306,180 307,179 307,178 307,177 308,176 308,175 308,174 307,173 306,173 305,172 304,171 303,171 302,170 301,169 301,168 300,167 299,166 299,165 299,164 299,163 299,162 300,161 301,160 301,159 302,158 303,157 304,156 305,155 306,155 307,154 308,153 309,152 310,152 311,151 312,151 313,150 314,150 315,150 316,149 317,149 318,149 319,148 320,148 321,148 322,148 323,147 324,147 325,147 326,147 327,147 328,146 329,146 330,146 331,146 332,146 333,146 334,146 335,146 336,146 337,146 338,146 339,146 340,146 341,145 342,144 343,144 344,143 344,142 345,141 346,140 346,139 347,138 347,137 347,136 348,135 348,134 348,133 349,132 349,131 350,130 350,129 351,128 352,127 352,126 353,125 353,124 354,123 354,122 354,121 354,120 354,119 353,118 353,117 353,116 353,115 352,114 352,113 352,112 351,111 351,110 350,109 349,108 349,107 348,106 347,105 346,104 345,103 344,103 343,104 342,103 341,102 340,102 339,102 338,102 337,101 336,101 335,101 334,101 334,102 334,103 334,104 334,105 334,106 334,107 334,108 334,109 334,110 334,111 334,112 334,113 334,114 334,115 334,116 334,117 334,118 334,119 334,120 334,121 334,122 334,123 334,124 334,125 335,126 335,127 335,128 335,129 335,130 334,131 333,132 332,131 331,131 330,131 329,131 328,131 327,131 326,131 325,131 324,131 323,131 322,131 321,131 320,131 319,131 318,131 317,131 316,131 315,131 314,131 313,131 312,131 311,131 310,131 309,131 308,131 307,131 306,131 305,131 304,131 303,131 302,131 301,132 300,132 299,132 298,132 297,132 296,132 295,132 294,132 293,132 292,132 291,132 290,132 289,132 288,132 287,132 286,132 285,132 284,132 283,132 282,132 281,132 280,132 279,132 278,132 277,132 276,132 275,132 274,133 273,133 272,132 272,131 272,130 272,129 272,128 272,127 272,126 272,125 272,124 272,123 272,122 271,121 271,120 272,119 272,118 272,117 272,116 272,115 272,114 272,113 272,112 272,111 272,110 272,109 272,108 272,107 272,106 272,105 272,104 272,103 272,102 272,101 272,100 272,99 272,98 272,97 272,96 272,95 271,94 271,93 271,92 271,91 271,90 271,89 271,88 271,87 271,86 272,85 272,84 272,83 272,82 272,81 272,80 272,79 272,78 272,77 272,76 272,75 272,74 272,73 272,72 272,71 272,70 272,69 272,68 272,67 272,66 273,65 273,64 273,63 273,62 273,61 273,60 273,59 274,58 275,57 276,57 277,57 278,57 279,57 280,57 281,57 282,57 283,57 284,57 285,57 286,57 287,57 288,57 289,57 290,57 291,57 292,57 293,57 294,57 295,57 296,57 297,57 298,57 299,57 300,57 301,57 302,57 303,57 304,57 305,57 306,57 307,57 308,57 309,57 310,57 311,57 312,57 313,57 314,57 315,57 316,57 317,57 318,57 319,56 320,56 321,56 322,56 323,56 324,56 325,56 326,56 327,56 328,56 329,56 330,56 331,56 332,56 333,56 334,56 335,57 335,58 334,59 334,60 334,61 334,62 334,63 334,64 334,65 334,66 334,67 334,68 334,69 334,70 334,71 334,72 334,73 334,74 334,75 334,76 334,77 334,78 334,79 334,80 334,81 334,82 334,83 334,84 334,85 334,86 335,86 336,86 337,86 338,85 339,85 340,85 341,84 342,84 343,84 344,84 345,84 346,84 347,84 348,84 349,85 350,85 351,86 352,86 353,87 354,88 355,89 356,90 357,91 358,92 359,93 360,94 361,95 362,96 363,97 363,98 364,99 365,100 366,101 367,102 368,103 369,103 370,104 371,103 372,103 373,102 374,102 375,102 376,101 377,101 377,100 377,99 376,98 376,97 375,96 375,95 374,94 374,93 374,92 373,91 373,90 373,89 373,88 373,87 373,86 372,85 372,84 372,83 372,82 371,82 370,81 369,80 369,79 369,78 369,77 369,76 369,75 369,74 368,73 367,72 367,71 367,70 367,69 368,68 369,67 369,66 369,65 370,64 371,64 370,63 370,62 371,61 372,60 373,60 374,59 374,58 375,57 376,57 377,57 378,56 379,56 380,55 381,55 382,55 383,54 384,54 385,54 386,54 387,53 388,53 389,53 390,53 391,53 392,53 393,52 394,52 395,52 396,52 397,51 398,51 399,50 400,50 401,50 402,50 403,51 403,52 404,52 405,52 406,53 407,53 408,53 409,54 410,55 411,55 412,56 413,57 414,58 414,59 415,60 415,61 416,61 417,62 418,63 419,64 420,65 421,65 422,65 423,65 424,65 425,65 426,65 427,65 428,65 429,65 430,65 431,65 432,65 433,65 434,65 435,65 436,65 437,65 438,65 439,65 440,65 441,65 442,65 443,65 444,65 445,65 446,65 447,65 448,65 449,65 450,64 451,65 452,65 453,65 454,64 455,64 456,64 457,64 458,65 458,66 458,65 459,64 460,64 461,64 462,64 463,64 464,64 465,64 466,64 467,64 468,64 469,64 470,64 471,64 472,64 473,64 474,64 475,64 476,64 477,64 478,64 479,64 480,64 481,64 482,64 483,64 484,64 485,64 486,64 487,64 488,64 488,63 488,62 488,61 488,60 488,59 488,58 488,57 488,56 488,55 488,54 488,53 488,52 488,51 488,50 488,49 488,48 488,47 489,46 489,45 489,44 489,43 489,42 488,41 487,41 486,41 485,41 484,41 483,41 482,41 481,41 480,41 479,41 478,41 477,41 476,41 475,41 474,41 473,41 472,41 471,41 470,41 469,41 468,41 467,41 466,41 465,41 464,41 463,41 462,41 461,41 460,41 459,41 458,40 457,40 456,40 455,40 454,41 453,40 452,40 451,41 450,41 449,40 448,40 447,40 446,40 445,40 444,40 443,40 442,41 441,40 440,40 439,40 438,41 437,40 436,41 435,40 434,40 433,40 432,40 431,40 430,40 429,40 428,40 427,40 426,40 425,40 424,40 423,40 422,40 421,40 420,40 419,40 418,40 417,40 416,40 415,40 414,40 413,40 412,40 411,40 410,40 409,40 408,40 407,40 406,40 405,40 404,40 403,40 402,40 401,40 400,40 399,40 398,40 397,40 396,40 395,40 394,40 393,40 392,40 391,40 390,40 389,40 388,40 387,40 386,40 385,40 384,40 383,40 382,40 381,40 380,40 379,40 378,40 377,40 376,40 375,40 374,40 373,40 372,40 371,40 370,40 369,40 368,40 367,40 366,40 365,40 364,40 363,40 362,40 361,40 360,40 359,40 358,40 357,40 356,40 355,40 354,40 353,40 352,40 351,40 350,40 349,40 348,40 347,40 346,40 345,40 344,40 343,40 342,40 341,40 340,40 339,40 338,40 337,40 336,40 335,40 334,40 333,40 332,40 331,40 330,40 329,40 328,40 327,40 326,40 325,40 324,40 323,40 322,40 321,40 320,40 319,40 318,40 317,40 316,40 315,40 314,40 313,40 312,40 311,40 310,40 309,40 308,40 307,40 306,40 305,40 304,40 303,40 302,40 301,40 300,40 299,40 298,40 297,40 296,40 295,40 294,40 293,40 292,40 291,40 290,40 289,40 288,40 287,40 286,40 285,40 284,40 283,40 282,40 281,40 280,40 279,40 278,40 277,40 276,40 275,40 274,40 273,40 272,40 271,40 270,40 269,40 268,40 267,40 266,40 265,40 264,40">
      <metadata tailDirection="" confidence="0.00" linkedToCharacter="" id="LAMISSEB_ETPISTAF_017_balloon_1" tailTip=""></metadata>
    </polygon>
    <polygon points="189,245 190,244 191,245 191,246 191,247 191,248 191,249 191,250 191,251 191,252 191,253 191,254 192,255 193,254 194,254 195,254 196,253 197,253 198,253 199,254 200,254 201,254 202,254 203,255 204,256 205,257 206,258 206,259 207,260 208,261 209,261 210,261 211,261 212,261 213,262 213,263 212,264 212,265 212,266 212,267 212,268 213,268 214,267 214,266 214,265 215,264 214,263 214,262 215,261 216,261 217,260 217,259 216,258 216,257 217,256 218,256 219,256 220,255 221,255 220,254 219,253 220,252 221,251 222,251 223,251 224,251 225,250 226,250 227,250 228,250 229,250 230,250 231,250 232,250 233,249 234,249 235,249 236,249 237,249 238,248 239,248 240,248 241,247 242,247 243,248 243,249 243,250 242,251 242,252 242,253 242,254 242,255 242,256 242,257 241,258 240,257 239,258 238,258 237,258 236,258 236,259 236,260 236,261 237,262 237,263 237,264 237,265 238,266 238,267 239,266 240,266 241,266 242,266 243,267 243,268 243,269 243,270 242,271 242,272 242,273 242,274 242,275 241,276 240,277 239,276 238,276 237,276 236,276 235,276 234,275 234,274 235,273 236,272 237,271 237,270 236,269 235,269 234,269 233,269 232,269 231,270 230,270 229,269 229,268 229,267 230,266 230,265 230,264 230,263 230,262 230,261 230,260 229,259 228,260 229,261 229,262 228,263 227,263 226,263 225,263 224,264 223,264 224,265 225,265 226,265 227,266 226,267 226,268 226,269 227,268 228,269 228,270 228,271 228,272 228,273 228,274 228,275 228,276 227,277 226,277 225,277 224,277 223,276 222,276 221,276 220,276 219,276 218,276 217,277 216,277 215,277 214,277 213,278 212,278 211,278 210,278 209,277 208,277 207,277 206,276 205,275 204,275 204,276 205,276 206,277 207,278 206,279 205,279 204,279 203,279 202,280 201,280 200,280 199,280 198,279 198,278 197,278 196,278 195,278 194,279 193,279 192,279 191,279 190,279 189,279 188,278 187,278 186,277 185,276 184,275 184,274 183,273 183,272 183,271 183,270 183,269 183,268 183,267 184,266 184,265 185,264 185,263 186,262 186,261 185,260 185,259 184,259 184,260 184,261 184,262 184,263 183,264 182,264 181,264 180,264 179,265 178,265 177,265 176,264 176,263 176,262 177,261 177,260 177,259 178,258 178,257 179,256 179,255 179,254 179,253 180,252 180,251 180,250 180,249 180,248 180,247 181,246 182,246 183,246 184,246 185,246 186,245 187,245 188,245 189,245">
      <metadata tailDirection="" confidence="0.00" linkedToCharacter="" id="LAMISSEB_ETPISTAF_017_balloon_2" tailTip=""></metadata>
    </polygon>
    <polygon points="677,10 678,9 679,9 680,9 681,9 682,9 683,9 684,9 685,9 686,9 687,9 688,9 689,9 690,9 691,9 692,9 693,9 694,9 695,9 696,9 697,9 698,9 699,9 700,9 701,10 702,10 703,10 704,10 705,10 706,10 707,10 708,10 709,10 710,10 711,11 712,11 713,11 714,12 715,12 716,13 717,13 718,14 719,14 720,15 721,15 722,16 723,17 724,18 724,19 725,20 726,21 726,22 727,23 728,24 728,25 729,26 729,27 730,28 730,29 730,30 730,31 730,32 730,33 730,34 730,35 730,36 730,37 730,38 730,39 730,40 729,41 729,42 729,43 728,44 728,45 728,46 727,47 727,48 726,49 725,50 725,51 724,52 723,53 722,54 721,55 720,55 719,56 718,57 717,57 716,58 715,58 714,59 713,59 712,59 711,59 710,60 709,60 708,60 707,60 706,60 705,60 704,61 703,61 702,61 701,61 700,61 699,61 698,61 697,61 696,61 695,61 694,61 693,61 692,61 691,61 690,61 689,61 688,61 687,61 686,61 685,61 684,61 683,61 682,61 681,61 680,61 679,61 678,61 677,61 676,61 675,61 674,61 673,61 672,61 671,61 670,61 669,61 668,61 667,61 666,61 665,61 664,61 663,61 662,61 661,61 660,61 659,61 658,61 657,61 656,61 655,61 654,61 653,61 652,61 651,61 650,61 649,61 648,61 647,61 646,61 645,61 644,61 643,61 642,61 641,61 640,61 639,62 638,61 637,61 637,62 638,63 638,64 639,65 639,66 640,67 641,68 642,69 643,70 643,71 644,72 645,73 646,74 647,75 648,76 649,76 650,77 651,78 652,79 653,80 654,80 655,81 656,82 657,82 658,82 659,82 660,82 661,82 662,82 663,82 664,82 665,82 666,82 667,82 668,82 669,82 670,82 671,82 672,82 673,82 674,82 675,82 676,83 677,83 678,83 679,83 680,83 681,83 682,83 683,83 684,83 685,83 686,83 687,83 688,83 689,83 690,83 691,83 692,83 693,83 694,83 695,83 696,83 697,83 698,83 699,83 700,83 701,83 702,83 703,83 704,83 705,83 706,83 707,84 708,84 709,84 710,84 711,84 712,84 713,84 714,84 715,84 716,84 717,84 718,84 719,84 720,84 721,84 722,84 723,84 724,84 725,84 726,83 727,83 728,83 729,83 730,83 731,83 732,83 733,83 734,83 735,83 736,83 737,83 738,83 739,83 740,83 741,83 742,83 743,83 744,82 745,82 746,82 747,82 748,82 749,82 750,82 751,82 752,82 753,82 754,82 755,82 756,82 757,82 758,82 759,82 760,82 761,82 762,82 763,83 764,83 765,83 766,83 767,83 768,83 769,83 770,83 771,83 772,83 773,84 774,84 775,85 776,85 777,86 778,86 779,87 780,88 781,89 782,90 783,91 784,92 785,93 786,94 786,95 787,96 787,97 788,98 788,99 789,100 789,101 790,102 790,103 790,104 791,105 791,106 791,107 791,108 791,109 791,110 791,111 791,112 791,113 791,114 791,115 790,116 790,117 790,118 790,119 789,120 789,121 789,122 788,123 787,124 787,125 786,126 785,127 784,128 783,129 782,130 781,131 780,131 779,131 778,132 777,132 776,132 775,133 774,132 773,132 772,132 771,133 770,132 769,132 768,133 767,133 766,133 765,133 764,133 763,133 762,133 761,133 760,133 759,133 758,133 757,133 756,133 755,133 754,133 753,133 752,133 751,133 750,133 749,133 748,133 747,133 746,133 745,133 744,133 743,133 742,133 741,133 740,133 739,133 738,134 737,134 736,134 735,134 734,134 733,134 732,134 731,134 730,134 729,134 728,134 727,134 726,133 725,133 724,133 723,133 722,133 721,133 720,133 719,133 718,133 717,133 716,133 715,133 714,133 713,133 712,133 711,133 710,133 709,133 708,133 707,133 706,133 705,133 704,133 703,133 702,133 701,133 700,133 699,133 698,133 697,133 696,133 695,133 694,133 693,133 692,133 691,133 690,133 689,133 688,133 687,133 686,133 685,133 684,133 683,133 682,133 681,133 680,133 679,133 678,133 677,133 676,133 676,134 676,135 677,136 677,137 677,138 677,139 677,140 677,141 677,142 677,143 677,144 677,145 677,146 676,147 675,148 674,149 673,150 672,150 671,151 670,152 669,152 668,153 667,153 666,154 665,154 664,155 663,155 662,155 661,156 660,156 659,157 658,157 657,158 656,158 655,159 654,159 653,159 652,160 651,160 650,161 649,161 648,162 647,162 646,163 645,163 644,163 643,164 642,164 641,165 640,165 639,166 638,166 637,167 636,167 635,167 634,166 634,165 635,164 636,164 637,163 638,163 639,162 640,162 641,161 642,161 643,161 644,160 645,160 646,159 647,159 648,158 649,158 650,157 651,156 652,156 653,155 654,155 655,154 656,154 657,153 658,152 659,152 660,151 661,151 662,150 663,149 664,148 665,147 666,146 667,145 668,144 668,143 668,142 667,141 667,140 666,139 665,138 664,137 663,136 662,135 661,135 660,134 659,134 658,133 657,133 656,133 655,133 654,133 653,133 652,133 651,133 650,133 649,133 648,133 647,133 646,133 645,133 644,133 643,133 642,133 641,133 640,132 639,133 638,133 637,133 636,133 635,133 634,133 633,133 632,133 631,133 630,133 629,133 628,133 627,133 626,133 625,133 624,133 623,133 622,133 621,133 620,133 619,133 618,133 617,133 616,133 615,132 614,132 613,132 612,132 611,132 610,132 609,132 608,131 607,131 606,131 605,130 604,130 603,129 602,129 601,128 600,128 599,127 598,126 597,126 596,125 595,124 594,123 593,122 593,121 592,120 592,119 591,118 591,117 590,116 590,115 589,114 589,113 589,112 588,111 588,110 588,109 588,108 588,107 588,106 588,105 588,104 588,103 588,102 588,101 588,100 588,99 588,98 589,97 589,96 589,95 590,94 590,93 591,92 592,91 593,90 593,89 594,88 595,87 596,87 597,86 598,85 599,85 600,84 601,84 602,84 603,83 604,83 605,83 606,83 607,83 608,83 609,83 610,82 611,82 612,82 613,82 614,82 615,82 616,82 617,82 618,82 619,82 620,82 621,82 622,82 623,82 624,82 625,82 626,82 627,82 628,82 629,82 630,82 631,82 632,82 633,82 634,82 635,82 636,82 637,82 638,82 639,82 638,81 638,80 637,79 636,78 636,77 635,76 634,75 634,74 633,73 632,72 632,71 631,70 630,69 629,68 629,67 628,66 627,65 626,64 625,63 624,62 623,61 622,61 621,61 620,61 619,61 618,61 617,61 616,61 615,61 614,61 613,61 612,61 611,61 610,62 609,62 608,62 607,62 606,62 605,62 604,62 603,62 602,62 601,62 600,62 599,62 598,62 597,62 596,62 595,62 594,62 593,62 592,62 591,62 590,62 589,62 588,62 587,62 586,62 585,62 584,62 583,62 582,62 581,62 580,62 579,62 578,62 577,62 576,62 575,62 574,62 573,62 572,62 571,62 570,62 569,62 568,62 567,62 566,62 565,62 564,62 563,62 562,62 561,62 560,63 559,63 558,63 557,62 556,62 555,62 554,62 553,62 552,62 551,62 550,62 549,62 548,62 547,62 546,62 545,62 544,61 543,61 542,61 541,60 540,60 539,59 538,59 537,58 536,57 535,56 534,55 533,54 532,53 531,52 530,51 530,50 529,49 528,48 528,47 527,46 527,45 527,44 526,43 526,42 526,41 525,40 525,39 525,38 524,37 524,36 524,35 524,34 524,33 524,32 524,31 525,30 525,29 525,28 525,27 526,26 526,25 526,24 527,23 527,22 528,21 528,20 529,19 530,18 531,17 532,16 533,15 534,14 535,13 536,13 537,12 538,11 539,11 540,11 541,11 542,11 543,11 544,11 545,11 546,11 547,11 548,11 549,11 550,11 551,11 552,11 553,11 554,11 555,11 556,11 557,11 558,11 559,11 560,11 561,11 562,11 563,11 564,11 565,11 566,11 567,11 568,11 569,11 570,11 571,11 572,11 573,11 574,11 575,11 576,11 577,11 578,11 579,11 580,11 581,11 582,11 583,11 584,11 585,11 586,11 587,11 588,11 589,11 590,11 591,11 592,11 593,11 594,11 595,11 596,11 597,11 598,11 599,11 600,11 601,11 602,11 603,11 604,11 605,11 606,11 607,11 608,11 609,11 610,11 611,11 612,11 613,11 614,11 615,11 616,11 617,11 618,11 619,11 620,11 621,11 622,11 623,11 624,11 625,11 626,11 627,11 628,11 629,11 630,11 631,11 632,11 633,11 634,11 635,11 636,11 637,11 638,11 639,11 640,11 641,11 642,11 643,11 644,11 645,11 646,11 647,11 648,11 649,11 650,11 651,11 652,11 653,11 654,11 655,11 656,11 657,11 658,11 659,11 660,11 661,11 662,11 663,10 664,10 665,10 666,10 667,10 668,10 669,10 670,10 671,10 672,10 673,10 674,10 675,10 676,10 677,10">
      <metadata tailDirection="" confidence="0.00" linkedToCharacter="" id="LAMISSEB_ETPISTAF_017_balloon_3" tailTip=""></metadata>
    </polygon>
    <polygon points="682,12 681,13 680,13 679,13 678,13 677,13 676,13 675,13 674,13 673,13 672,13 671,13 670,13 669,13 668,13 667,13 666,13 665,13 664,13 663,14 662,14 661,14 660,14 659,14 658,14 657,14 656,14 655,14 654,14 653,14 652,14 651,14 650,14 649,14 648,14 647,14 646,14 645,14 644,14 643,14 642,14 641,14 640,14 639,14 638,14 637,14 636,14 635,14 634,14 633,14 632,14 631,14 630,14 629,14 628,14 627,14 626,14 625,14 624,14 623,14 622,14 621,14 620,14 619,14 618,14 617,14 616,14 615,14 614,14 613,14 612,14 611,14 610,14 609,14 608,14 607,14 606,14 605,14 604,14 603,14 602,14 601,14 600,14 599,14 598,14 597,14 596,14 595,14 594,14 593,14 592,14 591,14 590,14 589,14 588,14 587,14 586,14 585,14 584,14 583,14 582,14 581,14 580,14 579,14 578,14 577,14 576,14 575,14 574,15 573,15 572,14 571,14 570,14 569,14 568,14 567,14 566,14 565,14 564,14 563,14 562,14 561,14 560,14 559,14 558,14 557,14 556,14 555,14 554,14 553,14 552,14 551,14 550,14 549,14 548,14 547,14 546,14 545,14 544,14 543,14 542,14 541,15 540,15 539,15 538,15 537,16 536,16 535,17 534,18 533,19 532,20 532,21 531,22 530,23 530,24 529,25 529,26 529,27 529,28 528,29 528,30 528,31 528,32 528,33 528,34 528,35 528,36 528,37 528,38 528,39 529,40 529,41 529,42 530,43 530,44 531,45 531,46 532,47 532,48 533,49 533,50 534,51 535,52 536,53 537,54 538,55 539,55 540,56 541,57 542,57 543,58 544,58 545,58 546,58 547,58 548,59 549,59 550,59 551,59 552,59 553,59 554,59 555,59 556,59 557,59 558,59 559,59 560,59 561,59 562,59 563,59 564,59 565,59 566,59 567,59 568,59 569,59 570,59 571,59 572,59 573,59 574,59 575,59 576,59 577,59 578,59 579,59 580,59 581,59 582,59 583,59 584,59 585,59 586,59 587,59 588,59 589,59 590,59 591,59 592,59 593,59 594,59 595,59 596,59 597,59 598,59 599,59 600,59 601,59 602,59 603,59 604,59 605,59 606,59 607,58 608,58 609,58 610,58 611,58 612,58 613,58 614,58 615,58 616,58 617,58 618,58 619,58 620,58 621,58 622,58 623,58 624,58 625,59 626,60 627,61 628,62 629,63 630,64 631,65 632,66 632,67 633,68 634,69 635,70 635,71 636,72 637,73 637,74 638,75 638,76 639,77 640,78 640,79 641,80 642,81 642,82 643,83 643,84 642,85 641,85 640,85 639,85 638,85 637,85 636,85 635,85 634,85 633,85 632,85 631,85 630,85 629,85 628,85 627,85 626,85 625,85 624,85 623,85 622,85 621,85 620,85 619,85 618,85 617,85 616,85 615,85 614,85 613,86 612,86 611,86 610,86 609,86 608,86 607,86 606,86 605,86 604,86 603,87 602,87 601,87 600,88 599,88 598,89 597,90 596,91 595,92 594,93 594,94 593,95 593,96 592,97 592,98 592,99 591,100 591,101 591,102 591,103 591,104 591,105 591,106 591,107 591,108 591,109 592,110 592,111 592,112 592,113 593,114 593,115 594,116 594,117 595,118 595,119 596,120 596,121 597,122 598,123 599,123 600,124 601,125 602,125 603,126 604,126 605,127 606,127 607,128 608,128 609,128 610,128 611,129 612,129 613,129 614,129 615,129 616,129 617,129 618,129 619,130 620,130 621,130 622,130 623,130 624,130 625,130 626,130 627,130 628,130 629,130 630,130 631,130 632,130 633,130 634,130 635,130 636,129 637,129 638,129 639,129 640,129 641,129 642,129 643,129 644,129 645,129 646,129 647,129 648,129 649,129 650,130 651,129 652,129 653,129 654,129 655,129 656,129 657,130 658,130 659,130 660,131 661,131 662,132 663,132 664,133 665,134 666,135 667,136 668,137 669,138 670,139 670,140 671,141 671,142 671,143 671,144 670,145 670,146 669,147 668,148 667,149 666,150 665,151 666,151 667,150 668,149 669,149 670,148 671,148 672,147 673,146 674,145 674,144 674,143 674,142 674,141 674,140 674,139 674,138 674,137 673,136 673,135 673,134 672,133 672,132 672,131 673,130 674,130 675,130 676,130 677,130 678,130 679,130 680,130 681,130 682,130 683,130 684,130 685,129 686,129 687,129 688,129 689,129 690,129 691,130 692,130 693,130 694,130 695,130 696,130 697,130 698,130 699,130 700,130 701,130 702,130 703,130 704,130 705,130 706,130 707,130 708,130 709,130 710,130 711,130 712,130 713,130 714,130 715,130 716,130 717,130 718,130 719,130 720,130 721,130 722,130 723,130 724,130 725,130 726,130 727,130 728,130 729,130 730,130 731,130 732,130 733,130 734,130 735,130 736,130 737,130 738,130 739,130 740,130 741,130 742,130 743,130 744,130 745,130 746,130 747,130 748,130 749,130 750,130 751,130 752,130 753,130 754,130 755,130 756,130 757,130 758,130 759,130 760,130 761,130 762,130 763,130 764,130 765,130 766,129 767,129 768,129 769,129 770,129 771,129 772,129 773,129 774,129 775,129 776,129 777,129 778,128 779,128 780,128 781,127 782,126 783,125 784,124 785,123 785,122 786,121 786,120 786,119 787,118 787,117 787,116 787,115 787,114 788,113 788,112 788,111 788,110 788,109 788,108 787,107 787,106 787,105 787,104 787,103 786,102 786,101 785,100 785,99 784,98 784,97 783,96 782,95 782,94 781,93 780,92 779,91 778,90 777,89 776,89 775,88 774,88 773,88 772,87 771,87 770,87 769,87 768,86 767,86 766,86 765,86 764,86 763,86 762,86 761,86 760,86 759,86 758,86 757,86 756,85 755,85 754,85 753,85 752,85 751,85 750,85 749,85 748,85 747,85 746,85 745,86 744,86 743,86 742,86 741,86 740,86 739,86 738,86 737,86 736,86 735,86 734,86 733,86 732,86 731,86 730,86 729,87 728,87 727,87 726,87 725,87 724,87 723,87 722,87 721,87 720,87 719,87 718,87 717,87 716,87 715,87 714,87 713,87 712,87 711,87 710,87 709,87 708,87 707,87 706,87 705,87 704,87 703,87 702,87 701,87 700,87 699,87 698,87 697,87 696,87 695,87 694,87 693,87 692,86 691,86 690,86 689,86 688,86 687,86 686,86 685,86 684,86 683,86 682,86 681,86 680,86 679,86 678,86 677,86 676,86 675,86 674,85 673,85 672,85 671,85 670,85 669,85 668,85 667,85 666,85 665,85 664,85 663,85 662,85 661,85 660,85 659,85 658,85 657,85 656,85 655,85 654,84 653,83 652,83 651,82 650,81 649,80 648,80 647,79 646,78 645,77 644,76 643,75 642,74 641,73 640,72 640,71 639,70 638,69 637,68 637,67 636,66 635,65 635,64 634,63 634,62 633,61 633,60 634,59 635,58 636,59 637,58 638,59 639,59 640,58 641,58 642,58 643,58 644,58 645,58 646,58 647,58 648,58 649,58 650,58 651,58 652,58 653,58 654,58 655,58 656,58 657,58 658,58 659,58 660,58 661,58 662,58 663,58 664,58 665,58 666,58 667,58 668,58 669,58 670,58 671,58 672,58 673,58 674,58 675,58 676,58 677,58 678,58 679,58 680,58 681,58 682,58 683,58 684,58 685,58 686,58 687,58 688,58 689,58 690,58 691,58 692,58 693,58 694,58 695,58 696,58 697,58 698,58 699,58 700,58 701,58 702,57 703,57 704,57 705,57 706,57 707,57 708,57 709,57 710,56 711,56 712,56 713,56 714,55 715,55 716,54 717,54 718,53 719,52 720,52 721,51 722,50 722,49 723,48 724,47 724,46 725,45 725,44 725,43 726,42 726,41 726,40 727,39 727,38 727,37 727,36 727,35 727,34 727,33 727,32 727,31 727,30 726,29 726,28 726,27 725,26 725,25 724,24 724,23 723,22 722,21 721,20 721,19 720,18 719,18 718,17 717,16 716,16 715,16 714,15 713,15 712,14 711,14 710,14 709,13 708,13 707,13 706,13 705,13 704,13 703,13 702,13 701,13 700,13 699,12 698,12 697,12 696,12 695,12 694,12 693,12 692,12 691,12 690,12 689,12 688,12 687,12 686,12 685,12 684,12 683,12 682,12">
      <metadata tailDirection="" confidence="0.00" linkedToCharacter="" id="LAMISSEB_ETPISTAF_017_balloon_4" tailTip=""></metadata>
    </polygon>
  </svg>
</svg>
