<?xml version="1.0" encoding="UTF-8" standalone="no"?>
<svg width="827" xmlns="http://www.w3.org/2000/svg" version="1.0" height="1170">
  <title>UltraEleven_110</title>
  <svg contentScriptType="text/ecmascript" zoomAndPan="magnify" contentStyleType="text/css" class="Page" preserveAspectRatio="xMidYMid meet" version="1.0">
    <image xmlns:xlink="http://www.w3.org/1999/xlink" x="0" y="0" width="827" height="1170" xlink:href="./../../dataset_Manga109/UltraEleven/UltraEleven_110.jpg" xlink:type="simple" xlink:actuate="onLoad" preserveAspectRatio="xMidYMid meet" xlink:show="embed"/>
  </svg>
  <style type="text/css" xml:space="preserve">
        * { stroke-linejoin: round; }
        .Unclassified   { fill: orange; stroke: none;   opacity: 1.0; visibility: hidden; }
        .Noise          { fill: pink;   stroke: none;   opacity: 0.2; visibility: hidden; }
        .Panel          { fill: none;   stroke: red;    stroke-width:3; opacity: 0.5; visibility: visible; image-rendering: optimizeSpeed; }
        .Line           { fill: green;  stroke: none;   opacity: 0.5; visibility: visible; image-rendering: optimizeSpeed; }
        .TextArea       { fill: grey;   stroke: none;   opacity: 0.2; visibility: visible; image-rendering: optimizeSpeed; }
        .Balloon        { fill: cyan;   stroke: none;   opacity: 0.5; visibility: visible; image-rendering: optimizeSpeed; }
        .Letter         { fill: blue;   stroke: none;   opacity: 0.2; visibility: hidden; }
        .Object, .Character, .Face  { fill: yellow; stroke: none;   opacity: 0.5; visibility: visible; image-rendering: optimizeSpeed; }
        .Page           { fill: white;  stroke: none;    opacity: 0.5; visibility: visible; }
        .linkSBSC { fill: blue; stroke: none; opacity: 1.0; visibility: visible; }
        polygon:hover { opacity:1.0; stroke:red; }
</style>
  <svg xmlns="http://www.w3.org/2000/svg" contentScriptType="text/ecmascript" zoomAndPan="magnify" contentStyleType="text/css" class="Balloon" preserveAspectRatio="xMidYMid meet" version="1.0">
    <polygon points="225,856 224,857 223,857 222,857 221,857 220,857 219,857 218,857 217,857 216,857 215,857 214,857 213,857 212,857 211,857 210,857 209,857 208,857 207,857 206,857 205,857 204,857 203,857 202,857 201,857 200,857 199,857 198,857 197,857 196,857 195,857 194,857 193,857 192,857 191,857 190,857 189,857 188,857 187,857 186,857 185,857 184,857 183,857 182,857 181,857 180,857 179,857 178,857 177,857 176,857 175,857 174,857 173,857 172,857 171,857 170,857 169,857 168,857 167,857 166,857 165,857 164,857 163,857 162,857 161,857 160,857 159,857 158,857 157,857 156,857 155,857 154,857 153,857 152,857 151,857 150,857 149,857 148,857 147,857 146,857 145,857 144,857 143,857 142,857 141,857 140,857 139,857 138,857 137,857 136,857 135,857 134,857 133,857 132,857 131,857 130,857 129,857 128,857 127,857 126,857 125,857 124,857 123,857 122,857 121,857 120,857 119,857 118,857 117,857 116,857 115,857 114,857 113,857 112,857 111,857 110,857 109,857 108,857 107,857 106,857 105,857 104,857 103,857 102,857 101,857 100,857 99,857 98,857 97,857 96,857 95,857 94,857 93,857 92,857 91,857 90,857 89,857 88,857 87,857 86,857 85,857 84,857 83,857 82,857 81,857 80,857 79,857 78,857 77,857 76,857 75,857 74,857 73,857 72,857 72,858 72,859 72,860 72,861 72,862 72,863 72,864 72,865 72,866 72,867 72,868 72,869 72,870 72,871 72,872 72,873 72,874 72,875 72,876 72,877 72,878 72,879 73,880 73,881 73,882 73,883 73,884 73,885 73,886 73,887 73,888 73,889 73,890 73,891 73,892 73,893 73,894 73,895 73,896 73,897 73,898 73,899 73,900 73,901 73,902 73,903 73,904 73,905 73,906 73,907 73,908 73,909 73,910 73,911 73,912 73,913 73,914 73,915 73,916 73,917 73,918 73,919 73,920 73,921 73,922 73,923 73,924 73,925 73,926 73,927 73,928 73,929 73,930 73,931 73,932 73,933 73,934 73,935 73,936 73,937 73,938 73,939 73,940 73,941 73,942 73,943 73,944 73,945 73,946 73,947 73,948 73,949 73,950 73,951 73,952 73,953 73,954 73,955 73,956 73,957 73,958 73,959 73,960 73,961 73,962 73,963 73,964 73,965 73,966 73,967 73,968 73,969 73,970 73,971 73,972 73,973 73,974 73,975 73,976 73,977 73,978 73,979 73,980 73,981 73,982 73,983 73,984 73,985 73,986 73,987 73,988 73,989 73,990 73,991 73,992 73,993 73,994 73,995 73,996 73,997 73,998 73,999 73,1000 73,1001 73,1002 73,1003 73,1004 73,1005 73,1006 73,1007 73,1008 73,1009 73,1010 73,1011 73,1012 73,1013 73,1014 73,1015 73,1016 73,1017 73,1018 72,1019 72,1020 72,1021 72,1022 72,1023 72,1024 72,1025 72,1026 72,1027 72,1028 72,1029 72,1030 72,1031 72,1032 72,1033 72,1034 72,1035 72,1036 72,1037 72,1038 72,1039 72,1040 72,1041 72,1042 72,1043 72,1044 72,1045 72,1046 72,1047 72,1048 72,1049 72,1050 72,1051 72,1052 72,1053 72,1054 72,1055 72,1056 72,1057 72,1058 72,1059 72,1060 72,1061 72,1062 72,1063 72,1064 72,1065 72,1066 72,1067 72,1068 72,1069 73,1070 73,1071 73,1072 73,1073 73,1074 73,1075 73,1076 74,1076 75,1075 76,1075 77,1075 78,1075 79,1075 80,1075 81,1074 82,1074 83,1075 84,1075 85,1075 86,1076 87,1077 88,1078 88,1079 89,1080 89,1081 89,1082 89,1083 90,1083 91,1084 92,1084 93,1085 94,1086 94,1087 94,1088 94,1089 95,1089 96,1089 97,1089 98,1089 99,1089 100,1089 101,1089 102,1089 103,1089 104,1089 105,1089 106,1089 107,1089 108,1089 109,1089 110,1089 111,1089 112,1089 113,1089 114,1089 115,1089 116,1089 117,1089 118,1089 119,1089 120,1089 121,1089 122,1089 123,1089 124,1089 125,1089 126,1089 127,1089 128,1089 129,1089 130,1089 131,1089 132,1089 133,1089 134,1089 135,1089 136,1089 137,1089 138,1089 139,1089 140,1089 141,1089 142,1089 143,1089 144,1089 145,1089 146,1089 147,1089 148,1089 149,1089 150,1089 151,1089 152,1089 152,1088 152,1087 153,1086 153,1085 153,1084 154,1083 154,1082 154,1081 155,1080 156,1079 157,1078 157,1077 158,1076 159,1075 160,1075 161,1074 162,1073 163,1073 164,1073 165,1073 166,1073 167,1073 168,1073 169,1073 170,1074 171,1074 172,1074 173,1075 174,1075 175,1076 176,1076 177,1077 178,1077 179,1078 179,1077 179,1076 180,1075 181,1074 182,1073 183,1073 184,1073 185,1073 186,1073 187,1072 188,1073 189,1073 190,1073 191,1073 192,1073 193,1073 194,1074 195,1074 196,1074 197,1075 198,1076 199,1076 200,1077 201,1077 202,1078 203,1079 204,1079 205,1080 205,1079 205,1078 205,1077 206,1076 206,1075 206,1074 206,1073 207,1072 208,1071 209,1070 210,1070 211,1069 212,1069 213,1069 214,1070 215,1070 216,1070 217,1070 218,1070 219,1071 220,1071 221,1071 222,1072 223,1072 224,1072 225,1073 226,1073 227,1073 226,1072 225,1072 224,1071 223,1070 222,1069 221,1068 220,1067 219,1066 218,1065 217,1064 217,1063 216,1062 216,1061 215,1060 215,1059 215,1058 215,1057 215,1056 215,1055 215,1054 216,1053 216,1052 217,1051 218,1050 219,1049 220,1048 221,1047 222,1047 223,1046 224,1046 225,1046 226,1045 227,1045 228,1045 229,1045 230,1045 231,1044 232,1044 233,1044 234,1044 235,1044 236,1044 237,1044 238,1044 239,1044 240,1044 241,1044 242,1044 243,1044 244,1044 245,1044 246,1044 247,1045 248,1045 249,1045 250,1045 251,1045 252,1045 253,1045 254,1044 253,1043 252,1043 251,1042 250,1041 249,1041 248,1040 247,1039 246,1038 245,1037 244,1036 243,1035 242,1034 241,1033 241,1032 240,1031 239,1030 238,1029 238,1028 237,1027 236,1026 236,1025 235,1024 235,1023 234,1022 234,1021 234,1020 233,1019 233,1018 232,1017 232,1016 232,1015 232,1014 232,1013 232,1012 232,1011 232,1010 233,1009 233,1008 234,1007 235,1006 236,1005 237,1004 238,1004 239,1004 240,1003 241,1003 242,1003 243,1003 244,1003 245,1003 246,1003 247,1003 246,1002 246,1001 245,1000 245,999 245,998 245,997 246,996 246,995 247,994 248,994 249,993 250,993 251,992 252,992 251,991 251,990 251,989 251,988 251,987 251,986 251,985 252,984 253,983 254,982 255,981 256,981 257,980 258,980 259,980 260,980 261,980 262,980 263,979 264,979 265,979 266,979 267,979 268,979 269,979 268,978 267,978 266,977 265,977 264,976 263,975 262,975 261,974 260,973 259,973 258,972 257,971 256,971 255,970 254,969 253,968 252,967 251,966 250,965 249,964 248,963 247,962 246,961 246,960 245,959 244,958 243,957 243,956 242,955 242,954 242,953 241,952 241,951 240,950 241,949 241,948 241,947 241,946 242,945 242,944 243,943 244,942 245,941 246,941 247,940 248,940 248,939 247,938 246,937 246,936 245,935 244,934 244,933 244,932 244,931 245,930 245,929 246,928 247,927 248,926 249,925 250,925 251,924 252,924 253,923 252,923 251,922 250,922 249,921 248,920 247,919 247,918 247,917 246,916 247,915 247,914 247,913 248,912 249,911 250,910 251,910 252,911 253,911 253,910 252,911 251,910 251,909 252,908 253,907 254,906 255,906 256,905 257,905 258,904 259,903 258,903 257,903 256,903 255,903 254,903 253,903 252,902 251,902 250,902 249,902 248,902 247,902 246,902 245,901 244,901 243,901 242,901 241,900 240,900 239,899 238,898 237,897 236,896 235,896 234,895 234,894 233,893 233,892 233,891 233,890 233,889 233,888 234,887 234,886 235,885 236,884 237,883 238,882 237,882 236,882 235,882 234,882 233,882 232,882 231,881 231,880 230,879 230,878 230,877 230,876 231,875 232,874 233,873 234,872 233,872 232,873 231,873 230,873 229,873 228,874 227,874 226,874 225,874 224,874 223,874 222,873 221,872 220,871 220,870 221,869 221,868 221,867 222,866 222,865 223,864 223,863 224,862 224,861 225,860 226,859 227,858 228,857 228,856 227,857 226,856 225,856">
      <metadata tailDirection="" confidence="0.82" linkedToCharacter="" id="UltraEleven_110_balloon_0" tailTip=""></metadata>
    </polygon>
  </svg>
</svg>
