<?xml version="1.0" encoding="UTF-8" standalone="no"?>
<svg width="827" xmlns="http://www.w3.org/2000/svg" version="1.0" height="1170">
  <title>UltraEleven_089</title>
  <svg contentScriptType="text/ecmascript" zoomAndPan="magnify" contentStyleType="text/css" class="Page" preserveAspectRatio="xMidYMid meet" version="1.0">
    <image xmlns:xlink="http://www.w3.org/1999/xlink" x="0" y="0" width="827" height="1170" xlink:href="./../../dataset_Manga109/UltraEleven/UltraEleven_089.jpg" xlink:type="simple" xlink:actuate="onLoad" preserveAspectRatio="xMidYMid meet" xlink:show="embed"/>
  </svg>
  <style type="text/css" xml:space="preserve">
        * { stroke-linejoin: round; }
        .Unclassified   { fill: orange; stroke: none;   opacity: 1.0; visibility: hidden; }
        .Noise          { fill: pink;   stroke: none;   opacity: 0.2; visibility: hidden; }
        .Panel          { fill: none;   stroke: red;    stroke-width:3; opacity: 0.5; visibility: visible; image-rendering: optimizeSpeed; }
        .Line           { fill: green;  stroke: none;   opacity: 0.5; visibility: visible; image-rendering: optimizeSpeed; }
        .TextArea       { fill: grey;   stroke: none;   opacity: 0.2; visibility: visible; image-rendering: optimizeSpeed; }
        .Balloon        { fill: cyan;   stroke: none;   opacity: 0.5; visibility: visible; image-rendering: optimizeSpeed; }
        .Letter         { fill: blue;   stroke: none;   opacity: 0.2; visibility: hidden; }
        .Object, .Character, .Face  { fill: yellow; stroke: none;   opacity: 0.5; visibility: visible; image-rendering: optimizeSpeed; }
        .Page           { fill: white;  stroke: none;    opacity: 0.5; visibility: visible; }
        .linkSBSC { fill: blue; stroke: none; opacity: 1.0; visibility: visible; }
        polygon:hover { opacity:1.0; stroke:red; }
</style>
  <svg xmlns="http://www.w3.org/2000/svg" contentScriptType="text/ecmascript" zoomAndPan="magnify" contentStyleType="text/css" class="Balloon" preserveAspectRatio="xMidYMid meet" version="1.0">
    <polygon points="674,51 673,52 672,52 671,52 670,52 669,52 668,53 667,53 666,53 665,54 664,54 663,54 662,55 661,55 660,56 659,57 658,57 657,58 656,59 655,59 654,60 653,61 652,62 651,62 650,63 649,64 648,65 647,66 646,66 645,67 644,68 643,69 642,70 641,71 640,71 639,72 638,73 638,74 638,75 638,76 639,77 639,78 640,79 640,80 640,81 641,82 641,83 642,84 642,85 642,86 642,87 643,88 643,89 643,90 643,91 643,92 643,93 643,94 644,95 644,96 644,97 644,98 644,99 644,100 644,101 644,102 644,103 644,104 644,105 645,106 645,107 644,108 645,109 645,110 645,111 645,112 645,113 645,114 645,115 645,116 645,117 645,118 645,119 645,120 645,121 646,122 646,123 646,124 646,125 646,126 646,127 646,128 646,129 646,130 646,131 646,132 646,133 646,134 646,135 646,136 646,137 646,138 647,139 647,140 647,141 647,142 647,143 647,144 647,145 647,146 647,147 647,148 647,149 647,150 647,151 647,152 647,153 647,154 647,155 647,156 647,157 647,158 647,159 647,160 647,161 647,162 647,163 647,164 647,165 647,166 647,167 647,168 647,169 647,170 647,171 647,172 647,173 647,174 647,175 647,176 647,177 647,178 647,179 647,180 647,181 647,182 647,183 647,184 647,185 647,186 647,187 646,188 646,189 646,190 646,191 646,192 646,193 646,194 646,195 646,196 646,197 646,198 646,199 646,200 646,201 645,202 645,203 645,204 645,205 645,206 645,207 645,208 645,209 645,210 645,211 644,212 644,213 644,214 644,215 643,216 643,217 643,218 643,219 642,220 642,221 642,222 641,223 641,224 640,225 640,226 639,227 638,228 638,229 637,230 636,231 636,232 635,233 635,234 636,235 637,236 638,237 639,238 640,239 641,240 642,240 643,241 644,242 645,243 646,243 647,244 648,245 649,246 650,246 651,247 652,248 653,248 654,249 655,249 656,250 657,250 658,251 659,251 660,252 661,252 662,252 663,252 664,253 665,253 666,253 667,253 668,253 669,253 670,253 671,253 672,253 673,253 674,253 675,253 676,253 677,253 678,253 679,253 680,253 681,253 682,253 683,253 684,253 685,253 686,253 687,253 688,253 689,253 690,253 691,253 692,253 693,253 694,253 695,253 696,253 697,253 698,253 699,253 700,253 701,253 702,253 703,253 704,253 705,253 706,253 707,253 708,253 709,253 710,253 711,253 712,253 713,253 714,252 715,252 716,252 717,252 718,252 719,252 720,252 721,251 722,251 723,251 724,250 725,250 726,250 727,249 728,249 729,248 730,248 731,247 732,247 733,246 734,246 735,245 736,244 737,244 738,243 739,242 740,241 741,241 742,240 743,239 744,238 745,237 746,236 747,235 748,234 749,233 750,232 751,231 752,230 753,229 753,228 754,227 755,226 755,225 755,224 755,223 755,222 755,221 755,220 755,219 755,218 755,217 755,216 755,215 755,214 755,213 755,212 755,211 755,210 755,209 755,208 755,207 755,206 755,205 755,204 755,203 755,202 755,201 755,200 755,199 755,198 755,197 755,196 755,195 755,194 755,193 755,192 755,191 755,190 755,189 755,188 755,187 755,186 755,185 755,184 755,183 755,182 755,181 755,180 755,179 755,178 755,177 755,176 755,175 755,174 755,173 755,172 755,171 755,170 755,169 755,168 755,167 755,166 755,165 755,164 755,163 755,162 755,161 755,160 755,159 755,158 755,157 755,156 755,155 755,154 755,153 755,152 755,151 755,150 755,149 755,148 755,147 755,146 755,145 755,144 755,143 755,142 755,141 755,140 755,139 755,138 755,137 755,136 755,135 755,134 755,133 755,132 755,131 755,130 755,129 755,128 755,127 755,126 755,125 755,124 755,123 755,122 755,121 755,120 755,119 755,118 755,117 755,116 755,115 755,114 755,113 755,112 755,111 755,110 755,109 755,108 755,107 755,106 755,105 755,104 755,103 755,102 755,101 755,100 755,99 755,98 755,97 755,96 755,95 755,94 755,93 755,92 755,91 755,90 755,89 755,88 755,87 755,86 755,85 755,84 755,83 755,82 755,81 755,80 755,79 755,78 755,77 755,76 755,75 755,74 755,73 755,72 755,71 755,70 755,69 755,68 755,67 755,66 754,65 753,65 752,64 751,63 750,62 749,62 748,61 747,60 746,59 745,59 744,58 743,57 742,57 741,56 740,56 739,55 738,55 737,54 736,54 735,53 734,53 733,53 732,53 731,53 730,52 729,52 728,52 727,52 726,52 725,52 724,52 723,52 722,52 721,52 720,52 719,51 718,51 717,51 716,51 715,51 714,51 713,51 712,51 711,51 710,51 709,52 708,52 707,51 706,51 705,51 704,51 703,51 702,51 701,51 700,51 699,51 698,51 697,51 696,51 695,51 694,51 693,51 692,51 691,51 690,51 689,51 688,51 687,51 686,51 685,51 684,51 683,51 682,51 681,51 680,51 679,51 678,51 677,51 676,51 675,51 674,51">
      <metadata tailDirection="" confidence="0.95" linkedToCharacter="" id="UltraEleven_089_balloon_0" tailTip=""></metadata>
    </polygon>
    <polygon points="547,49 546,50 545,50 544,50 543,50 542,51 541,51 540,51 539,52 538,52 537,53 536,53 535,54 534,55 533,55 532,56 531,57 530,57 529,58 528,59 527,59 526,60 525,61 525,62 525,63 525,64 525,65 525,66 525,67 525,68 525,69 525,70 525,71 525,72 525,73 525,74 525,75 525,76 525,77 525,78 525,79 525,80 525,81 525,82 525,83 525,84 525,85 525,86 525,87 525,88 525,89 525,90 525,91 525,92 525,93 525,94 525,95 525,96 525,97 525,98 525,99 525,100 525,101 525,102 525,103 525,104 525,105 525,106 525,107 525,108 525,109 525,110 525,111 525,112 525,113 525,114 525,115 525,116 525,117 525,118 525,119 525,120 525,121 525,122 525,123 525,124 525,125 525,126 525,127 525,128 525,129 525,130 525,131 525,132 525,133 525,134 525,135 525,136 525,137 525,138 525,139 525,140 525,141 525,142 525,143 525,144 525,145 525,146 525,147 525,148 525,149 525,150 525,151 525,152 525,153 525,154 525,155 525,156 525,157 525,158 525,159 525,160 525,161 525,162 525,163 525,164 525,165 525,166 525,167 525,168 525,169 525,170 525,171 525,172 525,173 525,174 525,175 525,176 525,177 525,178 525,179 525,180 525,181 525,182 526,183 526,184 525,185 525,186 525,187 525,188 525,189 525,190 525,191 525,192 525,193 525,194 525,195 526,196 526,197 526,198 526,199 525,200 525,201 525,202 525,203 526,204 526,205 525,206 525,207 525,208 525,209 525,210 525,211 525,212 525,213 526,214 525,215 525,216 525,217 525,218 526,219 526,220 525,221 525,222 525,223 526,224 526,225 525,226 525,227 526,228 526,229 526,230 526,231 525,232 525,233 525,234 525,235 526,236 526,237 525,238 526,239 526,240 525,241 525,242 525,243 525,244 525,245 525,246 525,247 525,248 525,249 525,250 526,251 526,252 527,253 527,254 528,254 529,255 530,255 531,256 532,257 533,257 534,258 535,259 536,259 537,259 538,260 539,261 540,261 541,262 542,262 543,262 544,263 545,263 546,264 547,264 548,264 549,265 550,265 551,265 552,266 553,266 554,266 555,267 556,267 557,267 558,267 559,267 560,267 561,267 562,267 563,267 564,267 565,268 566,268 567,268 568,268 569,268 570,268 571,268 572,267 573,267 574,267 575,267 576,266 577,266 578,266 579,266 580,266 581,266 582,265 583,265 584,265 585,265 586,265 587,265 588,265 589,265 590,266 591,266 592,266 593,266 594,266 595,267 596,267 597,268 598,268 599,268 600,269 601,269 601,268 600,267 599,266 599,265 599,264 600,263 600,262 601,261 602,261 603,261 604,260 605,260 606,260 607,260 608,259 609,259 610,258 611,257 612,256 613,256 614,255 615,254 615,253 616,252 617,251 618,250 619,249 620,249 621,248 622,247 623,246 624,245 624,244 625,243 626,242 627,241 627,240 628,239 629,238 629,237 630,236 631,235 631,234 632,233 633,232 633,231 634,230 634,229 635,228 635,227 636,226 636,225 637,224 637,223 638,222 638,221 639,220 639,219 639,218 639,217 640,216 640,215 640,214 640,213 640,212 640,211 640,210 641,209 641,208 641,207 641,206 641,205 641,204 641,203 641,202 641,201 642,200 642,199 642,198 642,197 642,196 642,195 642,194 642,193 642,192 642,191 642,190 642,189 642,188 642,187 643,186 643,185 643,184 643,183 643,182 643,181 643,180 643,179 643,178 643,177 643,176 643,175 643,174 643,173 643,172 643,171 643,170 643,169 643,168 643,167 643,166 643,165 643,164 643,163 643,162 643,161 643,160 643,159 643,158 643,157 643,156 643,155 643,154 643,153 643,152 643,151 643,150 643,149 643,148 643,147 643,146 643,145 643,144 643,143 643,142 643,141 643,140 643,139 643,138 643,137 643,136 643,135 643,134 643,133 643,132 642,131 642,130 642,129 642,128 642,127 642,126 642,125 642,124 642,123 642,122 642,121 642,120 641,119 641,118 641,117 641,116 641,115 641,114 641,113 641,112 641,111 641,110 641,109 641,108 641,107 641,106 640,105 640,104 640,103 640,102 640,101 640,100 640,99 640,98 640,97 640,96 640,95 639,94 639,93 639,92 639,91 639,90 639,89 639,88 638,87 638,86 637,85 637,84 637,83 636,82 636,81 636,80 635,79 635,78 634,77 633,76 633,75 633,74 632,73 631,72 630,71 630,70 629,69 628,68 628,67 627,66 626,65 625,64 624,63 624,62 623,61 622,60 621,59 620,58 619,58 618,57 617,56 616,55 615,54 614,54 613,54 612,53 611,53 610,52 609,52 608,51 607,51 606,51 605,50 604,50 603,50 602,50 601,50 600,50 599,50 598,50 597,50 596,50 595,50 594,50 593,50 592,50 591,50 590,50 589,50 588,50 587,50 586,50 585,50 584,50 583,50 582,50 581,49 580,49 579,49 578,49 577,49 576,49 575,49 574,49 573,49 572,49 571,49 570,49 569,49 568,49 567,49 566,49 565,49 564,49 563,49 562,49 561,49 560,49 559,49 558,49 557,49 556,49 555,49 554,49 553,49 552,49 551,49 550,49 549,49 548,49 547,49">
      <metadata tailDirection="" confidence="0.89" linkedToCharacter="" id="UltraEleven_089_balloon_1" tailTip=""></metadata>
    </polygon>
    <polygon points="467,46 466,47 465,47 464,47 463,47 462,47 461,47 460,48 459,48 458,48 457,48 456,48 455,49 454,49 453,50 452,51 451,51 450,52 449,52 448,53 448,54 447,55 446,55 445,56 444,57 444,58 443,59 442,60 441,61 440,62 439,63 438,64 438,65 437,66 436,67 435,68 435,69 434,70 433,71 433,72 432,73 431,74 431,75 430,76 430,77 429,78 429,79 428,80 428,81 427,82 427,83 427,84 427,85 426,86 426,87 426,88 426,89 426,90 426,91 426,92 426,93 426,94 426,95 426,96 425,97 425,98 425,99 425,100 425,101 425,102 425,103 425,104 425,105 425,106 425,107 425,108 425,109 425,110 425,111 425,112 425,113 425,114 425,115 425,116 425,117 425,118 425,119 424,120 424,121 424,122 424,123 424,124 424,125 424,126 424,127 424,128 424,129 424,130 424,131 424,132 424,133 424,134 424,135 424,136 424,137 424,138 424,139 424,140 424,141 424,142 424,143 424,144 424,145 424,146 423,147 423,148 423,149 423,150 423,151 423,152 423,153 423,154 423,155 423,156 423,157 423,158 423,159 423,160 423,161 423,162 423,163 423,164 423,165 423,166 423,167 423,168 423,169 423,170 422,171 422,172 422,173 423,174 423,175 423,176 423,177 423,178 422,179 422,180 422,181 423,182 423,183 423,184 423,185 423,186 422,187 422,188 422,189 422,190 422,191 422,192 422,193 422,194 422,195 422,196 422,197 422,198 422,199 422,200 422,201 422,202 422,203 422,204 422,205 422,206 422,207 422,208 423,209 423,210 423,211 422,212 423,213 423,214 423,215 423,216 423,217 423,218 423,219 423,220 423,221 423,222 423,223 423,224 424,225 424,226 424,227 425,228 425,229 425,230 426,231 426,232 426,233 427,234 427,235 427,236 428,237 428,238 429,239 429,240 430,241 430,242 431,243 431,244 432,245 433,246 433,247 434,248 435,249 436,250 436,251 437,252 438,252 439,253 440,254 441,255 442,256 443,256 444,257 445,257 446,258 447,258 448,258 449,259 450,259 451,259 452,259 453,259 454,259 455,259 456,259 457,259 458,259 459,259 460,259 461,258 462,258 463,258 464,258 465,258 466,258 467,258 468,258 469,258 470,258 471,258 472,259 473,259 474,260 475,260 476,261 477,262 478,263 478,264 478,265 478,266 479,265 480,264 481,264 482,263 483,263 484,262 485,262 486,262 487,262 488,261 489,261 490,261 491,261 492,261 493,260 494,260 495,260 496,259 497,259 498,259 499,258 500,258 501,258 502,257 503,257 504,256 505,255 506,255 507,254 508,253 509,252 510,251 511,250 512,249 513,248 514,247 514,246 515,245 515,244 515,243 515,242 515,241 515,240 515,239 515,238 514,237 514,236 514,235 515,234 515,233 515,232 515,231 515,230 515,229 515,228 514,227 514,226 514,225 515,224 514,223 514,222 514,221 514,220 514,219 514,218 514,217 514,216 514,215 514,214 514,213 514,212 514,211 514,210 514,209 514,208 514,207 514,206 514,205 514,204 514,203 514,202 514,201 514,200 514,199 514,198 514,197 514,196 514,195 514,194 514,193 514,192 514,191 514,190 514,189 514,188 514,187 514,186 514,185 514,184 514,183 514,182 514,181 514,180 514,179 514,178 514,177 514,176 514,175 514,174 514,173 514,172 514,171 514,170 514,169 514,168 514,167 514,166 514,165 514,164 514,163 514,162 514,161 514,160 514,159 514,158 514,157 514,156 514,155 514,154 514,153 514,152 514,151 514,150 514,149 514,148 514,147 514,146 514,145 514,144 514,143 514,142 514,141 514,140 514,139 514,138 514,137 514,136 514,135 514,134 514,133 514,132 514,131 514,130 514,129 514,128 514,127 514,126 514,125 514,124 514,123 514,122 514,121 514,120 514,119 514,118 514,117 514,116 514,115 514,114 514,113 514,112 514,111 514,110 514,109 514,108 514,107 514,106 514,105 514,104 514,103 514,102 514,101 514,100 514,99 514,98 514,97 514,96 514,95 514,94 514,93 514,92 514,91 514,90 514,89 514,88 514,87 514,86 514,85 514,84 514,83 514,82 514,81 514,80 514,79 514,78 514,77 514,76 514,75 514,74 514,73 514,72 514,71 514,70 514,69 514,68 514,67 514,66 514,65 514,64 514,63 514,62 514,61 513,60 512,59 511,58 510,57 509,57 508,56 507,55 506,54 505,54 504,53 503,52 502,52 501,51 500,51 499,51 498,50 497,50 496,49 495,49 494,49 493,48 492,48 491,48 490,48 489,47 488,47 487,47 486,47 485,47 484,46 483,46 482,46 481,46 480,46 479,46 478,46 477,46 476,46 475,46 474,46 473,46 472,46 471,46 470,46 469,46 468,46 467,46">
      <metadata tailDirection="" confidence="0.91" linkedToCharacter="" id="UltraEleven_089_balloon_2" tailTip=""></metadata>
    </polygon>
    <polygon points="331,45 330,46 329,46 328,46 327,46 326,47 325,47 324,47 323,47 322,48 321,49 320,49 319,50 318,51 317,52 316,53 315,54 314,55 313,56 312,57 312,58 312,59 312,60 312,61 312,62 312,63 312,64 312,65 312,66 312,67 312,68 312,69 312,70 312,71 312,72 312,73 312,74 312,75 312,76 312,77 312,78 312,79 312,80 312,81 312,82 311,83 312,84 312,85 311,86 312,87 312,88 312,89 312,90 312,91 312,92 312,93 312,94 312,95 312,96 312,97 312,98 312,99 312,100 312,101 312,102 312,103 312,104 312,105 312,106 312,107 312,108 312,109 312,110 312,111 312,112 312,113 312,114 312,115 312,116 312,117 312,118 312,119 312,120 312,121 312,122 312,123 312,124 312,125 312,126 312,127 312,128 312,129 312,130 312,131 312,132 312,133 312,134 312,135 312,136 312,137 312,138 312,139 312,140 312,141 312,142 312,143 312,144 312,145 312,146 312,147 312,148 312,149 312,150 312,151 312,152 312,153 312,154 312,155 312,156 312,157 312,158 312,159 312,160 312,161 312,162 312,163 312,164 312,165 312,166 312,167 312,168 312,169 312,170 312,171 312,172 312,173 312,174 312,175 312,176 312,177 312,178 312,179 312,180 312,181 312,182 312,183 312,184 312,185 312,186 312,187 312,188 312,189 312,190 312,191 312,192 312,193 312,194 312,195 312,196 312,197 312,198 312,199 312,200 312,201 312,202 312,203 312,204 312,205 312,206 312,207 312,208 312,209 312,210 312,211 312,212 312,213 312,214 312,215 312,216 312,217 312,218 312,219 312,220 312,221 312,222 312,223 312,224 312,225 312,226 312,227 312,228 312,229 312,230 312,231 312,232 312,233 312,234 312,235 312,236 312,237 312,238 312,239 312,240 311,241 312,242 312,243 312,244 311,245 312,246 312,247 312,248 312,249 312,250 312,251 313,252 314,253 315,254 316,255 317,255 318,256 319,257 320,258 321,258 322,259 323,259 324,260 325,260 326,261 327,261 328,262 329,262 330,262 331,262 332,262 333,262 334,262 335,263 336,263 337,263 338,263 339,263 340,263 341,263 342,263 343,263 344,263 345,263 346,263 347,263 348,263 349,263 350,262 351,262 352,262 353,262 354,262 355,262 356,262 357,262 358,262 359,262 360,262 361,262 362,263 363,263 364,263 364,262 365,261 366,260 367,259 368,259 369,258 370,258 371,257 372,257 373,256 374,255 375,255 376,254 377,253 378,253 379,252 379,251 380,250 381,250 381,249 382,248 383,247 383,246 384,245 385,244 385,243 386,242 386,241 387,240 388,239 388,238 389,237 389,236 389,235 390,234 390,233 391,232 391,231 391,230 392,229 392,228 392,227 392,226 392,225 392,224 392,223 392,222 392,221 392,220 393,219 393,218 393,217 393,216 393,215 393,214 393,213 393,212 393,211 393,210 393,209 393,208 393,207 393,206 393,205 393,204 393,203 393,202 393,201 393,200 393,199 393,198 393,197 393,196 393,195 393,194 393,193 393,192 393,191 393,190 393,189 393,188 393,187 393,186 393,185 393,184 393,183 393,182 393,181 393,180 393,179 393,178 393,177 393,176 393,175 393,174 393,173 393,172 393,171 393,170 393,169 393,168 393,167 393,166 393,165 393,164 393,163 393,162 393,161 393,160 393,159 393,158 393,157 393,156 393,155 393,154 393,153 393,152 393,151 393,150 393,149 393,148 393,147 393,146 393,145 393,144 393,143 393,142 393,141 393,140 393,139 393,138 393,137 394,136 394,135 394,134 394,133 394,132 394,131 394,130 394,129 394,128 394,127 394,126 394,125 394,124 394,123 394,122 394,121 394,120 394,119 394,118 394,117 394,116 394,115 394,114 394,113 394,112 394,111 394,110 394,109 394,108 394,107 394,106 394,105 394,104 394,103 394,102 394,101 394,100 394,99 394,98 394,97 394,96 394,95 394,94 394,93 394,92 394,91 394,90 394,89 394,88 394,87 394,86 394,85 394,84 394,83 394,82 394,81 394,80 394,79 394,78 394,77 394,76 393,75 393,74 393,73 393,72 393,71 392,70 392,69 391,68 391,67 390,66 389,65 388,64 388,63 387,62 386,61 385,60 385,59 384,58 383,57 382,56 381,55 380,54 379,53 378,52 377,51 376,51 375,50 374,49 373,49 372,48 371,48 370,47 369,47 368,47 367,47 366,46 365,46 364,46 363,46 362,46 361,46 360,46 359,46 358,46 357,45 356,45 355,45 354,45 353,45 352,45 351,45 350,45 349,45 348,45 347,45 346,45 345,45 344,45 343,45 342,45 341,45 340,45 339,45 338,45 337,45 336,45 335,45 334,45 333,45 332,45 331,45">
      <metadata tailDirection="" confidence="0.87" linkedToCharacter="" id="UltraEleven_089_balloon_3" tailTip=""></metadata>
    </polygon>
    <polygon points="96,33 95,34 94,34 93,34 92,35 91,35 90,36 89,36 88,37 87,37 86,38 85,38 84,39 83,39 82,40 81,40 80,40 79,41 78,41 77,42 76,42 75,42 74,43 73,43 72,44 71,44 70,45 69,46 68,47 67,48 66,49 65,50 65,51 64,52 64,53 64,54 63,55 63,56 62,57 62,58 61,59 60,60 60,61 60,62 60,63 59,64 59,65 59,66 59,67 59,68 59,69 58,70 58,71 58,72 58,73 58,74 58,75 58,76 58,77 58,78 58,79 58,80 58,81 58,82 58,83 58,84 58,85 58,86 58,87 58,88 58,89 58,90 58,91 58,92 58,93 58,94 58,95 58,96 58,97 58,98 58,99 58,100 58,101 58,102 58,103 58,104 58,105 58,106 58,107 58,108 58,109 58,110 58,111 58,112 58,113 58,114 58,115 58,116 58,117 58,118 58,119 58,120 58,121 58,122 58,123 58,124 58,125 58,126 58,127 58,128 58,129 58,130 58,131 58,132 57,133 57,134 57,135 57,136 57,137 57,138 57,139 57,140 57,141 58,142 58,143 58,144 58,145 58,146 58,147 58,148 58,149 58,150 58,151 57,152 57,153 58,154 58,155 58,156 58,157 58,158 58,159 58,160 58,161 58,162 58,163 58,164 58,165 58,166 58,167 58,168 58,169 58,170 58,171 58,172 58,173 58,174 58,175 59,176 59,177 59,178 59,179 59,180 59,181 59,182 59,183 59,184 59,185 59,186 59,187 59,188 59,189 59,190 59,191 59,192 59,193 59,194 59,195 59,196 59,197 60,198 60,199 59,200 60,201 60,202 60,203 60,204 60,205 60,206 59,207 59,208 59,209 59,210 60,211 60,212 60,213 60,214 60,215 60,216 60,217 60,218 60,219 60,220 60,221 60,222 60,223 60,224 60,225 60,226 60,227 60,228 61,229 60,230 60,231 61,232 61,233 61,234 62,235 62,236 62,237 62,238 62,239 62,240 62,241 62,242 63,243 63,244 63,245 63,246 64,247 64,248 64,249 64,250 65,251 65,252 65,253 66,254 66,255 66,256 67,257 67,258 67,259 68,260 68,261 68,262 69,263 69,264 70,265 71,266 72,267 73,268 74,269 74,270 75,271 76,272 77,273 78,274 79,275 80,276 81,276 82,277 83,278 84,278 85,279 86,279 87,280 88,280 89,281 90,281 91,281 92,282 93,282 94,282 95,282 96,282 97,283 98,283 99,283 100,283 101,284 102,284 103,284 104,285 105,285 106,285 107,285 108,286 109,286 108,285 108,284 108,283 108,282 108,281 108,280 109,279 109,278 110,277 111,276 112,275 113,274 114,273 115,272 116,272 117,271 118,270 119,269 120,269 121,268 122,268 123,267 124,266 125,265 126,264 126,263 127,262 127,261 127,260 128,259 128,258 129,257 129,256 130,255 130,254 130,253 131,252 131,251 131,250 131,249 132,248 132,247 132,246 132,245 133,244 133,243 133,242 133,241 133,240 133,239 133,238 133,237 133,236 133,235 133,234 133,233 134,232 134,231 134,230 134,229 134,228 134,227 134,226 134,225 134,224 134,223 134,222 134,221 134,220 134,219 134,218 134,217 134,216 134,215 134,214 134,213 134,212 134,211 134,210 134,209 134,208 134,207 134,206 134,205 134,204 134,203 134,202 134,201 134,200 134,199 134,198 134,197 134,196 134,195 134,194 134,193 134,192 134,191 134,190 134,189 134,188 134,187 134,186 134,185 134,184 134,183 134,182 134,181 134,180 134,179 134,178 134,177 134,176 135,175 136,175 137,176 138,176 139,177 140,177 141,177 142,177 143,177 144,178 145,178 146,178 147,178 148,178 149,178 150,178 151,178 152,178 153,178 154,178 155,178 156,178 157,178 158,178 159,178 160,177 161,177 162,177 163,177 164,176 165,176 166,176 167,175 168,174 169,173 170,172 170,171 171,170 171,169 172,168 172,167 173,166 173,165 173,164 174,163 174,162 174,161 174,160 174,159 174,158 175,157 175,156 175,155 175,154 175,153 175,152 175,151 175,150 175,149 175,148 176,147 176,146 176,145 176,144 176,143 176,142 176,141 176,140 176,139 176,138 176,137 176,136 176,135 176,134 176,133 176,132 176,131 176,130 176,129 176,128 176,127 176,126 176,125 176,124 176,123 176,122 176,121 176,120 176,119 176,118 176,117 176,116 176,115 176,114 176,113 176,112 176,111 176,110 176,109 176,108 176,107 176,106 176,105 176,104 176,103 176,102 176,101 175,100 175,99 175,98 175,97 175,96 175,95 175,94 175,93 175,92 175,91 175,90 175,89 175,88 175,87 175,86 175,85 175,84 175,83 175,82 175,81 175,80 175,79 175,78 175,77 174,76 174,75 174,74 174,73 174,72 173,71 173,70 173,69 172,68 172,67 171,66 171,65 170,64 170,63 170,62 169,61 168,60 167,59 167,58 166,57 165,57 164,56 163,56 162,55 161,55 160,55 159,55 158,55 157,55 156,55 155,55 154,55 153,55 152,55 151,55 150,55 149,55 148,55 147,54 146,54 145,54 144,54 143,54 142,54 141,54 140,55 139,56 138,56 138,57 137,58 136,59 135,59 134,58 134,57 133,56 133,55 133,54 132,53 132,52 132,51 132,50 132,49 131,48 131,47 130,46 130,45 129,44 129,43 128,42 127,41 126,40 125,39 124,38 123,38 122,37 121,37 120,36 119,36 118,35 117,35 116,34 115,34 114,34 113,34 112,33 111,33 110,33 109,33 108,33 107,33 106,33 105,33 104,33 103,33 102,33 101,33 100,33 99,33 98,33 97,33 96,33">
      <metadata tailDirection="" confidence="0.89" linkedToCharacter="" id="UltraEleven_089_balloon_4" tailTip=""></metadata>
    </polygon>
    <polygon points="249,28 248,29 247,29 246,29 245,30 244,30 243,31 242,31 241,32 240,32 239,33 238,33 237,34 236,35 235,35 234,36 233,36 232,37 231,38 230,38 229,39 228,40 227,40 226,41 225,42 224,42 223,43 222,44 221,44 220,45 219,46 218,47 217,47 216,48 215,49 214,50 213,51 212,52 211,53 210,54 209,55 208,55 208,56 207,57 206,58 205,59 204,60 203,61 202,62 201,63 200,64 199,65 198,66 198,67 197,68 197,69 196,70 196,71 195,72 195,73 194,74 194,75 194,76 193,77 193,78 193,79 193,80 192,81 192,82 192,83 192,84 192,85 192,86 192,87 191,88 191,89 191,90 191,91 191,92 191,93 190,94 190,95 190,96 190,97 190,98 190,99 190,100 190,101 190,102 190,103 190,104 190,105 190,106 190,107 189,108 189,109 190,110 190,111 189,112 189,113 189,114 189,115 189,116 189,117 189,118 189,119 189,120 189,121 189,122 189,123 189,124 189,125 189,126 190,127 189,128 189,129 189,130 189,131 189,132 190,133 190,134 190,135 190,136 190,137 190,138 190,139 190,140 190,141 190,142 190,143 190,144 190,145 190,146 191,147 191,148 191,149 191,150 191,151 191,152 192,153 192,154 192,155 192,156 193,157 193,158 193,159 194,160 194,161 194,162 194,163 195,164 195,165 195,166 196,167 196,168 196,169 196,170 197,171 197,172 197,173 198,174 198,175 198,176 199,177 199,178 199,179 199,180 200,181 200,182 201,183 201,184 201,185 202,186 202,187 203,188 203,189 204,190 204,191 204,192 205,193 205,194 206,195 206,196 206,197 207,198 207,199 208,200 208,201 208,202 209,203 209,204 210,205 210,206 210,207 211,208 211,209 212,210 212,211 212,212 213,213 213,214 214,215 214,216 215,217 215,218 216,219 216,220 217,221 217,222 218,223 218,224 219,225 219,226 220,227 220,228 221,229 222,230 222,231 223,232 224,233 225,233 226,234 227,235 228,236 229,236 230,237 231,237 232,238 233,238 234,238 235,238 236,238 237,239 238,239 239,239 240,239 241,239 242,239 243,240 244,240 245,240 246,240 247,240 248,241 249,241 250,241 251,241 252,241 253,241 254,241 255,241 256,241 257,241 258,241 259,241 260,241 261,241 262,241 263,241 264,240 265,240 266,240 267,239 268,239 269,239 270,238 271,238 272,238 273,237 274,236 275,236 276,235 277,234 278,233 279,232 280,232 281,231 282,230 283,229 284,228 285,227 286,226 286,225 287,224 288,223 289,222 290,221 290,220 291,219 292,218 293,218 293,217 294,216 295,215 296,214 296,213 297,212 298,211 298,210 299,209 300,208 300,207 300,206 300,205 300,204 300,203 300,202 300,201 300,200 300,199 300,198 300,197 300,196 300,195 300,194 300,193 300,192 300,191 300,190 300,189 300,188 300,187 300,186 300,185 300,184 300,183 300,182 300,181 300,180 300,179 300,178 300,177 300,176 300,175 300,174 300,173 300,172 300,171 300,170 300,169 300,168 300,167 300,166 300,165 300,164 300,163 300,162 300,161 300,160 300,159 300,158 300,157 300,156 300,155 300,154 300,153 300,152 300,151 300,150 300,149 300,148 300,147 300,146 300,145 300,144 300,143 300,142 300,141 300,140 300,139 300,138 300,137 300,136 300,135 300,134 300,133 300,132 300,131 300,130 300,129 300,128 300,127 300,126 300,125 300,124 300,123 300,122 300,121 300,120 300,119 300,118 300,117 300,116 300,115 300,114 300,113 300,112 300,111 300,110 300,109 300,108 300,107 300,106 300,105 300,104 300,103 300,102 300,101 300,100 300,99 300,98 300,97 300,96 300,95 300,94 300,93 300,92 300,91 300,90 300,89 300,88 300,87 300,86 300,85 300,84 300,83 300,82 300,81 300,80 300,79 300,78 300,77 300,76 300,75 300,74 300,73 300,72 300,71 300,70 300,69 300,68 300,67 300,66 300,65 300,64 300,63 300,62 300,61 300,60 300,59 300,58 300,57 300,56 300,55 300,54 300,53 300,52 300,51 300,50 299,50 298,49 297,48 296,48 295,47 294,46 293,45 292,45 291,44 290,43 289,42 288,42 287,41 286,40 285,40 284,39 283,38 282,38 281,37 280,36 279,36 278,35 277,34 276,34 275,34 274,33 273,33 272,32 271,32 270,31 269,31 268,30 267,30 266,30 265,29 264,29 263,29 262,29 261,29 260,28 259,28 258,28 257,28 256,28 255,28 254,28 253,28 252,28 251,28 250,28 249,28">
      <metadata tailDirection="" confidence="0.86" linkedToCharacter="" id="UltraEleven_089_balloon_5" tailTip=""></metadata>
    </polygon>
    <polygon points="400,621 399,622 398,622 397,622 396,622 395,622 394,622 394,623 394,624 394,625 394,626 393,627 393,628 393,629 393,630 392,631 392,632 392,633 391,634 391,635 390,636 390,637 389,638 388,639 387,639 386,640 385,641 384,641 383,641 382,641 381,641 380,640 379,640 378,639 377,639 376,638 375,637 375,638 375,639 375,640 375,641 375,642 374,643 374,644 374,645 374,646 374,647 374,648 374,649 373,650 373,651 373,652 372,653 372,654 371,655 370,656 369,657 368,657 367,658 366,658 365,657 364,657 364,658 364,659 364,660 364,661 364,662 364,663 364,664 365,665 365,666 365,667 366,668 366,669 366,670 366,671 366,672 367,673 367,674 367,675 367,676 367,677 366,678 366,679 366,680 365,681 365,682 365,683 364,684 364,685 364,686 364,687 365,688 364,689 364,690 364,691 364,692 364,693 365,694 365,695 365,696 365,697 366,698 366,699 365,700 365,701 365,702 365,703 365,704 364,705 364,706 364,707 364,708 364,709 364,710 364,711 364,712 364,713 364,714 364,715 364,716 364,717 364,718 364,719 364,720 365,721 365,722 365,723 364,724 364,725 364,726 365,727 365,728 365,729 364,730 364,731 364,732 365,733 365,734 365,735 365,736 365,737 364,738 364,739 365,740 365,741 365,742 366,742 367,742 368,743 369,744 370,745 370,746 370,747 370,748 370,749 370,750 371,751 370,752 370,753 370,754 370,755 370,756 369,757 369,758 369,759 369,760 370,760 371,759 372,758 373,758 374,758 375,758 376,758 377,758 378,759 379,760 379,761 380,762 381,763 382,764 382,765 382,766 383,767 383,768 383,769 383,770 383,771 384,770 385,769 386,768 387,767 388,767 389,768 390,769 391,770 392,771 392,772 392,773 393,774 393,775 393,776 394,777 394,778 394,779 394,780 394,781 395,782 395,783 395,784 395,785 395,786 395,787 395,786 396,785 396,784 397,783 397,782 398,781 399,780 400,780 401,780 402,780 403,780 404,781 405,782 406,783 406,784 407,785 408,786 408,787 409,788 409,789 410,790 410,791 410,792 411,793 411,794 411,795 412,796 412,797 412,796 412,795 412,794 412,793 412,792 412,791 412,790 412,789 412,788 413,787 413,786 413,785 414,784 414,783 414,782 414,781 415,780 415,779 416,778 416,777 417,776 418,775 418,774 419,773 419,772 420,771 421,770 422,769 423,768 424,768 425,768 426,767 427,767 428,767 427,766 427,765 427,764 427,763 427,762 427,761 428,760 428,759 428,758 428,757 429,756 429,755 429,754 430,753 431,752 432,751 433,750 434,749 435,749 436,748 437,748 438,748 438,747 438,746 437,745 437,744 436,743 436,742 436,741 436,740 436,739 436,738 436,737 436,736 437,735 437,734 437,733 437,732 437,731 438,730 438,729 438,728 438,727 438,726 439,725 439,724 440,723 440,722 441,721 442,720 442,719 443,718 443,717 442,716 441,715 440,714 440,713 440,712 439,711 439,710 439,709 439,708 439,707 439,706 439,705 440,704 440,703 440,702 440,701 441,700 441,699 442,698 442,697 443,696 443,695 443,694 444,693 445,692 446,691 447,690 446,690 445,689 444,688 443,687 442,686 441,685 441,684 441,683 440,682 440,681 440,680 440,679 440,678 440,677 440,676 440,675 440,674 440,673 441,672 441,671 441,670 442,669 442,668 442,667 443,666 443,665 443,664 442,664 441,664 440,663 439,662 438,661 438,660 438,659 438,658 438,657 438,656 439,655 439,654 439,653 440,652 440,651 441,650 441,649 442,648 442,647 443,646 444,645 443,645 442,645 441,645 440,645 439,645 438,645 437,645 436,644 435,643 434,642 433,641 432,640 432,639 432,638 432,637 432,636 432,635 432,634 432,633 432,632 432,631 431,632 430,633 429,633 428,634 427,635 426,636 425,636 424,636 423,636 422,637 421,637 420,637 419,636 418,635 417,634 416,633 415,632 415,631 415,630 414,629 414,628 414,627 414,626 414,625 414,624 414,623 414,622 413,621 412,621 411,621 410,621 409,621 408,621 407,621 406,621 405,621 404,621 403,621 402,621 401,621 400,621">
      <metadata tailDirection="" confidence="0.87" linkedToCharacter="" id="UltraEleven_089_balloon_6" tailTip=""></metadata>
    </polygon>
  </svg>
</svg>
