<?xml version="1.0" encoding="UTF-8" standalone="no"?>
<svg width="827" xmlns="http://www.w3.org/2000/svg" version="1.0" height="1170">
  <title>UltraEleven_161</title>
  <svg contentScriptType="text/ecmascript" zoomAndPan="magnify" contentStyleType="text/css" class="Page" preserveAspectRatio="xMidYMid meet" version="1.0">
    <image xmlns:xlink="http://www.w3.org/1999/xlink" x="0" y="0" width="827" height="1170" xlink:href="./../../dataset_Manga109/UltraEleven/UltraEleven_161.jpg" xlink:type="simple" xlink:actuate="onLoad" preserveAspectRatio="xMidYMid meet" xlink:show="embed"/>
  </svg>
  <style type="text/css" xml:space="preserve">
        * { stroke-linejoin: round; }
        .Unclassified   { fill: orange; stroke: none;   opacity: 1.0; visibility: hidden; }
        .Noise          { fill: pink;   stroke: none;   opacity: 0.2; visibility: hidden; }
        .Panel          { fill: none;   stroke: red;    stroke-width:3; opacity: 0.5; visibility: visible; image-rendering: optimizeSpeed; }
        .Line           { fill: green;  stroke: none;   opacity: 0.5; visibility: visible; image-rendering: optimizeSpeed; }
        .TextArea       { fill: grey;   stroke: none;   opacity: 0.2; visibility: visible; image-rendering: optimizeSpeed; }
        .Balloon        { fill: cyan;   stroke: none;   opacity: 0.5; visibility: visible; image-rendering: optimizeSpeed; }
        .Letter         { fill: blue;   stroke: none;   opacity: 0.2; visibility: hidden; }
        .Object, .Character, .Face  { fill: yellow; stroke: none;   opacity: 0.5; visibility: visible; image-rendering: optimizeSpeed; }
        .Page           { fill: white;  stroke: none;    opacity: 0.5; visibility: visible; }
        .linkSBSC { fill: blue; stroke: none; opacity: 1.0; visibility: visible; }
        polygon:hover { opacity:1.0; stroke:red; }
</style>
  <svg xmlns="http://www.w3.org/2000/svg" contentScriptType="text/ecmascript" zoomAndPan="magnify" contentStyleType="text/css" class="Balloon" preserveAspectRatio="xMidYMid meet" version="1.0">
    <polygon points="378,947 377,948 376,948 375,948 374,948 373,948 372,948 371,948 370,948 369,948 368,948 367,948 366,948 365,948 364,948 363,948 362,948 361,948 360,948 359,948 358,948 357,948 356,948 355,948 354,948 353,948 352,948 351,948 350,948 349,948 348,948 347,948 346,948 345,948 344,948 343,948 342,948 341,948 340,948 339,948 338,948 337,948 336,948 335,948 334,948 333,948 332,948 331,948 330,948 329,948 328,948 327,948 326,948 325,948 324,948 323,948 322,948 321,948 320,948 319,948 318,948 317,948 316,948 315,948 314,948 313,948 312,948 311,948 310,948 309,948 308,948 307,948 306,948 305,948 304,948 303,948 302,948 302,949 302,950 302,951 302,952 302,953 302,954 302,955 302,956 302,957 302,958 302,959 302,960 302,961 302,962 302,963 302,964 302,965 302,966 302,967 302,968 302,969 302,970 302,971 302,972 302,973 302,974 302,975 302,976 302,977 302,978 302,979 302,980 302,981 302,982 302,983 302,984 302,985 302,986 302,987 302,988 302,989 302,990 302,991 302,992 302,993 302,994 302,995 302,996 302,997 302,998 302,999 302,1000 302,1001 302,1002 302,1003 302,1004 302,1005 302,1006 302,1007 302,1008 302,1009 302,1010 302,1011 302,1012 302,1013 302,1014 302,1015 302,1016 302,1017 302,1018 303,1019 302,1020 302,1021 303,1022 303,1023 303,1024 303,1025 303,1026 303,1027 303,1028 303,1029 303,1030 303,1031 303,1032 302,1033 303,1034 303,1035 303,1036 303,1037 303,1038 303,1039 303,1040 303,1041 303,1042 303,1043 303,1044 303,1045 303,1046 303,1047 303,1048 303,1049 303,1050 303,1051 303,1052 303,1053 303,1054 303,1055 303,1056 303,1057 303,1058 303,1059 303,1060 303,1061 303,1062 303,1063 303,1064 303,1065 303,1066 303,1067 303,1068 303,1069 303,1070 303,1071 303,1072 303,1073 303,1074 303,1075 303,1076 303,1077 303,1078 303,1079 303,1080 303,1081 303,1082 303,1083 303,1084 303,1085 303,1086 303,1087 303,1088 303,1089 303,1090 303,1091 303,1092 303,1093 303,1094 303,1095 303,1096 303,1097 303,1098 303,1099 303,1100 303,1101 303,1102 303,1103 303,1104 303,1105 303,1106 303,1107 303,1108 303,1109 303,1110 303,1111 303,1112 303,1113 303,1114 303,1115 303,1116 303,1117 303,1118 303,1119 303,1120 303,1121 303,1122 303,1123 304,1122 305,1123 306,1124 306,1125 306,1126 306,1127 306,1128 306,1129 307,1128 307,1127 307,1126 308,1125 309,1125 310,1124 311,1125 311,1126 311,1127 311,1128 311,1129 311,1130 311,1131 311,1132 311,1133 311,1134 312,1135 312,1136 312,1137 312,1138 312,1139 312,1140 312,1141 312,1142 312,1143 312,1144 312,1145 312,1146 312,1147 313,1148 313,1149 313,1150 313,1151 313,1152 313,1153 313,1154 313,1155 313,1154 313,1153 313,1152 313,1151 313,1150 313,1149 313,1148 313,1147 312,1146 312,1145 312,1144 312,1143 312,1142 312,1141 312,1140 312,1139 312,1138 312,1137 312,1136 312,1135 312,1134 312,1133 311,1132 311,1131 311,1130 311,1129 311,1128 311,1127 311,1126 312,1125 313,1124 314,1125 315,1126 315,1127 315,1128 315,1129 315,1130 315,1131 315,1130 316,1129 317,1129 318,1130 318,1131 318,1132 318,1131 318,1130 318,1129 318,1128 318,1127 319,1126 320,1126 319,1126 318,1125 318,1124 319,1123 320,1123 320,1122 321,1121 322,1122 322,1123 323,1124 323,1125 323,1126 323,1127 324,1128 324,1129 324,1130 324,1131 324,1132 325,1133 325,1134 325,1135 326,1134 325,1133 325,1132 325,1131 325,1130 325,1129 325,1128 325,1127 325,1126 324,1125 324,1124 324,1123 324,1122 325,1121 325,1120 326,1119 327,1120 327,1121 327,1122 328,1123 328,1124 329,1125 329,1126 330,1127 331,1128 332,1129 332,1130 332,1129 332,1128 332,1127 333,1126 334,1127 335,1127 336,1128 337,1129 338,1130 338,1129 337,1128 337,1127 337,1126 337,1125 338,1124 339,1125 340,1126 340,1127 341,1128 341,1129 341,1130 342,1131 342,1132 343,1133 343,1134 344,1135 345,1136 345,1137 346,1138 345,1139 345,1140 346,1139 346,1138 347,1137 348,1138 348,1139 348,1140 349,1141 349,1142 350,1143 350,1144 351,1145 351,1146 352,1147 352,1148 352,1149 353,1150 353,1151 354,1152 354,1153 355,1154 355,1155 355,1156 356,1157 356,1158 357,1159 358,1158 359,1159 359,1160 359,1161 360,1162 360,1163 361,1164 361,1165 361,1166 362,1167 363,1168 363,1167 362,1166 362,1165 361,1164 361,1163 361,1162 360,1161 360,1160 359,1159 359,1158 358,1157 358,1156 357,1155 357,1154 356,1153 356,1152 356,1151 355,1150 355,1149 354,1148 354,1147 353,1146 353,1145 352,1144 352,1143 352,1142 351,1141 351,1140 350,1139 350,1138 349,1137 349,1136 348,1135 348,1134 347,1133 347,1132 347,1131 346,1130 345,1129 345,1128 345,1127 344,1126 344,1125 343,1124 343,1123 344,1122 345,1123 346,1124 347,1125 347,1126 348,1127 349,1128 349,1129 350,1130 350,1131 351,1132 351,1133 352,1134 352,1135 353,1136 353,1137 354,1138 354,1139 355,1140 355,1141 356,1142 356,1143 357,1144 357,1145 357,1146 358,1147 358,1148 359,1149 359,1150 360,1151 360,1152 361,1153 361,1154 362,1155 362,1156 363,1157 364,1158 364,1159 365,1160 365,1161 366,1162 366,1163 366,1164 367,1165 367,1164 366,1163 366,1162 365,1161 365,1160 364,1159 364,1158 363,1157 363,1156 363,1155 362,1154 362,1153 361,1152 360,1151 360,1150 359,1149 359,1148 358,1147 358,1146 357,1145 357,1144 356,1143 356,1142 355,1141 355,1140 354,1139 354,1138 353,1137 353,1136 352,1135 352,1134 351,1133 351,1132 350,1131 350,1130 349,1129 349,1128 350,1127 351,1128 352,1129 351,1128 351,1127 351,1126 351,1125 352,1124 353,1125 354,1124 355,1124 356,1125 355,1124 355,1123 354,1122 354,1121 353,1120 353,1119 352,1118 353,1117 354,1117 355,1118 355,1119 356,1120 357,1121 358,1122 359,1123 360,1124 360,1125 361,1126 362,1127 362,1126 361,1125 361,1124 362,1123 361,1124 360,1123 360,1122 360,1121 360,1120 359,1119 358,1118 358,1117 358,1116 357,1115 356,1114 357,1113 358,1113 359,1114 360,1115 360,1116 361,1117 362,1118 362,1119 363,1120 364,1121 364,1122 365,1123 366,1124 365,1123 364,1122 364,1121 363,1120 364,1119 365,1119 366,1120 366,1121 367,1122 368,1123 369,1124 370,1124 371,1125 370,1126 371,1127 371,1128 372,1129 373,1130 374,1131 374,1132 375,1133 376,1134 376,1135 377,1136 378,1137 379,1138 379,1139 380,1140 381,1141 381,1142 382,1143 383,1144 384,1145 384,1146 385,1147 386,1148 387,1149 386,1148 386,1147 385,1146 384,1145 383,1144 383,1143 384,1142 385,1143 386,1144 387,1145 388,1146 388,1147 389,1147 388,1146 387,1145 387,1144 386,1143 387,1142 386,1141 386,1140 385,1139 384,1138 383,1137 382,1136 382,1135 381,1134 380,1133 379,1132 379,1131 378,1130 377,1129 376,1128 375,1127 375,1126 374,1125 373,1124 372,1123 371,1122 370,1121 369,1121 368,1120 369,1119 368,1118 368,1117 369,1116 370,1117 371,1118 372,1119 371,1118 370,1117 370,1116 369,1115 368,1114 367,1113 366,1112 365,1111 365,1110 366,1109 367,1108 368,1108 369,1109 370,1110 369,1111 370,1110 371,1109 372,1109 373,1110 374,1111 375,1112 376,1113 376,1114 377,1114 378,1114 379,1115 378,1116 379,1117 380,1117 381,1118 381,1119 382,1120 383,1119 384,1120 385,1121 384,1122 385,1123 386,1124 387,1123 388,1124 389,1125 388,1126 389,1127 390,1127 391,1127 392,1128 393,1129 394,1130 395,1131 396,1132 397,1133 398,1134 399,1135 398,1134 397,1133 396,1132 395,1131 394,1130 393,1129 392,1128 391,1127 390,1126 389,1125 388,1124 387,1123 387,1122 386,1121 385,1120 384,1119 383,1118 382,1117 381,1116 380,1115 379,1114 378,1113 377,1112 376,1111 375,1110 374,1109 375,1108 376,1108 377,1109 378,1110 379,1110 378,1109 377,1108 377,1107 376,1106 375,1105 374,1104 375,1103 376,1103 377,1103 378,1103 379,1104 380,1105 381,1106 382,1106 383,1107 384,1107 385,1107 386,1108 386,1109 387,1109 388,1110 389,1109 390,1110 390,1111 391,1111 392,1112 391,1113 392,1112 393,1112 394,1113 395,1114 396,1115 397,1116 398,1116 399,1117 400,1118 401,1119 402,1119 401,1119 400,1118 399,1117 398,1116 397,1115 396,1114 395,1113 394,1113 393,1112 392,1111 391,1110 390,1109 389,1108 388,1107 389,1106 390,1106 391,1107 392,1108 393,1109 394,1109 395,1110 396,1111 397,1112 398,1113 399,1113 400,1114 401,1115 402,1116 403,1116 404,1117 405,1118 406,1119 407,1120 408,1121 407,1120 406,1119 406,1118 405,1118 404,1117 403,1116 402,1116 401,1115 400,1114 399,1113 398,1112 397,1112 396,1111 395,1110 394,1109 393,1108 392,1108 391,1107 390,1106 389,1105 389,1106 388,1107 387,1106 386,1105 387,1104 386,1105 385,1104 384,1103 384,1102 384,1101 383,1101 382,1100 381,1099 380,1098 379,1097 380,1096 381,1096 382,1096 383,1095 384,1096 385,1097 386,1097 387,1098 388,1098 389,1099 390,1099 391,1100 392,1101 393,1102 394,1102 395,1101 396,1102 397,1103 398,1104 399,1105 400,1105 401,1106 402,1107 403,1108 404,1108 405,1109 404,1108 403,1108 402,1107 401,1106 400,1105 401,1104 402,1104 403,1104 404,1105 405,1106 406,1106 407,1107 408,1107 409,1108 408,1107 407,1106 406,1106 405,1105 404,1104 405,1103 406,1103 407,1104 408,1104 407,1103 408,1102 409,1102 410,1103 411,1103 412,1104 413,1103 414,1103 415,1104 414,1103 415,1102 416,1102 417,1102 418,1102 419,1103 419,1104 420,1105 421,1105 422,1104 421,1103 420,1103 419,1102 418,1101 417,1101 416,1101 415,1100 414,1099 413,1099 412,1098 411,1097 410,1096 409,1095 410,1094 409,1094 408,1094 407,1093 406,1092 407,1091 408,1091 407,1090 406,1090 405,1089 405,1088 406,1087 407,1088 406,1087 406,1086 406,1085 405,1085 404,1084 404,1083 403,1083 402,1082 402,1081 403,1080 404,1079 405,1080 406,1080 407,1079 408,1079 409,1080 410,1080 411,1080 410,1080 409,1079 408,1079 407,1078 406,1078 405,1078 404,1077 405,1076 406,1076 407,1076 408,1076 409,1076 410,1076 411,1076 412,1075 413,1076 412,1075 411,1075 410,1074 409,1074 408,1074 407,1073 406,1073 405,1072 406,1071 407,1071 408,1070 409,1070 410,1070 409,1069 408,1068 407,1068 406,1067 405,1067 404,1066 403,1066 402,1065 401,1064 402,1063 403,1062 404,1062 405,1063 405,1064 405,1063 404,1062 404,1061 403,1060 404,1059 405,1059 406,1060 405,1059 404,1058 405,1057 406,1057 405,1056 406,1055 407,1054 406,1053 405,1053 404,1053 403,1052 402,1052 401,1052 400,1052 399,1051 400,1050 401,1050 402,1050 403,1050 404,1050 405,1050 406,1050 407,1050 408,1050 407,1050 406,1050 405,1050 404,1050 403,1049 404,1048 405,1048 406,1048 407,1048 408,1047 409,1047 410,1047 409,1046 408,1046 407,1046 406,1046 405,1046 404,1046 403,1045 402,1044 403,1043 404,1043 405,1043 406,1043 407,1043 408,1043 409,1043 410,1043 411,1043 412,1043 411,1043 410,1043 409,1043 408,1043 407,1043 406,1043 405,1043 404,1043 403,1043 402,1043 401,1043 400,1043 399,1043 398,1043 397,1043 396,1042 395,1041 396,1040 397,1039 396,1038 397,1037 398,1037 399,1036 400,1036 399,1036 398,1036 397,1036 396,1036 395,1035 395,1034 396,1033 395,1033 394,1032 394,1031 394,1030 393,1030 392,1029 391,1029 390,1029 389,1029 388,1028 389,1027 390,1026 389,1025 390,1024 391,1024 392,1024 393,1023 394,1023 395,1023 396,1023 397,1023 398,1023 399,1023 398,1023 397,1023 396,1023 395,1023 394,1023 393,1023 392,1022 391,1022 390,1021 391,1020 392,1020 393,1020 394,1020 395,1019 396,1019 397,1019 398,1018 397,1017 398,1016 399,1016 400,1016 401,1016 402,1015 403,1015 404,1015 405,1015 406,1014 407,1014 408,1014 407,1014 406,1014 405,1015 404,1015 403,1015 402,1015 401,1014 401,1013 401,1012 400,1012 399,1012 398,1012 397,1012 396,1011 396,1010 397,1009 397,1008 398,1007 399,1006 400,1006 400,1005 400,1004 401,1003 402,1003 403,1002 404,1002 405,1001 406,1000 407,1000 408,999 409,999 410,998 411,998 412,998 413,997 414,997 415,997 416,996 417,996 418,995 417,996 416,996 415,996 414,997 413,997 412,996 412,997 411,998 410,998 409,999 408,999 407,999 406,1000 405,1000 404,999 403,1000 402,1001 401,1000 401,999 402,998 403,997 404,997 403,997 402,997 401,996 400,996 399,996 398,995 399,994 400,994 401,993 402,992 403,991 402,991 401,990 402,989 403,989 402,988 403,987 404,987 405,988 404,987 405,986 406,986 407,985 406,986 405,986 404,987 403,987 402,988 401,988 400,987 401,986 400,985 401,984 401,983 401,982 402,981 403,980 404,980 405,979 404,979 403,980 402,980 401,981 400,981 399,982 398,982 397,983 396,983 395,982 396,981 395,980 396,979 397,978 398,977 399,977 400,976 401,975 402,975 403,974 404,973 405,973 406,972 407,971 408,971 409,970 408,969 409,968 410,967 409,967 408,967 407,967 406,968 405,968 404,969 403,969 402,968 403,967 403,966 404,965 405,966 404,965 405,964 406,963 406,962 407,961 406,961 405,961 404,960 405,959 406,958 405,959 404,960 403,960 402,961 401,962 400,963 399,963 398,962 399,961 400,960 399,959 400,958 401,957 402,956 401,957 400,958 399,959 398,960 397,960 396,959 397,958 398,957 399,956 399,955 400,954 401,953 402,952 401,953 400,954 399,955 398,955 397,956 396,957 395,957 394,956 394,955 395,954 396,953 397,952 396,951 396,950 395,949 395,948 394,947 393,947 392,947 391,947 390,947 389,947 388,947 387,947 386,947 385,947 384,947 383,947 382,947 381,947 380,947 379,947 378,947">
      <metadata tailDirection="" confidence="0.84" linkedToCharacter="" id="UltraEleven_161_balloon_0" tailTip=""></metadata>
    </polygon>
    <polygon points="200,397 199,398 198,398 197,398 196,398 195,398 194,398 193,398 192,398 191,398 190,399 189,399 188,399 187,399 186,399 185,399 184,399 183,399 182,399 181,399 180,399 179,399 178,399 177,399 176,399 175,399 174,400 173,401 172,402 171,403 170,404 170,405 169,406 168,407 168,408 167,409 167,410 167,411 166,412 166,413 166,414 166,415 166,416 166,417 166,418 166,419 166,420 167,421 167,422 168,423 168,424 169,425 170,426 171,427 172,428 173,428 174,428 175,429 176,428 177,428 178,428 179,428 180,428 181,428 182,428 183,428 184,428 185,428 186,428 187,428 188,428 189,428 190,428 191,428 192,428 193,428 194,428 195,428 196,428 197,428 198,428 199,428 200,428 201,428 202,428 203,428 204,428 205,428 206,428 207,428 208,428 209,428 210,428 211,428 212,428 213,427 213,426 213,425 213,424 213,423 213,422 213,421 212,420 213,419 212,418 212,417 212,416 212,415 212,414 213,413 214,412 214,411 214,410 214,409 214,408 214,407 214,406 213,405 213,404 212,403 212,402 211,401 211,400 210,399 209,398 208,397 207,397 206,397 205,397 204,397 203,397 202,397 201,397 200,397">
      <metadata tailDirection="" confidence="0.80" linkedToCharacter="" id="UltraEleven_161_balloon_1" tailTip=""></metadata>
    </polygon>
    <polygon points="171,337 170,338 169,338 168,339 167,339 166,340 165,341 164,342 163,343 162,344 161,345 161,346 160,347 160,348 159,349 159,350 159,351 159,352 158,353 158,354 158,355 158,356 157,357 157,358 157,359 157,360 157,361 156,362 156,363 156,364 156,365 155,366 155,367 155,368 155,369 155,370 155,371 155,372 154,373 154,374 154,375 154,376 154,377 154,378 155,379 155,380 155,381 156,382 157,383 158,384 159,384 160,385 161,385 162,386 163,387 164,388 164,389 164,390 165,390 166,391 167,391 168,391 169,392 170,393 171,394 172,394 173,395 174,395 175,396 176,396 177,396 178,396 179,396 180,396 181,396 182,396 183,396 184,396 185,395 186,395 187,395 188,395 189,395 190,395 191,395 192,395 193,395 194,395 195,395 196,394 197,394 198,394 199,394 200,394 201,394 202,394 203,394 204,394 205,393 206,393 207,393 208,393 209,392 210,391 211,391 212,390 213,389 214,388 215,387 215,386 216,385 216,384 217,383 217,382 218,381 218,380 218,379 219,378 219,377 219,376 220,375 220,374 220,373 221,372 221,371 221,370 221,369 221,368 222,367 222,366 222,365 222,364 223,363 223,362 223,361 223,360 223,359 224,358 224,357 224,356 224,355 224,354 223,353 223,352 223,351 223,350 223,349 222,348 222,347 222,346 221,345 221,344 220,343 220,342 219,341 218,340 218,339 217,338 216,337 215,337 214,337 213,337 212,337 211,337 210,337 209,337 208,337 207,337 206,337 205,337 204,337 203,337 202,337 201,337 200,337 199,337 198,337 197,337 196,337 195,337 194,337 193,337 192,337 191,337 190,337 189,337 188,337 187,337 186,337 185,337 184,337 183,337 182,337 181,337 180,337 179,337 178,337 177,337 176,337 175,337 174,337 173,337 172,337 171,337">
      <metadata tailDirection="" confidence="0.88" linkedToCharacter="" id="UltraEleven_161_balloon_2" tailTip=""></metadata>
    </polygon>
    <polygon points="654,558 653,559 653,560 652,561 652,562 653,563 652,564 651,565 650,565 649,564 648,563 649,562 650,562 649,562 648,562 648,563 648,564 649,565 650,566 650,567 649,568 648,567 647,567 648,568 648,569 647,570 646,571 645,570 644,570 643,569 644,568 645,568 645,567 645,566 646,565 646,564 645,563 645,562 646,561 645,562 644,562 644,563 644,564 643,565 643,566 642,567 641,568 640,568 640,569 641,570 641,571 641,572 641,573 640,574 641,574 642,574 643,575 642,576 642,577 641,578 641,579 640,580 640,581 640,582 641,583 641,584 640,585 639,586 638,586 637,585 637,584 638,583 638,582 637,583 637,584 636,585 636,586 637,585 638,586 638,587 638,588 639,589 638,590 638,591 638,592 638,593 639,594 639,595 640,596 641,597 642,598 643,598 644,599 645,599 646,600 646,601 647,602 648,603 649,603 650,604 651,605 651,606 652,607 653,608 654,609 655,610 656,611 656,612 657,613 658,614 658,615 659,616 659,617 660,618 660,619 661,620 661,621 661,622 662,623 662,624 662,625 663,626 663,627 663,628 664,629 664,630 664,631 665,632 665,633 665,634 665,635 665,636 666,637 666,638 666,639 666,640 666,641 667,642 667,643 667,644 667,645 667,646 667,647 668,648 668,649 668,650 668,651 668,652 668,653 668,654 668,655 668,656 668,657 668,658 668,659 668,660 667,661 667,662 667,663 667,664 667,665 667,666 666,667 666,668 666,669 666,670 665,671 665,672 665,673 664,674 664,675 663,676 663,677 662,678 662,679 661,680 662,681 663,681 664,681 665,681 666,682 667,682 668,682 669,682 670,682 671,683 672,683 673,684 674,684 675,685 676,685 677,686 677,687 676,688 675,688 675,689 675,690 675,691 675,692 675,693 675,694 675,695 675,696 675,697 675,698 675,699 675,700 675,701 675,702 675,703 674,704 674,705 674,706 674,707 674,708 674,709 674,710 674,711 674,712 674,713 674,714 674,715 674,716 674,717 674,718 674,719 674,720 674,721 674,722 674,723 674,724 673,725 673,726 673,727 673,728 674,729 673,730 673,731 673,732 673,733 673,734 673,735 674,736 674,737 674,738 674,739 674,740 675,740 676,739 675,738 675,737 675,736 674,735 674,734 674,733 674,732 675,731 676,732 677,733 677,734 677,735 678,736 679,737 680,738 680,739 681,740 682,741 683,741 684,742 685,743 686,743 687,743 688,744 689,744 690,744 691,744 692,745 693,745 694,745 695,745 696,745 697,744 698,744 699,744 700,743 701,743 702,742 703,742 704,741 705,741 706,741 707,742 708,743 709,744 710,744 711,745 712,746 713,746 714,747 715,747 716,747 717,747 718,747 719,747 720,747 721,747 722,747 723,747 724,747 725,747 726,747 727,747 728,747 729,747 730,747 731,747 732,747 733,747 734,747 735,747 736,747 737,747 738,747 739,747 740,747 741,747 742,747 743,747 744,747 745,747 746,747 747,747 748,747 749,747 750,747 751,747 752,747 753,747 754,747 755,747 756,747 757,747 758,747 759,747 760,747 761,747 761,746 761,745 761,744 761,743 761,742 761,741 761,740 761,739 761,738 761,737 761,736 761,735 761,734 761,733 761,732 761,731 761,730 761,729 761,728 761,727 761,726 761,725 761,724 761,723 761,722 761,721 761,720 761,719 761,718 761,717 761,716 761,715 761,714 761,713 761,712 761,711 761,710 761,709 761,708 761,707 761,706 761,705 761,704 761,703 761,702 761,701 761,700 761,699 761,698 761,697 761,696 761,695 761,694 761,693 761,692 761,691 761,690 761,689 761,688 761,687 761,686 761,685 761,684 761,683 761,682 761,681 761,680 761,679 761,678 761,677 761,676 761,675 761,674 761,673 761,672 761,671 761,670 761,669 761,668 761,667 761,666 761,665 761,664 761,663 761,662 761,661 761,660 761,659 761,658 761,657 761,656 761,655 760,654 760,653 760,652 760,651 761,650 761,649 761,648 760,647 760,646 760,645 760,644 760,643 760,642 760,641 760,640 760,639 760,638 760,637 760,636 760,635 760,634 760,633 760,632 760,631 760,630 760,629 760,628 760,627 760,626 760,625 760,624 760,623 760,622 760,621 760,620 760,619 760,618 760,617 760,616 760,615 760,614 760,613 760,612 760,611 760,610 760,609 760,608 760,607 760,606 760,605 760,604 760,603 760,602 760,601 760,600 760,599 760,598 760,597 760,596 760,595 760,594 760,593 761,592 761,591 760,590 761,589 761,588 761,587 761,586 760,585 760,584 760,583 760,582 760,581 760,580 760,579 760,578 760,577 760,576 760,575 760,574 760,573 760,572 760,571 760,570 760,569 760,568 760,567 760,566 760,565 760,564 760,563 760,562 760,561 760,560 760,559 760,558 759,558 758,558 757,558 756,558 755,558 754,558 753,558 752,558 751,558 750,558 749,558 748,558 747,558 746,558 745,558 744,558 743,558 742,558 741,558 740,558 739,558 738,558 737,558 736,558 735,558 734,558 733,558 732,558 731,558 730,558 729,558 728,558 727,558 726,558 725,558 724,558 723,558 722,558 721,558 720,558 719,558 718,558 717,558 716,558 715,558 714,558 713,558 712,558 711,558 710,558 709,558 708,558 707,558 706,558 705,558 704,558 703,558 702,558 701,558 700,558 699,558 698,558 697,558 696,558 695,558 694,558 693,558 692,558 691,558 690,558 689,558 688,558 687,558 686,558 685,558 684,558 683,558 682,558 681,558 680,558 679,558 678,558 677,558 676,558 675,558 674,558 673,558 672,558 671,558 670,558 669,559 668,558 667,558 666,558 665,558 664,559 663,559 662,560 661,561 660,560 660,559 659,559 658,560 657,559 656,559 655,559 654,558">
      <metadata tailDirection="" confidence="0.80" linkedToCharacter="" id="UltraEleven_161_balloon_3" tailTip=""></metadata>
    </polygon>
    <polygon points="149,65 148,66 147,66 146,66 145,66 144,66 143,66 142,66 141,66 140,67 139,67 138,67 137,68 136,68 135,68 134,69 133,69 132,69 131,69 130,70 129,70 128,70 127,71 126,72 125,72 124,72 123,73 122,73 121,74 120,74 119,74 118,74 117,75 116,75 115,76 114,77 113,77 112,77 111,78 110,79 109,79 108,80 107,80 106,81 105,81 104,82 103,82 102,82 101,83 100,83 99,84 98,84 97,85 96,85 95,86 94,86 93,87 92,87 91,88 90,88 89,89 88,90 87,90 86,91 85,91 84,92 83,92 82,93 81,93 80,94 79,95 78,95 77,96 77,97 76,98 75,99 75,100 74,101 74,102 73,103 73,104 73,105 72,106 72,107 71,108 71,109 71,110 70,111 70,112 70,113 70,114 69,115 69,116 69,117 69,118 68,119 68,120 68,121 67,122 67,123 67,124 67,125 66,126 66,127 66,128 66,129 65,130 65,131 65,132 64,133 64,134 64,135 64,136 64,137 64,138 63,139 63,140 63,141 63,142 63,143 63,144 62,145 62,146 62,147 62,148 62,149 62,150 61,151 61,152 61,153 61,154 61,155 60,156 60,157 60,158 60,159 60,160 60,161 59,162 59,163 59,164 59,165 59,166 59,167 59,168 59,169 59,170 59,171 59,172 59,173 59,174 59,175 59,176 59,177 59,178 59,179 59,180 59,181 59,182 59,183 59,184 59,185 60,186 60,187 60,188 60,189 60,190 61,191 61,192 61,193 61,194 61,195 61,196 61,197 61,198 61,199 61,200 62,201 62,202 62,203 62,204 62,205 62,206 63,207 63,208 63,209 63,210 63,211 63,212 63,213 64,214 64,215 64,216 64,217 64,218 65,219 65,220 65,221 65,222 65,223 66,224 66,225 66,226 67,227 67,228 67,229 67,230 68,231 68,232 68,233 69,234 69,235 70,236 70,237 71,238 72,239 73,240 73,241 74,241 75,242 76,243 77,244 78,245 79,246 80,246 81,247 82,248 83,248 84,249 85,249 86,250 87,250 88,251 89,251 90,252 91,252 92,253 93,254 94,254 95,254 96,255 97,255 98,256 99,256 100,257 101,258 102,258 103,259 104,259 105,260 106,260 107,261 108,262 109,262 110,263 111,263 112,264 113,264 114,265 115,265 116,266 117,266 118,267 119,267 120,268 121,268 122,269 123,269 124,269 125,270 126,270 127,271 128,271 129,272 130,272 131,273 132,273 133,274 134,274 135,275 136,275 137,276 138,276 139,276 140,276 141,276 142,276 143,277 144,277 145,277 146,277 147,277 148,277 149,277 150,277 151,277 152,277 153,276 154,276 155,276 156,276 157,275 158,275 159,275 160,274 161,274 162,273 163,272 164,272 165,271 166,271 167,270 168,270 169,269 170,268 171,268 172,267 173,266 174,266 175,265 176,264 177,264 178,263 179,262 180,262 181,261 182,260 183,259 184,258 185,257 186,257 187,256 188,255 189,254 190,253 191,253 192,252 193,251 194,250 195,249 196,248 197,248 197,247 198,246 199,245 200,244 201,243 201,242 202,241 203,240 203,239 204,238 204,237 205,236 205,235 206,234 206,233 206,232 207,231 207,230 207,229 208,228 208,227 208,226 208,225 209,224 209,223 209,222 209,221 209,220 209,219 210,218 210,217 210,216 210,215 211,214 211,213 211,212 211,211 211,210 211,209 211,208 212,207 212,206 212,205 212,204 212,203 212,202 212,201 212,200 212,199 212,198 212,197 212,196 212,195 212,194 212,193 212,192 212,191 212,190 212,189 212,188 212,187 212,186 212,185 212,184 212,183 212,182 212,181 212,180 212,179 212,178 212,177 212,176 213,175 213,174 213,173 213,172 213,171 213,170 213,169 213,168 213,167 213,166 213,165 213,164 213,163 213,162 213,161 213,160 213,159 213,158 213,157 213,156 213,155 213,154 213,153 212,152 212,151 212,150 212,149 212,148 212,147 211,146 211,145 211,144 211,143 211,142 210,141 210,140 210,139 210,138 210,137 209,136 209,135 209,134 209,133 209,132 208,131 208,130 208,129 208,128 208,127 208,126 208,125 208,124 208,123 208,122 208,121 207,120 207,119 207,118 207,117 207,116 206,115 206,114 206,113 205,112 205,111 205,110 205,109 204,108 204,107 204,106 203,105 203,104 202,103 201,102 201,101 200,100 199,99 198,98 197,97 197,96 196,95 195,94 194,93 193,92 192,91 192,90 191,89 190,88 189,87 188,86 188,85 187,85 186,84 185,83 184,82 183,81 183,80 182,79 181,79 180,78 179,77 178,76 177,75 176,75 175,74 174,73 173,72 172,72 171,71 170,71 169,70 168,69 167,69 166,69 165,68 164,68 163,68 162,67 161,67 160,67 159,67 158,66 157,66 156,66 155,66 154,66 153,66 152,66 151,65 150,65 149,65">
      <metadata tailDirection="" confidence="0.87" linkedToCharacter="" id="UltraEleven_161_balloon_4" tailTip=""></metadata>
    </polygon>
    <polygon points="646,27 645,28 644,28 643,28 642,28 641,28 640,28 639,28 638,29 637,29 636,29 635,30 634,30 633,30 632,31 631,31 630,32 629,32 628,33 627,33 626,34 625,35 624,35 623,36 622,36 621,37 620,38 619,39 618,40 617,40 616,41 615,42 614,43 613,44 612,45 611,46 610,47 609,48 608,49 607,50 606,51 605,52 604,53 603,54 602,55 602,56 601,57 600,58 599,59 599,60 598,61 598,62 598,63 597,64 597,65 596,66 596,67 595,68 595,69 595,70 594,71 594,72 594,73 593,74 593,75 593,76 592,77 592,78 592,79 592,80 591,81 591,82 591,83 590,84 590,85 590,86 590,87 590,88 589,89 589,90 589,91 589,92 589,93 589,94 588,95 588,96 588,97 588,98 588,99 588,100 588,101 588,102 587,103 587,104 587,105 587,106 587,107 587,108 587,109 587,110 587,111 587,112 586,113 586,114 586,115 586,116 586,117 586,118 586,119 586,120 586,121 586,122 586,123 586,124 586,125 586,126 585,127 585,128 585,129 585,130 585,131 585,132 585,133 585,134 585,135 585,136 585,137 585,138 585,139 585,140 585,141 585,142 585,143 585,144 585,145 585,146 585,147 585,148 585,149 585,150 585,151 585,152 585,153 584,154 584,155 584,156 584,157 584,158 584,159 584,160 584,161 584,162 584,163 584,164 584,165 584,166 584,167 584,168 584,169 584,170 584,171 584,172 584,173 584,174 584,175 584,176 584,177 584,178 584,179 584,180 584,181 584,182 584,183 584,184 584,185 584,186 584,187 584,188 584,189 584,190 584,191 584,192 584,193 584,194 584,195 584,196 584,197 584,198 585,199 585,200 585,201 586,202 586,203 586,204 587,205 587,206 587,207 588,208 588,209 588,210 589,211 589,212 590,213 591,214 591,215 592,216 592,217 593,218 593,219 594,220 594,221 595,222 596,223 596,224 597,225 598,226 598,227 599,228 599,229 600,230 601,231 602,232 602,233 603,234 604,235 604,236 605,237 606,238 606,239 607,240 608,241 609,242 610,243 611,244 611,245 612,246 613,247 614,247 615,248 616,249 617,249 618,250 619,250 620,251 621,251 622,252 623,252 624,252 625,253 626,253 627,254 628,254 629,254 630,255 631,255 632,255 633,256 634,256 635,257 636,257 637,257 638,258 639,258 640,258 641,259 642,259 643,259 644,259 645,259 646,260 647,260 648,260 649,260 650,260 651,260 652,260 653,260 654,260 655,260 656,260 657,261 658,261 659,261 660,261 661,261 662,261 663,261 664,261 665,261 666,261 667,261 668,261 669,260 670,260 671,260 672,259 673,259 674,259 675,258 676,258 677,257 678,257 679,257 680,256 681,256 682,256 683,255 684,254 685,254 686,253 687,253 688,253 689,252 690,251 691,251 692,250 693,249 694,249 695,248 696,247 697,247 698,246 699,245 700,244 701,244 702,243 703,242 704,241 705,240 706,239 707,238 708,237 709,236 710,235 711,234 712,233 713,232 713,231 714,230 715,230 715,229 715,228 716,227 717,226 717,225 718,224 718,223 718,222 719,221 719,220 720,219 720,218 721,217 721,216 722,215 722,214 723,213 723,212 724,211 724,210 724,209 725,208 725,207 725,206 726,205 726,204 727,203 727,202 727,201 727,200 728,199 728,198 728,197 728,196 728,195 728,194 728,193 728,192 728,191 729,190 729,189 729,188 729,187 729,186 729,185 729,184 729,183 729,182 729,181 729,180 729,179 729,178 729,177 729,176 729,175 729,174 729,173 729,172 729,171 729,170 729,169 729,168 729,167 729,166 729,165 729,164 729,163 729,162 729,161 729,160 729,159 729,158 729,157 729,156 729,155 729,154 729,153 729,152 729,151 729,150 730,149 730,148 730,147 730,146 730,145 730,144 730,143 729,142 729,141 729,140 729,139 729,138 729,137 729,136 729,135 729,134 729,133 729,132 729,131 729,130 730,129 730,128 729,127 729,126 730,125 730,124 730,123 730,122 730,121 730,120 730,119 730,118 730,117 730,116 730,115 730,114 730,113 730,112 730,111 731,110 731,109 731,108 731,107 731,106 731,105 731,104 731,103 731,102 732,101 732,100 732,99 732,98 732,97 732,96 732,95 732,94 732,93 732,92 732,91 732,90 732,89 732,88 732,87 732,86 732,85 732,84 732,83 732,82 732,81 732,80 732,79 732,78 732,77 732,76 732,75 732,74 731,73 731,72 731,71 731,70 731,69 730,68 730,67 730,66 729,65 729,64 729,63 728,62 727,61 726,60 725,59 724,58 724,57 723,56 722,55 722,54 721,53 720,52 719,51 718,50 717,49 716,48 715,47 714,46 714,45 713,44 712,43 711,43 710,42 709,41 708,40 707,39 706,39 705,38 704,38 703,37 702,37 701,36 700,36 699,36 698,35 697,35 696,34 695,34 694,34 693,34 692,33 691,33 690,33 689,32 688,32 687,32 686,32 685,31 684,31 683,31 682,31 681,31 680,30 679,30 678,30 677,30 676,29 675,29 674,29 673,29 672,29 671,28 670,28 669,28 668,28 667,28 666,28 665,28 664,28 663,28 662,28 661,27 660,27 659,27 658,27 657,27 656,27 655,27 654,27 653,27 652,27 651,27 650,27 649,27 648,27 647,27 646,27">
      <metadata tailDirection="" confidence="0.85" linkedToCharacter="" id="UltraEleven_161_balloon_5" tailTip=""></metadata>
    </polygon>
  </svg>
</svg>
