<?xml version="1.0" encoding="UTF-8" standalone="no"?>
<svg width="827" xmlns="http://www.w3.org/2000/svg" version="1.0" height="1170">
  <title>UltraEleven_205</title>
  <svg contentScriptType="text/ecmascript" zoomAndPan="magnify" contentStyleType="text/css" class="Page" preserveAspectRatio="xMidYMid meet" version="1.0">
    <image xmlns:xlink="http://www.w3.org/1999/xlink" x="0" y="0" width="827" height="1170" xlink:href="./../../dataset_Manga109/UltraEleven/UltraEleven_205.jpg" xlink:type="simple" xlink:actuate="onLoad" preserveAspectRatio="xMidYMid meet" xlink:show="embed"/>
  </svg>
  <style type="text/css" xml:space="preserve">
        * { stroke-linejoin: round; }
        .Unclassified   { fill: orange; stroke: none;   opacity: 1.0; visibility: hidden; }
        .Noise          { fill: pink;   stroke: none;   opacity: 0.2; visibility: hidden; }
        .Panel          { fill: none;   stroke: red;    stroke-width:3; opacity: 0.5; visibility: visible; image-rendering: optimizeSpeed; }
        .Line           { fill: green;  stroke: none;   opacity: 0.5; visibility: visible; image-rendering: optimizeSpeed; }
        .TextArea       { fill: grey;   stroke: none;   opacity: 0.2; visibility: visible; image-rendering: optimizeSpeed; }
        .Balloon        { fill: cyan;   stroke: none;   opacity: 0.5; visibility: visible; image-rendering: optimizeSpeed; }
        .Letter         { fill: blue;   stroke: none;   opacity: 0.2; visibility: hidden; }
        .Object, .Character, .Face  { fill: yellow; stroke: none;   opacity: 0.5; visibility: visible; image-rendering: optimizeSpeed; }
        .Page           { fill: white;  stroke: none;    opacity: 0.5; visibility: visible; }
        .linkSBSC { fill: blue; stroke: none; opacity: 1.0; visibility: visible; }
        polygon:hover { opacity:1.0; stroke:red; }
</style>
  <svg xmlns="http://www.w3.org/2000/svg" contentScriptType="text/ecmascript" zoomAndPan="magnify" contentStyleType="text/css" class="Balloon" preserveAspectRatio="xMidYMid meet" version="1.0">
    <polygon points="383,560 383,561 382,562 382,563 381,564 380,565 380,566 379,567 379,568 378,569 378,570 377,571 376,572 376,573 375,574 375,575 374,576 373,577 373,578 372,579 372,580 371,581 370,582 370,583 369,584 368,585 368,586 367,587 367,588 366,589 365,590 365,591 364,592 364,593 363,594 363,595 362,596 362,597 361,598 360,599 360,600 360,601 359,602 359,603 358,604 357,604 356,604 355,605 354,605 353,605 352,604 351,603 350,603 349,602 348,601 347,601 346,600 345,599 344,599 343,598 342,597 341,596 340,596 339,595 338,594 337,593 336,593 335,592 334,591 333,591 332,590 331,589 330,588 329,588 328,587 327,586 326,585 325,585 324,584 323,583 322,582 321,582 320,581 319,580 318,579 317,579 316,578 315,577 314,576 313,575 312,575 311,574 310,573 309,572 308,571 307,571 306,570 305,569 304,568 303,568 302,567 301,566 300,566 299,565 298,564 297,563 296,563 296,564 296,565 297,566 297,567 297,568 297,569 298,570 298,571 298,572 299,573 299,574 299,575 299,576 299,577 300,578 300,579 300,580 301,581 301,582 301,583 301,584 301,585 302,586 302,587 302,588 302,589 303,590 303,591 303,592 304,593 304,594 304,595 304,596 305,597 305,598 305,599 306,600 306,601 306,602 307,603 307,604 307,605 308,606 308,607 308,608 309,609 309,610 309,611 309,612 310,613 310,614 310,615 310,616 311,617 311,618 311,619 311,620 312,621 312,622 312,623 312,624 313,625 313,626 313,627 314,628 314,629 314,630 314,631 315,632 315,633 315,634 316,635 316,636 316,637 316,638 317,639 317,640 316,641 315,642 314,643 313,644 312,645 311,645 310,646 309,647 308,648 307,649 306,649 305,650 304,651 303,652 302,652 301,653 300,654 299,655 298,656 297,656 296,657 295,658 294,659 293,659 292,660 291,661 290,662 289,663 288,663 287,664 286,665 285,666 284,667 283,668 282,669 281,669 280,670 279,671 278,672 277,673 276,673 275,674 274,675 273,676 273,677 274,677 275,677 276,677 277,677 278,677 279,677 280,677 281,677 282,677 283,677 284,677 285,677 286,678 287,678 288,678 289,678 290,678 291,678 292,678 293,678 294,678 295,678 296,678 297,679 298,679 299,679 300,679 301,679 302,679 303,679 304,679 305,680 306,681 306,682 306,683 306,684 306,685 305,686 304,687 304,688 303,689 302,690 302,691 301,692 301,693 300,694 299,695 299,696 298,697 297,698 297,699 296,700 296,701 295,702 294,703 294,704 293,705 292,706 292,707 291,708 290,709 290,710 289,711 288,712 288,713 287,714 288,714 289,714 290,714 291,713 292,713 293,713 294,713 295,712 296,712 297,712 298,711 299,711 300,711 301,710 302,710 303,710 304,710 305,710 306,710 307,710 308,711 308,712 308,713 308,714 308,715 307,716 307,717 307,718 306,719 306,720 305,721 305,722 304,723 304,724 304,725 303,726 303,727 302,728 302,729 302,730 302,731 301,732 301,733 301,734 300,735 300,736 300,737 299,738 299,739 299,740 298,741 298,742 298,743 297,744 297,745 297,746 296,747 296,748 295,749 295,750 295,751 295,752 294,753 294,754 293,755 293,756 293,757 293,758 292,759 292,760 291,761 291,762 291,763 290,764 290,765 290,766 289,767 289,768 288,769 288,770 288,771 287,772 287,773 287,774 286,775 286,776 285,777 285,778 285,779 284,780 284,781 283,782 283,783 283,784 282,785 282,786 282,787 281,788 281,789 280,790 280,791 280,792 279,793 278,794 278,795 278,796 279,796 280,795 281,794 282,794 283,793 284,792 285,792 286,791 287,790 288,789 289,789 290,788 291,787 292,787 293,786 294,785 295,785 296,784 297,783 298,783 299,782 300,781 301,781 302,780 303,779 304,778 305,778 306,777 307,777 308,776 309,776 310,775 311,774 312,774 313,773 314,772 315,772 316,771 317,771 318,770 319,770 320,769 321,768 322,768 323,767 324,767 325,766 326,766 327,765 328,764 329,764 330,763 331,763 332,762 333,761 334,761 335,760 336,760 337,759 338,758 339,758 340,757 341,756 342,756 343,755 344,755 345,754 346,753 347,753 348,752 349,752 350,751 351,751 352,751 353,751 354,752 355,753 356,754 356,755 356,756 356,757 357,758 357,759 357,760 357,761 358,762 358,763 358,764 358,765 359,766 359,767 359,768 359,769 360,770 360,771 360,772 360,773 360,774 361,775 361,776 361,777 362,776 363,775 364,774 364,773 365,772 366,771 366,770 367,769 368,768 368,767 369,766 370,765 371,764 371,763 372,762 373,761 374,760 374,759 375,758 376,757 377,757 378,757 379,757 380,757 381,758 382,759 383,759 384,760 385,761 386,762 387,763 388,764 389,765 390,765 391,766 392,767 393,768 394,768 395,769 396,770 397,771 398,772 399,772 400,773 401,774 402,775 403,776 404,776 405,777 406,778 407,779 408,780 409,781 410,781 411,782 412,783 413,784 414,785 415,786 416,786 417,787 418,788 419,789 420,789 421,790 422,791 423,791 424,792 425,793 426,794 427,794 428,795 429,796 430,797 431,797 432,798 433,799 434,799 435,800 436,801 436,800 436,799 436,798 435,797 435,796 435,795 434,794 434,793 434,792 433,791 433,790 433,789 433,788 432,787 432,786 432,785 432,784 431,783 431,782 431,781 431,780 430,779 430,778 430,777 430,776 429,775 429,774 429,773 429,772 428,771 428,770 428,769 428,768 427,767 427,766 427,765 427,764 427,763 426,762 426,761 426,760 426,759 425,758 425,757 425,756 425,755 425,754 424,753 424,752 424,751 424,750 424,749 423,748 423,747 423,746 423,745 422,744 422,743 422,742 422,741 422,740 421,739 421,738 421,737 421,736 420,735 420,734 421,733 422,732 423,732 424,732 425,731 426,731 427,732 428,732 429,732 430,732 431,732 432,733 433,733 434,733 435,733 436,734 437,734 438,734 439,734 440,735 441,735 442,735 443,736 444,736 445,736 446,736 447,737 448,737 449,737 450,737 451,738 452,738 453,738 454,739 455,739 456,739 456,738 456,737 455,736 454,735 454,734 453,733 453,732 452,731 451,730 451,729 450,728 450,727 449,726 449,725 448,724 447,723 447,722 446,721 446,720 445,719 444,718 444,717 443,716 442,715 442,714 441,713 441,712 440,711 440,710 439,709 438,708 438,707 437,706 436,705 436,704 436,703 437,702 438,701 439,701 440,701 441,700 442,700 443,700 444,700 445,699 446,699 447,699 448,699 449,699 450,698 451,698 452,698 453,698 454,697 455,697 456,697 457,697 458,696 459,696 460,696 461,696 462,695 463,695 464,695 465,695 466,694 467,694 468,694 469,693 470,693 471,693 472,693 473,692 474,692 475,692 474,691 473,690 472,689 471,688 470,688 469,687 468,686 467,685 466,684 465,684 464,683 463,682 462,681 461,680 460,680 459,679 458,678 457,678 456,677 455,676 454,675 453,675 452,674 451,673 450,672 449,672 448,671 447,670 446,669 445,668 444,668 443,667 442,666 442,665 442,664 442,663 443,662 444,661 445,661 446,660 447,660 448,659 449,659 450,658 451,658 452,657 453,657 454,656 455,655 456,655 457,654 458,654 459,653 460,653 461,652 462,652 463,651 464,650 465,650 466,649 466,648 465,648 464,648 463,648 462,648 461,647 460,647 459,647 458,647 457,647 456,647 455,647 454,647 453,646 452,646 451,646 450,646 449,646 448,646 447,646 446,646 445,646 444,646 443,645 442,645 441,644 440,643 440,642 440,641 440,640 441,639 441,638 441,637 442,636 442,635 443,634 443,633 444,632 444,631 445,630 445,629 445,628 446,627 446,626 447,625 447,624 448,623 448,622 448,621 449,620 449,619 450,618 450,617 450,616 451,615 451,614 452,613 452,612 452,611 453,610 453,609 453,608 454,607 454,606 455,605 455,604 455,603 456,602 456,601 456,600 457,599 457,598 458,597 458,596 458,595 459,594 459,593 459,592 460,591 460,590 461,589 461,588 462,587 462,586 462,585 463,584 463,583 464,582 464,581 465,580 465,579 466,578 466,577 466,576 467,575 467,574 468,573 468,572 469,571 469,570 470,569 470,568 470,567 471,566 471,565 472,564 472,563 473,562 472,562 471,562 470,563 469,563 468,564 467,564 466,565 465,565 464,566 463,566 462,567 461,567 460,568 459,568 458,569 457,570 456,570 455,571 454,571 453,572 452,572 451,573 450,573 449,574 448,574 447,575 446,575 445,576 444,576 443,577 442,577 441,578 440,578 439,579 438,580 437,580 436,580 435,581 434,582 433,582 432,583 431,583 430,584 429,584 428,585 427,585 426,586 425,586 424,587 423,587 422,588 421,588 420,589 419,589 418,589 417,590 416,590 415,591 414,592 413,592 412,592 411,593 410,594 409,594 408,595 407,595 406,596 405,596 404,597 403,597 402,598 401,599 400,599 399,600 398,600 397,600 396,601 395,601 394,600 393,600 392,599 391,598 391,597 390,596 390,595 390,594 390,593 390,592 389,591 389,590 389,589 389,588 389,587 389,586 388,585 388,584 388,583 388,582 388,581 387,580 387,579 387,578 387,577 387,576 386,575 386,574 386,573 386,572 386,571 386,570 385,569 385,568 385,567 385,566 384,565 384,564 384,563 384,562 383,561 383,560">
      <metadata tailDirection="" confidence="0.88" linkedToCharacter="" id="UltraEleven_205_balloon_0" tailTip=""></metadata>
    </polygon>
  </svg>
</svg>
