<?xml version="1.0" encoding="UTF-8" standalone="no"?>
<svg width="827" xmlns="http://www.w3.org/2000/svg" version="1.0" height="1170">
  <title>UltraEleven_081</title>
  <svg contentScriptType="text/ecmascript" zoomAndPan="magnify" contentStyleType="text/css" class="Page" preserveAspectRatio="xMidYMid meet" version="1.0">
    <image xmlns:xlink="http://www.w3.org/1999/xlink" x="0" y="0" width="827" height="1170" xlink:href="./../../dataset_Manga109/UltraEleven/UltraEleven_081.jpg" xlink:type="simple" xlink:actuate="onLoad" preserveAspectRatio="xMidYMid meet" xlink:show="embed"/>
  </svg>
  <style type="text/css" xml:space="preserve">
        * { stroke-linejoin: round; }
        .Unclassified   { fill: orange; stroke: none;   opacity: 1.0; visibility: hidden; }
        .Noise          { fill: pink;   stroke: none;   opacity: 0.2; visibility: hidden; }
        .Panel          { fill: none;   stroke: red;    stroke-width:3; opacity: 0.5; visibility: visible; image-rendering: optimizeSpeed; }
        .Line           { fill: green;  stroke: none;   opacity: 0.5; visibility: visible; image-rendering: optimizeSpeed; }
        .TextArea       { fill: grey;   stroke: none;   opacity: 0.2; visibility: visible; image-rendering: optimizeSpeed; }
        .Balloon        { fill: cyan;   stroke: none;   opacity: 0.5; visibility: visible; image-rendering: optimizeSpeed; }
        .Letter         { fill: blue;   stroke: none;   opacity: 0.2; visibility: hidden; }
        .Object, .Character, .Face  { fill: yellow; stroke: none;   opacity: 0.5; visibility: visible; image-rendering: optimizeSpeed; }
        .Page           { fill: white;  stroke: none;    opacity: 0.5; visibility: visible; }
        .linkSBSC { fill: blue; stroke: none; opacity: 1.0; visibility: visible; }
        polygon:hover { opacity:1.0; stroke:red; }
</style>
  <svg xmlns="http://www.w3.org/2000/svg" contentScriptType="text/ecmascript" zoomAndPan="magnify" contentStyleType="text/css" class="Balloon" preserveAspectRatio="xMidYMid meet" version="1.0">
    <polygon points="726,470 726,471 725,472 725,473 724,474 724,475 723,476 723,477 722,478 722,479 721,480 720,481 720,482 719,483 719,484 718,485 717,486 717,487 716,488 716,489 715,490 715,491 714,492 714,493 713,494 712,495 711,496 710,497 709,498 708,499 707,500 707,501 706,502 705,502 704,503 703,504 702,505 701,506 700,507 699,508 698,509 697,509 696,510 695,510 694,511 693,511 692,512 691,512 690,513 689,513 688,513 687,514 686,514 685,514 684,514 683,514 682,513 681,513 680,513 679,512 678,511 677,510 676,509 675,508 674,507 674,506 673,505 673,504 672,503 672,502 671,501 671,500 671,499 670,498 670,497 670,496 670,495 669,494 669,493 669,492 669,491 668,490 668,491 668,492 668,493 667,494 667,495 667,496 667,497 666,498 666,499 666,500 666,501 665,502 665,503 664,504 664,505 664,506 663,507 663,508 662,509 662,510 662,511 661,512 661,513 660,514 660,515 660,516 659,517 659,518 658,519 658,520 657,521 657,522 656,523 655,524 655,525 654,526 653,527 652,528 651,529 651,530 650,531 649,532 648,533 647,534 646,534 645,535 644,536 643,537 642,537 641,537 640,537 639,536 638,536 637,536 636,535 635,535 634,534 633,534 632,534 631,533 630,532 629,531 628,530 627,529 626,528 625,527 624,526 624,525 623,524 622,523 621,522 620,521 620,520 619,519 618,518 618,517 617,516 617,515 616,514 615,513 615,512 614,511 614,510 613,509 613,508 612,507 612,506 611,505 611,504 611,505 611,506 611,507 611,508 611,509 612,510 612,511 612,512 612,513 612,514 613,515 613,516 613,517 613,518 613,519 613,520 614,521 614,522 614,523 614,524 614,525 614,526 614,527 614,528 614,529 615,530 615,531 615,532 615,533 615,534 615,535 615,536 615,537 615,538 615,539 615,540 615,541 614,542 614,543 615,544 615,545 615,546 615,547 615,548 615,549 615,550 615,551 615,552 615,553 615,554 615,555 614,556 614,557 614,558 614,559 614,560 614,561 614,562 614,563 613,564 613,565 613,566 613,567 613,568 613,569 613,570 612,571 612,572 612,573 612,574 611,575 611,576 611,577 610,578 610,579 610,580 609,581 609,582 608,583 608,584 607,585 606,586 606,587 605,588 605,589 604,590 603,591 603,592 602,593 601,594 600,595 599,596 599,597 598,598 597,599 596,600 595,601 595,602 594,603 595,604 596,604 597,605 598,606 599,607 599,608 600,609 600,610 601,611 601,612 601,613 601,614 601,615 602,616 602,617 602,618 602,619 601,620 601,621 601,622 601,623 600,624 600,625 600,626 599,627 599,628 598,629 597,630 596,631 596,632 595,633 594,634 593,635 592,636 591,637 590,638 589,639 588,640 587,641 586,642 585,643 584,644 583,645 582,646 581,646 580,647 579,648 578,648 577,649 576,650 575,650 574,651 575,651 576,651 577,651 578,651 579,652 580,652 581,652 582,652 583,653 584,653 585,654 586,654 587,655 588,656 589,657 590,658 591,659 591,660 591,661 591,662 591,663 591,664 591,665 591,666 591,667 591,668 591,669 590,670 590,671 590,672 590,673 589,674 589,675 589,676 588,677 588,678 587,679 587,680 586,681 586,682 585,683 585,684 584,685 584,686 583,687 582,688 582,689 581,690 580,691 579,692 579,693 578,694 577,695 577,696 576,697 575,698 574,699 574,700 573,701 572,702 571,703 570,704 569,705 569,706 570,706 571,705 572,704 573,704 574,703 575,703 576,702 577,702 578,701 579,701 580,700 581,700 582,700 583,700 584,699 585,699 586,699 587,699 588,699 589,699 590,698 591,698 592,698 593,698 594,698 595,698 596,698 597,698 598,698 599,698 600,698 601,698 602,699 603,699 604,699 605,699 606,700 607,700 608,701 609,702 610,702 611,703 612,704 613,705 613,706 614,707 614,708 615,709 615,710 615,711 616,712 616,713 616,714 616,715 616,716 616,717 616,718 615,719 615,720 615,721 615,722 614,723 614,724 614,725 614,726 613,727 613,728 612,729 612,730 611,731 611,732 610,733 610,734 609,735 609,736 609,737 608,738 608,739 608,740 609,740 610,740 611,739 612,739 613,739 614,738 615,738 616,738 617,738 618,738 619,738 620,738 621,738 622,739 623,739 624,739 625,739 626,739 627,739 628,739 629,739 630,739 631,739 632,739 633,739 634,739 635,740 636,740 637,740 638,741 639,741 640,741 641,742 642,742 643,742 644,743 645,743 646,744 647,744 648,745 649,745 650,746 651,746 652,747 653,747 654,748 655,749 656,749 657,750 658,750 659,751 660,752 661,752 662,753 663,754 664,755 665,755 666,756 667,757 668,758 668,759 669,760 670,761 671,762 671,763 672,764 672,765 673,766 673,767 674,768 674,769 675,770 675,771 676,772 676,773 677,774 677,775 678,776 678,777 678,778 679,779 679,780 680,781 680,782 681,783 681,784 682,785 682,786 682,787 683,788 683,789 683,790 683,791 683,792 684,793 684,794 685,795 686,794 686,793 686,792 686,791 686,790 686,789 686,788 687,787 687,786 687,785 688,784 688,783 688,782 688,781 689,780 689,779 689,778 690,777 690,776 691,775 691,774 692,773 692,772 693,771 694,770 694,769 695,768 696,767 696,766 697,765 698,764 699,763 700,762 701,761 702,760 703,759 704,758 705,757 706,757 707,756 708,755 709,755 710,754 711,753 712,753 713,753 714,752 715,752 716,752 717,751 718,751 719,751 720,751 721,750 722,750 723,750 724,750 725,750 726,750 727,750 728,749 729,749 730,749 731,749 732,749 733,749 734,749 735,750 736,750 737,750 738,750 739,751 740,751 741,751 742,752 743,752 744,753 744,752 744,751 744,750 743,749 743,748 743,747 743,746 742,745 742,744 742,743 742,742 742,741 742,740 742,739 742,738 742,737 742,736 743,735 743,734 743,733 744,732 744,731 744,730 745,729 745,728 746,727 747,726 747,725 748,724 749,723 749,722 750,721 751,720 752,719 753,718 754,717 755,716 756,715 757,715 758,714 759,714 760,713 761,713 762,712 763,712 764,711 765,711 766,710 767,710 768,710 769,709 770,709 771,709 772,709 773,708 774,708 775,708 776,707 777,707 778,707 778,706 777,705 776,704 775,703 774,702 773,701 772,700 771,699 770,698 769,697 769,696 768,695 767,694 766,693 766,692 765,691 764,690 764,689 763,688 762,687 762,686 762,685 761,684 761,683 760,682 760,681 760,680 760,679 759,678 759,677 759,676 759,675 759,674 759,673 759,672 759,671 759,670 759,669 759,668 759,667 759,666 759,665 760,664 760,663 760,662 761,661 761,660 762,659 763,658 763,657 764,656 765,655 766,654 767,653 768,652 769,652 770,651 771,650 772,650 773,649 774,649 775,648 776,648 777,648 778,647 779,647 780,647 781,647 782,647 783,647 783,646 782,645 781,644 780,643 779,642 778,641 777,640 777,639 776,638 775,637 774,636 774,635 773,634 772,633 772,632 771,631 771,630 770,629 770,628 769,627 769,626 769,625 768,624 768,623 768,622 767,621 767,620 767,619 767,618 766,617 766,616 766,615 766,614 766,613 766,612 766,611 766,610 766,609 766,608 767,607 767,606 767,605 767,604 767,603 767,602 767,601 768,600 768,599 769,598 769,597 770,596 770,595 771,594 771,593 772,592 772,591 773,590 774,589 775,588 776,587 777,586 778,585 779,584 780,583 781,582 782,581 783,581 784,580 785,579 786,579 785,579 784,579 783,579 782,578 781,578 780,578 779,578 778,577 777,577 776,577 775,576 774,576 773,575 772,575 771,574 770,574 769,573 768,573 767,572 766,572 765,571 764,570 763,570 762,569 761,568 760,567 759,567 758,566 758,565 757,564 757,563 756,562 756,561 756,560 756,559 755,558 755,557 755,556 755,555 755,554 755,553 755,552 755,551 755,550 755,549 755,548 755,547 756,546 756,545 756,544 756,543 757,542 757,541 757,540 757,539 758,538 758,537 758,536 759,535 760,534 760,533 760,532 761,531 761,530 762,529 762,528 763,527 763,526 764,525 765,524 765,523 766,522 766,521 767,520 767,519 768,518 768,517 767,518 766,518 765,518 764,519 763,519 762,519 761,519 760,519 759,519 758,519 757,519 756,520 755,520 754,519 753,519 752,519 751,519 750,519 749,519 748,519 747,519 746,519 745,518 744,518 743,518 742,518 741,518 740,517 739,517 738,516 737,516 736,515 735,515 734,514 733,513 733,512 732,512 731,511 731,510 730,509 729,508 729,507 728,506 728,505 727,504 727,503 727,502 726,501 726,500 726,499 726,498 726,497 726,496 726,495 725,494 725,493 725,492 725,491 725,490 725,489 725,488 725,487 725,486 725,485 725,484 725,483 725,482 725,481 725,480 725,479 725,478 725,477 725,476 725,475 725,474 726,473 726,472 726,471 726,470">
      <metadata tailDirection="" confidence="0.83" linkedToCharacter="" id="UltraEleven_081_balloon_0" tailTip=""></metadata>
    </polygon>
  </svg>
</svg>
