<?xml version="1.0" encoding="UTF-8" standalone="no"?>
<svg width="827" xmlns="http://www.w3.org/2000/svg" version="1.0" height="1170">
  <title>UltraEleven_222</title>
  <svg contentScriptType="text/ecmascript" zoomAndPan="magnify" contentStyleType="text/css" class="Page" preserveAspectRatio="xMidYMid meet" version="1.0">
    <image xmlns:xlink="http://www.w3.org/1999/xlink" x="0" y="0" width="827" height="1170" xlink:href="./../../dataset_Manga109/UltraEleven/UltraEleven_222.jpg" xlink:type="simple" xlink:actuate="onLoad" preserveAspectRatio="xMidYMid meet" xlink:show="embed"/>
  </svg>
  <style type="text/css" xml:space="preserve">
        * { stroke-linejoin: round; }
        .Unclassified   { fill: orange; stroke: none;   opacity: 1.0; visibility: hidden; }
        .Noise          { fill: pink;   stroke: none;   opacity: 0.2; visibility: hidden; }
        .Panel          { fill: none;   stroke: red;    stroke-width:3; opacity: 0.5; visibility: visible; image-rendering: optimizeSpeed; }
        .Line           { fill: green;  stroke: none;   opacity: 0.5; visibility: visible; image-rendering: optimizeSpeed; }
        .TextArea       { fill: grey;   stroke: none;   opacity: 0.2; visibility: visible; image-rendering: optimizeSpeed; }
        .Balloon        { fill: cyan;   stroke: none;   opacity: 0.5; visibility: visible; image-rendering: optimizeSpeed; }
        .Letter         { fill: blue;   stroke: none;   opacity: 0.2; visibility: hidden; }
        .Object, .Character, .Face  { fill: yellow; stroke: none;   opacity: 0.5; visibility: visible; image-rendering: optimizeSpeed; }
        .Page           { fill: white;  stroke: none;    opacity: 0.5; visibility: visible; }
        .linkSBSC { fill: blue; stroke: none; opacity: 1.0; visibility: visible; }
        polygon:hover { opacity:1.0; stroke:red; }
</style>
  <svg xmlns="http://www.w3.org/2000/svg" contentScriptType="text/ecmascript" zoomAndPan="magnify" contentStyleType="text/css" class="Balloon" preserveAspectRatio="xMidYMid meet" version="1.0">
    <polygon points="420,949 419,950 418,950 417,950 416,951 415,951 414,951 413,952 412,952 411,953 410,954 409,954 408,955 408,956 407,957 407,958 406,959 405,960 405,961 405,962 404,963 404,964 404,965 404,966 403,967 403,968 402,969 403,970 403,971 402,972 402,973 402,974 402,975 402,976 402,977 402,978 402,979 401,980 401,981 402,982 402,983 401,984 401,985 401,986 401,987 401,988 401,989 401,990 401,991 401,992 401,993 401,994 402,995 402,996 402,997 402,998 403,999 403,1000 403,1001 403,1002 403,1003 403,1004 403,1005 403,1006 403,1007 403,1008 403,1009 404,1010 404,1011 404,1012 404,1013 403,1014 403,1015 403,1016 402,1017 401,1017 400,1017 399,1016 398,1015 398,1014 397,1013 396,1012 396,1011 396,1010 395,1010 394,1009 394,1008 394,1007 393,1006 393,1005 393,1004 393,1003 393,1002 393,1001 393,1000 393,999 394,998 394,997 395,996 396,997 397,998 397,999 397,1000 398,1001 398,1002 398,1003 399,1004 399,1005 399,1004 399,1003 398,1002 398,1001 398,1000 398,999 397,998 397,997 397,996 396,995 396,994 396,993 396,992 395,992 394,991 393,991 393,992 393,993 392,994 392,995 392,996 392,997 392,998 391,999 391,1000 391,1001 391,1002 391,1003 391,1004 391,1005 391,1006 391,1007 392,1008 392,1009 393,1010 394,1011 394,1012 395,1013 396,1014 397,1015 398,1016 399,1017 400,1018 401,1019 402,1020 402,1019 402,1018 403,1017 404,1016 405,1017 405,1018 405,1019 406,1020 406,1021 406,1022 407,1023 407,1024 407,1025 408,1026 408,1027 409,1028 410,1029 410,1030 411,1031 412,1032 413,1033 414,1034 415,1035 416,1036 416,1037 417,1038 418,1039 419,1040 420,1041 421,1042 422,1043 423,1044 424,1045 425,1045 426,1046 427,1047 428,1048 429,1048 430,1049 431,1050 432,1051 433,1051 434,1052 435,1052 436,1051 437,1051 438,1051 439,1051 440,1051 441,1051 442,1051 443,1051 444,1051 445,1051 446,1051 447,1051 448,1051 449,1050 450,1049 451,1048 452,1047 452,1046 453,1045 454,1044 454,1043 455,1042 455,1041 456,1040 456,1039 456,1038 457,1037 457,1036 458,1035 458,1034 459,1033 459,1032 460,1031 460,1030 461,1029 461,1028 461,1027 462,1026 462,1025 463,1024 463,1023 463,1022 464,1021 464,1020 464,1019 464,1018 464,1017 464,1016 464,1015 465,1014 465,1013 465,1012 465,1011 465,1010 465,1009 465,1008 465,1007 465,1006 465,1005 465,1004 465,1003 465,1002 465,1001 465,1000 465,999 465,998 465,997 465,996 466,995 466,994 466,993 466,992 466,991 466,990 466,989 466,988 466,987 466,986 466,985 465,984 465,983 465,982 465,981 464,980 464,979 464,978 463,977 463,976 463,975 462,974 462,973 461,972 461,971 461,970 460,969 460,968 459,967 459,966 458,965 458,964 457,963 457,962 456,961 457,962 457,963 457,964 458,965 458,966 458,967 459,968 459,969 459,970 460,971 460,972 460,973 460,974 461,975 462,976 462,977 461,978 462,979 462,980 462,981 462,982 461,983 461,984 461,985 461,986 461,987 461,988 461,989 461,990 461,991 462,992 462,993 461,994 460,995 459,994 458,993 458,992 458,991 458,990 458,989 458,988 457,987 457,986 457,985 456,984 455,983 454,983 453,983 452,983 452,984 452,985 453,985 454,985 455,986 456,986 457,987 457,988 457,989 458,990 458,991 457,992 457,993 457,994 456,995 455,996 454,996 453,997 452,997 451,997 450,996 449,995 448,994 448,993 448,992 448,991 448,990 448,989 448,988 449,987 450,986 450,985 450,984 450,983 449,983 448,984 447,985 446,986 446,987 446,988 446,989 446,990 446,991 446,992 446,993 446,994 445,995 444,996 443,995 443,996 443,997 443,998 443,999 443,1000 443,1001 443,1002 443,1003 443,1004 444,1005 444,1006 445,1007 446,1007 447,1008 448,1009 448,1010 448,1011 447,1012 447,1013 447,1014 446,1015 445,1015 444,1014 444,1013 444,1012 444,1011 443,1010 442,1009 441,1008 441,1007 441,1006 441,1005 440,1004 440,1003 440,1002 440,1001 440,1000 440,999 440,998 440,997 440,996 441,995 441,994 441,993 441,992 442,991 443,990 442,989 442,988 442,987 442,986 442,985 442,984 442,983 442,982 441,981 441,980 441,979 441,978 441,977 441,976 440,975 440,974 440,973 440,972 440,971 439,970 439,969 439,968 438,967 438,966 438,965 438,964 437,963 437,962 437,961 436,960 436,959 436,958 435,957 435,956 435,955 434,954 433,953 433,952 432,952 431,951 430,950 429,950 428,949 427,949 426,949 425,949 424,949 423,949 422,949 421,949 420,949">
      <metadata tailDirection="" confidence="0.87" linkedToCharacter="" id="UltraEleven_222_balloon_0" tailTip=""></metadata>
    </polygon>
    <polygon points="414,794 413,795 412,796 411,796 410,797 410,798 409,799 408,800 408,801 408,802 407,803 406,804 406,805 406,806 406,807 405,808 405,809 405,810 404,811 404,812 404,813 404,814 403,815 403,816 403,817 403,818 403,819 403,820 403,821 403,822 403,823 403,824 402,825 402,826 402,827 402,828 402,829 402,830 402,831 402,832 402,833 402,834 402,835 402,836 402,837 401,838 401,839 401,840 401,841 401,842 401,843 401,844 401,845 401,846 401,847 401,848 401,849 401,850 401,851 401,852 401,853 401,854 401,855 401,856 401,857 401,858 401,859 401,860 401,861 401,862 401,863 401,864 401,865 401,866 401,867 401,868 401,869 401,870 401,871 402,872 402,873 402,874 403,875 403,876 404,877 404,878 405,879 405,880 406,881 407,882 408,883 409,883 410,884 411,884 412,885 413,885 414,886 415,886 416,887 417,887 418,888 419,887 420,886 421,886 422,885 423,885 424,884 425,883 426,882 427,881 427,880 428,879 428,878 429,877 429,876 430,875 430,874 430,873 431,872 431,871 431,870 431,869 431,868 432,867 432,866 432,865 432,864 432,863 432,862 432,861 432,860 432,859 432,858 433,857 433,856 433,855 433,854 433,853 433,852 433,851 433,850 433,849 433,848 433,847 433,846 433,845 433,844 433,843 433,842 433,841 433,840 433,839 433,838 433,837 433,836 433,835 433,834 433,833 433,832 433,831 433,830 433,829 433,828 433,827 433,826 433,825 433,824 433,823 433,822 433,821 433,820 433,819 433,818 433,817 433,816 433,815 433,814 433,813 433,812 433,811 432,810 432,809 432,808 432,807 431,806 431,805 431,804 430,803 430,802 429,801 429,800 429,799 428,798 427,797 426,796 425,795 424,795 423,794 422,794 421,794 420,794 419,794 418,794 417,794 416,794 415,794 414,794">
      <metadata tailDirection="" confidence="0.99" linkedToCharacter="" id="UltraEleven_222_balloon_1" tailTip=""></metadata>
    </polygon>
    <polygon points="278,703 277,704 276,704 275,705 274,705 273,706 272,707 271,707 270,708 269,709 268,710 267,711 266,712 265,713 264,713 263,714 262,715 261,716 260,717 259,718 258,719 257,720 257,721 256,722 255,723 255,724 254,725 254,726 254,727 254,728 253,729 253,730 253,731 253,732 253,733 253,734 253,735 253,736 253,737 253,738 252,739 252,740 252,741 252,742 252,743 251,744 251,745 251,746 251,747 251,748 251,749 251,750 251,751 251,752 251,753 251,754 251,755 251,756 251,757 250,758 250,759 250,760 250,761 250,762 250,763 250,764 250,765 249,766 249,767 249,768 249,769 249,770 249,771 249,772 249,773 249,774 249,775 249,776 249,777 249,778 249,779 249,780 249,781 249,782 249,783 249,784 249,785 249,786 249,787 250,788 250,789 251,790 252,791 253,792 254,793 255,794 256,795 257,796 258,797 259,798 259,799 260,800 260,801 259,802 259,803 258,804 257,804 256,805 255,805 254,805 253,806 252,806 251,806 250,806 249,806 248,806 249,806 250,806 251,806 252,806 253,806 254,807 255,806 256,806 257,806 258,806 259,806 260,806 261,805 262,805 263,804 264,804 265,804 266,805 267,806 268,807 269,808 270,809 271,809 272,810 273,811 274,812 275,813 276,813 277,814 278,815 279,816 280,816 281,817 282,818 283,818 284,819 285,819 286,819 287,820 288,820 289,820 290,820 291,821 292,821 293,821 294,821 295,821 296,821 297,821 298,821 299,822 300,822 301,822 302,822 303,822 304,822 305,822 306,822 307,822 308,822 309,823 310,823 311,823 312,823 313,823 314,823 315,823 316,823 317,823 318,823 319,823 320,824 321,824 322,824 323,824 324,824 325,824 326,824 327,824 328,824 329,824 330,824 331,824 332,824 333,824 334,825 335,825 336,825 337,825 338,825 339,824 340,824 341,824 342,824 343,824 344,824 345,824 346,824 347,824 348,823 349,823 350,823 351,822 352,822 353,821 354,821 355,820 356,820 357,819 358,819 359,818 360,817 361,816 362,815 363,814 364,813 365,812 366,811 367,810 368,809 369,808 370,807 371,806 371,805 372,804 372,803 373,802 373,801 374,800 374,799 375,798 375,797 376,796 376,795 376,794 376,793 376,792 376,791 376,790 376,789 376,788 376,787 376,786 376,785 376,784 376,783 376,782 376,781 376,780 376,779 376,778 376,777 376,776 376,775 376,774 376,773 376,772 376,771 376,770 376,769 376,768 376,767 376,766 376,765 376,764 376,763 376,762 376,761 376,760 376,759 376,758 376,757 376,756 376,755 376,754 376,753 376,752 376,751 376,750 376,749 376,748 376,747 376,746 376,745 376,744 376,743 376,742 376,741 376,740 376,739 376,738 376,737 376,736 376,735 376,734 376,733 376,732 376,731 376,730 376,729 376,728 376,727 376,726 376,725 376,724 376,723 376,722 376,721 376,720 376,719 376,718 376,717 376,716 376,715 376,714 376,713 376,712 376,711 376,710 376,709 376,708 376,707 376,706 376,705 376,704 375,704 374,703 373,703 372,703 371,703 370,703 369,703 368,704 367,704 366,704 365,703 364,703 363,703 362,703 361,703 360,703 359,703 358,703 357,703 356,703 355,703 354,703 353,703 352,703 351,703 350,703 349,703 348,703 347,703 346,703 345,703 344,703 343,703 342,703 341,703 340,703 339,703 338,703 337,703 336,703 335,703 334,703 333,703 332,703 331,703 330,703 329,703 328,703 327,703 326,703 325,703 324,703 323,703 322,703 321,703 320,703 319,703 318,703 317,703 316,703 315,703 314,703 313,703 312,703 311,703 310,703 309,703 308,703 307,703 306,703 305,703 304,703 303,703 302,703 301,703 300,703 299,703 298,703 297,703 296,703 295,703 294,703 293,703 292,703 291,703 290,703 289,703 288,703 287,703 286,703 285,703 284,703 283,703 282,703 281,703 280,703 279,703 278,703">
      <metadata tailDirection="" confidence="0.96" linkedToCharacter="" id="UltraEleven_222_balloon_2" tailTip=""></metadata>
    </polygon>
    <polygon points="302,443 301,444 300,445 299,445 298,446 297,446 296,447 296,448 295,449 295,450 295,451 294,452 294,453 294,454 294,455 293,456 293,457 292,458 291,458 290,458 289,457 288,457 287,456 286,455 285,455 284,454 283,453 282,453 281,452 280,452 279,451 278,451 277,450 276,450 275,449 274,449 273,449 272,448 271,448 270,448 269,448 268,448 267,448 266,448 265,448 264,448 263,448 262,448 261,448 260,448 259,449 258,449 257,449 256,449 255,450 254,450 253,450 252,450 251,451 250,451 249,451 248,451 247,452 246,452 245,452 244,452 243,452 242,453 241,453 240,453 239,454 238,454 237,454 236,455 235,455 234,455 233,455 232,456 231,456 230,456 229,457 228,457 227,457 226,458 225,458 224,458 223,459 222,459 221,460 220,461 219,462 218,463 217,463 216,464 216,465 215,466 214,466 214,467 213,468 212,469 211,470 211,471 210,472 209,473 209,474 208,475 207,476 206,477 206,478 205,479 205,480 204,481 203,482 203,483 202,484 202,485 201,486 201,487 201,488 201,489 201,490 201,491 201,492 201,493 201,494 201,495 201,496 200,497 200,498 200,499 200,500 201,501 201,502 201,503 201,504 201,505 201,506 201,507 201,508 201,509 201,510 201,511 201,512 201,513 201,514 201,515 201,516 201,517 201,518 201,519 201,520 201,521 201,522 201,523 201,524 201,525 201,526 201,527 201,528 201,529 201,530 201,531 201,532 201,533 201,534 201,535 201,536 201,537 201,538 201,539 201,540 201,541 201,542 201,543 201,544 201,545 201,546 201,547 201,548 201,549 201,550 202,551 202,552 202,553 202,554 202,555 202,556 203,557 203,558 204,559 204,560 205,561 206,562 206,563 207,564 208,565 209,566 210,567 211,568 212,569 213,570 214,571 215,572 216,573 217,573 218,574 219,575 220,575 221,576 222,577 223,577 224,578 225,579 226,579 227,580 228,580 229,580 230,580 231,580 232,580 233,580 234,581 235,581 236,581 237,581 238,581 239,581 240,581 241,581 242,581 243,581 244,581 245,581 246,581 247,581 248,581 249,581 250,581 251,581 252,581 253,581 254,581 255,581 256,581 257,581 258,581 259,581 260,581 261,581 262,581 263,581 264,581 265,581 266,581 267,581 268,581 269,581 270,581 271,580 272,580 273,580 274,580 275,580 276,580 277,580 278,579 279,579 280,579 281,579 282,578 283,578 284,577 285,577 286,576 287,576 288,575 289,574 290,574 291,573 292,572 293,571 294,571 295,570 296,569 297,569 298,568 299,567 300,566 301,566 302,565 303,564 304,563 305,563 306,562 307,561 308,560 309,559 310,558 311,557 312,557 313,556 314,555 315,554 316,553 317,552 318,551 318,550 319,549 320,548 321,548 322,549 323,550 324,550 325,551 326,552 327,553 328,553 329,554 330,554 331,555 332,555 333,556 334,556 335,557 336,557 337,557 338,557 339,558 340,558 341,558 342,558 343,558 344,558 345,558 346,558 347,559 348,559 349,559 350,559 351,559 352,559 353,559 354,559 355,559 356,559 357,559 358,559 359,559 360,559 361,559 362,559 363,559 364,559 365,558 366,558 367,557 368,557 369,556 370,556 371,555 372,555 373,554 374,554 375,553 376,553 377,552 378,552 379,551 380,550 381,549 382,549 383,548 384,547 385,546 386,545 387,544 388,544 389,543 390,542 391,541 392,540 393,539 394,538 395,537 396,536 397,535 398,534 399,533 400,532 401,531 402,530 403,529 404,528 405,527 405,526 406,525 407,524 408,523 409,522 410,521 410,520 411,519 411,518 412,517 412,516 413,515 414,514 414,513 414,512 415,511 415,510 416,509 416,508 416,507 416,506 416,505 416,504 417,503 417,502 417,501 417,500 417,499 417,498 417,497 417,496 417,495 417,494 417,493 417,492 417,491 417,490 417,489 416,488 416,487 416,486 416,485 416,484 416,483 416,482 416,481 416,480 416,479 416,478 416,477 416,476 415,475 415,474 415,473 415,472 415,471 416,470 417,469 418,469 419,468 420,468 421,468 422,467 423,467 424,467 425,467 426,466 427,466 428,466 429,466 430,466 431,466 432,466 433,466 434,465 435,465 436,465 437,465 438,465 439,465 440,465 441,464 440,464 439,464 438,464 437,464 436,464 435,464 434,464 433,464 432,464 431,463 430,463 429,463 428,463 427,463 426,463 425,463 424,463 423,463 422,463 421,463 420,463 419,463 418,463 417,463 416,463 415,462 415,461 414,460 414,459 414,458 414,457 414,456 413,455 413,454 413,453 413,452 412,451 411,450 410,449 409,448 408,448 407,447 406,446 405,446 404,445 403,445 402,444 401,444 400,443 399,443 398,443 397,443 396,443 395,443 394,443 393,443 392,443 391,443 390,443 389,443 388,443 387,443 386,443 385,443 384,443 383,443 382,443 381,443 380,443 379,443 378,443 377,443 376,443 375,443 374,443 373,443 372,443 371,443 370,443 369,443 368,443 367,443 366,443 365,443 364,443 363,443 362,443 361,443 360,443 359,443 358,443 357,443 356,443 355,443 354,443 353,443 352,443 351,443 350,443 349,443 348,443 347,443 346,443 345,443 344,443 343,443 342,443 341,443 340,443 339,443 338,443 337,443 336,443 335,443 334,443 333,443 332,443 331,443 330,443 329,443 328,443 327,443 326,443 325,443 324,443 323,443 322,443 321,443 320,443 319,443 318,443 317,443 316,443 315,443 314,443 313,443 312,443 311,443 310,443 309,443 308,443 307,443 306,443 305,443 304,443 303,443 302,443">
      <metadata tailDirection="" confidence="0.86" linkedToCharacter="" id="UltraEleven_222_balloon_3" tailTip=""></metadata>
    </polygon>
    <polygon points="392,76 391,77 390,77 389,77 388,77 387,77 386,78 385,78 384,78 383,79 382,79 381,80 380,81 379,81 378,82 377,82 376,83 375,84 374,85 373,86 373,87 372,88 371,89 371,90 370,91 369,92 369,93 368,94 367,95 367,96 367,97 366,98 366,99 365,100 365,101 365,102 364,103 364,104 364,105 364,106 363,107 363,108 363,109 362,110 362,111 362,112 362,113 362,114 361,115 362,116 361,117 361,118 361,119 361,120 361,121 361,122 361,123 361,124 361,125 361,126 361,127 361,128 361,129 361,130 361,131 361,132 361,133 361,134 361,135 361,136 361,137 361,138 361,139 361,140 361,141 361,142 361,143 361,144 362,145 362,146 362,147 363,148 363,149 363,150 363,151 363,152 364,153 364,154 365,155 365,156 365,157 366,158 366,159 367,160 368,161 369,162 370,163 371,164 372,165 373,165 374,166 375,166 376,167 377,167 378,168 379,168 380,168 381,168 382,168 383,169 384,168 385,169 386,169 387,169 388,169 389,169 390,169 391,169 392,170 393,170 394,170 395,171 396,172 397,172 397,171 398,170 399,169 400,168 401,167 402,167 403,166 404,165 405,165 406,164 407,164 408,163 409,163 410,162 411,162 412,161 413,160 414,159 415,158 416,157 416,156 417,155 418,154 419,153 419,152 420,151 420,150 421,149 421,148 422,147 422,146 422,145 423,144 423,143 424,142 424,141 424,140 425,139 425,138 425,137 425,136 425,135 425,134 426,133 426,132 426,131 426,130 426,129 426,128 426,127 426,126 426,125 426,124 426,123 426,122 426,121 426,120 426,119 426,118 426,117 425,116 425,115 425,114 425,113 425,112 425,111 425,110 424,109 424,108 424,107 424,106 423,105 423,104 423,103 423,102 422,101 422,100 422,99 421,98 421,97 420,96 420,95 419,94 419,93 418,92 417,91 417,90 416,89 415,88 415,87 414,86 413,85 413,84 412,83 411,83 410,82 409,81 408,81 407,80 406,80 405,79 404,79 403,78 402,78 401,77 400,77 399,77 398,77 397,77 396,77 395,77 394,77 393,77 392,76">
      <metadata tailDirection="" confidence="0.99" linkedToCharacter="" id="UltraEleven_222_balloon_4" tailTip=""></metadata>
    </polygon>
  </svg>
</svg>
