<?xml version="1.0" encoding="UTF-8" standalone="no"?>
<svg width="827" xmlns="http://www.w3.org/2000/svg" version="1.0" height="1170">
  <title>UltraEleven_154</title>
  <svg contentScriptType="text/ecmascript" zoomAndPan="magnify" contentStyleType="text/css" class="Page" preserveAspectRatio="xMidYMid meet" version="1.0">
    <image xmlns:xlink="http://www.w3.org/1999/xlink" x="0" y="0" width="827" height="1170" xlink:href="./../../dataset_Manga109/UltraEleven/UltraEleven_154.jpg" xlink:type="simple" xlink:actuate="onLoad" preserveAspectRatio="xMidYMid meet" xlink:show="embed"/>
  </svg>
  <style type="text/css" xml:space="preserve">
        * { stroke-linejoin: round; }
        .Unclassified   { fill: orange; stroke: none;   opacity: 1.0; visibility: hidden; }
        .Noise          { fill: pink;   stroke: none;   opacity: 0.2; visibility: hidden; }
        .Panel          { fill: none;   stroke: red;    stroke-width:3; opacity: 0.5; visibility: visible; image-rendering: optimizeSpeed; }
        .Line           { fill: green;  stroke: none;   opacity: 0.5; visibility: visible; image-rendering: optimizeSpeed; }
        .TextArea       { fill: grey;   stroke: none;   opacity: 0.2; visibility: visible; image-rendering: optimizeSpeed; }
        .Balloon        { fill: cyan;   stroke: none;   opacity: 0.5; visibility: visible; image-rendering: optimizeSpeed; }
        .Letter         { fill: blue;   stroke: none;   opacity: 0.2; visibility: hidden; }
        .Object, .Character, .Face  { fill: yellow; stroke: none;   opacity: 0.5; visibility: visible; image-rendering: optimizeSpeed; }
        .Page           { fill: white;  stroke: none;    opacity: 0.5; visibility: visible; }
        .linkSBSC { fill: blue; stroke: none; opacity: 1.0; visibility: visible; }
        polygon:hover { opacity:1.0; stroke:red; }
</style>
  <svg xmlns="http://www.w3.org/2000/svg" contentScriptType="text/ecmascript" zoomAndPan="magnify" contentStyleType="text/css" class="Balloon" preserveAspectRatio="xMidYMid meet" version="1.0">
    <polygon points="262,375 261,376 260,377 259,378 258,379 257,380 257,381 256,382 255,382 254,383 253,384 252,385 251,385 250,386 249,387 248,388 247,388 246,389 245,390 244,390 243,391 242,391 241,392 240,392 239,393 238,394 237,394 236,395 235,395 234,396 233,396 232,397 231,397 230,397 229,398 228,398 227,399 226,399 225,399 224,400 223,400 222,401 221,401 220,401 219,402 218,402 217,402 216,403 215,403 214,403 213,403 212,403 211,404 210,404 209,404 208,405 207,405 206,405 205,405 204,405 203,405 202,405 201,406 200,406 199,406 198,406 197,406 196,406 195,406 194,406 193,406 192,406 191,406 190,406 189,406 190,407 190,408 191,409 191,410 191,411 191,412 191,413 192,414 192,415 192,416 192,417 192,418 192,419 193,420 193,421 193,422 193,423 193,424 193,425 193,426 193,427 193,428 193,429 193,430 194,431 193,432 193,433 193,434 193,435 193,436 193,437 193,438 193,439 192,440 192,441 192,442 192,443 192,444 191,445 191,446 191,447 190,448 190,449 189,450 189,451 188,452 188,453 187,454 187,455 186,456 185,457 185,458 184,459 183,460 182,461 181,462 180,463 179,464 178,465 177,466 176,466 175,467 174,468 173,469 174,470 174,471 175,472 175,473 175,474 176,475 176,476 176,477 176,478 177,479 177,480 177,481 177,482 178,483 178,484 178,485 178,486 179,487 179,488 179,489 179,490 179,491 180,492 180,493 180,494 180,495 180,496 180,497 180,498 180,499 180,500 180,501 180,502 180,503 180,504 180,505 180,506 180,507 180,508 180,509 180,510 180,511 180,512 180,513 180,514 180,515 180,516 180,517 180,518 180,519 180,520 180,521 180,522 180,523 179,524 178,525 178,526 178,527 178,528 179,528 180,528 181,528 182,528 183,528 184,527 185,527 186,527 187,527 188,528 189,528 190,528 191,528 192,528 193,528 194,528 195,529 196,529 197,529 198,529 199,529 200,530 201,530 202,530 203,531 204,531 205,531 206,532 207,532 208,533 209,533 210,533 211,534 212,534 213,535 214,535 215,536 216,537 217,538 218,539 219,539 220,540 221,541 222,542 223,543 224,544 225,545 225,546 226,547 227,548 228,549 228,550 229,551 229,552 230,553 230,554 231,555 232,556 232,557 232,558 233,559 233,560 233,561 234,562 234,563 234,564 234,565 234,566 235,567 235,568 235,569 235,570 235,571 235,572 235,573 235,574 235,575 236,575 236,574 237,573 238,572 238,571 239,570 240,569 241,568 242,567 243,566 244,565 245,564 246,563 247,562 248,562 249,561 250,560 251,559 252,558 253,558 254,557 255,556 256,556 257,555 258,555 259,554 260,553 261,553 262,552 263,552 264,551 265,551 266,551 267,550 268,550 269,549 270,549 271,549 272,548 273,548 274,548 275,547 276,547 277,547 278,546 279,546 280,546 281,546 282,545 283,545 284,545 285,545 286,544 287,544 288,544 289,544 290,543 291,543 292,543 293,543 294,543 295,543 296,542 297,543 298,543 299,543 300,543 301,543 302,543 303,543 304,543 305,543 306,543 307,543 308,543 309,543 310,544 311,544 312,544 313,544 314,545 315,545 316,545 317,546 318,546 318,545 318,544 318,543 318,542 318,541 318,540 318,539 318,538 318,537 318,536 318,535 318,534 319,533 319,532 319,531 319,530 319,529 319,528 320,527 320,526 320,525 320,524 321,523 321,522 321,521 321,520 322,519 322,518 322,517 323,516 323,515 323,514 324,513 324,512 324,511 325,510 325,509 326,508 326,507 326,506 327,505 327,504 327,503 328,502 328,501 329,500 329,499 329,498 330,497 330,496 330,495 331,494 331,493 332,492 332,491 333,490 333,489 333,488 334,487 334,486 335,485 335,484 335,483 336,482 336,481 337,480 337,479 338,478 338,477 339,476 339,475 340,474 340,473 341,472 341,471 341,470 342,469 342,468 343,467 343,466 344,465 344,464 345,463 345,462 346,461 346,460 347,459 347,458 348,457 348,456 349,455 348,454 347,454 346,453 345,452 344,451 343,451 342,450 341,449 340,449 339,448 338,447 337,446 336,445 336,444 335,443 334,442 333,441 333,440 332,439 331,438 331,437 330,436 330,435 329,434 328,433 328,432 327,431 327,430 326,429 326,428 325,427 325,426 324,425 324,424 323,423 323,422 323,421 322,420 322,419 321,418 321,417 321,416 320,415 320,414 319,413 319,412 319,411 319,410 318,409 318,408 318,407 317,406 317,405 317,404 317,403 316,402 316,401 316,400 315,400 314,400 313,400 312,399 311,399 310,399 309,399 308,399 307,399 306,399 305,399 304,399 303,399 302,399 301,399 300,399 299,398 298,398 297,398 296,398 295,397 294,397 293,397 292,396 291,396 290,396 289,395 288,395 287,394 286,394 285,394 284,393 283,393 282,392 281,392 280,391 279,391 278,390 277,389 276,389 275,388 274,387 273,387 272,386 271,385 270,384 269,383 268,382 267,381 266,380 265,379 265,378 264,377 264,376 263,375 262,375">
      <metadata tailDirection="" confidence="0.86" linkedToCharacter="" id="UltraEleven_154_balloon_0" tailTip=""></metadata>
    </polygon>
    <polygon points="595,1 596,2 595,3 596,4 595,5 596,6 597,7 596,8 596,9 596,10 597,11 596,12 597,13 596,14 597,15 597,16 598,17 598,18 597,19 597,20 597,21 597,22 597,23 597,24 597,25 598,26 598,27 598,28 598,29 598,30 598,31 598,32 598,33 598,34 598,35 598,36 598,37 599,38 600,38 601,39 600,40 599,40 599,41 599,42 599,43 599,44 599,45 599,46 599,47 600,48 600,49 600,50 601,51 600,52 601,53 600,54 600,55 600,56 600,57 601,58 601,59 601,60 600,61 601,62 601,63 602,62 603,63 604,64 604,65 603,66 602,65 601,66 602,67 601,68 601,69 601,70 602,70 603,70 604,71 603,72 602,72 602,73 603,74 604,73 605,74 606,74 607,74 608,73 609,74 609,75 609,76 608,77 607,77 606,77 607,78 608,78 609,77 610,78 611,78 612,78 612,77 613,76 613,75 613,74 614,73 614,72 614,71 613,71 612,71 611,70 612,69 613,69 614,69 614,68 615,67 616,68 616,69 616,70 617,69 618,70 619,71 618,72 617,72 617,73 618,74 619,75 620,76 621,76 622,77 621,78 620,78 619,78 618,78 617,77 616,77 616,78 617,79 618,80 617,81 616,82 615,81 614,80 613,81 612,82 611,83 610,82 609,81 610,80 609,80 608,80 607,81 606,81 605,81 604,80 604,79 603,78 604,77 603,76 602,77 602,78 602,79 602,80 603,79 604,80 605,81 604,82 603,83 602,84 603,85 604,84 605,85 606,84 607,83 608,84 609,85 608,86 607,87 606,88 607,87 608,88 609,87 610,86 611,85 612,84 613,83 614,84 615,85 614,86 613,87 614,88 613,89 614,90 613,91 612,92 611,91 610,90 611,89 610,89 610,90 609,91 608,90 608,91 608,92 607,93 608,92 609,93 608,92 609,91 610,90 611,91 612,92 613,91 614,92 615,93 614,92 615,91 616,90 617,91 618,90 619,91 620,92 621,93 622,92 623,93 622,92 621,91 622,90 621,91 620,90 620,89 620,88 621,87 622,88 621,87 620,86 619,85 618,84 619,83 620,82 621,83 622,83 623,83 624,83 625,83 626,83 627,83 626,82 626,81 625,81 624,80 625,79 626,79 626,78 626,77 626,76 627,75 628,75 629,76 630,77 629,78 629,79 628,80 628,81 629,81 630,81 631,82 630,83 630,84 631,84 631,83 631,82 632,81 631,80 631,79 631,78 631,77 630,76 630,75 629,74 628,73 629,72 630,72 630,71 630,70 630,69 630,68 629,67 628,66 627,65 628,64 629,63 629,62 629,61 629,60 629,59 628,58 629,57 628,56 627,55 628,54 628,53 627,53 626,52 625,51 626,50 627,49 626,48 627,47 627,46 627,45 627,44 627,43 627,42 626,41 626,40 626,39 626,38 626,37 626,36 626,35 626,34 625,33 625,32 625,31 625,30 625,29 625,28 625,27 625,26 624,25 624,24 624,23 624,22 624,21 623,20 624,19 624,18 623,17 623,16 623,15 623,14 623,13 623,12 623,11 623,10 623,9 622,8 622,7 621,6 621,5 622,4 622,3 622,2 621,1 620,1 619,1 618,1 617,1 616,1 615,1 614,1 613,1 612,1 611,1 610,1 609,1 608,1 607,1 606,1 605,1 604,1 603,1 602,1 601,1 600,1 599,1 598,1 597,1 596,2 595,1">
      <metadata tailDirection="" confidence="0.88" linkedToCharacter="" id="UltraEleven_154_balloon_1" tailTip=""></metadata>
    </polygon>
  </svg>
</svg>
