<?xml version="1.0" encoding="UTF-8" standalone="no"?>
<svg width="827" xmlns="http://www.w3.org/2000/svg" version="1.0" height="1170">
  <title>UltraEleven_140</title>
  <svg contentScriptType="text/ecmascript" zoomAndPan="magnify" contentStyleType="text/css" class="Page" preserveAspectRatio="xMidYMid meet" version="1.0">
    <image xmlns:xlink="http://www.w3.org/1999/xlink" x="0" y="0" width="827" height="1170" xlink:href="./../../dataset_Manga109/UltraEleven/UltraEleven_140.jpg" xlink:type="simple" xlink:actuate="onLoad" preserveAspectRatio="xMidYMid meet" xlink:show="embed"/>
  </svg>
  <style type="text/css" xml:space="preserve">
        * { stroke-linejoin: round; }
        .Unclassified   { fill: orange; stroke: none;   opacity: 1.0; visibility: hidden; }
        .Noise          { fill: pink;   stroke: none;   opacity: 0.2; visibility: hidden; }
        .Panel          { fill: none;   stroke: red;    stroke-width:3; opacity: 0.5; visibility: visible; image-rendering: optimizeSpeed; }
        .Line           { fill: green;  stroke: none;   opacity: 0.5; visibility: visible; image-rendering: optimizeSpeed; }
        .TextArea       { fill: grey;   stroke: none;   opacity: 0.2; visibility: visible; image-rendering: optimizeSpeed; }
        .Balloon        { fill: cyan;   stroke: none;   opacity: 0.5; visibility: visible; image-rendering: optimizeSpeed; }
        .Letter         { fill: blue;   stroke: none;   opacity: 0.2; visibility: hidden; }
        .Object, .Character, .Face  { fill: yellow; stroke: none;   opacity: 0.5; visibility: visible; image-rendering: optimizeSpeed; }
        .Page           { fill: white;  stroke: none;    opacity: 0.5; visibility: visible; }
        .linkSBSC { fill: blue; stroke: none; opacity: 1.0; visibility: visible; }
        polygon:hover { opacity:1.0; stroke:red; }
</style>
  <svg xmlns="http://www.w3.org/2000/svg" contentScriptType="text/ecmascript" zoomAndPan="magnify" contentStyleType="text/css" class="Balloon" preserveAspectRatio="xMidYMid meet" version="1.0">
    <polygon points="576,569 575,570 574,571 573,572 572,573 572,574 571,575 570,576 570,577 569,578 568,579 567,580 567,581 566,582 566,583 565,584 565,585 564,586 564,587 564,588 563,589 563,590 563,591 562,592 561,591 561,590 561,589 561,588 561,587 560,588 560,589 560,590 560,591 561,592 561,593 561,594 561,595 561,596 561,597 561,598 561,599 561,600 561,601 561,602 561,603 561,604 562,605 562,606 562,607 562,608 562,609 562,610 562,611 562,612 562,613 562,614 562,615 562,616 562,617 562,618 562,619 562,620 562,621 562,622 561,623 561,624 561,625 561,626 561,627 561,628 561,629 561,630 561,631 560,632 560,633 560,634 560,635 560,636 560,637 559,638 559,639 559,640 559,641 558,642 558,643 558,644 559,645 559,646 559,647 560,648 560,649 561,650 561,651 562,652 562,653 563,654 563,655 564,656 565,657 565,658 566,659 566,660 566,661 567,662 567,663 568,664 569,665 569,666 570,667 570,668 571,669 572,670 572,671 573,672 574,673 574,674 575,675 576,675 577,675 578,676 579,676 580,676 581,676 582,677 583,677 584,677 585,677 586,677 587,677 588,677 589,677 590,678 591,678 592,678 593,677 594,677 595,677 596,677 597,676 598,676 599,676 600,675 601,675 602,674 603,674 604,673 605,673 606,672 607,672 608,671 609,670 610,670 611,669 612,668 613,668 614,667 615,667 616,666 617,665 618,664 619,663 620,662 621,662 622,661 623,660 624,659 625,658 626,657 626,656 627,655 628,654 629,653 629,652 630,651 631,650 631,649 632,648 633,647 633,646 634,645 635,644 635,643 636,642 637,641 637,640 638,639 638,638 639,637 639,636 640,635 640,634 641,633 641,632 641,631 642,630 642,629 642,628 643,627 643,626 643,625 643,624 644,623 644,622 644,621 644,620 644,619 644,618 644,617 644,616 645,615 645,614 645,613 645,612 645,611 645,610 645,609 645,608 645,607 645,606 644,605 644,604 644,603 643,602 643,601 643,600 642,599 642,598 642,597 642,596 642,597 642,598 641,599 640,599 639,598 638,597 638,596 638,595 638,594 637,593 637,592 637,591 637,590 637,589 637,588 637,587 637,586 637,585 637,584 637,583 637,582 637,581 637,580 637,579 638,578 638,577 637,577 636,578 635,579 634,579 633,580 632,581 631,582 632,583 632,584 632,585 632,586 632,587 631,588 630,589 629,589 628,588 627,588 626,587 625,587 624,586 623,586 622,585 621,585 620,584 619,584 618,584 617,584 616,584 615,584 614,584 613,584 612,584 611,584 610,584 609,584 608,583 609,582 610,581 611,580 612,580 613,579 614,578 615,577 615,576 616,575 617,574 617,573 618,572 618,571 618,570 617,571 617,572 616,573 615,574 614,575 613,576 612,577 611,578 610,579 609,580 608,581 608,582 607,583 606,582 606,581 606,580 607,579 607,578 608,577 608,576 609,575 609,574 610,573 610,572 609,573 608,574 608,575 607,576 606,577 606,578 605,579 605,580 605,581 604,582 604,583 603,584 603,585 603,586 602,587 602,588 602,589 602,590 602,591 601,592 601,593 601,594 601,595 601,596 600,597 599,596 598,595 598,594 597,593 597,592 597,591 596,590 596,589 596,588 596,587 596,586 595,585 595,584 595,583 595,582 595,581 595,580 595,579 594,578 594,577 594,576 594,575 594,574 594,573 595,572 595,571 595,570 595,571 594,572 594,573 593,574 593,575 593,576 593,577 593,578 592,579 592,580 592,581 593,582 594,583 593,584 592,584 591,584 590,584 589,584 588,584 587,584 586,584 585,584 584,583 583,584 582,584 581,584 580,584 579,584 578,584 577,584 576,585 575,585 574,586 573,587 572,587 571,588 570,589 569,590 569,591 568,592 567,591 567,590 567,589 567,588 567,587 567,586 567,585 568,584 568,583 569,582 570,581 571,580 572,580 573,579 574,579 575,578 575,577 575,576 575,575 575,574 575,573 575,572 576,571 576,570 576,569">
      <metadata tailDirection="" confidence="0.91" linkedToCharacter="" id="UltraEleven_140_balloon_0" tailTip=""></metadata>
    </polygon>
    <polygon points="663,536 664,537 664,538 664,539 664,540 664,541 664,542 664,543 664,544 664,545 664,546 664,547 664,548 664,549 663,550 663,551 663,552 662,553 663,553 664,552 665,551 666,550 667,549 667,548 668,547 668,546 669,545 669,544 669,543 670,542 671,542 672,543 672,544 672,545 671,546 671,547 670,548 669,549 669,550 668,551 667,552 666,553 665,554 664,555 663,556 662,557 662,558 663,558 664,559 665,559 666,560 667,561 668,561 669,562 669,563 670,564 671,565 672,566 672,567 672,568 671,569 670,568 669,567 668,566 668,565 667,564 666,564 665,563 664,562 663,562 662,562 663,563 664,564 664,565 665,566 666,567 666,568 667,569 667,570 668,571 668,572 668,573 668,574 669,575 669,576 669,577 669,578 669,579 669,580 669,581 668,582 668,583 668,584 668,585 668,586 667,587 666,587 665,586 664,585 664,584 663,583 663,582 663,583 663,584 663,585 663,586 663,587 663,588 663,589 663,590 663,591 662,592 662,593 662,594 662,595 661,596 661,597 661,598 660,599 659,599 658,599 658,600 658,601 658,602 658,603 659,604 660,605 660,606 660,607 660,608 660,609 661,610 660,611 660,612 660,613 660,614 660,615 660,616 660,617 659,618 658,617 657,616 658,615 658,614 658,613 658,612 658,611 657,610 657,609 657,608 656,607 655,606 654,605 653,605 652,605 652,606 651,607 651,608 651,609 651,610 650,611 650,612 650,613 650,612 651,611 652,610 652,609 653,608 654,608 655,609 655,610 656,611 656,612 657,613 657,614 657,615 657,616 657,617 657,618 656,619 656,620 655,621 654,621 653,620 653,619 653,618 653,617 653,616 653,615 653,614 653,615 652,616 651,617 651,618 650,619 650,620 650,621 650,622 650,623 650,624 650,625 650,626 649,627 649,628 649,629 648,630 647,631 647,632 647,633 646,634 645,633 644,633 644,634 643,635 643,636 643,637 644,637 645,637 646,637 647,636 648,635 649,635 650,634 651,633 651,632 652,631 653,630 653,629 654,628 654,627 655,626 655,625 655,624 655,623 656,622 656,621 656,620 657,619 658,619 659,620 659,621 659,622 658,623 658,624 658,625 658,626 657,627 657,628 656,629 656,630 655,631 655,632 654,633 653,634 652,635 652,636 651,637 650,638 649,639 648,640 647,640 646,641 645,641 644,642 643,642 642,642 641,642 640,641 639,642 639,643 638,644 638,645 637,646 636,647 636,648 635,649 634,650 633,651 633,652 632,653 631,654 631,655 631,656 630,657 630,658 630,659 629,660 629,661 630,660 631,659 632,658 633,658 633,657 633,656 634,655 635,655 636,654 637,654 638,653 639,653 640,652 641,652 642,652 643,651 644,651 645,651 646,651 647,650 648,650 649,650 650,650 651,650 652,650 653,650 653,649 654,648 655,648 656,649 657,650 658,651 659,652 660,653 661,654 661,653 660,652 659,652 658,651 658,650 658,649 659,648 660,649 661,650 662,650 663,651 664,652 664,653 665,654 666,655 666,656 667,656 667,655 668,654 669,654 670,653 671,653 672,652 673,652 674,652 675,652 676,652 677,652 678,653 678,654 679,654 680,655 681,655 682,656 682,657 683,658 684,658 685,659 686,659 687,659 688,660 689,661 690,662 691,662 692,663 692,664 693,665 694,666 695,667 695,668 696,668 697,668 698,668 699,667 700,668 699,667 698,667 697,666 696,666 695,665 695,664 696,663 697,663 698,663 699,663 700,662 701,662 702,662 703,662 704,662 705,662 706,662 707,663 708,663 709,663 710,664 711,664 712,665 713,666 714,667 715,668 716,669 717,670 717,671 717,672 718,673 718,674 718,675 718,676 718,677 718,678 718,679 718,680 718,681 718,682 718,683 718,684 718,685 718,686 718,687 718,686 718,685 718,684 718,683 718,682 718,681 718,680 718,679 718,678 718,677 718,676 718,675 718,674 718,673 718,672 717,671 717,670 717,669 716,668 716,667 715,666 715,665 716,664 717,663 718,663 719,664 720,665 721,666 722,667 722,668 723,669 723,670 724,669 725,669 726,668 727,668 728,667 729,667 730,667 731,667 732,667 733,668 733,669 732,670 731,671 730,671 731,671 732,670 733,671 734,671 735,672 735,673 736,674 737,674 738,675 738,674 738,673 738,672 738,671 738,670 738,669 738,668 738,667 738,666 738,665 738,664 738,663 738,662 738,661 738,660 738,659 738,658 738,657 738,656 738,655 738,654 738,653 738,652 738,651 738,650 738,649 738,648 738,647 738,646 738,645 738,644 738,643 738,642 738,641 738,640 738,639 738,638 738,637 738,636 738,635 738,634 738,633 738,632 738,631 738,630 738,629 738,628 738,627 738,626 738,625 738,624 738,623 738,622 738,621 738,620 738,619 738,618 738,617 738,616 738,615 738,614 738,613 738,612 738,611 738,610 738,609 738,608 738,607 738,606 738,605 738,604 738,603 738,602 738,601 738,600 738,599 738,598 738,597 738,596 738,595 738,594 738,593 738,592 738,591 738,590 738,589 738,588 738,587 738,586 738,585 738,584 738,583 738,582 738,581 738,580 738,579 738,578 738,577 738,576 738,575 738,574 738,573 738,572 738,571 738,570 738,569 738,568 738,567 738,566 738,565 738,564 738,563 738,562 738,561 738,560 738,559 738,558 738,557 738,556 738,555 738,554 738,553 738,552 738,551 738,550 738,549 738,548 738,547 738,546 738,545 738,544 738,543 738,542 738,541 738,540 738,539 738,538 738,537 738,536 737,536 736,536 735,536 734,536 733,536 732,536 731,536 730,536 729,536 728,536 727,536 726,536 725,536 724,536 723,536 722,536 721,536 720,536 719,536 718,536 717,536 716,536 715,536 714,536 713,536 712,536 711,536 710,536 709,536 708,536 707,536 706,536 705,536 704,536 703,536 702,536 701,536 700,536 699,536 698,536 697,536 696,536 695,536 694,536 693,536 692,536 691,536 690,536 689,536 688,536 687,536 686,536 685,536 684,536 683,536 682,536 681,536 680,536 679,536 678,536 677,536 676,536 675,536 674,536 673,536 672,536 671,536 670,536 669,536 668,536 667,536 666,536 665,536 664,536 663,536">
      <metadata tailDirection="" confidence="0.90" linkedToCharacter="" id="UltraEleven_140_balloon_1" tailTip=""></metadata>
    </polygon>
    <polygon points="402,536 401,537 401,538 401,539 401,540 401,541 401,542 401,543 401,544 401,545 401,546 401,547 401,548 401,549 401,550 401,551 401,552 401,553 401,554 401,555 401,556 401,557 401,558 401,559 401,560 401,561 401,562 401,563 401,564 401,565 401,566 401,567 401,568 401,569 401,570 401,571 401,572 401,573 401,574 401,575 401,576 401,577 401,578 401,579 401,580 401,581 401,582 401,583 401,584 401,585 401,586 401,587 401,588 401,589 401,590 401,591 401,592 401,593 401,594 401,595 401,596 401,597 401,598 401,599 401,600 401,601 401,602 402,603 402,604 402,605 402,606 402,607 402,608 402,609 402,610 402,611 402,612 402,613 402,614 402,615 402,616 402,617 402,618 402,619 402,620 402,621 402,622 402,623 402,624 402,625 402,626 402,627 402,628 402,629 402,630 402,631 402,632 402,633 402,634 402,635 402,636 402,637 402,638 402,639 402,640 402,641 402,642 402,643 402,644 402,645 402,646 402,647 402,648 402,649 402,650 402,651 402,652 402,653 402,654 402,655 402,656 402,657 402,658 402,659 402,660 402,661 402,662 402,663 402,664 402,665 402,666 402,667 402,668 402,669 402,670 402,671 402,672 402,673 402,674 402,675 402,676 402,677 402,678 402,679 402,680 402,681 402,682 402,683 402,684 402,685 402,686 402,687 403,687 404,687 405,687 406,687 407,687 408,687 409,687 410,687 411,687 412,687 413,687 414,687 415,687 416,687 417,687 418,687 419,687 420,687 421,687 422,687 423,687 424,687 425,687 426,687 427,687 428,687 429,687 430,687 431,687 432,687 433,687 434,687 435,687 436,687 437,687 438,687 439,687 440,687 441,687 442,687 443,687 444,687 445,687 446,687 447,687 448,687 449,687 450,687 451,687 452,687 453,687 454,687 455,687 456,687 457,687 458,687 459,687 460,687 461,687 462,687 463,687 464,687 465,687 466,687 467,687 468,687 469,687 470,687 471,687 472,687 473,687 474,687 475,687 476,687 477,687 478,687 479,687 480,687 481,687 482,687 483,687 484,687 485,687 486,687 487,687 488,687 489,687 490,687 491,687 492,687 493,687 494,687 495,687 496,687 497,687 498,687 499,687 500,687 501,687 502,687 503,687 504,687 505,687 506,687 507,687 508,687 509,687 510,687 511,687 512,687 513,687 514,687 515,687 516,687 517,687 518,687 519,687 520,687 521,687 522,687 523,687 524,687 525,687 526,687 527,687 528,687 529,686 529,685 530,684 530,683 531,682 532,681 533,680 534,679 535,678 536,677 537,676 538,675 539,674 540,673 541,673 542,672 543,671 544,671 545,672 546,672 547,672 548,673 549,673 550,674 551,674 552,675 553,675 554,676 555,677 556,677 557,678 558,679 559,680 560,680 561,681 562,682 563,682 564,683 565,684 566,684 567,684 568,683 569,682 570,681 571,680 572,679 573,679 573,678 572,677 571,676 570,675 569,674 568,673 568,672 567,671 566,670 566,669 565,668 565,667 564,666 563,665 563,664 562,663 562,662 561,661 561,660 560,659 560,658 559,657 559,656 558,655 558,654 557,653 557,652 556,651 556,650 556,649 556,648 555,647 555,646 555,645 555,644 555,643 555,642 555,641 555,640 556,639 556,638 557,637 556,636 555,635 555,634 554,633 553,632 553,631 552,630 552,629 552,628 551,627 551,626 551,625 551,624 551,623 551,622 551,621 551,620 551,619 551,618 552,617 552,616 552,615 552,614 553,613 553,612 553,611 553,610 554,609 554,608 555,607 555,606 555,605 555,604 554,603 554,602 554,601 553,600 553,599 553,598 553,597 552,596 552,595 552,594 552,593 552,592 552,591 552,592 551,593 551,594 550,595 550,596 550,597 549,598 548,598 547,597 546,596 546,595 546,594 546,593 545,592 545,591 545,590 545,589 545,588 545,587 545,586 545,585 545,584 545,583 546,582 546,581 546,580 546,581 545,582 545,583 545,584 544,585 544,586 544,587 544,588 543,589 542,589 541,588 541,587 541,586 541,585 541,584 541,583 541,582 541,581 541,580 541,579 541,578 541,577 541,576 541,575 541,574 541,573 542,572 542,571 542,570 543,569 543,568 544,567 545,566 546,565 547,564 548,563 549,562 550,561 549,561 548,562 547,562 546,563 545,564 544,564 543,565 542,566 541,566 540,567 539,568 538,569 537,570 537,571 536,572 535,573 534,574 533,575 532,574 532,573 532,572 532,571 532,570 533,569 533,568 534,567 534,566 535,565 535,564 536,563 536,562 537,561 537,560 538,559 538,558 539,557 539,556 540,555 541,554 542,553 543,552 544,551 545,550 546,550 547,549 548,549 549,548 550,548 551,547 550,547 549,548 548,548 547,548 546,548 545,548 544,548 543,548 542,547 543,546 544,546 545,546 546,546 547,546 548,546 549,545 550,545 551,545 552,545 553,545 554,545 555,545 556,545 557,545 558,545 559,545 559,544 558,544 557,543 556,542 556,541 555,540 554,539 554,538 553,537 552,536 551,536 550,536 549,536 548,536 547,536 546,536 545,536 544,536 543,536 542,536 541,536 540,536 539,536 538,536 537,536 536,536 535,536 534,536 533,536 532,536 531,536 530,536 529,536 528,536 527,536 526,536 525,536 524,536 523,536 522,536 521,536 520,536 519,536 518,536 517,536 516,536 515,536 514,536 513,536 512,536 511,536 510,536 509,536 508,536 507,536 506,536 505,536 504,536 503,536 502,536 501,536 500,536 499,536 498,536 497,536 496,536 495,536 494,536 493,536 492,536 491,536 490,536 489,536 488,536 487,536 486,536 485,536 484,536 483,536 482,536 481,536 480,536 479,536 478,536 477,536 476,536 475,536 474,536 473,536 472,536 471,536 470,536 469,536 468,536 467,536 466,536 465,536 464,536 463,536 462,536 461,536 460,536 459,536 458,536 457,536 456,536 455,536 454,536 453,536 452,536 451,536 450,536 449,536 448,536 447,536 446,536 445,536 444,536 443,536 442,536 441,536 440,536 439,536 438,536 437,536 436,536 435,536 434,536 433,536 432,536 431,536 430,536 429,536 428,536 427,536 426,536 425,536 424,536 423,536 422,536 421,536 420,536 419,536 418,536 417,536 416,536 415,536 414,536 413,536 412,536 411,536 410,536 409,536 408,536 407,536 406,536 405,536 404,536 403,536 402,536">
      <metadata tailDirection="" confidence="0.80" linkedToCharacter="" id="UltraEleven_140_balloon_2" tailTip=""></metadata>
    </polygon>
  </svg>
</svg>
