<?xml version="1.0" encoding="UTF-8" standalone="no"?>
<svg width="827" xmlns="http://www.w3.org/2000/svg" version="1.0" height="1170">
  <title>UltraEleven_051</title>
  <svg contentScriptType="text/ecmascript" zoomAndPan="magnify" contentStyleType="text/css" class="Page" preserveAspectRatio="xMidYMid meet" version="1.0">
    <image xmlns:xlink="http://www.w3.org/1999/xlink" x="0" y="0" width="827" height="1170" xlink:href="./../../dataset_Manga109/UltraEleven/UltraEleven_051.jpg" xlink:type="simple" xlink:actuate="onLoad" preserveAspectRatio="xMidYMid meet" xlink:show="embed"/>
  </svg>
  <style type="text/css" xml:space="preserve">
        * { stroke-linejoin: round; }
        .Unclassified   { fill: orange; stroke: none;   opacity: 1.0; visibility: hidden; }
        .Noise          { fill: pink;   stroke: none;   opacity: 0.2; visibility: hidden; }
        .Panel          { fill: none;   stroke: red;    stroke-width:3; opacity: 0.5; visibility: visible; image-rendering: optimizeSpeed; }
        .Line           { fill: green;  stroke: none;   opacity: 0.5; visibility: visible; image-rendering: optimizeSpeed; }
        .TextArea       { fill: grey;   stroke: none;   opacity: 0.2; visibility: visible; image-rendering: optimizeSpeed; }
        .Balloon        { fill: cyan;   stroke: none;   opacity: 0.5; visibility: visible; image-rendering: optimizeSpeed; }
        .Letter         { fill: blue;   stroke: none;   opacity: 0.2; visibility: hidden; }
        .Object, .Character, .Face  { fill: yellow; stroke: none;   opacity: 0.5; visibility: visible; image-rendering: optimizeSpeed; }
        .Page           { fill: white;  stroke: none;    opacity: 0.5; visibility: visible; }
        .linkSBSC { fill: blue; stroke: none; opacity: 1.0; visibility: visible; }
        polygon:hover { opacity:1.0; stroke:red; }
</style>
  <svg xmlns="http://www.w3.org/2000/svg" contentScriptType="text/ecmascript" zoomAndPan="magnify" contentStyleType="text/css" class="Balloon" preserveAspectRatio="xMidYMid meet" version="1.0">
    <polygon points="714,917 713,918 713,919 713,920 712,921 712,922 712,923 712,924 712,925 713,926 713,927 713,928 713,929 713,930 713,931 713,932 713,933 713,934 713,935 713,936 713,937 713,938 714,939 714,940 713,941 714,942 714,943 714,944 714,945 714,946 714,947 714,948 714,949 714,950 714,951 714,952 714,953 713,954 713,955 713,956 713,957 713,958 714,959 714,960 714,961 714,962 714,963 714,964 714,965 714,966 714,967 714,968 714,969 714,970 714,971 714,972 714,973 714,974 713,975 713,976 713,977 713,978 713,979 713,980 713,981 713,982 712,983 712,984 712,985 712,986 712,987 712,988 712,989 711,990 711,991 711,992 710,993 710,994 710,995 710,996 710,997 710,998 709,999 709,1000 709,1001 709,1002 708,1003 708,1004 708,1005 708,1006 708,1007 707,1008 707,1009 707,1010 707,1011 708,1012 707,1013 707,1014 706,1015 705,1016 704,1017 704,1018 703,1019 703,1020 703,1021 703,1022 703,1023 703,1024 703,1025 702,1026 702,1027 702,1028 702,1029 702,1030 702,1031 702,1032 702,1033 702,1034 702,1035 702,1036 702,1037 702,1038 702,1039 702,1040 702,1041 702,1042 702,1043 702,1044 702,1045 702,1046 702,1047 702,1048 702,1049 702,1050 703,1051 703,1052 702,1053 701,1054 700,1053 699,1052 698,1051 698,1050 697,1050 698,1051 698,1052 699,1053 699,1054 700,1055 700,1056 701,1057 701,1058 701,1059 702,1060 702,1061 702,1062 702,1063 702,1064 702,1065 702,1066 702,1067 702,1068 702,1069 702,1070 702,1071 702,1072 702,1073 702,1074 702,1075 702,1076 702,1077 702,1078 702,1079 702,1080 702,1081 702,1082 702,1083 702,1084 702,1085 702,1086 702,1087 702,1088 702,1089 702,1090 702,1091 702,1092 702,1093 702,1094 702,1095 702,1096 702,1097 702,1098 702,1099 702,1100 702,1101 702,1102 703,1103 703,1104 703,1105 703,1106 703,1107 703,1108 703,1109 704,1110 704,1111 704,1112 705,1113 706,1114 706,1115 707,1116 708,1117 709,1118 710,1119 711,1120 711,1121 712,1121 713,1122 714,1123 715,1124 716,1125 717,1126 718,1127 719,1128 720,1129 721,1129 722,1129 723,1130 724,1130 725,1130 726,1130 727,1130 728,1130 729,1130 730,1131 731,1131 732,1131 733,1131 734,1131 735,1131 736,1131 737,1131 738,1131 739,1131 740,1131 741,1131 742,1131 743,1131 744,1130 745,1130 746,1129 747,1128 748,1127 749,1126 750,1125 751,1124 752,1123 753,1122 754,1121 754,1120 755,1119 755,1118 755,1117 755,1116 755,1115 755,1114 755,1113 755,1112 755,1111 755,1110 755,1109 755,1108 755,1107 755,1106 755,1105 755,1104 755,1103 755,1102 755,1101 755,1100 755,1099 755,1098 755,1097 755,1096 755,1095 755,1094 755,1093 755,1092 755,1091 755,1090 755,1089 755,1088 755,1087 755,1086 755,1085 755,1084 755,1083 755,1082 755,1081 754,1080 755,1079 754,1078 754,1077 754,1076 754,1075 754,1074 754,1073 754,1072 754,1071 754,1070 754,1069 754,1068 754,1067 754,1066 754,1065 754,1064 754,1063 754,1062 754,1061 754,1060 754,1059 754,1058 754,1057 754,1056 754,1055 754,1054 754,1053 754,1052 754,1051 754,1050 754,1049 754,1048 754,1047 754,1046 754,1045 754,1044 754,1043 754,1042 754,1041 753,1040 754,1039 754,1038 754,1037 754,1036 754,1035 754,1034 754,1033 754,1032 754,1031 754,1030 754,1029 754,1028 754,1027 754,1026 754,1025 754,1024 754,1023 754,1022 754,1021 754,1020 754,1019 754,1018 754,1017 754,1016 754,1015 754,1014 754,1013 754,1012 754,1011 753,1010 752,1009 752,1008 751,1007 750,1006 749,1005 748,1004 747,1003 746,1002 745,1001 744,1001 743,1000 742,1000 741,1000 740,1000 739,1000 738,1000 737,999 736,999 735,999 734,999 733,999 732,999 731,999 730,999 729,999 728,999 727,999 726,999 725,999 724,999 723,999 722,1000 721,1000 720,1000 719,1001 718,1002 717,1003 716,1004 715,1005 714,1005 713,1004 714,1003 715,1002 716,1001 717,1000 718,999 719,998 720,997 721,996 722,996 723,996 724,996 725,996 726,995 727,995 728,995 729,995 730,995 731,995 732,995 733,995 734,995 735,995 736,995 737,995 738,995 739,995 740,995 741,996 742,996 743,996 744,996 745,996 746,997 747,997 748,998 749,999 750,1000 751,1001 752,1002 753,1003 753,1004 754,1005 754,1004 754,1003 754,1002 754,1001 754,1000 754,999 754,998 754,997 754,996 754,995 754,994 754,993 754,992 754,991 754,990 754,989 754,988 755,987 754,986 754,985 755,984 755,983 755,982 755,981 755,980 755,979 755,978 755,977 755,976 755,975 755,974 755,973 755,972 755,971 755,970 755,969 755,968 755,967 755,966 755,965 755,964 755,963 755,962 755,961 755,960 755,959 755,958 755,957 755,956 755,955 755,954 755,953 755,952 755,951 755,950 755,949 755,948 755,947 754,946 753,946 752,945 751,945 750,944 749,944 748,943 747,943 746,942 745,942 744,941 743,941 742,940 741,940 740,939 739,939 738,938 737,937 736,936 735,935 734,934 733,934 732,933 731,932 730,931 729,930 728,929 727,928 726,927 725,927 724,926 723,925 722,924 721,923 720,922 719,921 718,920 717,920 716,919 715,918 714,917">
      <metadata tailDirection="" confidence="0.83" linkedToCharacter="" id="UltraEleven_051_balloon_0" tailTip=""></metadata>
    </polygon>
    <polygon points="152,891 151,892 150,893 150,894 151,895 150,896 151,897 152,898 152,899 153,900 153,901 154,902 154,903 154,904 155,905 155,906 156,905 157,904 158,903 159,902 160,901 161,902 161,903 160,904 159,905 158,906 157,907 156,908 156,909 157,908 158,907 159,906 160,907 160,908 159,909 158,910 157,911 157,912 158,912 159,913 158,914 159,914 160,915 160,916 161,917 161,918 161,919 162,919 163,920 162,921 162,922 161,923 160,923 159,922 159,921 158,921 157,920 157,919 156,920 155,921 154,922 153,923 154,923 155,924 154,925 154,926 155,926 156,925 157,924 158,925 158,926 157,927 156,928 156,929 156,930 157,931 156,932 155,933 154,932 154,931 153,931 152,930 151,929 150,930 149,929 149,928 148,927 148,926 147,926 146,927 145,927 144,928 145,929 145,930 146,929 147,930 147,931 146,932 145,933 146,932 147,931 148,932 148,933 147,934 146,935 146,936 147,936 148,937 147,938 147,939 148,940 148,941 147,942 146,943 145,944 144,945 143,946 142,947 141,946 141,945 142,944 143,943 144,942 145,941 144,942 143,943 142,943 141,943 140,942 141,941 142,940 142,939 142,938 141,937 140,938 139,939 139,940 138,941 138,942 138,943 137,944 137,945 138,946 138,947 137,948 136,949 136,950 135,951 135,952 135,953 136,954 135,955 135,956 134,957 133,958 133,959 133,960 133,961 134,962 133,963 132,964 132,965 132,966 133,967 133,968 133,969 133,970 134,971 133,972 133,973 133,974 134,975 134,976 134,977 135,977 136,978 137,979 138,979 139,980 139,981 140,982 141,983 142,983 143,984 143,985 143,986 144,987 145,988 145,989 145,990 146,991 146,992 146,993 147,994 147,995 147,996 148,997 149,998 150,998 151,998 152,999 153,999 154,999 155,1000 156,1000 157,1000 158,1001 159,1001 160,1001 161,1001 162,1000 163,1000 164,999 165,998 166,998 167,999 166,1000 166,1001 165,1002 165,1003 165,1004 164,1005 163,1006 162,1007 161,1008 160,1009 159,1009 158,1010 157,1010 156,1010 155,1011 154,1011 153,1011 152,1011 151,1012 150,1012 149,1012 148,1012 147,1012 146,1012 146,1013 146,1014 145,1015 145,1016 145,1017 144,1018 144,1019 143,1020 143,1021 143,1022 142,1023 142,1024 141,1025 141,1026 141,1027 140,1028 140,1029 139,1030 138,1031 138,1032 137,1033 136,1034 137,1034 138,1035 139,1035 140,1035 141,1036 142,1036 143,1036 144,1037 145,1037 146,1037 147,1038 148,1039 149,1039 150,1040 151,1041 152,1042 153,1043 153,1044 153,1045 154,1046 154,1047 153,1048 152,1048 151,1047 150,1046 149,1045 148,1044 147,1043 146,1043 145,1042 144,1042 143,1041 142,1041 141,1041 140,1040 139,1040 138,1040 137,1039 136,1039 135,1039 134,1038 133,1037 133,1036 133,1035 133,1034 134,1033 135,1032 136,1031 136,1030 137,1029 138,1028 138,1027 137,1028 136,1028 135,1029 134,1030 133,1031 132,1031 131,1030 132,1029 133,1028 134,1027 135,1026 136,1026 137,1025 138,1024 139,1023 140,1022 140,1021 141,1020 140,1021 140,1022 139,1023 138,1024 137,1024 136,1024 135,1024 134,1025 135,1026 134,1027 133,1028 132,1029 131,1029 130,1028 131,1027 132,1026 131,1027 130,1028 129,1028 128,1028 127,1029 127,1030 127,1031 128,1032 128,1033 129,1034 129,1035 130,1036 130,1037 130,1038 131,1039 131,1040 131,1041 132,1042 132,1043 132,1044 133,1045 133,1046 133,1047 134,1048 134,1049 134,1050 134,1051 134,1052 135,1053 135,1054 135,1055 135,1056 135,1057 136,1058 136,1059 136,1060 136,1061 137,1062 137,1063 137,1064 137,1065 137,1066 138,1067 138,1068 138,1069 139,1070 139,1071 139,1072 140,1073 140,1074 141,1075 142,1076 142,1077 143,1078 144,1079 145,1080 146,1081 147,1082 148,1083 149,1084 150,1085 151,1086 152,1086 153,1087 154,1088 155,1088 156,1089 157,1090 158,1090 159,1091 160,1092 161,1092 162,1093 163,1094 164,1095 165,1095 166,1096 167,1097 168,1098 169,1098 170,1098 171,1098 172,1098 173,1098 174,1098 175,1098 176,1098 177,1097 178,1097 179,1097 180,1097 181,1097 182,1097 183,1097 184,1097 185,1097 186,1097 187,1097 188,1097 189,1097 190,1097 191,1097 192,1097 193,1097 194,1097 195,1097 196,1097 197,1097 198,1097 199,1097 200,1097 201,1097 202,1097 203,1097 204,1097 205,1097 206,1097 207,1097 208,1097 209,1097 210,1097 211,1097 212,1097 213,1097 214,1097 215,1097 216,1097 217,1097 218,1097 219,1097 220,1097 221,1097 222,1097 223,1097 224,1097 225,1097 226,1097 227,1097 228,1097 229,1097 230,1097 231,1097 232,1097 233,1097 234,1097 235,1097 236,1097 237,1097 238,1097 239,1097 239,1096 239,1095 239,1094 239,1093 239,1092 239,1091 239,1090 239,1089 239,1088 239,1087 239,1086 239,1085 238,1084 238,1083 239,1082 239,1081 239,1080 238,1079 238,1078 238,1077 238,1076 238,1075 238,1074 238,1073 238,1072 238,1071 238,1070 238,1069 238,1068 238,1067 238,1066 238,1065 238,1064 238,1063 238,1062 238,1061 238,1060 238,1059 238,1058 238,1057 238,1056 238,1055 238,1054 238,1053 238,1052 238,1051 238,1050 238,1049 238,1048 238,1047 238,1046 238,1045 238,1044 238,1043 238,1042 238,1041 238,1040 238,1039 238,1038 238,1037 238,1036 238,1035 238,1034 238,1033 238,1032 238,1031 238,1030 238,1029 238,1028 238,1027 238,1026 238,1025 238,1024 238,1023 238,1022 238,1021 238,1020 238,1019 238,1018 238,1017 238,1016 238,1015 238,1014 238,1013 238,1012 238,1011 238,1010 238,1009 238,1008 238,1007 238,1006 238,1005 238,1004 238,1003 238,1002 238,1001 238,1000 238,999 238,998 238,997 238,996 238,995 238,994 238,993 238,992 238,991 238,990 238,989 238,988 238,987 238,986 238,985 238,984 238,983 238,982 238,981 238,980 238,979 238,978 238,977 238,976 238,975 238,974 238,973 238,972 238,971 238,970 238,969 238,968 238,967 238,966 238,965 238,964 238,963 238,962 238,961 238,960 238,959 238,958 238,957 238,956 238,955 238,954 238,953 238,952 237,952 236,953 235,954 234,954 233,953 234,952 235,951 236,950 236,949 237,948 238,947 238,946 238,945 237,944 238,943 238,942 238,941 237,940 237,939 238,938 238,937 237,936 238,935 238,934 237,935 236,935 235,934 236,933 237,932 238,931 238,930 237,929 237,928 238,927 238,926 237,926 236,927 236,928 235,929 235,930 236,931 236,932 235,933 234,934 234,935 235,934 236,935 236,936 235,937 234,938 235,938 236,939 235,940 234,941 233,942 233,943 232,944 231,945 230,946 229,946 228,945 229,944 229,943 228,944 227,943 227,942 228,941 229,940 229,939 228,940 227,941 226,940 226,939 227,938 228,937 229,936 230,935 229,934 228,933 229,932 229,931 229,930 229,929 228,928 229,927 229,926 229,925 229,924 228,923 229,922 229,921 229,920 228,919 228,918 229,917 228,916 227,915 228,914 228,913 227,912 226,911 226,910 226,909 225,909 224,910 223,910 222,909 223,908 224,907 225,907 225,906 225,905 224,905 223,906 222,906 221,905 222,904 223,903 223,902 222,901 222,900 221,899 220,899 219,899 218,899 218,900 218,901 218,902 219,903 219,904 220,905 220,906 221,907 221,908 221,909 222,909 223,910 222,911 222,912 223,913 224,914 224,915 224,916 224,917 225,917 226,918 225,919 225,920 225,921 226,922 226,923 225,924 225,925 225,926 226,927 225,928 225,929 225,930 226,930 227,931 226,932 225,932 225,933 225,934 225,935 225,936 226,935 227,934 228,935 228,936 227,937 226,938 225,939 225,940 226,940 227,941 226,942 226,943 225,944 226,944 227,945 226,946 225,947 225,948 226,947 227,948 227,949 226,950 225,951 224,951 224,952 224,953 224,954 223,955 224,954 224,953 225,952 226,951 226,950 227,949 228,948 229,947 230,946 231,945 232,945 233,946 234,945 235,944 236,944 237,944 238,945 238,946 238,947 237,948 236,949 235,950 234,951 233,952 232,953 231,954 230,955 229,956 228,957 227,956 226,957 226,958 225,959 225,960 224,961 223,962 222,962 222,963 221,964 220,964 219,965 219,966 218,967 217,968 216,969 216,970 215,971 214,972 213,973 212,974 211,975 210,976 209,977 208,978 207,978 206,979 205,979 204,980 203,980 202,980 201,981 200,981 199,981 198,981 197,981 196,982 195,983 194,984 194,985 193,986 192,987 191,986 191,985 191,984 192,983 193,982 192,983 191,984 190,985 190,986 189,987 188,988 188,989 187,990 186,991 185,991 184,990 185,989 185,988 186,987 187,986 186,987 185,988 184,989 183,988 183,987 184,986 185,985 185,984 186,983 187,982 188,981 187,981 187,982 186,983 185,984 185,985 184,986 183,987 182,988 182,989 181,990 180,991 179,991 178,990 179,989 179,988 180,987 181,986 180,987 179,988 179,989 178,990 177,991 176,992 175,991 174,991 173,990 174,989 174,988 175,987 176,986 176,985 177,984 178,983 178,982 179,981 180,980 181,981 181,982 180,983 181,983 182,984 183,983 184,982 183,983 182,984 181,983 181,982 182,981 183,980 182,979 181,979 180,979 179,978 178,978 177,977 176,977 175,977 174,976 175,975 176,974 177,974 178,974 179,974 180,975 181,975 182,975 183,975 184,976 185,976 186,976 187,976 188,977 189,977 190,977 191,977 192,977 193,977 194,977 195,977 196,977 197,977 198,977 199,977 200,977 201,976 202,976 203,976 204,975 205,975 206,975 207,974 208,973 209,973 210,972 211,971 212,970 213,969 213,968 214,967 215,966 216,965 216,964 217,963 217,962 218,961 218,960 219,959 219,958 220,957 220,956 220,955 220,954 221,953 221,952 221,951 221,950 222,949 222,948 222,947 222,946 222,945 223,944 223,943 223,942 223,941 223,940 223,939 223,938 223,937 223,936 223,935 223,934 223,933 223,932 223,931 223,930 223,929 223,928 223,927 223,926 222,927 221,928 220,929 219,929 218,930 217,930 216,930 215,930 214,930 213,931 212,931 211,931 210,931 209,932 208,932 207,933 206,933 205,933 204,934 203,934 202,934 201,935 200,935 199,936 198,937 197,937 196,937 195,938 194,938 193,939 192,939 191,940 190,940 189,941 188,942 187,942 186,943 185,944 184,944 183,945 182,946 181,947 181,948 180,949 180,950 179,951 179,952 178,953 178,954 177,955 177,956 176,957 176,958 176,959 175,960 174,959 174,958 174,957 174,956 174,955 174,954 175,953 175,952 174,952 174,953 173,954 172,955 172,956 171,957 170,958 170,959 169,960 169,961 169,962 168,963 167,964 167,965 166,966 165,965 164,965 163,965 162,965 161,964 162,963 162,962 161,963 161,964 160,965 159,966 160,965 161,966 161,967 160,968 159,969 158,970 158,971 157,972 156,973 155,974 154,973 154,972 155,971 156,970 155,970 154,971 153,972 152,973 151,974 150,975 149,976 148,975 148,974 147,975 146,974 145,973 144,973 143,974 142,973 142,972 141,972 140,971 140,970 139,970 138,969 138,968 138,967 139,966 140,965 141,964 142,963 143,962 144,963 145,962 146,962 147,961 148,960 149,959 150,958 151,957 151,956 152,955 153,954 154,953 155,952 155,951 156,950 157,949 158,948 157,947 158,946 159,945 159,944 160,943 161,942 162,941 163,940 164,939 165,938 166,937 167,936 167,935 168,934 169,933 170,932 170,931 171,930 172,929 173,928 172,929 171,928 171,927 172,926 173,925 174,924 174,923 173,922 173,921 173,920 172,920 171,919 172,918 172,917 171,916 170,915 171,914 170,914 169,914 168,913 169,912 169,911 168,910 167,909 167,908 166,907 166,906 165,905 165,904 164,903 163,902 163,901 162,901 161,900 161,899 160,900 159,901 158,902 157,901 157,900 158,899 159,898 159,897 158,898 157,897 157,896 156,897 155,896 155,895 154,894 154,893 154,892 153,893 152,892 152,891">
      <metadata tailDirection="" confidence="0.84" linkedToCharacter="" id="UltraEleven_051_balloon_1" tailTip=""></metadata>
    </polygon>
    <polygon points="105,754 105,755 105,756 105,757 105,758 105,759 104,760 104,761 104,762 104,763 104,764 104,765 104,766 103,767 103,768 103,769 103,770 103,771 102,772 102,773 102,774 102,775 102,776 101,777 101,778 101,779 101,780 100,781 100,782 100,783 100,784 99,785 99,786 98,787 98,788 98,789 97,790 96,791 95,791 94,792 93,791 92,791 91,790 90,789 89,788 89,787 89,786 88,785 88,784 88,785 88,786 88,787 88,788 89,789 89,790 89,791 89,792 89,793 89,794 89,795 89,796 90,797 90,798 90,799 90,800 90,801 90,802 90,803 90,804 90,805 90,806 90,807 90,808 90,809 90,810 90,811 90,812 90,813 90,814 90,815 90,816 90,817 90,818 90,819 90,820 90,821 90,822 90,823 90,824 89,825 88,825 87,825 86,824 86,825 86,826 86,827 86,828 87,829 87,830 87,831 87,832 87,833 88,834 88,835 88,836 88,837 88,838 88,839 88,840 88,841 89,842 89,843 89,844 89,845 89,846 89,847 89,848 89,849 89,850 89,851 89,852 89,853 89,854 89,855 88,856 88,857 88,858 88,859 87,860 87,861 86,862 86,863 87,863 88,863 89,864 89,865 89,866 89,867 89,868 89,869 89,870 89,871 88,872 88,873 88,874 87,875 87,876 87,877 87,878 86,879 86,880 85,881 85,882 86,882 87,881 88,881 89,881 90,881 91,882 92,883 92,884 92,885 92,886 92,887 92,888 92,889 92,890 92,891 92,892 92,893 92,894 92,895 92,896 92,897 92,898 92,899 92,900 92,901 92,902 92,903 92,904 92,905 92,906 92,907 91,908 91,909 91,910 91,911 91,912 91,913 91,914 91,915 91,916 91,917 90,918 90,919 90,920 90,921 91,921 91,920 92,919 93,918 94,918 95,918 96,919 97,920 97,921 97,922 97,923 98,924 98,925 98,926 98,927 98,928 98,929 98,930 98,931 98,930 99,929 99,928 100,927 101,926 102,926 103,927 103,928 103,929 104,930 104,931 104,932 104,933 104,934 104,935 105,936 105,937 105,938 105,939 105,940 105,941 106,942 106,943 106,944 106,945 106,946 106,947 106,948 106,949 107,950 107,951 107,952 107,953 107,954 107,955 107,956 107,957 107,958 108,959 107,960 107,961 107,962 107,963 108,964 109,963 109,962 109,961 109,960 110,959 110,958 110,957 111,956 111,955 112,954 112,953 113,952 113,951 114,950 114,949 114,948 115,947 116,946 116,945 117,944 117,943 118,942 118,941 119,940 120,939 120,938 121,937 122,937 123,937 124,937 125,938 126,939 127,940 128,941 128,942 129,943 129,942 129,941 129,940 129,939 129,938 129,937 129,936 130,935 130,934 131,933 132,932 133,931 134,931 135,930 136,930 137,930 138,931 139,931 140,932 141,933 142,934 142,933 142,932 142,931 142,930 142,929 142,928 142,927 142,926 142,925 142,924 143,923 144,922 145,922 146,922 147,923 148,923 149,924 150,925 151,926 151,925 151,924 151,923 150,922 150,921 150,920 149,919 149,918 149,917 149,916 148,915 148,914 148,913 148,912 148,911 149,910 150,910 151,910 152,911 153,911 154,912 155,913 155,912 154,911 154,910 153,909 153,908 152,907 152,906 151,905 151,904 150,903 150,902 150,901 149,900 149,899 148,898 148,897 147,896 147,895 147,894 146,893 146,892 146,891 145,890 145,889 145,888 145,887 145,886 145,885 146,884 146,883 147,882 148,881 149,881 150,881 151,881 151,880 150,879 149,878 148,877 148,876 147,875 146,874 146,873 145,872 144,871 144,870 143,869 143,868 142,867 142,866 141,865 141,864 140,863 140,862 139,861 140,860 140,859 141,858 142,858 143,857 144,857 145,857 146,857 145,856 144,855 143,854 142,853 141,852 141,851 141,850 140,849 140,848 140,847 140,846 141,845 141,844 141,843 142,842 143,841 143,840 144,839 144,838 145,837 145,836 146,835 146,834 147,833 147,832 148,831 149,830 149,829 150,828 150,827 151,826 151,825 152,824 152,823 153,822 152,822 151,823 150,824 149,825 148,826 147,827 146,827 145,828 144,829 143,829 142,830 141,830 140,831 139,831 138,831 137,830 136,829 135,828 135,827 134,826 134,825 135,824 135,823 135,822 136,821 136,820 136,819 136,818 136,817 137,816 137,815 137,814 137,813 138,812 138,811 138,810 139,809 139,808 139,807 140,806 140,805 141,804 141,803 141,802 142,801 142,800 142,799 143,798 143,797 143,796 144,795 144,794 145,793 144,794 143,795 142,796 142,797 141,798 140,799 139,800 138,801 137,802 136,802 135,802 134,802 133,801 133,800 133,799 132,798 132,797 132,796 132,795 132,794 133,793 133,792 133,791 133,790 133,789 133,788 133,787 133,786 134,785 134,784 134,783 134,782 134,781 135,780 135,779 135,778 135,777 136,776 136,775 136,774 136,773 137,772 137,771 137,772 136,773 136,774 135,775 135,776 134,777 133,778 133,779 133,780 132,781 131,782 131,783 130,784 129,785 128,786 127,786 126,786 125,785 125,784 124,783 124,782 124,781 124,780 124,779 124,778 124,777 124,776 124,775 124,774 124,773 124,772 124,771 124,770 124,769 124,768 124,767 124,766 124,765 124,766 124,767 123,768 123,769 122,770 122,771 122,772 121,773 121,774 120,775 120,776 119,777 119,778 119,779 118,780 118,781 117,782 116,783 115,783 114,782 113,782 112,781 111,780 111,779 111,778 110,777 110,776 110,775 109,774 109,773 109,772 109,771 108,770 108,769 108,768 108,767 108,766 107,765 107,764 107,763 106,762 106,761 106,760 106,759 105,758 105,757 105,756 105,755 105,754">
      <metadata tailDirection="" confidence="0.91" linkedToCharacter="" id="UltraEleven_051_balloon_2" tailTip=""></metadata>
    </polygon>
    <polygon points="105,454 104,455 103,455 102,455 101,455 100,456 99,456 98,457 97,457 96,458 95,458 94,459 93,459 92,460 91,461 90,461 89,462 88,462 87,463 86,464 85,464 84,465 83,466 82,467 81,467 80,468 79,469 79,470 79,471 79,472 79,473 79,474 79,475 79,476 79,477 79,478 79,479 79,480 79,481 79,482 79,483 79,484 79,485 79,486 79,487 79,488 79,489 79,490 79,491 79,492 79,493 79,494 79,495 79,496 79,497 79,498 79,499 79,500 79,501 79,502 79,503 79,504 79,505 79,506 79,507 79,508 79,509 79,510 79,511 79,512 79,513 79,514 79,515 79,516 79,517 79,518 79,519 79,520 79,521 79,522 79,523 79,524 79,525 79,526 79,527 79,528 79,529 79,530 79,531 79,532 79,533 79,534 79,535 79,536 79,537 79,538 79,539 79,540 79,541 79,542 79,543 79,544 79,545 79,546 79,547 79,548 79,549 79,550 79,551 79,552 79,553 79,554 79,555 79,556 79,557 79,558 79,559 79,560 79,561 79,562 79,563 79,564 79,565 79,566 80,567 80,568 81,569 82,570 83,571 83,572 84,573 85,574 86,575 87,576 88,577 89,577 90,578 91,579 92,580 93,581 94,581 95,582 96,582 97,582 98,582 99,582 100,582 101,582 102,582 103,582 104,582 105,582 106,582 107,582 108,582 109,582 110,582 111,582 112,581 113,582 114,582 115,582 116,582 117,581 118,581 119,582 120,582 121,582 122,582 123,582 124,581 125,582 126,582 127,582 128,581 129,581 130,581 131,582 132,581 133,581 134,581 135,581 136,581 137,581 138,581 139,581 140,581 141,581 142,581 143,581 144,581 145,581 146,582 147,582 148,582 149,582 150,582 151,582 152,582 153,582 154,581 155,581 156,581 157,581 158,581 159,581 160,580 161,580 162,579 163,579 164,578 165,577 166,576 167,576 168,575 169,574 170,573 171,572 172,571 173,570 174,569 175,568 176,568 177,567 178,566 179,566 180,565 181,564 182,563 183,562 183,561 184,560 184,559 184,558 185,557 185,556 185,555 186,554 186,553 186,552 186,551 187,550 188,550 189,549 190,549 191,548 192,547 193,546 192,546 191,547 190,547 189,548 188,548 187,548 186,548 185,548 184,547 184,546 184,545 184,544 184,543 184,542 184,541 184,540 184,539 184,538 184,537 184,536 185,535 184,534 184,533 185,532 185,531 184,530 184,529 184,528 184,527 185,526 184,525 184,524 184,523 184,522 184,521 184,520 184,519 184,518 184,517 184,516 184,515 184,514 184,513 184,512 184,511 183,510 183,509 183,508 183,507 183,506 183,505 183,504 183,503 183,502 183,501 183,500 182,499 182,498 182,497 182,496 182,495 182,494 181,493 180,492 179,491 178,490 178,489 177,488 176,487 175,486 175,485 174,484 173,483 172,482 171,481 170,480 169,479 168,478 167,477 166,476 165,475 164,474 163,473 163,472 162,471 161,470 160,469 159,468 158,467 157,466 157,465 156,465 155,465 154,464 153,464 152,463 151,463 150,463 149,462 148,462 147,462 146,461 145,461 144,460 143,460 142,460 141,459 140,459 139,459 138,458 137,458 136,458 135,457 134,457 133,457 132,457 131,456 130,456 129,456 128,456 127,456 126,455 125,455 124,455 123,455 122,455 121,455 120,455 119,455 118,455 117,454 116,454 115,454 114,454 113,454 112,454 111,454 110,454 109,454 108,454 107,454 106,454 105,454">
      <metadata tailDirection="" confidence="0.92" linkedToCharacter="" id="UltraEleven_051_balloon_3" tailTip=""></metadata>
    </polygon>
    <polygon points="172,380 171,381 170,381 169,382 168,383 167,383 166,384 165,385 164,386 163,387 162,387 161,388 160,389 159,390 158,391 157,391 156,392 155,393 154,394 153,395 152,395 151,396 150,397 149,398 148,399 147,400 147,401 147,402 146,403 146,404 146,405 146,406 145,407 145,408 145,409 145,410 145,411 145,412 145,413 144,414 144,415 144,416 144,417 144,418 144,419 144,420 144,421 144,422 143,423 143,424 143,425 143,426 143,427 143,428 143,429 143,430 143,431 143,432 143,433 143,434 143,435 143,436 143,437 143,438 142,439 142,440 142,441 142,442 142,443 142,444 142,445 142,446 143,447 143,448 143,449 143,450 143,451 143,452 143,453 143,454 142,455 143,455 144,455 145,456 146,456 147,457 148,457 149,457 150,458 151,458 152,459 153,459 154,459 155,460 156,460 157,461 158,461 159,462 160,463 161,464 162,465 163,466 163,467 164,468 165,469 166,470 167,471 168,472 169,473 170,474 170,475 171,476 172,476 173,477 174,478 174,479 175,480 176,481 177,482 178,483 178,484 179,485 180,486 181,486 182,486 183,486 184,486 185,486 186,487 187,487 188,487 189,487 190,488 191,488 192,488 193,488 194,488 195,489 196,489 197,489 198,489 199,490 200,490 201,490 202,490 203,489 204,489 205,489 206,489 207,489 208,489 209,488 210,488 211,488 212,488 213,487 214,487 215,486 216,486 217,486 218,486 219,485 220,485 221,485 222,485 223,485 224,486 225,486 224,485 224,484 225,483 226,483 227,482 228,482 229,481 230,480 231,480 232,479 233,479 234,478 235,478 236,477 237,477 238,477 239,476 240,475 241,475 241,474 242,473 242,472 243,471 243,470 243,469 244,468 244,467 245,466 244,465 244,464 244,463 244,462 245,461 245,460 245,459 245,458 245,457 245,456 245,455 245,454 246,453 246,452 246,451 246,450 246,449 246,448 246,447 246,446 246,445 246,444 246,443 247,442 247,441 247,440 247,439 247,438 247,437 247,436 247,435 247,434 247,433 247,432 247,431 247,430 248,429 248,428 248,427 248,426 248,425 248,424 248,423 248,422 248,421 248,420 248,419 248,418 248,417 248,416 248,415 248,414 248,413 248,412 248,411 248,410 247,409 247,408 247,407 247,406 247,405 247,404 247,403 246,402 246,401 246,400 245,399 244,398 244,397 243,396 242,396 241,395 240,394 239,393 238,392 237,391 236,390 235,389 234,389 233,388 232,387 231,386 230,385 229,385 228,384 227,383 226,382 225,382 224,381 223,380 222,380 221,380 220,380 219,380 218,380 217,380 216,380 215,380 214,380 213,380 212,380 211,380 210,380 209,380 208,380 207,380 206,380 205,380 204,380 203,380 202,380 201,380 200,380 199,380 198,380 197,380 196,380 195,380 194,380 193,380 192,380 191,380 190,380 189,380 188,380 187,380 186,380 185,380 184,380 183,380 182,380 181,380 180,380 179,380 178,380 177,380 176,380 175,380 174,380 173,380 172,380">
      <metadata tailDirection="" confidence="0.86" linkedToCharacter="" id="UltraEleven_051_balloon_4" tailTip=""></metadata>
    </polygon>
    <polygon points="100,380 99,381 98,381 97,381 96,381 95,381 94,381 93,381 92,381 91,381 90,381 89,381 88,381 87,381 86,381 85,381 84,381 83,381 82,381 81,381 80,381 79,381 79,382 79,383 79,384 79,385 79,386 79,387 79,388 79,389 79,390 79,391 79,392 79,393 79,394 79,395 79,396 79,397 79,398 79,399 79,400 79,401 79,402 79,403 79,404 79,405 79,406 79,407 79,408 79,409 79,410 79,411 79,412 79,413 79,414 79,415 79,416 79,417 79,418 79,419 79,420 79,421 79,422 79,423 79,424 79,425 79,426 79,427 79,428 79,429 79,430 79,431 79,432 79,433 79,434 79,435 79,436 79,437 79,438 79,439 79,440 79,441 79,442 79,443 79,444 79,445 79,446 79,447 79,448 79,449 79,450 79,451 79,452 79,453 79,454 79,455 79,456 79,457 79,458 79,459 79,460 79,461 79,462 79,463 79,464 79,465 80,465 81,464 82,463 83,462 84,461 85,460 86,460 87,459 88,459 89,458 90,457 91,457 92,456 93,456 94,455 95,455 96,454 97,453 98,453 99,452 100,452 101,451 102,451 103,450 104,449 105,448 106,449 107,450 108,450 109,450 110,450 111,450 112,450 113,450 114,450 115,450 116,450 117,450 118,450 119,450 120,451 121,451 122,451 123,451 124,451 125,451 126,451 127,451 128,451 129,452 130,452 131,452 132,452 133,452 134,453 135,453 136,453 137,453 138,454 139,454 140,454 139,453 139,452 139,451 139,450 139,449 139,448 138,447 139,446 138,445 138,444 139,443 139,442 138,441 138,440 138,439 139,438 139,437 139,436 139,435 139,434 139,433 139,432 139,431 139,430 139,429 139,428 139,427 139,426 139,425 139,424 140,423 140,422 140,421 140,420 140,419 140,418 140,417 140,416 141,415 141,414 141,413 141,412 141,411 141,410 141,409 142,408 142,407 142,406 142,405 143,404 143,403 143,402 144,401 144,400 144,399 145,398 146,397 147,396 148,395 149,394 150,393 151,392 152,391 153,390 154,390 155,389 156,388 157,387 158,386 159,386 160,385 161,384 162,383 163,382 164,382 165,381 166,380 167,380 166,380 165,380 164,380 163,380 162,380 161,380 160,380 159,380 158,380 157,380 156,380 155,380 154,380 153,380 152,380 151,380 150,380 149,380 148,380 147,380 146,380 145,380 144,380 143,380 142,380 141,380 140,380 139,380 138,380 137,380 136,380 135,380 134,380 133,380 132,380 131,380 130,380 129,380 128,380 127,380 126,380 125,380 124,380 123,380 122,380 121,380 120,380 119,380 118,380 117,380 116,380 115,380 114,380 113,380 112,380 111,380 110,380 109,380 108,380 107,380 106,380 105,380 104,381 103,380 102,380 101,380 100,380">
      <metadata tailDirection="" confidence="0.98" linkedToCharacter="" id="UltraEleven_051_balloon_5" tailTip=""></metadata>
    </polygon>
    <polygon points="331,113 330,114 329,114 328,114 327,114 326,115 325,115 324,115 323,115 322,115 321,115 320,116 319,116 318,117 317,118 316,119 316,120 315,121 315,122 314,123 313,124 313,125 312,126 311,127 311,128 310,129 310,130 309,131 309,132 309,133 308,134 308,135 307,136 307,137 307,138 306,139 306,140 306,141 305,142 305,143 305,144 304,145 304,146 304,147 304,148 304,149 304,150 304,151 304,152 304,153 304,154 304,155 304,156 304,157 304,158 303,159 303,160 303,161 304,162 303,163 303,164 304,165 304,166 304,167 304,168 304,169 304,170 304,171 304,172 304,173 304,174 304,175 305,176 305,177 305,178 305,179 305,180 305,181 306,182 307,183 307,184 307,185 307,186 307,187 306,188 305,189 304,190 305,190 306,191 306,192 306,193 307,193 308,194 308,195 308,196 308,197 308,198 309,199 309,200 309,201 310,202 310,203 310,204 311,204 312,205 313,205 314,206 315,207 316,208 317,208 318,209 319,210 320,211 321,211 322,212 323,213 324,213 325,214 326,214 327,214 328,213 329,213 330,213 331,213 332,212 333,212 334,212 335,212 336,211 337,211 338,211 339,211 340,210 341,210 342,209 343,208 344,207 345,206 345,205 346,204 347,203 348,202 348,201 349,200 350,199 350,198 351,197 352,196 352,195 353,194 353,193 353,192 353,191 353,190 353,189 353,188 353,187 353,186 353,185 353,184 353,183 353,182 353,181 353,180 354,179 354,178 354,177 354,176 354,175 354,174 354,173 354,172 354,171 354,170 354,169 354,168 354,167 354,166 354,165 354,164 354,163 354,162 354,161 354,160 354,159 354,158 354,157 354,156 354,155 354,154 354,153 354,152 354,151 354,150 354,149 354,148 354,147 354,146 354,145 354,144 354,143 353,142 353,141 353,140 353,139 353,138 354,137 354,136 353,135 353,134 353,133 352,132 352,131 351,130 351,129 351,128 350,127 350,126 349,125 349,124 348,123 348,122 347,121 346,120 346,119 345,118 345,117 344,116 343,115 342,114 341,113 340,113 339,113 338,113 337,113 336,113 335,113 334,113 333,113 332,113 331,113">
      <metadata tailDirection="" confidence="0.99" linkedToCharacter="" id="UltraEleven_051_balloon_6" tailTip=""></metadata>
    </polygon>
  </svg>
</svg>
