<?xml version="1.0" encoding="UTF-8" standalone="no"?>
<svg width="827" xmlns="http://www.w3.org/2000/svg" version="1.0" height="1170">
  <title>UltraEleven_184</title>
  <svg contentScriptType="text/ecmascript" zoomAndPan="magnify" contentStyleType="text/css" class="Page" preserveAspectRatio="xMidYMid meet" version="1.0">
    <image xmlns:xlink="http://www.w3.org/1999/xlink" x="0" y="0" width="827" height="1170" xlink:href="./../../dataset_Manga109/UltraEleven/UltraEleven_184.jpg" xlink:type="simple" xlink:actuate="onLoad" preserveAspectRatio="xMidYMid meet" xlink:show="embed"/>
  </svg>
  <style type="text/css" xml:space="preserve">
        * { stroke-linejoin: round; }
        .Unclassified   { fill: orange; stroke: none;   opacity: 1.0; visibility: hidden; }
        .Noise          { fill: pink;   stroke: none;   opacity: 0.2; visibility: hidden; }
        .Panel          { fill: none;   stroke: red;    stroke-width:3; opacity: 0.5; visibility: visible; image-rendering: optimizeSpeed; }
        .Line           { fill: green;  stroke: none;   opacity: 0.5; visibility: visible; image-rendering: optimizeSpeed; }
        .TextArea       { fill: grey;   stroke: none;   opacity: 0.2; visibility: visible; image-rendering: optimizeSpeed; }
        .Balloon        { fill: cyan;   stroke: none;   opacity: 0.5; visibility: visible; image-rendering: optimizeSpeed; }
        .Letter         { fill: blue;   stroke: none;   opacity: 0.2; visibility: hidden; }
        .Object, .Character, .Face  { fill: yellow; stroke: none;   opacity: 0.5; visibility: visible; image-rendering: optimizeSpeed; }
        .Page           { fill: white;  stroke: none;    opacity: 0.5; visibility: visible; }
        .linkSBSC { fill: blue; stroke: none; opacity: 1.0; visibility: visible; }
        polygon:hover { opacity:1.0; stroke:red; }
</style>
  <svg xmlns="http://www.w3.org/2000/svg" contentScriptType="text/ecmascript" zoomAndPan="magnify" contentStyleType="text/css" class="Balloon" preserveAspectRatio="xMidYMid meet" version="1.0">
    <polygon points="239,703 238,704 237,704 236,704 235,704 234,704 233,704 232,704 231,704 230,704 229,704 228,704 227,704 226,705 225,705 224,705 223,705 222,705 221,705 220,705 219,706 218,706 217,706 216,706 215,707 214,707 213,708 212,708 211,709 210,710 209,710 208,710 207,711 206,712 205,713 204,714 204,715 203,716 202,717 202,718 202,719 201,720 201,721 201,722 200,723 200,724 199,725 199,726 199,727 198,728 198,729 198,730 197,731 197,732 196,733 196,734 196,735 195,736 195,737 195,738 194,739 193,739 192,738 191,737 191,736 190,735 189,734 189,733 188,732 188,731 187,730 186,729 186,728 185,727 185,726 184,725 184,724 183,723 183,722 182,721 181,720 181,719 180,718 179,717 178,716 177,715 176,714 175,713 175,712 174,711 173,710 172,709 171,708 170,707 169,706 168,706 167,705 166,705 165,705 164,704 163,704 162,704 161,704 160,704 159,704 158,704 157,704 156,704 155,705 154,705 153,705 152,705 151,705 150,705 149,706 148,706 147,706 146,706 145,706 144,706 143,706 142,706 141,706 140,706 139,706 138,707 137,707 136,707 135,707 134,707 133,707 132,707 131,707 130,708 129,708 128,708 127,708 126,708 125,708 124,708 123,709 122,709 121,709 120,709 119,710 118,710 117,711 116,711 115,711 114,711 113,712 112,712 111,713 110,713 109,714 108,715 107,716 107,717 106,718 105,719 104,720 103,721 102,722 102,723 101,724 100,725 100,726 99,727 98,728 97,729 97,730 96,731 95,732 95,733 94,734 93,735 93,736 92,737 91,738 91,739 90,740 90,741 89,742 88,743 88,744 87,745 86,746 86,747 85,748 85,749 84,750 84,751 83,752 83,753 83,754 82,755 82,756 82,757 82,758 81,759 81,760 80,761 80,762 80,763 81,764 81,765 81,766 81,767 81,768 81,769 82,770 82,771 82,772 82,773 82,774 82,775 82,776 82,777 83,778 83,779 83,780 83,781 83,782 83,783 84,784 84,785 84,786 85,787 85,788 85,789 85,790 86,791 86,792 86,793 86,794 86,795 87,796 87,797 87,798 87,799 87,800 87,801 87,802 88,803 88,804 88,805 88,806 88,807 89,808 89,809 90,810 90,811 90,812 91,813 91,814 92,815 92,816 93,817 94,817 95,818 96,818 97,818 98,818 99,818 100,818 101,819 102,819 103,819 104,819 105,819 106,820 107,820 108,820 109,820 110,821 111,821 112,822 113,823 114,824 115,825 116,826 116,827 116,826 116,825 117,824 118,824 119,824 120,824 121,825 122,826 123,827 124,828 124,827 125,826 126,825 127,825 128,826 129,827 130,826 130,825 131,824 132,823 133,823 134,822 135,822 136,822 137,822 138,822 139,822 140,822 141,822 142,822 143,822 144,822 145,822 146,822 147,823 148,823 149,823 150,823 151,824 152,824 153,824 154,825 155,825 156,825 157,825 158,826 159,826 160,826 161,827 162,827 163,827 164,827 165,827 166,827 167,826 168,826 169,825 170,824 171,824 172,823 173,822 174,821 175,821 176,820 177,819 178,818 179,817 180,816 181,815 182,814 183,813 183,812 184,811 185,810 186,809 187,808 188,807 189,806 190,805 191,804 192,805 193,806 194,807 194,808 195,809 196,810 196,811 197,812 198,813 199,814 200,815 201,816 202,817 203,817 204,818 205,819 206,820 207,821 208,822 209,822 210,823 211,824 212,824 213,825 214,825 215,825 216,825 217,825 218,825 219,825 220,825 221,825 222,825 223,825 224,825 225,825 226,825 227,825 228,825 229,825 230,825 231,825 232,824 233,824 234,824 235,824 236,824 237,825 238,825 239,826 240,826 241,827 242,828 243,829 244,830 244,829 244,828 245,827 246,826 247,826 248,826 249,826 250,827 251,828 252,829 252,828 252,827 252,826 253,825 254,824 255,823 256,822 257,822 258,822 259,822 260,823 261,823 262,822 263,822 264,822 265,822 266,822 267,822 268,822 269,822 270,822 271,822 272,822 273,822 274,822 275,822 276,821 277,821 278,821 279,821 280,821 281,821 282,821 283,820 284,820 285,820 286,819 287,819 288,819 289,818 290,818 291,817 292,816 293,815 294,814 295,813 296,812 296,811 297,810 298,809 298,808 299,807 299,806 300,805 300,804 300,803 301,802 301,801 301,800 301,799 301,798 302,797 302,796 302,795 302,794 302,793 303,792 303,791 303,790 303,789 303,788 303,787 304,786 304,785 304,784 304,783 304,782 304,781 305,780 305,779 305,778 305,777 305,776 305,775 305,774 305,773 305,772 305,771 305,770 305,769 305,768 304,767 304,766 304,765 304,764 304,763 304,762 303,761 303,760 303,759 303,758 302,757 302,756 302,755 301,754 301,753 301,752 300,751 300,750 300,749 299,748 299,747 299,746 298,745 298,744 298,743 298,742 297,741 297,740 297,739 296,738 296,737 296,736 295,735 295,734 294,733 294,732 293,731 293,730 292,729 292,728 292,727 291,726 290,725 290,724 289,723 289,722 288,721 287,720 287,719 286,718 286,717 285,716 284,715 284,714 283,713 282,712 282,711 281,710 280,709 279,708 278,707 277,706 276,705 275,704 274,704 273,704 272,703 271,703 270,703 269,703 268,703 267,703 266,703 265,703 264,703 263,703 262,703 261,703 260,703 259,703 258,703 257,703 256,703 255,703 254,703 253,703 252,703 251,703 250,703 249,703 248,703 247,703 246,703 245,703 244,703 243,703 242,703 241,703 240,703 239,703">
      <metadata tailDirection="" confidence="0.87" linkedToCharacter="" id="UltraEleven_184_balloon_0" tailTip=""></metadata>
    </polygon>
  </svg>
</svg>
