<?xml version="1.0" encoding="UTF-8" standalone="no"?>
<svg width="827" xmlns="http://www.w3.org/2000/svg" version="1.0" height="1170">
  <title>UltraEleven_191</title>
  <svg contentScriptType="text/ecmascript" zoomAndPan="magnify" contentStyleType="text/css" class="Page" preserveAspectRatio="xMidYMid meet" version="1.0">
    <image xmlns:xlink="http://www.w3.org/1999/xlink" x="0" y="0" width="827" height="1170" xlink:href="./../../dataset_Manga109/UltraEleven/UltraEleven_191.jpg" xlink:type="simple" xlink:actuate="onLoad" preserveAspectRatio="xMidYMid meet" xlink:show="embed"/>
  </svg>
  <style type="text/css" xml:space="preserve">
        * { stroke-linejoin: round; }
        .Unclassified   { fill: orange; stroke: none;   opacity: 1.0; visibility: hidden; }
        .Noise          { fill: pink;   stroke: none;   opacity: 0.2; visibility: hidden; }
        .Panel          { fill: none;   stroke: red;    stroke-width:3; opacity: 0.5; visibility: visible; image-rendering: optimizeSpeed; }
        .Line           { fill: green;  stroke: none;   opacity: 0.5; visibility: visible; image-rendering: optimizeSpeed; }
        .TextArea       { fill: grey;   stroke: none;   opacity: 0.2; visibility: visible; image-rendering: optimizeSpeed; }
        .Balloon        { fill: cyan;   stroke: none;   opacity: 0.5; visibility: visible; image-rendering: optimizeSpeed; }
        .Letter         { fill: blue;   stroke: none;   opacity: 0.2; visibility: hidden; }
        .Object, .Character, .Face  { fill: yellow; stroke: none;   opacity: 0.5; visibility: visible; image-rendering: optimizeSpeed; }
        .Page           { fill: white;  stroke: none;    opacity: 0.5; visibility: visible; }
        .linkSBSC { fill: blue; stroke: none; opacity: 1.0; visibility: visible; }
        polygon:hover { opacity:1.0; stroke:red; }
</style>
  <svg xmlns="http://www.w3.org/2000/svg" contentScriptType="text/ecmascript" zoomAndPan="magnify" contentStyleType="text/css" class="Balloon" preserveAspectRatio="xMidYMid meet" version="1.0">
    <polygon points="234,803 233,804 232,804 231,805 230,805 229,806 228,806 227,807 226,807 225,808 224,808 223,809 222,809 221,810 220,810 219,811 218,812 217,812 216,813 215,813 214,814 213,815 212,816 211,816 210,817 209,818 208,818 207,819 206,820 205,821 204,821 203,822 202,823 201,824 200,825 199,826 199,827 198,828 197,829 196,830 195,831 195,832 194,833 194,834 193,835 193,836 193,837 192,838 192,839 192,840 191,841 191,842 191,843 190,844 190,845 190,846 189,847 189,848 189,849 188,850 188,851 188,852 188,853 188,854 188,855 187,856 187,857 187,858 187,859 186,860 186,861 186,862 186,863 185,864 185,865 185,866 185,867 185,868 184,869 184,870 184,871 183,872 183,873 183,874 183,875 183,876 182,877 182,878 182,879 182,880 182,881 182,882 181,883 181,884 181,885 181,886 181,887 181,888 181,889 181,890 181,891 181,892 181,893 181,894 181,895 181,896 181,897 181,898 181,899 181,900 181,901 181,902 181,903 181,904 181,905 181,906 181,907 182,908 182,909 182,910 182,911 182,912 182,913 182,914 182,915 182,916 182,917 183,918 183,919 183,920 183,921 183,922 184,923 184,924 184,925 184,926 184,927 184,928 184,929 184,930 185,931 185,932 185,933 185,934 186,935 186,936 186,937 186,938 186,939 187,940 187,941 187,942 187,943 187,944 187,945 188,946 188,947 188,948 188,949 187,950 186,950 185,949 184,949 183,948 182,948 181,947 180,946 179,945 178,945 177,944 176,944 175,943 174,943 173,942 172,942 171,941 170,941 169,940 168,940 167,939 166,939 165,938 164,938 163,938 162,938 161,937 160,937 159,937 158,937 157,937 156,937 155,937 154,937 153,937 152,937 151,937 150,937 149,937 148,937 147,938 146,938 145,938 144,938 143,938 142,938 141,938 140,939 139,939 138,939 137,939 136,939 135,939 134,939 133,940 132,940 131,940 130,940 129,940 128,940 127,941 126,941 125,941 124,941 123,942 122,942 121,942 120,942 119,942 118,942 117,943 116,943 115,943 114,943 113,943 112,943 111,944 110,944 109,944 108,945 107,945 106,946 105,947 104,948 103,949 102,950 101,951 100,952 99,953 98,954 98,955 97,956 96,957 95,958 94,959 94,960 93,961 92,962 91,963 91,964 90,965 89,966 88,967 88,968 87,969 86,970 86,971 85,972 84,973 84,974 83,975 82,976 82,977 81,978 81,979 80,980 80,981 79,982 78,983 78,984 78,985 77,986 77,987 77,988 76,989 76,990 76,991 76,992 76,993 76,994 76,995 76,996 76,997 76,998 76,999 76,1000 76,1001 76,1002 76,1003 76,1004 76,1005 76,1006 76,1007 76,1008 76,1009 76,1010 76,1011 76,1012 76,1013 76,1014 76,1015 76,1016 76,1017 76,1018 76,1019 76,1020 76,1021 76,1022 76,1023 76,1024 76,1025 76,1026 76,1027 76,1028 76,1029 76,1030 76,1031 76,1032 76,1033 76,1034 76,1035 76,1036 76,1037 76,1038 76,1039 76,1040 76,1041 76,1042 76,1043 76,1044 76,1045 76,1046 76,1047 76,1048 76,1049 76,1050 76,1051 76,1052 76,1053 76,1054 76,1055 76,1056 76,1057 76,1058 76,1059 76,1060 76,1061 76,1062 76,1063 76,1064 76,1065 76,1066 76,1067 76,1068 76,1069 76,1070 76,1071 76,1072 76,1073 76,1074 76,1075 76,1076 76,1077 76,1078 76,1079 76,1080 76,1081 76,1082 76,1083 76,1084 76,1085 76,1086 76,1087 76,1088 76,1089 76,1090 76,1091 76,1092 77,1093 77,1094 78,1095 78,1096 79,1097 80,1098 80,1099 81,1100 81,1101 82,1102 83,1103 83,1104 84,1105 84,1106 85,1107 86,1108 87,1109 87,1110 88,1111 89,1112 90,1113 90,1114 91,1115 92,1116 93,1117 94,1118 95,1119 96,1120 97,1120 98,1121 99,1121 100,1122 101,1122 102,1123 103,1123 104,1124 105,1124 106,1125 107,1125 108,1125 109,1126 110,1126 111,1127 112,1127 113,1127 114,1127 115,1128 116,1128 117,1128 118,1129 119,1129 120,1129 121,1129 122,1130 123,1130 124,1130 125,1130 126,1131 127,1131 128,1131 129,1131 130,1132 131,1132 132,1132 133,1133 134,1133 135,1133 136,1134 137,1134 138,1134 139,1134 140,1134 141,1135 142,1135 143,1135 144,1135 145,1135 146,1135 147,1135 148,1135 149,1135 150,1135 151,1135 152,1135 153,1135 154,1135 155,1135 156,1134 157,1134 158,1134 159,1133 160,1133 161,1133 162,1132 163,1132 164,1131 165,1131 166,1131 167,1130 168,1130 169,1130 170,1129 171,1129 172,1128 173,1128 174,1127 175,1127 176,1126 177,1126 178,1125 179,1125 180,1124 181,1124 182,1123 183,1123 184,1122 185,1122 186,1121 187,1121 188,1120 189,1119 190,1119 191,1118 192,1117 193,1117 194,1116 195,1115 196,1114 197,1114 198,1113 199,1112 200,1112 201,1111 202,1110 203,1109 204,1108 205,1107 205,1106 206,1105 207,1104 207,1103 208,1102 208,1101 209,1100 209,1099 210,1098 210,1097 211,1096 211,1095 211,1094 212,1093 212,1092 213,1091 213,1090 213,1089 214,1088 214,1087 214,1086 215,1085 215,1084 215,1083 216,1082 216,1081 216,1080 217,1079 217,1078 218,1077 218,1076 218,1075 218,1074 219,1073 219,1072 219,1071 220,1070 220,1069 220,1068 220,1067 220,1066 220,1065 221,1064 221,1063 221,1062 221,1061 221,1060 221,1059 221,1058 221,1057 222,1056 222,1055 222,1054 222,1053 222,1052 222,1051 222,1050 222,1049 223,1048 223,1047 223,1046 223,1045 223,1044 223,1043 223,1042 223,1041 223,1040 223,1039 223,1038 223,1037 223,1036 223,1035 223,1034 223,1033 223,1032 223,1031 223,1030 223,1029 223,1028 223,1027 223,1026 223,1025 223,1024 223,1023 223,1022 223,1021 222,1020 222,1019 222,1018 222,1017 222,1016 222,1015 221,1014 221,1013 221,1012 220,1011 220,1010 219,1009 219,1008 219,1007 218,1006 218,1005 217,1004 217,1003 216,1002 216,1001 216,1000 215,999 215,998 214,997 214,996 213,995 213,994 212,993 212,992 212,991 211,990 210,989 210,988 210,987 210,986 211,985 212,985 213,985 214,985 215,986 216,986 217,987 218,987 219,988 220,988 221,989 222,989 223,990 224,990 225,991 226,991 227,992 228,992 229,992 230,993 231,993 232,994 233,994 234,994 235,995 236,995 237,995 238,995 239,995 240,995 241,995 242,995 243,995 244,996 245,996 246,996 247,996 248,996 249,996 250,996 251,996 252,995 253,995 254,995 255,995 256,995 257,995 258,995 259,995 260,994 261,994 262,994 263,994 264,994 265,994 266,993 267,993 268,993 269,993 270,993 271,992 272,992 273,992 274,992 275,991 276,991 277,991 278,990 279,990 280,990 281,989 282,989 283,988 284,987 285,987 286,986 287,985 288,984 289,983 290,982 291,981 292,980 293,979 294,978 295,977 296,976 297,975 297,974 298,973 299,972 300,971 300,970 301,969 302,968 303,967 303,966 304,965 304,964 305,963 305,962 306,961 306,960 307,959 307,958 307,957 308,956 308,955 309,954 309,953 309,952 310,951 311,950 311,949 311,948 311,947 311,946 311,945 311,944 311,943 311,942 311,941 311,940 311,939 311,938 311,937 311,936 311,935 311,934 311,933 311,932 311,931 310,930 311,929 311,928 311,927 311,926 311,925 311,924 311,923 311,922 311,921 311,920 311,919 311,918 311,917 311,916 311,915 311,914 311,913 311,912 311,911 311,910 311,909 311,908 311,907 311,906 311,905 311,904 311,903 311,902 311,901 311,900 311,899 311,898 311,897 311,896 311,895 311,894 311,893 311,892 311,891 311,890 311,889 311,888 311,887 311,886 311,885 311,884 311,883 311,882 311,881 311,880 311,879 311,878 311,877 311,876 311,875 311,874 311,873 311,872 311,871 311,870 311,869 311,868 311,867 311,866 311,865 311,864 311,863 311,862 311,861 311,860 311,859 311,858 311,857 311,856 311,855 311,854 311,853 311,852 311,851 311,850 311,849 311,848 311,847 311,846 311,845 311,844 311,843 311,842 311,841 311,840 311,839 311,838 311,837 311,836 311,835 311,834 311,833 311,832 311,831 311,830 311,829 311,828 311,827 311,826 311,825 311,824 311,823 311,822 311,821 311,820 311,819 311,818 311,817 311,816 311,815 311,814 311,813 311,812 311,811 311,810 311,809 310,808 310,807 310,806 310,805 311,804 311,803 310,803 309,803 308,803 307,803 306,803 305,803 304,803 303,803 302,803 301,803 300,803 299,803 298,803 297,803 296,803 295,803 294,803 293,803 292,803 291,803 290,803 289,803 288,803 287,803 286,803 285,803 284,803 283,803 282,803 281,803 280,803 279,803 278,803 277,803 276,803 275,803 274,803 273,803 272,803 271,803 270,803 269,803 268,803 267,803 266,803 265,803 264,803 263,803 262,803 261,803 260,803 259,803 258,803 257,803 256,803 255,803 254,803 253,803 252,803 251,803 250,803 249,803 248,803 247,803 246,803 245,803 244,803 243,803 242,803 241,803 240,803 239,803 238,803 237,803 236,803 235,803 234,803">
      <metadata tailDirection="" confidence="0.88" linkedToCharacter="" id="UltraEleven_191_balloon_0" tailTip=""></metadata>
    </polygon>
    <polygon points="349,707 348,708 347,708 346,708 345,708 344,708 343,709 342,709 341,709 340,710 339,710 338,711 337,712 336,713 335,714 334,714 333,715 333,716 332,717 331,718 330,719 329,720 328,721 327,722 327,723 326,724 325,725 324,726 323,727 322,728 322,729 322,730 322,731 322,732 322,733 322,734 322,735 322,736 322,737 322,738 322,739 322,740 322,741 322,742 322,743 322,744 322,745 322,746 322,747 322,748 322,749 322,750 322,751 322,752 322,753 322,754 322,755 322,756 322,757 322,758 322,759 322,760 322,761 322,762 322,763 322,764 322,765 322,766 322,767 322,768 322,769 322,770 322,771 322,772 322,773 322,774 322,775 322,776 322,777 322,778 322,779 322,780 322,781 322,782 322,783 322,784 322,785 322,786 322,787 322,788 322,789 322,790 322,791 322,792 322,793 322,794 322,795 322,796 322,797 322,798 322,799 322,800 322,801 322,802 322,803 322,804 322,805 322,806 322,807 322,808 322,809 322,810 322,811 322,812 322,813 322,814 322,815 322,816 322,817 322,818 322,819 322,820 322,821 322,822 322,823 322,824 322,825 322,826 322,827 322,828 322,829 322,830 322,831 322,832 322,833 322,834 322,835 322,836 322,837 322,838 322,839 322,840 322,841 322,842 322,843 322,844 322,845 322,846 322,847 322,848 322,849 322,850 322,851 322,852 322,853 322,854 322,855 322,856 322,857 322,858 322,859 323,860 324,861 325,862 325,863 326,864 327,865 328,866 329,867 329,868 330,869 331,869 332,870 333,871 334,872 335,873 336,874 337,874 338,875 339,876 340,877 341,877 342,878 343,878 344,878 345,878 346,878 347,878 348,878 349,878 350,878 351,878 352,878 353,878 354,878 355,878 356,878 357,878 358,878 359,878 360,878 361,878 362,878 363,878 364,878 365,878 366,878 367,878 368,878 369,878 370,878 371,878 372,878 373,878 374,878 375,878 376,878 377,878 378,878 379,878 380,878 381,878 382,878 383,878 384,878 385,878 386,878 387,879 388,879 389,879 390,879 391,878 392,877 393,876 394,875 395,874 396,873 397,872 398,871 399,871 400,871 401,872 402,872 403,873 404,873 405,874 406,875 407,876 408,877 409,877 408,876 408,875 407,874 406,873 406,872 406,871 406,870 407,869 408,869 409,870 408,869 408,868 409,867 410,867 411,867 412,867 413,867 414,868 413,867 413,866 412,865 411,864 411,863 412,862 413,861 414,861 415,861 416,860 417,860 418,860 419,860 420,860 421,859 422,859 423,859 424,858 425,858 426,857 426,856 427,855 428,854 428,853 428,852 429,851 429,850 430,849 431,848 431,847 432,846 432,845 433,844 433,843 433,842 434,841 434,840 434,839 434,838 435,837 435,836 435,835 435,834 435,833 435,832 435,831 435,830 435,829 435,828 435,827 435,826 436,825 436,824 436,823 436,822 436,821 436,820 436,819 436,818 436,817 436,816 436,815 436,814 436,813 436,812 436,811 436,810 436,809 436,808 436,807 436,806 436,805 436,804 436,803 436,802 436,801 437,800 437,799 437,798 437,797 437,796 437,795 437,794 437,793 437,792 437,791 437,790 437,789 437,788 437,787 437,786 436,785 437,784 437,783 437,782 437,781 437,780 437,779 437,778 437,777 437,776 437,775 437,774 437,773 437,772 437,771 437,770 437,769 437,768 437,767 437,766 437,765 437,764 437,763 437,762 437,761 437,760 437,759 437,758 437,757 437,756 437,755 437,754 437,753 437,752 437,751 437,750 437,749 437,748 436,747 435,746 435,745 434,744 433,743 433,742 432,741 431,740 431,739 430,738 429,737 428,736 428,735 427,734 426,733 425,732 425,731 424,730 423,729 423,728 422,727 421,726 420,725 419,724 419,723 418,722 417,721 416,720 416,719 415,718 414,717 414,716 413,715 412,714 411,713 410,712 410,711 409,711 408,710 407,710 406,710 405,710 404,709 403,709 402,709 401,709 400,709 399,709 398,709 397,709 396,709 395,708 394,708 393,708 392,708 391,708 390,708 389,708 388,708 387,708 386,708 385,708 384,708 383,708 382,708 381,708 380,707 379,707 378,707 377,707 376,707 375,707 374,707 373,707 372,707 371,707 370,707 369,707 368,707 367,707 366,707 365,707 364,707 363,707 362,707 361,707 360,707 359,707 358,707 357,707 356,707 355,707 354,707 353,707 352,707 351,707 350,707 349,707">
      <metadata tailDirection="" confidence="0.87" linkedToCharacter="" id="UltraEleven_191_balloon_1" tailTip=""></metadata>
    </polygon>
    <polygon points="397,588 396,589 395,589 394,590 393,591 392,592 391,592 390,593 389,594 388,595 387,596 386,597 385,598 384,599 383,600 382,601 382,602 381,603 381,604 381,605 380,606 380,607 380,608 379,609 379,610 379,611 378,612 378,613 378,614 378,615 378,616 378,617 378,618 377,619 377,620 377,621 377,622 377,623 377,624 377,625 377,626 377,627 377,628 377,629 377,630 377,631 376,632 376,633 376,634 376,635 376,636 376,637 376,638 376,639 376,640 376,641 376,642 376,643 376,644 376,645 376,646 376,647 376,648 376,649 376,650 376,651 376,652 376,653 376,654 376,655 376,656 376,657 377,658 377,659 377,660 377,661 377,662 377,663 377,664 378,665 378,666 379,667 380,668 381,669 382,670 382,671 383,671 384,672 385,673 386,674 387,674 388,675 389,676 390,676 391,677 392,678 393,678 394,679 395,679 396,680 397,680 398,681 399,681 400,682 401,682 402,683 403,683 404,684 405,684 406,685 407,685 408,686 409,686 410,686 411,687 412,687 413,687 414,687 415,687 416,687 417,687 418,687 419,688 420,688 421,688 422,688 423,688 424,688 425,688 426,688 427,688 428,688 429,688 430,688 431,688 432,688 433,688 434,688 435,688 436,688 437,687 438,687 439,687 440,687 441,687 442,687 443,687 444,687 445,687 446,687 447,687 448,686 449,686 450,686 451,686 452,685 453,685 454,685 455,685 456,684 457,683 458,683 459,684 459,683 460,682 461,681 462,680 463,679 464,679 465,678 466,677 467,677 468,676 469,675 470,674 470,673 471,672 472,672 473,671 474,670 474,669 475,668 476,667 477,666 478,665 479,664 480,664 480,663 481,662 482,661 483,660 483,659 484,658 485,657 485,656 486,655 486,654 487,653 487,652 487,651 488,650 488,649 488,648 488,647 488,646 488,645 489,644 489,643 489,642 489,641 489,640 489,639 489,638 489,637 489,636 489,635 489,634 489,633 489,632 489,631 489,630 489,629 489,628 489,627 489,626 489,625 489,624 489,623 489,622 488,621 488,620 488,619 488,618 488,617 488,616 488,615 488,614 488,613 488,612 488,611 488,610 488,609 488,608 488,607 488,606 488,605 488,604 488,603 488,602 488,601 488,600 488,599 488,598 488,597 487,596 487,595 487,594 486,593 485,592 485,591 484,590 483,590 482,589 481,588 480,588 479,588 478,588 477,588 476,588 475,588 474,588 473,588 472,588 471,588 470,588 469,588 468,588 467,588 466,588 465,588 464,588 463,588 462,588 461,588 460,588 459,588 458,588 457,588 456,588 455,588 454,588 453,588 452,588 451,588 450,588 449,588 448,588 447,588 446,588 445,588 444,588 443,588 442,588 441,588 440,588 439,588 438,588 437,588 436,588 435,588 434,588 433,588 432,588 431,588 430,588 429,588 428,588 427,588 426,588 425,588 424,588 423,588 422,588 421,588 420,588 419,588 418,588 417,588 416,588 415,588 414,588 413,588 412,588 411,588 410,588 409,588 408,588 407,588 406,588 405,588 404,588 403,588 402,588 401,588 400,588 399,588 398,588 397,588">
      <metadata tailDirection="" confidence="0.93" linkedToCharacter="" id="UltraEleven_191_balloon_2" tailTip=""></metadata>
    </polygon>
    <polygon points="258,588 257,589 256,589 255,590 254,591 253,592 252,593 251,594 250,595 249,596 249,597 248,598 248,599 248,600 248,601 248,602 248,603 248,604 248,605 248,606 248,607 248,608 248,609 248,610 248,611 248,612 248,613 248,614 247,615 248,616 248,617 248,618 248,619 248,620 248,621 248,622 248,623 248,624 248,625 248,626 248,627 248,628 248,629 248,630 248,631 248,632 248,633 248,634 248,635 249,636 249,637 249,638 249,639 249,640 249,641 249,642 249,643 249,644 249,645 249,646 249,647 248,648 248,649 248,650 249,651 249,652 249,653 249,654 249,655 249,656 249,657 249,658 249,659 249,660 249,661 250,662 250,663 250,664 250,665 250,666 251,667 251,668 252,669 252,670 253,671 254,672 255,673 256,674 257,675 258,675 259,676 260,676 261,677 262,677 263,677 264,678 265,678 266,678 267,678 268,678 269,678 270,678 271,678 272,679 273,679 274,679 275,680 276,680 277,680 278,681 279,681 280,682 280,683 281,684 282,683 283,683 284,682 285,682 286,682 287,681 288,681 289,682 290,682 291,682 292,682 293,682 294,682 295,682 296,682 297,682 298,682 299,682 300,681 301,681 302,681 303,680 304,680 305,679 306,678 307,677 308,676 309,675 309,674 309,673 310,672 311,671 311,670 311,669 311,668 311,667 311,666 311,665 311,664 311,663 311,662 311,661 311,660 311,659 311,658 311,657 311,656 311,655 311,654 311,653 311,652 311,651 311,650 311,649 311,648 311,647 311,646 311,645 311,644 311,643 311,642 311,641 311,640 311,639 311,638 311,637 311,636 311,635 311,634 311,633 311,632 311,631 311,630 311,629 311,628 311,627 311,626 311,625 311,624 311,623 311,622 311,621 311,620 311,619 311,618 311,617 311,616 311,615 311,614 311,613 311,612 311,611 311,610 311,609 311,608 311,607 311,606 311,605 311,604 311,603 311,602 311,601 311,600 311,599 311,598 311,597 311,596 311,595 311,594 311,593 311,592 311,591 311,590 310,589 310,588 309,588 308,588 307,588 306,588 305,588 304,588 303,588 302,588 301,588 300,588 299,588 298,588 297,588 296,588 295,588 294,588 293,588 292,588 291,588 290,588 289,588 288,588 287,588 286,588 285,588 284,588 283,588 282,588 281,588 280,588 279,588 278,588 277,588 276,588 275,588 274,588 273,588 272,588 271,588 270,588 269,588 268,588 267,588 266,588 265,588 264,588 263,588 262,588 261,588 260,588 259,588 258,588">
      <metadata tailDirection="" confidence="0.99" linkedToCharacter="" id="UltraEleven_191_balloon_3" tailTip=""></metadata>
    </polygon>
    <polygon points="678,389 677,390 676,390 675,391 674,392 673,392 672,393 671,393 670,394 669,395 668,396 668,397 668,398 668,399 667,400 667,401 667,402 667,403 666,404 666,405 666,406 666,407 665,408 665,409 665,410 665,411 665,412 665,413 664,414 664,415 664,416 664,417 664,418 664,419 664,420 664,421 664,422 664,423 664,424 664,425 664,426 664,427 664,428 664,429 664,430 664,431 664,432 664,433 664,434 664,435 665,436 665,437 665,438 664,439 663,440 662,439 661,438 660,437 659,436 658,435 658,434 657,433 656,432 655,431 655,430 654,429 653,428 652,427 651,426 650,425 649,424 648,424 647,423 646,422 645,422 644,422 643,421 642,421 641,421 640,420 639,420 638,419 637,419 636,419 635,418 634,418 633,418 632,418 631,417 630,417 629,417 628,416 627,416 626,416 625,415 624,415 623,415 622,415 621,414 620,414 619,414 618,414 617,413 616,413 615,413 614,413 613,412 612,412 611,412 610,412 609,412 608,412 607,411 606,411 605,411 604,411 603,411 602,411 601,410 600,410 599,410 598,410 597,410 596,410 595,409 594,409 593,409 592,409 591,409 590,409 589,409 588,409 587,409 586,410 585,410 584,410 583,410 582,410 581,410 580,410 579,410 578,411 577,411 576,411 575,411 574,412 573,412 572,412 571,413 570,413 569,413 568,413 567,414 566,414 565,414 564,415 563,415 562,415 561,416 560,416 559,417 558,418 557,418 556,419 555,419 554,420 553,421 552,422 551,423 550,424 549,425 548,426 547,427 546,428 545,429 544,430 543,431 542,432 541,433 541,434 540,435 539,436 538,437 537,438 536,439 535,440 535,441 534,442 533,443 532,444 531,445 531,446 530,447 529,448 529,449 528,450 528,451 527,452 527,453 526,454 526,455 526,456 525,457 525,458 525,459 525,460 525,461 525,462 525,463 525,464 525,465 525,466 525,467 525,468 525,469 525,470 525,471 525,472 525,473 525,474 524,475 524,476 524,477 524,478 524,479 524,480 524,481 524,482 524,483 524,484 524,485 523,486 523,487 523,488 523,489 523,490 523,491 523,492 522,493 522,494 522,495 522,496 522,497 522,498 522,499 522,500 522,501 522,502 522,503 521,504 521,505 521,506 521,507 521,508 521,509 521,510 521,511 521,512 520,513 520,514 520,515 520,516 520,517 520,518 520,519 520,520 520,521 520,522 520,523 520,524 520,525 520,526 520,527 521,528 521,529 521,530 521,531 521,532 522,533 522,534 523,535 523,536 524,537 525,538 525,539 526,540 527,541 528,542 529,543 530,544 531,545 532,546 532,547 533,547 534,548 534,549 535,550 536,551 537,552 538,553 539,553 540,554 541,555 542,556 543,556 544,556 545,556 546,556 547,556 548,556 549,556 550,556 551,556 552,556 553,556 554,556 555,556 556,556 557,556 558,556 559,556 560,556 561,556 562,556 563,556 564,556 565,556 566,556 567,556 568,556 569,556 570,556 571,556 572,556 573,556 574,556 575,556 576,556 577,556 578,556 579,556 580,556 581,556 582,556 583,556 584,556 585,556 586,556 587,556 588,556 589,556 590,556 591,556 592,556 593,556 594,556 595,556 596,556 597,556 598,556 599,556 600,556 601,556 602,556 603,556 604,556 605,556 606,556 607,556 608,556 609,556 610,556 611,556 612,556 613,556 614,556 615,556 616,556 617,556 618,556 619,556 620,556 621,556 622,556 623,556 624,556 625,556 626,556 627,556 628,556 629,556 630,556 631,556 632,556 633,556 634,556 635,556 636,556 637,556 638,556 639,556 640,556 641,556 642,556 643,556 644,556 645,556 646,556 647,556 648,556 649,556 650,555 651,554 652,553 653,552 654,551 655,550 656,549 657,548 657,547 658,546 659,545 659,544 660,543 661,542 661,541 662,540 663,539 663,538 664,537 664,536 664,535 665,534 666,534 667,535 668,536 668,537 669,538 670,539 671,540 671,541 672,542 673,543 674,544 675,545 676,546 677,547 678,548 679,549 680,550 681,551 682,552 683,553 684,554 685,555 686,555 687,555 688,555 689,555 690,555 691,555 692,555 693,555 694,555 695,555 696,555 697,555 698,555 699,555 700,555 701,555 702,555 703,555 704,555 705,555 706,555 707,555 708,555 709,555 710,555 711,555 712,555 713,555 714,555 715,555 716,555 717,555 718,555 719,555 720,555 721,555 722,555 723,555 724,555 725,555 726,555 727,555 728,555 729,555 730,555 731,555 732,555 733,555 734,555 735,555 736,555 737,555 738,555 739,555 740,555 741,554 742,553 743,552 743,551 744,550 745,549 745,548 746,547 747,546 747,545 748,544 749,543 749,542 750,541 750,540 751,539 751,538 752,537 752,536 753,535 753,534 754,533 754,532 754,531 755,530 755,529 755,528 755,527 755,526 755,525 755,524 755,523 755,522 755,521 755,520 755,519 754,518 754,517 754,516 754,515 754,514 755,513 755,512 755,511 755,510 755,509 755,508 755,507 755,506 755,505 755,504 755,503 755,502 755,501 755,500 755,499 755,498 755,497 755,496 755,495 755,494 755,493 755,492 755,491 755,490 755,489 755,488 755,487 755,486 755,485 755,484 755,483 755,482 755,481 755,480 755,479 755,478 755,477 755,476 755,475 755,474 755,473 755,472 755,471 755,470 755,469 755,468 755,467 755,466 755,465 755,464 755,463 755,462 755,461 755,460 755,459 755,458 755,457 755,456 755,455 755,454 755,453 755,452 755,451 755,450 755,449 755,448 755,447 755,446 755,445 755,444 755,443 755,442 755,441 755,440 755,439 755,438 755,437 755,436 755,435 755,434 755,433 755,432 755,431 755,430 755,429 755,428 755,427 755,426 755,425 755,424 755,423 755,422 755,421 755,420 755,419 755,418 755,417 755,416 755,415 755,414 755,413 755,412 755,411 755,410 755,409 754,408 754,407 754,406 755,405 755,404 754,403 754,402 754,401 754,400 754,399 754,398 754,397 754,396 754,395 754,394 754,393 754,392 754,391 754,390 753,390 752,390 751,390 750,390 749,390 748,390 747,390 746,390 745,390 744,390 743,390 742,390 741,390 740,390 739,390 738,390 737,390 736,390 735,390 734,390 733,390 732,390 731,390 730,390 729,390 728,390 727,390 726,390 725,390 724,390 723,390 722,390 721,390 720,390 719,390 718,390 717,390 716,390 715,390 714,390 713,390 712,390 711,390 710,390 709,390 708,390 707,390 706,390 705,390 704,390 703,390 702,390 701,390 700,390 699,390 698,390 697,389 696,389 695,389 694,389 693,389 692,389 691,389 690,389 689,389 688,389 687,389 686,389 685,389 684,389 683,389 682,389 681,389 680,389 679,389 678,389">
      <metadata tailDirection="" confidence="0.88" linkedToCharacter="" id="UltraEleven_191_balloon_4" tailTip=""></metadata>
    </polygon>
    <polygon points="78,389 78,390 78,391 78,392 78,393 78,394 78,395 78,396 78,397 78,398 78,399 78,400 78,401 78,402 78,403 78,404 78,405 78,406 78,407 78,408 78,409 77,410 78,411 78,412 78,413 78,414 78,415 78,416 78,417 78,418 77,419 77,420 77,421 77,422 77,423 77,424 77,425 77,426 77,427 77,428 77,429 77,430 77,431 77,432 77,433 77,434 77,435 77,436 77,437 77,438 77,439 77,440 77,441 77,442 77,443 77,444 77,445 77,446 77,447 77,448 77,449 77,450 77,451 77,452 77,453 77,454 77,455 77,456 77,457 77,458 77,459 77,460 77,461 77,462 77,463 77,464 77,465 77,466 77,467 77,468 77,469 77,470 77,471 78,472 77,473 77,474 77,475 77,476 77,477 77,478 77,479 77,480 77,481 77,482 77,483 77,484 77,485 77,486 77,487 77,488 77,489 77,490 77,491 77,492 77,493 77,494 77,495 77,496 77,497 77,498 77,499 77,500 77,501 77,502 77,503 77,504 77,505 77,506 77,507 77,508 77,509 77,510 77,511 77,512 77,513 77,514 77,515 77,516 77,517 77,518 77,519 77,520 77,521 77,522 77,523 77,524 77,525 77,526 77,527 77,528 77,529 77,530 78,531 79,532 79,533 80,533 81,534 81,535 82,535 83,536 84,537 85,538 86,539 87,540 88,541 89,542 90,542 91,543 92,544 93,545 94,545 95,546 96,547 97,548 98,548 99,549 100,550 101,550 102,551 103,551 104,552 105,552 106,553 107,553 108,554 109,554 110,554 111,555 112,555 113,556 114,556 115,556 116,557 117,557 118,557 119,557 120,557 121,557 122,557 123,557 124,557 125,557 126,557 127,557 128,557 129,557 130,557 131,557 132,557 133,557 134,557 135,557 136,557 137,557 138,557 139,557 140,557 141,557 142,557 143,557 144,557 145,557 146,557 147,557 148,557 149,556 150,556 151,556 152,556 153,556 154,555 155,555 156,554 157,554 158,553 159,553 160,553 161,552 162,552 163,551 164,551 165,550 166,550 167,549 168,549 169,548 170,548 171,547 172,547 173,546 174,545 175,545 176,544 177,544 178,543 179,542 180,542 181,541 182,540 183,540 184,539 185,539 186,538 187,537 188,537 189,536 190,535 191,535 192,534 193,533 194,532 195,532 196,531 197,530 198,529 199,528 200,528 201,527 202,526 203,525 204,524 205,523 206,522 207,521 208,521 208,520 209,519 210,518 211,517 212,516 213,515 214,514 214,513 215,512 216,511 216,510 217,509 218,508 218,507 218,506 219,505 219,504 219,503 219,502 219,501 220,500 220,499 220,498 220,497 220,496 220,495 220,494 221,493 221,492 221,491 221,490 221,489 221,488 221,487 221,486 221,485 221,484 221,483 221,482 221,481 221,480 221,479 221,478 222,477 222,476 222,475 222,474 222,473 222,472 222,471 222,470 222,469 222,468 222,467 222,466 222,465 222,464 222,463 222,462 222,461 222,460 221,459 221,458 221,457 221,456 221,455 221,454 221,453 221,452 221,451 221,450 221,449 221,448 221,447 221,446 221,445 221,444 221,443 221,442 221,441 221,440 221,439 220,438 220,437 220,436 220,435 220,434 220,433 220,432 220,431 220,430 220,429 220,428 220,427 220,426 220,425 220,424 220,423 220,422 220,421 220,420 220,419 220,418 219,417 219,416 219,415 219,414 219,413 219,412 219,411 219,410 218,409 218,408 218,407 218,406 217,405 217,404 217,403 216,402 216,401 215,400 214,399 213,398 212,397 211,396 210,395 209,394 208,394 207,393 206,392 205,391 204,390 203,389 202,389 201,389 200,389 199,389 198,389 197,389 196,389 195,389 194,389 193,389 192,389 191,389 190,389 189,389 188,389 187,389 186,389 185,389 184,389 183,389 182,389 181,389 180,389 179,389 178,389 177,389 176,389 175,389 174,389 173,389 172,389 171,389 170,389 169,389 168,389 167,389 166,389 165,389 164,389 163,389 162,389 161,389 160,389 159,389 158,389 157,389 156,389 155,389 154,389 153,389 152,389 151,389 150,389 149,389 148,389 147,389 146,389 145,389 144,389 143,389 142,389 141,389 140,389 139,389 138,389 137,389 136,389 135,389 134,389 133,389 132,389 131,389 130,389 129,389 128,389 127,389 126,389 125,389 124,389 123,389 122,389 121,389 120,389 119,389 118,389 117,389 116,389 115,389 114,389 113,389 112,389 111,389 110,389 109,389 108,389 107,389 106,389 105,389 104,389 103,389 102,389 101,389 100,389 99,389 98,389 97,389 96,389 95,389 94,389 93,389 92,389 91,389 90,389 89,389 88,389 87,389 86,389 85,389 84,389 83,389 82,389 81,389 80,389 79,389 78,389">
      <metadata tailDirection="" confidence="0.81" linkedToCharacter="" id="UltraEleven_191_balloon_5" tailTip=""></metadata>
    </polygon>
    <polygon points="78,65 78,66 78,67 78,68 78,69 78,70 78,71 78,72 78,73 78,74 78,75 78,76 78,77 78,78 78,79 78,80 77,81 77,82 78,83 78,84 78,85 78,86 77,87 77,88 77,89 77,90 77,91 77,92 77,93 77,94 77,95 77,96 77,97 77,98 77,99 77,100 77,101 77,102 77,103 77,104 77,105 77,106 77,107 77,108 77,109 77,110 77,111 77,112 77,113 77,114 77,115 77,116 77,117 77,118 77,119 77,120 77,121 77,122 77,123 77,124 77,125 77,126 77,127 77,128 77,129 77,130 77,131 77,132 77,133 77,134 77,135 77,136 77,137 77,138 77,139 77,140 77,141 77,142 77,143 77,144 77,145 77,146 77,147 77,148 77,149 77,150 77,151 77,152 77,153 77,154 77,155 77,156 77,157 77,158 77,159 77,160 77,161 77,162 77,163 77,164 77,165 77,166 77,167 77,168 77,169 77,170 77,171 77,172 77,173 77,174 77,175 77,176 77,177 77,178 77,179 77,180 77,181 77,182 77,183 77,184 77,185 77,186 77,187 77,188 77,189 77,190 77,191 77,192 77,193 77,194 77,195 77,196 77,197 77,198 77,199 77,200 77,201 77,202 77,203 77,204 77,205 77,206 77,207 77,208 77,209 77,210 77,211 77,212 77,213 77,214 77,215 77,216 77,217 77,218 77,219 77,220 77,221 77,222 77,223 77,224 77,225 77,226 77,227 77,228 77,229 77,230 77,231 77,232 77,233 77,234 77,235 77,236 77,237 77,238 77,239 77,240 77,241 77,242 77,243 77,244 77,245 77,246 77,247 77,248 77,249 77,250 77,251 77,252 77,253 77,254 77,255 77,256 77,257 77,258 77,259 77,260 77,261 77,262 77,263 77,264 77,265 77,266 77,267 77,268 77,269 77,270 77,271 77,272 77,273 77,274 77,275 77,276 77,277 77,278 77,279 77,280 78,281 79,281 80,281 81,281 82,281 83,281 84,281 85,281 86,280 87,279 88,279 89,278 90,278 91,277 92,277 93,277 94,277 95,277 96,277 97,277 98,278 99,278 100,279 101,280 102,281 102,282 103,283 103,284 104,285 104,286 105,287 105,288 106,289 107,289 108,289 109,290 110,290 111,290 112,291 113,291 114,291 115,291 116,291 117,291 118,291 119,291 120,291 121,290 122,290 123,290 124,290 125,289 126,289 127,288 128,288 129,287 130,286 131,285 132,284 132,283 133,282 133,281 134,280 134,279 135,278 135,277 136,276 136,275 137,274 138,273 138,272 139,271 140,270 141,269 142,268 143,267 144,267 145,266 146,266 147,265 148,265 149,264 150,264 151,264 152,264 153,264 154,264 155,264 156,264 157,264 158,263 159,263 160,263 161,262 162,262 163,261 163,260 164,259 164,258 164,257 165,256 166,255 166,254 166,253 166,252 166,251 166,250 166,249 166,248 165,247 165,246 165,245 164,244 164,243 164,242 164,241 164,240 164,239 164,238 164,237 164,236 164,235 165,234 165,233 165,232 166,231 167,230 168,229 169,228 170,227 171,226 172,225 173,224 174,223 174,222 175,221 175,220 175,219 175,218 175,217 175,216 175,215 175,214 174,213 174,212 173,211 173,210 172,209 172,208 172,207 172,206 171,205 171,204 171,203 171,202 172,201 172,200 172,199 173,198 173,197 174,196 175,195 176,194 177,193 178,192 179,192 180,191 181,190 182,189 183,188 184,187 185,186 186,185 186,184 186,183 187,182 187,181 187,180 187,179 187,178 186,177 186,176 185,175 185,174 184,173 183,172 183,171 182,170 181,169 181,168 181,167 181,166 180,165 180,164 181,163 181,162 181,161 181,160 182,159 182,158 183,157 184,156 185,155 186,154 187,153 188,152 189,151 190,150 190,149 191,148 191,147 191,146 192,145 192,144 192,143 192,142 191,141 191,140 191,139 190,138 190,137 189,136 189,135 188,134 187,133 187,132 186,131 185,130 184,129 183,128 182,127 181,126 180,125 180,124 179,123 179,122 178,121 178,120 178,119 178,118 178,117 178,116 178,115 179,114 179,113 179,112 180,111 181,110 181,109 182,108 183,107 184,106 185,105 186,104 187,103 188,102 188,101 189,100 189,99 189,98 189,97 189,96 189,95 189,94 189,93 189,92 189,91 189,90 188,89 188,88 187,87 186,86 185,85 184,84 183,84 182,83 181,83 180,82 179,82 178,81 177,80 176,80 175,79 174,78 173,78 172,77 171,76 170,75 170,74 169,73 169,72 169,71 169,70 168,69 168,68 169,67 169,66 169,65 168,65 167,65 166,65 165,65 164,65 163,65 162,65 161,65 160,65 159,65 158,65 157,65 156,65 155,65 154,65 153,65 152,65 151,65 150,65 149,65 148,65 147,65 146,65 145,65 144,65 143,65 142,65 141,65 140,65 139,65 138,65 137,65 136,65 135,65 134,65 133,65 132,65 131,65 130,65 129,65 128,65 127,65 126,65 125,65 124,65 123,65 122,65 121,65 120,65 119,65 118,65 117,65 116,65 115,65 114,65 113,65 112,65 111,65 110,65 109,65 108,65 107,65 106,65 105,65 104,65 103,65 102,65 101,65 100,65 99,65 98,65 97,65 96,65 95,65 94,65 93,65 92,65 91,65 90,65 89,65 88,65 87,65 86,65 85,65 84,65 83,65 82,65 81,65 80,65 79,65 78,65">
      <metadata tailDirection="" confidence="0.93" linkedToCharacter="" id="UltraEleven_191_balloon_6" tailTip=""></metadata>
    </polygon>
    <polygon points="260,64 259,65 258,65 258,66 259,67 259,68 260,69 260,70 260,71 260,72 260,73 260,74 260,75 260,76 260,77 259,78 259,79 258,80 257,81 257,82 256,83 255,83 254,84 253,85 252,85 251,86 250,87 249,87 248,88 247,88 246,89 245,89 244,90 243,90 242,91 241,92 240,92 239,93 238,94 237,95 236,96 235,97 234,98 233,99 232,100 232,101 231,102 230,103 230,104 229,105 229,106 229,107 229,108 229,109 230,110 230,111 230,112 230,113 231,114 231,115 232,116 233,117 233,118 234,119 235,119 236,120 237,121 238,121 239,122 240,122 241,123 242,123 243,124 244,125 245,126 246,127 247,128 247,129 247,130 248,131 248,132 248,133 248,134 248,135 247,136 247,137 247,138 246,139 245,140 244,141 243,142 242,143 241,144 240,145 239,146 239,147 238,148 237,149 237,150 236,151 236,152 235,153 235,154 235,155 235,156 234,157 234,158 234,159 234,160 234,161 234,162 235,163 235,164 236,165 236,166 237,167 238,168 239,169 240,170 241,171 242,171 243,172 244,172 245,172 246,172 247,172 248,173 249,172 250,172 251,172 252,172 253,172 254,172 255,172 256,172 257,172 258,172 259,172 260,172 261,172 262,173 263,173 264,173 265,174 266,174 267,175 268,176 269,177 270,178 271,179 271,180 272,181 272,182 272,183 272,184 272,185 272,186 271,187 271,188 271,189 271,190 271,191 271,192 270,193 270,194 270,195 270,196 270,197 270,198 270,199 270,200 270,201 271,202 271,203 272,204 273,205 274,206 275,206 276,207 277,207 278,208 279,208 280,208 281,209 282,209 283,209 284,209 285,209 286,209 287,209 288,209 289,209 290,209 291,209 292,208 293,208 294,208 295,208 296,208 297,208 298,208 299,209 300,210 301,211 302,212 303,213 304,214 304,215 305,216 306,217 307,218 308,219 309,219 310,220 311,220 312,220 313,220 314,220 315,220 316,220 317,220 318,220 319,220 320,220 321,219 322,219 323,218 323,217 324,216 325,215 326,215 327,214 328,213 329,213 330,212 331,212 332,212 333,211 334,211 335,211 336,211 337,211 338,212 339,212 340,212 341,213 342,213 343,214 344,215 345,215 346,216 347,216 348,216 349,217 350,217 351,217 352,217 353,217 354,217 355,217 356,217 357,216 358,216 359,215 360,214 361,214 362,213 362,212 363,211 363,210 364,209 365,208 365,207 365,206 366,205 366,204 366,203 366,202 366,201 366,200 366,199 366,198 366,197 366,196 366,195 366,194 366,193 366,192 366,191 366,190 366,189 366,188 366,187 366,186 366,185 366,184 366,183 366,182 366,181 366,180 366,179 366,178 366,177 366,176 366,175 366,174 366,173 366,172 366,171 366,170 366,169 366,168 366,167 366,166 366,165 366,164 366,163 366,162 366,161 366,160 366,159 366,158 366,157 366,156 366,155 366,154 366,153 366,152 366,151 366,150 366,149 366,148 366,147 366,146 366,145 366,144 366,143 366,142 366,141 366,140 366,139 366,138 366,137 366,136 366,135 366,134 366,133 366,132 366,131 366,130 366,129 366,128 366,127 366,126 366,125 366,124 366,123 366,122 366,121 366,120 366,119 366,118 366,117 366,116 366,115 366,114 366,113 366,112 366,111 366,110 366,109 366,108 366,107 366,106 366,105 366,104 366,103 366,102 366,101 366,100 366,99 366,98 366,97 366,96 366,95 366,94 366,93 366,92 366,91 366,90 366,89 366,88 366,87 366,86 366,85 366,84 366,83 366,82 366,81 366,80 366,79 366,78 366,77 366,76 366,75 365,74 365,73 365,72 365,71 365,70 365,69 365,68 365,67 365,66 365,65 364,65 363,65 362,65 361,65 360,65 359,65 358,65 357,65 356,65 355,65 354,65 353,65 352,65 351,65 350,65 349,65 348,65 347,65 346,65 345,65 344,65 343,65 342,65 341,65 340,65 339,65 338,65 337,65 336,65 335,65 334,65 333,65 332,65 331,65 330,65 329,65 328,65 327,65 326,65 325,65 324,65 323,65 322,65 321,65 320,65 319,65 318,65 317,65 316,65 315,65 314,65 313,65 312,65 311,65 310,65 309,65 308,65 307,65 306,65 305,65 304,65 303,65 302,65 301,65 300,65 299,65 298,65 297,65 296,65 295,65 294,65 293,65 292,65 291,65 290,65 289,65 288,65 287,65 286,65 285,65 284,65 283,65 282,65 281,65 280,65 279,65 278,65 277,65 276,65 275,65 274,65 273,65 272,65 271,65 270,65 269,65 268,65 267,65 266,65 265,65 264,65 263,65 262,65 261,64 260,64">
      <metadata tailDirection="" confidence="0.91" linkedToCharacter="" id="UltraEleven_191_balloon_7" tailTip=""></metadata>
    </polygon>
    <polygon points="378,65 378,66 378,67 378,68 378,69 378,70 378,71 378,72 378,73 378,74 378,75 378,76 378,77 378,78 378,79 378,80 378,81 378,82 378,83 378,84 378,85 378,86 378,87 378,88 378,89 378,90 378,91 378,92 378,93 378,94 378,95 378,96 378,97 378,98 378,99 378,100 378,101 378,102 378,103 378,104 378,105 378,106 378,107 378,108 378,109 378,110 378,111 378,112 378,113 378,114 378,115 378,116 378,117 378,118 378,119 378,120 378,121 378,122 378,123 378,124 378,125 378,126 378,127 378,128 378,129 378,130 378,131 378,132 378,133 378,134 378,135 378,136 378,137 378,138 378,139 378,140 378,141 378,142 378,143 378,144 378,145 378,146 378,147 378,148 378,149 378,150 378,151 378,152 378,153 378,154 378,155 378,156 378,157 378,158 378,159 378,160 378,161 378,162 378,163 378,164 378,165 378,166 378,167 378,168 378,169 378,170 378,171 378,172 378,173 378,174 378,175 378,176 378,177 378,178 378,179 378,180 378,181 378,182 378,183 378,184 378,185 378,186 378,187 378,188 378,189 378,190 378,191 377,192 377,193 377,194 377,195 377,196 377,197 377,198 377,199 377,200 377,201 377,202 377,203 377,204 377,205 377,206 377,207 377,208 377,209 377,210 377,211 377,212 378,212 379,211 380,211 381,211 382,211 383,212 384,213 385,214 385,215 386,216 387,217 387,218 388,219 388,220 389,221 390,221 391,222 392,222 393,222 394,222 395,222 396,222 397,222 398,221 399,220 400,220 401,219 402,218 403,218 404,217 405,217 406,217 407,217 408,216 409,216 410,216 411,216 412,217 413,217 414,217 415,218 416,219 417,220 418,221 419,222 420,223 421,223 422,223 423,223 424,224 425,223 426,223 427,223 428,223 429,223 430,222 431,222 432,221 433,221 433,220 434,219 435,218 435,217 436,216 436,215 436,214 436,213 437,212 437,211 437,210 437,209 437,208 437,207 438,206 438,205 439,204 440,203 441,202 442,201 443,201 444,200 445,200 446,200 447,199 448,199 449,200 450,200 451,200 452,200 453,201 454,202 455,203 455,204 456,205 457,206 458,206 459,207 460,207 461,207 462,207 463,207 464,207 465,206 466,206 467,205 468,204 469,203 470,202 471,201 472,201 473,200 474,200 475,199 476,199 477,199 478,199 479,198 480,198 481,198 482,199 481,198 480,198 479,198 478,198 477,198 476,198 475,198 474,198 473,198 472,199 471,199 470,200 469,201 468,202 467,203 466,204 465,205 464,205 463,206 462,206 461,207 460,206 459,206 458,206 457,205 456,204 456,203 456,202 455,201 455,200 456,199 456,198 457,197 457,196 458,195 459,194 460,194 461,193 462,193 463,193 464,192 465,192 466,191 467,190 468,189 468,188 469,187 469,186 469,185 469,184 469,183 469,182 469,181 469,180 468,179 468,178 467,177 466,176 465,175 464,174 463,173 462,172 461,171 460,170 459,169 459,168 459,167 459,166 459,165 460,164 460,163 461,162 461,161 462,160 463,159 464,158 465,157 466,156 467,156 468,155 469,155 470,155 471,154 472,154 473,154 474,154 475,154 476,154 477,154 478,153 479,153 480,153 481,152 482,152 483,152 484,151 485,150 486,149 487,148 487,147 488,146 488,145 488,144 489,143 489,142 489,141 489,140 489,139 489,138 489,137 489,136 489,135 488,134 488,133 488,132 487,131 487,130 486,129 486,128 485,127 484,126 483,125 482,124 481,123 480,122 479,121 479,120 478,119 478,118 478,117 478,116 478,115 478,114 478,113 478,112 478,111 479,110 479,109 480,108 480,107 481,106 482,105 483,104 483,103 484,102 485,101 485,100 486,99 486,98 487,97 487,96 487,95 487,94 487,93 488,92 488,91 488,90 488,89 488,88 488,87 488,86 487,85 487,84 487,83 487,82 486,81 486,80 485,79 485,78 484,77 483,76 482,75 481,74 480,73 479,73 478,72 477,72 476,72 475,71 474,71 473,70 473,69 472,68 472,67 472,66 472,65 471,65 470,65 469,65 468,65 467,65 466,65 465,65 464,65 463,65 462,65 461,65 460,65 459,65 458,65 457,65 456,65 455,65 454,65 453,65 452,65 451,65 450,65 449,65 448,65 447,65 446,65 445,65 444,65 443,65 442,65 441,65 440,65 439,65 438,65 437,65 436,65 435,65 434,65 433,65 432,65 431,65 430,65 429,65 428,65 427,65 426,65 425,65 424,65 423,65 422,65 421,65 420,65 419,65 418,65 417,65 416,65 415,65 414,65 413,65 412,65 411,65 410,65 409,65 408,65 407,65 406,65 405,65 404,65 403,65 402,65 401,65 400,65 399,65 398,65 397,65 396,65 395,65 394,65 393,65 392,65 391,65 390,65 389,65 388,65 387,65 386,65 385,65 384,65 383,65 382,65 381,65 380,65 379,65 378,65">
      <metadata tailDirection="" confidence="0.90" linkedToCharacter="" id="UltraEleven_191_balloon_8" tailTip=""></metadata>
    </polygon>
    <polygon points="724,64 723,65 722,65 721,65 720,65 719,65 718,65 717,65 716,65 715,65 714,65 713,65 712,65 711,65 710,65 709,65 708,65 707,65 706,65 705,65 704,65 703,65 702,65 701,65 700,65 699,65 698,65 697,65 696,65 695,65 694,65 693,65 692,65 691,65 690,65 689,65 688,65 687,65 686,65 685,65 684,65 683,65 682,65 681,65 680,65 679,65 678,65 677,65 676,65 675,65 674,65 673,65 672,65 671,65 670,65 669,65 668,65 667,65 666,65 665,65 664,65 663,65 662,65 661,65 660,65 659,65 658,65 657,65 656,65 655,65 654,65 653,65 652,65 651,65 650,65 649,65 648,65 647,65 646,65 646,66 646,67 646,68 646,69 645,70 645,71 644,72 643,73 642,74 641,75 640,76 639,77 638,77 637,78 636,78 635,79 634,79 633,80 632,81 631,82 630,83 629,83 628,84 628,85 627,86 626,87 625,88 625,89 625,90 625,91 625,92 624,93 624,94 624,95 625,96 625,97 625,98 625,99 625,100 626,101 627,102 628,103 629,104 630,105 631,106 632,107 633,108 634,109 634,110 635,111 635,112 635,113 635,114 635,115 635,116 634,117 634,118 633,119 633,120 632,121 631,122 631,123 630,124 629,124 628,125 627,126 626,126 625,127 625,128 624,129 623,130 623,131 623,132 622,133 622,134 622,135 622,136 622,137 622,138 622,139 622,140 622,141 622,142 622,143 623,144 623,145 623,146 624,147 624,148 625,149 626,150 627,150 628,151 629,151 630,152 631,152 632,152 633,152 634,153 635,153 636,154 637,155 638,156 639,157 640,158 640,159 641,160 641,161 641,162 641,163 641,164 641,165 641,166 641,167 641,168 641,169 641,170 641,171 641,172 641,173 641,174 642,175 642,176 643,177 644,178 645,179 646,180 647,180 648,181 649,181 650,181 651,181 652,181 653,181 654,181 655,181 656,180 657,180 658,180 659,180 660,180 661,179 662,179 663,179 664,179 665,179 666,178 667,178 668,178 669,178 670,178 671,179 672,179 673,179 674,180 675,181 676,182 677,183 678,184 678,185 679,186 679,187 680,188 680,189 681,190 682,191 683,191 684,192 685,192 686,192 687,192 688,193 689,193 690,193 691,193 692,193 693,192 694,192 695,192 696,191 697,191 698,190 699,189 700,189 701,188 702,188 703,187 704,186 705,186 706,186 707,185 708,185 709,185 710,185 711,185 712,185 713,185 714,186 715,187 715,188 716,189 716,190 717,191 716,192 716,193 715,194 714,195 713,196 713,197 713,196 714,195 715,194 716,194 717,193 718,193 718,192 719,191 719,190 719,189 719,188 719,187 719,186 720,185 721,185 722,186 723,186 724,187 725,187 726,187 727,187 728,187 729,187 730,187 731,187 732,187 733,187 734,187 735,187 736,186 737,186 738,185 739,184 739,183 740,182 740,181 741,180 742,179 743,178 744,177 745,176 746,176 747,175 748,175 749,175 750,175 751,175 752,175 753,175 754,175 755,175 755,174 755,173 755,172 755,171 755,170 755,169 755,168 755,167 755,166 755,165 755,164 755,163 755,162 755,161 755,160 755,159 755,158 755,157 755,156 755,155 755,154 755,153 755,152 755,151 755,150 755,149 755,148 755,147 755,146 755,145 755,144 755,143 754,142 754,141 754,140 754,139 754,138 754,137 754,136 754,135 754,134 754,133 754,132 754,131 754,130 754,129 754,128 754,127 754,126 754,125 754,124 754,123 754,122 754,121 754,120 754,119 754,118 754,117 754,116 754,115 754,114 754,113 754,112 754,111 754,110 754,109 754,108 754,107 754,106 754,105 754,104 754,103 754,102 754,101 754,100 754,99 754,98 754,97 754,96 754,95 754,94 754,93 754,92 754,91 754,90 754,89 754,88 754,87 754,86 754,85 754,84 754,83 754,82 754,81 754,80 754,79 754,78 754,77 754,76 754,75 754,74 754,73 754,72 754,71 754,70 754,69 754,68 754,67 754,66 754,65 753,65 752,65 751,65 750,65 749,65 748,65 747,65 746,65 745,65 744,65 743,65 742,65 741,65 740,65 739,65 738,65 737,65 736,65 735,65 734,65 733,65 732,65 731,65 730,65 729,65 728,65 727,65 726,65 725,64 724,64">
      <metadata tailDirection="" confidence="0.94" linkedToCharacter="" id="UltraEleven_191_balloon_9" tailTip=""></metadata>
    </polygon>
  </svg>
</svg>
