<?xml version="1.0" encoding="UTF-8" standalone="no"?>
<svg width="827" xmlns="http://www.w3.org/2000/svg" version="1.0" height="1170">
  <title>UltraEleven_165</title>
  <svg contentScriptType="text/ecmascript" zoomAndPan="magnify" contentStyleType="text/css" class="Page" preserveAspectRatio="xMidYMid meet" version="1.0">
    <image xmlns:xlink="http://www.w3.org/1999/xlink" x="0" y="0" width="827" height="1170" xlink:href="./../../dataset_Manga109/UltraEleven/UltraEleven_165.jpg" xlink:type="simple" xlink:actuate="onLoad" preserveAspectRatio="xMidYMid meet" xlink:show="embed"/>
  </svg>
  <style type="text/css" xml:space="preserve">
        * { stroke-linejoin: round; }
        .Unclassified   { fill: orange; stroke: none;   opacity: 1.0; visibility: hidden; }
        .Noise          { fill: pink;   stroke: none;   opacity: 0.2; visibility: hidden; }
        .Panel          { fill: none;   stroke: red;    stroke-width:3; opacity: 0.5; visibility: visible; image-rendering: optimizeSpeed; }
        .Line           { fill: green;  stroke: none;   opacity: 0.5; visibility: visible; image-rendering: optimizeSpeed; }
        .TextArea       { fill: grey;   stroke: none;   opacity: 0.2; visibility: visible; image-rendering: optimizeSpeed; }
        .Balloon        { fill: cyan;   stroke: none;   opacity: 0.5; visibility: visible; image-rendering: optimizeSpeed; }
        .Letter         { fill: blue;   stroke: none;   opacity: 0.2; visibility: hidden; }
        .Object, .Character, .Face  { fill: yellow; stroke: none;   opacity: 0.5; visibility: visible; image-rendering: optimizeSpeed; }
        .Page           { fill: white;  stroke: none;    opacity: 0.5; visibility: visible; }
        .linkSBSC { fill: blue; stroke: none; opacity: 1.0; visibility: visible; }
        polygon:hover { opacity:1.0; stroke:red; }
</style>
  <svg xmlns="http://www.w3.org/2000/svg" contentScriptType="text/ecmascript" zoomAndPan="magnify" contentStyleType="text/css" class="Balloon" preserveAspectRatio="xMidYMid meet" version="1.0">
    <polygon points="120,445 119,446 118,446 117,446 116,446 115,446 114,446 113,446 112,446 111,447 110,447 109,447 108,447 107,448 106,448 105,448 104,449 103,450 102,450 101,451 100,451 99,452 98,453 97,453 96,454 95,455 94,456 93,457 92,457 91,458 90,459 89,460 88,461 87,462 86,463 85,464 84,465 83,466 82,467 82,468 81,469 80,470 79,471 78,472 77,473 76,474 76,475 75,476 74,477 74,478 73,479 72,479 72,480 71,481 70,482 70,483 69,484 68,485 68,486 67,487 67,488 66,489 65,490 65,491 64,492 64,493 63,494 63,495 62,496 62,497 62,498 61,499 61,500 61,501 61,502 61,503 61,504 61,505 62,506 62,507 62,508 62,509 63,510 63,511 63,512 64,513 64,514 64,515 65,516 65,517 66,518 66,519 67,520 67,521 68,522 69,523 69,524 70,525 70,526 71,527 71,528 72,529 72,530 73,531 74,532 75,533 75,534 76,535 77,536 78,537 78,538 79,539 80,540 81,541 82,542 82,543 83,544 84,545 85,546 86,547 87,548 88,549 89,550 90,551 91,551 92,552 93,552 94,552 95,553 96,553 97,553 98,553 99,552 100,552 101,552 102,552 103,551 104,551 105,551 106,551 107,550 108,550 109,550 110,549 111,549 112,549 113,548 114,548 115,548 116,548 117,548 118,548 119,548 120,549 121,550 121,551 122,552 122,553 123,554 123,555 124,556 124,557 125,557 126,557 127,556 127,555 127,554 126,553 126,552 125,551 125,550 125,549 126,548 127,547 128,547 129,546 130,546 131,546 132,545 133,545 134,544 135,544 136,544 137,543 138,543 139,542 140,542 141,542 142,541 143,541 144,540 145,540 146,540 147,539 148,539 149,538 150,538 151,537 152,537 153,537 154,536 155,536 156,535 157,535 158,534 159,534 160,534 161,533 162,533 163,533 164,533 165,532 166,532 167,531 168,531 169,531 170,530 171,530 172,529 173,529 174,528 175,528 176,527 177,526 178,525 179,525 180,524 181,523 182,522 182,521 182,520 183,519 183,518 183,517 183,516 183,515 183,514 183,513 183,512 182,511 182,510 182,509 182,508 182,507 182,506 182,505 182,504 182,503 182,502 181,501 181,500 181,499 181,498 181,497 180,496 180,495 180,494 180,493 179,492 179,491 179,490 178,489 178,488 178,487 178,486 177,485 177,484 177,483 177,482 176,481 176,480 176,479 175,478 175,477 175,476 174,475 174,474 174,473 174,472 173,471 173,470 172,469 172,468 172,467 171,466 171,465 170,464 170,463 170,462 169,461 169,460 168,459 168,458 167,457 166,456 166,455 165,454 164,453 163,452 163,451 162,451 161,450 160,449 159,449 158,448 157,448 156,447 155,447 154,447 153,447 152,447 151,446 150,446 149,446 148,446 147,446 146,445 145,445 144,445 143,445 142,445 141,445 140,445 139,445 138,445 137,445 136,445 135,445 134,445 133,445 132,445 131,445 130,445 129,445 128,445 127,445 126,445 125,445 124,445 123,445 122,445 121,445 120,445">
      <metadata tailDirection="" confidence="0.89" linkedToCharacter="" id="UltraEleven_165_balloon_0" tailTip=""></metadata>
    </polygon>
  </svg>
</svg>
