<?xml version="1.0" encoding="UTF-8" standalone="no"?>
<svg width="827" xmlns="http://www.w3.org/2000/svg" version="1.0" height="1170">
  <title>UltraEleven_018</title>
  <svg contentScriptType="text/ecmascript" zoomAndPan="magnify" contentStyleType="text/css" class="Page" preserveAspectRatio="xMidYMid meet" version="1.0">
    <image xmlns:xlink="http://www.w3.org/1999/xlink" x="0" y="0" width="827" height="1170" xlink:href="./../../dataset_Manga109/UltraEleven/UltraEleven_018.jpg" xlink:type="simple" xlink:actuate="onLoad" preserveAspectRatio="xMidYMid meet" xlink:show="embed"/>
  </svg>
  <style type="text/css" xml:space="preserve">
        * { stroke-linejoin: round; }
        .Unclassified   { fill: orange; stroke: none;   opacity: 1.0; visibility: hidden; }
        .Noise          { fill: pink;   stroke: none;   opacity: 0.2; visibility: hidden; }
        .Panel          { fill: none;   stroke: red;    stroke-width:3; opacity: 0.5; visibility: visible; image-rendering: optimizeSpeed; }
        .Line           { fill: green;  stroke: none;   opacity: 0.5; visibility: visible; image-rendering: optimizeSpeed; }
        .TextArea       { fill: grey;   stroke: none;   opacity: 0.2; visibility: visible; image-rendering: optimizeSpeed; }
        .Balloon        { fill: cyan;   stroke: none;   opacity: 0.5; visibility: visible; image-rendering: optimizeSpeed; }
        .Letter         { fill: blue;   stroke: none;   opacity: 0.2; visibility: hidden; }
        .Object, .Character, .Face  { fill: yellow; stroke: none;   opacity: 0.5; visibility: visible; image-rendering: optimizeSpeed; }
        .Page           { fill: white;  stroke: none;    opacity: 0.5; visibility: visible; }
        .linkSBSC { fill: blue; stroke: none; opacity: 1.0; visibility: visible; }
        polygon:hover { opacity:1.0; stroke:red; }
</style>
  <svg xmlns="http://www.w3.org/2000/svg" contentScriptType="text/ecmascript" zoomAndPan="magnify" contentStyleType="text/css" class="Balloon" preserveAspectRatio="xMidYMid meet" version="1.0">
    <polygon points="107,915 106,916 105,916 104,916 103,916 102,916 101,917 100,917 99,918 98,918 97,918 96,919 95,920 94,921 93,922 92,923 91,924 90,925 89,926 88,927 88,928 87,929 86,930 86,931 85,932 84,933 84,934 83,935 82,936 81,937 81,938 80,939 80,940 79,941 78,942 78,943 77,944 77,945 77,946 76,947 76,948 76,949 75,950 75,951 75,952 74,953 74,954 74,955 74,956 74,957 74,958 73,959 73,960 73,961 73,962 73,963 73,964 72,965 72,966 72,967 72,968 72,969 72,970 72,971 72,972 72,973 72,974 72,975 72,976 72,977 72,978 72,979 72,980 72,981 72,982 72,983 72,984 72,985 72,986 72,987 72,988 72,989 72,990 72,991 72,992 72,993 72,994 72,995 72,996 72,997 72,998 72,999 72,1000 72,1001 72,1002 72,1003 71,1004 72,1005 72,1006 72,1007 71,1008 71,1009 71,1010 71,1011 72,1012 72,1013 71,1014 71,1015 71,1016 71,1017 71,1018 71,1019 71,1020 72,1021 71,1022 72,1023 71,1024 71,1025 71,1026 71,1027 71,1028 71,1029 71,1030 71,1031 71,1032 71,1033 71,1034 71,1035 71,1036 71,1037 71,1038 71,1039 71,1040 71,1041 71,1042 71,1043 71,1044 71,1045 71,1046 71,1047 71,1048 71,1049 71,1050 71,1051 71,1052 71,1053 71,1054 71,1055 71,1056 71,1057 71,1058 71,1059 71,1060 71,1061 71,1062 71,1063 71,1064 71,1065 71,1066 71,1067 71,1068 72,1069 72,1070 72,1071 72,1072 73,1073 73,1074 73,1075 74,1076 74,1077 75,1078 75,1079 76,1080 76,1081 77,1082 77,1083 78,1084 79,1085 80,1086 81,1087 82,1088 83,1089 84,1090 85,1091 86,1092 87,1093 88,1094 89,1094 90,1094 91,1094 92,1094 93,1094 94,1094 95,1094 96,1094 97,1094 98,1094 99,1094 100,1094 101,1094 102,1094 103,1094 104,1094 105,1094 106,1094 107,1094 108,1094 109,1094 110,1094 111,1094 112,1094 113,1094 114,1094 115,1093 116,1094 117,1094 118,1094 119,1094 120,1093 121,1093 122,1093 123,1093 124,1094 125,1094 126,1094 127,1094 128,1094 129,1094 130,1094 131,1094 132,1094 133,1094 134,1094 135,1094 136,1094 137,1094 138,1094 139,1094 140,1094 141,1094 142,1094 143,1094 144,1094 145,1094 146,1094 147,1094 148,1094 149,1094 150,1094 151,1094 152,1094 153,1094 154,1093 154,1092 155,1091 156,1090 156,1089 157,1088 158,1087 159,1086 159,1085 160,1084 160,1083 161,1082 162,1081 162,1080 163,1079 163,1078 164,1077 164,1076 164,1075 165,1074 165,1073 165,1072 166,1071 166,1070 166,1069 166,1068 166,1067 166,1066 166,1065 166,1064 166,1063 166,1062 167,1061 167,1060 167,1059 167,1058 167,1057 167,1056 167,1055 167,1054 167,1053 167,1052 167,1051 167,1050 167,1049 167,1048 167,1047 167,1046 167,1045 167,1044 167,1043 166,1042 166,1041 166,1040 166,1039 166,1038 166,1037 166,1036 166,1035 166,1034 166,1033 166,1032 166,1031 167,1030 167,1029 167,1028 167,1027 167,1026 167,1025 167,1024 167,1023 167,1022 167,1021 167,1020 167,1019 167,1018 167,1017 167,1016 167,1015 167,1014 167,1013 167,1012 167,1011 167,1010 167,1009 167,1008 167,1007 167,1006 167,1005 167,1004 167,1003 167,1002 167,1001 167,1000 167,999 167,998 167,997 167,996 167,995 167,994 167,993 167,992 167,991 167,990 167,989 167,988 167,987 167,986 167,985 167,984 167,983 167,982 167,981 167,980 167,979 167,978 167,977 167,976 167,975 167,974 167,973 167,972 167,971 167,970 167,969 167,968 167,967 167,966 167,965 167,964 167,963 167,962 167,961 167,960 167,959 167,958 167,957 167,956 166,955 166,954 166,953 166,952 166,951 166,950 166,949 165,948 165,947 165,946 165,945 165,944 164,943 164,942 164,941 163,940 163,939 163,938 162,937 161,936 161,935 160,934 159,933 158,932 157,931 156,930 155,929 154,929 153,928 152,927 151,926 150,925 149,924 148,923 147,922 146,922 145,921 144,921 143,920 142,920 141,919 140,918 139,918 138,918 137,918 136,918 135,918 134,918 133,917 132,917 131,917 130,917 129,917 128,917 127,917 126,917 125,917 124,916 123,916 122,916 121,916 120,916 119,916 118,916 117,916 116,916 115,916 114,916 113,916 112,916 111,915 110,915 109,915 108,915 107,915">
      <metadata tailDirection="" confidence="0.94" linkedToCharacter="" id="UltraEleven_018_balloon_0" tailTip=""></metadata>
    </polygon>
    <polygon points="294,817 293,818 292,819 291,819 290,820 289,820 288,821 287,822 286,822 286,823 285,824 284,825 283,825 283,826 282,827 281,828 280,828 279,829 279,830 278,831 277,832 276,833 276,834 275,835 275,836 275,837 274,838 274,839 274,840 274,841 273,842 273,843 273,844 273,845 272,846 272,847 272,848 272,849 272,850 272,851 271,852 271,853 271,854 271,855 271,856 271,857 271,858 271,859 271,860 271,861 271,862 270,863 270,864 270,865 270,866 270,867 270,868 270,869 270,870 269,871 269,872 269,873 269,874 269,875 269,876 269,877 269,878 269,879 269,880 269,881 269,882 269,883 269,884 269,885 269,886 269,887 269,888 269,889 269,890 269,891 269,892 269,893 270,894 270,895 270,896 270,897 271,898 271,899 272,900 272,901 273,902 273,903 274,904 274,905 275,906 276,907 276,908 277,909 277,910 278,911 279,912 280,913 280,914 281,915 282,916 283,917 284,918 285,919 286,920 287,921 288,922 289,923 290,924 291,925 292,926 293,927 294,927 295,928 296,929 297,930 298,931 299,931 300,932 301,933 302,933 303,934 304,934 305,935 306,935 307,936 308,936 309,936 310,937 311,937 312,937 313,937 314,938 315,938 316,938 317,938 318,939 319,939 320,939 321,939 322,939 323,939 324,940 325,940 326,940 327,940 328,940 329,941 330,941 331,941 332,941 333,941 334,941 335,941 336,941 337,941 338,941 339,940 340,940 341,940 342,939 343,939 344,939 345,938 346,938 347,937 348,937 349,936 350,936 351,936 352,935 353,935 354,934 355,934 356,933 357,933 358,932 359,932 360,931 361,931 362,930 363,930 364,929 365,928 366,927 367,927 368,926 369,925 370,924 371,923 372,922 373,921 374,920 375,920 376,919 377,918 378,917 379,916 380,915 381,914 382,913 383,912 384,911 385,910 385,909 386,908 387,907 388,906 388,905 389,904 390,903 390,902 390,901 391,900 391,899 392,898 392,897 392,896 393,895 393,894 392,893 392,892 393,891 392,890 392,889 393,888 393,887 393,886 393,885 393,884 393,883 393,882 393,881 393,880 393,879 393,878 393,877 392,876 392,875 392,874 392,873 392,872 392,871 392,870 392,869 392,868 392,867 392,866 392,865 392,864 392,863 392,862 392,861 392,860 392,859 392,858 392,857 392,856 392,855 392,854 392,853 392,852 392,851 392,850 392,849 392,848 391,847 391,846 391,845 391,844 391,843 391,842 391,841 391,840 391,839 391,838 390,837 390,836 390,835 390,834 390,833 389,832 389,831 388,830 388,829 387,828 386,827 385,826 384,825 383,824 382,824 381,823 380,822 379,822 378,821 377,821 376,820 375,819 374,819 373,819 372,818 371,818 370,817 369,817 368,817 367,817 366,817 365,817 364,817 363,817 362,817 361,817 360,817 359,817 358,817 357,817 356,817 355,817 354,817 353,817 352,817 351,817 350,817 349,817 348,817 347,817 346,817 345,817 344,817 343,817 342,817 341,817 340,817 339,817 338,817 337,817 336,817 335,817 334,817 333,817 332,817 331,817 330,817 329,817 328,817 327,817 326,817 325,817 324,817 323,817 322,817 321,817 320,817 319,817 318,817 317,817 316,817 315,817 314,817 313,817 312,817 311,817 310,817 309,817 308,817 307,817 306,817 305,817 304,817 303,817 302,817 301,817 300,817 299,817 298,817 297,817 296,817 295,817 294,817">
      <metadata tailDirection="" confidence="0.80" linkedToCharacter="" id="UltraEleven_018_balloon_1" tailTip=""></metadata>
    </polygon>
    <polygon points="598,815 597,816 596,816 595,816 594,816 593,816 592,816 591,816 590,816 589,816 588,816 587,816 586,816 585,816 584,816 583,816 582,816 581,816 580,816 579,816 578,816 577,816 576,816 575,816 574,816 573,816 572,816 571,816 570,816 569,816 568,816 567,816 566,816 565,816 564,816 563,816 562,816 561,816 560,816 559,816 558,816 557,816 556,817 555,818 554,818 553,819 552,820 551,821 550,822 549,822 548,823 547,824 547,825 546,826 545,827 544,828 543,829 542,830 542,831 541,832 540,833 539,834 539,835 538,836 537,837 537,838 536,839 535,840 535,841 534,842 533,843 533,844 532,845 531,846 531,847 530,848 530,849 529,850 529,851 528,852 528,853 528,854 527,855 527,856 526,857 526,858 526,859 525,860 525,861 525,862 525,863 524,864 524,865 524,866 524,867 523,868 523,869 523,870 523,871 523,872 523,873 523,874 522,875 522,876 522,877 522,878 522,879 522,880 522,881 522,882 522,883 522,884 522,885 522,886 522,887 522,888 522,889 522,890 523,891 523,892 523,893 523,894 524,895 524,896 524,897 525,898 525,899 525,900 526,901 526,902 527,903 527,904 527,905 528,906 529,907 529,908 530,909 531,910 532,911 532,912 533,913 534,914 535,914 536,915 537,916 538,917 539,918 540,919 541,919 542,920 543,921 544,922 545,922 546,923 547,924 548,924 549,925 550,926 551,927 552,927 553,928 554,929 555,929 556,930 557,930 558,930 559,931 560,932 561,932 562,933 563,933 564,934 565,934 566,935 567,935 568,936 569,936 570,937 571,937 572,938 573,938 574,939 575,939 576,940 577,940 578,940 579,941 580,941 581,942 582,942 583,942 584,943 585,943 586,944 587,944 588,944 589,945 590,945 591,945 592,946 593,946 594,946 595,946 596,947 597,947 598,947 599,948 600,948 601,948 602,949 603,949 604,949 605,949 606,949 607,950 608,950 609,950 610,950 611,951 612,951 613,951 614,951 615,952 616,952 617,952 618,952 619,952 620,953 621,953 622,953 623,953 624,953 625,953 626,953 627,954 628,954 629,954 630,954 631,954 632,954 633,955 634,955 635,955 636,955 637,955 638,955 639,955 640,956 641,956 642,956 643,956 644,956 645,956 646,956 647,956 648,956 649,956 650,956 651,956 652,956 653,956 654,956 655,956 656,956 657,956 658,956 659,956 660,956 661,956 662,956 663,956 664,955 665,955 666,955 667,955 668,955 669,955 670,955 671,955 672,955 673,955 674,955 675,955 676,954 677,954 678,954 679,954 680,954 681,953 682,953 683,953 684,953 685,953 686,953 687,952 688,952 689,952 690,952 691,952 692,951 693,951 694,951 695,951 696,951 697,950 698,950 699,950 700,950 701,949 702,949 703,949 704,949 705,948 706,948 707,948 708,948 709,947 710,947 711,947 712,946 713,946 714,946 715,945 716,945 717,945 718,944 719,944 720,944 721,944 722,943 723,943 724,943 725,943 726,942 727,942 728,942 729,942 730,941 731,941 732,941 733,940 734,940 735,939 736,939 737,939 738,939 739,938 740,938 741,937 742,937 743,936 744,936 745,935 746,935 747,934 748,934 749,934 749,933 749,932 749,931 749,930 749,929 749,928 749,927 749,926 749,925 749,924 749,923 749,922 749,921 749,920 749,919 749,918 749,917 749,916 749,915 749,914 749,913 749,912 749,911 749,910 749,909 749,908 749,907 749,906 749,905 749,904 749,903 749,902 749,901 749,900 749,899 749,898 749,897 749,896 749,895 749,894 749,893 749,892 749,891 749,890 749,889 749,888 749,887 749,886 749,885 749,884 749,883 749,882 749,881 749,880 749,879 749,878 749,877 749,876 749,875 749,874 749,873 749,872 749,871 749,870 749,869 749,868 749,867 749,866 749,865 749,864 749,863 749,862 749,861 749,860 749,859 749,858 749,857 749,856 749,855 749,854 749,853 749,852 749,851 749,850 749,849 749,848 749,847 749,846 749,845 749,844 749,843 749,842 749,841 749,840 749,839 749,838 749,837 749,836 749,835 749,834 749,833 749,832 749,831 750,830 749,829 750,828 750,827 749,826 750,825 750,824 750,823 750,822 750,821 750,820 750,819 750,818 750,817 750,816 750,815 749,815 748,815 747,815 746,815 745,815 744,815 743,815 742,815 741,815 740,815 739,815 738,815 737,815 736,815 735,815 734,815 733,815 732,815 731,815 730,815 729,815 728,815 727,815 726,815 725,815 724,815 723,815 722,815 721,815 720,815 719,815 718,815 717,815 716,815 715,815 714,815 713,815 712,815 711,815 710,815 709,815 708,815 707,815 706,815 705,815 704,815 703,815 702,815 701,815 700,815 699,815 698,815 697,815 696,815 695,815 694,815 693,815 692,815 691,815 690,815 689,815 688,815 687,815 686,815 685,815 684,815 683,815 682,815 681,815 680,815 679,815 678,815 677,815 676,815 675,815 674,815 673,815 672,815 671,815 670,815 669,815 668,815 667,815 666,815 665,815 664,815 663,815 662,815 661,815 660,815 659,815 658,815 657,815 656,815 655,815 654,815 653,815 652,815 651,815 650,815 649,815 648,815 647,815 646,815 645,815 644,815 643,815 642,815 641,815 640,815 639,815 638,815 637,815 636,815 635,815 634,815 633,815 632,815 631,815 630,815 629,815 628,815 627,815 626,815 625,815 624,815 623,815 622,815 621,815 620,815 619,816 618,816 617,815 616,815 615,815 614,816 613,816 612,816 611,816 610,816 609,816 608,815 607,815 606,816 605,816 604,816 603,816 602,816 601,816 600,816 599,816 598,815">
      <metadata tailDirection="" confidence="0.87" linkedToCharacter="" id="UltraEleven_018_balloon_2" tailTip=""></metadata>
    </polygon>
    <polygon points="671,96 670,97 669,97 668,97 667,97 666,97 665,97 664,97 663,97 662,97 661,98 660,98 659,98 658,98 657,98 656,98 655,98 654,98 653,99 652,99 651,100 650,100 649,101 648,101 647,102 646,102 645,103 644,103 643,104 642,104 641,105 640,105 639,106 638,106 637,107 636,108 635,108 634,109 633,110 632,110 631,111 630,112 629,113 628,114 628,115 627,116 627,117 626,118 626,119 625,120 625,121 625,122 625,123 624,124 624,125 623,126 623,127 623,128 623,129 622,130 622,131 622,132 622,133 621,134 621,135 621,136 621,137 620,138 620,139 620,140 620,141 620,142 619,143 619,144 619,145 619,146 618,147 618,148 618,149 618,150 618,151 618,152 618,153 618,154 618,155 618,156 617,157 618,158 618,159 618,160 618,161 618,162 618,163 618,164 619,165 619,166 619,167 620,168 620,169 620,170 621,171 621,172 622,173 622,174 622,175 623,176 623,177 623,178 624,179 624,180 625,181 626,182 626,183 627,184 628,185 629,186 630,186 631,187 632,188 633,188 634,189 635,189 636,189 637,189 638,190 639,190 640,191 641,191 642,191 643,192 644,193 644,194 645,195 644,196 644,197 645,197 646,196 647,196 648,196 649,196 650,196 651,196 652,197 653,197 654,197 655,198 656,198 657,199 658,199 659,199 660,199 661,199 662,199 663,199 664,199 665,199 666,199 667,199 668,199 669,199 670,199 671,199 672,198 673,198 674,198 675,198 676,198 677,198 678,198 679,197 680,197 681,197 682,197 683,197 684,197 685,197 686,197 687,197 688,196 689,196 690,196 691,196 692,196 693,195 694,195 695,195 696,195 697,195 698,194 699,194 700,194 701,193 702,193 703,192 704,192 705,191 706,190 707,190 708,189 709,188 710,187 711,187 712,186 713,185 714,184 715,183 716,182 717,181 718,180 718,179 719,178 720,177 720,176 721,175 722,174 722,173 723,172 723,171 723,170 724,169 724,168 724,167 724,166 724,165 724,164 725,163 725,162 725,161 725,160 725,159 725,158 725,157 725,156 725,155 725,154 725,153 725,152 725,151 725,150 725,149 725,148 725,147 725,146 725,145 725,144 725,143 725,142 725,141 725,140 725,139 725,138 724,137 724,136 724,135 724,134 724,133 724,132 724,131 724,130 723,129 723,128 723,127 723,126 722,125 722,124 722,123 721,122 721,121 720,120 720,119 719,118 718,117 717,116 716,115 715,114 714,113 713,113 712,112 711,111 710,110 709,109 708,108 707,107 706,107 705,106 704,105 703,104 702,104 701,103 700,102 699,101 698,101 697,100 696,100 695,99 694,99 693,98 692,98 691,98 690,98 689,97 688,97 687,97 686,97 685,97 684,97 683,97 682,97 681,97 680,97 679,97 678,97 677,97 676,97 675,97 674,97 673,97 672,96 671,96">
      <metadata tailDirection="" confidence="0.85" linkedToCharacter="" id="UltraEleven_018_balloon_3" tailTip=""></metadata>
    </polygon>
    <polygon points="219,76 218,77 217,77 216,77 215,77 214,77 213,77 212,77 211,77 210,77 209,77 208,77 207,77 206,77 205,77 204,77 203,77 202,77 201,77 200,77 199,77 198,77 197,77 196,77 195,77 194,77 193,77 192,77 191,77 190,77 189,77 188,77 187,77 186,77 185,77 184,77 183,77 182,77 181,77 180,77 179,77 178,77 177,77 176,77 175,77 174,77 173,77 172,77 171,77 170,77 169,77 168,77 167,77 166,77 165,77 164,77 163,77 162,77 161,77 160,77 159,77 158,77 157,77 156,77 155,77 154,77 153,77 152,77 151,77 150,77 149,77 148,77 147,77 146,77 145,77 144,77 143,77 142,77 141,77 140,77 139,77 138,77 137,77 136,77 135,77 134,77 133,77 132,77 131,77 130,77 129,77 128,77 127,77 126,77 125,77 124,77 123,77 122,77 121,78 120,78 119,79 118,79 117,80 116,81 115,82 114,82 113,83 112,84 111,85 110,86 109,86 108,87 107,88 106,89 105,90 104,91 103,92 102,93 101,94 100,94 99,95 98,96 97,97 96,98 96,99 95,100 94,101 93,102 92,103 91,104 91,105 90,106 89,107 88,108 87,109 87,110 86,111 85,112 84,113 84,114 83,115 83,116 82,117 81,118 81,119 80,120 79,121 79,122 78,123 78,124 77,125 77,126 76,127 75,128 75,129 75,130 74,131 74,132 73,133 73,134 72,135 72,136 72,137 72,138 72,139 72,140 72,141 72,142 72,143 72,144 72,145 72,146 72,147 72,148 72,149 72,150 72,151 72,152 72,153 72,154 72,155 72,156 72,157 72,158 72,159 72,160 72,161 72,162 72,163 72,164 72,165 72,166 72,167 72,168 72,169 71,170 71,171 72,172 72,173 71,174 71,175 71,176 71,177 71,178 71,179 71,180 72,181 72,182 72,183 72,184 72,185 72,186 72,187 72,188 72,189 72,190 72,191 72,192 72,193 72,194 72,195 72,196 72,197 72,198 72,199 72,200 72,201 72,202 72,203 72,204 72,205 72,206 72,207 72,208 72,209 72,210 72,211 72,212 72,213 72,214 72,215 72,216 72,217 72,218 72,219 72,220 72,221 72,222 72,223 72,224 72,225 72,226 72,227 72,228 72,229 72,230 72,231 72,232 72,233 72,234 72,235 72,236 72,237 72,238 72,239 72,240 72,241 72,242 72,243 72,244 72,245 72,246 72,247 72,248 72,249 72,250 72,251 72,252 72,253 72,254 72,255 72,256 72,257 72,258 73,259 73,260 74,261 75,262 76,263 77,264 78,265 79,266 80,267 81,268 82,269 82,270 83,270 84,271 85,272 86,273 87,274 88,275 89,276 90,277 91,277 92,278 93,279 94,280 95,281 96,282 97,282 98,283 99,283 100,284 101,285 102,285 103,286 104,287 105,287 106,288 107,289 108,289 109,290 110,291 111,291 112,291 113,292 114,293 115,293 116,294 116,295 115,296 114,297 113,297 112,297 111,297 110,297 109,297 108,298 107,298 106,298 105,298 104,297 103,297 102,298 101,298 100,298 99,298 98,298 97,298 96,299 95,299 94,299 93,299 92,300 91,300 90,300 89,300 88,301 87,301 86,301 85,301 84,302 83,302 82,302 81,303 80,303 79,303 78,304 77,304 76,305 75,305 74,306 73,306 72,307 72,308 72,309 72,310 72,311 72,312 72,313 72,314 72,315 72,316 72,317 72,318 72,319 72,320 72,321 72,322 72,323 72,324 72,325 72,326 72,327 72,328 72,329 72,330 72,331 72,332 72,333 72,334 72,335 72,336 72,337 72,338 72,339 72,340 72,341 72,342 72,343 72,344 72,345 72,346 72,347 72,348 72,349 72,350 72,351 72,352 72,353 72,354 72,355 72,356 72,357 72,358 72,359 72,360 72,361 72,362 72,363 72,364 72,365 72,366 72,367 72,368 72,369 72,370 72,371 72,372 72,373 72,374 72,375 72,376 72,377 72,378 72,379 72,380 72,381 72,382 72,383 72,384 72,385 72,386 72,387 72,388 72,389 72,390 72,391 72,392 72,393 72,394 72,395 72,396 72,397 72,398 72,399 72,400 72,401 72,402 72,403 72,404 72,405 72,406 72,407 72,408 72,409 72,410 72,411 72,412 72,413 72,414 72,415 72,416 72,417 72,418 72,419 72,420 72,421 72,422 72,423 72,424 72,425 72,426 72,427 72,428 73,429 73,430 73,431 73,432 73,433 73,434 72,435 72,436 72,437 72,438 72,439 72,440 72,441 72,442 72,443 72,444 72,445 72,446 72,447 72,448 72,449 72,450 72,451 72,452 72,453 72,454 72,455 72,456 72,457 72,458 72,459 72,460 72,461 72,462 72,463 73,464 73,465 72,466 72,467 72,468 73,469 73,470 73,471 73,472 72,473 73,473 74,473 75,473 76,473 77,473 78,473 79,473 80,473 81,473 82,473 83,473 84,473 85,473 86,473 87,473 88,473 89,473 90,473 91,473 92,473 93,473 94,473 95,473 96,473 97,473 98,473 99,473 100,473 101,473 102,473 103,473 104,473 105,473 106,473 107,473 108,473 109,473 110,473 111,473 112,473 113,473 114,473 115,473 116,473 117,473 118,473 119,473 120,473 121,473 122,473 123,473 124,473 125,473 126,473 127,473 128,473 129,473 130,473 131,473 132,473 133,473 134,473 135,473 136,473 137,473 138,473 139,473 140,473 141,473 142,473 143,473 144,473 145,473 146,473 147,473 148,473 149,473 150,473 151,473 152,473 153,473 154,473 155,473 156,473 157,473 158,473 159,473 160,473 161,473 162,473 163,473 164,473 165,473 166,473 167,473 168,473 169,473 170,473 171,473 172,473 173,473 174,473 175,473 176,473 177,473 178,473 179,473 180,473 181,473 182,473 183,473 184,473 185,473 186,473 187,473 188,473 189,473 190,473 191,473 192,473 193,473 194,473 195,473 196,473 197,473 198,473 199,473 200,473 201,473 202,473 203,472 204,472 205,472 206,471 207,471 208,471 209,470 210,470 211,470 212,469 213,468 214,467 215,467 216,466 217,466 218,465 219,464 220,463 221,462 222,461 223,460 224,459 225,458 226,457 226,456 227,455 228,454 229,453 230,452 231,451 232,450 232,449 233,448 233,447 234,446 235,445 235,444 236,443 236,442 237,441 238,440 238,439 238,438 239,437 240,436 240,435 240,434 241,433 241,432 241,431 242,430 242,429 243,428 243,427 243,426 243,425 244,424 244,423 244,422 245,421 245,420 246,419 246,418 246,417 247,416 247,415 247,414 247,413 247,412 247,411 247,410 248,409 248,408 248,407 248,406 248,405 248,404 248,403 247,402 247,401 247,400 247,399 246,398 246,397 245,396 245,395 244,394 243,393 242,392 241,391 241,390 240,389 239,388 239,387 238,386 237,385 236,384 236,383 235,382 235,381 235,380 236,379 236,378 237,377 238,377 237,377 236,376 236,375 236,374 237,373 236,372 235,372 234,371 233,370 232,369 232,368 231,367 231,366 232,365 233,364 234,363 234,362 235,361 235,360 235,359 235,358 236,357 236,356 235,355 235,354 235,353 235,352 234,351 234,350 234,349 233,348 232,347 232,346 232,345 231,344 231,343 231,342 230,341 230,340 229,339 229,338 228,337 228,336 228,335 227,334 226,333 225,332 225,331 224,330 224,329 223,328 222,327 221,326 220,325 219,324 218,323 217,322 216,321 215,320 214,320 213,319 212,319 211,318 210,317 209,317 208,316 207,316 206,315 205,315 204,314 203,314 202,313 201,313 200,312 199,311 198,311 197,311 196,310 195,310 194,309 193,309 192,308 191,307 190,307 189,307 188,307 187,306 186,306 185,305 184,305 183,304 182,304 181,304 180,304 179,304 178,303 178,302 178,301 177,300 178,299 179,298 180,298 181,298 182,298 183,298 184,298 185,298 186,298 187,297 188,297 189,297 190,297 191,297 192,297 193,297 194,297 195,297 196,296 197,296 198,296 199,296 200,296 201,296 202,296 203,296 204,296 205,296 206,295 207,295 208,295 209,295 210,295 211,295 212,295 213,295 214,294 215,294 216,294 217,294 218,293 219,293 220,292 221,292 222,291 223,291 224,291 225,290 226,290 227,290 228,289 229,289 230,288 231,288 232,288 233,287 234,287 235,286 236,286 237,285 238,285 239,284 240,284 241,283 242,283 243,282 244,281 245,280 246,279 247,279 248,278 249,277 249,276 250,275 251,275 252,274 253,273 254,272 255,271 256,270 256,269 257,268 258,267 258,266 259,265 259,264 260,263 260,262 261,261 261,260 262,259 263,258 263,257 264,256 265,255 265,254 266,253 266,252 267,251 267,250 268,249 268,248 269,247 269,246 270,245 270,244 270,243 271,242 271,241 271,240 272,239 272,238 273,237 273,236 273,235 274,234 274,233 274,232 275,231 275,230 276,229 276,228 276,227 277,226 277,225 277,224 277,223 278,222 278,221 278,220 278,219 279,218 279,217 279,216 279,215 279,214 279,213 280,212 280,211 280,210 280,209 280,208 280,207 280,206 280,205 280,204 280,203 280,202 280,201 280,200 281,199 281,198 281,197 281,196 281,195 281,194 281,193 281,192 281,191 281,190 281,189 281,188 281,187 281,186 281,185 281,184 282,183 282,182 282,181 282,180 282,179 282,178 282,177 282,176 282,175 282,174 282,173 282,172 282,171 281,170 281,169 281,168 281,167 281,166 281,165 281,164 281,163 281,162 281,161 281,160 280,159 280,158 280,157 280,156 280,155 280,154 280,153 280,152 279,151 279,150 279,149 279,148 279,147 278,146 278,145 278,144 278,143 278,142 277,141 277,140 277,139 277,138 277,137 276,136 276,135 276,134 275,133 275,132 275,131 274,130 274,129 274,128 274,127 273,126 273,125 273,124 272,123 271,122 271,121 271,120 270,119 269,118 269,117 268,116 268,115 267,114 267,113 266,112 265,111 264,110 264,109 263,108 262,107 261,106 261,105 260,104 259,103 258,102 257,101 256,100 255,99 254,98 253,97 252,97 251,96 250,95 249,95 248,94 247,93 246,93 245,92 244,91 243,90 242,90 241,89 240,89 239,88 238,87 237,87 236,86 235,85 234,85 233,84 232,84 231,83 230,83 229,82 228,81 227,81 226,80 225,80 224,79 223,78 222,78 221,77 220,77 219,76">
      <metadata tailDirection="" confidence="0.86" linkedToCharacter="" id="UltraEleven_018_balloon_4" tailTip=""></metadata>
    </polygon>
  </svg>
</svg>
