<?xml version="1.0" encoding="UTF-8" standalone="no"?>
<svg width="827" xmlns="http://www.w3.org/2000/svg" version="1.0" height="1170">
  <title>UltraEleven_142</title>
  <svg contentScriptType="text/ecmascript" zoomAndPan="magnify" contentStyleType="text/css" class="Page" preserveAspectRatio="xMidYMid meet" version="1.0">
    <image xmlns:xlink="http://www.w3.org/1999/xlink" x="0" y="0" width="827" height="1170" xlink:href="./../../dataset_Manga109/UltraEleven/UltraEleven_142.jpg" xlink:type="simple" xlink:actuate="onLoad" preserveAspectRatio="xMidYMid meet" xlink:show="embed"/>
  </svg>
  <style type="text/css" xml:space="preserve">
        * { stroke-linejoin: round; }
        .Unclassified   { fill: orange; stroke: none;   opacity: 1.0; visibility: hidden; }
        .Noise          { fill: pink;   stroke: none;   opacity: 0.2; visibility: hidden; }
        .Panel          { fill: none;   stroke: red;    stroke-width:3; opacity: 0.5; visibility: visible; image-rendering: optimizeSpeed; }
        .Line           { fill: green;  stroke: none;   opacity: 0.5; visibility: visible; image-rendering: optimizeSpeed; }
        .TextArea       { fill: grey;   stroke: none;   opacity: 0.2; visibility: visible; image-rendering: optimizeSpeed; }
        .Balloon        { fill: cyan;   stroke: none;   opacity: 0.5; visibility: visible; image-rendering: optimizeSpeed; }
        .Letter         { fill: blue;   stroke: none;   opacity: 0.2; visibility: hidden; }
        .Object, .Character, .Face  { fill: yellow; stroke: none;   opacity: 0.5; visibility: visible; image-rendering: optimizeSpeed; }
        .Page           { fill: white;  stroke: none;    opacity: 0.5; visibility: visible; }
        .linkSBSC { fill: blue; stroke: none; opacity: 1.0; visibility: visible; }
        polygon:hover { opacity:1.0; stroke:red; }
</style>
  <svg xmlns="http://www.w3.org/2000/svg" contentScriptType="text/ecmascript" zoomAndPan="magnify" contentStyleType="text/css" class="Balloon" preserveAspectRatio="xMidYMid meet" version="1.0">
    <polygon points="174,832 175,833 175,834 175,835 175,836 175,837 174,838 174,839 173,840 173,841 172,842 171,843 171,844 170,845 169,846 168,847 167,848 166,849 166,850 165,851 164,852 163,853 162,854 161,855 162,855 163,855 164,855 165,855 166,856 167,856 168,856 169,857 170,858 171,859 171,860 171,861 171,862 171,863 171,864 171,865 170,866 170,867 169,868 169,869 168,870 167,871 167,872 166,873 165,874 164,875 165,875 166,876 167,876 168,877 169,878 170,879 171,880 171,881 171,882 171,883 171,884 171,885 171,886 171,887 171,888 170,889 170,890 170,891 169,892 169,893 168,894 168,895 167,896 167,897 166,898 166,899 165,900 164,901 163,902 163,903 162,904 161,905 160,906 161,906 162,906 163,907 164,907 165,908 166,909 167,910 167,911 168,912 168,913 168,914 168,915 168,916 168,917 168,918 168,919 168,920 168,921 167,922 167,923 167,924 166,925 166,926 165,927 165,928 164,929 164,930 165,930 166,930 167,930 168,930 169,930 170,931 171,932 172,933 173,934 173,935 173,936 174,937 174,938 174,939 174,940 174,941 174,942 174,943 174,944 174,945 174,946 174,947 174,948 173,949 173,950 173,951 173,952 173,953 172,954 172,955 172,956 172,957 171,958 171,959 171,960 171,961 170,962 170,963 169,964 169,965 168,966 168,967 169,967 170,966 171,966 172,965 173,965 174,965 175,964 176,964 177,964 178,964 179,965 180,965 181,966 182,967 183,968 184,969 185,970 185,971 186,972 186,973 187,974 187,975 187,976 188,977 188,978 188,979 188,980 188,981 188,982 188,983 188,984 188,985 188,986 188,987 188,988 189,987 190,986 191,986 192,985 193,985 194,985 195,985 196,985 197,985 198,986 199,987 200,988 200,989 201,990 201,991 201,992 202,993 202,994 202,995 202,994 203,993 203,992 204,991 204,990 204,989 205,988 205,987 206,986 206,985 207,984 208,983 208,982 209,981 210,981 211,980 212,979 213,979 214,978 215,978 216,977 217,977 218,977 219,977 220,977 221,977 222,977 223,978 224,978 224,977 225,976 225,975 226,974 227,973 228,972 229,971 230,971 230,970 230,969 230,968 230,967 230,966 230,965 230,964 230,963 230,962 230,961 230,960 231,959 231,958 231,957 231,956 231,955 231,954 231,953 231,952 231,951 231,950 231,949 231,948 231,947 231,946 231,945 231,944 231,943 231,942 231,941 231,940 231,939 231,938 231,937 231,936 231,935 231,934 231,933 231,932 231,931 231,930 231,929 231,928 231,927 231,926 231,925 231,924 231,923 231,922 231,921 231,920 231,919 231,918 231,917 231,916 231,915 231,914 231,913 231,912 231,911 231,910 231,909 231,908 231,907 231,906 231,905 231,904 231,903 231,902 231,901 231,900 231,899 231,898 231,897 231,896 231,895 231,894 231,893 231,892 231,891 231,890 231,889 231,888 231,887 231,886 231,885 231,884 231,883 231,882 231,881 231,880 231,879 231,878 231,877 231,876 231,875 231,874 231,873 231,872 231,871 231,870 231,869 231,868 231,867 231,866 231,865 231,864 231,863 231,862 231,861 231,860 231,859 231,858 231,857 231,856 231,855 231,854 231,853 231,852 231,851 231,850 231,849 231,848 231,847 231,846 231,845 231,844 231,843 231,842 231,841 231,840 231,839 231,838 231,837 231,836 231,835 231,834 231,833 231,832 230,832 229,832 228,832 227,832 226,832 225,832 224,832 223,832 222,832 221,832 220,832 219,832 218,832 217,832 216,832 215,832 214,832 213,832 212,832 211,832 210,832 209,832 208,832 207,832 206,832 205,832 204,832 203,832 202,832 201,832 200,832 199,832 198,832 197,832 196,832 195,832 194,832 193,832 192,832 191,832 190,832 189,832 188,832 187,832 186,832 185,832 184,832 183,832 182,832 181,832 180,832 179,832 178,832 177,832 176,832 175,832 174,832">
      <metadata tailDirection="" confidence="0.91" linkedToCharacter="" id="UltraEleven_142_balloon_0" tailTip=""></metadata>
    </polygon>
    <polygon points="196,672 195,673 194,673 193,673 192,673 191,673 190,673 189,673 188,673 187,673 186,674 185,674 184,674 183,675 182,675 181,676 180,677 179,678 178,679 177,679 176,680 175,681 174,681 173,682 172,683 171,684 170,685 169,686 168,687 167,688 166,689 165,690 164,690 163,691 163,692 162,693 161,693 160,694 160,695 160,696 159,697 159,698 159,699 159,700 159,701 158,702 158,703 158,704 157,705 157,706 157,707 157,708 157,709 156,710 156,711 156,712 156,713 155,714 155,715 155,716 155,717 155,718 155,719 154,720 154,721 154,722 154,723 154,724 154,725 154,726 154,727 154,728 154,729 153,730 153,731 153,732 153,733 153,734 153,735 153,736 153,737 153,738 153,739 153,740 153,741 153,742 153,743 153,744 153,745 153,746 154,747 154,748 155,749 155,750 155,751 156,752 156,753 157,754 157,755 158,756 158,757 159,758 159,759 160,760 161,761 161,762 162,763 163,764 163,765 164,766 164,767 165,768 166,769 166,770 167,771 168,772 168,773 169,774 170,775 170,776 171,777 172,778 173,779 174,780 175,781 176,782 176,783 177,784 178,785 179,786 180,786 181,787 182,787 183,787 184,787 185,788 186,788 187,788 188,788 189,788 190,788 191,788 192,789 193,789 194,789 195,789 196,789 197,790 198,790 199,790 200,790 201,790 202,790 203,790 204,791 205,791 206,791 207,791 208,791 209,791 210,791 211,791 212,790 213,789 214,788 215,788 216,787 217,786 218,785 219,784 220,783 221,782 222,781 223,780 224,779 225,778 225,777 226,776 227,775 228,774 229,773 229,772 230,771 231,770 232,769 232,768 233,767 233,766 233,765 234,764 234,763 234,762 235,761 235,760 235,759 235,758 236,757 236,756 236,755 236,754 236,753 236,752 236,751 237,750 237,749 237,748 237,747 237,746 237,745 238,744 238,743 238,742 238,741 238,740 238,739 238,738 238,737 238,736 238,735 238,734 238,733 239,732 238,731 239,730 239,729 239,728 239,727 239,726 239,725 239,724 239,723 239,722 239,721 239,720 239,719 239,718 239,717 239,716 239,715 239,714 239,713 239,712 239,711 239,710 239,709 239,708 239,707 239,706 239,705 239,704 239,703 239,702 239,701 239,700 238,699 238,698 238,697 237,696 237,695 236,694 236,693 235,692 235,691 234,690 233,689 233,688 232,687 231,686 231,685 230,684 229,683 229,682 228,681 227,680 226,679 225,678 224,678 223,677 222,676 221,675 220,675 219,674 218,674 217,674 216,674 215,673 214,673 213,673 212,673 211,673 210,673 209,673 208,673 207,673 206,673 205,673 204,673 203,673 202,673 201,673 200,673 199,673 198,673 197,673 196,672">
      <metadata tailDirection="" confidence="0.86" linkedToCharacter="" id="UltraEleven_142_balloon_1" tailTip=""></metadata>
    </polygon>
    <polygon points="744,728 743,729 742,729 741,730 740,730 739,731 738,731 737,731 736,732 735,732 734,733 733,733 732,734 731,734 730,735 729,735 728,735 727,736 726,736 725,737 724,737 723,738 722,738 721,738 720,739 719,739 718,740 717,740 716,741 715,741 714,741 713,742 712,742 711,743 710,743 709,744 708,744 707,745 706,745 705,745 704,746 703,747 702,747 701,747 700,748 699,748 698,749 697,749 696,750 695,750 694,751 693,751 692,751 691,752 690,753 689,753 688,754 687,754 686,754 685,755 684,755 683,756 682,757 681,757 680,757 679,758 678,759 677,759 676,760 675,760 674,761 673,761 672,762 671,762 670,763 669,763 668,763 667,762 666,763 665,763 664,764 663,764 662,765 661,765 660,766 659,766 658,767 657,767 656,768 655,768 654,769 653,769 652,769 651,770 650,770 649,771 648,771 647,772 646,772 645,773 644,773 643,774 642,775 641,775 640,775 639,776 638,776 637,777 636,777 635,778 634,778 633,779 632,779 631,780 630,780 629,781 628,781 627,782 626,782 625,783 624,783 623,784 622,785 621,785 620,786 619,786 618,787 617,787 616,788 615,789 614,790 613,790 612,791 611,791 610,792 609,792 608,793 607,793 606,793 605,794 604,794 603,795 602,795 601,796 600,796 599,797 598,798 597,798 596,799 595,799 594,800 593,800 592,801 593,801 594,801 595,801 596,801 597,801 598,801 599,801 600,801 601,801 602,801 603,801 604,801 605,801 606,801 607,801 608,801 609,801 610,801 611,801 612,801 613,801 614,801 615,801 616,801 617,801 618,801 619,801 620,801 621,801 622,801 623,801 624,801 625,801 626,801 627,801 628,801 629,801 630,801 631,801 632,801 633,801 634,801 635,801 636,801 637,801 638,801 639,801 640,801 641,801 642,801 643,801 644,801 645,801 646,801 647,801 648,801 649,801 650,801 651,801 652,801 653,801 654,801 655,801 656,801 657,801 658,801 659,801 660,801 661,801 662,801 663,801 664,801 665,801 666,801 667,801 668,801 669,801 670,801 671,801 672,801 673,801 674,801 675,801 676,801 677,801 678,801 679,801 680,801 681,801 682,801 683,801 684,801 685,801 686,801 687,801 688,801 689,801 690,801 691,801 692,801 693,801 694,801 695,801 696,801 697,801 698,801 699,801 700,801 701,801 702,801 703,801 704,801 705,801 706,801 707,801 708,801 709,801 710,801 711,801 712,801 713,801 714,801 715,801 716,801 717,801 718,801 719,801 720,801 721,801 722,801 723,801 724,801 725,801 726,801 727,801 728,801 729,801 730,801 731,801 732,801 733,801 734,801 735,801 736,801 737,801 737,800 737,799 738,798 738,797 739,796 740,795 740,794 741,793 741,792 742,791 742,790 743,789 744,788 744,787 745,786 745,785 745,784 745,783 745,782 745,781 745,780 745,779 745,778 745,777 745,776 746,775 745,774 745,773 745,772 745,771 745,770 746,769 746,768 746,767 746,766 746,765 746,764 746,763 746,762 746,761 746,760 746,759 746,758 746,757 746,756 746,755 746,754 746,753 746,752 746,751 746,750 746,749 746,748 746,747 746,746 746,745 746,744 746,743 746,742 746,741 746,740 746,739 746,738 746,737 746,736 746,735 746,734 746,733 746,732 746,731 746,730 746,729 746,728 745,728 744,728">
      <metadata tailDirection="" confidence="0.80" linkedToCharacter="" id="UltraEleven_142_balloon_2" tailTip=""></metadata>
    </polygon>
    <polygon points="381,366 380,367 379,368 379,369 378,370 377,371 376,372 375,373 374,374 373,375 372,376 372,377 371,378 370,379 370,380 369,381 369,382 369,383 369,384 369,385 368,386 368,387 368,388 368,389 367,390 367,391 367,392 367,393 367,394 366,395 366,396 366,397 366,398 366,399 366,400 365,401 365,402 365,403 365,404 365,405 365,406 365,407 365,408 365,409 364,410 364,411 364,412 364,413 364,414 364,415 363,416 363,417 363,418 363,419 363,420 363,421 364,422 364,423 364,424 364,425 365,426 365,427 366,428 366,429 367,430 367,431 367,432 368,433 368,434 369,435 369,436 370,437 371,438 371,439 371,440 372,441 373,442 373,443 374,444 375,445 375,446 376,447 377,448 378,449 378,450 378,451 377,452 376,453 375,452 374,452 373,452 372,452 371,451 370,451 369,451 368,451 367,451 366,451 365,451 364,451 363,451 362,451 361,451 360,451 359,451 359,452 359,453 359,454 359,455 359,456 359,457 359,458 359,459 359,460 359,461 359,462 359,463 359,464 359,465 359,466 359,467 359,468 359,469 359,470 359,471 359,472 359,473 359,474 359,475 359,476 359,477 359,478 359,479 359,480 359,481 359,482 359,483 359,484 359,485 359,486 359,487 359,488 359,489 359,490 359,491 359,492 359,493 359,494 359,495 359,496 359,497 359,498 359,499 359,500 359,501 359,502 359,503 359,504 359,505 359,506 359,507 359,508 359,509 359,510 359,511 359,512 359,513 359,514 359,515 359,516 359,517 359,518 359,519 359,520 359,521 359,522 359,523 359,524 359,525 359,526 359,527 359,528 359,529 359,530 359,531 359,532 359,533 359,534 359,535 359,536 359,537 359,538 359,539 359,540 359,541 359,542 359,543 359,544 359,545 359,546 359,547 359,548 359,549 359,550 359,551 359,552 359,553 359,554 359,555 359,556 359,557 358,558 358,559 359,560 359,561 359,562 359,563 359,564 359,565 359,566 359,567 359,568 359,569 359,570 359,571 359,572 359,573 359,574 359,575 359,576 359,577 358,578 358,579 358,580 358,581 358,582 358,583 358,584 358,585 358,586 358,587 358,588 358,589 358,590 358,591 358,592 359,593 360,594 361,595 362,596 363,596 364,597 365,598 366,598 367,599 368,599 369,600 370,601 371,601 372,601 373,602 374,602 375,603 376,603 377,603 378,604 379,604 380,605 381,605 382,606 383,606 384,606 385,606 386,606 387,606 388,606 389,606 390,605 391,605 392,605 393,604 394,604 395,604 396,603 397,603 398,603 399,602 400,602 401,602 402,601 403,601 404,600 405,600 406,599 407,599 408,599 409,598 410,598 411,597 412,597 413,596 414,596 415,595 416,595 417,594 418,594 419,594 420,594 421,595 422,595 423,595 424,595 425,596 426,596 427,596 428,597 428,596 427,595 426,594 425,593 425,592 424,591 424,590 424,589 424,588 424,587 424,586 424,585 425,584 426,583 426,582 427,581 427,580 428,579 428,578 429,577 429,576 430,575 430,574 431,573 431,572 432,571 432,570 433,569 434,568 435,567 436,566 436,565 437,564 437,563 438,562 439,561 439,560 440,559 440,558 440,557 441,556 441,555 442,554 442,553 443,552 443,551 444,550 444,549 444,548 445,547 445,546 446,545 446,544 446,543 446,542 447,541 447,540 447,539 447,538 447,537 447,536 447,535 447,534 447,533 447,532 447,531 447,530 447,529 447,528 447,527 447,526 447,525 447,524 447,523 447,522 447,521 447,520 447,519 447,518 447,517 447,516 447,515 447,514 447,513 447,512 447,511 447,510 447,509 447,508 447,507 447,506 447,505 447,504 446,503 446,502 446,501 446,500 446,499 446,498 446,497 446,496 446,495 446,494 445,493 445,492 445,491 444,490 444,489 443,488 443,487 442,486 442,485 441,484 441,483 440,482 439,481 439,480 438,479 437,478 437,477 436,476 437,475 438,474 439,473 440,473 441,472 442,471 443,470 444,469 445,468 446,468 447,467 448,466 449,465 450,464 451,463 452,462 453,462 454,461 455,460 456,459 457,458 458,457 459,456 460,455 461,454 462,454 463,453 464,452 465,451 466,450 467,449 468,448 469,447 470,446 470,445 471,444 472,443 472,442 473,441 473,440 474,439 474,438 474,437 474,436 474,435 474,434 474,433 474,432 474,431 475,430 475,429 475,428 475,427 475,426 475,425 475,424 475,423 475,422 475,421 475,420 475,419 475,418 475,417 475,416 474,415 474,414 474,413 474,412 474,411 474,410 474,409 474,408 474,407 474,406 474,405 474,404 473,403 473,402 473,401 473,400 473,399 473,398 473,397 472,396 472,395 472,394 472,393 472,392 472,391 471,390 471,389 471,388 471,387 471,386 470,385 470,384 470,383 470,382 469,381 469,380 468,379 468,378 467,377 466,376 465,375 464,374 463,373 462,372 461,371 460,370 459,370 458,369 457,368 456,367 455,366 454,366 453,366 452,366 451,366 450,366 449,366 448,366 447,366 446,366 445,366 444,366 443,366 442,366 441,366 440,366 439,366 438,366 437,366 436,366 435,366 434,366 433,366 432,366 431,366 430,366 429,366 428,366 427,366 426,366 425,366 424,366 423,366 422,366 421,366 420,366 419,366 418,366 417,366 416,366 415,366 414,366 413,366 412,366 411,366 410,366 409,366 408,366 407,366 406,366 405,366 404,366 403,366 402,366 401,366 400,366 399,366 398,366 397,366 396,366 395,366 394,366 393,366 392,366 391,366 390,366 389,366 388,366 387,366 386,366 385,366 384,366 383,366 382,366 381,366">
      <metadata tailDirection="" confidence="0.87" linkedToCharacter="" id="UltraEleven_142_balloon_3" tailTip=""></metadata>
    </polygon>
    <polygon points="239,366 238,367 237,367 236,368 235,369 234,370 233,371 232,372 231,373 230,373 229,374 228,375 227,376 226,376 225,377 224,378 223,379 222,380 221,381 220,382 219,383 219,384 218,385 218,386 218,387 218,388 217,389 217,390 217,391 217,392 217,393 217,394 217,395 217,396 217,397 216,398 216,399 216,400 216,401 216,402 216,403 216,404 216,405 216,406 216,407 216,408 216,409 216,410 216,411 216,412 216,413 216,414 216,415 216,416 216,417 216,418 216,419 215,420 216,421 216,422 215,423 215,424 215,425 215,426 215,427 215,428 215,429 215,430 215,431 215,432 215,433 215,434 215,435 215,436 215,437 215,438 215,439 215,440 215,441 215,442 215,443 215,444 215,445 216,446 215,447 215,448 215,449 215,450 216,451 216,452 216,453 216,454 216,455 216,456 216,457 216,458 216,459 216,460 216,461 216,462 216,463 216,464 216,465 216,466 216,467 216,468 217,469 217,470 217,471 217,472 217,473 217,474 217,475 217,476 217,477 217,478 217,479 217,480 217,481 217,482 217,483 217,484 217,485 217,486 217,487 218,488 218,489 218,490 218,491 218,492 218,493 219,494 219,495 219,496 220,497 220,498 221,499 222,500 222,501 223,502 224,503 225,504 226,505 227,505 228,506 229,507 230,508 231,508 232,509 233,510 234,510 235,511 236,511 237,512 238,513 239,513 240,514 241,514 242,515 243,516 244,516 245,517 246,518 247,519 248,520 249,521 249,522 250,523 250,524 250,525 250,526 250,527 250,528 250,529 251,530 252,530 253,529 254,529 255,529 256,529 257,530 258,530 259,530 260,530 261,531 262,531 263,532 264,532 265,533 266,533 267,533 268,534 269,534 270,535 271,535 272,535 273,535 274,535 275,535 276,535 277,536 278,536 279,536 280,536 281,535 282,535 283,535 284,535 285,535 286,535 287,535 288,535 289,535 290,535 291,535 292,535 293,535 294,535 295,534 296,534 297,534 298,534 299,534 300,534 301,533 302,533 303,533 304,533 305,532 306,532 307,532 308,531 309,531 310,531 311,530 312,530 313,530 314,529 315,529 316,529 317,529 318,528 319,528 320,528 321,527 322,527 323,527 324,526 325,526 326,525 327,525 328,524 329,524 330,523 331,522 331,521 332,520 333,520 334,519 335,518 336,517 337,516 338,515 339,514 340,513 341,512 341,511 342,510 343,509 343,508 344,507 345,506 346,505 346,504 346,503 346,502 346,501 346,500 346,499 346,498 346,497 346,496 346,495 346,494 346,493 346,492 346,491 346,490 346,489 346,488 346,487 346,486 346,485 346,484 346,483 346,482 346,481 346,480 346,479 346,478 346,477 346,476 346,475 346,474 346,473 346,472 346,471 346,470 346,469 346,468 346,467 346,466 346,465 346,464 346,463 346,462 346,461 346,460 346,459 346,458 346,457 346,456 346,455 346,454 346,453 346,452 346,451 346,450 346,449 346,448 346,447 346,446 346,445 346,444 346,443 346,442 346,441 346,440 346,439 346,438 346,437 346,436 346,435 346,434 346,433 346,432 346,431 346,430 346,429 346,428 346,427 346,426 346,425 346,424 346,423 346,422 346,421 346,420 347,419 347,418 346,417 346,416 347,415 347,414 346,413 347,412 347,411 347,410 347,409 347,408 347,407 347,406 347,405 347,404 347,403 347,402 346,401 346,400 346,399 346,398 347,397 347,396 346,395 346,394 347,393 347,392 347,391 347,390 347,389 347,388 347,387 347,386 347,385 347,384 347,383 347,382 347,381 347,380 347,379 347,378 347,377 347,376 347,375 346,374 346,373 347,372 347,371 347,370 347,369 347,368 347,367 346,366 345,366 344,366 343,366 342,366 341,366 340,366 339,366 338,366 337,366 336,366 335,366 334,366 333,366 332,366 331,366 330,366 329,366 328,366 327,366 326,366 325,366 324,366 323,366 322,366 321,366 320,366 319,366 318,366 317,366 316,366 315,366 314,366 313,366 312,366 311,366 310,366 309,366 308,366 307,366 306,366 305,366 304,366 303,366 302,366 301,366 300,366 299,366 298,366 297,366 296,366 295,366 294,366 293,366 292,366 291,366 290,366 289,366 288,366 287,366 286,366 285,366 284,366 283,366 282,366 281,366 280,366 279,366 278,366 277,366 276,366 275,366 274,366 273,366 272,366 271,366 270,366 269,366 268,366 267,366 266,366 265,366 264,366 263,366 262,366 261,366 260,366 259,366 258,366 257,366 256,366 255,366 254,366 253,366 252,366 251,366 250,366 249,366 248,366 247,366 246,366 245,366 244,366 243,366 242,366 241,366 240,366 239,366">
      <metadata tailDirection="" confidence="0.93" linkedToCharacter="" id="UltraEleven_142_balloon_4" tailTip=""></metadata>
    </polygon>
  </svg>
</svg>
