<?xml version="1.0" encoding="UTF-8" standalone="no"?>
<svg width="827" xmlns="http://www.w3.org/2000/svg" version="1.0" height="1170">
  <title>UltraEleven_098</title>
  <svg contentScriptType="text/ecmascript" zoomAndPan="magnify" contentStyleType="text/css" class="Page" preserveAspectRatio="xMidYMid meet" version="1.0">
    <image xmlns:xlink="http://www.w3.org/1999/xlink" x="0" y="0" width="827" height="1170" xlink:href="./../../dataset_Manga109/UltraEleven/UltraEleven_098.jpg" xlink:type="simple" xlink:actuate="onLoad" preserveAspectRatio="xMidYMid meet" xlink:show="embed"/>
  </svg>
  <style type="text/css" xml:space="preserve">
        * { stroke-linejoin: round; }
        .Unclassified   { fill: orange; stroke: none;   opacity: 1.0; visibility: hidden; }
        .Noise          { fill: pink;   stroke: none;   opacity: 0.2; visibility: hidden; }
        .Panel          { fill: none;   stroke: red;    stroke-width:3; opacity: 0.5; visibility: visible; image-rendering: optimizeSpeed; }
        .Line           { fill: green;  stroke: none;   opacity: 0.5; visibility: visible; image-rendering: optimizeSpeed; }
        .TextArea       { fill: grey;   stroke: none;   opacity: 0.2; visibility: visible; image-rendering: optimizeSpeed; }
        .Balloon        { fill: cyan;   stroke: none;   opacity: 0.5; visibility: visible; image-rendering: optimizeSpeed; }
        .Letter         { fill: blue;   stroke: none;   opacity: 0.2; visibility: hidden; }
        .Object, .Character, .Face  { fill: yellow; stroke: none;   opacity: 0.5; visibility: visible; image-rendering: optimizeSpeed; }
        .Page           { fill: white;  stroke: none;    opacity: 0.5; visibility: visible; }
        .linkSBSC { fill: blue; stroke: none; opacity: 1.0; visibility: visible; }
        polygon:hover { opacity:1.0; stroke:red; }
</style>
  <svg xmlns="http://www.w3.org/2000/svg" contentScriptType="text/ecmascript" zoomAndPan="magnify" contentStyleType="text/css" class="Balloon" preserveAspectRatio="xMidYMid meet" version="1.0">
    <polygon points="643,861 642,862 642,863 641,864 641,865 640,866 639,867 639,868 638,869 637,870 637,871 636,872 635,873 634,874 633,874 632,875 631,875 630,875 629,874 628,873 627,872 627,873 627,874 626,875 626,876 625,877 625,878 624,879 623,880 622,881 621,882 620,882 619,883 618,884 618,885 618,886 618,887 618,888 618,889 618,890 618,891 617,892 617,893 616,894 615,895 614,896 613,897 612,898 611,898 610,899 609,899 608,899 608,900 608,901 608,902 608,903 608,904 608,905 607,906 607,907 607,908 606,909 606,910 605,911 605,912 604,913 603,914 602,915 602,916 601,917 600,918 599,919 599,920 598,921 597,921 596,922 595,923 594,923 593,924 592,925 593,925 594,925 595,926 596,926 597,927 598,927 599,928 600,929 600,930 601,931 601,932 601,933 602,934 602,935 602,936 602,937 602,938 601,939 601,940 601,941 601,942 601,943 600,944 600,945 599,946 599,947 598,948 598,949 599,949 600,950 601,950 602,950 603,951 603,952 603,953 604,953 605,954 606,954 607,955 607,956 607,957 607,958 607,959 606,960 606,961 605,962 605,963 604,964 603,965 603,966 604,965 605,965 606,964 607,964 608,964 609,964 610,964 611,965 612,965 613,966 613,967 614,968 614,969 615,969 616,968 617,968 618,968 619,968 620,967 621,967 622,967 623,967 624,966 625,966 626,966 627,966 628,966 629,965 630,965 631,965 632,965 633,964 634,964 635,964 636,964 637,964 638,963 639,963 640,963 641,963 642,962 643,962 644,962 645,962 646,962 647,961 648,961 649,961 650,961 651,960 652,960 653,960 654,960 655,959 656,959 657,959 658,959 659,959 660,958 661,958 662,958 663,958 664,958 665,957 666,957 667,957 668,956 669,956 670,956 671,956 672,956 673,955 674,955 675,955 676,955 676,954 676,953 675,952 675,951 675,950 675,949 674,948 674,947 674,946 674,945 673,944 673,943 673,942 673,941 672,940 672,939 672,938 672,937 671,936 671,935 671,934 671,933 671,932 670,931 670,930 670,929 670,928 670,927 669,926 669,925 669,924 669,923 668,922 668,921 668,920 668,919 667,918 667,917 667,916 667,915 666,914 666,913 666,912 666,911 666,910 665,909 665,908 665,907 665,906 665,905 664,904 664,903 664,902 664,901 663,900 663,899 663,898 663,897 663,896 662,895 662,894 662,893 662,892 661,891 661,890 661,889 661,888 661,887 660,886 660,885 660,884 660,883 660,882 659,881 659,880 659,879 659,878 658,877 658,876 658,875 658,874 658,873 657,872 657,871 657,870 657,869 656,868 656,867 656,866 656,865 655,865 654,866 653,867 652,867 651,868 650,868 649,867 648,867 647,866 646,866 645,865 645,864 644,863 643,862 643,861">
      <metadata tailDirection="" confidence="0.80" linkedToCharacter="" id="UltraEleven_098_balloon_0" tailTip=""></metadata>
    </polygon>
    <polygon points="83,458 83,459 83,460 83,461 83,462 83,463 83,464 83,465 82,466 82,467 82,468 82,469 81,470 81,471 80,472 80,473 79,474 78,475 77,476 77,477 76,478 75,479 74,479 73,480 72,480 71,481 70,482 69,482 68,482 67,482 67,483 67,484 67,485 67,486 67,487 67,488 67,489 67,490 67,491 67,492 67,493 67,494 67,495 67,496 67,497 67,498 67,499 67,500 67,501 67,502 67,503 67,504 67,505 67,506 67,507 67,508 67,509 67,510 67,511 67,512 67,513 67,514 67,515 67,516 67,517 67,518 67,519 67,520 67,521 67,522 67,523 67,524 67,525 66,526 66,527 66,528 66,529 66,530 66,531 66,532 66,533 66,534 66,535 66,536 66,537 66,538 66,539 66,540 66,541 66,542 66,543 66,544 66,545 66,546 66,547 66,548 66,549 66,550 66,551 66,552 66,553 66,554 66,555 66,556 66,557 66,558 66,559 66,560 66,561 66,562 66,563 66,564 66,565 66,566 66,567 66,568 66,569 66,570 66,571 66,572 66,573 66,574 66,575 66,576 66,577 66,578 66,579 66,580 66,581 66,582 66,583 66,584 66,585 66,586 66,587 66,588 66,589 66,590 66,591 66,592 66,593 66,594 66,595 66,596 66,597 66,598 66,599 66,600 66,601 66,602 66,603 66,604 66,605 66,606 66,607 66,608 66,609 66,610 66,611 66,612 66,613 66,614 66,615 66,616 66,617 66,618 66,619 66,620 66,621 66,622 66,623 66,624 66,625 66,626 66,627 66,628 66,629 66,630 66,631 66,632 66,633 66,634 66,635 66,636 66,637 66,638 66,639 67,639 68,639 69,640 70,640 71,640 72,641 72,642 73,643 74,644 74,645 74,646 74,647 74,648 75,649 74,650 75,650 76,649 77,648 78,648 79,647 80,647 81,646 82,646 83,646 84,645 85,645 86,645 87,645 88,645 89,645 90,645 91,646 92,646 93,646 94,647 95,647 96,648 97,648 98,649 99,650 100,651 101,652 102,653 103,654 104,655 104,656 105,657 105,658 106,659 106,660 107,661 107,660 108,659 109,658 110,657 111,656 112,655 113,654 114,653 115,653 116,652 117,651 118,651 119,650 120,650 121,649 122,649 123,649 124,649 125,648 126,648 127,648 128,648 129,648 130,648 131,648 132,648 133,648 134,648 135,648 136,648 137,649 138,649 139,650 140,651 141,651 142,651 143,650 143,649 144,648 145,647 146,646 147,645 148,645 149,644 150,644 151,643 152,643 153,642 154,642 155,642 156,641 157,641 158,641 159,640 160,640 161,640 162,640 163,640 164,640 165,640 166,640 167,640 168,640 168,639 168,638 168,637 168,636 168,635 168,634 168,633 169,632 169,631 169,630 169,629 170,628 170,627 170,626 171,625 171,624 172,623 172,622 173,621 173,620 174,619 174,618 175,617 176,616 176,615 177,614 178,613 179,612 180,611 181,610 182,609 183,608 184,607 185,607 186,606 187,605 188,605 189,605 190,604 191,604 192,604 193,604 193,603 193,602 192,601 192,600 191,599 191,598 191,597 191,596 191,595 191,594 191,593 191,592 191,591 191,590 191,589 191,588 191,587 191,586 192,585 192,584 192,583 192,582 193,581 193,580 193,579 194,578 194,577 195,576 195,575 195,574 196,573 196,572 197,571 197,570 198,569 198,568 199,567 200,566 201,565 201,564 202,563 203,562 204,561 205,560 206,559 207,558 207,557 206,557 205,556 204,555 203,555 202,554 201,553 201,552 200,551 199,550 199,549 199,548 198,547 198,546 198,545 198,544 198,543 198,542 198,541 198,540 198,539 198,538 198,537 198,536 198,535 199,534 199,533 200,532 200,531 201,530 201,529 202,528 203,527 203,526 204,525 205,524 205,523 204,523 203,523 202,523 201,522 200,522 199,522 198,521 197,521 196,520 195,520 194,519 193,518 192,517 191,516 191,515 190,514 189,513 189,512 189,511 188,510 188,509 188,508 188,507 188,506 188,505 188,504 189,503 189,502 189,501 189,500 190,499 190,498 190,497 191,496 192,495 192,494 191,494 190,494 189,494 188,495 187,495 186,495 185,495 184,495 183,495 182,495 181,494 180,494 179,494 178,494 177,493 176,493 175,492 174,492 173,491 172,491 171,490 170,489 169,488 169,487 168,486 168,485 167,484 167,483 167,482 166,481 166,480 166,479 166,478 166,477 166,476 166,475 166,474 166,473 166,472 167,471 167,470 167,469 168,468 168,467 167,468 166,469 165,470 164,470 163,471 162,472 161,472 160,473 159,473 158,474 157,474 156,474 155,475 154,475 153,475 152,475 151,476 150,476 149,476 148,476 147,476 146,476 145,476 144,476 143,475 142,475 141,475 140,474 139,474 138,474 137,473 136,473 135,472 134,471 133,470 132,469 131,468 131,467 130,466 130,465 129,464 129,463 129,462 128,461 128,460 127,461 126,462 125,463 124,464 123,465 122,466 121,466 120,467 119,468 118,468 117,469 116,470 115,470 114,471 113,471 112,472 111,472 110,472 109,473 108,473 107,473 106,473 105,473 104,473 103,473 102,473 101,473 100,473 99,472 98,472 97,472 96,472 95,471 94,471 93,470 92,470 91,469 90,468 89,467 88,466 87,465 86,464 86,463 85,462 84,461 84,460 84,459 83,458">
      <metadata tailDirection="" confidence="0.81" linkedToCharacter="" id="UltraEleven_098_balloon_1" tailTip=""></metadata>
    </polygon>
    <polygon points="488,374 487,375 486,375 485,375 484,375 483,375 482,375 481,375 480,375 479,375 478,375 477,375 476,375 475,375 474,376 473,376 472,376 471,376 470,377 469,377 468,377 467,378 466,378 465,379 464,379 463,380 462,381 461,381 460,382 459,383 458,384 457,384 456,385 456,386 456,387 456,388 456,389 456,390 456,391 456,392 456,393 456,394 456,395 456,396 456,397 456,398 456,399 456,400 456,401 456,402 456,403 456,404 456,405 456,406 456,407 456,408 456,409 456,410 456,411 456,412 456,413 456,414 456,415 456,416 456,417 456,418 456,419 456,420 456,421 456,422 456,423 456,424 456,425 456,426 456,427 456,428 456,429 456,430 456,431 456,432 456,433 456,434 456,435 456,436 456,437 456,438 456,439 456,440 456,441 456,442 456,443 456,444 456,445 456,446 456,447 456,448 456,449 456,450 456,451 456,452 456,453 456,454 456,455 456,456 456,457 456,458 456,459 456,460 456,461 456,462 456,463 456,464 456,465 456,466 456,467 456,468 456,469 456,470 456,471 456,472 456,473 456,474 456,475 456,476 456,477 456,478 456,479 456,480 456,481 456,482 456,483 456,484 456,485 456,486 456,487 456,488 456,489 456,490 456,491 456,492 456,493 456,494 456,495 456,496 456,497 456,498 456,499 456,500 456,501 456,502 456,503 456,504 456,505 456,506 456,507 456,508 456,509 456,510 456,511 456,512 456,513 456,514 456,515 456,516 456,517 456,518 456,519 456,520 456,521 456,522 456,523 456,524 456,525 456,526 456,527 456,528 456,529 456,530 456,531 456,532 456,533 456,534 456,535 456,536 456,537 456,538 456,539 456,540 456,541 456,542 456,543 456,544 457,544 458,544 459,544 460,544 461,544 462,544 463,544 464,544 465,544 466,544 467,544 468,544 469,544 470,544 471,543 472,544 473,544 474,544 475,544 476,544 477,544 478,544 479,544 480,544 481,544 482,544 483,544 484,544 485,544 486,544 487,544 488,544 489,544 490,544 491,544 492,544 493,543 494,544 495,544 496,544 497,544 498,544 499,544 500,543 501,544 502,544 503,544 504,544 505,544 506,544 507,543 508,543 509,543 510,543 511,543 512,543 513,543 514,543 515,544 516,544 517,543 518,543 519,543 520,543 521,544 522,544 523,544 524,543 525,543 526,544 527,544 528,544 529,544 530,544 531,544 532,544 533,544 534,544 535,544 536,544 537,544 538,544 539,544 540,544 541,544 542,544 543,544 544,544 545,544 546,544 547,544 548,544 549,544 550,544 551,544 552,544 553,544 554,544 555,544 556,544 557,544 558,544 559,543 560,543 561,542 561,541 562,540 563,539 563,538 564,537 565,536 566,535 566,534 567,533 567,532 568,531 568,530 568,529 569,528 569,527 569,526 569,525 569,524 569,523 570,522 570,521 570,520 570,519 570,518 570,517 570,516 570,515 570,514 570,513 570,512 570,511 570,510 570,509 570,508 570,507 570,506 570,505 570,504 570,503 570,502 570,501 571,500 571,499 572,498 572,497 573,496 574,495 575,494 575,493 574,493 573,492 572,491 572,490 571,489 571,488 571,487 571,486 571,485 571,484 571,483 570,482 570,481 570,480 571,479 571,478 571,477 571,476 571,475 571,474 571,473 571,472 571,471 571,470 571,469 571,468 571,467 571,466 571,465 571,464 571,463 571,462 571,461 571,460 571,459 571,458 571,457 571,456 571,455 571,454 571,453 571,452 571,451 571,450 571,449 571,448 571,447 571,446 571,445 571,444 571,443 571,442 571,441 571,440 571,439 571,438 571,437 571,436 571,435 571,434 571,433 571,432 571,431 571,430 570,429 570,428 570,427 570,426 570,425 570,424 570,423 569,422 569,421 569,420 569,419 569,418 569,417 569,416 569,415 569,414 568,413 568,412 568,411 568,410 567,409 567,408 566,407 566,406 565,405 565,404 564,403 563,402 563,401 563,400 562,399 562,398 561,397 560,396 560,395 559,394 558,393 558,392 557,391 556,390 556,389 555,388 554,387 553,387 552,386 551,385 550,384 549,383 548,382 547,382 546,381 545,381 544,380 543,380 542,379 541,379 540,379 539,378 538,378 537,378 536,378 535,377 534,377 533,377 532,377 531,377 530,377 529,377 528,377 527,377 526,376 525,376 524,376 523,376 522,376 521,376 520,376 519,376 518,376 517,376 516,375 515,375 514,375 513,375 512,375 511,375 510,375 509,375 508,375 507,375 506,375 505,375 504,375 503,375 502,375 501,375 500,375 499,375 498,375 497,375 496,375 495,375 494,375 493,374 492,374 491,374 490,374 489,374 488,374">
      <metadata tailDirection="" confidence="0.93" linkedToCharacter="" id="UltraEleven_098_balloon_2" tailTip=""></metadata>
    </polygon>
    <polygon points="694,40 693,41 692,41 691,42 690,42 689,43 688,43 687,44 686,44 685,45 684,45 683,46 682,47 681,47 680,48 679,49 678,50 677,51 676,52 676,53 675,54 674,55 674,56 674,57 673,58 673,59 673,60 673,61 672,62 672,63 672,64 672,65 672,66 671,67 671,68 671,69 670,70 670,71 670,72 669,73 669,74 669,75 669,76 668,77 668,78 668,79 667,80 667,81 666,82 666,83 666,84 666,85 666,86 665,87 665,88 665,89 665,90 664,91 664,92 664,93 664,94 664,95 664,96 664,97 664,98 664,99 664,100 664,101 664,102 664,103 664,104 664,105 664,106 664,107 664,108 664,109 665,110 665,111 665,112 665,113 665,114 665,115 665,116 666,117 666,118 666,119 666,120 666,121 666,122 666,123 666,124 666,125 666,126 666,127 666,128 666,129 666,130 666,131 666,132 667,133 667,134 667,135 667,136 667,137 667,138 667,139 667,140 667,141 667,142 668,143 668,144 668,145 668,146 668,147 668,148 668,149 668,150 668,151 668,152 669,153 669,154 669,155 670,156 670,157 671,158 671,159 672,160 672,161 673,162 674,163 674,164 675,165 676,166 676,167 677,168 678,169 679,170 680,171 681,172 681,173 682,174 683,175 684,176 685,177 686,177 687,178 688,178 689,179 690,179 691,179 692,180 693,180 694,180 695,180 696,180 697,180 698,181 699,181 700,181 701,181 702,181 703,181 704,182 705,182 706,182 707,183 708,184 708,185 709,186 710,185 711,184 712,184 713,183 714,183 715,183 716,183 717,182 718,182 719,182 720,182 721,182 722,182 723,182 724,182 725,182 726,182 727,182 728,182 729,182 730,182 731,182 732,182 733,182 734,182 735,182 736,181 737,181 738,180 739,179 740,178 741,177 742,177 743,176 744,175 745,174 746,173 747,172 748,171 749,170 750,169 751,168 751,167 752,166 753,165 753,164 754,163 754,162 755,161 755,160 756,159 756,158 756,157 757,156 757,155 757,154 758,153 758,152 758,151 758,150 759,149 759,148 759,147 759,146 759,145 759,144 759,143 759,142 759,141 759,140 760,139 760,138 760,137 760,136 760,135 760,134 760,133 760,132 760,131 760,130 760,129 760,128 760,127 760,126 760,125 760,124 760,123 760,122 760,121 760,120 759,119 759,118 759,117 759,116 759,115 759,114 759,113 759,112 759,111 759,110 759,109 759,108 759,107 759,106 759,105 759,104 759,103 759,102 759,101 759,100 759,99 759,98 759,97 759,96 759,95 759,94 760,93 760,92 760,91 760,90 760,89 760,88 760,87 760,86 760,85 760,84 760,83 760,82 760,81 759,80 759,79 759,78 759,77 759,76 759,75 759,74 759,73 759,72 759,71 759,70 758,69 758,68 757,67 756,66 756,65 755,64 754,63 753,62 753,61 752,60 751,59 751,58 750,57 749,56 748,55 747,54 746,53 745,52 745,51 744,51 743,50 742,49 741,48 740,48 739,47 738,46 737,46 736,45 735,45 734,45 733,44 732,44 731,44 730,43 729,43 728,43 727,43 726,43 725,43 724,42 723,42 722,42 721,42 720,42 719,42 718,42 717,42 716,42 715,42 714,41 713,41 712,42 711,42 710,42 709,42 708,41 707,41 706,41 705,41 704,41 703,41 702,41 701,41 700,41 699,41 698,41 697,41 696,41 695,41 694,40">
      <metadata tailDirection="" confidence="0.87" linkedToCharacter="" id="UltraEleven_098_balloon_3" tailTip=""></metadata>
    </polygon>
  </svg>
</svg>
