<?xml version="1.0" encoding="UTF-8" standalone="no"?>
<svg width="827" xmlns="http://www.w3.org/2000/svg" version="1.0" height="1170">
  <title>UltraEleven_146</title>
  <svg contentScriptType="text/ecmascript" zoomAndPan="magnify" contentStyleType="text/css" class="Page" preserveAspectRatio="xMidYMid meet" version="1.0">
    <image xmlns:xlink="http://www.w3.org/1999/xlink" x="0" y="0" width="827" height="1170" xlink:href="./../../dataset_Manga109/UltraEleven/UltraEleven_146.jpg" xlink:type="simple" xlink:actuate="onLoad" preserveAspectRatio="xMidYMid meet" xlink:show="embed"/>
  </svg>
  <style type="text/css" xml:space="preserve">
        * { stroke-linejoin: round; }
        .Unclassified   { fill: orange; stroke: none;   opacity: 1.0; visibility: hidden; }
        .Noise          { fill: pink;   stroke: none;   opacity: 0.2; visibility: hidden; }
        .Panel          { fill: none;   stroke: red;    stroke-width:3; opacity: 0.5; visibility: visible; image-rendering: optimizeSpeed; }
        .Line           { fill: green;  stroke: none;   opacity: 0.5; visibility: visible; image-rendering: optimizeSpeed; }
        .TextArea       { fill: grey;   stroke: none;   opacity: 0.2; visibility: visible; image-rendering: optimizeSpeed; }
        .Balloon        { fill: cyan;   stroke: none;   opacity: 0.5; visibility: visible; image-rendering: optimizeSpeed; }
        .Letter         { fill: blue;   stroke: none;   opacity: 0.2; visibility: hidden; }
        .Object, .Character, .Face  { fill: yellow; stroke: none;   opacity: 0.5; visibility: visible; image-rendering: optimizeSpeed; }
        .Page           { fill: white;  stroke: none;    opacity: 0.5; visibility: visible; }
        .linkSBSC { fill: blue; stroke: none; opacity: 1.0; visibility: visible; }
        polygon:hover { opacity:1.0; stroke:red; }
</style>
  <svg xmlns="http://www.w3.org/2000/svg" contentScriptType="text/ecmascript" zoomAndPan="magnify" contentStyleType="text/css" class="Balloon" preserveAspectRatio="xMidYMid meet" version="1.0">
    <polygon points="193,295 192,296 192,297 191,298 190,299 189,300 188,301 188,302 187,303 186,304 186,305 185,306 184,307 184,308 183,309 182,310 182,311 181,312 180,313 180,314 179,315 178,316 178,317 177,318 176,319 176,320 175,321 174,322 174,323 173,324 172,325 172,326 171,327 170,328 170,329 169,330 168,331 168,332 167,333 166,334 166,335 165,336 165,337 164,338 164,339 163,340 162,341 162,342 161,343 161,344 160,345 159,346 159,347 158,348 157,349 157,350 156,351 155,352 155,353 154,354 154,355 154,356 153,357 152,357 151,357 150,357 149,356 148,355 147,354 146,353 145,352 144,351 144,350 143,349 142,348 141,347 141,346 140,345 139,344 138,343 137,342 137,341 136,340 135,339 134,338 133,337 132,336 131,337 131,338 131,339 131,340 131,341 131,342 131,343 131,344 131,345 131,346 131,347 131,348 131,349 130,350 130,351 130,352 130,353 130,354 130,355 130,356 130,357 130,358 130,359 130,360 130,361 130,362 129,363 129,364 129,365 129,366 129,367 129,368 128,369 128,370 127,371 126,371 125,371 124,371 123,371 122,370 121,369 120,368 119,367 118,367 117,366 116,365 115,365 114,364 113,363 112,362 111,362 110,361 109,360 108,360 107,359 106,358 105,357 104,356 103,356 102,355 101,354 100,353 99,353 98,352 97,351 96,350 95,349 94,349 93,348 92,347 91,346 90,346 89,345 88,344 87,343 86,343 86,344 87,345 87,346 87,347 87,348 87,349 87,350 88,351 88,352 88,353 88,354 88,355 88,356 89,357 89,358 89,359 89,360 89,361 89,362 90,363 90,364 90,365 90,366 90,367 90,368 91,369 91,370 91,371 91,372 91,373 92,374 92,375 92,376 92,377 92,378 92,379 93,380 93,381 93,382 93,383 93,384 93,385 94,386 94,387 94,388 94,389 94,390 94,391 95,392 95,393 95,394 95,395 95,396 96,397 96,398 96,399 96,400 96,401 97,402 97,403 97,404 97,405 97,406 98,407 98,408 98,409 98,410 98,411 99,412 99,413 99,414 98,415 97,416 96,416 95,416 94,416 93,415 92,415 91,415 90,414 89,414 88,414 87,413 86,413 85,413 84,412 83,412 82,412 81,411 80,411 79,411 78,410 77,410 76,409 75,409 75,410 75,411 76,412 76,413 77,414 77,415 77,416 78,417 79,418 79,419 80,420 80,421 81,422 81,423 81,424 82,425 82,426 83,427 83,428 83,429 84,430 84,431 85,432 85,433 85,434 86,435 86,436 87,437 87,438 88,439 88,440 89,441 89,442 90,443 90,444 90,445 90,446 90,447 89,448 89,449 88,450 88,451 87,452 87,453 86,454 86,455 85,456 85,457 84,458 84,459 84,460 83,461 83,462 82,463 82,464 81,465 81,466 80,467 80,468 80,469 79,470 79,471 78,472 78,473 77,474 77,475 77,476 76,477 76,478 75,479 75,480 74,481 74,482 74,483 73,484 73,485 73,486 72,487 72,488 71,489 71,490 72,489 73,489 74,489 75,488 76,488 77,487 78,487 79,487 80,486 81,486 82,485 83,485 84,485 85,484 86,484 87,484 88,484 89,484 90,485 91,486 91,487 91,488 91,489 90,490 90,491 90,492 89,493 89,494 89,495 88,496 88,497 88,498 87,499 87,500 87,501 86,502 86,503 86,504 85,505 85,506 85,507 84,508 84,509 84,510 83,511 83,512 83,513 82,514 82,515 82,516 81,517 81,518 81,519 80,520 80,521 80,522 80,523 79,524 79,525 79,526 78,527 78,528 78,529 78,530 77,531 77,532 77,533 77,534 76,535 76,536 76,537 75,538 75,539 75,540 74,541 74,542 74,543 73,544 73,545 73,546 72,547 72,548 72,549 72,550 71,551 71,552 71,553 71,554 70,555 70,556 70,557 69,558 69,559 69,560 69,561 70,560 71,560 72,559 73,559 74,558 75,558 76,557 77,557 78,557 79,556 80,556 81,555 82,555 83,554 84,554 85,554 86,553 87,553 88,552 89,552 90,551 91,551 92,550 93,550 94,550 95,549 96,549 97,548 98,548 99,547 100,547 101,546 102,546 103,546 104,545 105,545 106,544 107,544 108,544 109,543 110,543 111,542 112,542 113,541 114,541 115,541 116,540 117,540 118,539 119,539 120,538 121,538 122,537 123,537 124,538 125,538 126,538 127,539 128,540 129,541 129,542 129,543 130,544 130,545 130,546 131,547 131,548 131,549 132,550 132,551 133,552 133,553 134,554 134,555 134,556 135,557 135,558 136,559 136,560 136,561 137,562 137,563 137,564 137,565 138,566 138,567 138,568 139,569 139,570 140,571 140,572 140,573 141,573 142,572 142,571 143,570 144,569 145,568 146,567 146,566 147,565 147,564 148,563 149,562 149,561 150,560 151,559 151,558 152,557 152,556 153,555 154,554 154,553 155,552 155,551 156,550 157,549 158,548 158,547 159,546 160,545 160,544 161,543 162,542 163,541 164,540 165,540 166,541 167,540 168,541 169,541 170,542 171,543 172,544 173,545 174,545 175,546 176,547 177,547 178,548 179,549 180,550 181,550 182,551 183,552 184,553 185,553 186,554 187,555 188,555 189,556 190,557 191,558 192,559 193,559 194,560 195,560 196,561 197,562 198,563 199,563 200,564 201,565 202,565 203,566 204,567 205,568 206,568 207,569 208,570 209,571 210,571 211,572 212,573 213,573 214,574 215,575 216,576 217,576 218,577 219,578 220,578 221,579 222,580 223,581 224,581 224,580 224,579 224,578 224,577 223,576 223,575 223,574 223,573 223,572 223,571 223,570 223,569 223,568 223,567 223,566 223,565 223,564 223,563 223,562 223,561 223,560 223,559 223,558 223,557 222,556 222,555 222,554 222,553 223,552 222,551 222,550 222,549 222,548 222,547 222,546 222,545 222,544 222,543 222,542 222,541 222,540 222,539 222,538 222,537 222,536 222,535 222,534 222,533 222,532 222,531 221,530 221,529 221,528 221,527 221,526 221,525 221,524 221,523 221,522 221,521 221,520 221,519 221,518 221,517 221,516 221,515 221,514 221,513 221,512 222,511 223,510 224,510 225,510 226,510 227,510 228,510 229,511 230,511 231,510 232,510 233,510 234,510 235,510 236,510 237,510 238,510 239,510 240,510 241,510 242,510 243,510 244,510 245,510 246,510 247,510 248,510 249,510 250,509 251,509 252,509 253,509 254,509 255,509 256,509 257,509 258,509 259,509 260,508 261,508 262,508 263,508 264,508 265,508 264,507 263,506 262,505 261,504 260,503 259,502 258,501 257,500 256,499 255,498 254,497 253,496 253,495 252,494 251,493 250,493 249,492 249,491 249,490 249,489 250,488 251,488 252,487 253,487 254,487 255,486 256,486 257,486 258,486 259,485 260,485 261,485 262,485 263,485 264,484 265,484 266,483 267,483 268,483 269,483 270,482 271,482 272,482 273,481 274,481 275,481 276,480 277,480 278,480 279,479 280,479 281,479 282,479 283,478 284,478 285,478 286,478 287,477 288,477 289,477 290,476 291,476 292,476 293,476 294,475 295,475 294,474 293,474 292,473 291,472 290,471 289,470 288,469 287,468 286,468 285,467 284,466 283,465 282,464 281,463 280,462 279,461 278,461 277,460 276,459 275,458 274,457 273,456 272,455 271,455 270,454 269,453 268,452 267,451 266,450 265,449 264,449 263,448 262,447 262,446 262,445 262,444 263,443 264,443 264,442 265,441 266,441 267,440 267,439 268,438 269,437 269,436 270,435 271,435 270,434 269,433 268,433 267,432 266,432 265,431 264,431 263,430 262,430 261,429 260,428 259,427 258,426 259,425 260,424 260,423 261,422 262,421 262,420 263,419 264,418 265,417 266,416 266,415 267,414 268,413 268,412 269,411 269,410 270,409 271,408 272,407 272,406 273,405 274,404 275,403 275,402 276,401 277,400 277,399 278,398 278,397 279,396 279,395 279,394 278,393 278,392 277,391 277,390 277,389 276,388 275,387 274,386 273,385 273,384 272,383 272,382 271,381 271,380 271,379 271,378 270,377 270,376 270,375 271,374 271,373 271,372 271,371 272,370 272,369 273,368 274,367 273,367 272,367 271,368 270,368 269,368 268,368 267,368 266,368 265,368 264,368 263,369 262,369 261,369 260,369 259,369 258,369 257,370 256,370 255,370 254,370 253,371 252,371 251,371 250,371 249,371 248,371 247,372 246,372 245,372 244,372 243,372 242,372 241,372 240,371 239,370 239,369 238,368 238,367 238,366 238,365 238,364 238,363 238,362 238,361 238,360 238,359 238,358 238,357 238,356 238,355 238,354 238,353 237,353 236,354 235,355 234,356 233,356 232,357 231,358 230,358 229,359 228,360 227,361 226,361 225,361 224,360 223,360 222,360 221,359 221,358 220,357 220,356 219,355 219,354 218,353 218,352 217,351 217,350 216,349 216,348 215,347 215,346 214,345 214,344 214,343 213,342 213,341 212,340 212,339 211,338 211,337 210,336 210,335 209,334 209,333 208,332 208,331 208,330 207,329 207,328 206,327 206,326 206,325 205,324 205,323 204,322 204,321 203,320 203,319 202,318 202,317 202,316 201,315 201,314 200,313 200,312 200,311 199,310 199,309 198,308 198,307 197,306 197,305 196,304 196,303 196,302 195,301 195,300 194,299 194,298 194,297 193,296 193,295">
      <metadata tailDirection="" confidence="0.82" linkedToCharacter="" id="UltraEleven_146_balloon_0" tailTip=""></metadata>
    </polygon>
  </svg>
</svg>
