<?xml version="1.0" encoding="UTF-8" standalone="no"?>
<svg width="827" xmlns="http://www.w3.org/2000/svg" version="1.0" height="1170">
  <title>UltraEleven_157</title>
  <svg contentScriptType="text/ecmascript" zoomAndPan="magnify" contentStyleType="text/css" class="Page" preserveAspectRatio="xMidYMid meet" version="1.0">
    <image xmlns:xlink="http://www.w3.org/1999/xlink" x="0" y="0" width="827" height="1170" xlink:href="./../../dataset_Manga109/UltraEleven/UltraEleven_157.jpg" xlink:type="simple" xlink:actuate="onLoad" preserveAspectRatio="xMidYMid meet" xlink:show="embed"/>
  </svg>
  <style type="text/css" xml:space="preserve">
        * { stroke-linejoin: round; }
        .Unclassified   { fill: orange; stroke: none;   opacity: 1.0; visibility: hidden; }
        .Noise          { fill: pink;   stroke: none;   opacity: 0.2; visibility: hidden; }
        .Panel          { fill: none;   stroke: red;    stroke-width:3; opacity: 0.5; visibility: visible; image-rendering: optimizeSpeed; }
        .Line           { fill: green;  stroke: none;   opacity: 0.5; visibility: visible; image-rendering: optimizeSpeed; }
        .TextArea       { fill: grey;   stroke: none;   opacity: 0.2; visibility: visible; image-rendering: optimizeSpeed; }
        .Balloon        { fill: cyan;   stroke: none;   opacity: 0.5; visibility: visible; image-rendering: optimizeSpeed; }
        .Letter         { fill: blue;   stroke: none;   opacity: 0.2; visibility: hidden; }
        .Object, .Character, .Face  { fill: yellow; stroke: none;   opacity: 0.5; visibility: visible; image-rendering: optimizeSpeed; }
        .Page           { fill: white;  stroke: none;    opacity: 0.5; visibility: visible; }
        .linkSBSC { fill: blue; stroke: none; opacity: 1.0; visibility: visible; }
        polygon:hover { opacity:1.0; stroke:red; }
</style>
  <svg xmlns="http://www.w3.org/2000/svg" contentScriptType="text/ecmascript" zoomAndPan="magnify" contentStyleType="text/css" class="Balloon" preserveAspectRatio="xMidYMid meet" version="1.0">
    <polygon points="640,856 640,857 640,858 640,859 640,860 640,861 640,862 640,863 640,864 640,865 640,866 640,867 640,868 640,869 640,870 640,871 640,872 640,873 640,874 640,875 640,876 640,877 640,878 640,879 640,880 640,881 640,882 640,883 640,884 640,885 640,886 640,887 640,888 640,889 640,890 640,891 640,892 640,893 640,894 640,895 640,896 640,897 640,898 640,899 640,900 640,901 640,902 640,903 640,904 640,905 640,906 640,907 640,908 640,909 640,910 640,911 640,912 640,913 640,914 640,915 640,916 640,917 640,918 640,919 640,920 640,921 640,922 640,923 640,924 640,925 640,926 640,927 640,928 640,929 640,930 640,931 640,932 640,933 640,934 640,935 640,936 640,937 640,938 640,939 640,940 640,941 640,942 640,943 640,944 640,945 639,946 640,947 640,948 640,949 640,950 640,951 640,952 640,953 640,954 640,955 640,956 640,957 639,958 639,959 640,960 640,961 640,962 640,963 639,964 639,965 639,966 640,967 639,968 640,969 640,970 639,971 639,972 639,973 639,974 639,975 639,976 639,977 639,978 639,979 639,980 639,981 639,982 639,983 639,984 639,985 639,986 639,987 639,988 639,989 639,990 639,991 639,992 639,993 639,994 639,995 639,996 639,997 639,998 639,999 639,1000 639,1001 639,1002 639,1003 639,1004 639,1005 639,1006 639,1007 639,1008 639,1009 639,1010 639,1011 639,1012 639,1013 640,1013 641,1013 642,1013 643,1013 644,1013 645,1013 646,1013 647,1013 648,1013 649,1013 650,1013 651,1013 652,1014 653,1014 654,1014 655,1014 656,1014 657,1014 658,1014 659,1014 660,1014 661,1014 662,1014 663,1014 664,1014 665,1014 666,1014 667,1014 668,1014 669,1014 670,1014 671,1014 672,1014 673,1014 674,1014 675,1014 676,1014 677,1014 678,1014 679,1014 680,1014 681,1014 682,1014 683,1014 684,1014 685,1014 686,1014 687,1014 688,1014 689,1014 690,1014 691,1014 692,1014 693,1014 694,1014 695,1014 696,1014 697,1014 698,1014 699,1014 700,1014 701,1014 702,1014 703,1014 704,1014 705,1014 706,1014 707,1014 708,1014 709,1014 710,1014 711,1014 712,1014 713,1014 714,1014 715,1014 716,1014 717,1014 718,1014 719,1014 720,1014 721,1014 722,1014 723,1014 724,1014 725,1014 726,1014 727,1014 728,1014 729,1014 730,1014 731,1014 732,1014 733,1014 734,1014 735,1014 736,1014 737,1014 738,1014 738,1013 738,1012 738,1011 738,1010 738,1009 738,1008 738,1007 738,1006 738,1005 738,1004 738,1003 738,1002 738,1001 738,1000 738,999 738,998 738,997 738,996 738,995 738,994 738,993 738,992 738,991 738,990 738,989 738,988 738,987 738,986 738,985 738,984 738,983 738,982 738,981 738,980 738,979 738,978 738,977 738,976 738,975 738,974 738,973 738,972 738,971 738,970 738,969 738,968 738,967 738,966 738,965 738,964 738,963 738,962 738,961 738,960 738,959 738,958 738,957 738,956 738,955 738,954 738,953 738,952 738,951 738,950 738,949 738,948 738,947 738,946 738,945 738,944 738,943 738,942 738,941 738,940 738,939 738,938 738,937 738,936 738,935 738,934 738,933 738,932 738,931 738,930 738,929 738,928 738,927 738,926 738,925 738,924 738,923 738,922 738,921 738,920 738,919 738,918 738,917 738,916 738,915 738,914 738,913 738,912 738,911 738,910 738,909 738,908 738,907 738,906 738,905 738,904 738,903 738,902 738,901 738,900 738,899 738,898 738,897 738,896 738,895 738,894 738,893 738,892 738,891 738,890 738,889 738,888 738,887 738,886 738,885 738,884 738,883 738,882 738,881 738,880 738,879 738,878 738,877 738,876 738,875 738,874 738,873 738,872 738,871 738,870 738,869 738,868 738,867 738,866 738,865 738,864 738,863 738,862 738,861 738,860 738,859 738,858 738,857 738,856 737,856 736,856 735,856 734,856 733,856 732,856 731,856 730,856 729,856 728,856 727,856 726,856 725,856 724,856 723,856 722,856 721,856 720,856 719,856 718,856 717,856 716,856 715,856 714,856 713,856 712,856 711,856 710,856 709,856 708,856 707,856 706,856 705,856 704,856 703,856 702,856 701,856 700,856 699,856 698,856 697,856 696,856 695,856 694,856 693,856 692,856 691,856 690,856 689,856 688,856 687,856 686,856 685,856 684,856 683,856 682,856 681,856 680,856 679,856 678,856 677,856 676,856 675,856 674,856 673,856 672,856 671,856 670,856 669,856 668,856 667,856 666,856 665,856 664,856 663,856 662,856 661,856 660,856 659,856 658,856 657,856 656,856 655,856 654,856 653,856 652,856 651,856 650,856 649,856 648,856 647,856 646,856 645,856 644,856 643,856 642,856 641,856 640,856">
      <metadata tailDirection="" confidence="0.91" linkedToCharacter="" id="UltraEleven_157_balloon_0" tailTip=""></metadata>
    </polygon>
    <polygon points="503,842 502,843 501,843 501,844 500,845 499,846 498,847 497,848 496,849 495,850 495,851 494,852 493,853 492,854 491,855 491,856 490,857 489,858 488,859 488,860 487,861 486,862 485,863 484,864 483,865 482,866 482,867 481,868 480,869 479,870 478,871 477,872 476,873 476,874 475,875 474,876 473,876 472,876 471,876 470,876 469,875 468,874 467,873 466,873 465,872 464,871 463,870 462,869 461,869 460,870 460,871 460,872 460,873 460,874 459,875 459,876 459,877 459,878 459,879 458,880 457,881 456,881 455,882 454,881 453,881 452,880 451,880 450,879 449,879 448,879 447,878 446,878 445,877 444,877 443,876 442,876 441,875 440,874 439,874 438,874 437,873 436,873 435,872 434,872 433,871 432,871 431,870 430,870 429,869 429,870 430,871 430,872 430,873 431,874 431,875 431,876 431,877 432,878 432,879 432,880 433,881 433,882 434,883 434,884 434,885 435,886 435,887 435,888 436,889 436,890 436,891 437,892 437,893 437,894 437,895 438,896 438,897 438,898 439,899 439,900 439,901 440,902 440,903 440,904 440,905 440,906 439,907 438,908 437,909 436,910 435,911 434,911 433,912 432,912 431,913 431,914 430,915 429,916 428,916 427,917 427,918 428,919 429,920 429,921 430,922 431,923 432,924 433,925 433,926 434,927 435,928 436,929 437,930 437,931 438,932 439,933 438,934 437,935 436,936 435,937 435,938 436,939 437,940 437,941 437,942 436,943 436,944 436,945 435,946 435,947 434,948 434,949 433,950 433,951 432,952 432,953 431,954 431,955 430,956 430,957 429,958 428,959 428,960 428,961 427,962 427,963 428,963 429,964 430,964 431,965 432,965 433,966 434,966 435,967 436,967 437,968 438,968 439,969 439,970 438,971 437,972 437,973 436,974 436,975 435,976 435,977 436,977 437,977 438,977 439,978 439,979 440,980 440,981 439,982 439,983 439,984 439,985 439,986 438,987 438,988 438,989 437,990 437,991 437,992 437,993 437,994 437,995 436,996 436,997 436,998 436,999 435,1000 435,1001 435,1002 435,1003 435,1004 434,1005 434,1006 434,1007 433,1008 433,1009 433,1010 433,1011 433,1012 433,1013 433,1014 432,1015 432,1016 432,1017 432,1018 432,1019 431,1020 431,1021 431,1022 431,1023 432,1022 433,1021 434,1020 435,1020 436,1019 437,1018 438,1018 439,1017 440,1016 441,1015 442,1014 443,1014 444,1013 445,1012 446,1011 447,1011 448,1010 449,1009 450,1008 451,1008 452,1007 453,1006 454,1005 455,1005 456,1004 457,1003 458,1002 459,1002 460,1001 461,1000 462,1000 463,999 464,998 465,998 466,998 467,999 468,1000 469,1001 470,1002 471,1003 471,1002 472,1001 472,1000 473,999 473,998 473,997 474,996 475,995 476,995 477,995 478,995 479,995 480,996 481,996 482,996 483,996 484,996 485,997 486,997 487,997 488,997 489,997 490,997 491,998 492,998 493,998 494,998 495,999 496,999 497,999 498,999 499,999 500,1000 501,1000 502,1000 503,1000 504,1001 505,1001 506,1001 507,1001 508,1002 509,1002 510,1002 511,1002 512,1003 512,1002 512,1001 512,1000 511,999 511,998 511,997 511,996 511,995 511,994 510,993 510,992 510,991 510,990 510,989 510,988 509,987 509,986 509,985 509,984 509,983 508,982 508,981 508,980 509,979 510,979 511,979 512,979 513,979 514,979 515,980 516,980 516,979 515,978 515,977 515,976 515,975 516,974 516,973 517,972 518,972 519,972 520,972 521,972 522,972 523,972 524,972 525,972 526,972 527,971 528,971 529,971 530,971 531,970 532,970 533,970 534,970 535,970 536,970 537,970 538,969 539,969 540,969 541,969 542,969 543,969 544,969 545,969 546,969 547,969 548,969 549,969 550,969 551,969 552,969 553,968 554,968 555,968 556,968 557,968 558,968 559,968 560,968 561,968 562,968 563,968 564,968 565,968 565,967 564,966 563,965 563,964 562,963 561,962 560,961 559,960 558,959 557,958 556,957 555,956 554,955 553,954 552,953 551,952 551,951 550,950 549,949 548,948 547,947 546,946 545,945 544,944 543,943 542,942 541,941 540,940 539,939 538,938 537,937 536,936 535,935 534,934 533,933 532,932 532,931 531,930 530,930 529,929 529,928 529,927 530,926 531,925 532,924 533,923 534,922 533,921 532,921 531,920 530,919 529,918 529,917 530,916 531,915 531,914 532,913 533,912 534,911 535,910 536,909 536,908 537,907 538,906 539,905 540,904 541,903 542,902 542,901 543,900 544,899 545,898 546,897 547,896 548,895 548,894 549,893 550,892 551,891 552,890 552,889 553,888 554,887 555,886 555,885 555,884 554,885 553,885 552,885 551,885 550,886 549,886 548,886 547,886 546,887 545,887 544,887 543,888 542,888 541,888 540,889 539,889 538,889 537,890 536,890 535,890 534,891 533,891 532,891 531,892 530,892 529,891 528,890 528,889 529,888 529,887 529,886 528,886 527,886 526,886 525,886 524,886 523,885 522,884 523,883 523,882 523,881 524,880 524,879 525,878 525,877 525,876 526,875 526,874 527,873 527,872 528,871 528,870 528,869 529,868 529,867 529,866 530,865 530,864 530,863 531,862 531,861 532,860 532,859 532,858 533,857 533,856 533,855 534,854 533,854 532,855 531,856 530,856 529,857 528,858 527,859 526,860 525,860 524,861 523,862 522,863 521,864 520,865 519,866 518,867 517,867 516,867 515,866 514,865 514,864 514,863 513,864 512,864 511,865 510,866 510,867 509,868 508,868 507,868 506,868 505,867 505,866 505,865 504,864 504,863 504,862 504,861 504,860 504,859 504,858 504,857 504,856 504,855 504,854 504,853 504,852 503,851 503,850 503,849 503,848 503,847 503,846 503,845 503,844 503,843 503,842">
      <metadata tailDirection="" confidence="0.85" linkedToCharacter="" id="UltraEleven_157_balloon_1" tailTip=""></metadata>
    </polygon>
    <polygon points="148,976 148,977 147,978 146,978 147,979 147,980 147,981 146,982 147,983 146,984 145,985 144,986 143,987 143,988 144,989 143,990 142,990 141,989 141,988 141,987 140,987 139,988 138,988 137,988 136,988 135,989 134,989 133,989 132,989 132,990 131,991 130,990 129,989 128,990 127,990 126,991 125,990 124,990 123,990 122,991 123,991 124,991 125,991 126,992 127,992 128,992 129,993 128,994 127,994 126,994 125,994 124,993 123,993 122,994 121,993 120,992 120,991 120,990 119,990 118,990 117,990 116,990 115,990 115,991 114,992 113,992 112,992 111,991 110,990 110,989 109,988 108,988 107,988 106,987 105,987 104,987 103,988 102,987 101,987 101,988 101,989 102,990 102,991 103,991 104,992 104,993 104,994 104,995 104,996 104,997 105,998 105,999 106,1000 106,1001 107,1001 108,1000 109,1001 109,1002 108,1003 107,1004 108,1005 109,1006 110,1007 111,1008 110,1009 110,1010 111,1011 112,1012 111,1011 112,1010 113,1010 113,1009 112,1008 113,1007 113,1006 114,1005 115,1006 115,1007 116,1008 117,1008 118,1007 119,1007 120,1007 121,1008 120,1009 120,1010 119,1011 118,1012 117,1012 116,1011 116,1010 115,1011 114,1012 114,1013 114,1014 114,1015 114,1016 115,1017 115,1018 116,1018 116,1017 117,1016 118,1015 119,1015 120,1014 121,1015 122,1016 122,1017 122,1018 121,1019 120,1018 120,1017 119,1017 120,1018 120,1019 121,1020 122,1020 123,1021 123,1022 123,1023 124,1024 123,1025 122,1025 121,1024 121,1023 121,1022 120,1022 119,1022 118,1021 118,1020 117,1020 117,1021 118,1022 119,1022 120,1022 121,1023 121,1024 120,1025 121,1026 122,1027 123,1027 124,1028 124,1029 125,1030 125,1031 126,1032 127,1031 128,1030 129,1030 130,1030 131,1031 131,1032 132,1033 132,1034 131,1035 130,1035 129,1035 130,1036 131,1037 132,1037 133,1037 134,1038 134,1039 135,1038 135,1037 135,1036 134,1035 135,1034 136,1034 137,1034 137,1033 136,1033 135,1033 134,1033 133,1033 132,1032 131,1031 132,1030 132,1029 132,1028 133,1027 134,1026 135,1027 135,1028 135,1029 134,1030 135,1031 136,1031 136,1030 135,1029 136,1028 137,1027 138,1028 138,1029 139,1029 140,1030 139,1031 140,1031 141,1031 142,1030 143,1031 143,1032 142,1033 143,1032 144,1033 145,1034 146,1034 147,1035 147,1036 146,1037 145,1037 144,1036 143,1035 142,1035 141,1036 140,1036 139,1036 138,1036 138,1037 137,1038 138,1039 139,1040 139,1041 140,1042 140,1043 140,1044 140,1045 140,1046 141,1046 142,1046 142,1045 141,1044 141,1043 141,1042 142,1041 143,1041 144,1042 144,1043 145,1044 144,1045 144,1046 145,1046 146,1045 147,1044 146,1043 146,1042 147,1041 148,1040 149,1041 149,1042 150,1041 151,1042 151,1043 150,1044 149,1045 149,1046 148,1047 147,1047 146,1048 145,1048 144,1049 145,1049 146,1049 147,1049 148,1050 149,1051 149,1052 150,1052 151,1053 151,1054 152,1054 153,1054 154,1055 155,1055 156,1055 157,1056 156,1057 157,1057 158,1058 159,1059 160,1059 161,1060 162,1060 163,1061 164,1062 165,1062 166,1062 167,1062 168,1063 169,1064 170,1064 171,1065 172,1065 173,1065 174,1064 175,1064 175,1063 174,1063 173,1062 173,1061 173,1060 174,1059 175,1059 176,1060 177,1060 178,1061 177,1062 177,1063 177,1064 177,1065 176,1066 175,1066 176,1067 177,1067 178,1068 179,1068 180,1068 181,1069 182,1069 183,1069 184,1070 185,1070 184,1069 184,1068 183,1067 183,1066 182,1066 181,1065 181,1064 180,1063 179,1063 178,1062 178,1061 178,1060 177,1059 177,1058 176,1057 175,1056 175,1055 174,1055 173,1054 172,1053 172,1052 172,1051 172,1050 171,1050 170,1051 169,1050 169,1049 168,1050 167,1049 167,1048 168,1047 169,1046 169,1045 169,1044 168,1044 167,1043 166,1042 167,1041 168,1041 168,1040 168,1039 167,1038 167,1037 166,1037 165,1037 164,1036 165,1035 166,1035 165,1034 164,1033 164,1032 165,1031 166,1032 166,1031 165,1030 165,1029 165,1028 165,1027 165,1026 165,1025 165,1024 164,1023 164,1022 164,1021 164,1020 164,1019 164,1018 163,1017 164,1016 165,1015 164,1014 164,1013 164,1012 164,1011 165,1010 165,1009 164,1008 165,1007 165,1006 165,1005 165,1004 164,1003 165,1002 166,1002 166,1001 165,1000 166,999 167,998 167,997 167,996 167,995 168,994 169,994 169,993 169,992 168,992 167,992 166,991 167,990 168,989 169,990 170,989 171,988 171,987 172,986 172,985 172,984 173,983 173,982 174,981 174,980 174,979 174,978 175,977 176,978 176,979 176,978 177,977 176,976 175,976 174,976 173,976 172,976 172,977 171,978 170,978 169,977 168,976 167,976 166,976 165,976 164,976 163,976 162,976 161,976 160,976 159,976 158,976 157,977 158,978 157,979 156,979 155,978 154,978 153,977 153,976 152,976 151,976 150,977 149,977 148,976">
      <metadata tailDirection="" confidence="0.80" linkedToCharacter="" id="UltraEleven_157_balloon_2" tailTip=""></metadata>
    </polygon>
  </svg>
</svg>
