<?xml version="1.0" encoding="UTF-8" standalone="no"?>
<svg width="827" xmlns="http://www.w3.org/2000/svg" version="1.0" height="1170">
  <title>UltraEleven_192</title>
  <svg contentScriptType="text/ecmascript" zoomAndPan="magnify" contentStyleType="text/css" class="Page" preserveAspectRatio="xMidYMid meet" version="1.0">
    <image xmlns:xlink="http://www.w3.org/1999/xlink" x="0" y="0" width="827" height="1170" xlink:href="./../../dataset_Manga109/UltraEleven/UltraEleven_192.jpg" xlink:type="simple" xlink:actuate="onLoad" preserveAspectRatio="xMidYMid meet" xlink:show="embed"/>
  </svg>
  <style type="text/css" xml:space="preserve">
        * { stroke-linejoin: round; }
        .Unclassified   { fill: orange; stroke: none;   opacity: 1.0; visibility: hidden; }
        .Noise          { fill: pink;   stroke: none;   opacity: 0.2; visibility: hidden; }
        .Panel          { fill: none;   stroke: red;    stroke-width:3; opacity: 0.5; visibility: visible; image-rendering: optimizeSpeed; }
        .Line           { fill: green;  stroke: none;   opacity: 0.5; visibility: visible; image-rendering: optimizeSpeed; }
        .TextArea       { fill: grey;   stroke: none;   opacity: 0.2; visibility: visible; image-rendering: optimizeSpeed; }
        .Balloon        { fill: cyan;   stroke: none;   opacity: 0.5; visibility: visible; image-rendering: optimizeSpeed; }
        .Letter         { fill: blue;   stroke: none;   opacity: 0.2; visibility: hidden; }
        .Object, .Character, .Face  { fill: yellow; stroke: none;   opacity: 0.5; visibility: visible; image-rendering: optimizeSpeed; }
        .Page           { fill: white;  stroke: none;    opacity: 0.5; visibility: visible; }
        .linkSBSC { fill: blue; stroke: none; opacity: 1.0; visibility: visible; }
        polygon:hover { opacity:1.0; stroke:red; }
</style>
  <svg xmlns="http://www.w3.org/2000/svg" contentScriptType="text/ecmascript" zoomAndPan="magnify" contentStyleType="text/css" class="Balloon" preserveAspectRatio="xMidYMid meet" version="1.0">
    <polygon points="470,865 470,866 469,867 468,868 467,868 466,869 465,870 464,871 463,872 462,873 461,874 460,874 459,875 458,876 457,876 456,877 455,878 454,878 453,879 452,880 451,880 450,881 449,881 448,882 447,882 446,883 445,883 444,884 443,884 442,884 441,885 440,885 439,886 438,886 437,886 436,887 435,887 434,887 433,888 432,888 431,888 430,889 429,889 428,889 427,889 426,890 425,890 424,890 423,890 422,890 421,890 420,890 419,891 418,891 417,891 416,891 415,891 414,891 413,891 412,891 411,891 410,891 409,891 408,891 407,891 406,891 405,891 404,891 403,891 402,891 401,891 400,891 399,891 398,891 397,891 396,891 395,891 394,891 393,891 392,890 391,890 390,890 389,890 388,890 387,889 386,889 385,888 384,888 383,888 382,887 381,887 380,886 379,886 378,885 377,885 376,885 375,884 374,884 373,883 372,883 371,882 370,882 369,881 368,880 367,880 366,879 365,879 364,878 363,877 362,877 361,876 360,875 359,874 358,874 357,873 356,872 355,871 354,870 353,870 352,871 351,871 350,872 349,873 348,873 347,874 346,874 345,875 344,876 343,877 342,877 341,878 340,878 339,879 338,880 337,881 336,881 335,882 334,883 333,883 332,884 331,885 330,886 329,886 328,887 327,888 326,889 325,890 324,890 323,891 323,892 323,893 323,894 323,895 323,896 323,897 323,898 323,899 323,900 323,901 322,902 322,903 322,904 322,905 322,906 322,907 322,908 322,909 322,910 322,911 321,912 321,913 321,914 321,915 320,916 319,917 318,918 317,919 316,919 315,920 314,921 313,921 312,922 311,922 310,923 309,923 308,924 307,925 306,925 305,926 304,927 303,928 303,929 303,930 303,931 303,932 302,933 302,934 302,935 302,936 302,937 302,938 301,939 301,940 301,941 301,942 301,943 301,944 301,945 300,946 300,947 300,948 300,949 300,950 300,951 300,952 300,953 299,954 299,955 299,956 299,957 299,958 299,959 299,960 299,961 299,962 298,963 298,964 298,965 298,966 297,967 297,968 297,969 297,970 297,971 297,972 297,973 297,974 297,975 297,976 296,977 296,978 296,979 296,980 296,981 296,982 296,983 295,984 295,985 295,986 295,987 295,988 294,989 294,990 294,991 294,992 294,993 293,994 293,995 293,996 293,997 293,998 293,999 293,1000 292,1001 292,1002 292,1003 292,1004 291,1005 291,1006 291,1007 291,1008 291,1009 290,1010 290,1011 290,1012 290,1013 289,1014 289,1015 289,1016 288,1017 288,1018 288,1019 288,1020 287,1021 287,1022 286,1023 286,1024 286,1025 285,1026 284,1027 284,1028 283,1029 283,1030 282,1031 282,1032 281,1033 281,1034 280,1035 279,1036 279,1037 278,1038 278,1039 277,1040 276,1041 276,1042 275,1043 274,1044 274,1045 273,1046 272,1047 272,1048 271,1049 270,1049 269,1050 269,1051 268,1052 268,1053 268,1054 268,1055 268,1056 268,1057 268,1058 268,1059 268,1060 269,1061 269,1062 269,1063 269,1064 269,1065 269,1066 270,1067 270,1068 270,1069 270,1070 270,1071 271,1072 271,1073 271,1074 271,1075 272,1076 272,1077 272,1078 272,1079 273,1080 273,1081 274,1082 274,1083 274,1084 275,1085 275,1086 275,1087 276,1088 276,1089 276,1090 277,1091 277,1092 278,1093 278,1094 278,1095 279,1096 279,1097 280,1098 280,1099 281,1100 282,1101 282,1102 283,1103 283,1104 284,1105 285,1106 285,1107 286,1108 287,1109 288,1110 289,1111 290,1112 291,1113 292,1114 293,1115 294,1116 295,1117 296,1117 297,1118 298,1118 299,1119 300,1120 301,1120 302,1120 303,1121 304,1121 305,1121 306,1122 307,1122 308,1122 309,1123 310,1123 311,1123 312,1124 313,1124 314,1125 315,1125 316,1125 317,1126 318,1126 319,1126 320,1127 321,1127 322,1127 323,1128 324,1128 325,1128 326,1128 327,1129 328,1129 329,1129 330,1130 331,1130 332,1130 333,1130 334,1131 335,1131 336,1132 337,1132 338,1132 339,1133 340,1133 341,1134 342,1134 343,1134 344,1135 345,1136 346,1136 347,1137 348,1137 349,1137 350,1138 351,1138 352,1139 353,1139 354,1139 355,1140 356,1140 357,1141 358,1141 359,1142 360,1143 361,1143 362,1143 363,1143 364,1144 365,1144 366,1144 367,1144 368,1144 369,1144 370,1145 371,1145 372,1145 373,1145 374,1145 375,1145 376,1145 377,1146 378,1146 379,1146 380,1146 381,1146 382,1146 383,1146 384,1146 385,1147 386,1147 387,1147 388,1147 389,1147 390,1147 391,1147 392,1147 393,1147 394,1147 395,1147 396,1147 397,1148 398,1148 399,1148 400,1148 401,1148 402,1148 403,1148 404,1148 405,1148 406,1148 407,1148 408,1148 409,1149 410,1149 411,1149 412,1149 413,1149 414,1149 415,1149 416,1149 417,1149 418,1149 419,1149 420,1149 421,1149 422,1149 423,1149 424,1149 425,1149 426,1148 427,1148 428,1148 429,1148 430,1148 431,1148 432,1148 433,1147 434,1147 435,1147 436,1147 437,1147 438,1147 439,1147 440,1146 441,1146 442,1146 443,1146 444,1145 445,1145 446,1145 447,1144 448,1144 449,1143 450,1143 451,1142 452,1142 453,1141 454,1141 455,1140 456,1140 457,1139 458,1139 459,1138 460,1138 461,1137 462,1136 463,1136 464,1135 465,1135 466,1134 467,1134 468,1134 469,1133 470,1133 471,1133 472,1133 473,1132 474,1132 475,1132 476,1132 477,1132 478,1131 479,1131 480,1131 481,1131 482,1131 483,1130 484,1130 485,1130 486,1130 487,1129 488,1129 489,1129 490,1129 491,1129 492,1128 493,1128 494,1128 495,1127 496,1127 497,1127 498,1127 499,1127 500,1126 501,1126 502,1125 503,1125 504,1124 505,1124 506,1124 507,1124 508,1123 509,1123 510,1123 511,1122 512,1122 513,1121 514,1121 515,1121 516,1120 517,1119 518,1119 519,1119 520,1118 521,1118 522,1117 523,1116 524,1116 525,1115 526,1114 527,1113 528,1112 528,1111 529,1110 530,1109 531,1108 531,1107 532,1106 533,1105 533,1104 534,1103 534,1102 535,1101 536,1100 536,1099 537,1098 537,1097 538,1096 538,1095 539,1094 539,1093 540,1092 541,1091 541,1090 542,1089 542,1088 542,1087 543,1086 543,1085 544,1084 544,1083 545,1082 545,1081 545,1080 546,1079 546,1078 547,1077 547,1076 547,1075 548,1074 548,1073 548,1072 549,1071 549,1070 549,1069 549,1068 550,1067 550,1066 550,1065 550,1064 551,1063 551,1062 551,1061 551,1060 552,1059 552,1058 552,1057 552,1056 552,1055 552,1054 552,1053 552,1052 552,1051 552,1050 552,1049 551,1048 551,1047 550,1046 549,1045 548,1044 547,1043 546,1042 546,1041 545,1040 544,1039 543,1038 542,1037 541,1036 541,1035 540,1034 539,1033 538,1032 537,1031 537,1030 536,1029 536,1028 535,1027 535,1026 534,1025 534,1024 534,1023 533,1022 533,1021 533,1020 532,1019 532,1018 532,1017 531,1016 531,1015 531,1014 531,1013 530,1012 530,1011 530,1010 530,1009 529,1008 529,1007 529,1006 529,1005 528,1004 528,1003 528,1002 528,1001 528,1000 528,999 527,998 527,997 527,996 527,995 527,994 526,993 526,992 526,991 526,990 526,989 526,988 526,987 525,986 525,985 525,984 525,983 525,982 525,981 525,980 524,979 524,978 524,977 524,976 524,975 524,974 524,973 523,972 523,971 523,970 523,969 523,968 523,967 523,966 523,965 523,964 522,963 522,962 522,961 522,960 522,959 522,958 522,957 522,956 522,955 522,954 521,953 521,952 521,951 521,950 521,949 521,948 521,947 521,946 521,945 520,944 520,943 520,942 520,941 520,940 520,939 520,938 520,937 519,936 519,935 519,934 518,933 517,932 516,931 515,930 514,929 513,928 512,927 511,926 510,925 509,925 508,924 507,923 506,922 505,922 504,921 504,920 503,919 502,918 501,917 500,916 499,915 499,914 499,913 499,912 499,911 499,910 499,909 500,908 500,907 500,906 500,905 500,904 501,903 501,902 501,901 501,900 501,899 502,898 502,897 502,896 502,895 502,894 503,893 503,892 503,891 503,890 503,889 503,888 504,887 504,886 504,885 503,884 502,883 501,882 500,881 499,881 498,880 497,880 496,879 495,878 494,878 493,877 492,876 491,875 490,875 489,874 488,873 487,873 486,872 485,872 484,871 483,870 482,870 481,869 480,869 479,868 478,868 477,867 476,867 475,866 474,866 473,866 472,865 471,865 470,865">
      <metadata tailDirection="" confidence="0.89" linkedToCharacter="" id="UltraEleven_192_balloon_0" tailTip=""></metadata>
    </polygon>
    <polygon points="654,861 653,862 652,862 651,862 650,862 649,862 648,862 647,862 646,862 645,862 644,862 643,862 642,862 641,862 640,862 639,862 638,862 637,862 636,862 635,862 634,862 633,862 632,862 631,862 630,862 629,862 628,862 627,862 626,862 625,862 624,862 623,862 622,862 621,862 620,862 619,862 618,862 617,862 616,862 615,862 614,862 613,863 612,863 611,864 610,865 609,866 608,866 607,867 606,868 605,869 604,870 603,871 602,872 601,873 600,874 599,875 599,876 598,877 597,878 596,879 595,880 594,881 594,882 593,883 592,884 592,885 592,886 591,887 591,888 591,889 591,890 591,891 591,892 591,893 590,894 590,895 590,896 590,897 590,898 590,899 589,900 589,901 589,902 589,903 589,904 589,905 589,906 589,907 588,908 588,909 588,910 588,911 588,912 588,913 588,914 588,915 588,916 588,917 588,918 588,919 588,920 587,921 587,922 587,923 587,924 587,925 587,926 587,927 586,928 586,929 586,930 586,931 586,932 586,933 586,934 586,935 586,936 586,937 586,938 586,939 586,940 586,941 586,942 586,943 585,944 585,945 585,946 586,947 585,948 585,949 585,950 585,951 585,952 585,953 585,954 585,955 585,956 585,957 585,958 585,959 585,960 585,961 585,962 585,963 585,964 585,965 585,966 585,967 585,968 585,969 585,970 585,971 585,972 586,973 586,974 586,975 586,976 586,977 586,978 586,979 587,980 587,981 588,982 588,983 589,984 590,985 590,986 591,987 592,988 593,989 594,990 595,991 596,992 597,993 598,994 599,995 600,996 601,996 602,997 603,998 604,999 605,999 606,1000 607,1001 608,1002 609,1002 610,1003 611,1004 612,1005 613,1006 614,1007 614,1008 614,1009 613,1010 613,1011 612,1012 611,1013 610,1014 609,1015 610,1014 611,1014 612,1014 613,1014 614,1014 615,1015 616,1016 615,1017 614,1018 613,1019 614,1019 615,1018 616,1018 617,1018 618,1017 619,1017 620,1017 621,1017 622,1017 623,1016 624,1017 625,1017 626,1017 627,1018 628,1019 629,1019 630,1020 631,1021 632,1021 633,1022 634,1022 635,1023 636,1024 637,1024 638,1025 639,1025 640,1026 641,1026 642,1027 643,1027 644,1028 645,1028 646,1029 647,1029 648,1030 649,1030 650,1031 651,1031 652,1032 653,1032 654,1032 655,1032 656,1032 657,1032 658,1033 659,1033 660,1033 661,1033 662,1033 663,1033 664,1033 665,1033 666,1034 667,1034 668,1034 669,1034 670,1034 671,1034 672,1034 673,1034 674,1034 675,1034 676,1034 677,1034 678,1034 679,1034 680,1034 681,1034 682,1034 683,1034 684,1034 685,1034 686,1034 687,1034 688,1034 689,1033 690,1033 691,1033 692,1033 693,1033 694,1033 695,1033 696,1033 697,1033 698,1033 699,1033 700,1033 701,1032 702,1032 703,1032 704,1032 705,1032 706,1032 707,1031 708,1031 709,1030 710,1029 711,1029 712,1028 713,1027 714,1027 715,1026 716,1026 717,1025 718,1024 719,1024 720,1023 721,1022 722,1022 723,1021 724,1020 725,1019 726,1018 727,1017 728,1017 729,1016 730,1015 731,1014 732,1014 733,1013 734,1012 735,1011 736,1010 737,1009 738,1008 739,1007 740,1007 741,1006 742,1005 743,1004 744,1003 744,1002 744,1001 744,1000 744,999 744,998 744,997 743,996 744,995 744,994 744,993 744,992 744,991 744,990 743,989 744,988 744,987 743,986 744,985 743,984 743,983 743,982 743,981 743,980 743,979 743,978 743,977 743,976 743,975 743,974 743,973 743,972 743,971 743,970 743,969 743,968 743,967 743,966 743,965 743,964 743,963 743,962 743,961 743,960 743,959 743,958 743,957 743,956 743,955 743,954 743,953 743,952 743,951 743,950 743,949 743,948 743,947 743,946 743,945 743,944 743,943 743,942 743,941 743,940 743,939 743,938 743,937 743,936 743,935 743,934 743,933 743,932 743,931 743,930 743,929 743,928 743,927 743,926 743,925 743,924 743,923 743,922 743,921 743,920 743,919 743,918 743,917 743,916 743,915 743,914 743,913 743,912 743,911 743,910 743,909 743,908 743,907 743,906 743,905 743,904 743,903 743,902 743,901 743,900 743,899 743,898 743,897 743,896 743,895 743,894 743,893 743,892 743,891 743,890 743,889 743,888 743,887 743,886 743,885 743,884 743,883 743,882 743,881 743,880 743,879 743,878 743,877 743,876 743,875 743,874 743,873 743,872 743,871 743,870 743,869 743,868 743,867 743,866 743,865 743,864 743,863 743,862 743,861 742,861 741,861 740,861 739,861 738,861 737,861 736,861 735,861 734,861 733,861 732,861 731,861 730,861 729,861 728,861 727,861 726,861 725,861 724,861 723,861 722,861 721,861 720,861 719,861 718,861 717,861 716,861 715,861 714,861 713,861 712,861 711,861 710,861 709,861 708,861 707,861 706,861 705,861 704,861 703,861 702,861 701,861 700,861 699,861 698,861 697,861 696,861 695,861 694,861 693,861 692,861 691,861 690,861 689,861 688,861 687,861 686,861 685,861 684,861 683,861 682,861 681,861 680,861 679,861 678,861 677,861 676,861 675,861 674,861 673,861 672,861 671,861 670,861 669,861 668,861 667,862 666,862 665,862 664,862 663,861 662,861 661,862 660,862 659,861 658,861 657,862 656,862 655,862 654,861">
      <metadata tailDirection="" confidence="0.89" linkedToCharacter="" id="UltraEleven_192_balloon_1" tailTip=""></metadata>
    </polygon>
    <polygon points="687,672 686,673 685,673 684,673 683,673 682,673 681,673 680,673 679,673 678,673 677,673 676,673 675,673 674,673 673,673 672,673 672,674 671,675 670,676 670,677 669,678 669,679 668,680 668,681 667,682 667,683 666,684 666,685 665,686 664,687 664,688 663,689 663,690 662,691 661,691 660,690 659,689 658,689 657,688 656,687 655,687 654,686 653,686 652,685 651,684 650,684 649,683 648,683 647,683 646,682 645,682 644,682 643,681 642,681 641,680 640,680 639,679 638,679 637,678 636,678 635,678 634,677 633,677 632,677 631,677 630,677 629,676 628,676 627,676 626,676 625,676 624,676 623,676 622,676 621,676 620,676 619,676 618,676 617,676 616,676 615,676 614,675 613,675 612,675 611,675 610,675 609,675 608,675 607,675 606,675 605,675 604,675 603,675 602,676 601,676 600,676 599,676 598,676 597,676 596,676 595,676 594,676 593,676 592,676 591,676 590,676 589,677 588,677 587,677 586,677 585,677 584,677 583,677 582,677 581,677 580,677 579,677 578,678 577,678 576,678 575,678 574,678 573,679 572,679 571,679 570,679 569,680 568,680 567,680 566,680 565,681 564,681 563,681 562,682 561,682 560,682 559,682 558,683 557,683 556,683 555,684 554,684 553,685 552,685 551,686 550,687 549,687 548,687 547,688 546,688 545,689 544,689 543,690 542,690 541,691 540,691 539,692 538,693 537,694 536,694 535,695 534,696 533,697 532,698 532,699 531,700 530,701 530,702 529,703 529,704 528,705 528,706 528,707 527,708 527,709 526,710 526,711 525,712 525,713 525,714 524,715 524,716 523,717 523,718 523,719 522,720 522,721 522,722 521,723 521,724 521,725 520,726 520,727 519,728 519,729 519,730 519,731 518,732 518,733 518,734 517,735 517,736 517,737 517,738 516,739 516,740 516,741 516,742 515,743 515,744 515,745 514,746 514,747 514,748 513,749 513,750 513,751 512,752 512,753 512,754 511,755 511,756 511,757 511,758 511,759 511,760 511,761 511,762 511,763 511,764 511,765 511,766 511,767 511,768 511,769 511,770 511,771 511,772 511,773 511,774 511,775 511,776 512,777 512,778 512,779 512,780 513,781 513,782 513,783 514,784 514,785 515,786 515,787 515,788 516,789 516,790 516,791 517,792 517,793 518,794 518,795 518,796 519,797 519,798 519,799 520,800 520,801 521,802 521,803 522,804 522,805 523,806 523,807 524,808 524,809 525,810 526,811 526,812 527,813 527,814 528,815 528,816 529,817 530,817 531,818 532,818 533,819 533,820 534,820 535,821 536,822 537,823 538,824 539,824 540,825 541,825 542,826 543,827 544,828 545,828 546,829 547,829 548,830 549,831 550,831 551,831 552,831 553,831 554,831 555,831 556,831 557,831 558,831 559,831 560,831 561,831 562,831 563,831 564,831 565,831 566,831 567,831 568,831 569,831 570,831 571,831 572,831 573,831 574,831 575,831 576,831 577,831 578,831 579,831 580,831 581,831 582,831 583,831 584,831 585,831 586,831 587,831 588,831 589,831 590,831 591,831 592,831 593,831 594,831 595,831 596,831 597,831 598,831 599,831 600,831 601,831 602,831 603,831 604,831 605,831 606,831 607,831 608,831 609,831 610,831 611,831 612,831 613,831 614,831 615,831 616,831 617,831 618,831 619,831 620,831 621,831 622,831 623,831 624,831 625,831 626,831 627,831 628,831 629,831 630,831 631,831 632,831 633,831 634,831 635,831 636,831 637,831 638,831 639,831 640,831 641,831 642,831 643,831 644,831 645,831 646,830 647,829 648,829 649,828 650,827 651,826 652,825 653,824 654,823 655,822 656,821 657,820 658,819 659,818 660,817 661,817 662,818 662,819 663,820 663,821 664,822 665,823 666,824 667,825 668,826 669,827 670,828 671,829 672,830 673,830 674,831 675,831 676,831 677,831 678,831 679,831 680,831 681,831 682,831 683,831 684,831 685,831 686,831 687,831 688,831 689,831 690,831 691,831 692,831 693,831 694,831 695,831 696,831 697,831 698,831 699,831 700,831 701,831 702,831 703,831 704,831 705,831 706,831 707,831 708,831 709,831 710,831 711,831 712,831 713,831 714,831 715,831 716,831 717,831 718,831 719,831 720,831 721,831 722,831 723,831 724,831 725,831 726,831 727,831 728,831 729,831 730,831 731,831 732,830 733,829 733,828 734,827 735,826 735,825 736,824 737,823 737,822 738,821 738,820 739,819 739,818 740,817 740,816 741,815 741,814 742,813 742,812 743,811 743,810 744,809 743,808 744,807 744,806 744,805 744,804 744,803 744,802 743,801 743,800 743,799 743,798 743,797 743,796 743,795 743,794 743,793 743,792 743,791 743,790 743,789 743,788 743,787 743,786 743,785 743,784 743,783 743,782 743,781 743,780 743,779 743,778 743,777 743,776 743,775 743,774 743,773 743,772 743,771 743,770 743,769 743,768 743,767 743,766 743,765 743,764 744,763 744,762 744,761 743,760 743,759 743,758 744,757 744,756 743,755 743,754 743,753 744,752 743,751 743,750 743,749 743,748 743,747 743,746 744,745 743,744 743,743 743,742 743,741 743,740 743,739 743,738 744,737 743,736 743,735 743,734 743,733 743,732 743,731 743,730 743,729 743,728 743,727 744,726 744,725 744,724 744,723 744,722 744,721 744,720 744,719 744,718 744,717 744,716 744,715 744,714 744,713 744,712 744,711 744,710 744,709 744,708 744,707 744,706 744,705 744,704 744,703 744,702 744,701 744,700 744,699 744,698 744,697 744,696 744,695 744,694 744,693 743,692 744,691 744,690 744,689 744,688 744,687 744,686 744,685 744,684 744,683 744,682 744,681 744,680 744,679 744,678 744,677 744,676 744,675 744,674 744,673 744,672 743,672 742,672 741,672 740,672 739,672 738,672 737,672 736,672 735,672 734,672 733,672 732,672 731,672 730,672 729,672 728,672 727,672 726,672 725,672 724,672 723,672 722,672 721,672 720,672 719,672 718,672 717,672 716,672 715,672 714,672 713,672 712,672 711,672 710,672 709,672 708,672 707,673 706,672 705,672 704,673 703,672 702,672 701,672 700,672 699,673 698,673 697,673 696,673 695,673 694,672 693,672 692,672 691,672 690,672 689,672 688,673 687,672">
      <metadata tailDirection="" confidence="0.90" linkedToCharacter="" id="UltraEleven_192_balloon_2" tailTip=""></metadata>
    </polygon>
    <polygon points="128,624 127,625 126,625 125,625 124,625 123,625 122,625 121,625 120,625 119,626 118,626 117,626 116,626 115,626 114,626 113,627 112,627 111,627 110,628 109,628 108,628 107,628 106,628 105,629 104,629 103,629 102,630 101,630 100,631 99,631 98,632 97,633 96,633 95,634 95,635 94,636 93,636 93,637 92,638 91,639 90,640 90,641 89,642 89,643 88,644 87,645 87,646 86,647 85,648 85,649 84,650 84,651 83,652 83,653 82,654 82,655 81,656 81,657 80,658 80,659 79,660 79,661 79,662 78,663 77,664 77,665 76,666 76,667 75,668 75,669 74,670 74,671 74,672 73,673 73,674 72,675 71,676 71,677 71,678 70,679 70,680 70,681 70,682 70,683 70,684 70,685 70,686 70,687 70,688 70,689 70,690 70,691 70,692 70,693 70,694 70,695 70,696 70,697 70,698 70,699 70,700 70,701 70,702 70,703 70,704 70,705 70,706 70,707 70,708 70,709 70,710 70,711 70,712 70,713 70,714 70,715 70,716 70,717 70,718 70,719 70,720 70,721 70,722 70,723 70,724 70,725 70,726 70,727 70,728 70,729 70,730 70,731 70,732 70,733 70,734 70,735 70,736 70,737 70,738 70,739 70,740 70,741 70,742 70,743 70,744 70,745 70,746 70,747 70,748 70,749 70,750 70,751 70,752 70,753 70,754 70,755 70,756 69,757 70,758 70,759 70,760 70,761 70,762 70,763 69,764 69,765 69,766 70,767 69,768 69,769 70,770 70,771 70,772 70,773 70,774 70,775 69,776 69,777 70,778 70,779 69,780 70,781 69,782 69,783 69,784 69,785 69,786 69,787 69,788 69,789 69,790 69,791 69,792 69,793 69,794 69,795 69,796 69,797 69,798 69,799 69,800 69,801 69,802 69,803 69,804 69,805 69,806 69,807 69,808 69,809 69,810 69,811 69,812 69,813 69,814 69,815 69,816 69,817 69,818 69,819 69,820 69,821 70,822 70,823 71,824 71,825 72,826 73,827 74,828 75,829 76,830 76,831 77,832 77,833 78,834 79,835 79,836 80,836 81,837 82,838 82,839 83,839 84,840 85,841 86,842 87,842 88,842 89,843 90,843 91,844 92,844 93,845 94,845 95,846 96,846 97,846 98,847 99,847 100,848 101,848 102,848 103,849 104,849 105,849 106,850 107,850 108,850 109,850 110,851 111,851 112,851 113,851 114,852 115,852 116,852 117,853 118,853 119,853 120,853 121,853 122,854 123,854 124,854 125,854 126,854 127,855 128,855 129,855 130,855 131,855 132,856 133,856 134,856 135,856 136,856 137,857 138,857 139,857 140,857 141,857 142,857 143,858 144,858 145,858 146,858 147,858 148,858 149,858 150,858 151,858 152,858 153,858 154,858 155,858 156,858 157,858 158,858 159,858 160,858 161,858 162,858 163,858 164,858 165,858 166,858 167,858 168,858 169,857 170,857 171,857 172,857 173,857 174,857 175,857 176,857 177,857 178,857 179,857 180,857 181,856 182,856 183,856 184,856 185,856 186,856 187,855 188,855 189,855 190,855 191,854 192,854 193,854 194,853 195,853 196,852 197,852 198,852 199,851 200,851 201,850 202,850 203,850 204,849 205,849 206,848 207,848 208,847 209,847 210,846 211,845 212,844 213,843 214,843 215,842 216,841 217,840 217,839 218,838 219,837 220,836 221,835 222,834 223,834 224,833 225,832 226,831 226,830 227,829 228,828 229,827 229,826 230,825 231,825 231,824 232,823 233,822 234,821 235,820 236,819 236,818 237,817 237,816 238,815 239,814 239,813 240,812 240,811 241,810 241,809 241,808 242,807 242,806 242,805 242,804 242,803 243,802 243,801 243,800 243,799 243,798 244,797 244,796 244,795 244,794 244,793 244,792 244,791 244,790 245,789 245,788 245,787 245,786 245,785 245,784 245,783 245,782 245,781 245,780 245,779 245,778 245,777 245,776 245,775 245,774 245,773 245,772 245,771 245,770 245,769 245,768 245,767 245,766 245,765 245,764 245,763 245,762 245,761 244,760 244,759 244,758 244,757 244,756 244,755 244,754 244,753 244,752 244,751 244,750 244,749 244,748 244,747 244,746 244,745 244,744 244,743 244,742 244,741 244,740 244,739 244,738 244,737 244,736 244,735 244,734 244,733 244,732 244,731 244,730 244,729 244,728 244,727 244,726 244,725 243,724 243,723 243,722 243,721 243,720 243,719 243,718 243,717 243,716 243,715 243,714 243,713 243,712 243,711 243,710 243,709 243,708 243,707 243,706 243,705 243,704 243,703 243,702 243,701 243,700 242,699 242,698 242,697 242,696 242,695 242,694 242,693 242,692 242,691 242,690 242,689 242,688 242,687 242,686 242,685 242,684 242,683 242,682 242,681 242,680 242,679 242,678 241,677 241,676 241,675 241,674 241,673 241,672 241,671 241,670 241,669 240,668 240,667 239,666 239,665 238,664 238,663 237,662 236,661 235,660 235,659 234,658 233,657 232,656 231,655 231,654 230,653 229,652 228,651 227,650 226,649 225,648 224,647 224,646 223,645 222,644 222,643 221,642 220,641 219,640 218,639 217,638 216,638 215,637 214,636 213,635 212,635 211,634 210,633 209,633 208,632 207,632 206,632 205,631 204,631 203,631 202,631 201,630 200,630 199,630 198,630 197,629 196,629 195,629 194,629 193,628 192,628 191,628 190,628 189,628 188,628 187,627 186,627 185,627 184,627 183,627 182,627 181,626 180,626 179,626 178,626 177,626 176,626 175,626 174,626 173,626 172,626 171,626 170,626 169,626 168,626 167,625 166,625 165,625 164,625 163,625 162,625 161,625 160,625 159,625 158,625 157,625 156,625 155,625 154,625 153,625 152,625 151,625 150,625 149,625 148,625 147,625 146,625 145,625 144,625 143,625 142,625 141,625 140,625 139,625 138,625 137,625 136,625 135,624 134,624 133,625 132,625 131,625 130,624 129,624 128,624">
      <metadata tailDirection="" confidence="0.93" linkedToCharacter="" id="UltraEleven_192_balloon_3" tailTip=""></metadata>
    </polygon>
    <polygon points="88,566 87,567 86,568 85,569 84,570 83,571 83,572 83,573 83,574 84,575 84,576 83,577 82,577 81,577 80,577 80,578 79,579 80,580 79,581 79,582 78,583 78,584 78,585 77,586 77,587 77,588 77,589 76,590 76,591 76,592 76,593 75,594 74,595 74,596 73,597 73,598 73,599 72,600 71,601 70,602 69,603 70,603 71,604 70,605 69,605 69,606 69,607 69,608 69,609 69,610 69,611 69,612 69,613 69,614 69,615 69,616 70,617 70,618 71,619 72,620 73,621 74,622 75,623 76,624 77,624 78,624 79,625 80,625 81,625 82,625 83,625 84,624 85,624 86,625 86,624 87,623 88,624 89,624 90,623 91,624 92,624 93,623 94,624 95,624 96,623 97,624 98,623 99,623 100,624 101,623 102,623 103,624 104,623 105,623 106,623 107,623 108,623 109,623 110,623 111,623 112,623 113,623 113,622 114,621 115,621 116,622 115,621 116,620 116,619 117,618 117,617 116,616 115,615 116,614 115,613 115,612 115,611 115,610 116,609 117,610 118,609 119,609 120,609 121,608 122,609 123,608 124,608 125,607 126,607 127,607 128,607 128,606 127,605 127,604 128,603 127,602 127,601 126,600 126,599 125,598 125,597 124,596 125,595 124,594 124,593 124,592 124,591 124,590 124,589 124,588 124,587 124,586 124,585 124,584 123,583 123,582 123,581 122,580 121,580 120,579 119,578 120,577 120,576 121,575 121,574 120,573 119,572 119,571 118,570 117,569 116,568 115,567 114,567 113,566 112,567 111,567 110,567 109,567 108,568 107,568 106,568 105,568 104,569 103,568 102,569 101,569 100,568 99,569 98,568 97,568 96,569 95,568 94,567 93,566 92,566 91,566 90,566 89,566 88,566">
      <metadata tailDirection="" confidence="0.87" linkedToCharacter="" id="UltraEleven_192_balloon_4" tailTip=""></metadata>
    </polygon>
    <polygon points="208,435 207,436 206,436 205,436 204,437 203,437 202,438 201,439 200,440 199,440 198,441 197,442 197,443 196,444 195,445 194,446 194,447 193,448 192,449 192,450 191,451 191,452 190,453 190,454 190,455 189,456 189,457 188,458 188,459 188,460 187,461 187,462 187,463 186,464 186,465 186,466 186,467 185,468 185,469 185,470 185,471 184,472 184,473 184,474 184,475 183,476 183,477 183,478 183,479 183,480 183,481 182,482 182,483 182,484 182,485 182,486 182,487 182,488 182,489 182,490 182,491 181,492 181,493 181,494 181,495 181,496 181,497 181,498 181,499 181,500 181,501 181,502 181,503 181,504 181,505 181,506 181,507 181,508 181,509 181,510 182,511 182,512 182,513 182,514 182,515 182,516 182,517 182,518 182,519 182,520 182,521 183,522 183,523 183,524 183,525 183,526 183,527 183,528 184,529 184,530 184,531 184,532 184,533 185,534 185,535 185,536 185,537 186,538 186,539 186,540 187,541 187,542 187,543 188,544 188,545 188,546 189,547 189,548 189,549 189,550 190,551 190,552 190,553 191,554 191,555 192,556 193,557 193,558 194,559 194,560 195,561 196,562 197,563 198,563 199,564 200,564 201,564 202,565 203,565 204,565 205,566 206,566 207,566 208,566 209,566 210,566 211,565 212,565 213,565 214,565 215,565 216,565 217,565 218,565 219,565 220,564 221,564 222,564 223,563 224,563 225,562 226,562 227,561 228,561 229,560 230,559 231,558 232,557 233,556 234,555 235,554 236,553 236,552 237,551 237,550 238,549 238,548 239,547 239,546 240,545 240,544 240,543 240,542 241,541 241,540 241,539 241,538 242,537 242,536 242,535 243,534 243,533 243,532 244,531 244,530 245,529 245,528 246,527 246,526 247,525 248,524 249,523 250,522 251,521 252,521 251,520 250,519 249,518 248,517 248,516 247,515 246,514 246,513 246,512 245,511 245,510 245,509 244,508 244,507 244,506 244,505 244,504 244,503 243,502 243,501 243,500 243,499 243,498 243,497 243,496 243,495 243,494 243,493 243,492 243,491 243,490 243,489 243,488 243,487 243,486 243,485 243,484 242,483 242,482 242,481 242,480 242,479 242,478 242,477 242,476 242,475 242,474 242,473 242,472 242,471 242,470 241,469 241,468 241,467 241,466 241,465 241,464 241,463 241,462 241,461 241,460 241,459 240,458 240,457 240,456 240,455 239,454 239,453 239,452 238,451 238,450 237,449 237,448 236,447 235,446 235,445 234,444 233,443 232,442 231,441 230,440 229,439 228,438 227,438 226,437 225,437 224,436 223,436 222,436 221,436 220,435 219,435 218,435 217,435 216,435 215,435 214,435 213,435 212,435 211,435 210,435 209,435 208,435">
      <metadata tailDirection="" confidence="0.99" linkedToCharacter="" id="UltraEleven_192_balloon_5" tailTip=""></metadata>
    </polygon>
    <polygon points="129,86 128,87 127,87 126,87 125,87 124,87 123,87 122,87 121,87 120,87 119,87 118,87 117,87 116,87 115,87 114,87 113,87 112,87 111,87 110,87 109,87 108,87 107,87 106,87 105,87 104,87 103,87 102,87 101,88 100,88 99,88 98,88 97,88 96,88 95,89 94,89 93,89 92,89 91,90 90,90 89,91 88,91 87,92 86,92 85,93 84,94 83,94 82,95 81,95 80,96 79,97 78,98 77,99 76,100 75,101 74,101 73,102 73,103 72,104 71,104 71,105 70,106 70,107 70,108 70,109 70,110 70,111 70,112 70,113 70,114 70,115 70,116 70,117 70,118 70,119 70,120 70,121 70,122 70,123 70,124 70,125 70,126 70,127 70,128 70,129 70,130 70,131 70,132 70,133 70,134 70,135 70,136 70,137 70,138 70,139 70,140 70,141 70,142 70,143 70,144 70,145 70,146 70,147 70,148 70,149 70,150 70,151 70,152 70,153 70,154 70,155 70,156 70,157 70,158 70,159 70,160 70,161 70,162 70,163 70,164 70,165 70,166 70,167 70,168 70,169 70,170 70,171 70,172 70,173 70,174 70,175 70,176 70,177 70,178 70,179 70,180 70,181 70,182 70,183 70,184 70,185 70,186 70,187 70,188 70,189 70,190 70,191 70,192 70,193 70,194 70,195 70,196 70,197 70,198 70,199 70,200 70,201 70,202 70,203 70,204 70,205 70,206 70,207 70,208 70,209 70,210 70,211 70,212 70,213 70,214 70,215 70,216 70,217 70,218 70,219 70,220 70,221 70,222 70,223 70,224 70,225 70,226 70,227 70,228 70,229 70,230 70,231 70,232 70,233 70,234 70,235 70,236 70,237 70,238 70,239 70,240 70,241 70,242 70,243 70,244 70,245 70,246 70,247 70,248 70,249 70,250 70,251 70,252 70,253 70,254 70,255 70,256 70,257 70,258 70,259 70,260 70,261 70,262 70,263 70,264 70,265 70,266 70,267 70,268 70,269 70,270 70,271 70,272 70,273 70,274 70,275 70,276 70,277 70,278 70,279 70,280 70,281 70,282 70,283 70,284 70,285 70,286 70,287 70,288 70,289 70,290 70,291 70,292 70,293 71,293 72,293 73,293 74,293 75,293 76,293 77,293 78,293 79,293 80,293 81,293 82,293 83,293 84,293 85,293 86,293 87,293 88,293 89,293 90,293 91,293 92,293 93,293 94,293 95,293 96,293 97,293 98,293 99,293 100,293 101,293 102,293 103,293 104,293 105,293 106,293 107,293 108,293 109,293 110,293 111,293 112,293 113,293 114,293 115,293 116,293 117,293 118,293 119,293 120,293 121,293 122,293 123,293 124,293 125,293 126,293 127,293 128,293 129,293 130,293 131,293 132,293 133,293 134,293 135,293 136,293 137,293 138,293 139,293 140,293 141,293 142,293 143,293 144,293 145,293 146,293 147,293 148,293 149,293 150,293 151,293 152,293 153,293 154,293 155,293 156,293 157,293 158,293 159,293 160,293 161,293 162,293 163,293 164,293 165,293 166,293 167,293 168,293 169,293 170,293 171,293 172,293 173,293 174,293 175,293 176,293 177,293 178,293 179,293 180,293 181,293 182,293 183,293 184,293 185,293 186,293 187,293 188,293 189,293 190,293 191,293 192,293 193,293 194,293 195,293 196,293 197,293 198,293 199,293 200,293 201,293 202,293 203,293 204,293 205,293 206,293 207,293 208,293 209,293 210,293 211,293 212,293 213,293 214,293 215,292 216,291 217,291 218,290 219,289 220,288 221,287 222,286 223,285 224,284 225,283 226,282 227,281 228,280 228,279 229,278 229,277 230,276 231,275 231,274 232,273 233,272 233,271 234,270 235,269 235,268 236,267 236,266 237,265 237,264 238,263 238,262 239,261 240,260 240,259 240,258 241,257 241,256 242,255 242,254 243,253 243,252 244,251 244,250 244,249 245,248 245,247 245,246 246,245 246,244 247,243 247,242 247,241 248,240 248,239 248,238 249,237 249,236 249,235 250,234 250,233 250,232 251,231 251,230 252,229 252,228 252,227 252,226 252,225 253,224 253,223 253,222 253,221 254,220 254,219 254,218 254,217 254,216 254,215 254,214 254,213 254,212 254,211 254,210 254,209 254,208 253,207 253,206 253,205 253,204 253,203 253,202 252,201 252,200 252,199 252,198 252,197 251,196 251,195 251,194 251,193 250,192 250,191 250,190 250,189 250,188 249,187 249,186 249,185 249,184 249,183 248,182 248,181 248,180 248,179 248,178 247,177 247,176 247,175 247,174 247,173 246,172 246,171 246,170 246,169 246,168 245,167 245,166 245,165 245,164 245,163 245,162 244,161 244,160 244,159 244,158 244,157 243,156 243,155 243,154 243,153 243,152 242,151 242,150 242,149 242,148 241,147 241,146 241,145 241,144 241,143 240,142 240,141 240,140 239,139 239,138 239,137 238,136 238,135 238,134 237,133 237,132 236,131 236,130 235,129 234,128 234,127 233,126 232,125 232,124 231,123 230,122 229,121 229,120 228,119 227,118 226,117 226,116 225,115 224,115 223,114 223,113 222,112 221,111 220,110 219,111 218,111 218,112 217,113 216,113 215,112 214,112 213,111 213,110 214,109 215,109 215,108 216,107 217,107 218,108 218,107 217,106 216,105 215,104 214,103 213,102 212,101 211,100 210,99 209,98 208,97 207,96 206,96 205,95 204,94 203,94 202,93 201,93 200,92 199,92 198,91 197,91 196,90 195,90 194,90 193,90 192,89 191,89 190,89 189,88 188,88 187,88 186,88 185,88 184,88 183,87 182,87 181,87 180,87 179,87 178,87 177,87 176,87 175,87 174,87 173,87 172,87 171,87 170,87 169,87 168,87 167,87 166,87 165,87 164,87 163,87 162,87 161,87 160,87 159,86 158,87 157,87 156,87 155,86 154,86 153,86 152,86 151,86 150,86 149,86 148,86 147,87 146,86 145,86 144,86 143,86 142,86 141,86 140,86 139,86 138,86 137,86 136,86 135,87 134,87 133,87 132,87 131,86 130,86 129,86">
      <metadata tailDirection="" confidence="0.94" linkedToCharacter="" id="UltraEleven_192_balloon_6" tailTip=""></metadata>
    </polygon>
    <polygon points="659,67 658,68 657,69 656,69 655,70 654,71 653,72 652,73 651,74 651,75 650,76 649,77 649,78 648,79 648,80 648,81 647,82 647,83 646,84 646,85 645,86 645,87 645,88 645,89 644,90 644,91 644,92 644,93 644,94 643,95 643,96 643,97 643,98 643,99 643,100 643,101 642,102 642,103 642,104 642,105 642,106 642,107 642,108 642,109 641,110 641,111 641,112 641,113 641,114 641,115 641,116 641,117 641,118 641,119 641,120 641,121 640,122 639,122 638,122 637,122 636,121 636,120 635,119 634,118 633,117 633,116 632,115 631,114 630,113 629,112 628,111 627,111 626,110 625,110 624,109 623,108 622,108 621,108 620,107 619,107 618,107 617,107 616,106 615,106 614,106 613,106 612,106 611,106 610,106 609,106 608,106 607,106 606,105 605,105 604,105 603,105 602,105 601,105 600,105 599,105 598,105 597,105 596,105 595,105 594,105 593,105 592,105 591,105 590,105 589,105 588,105 587,105 586,105 585,105 584,105 583,105 582,105 581,105 580,104 579,104 578,104 577,104 576,104 575,104 574,104 573,104 572,104 571,104 570,104 569,104 568,104 567,104 566,104 565,104 564,104 563,104 562,104 561,104 560,104 559,104 558,104 557,104 556,104 555,104 554,104 553,104 552,104 551,104 550,104 549,104 548,104 547,105 546,105 545,105 544,105 543,105 542,105 541,105 540,105 539,106 538,106 537,106 536,106 535,107 534,107 533,107 532,108 531,108 530,109 529,110 528,110 527,110 526,111 525,112 524,112 523,113 522,114 521,115 520,115 519,116 518,117 517,117 516,118 515,119 514,120 513,121 512,122 511,123 510,124 509,125 508,126 507,127 506,128 505,129 504,130 503,131 502,132 501,133 500,134 500,135 499,136 499,137 498,138 498,139 497,140 497,141 497,142 496,143 496,144 495,145 495,146 495,147 495,148 494,149 494,150 494,151 494,152 494,153 494,154 493,155 493,156 493,157 493,158 493,159 493,160 493,161 493,162 493,163 492,164 492,165 492,166 492,167 492,168 492,169 491,170 491,171 491,172 491,173 491,174 491,175 491,176 491,177 491,178 490,179 490,180 490,181 490,182 490,183 490,184 490,185 490,186 490,187 490,188 490,189 490,190 490,191 490,192 490,193 490,194 490,195 490,196 490,197 490,198 490,199 490,200 490,201 490,202 490,203 490,204 490,205 490,206 490,207 490,208 490,209 490,210 490,211 490,212 490,213 490,214 490,215 491,216 491,217 491,218 491,219 491,220 491,221 491,222 491,223 491,224 491,225 491,226 492,227 492,228 492,229 492,230 492,231 492,232 493,233 493,234 493,235 494,236 494,237 494,238 495,239 495,240 496,241 497,242 497,243 498,244 499,245 500,246 501,247 502,248 503,249 504,250 505,251 506,251 507,252 508,253 509,254 510,255 511,256 512,256 513,257 514,258 515,259 516,259 517,260 518,261 519,261 520,262 521,263 522,263 523,264 524,265 525,266 526,266 527,267 528,268 529,268 530,269 531,270 532,270 533,271 534,271 535,271 536,272 537,272 538,272 539,272 540,273 541,273 542,273 543,273 544,273 545,273 546,273 547,273 548,273 549,273 550,273 551,273 552,273 553,273 554,273 555,273 556,273 557,273 558,273 559,273 560,273 561,273 562,273 563,273 564,273 565,273 566,273 567,273 568,273 569,273 570,273 571,273 572,273 573,273 574,273 575,273 576,273 577,273 578,273 579,273 580,273 581,273 582,273 583,273 584,273 585,273 586,273 587,273 588,273 589,273 590,273 591,272 592,272 593,272 594,272 595,272 596,272 597,272 598,272 599,272 600,272 601,271 602,271 603,271 604,271 605,271 606,271 607,271 608,271 609,270 610,270 611,270 612,269 613,269 614,268 615,268 616,268 617,267 618,267 619,266 620,266 621,265 622,265 623,264 624,263 625,263 626,262 627,261 628,260 629,260 630,259 631,258 632,257 633,256 634,255 635,254 636,253 637,252 638,251 639,250 639,249 640,248 641,247 641,246 642,245 642,244 643,243 643,242 644,241 645,240 645,239 645,238 646,237 647,236 648,236 649,237 649,238 650,239 651,240 652,241 653,242 654,243 655,244 656,244 657,245 658,246 659,247 660,248 661,248 662,249 663,250 664,250 665,251 666,251 667,251 668,252 669,252 670,252 671,252 672,253 673,253 674,253 675,253 676,253 677,253 678,253 679,253 680,254 681,254 682,254 683,254 684,254 685,254 686,254 687,254 688,254 689,254 690,254 691,254 692,254 693,255 694,255 695,255 696,254 697,255 698,255 699,255 700,255 701,254 702,255 703,255 704,255 705,254 706,254 707,254 708,254 709,254 710,254 711,254 712,254 713,254 714,254 715,253 716,253 717,253 718,252 719,252 720,252 721,251 722,251 723,250 724,250 725,249 726,249 727,248 728,248 729,247 730,246 731,245 732,244 733,243 734,243 735,242 736,241 736,240 737,239 738,238 739,237 740,236 741,235 741,234 742,233 743,232 743,231 743,230 743,229 743,228 743,227 743,226 743,225 743,224 743,223 743,222 743,221 743,220 743,219 743,218 743,217 743,216 743,215 743,214 743,213 743,212 743,211 743,210 743,209 743,208 743,207 743,206 743,205 743,204 743,203 743,202 743,201 743,200 743,199 743,198 743,197 743,196 743,195 743,194 743,193 743,192 743,191 743,190 743,189 743,188 743,187 743,186 743,185 743,184 743,183 743,182 743,181 743,180 743,179 743,178 743,177 743,176 743,175 743,174 743,173 743,172 743,171 743,170 743,169 743,168 743,167 743,166 743,165 743,164 743,163 743,162 743,161 743,160 743,159 743,158 743,157 743,156 743,155 743,154 743,153 743,152 743,151 743,150 743,149 743,148 743,147 743,146 743,145 743,144 743,143 743,142 743,141 743,140 743,139 743,138 743,137 743,136 743,135 743,134 743,133 743,132 743,131 743,130 743,129 743,128 743,127 743,126 743,125 743,124 743,123 743,122 743,121 743,120 743,119 743,118 743,117 743,116 743,115 743,114 743,113 743,112 743,111 743,110 743,109 743,108 743,107 743,106 743,105 743,104 743,103 743,102 743,101 743,100 743,99 743,98 743,97 743,96 743,95 743,94 743,93 743,92 743,91 743,90 743,89 743,88 743,87 743,86 743,85 743,84 743,83 744,82 744,81 744,80 744,79 744,78 744,77 744,76 744,75 744,74 744,73 744,72 744,71 744,70 744,69 744,68 744,67 743,67 742,67 741,67 740,67 739,67 738,67 737,67 736,67 735,67 734,67 733,67 732,67 731,67 730,67 729,67 728,67 727,67 726,67 725,67 724,67 723,67 722,67 721,67 720,67 719,67 718,67 717,67 716,67 715,67 714,67 713,67 712,67 711,67 710,67 709,67 708,67 707,67 706,67 705,67 704,67 703,67 702,67 701,67 700,67 699,67 698,67 697,67 696,67 695,67 694,67 693,67 692,67 691,67 690,67 689,67 688,67 687,67 686,67 685,67 684,67 683,67 682,67 681,67 680,67 679,67 678,67 677,67 676,67 675,67 674,67 673,67 672,67 671,67 670,67 669,67 668,67 667,67 666,67 665,67 664,67 663,67 662,67 661,67 660,67 659,67">
      <metadata tailDirection="" confidence="0.90" linkedToCharacter="" id="UltraEleven_192_balloon_7" tailTip=""></metadata>
    </polygon>
  </svg>
</svg>
