<?xml version="1.0" encoding="UTF-8" standalone="no"?>
<svg width="827" xmlns="http://www.w3.org/2000/svg" version="1.0" height="1170">
  <title>UltraEleven_047</title>
  <svg contentScriptType="text/ecmascript" zoomAndPan="magnify" contentStyleType="text/css" class="Page" preserveAspectRatio="xMidYMid meet" version="1.0">
    <image xmlns:xlink="http://www.w3.org/1999/xlink" x="0" y="0" width="827" height="1170" xlink:href="./../../dataset_Manga109/UltraEleven/UltraEleven_047.jpg" xlink:type="simple" xlink:actuate="onLoad" preserveAspectRatio="xMidYMid meet" xlink:show="embed"/>
  </svg>
  <style type="text/css" xml:space="preserve">
        * { stroke-linejoin: round; }
        .Unclassified   { fill: orange; stroke: none;   opacity: 1.0; visibility: hidden; }
        .Noise          { fill: pink;   stroke: none;   opacity: 0.2; visibility: hidden; }
        .Panel          { fill: none;   stroke: red;    stroke-width:3; opacity: 0.5; visibility: visible; image-rendering: optimizeSpeed; }
        .Line           { fill: green;  stroke: none;   opacity: 0.5; visibility: visible; image-rendering: optimizeSpeed; }
        .TextArea       { fill: grey;   stroke: none;   opacity: 0.2; visibility: visible; image-rendering: optimizeSpeed; }
        .Balloon        { fill: cyan;   stroke: none;   opacity: 0.5; visibility: visible; image-rendering: optimizeSpeed; }
        .Letter         { fill: blue;   stroke: none;   opacity: 0.2; visibility: hidden; }
        .Object, .Character, .Face  { fill: yellow; stroke: none;   opacity: 0.5; visibility: visible; image-rendering: optimizeSpeed; }
        .Page           { fill: white;  stroke: none;    opacity: 0.5; visibility: visible; }
        .linkSBSC { fill: blue; stroke: none; opacity: 1.0; visibility: visible; }
        polygon:hover { opacity:1.0; stroke:red; }
</style>
  <svg xmlns="http://www.w3.org/2000/svg" contentScriptType="text/ecmascript" zoomAndPan="magnify" contentStyleType="text/css" class="Balloon" preserveAspectRatio="xMidYMid meet" version="1.0">
    <polygon points="533,1077 532,1078 531,1078 530,1079 529,1079 528,1080 527,1080 526,1080 525,1081 524,1081 523,1082 522,1082 521,1083 520,1083 519,1084 518,1084 517,1085 516,1085 515,1085 514,1086 513,1086 512,1087 511,1087 510,1088 509,1088 508,1089 507,1089 506,1090 505,1090 504,1091 503,1092 502,1092 501,1093 500,1093 499,1094 498,1094 497,1095 498,1095 499,1094 500,1095 501,1095 502,1095 503,1095 504,1095 505,1095 506,1095 507,1095 508,1095 509,1095 510,1095 511,1095 512,1095 513,1094 514,1094 515,1094 516,1095 517,1095 518,1095 519,1095 520,1095 521,1095 522,1095 523,1095 524,1095 525,1095 526,1095 527,1095 528,1095 529,1095 530,1095 531,1095 532,1095 533,1095 534,1095 535,1095 536,1095 537,1095 538,1095 539,1095 540,1095 541,1095 542,1095 543,1095 544,1094 545,1094 546,1093 547,1093 548,1092 549,1092 550,1091 549,1090 548,1089 548,1088 547,1087 546,1087 545,1086 545,1085 544,1084 543,1083 543,1082 542,1082 541,1082 540,1081 539,1081 538,1081 537,1080 537,1079 536,1079 535,1078 534,1077 533,1077">
      <metadata tailDirection="" confidence="0.98" linkedToCharacter="" id="UltraEleven_047_balloon_0" tailTip=""></metadata>
    </polygon>
    <polygon points="88,1048 87,1049 86,1049 85,1049 84,1049 83,1049 82,1049 81,1049 80,1049 79,1049 78,1049 77,1049 76,1049 75,1050 74,1050 73,1051 72,1051 71,1052 70,1053 69,1054 68,1054 67,1055 66,1056 65,1056 64,1057 63,1058 62,1059 61,1059 60,1060 59,1060 58,1061 57,1062 56,1062 55,1063 54,1064 53,1065 52,1065 51,1066 50,1067 49,1068 48,1068 47,1069 47,1070 47,1071 47,1072 47,1073 46,1074 46,1075 46,1076 46,1077 46,1078 46,1079 46,1080 46,1081 46,1082 46,1083 46,1084 46,1085 46,1086 45,1087 45,1088 45,1089 45,1090 45,1091 45,1092 45,1093 45,1094 45,1095 45,1096 45,1097 45,1098 45,1099 45,1100 45,1101 45,1102 45,1103 45,1104 45,1105 45,1106 45,1107 46,1108 46,1109 47,1110 47,1111 48,1112 49,1113 50,1114 51,1115 51,1116 52,1117 53,1118 54,1119 55,1120 56,1121 57,1122 58,1123 59,1124 59,1125 60,1126 61,1127 62,1128 63,1128 64,1129 65,1130 65,1131 66,1132 67,1133 68,1134 69,1134 70,1135 71,1136 72,1136 73,1137 74,1138 75,1138 76,1138 77,1138 78,1138 79,1138 80,1138 81,1138 82,1138 83,1138 84,1138 85,1138 86,1137 87,1137 88,1137 89,1137 90,1137 91,1136 92,1136 93,1136 94,1136 95,1136 96,1135 97,1135 98,1135 99,1134 100,1134 101,1134 102,1133 103,1133 104,1133 105,1132 106,1132 107,1132 108,1131 109,1131 110,1130 111,1130 112,1130 113,1129 114,1129 115,1129 116,1128 117,1128 118,1127 119,1127 120,1126 121,1126 122,1125 123,1125 124,1124 125,1123 125,1122 125,1121 126,1120 126,1119 126,1118 126,1117 126,1116 126,1115 127,1114 127,1113 127,1112 127,1111 127,1110 127,1109 127,1108 128,1107 129,1107 128,1106 128,1105 127,1105 126,1104 125,1103 125,1102 125,1101 124,1100 124,1099 124,1098 124,1097 123,1096 123,1095 123,1094 123,1093 123,1092 123,1091 123,1090 123,1089 123,1088 122,1087 122,1086 122,1085 122,1084 122,1083 121,1082 121,1081 121,1080 121,1079 121,1078 121,1077 120,1076 120,1075 120,1074 120,1073 120,1072 119,1071 119,1070 119,1069 118,1068 118,1067 118,1066 117,1065 117,1064 117,1063 116,1062 116,1061 116,1060 115,1059 115,1058 114,1057 114,1056 113,1055 113,1054 112,1053 111,1052 110,1051 109,1051 108,1050 107,1050 106,1050 105,1050 104,1050 103,1050 102,1050 101,1050 100,1049 99,1049 98,1049 97,1049 96,1049 95,1049 94,1049 93,1049 92,1049 91,1048 90,1048 89,1048 88,1048">
      <metadata tailDirection="" confidence="0.89" linkedToCharacter="" id="UltraEleven_047_balloon_1" tailTip=""></metadata>
    </polygon>
    <polygon points="313,365 312,366 311,366 310,367 309,367 308,368 307,369 306,370 305,370 304,371 303,372 302,373 301,374 300,375 299,376 298,377 297,378 297,379 296,380 295,381 294,382 294,383 294,384 294,385 294,386 294,387 294,388 293,389 293,390 293,391 293,392 292,393 292,394 292,395 291,396 291,397 290,398 290,399 289,400 289,401 288,402 288,403 288,404 287,405 287,406 286,407 285,407 285,408 284,409 283,409 282,410 283,411 284,411 285,411 286,411 287,412 288,413 289,414 290,415 291,416 292,417 291,418 290,418 289,417 288,416 287,415 287,416 287,417 288,418 289,419 289,420 290,421 291,422 292,423 292,424 292,425 293,426 293,427 294,428 294,429 294,430 294,431 294,432 295,433 295,434 295,435 295,436 294,437 293,437 292,436 292,435 292,434 291,433 291,432 290,431 289,430 288,429 287,428 287,429 287,430 287,431 287,432 287,433 287,434 287,435 287,436 287,437 287,438 287,439 287,440 287,441 287,442 287,443 287,444 287,445 287,446 286,447 286,448 286,449 286,450 286,451 286,452 286,453 286,454 286,455 286,456 286,457 286,458 286,459 286,460 286,461 286,462 286,463 286,464 286,465 286,466 287,467 288,468 289,469 290,470 291,471 291,472 292,473 293,474 294,475 295,476 295,477 296,478 297,479 297,480 298,481 299,482 299,483 300,484 301,485 301,486 301,487 301,488 300,489 299,489 299,490 300,490 301,491 302,492 302,493 301,494 302,494 303,495 304,495 305,496 306,497 307,498 308,499 308,500 309,501 309,502 310,503 311,504 311,505 312,506 312,507 313,508 314,509 314,510 315,511 315,512 315,513 316,514 316,515 317,516 318,517 319,518 319,519 320,520 320,521 321,522 321,523 322,524 323,525 324,526 325,526 326,526 327,527 328,527 329,527 330,527 331,528 332,528 333,528 334,528 335,528 336,528 337,528 338,528 339,528 340,528 341,529 342,529 343,529 344,529 345,529 346,529 347,529 348,529 349,529 350,529 351,530 352,530 353,530 354,529 355,529 356,529 357,529 358,529 359,529 360,529 361,530 362,530 363,530 364,530 365,529 366,529 367,529 368,528 369,528 370,528 371,527 372,527 373,526 374,525 375,525 376,524 377,523 378,522 379,521 380,521 381,520 382,519 383,518 384,517 385,516 386,515 387,515 388,514 389,513 390,512 391,511 392,510 393,509 394,508 395,507 396,506 397,505 398,505 399,504 400,503 401,502 401,501 401,500 401,499 401,498 401,497 401,496 401,495 401,494 401,493 401,492 401,491 401,490 401,489 401,488 401,487 401,486 401,485 401,484 401,483 401,482 401,481 401,480 401,479 401,478 401,477 401,476 401,475 401,474 401,473 401,472 401,471 401,470 401,469 401,468 401,467 401,466 401,465 401,464 401,463 401,462 401,461 401,460 401,459 401,458 401,457 401,456 401,455 401,454 401,453 401,452 401,451 401,450 401,449 401,448 401,447 401,446 401,445 401,444 401,443 401,442 401,441 401,440 401,439 401,438 401,437 401,436 401,435 401,434 401,433 401,432 401,431 401,430 401,429 401,428 401,427 401,426 401,425 401,424 401,423 401,422 401,421 401,420 401,419 401,418 401,417 401,416 401,415 401,414 401,413 401,412 401,411 401,410 401,409 401,408 401,407 401,406 401,405 401,404 401,403 401,402 401,401 401,400 401,399 401,398 401,397 401,396 401,395 401,394 401,393 401,392 401,391 401,390 401,389 401,388 401,387 401,386 401,385 401,384 401,383 401,382 401,381 401,380 401,379 401,378 401,377 401,376 401,375 401,374 401,373 401,372 401,371 401,370 401,369 401,368 401,367 401,366 400,365 399,365 398,365 397,365 396,365 395,365 394,365 393,365 392,365 391,365 390,365 389,365 388,365 387,365 386,365 385,365 384,365 383,365 382,365 381,365 380,365 379,365 378,365 377,365 376,365 375,365 374,365 373,365 372,365 371,365 370,365 369,365 368,365 367,365 366,365 365,365 364,365 363,365 362,365 361,365 360,365 359,365 358,365 357,365 356,365 355,365 354,365 353,365 352,365 351,365 350,365 349,365 348,365 347,365 346,365 345,365 344,365 343,365 342,365 341,365 340,365 339,365 338,365 337,365 336,365 335,365 334,365 333,365 332,365 331,365 330,365 329,365 328,365 327,365 326,365 325,365 324,365 323,365 322,365 321,365 320,365 319,365 318,365 317,365 316,365 315,365 314,365 313,365">
      <metadata tailDirection="" confidence="0.84" linkedToCharacter="" id="UltraEleven_047_balloon_2" tailTip=""></metadata>
    </polygon>
    <polygon points="655,365 654,366 653,366 652,367 651,368 650,369 649,370 648,371 647,372 646,373 645,374 645,375 644,376 643,377 642,378 642,379 641,380 640,381 639,382 639,383 638,384 638,385 637,386 637,387 636,388 636,389 636,390 636,391 636,392 635,393 635,394 635,395 635,396 635,397 634,398 634,399 634,400 634,401 634,402 634,403 634,404 634,405 634,406 633,407 633,408 633,409 633,410 633,411 633,412 633,413 633,414 633,415 632,416 632,417 632,418 632,419 632,420 632,421 632,422 632,423 632,424 632,425 632,426 632,427 632,428 632,429 632,430 632,431 632,432 632,433 632,434 632,435 632,436 632,437 632,438 632,439 632,440 632,441 632,442 632,443 632,444 632,445 632,446 632,447 632,448 632,449 633,450 633,451 633,452 634,453 635,454 636,455 637,456 638,457 639,458 640,459 641,459 642,460 642,461 643,461 644,462 645,463 646,464 647,464 648,465 649,466 650,467 651,468 652,468 653,469 654,470 655,471 656,471 657,472 658,473 659,474 660,474 661,475 662,476 663,476 664,477 665,477 666,478 667,478 668,479 669,479 670,479 671,479 672,480 673,480 674,481 675,481 676,481 677,481 678,481 679,481 680,481 681,482 682,482 683,482 684,482 685,482 686,482 687,482 688,482 689,482 690,482 691,482 692,482 693,482 694,482 695,482 696,482 697,481 698,481 699,481 700,481 701,481 702,480 703,480 704,480 705,480 706,480 707,481 707,482 707,483 707,484 708,483 708,482 709,481 710,480 711,479 712,478 713,478 714,478 715,477 716,477 717,477 718,477 719,476 720,476 721,475 722,475 723,474 724,474 725,473 726,472 727,472 728,471 729,470 730,469 731,469 732,468 733,467 734,466 735,466 736,465 737,464 738,463 739,463 740,462 741,461 742,460 743,459 744,458 745,458 746,457 747,456 748,455 748,454 749,453 749,452 750,451 750,450 751,449 751,448 751,447 751,446 751,445 751,444 751,443 751,442 751,441 751,440 751,439 751,438 751,437 751,436 751,435 751,434 751,433 751,432 751,431 751,430 751,429 751,428 751,427 751,426 751,425 751,424 751,423 751,422 751,421 751,420 751,419 751,418 751,417 751,416 751,415 751,414 751,413 751,412 751,411 751,410 751,409 751,408 751,407 751,406 751,405 751,404 751,403 751,402 751,401 751,400 751,399 751,398 751,397 751,396 751,395 751,394 751,393 751,392 751,391 751,390 751,389 751,388 751,387 751,386 751,385 751,384 751,383 751,382 751,381 751,380 751,379 751,378 751,377 751,376 751,375 751,374 751,373 751,372 751,371 751,370 751,369 751,368 751,367 751,366 751,365 750,365 749,365 748,365 747,365 746,365 745,365 744,365 743,365 742,365 741,365 740,365 739,365 738,365 737,365 736,365 735,365 734,365 733,365 732,365 731,365 730,365 729,365 728,365 727,365 726,365 725,365 724,365 723,365 722,365 721,365 720,365 719,365 718,365 717,365 716,365 715,365 714,365 713,365 712,365 711,365 710,365 709,365 708,365 707,365 706,365 705,365 704,365 703,365 702,365 701,365 700,365 699,365 698,365 697,365 696,365 695,365 694,365 693,365 692,365 691,365 690,365 689,365 688,365 687,365 686,365 685,365 684,365 683,365 682,365 681,365 680,365 679,365 678,365 677,365 676,365 675,365 674,365 673,365 672,365 671,365 670,365 669,365 668,365 667,365 666,365 665,365 664,365 663,365 662,365 661,365 660,365 659,365 658,365 657,365 656,365 655,365">
      <metadata tailDirection="" confidence="0.86" linkedToCharacter="" id="UltraEleven_047_balloon_3" tailTip=""></metadata>
    </polygon>
    <polygon points="414,365 414,366 414,367 414,368 414,369 414,370 414,371 414,372 414,373 414,374 414,375 414,376 414,377 414,378 414,379 414,380 414,381 414,382 414,383 414,384 414,385 414,386 414,387 414,388 414,389 414,390 414,391 414,392 414,393 414,394 414,395 414,396 414,397 414,398 414,399 414,400 414,401 414,402 414,403 414,404 414,405 414,406 414,407 414,408 414,409 414,410 414,411 414,412 414,413 414,414 414,415 414,416 414,417 414,418 414,419 414,420 414,421 414,422 414,423 414,424 414,425 414,426 414,427 414,428 414,429 414,430 414,431 414,432 414,433 414,434 414,435 414,436 414,437 414,438 414,439 414,440 414,441 414,442 414,443 414,444 414,445 414,446 414,447 414,448 414,449 414,450 414,451 414,452 414,453 414,454 414,455 414,456 414,457 414,458 414,459 414,460 414,461 414,462 414,463 414,464 414,465 414,466 414,467 414,468 414,469 414,470 414,471 414,472 414,473 414,474 414,475 414,476 414,477 414,478 414,479 414,480 414,481 414,482 414,483 414,484 414,485 414,486 414,487 414,488 414,489 414,490 414,491 414,492 414,493 414,494 414,495 414,496 414,497 414,498 414,499 414,500 414,501 414,502 414,503 414,504 414,505 414,506 414,507 414,508 414,509 414,510 414,511 414,512 414,513 414,514 414,515 414,516 414,517 414,518 414,519 414,520 414,521 414,522 414,523 414,524 414,525 414,526 414,527 414,528 414,529 414,530 414,531 414,532 414,533 414,534 415,535 415,536 416,537 417,538 418,539 418,540 419,541 420,542 421,543 422,544 423,545 424,545 425,545 426,546 427,546 428,546 429,546 430,546 431,546 432,547 433,547 434,547 435,547 436,547 437,547 438,547 439,547 440,547 441,547 442,547 443,547 444,547 445,547 446,547 447,547 448,547 449,547 450,548 451,548 452,548 453,548 454,548 455,548 456,548 457,548 458,548 459,548 460,548 461,549 462,549 463,549 464,549 465,549 466,549 467,548 468,547 469,546 470,545 471,544 472,543 473,542 474,541 475,540 476,540 477,540 478,540 477,539 477,538 478,537 478,536 479,535 480,534 481,533 482,532 483,531 484,530 484,529 485,528 486,527 487,526 488,525 488,524 489,523 490,522 491,521 492,520 492,519 493,518 494,517 495,516 496,515 497,514 498,513 498,512 499,511 500,510 501,509 501,508 502,507 503,506 504,505 505,504 506,503 506,502 507,501 508,500 509,499 510,498 510,497 511,496 511,495 512,494 512,493 512,492 512,491 512,490 512,489 512,488 512,487 512,486 512,485 512,484 511,483 511,482 512,481 512,480 512,479 512,478 512,477 512,476 512,475 512,474 512,473 512,472 512,471 512,470 511,469 511,468 511,467 511,466 511,465 511,464 511,463 511,462 511,461 511,460 511,459 511,458 512,457 512,456 512,455 512,454 512,453 512,452 512,451 512,450 511,449 511,448 512,447 512,446 512,445 512,444 512,443 512,442 512,441 512,440 512,439 512,438 512,437 512,436 512,435 512,434 512,433 512,432 512,431 512,430 512,429 512,428 512,427 512,426 512,425 512,424 512,423 512,422 512,421 512,420 512,419 511,418 511,417 511,416 511,415 511,414 511,413 511,412 511,411 511,410 511,409 511,408 511,407 511,406 511,405 511,404 511,403 511,402 511,401 511,400 511,399 511,398 511,397 510,396 510,395 510,394 510,393 510,392 510,391 510,390 510,389 510,388 510,387 509,386 509,385 509,384 509,383 509,382 508,381 508,380 508,379 507,378 506,377 506,376 505,375 504,374 504,373 503,372 502,372 501,371 500,370 499,369 498,368 497,367 496,366 495,365 494,365 493,365 492,365 491,365 490,365 489,365 488,365 487,365 486,365 485,365 484,365 483,365 482,365 481,365 480,365 479,365 478,365 477,365 476,365 475,365 474,365 473,365 472,365 471,365 470,365 469,365 468,365 467,365 466,365 465,365 464,365 463,365 462,365 461,365 460,365 459,365 458,365 457,365 456,365 455,365 454,365 453,365 452,365 451,365 450,365 449,365 448,365 447,365 446,365 445,365 444,365 443,365 442,365 441,365 440,365 439,365 438,365 437,365 436,365 435,365 434,365 433,365 432,365 431,365 430,365 429,365 428,365 427,365 426,365 425,365 424,365 423,365 422,365 421,365 420,365 419,365 418,365 417,365 416,365 415,365 414,365">
      <metadata tailDirection="" confidence="0.94" linkedToCharacter="" id="UltraEleven_047_balloon_4" tailTip=""></metadata>
    </polygon>
    <polygon points="644,81 643,82 642,82 641,82 640,82 639,83 638,83 637,84 636,85 635,86 634,87 633,88 632,88 631,89 630,90 629,91 628,92 627,93 627,94 626,95 626,96 625,97 625,98 625,99 624,100 624,101 624,102 624,103 623,104 623,105 623,106 623,107 622,108 622,109 622,110 622,111 621,112 621,113 621,114 621,115 621,116 621,117 620,118 620,119 620,120 620,121 620,122 620,123 619,124 619,125 619,126 619,127 619,128 619,129 618,130 618,131 618,132 618,133 618,134 618,135 617,136 617,137 617,138 617,139 617,140 617,141 616,142 616,143 616,144 616,145 616,146 615,147 615,148 615,149 615,150 615,151 615,152 615,153 615,154 615,155 614,156 615,157 615,158 615,159 615,160 615,161 615,162 616,163 617,164 618,165 618,166 619,166 620,167 621,168 622,169 623,170 624,171 625,172 626,173 627,174 628,175 629,175 630,176 631,177 632,177 633,178 634,179 635,180 636,180 637,181 638,181 639,182 640,183 641,184 642,184 643,185 644,186 645,187 646,188 646,189 647,190 647,191 647,192 647,193 647,194 647,195 646,196 646,197 646,198 645,199 644,200 644,201 643,202 644,201 645,201 646,200 647,199 648,199 649,198 650,198 651,198 652,197 653,197 654,198 654,199 655,198 656,198 657,198 658,198 659,199 660,199 661,200 662,200 663,201 664,201 665,202 666,202 667,203 668,203 669,203 670,204 671,204 672,205 673,205 674,205 675,206 676,206 677,206 678,206 679,206 680,207 681,207 682,207 683,207 684,207 685,207 686,207 687,207 688,207 689,207 690,207 691,207 692,206 693,206 694,206 695,206 696,206 697,206 698,206 699,206 700,206 701,206 702,206 703,206 704,205 705,205 706,205 707,205 708,205 709,205 710,205 711,205 712,205 713,205 714,204 715,204 716,204 717,204 718,204 719,204 720,204 721,204 722,203 723,203 724,203 725,203 726,203 727,203 728,203 729,202 730,202 731,202 732,201 733,201 734,200 735,199 736,198 737,198 738,197 739,196 740,195 741,194 742,193 743,192 744,191 745,190 746,189 747,188 748,188 748,187 749,186 750,185 751,184 751,183 751,182 751,181 751,180 751,179 751,178 751,177 751,176 751,175 751,174 751,173 751,172 751,171 751,170 751,169 751,168 751,167 751,166 751,165 751,164 751,163 751,162 751,161 751,160 751,159 751,158 751,157 751,156 751,155 751,154 751,153 751,152 751,151 751,150 751,149 751,148 751,147 751,146 751,145 751,144 751,143 751,142 751,141 751,140 751,139 751,138 751,137 751,136 752,135 752,134 752,133 752,132 752,131 752,130 752,129 752,128 752,127 751,126 752,125 752,124 752,123 752,122 751,121 751,120 751,119 752,118 752,117 752,116 752,115 752,114 752,113 752,112 752,111 752,110 752,109 752,108 752,107 752,106 752,105 752,104 752,103 752,102 752,101 752,100 752,99 752,98 752,97 752,96 752,95 752,94 752,93 752,92 752,91 752,90 752,89 752,88 752,87 752,86 752,85 752,84 752,83 751,82 750,82 749,82 748,82 747,82 746,82 745,82 744,82 743,82 742,82 741,82 740,82 739,82 738,82 737,82 736,82 735,82 734,82 733,82 732,82 731,82 730,82 729,82 728,82 727,82 726,82 725,82 724,82 723,82 722,82 721,82 720,82 719,82 718,82 717,82 716,82 715,82 714,82 713,82 712,82 711,82 710,82 709,82 708,82 707,82 706,82 705,82 704,82 703,82 702,82 701,82 700,82 699,82 698,82 697,82 696,82 695,82 694,82 693,82 692,82 691,82 690,82 689,82 688,82 687,82 686,82 685,82 684,82 683,82 682,82 681,82 680,82 679,82 678,82 677,82 676,82 675,82 674,82 673,82 672,82 671,82 670,82 669,82 668,82 667,82 666,82 665,82 664,82 663,82 662,82 661,82 660,82 659,82 658,82 657,82 656,82 655,82 654,82 653,82 652,82 651,82 650,82 649,82 648,82 647,82 646,82 645,82 644,81">
      <metadata tailDirection="" confidence="0.83" linkedToCharacter="" id="UltraEleven_047_balloon_5" tailTip=""></metadata>
    </polygon>
    <polygon points="374,81 373,82 373,83 373,84 373,85 373,86 373,87 373,88 373,89 373,90 373,91 373,92 373,93 373,94 373,95 373,96 373,97 373,98 373,99 373,100 373,101 373,102 373,103 373,104 373,105 373,106 373,107 373,108 373,109 373,110 373,111 373,112 373,113 373,114 373,115 373,116 373,117 373,118 373,119 373,120 373,121 373,122 373,123 373,124 373,125 373,126 373,127 372,128 373,129 373,130 372,131 372,132 372,133 372,134 373,135 373,136 373,137 373,138 373,139 373,140 373,141 373,142 373,143 373,144 373,145 373,146 373,147 373,148 372,149 373,150 373,151 373,152 373,153 373,154 373,155 373,156 373,157 373,158 373,159 373,160 373,161 373,162 373,163 373,164 373,165 373,166 373,167 373,168 373,169 373,170 373,171 373,172 373,173 373,174 373,175 373,176 373,177 373,178 373,179 373,180 373,181 373,182 373,183 373,184 373,185 373,186 373,187 373,188 373,189 373,190 373,191 373,192 374,193 375,193 376,194 377,195 378,195 379,196 380,197 381,197 382,198 383,199 384,199 385,200 386,200 387,201 388,201 389,202 390,202 391,203 392,204 393,204 394,205 395,205 396,206 397,206 398,207 399,207 400,208 401,208 402,209 403,209 404,210 405,210 406,211 407,211 408,212 409,212 410,212 411,213 412,213 413,214 414,214 415,214 416,215 417,215 418,215 419,215 420,215 421,215 422,215 423,215 424,215 425,215 426,214 427,214 428,214 429,214 430,214 431,213 432,213 433,212 434,212 435,212 436,211 437,211 438,211 439,211 440,210 441,210 442,209 443,209 444,209 445,208 446,208 447,208 448,207 449,207 450,206 451,206 452,205 453,205 454,205 455,204 456,204 457,204 458,203 459,203 460,202 461,202 462,201 463,201 464,200 465,200 466,199 467,199 468,198 469,198 470,197 471,197 472,196 473,196 474,195 475,195 476,195 477,194 478,193 479,193 480,192 481,192 482,191 483,191 484,190 485,189 486,189 487,188 488,188 489,187 490,187 491,186 492,187 493,187 494,188 495,188 496,189 497,189 498,190 497,189 496,188 495,187 494,186 493,185 492,184 492,183 493,182 494,181 494,180 495,179 496,178 496,177 497,176 497,175 497,174 498,173 498,172 498,171 498,170 498,169 498,168 498,167 498,166 498,165 498,164 498,163 498,162 498,161 498,160 498,159 498,158 498,157 498,156 498,155 498,154 498,153 498,152 498,151 498,150 497,149 497,148 497,147 497,146 497,145 497,144 497,143 497,142 497,141 497,140 497,139 497,138 497,137 497,136 497,135 497,134 497,133 497,132 497,131 497,130 497,129 497,128 497,127 497,126 496,125 497,124 496,123 496,122 496,121 496,120 496,119 496,118 496,117 496,116 496,115 496,114 496,113 496,112 496,111 496,110 496,109 496,108 496,107 496,106 496,105 496,104 496,103 495,102 495,101 495,100 495,99 495,98 495,97 495,96 494,95 494,94 494,93 493,92 492,91 491,90 490,90 489,89 488,88 487,87 486,86 485,85 484,84 483,84 482,83 481,83 480,82 479,82 478,82 477,81 476,81 475,81 474,81 473,81 472,81 471,81 470,81 469,81 468,81 467,81 466,81 465,81 464,81 463,81 462,81 461,81 460,81 459,81 458,81 457,81 456,81 455,81 454,81 453,81 452,81 451,81 450,81 449,81 448,81 447,81 446,81 445,81 444,81 443,81 442,81 441,81 440,81 439,81 438,81 437,81 436,81 435,81 434,81 433,81 432,81 431,81 430,82 429,82 428,82 427,82 426,82 425,81 424,81 423,82 422,82 421,81 420,81 419,81 418,81 417,81 416,81 415,81 414,81 413,81 412,81 411,81 410,81 409,81 408,81 407,82 406,81 405,81 404,81 403,81 402,81 401,81 400,81 399,82 398,81 397,81 396,81 395,81 394,82 393,82 392,82 391,81 390,81 389,81 388,81 387,81 386,81 385,81 384,81 383,81 382,81 381,81 380,81 379,81 378,81 377,81 376,81 375,81 374,81">
      <metadata tailDirection="" confidence="0.94" linkedToCharacter="" id="UltraEleven_047_balloon_6" tailTip=""></metadata>
    </polygon>
  </svg>
</svg>
