<?xml version="1.0" encoding="UTF-8" standalone="no"?>
<svg width="827" xmlns="http://www.w3.org/2000/svg" version="1.0" height="1170">
  <title>UltraEleven_179</title>
  <svg contentScriptType="text/ecmascript" zoomAndPan="magnify" contentStyleType="text/css" class="Page" preserveAspectRatio="xMidYMid meet" version="1.0">
    <image xmlns:xlink="http://www.w3.org/1999/xlink" x="0" y="0" width="827" height="1170" xlink:href="./../../dataset_Manga109/UltraEleven/UltraEleven_179.jpg" xlink:type="simple" xlink:actuate="onLoad" preserveAspectRatio="xMidYMid meet" xlink:show="embed"/>
  </svg>
  <style type="text/css" xml:space="preserve">
        * { stroke-linejoin: round; }
        .Unclassified   { fill: orange; stroke: none;   opacity: 1.0; visibility: hidden; }
        .Noise          { fill: pink;   stroke: none;   opacity: 0.2; visibility: hidden; }
        .Panel          { fill: none;   stroke: red;    stroke-width:3; opacity: 0.5; visibility: visible; image-rendering: optimizeSpeed; }
        .Line           { fill: green;  stroke: none;   opacity: 0.5; visibility: visible; image-rendering: optimizeSpeed; }
        .TextArea       { fill: grey;   stroke: none;   opacity: 0.2; visibility: visible; image-rendering: optimizeSpeed; }
        .Balloon        { fill: cyan;   stroke: none;   opacity: 0.5; visibility: visible; image-rendering: optimizeSpeed; }
        .Letter         { fill: blue;   stroke: none;   opacity: 0.2; visibility: hidden; }
        .Object, .Character, .Face  { fill: yellow; stroke: none;   opacity: 0.5; visibility: visible; image-rendering: optimizeSpeed; }
        .Page           { fill: white;  stroke: none;    opacity: 0.5; visibility: visible; }
        .linkSBSC { fill: blue; stroke: none; opacity: 1.0; visibility: visible; }
        polygon:hover { opacity:1.0; stroke:red; }
</style>
  <svg xmlns="http://www.w3.org/2000/svg" contentScriptType="text/ecmascript" zoomAndPan="magnify" contentStyleType="text/css" class="Balloon" preserveAspectRatio="xMidYMid meet" version="1.0">
    <polygon points="343,270 342,271 342,272 341,273 340,274 339,275 338,276 338,277 337,278 336,279 335,280 334,281 333,282 332,283 332,284 331,285 330,286 329,287 329,288 328,289 327,290 326,291 325,292 324,293 324,294 323,295 322,296 321,297 321,298 320,299 319,300 319,301 318,302 318,303 317,304 316,304 315,304 314,304 313,304 312,303 311,302 310,301 310,300 309,299 308,298 308,297 307,296 306,295 306,294 306,293 305,292 304,291 304,290 303,289 303,288 302,288 302,289 302,290 302,291 301,292 301,293 300,294 300,295 299,296 299,297 298,298 298,299 297,300 296,301 295,301 294,301 293,301 292,302 291,302 290,301 289,301 288,300 287,300 286,299 285,299 284,298 283,298 282,297 281,297 280,296 279,296 278,295 277,295 276,294 275,294 274,293 273,292 272,292 271,292 270,291 269,290 268,290 267,290 266,289 265,288 264,288 263,287 262,286 261,286 260,285 259,284 258,283 257,283 256,282 256,283 256,284 256,285 257,286 257,287 257,288 257,289 258,290 258,291 258,292 258,293 258,294 258,295 259,296 259,297 259,298 259,299 260,300 260,301 260,302 260,303 260,304 261,305 261,306 261,307 261,308 261,309 262,310 262,311 262,312 262,313 262,314 263,315 263,316 263,317 263,318 263,319 264,320 264,321 264,322 264,323 264,324 265,325 265,326 265,327 265,328 265,329 265,330 265,331 265,332 264,333 263,334 262,334 261,334 260,334 259,334 258,335 257,335 256,335 255,335 254,336 253,336 252,336 251,336 250,336 249,336 248,337 247,337 246,337 245,337 244,337 243,337 242,338 241,338 240,338 239,338 238,338 237,339 236,339 235,339 235,340 236,340 237,341 238,342 239,343 240,344 241,345 242,346 243,346 244,347 245,348 246,349 247,350 248,351 249,351 250,352 251,353 252,354 253,355 254,356 255,357 256,358 257,359 258,360 259,361 260,362 261,363 261,364 260,365 259,366 258,367 257,368 256,369 255,370 254,371 253,372 254,373 255,374 256,375 257,375 258,376 259,377 259,378 260,379 260,380 260,381 260,382 259,383 259,384 259,385 258,386 258,387 257,388 257,389 256,390 256,391 255,392 255,393 254,394 254,395 253,396 253,397 252,398 252,399 251,400 251,401 250,402 250,403 249,404 249,405 248,406 248,407 247,408 247,409 246,410 246,411 245,412 245,413 244,414 243,415 243,416 243,417 242,418 242,419 243,419 244,418 245,418 246,418 247,418 248,418 249,418 250,418 251,418 252,417 253,417 254,417 255,417 256,417 257,417 258,417 259,416 260,416 261,416 262,416 263,416 264,415 265,415 266,415 267,415 268,415 269,415 270,414 271,414 272,414 273,414 274,414 275,414 276,414 277,413 278,413 279,413 280,414 281,414 282,415 283,416 283,417 283,418 283,419 283,420 283,421 283,422 284,422 285,421 286,421 287,420 288,420 289,420 290,421 291,421 292,422 293,423 293,424 294,425 294,426 294,427 295,428 295,429 295,430 296,431 296,432 297,433 297,434 298,435 298,436 299,437 299,438 300,439 300,440 301,441 301,442 301,443 302,444 302,445 302,446 303,447 304,446 304,445 305,444 306,443 307,442 307,441 308,440 309,439 310,438 310,437 311,436 312,436 312,435 313,434 314,433 315,432 315,431 316,430 317,429 318,428 318,427 319,426 320,425 320,424 321,423 322,423 323,423 324,423 325,423 326,424 327,425 328,426 329,427 330,428 331,429 331,430 332,429 332,428 332,427 333,426 333,425 333,424 334,423 335,422 336,422 337,423 338,423 339,424 340,424 341,425 342,426 343,427 344,428 345,429 346,430 347,431 348,432 349,432 350,433 351,434 352,434 353,435 354,436 355,437 356,437 357,438 358,439 359,439 360,440 361,441 362,441 363,442 364,443 365,444 365,443 364,442 364,441 364,440 364,439 363,438 363,437 363,436 363,435 362,434 362,433 362,432 362,431 361,430 361,429 361,428 361,427 360,426 360,425 360,424 360,423 359,422 359,421 359,420 358,419 358,418 358,417 358,416 357,415 357,414 357,413 357,412 357,411 357,410 357,409 356,408 356,407 356,406 356,405 356,404 356,403 356,402 357,401 358,400 359,400 360,400 361,401 362,401 363,402 364,403 363,402 363,401 363,400 362,399 362,398 361,397 361,396 361,395 362,394 363,393 364,393 365,393 366,393 367,393 368,393 369,393 370,393 371,393 372,393 373,393 374,393 375,393 376,392 377,392 378,392 379,392 380,392 381,392 382,392 383,392 384,392 385,392 386,393 387,393 386,392 386,391 385,390 385,389 384,388 383,387 383,386 382,385 382,384 381,383 381,382 380,381 379,380 379,379 378,378 378,377 377,376 376,375 375,374 375,373 374,372 374,371 373,370 372,369 371,368 371,367 370,366 369,365 369,364 369,363 370,362 371,361 372,361 373,360 374,360 375,360 376,359 377,359 378,358 379,358 380,357 381,357 382,356 383,356 384,355 385,355 386,354 387,354 386,353 385,352 384,352 383,351 382,350 381,350 380,349 379,349 378,348 377,347 376,346 377,345 378,344 378,343 379,342 380,341 381,340 381,339 382,338 383,337 384,336 385,335 386,334 386,333 387,332 388,331 389,330 390,329 391,328 392,327 393,326 393,325 394,324 393,324 392,324 391,324 390,324 389,324 388,324 387,324 386,324 385,324 384,324 383,324 382,324 381,324 380,324 379,324 378,324 377,324 376,324 375,324 374,324 373,323 372,323 371,323 370,323 369,322 368,322 367,321 367,320 366,319 365,319 364,318 364,317 364,316 365,315 366,316 367,316 367,315 367,314 367,313 367,312 367,311 367,310 367,309 367,308 367,307 368,306 367,306 366,306 365,306 364,307 363,307 362,307 361,308 360,308 359,308 358,308 357,308 356,308 355,308 354,308 353,308 352,307 351,306 351,305 350,304 350,303 350,302 350,301 350,300 349,299 349,298 349,297 348,296 348,295 348,294 348,293 348,292 348,291 347,290 347,289 347,288 347,287 347,286 346,285 346,284 346,283 346,282 345,281 345,280 345,279 345,278 345,277 344,276 344,275 344,274 344,273 343,272 343,271 343,270">
      <metadata tailDirection="" confidence="0.81" linkedToCharacter="" id="UltraEleven_179_balloon_0" tailTip=""></metadata>
    </polygon>
  </svg>
</svg>
