<?xml version="1.0" encoding="UTF-8" standalone="no"?>
<svg width="827" xmlns="http://www.w3.org/2000/svg" version="1.0" height="1170">
  <title>UltraEleven_144</title>
  <svg contentScriptType="text/ecmascript" zoomAndPan="magnify" contentStyleType="text/css" class="Page" preserveAspectRatio="xMidYMid meet" version="1.0">
    <image xmlns:xlink="http://www.w3.org/1999/xlink" x="0" y="0" width="827" height="1170" xlink:href="./../../dataset_Manga109/UltraEleven/UltraEleven_144.jpg" xlink:type="simple" xlink:actuate="onLoad" preserveAspectRatio="xMidYMid meet" xlink:show="embed"/>
  </svg>
  <style type="text/css" xml:space="preserve">
        * { stroke-linejoin: round; }
        .Unclassified   { fill: orange; stroke: none;   opacity: 1.0; visibility: hidden; }
        .Noise          { fill: pink;   stroke: none;   opacity: 0.2; visibility: hidden; }
        .Panel          { fill: none;   stroke: red;    stroke-width:3; opacity: 0.5; visibility: visible; image-rendering: optimizeSpeed; }
        .Line           { fill: green;  stroke: none;   opacity: 0.5; visibility: visible; image-rendering: optimizeSpeed; }
        .TextArea       { fill: grey;   stroke: none;   opacity: 0.2; visibility: visible; image-rendering: optimizeSpeed; }
        .Balloon        { fill: cyan;   stroke: none;   opacity: 0.5; visibility: visible; image-rendering: optimizeSpeed; }
        .Letter         { fill: blue;   stroke: none;   opacity: 0.2; visibility: hidden; }
        .Object, .Character, .Face  { fill: yellow; stroke: none;   opacity: 0.5; visibility: visible; image-rendering: optimizeSpeed; }
        .Page           { fill: white;  stroke: none;    opacity: 0.5; visibility: visible; }
        .linkSBSC { fill: blue; stroke: none; opacity: 1.0; visibility: visible; }
        polygon:hover { opacity:1.0; stroke:red; }
</style>
  <svg xmlns="http://www.w3.org/2000/svg" contentScriptType="text/ecmascript" zoomAndPan="magnify" contentStyleType="text/css" class="Balloon" preserveAspectRatio="xMidYMid meet" version="1.0">
    <polygon points="417,919 416,920 415,920 414,920 413,920 412,920 411,921 410,921 409,921 408,922 407,922 406,923 405,923 404,923 403,923 402,924 401,924 400,924 399,925 398,925 397,925 396,926 395,926 394,926 393,927 392,927 391,928 390,928 389,928 388,929 387,929 387,930 386,931 385,932 384,933 383,934 382,935 382,936 381,937 380,938 380,939 379,940 379,941 378,942 378,943 378,944 378,945 377,946 377,947 377,948 377,949 377,950 377,951 377,952 377,953 377,954 377,955 377,956 377,957 377,958 377,959 377,960 377,961 376,962 376,963 376,964 376,965 377,966 377,967 377,968 377,969 377,970 377,971 377,972 377,973 377,974 377,975 377,976 377,977 377,978 377,979 377,980 377,981 378,982 378,983 378,984 378,985 378,986 379,987 379,988 379,989 379,990 379,991 380,992 380,993 381,994 381,995 382,996 383,997 384,998 385,999 386,1000 387,1001 388,1002 389,1003 390,1003 391,1004 392,1005 393,1006 394,1006 395,1007 396,1008 397,1008 398,1008 399,1008 400,1008 401,1008 402,1007 403,1007 404,1007 405,1007 406,1007 407,1006 408,1006 409,1006 410,1006 411,1006 412,1005 413,1005 414,1005 415,1005 416,1004 417,1004 418,1004 419,1004 420,1004 421,1004 422,1004 423,1004 424,1005 425,1005 426,1005 427,1004 428,1003 429,1003 430,1002 431,1002 432,1001 433,1001 434,1001 435,1001 436,1000 437,1000 438,1000 439,1000 440,999 441,999 442,999 443,998 444,998 445,997 446,996 447,996 448,995 449,994 450,994 451,993 452,992 452,991 453,990 454,989 455,988 455,987 456,986 456,985 456,984 456,983 456,982 457,981 457,980 457,979 457,978 457,977 457,976 456,975 457,974 457,973 457,972 456,971 456,970 456,969 457,968 456,967 456,966 456,965 456,964 456,963 456,962 456,961 455,960 455,959 455,958 455,957 455,956 455,955 455,954 455,953 455,952 454,951 454,950 454,949 454,948 454,947 454,946 454,945 454,944 453,943 453,942 453,941 452,940 452,939 451,938 451,937 450,936 449,935 448,934 447,933 446,932 445,931 444,930 443,930 442,929 441,928 440,927 439,927 438,926 437,925 436,925 435,924 434,924 433,923 432,922 431,922 430,922 429,921 428,921 427,920 426,920 425,919 424,919 423,919 422,919 421,919 420,919 419,919 418,919 417,919">
      <metadata tailDirection="" confidence="0.83" linkedToCharacter="" id="UltraEleven_144_balloon_0" tailTip=""></metadata>
    </polygon>
    <polygon points="728,883 727,884 726,884 725,884 724,885 723,885 722,885 721,886 720,886 719,887 718,887 717,888 716,888 715,889 714,889 713,890 712,890 711,891 710,891 709,892 708,893 708,894 708,895 708,896 707,897 707,898 706,899 706,900 705,901 705,902 704,903 704,904 703,905 703,906 702,907 701,908 700,909 699,910 698,911 697,912 696,913 695,913 694,914 694,915 694,916 694,917 694,918 694,919 694,920 694,921 694,922 694,923 694,924 694,925 695,926 695,927 695,928 696,929 696,930 696,931 696,932 696,933 697,934 697,935 697,936 697,937 696,938 696,939 696,940 696,941 696,942 696,943 695,944 695,945 695,946 694,947 694,948 693,949 692,950 692,951 692,952 692,953 692,954 692,955 692,956 692,957 692,958 692,959 692,960 692,961 691,962 691,963 691,964 691,965 692,966 692,967 693,968 694,969 694,970 693,971 692,972 691,972 690,973 689,973 688,974 687,974 688,974 689,974 690,975 691,976 690,977 689,978 688,979 689,979 690,980 690,981 690,982 691,983 690,984 690,985 690,986 690,987 690,988 690,989 690,990 690,991 689,992 689,993 689,994 689,995 689,996 689,997 689,998 689,999 689,1000 690,1001 690,1002 691,1003 691,1004 691,1005 692,1006 692,1007 692,1008 693,1009 693,1010 694,1011 694,1012 695,1013 695,1014 695,1015 696,1016 696,1017 697,1018 697,1019 698,1020 698,1021 699,1022 699,1023 700,1024 700,1025 701,1026 702,1027 703,1027 704,1028 705,1028 706,1029 707,1029 708,1029 709,1030 710,1030 711,1030 712,1031 713,1031 714,1031 715,1031 716,1032 717,1032 718,1032 719,1032 720,1032 721,1033 722,1033 723,1033 724,1034 725,1034 726,1034 727,1034 728,1034 729,1034 730,1034 731,1035 732,1035 733,1035 734,1035 735,1035 736,1035 737,1035 738,1035 739,1035 740,1035 741,1034 742,1034 743,1034 744,1033 745,1033 746,1032 747,1032 748,1031 749,1031 750,1030 751,1030 752,1029 753,1029 754,1028 755,1028 756,1027 757,1027 758,1026 759,1026 760,1025 761,1025 762,1024 763,1024 764,1023 765,1022 766,1022 767,1021 768,1021 768,1020 769,1019 770,1018 770,1017 770,1016 771,1015 771,1014 772,1013 772,1012 772,1011 773,1010 773,1009 773,1008 774,1007 774,1006 774,1005 775,1004 775,1003 776,1002 776,1001 776,1000 776,999 777,998 777,997 777,996 777,995 778,994 778,993 778,992 779,991 779,990 779,989 779,988 779,987 779,986 780,985 780,984 780,983 781,982 781,981 781,980 781,979 782,978 782,977 782,976 782,975 783,974 783,973 783,972 783,971 783,970 784,969 784,968 784,967 784,966 784,965 784,964 785,963 785,962 785,961 785,960 785,959 785,958 785,957 785,956 785,955 785,954 785,953 785,952 785,951 785,950 785,949 785,948 785,947 785,946 785,945 785,944 785,943 784,942 784,941 784,940 784,939 784,938 783,937 783,936 783,935 783,934 783,933 783,932 782,931 782,930 782,929 782,928 781,927 781,926 781,925 781,924 781,923 780,922 780,921 780,920 780,919 779,918 779,917 779,916 779,915 778,914 778,913 778,912 777,911 777,910 777,909 776,908 776,907 776,906 775,905 775,904 774,903 774,902 774,901 773,900 773,899 772,898 772,897 771,896 771,895 770,894 769,893 768,893 767,892 766,892 765,892 764,892 763,891 762,891 761,890 760,890 759,890 758,890 757,889 756,889 755,889 754,888 753,888 752,888 751,888 750,887 749,887 748,887 747,887 746,886 745,886 744,886 743,886 742,885 741,885 740,885 739,885 738,885 737,884 736,884 735,884 734,884 733,884 732,883 731,883 730,883 729,883 728,883">
      <metadata tailDirection="" confidence="0.89" linkedToCharacter="" id="UltraEleven_144_balloon_1" tailTip=""></metadata>
    </polygon>
    <polygon points="484,849 483,850 482,850 481,850 480,850 479,850 478,850 477,850 476,850 475,850 474,850 473,850 472,850 471,851 470,851 469,851 468,851 467,851 466,851 465,851 464,851 463,851 462,851 461,851 460,852 459,852 458,852 457,852 456,852 455,852 454,852 453,853 452,853 451,853 450,854 449,854 448,855 447,856 446,856 445,857 444,858 443,859 442,860 441,861 440,862 439,863 438,864 437,865 436,866 436,867 435,868 434,869 433,870 432,871 432,872 431,873 430,874 430,875 429,876 428,877 427,878 426,879 426,880 425,881 425,882 425,883 425,884 425,885 425,886 425,887 425,888 425,889 426,890 426,891 426,892 426,893 426,894 426,895 426,896 427,897 427,898 427,899 427,900 427,901 427,902 427,903 427,904 427,905 428,906 428,907 428,908 428,909 428,910 428,911 429,912 429,913 429,914 429,915 429,916 430,917 431,918 432,918 433,919 434,919 435,920 436,920 437,921 438,921 439,922 440,923 441,923 442,924 443,925 444,926 445,926 446,927 447,928 448,929 449,930 450,931 451,932 452,933 453,934 454,935 454,936 455,937 456,938 456,939 456,940 457,941 457,942 457,943 457,944 457,945 457,946 458,947 458,948 458,949 458,950 458,951 458,952 458,953 458,954 459,955 459,956 459,957 459,958 459,959 459,960 459,961 459,962 459,963 460,964 460,965 460,966 460,967 460,968 460,969 460,970 460,971 460,972 460,973 460,974 460,975 460,976 461,976 462,977 463,977 464,977 465,977 466,977 467,977 468,977 469,976 470,976 471,976 472,976 473,976 474,976 475,976 476,976 477,975 478,975 479,975 480,975 481,975 482,975 483,975 484,975 485,975 486,975 487,974 488,974 489,974 490,974 491,974 492,974 493,973 494,973 495,973 496,973 497,973 498,973 499,973 500,973 501,972 502,972 503,972 504,972 505,972 506,972 507,971 508,971 509,971 510,970 511,970 512,969 513,969 514,968 515,967 516,966 517,966 518,965 519,964 520,963 521,962 522,961 523,961 524,960 525,959 526,958 527,957 527,956 527,955 527,954 527,953 527,952 528,951 528,950 528,949 529,948 529,947 530,946 531,945 532,945 533,945 534,944 535,943 534,942 534,941 533,940 533,939 532,938 532,937 533,936 533,935 533,934 533,933 533,932 533,931 533,930 533,929 533,928 534,927 534,926 534,925 534,924 534,923 534,922 534,921 534,920 534,919 534,918 534,917 535,916 535,915 535,914 535,913 535,912 535,911 535,910 535,909 534,908 534,907 534,906 534,905 534,904 534,903 534,902 534,901 534,900 534,899 534,898 534,897 534,896 534,895 533,894 533,893 533,892 533,891 533,890 533,889 533,888 533,887 533,886 533,885 533,884 533,883 532,882 532,881 532,880 532,879 532,878 532,877 531,876 531,875 531,874 530,873 529,872 528,871 527,870 526,869 525,868 524,867 523,867 522,866 521,865 520,864 519,863 518,862 517,862 516,861 515,860 514,859 513,859 512,858 511,858 510,857 509,856 508,855 507,855 506,854 505,853 504,853 503,852 502,852 501,851 500,851 499,850 498,850 497,850 496,850 495,850 494,849 493,849 492,849 491,849 490,850 489,850 488,850 487,849 486,849 485,849 484,849">
      <metadata tailDirection="" confidence="0.88" linkedToCharacter="" id="UltraEleven_144_balloon_2" tailTip=""></metadata>
    </polygon>
    <polygon points="488,483 487,484 486,484 485,484 484,484 483,484 482,485 481,485 480,485 479,485 478,486 477,486 476,486 475,486 474,487 473,487 472,488 471,488 470,489 469,489 468,489 467,490 466,490 465,491 464,491 463,491 462,492 461,492 460,493 459,494 458,494 457,495 456,495 455,496 454,496 454,497 453,498 452,499 452,500 451,501 451,502 450,503 450,504 449,505 448,506 448,507 448,508 447,509 447,510 446,511 446,512 445,513 445,514 444,515 444,516 443,517 443,518 443,519 442,520 442,521 441,522 441,523 440,524 440,525 439,526 439,527 439,528 438,529 438,530 437,531 437,532 436,533 436,534 436,535 435,536 435,537 435,538 434,539 434,540 434,541 434,542 433,543 433,544 433,545 432,546 432,547 432,548 431,549 431,550 431,551 431,552 431,553 431,554 431,555 431,556 431,557 431,558 431,559 431,560 432,561 432,562 432,563 432,564 432,565 432,566 432,567 432,568 432,569 433,570 433,571 433,572 433,573 433,574 433,575 433,576 434,577 434,578 434,579 434,580 434,581 434,582 434,583 434,584 435,585 435,586 435,587 435,588 435,589 436,590 436,591 436,592 436,593 436,594 436,595 437,596 437,597 437,598 437,599 437,600 438,601 438,602 438,603 438,604 439,605 439,606 439,607 440,608 440,609 440,610 441,611 442,612 442,613 443,614 444,615 445,616 446,616 447,617 448,618 449,618 450,619 451,619 452,620 453,620 454,621 455,621 456,621 457,622 458,622 459,622 460,622 461,623 462,623 463,623 464,623 465,624 466,624 467,624 468,624 469,624 470,624 471,624 472,625 473,625 474,625 475,625 476,625 477,625 478,625 479,625 480,625 481,625 482,625 483,625 484,625 485,625 486,625 487,625 488,625 489,625 490,625 491,625 492,625 493,626 494,626 495,627 496,628 497,629 497,630 498,631 498,632 499,631 499,630 500,629 501,629 502,628 503,629 504,630 504,631 505,631 506,630 507,630 508,630 509,630 510,630 511,630 512,630 513,630 514,630 515,631 516,631 517,631 518,631 519,632 520,632 521,632 522,632 523,633 524,633 525,633 526,633 527,634 528,634 529,634 530,634 531,634 532,634 533,633 534,633 535,633 536,633 537,632 538,632 539,631 540,631 541,630 542,630 543,629 544,629 545,628 546,628 547,627 548,626 548,625 549,624 549,623 549,622 549,621 550,620 550,619 550,618 550,617 551,616 551,615 551,614 552,613 552,612 552,611 552,610 552,609 553,608 553,607 553,606 553,605 553,604 554,603 554,602 554,601 554,600 554,599 554,598 555,597 555,596 555,595 555,594 555,593 556,592 556,591 556,590 556,589 556,588 556,587 557,586 557,585 557,584 557,583 557,582 557,581 557,580 557,579 557,578 558,577 558,576 558,575 558,574 558,573 558,572 558,571 558,570 559,569 559,568 559,567 559,566 559,565 559,564 559,563 559,562 559,561 560,560 560,559 560,558 560,557 560,556 560,555 560,554 560,553 560,552 560,551 560,550 560,549 561,548 561,547 561,546 561,545 561,544 561,543 561,542 561,541 560,540 560,539 560,538 560,537 559,536 559,535 559,534 558,533 558,532 558,531 558,530 557,529 557,528 557,527 556,526 556,525 556,524 555,523 555,522 555,521 554,520 554,519 554,518 553,517 553,516 553,515 552,514 552,513 552,512 551,511 551,510 551,509 550,508 550,507 550,506 550,505 549,504 549,503 549,502 548,501 548,500 547,499 547,498 546,497 546,496 545,495 544,494 543,493 542,493 541,492 540,492 539,491 538,491 537,491 536,491 535,490 534,490 533,490 532,490 531,489 530,489 529,489 528,489 527,489 526,489 525,489 524,488 523,488 522,488 521,488 520,488 519,487 518,487 517,487 516,487 515,487 514,487 513,487 512,486 511,486 510,486 509,486 508,486 507,486 506,485 505,485 504,485 503,485 502,485 501,485 500,484 499,484 498,484 497,484 496,484 495,484 494,484 493,483 492,483 491,483 490,483 489,483 488,483">
      <metadata tailDirection="" confidence="0.80" linkedToCharacter="" id="UltraEleven_144_balloon_3" tailTip=""></metadata>
    </polygon>
  </svg>
</svg>
