<?xml version="1.0" encoding="UTF-8" standalone="no"?>
<svg width="827" xmlns="http://www.w3.org/2000/svg" version="1.0" height="1170">
  <title>UltraEleven_183</title>
  <svg contentScriptType="text/ecmascript" zoomAndPan="magnify" contentStyleType="text/css" class="Page" preserveAspectRatio="xMidYMid meet" version="1.0">
    <image xmlns:xlink="http://www.w3.org/1999/xlink" x="0" y="0" width="827" height="1170" xlink:href="./../../dataset_Manga109/UltraEleven/UltraEleven_183.jpg" xlink:type="simple" xlink:actuate="onLoad" preserveAspectRatio="xMidYMid meet" xlink:show="embed"/>
  </svg>
  <style type="text/css" xml:space="preserve">
        * { stroke-linejoin: round; }
        .Unclassified   { fill: orange; stroke: none;   opacity: 1.0; visibility: hidden; }
        .Noise          { fill: pink;   stroke: none;   opacity: 0.2; visibility: hidden; }
        .Panel          { fill: none;   stroke: red;    stroke-width:3; opacity: 0.5; visibility: visible; image-rendering: optimizeSpeed; }
        .Line           { fill: green;  stroke: none;   opacity: 0.5; visibility: visible; image-rendering: optimizeSpeed; }
        .TextArea       { fill: grey;   stroke: none;   opacity: 0.2; visibility: visible; image-rendering: optimizeSpeed; }
        .Balloon        { fill: cyan;   stroke: none;   opacity: 0.5; visibility: visible; image-rendering: optimizeSpeed; }
        .Letter         { fill: blue;   stroke: none;   opacity: 0.2; visibility: hidden; }
        .Object, .Character, .Face  { fill: yellow; stroke: none;   opacity: 0.5; visibility: visible; image-rendering: optimizeSpeed; }
        .Page           { fill: white;  stroke: none;    opacity: 0.5; visibility: visible; }
        .linkSBSC { fill: blue; stroke: none; opacity: 1.0; visibility: visible; }
        polygon:hover { opacity:1.0; stroke:red; }
</style>
  <svg xmlns="http://www.w3.org/2000/svg" contentScriptType="text/ecmascript" zoomAndPan="magnify" contentStyleType="text/css" class="Balloon" preserveAspectRatio="xMidYMid meet" version="1.0">
    <polygon points="216,1 215,2 214,3 213,4 212,5 211,6 210,7 209,8 208,9 207,10 206,11 205,12 204,13 203,14 202,15 203,16 204,16 205,16 206,16 207,16 208,16 209,17 208,18 207,18 206,18 205,18 204,18 203,18 202,18 201,18 200,18 199,18 198,18 197,18 196,18 195,18 194,18 193,18 192,18 191,18 190,18 189,18 188,18 187,18 186,18 185,18 184,18 183,18 182,18 181,18 180,18 179,18 178,18 177,18 176,18 175,18 174,18 173,18 172,18 171,18 170,18 169,18 168,18 167,18 166,18 165,18 164,18 163,18 162,18 161,18 160,18 159,18 158,18 157,18 156,18 155,18 154,18 153,18 152,18 151,18 150,18 149,18 148,18 147,18 146,18 145,18 144,18 143,18 142,18 141,18 140,18 139,18 138,18 137,18 136,18 135,18 134,18 133,18 132,18 131,18 130,18 129,18 128,18 127,18 126,18 125,18 124,18 123,18 122,17 121,17 120,18 119,17 118,18 117,18 116,18 115,18 114,18 113,18 112,18 111,18 110,18 109,17 108,17 107,17 106,17 105,17 104,17 103,17 102,17 101,17 100,17 99,17 98,17 97,17 96,18 95,18 94,17 93,17 92,17 91,17 90,17 89,17 88,17 87,17 86,17 85,17 84,17 83,17 82,17 81,17 80,17 79,17 78,17 77,17 76,17 75,17 74,17 73,17 72,17 71,17 70,17 69,17 68,17 67,17 66,17 65,17 64,17 63,17 62,17 61,17 60,17 59,17 58,17 57,17 56,17 55,17 54,17 53,17 52,17 51,17 50,17 49,17 48,17 47,18 47,19 47,20 47,21 47,22 47,23 47,24 47,25 47,26 47,27 47,28 47,29 47,30 47,31 47,32 47,33 47,34 47,35 47,36 47,37 47,38 47,39 47,40 47,41 47,42 47,43 47,44 47,45 47,46 47,47 47,48 47,49 47,50 47,51 47,52 47,53 47,54 47,55 47,56 47,57 47,58 47,59 47,60 47,61 47,62 47,63 47,64 47,65 47,66 47,67 47,68 47,69 47,70 47,71 47,72 47,73 47,74 47,75 47,76 47,77 47,78 47,79 47,80 47,81 47,82 47,83 47,84 47,85 47,86 47,87 47,88 47,89 47,90 47,91 47,92 47,93 47,94 47,95 47,96 47,97 47,98 47,99 47,100 47,101 47,102 47,103 47,104 47,105 47,106 47,107 47,108 47,109 47,110 47,111 47,112 47,113 47,114 47,115 47,116 47,117 47,118 47,119 47,120 47,121 47,122 47,123 47,124 47,125 47,126 47,127 47,128 47,129 47,130 47,131 47,132 47,133 47,134 47,135 47,136 47,137 47,138 47,139 47,140 47,141 47,142 47,143 47,144 47,145 47,146 47,147 47,148 47,149 47,150 47,151 46,152 47,153 47,154 47,155 47,156 47,157 47,158 47,159 46,160 46,161 46,162 47,163 47,164 46,165 47,166 46,167 46,168 46,169 46,170 46,171 46,172 46,173 47,174 47,175 47,176 47,177 47,178 47,179 47,180 47,181 47,182 47,183 47,184 47,185 47,186 47,187 47,188 47,189 47,190 47,191 47,192 47,193 47,194 47,195 47,196 47,197 47,198 47,199 47,200 47,201 47,202 47,203 47,204 47,205 47,206 47,207 47,208 47,209 47,210 47,211 47,212 47,213 47,214 47,215 47,216 47,217 47,218 47,219 47,220 47,221 47,222 47,223 47,224 47,225 47,226 47,227 47,228 47,229 47,230 47,231 47,232 47,233 47,234 47,235 47,236 47,237 47,238 47,239 47,240 47,241 47,242 47,243 47,244 47,245 47,246 47,247 47,248 47,249 47,250 47,251 47,252 47,253 47,254 47,255 47,256 47,257 47,258 47,259 47,260 47,261 47,262 47,263 47,264 47,265 47,266 47,267 47,268 47,269 47,270 47,271 47,272 47,273 47,274 47,275 47,276 47,277 47,278 47,279 47,280 47,281 47,282 47,283 47,284 47,285 47,286 47,287 47,288 47,289 47,290 47,291 47,292 47,293 47,294 47,295 47,296 47,297 47,298 47,299 47,300 47,301 47,302 47,303 47,304 47,305 47,306 47,307 47,308 47,309 47,310 47,311 47,312 47,313 47,314 47,315 47,316 47,317 47,318 47,319 47,320 47,321 47,322 47,323 47,324 47,325 47,326 47,327 47,328 47,329 47,330 47,331 47,332 47,333 47,334 47,335 47,336 47,337 47,338 47,339 47,340 47,341 47,342 47,343 47,344 47,345 47,346 47,347 47,348 47,349 47,350 47,351 47,352 47,353 47,354 47,355 47,356 47,357 47,358 47,359 47,360 47,361 47,362 47,363 47,364 47,365 47,366 47,367 47,368 47,369 47,370 47,371 47,372 47,373 47,374 47,375 47,376 47,377 47,378 47,379 47,380 47,381 47,382 47,383 47,384 47,385 47,386 47,387 47,388 47,389 47,390 47,391 47,392 47,393 47,394 47,395 47,396 47,397 47,398 47,399 47,400 47,401 47,402 47,403 47,404 47,405 47,406 47,407 47,408 47,409 47,410 47,411 47,412 47,413 47,414 47,415 47,416 47,417 47,418 47,419 47,420 47,421 47,422 47,423 47,424 47,425 47,426 47,427 47,428 47,429 47,430 47,431 47,432 47,433 47,434 47,435 47,436 47,437 47,438 47,439 47,440 47,441 47,442 47,443 47,444 47,445 47,446 47,447 47,448 47,449 47,450 47,451 47,452 47,453 47,454 47,455 47,456 47,457 47,458 47,459 47,460 47,461 47,462 47,463 47,464 47,465 47,466 47,467 47,468 47,469 47,470 47,471 47,472 47,473 47,474 47,475 47,476 47,477 47,478 47,479 47,480 47,481 47,482 47,483 47,484 47,485 47,486 47,487 47,488 47,489 47,490 47,491 47,492 47,493 47,494 47,495 47,496 47,497 47,498 47,499 47,500 47,501 47,502 47,503 47,504 47,505 47,506 47,507 47,508 47,509 47,510 47,511 47,512 47,513 47,514 47,515 47,516 47,517 47,518 47,519 46,520 46,521 46,522 46,523 46,524 46,525 47,526 47,527 47,528 47,529 47,530 47,531 47,532 47,533 47,534 47,535 47,536 47,537 47,538 47,539 47,540 47,541 47,542 47,543 47,544 47,545 47,546 47,547 47,548 47,549 47,550 47,551 47,552 47,553 47,554 47,555 47,556 47,557 47,558 47,559 47,560 47,561 47,562 47,563 47,564 47,565 47,566 47,567 47,568 47,569 47,570 47,571 47,572 47,573 47,574 47,575 47,576 47,577 47,578 47,579 47,580 47,581 47,582 47,583 47,584 47,585 47,586 47,587 47,588 47,589 47,590 47,591 47,592 47,593 47,594 47,595 47,596 47,597 47,598 47,599 47,600 47,601 47,602 47,603 47,604 47,605 47,606 47,607 47,608 47,609 47,610 47,611 47,612 47,613 47,614 47,615 47,616 47,617 47,618 47,619 47,620 47,621 47,622 47,623 47,624 47,625 46,626 46,627 46,628 46,629 46,630 46,631 46,632 47,633 47,634 47,635 46,636 46,637 46,638 47,639 47,640 47,641 47,642 47,643 47,644 47,645 47,646 47,647 47,648 47,649 47,650 47,651 47,652 47,653 47,654 47,655 47,656 47,657 47,658 47,659 47,660 46,661 46,662 46,663 47,664 47,665 47,666 47,667 46,668 46,669 46,670 46,671 47,672 47,673 47,674 46,675 46,676 47,677 47,678 47,679 47,680 47,681 47,682 46,683 46,684 46,685 46,686 46,687 47,688 46,689 46,690 47,691 46,692 46,693 46,694 46,695 46,696 46,697 46,698 46,699 46,700 46,701 46,702 46,703 46,704 46,705 46,706 46,707 46,708 46,709 46,710 46,711 46,712 46,713 46,714 46,715 46,716 46,717 46,718 46,719 46,720 46,721 46,722 46,723 46,724 46,725 46,726 46,727 46,728 46,729 47,730 47,731 47,732 47,733 46,734 46,735 46,736 46,737 46,738 46,739 47,740 47,741 47,742 47,743 46,744 47,745 47,746 47,747 47,748 47,749 47,750 47,751 47,752 47,753 47,754 47,755 47,756 47,757 47,758 47,759 47,760 47,761 47,762 47,763 47,764 47,765 47,766 47,767 47,768 47,769 47,770 47,771 47,772 47,773 47,774 47,775 47,776 47,777 47,778 47,779 47,780 47,781 47,782 47,783 47,784 47,785 47,786 47,787 47,788 47,789 47,790 47,791 47,792 47,793 47,794 47,795 47,796 47,797 47,798 47,799 47,800 47,801 47,802 47,803 47,804 47,805 47,806 47,807 47,808 47,809 47,810 47,811 47,812 47,813 47,814 47,815 47,816 47,817 47,818 46,819 46,820 46,821 46,822 46,823 46,824 46,825 46,826 46,827 46,828 46,829 46,830 46,831 46,832 46,833 46,834 46,835 46,836 46,837 46,838 46,839 46,840 46,841 46,842 46,843 46,844 46,845 46,846 46,847 46,848 46,849 46,850 46,851 46,852 46,853 46,854 46,855 46,856 46,857 46,858 46,859 46,860 46,861 46,862 46,863 46,864 46,865 46,866 46,867 46,868 46,869 46,870 46,871 46,872 46,873 46,874 46,875 46,876 46,877 46,878 46,879 46,880 46,881 46,882 46,883 46,884 46,885 46,886 46,887 46,888 46,889 46,890 46,891 46,892 46,893 46,894 46,895 46,896 46,897 46,898 46,899 46,900 46,901 46,902 46,903 46,904 46,905 46,906 46,907 46,908 46,909 46,910 46,911 46,912 46,913 46,914 46,915 46,916 46,917 46,918 46,919 46,920 46,921 46,922 46,923 46,924 46,925 46,926 46,927 46,928 46,929 46,930 46,931 46,932 46,933 46,934 46,935 46,936 46,937 46,938 46,939 46,940 46,941 46,942 46,943 46,944 46,945 46,946 46,947 46,948 46,949 46,950 46,951 46,952 46,953 46,954 46,955 46,956 46,957 46,958 46,959 46,960 46,961 46,962 46,963 46,964 46,965 46,966 46,967 46,968 46,969 46,970 46,971 46,972 46,973 46,974 46,975 46,976 46,977 46,978 46,979 46,980 46,981 46,982 46,983 46,984 46,985 46,986 46,987 46,988 46,989 46,990 46,991 46,992 46,993 46,994 46,995 46,996 46,997 46,998 46,999 46,1000 46,1001 46,1002 46,1003 46,1004 46,1005 46,1006 46,1007 46,1008 46,1009 46,1010 46,1011 46,1012 46,1013 46,1014 46,1015 46,1016 46,1017 46,1018 46,1019 46,1020 46,1021 46,1022 46,1023 46,1024 46,1025 46,1026 46,1027 46,1028 46,1029 46,1030 46,1031 46,1032 46,1033 46,1034 46,1035 46,1036 46,1037 46,1038 46,1039 46,1040 46,1041 46,1042 46,1043 46,1044 46,1045 46,1046 46,1047 46,1048 46,1049 46,1050 46,1051 46,1052 46,1053 46,1054 46,1055 46,1056 46,1057 46,1058 46,1059 46,1060 46,1061 46,1062 46,1063 46,1064 46,1065 46,1066 46,1067 46,1068 46,1069 46,1070 46,1071 46,1072 46,1073 46,1074 46,1075 46,1076 46,1077 46,1078 46,1079 46,1080 46,1081 46,1082 46,1083 46,1084 46,1085 46,1086 46,1087 46,1088 46,1089 46,1090 46,1091 46,1092 46,1093 46,1094 46,1095 46,1096 46,1097 46,1098 46,1099 46,1100 46,1101 46,1102 46,1103 46,1104 46,1105 46,1106 46,1107 46,1108 46,1109 46,1110 46,1111 46,1112 46,1113 46,1114 46,1115 46,1116 46,1117 46,1118 46,1119 46,1120 46,1121 46,1122 46,1123 46,1124 46,1125 46,1126 46,1127 46,1128 46,1129 46,1130 46,1131 46,1132 46,1133 46,1134 46,1135 46,1136 46,1137 46,1138 46,1139 46,1140 46,1141 47,1141 48,1141 49,1141 50,1141 51,1141 52,1141 53,1141 54,1141 55,1141 56,1141 57,1141 58,1141 59,1141 60,1141 61,1141 62,1141 63,1141 64,1141 65,1141 66,1141 67,1141 68,1141 69,1141 70,1141 71,1141 72,1141 73,1141 74,1141 75,1141 76,1141 77,1141 78,1141 79,1141 80,1141 81,1141 82,1141 83,1141 84,1141 85,1141 86,1141 87,1141 88,1141 89,1141 90,1141 91,1141 92,1141 93,1141 94,1141 95,1141 96,1141 97,1141 98,1141 99,1141 100,1141 101,1141 102,1141 103,1141 104,1141 105,1141 106,1141 107,1141 108,1141 109,1141 110,1141 111,1141 112,1141 113,1141 114,1141 115,1141 116,1141 117,1141 118,1141 119,1141 120,1141 121,1141 122,1141 123,1141 124,1141 125,1141 126,1141 127,1141 128,1141 129,1141 130,1141 131,1141 132,1141 133,1141 134,1141 135,1141 136,1141 137,1141 138,1141 139,1141 140,1141 141,1141 142,1141 143,1141 144,1141 145,1141 146,1141 147,1141 148,1141 149,1141 150,1141 151,1141 152,1141 153,1141 154,1141 155,1141 156,1141 157,1141 158,1141 159,1141 160,1141 161,1141 162,1141 163,1141 164,1141 165,1141 166,1141 167,1141 168,1141 169,1141 170,1141 171,1141 172,1141 173,1141 174,1141 175,1141 176,1141 177,1141 178,1141 179,1141 180,1141 181,1141 182,1141 183,1141 184,1141 185,1141 186,1141 187,1141 188,1141 189,1141 190,1141 191,1141 192,1141 193,1141 194,1141 195,1141 196,1141 197,1141 198,1141 199,1141 200,1141 201,1141 202,1141 203,1141 204,1141 205,1141 206,1141 207,1141 208,1141 209,1141 210,1141 211,1141 212,1141 213,1141 214,1141 215,1141 216,1141 217,1141 218,1141 219,1141 220,1141 221,1141 222,1141 223,1141 224,1141 225,1141 226,1141 227,1141 228,1141 229,1141 230,1141 231,1141 232,1141 233,1141 234,1141 235,1141 236,1141 237,1141 238,1141 239,1141 240,1141 241,1141 242,1141 243,1141 244,1141 245,1141 246,1141 247,1141 248,1141 249,1141 250,1141 251,1141 252,1141 253,1141 254,1141 255,1141 256,1141 257,1141 258,1141 259,1141 260,1141 261,1141 262,1141 263,1141 264,1141 265,1141 266,1141 267,1141 268,1141 269,1141 270,1141 271,1141 272,1141 273,1141 274,1141 275,1141 276,1141 277,1141 278,1141 279,1141 280,1141 281,1141 282,1141 283,1141 284,1141 285,1141 286,1141 287,1141 288,1141 289,1141 290,1141 291,1141 292,1141 293,1141 294,1141 295,1141 296,1141 297,1141 298,1141 299,1141 300,1141 301,1141 302,1141 303,1141 304,1141 305,1141 306,1141 307,1141 308,1141 309,1141 310,1141 311,1141 312,1141 313,1141 314,1141 315,1141 316,1141 317,1141 318,1141 319,1141 320,1141 321,1141 322,1141 323,1141 324,1141 325,1141 326,1141 327,1141 328,1141 329,1141 330,1141 331,1141 332,1141 333,1141 334,1141 335,1141 336,1141 337,1141 338,1141 339,1141 340,1141 341,1141 342,1141 343,1141 344,1141 345,1141 346,1141 347,1141 348,1141 349,1141 350,1141 351,1141 352,1141 353,1141 354,1141 355,1141 356,1141 357,1141 358,1141 359,1141 360,1141 361,1141 362,1141 363,1141 364,1141 365,1141 366,1141 367,1141 368,1141 369,1141 370,1141 371,1141 372,1141 373,1141 374,1141 375,1141 376,1141 377,1141 378,1141 379,1141 380,1141 381,1141 382,1141 383,1141 384,1141 385,1141 386,1141 387,1141 388,1141 389,1141 390,1141 391,1141 392,1141 393,1141 394,1141 395,1141 396,1141 397,1141 398,1141 399,1141 400,1141 401,1141 402,1141 403,1141 404,1141 405,1141 406,1141 407,1141 408,1141 409,1141 410,1141 411,1141 412,1141 413,1141 414,1141 415,1141 416,1141 417,1141 418,1141 419,1141 420,1141 421,1141 422,1141 423,1141 424,1141 425,1141 426,1141 427,1141 428,1141 429,1141 430,1141 431,1141 432,1141 433,1141 434,1141 435,1141 436,1141 437,1141 438,1141 439,1141 440,1141 441,1141 442,1141 443,1141 444,1141 445,1141 446,1141 447,1141 448,1141 449,1141 450,1141 451,1141 452,1141 453,1141 454,1141 455,1141 456,1141 457,1141 458,1141 459,1141 460,1141 461,1141 462,1141 463,1141 464,1141 465,1141 466,1141 467,1141 468,1141 469,1141 470,1141 471,1141 472,1141 473,1141 474,1141 475,1141 476,1141 477,1141 478,1141 479,1141 480,1141 481,1141 482,1141 483,1141 484,1141 485,1141 486,1141 487,1141 488,1142 489,1141 490,1141 491,1141 492,1141 493,1141 494,1141 495,1141 496,1141 497,1141 498,1141 499,1141 500,1141 501,1141 502,1141 503,1141 504,1141 505,1141 506,1141 507,1141 508,1141 509,1141 510,1141 511,1141 512,1141 513,1141 514,1141 515,1141 516,1141 517,1141 518,1141 519,1141 520,1141 521,1141 522,1141 523,1141 524,1141 525,1141 526,1141 527,1141 528,1141 529,1141 530,1141 531,1141 532,1141 533,1141 534,1141 535,1141 536,1141 537,1141 538,1141 539,1141 540,1141 541,1141 542,1141 543,1141 544,1141 545,1141 546,1141 547,1141 548,1141 549,1141 550,1141 551,1141 552,1141 553,1141 554,1141 555,1141 556,1141 557,1141 558,1141 559,1141 560,1141 561,1141 562,1141 563,1141 564,1141 565,1141 566,1141 567,1141 568,1141 569,1141 570,1141 571,1141 572,1141 573,1141 574,1141 575,1141 576,1141 577,1141 578,1141 579,1141 580,1142 581,1141 582,1141 583,1142 584,1141 585,1142 586,1142 587,1142 588,1142 589,1142 590,1142 591,1142 592,1142 593,1142 594,1142 595,1142 596,1142 597,1142 598,1142 599,1142 600,1142 601,1142 602,1142 603,1142 604,1142 605,1142 606,1142 607,1142 608,1142 609,1142 610,1142 611,1142 612,1142 613,1142 614,1142 615,1142 616,1142 617,1142 618,1142 619,1142 620,1142 621,1142 622,1142 623,1142 624,1142 625,1142 626,1142 627,1142 628,1142 629,1142 630,1142 631,1142 632,1142 633,1142 634,1142 635,1142 636,1142 637,1142 638,1142 639,1142 640,1142 641,1142 642,1142 643,1142 644,1142 645,1142 646,1142 647,1142 648,1142 649,1142 650,1142 651,1142 652,1142 653,1142 654,1142 655,1142 656,1142 657,1142 658,1142 659,1142 660,1142 661,1142 662,1142 663,1142 664,1142 665,1142 666,1142 667,1142 668,1142 669,1142 670,1142 671,1142 672,1142 673,1142 674,1142 675,1142 676,1142 677,1142 678,1142 679,1142 680,1142 681,1142 682,1142 683,1142 684,1142 685,1142 686,1142 687,1142 688,1142 689,1142 690,1142 691,1142 692,1142 693,1142 694,1142 695,1142 696,1142 697,1142 698,1142 699,1142 700,1142 701,1142 702,1142 703,1142 704,1142 705,1142 706,1142 707,1142 708,1142 709,1142 710,1142 711,1142 712,1142 713,1142 714,1142 715,1142 716,1142 717,1142 718,1142 719,1142 720,1142 721,1142 722,1142 723,1142 724,1142 725,1142 726,1142 727,1142 728,1142 729,1142 730,1142 731,1142 732,1142 733,1142 734,1142 735,1142 736,1142 737,1142 738,1142 739,1142 740,1142 741,1142 742,1142 743,1142 744,1142 745,1142 746,1142 747,1142 748,1142 749,1142 750,1142 751,1142 752,1142 753,1142 754,1142 755,1142 756,1142 757,1142 758,1142 759,1142 760,1142 761,1142 762,1142 763,1142 764,1142 765,1142 766,1142 767,1142 768,1142 769,1142 770,1142 771,1142 772,1142 773,1142 774,1142 775,1142 776,1142 777,1142 778,1142 779,1142 780,1142 781,1142 782,1142 782,1141 782,1140 782,1139 782,1138 782,1137 782,1136 782,1135 782,1134 782,1133 782,1132 782,1131 782,1130 782,1129 782,1128 782,1127 782,1126 782,1125 782,1124 782,1123 782,1122 782,1121 782,1120 782,1119 782,1118 782,1117 782,1116 782,1115 782,1114 782,1113 782,1112 782,1111 782,1110 782,1109 782,1108 782,1107 782,1106 782,1105 782,1104 782,1103 782,1102 782,1101 782,1100 782,1099 782,1098 782,1097 782,1096 782,1095 782,1094 782,1093 782,1092 782,1091 782,1090 782,1089 782,1088 782,1087 782,1086 782,1085 782,1084 782,1083 782,1082 782,1081 782,1080 782,1079 782,1078 782,1077 782,1076 782,1075 782,1074 782,1073 782,1072 782,1071 782,1070 782,1069 782,1068 782,1067 782,1066 782,1065 782,1064 782,1063 782,1062 782,1061 782,1060 782,1059 782,1058 782,1057 782,1056 782,1055 782,1054 782,1053 782,1052 782,1051 782,1050 782,1049 782,1048 782,1047 782,1046 782,1045 782,1044 782,1043 782,1042 782,1041 782,1040 782,1039 782,1038 782,1037 782,1036 782,1035 782,1034 782,1033 782,1032 782,1031 782,1030 782,1029 782,1028 782,1027 782,1026 782,1025 782,1024 782,1023 782,1022 782,1021 782,1020 782,1019 782,1018 782,1017 782,1016 782,1015 782,1014 782,1013 782,1012 782,1011 782,1010 782,1009 782,1008 782,1007 782,1006 782,1005 782,1004 782,1003 782,1002 782,1001 782,1000 782,999 782,998 782,997 782,996 782,995 782,994 782,993 782,992 782,991 782,990 782,989 782,988 782,987 782,986 782,985 782,984 782,983 782,982 782,981 782,980 782,979 782,978 782,977 782,976 782,975 782,974 782,973 782,972 782,971 782,970 782,969 782,968 782,967 782,966 782,965 782,964 782,963 782,962 782,961 782,960 782,959 782,958 782,957 782,956 782,955 782,954 782,953 782,952 782,951 782,950 782,949 782,948 782,947 782,946 782,945 782,944 782,943 782,942 782,941 782,940 782,939 782,938 782,937 782,936 782,935 782,934 782,933 782,932 782,931 782,930 782,929 782,928 782,927 782,926 782,925 782,924 782,923 782,922 782,921 782,920 782,919 782,918 782,917 782,916 782,915 782,914 782,913 782,912 782,911 782,910 782,909 782,908 782,907 782,906 782,905 782,904 782,903 782,902 782,901 782,900 782,899 782,898 782,897 782,896 782,895 782,894 782,893 782,892 782,891 782,890 782,889 782,888 782,887 782,886 782,885 782,884 782,883 782,882 782,881 782,880 782,879 782,878 782,877 782,876 782,875 782,874 782,873 782,872 782,871 782,870 782,869 782,868 782,867 782,866 782,865 782,864 782,863 782,862 782,861 782,860 782,859 782,858 782,857 782,856 782,855 782,854 782,853 782,852 782,851 782,850 782,849 782,848 782,847 782,846 782,845 782,844 782,843 782,842 782,841 782,840 782,839 782,838 782,837 782,836 782,835 782,834 782,833 782,832 782,831 782,830 782,829 782,828 782,827 782,826 782,825 782,824 782,823 782,822 782,821 782,820 782,819 782,818 782,817 782,816 782,815 782,814 782,813 782,812 782,811 782,810 782,809 782,808 782,807 782,806 782,805 782,804 782,803 782,802 782,801 782,800 782,799 782,798 782,797 782,796 782,795 782,794 782,793 782,792 782,791 782,790 782,789 782,788 782,787 782,786 782,785 782,784 782,783 782,782 782,781 782,780 782,779 782,778 782,777 782,776 782,775 782,774 782,773 782,772 782,771 782,770 782,769 782,768 782,767 782,766 782,765 782,764 782,763 782,762 782,761 782,760 782,759 782,758 782,757 782,756 782,755 782,754 782,753 782,752 782,751 782,750 782,749 782,748 782,747 782,746 782,745 782,744 782,743 782,742 782,741 782,740 782,739 782,738 782,737 782,736 782,735 782,734 782,733 782,732 782,731 782,730 782,729 782,728 782,727 782,726 782,725 782,724 782,723 782,722 782,721 782,720 782,719 782,718 782,717 782,716 782,715 782,714 782,713 782,712 782,711 782,710 782,709 782,708 782,707 782,706 782,705 782,704 782,703 782,702 782,701 782,700 782,699 782,698 782,697 782,696 782,695 782,694 782,693 782,692 782,691 782,690 782,689 782,688 782,687 782,686 782,685 782,684 782,683 782,682 782,681 782,680 782,679 782,678 782,677 782,676 782,675 782,674 782,673 782,672 782,671 782,670 782,669 782,668 782,667 782,666 782,665 782,664 782,663 782,662 782,661 782,660 782,659 782,658 782,657 782,656 782,655 782,654 782,653 782,652 782,651 782,650 782,649 782,648 782,647 782,646 782,645 782,644 782,643 782,642 782,641 782,640 782,639 782,638 782,637 782,636 782,635 782,634 782,633 782,632 782,631 782,630 782,629 782,628 782,627 782,626 782,625 782,624 782,623 782,622 782,621 782,620 782,619 782,618 782,617 782,616 782,615 782,614 782,613 782,612 782,611 782,610 782,609 782,608 782,607 782,606 782,605 782,604 782,603 782,602 782,601 782,600 782,599 782,598 782,597 782,596 782,595 782,594 782,593 782,592 782,591 782,590 782,589 782,588 782,587 782,586 782,585 782,584 782,583 782,582 782,581 782,580 782,579 782,578 782,577 782,576 782,575 782,574 782,573 782,572 782,571 782,570 782,569 782,568 782,567 782,566 782,565 782,564 782,563 782,562 782,561 782,560 782,559 782,558 782,557 782,556 782,555 782,554 782,553 782,552 782,551 782,550 782,549 782,548 782,547 782,546 782,545 782,544 782,543 782,542 782,541 782,540 782,539 782,538 782,537 782,536 782,535 782,534 782,533 782,532 782,531 782,530 783,529 782,528 782,527 782,526 782,525 782,524 782,523 782,522 782,521 782,520 782,519 782,518 782,517 782,516 782,515 782,514 782,513 782,512 782,511 782,510 782,509 782,508 782,507 782,506 782,505 782,504 782,503 782,502 782,501 782,500 782,499 782,498 782,497 782,496 782,495 782,494 782,493 782,492 782,491 782,490 782,489 782,488 782,487 782,486 782,485 782,484 782,483 782,482 782,481 782,480 782,479 782,478 782,477 782,476 782,475 782,474 782,473 782,472 783,471 783,470 783,469 782,468 783,467 783,466 782,465 783,464 783,463 783,462 783,461 783,460 783,459 783,458 783,457 783,456 783,455 783,454 783,453 783,452 783,451 783,450 783,449 783,448 783,447 783,446 783,445 783,444 783,443 783,442 783,441 783,440 783,439 783,438 783,437 783,436 783,435 783,434 783,433 783,432 782,431 782,430 782,429 782,428 782,427 782,426 782,425 782,424 782,423 782,422 782,421 782,420 782,419 782,418 782,417 782,416 782,415 782,414 782,413 782,412 782,411 782,410 782,409 782,408 782,407 782,406 782,405 782,404 782,403 782,402 782,401 782,400 782,399 782,398 782,397 782,396 782,395 782,394 782,393 782,392 782,391 782,390 782,389 782,388 782,387 782,386 782,385 782,384 782,383 782,382 782,381 782,380 782,379 782,378 782,377 782,376 782,375 782,374 782,373 782,372 782,371 782,370 782,369 782,368 782,367 782,366 782,365 782,364 782,363 782,362 782,361 782,360 782,359 782,358 782,357 782,356 782,355 782,354 782,353 782,352 782,351 782,350 782,349 782,348 782,347 782,346 782,345 782,344 782,343 782,342 782,341 782,340 782,339 782,338 782,337 782,336 782,335 782,334 782,333 782,332 782,331 782,330 782,329 782,328 782,327 782,326 782,325 782,324 782,323 782,322 782,321 782,320 782,319 782,318 782,317 782,316 782,315 782,314 782,313 782,312 782,311 782,310 782,309 782,308 782,307 782,306 782,305 782,304 782,303 782,302 782,301 782,300 782,299 782,298 782,297 782,296 782,295 782,294 782,293 782,292 782,291 782,290 782,289 782,288 782,287 782,286 782,285 782,284 782,283 782,282 782,281 782,280 782,279 782,278 782,277 782,276 782,275 782,274 782,273 782,272 782,271 782,270 782,269 782,268 782,267 782,266 782,265 782,264 782,263 782,262 782,261 782,260 782,259 782,258 782,257 782,256 782,255 782,254 782,253 782,252 782,251 782,250 782,249 782,248 782,247 782,246 782,245 782,244 782,243 782,242 782,241 782,240 782,239 782,238 782,237 782,236 782,235 782,234 782,233 782,232 782,231 782,230 782,229 782,228 782,227 782,226 782,225 782,224 782,223 782,222 782,221 782,220 782,219 782,218 782,217 782,216 782,215 782,214 782,213 782,212 782,211 782,210 782,209 782,208 782,207 782,206 782,205 782,204 782,203 782,202 782,201 782,200 782,199 782,198 782,197 782,196 782,195 782,194 782,193 783,192 783,191 783,190 782,189 782,188 783,187 783,186 783,185 783,184 783,183 783,182 783,181 783,180 783,179 783,178 783,177 783,176 783,175 783,174 783,173 783,172 783,171 783,170 783,169 783,168 783,167 783,166 783,165 783,164 783,163 783,162 783,161 783,160 783,159 783,158 783,157 783,156 783,155 783,154 783,153 783,152 783,151 783,150 783,149 783,148 783,147 783,146 782,145 782,144 782,143 782,142 782,141 782,140 782,139 782,138 782,137 782,136 782,135 782,134 782,133 782,132 782,131 782,130 782,129 782,128 782,127 782,126 782,125 782,124 782,123 782,122 782,121 782,120 782,119 782,118 782,117 782,116 782,115 782,114 782,113 782,112 782,111 782,110 782,109 782,108 782,107 782,106 782,105 782,104 782,103 782,102 782,101 782,100 782,99 782,98 782,97 782,96 782,95 782,94 782,93 782,92 782,91 782,90 782,89 782,88 782,87 782,86 782,85 782,84 782,83 782,82 782,81 782,80 782,79 782,78 782,77 782,76 782,75 782,74 782,73 782,72 782,71 782,70 782,69 782,68 782,67 781,66 781,65 781,64 781,63 781,62 781,61 781,60 781,59 781,58 781,57 781,56 781,55 781,54 781,53 781,52 781,51 781,50 781,49 781,48 781,47 781,46 781,45 781,44 781,43 781,42 781,41 781,40 781,39 781,38 781,37 781,36 781,35 781,34 781,33 781,32 781,31 781,30 781,29 781,28 781,27 781,26 782,25 782,24 782,23 782,22 782,21 782,20 782,19 781,18 780,18 779,18 778,18 777,18 776,18 775,18 774,18 773,18 772,18 771,18 770,18 769,18 768,18 767,18 766,18 765,18 764,18 763,18 762,18 761,18 760,18 759,18 758,18 757,18 756,18 755,18 754,18 753,18 752,18 751,18 750,18 749,18 748,18 747,18 746,18 745,18 744,18 743,18 742,18 741,18 740,18 739,18 738,18 737,18 736,18 735,18 734,18 733,18 732,18 731,18 730,18 729,18 728,18 727,18 726,18 725,18 724,18 723,18 722,18 721,18 720,18 719,18 718,18 717,18 716,18 715,18 714,18 713,18 712,18 711,18 710,18 709,18 708,18 707,18 706,18 705,18 704,18 703,18 702,18 701,18 700,18 699,18 698,18 697,18 696,18 695,18 694,18 693,18 692,18 691,18 690,18 689,18 688,18 687,18 686,18 685,18 684,18 683,18 682,18 681,18 680,18 679,18 678,18 677,18 676,18 675,18 674,18 673,18 672,18 671,18 670,18 669,18 668,18 667,18 666,18 665,18 664,18 663,18 662,18 661,18 660,18 659,18 658,18 657,18 656,18 655,18 654,18 653,18 652,18 651,18 650,18 649,18 648,18 647,18 646,18 645,18 644,18 643,18 642,18 641,18 640,18 639,18 638,18 637,18 636,18 635,18 634,18 633,18 632,18 631,18 630,18 629,18 628,18 627,18 626,18 625,18 624,18 623,18 622,18 621,18 620,18 619,18 618,18 617,18 616,18 615,18 614,18 613,18 612,18 611,18 610,18 609,18 608,18 607,18 606,18 605,18 604,18 603,18 602,18 601,18 600,18 599,18 598,18 597,18 596,18 595,18 594,18 593,18 592,18 591,18 590,18 589,18 588,18 587,18 586,18 585,18 584,18 583,18 582,18 581,18 580,18 579,18 578,18 577,18 576,18 575,18 574,18 573,18 572,18 571,18 570,18 569,18 568,18 567,18 566,18 565,18 564,18 563,19 562,18 561,18 560,18 559,18 558,18 557,18 556,18 555,19 554,19 553,18 552,18 551,19 550,19 549,18 548,18 547,18 546,19 545,18 544,18 543,19 542,19 541,19 540,19 539,19 538,18 537,19 536,19 535,19 534,19 533,19 532,19 531,19 530,19 529,19 528,18 527,19 526,19 525,19 524,19 523,19 522,19 521,19 520,19 519,19 518,19 517,19 516,19 515,19 514,19 513,19 512,19 511,19 510,19 509,19 508,19 507,19 506,19 505,19 504,19 503,19 502,19 501,19 500,19 499,19 498,19 497,19 496,19 495,19 494,19 493,19 492,19 491,19 490,19 489,19 488,19 487,19 486,19 485,19 484,19 483,19 482,19 481,19 480,19 479,19 478,19 477,19 476,19 475,19 474,19 473,19 472,19 471,19 470,19 469,19 468,19 467,19 466,19 465,19 464,19 463,19 462,19 461,19 460,19 459,19 458,19 457,19 456,19 455,19 454,19 453,19 452,19 451,19 450,19 449,18 448,18 447,18 446,18 445,19 444,19 443,19 442,18 441,18 440,18 439,18 438,19 437,19 436,19 435,19 434,18 433,18 432,18 431,19 430,19 429,18 428,18 427,18 426,18 425,18 424,18 423,18 422,18 421,18 420,18 419,18 418,18 417,18 416,18 415,18 414,18 413,18 412,18 411,18 410,19 409,19 408,19 407,18 406,18 405,18 404,18 403,18 402,18 401,18 400,18 399,18 398,18 397,18 396,18 395,18 394,18 393,18 392,18 391,18 390,18 389,18 388,18 387,18 386,18 385,18 384,18 383,19 382,18 381,18 380,18 379,18 378,18 377,18 376,18 375,18 374,18 373,18 372,18 371,18 370,18 369,18 368,18 367,18 366,18 365,18 364,18 363,18 362,18 361,18 360,18 359,18 358,18 357,18 356,18 355,18 354,18 353,18 352,18 351,18 350,18 349,18 348,18 347,18 346,18 345,18 344,18 343,18 342,18 341,18 340,18 339,18 338,18 337,18 336,18 335,18 334,18 333,18 332,18 331,18 330,18 329,18 328,18 327,18 326,18 325,18 324,18 323,18 322,18 321,18 320,18 319,18 318,18 317,18 316,18 315,18 314,18 313,18 312,18 311,18 310,18 309,18 308,18 307,18 306,18 305,18 304,18 303,18 302,18 301,18 300,18 299,18 298,18 297,18 296,18 295,18 294,18 293,18 292,18 291,18 290,18 289,18 288,18 287,18 286,18 285,18 284,18 283,18 282,18 281,18 280,18 279,18 278,18 277,18 276,18 275,18 274,18 273,18 272,18 271,18 270,18 269,18 268,18 267,18 266,18 265,18 264,18 263,18 262,18 261,18 260,18 259,18 258,18 257,18 256,18 255,18 254,18 253,18 252,18 251,18 250,18 249,18 248,18 247,18 246,18 245,18 244,18 243,18 242,18 241,18 240,18 239,18 238,18 237,18 236,18 235,18 234,18 233,18 232,18 231,18 230,18 229,18 228,18 227,18 226,18 225,18 224,18 223,17 224,16 225,16 226,16 227,16 228,16 229,16 230,15 231,15 232,14 233,13 233,12 234,11 235,11 235,10 236,9 236,8 236,7 236,6 236,5 236,4 236,3 236,2 235,2 234,3 233,4 232,5 231,6 230,7 229,8 228,9 227,10 226,11 225,12 224,13 223,14 223,15 222,16 222,17 221,18 220,18 219,18 218,18 217,18 216,18 215,18 214,18 213,18 212,18 211,18 210,18 209,17 209,16 210,15 211,15 212,14 212,13 213,12 214,11 215,10 216,9 217,8 218,7 219,6 220,5 221,4 222,3 223,2 224,1 223,1 222,1 221,1 220,1 219,1 218,1 217,1 216,1">
      <metadata tailDirection="" confidence="0.94" linkedToCharacter="" id="UltraEleven_183_balloon_0" tailTip=""></metadata>
    </polygon>
    <polygon points="724,822 723,823 722,823 721,824 720,824 719,825 718,825 717,826 716,826 715,827 714,828 713,828 712,829 711,830 710,830 709,831 708,831 707,832 706,833 705,833 704,834 703,835 702,835 701,836 700,837 699,838 698,839 697,840 696,841 695,842 694,843 693,844 692,845 691,846 690,847 690,848 689,849 688,850 688,851 687,852 686,853 686,854 686,855 685,856 685,857 685,858 685,859 685,860 685,861 685,862 685,863 685,864 685,865 685,866 685,867 685,868 685,869 685,870 685,871 685,872 686,873 686,874 686,875 686,876 686,877 686,878 686,879 687,880 687,881 687,882 687,883 687,884 687,885 687,886 688,887 688,888 688,889 688,890 688,891 688,892 689,893 689,894 689,895 689,896 689,897 689,898 690,899 690,900 690,901 691,902 691,903 691,904 692,905 692,906 693,907 694,908 695,908 696,909 697,909 698,910 699,910 700,911 701,911 702,911 703,912 704,912 705,912 706,913 707,913 708,913 709,914 710,914 711,914 712,914 713,915 714,915 715,915 716,916 717,916 718,916 719,916 720,917 721,917 722,917 723,918 724,918 725,918 726,918 727,918 728,918 729,919 730,919 731,919 732,920 733,920 734,920 735,921 736,921 737,921 738,921 739,921 740,922 741,922 742,922 743,922 744,922 745,922 746,922 747,921 748,921 749,921 750,920 751,920 752,919 753,919 754,918 755,918 756,917 757,916 758,915 759,914 760,913 761,912 762,911 763,910 764,909 764,908 764,907 764,906 764,905 764,904 764,903 764,902 764,901 764,900 764,899 764,898 764,897 764,896 764,895 765,894 765,893 766,892 767,891 768,891 769,890 769,889 769,888 770,887 769,887 768,886 767,885 766,884 766,883 766,882 766,881 766,880 767,879 767,878 767,877 767,876 767,875 768,874 768,873 768,872 769,871 769,870 769,869 770,868 770,867 771,866 771,865 771,864 772,863 772,862 772,861 773,860 773,859 773,858 774,857 774,856 774,855 774,854 774,853 774,852 773,851 773,850 773,849 773,848 772,847 772,846 771,845 771,844 771,843 770,842 770,841 769,840 769,839 768,838 768,837 768,836 767,835 767,834 766,833 766,832 766,831 765,830 764,829 763,828 762,828 761,827 760,827 759,827 758,826 757,826 756,826 755,825 754,825 753,825 752,825 751,825 750,825 749,825 748,824 747,824 746,824 745,824 744,824 743,824 742,823 741,823 740,823 739,823 738,823 737,823 736,823 735,822 734,822 733,822 732,822 731,822 730,822 729,822 728,822 727,822 726,822 725,822 724,822">
      <metadata tailDirection="" confidence="0.82" linkedToCharacter="" id="UltraEleven_183_balloon_1" tailTip=""></metadata>
    </polygon>
  </svg>
</svg>
