<?xml version="1.0" encoding="UTF-8" standalone="no"?>
<svg width="827" xmlns="http://www.w3.org/2000/svg" version="1.0" height="1170">
  <title>UltraEleven_021</title>
  <svg contentScriptType="text/ecmascript" zoomAndPan="magnify" contentStyleType="text/css" class="Page" preserveAspectRatio="xMidYMid meet" version="1.0">
    <image xmlns:xlink="http://www.w3.org/1999/xlink" x="0" y="0" width="827" height="1170" xlink:href="./../../dataset_Manga109/UltraEleven/UltraEleven_021.jpg" xlink:type="simple" xlink:actuate="onLoad" preserveAspectRatio="xMidYMid meet" xlink:show="embed"/>
  </svg>
  <style type="text/css" xml:space="preserve">
        * { stroke-linejoin: round; }
        .Unclassified   { fill: orange; stroke: none;   opacity: 1.0; visibility: hidden; }
        .Noise          { fill: pink;   stroke: none;   opacity: 0.2; visibility: hidden; }
        .Panel          { fill: none;   stroke: red;    stroke-width:3; opacity: 0.5; visibility: visible; image-rendering: optimizeSpeed; }
        .Line           { fill: green;  stroke: none;   opacity: 0.5; visibility: visible; image-rendering: optimizeSpeed; }
        .TextArea       { fill: grey;   stroke: none;   opacity: 0.2; visibility: visible; image-rendering: optimizeSpeed; }
        .Balloon        { fill: cyan;   stroke: none;   opacity: 0.5; visibility: visible; image-rendering: optimizeSpeed; }
        .Letter         { fill: blue;   stroke: none;   opacity: 0.2; visibility: hidden; }
        .Object, .Character, .Face  { fill: yellow; stroke: none;   opacity: 0.5; visibility: visible; image-rendering: optimizeSpeed; }
        .Page           { fill: white;  stroke: none;    opacity: 0.5; visibility: visible; }
        .linkSBSC { fill: blue; stroke: none; opacity: 1.0; visibility: visible; }
        polygon:hover { opacity:1.0; stroke:red; }
</style>
  <svg xmlns="http://www.w3.org/2000/svg" contentScriptType="text/ecmascript" zoomAndPan="magnify" contentStyleType="text/css" class="Balloon" preserveAspectRatio="xMidYMid meet" version="1.0">
    <polygon points="148,855 147,856 146,856 145,856 144,856 143,856 142,856 141,856 140,856 139,856 138,856 137,856 136,856 135,856 134,856 133,856 132,856 131,856 130,856 129,856 128,856 127,856 126,856 125,856 124,856 123,856 122,856 121,856 120,856 119,856 118,856 117,856 116,856 115,856 114,856 113,856 112,856 111,856 110,856 109,856 108,856 107,856 106,856 105,856 104,856 103,856 102,856 101,856 100,856 99,856 98,856 97,856 96,856 95,856 94,856 93,856 92,856 91,856 90,856 89,856 88,856 87,856 86,856 85,856 84,856 83,856 82,856 81,856 80,856 79,856 78,856 77,856 76,856 75,856 74,856 73,857 72,857 71,857 70,857 69,857 69,858 69,859 69,860 69,861 69,862 69,863 69,864 69,865 69,866 69,867 69,868 69,869 69,870 69,871 69,872 69,873 69,874 69,875 69,876 69,877 69,878 69,879 69,880 68,881 68,882 68,883 68,884 68,885 68,886 68,887 68,888 68,889 69,890 69,891 68,892 69,893 68,894 68,895 69,896 69,897 69,898 69,899 69,900 68,901 69,902 69,903 69,904 69,905 69,906 69,907 69,908 68,909 68,910 69,911 69,912 69,913 69,914 69,915 69,916 69,917 68,918 68,919 68,920 68,921 69,922 68,923 68,924 68,925 68,926 68,927 68,928 68,929 69,930 69,931 69,932 69,933 68,934 68,935 68,936 68,937 68,938 69,939 69,940 69,941 68,942 68,943 68,944 68,945 68,946 68,947 68,948 68,949 68,950 68,951 68,952 68,953 68,954 68,955 68,956 68,957 68,958 68,959 68,960 68,961 68,962 68,963 68,964 68,965 68,966 68,967 68,968 68,969 68,970 68,971 68,972 68,973 68,974 68,975 68,976 68,977 68,978 68,979 68,980 68,981 68,982 68,983 68,984 68,985 68,986 68,987 68,988 68,989 68,990 68,991 68,992 68,993 68,994 68,995 68,996 68,997 68,998 68,999 68,1000 68,1001 68,1002 68,1003 68,1004 68,1005 68,1006 68,1007 68,1008 68,1009 68,1010 68,1011 68,1012 68,1013 68,1014 68,1015 68,1016 68,1017 68,1018 68,1019 68,1020 68,1021 68,1022 68,1023 68,1024 68,1025 68,1026 68,1027 69,1028 70,1029 71,1030 72,1031 73,1032 74,1032 75,1033 76,1034 77,1035 78,1035 79,1036 80,1036 81,1036 82,1037 83,1037 84,1038 85,1038 86,1038 87,1039 88,1039 89,1039 90,1040 91,1040 92,1040 93,1040 94,1041 95,1041 96,1041 97,1041 98,1041 99,1041 100,1041 101,1041 102,1041 103,1041 104,1042 105,1042 106,1042 107,1042 108,1041 109,1041 110,1041 111,1042 112,1041 113,1041 114,1041 115,1041 116,1041 117,1041 118,1041 119,1041 120,1041 121,1040 122,1040 123,1040 124,1039 125,1039 126,1039 127,1039 128,1038 129,1038 130,1038 131,1037 132,1037 133,1037 134,1036 135,1036 136,1036 137,1035 138,1035 139,1034 140,1034 141,1033 142,1032 143,1032 144,1031 145,1031 146,1030 147,1030 148,1029 149,1028 150,1027 151,1026 152,1026 153,1025 154,1024 155,1023 156,1022 157,1021 158,1020 159,1019 160,1018 161,1017 162,1016 162,1015 163,1014 164,1013 164,1012 165,1011 165,1010 166,1009 167,1008 167,1007 168,1006 168,1005 169,1004 169,1003 169,1002 170,1001 170,1000 171,999 171,998 172,997 172,996 172,995 173,994 173,993 173,992 174,991 174,990 174,989 175,988 175,987 175,986 175,985 176,984 176,983 176,982 177,981 177,980 177,979 177,978 177,977 177,976 178,975 178,974 178,973 178,972 178,971 178,970 179,969 179,968 179,967 179,966 179,965 179,964 179,963 180,962 180,961 180,960 180,959 180,958 180,957 180,956 180,955 180,954 180,953 180,952 180,951 180,950 180,949 180,948 181,947 181,946 181,945 181,944 181,943 181,942 181,941 181,940 181,939 181,938 181,937 181,936 181,935 181,934 181,933 182,932 182,931 182,930 182,929 182,928 183,927 184,927 185,928 186,929 187,930 186,929 186,928 186,927 185,926 185,925 184,924 184,923 184,922 183,921 183,920 183,919 183,918 183,917 183,916 183,915 183,914 183,913 183,912 183,911 183,910 183,909 183,908 183,907 183,906 183,905 183,904 183,903 183,902 183,901 183,900 183,899 183,898 182,897 182,896 182,895 182,894 182,893 182,892 182,891 182,890 182,889 182,888 181,887 181,886 181,885 181,884 180,883 180,882 180,881 180,880 179,879 179,878 179,877 178,876 178,875 178,874 177,873 177,872 176,871 176,870 176,869 175,868 175,867 174,866 173,865 173,864 172,863 171,862 170,861 169,860 168,859 167,858 166,857 165,857 164,856 163,856 162,855 161,856 160,856 159,856 158,856 157,856 156,856 155,856 154,856 153,856 152,856 151,856 150,855 149,855 148,855">
      <metadata tailDirection="" confidence="0.89" linkedToCharacter="" id="UltraEleven_021_balloon_0" tailTip=""></metadata>
    </polygon>
    <polygon points="408,854 407,855 406,856 406,857 405,858 405,859 405,860 404,861 404,862 404,863 403,864 403,865 403,866 403,867 403,868 402,869 401,870 400,869 399,868 398,868 397,867 396,867 395,867 394,866 393,866 392,865 391,865 390,865 389,864 388,864 387,864 386,863 385,863 384,863 383,862 382,862 381,862 380,861 379,861 378,861 377,861 376,861 375,860 374,860 373,860 372,860 371,860 370,860 369,860 368,860 367,860 366,860 365,860 364,860 363,860 362,860 361,860 360,860 359,860 358,860 357,860 356,861 355,861 354,861 353,861 352,861 351,861 350,862 349,862 348,862 347,862 346,863 345,863 344,863 343,864 342,864 341,865 340,865 339,866 338,866 337,867 336,867 335,868 334,869 333,869 332,870 331,871 330,872 329,873 328,873 327,874 326,875 325,876 324,877 323,878 322,879 322,880 321,881 320,882 319,883 318,884 318,885 317,886 316,887 315,888 315,889 314,890 314,891 313,892 313,893 312,894 312,895 311,896 311,897 311,898 310,899 310,900 310,901 309,902 309,903 309,904 309,905 308,906 308,907 308,908 308,909 307,910 307,911 307,912 307,913 306,914 306,915 306,916 306,917 306,918 305,919 305,920 305,921 305,922 305,923 305,924 305,925 304,926 304,927 304,928 304,929 304,930 303,931 303,932 303,933 303,934 303,935 303,936 303,937 303,938 303,939 302,940 302,941 302,942 302,943 302,944 302,945 302,946 302,947 302,948 302,949 302,950 302,951 301,952 301,953 301,954 301,955 301,956 301,957 301,958 301,959 301,960 301,961 301,962 301,963 301,964 301,965 301,966 301,967 301,968 301,969 301,970 301,971 301,972 301,973 301,974 301,975 301,976 301,977 301,978 301,979 302,980 302,981 302,982 302,983 302,984 302,985 302,986 302,987 302,988 302,989 302,990 302,991 302,992 303,993 303,994 303,995 303,996 303,997 303,998 304,999 304,1000 304,1001 304,1002 304,1003 305,1004 305,1005 305,1006 306,1007 306,1008 306,1009 306,1010 307,1011 307,1012 307,1013 308,1014 308,1015 309,1016 309,1017 309,1018 310,1019 311,1020 311,1021 311,1022 312,1023 313,1024 313,1025 314,1026 315,1027 315,1028 316,1029 317,1030 318,1031 319,1032 320,1033 321,1034 322,1035 323,1036 324,1037 325,1038 326,1038 327,1039 328,1040 329,1040 330,1041 331,1041 332,1042 333,1043 334,1043 335,1043 336,1044 337,1044 338,1044 339,1045 340,1045 341,1045 342,1045 343,1045 344,1045 345,1046 346,1046 347,1046 348,1046 349,1046 350,1046 351,1046 352,1046 353,1046 354,1046 355,1046 356,1047 356,1048 357,1049 358,1048 359,1047 360,1046 361,1045 362,1046 363,1046 364,1045 365,1045 366,1045 367,1045 368,1045 369,1045 370,1044 371,1044 372,1044 373,1044 374,1044 375,1044 376,1044 377,1043 378,1043 379,1043 380,1043 381,1043 382,1042 383,1042 384,1042 385,1042 386,1042 387,1041 388,1041 389,1041 390,1040 391,1040 392,1040 393,1039 394,1039 395,1038 396,1038 397,1037 398,1036 399,1035 400,1034 401,1033 402,1032 402,1031 403,1030 403,1029 404,1028 405,1027 405,1026 406,1025 407,1024 407,1023 407,1022 408,1021 408,1020 409,1019 409,1018 409,1017 410,1016 410,1015 410,1014 411,1013 411,1012 411,1011 412,1010 412,1009 412,1008 413,1007 413,1006 413,1005 413,1004 413,1003 414,1002 414,1001 414,1000 414,999 414,998 415,997 415,996 415,995 415,994 416,993 416,992 416,991 416,990 416,989 416,988 416,987 417,986 417,985 417,984 417,983 417,982 417,981 417,980 417,979 418,978 418,977 418,976 418,975 418,974 418,973 418,972 418,971 419,970 419,969 419,968 419,967 419,966 419,965 419,964 419,963 419,962 419,961 419,960 419,959 419,958 419,957 419,956 419,955 419,954 420,953 420,952 420,951 420,950 420,949 420,948 420,947 421,946 420,945 420,944 421,943 422,943 423,943 424,944 425,945 426,945 427,945 428,946 429,946 430,946 431,946 432,947 433,947 434,947 435,947 436,947 437,947 438,947 439,947 440,947 441,947 442,947 443,946 444,946 445,946 446,945 447,945 448,944 449,944 450,943 451,942 452,941 453,940 453,939 454,938 454,937 454,936 455,935 456,934 456,933 456,932 456,931 456,930 455,929 455,928 455,927 455,926 455,925 455,924 455,923 455,922 455,921 455,920 455,919 455,918 455,917 455,916 455,915 455,914 455,913 455,912 455,911 455,910 455,909 455,908 455,907 455,906 455,905 455,904 455,903 455,902 455,901 455,900 455,899 455,898 455,897 455,896 455,895 455,894 455,893 455,892 455,891 455,890 455,889 455,888 455,887 455,886 455,885 455,884 455,883 455,882 455,881 455,880 455,879 455,878 455,877 455,876 455,875 455,874 455,873 455,872 455,871 455,870 455,869 455,868 455,867 455,866 455,865 455,864 455,863 455,862 455,861 455,860 455,859 455,858 455,857 455,856 455,855 455,854 454,854 453,854 452,854 451,854 450,854 449,854 448,854 447,854 446,854 445,854 444,854 443,854 442,854 441,854 440,854 439,854 438,854 437,854 436,854 435,854 434,854 433,854 432,854 431,854 430,854 429,854 428,854 427,854 426,854 425,854 424,854 423,854 422,854 421,854 420,854 419,854 418,854 417,854 416,854 415,854 414,854 413,854 412,854 411,854 410,854 409,854 408,854">
      <metadata tailDirection="" confidence="0.87" linkedToCharacter="" id="UltraEleven_021_balloon_1" tailTip=""></metadata>
    </polygon>
    <polygon points="462,1 461,2 460,3 459,4 458,5 457,6 456,7 455,8 454,9 453,10 452,11 451,12 450,13 449,14 448,14 447,15 446,16 445,17 444,18 443,19 442,19 441,20 440,21 439,21 438,22 437,23 436,23 435,24 434,25 433,26 432,26 431,27 430,27 429,27 428,28 427,28 426,28 425,28 424,28 423,28 422,28 421,27 420,26 419,25 419,24 419,23 418,23 417,24 416,25 415,26 414,26 413,27 412,28 411,28 410,29 409,29 408,30 407,30 406,30 405,30 404,30 403,30 402,29 401,28 400,27 399,26 399,25 399,24 399,23 399,22 399,21 399,20 399,19 399,18 398,19 398,20 397,21 396,22 395,23 394,24 394,25 393,26 392,27 391,28 390,29 389,30 388,31 387,32 386,33 385,34 384,34 383,35 382,36 381,36 380,37 379,38 378,38 377,39 376,39 375,40 374,40 373,41 372,41 371,42 370,42 369,43 368,43 367,43 366,43 365,43 364,43 363,43 362,43 361,43 360,42 359,42 358,42 357,41 357,42 357,43 357,44 357,45 357,46 357,47 357,48 357,49 356,50 356,51 356,52 356,53 355,54 355,55 354,56 354,57 354,58 353,59 353,60 352,61 352,62 351,63 351,64 350,65 350,66 349,67 349,68 348,69 348,70 347,71 346,72 346,73 345,74 345,75 344,76 344,77 343,78 342,79 341,80 341,81 340,82 339,83 339,84 338,85 337,86 336,87 336,88 337,88 338,88 339,89 340,89 341,89 342,90 343,91 344,92 345,93 346,94 347,95 348,96 348,97 349,98 349,99 349,100 349,101 349,102 350,103 350,104 350,105 349,106 349,107 349,108 349,109 349,110 349,111 349,112 349,113 348,114 348,115 348,116 348,117 348,118 347,119 347,120 347,121 346,122 346,123 345,124 345,125 344,126 344,127 344,128 343,129 343,130 342,131 342,132 343,132 344,131 345,131 346,131 347,131 348,131 349,131 350,132 351,132 352,132 353,133 354,133 355,134 356,134 357,135 357,136 358,137 359,138 360,139 360,140 360,141 360,142 360,143 361,144 361,145 360,146 360,147 360,148 360,149 360,150 360,151 360,152 359,153 359,154 359,155 359,156 358,157 358,158 358,159 357,160 357,161 356,162 356,163 355,164 355,165 354,166 354,167 353,168 353,169 354,169 355,169 356,169 357,169 358,169 359,169 360,170 361,171 362,172 363,173 364,174 364,175 365,176 365,177 366,178 366,179 366,180 366,181 367,182 367,183 367,184 367,185 367,186 367,187 367,188 367,189 367,190 367,191 367,192 367,193 367,194 367,195 367,196 366,197 366,198 366,199 366,200 366,201 366,202 366,203 365,204 365,205 364,206 364,207 364,208 363,209 363,210 364,209 365,208 366,208 367,207 368,207 369,206 370,206 371,205 372,205 373,204 374,204 375,204 376,204 377,204 378,203 379,203 380,203 381,202 382,202 383,202 384,202 385,202 386,202 387,202 388,202 389,202 390,202 391,202 392,203 393,203 394,203 395,204 396,204 397,205 398,205 399,206 400,207 401,208 402,209 403,210 403,211 404,212 405,213 405,214 405,215 406,216 406,217 406,218 407,219 407,220 407,221 407,220 407,219 408,218 409,217 410,216 410,215 411,214 412,213 412,212 413,211 414,210 415,209 416,208 417,207 418,206 419,205 420,204 421,203 422,202 423,201 424,200 425,200 426,199 427,198 428,197 429,196 430,196 431,195 432,194 433,193 434,193 435,192 436,191 437,191 438,190 439,189 440,189 441,188 442,187 443,187 444,186 445,186 446,185 447,185 448,184 449,184 450,183 451,182 452,182 453,182 454,181 455,181 456,180 457,180 458,180 459,179 460,179 461,179 462,178 463,178 464,178 465,178 465,177 465,176 466,175 467,174 467,173 468,172 468,171 469,170 470,169 471,168 472,167 473,166 474,165 475,164 476,163 477,162 478,162 479,161 480,160 481,159 482,159 483,158 484,157 485,157 486,156 487,156 488,155 489,155 490,154 491,154 492,153 493,153 494,152 495,152 496,151 497,151 498,150 499,150 499,149 499,148 499,147 498,146 498,145 497,144 496,143 496,142 495,141 494,140 494,139 494,138 493,137 493,136 493,135 493,134 493,133 493,132 493,131 493,130 493,129 493,128 493,127 494,126 494,125 494,124 495,123 495,122 495,121 496,120 496,119 495,119 494,118 493,117 493,116 492,115 492,114 491,113 491,112 491,111 490,110 490,109 490,108 490,107 490,106 490,105 490,104 490,103 490,102 490,101 491,100 491,99 491,98 492,97 492,96 492,95 493,94 493,93 493,92 494,91 493,90 492,89 491,88 491,87 490,86 489,85 489,84 489,83 488,82 488,81 487,80 487,79 487,78 487,77 487,76 487,75 487,74 487,73 487,72 486,71 486,70 486,69 486,68 486,67 486,66 486,65 487,64 487,63 487,62 487,61 487,60 487,59 488,58 488,57 488,56 488,55 488,54 489,53 489,52 489,51 490,50 490,49 490,48 490,47 491,46 492,45 492,44 492,43 493,42 493,41 493,40 494,39 494,38 493,38 492,38 491,39 490,39 489,39 488,39 487,39 486,39 485,39 484,38 483,38 482,38 481,37 480,37 479,37 478,36 477,36 476,35 475,34 474,33 473,33 472,32 471,31 470,30 469,29 469,28 468,27 468,26 467,25 466,24 466,23 466,22 466,21 465,20 465,19 465,18 465,17 464,16 464,15 464,14 464,13 464,12 464,11 464,10 463,9 464,8 464,7 464,6 464,5 464,4 464,3 464,2 465,1 464,1 463,1 462,1">
      <metadata tailDirection="" confidence="0.81" linkedToCharacter="" id="UltraEleven_021_balloon_2" tailTip=""></metadata>
    </polygon>
    <polygon points="382,358 381,359 380,359 379,359 378,359 377,359 376,359 375,359 374,359 373,359 372,359 371,359 370,359 369,359 368,359 367,359 366,359 365,359 364,359 363,359 362,359 361,359 360,359 359,359 358,359 357,359 356,359 355,359 354,359 353,359 352,359 351,359 350,359 349,359 348,359 347,359 346,359 345,359 344,359 343,359 342,359 341,359 340,359 339,359 338,359 337,359 336,359 335,359 335,360 335,361 334,362 333,363 333,364 332,365 331,366 330,367 329,368 328,369 327,370 326,371 325,372 324,373 323,374 322,375 321,376 320,377 319,378 318,379 317,380 316,381 315,382 315,383 315,384 315,385 315,386 314,387 314,388 314,389 314,390 314,391 314,392 314,393 314,394 314,395 314,396 314,397 314,398 314,399 314,400 314,401 314,402 314,403 314,404 314,405 314,406 314,407 314,408 314,409 314,410 313,411 313,412 313,413 313,414 313,415 313,416 313,417 313,418 313,419 312,420 312,421 312,422 312,423 312,424 311,425 311,426 311,427 311,428 311,429 311,430 311,431 311,432 311,433 310,434 310,435 310,436 310,437 310,438 310,439 310,440 310,441 310,442 310,443 310,444 311,445 311,446 311,447 311,448 312,449 313,450 314,450 315,451 316,451 317,452 318,452 319,453 320,454 321,455 322,456 323,457 323,458 323,459 323,460 324,461 323,462 323,463 323,464 323,465 322,466 321,467 321,468 320,469 320,470 320,471 320,472 321,473 321,474 321,475 322,476 322,477 323,478 324,479 324,480 325,481 326,482 327,483 328,484 328,485 329,486 330,487 331,488 332,489 333,490 334,490 335,491 336,492 337,493 338,493 339,494 340,494 341,494 342,494 343,494 344,494 345,494 346,494 347,493 348,493 349,493 350,492 351,492 352,492 353,492 354,491 355,491 356,491 357,492 358,492 359,493 360,494 360,495 360,496 360,497 360,498 360,499 360,500 361,501 361,502 361,503 360,504 360,505 360,506 361,505 361,504 362,503 362,502 363,501 364,500 364,499 364,498 363,498 362,498 361,497 361,496 362,495 363,494 364,493 365,493 366,494 367,494 368,495 369,496 370,497 371,497 372,498 373,499 374,499 375,500 376,500 377,500 378,500 379,500 380,499 381,499 382,499 383,499 384,498 385,498 386,498 387,497 388,497 389,497 390,496 391,496 392,495 393,495 394,494 395,493 396,493 397,492 398,491 398,490 399,489 399,488 400,487 400,486 400,485 400,484 400,483 400,482 400,481 400,480 400,479 400,478 400,477 400,476 400,475 400,474 400,473 400,472 400,471 400,470 400,469 400,468 400,467 400,466 400,465 400,464 400,463 400,462 400,461 400,460 400,459 400,458 400,457 400,456 400,455 400,454 400,453 400,452 400,451 400,450 400,449 400,448 400,447 400,446 400,445 400,444 400,443 400,442 400,441 400,440 400,439 400,438 400,437 400,436 400,435 400,434 400,433 400,432 400,431 400,430 400,429 400,428 400,427 400,426 400,425 400,424 399,423 400,422 400,421 400,420 400,419 400,418 399,417 399,416 400,415 400,414 399,413 399,412 400,411 399,410 400,409 400,408 399,407 399,406 400,405 399,404 399,403 400,402 400,401 399,400 399,399 399,398 399,397 399,396 399,395 399,394 399,393 399,392 399,391 399,390 399,389 399,388 399,387 399,386 399,385 399,384 399,383 399,382 399,381 399,380 399,379 399,378 399,377 399,376 399,375 399,374 399,373 399,372 399,371 399,370 399,369 399,368 399,367 399,366 399,365 399,364 399,363 399,362 399,361 399,360 399,359 399,358 398,358 397,358 396,358 395,358 394,358 393,358 392,358 391,358 390,358 389,358 388,358 387,358 386,358 385,358 384,358 383,358 382,358">
      <metadata tailDirection="" confidence="0.82" linkedToCharacter="" id="UltraEleven_021_balloon_3" tailTip=""></metadata>
    </polygon>
    <polygon points="429,357 428,358 427,358 426,358 425,358 424,358 423,358 422,358 421,358 420,358 419,358 418,358 417,358 416,358 415,358 414,358 413,358 412,358 412,359 412,360 412,361 412,362 412,363 412,364 412,365 412,366 412,367 412,368 412,369 412,370 412,371 412,372 412,373 412,374 412,375 412,376 412,377 412,378 412,379 412,380 412,381 412,382 412,383 412,384 412,385 412,386 412,387 412,388 412,389 412,390 412,391 412,392 412,393 412,394 412,395 412,396 412,397 412,398 412,399 412,400 412,401 412,402 412,403 412,404 412,405 412,406 412,407 412,408 412,409 412,410 412,411 412,412 412,413 412,414 412,415 412,416 412,417 412,418 412,419 412,420 412,421 412,422 412,423 412,424 412,425 413,426 413,427 412,428 412,429 412,430 412,431 412,432 412,433 412,434 412,435 412,436 412,437 412,438 413,439 412,440 412,441 412,442 412,443 412,444 412,445 412,446 412,447 412,448 413,449 413,450 413,451 414,452 414,453 415,454 415,455 416,456 416,457 416,458 417,459 417,460 417,461 418,462 419,463 419,464 419,465 420,466 421,467 422,467 423,468 424,468 425,469 426,469 427,469 428,470 429,470 430,470 431,471 432,472 432,473 431,474 430,475 429,475 428,476 427,477 426,477 425,478 424,479 423,480 422,481 421,482 420,483 419,484 418,485 417,486 417,487 416,488 416,489 416,490 415,491 415,492 415,493 415,494 415,495 415,496 415,497 415,498 414,499 414,500 414,501 414,502 414,503 414,504 414,505 414,506 414,507 414,508 414,509 414,510 414,511 413,512 413,513 413,514 413,515 413,516 413,517 413,518 413,519 413,520 413,521 413,522 413,523 413,524 413,525 413,526 413,527 413,528 413,529 413,530 414,531 414,532 415,533 415,534 416,535 417,536 418,537 419,538 419,539 420,540 421,541 422,542 423,543 424,544 425,544 426,545 427,546 428,546 429,546 430,546 431,546 432,547 433,547 434,547 435,547 436,547 437,547 438,547 439,547 440,547 441,547 442,547 443,547 444,547 445,547 446,546 447,545 448,545 449,545 450,546 451,546 452,547 453,548 454,549 454,548 454,547 454,546 454,545 455,544 456,543 457,542 458,541 459,541 460,540 461,539 462,539 463,539 464,538 465,538 466,537 467,536 468,535 469,534 469,533 469,532 470,531 470,530 470,529 470,528 470,527 470,526 470,525 470,524 470,523 470,522 470,521 470,520 470,519 471,518 471,517 471,516 471,515 471,514 471,513 471,512 471,511 471,510 471,509 471,508 471,507 471,506 471,505 471,504 471,503 471,502 471,501 471,500 471,499 471,498 471,497 470,496 470,495 470,494 470,493 470,492 470,491 470,490 470,489 470,488 469,487 469,486 468,485 467,484 467,483 466,482 465,481 464,481 463,480 462,479 461,479 460,478 459,477 458,477 457,476 457,475 458,474 459,474 460,474 461,473 462,473 463,473 464,473 465,472 466,472 467,472 468,472 469,471 470,471 471,471 472,470 473,470 474,470 475,470 476,469 477,469 478,469 479,469 480,469 481,468 482,468 483,468 484,467 485,467 486,467 487,466 488,466 489,465 490,464 491,463 492,463 493,462 494,461 495,460 496,460 497,459 498,458 499,457 500,456 501,455 502,454 503,453 504,452 505,451 506,450 507,449 508,448 509,447 510,446 511,445 512,444 513,443 513,442 514,441 515,440 515,439 516,438 516,437 516,436 517,435 517,434 517,433 518,432 518,431 518,430 518,429 518,428 518,427 518,426 518,425 518,424 518,423 518,422 518,421 518,420 518,419 518,418 518,417 518,416 518,415 518,414 518,413 518,412 518,411 518,410 518,409 518,408 518,407 518,406 518,405 518,404 517,403 517,402 517,401 517,400 517,399 517,398 517,397 517,396 517,395 517,394 516,393 516,392 516,391 516,390 516,389 516,388 516,387 516,386 515,385 515,384 515,383 515,382 515,381 514,380 514,379 514,378 514,377 513,376 513,375 513,374 512,373 511,372 511,371 510,370 510,369 509,368 508,367 507,366 506,365 505,365 504,364 503,364 502,364 501,363 500,363 499,363 498,362 497,362 496,361 495,361 494,360 493,360 492,360 491,359 490,359 489,358 488,358 487,358 486,357 485,357 484,357 483,357 482,357 481,357 480,357 479,357 478,357 477,357 476,357 475,357 474,357 473,357 472,357 471,357 470,357 469,357 468,357 467,357 466,357 465,357 464,357 463,357 462,357 461,357 460,357 459,357 458,357 457,357 456,357 455,357 454,357 453,357 452,357 451,357 450,357 449,357 448,357 447,357 446,357 445,357 444,357 443,357 442,357 441,357 440,357 439,357 438,357 437,357 436,357 435,357 434,357 433,358 432,358 431,358 430,357 429,357">
      <metadata tailDirection="" confidence="0.97" linkedToCharacter="" id="UltraEleven_021_balloon_4" tailTip=""></metadata>
    </polygon>
    <polygon points="704,353 703,354 702,354 701,354 700,354 699,354 698,354 697,354 696,354 695,354 694,354 693,354 692,354 691,354 690,354 689,354 688,354 687,354 686,354 685,354 684,354 683,354 682,354 681,354 680,354 679,354 678,354 677,354 676,354 675,354 674,354 673,354 672,354 671,354 670,354 669,354 668,354 667,355 666,356 665,357 664,358 663,359 662,360 661,361 660,362 659,363 658,364 658,365 657,366 656,367 655,368 655,369 654,370 654,371 653,372 653,373 653,374 652,375 652,376 652,377 651,378 651,379 651,380 650,381 650,382 650,383 649,384 649,385 649,386 649,387 649,388 648,389 648,390 648,391 648,392 648,393 647,394 647,395 647,396 647,397 647,398 646,399 646,400 646,401 646,402 646,403 646,404 645,405 645,406 645,407 645,408 645,409 645,410 645,411 644,412 644,413 644,414 644,415 644,416 644,417 644,418 644,419 644,420 644,421 644,422 644,423 644,424 644,425 644,426 644,427 644,428 644,429 644,430 644,431 644,432 644,433 644,434 644,435 644,436 644,437 644,438 644,439 644,440 644,441 644,442 644,443 644,444 644,445 644,446 645,447 645,448 645,449 645,450 645,451 645,452 645,453 645,454 645,455 645,456 645,457 645,458 645,459 645,460 645,461 645,462 645,463 645,464 646,465 646,466 646,467 646,468 646,469 646,470 646,471 646,472 646,473 646,474 646,475 647,476 647,477 647,478 647,479 647,480 647,481 647,482 647,483 647,484 647,485 647,486 647,487 647,488 647,489 647,490 647,491 647,492 647,493 647,494 647,495 648,496 648,497 648,498 648,499 648,500 648,501 648,502 648,503 648,504 648,505 648,506 648,507 649,508 649,509 649,510 649,511 649,512 649,513 649,514 649,515 649,516 650,517 650,518 650,519 650,520 650,521 650,522 651,523 651,524 651,525 651,526 651,527 652,528 652,529 653,530 654,531 655,532 656,533 656,534 657,534 658,535 659,536 660,537 661,538 662,539 663,540 664,541 665,541 666,542 667,543 668,544 669,544 670,545 671,546 672,547 673,548 674,549 675,550 676,550 677,550 678,551 679,552 680,553 681,554 682,554 683,555 684,556 685,556 686,557 687,557 688,558 689,558 690,559 691,559 692,559 693,559 694,559 695,559 696,559 697,559 698,559 699,559 700,559 701,559 702,559 703,559 704,559 705,559 706,559 707,559 708,559 709,559 710,560 711,561 712,562 712,563 712,564 712,565 712,566 713,565 714,564 714,563 715,562 715,561 715,560 716,559 717,558 718,558 719,558 720,558 721,558 722,558 723,558 724,558 725,558 726,558 727,558 728,558 729,558 730,558 731,558 732,558 733,558 734,558 735,558 736,558 737,558 738,557 739,557 740,557 741,557 742,556 743,556 744,555 745,555 746,554 747,554 748,553 749,552 750,552 751,551 752,550 753,550 753,549 754,548 753,547 753,546 753,545 753,544 753,543 753,542 753,541 753,540 753,539 753,538 753,537 753,536 753,535 753,534 753,533 753,532 753,531 753,530 753,529 753,528 753,527 753,526 753,525 753,524 753,523 753,522 753,521 753,520 753,519 753,518 753,517 753,516 753,515 753,514 753,513 753,512 753,511 753,510 753,509 753,508 753,507 753,506 753,505 753,504 753,503 753,502 753,501 753,500 753,499 753,498 753,497 753,496 753,495 753,494 753,493 753,492 753,491 753,490 753,489 753,488 753,487 753,486 753,485 753,484 753,483 753,482 753,481 753,480 753,479 753,478 753,477 753,476 753,475 753,474 753,473 753,472 753,471 753,470 753,469 753,468 753,467 753,466 753,465 753,464 753,463 753,462 753,461 753,460 753,459 753,458 753,457 753,456 753,455 753,454 753,453 753,452 753,451 753,450 753,449 753,448 753,447 753,446 753,445 753,444 753,443 753,442 753,441 753,440 753,439 753,438 753,437 753,436 753,435 753,434 753,433 753,432 753,431 753,430 753,429 753,428 753,427 753,426 753,425 753,424 753,423 753,422 753,421 753,420 753,419 753,418 753,417 753,416 753,415 753,414 753,413 753,412 753,411 753,410 753,409 753,408 753,407 753,406 753,405 753,404 752,403 752,402 752,401 752,400 752,399 752,398 752,397 752,396 752,395 752,394 752,393 752,392 752,391 752,390 753,389 752,388 752,387 752,386 753,385 753,384 753,383 753,382 753,381 753,380 753,379 753,378 753,377 753,376 753,375 753,374 753,373 753,372 752,371 752,370 752,369 752,368 752,367 752,366 752,365 752,364 752,363 752,362 752,361 752,360 752,359 752,358 752,357 752,356 752,355 752,354 752,353 751,353 750,353 749,353 748,353 747,353 746,353 745,353 744,353 743,353 742,353 741,353 740,353 739,353 738,353 737,353 736,353 735,353 734,353 733,353 732,353 731,353 730,353 729,353 728,353 727,353 726,353 725,353 724,353 723,353 722,353 721,353 720,353 719,353 718,353 717,353 716,353 715,353 714,353 713,353 712,353 711,353 710,353 709,353 708,353 707,353 706,353 705,353 704,353">
      <metadata tailDirection="" confidence="0.82" linkedToCharacter="" id="UltraEleven_021_balloon_5" tailTip=""></metadata>
    </polygon>
    <polygon points="697,67 696,68 695,68 694,68 693,68 692,68 691,68 690,68 689,68 688,68 687,68 686,68 685,68 684,68 683,68 682,68 681,68 680,68 679,68 678,68 677,68 676,68 675,68 674,68 673,68 672,68 671,68 670,68 669,68 668,68 667,68 666,68 665,68 664,68 663,68 662,68 661,68 660,68 659,68 658,68 657,68 656,68 655,68 654,68 653,68 652,68 651,68 650,68 649,68 648,68 647,68 646,68 645,68 644,68 643,68 642,68 641,68 640,68 639,68 638,68 637,69 636,70 635,71 634,72 633,73 632,74 631,75 630,76 629,77 628,78 627,79 626,80 626,81 625,82 624,83 624,84 623,85 622,86 621,87 621,88 621,89 620,90 619,91 619,92 619,93 618,94 618,95 617,96 617,97 617,98 616,99 616,100 616,101 616,102 615,103 615,104 615,105 615,106 615,107 615,108 614,109 614,110 614,111 614,112 614,113 614,114 614,115 614,116 614,117 614,118 614,119 614,120 614,121 615,122 615,123 615,124 615,125 615,126 615,127 615,128 615,129 615,130 615,131 615,132 615,133 615,134 615,135 615,136 615,137 615,138 615,139 615,140 615,141 615,142 615,143 616,144 616,145 616,146 616,147 616,148 616,149 616,150 616,151 616,152 616,153 616,154 616,155 616,156 616,157 616,158 616,159 617,160 617,161 617,162 617,163 617,164 617,165 617,166 617,167 617,168 617,169 617,170 617,171 617,172 617,173 617,174 617,175 617,176 617,177 617,178 617,179 617,180 617,181 617,182 617,183 617,184 617,185 617,186 617,187 617,188 617,189 617,190 617,191 617,192 617,193 618,194 618,195 618,196 618,197 618,198 618,199 618,200 618,201 618,202 619,203 619,204 619,205 619,206 620,207 620,208 620,209 621,210 621,211 622,212 622,213 623,214 623,215 624,216 624,217 625,218 626,219 627,220 628,221 629,222 630,223 631,223 632,223 633,224 634,224 635,224 636,224 637,225 638,225 639,225 640,225 641,226 642,226 643,227 644,228 644,229 645,230 645,231 645,232 645,233 645,234 644,235 645,235 646,235 647,235 648,235 649,235 650,236 651,236 652,237 653,237 654,238 655,239 656,240 657,241 658,242 659,243 660,243 661,244 662,244 663,245 664,245 665,245 666,245 667,246 668,246 669,246 670,246 671,246 672,247 673,247 674,247 675,247 676,247 677,247 678,247 679,247 680,247 681,247 682,247 683,247 684,247 685,248 686,248 687,248 688,248 689,248 690,248 691,248 692,248 693,248 694,248 695,248 696,248 697,248 698,248 699,248 700,248 701,248 702,247 703,247 704,248 705,248 706,248 707,248 708,248 709,248 710,248 711,248 712,248 713,248 714,248 715,248 716,248 717,248 718,248 719,248 720,248 721,248 722,248 723,248 724,247 725,247 726,247 727,247 728,247 729,247 730,247 731,246 732,246 733,246 734,246 735,245 736,245 737,244 738,244 739,243 740,243 741,242 742,241 743,241 744,240 745,239 746,238 747,237 748,236 749,235 750,234 750,233 751,232 752,231 752,230 752,229 752,228 752,227 752,226 752,225 752,224 752,223 752,222 752,221 752,220 752,219 752,218 752,217 752,216 752,215 752,214 752,213 752,212 752,211 752,210 752,209 752,208 752,207 752,206 752,205 752,204 752,203 752,202 752,201 752,200 752,199 752,198 752,197 752,196 752,195 752,194 752,193 752,192 752,191 752,190 751,189 751,188 751,187 751,186 751,185 751,184 751,183 751,182 751,181 751,180 751,179 751,178 751,177 751,176 751,175 751,174 751,173 751,172 751,171 751,170 751,169 751,168 751,167 751,166 751,165 751,164 751,163 751,162 751,161 751,160 751,159 751,158 751,157 751,156 751,155 751,154 751,153 751,152 751,151 751,150 751,149 751,148 751,147 751,146 751,145 751,144 751,143 751,142 751,141 751,140 751,139 751,138 751,137 751,136 751,135 751,134 751,133 751,132 751,131 751,130 751,129 751,128 751,127 751,126 751,125 751,124 751,123 751,122 751,121 751,120 751,119 751,118 751,117 751,116 751,115 751,114 751,113 751,112 750,111 750,110 750,109 750,108 750,107 750,106 750,105 751,104 751,103 751,102 750,101 750,100 750,99 750,98 750,97 750,96 750,95 750,94 750,93 750,92 750,91 750,90 750,89 750,88 750,87 750,86 750,85 750,84 750,83 750,82 750,81 750,80 750,79 750,78 750,77 750,76 750,75 750,74 750,73 750,72 750,71 750,70 750,69 750,68 750,67 749,67 748,67 747,67 746,67 745,67 744,67 743,67 742,67 741,67 740,67 739,67 738,67 737,67 736,67 735,67 734,67 733,67 732,67 731,67 730,67 729,67 728,67 727,67 726,67 725,67 724,67 723,67 722,67 721,67 720,67 719,67 718,67 717,67 716,67 715,67 714,67 713,67 712,67 711,67 710,67 709,67 708,67 707,67 706,67 705,67 704,67 703,67 702,67 701,67 700,67 699,67 698,67 697,67">
      <metadata tailDirection="" confidence="0.86" linkedToCharacter="" id="UltraEleven_021_balloon_6" tailTip=""></metadata>
    </polygon>
  </svg>
</svg>
