<?xml version="1.0" encoding="UTF-8" standalone="no"?>
<svg width="827" xmlns="http://www.w3.org/2000/svg" version="1.0" height="1170">
  <title>UltraEleven_221</title>
  <svg contentScriptType="text/ecmascript" zoomAndPan="magnify" contentStyleType="text/css" class="Page" preserveAspectRatio="xMidYMid meet" version="1.0">
    <image xmlns:xlink="http://www.w3.org/1999/xlink" x="0" y="0" width="827" height="1170" xlink:href="./../../dataset_Manga109/UltraEleven/UltraEleven_221.jpg" xlink:type="simple" xlink:actuate="onLoad" preserveAspectRatio="xMidYMid meet" xlink:show="embed"/>
  </svg>
  <style type="text/css" xml:space="preserve">
        * { stroke-linejoin: round; }
        .Unclassified   { fill: orange; stroke: none;   opacity: 1.0; visibility: hidden; }
        .Noise          { fill: pink;   stroke: none;   opacity: 0.2; visibility: hidden; }
        .Panel          { fill: none;   stroke: red;    stroke-width:3; opacity: 0.5; visibility: visible; image-rendering: optimizeSpeed; }
        .Line           { fill: green;  stroke: none;   opacity: 0.5; visibility: visible; image-rendering: optimizeSpeed; }
        .TextArea       { fill: grey;   stroke: none;   opacity: 0.2; visibility: visible; image-rendering: optimizeSpeed; }
        .Balloon        { fill: cyan;   stroke: none;   opacity: 0.5; visibility: visible; image-rendering: optimizeSpeed; }
        .Letter         { fill: blue;   stroke: none;   opacity: 0.2; visibility: hidden; }
        .Object, .Character, .Face  { fill: yellow; stroke: none;   opacity: 0.5; visibility: visible; image-rendering: optimizeSpeed; }
        .Page           { fill: white;  stroke: none;    opacity: 0.5; visibility: visible; }
        .linkSBSC { fill: blue; stroke: none; opacity: 1.0; visibility: visible; }
        polygon:hover { opacity:1.0; stroke:red; }
</style>
  <svg xmlns="http://www.w3.org/2000/svg" contentScriptType="text/ecmascript" zoomAndPan="magnify" contentStyleType="text/css" class="Balloon" preserveAspectRatio="xMidYMid meet" version="1.0">
    <polygon points="145,949 144,950 143,951 142,951 141,951 140,952 139,952 138,952 137,953 136,953 135,953 134,954 133,954 132,954 131,954 130,954 129,954 128,955 127,955 126,955 125,955 124,955 123,955 122,955 121,955 120,955 119,955 118,955 117,955 116,955 115,955 114,955 113,954 112,954 111,954 110,954 109,954 108,953 107,953 106,953 105,953 104,953 103,953 102,954 101,955 100,956 99,957 98,958 97,959 96,960 95,961 95,962 94,963 93,964 92,965 91,966 91,967 90,968 89,969 89,970 89,971 90,972 90,973 90,974 91,975 91,976 91,977 91,978 90,979 89,980 88,981 88,982 87,983 86,984 85,985 84,986 84,987 83,988 84,989 84,990 84,991 84,992 84,993 84,994 84,995 84,996 84,997 84,998 84,999 84,1000 84,1001 84,1002 84,1003 84,1004 84,1005 84,1006 84,1007 84,1008 83,1009 83,1010 83,1011 83,1012 83,1013 83,1014 83,1015 83,1016 83,1017 83,1018 83,1019 83,1020 83,1021 83,1022 83,1023 83,1024 83,1025 83,1026 83,1027 83,1028 83,1029 83,1030 82,1031 82,1032 82,1033 81,1034 80,1034 79,1033 79,1032 78,1032 78,1033 78,1034 78,1035 78,1036 78,1037 78,1038 78,1039 78,1040 78,1041 78,1042 78,1043 78,1044 78,1045 78,1046 78,1047 78,1048 79,1047 80,1048 81,1049 81,1050 81,1051 80,1052 80,1053 80,1054 80,1055 80,1056 80,1057 80,1058 80,1059 80,1060 81,1061 81,1062 81,1063 81,1064 82,1065 82,1066 83,1067 84,1068 85,1069 86,1070 87,1071 88,1072 89,1073 90,1073 91,1074 92,1075 93,1075 94,1076 95,1076 96,1077 97,1077 98,1078 99,1078 100,1079 101,1079 102,1080 103,1081 104,1081 105,1082 106,1082 107,1082 108,1083 109,1083 110,1083 111,1083 112,1084 113,1084 114,1084 115,1084 116,1084 117,1085 118,1085 119,1085 120,1085 121,1085 122,1085 123,1085 124,1085 125,1085 126,1085 127,1085 128,1085 129,1085 130,1085 131,1085 132,1085 133,1085 134,1085 135,1085 136,1084 137,1084 138,1084 139,1084 140,1084 141,1084 142,1084 143,1083 144,1083 145,1083 146,1083 147,1083 148,1082 149,1082 150,1082 151,1082 152,1082 153,1081 154,1081 155,1081 156,1081 157,1080 158,1080 159,1080 160,1080 161,1080 162,1079 163,1079 164,1079 165,1079 166,1079 167,1078 168,1078 169,1078 170,1077 171,1077 172,1076 173,1076 174,1076 175,1075 176,1075 177,1074 178,1074 179,1073 180,1072 181,1072 182,1072 183,1071 184,1070 185,1069 186,1068 187,1068 188,1067 189,1066 190,1065 191,1064 192,1063 193,1062 194,1061 195,1060 196,1059 197,1058 198,1057 199,1056 200,1055 201,1054 201,1053 202,1052 203,1051 203,1050 204,1049 204,1048 204,1047 205,1046 205,1045 205,1044 205,1043 205,1042 205,1041 205,1040 205,1039 205,1038 205,1037 205,1036 205,1035 205,1034 205,1033 205,1032 205,1031 204,1030 204,1029 204,1028 203,1028 202,1027 201,1027 200,1026 199,1025 198,1024 197,1023 196,1022 195,1021 194,1020 194,1019 193,1018 192,1017 191,1016 191,1015 190,1014 190,1013 189,1012 188,1011 188,1010 187,1009 187,1008 186,1007 186,1006 185,1005 185,1004 184,1003 184,1002 184,1001 183,1000 183,999 183,998 183,997 182,996 182,995 182,994 182,993 182,992 181,991 181,990 181,989 180,988 180,987 180,986 180,985 180,984 179,983 179,982 178,981 178,980 178,979 178,978 177,977 177,976 176,975 175,974 174,973 173,972 172,971 171,971 170,970 169,969 168,968 167,968 166,967 166,966 165,965 165,964 165,963 165,962 164,961 164,960 163,959 162,958 161,957 160,957 159,956 158,955 157,954 156,953 155,953 154,952 153,952 152,951 151,951 150,950 149,950 148,950 147,949 146,949 145,949">
      <metadata tailDirection="" confidence="0.82" linkedToCharacter="" id="UltraEleven_221_balloon_0" tailTip=""></metadata>
    </polygon>
    <polygon points="682,76 682,77 682,78 682,79 682,80 682,81 682,82 682,83 681,84 680,84 679,85 678,85 678,86 679,87 679,88 679,89 679,90 678,91 677,92 677,93 677,94 677,95 677,96 677,97 676,98 676,99 675,100 674,101 673,101 672,102 671,102 670,103 669,103 668,104 669,104 670,105 671,105 672,106 673,107 674,108 675,109 675,110 675,111 675,112 675,113 674,114 674,115 673,116 672,117 673,118 674,119 674,120 674,121 674,122 673,123 673,124 673,125 673,126 673,127 673,128 673,129 673,130 672,131 671,132 671,133 670,134 669,135 668,136 667,136 666,137 665,138 664,138 663,139 662,140 661,140 660,141 659,142 658,142 659,142 660,142 661,142 662,143 663,143 664,143 665,144 666,144 667,145 668,145 669,146 669,147 670,148 670,149 670,150 669,151 669,152 668,153 668,154 667,155 668,155 669,155 670,155 671,156 672,157 673,158 673,159 673,160 673,161 673,162 674,162 675,162 676,162 677,163 678,164 679,165 679,166 680,167 680,168 680,169 680,170 680,171 680,172 680,173 680,174 680,175 679,176 679,177 679,178 679,179 680,179 681,179 682,179 683,179 684,179 685,179 686,179 687,179 688,180 689,181 690,182 691,183 692,184 692,185 692,186 693,186 694,186 695,185 696,185 697,184 698,184 699,184 700,184 701,184 702,184 703,184 704,183 705,183 706,183 707,184 708,184 709,185 710,185 711,186 712,187 713,187 714,187 715,186 716,185 717,185 718,185 719,185 720,185 721,186 722,186 723,187 724,188 725,189 726,190 726,191 727,192 728,191 728,190 729,189 730,188 731,187 732,186 733,185 734,185 735,184 736,184 737,184 738,183 739,182 740,181 741,180 742,179 743,178 744,178 745,178 746,178 747,177 748,177 749,177 750,177 751,178 751,177 751,176 751,175 751,174 751,173 751,172 751,171 751,170 751,169 751,168 751,167 751,166 751,165 751,164 751,163 751,162 751,161 751,160 751,159 751,158 751,157 751,156 751,155 751,154 751,153 751,152 751,151 751,150 751,149 751,148 751,147 751,146 751,145 751,144 751,143 751,142 751,141 751,140 751,139 751,138 751,137 751,136 751,135 751,134 751,133 751,132 751,131 751,130 751,129 751,128 751,127 751,126 751,125 751,124 751,123 751,122 751,121 751,120 751,119 751,118 750,117 750,116 750,115 750,114 751,113 751,112 751,111 751,110 751,109 750,108 750,107 750,106 750,105 750,104 750,103 750,102 750,101 750,100 750,99 750,98 750,97 751,96 751,95 751,94 751,93 751,92 751,91 751,90 751,89 751,88 751,87 751,86 751,85 750,84 750,83 750,82 750,81 750,80 750,79 750,78 750,77 749,77 748,77 747,77 746,77 745,77 744,77 743,77 742,77 741,77 740,77 739,77 738,77 737,77 736,77 735,77 734,77 733,77 732,77 731,77 730,77 729,77 728,77 727,77 726,77 725,77 724,77 723,77 722,77 721,77 720,77 719,76 718,76 717,77 716,77 715,77 714,77 713,77 712,77 711,77 710,77 709,77 708,77 707,77 706,77 705,77 704,77 703,77 702,77 701,77 700,77 699,77 698,77 697,77 696,77 695,77 694,77 693,77 692,76 691,76 690,76 689,76 688,76 687,76 686,76 685,76 684,76 683,76 682,76">
      <metadata tailDirection="" confidence="0.90" linkedToCharacter="" id="UltraEleven_221_balloon_1" tailTip=""></metadata>
    </polygon>
    <polygon points="480,76 479,77 479,78 479,79 478,80 477,81 476,82 475,83 474,84 473,84 472,85 471,85 470,86 469,86 468,87 467,87 466,88 465,89 464,90 463,91 462,92 461,93 461,94 460,95 460,96 460,97 459,98 459,99 459,100 459,101 459,102 459,103 460,104 460,105 461,106 461,107 462,108 463,109 464,110 464,111 465,111 466,112 467,113 467,114 468,115 468,116 469,117 469,118 469,119 469,120 468,121 468,122 467,123 466,124 465,125 464,126 463,127 462,128 461,129 460,130 459,130 458,131 457,132 457,133 456,134 456,135 455,136 455,137 455,138 455,139 455,140 455,141 455,142 455,143 455,144 455,145 455,146 456,147 456,148 457,149 457,150 458,151 459,152 459,153 460,154 461,154 462,155 463,156 464,157 465,158 465,159 465,160 465,161 465,162 464,163 464,164 463,165 463,166 462,167 461,168 460,169 459,170 458,171 457,172 456,173 455,174 455,175 455,176 455,177 455,178 455,179 455,180 455,181 455,182 456,183 456,184 457,185 457,186 458,187 459,188 460,189 461,189 462,190 463,190 464,190 465,190 466,190 467,190 468,190 469,190 470,189 471,189 472,189 473,189 474,189 475,190 476,190 477,191 478,192 479,193 479,194 479,195 479,196 479,197 479,198 479,199 479,200 478,201 478,202 478,203 478,204 478,205 478,206 478,207 479,208 479,209 480,210 481,211 481,212 482,213 483,214 484,214 485,215 486,216 487,216 488,217 489,217 490,218 491,218 492,219 493,219 494,219 495,219 496,219 497,219 498,219 499,219 500,219 501,219 502,219 503,219 504,219 505,218 506,218 507,218 508,218 509,217 510,217 511,217 512,217 513,217 514,217 515,218 516,218 517,219 518,219 519,220 520,221 520,222 520,223 520,224 520,225 519,226 519,227 519,228 518,229 518,230 517,231 517,232 518,233 519,233 520,234 521,234 520,234 519,233 518,232 518,231 518,230 519,229 519,228 520,227 520,226 521,225 521,224 522,223 522,222 522,221 522,220 523,219 524,218 525,217 526,217 527,216 528,216 529,216 530,216 531,216 532,216 533,217 534,218 535,219 536,220 537,221 538,222 539,222 540,222 541,222 542,223 543,223 544,223 545,223 546,223 547,222 548,222 549,222 550,222 551,221 552,221 553,220 553,219 554,218 554,217 554,216 554,215 555,214 555,213 555,212 555,211 556,210 556,209 557,208 558,207 559,206 560,206 561,205 562,205 563,204 564,204 565,204 566,204 566,203 566,202 566,201 566,200 566,199 566,198 566,197 566,196 566,195 566,194 566,193 566,192 565,191 566,190 566,189 566,188 566,187 566,186 566,185 566,184 566,183 566,182 566,181 566,180 566,179 566,178 566,177 566,176 566,175 566,174 566,173 566,172 566,171 566,170 566,169 566,168 566,167 566,166 566,165 566,164 566,163 566,162 566,161 566,160 566,159 566,158 566,157 566,156 566,155 566,154 566,153 566,152 566,151 566,150 566,149 566,148 566,147 566,146 566,145 566,144 566,143 566,142 566,141 566,140 566,139 566,138 566,137 566,136 566,135 566,134 566,133 566,132 566,131 566,130 566,129 566,128 565,127 566,126 566,125 565,124 565,123 565,122 565,121 565,120 565,119 565,118 565,117 565,116 565,115 565,114 566,113 566,112 565,111 565,110 565,109 566,108 566,107 566,106 566,105 566,104 565,103 565,102 565,101 565,100 565,99 565,98 565,97 565,96 565,95 565,94 565,93 565,92 565,91 565,90 566,89 566,88 565,87 565,86 565,85 565,84 565,83 565,82 565,81 565,80 565,79 565,78 565,77 564,77 563,77 562,77 561,76 560,77 559,76 558,76 557,76 556,76 555,76 554,76 553,76 552,76 551,76 550,77 549,77 548,77 547,77 546,77 545,76 544,76 543,76 542,76 541,76 540,77 539,76 538,76 537,76 536,76 535,76 534,76 533,76 532,76 531,76 530,76 529,76 528,76 527,76 526,76 525,76 524,76 523,76 522,76 521,76 520,76 519,76 518,76 517,76 516,76 515,76 514,76 513,76 512,76 511,76 510,76 509,76 508,76 507,76 506,76 505,76 504,76 503,76 502,76 501,76 500,76 499,76 498,76 497,76 496,76 495,76 494,76 493,76 492,76 491,76 490,76 489,76 488,76 487,76 486,76 485,76 484,76 483,76 482,76 481,76 480,76">
      <metadata tailDirection="" confidence="0.86" linkedToCharacter="" id="UltraEleven_221_balloon_2" tailTip=""></metadata>
    </polygon>
    <polygon points="346,76 345,77 344,78 343,79 342,80 341,81 340,82 339,83 338,84 337,85 336,86 335,87 335,88 335,89 334,90 334,91 334,92 333,93 333,94 333,95 333,96 333,97 333,98 332,99 332,100 332,101 332,102 332,103 332,104 332,105 332,106 332,107 332,108 332,109 331,110 331,111 331,112 331,113 331,114 331,115 331,116 331,117 331,118 331,119 331,120 331,121 331,122 331,123 331,124 331,125 331,126 331,127 331,128 331,129 331,130 331,131 331,132 331,133 331,134 331,135 330,136 330,137 330,138 330,139 330,140 330,141 330,142 330,143 330,144 330,145 330,146 330,147 330,148 330,149 330,150 330,151 330,152 330,153 330,154 330,155 330,156 330,157 330,158 330,159 330,160 330,161 330,162 330,163 330,164 330,165 330,166 330,167 330,168 330,169 330,170 330,171 331,172 331,173 331,174 331,175 331,176 332,177 332,178 332,179 333,180 333,181 334,182 335,183 335,184 336,185 336,186 336,187 335,188 334,189 333,189 332,190 331,190 331,191 331,192 331,193 331,192 332,191 333,190 334,189 335,189 336,189 337,189 338,189 339,189 340,189 341,189 342,189 343,190 344,191 345,191 346,192 347,193 348,193 349,194 350,194 351,195 352,195 353,195 354,196 355,196 356,196 357,197 358,197 359,197 360,197 361,197 362,198 363,198 364,198 365,198 366,198 367,198 368,198 369,198 370,198 371,198 372,198 373,198 374,197 375,197 376,197 377,197 378,196 379,196 380,195 381,195 382,194 383,194 384,194 385,193 386,192 387,191 388,191 389,190 390,189 391,188 391,187 392,186 393,185 394,184 394,183 394,182 394,181 394,180 394,179 394,178 394,177 394,176 394,175 394,174 394,173 394,172 394,171 394,170 394,169 394,168 394,167 394,166 394,165 394,164 394,163 394,162 394,161 394,160 394,159 394,158 394,157 394,156 394,155 394,154 394,153 394,152 394,151 394,150 394,149 394,148 394,147 394,146 394,145 394,144 394,143 394,142 394,141 394,140 394,139 394,138 394,137 394,136 394,135 394,134 394,133 394,132 394,131 394,130 394,129 394,128 394,127 394,126 394,125 394,124 394,123 394,122 394,121 394,120 394,119 394,118 394,117 394,116 394,115 394,114 394,113 394,112 394,111 394,110 394,109 394,108 394,107 394,106 394,105 394,104 394,103 394,102 394,101 394,100 394,99 394,98 394,97 394,96 394,95 394,94 394,93 394,92 394,91 394,90 394,89 394,88 394,87 394,86 394,85 394,84 394,83 394,82 394,81 394,80 394,79 394,78 394,77 394,76 393,76 392,76 391,76 390,76 389,76 388,76 387,76 386,76 385,76 384,76 383,76 382,76 381,76 380,76 379,76 378,76 377,76 376,76 375,76 374,76 373,76 372,76 371,76 370,76 369,76 368,76 367,76 366,76 365,76 364,76 363,76 362,76 361,76 360,76 359,76 358,76 357,76 356,76 355,76 354,76 353,76 352,76 351,76 350,76 349,76 348,76 347,76 346,76">
      <metadata tailDirection="" confidence="0.94" linkedToCharacter="" id="UltraEleven_221_balloon_3" tailTip=""></metadata>
    </polygon>
    <polygon points="80,76 80,77 80,78 80,79 80,80 80,81 80,82 80,83 80,84 80,85 80,86 80,87 80,88 80,89 80,90 80,91 80,92 80,93 80,94 80,95 80,96 80,97 80,98 80,99 80,100 80,101 80,102 80,103 80,104 80,105 80,106 80,107 80,108 80,109 80,110 80,111 80,112 80,113 80,114 80,115 80,116 80,117 80,118 80,119 80,120 80,121 80,122 80,123 80,124 80,125 80,126 80,127 80,128 80,129 80,130 80,131 80,132 80,133 80,134 80,135 80,136 80,137 80,138 79,139 80,140 80,141 80,142 79,143 79,144 79,145 79,146 79,147 79,148 79,149 79,150 79,151 79,152 79,153 79,154 79,155 79,156 79,157 79,158 79,159 79,160 79,161 79,162 79,163 79,164 79,165 79,166 79,167 79,168 79,169 79,170 79,171 79,172 79,173 79,174 79,175 79,176 79,177 79,178 79,179 79,180 79,181 79,182 79,183 79,184 79,185 79,186 79,187 79,188 79,189 79,190 79,191 79,192 79,193 79,194 79,195 79,196 79,197 79,198 79,199 79,200 79,201 79,202 79,203 79,204 79,205 79,206 79,207 79,208 79,209 79,210 79,211 79,212 79,213 79,214 79,215 79,216 79,217 79,218 79,219 79,220 79,221 79,222 79,223 79,224 80,225 80,226 80,227 80,228 80,229 80,230 79,231 79,232 80,233 80,234 80,235 80,236 80,237 80,238 80,239 80,240 80,241 80,242 80,243 80,244 80,245 80,246 80,247 80,248 79,249 80,250 80,251 81,252 82,252 83,253 84,254 85,255 86,256 87,257 88,258 89,258 90,259 91,260 92,261 93,261 94,261 95,262 96,262 97,262 98,262 99,262 100,262 101,262 102,262 102,261 102,260 102,259 102,258 102,257 101,256 101,255 101,254 102,253 103,253 104,253 105,253 106,254 106,255 107,256 107,257 107,258 108,259 108,260 109,261 109,262 110,262 111,262 112,262 113,262 114,262 115,261 116,261 117,261 118,261 119,261 120,261 121,261 122,261 123,260 124,260 125,260 126,260 127,260 128,260 129,260 130,259 131,259 132,259 133,259 134,258 135,258 136,258 137,258 138,257 139,257 140,257 141,256 142,256 143,255 144,255 145,254 146,253 147,253 148,252 149,251 150,250 151,249 152,249 153,248 154,247 155,246 156,245 157,244 158,243 159,242 160,241 161,240 161,239 162,238 163,237 164,236 164,235 165,234 166,233 167,232 168,231 168,230 169,229 170,228 171,227 171,226 172,225 173,224 173,223 174,222 174,221 175,220 175,219 176,218 176,217 176,216 176,215 177,214 178,213 179,213 180,212 181,212 182,212 183,213 184,213 185,214 186,215 185,214 184,213 183,212 182,211 181,211 180,212 179,212 178,211 177,210 177,209 178,208 179,207 179,206 180,205 180,204 181,203 181,202 182,201 182,200 182,199 183,198 183,197 183,196 183,195 183,194 184,193 184,192 184,191 184,190 184,189 184,188 184,187 184,186 184,185 184,184 184,183 184,182 185,181 185,180 185,179 185,178 184,177 184,176 184,175 184,174 184,173 184,172 184,171 184,170 184,169 184,168 184,167 184,166 184,165 184,164 184,163 184,162 184,161 184,160 184,159 184,158 184,157 184,156 184,155 184,154 184,153 184,152 184,151 184,150 184,149 184,148 184,147 184,146 184,145 184,144 184,143 184,142 184,141 184,140 184,139 184,138 184,137 184,136 184,135 184,134 184,133 184,132 184,131 184,130 184,129 184,128 184,127 184,126 184,125 184,124 184,123 185,122 185,121 185,120 185,119 185,118 185,117 185,116 185,115 185,114 185,113 185,112 185,111 185,110 185,109 185,108 185,107 185,106 185,105 185,104 185,103 185,102 185,101 184,100 184,99 184,98 184,97 184,96 184,95 184,94 184,93 184,92 184,91 183,90 183,89 183,88 182,87 182,86 181,85 180,84 179,83 179,82 178,81 177,80 176,79 175,78 174,78 173,77 172,77 171,76 170,76 169,76 168,76 167,76 166,76 165,76 164,76 163,76 162,76 161,76 160,76 159,76 158,76 157,76 156,76 155,76 154,76 153,76 152,76 151,76 150,76 149,76 148,76 147,76 146,76 145,76 144,76 143,76 142,76 141,76 140,76 139,76 138,76 137,76 136,76 135,76 134,76 133,76 132,76 131,76 130,76 129,76 128,76 127,76 126,76 125,76 124,76 123,76 122,76 121,76 120,76 119,76 118,76 117,76 116,76 115,76 114,76 113,76 112,76 111,76 110,76 109,76 108,76 107,76 106,76 105,76 104,76 103,76 102,76 101,76 100,76 99,76 98,76 97,76 96,76 95,76 94,76 93,76 92,76 91,76 90,76 89,76 88,76 87,76 86,76 85,76 84,76 83,76 82,76 81,76 80,76">
      <metadata tailDirection="" confidence="0.82" linkedToCharacter="" id="UltraEleven_221_balloon_4" tailTip=""></metadata>
    </polygon>
  </svg>
</svg>
