<?xml version="1.0" encoding="UTF-8" standalone="no"?>
<svg width="827" xmlns="http://www.w3.org/2000/svg" version="1.0" height="1170">
  <title>UltraEleven_072</title>
  <svg contentScriptType="text/ecmascript" zoomAndPan="magnify" contentStyleType="text/css" class="Page" preserveAspectRatio="xMidYMid meet" version="1.0">
    <image xmlns:xlink="http://www.w3.org/1999/xlink" x="0" y="0" width="827" height="1170" xlink:href="./../../dataset_Manga109/UltraEleven/UltraEleven_072.jpg" xlink:type="simple" xlink:actuate="onLoad" preserveAspectRatio="xMidYMid meet" xlink:show="embed"/>
  </svg>
  <style type="text/css" xml:space="preserve">
        * { stroke-linejoin: round; }
        .Unclassified   { fill: orange; stroke: none;   opacity: 1.0; visibility: hidden; }
        .Noise          { fill: pink;   stroke: none;   opacity: 0.2; visibility: hidden; }
        .Panel          { fill: none;   stroke: red;    stroke-width:3; opacity: 0.5; visibility: visible; image-rendering: optimizeSpeed; }
        .Line           { fill: green;  stroke: none;   opacity: 0.5; visibility: visible; image-rendering: optimizeSpeed; }
        .TextArea       { fill: grey;   stroke: none;   opacity: 0.2; visibility: visible; image-rendering: optimizeSpeed; }
        .Balloon        { fill: cyan;   stroke: none;   opacity: 0.5; visibility: visible; image-rendering: optimizeSpeed; }
        .Letter         { fill: blue;   stroke: none;   opacity: 0.2; visibility: hidden; }
        .Object, .Character, .Face  { fill: yellow; stroke: none;   opacity: 0.5; visibility: visible; image-rendering: optimizeSpeed; }
        .Page           { fill: white;  stroke: none;    opacity: 0.5; visibility: visible; }
        .linkSBSC { fill: blue; stroke: none; opacity: 1.0; visibility: visible; }
        polygon:hover { opacity:1.0; stroke:red; }
</style>
  <svg xmlns="http://www.w3.org/2000/svg" contentScriptType="text/ecmascript" zoomAndPan="magnify" contentStyleType="text/css" class="Balloon" preserveAspectRatio="xMidYMid meet" version="1.0">
    <polygon points="435,1042 434,1043 433,1043 432,1043 431,1044 430,1044 430,1045 429,1046 428,1046 428,1047 427,1048 427,1049 426,1050 425,1050 424,1049 424,1048 425,1047 426,1046 425,1046 424,1046 423,1046 422,1046 421,1046 420,1046 420,1047 420,1048 420,1049 420,1050 420,1051 420,1052 420,1053 420,1054 420,1055 420,1056 420,1057 420,1058 420,1059 420,1060 420,1061 420,1062 420,1063 420,1064 420,1065 420,1066 420,1067 420,1068 420,1069 420,1070 420,1071 420,1072 420,1071 420,1070 420,1069 421,1068 421,1067 421,1066 421,1065 421,1064 421,1063 421,1062 421,1061 422,1060 422,1059 422,1058 422,1057 422,1056 422,1055 423,1054 423,1053 423,1052 423,1051 424,1050 425,1050 426,1051 426,1052 426,1053 426,1054 425,1055 425,1056 425,1057 425,1058 425,1059 425,1060 425,1061 425,1062 424,1063 424,1064 424,1065 424,1066 424,1067 424,1068 424,1069 424,1070 424,1071 423,1072 423,1073 423,1074 423,1075 423,1076 423,1077 423,1078 423,1079 423,1080 423,1081 423,1082 423,1083 423,1084 423,1085 423,1086 423,1087 423,1088 423,1089 423,1090 423,1091 423,1092 423,1093 423,1094 423,1095 423,1096 423,1097 424,1098 424,1099 424,1100 424,1101 424,1102 424,1103 424,1104 424,1105 424,1106 424,1107 424,1108 425,1109 425,1110 425,1111 425,1112 426,1113 426,1114 426,1115 427,1116 428,1116 429,1117 430,1118 431,1118 432,1119 433,1119 434,1120 435,1121 436,1121 437,1122 438,1123 439,1123 440,1124 441,1124 442,1124 443,1125 444,1125 445,1125 446,1125 447,1125 448,1125 449,1125 450,1125 451,1125 452,1124 453,1124 454,1124 455,1124 456,1124 457,1124 458,1124 459,1124 460,1124 461,1124 462,1123 463,1122 464,1121 464,1120 465,1119 465,1118 465,1117 466,1116 466,1115 466,1114 466,1113 466,1112 466,1111 466,1110 466,1109 466,1108 466,1107 466,1106 466,1105 466,1104 466,1103 466,1102 466,1101 466,1100 466,1099 466,1098 466,1097 466,1096 467,1095 468,1094 469,1093 470,1092 471,1091 472,1091 473,1091 474,1092 475,1093 476,1094 477,1095 478,1096 479,1096 480,1096 481,1095 482,1094 483,1094 484,1093 483,1093 482,1094 481,1094 480,1095 479,1095 478,1096 477,1095 476,1094 475,1093 474,1092 474,1091 473,1090 472,1090 471,1090 470,1091 469,1092 468,1092 467,1091 467,1090 467,1089 467,1088 467,1087 467,1086 467,1085 467,1084 467,1083 467,1082 467,1081 467,1080 467,1079 466,1078 466,1077 466,1076 466,1075 466,1074 466,1073 467,1072 467,1071 467,1070 467,1069 467,1068 467,1067 467,1066 467,1065 467,1064 467,1063 467,1062 467,1061 467,1060 467,1059 466,1058 466,1057 466,1056 466,1055 466,1054 466,1053 466,1052 466,1051 465,1050 464,1049 463,1048 462,1048 461,1047 460,1046 459,1045 458,1045 457,1044 456,1043 455,1043 454,1043 453,1042 452,1042 451,1042 450,1042 449,1042 448,1042 447,1042 446,1042 445,1042 444,1042 443,1042 442,1042 441,1042 440,1042 439,1042 438,1042 437,1042 436,1042 435,1042">
      <metadata tailDirection="" confidence="0.93" linkedToCharacter="" id="UltraEleven_072_balloon_0" tailTip=""></metadata>
    </polygon>
    <polygon points="421,897 421,898 421,899 421,900 421,901 421,902 421,903 421,904 421,905 421,906 421,907 421,908 421,909 421,910 421,911 421,912 421,913 421,914 421,915 421,916 421,917 421,918 421,919 421,920 421,921 421,922 421,923 421,924 421,925 421,926 421,927 421,928 421,929 421,930 421,931 421,932 421,933 421,934 421,935 421,936 421,937 421,938 421,939 421,940 421,941 421,942 421,943 421,944 421,945 421,946 421,947 421,948 421,949 421,950 421,951 420,952 420,953 420,954 420,955 420,956 421,957 421,958 421,959 421,960 421,961 420,962 420,963 420,964 420,965 420,966 420,967 420,968 420,969 420,970 420,971 420,972 420,973 420,974 420,975 420,976 420,977 420,978 420,979 420,980 420,981 420,982 420,983 420,984 420,985 420,986 420,987 420,988 420,989 420,990 420,991 420,992 420,993 420,994 420,995 421,996 422,997 423,998 424,999 425,999 426,1000 427,1001 428,1001 429,1002 430,1003 431,1004 432,1004 433,1005 434,1006 435,1007 436,1007 437,1008 438,1008 439,1009 440,1009 441,1010 442,1010 443,1010 444,1010 445,1011 446,1011 447,1011 448,1011 449,1011 450,1011 451,1011 452,1011 453,1011 454,1011 455,1011 456,1011 457,1011 458,1011 459,1011 460,1011 461,1011 462,1011 463,1011 464,1011 465,1011 466,1011 467,1011 468,1011 469,1011 470,1011 471,1011 472,1011 473,1011 474,1011 475,1011 476,1011 477,1011 478,1011 479,1011 480,1011 481,1011 482,1011 483,1011 484,1011 485,1011 486,1012 487,1012 488,1012 489,1012 490,1012 491,1012 492,1012 493,1012 494,1012 495,1012 496,1012 497,1012 498,1012 499,1012 500,1012 501,1012 502,1012 503,1011 504,1011 505,1011 506,1010 507,1010 508,1009 509,1008 510,1007 511,1007 512,1006 513,1006 514,1005 515,1004 516,1003 517,1002 518,1002 519,1001 520,1000 521,999 522,998 523,997 524,996 525,995 525,994 526,993 526,992 526,991 526,990 527,989 527,988 527,987 527,986 527,985 528,984 529,984 530,985 530,986 531,987 532,988 533,989 533,990 534,991 535,992 536,993 537,993 538,993 539,993 540,994 541,994 542,994 543,994 544,994 545,994 546,994 547,994 548,994 549,994 550,994 551,994 552,994 553,994 554,994 555,994 556,993 557,993 558,993 559,993 560,992 561,992 561,991 562,990 562,989 563,988 564,987 564,986 565,985 565,984 566,983 566,982 567,981 568,980 569,979 570,979 571,978 572,977 571,977 570,976 569,975 569,974 570,973 571,972 571,971 571,970 571,969 571,968 571,967 571,966 571,965 571,964 572,963 572,962 572,961 572,960 572,959 572,958 572,957 572,956 573,955 573,954 573,953 573,952 573,951 573,950 573,949 573,948 573,947 573,946 573,945 573,944 574,943 574,942 574,941 574,940 574,939 574,938 574,937 574,936 573,935 573,934 573,933 573,932 573,931 573,930 573,929 573,928 573,927 573,926 573,925 573,924 573,923 572,922 572,921 572,920 572,919 572,918 572,917 572,916 572,915 572,914 571,913 571,912 571,911 571,910 570,909 570,908 570,907 569,906 569,905 569,904 568,903 567,902 566,901 565,901 564,900 563,899 562,899 561,898 560,897 559,897 558,897 557,897 556,897 555,897 554,897 553,897 552,897 551,897 550,897 549,897 548,897 547,897 546,897 545,897 544,897 543,897 542,897 541,897 540,897 539,897 538,897 537,897 536,897 535,897 534,897 533,897 532,897 531,897 530,897 529,897 528,897 527,897 526,897 525,897 524,897 523,897 522,898 522,899 521,900 520,901 520,902 519,903 518,904 517,904 516,903 516,902 515,901 515,900 514,899 514,898 513,897 512,897 511,897 510,897 509,897 508,897 507,897 506,897 505,897 504,897 503,897 502,897 501,897 500,897 499,897 498,897 497,897 496,897 495,897 494,897 493,897 492,897 491,897 490,897 489,897 488,897 487,897 486,897 485,897 484,897 483,897 482,897 481,897 480,897 479,897 478,897 477,897 476,897 475,897 474,897 473,897 472,897 471,897 470,897 469,897 468,897 467,897 466,897 465,897 464,897 463,897 462,897 461,897 460,897 459,897 458,897 457,897 456,897 455,897 454,897 453,897 452,897 451,897 450,897 449,897 448,897 447,897 446,897 445,897 444,897 443,897 442,897 441,897 440,897 439,897 438,897 437,897 436,897 435,897 434,897 433,897 432,897 431,897 430,897 429,897 428,897 427,897 426,897 425,897 424,897 423,897 422,897 421,897">
      <metadata tailDirection="" confidence="0.84" linkedToCharacter="" id="UltraEleven_072_balloon_1" tailTip=""></metadata>
    </polygon>
    <polygon points="386,897 385,898 384,898 383,899 383,900 382,901 381,902 381,903 380,904 380,905 380,906 380,907 380,908 380,909 380,910 380,911 380,912 380,913 380,914 380,915 380,916 380,917 380,918 380,919 380,920 380,921 380,922 380,923 380,924 380,925 380,926 381,927 381,928 381,929 381,930 381,931 381,932 381,933 381,934 381,935 381,936 381,937 381,938 381,939 381,940 381,941 381,942 381,943 381,944 381,945 381,946 381,947 381,948 381,949 381,950 381,951 382,952 382,953 382,954 382,955 382,956 382,957 382,958 382,959 383,960 383,961 383,962 383,963 383,964 384,965 384,966 384,967 385,968 386,969 387,969 388,970 389,971 390,971 391,971 392,971 393,971 394,972 395,972 396,972 397,973 398,974 399,975 399,976 399,977 400,976 401,975 402,974 403,974 404,974 405,973 406,973 407,973 408,972 409,971 409,970 409,969 410,968 410,967 410,966 410,965 410,964 410,963 410,962 410,961 410,960 410,959 410,958 410,957 410,956 410,955 410,954 410,953 410,952 410,951 410,950 410,949 410,948 410,947 410,946 411,945 410,944 411,943 411,942 411,941 411,940 410,939 410,938 410,937 410,936 410,935 411,934 411,933 410,932 410,931 410,930 411,929 411,928 411,927 411,926 411,925 411,924 411,923 411,922 411,921 411,920 410,919 410,918 410,917 410,916 410,915 410,914 410,913 410,912 410,911 410,910 410,909 410,908 410,907 410,906 410,905 410,904 410,903 410,902 410,901 410,900 410,899 410,898 410,897 409,897 408,897 407,897 406,897 405,897 404,897 403,897 402,897 401,897 400,897 399,897 398,897 397,897 396,897 395,897 394,897 393,897 392,897 391,897 390,897 389,897 388,897 387,897 386,897">
      <metadata tailDirection="" confidence="0.99" linkedToCharacter="" id="UltraEleven_072_balloon_2" tailTip=""></metadata>
    </polygon>
    <polygon points="318,897 318,898 318,899 318,900 318,901 318,902 318,903 318,904 318,905 318,906 317,907 317,908 317,909 317,910 318,911 317,912 317,913 317,914 317,915 317,916 317,917 317,918 318,919 318,920 318,921 318,922 318,923 318,924 318,925 318,926 318,927 318,928 318,929 318,930 318,931 318,932 318,933 318,934 318,935 318,936 318,937 318,938 318,939 318,940 318,941 318,942 318,943 318,944 318,945 318,946 318,947 318,948 318,949 318,950 318,951 318,952 318,953 318,954 318,955 318,956 318,957 318,958 318,959 318,960 318,961 318,962 318,963 318,964 318,965 318,966 318,967 318,968 318,969 318,970 318,971 318,972 318,973 318,974 318,975 318,976 318,977 318,978 318,979 318,980 318,981 317,982 317,983 317,984 318,985 317,986 317,987 317,988 317,989 318,990 318,991 319,992 320,993 320,994 321,994 322,995 323,995 324,995 325,995 326,995 327,994 328,993 329,993 330,993 331,993 332,992 333,993 334,993 335,993 336,994 337,995 338,995 339,996 340,995 341,994 342,994 343,994 344,994 345,994 346,994 347,994 348,994 349,994 350,993 351,993 352,993 353,992 354,991 355,990 355,989 356,988 356,987 356,986 356,985 356,984 356,983 356,982 357,981 357,980 358,979 358,978 359,977 360,976 361,975 362,975 363,974 363,973 364,972 365,971 366,970 365,969 365,968 365,967 365,966 365,965 364,964 364,963 364,962 364,961 364,960 364,959 364,958 364,957 364,956 365,955 365,954 365,953 365,952 365,951 365,950 365,949 364,948 364,947 364,946 363,945 363,944 363,943 362,942 362,941 362,940 361,939 361,938 361,937 362,936 362,935 362,934 363,933 363,932 364,931 365,930 366,929 367,928 367,927 367,926 368,925 368,924 368,923 367,922 367,921 367,920 366,919 366,918 365,917 364,916 363,915 362,914 361,913 361,912 360,911 359,910 359,909 359,908 359,907 359,906 359,905 359,904 360,903 360,902 360,901 360,900 360,899 359,898 358,897 357,897 356,897 355,897 354,897 353,897 352,897 351,897 350,897 349,897 348,897 347,897 346,897 345,897 344,897 343,897 342,897 341,897 340,897 339,897 338,897 337,897 336,897 335,897 334,897 333,897 332,897 331,897 330,897 329,897 328,897 327,897 326,897 325,897 324,897 323,897 322,897 321,897 320,897 319,897 318,897">
      <metadata tailDirection="" confidence="0.92" linkedToCharacter="" id="UltraEleven_072_balloon_3" tailTip=""></metadata>
    </polygon>
    <polygon points="71,897 71,898 71,899 71,900 71,901 71,902 71,903 71,904 71,905 71,906 71,907 71,908 71,909 71,910 71,911 71,912 71,913 71,914 71,915 71,916 71,917 71,918 71,919 71,920 71,921 71,922 71,923 71,924 71,925 71,926 71,927 71,928 71,929 71,930 71,931 70,932 70,933 71,934 71,935 71,936 71,937 71,938 71,939 70,940 70,941 70,942 70,943 70,944 70,945 70,946 70,947 70,948 70,949 70,950 70,951 70,952 70,953 70,954 70,955 70,956 70,957 70,958 70,959 70,960 70,961 70,962 70,963 70,964 70,965 70,966 70,967 70,968 70,969 70,970 70,971 70,972 70,973 70,974 70,975 70,976 70,977 70,978 70,979 70,980 70,981 70,982 70,983 70,984 70,985 70,986 70,987 71,987 72,988 73,988 74,989 75,990 76,991 77,991 78,992 79,992 80,993 81,993 82,994 83,994 84,994 85,994 86,994 87,994 88,994 89,994 90,994 91,994 92,994 93,993 94,993 95,993 96,993 97,993 98,992 99,992 100,992 101,991 102,991 103,990 104,990 105,989 106,989 107,989 108,988 109,988 110,988 111,987 112,986 112,985 112,984 113,983 113,982 114,981 115,980 116,980 117,980 118,980 119,980 120,980 119,979 119,978 119,977 119,976 119,975 119,974 119,973 119,972 120,971 120,970 120,969 120,968 120,967 120,966 120,965 120,964 120,963 120,962 120,961 120,960 120,959 120,958 120,957 120,956 120,955 120,954 120,953 120,952 120,951 120,950 120,949 120,948 120,947 120,946 120,945 120,944 120,943 120,942 120,941 120,940 120,939 120,938 120,937 120,936 120,935 120,934 120,933 120,932 120,931 120,930 120,929 120,928 120,927 120,926 120,925 120,924 120,923 120,922 120,921 120,920 120,919 120,918 120,917 120,916 120,915 120,914 119,913 119,912 119,911 119,910 119,909 119,908 119,907 119,906 119,905 119,904 118,903 118,902 117,901 116,900 115,900 114,899 113,899 112,898 111,898 110,898 109,897 108,897 107,897 106,897 105,897 104,897 103,897 102,897 101,897 100,897 99,897 98,897 97,897 96,897 95,897 94,897 93,897 92,897 91,897 90,897 89,897 88,897 87,897 86,897 85,897 84,897 83,897 82,897 81,897 80,897 79,897 78,897 77,897 76,897 75,897 74,897 73,897 72,897 71,897">
      <metadata tailDirection="" confidence="0.99" linkedToCharacter="" id="UltraEleven_072_balloon_4" tailTip=""></metadata>
    </polygon>
    <polygon points="682,16 681,17 680,17 679,17 678,17 677,17 676,17 675,17 674,17 673,17 672,17 671,17 670,17 669,17 668,17 667,17 666,17 665,17 664,17 663,17 662,18 661,18 660,18 659,18 658,18 657,18 656,18 655,18 654,18 653,18 652,18 651,19 650,19 649,19 648,20 647,20 646,21 645,22 644,22 643,23 642,24 641,24 640,25 639,26 638,27 637,27 636,27 635,28 634,29 633,29 632,30 631,31 630,31 629,32 628,33 627,34 626,34 625,35 624,36 623,37 622,38 621,39 620,40 619,41 619,42 619,43 618,44 618,45 618,46 618,47 617,48 617,49 617,50 617,51 617,52 616,53 616,54 616,55 616,56 616,57 616,58 616,59 616,60 616,61 616,62 615,63 615,64 615,65 615,66 615,67 615,68 615,69 615,70 614,71 614,72 614,73 614,74 614,75 614,76 614,77 613,78 613,79 613,80 613,81 613,82 613,83 613,84 613,85 613,86 613,87 613,88 612,89 612,90 612,91 612,92 612,93 612,94 612,95 611,96 611,97 611,98 611,99 611,100 611,101 611,102 611,103 611,104 611,105 611,106 611,107 611,108 611,109 611,110 611,111 611,112 612,113 612,114 612,115 612,116 613,117 613,118 613,119 614,120 614,121 615,122 615,123 616,124 616,125 617,126 618,127 618,128 619,129 620,130 621,131 622,132 623,133 624,134 625,135 626,136 627,137 628,138 629,139 630,140 631,141 632,142 633,143 633,144 633,145 633,146 632,147 632,148 632,149 631,150 631,151 630,152 630,153 629,154 629,155 628,156 627,157 627,158 628,158 629,157 630,157 631,157 632,157 633,156 634,155 635,154 636,154 637,153 638,153 639,152 640,153 641,153 642,153 643,154 644,154 645,155 646,156 647,157 648,158 649,158 650,159 651,160 652,160 653,161 654,161 655,161 656,161 657,161 658,161 659,161 660,161 661,161 662,161 663,161 664,161 665,161 666,161 667,161 668,161 669,161 670,161 671,161 672,161 673,161 674,161 675,162 676,162 677,161 678,161 679,161 680,161 681,161 682,161 683,161 684,161 685,161 686,161 687,161 688,161 689,161 690,161 691,161 692,161 693,161 694,160 695,160 696,160 697,160 698,159 699,159 700,159 701,158 702,158 703,157 704,157 705,156 706,156 707,156 708,155 709,155 710,155 711,154 712,153 713,153 714,152 715,152 716,151 717,150 718,150 719,149 720,148 721,148 722,147 723,146 724,145 725,145 726,144 727,143 728,142 729,142 730,141 731,140 732,139 732,138 733,137 734,136 734,135 734,134 735,133 736,132 736,131 736,130 737,129 737,128 738,127 738,126 738,125 739,124 739,123 740,122 740,121 740,120 741,119 741,118 741,117 742,116 742,115 743,114 743,113 743,112 744,111 744,110 744,109 744,108 745,107 745,106 745,105 746,104 746,103 746,102 746,101 747,100 747,99 747,98 747,97 747,96 748,95 748,94 748,93 748,92 749,91 749,90 749,89 750,88 750,87 750,86 750,85 751,84 751,83 751,82 751,81 751,80 751,79 751,78 752,77 752,76 752,75 752,74 752,73 752,72 752,71 752,70 752,69 752,68 752,67 752,66 752,65 751,64 751,63 751,62 751,61 750,60 750,59 749,58 749,57 749,56 748,55 748,54 748,53 747,52 747,51 747,50 746,49 746,48 745,47 745,46 745,45 744,44 744,43 743,42 743,41 742,40 742,39 741,38 740,37 739,36 738,35 737,34 736,33 735,32 734,31 733,31 732,30 731,29 730,28 729,28 728,27 727,26 726,26 725,25 724,25 723,24 722,23 721,23 720,22 719,21 718,21 717,20 716,20 715,19 714,19 713,18 712,18 711,17 710,17 709,17 708,17 707,17 706,17 705,17 704,17 703,16 702,16 701,16 700,16 699,16 698,16 697,17 696,16 695,16 694,16 693,16 692,16 691,16 690,16 689,16 688,16 687,16 686,16 685,16 684,17 683,17 682,16">
      <metadata tailDirection="" confidence="0.89" linkedToCharacter="" id="UltraEleven_072_balloon_5" tailTip=""></metadata>
    </polygon>
    <polygon points="124,441 123,442 122,443 121,444 120,445 119,445 118,446 117,447 116,447 115,448 114,448 113,449 112,449 111,450 110,450 109,450 108,451 107,451 106,451 105,451 104,450 103,450 102,449 101,449 100,449 100,450 99,451 99,452 98,453 98,454 97,455 97,456 96,457 96,458 95,459 94,460 94,461 93,462 92,463 91,464 90,465 89,466 89,467 88,468 87,468 86,469 85,470 84,470 85,471 85,472 86,473 86,474 86,475 86,476 86,477 86,478 87,479 87,480 87,481 86,482 86,483 86,484 86,485 86,486 85,487 85,488 85,489 85,490 84,491 84,492 83,493 83,494 82,495 82,496 83,496 84,496 85,497 86,497 87,498 88,499 89,500 90,501 91,502 91,503 92,504 92,505 92,506 93,507 93,508 93,509 93,510 93,511 93,512 93,513 93,514 94,515 94,516 94,517 93,518 93,519 93,520 93,521 93,522 93,523 94,523 95,522 96,522 97,521 98,521 99,521 100,521 101,520 102,520 103,521 104,521 105,521 106,522 107,522 108,523 109,524 110,525 111,524 112,523 113,522 114,521 115,521 116,520 117,520 118,519 119,519 120,518 121,518 122,517 123,517 124,517 125,517 126,517 127,517 128,517 129,516 130,516 131,516 132,516 133,516 134,517 135,517 135,516 135,515 135,514 135,513 135,512 135,511 135,510 135,509 135,508 135,507 135,506 135,505 135,504 135,503 136,502 136,501 136,500 136,499 136,498 137,497 137,496 137,495 138,494 138,493 138,492 139,491 139,490 140,489 140,488 141,487 141,486 141,485 142,484 143,483 143,482 144,481 143,480 142,480 141,479 140,478 139,477 138,476 138,475 137,474 137,473 136,472 136,471 135,470 135,469 135,468 135,467 135,466 135,465 135,464 135,463 136,462 136,461 136,460 136,459 135,459 134,458 133,458 132,457 131,456 130,455 129,454 128,453 127,452 127,451 126,450 125,449 125,448 125,447 125,446 124,445 124,444 124,443 124,442 124,441">
      <metadata tailDirection="" confidence="0.97" linkedToCharacter="" id="UltraEleven_072_balloon_6" tailTip=""></metadata>
    </polygon>
  </svg>
</svg>
