<?xml version="1.0" encoding="UTF-8" standalone="no"?>
<svg width="827" xmlns="http://www.w3.org/2000/svg" version="1.0" height="1170">
  <title>UltraEleven_181</title>
  <svg contentScriptType="text/ecmascript" zoomAndPan="magnify" contentStyleType="text/css" class="Page" preserveAspectRatio="xMidYMid meet" version="1.0">
    <image xmlns:xlink="http://www.w3.org/1999/xlink" x="0" y="0" width="827" height="1170" xlink:href="./../../dataset_Manga109/UltraEleven/UltraEleven_181.jpg" xlink:type="simple" xlink:actuate="onLoad" preserveAspectRatio="xMidYMid meet" xlink:show="embed"/>
  </svg>
  <style type="text/css" xml:space="preserve">
        * { stroke-linejoin: round; }
        .Unclassified   { fill: orange; stroke: none;   opacity: 1.0; visibility: hidden; }
        .Noise          { fill: pink;   stroke: none;   opacity: 0.2; visibility: hidden; }
        .Panel          { fill: none;   stroke: red;    stroke-width:3; opacity: 0.5; visibility: visible; image-rendering: optimizeSpeed; }
        .Line           { fill: green;  stroke: none;   opacity: 0.5; visibility: visible; image-rendering: optimizeSpeed; }
        .TextArea       { fill: grey;   stroke: none;   opacity: 0.2; visibility: visible; image-rendering: optimizeSpeed; }
        .Balloon        { fill: cyan;   stroke: none;   opacity: 0.5; visibility: visible; image-rendering: optimizeSpeed; }
        .Letter         { fill: blue;   stroke: none;   opacity: 0.2; visibility: hidden; }
        .Object, .Character, .Face  { fill: yellow; stroke: none;   opacity: 0.5; visibility: visible; image-rendering: optimizeSpeed; }
        .Page           { fill: white;  stroke: none;    opacity: 0.5; visibility: visible; }
        .linkSBSC { fill: blue; stroke: none; opacity: 1.0; visibility: visible; }
        polygon:hover { opacity:1.0; stroke:red; }
</style>
  <svg xmlns="http://www.w3.org/2000/svg" contentScriptType="text/ecmascript" zoomAndPan="magnify" contentStyleType="text/css" class="Balloon" preserveAspectRatio="xMidYMid meet" version="1.0">
    <polygon points="147,353 148,354 148,355 148,356 147,357 146,358 145,359 144,360 143,360 144,361 144,362 144,363 144,364 143,365 142,366 141,367 140,367 139,368 138,369 137,369 136,369 135,370 134,370 133,370 132,371 131,371 130,371 129,371 128,372 127,372 126,372 125,372 124,372 125,373 126,373 127,374 128,375 129,375 130,376 131,377 132,377 133,378 134,379 134,380 135,381 135,382 136,383 136,384 136,385 136,386 135,387 135,388 134,389 134,390 133,391 132,391 132,392 133,393 134,394 134,395 135,396 135,397 134,398 134,399 134,400 133,401 133,402 132,403 131,404 130,405 129,406 128,407 127,408 126,409 125,409 124,410 123,411 122,411 121,412 120,412 119,412 118,413 117,413 116,414 115,414 116,414 117,414 118,414 119,414 120,415 121,415 122,415 123,415 124,415 125,416 126,416 127,416 128,417 129,418 130,418 131,419 132,420 132,421 133,422 133,423 133,424 133,425 133,426 133,427 133,428 132,429 133,429 134,430 135,430 136,430 137,431 138,431 139,432 140,433 141,434 141,435 141,436 142,437 142,438 142,439 141,440 141,441 141,442 141,443 141,444 140,445 140,446 139,447 139,448 139,449 138,450 138,451 137,452 136,453 136,454 135,455 134,456 134,457 133,458 132,459 131,460 130,461 131,461 132,461 133,460 134,460 135,460 136,459 137,459 138,459 139,459 140,459 141,459 142,459 143,460 144,460 145,460 146,461 147,461 148,462 149,462 150,463 150,464 151,465 152,466 152,467 152,468 153,469 153,470 154,470 155,470 156,470 157,470 158,470 159,471 160,471 161,472 162,473 162,474 162,475 163,476 163,477 163,478 163,479 163,480 163,481 163,482 163,483 162,484 162,485 162,486 163,486 164,485 165,485 166,484 167,484 168,484 169,484 170,484 171,484 172,484 173,484 174,485 175,486 176,487 176,488 177,489 177,490 177,491 178,492 178,493 178,494 178,495 179,496 179,497 179,498 179,499 179,500 179,501 179,502 180,501 181,500 182,500 183,501 183,502 183,503 184,504 184,505 184,506 184,507 184,508 185,509 185,510 185,511 185,512 186,513 186,514 186,515 186,516 186,517 186,518 187,519 187,520 187,521 187,522 187,523 188,524 189,524 189,523 188,522 188,521 188,520 188,519 188,518 188,517 187,516 187,515 187,514 187,513 187,512 186,511 186,510 186,509 185,508 185,507 185,506 185,505 184,504 184,503 184,502 183,501 183,500 182,499 183,498 183,497 184,496 185,495 186,494 187,493 188,492 189,491 190,490 191,490 192,489 193,488 194,488 195,487 196,487 197,487 198,486 199,486 200,486 201,486 202,485 203,485 204,485 205,485 206,485 207,485 208,486 209,486 210,486 211,487 212,487 213,487 214,486 215,485 216,485 217,484 218,484 219,483 220,483 221,483 222,483 223,483 224,483 225,483 226,483 227,483 228,483 229,483 230,483 231,483 232,484 233,484 234,485 235,485 236,485 236,484 236,483 237,482 237,481 238,480 239,479 239,478 240,477 241,477 242,476 243,475 244,474 245,474 246,473 247,473 248,472 249,472 250,471 251,471 252,471 253,471 254,470 255,470 256,470 256,469 256,468 256,467 256,466 256,465 256,464 256,463 256,462 256,461 256,460 256,459 256,458 256,457 256,456 256,455 256,454 256,453 256,452 256,451 256,450 256,449 256,448 256,447 255,446 256,445 256,444 256,443 256,442 256,441 256,440 255,439 255,438 256,437 255,436 255,435 255,434 255,433 255,432 255,431 255,430 255,429 255,428 255,427 255,426 255,425 255,424 255,423 255,422 255,421 255,420 255,419 255,418 255,417 255,416 255,415 255,414 255,413 255,412 255,411 255,410 255,409 255,408 255,407 255,406 255,405 255,404 255,403 255,402 255,401 255,400 255,399 255,398 255,397 255,396 255,395 255,394 255,393 255,392 256,391 255,390 256,389 256,388 256,387 256,386 256,385 256,384 255,383 255,382 256,381 256,380 256,379 255,378 255,377 256,376 256,375 256,374 256,373 256,372 256,371 256,370 256,369 256,368 256,367 256,366 256,365 256,364 256,363 256,362 256,361 256,360 256,359 256,358 256,357 256,356 256,355 256,354 256,353 255,353 254,353 253,353 252,353 251,353 250,353 249,353 248,353 247,353 246,353 245,353 244,353 243,353 242,353 241,353 240,353 239,353 238,353 237,353 236,353 235,353 234,353 233,353 232,353 231,353 230,353 229,353 228,353 227,353 226,353 225,353 224,353 223,353 222,353 221,353 220,353 219,353 218,353 217,353 216,353 215,353 214,353 213,353 212,353 211,353 210,353 209,353 208,353 207,353 206,353 205,353 204,353 203,353 202,353 201,353 200,353 199,353 198,353 197,353 196,353 195,353 194,353 193,353 192,353 191,353 190,353 189,353 188,353 187,353 186,353 185,353 184,353 183,353 182,353 181,353 180,353 179,353 178,353 177,353 176,353 175,353 174,353 173,353 172,353 171,353 170,353 169,353 168,353 167,353 166,353 165,353 164,353 163,353 162,353 161,353 160,353 159,353 158,353 157,353 156,353 155,353 154,353 153,353 152,353 151,353 150,353 149,353 148,353 147,353">
      <metadata tailDirection="" confidence="0.84" linkedToCharacter="" id="UltraEleven_181_balloon_0" tailTip=""></metadata>
    </polygon>
  </svg>
</svg>
