<?xml version="1.0" encoding="UTF-8" standalone="no"?>
<svg width="827" xmlns="http://www.w3.org/2000/svg" version="1.0" height="1170">
  <title>UltraEleven_057</title>
  <svg contentScriptType="text/ecmascript" zoomAndPan="magnify" contentStyleType="text/css" class="Page" preserveAspectRatio="xMidYMid meet" version="1.0">
    <image xmlns:xlink="http://www.w3.org/1999/xlink" x="0" y="0" width="827" height="1170" xlink:href="./../../dataset_Manga109/UltraEleven/UltraEleven_057.jpg" xlink:type="simple" xlink:actuate="onLoad" preserveAspectRatio="xMidYMid meet" xlink:show="embed"/>
  </svg>
  <style type="text/css" xml:space="preserve">
        * { stroke-linejoin: round; }
        .Unclassified   { fill: orange; stroke: none;   opacity: 1.0; visibility: hidden; }
        .Noise          { fill: pink;   stroke: none;   opacity: 0.2; visibility: hidden; }
        .Panel          { fill: none;   stroke: red;    stroke-width:3; opacity: 0.5; visibility: visible; image-rendering: optimizeSpeed; }
        .Line           { fill: green;  stroke: none;   opacity: 0.5; visibility: visible; image-rendering: optimizeSpeed; }
        .TextArea       { fill: grey;   stroke: none;   opacity: 0.2; visibility: visible; image-rendering: optimizeSpeed; }
        .Balloon        { fill: cyan;   stroke: none;   opacity: 0.5; visibility: visible; image-rendering: optimizeSpeed; }
        .Letter         { fill: blue;   stroke: none;   opacity: 0.2; visibility: hidden; }
        .Object, .Character, .Face  { fill: yellow; stroke: none;   opacity: 0.5; visibility: visible; image-rendering: optimizeSpeed; }
        .Page           { fill: white;  stroke: none;    opacity: 0.5; visibility: visible; }
        .linkSBSC { fill: blue; stroke: none; opacity: 1.0; visibility: visible; }
        polygon:hover { opacity:1.0; stroke:red; }
</style>
  <svg xmlns="http://www.w3.org/2000/svg" contentScriptType="text/ecmascript" zoomAndPan="magnify" contentStyleType="text/css" class="Balloon" preserveAspectRatio="xMidYMid meet" version="1.0">
    <polygon points="513,41 513,42 513,43 513,44 513,45 512,46 512,47 512,48 512,49 512,50 512,51 512,52 512,53 512,54 512,55 512,56 511,57 511,58 511,59 511,60 511,61 511,62 511,63 511,64 511,65 510,66 510,67 510,68 510,69 510,70 510,71 510,72 510,73 510,74 510,75 510,76 509,77 509,78 510,79 509,80 509,81 509,82 509,83 509,84 509,85 509,86 509,87 508,88 508,89 508,90 508,91 508,92 508,93 508,94 508,95 508,96 507,97 507,98 507,99 507,100 507,101 507,102 507,103 506,104 506,105 506,106 506,107 505,108 505,109 505,110 504,111 503,112 502,113 501,113 500,113 499,113 498,112 497,111 497,110 496,109 496,108 495,107 495,106 495,105 495,104 494,103 494,104 494,105 494,106 494,107 494,108 494,109 493,110 493,111 493,112 493,113 493,114 492,115 492,116 492,117 491,118 491,119 490,120 490,121 489,122 488,123 487,123 486,124 485,124 484,123 483,123 482,122 481,121 480,120 480,119 480,120 480,121 480,122 481,123 481,124 481,125 481,126 481,127 481,128 481,129 481,130 481,131 481,132 480,133 480,134 480,135 480,136 480,137 479,138 478,139 477,140 476,140 475,141 474,141 473,141 472,141 471,141 470,141 469,140 469,141 470,142 470,143 471,144 471,145 471,146 472,147 472,148 473,149 473,150 473,151 473,152 474,153 474,154 474,155 474,156 474,157 474,158 474,159 474,160 474,161 474,162 474,163 473,164 473,165 473,166 472,167 472,168 471,169 471,170 470,171 470,172 469,173 468,174 467,175 466,176 465,176 464,175 464,174 465,173 466,172 466,171 467,170 467,169 466,168 466,167 466,166 466,165 466,164 466,163 465,162 465,161 465,160 465,159 465,158 465,157 464,156 464,155 464,154 464,153 464,152 464,151 464,150 463,149 463,148 463,147 463,146 463,145 463,144 463,143 462,142 462,141 462,140 462,139 462,138 462,137 462,136 462,135 461,134 461,133 461,132 461,131 461,130 461,129 461,128 460,127 460,126 460,125 460,124 460,123 460,122 459,121 459,120 459,119 459,118 459,117 459,116 459,115 458,114 458,113 458,112 458,111 458,110 458,109 458,108 457,107 457,106 457,105 457,104 457,103 457,102 457,101 456,100 456,99 456,98 456,97 456,96 456,95 455,94 455,93 455,92 455,91 455,90 455,89 455,88 454,87 454,86 454,85 454,84 454,83 454,82 454,81 453,80 453,79 453,78 453,77 453,76 453,75 452,74 452,73 452,72 452,71 452,70 452,69 452,68 451,67 451,66 451,65 451,64 451,63 451,62 450,61 450,60 450,59 450,58 450,57 450,56 450,55 449,54 449,53 449,52 449,51 449,50 449,49 448,49 447,49 447,50 447,51 447,52 447,53 447,54 447,55 447,56 448,57 448,58 448,59 448,60 448,61 448,62 449,63 449,64 449,65 448,66 447,65 446,64 446,63 446,62 446,61 446,60 446,59 445,58 445,57 445,56 445,55 445,54 445,53 444,52 443,52 442,53 442,54 442,55 443,56 443,57 443,58 443,59 443,60 443,61 444,62 444,63 444,64 444,65 444,66 444,67 444,68 443,69 442,68 442,67 442,66 442,65 442,64 441,63 441,62 441,61 441,60 441,59 441,58 440,57 440,56 440,55 440,54 439,55 438,56 438,57 437,58 436,58 435,58 434,59 433,59 433,60 433,61 432,62 431,61 430,62 429,62 428,63 428,64 427,65 426,65 425,65 424,66 424,67 424,68 424,69 423,70 422,70 421,71 420,72 420,73 419,74 418,74 417,74 416,75 416,76 416,77 416,78 417,79 417,80 417,81 417,82 418,83 418,84 418,85 418,86 419,87 419,88 419,89 419,90 420,91 420,92 420,93 420,94 420,95 421,96 421,97 421,98 421,99 422,100 422,101 422,102 422,103 422,104 423,105 423,106 423,107 423,108 424,109 424,110 424,111 424,112 425,113 425,114 425,115 425,116 426,117 427,118 428,119 429,120 429,121 429,122 429,123 428,124 428,125 427,126 428,127 428,128 428,129 428,130 429,131 429,132 429,133 429,134 429,135 430,136 430,137 430,138 430,139 430,140 431,141 431,142 431,143 431,144 432,145 432,146 432,147 432,148 432,149 433,150 433,151 433,152 433,153 434,154 434,155 434,156 434,157 435,158 435,159 435,160 435,161 435,162 436,163 436,164 436,165 436,166 437,167 437,168 437,169 437,170 437,171 438,172 438,173 438,174 438,175 439,176 439,177 439,178 439,179 440,179 441,179 442,179 443,179 444,179 445,179 446,179 447,179 448,179 449,178 450,178 451,178 452,178 453,178 454,177 455,177 456,177 457,177 458,177 459,176 460,176 461,176 462,175 463,175 464,175 465,176 464,177 463,178 462,178 461,179 460,179 459,180 458,180 457,180 456,180 455,180 454,180 453,181 452,181 451,181 452,181 453,181 454,182 455,182 456,182 457,183 458,183 459,184 460,184 461,185 462,185 463,186 463,187 463,188 463,189 462,190 462,191 463,191 464,191 465,191 466,191 467,192 468,193 468,194 468,195 469,196 469,197 469,198 469,199 470,200 470,201 470,202 470,203 470,204 470,205 470,206 470,207 470,208 470,209 470,210 470,211 470,212 470,213 470,214 470,215 470,216 470,217 470,218 469,219 469,220 469,221 469,222 469,223 469,224 468,225 468,226 468,227 468,228 468,229 468,230 467,231 467,232 467,233 467,234 466,235 466,236 466,237 467,237 468,238 468,239 469,240 470,241 470,242 471,243 472,244 472,245 472,246 472,247 473,248 474,249 474,250 474,251 474,252 474,253 474,254 474,255 474,256 474,257 474,258 473,259 473,260 473,261 473,262 472,263 472,264 472,265 471,266 471,267 470,268 470,269 469,270 470,270 471,271 471,272 472,273 471,274 471,275 471,276 470,277 470,278 469,279 468,280 468,281 467,282 466,283 465,284 464,285 464,286 463,287 462,288 461,289 462,289 463,288 464,288 465,287 466,287 467,287 468,287 469,287 470,287 471,288 472,288 473,289 473,290 474,291 474,292 474,293 474,294 474,295 473,296 473,297 473,298 473,299 472,300 472,301 472,302 472,303 471,304 471,305 471,306 470,307 470,308 470,309 469,310 469,311 469,312 468,313 469,312 470,311 471,311 472,310 473,310 474,309 475,309 476,309 477,309 478,309 479,309 480,310 481,310 482,311 482,312 483,313 483,314 484,315 484,316 484,317 485,318 485,319 485,320 485,321 485,322 485,323 485,324 485,325 485,326 485,327 485,328 485,329 484,330 484,331 485,330 485,329 486,328 487,327 488,326 489,325 490,324 491,323 492,322 493,322 494,322 495,322 496,323 497,324 497,325 497,326 498,327 498,328 498,329 498,330 498,331 498,332 498,333 498,334 498,335 498,336 498,337 498,338 498,339 498,340 498,341 498,342 498,343 498,344 498,345 498,346 498,347 498,348 498,349 498,350 498,349 499,348 499,347 500,346 500,345 501,344 501,343 502,342 503,341 503,340 504,339 505,338 505,337 506,336 507,335 508,334 509,333 510,333 511,333 512,333 513,334 514,334 515,335 516,336 517,336 518,337 518,338 519,339 520,340 521,341 521,342 522,343 522,344 523,345 523,346 524,347 524,348 524,349 525,350 525,351 526,352 526,353 526,354 527,355 527,356 527,357 528,358 528,359 528,360 529,361 529,362 529,363 529,364 530,365 530,366 530,367 531,368 531,369 531,370 532,371 532,372 532,373 532,374 533,375 533,376 533,377 533,378 534,379 534,380 534,381 535,382 535,383 535,384 535,385 535,384 535,383 535,382 534,381 534,380 534,379 534,378 534,377 534,376 534,375 534,374 534,373 534,372 534,371 534,370 534,369 534,368 534,367 534,366 534,365 534,364 534,363 534,362 534,361 534,360 534,359 534,358 534,357 534,356 534,355 534,354 534,353 534,352 534,351 534,350 534,349 534,348 535,347 535,346 535,345 535,344 535,343 535,342 535,341 536,340 536,339 536,338 537,337 537,336 537,335 538,334 538,333 539,332 539,331 540,330 541,329 542,328 543,328 544,328 545,327 546,327 547,328 548,328 549,328 550,329 551,329 552,330 553,330 554,331 555,332 556,332 557,333 558,334 559,334 558,333 558,332 558,331 558,330 558,329 558,328 558,327 558,326 558,325 558,324 558,323 558,322 558,321 558,320 559,319 559,318 559,317 560,316 560,315 561,314 562,313 563,313 564,313 565,312 566,312 567,312 568,312 569,312 570,312 571,312 572,312 573,312 574,313 575,313 576,313 577,313 578,313 579,314 580,314 580,313 579,313 578,312 578,311 578,310 577,309 576,308 576,307 575,306 575,305 574,304 574,303 574,302 574,301 573,300 573,299 573,298 573,297 573,296 573,295 574,294 574,293 575,292 575,291 576,290 577,289 578,289 579,288 580,288 580,287 579,286 578,285 577,284 576,283 575,282 574,281 574,280 573,279 573,278 573,277 573,276 573,275 572,274 572,273 572,272 572,271 572,270 573,269 573,268 574,267 574,266 575,265 575,264 576,263 577,262 578,262 579,262 580,262 581,262 582,262 583,262 584,262 585,262 584,261 584,260 583,259 583,258 582,257 582,256 581,255 581,254 581,253 580,252 580,251 579,250 579,249 579,248 578,247 578,246 578,245 577,244 577,243 577,242 577,241 577,240 577,239 577,238 577,237 577,236 577,235 578,234 578,233 579,232 580,231 581,230 582,229 583,228 584,227 585,226 586,225 587,224 588,224 589,223 590,222 591,222 592,221 593,221 594,220 595,220 596,219 595,219 594,219 593,219 592,219 591,219 590,219 589,219 588,219 587,218 586,218 585,218 584,217 583,217 582,216 581,215 581,214 581,213 582,212 582,211 583,210 583,209 584,208 585,207 584,207 583,207 582,207 581,208 580,208 579,207 578,207 577,207 576,207 575,206 574,206 573,205 572,204 571,203 571,202 570,201 570,200 570,199 569,198 569,197 569,196 569,195 569,194 569,193 569,192 569,191 569,190 569,189 570,188 571,187 572,186 573,185 574,185 575,184 576,184 575,184 574,184 573,183 572,183 571,182 570,181 569,181 568,180 567,179 567,178 567,177 567,176 567,175 568,174 568,173 569,172 569,171 570,170 571,169 571,168 572,167 572,166 573,165 574,164 574,163 575,162 574,162 573,161 572,161 571,161 570,161 569,160 568,160 567,160 566,159 565,159 564,158 564,157 563,156 562,155 562,154 561,153 561,152 560,151 560,150 559,149 559,148 559,147 559,146 559,145 559,144 559,143 559,142 559,141 559,140 559,139 559,138 559,137 559,136 560,135 560,134 560,133 561,132 561,131 561,130 561,129 562,128 562,127 562,126 563,125 563,124 564,123 565,122 565,121 566,120 566,119 565,119 564,119 563,118 562,118 561,118 560,118 559,118 558,118 557,117 556,117 555,116 554,115 553,114 553,113 553,112 552,111 552,110 552,109 552,108 552,107 552,106 552,105 552,104 552,103 552,102 552,101 552,100 552,99 552,98 553,97 553,96 553,95 553,94 553,93 554,92 553,93 552,94 551,95 551,96 550,97 549,98 548,99 547,100 546,100 545,101 544,102 543,102 542,103 541,103 540,103 539,103 538,103 537,102 536,101 536,100 535,99 535,98 535,97 535,98 535,99 534,100 533,101 533,102 532,103 531,104 530,105 529,105 528,105 527,105 526,104 525,103 524,102 523,101 523,100 522,99 522,98 521,97 521,96 521,95 520,94 520,93 520,92 520,91 519,90 519,89 519,88 519,87 518,86 518,85 518,84 518,83 517,82 517,81 517,80 517,79 517,78 517,77 516,76 516,75 516,74 516,73 516,72 516,71 515,70 515,69 515,68 515,67 515,66 515,65 515,64 514,63 514,62 514,61 514,60 514,59 514,58 514,57 514,56 513,55 513,54 513,53 513,52 513,51 513,50 513,49 513,48 513,47 513,46 513,45 513,44 513,43 513,42 513,41">
      <metadata tailDirection="" confidence="0.81" linkedToCharacter="" id="UltraEleven_057_balloon_0" tailTip=""></metadata>
    </polygon>
  </svg>
</svg>
