<?xml version="1.0" encoding="UTF-8" standalone="no"?>
<svg width="827" xmlns="http://www.w3.org/2000/svg" version="1.0" height="1170">
  <title>UltraEleven_150</title>
  <svg contentScriptType="text/ecmascript" zoomAndPan="magnify" contentStyleType="text/css" class="Page" preserveAspectRatio="xMidYMid meet" version="1.0">
    <image xmlns:xlink="http://www.w3.org/1999/xlink" x="0" y="0" width="827" height="1170" xlink:href="./../../dataset_Manga109/UltraEleven/UltraEleven_150.jpg" xlink:type="simple" xlink:actuate="onLoad" preserveAspectRatio="xMidYMid meet" xlink:show="embed"/>
  </svg>
  <style type="text/css" xml:space="preserve">
        * { stroke-linejoin: round; }
        .Unclassified   { fill: orange; stroke: none;   opacity: 1.0; visibility: hidden; }
        .Noise          { fill: pink;   stroke: none;   opacity: 0.2; visibility: hidden; }
        .Panel          { fill: none;   stroke: red;    stroke-width:3; opacity: 0.5; visibility: visible; image-rendering: optimizeSpeed; }
        .Line           { fill: green;  stroke: none;   opacity: 0.5; visibility: visible; image-rendering: optimizeSpeed; }
        .TextArea       { fill: grey;   stroke: none;   opacity: 0.2; visibility: visible; image-rendering: optimizeSpeed; }
        .Balloon        { fill: cyan;   stroke: none;   opacity: 0.5; visibility: visible; image-rendering: optimizeSpeed; }
        .Letter         { fill: blue;   stroke: none;   opacity: 0.2; visibility: hidden; }
        .Object, .Character, .Face  { fill: yellow; stroke: none;   opacity: 0.5; visibility: visible; image-rendering: optimizeSpeed; }
        .Page           { fill: white;  stroke: none;    opacity: 0.5; visibility: visible; }
        .linkSBSC { fill: blue; stroke: none; opacity: 1.0; visibility: visible; }
        polygon:hover { opacity:1.0; stroke:red; }
</style>
  <svg xmlns="http://www.w3.org/2000/svg" contentScriptType="text/ecmascript" zoomAndPan="magnify" contentStyleType="text/css" class="Balloon" preserveAspectRatio="xMidYMid meet" version="1.0">
    <polygon points="220,924 219,925 218,925 217,926 216,927 215,927 214,928 213,929 212,929 211,930 210,931 209,932 208,933 208,934 207,935 207,936 207,937 207,938 207,939 207,940 207,941 207,942 207,943 206,944 206,945 206,946 206,947 206,948 206,949 206,950 206,951 206,952 206,953 206,954 206,955 206,956 206,957 206,958 206,959 206,960 206,961 206,962 206,963 206,964 206,965 206,966 207,967 206,968 206,969 206,970 207,971 207,972 207,973 207,974 207,975 207,976 207,977 206,978 206,979 206,980 206,981 206,982 206,983 206,984 206,985 206,986 206,987 206,988 206,989 206,990 206,991 206,992 206,993 206,994 206,995 206,996 206,997 206,998 205,999 205,1000 205,1001 205,1002 205,1003 205,1004 205,1005 205,1006 205,1007 205,1008 205,1009 205,1010 205,1011 205,1012 205,1013 205,1014 205,1015 205,1016 205,1017 205,1018 205,1019 205,1020 205,1021 205,1022 205,1023 205,1024 206,1025 206,1026 207,1027 208,1028 208,1029 209,1029 210,1030 211,1031 212,1032 213,1033 214,1033 215,1033 216,1034 217,1034 218,1034 219,1034 220,1034 221,1034 222,1034 223,1034 224,1034 225,1034 226,1035 227,1035 228,1036 229,1037 230,1038 231,1039 231,1038 230,1037 230,1036 231,1035 231,1034 232,1033 233,1033 234,1032 235,1032 236,1032 237,1032 238,1031 239,1031 240,1030 241,1029 242,1028 242,1027 242,1026 243,1025 243,1024 243,1023 243,1022 243,1021 244,1020 244,1019 244,1018 244,1017 244,1016 244,1015 245,1014 245,1013 245,1012 245,1011 245,1010 245,1009 245,1008 245,1007 245,1006 245,1005 245,1004 245,1003 246,1002 246,1001 246,1000 246,999 246,998 246,997 246,996 246,995 246,994 246,993 247,992 247,991 247,990 247,989 247,988 247,987 248,986 248,985 248,984 248,983 248,982 248,981 248,980 248,979 248,978 249,977 249,976 249,975 249,974 249,973 249,972 249,971 249,970 250,969 250,968 250,967 250,966 250,965 250,964 250,963 250,962 250,961 250,960 250,959 251,958 251,957 251,956 251,955 251,954 251,953 250,952 250,951 250,950 250,949 250,948 249,948 248,947 247,947 246,947 245,946 244,945 243,945 242,945 241,944 240,943 239,943 238,942 237,942 236,941 235,940 234,940 233,939 232,939 231,938 230,937 229,936 228,935 228,934 227,933 227,932 227,931 227,930 227,929 227,928 227,927 227,926 227,925 227,924 226,924 225,924 224,924 223,924 222,924 221,924 220,924">
      <metadata tailDirection="" confidence="0.89" linkedToCharacter="" id="UltraEleven_150_balloon_0" tailTip=""></metadata>
    </polygon>
    <polygon points="58,887 58,888 58,889 58,890 58,891 58,892 58,893 58,894 58,895 58,896 58,897 58,898 58,899 58,900 58,901 58,902 58,903 58,904 58,905 58,906 58,907 58,908 58,909 58,910 58,911 58,912 58,913 58,914 58,915 58,916 58,917 58,918 58,919 58,920 58,921 58,922 58,923 58,924 58,925 58,926 58,927 58,928 58,929 58,930 58,931 58,932 58,933 58,934 58,935 58,936 58,937 58,938 58,939 58,940 58,941 58,942 58,943 58,944 58,945 58,946 58,947 58,948 58,949 58,950 58,951 58,952 58,953 58,954 58,955 58,956 58,957 58,958 58,959 58,960 58,961 58,962 58,963 58,964 58,965 58,966 58,967 58,968 58,969 58,970 58,971 58,972 58,973 58,974 58,975 58,976 58,977 58,978 58,979 58,980 58,981 58,982 58,983 58,984 58,985 59,986 59,987 60,988 61,989 61,990 62,991 63,992 64,993 65,994 66,995 67,996 68,997 69,998 70,998 71,998 72,999 73,998 74,998 75,998 76,998 77,998 78,998 79,998 80,998 81,998 82,998 83,998 84,998 85,998 86,998 87,998 88,998 89,997 90,997 91,997 92,997 93,997 94,997 95,997 96,997 97,997 98,997 99,998 100,999 101,1000 102,1001 103,1002 104,1003 105,1002 105,1001 105,1000 106,999 107,998 108,997 109,996 110,995 111,995 112,994 113,994 114,994 115,993 116,993 117,993 118,992 119,992 120,992 121,991 122,991 123,991 124,991 125,990 126,990 127,989 128,989 129,988 130,988 131,988 132,987 133,987 134,986 135,985 136,984 137,983 137,982 138,981 139,980 139,979 140,978 141,977 141,976 142,975 143,974 144,973 145,972 146,971 147,970 147,969 148,968 149,967 149,966 150,965 151,964 151,963 152,962 153,961 154,961 155,962 154,963 154,964 153,965 152,966 152,967 151,968 150,969 150,970 149,971 148,972 149,972 150,971 151,971 152,971 153,971 154,971 155,971 156,971 157,971 158,971 159,971 160,971 161,971 162,971 163,971 164,971 165,972 166,972 167,972 168,973 169,973 170,974 171,974 172,975 173,975 174,976 174,977 174,978 173,979 172,979 171,978 170,978 169,978 168,978 167,978 166,978 165,979 164,979 163,979 162,980 163,980 164,981 165,981 166,982 167,983 168,984 169,985 170,986 171,987 172,987 173,988 174,989 175,990 176,990 177,990 178,991 179,991 180,991 181,991 182,990 183,990 184,990 185,989 186,988 187,988 188,989 187,990 186,991 186,992 185,993 184,994 185,994 186,994 187,994 188,994 189,994 190,993 191,993 192,993 193,993 194,992 195,991 196,991 196,990 197,989 197,988 197,987 198,986 198,985 198,984 198,983 198,982 198,981 198,980 198,979 198,978 198,977 199,976 200,976 201,977 201,978 202,979 202,980 202,981 202,982 202,983 202,984 203,985 203,986 203,987 203,988 203,989 203,988 203,987 203,986 203,985 203,984 203,983 203,982 203,981 203,980 203,979 203,978 203,977 203,976 203,975 203,974 203,973 203,972 203,971 203,970 203,969 203,968 203,967 203,966 203,965 203,964 203,963 203,962 202,961 202,960 202,959 202,958 202,957 202,956 202,955 202,954 202,953 202,952 202,951 203,950 203,949 203,948 203,947 203,946 203,945 203,944 203,943 203,942 203,941 203,940 203,939 203,938 204,937 204,936 204,935 204,934 205,933 205,932 206,931 207,930 208,929 209,928 210,927 211,926 212,926 213,925 214,924 215,924 216,923 217,922 218,922 219,921 220,920 221,920 222,920 223,920 224,920 225,920 226,921 227,921 227,920 227,919 227,918 227,917 227,916 227,915 227,914 227,913 227,912 227,911 227,910 227,909 227,908 227,907 227,906 227,905 227,904 227,903 227,902 228,901 228,900 229,899 230,898 230,897 231,896 232,895 233,894 234,893 235,892 236,891 237,890 238,889 239,888 240,887 241,887 240,887 239,887 238,887 237,887 236,887 235,887 234,887 233,887 232,887 231,887 230,887 229,887 228,887 227,887 226,887 225,887 224,887 223,887 222,887 221,887 220,887 219,887 218,887 217,887 216,887 215,887 214,887 213,887 212,887 211,887 210,887 209,887 208,887 207,887 206,887 205,887 204,887 203,887 202,887 201,887 200,887 199,887 198,887 197,887 196,887 195,887 194,887 193,887 192,887 191,887 190,887 189,887 188,887 187,887 186,887 185,887 184,887 183,887 182,887 181,887 180,887 179,887 178,887 177,887 176,887 175,887 174,887 173,887 172,887 171,887 170,887 169,887 168,887 167,887 166,887 165,887 164,887 163,887 162,887 161,887 160,887 159,887 158,887 157,887 156,887 155,887 154,887 153,887 152,887 151,887 150,887 149,887 148,887 147,887 146,887 145,887 144,887 143,887 144,887 145,887 146,888 147,888 148,889 149,889 150,890 151,890 152,891 153,891 154,892 155,893 156,894 157,894 158,895 159,896 160,897 160,898 161,899 161,900 161,901 162,902 162,903 162,904 162,905 162,906 162,907 163,908 163,909 163,910 163,911 163,912 163,913 163,914 163,915 163,916 163,917 163,918 163,919 163,920 163,921 163,922 163,923 163,924 163,925 163,926 163,927 163,928 163,929 163,930 163,931 163,932 163,933 163,934 163,935 163,936 162,937 162,938 162,939 162,940 162,941 162,942 162,943 161,944 161,945 161,946 161,947 161,948 160,949 160,950 160,951 160,952 159,953 159,954 159,955 159,956 158,957 158,958 158,959 158,960 157,961 157,962 156,963 155,962 154,961 155,960 155,959 155,958 155,957 155,956 156,955 156,954 156,953 156,952 157,951 157,950 157,949 157,948 157,947 158,946 158,945 158,944 158,943 158,942 159,941 159,940 159,939 159,938 159,937 159,936 159,935 159,934 159,933 159,932 159,931 159,930 159,929 159,928 159,927 159,926 159,925 159,924 159,923 159,922 159,921 159,920 159,919 159,918 159,917 159,916 159,915 159,914 160,913 160,912 159,911 159,910 159,909 159,908 159,907 159,906 159,905 159,904 158,903 158,902 158,901 157,900 157,899 156,898 155,897 154,897 153,896 152,895 151,894 150,894 149,893 148,893 147,892 146,892 145,891 144,891 143,890 142,890 141,890 140,889 139,889 138,888 137,888 136,888 135,887 134,887 133,887 132,887 131,887 130,887 129,887 128,887 127,887 126,887 125,887 124,887 123,887 122,887 121,887 120,887 119,887 118,887 117,887 116,887 115,887 114,887 113,887 112,887 111,887 110,887 109,887 108,887 107,887 106,887 105,887 104,887 103,887 102,887 101,887 100,887 99,887 98,887 97,887 96,887 95,887 94,887 93,887 92,887 91,887 90,887 89,887 88,887 87,887 86,887 85,887 84,887 83,887 82,887 81,887 80,887 79,887 78,887 77,887 76,887 75,887 74,887 73,887 72,887 71,887 70,887 69,887 68,887 67,887 66,887 65,887 64,887 63,887 62,887 61,887 60,887 59,887 58,887">
      <metadata tailDirection="" confidence="0.80" linkedToCharacter="" id="UltraEleven_150_balloon_1" tailTip=""></metadata>
    </polygon>
    <polygon points="690,886 689,887 688,888 688,889 687,890 686,891 686,892 685,893 685,894 685,895 684,896 684,897 684,898 684,899 683,900 683,901 683,902 683,903 683,904 683,905 683,906 683,907 683,908 683,909 682,910 682,911 682,912 682,913 682,914 682,915 682,916 682,917 682,918 682,919 682,920 682,921 682,922 682,923 683,924 683,925 683,926 683,927 683,928 683,929 683,930 683,931 683,932 683,933 683,934 683,935 683,936 683,937 683,938 683,939 683,940 683,941 683,942 683,943 683,944 683,945 683,946 683,947 683,948 683,949 683,950 684,951 684,952 684,953 684,954 684,955 684,956 684,957 684,958 684,959 684,960 684,961 684,962 684,963 684,964 684,965 684,966 684,967 684,968 684,969 684,970 684,971 684,972 684,973 684,974 684,975 684,976 684,977 684,978 684,979 684,980 684,981 685,982 685,983 685,984 685,985 685,986 686,987 686,988 687,989 687,990 688,991 689,992 689,993 690,993 691,994 691,995 692,995 693,996 693,997 694,998 695,998 696,999 697,1000 698,1001 699,1001 700,1002 701,1002 702,1002 703,1002 704,1003 705,1003 706,1003 707,1003 708,1003 709,1003 710,1003 711,1003 712,1003 713,1003 714,1003 715,1003 716,1003 717,1003 718,1002 719,1002 720,1002 721,1001 722,1001 723,1000 724,999 725,999 726,998 727,997 728,996 728,995 729,994 729,993 730,992 730,991 731,990 731,989 732,988 732,987 732,986 733,985 733,984 733,983 733,982 733,981 733,980 733,979 734,978 734,977 734,976 734,975 735,974 735,973 735,972 735,971 735,970 735,969 735,968 735,967 735,966 735,965 735,964 735,963 735,962 735,961 735,960 735,959 735,958 735,957 735,956 735,955 735,954 735,953 735,952 735,951 735,950 735,949 735,948 735,947 735,946 735,945 735,944 735,943 735,942 735,941 735,940 735,939 735,938 735,937 735,936 735,935 735,934 735,933 735,932 735,931 735,930 735,929 735,928 735,927 735,926 735,925 735,924 735,923 735,922 735,921 735,920 735,919 736,918 736,917 736,916 736,915 736,914 736,913 736,912 736,911 736,910 736,909 736,908 736,907 736,906 735,905 735,904 735,903 735,902 735,901 735,900 734,899 734,898 734,897 733,896 733,895 733,894 732,893 732,892 731,891 731,890 730,889 729,888 728,887 727,886 726,886 725,886 724,886 723,886 722,886 721,886 720,886 719,886 718,886 717,886 716,886 715,886 714,886 713,886 712,886 711,886 710,886 709,886 708,886 707,886 706,886 705,886 704,886 703,886 702,886 701,886 700,886 699,886 698,886 697,886 696,886 695,886 694,886 693,886 692,886 691,886 690,886">
      <metadata tailDirection="" confidence="0.88" linkedToCharacter="" id="UltraEleven_150_balloon_2" tailTip=""></metadata>
    </polygon>
    <polygon points="456,886 455,887 454,887 453,887 452,887 451,887 450,887 449,887 448,887 447,887 446,887 445,887 444,887 443,887 442,887 441,887 440,887 439,887 438,887 437,887 436,887 435,887 434,887 433,887 432,887 431,887 430,887 429,887 428,887 427,887 426,887 425,887 425,888 425,889 425,890 425,891 425,892 425,893 425,894 425,895 425,896 425,897 425,898 425,899 425,900 425,901 425,902 425,903 425,904 425,905 425,906 425,907 425,908 425,909 425,910 425,911 425,912 425,913 425,914 425,915 425,916 425,917 425,918 425,919 425,920 425,921 425,922 425,923 425,924 425,925 425,926 425,927 425,928 425,929 425,930 425,931 425,932 425,933 425,934 425,935 425,936 425,937 425,938 425,939 425,940 425,941 425,942 425,943 425,944 425,945 425,946 425,947 425,948 425,949 425,950 425,951 425,952 425,953 425,954 425,955 425,956 425,957 425,958 425,959 425,960 425,961 425,962 425,963 425,964 425,965 425,966 425,967 425,968 425,969 425,970 425,971 425,972 425,973 425,974 425,975 425,976 425,977 425,978 425,979 425,980 425,981 425,982 425,983 425,984 425,985 425,986 425,987 425,988 425,989 425,990 425,991 425,992 425,993 425,994 425,995 425,996 425,997 425,998 425,999 425,1000 425,1001 425,1002 425,1003 425,1004 425,1005 425,1006 425,1007 425,1008 425,1009 424,1010 424,1011 424,1012 424,1013 424,1014 424,1015 424,1016 425,1017 426,1018 427,1019 428,1020 429,1020 430,1021 431,1021 432,1022 433,1022 434,1022 435,1023 436,1023 437,1023 438,1023 439,1023 440,1024 441,1024 442,1024 443,1024 444,1023 445,1023 446,1023 447,1023 448,1023 449,1022 450,1022 451,1022 452,1022 453,1021 454,1021 455,1021 456,1021 457,1020 458,1020 459,1019 460,1019 461,1019 462,1018 463,1018 464,1018 465,1017 466,1017 467,1016 468,1016 469,1015 470,1015 471,1014 472,1013 473,1013 474,1012 475,1011 476,1010 476,1009 476,1008 477,1007 477,1006 477,1005 478,1004 478,1003 478,1002 479,1001 479,1000 479,999 480,998 480,997 480,996 480,995 480,994 481,993 481,992 481,991 481,990 481,989 481,988 481,987 481,986 481,985 481,984 481,983 481,982 481,981 481,980 481,979 481,978 481,977 481,976 481,975 481,974 481,973 481,972 481,971 481,970 481,969 481,968 481,967 481,966 481,965 481,964 480,963 480,962 480,961 480,960 480,959 480,958 480,957 480,956 480,955 480,954 480,953 480,952 480,951 480,950 480,949 481,948 481,947 481,946 481,945 481,944 481,943 481,942 481,941 481,940 481,939 481,938 481,937 481,936 481,935 481,934 481,933 481,932 481,931 481,930 481,929 482,928 482,927 482,926 482,925 482,924 482,923 482,922 482,921 482,920 482,919 482,918 482,917 482,916 482,915 482,914 482,913 482,912 482,911 482,910 482,909 482,908 482,907 482,906 482,905 482,904 481,903 481,902 481,901 481,900 481,899 480,898 480,897 479,896 479,895 478,894 478,893 477,892 477,891 476,890 475,889 474,888 473,887 472,886 471,886 470,886 469,886 468,886 467,886 466,886 465,886 464,886 463,886 462,886 461,887 460,887 459,887 458,887 457,886 456,886">
      <metadata tailDirection="" confidence="0.91" linkedToCharacter="" id="UltraEleven_150_balloon_3" tailTip=""></metadata>
    </polygon>
    <polygon points="733,423 732,424 731,425 730,426 729,427 728,428 727,429 726,430 725,431 724,432 723,432 722,433 721,434 720,435 719,436 718,436 717,437 716,438 715,438 714,439 713,440 712,440 711,441 710,441 709,442 708,442 707,442 706,443 705,443 704,443 705,443 706,443 707,443 708,444 708,445 708,446 709,446 710,446 711,447 712,448 712,449 713,450 713,451 714,452 714,453 714,454 714,455 713,456 712,456 712,457 712,458 712,459 712,460 712,461 712,462 711,463 710,463 709,462 708,463 707,464 706,464 705,464 705,465 704,466 703,467 703,468 702,469 702,470 701,471 700,472 699,472 698,473 697,473 696,474 695,474 694,474 695,474 696,474 697,474 698,474 699,474 700,474 701,474 702,474 703,474 704,474 705,474 706,474 707,474 708,474 709,474 710,474 711,474 712,474 713,474 714,474 715,474 716,474 717,474 718,474 719,474 720,474 721,474 722,474 723,474 724,474 725,474 726,474 727,474 728,474 729,474 730,474 731,474 732,474 733,474 733,473 733,472 733,471 733,470 733,469 733,468 733,467 733,466 733,465 733,464 733,463 733,462 733,461 733,460 733,459 733,458 733,457 733,456 733,455 733,454 733,453 733,452 733,451 733,450 733,449 733,448 733,447 733,446 733,445 733,444 733,443 733,442 733,441 733,440 733,439 733,438 733,437 732,437 731,436 731,435 730,434 730,433 731,432 732,432 733,432 733,431 733,430 733,429 733,428 733,427 733,426 733,425 733,424 733,423">
      <metadata tailDirection="" confidence="0.83" linkedToCharacter="" id="UltraEleven_150_balloon_4" tailTip=""></metadata>
    </polygon>
    <polygon points="516,343 515,344 514,345 513,346 512,347 511,348 510,349 510,350 509,351 509,352 509,353 509,354 508,355 508,356 508,357 508,358 508,359 508,360 508,361 508,362 508,363 508,364 508,365 508,366 508,367 508,368 508,369 508,370 508,371 508,372 508,373 508,374 508,375 508,376 508,377 509,378 509,379 509,380 509,381 509,382 509,383 509,384 509,385 509,386 509,387 509,388 509,389 509,390 509,391 509,392 509,393 509,394 509,395 509,396 509,397 509,398 509,399 509,400 509,401 509,402 510,403 510,404 510,405 510,406 510,407 510,408 511,409 511,410 512,411 512,412 513,413 514,414 514,415 515,416 516,417 516,418 517,419 518,420 519,421 520,422 521,423 522,424 523,425 524,426 525,427 526,427 527,428 528,428 529,428 530,428 531,428 532,428 533,428 534,428 535,428 536,428 537,428 538,428 539,428 540,428 541,428 542,428 543,428 544,428 545,427 546,427 547,427 548,426 549,425 550,424 551,423 552,422 553,422 554,422 555,422 556,423 556,422 555,421 556,420 557,419 558,418 559,417 560,416 561,415 561,414 562,413 562,412 562,411 563,410 563,409 563,408 563,407 563,406 563,405 563,404 563,403 564,402 564,401 564,400 564,399 564,398 564,397 565,396 565,395 565,394 565,393 565,392 566,391 566,390 566,389 566,388 566,387 566,386 566,385 566,384 566,383 567,382 567,381 567,380 567,379 567,378 567,377 567,376 567,375 567,374 567,373 567,372 567,371 567,370 567,369 567,368 567,367 567,366 567,365 567,364 567,363 567,362 567,361 567,360 567,359 567,358 567,357 568,356 568,355 568,354 568,353 568,352 567,351 567,350 567,349 566,348 565,347 564,346 563,345 562,344 561,344 560,344 559,344 558,344 557,344 556,344 555,344 554,344 553,344 552,344 551,344 550,344 549,343 548,344 547,343 546,343 545,344 544,344 543,344 542,344 541,344 540,343 539,343 538,343 537,343 536,343 535,343 534,343 533,343 532,343 531,343 530,343 529,343 528,343 527,343 526,343 525,343 524,343 523,343 522,343 521,343 520,343 519,343 518,343 517,343 516,343">
      <metadata tailDirection="" confidence="0.84" linkedToCharacter="" id="UltraEleven_150_balloon_5" tailTip=""></metadata>
    </polygon>
    <polygon points="418,342 417,343 416,343 416,344 416,345 416,346 416,347 416,348 416,349 416,350 416,351 416,352 416,353 416,354 416,355 416,356 416,357 416,358 416,359 416,360 416,361 416,362 416,363 416,364 416,365 416,366 416,367 416,368 416,369 416,370 416,371 416,372 416,373 416,374 416,375 416,376 416,377 416,378 416,379 416,380 416,381 416,382 416,383 416,384 416,385 416,386 416,387 416,388 416,389 416,390 416,391 416,392 416,393 416,394 416,395 416,396 416,397 416,398 416,399 416,400 416,401 416,402 416,403 416,404 416,405 416,406 416,407 416,408 416,409 416,410 416,411 416,412 416,413 416,414 417,414 418,415 419,416 420,417 421,418 422,418 423,419 424,419 425,419 426,419 427,419 428,419 429,418 430,418 431,418 432,417 433,417 434,416 435,416 436,415 437,415 438,414 439,414 440,413 441,413 442,412 443,411 444,411 445,411 446,411 447,410 448,411 449,410 450,409 451,409 452,408 453,408 454,408 455,407 456,407 457,407 458,406 459,406 460,405 461,405 462,405 463,404 464,404 465,403 466,403 467,402 468,401 469,400 469,399 470,398 470,397 471,396 471,395 471,394 471,393 471,392 471,391 471,390 472,389 472,388 472,387 472,386 472,385 472,384 472,383 472,382 472,381 472,380 472,379 472,378 472,377 472,376 472,375 472,374 472,373 472,372 472,371 472,370 472,369 472,368 472,367 472,366 472,365 472,364 472,363 472,362 471,361 471,360 471,359 471,358 471,357 471,356 471,355 470,354 470,353 470,352 470,351 469,350 469,349 468,348 467,347 466,346 465,346 464,345 463,344 462,344 461,344 460,343 459,343 458,343 457,343 456,343 455,343 454,343 453,343 452,343 451,343 450,343 449,343 448,343 447,343 446,343 445,343 444,343 443,343 442,343 441,343 440,343 439,343 438,343 437,343 436,343 435,343 434,342 433,342 432,342 431,343 430,343 429,343 428,343 427,343 426,343 425,343 424,343 423,343 422,342 421,342 420,342 419,342 418,342">
      <metadata tailDirection="" confidence="0.90" linkedToCharacter="" id="UltraEleven_150_balloon_6" tailTip=""></metadata>
    </polygon>
    <polygon points="302,24 301,25 300,25 299,25 298,25 297,25 296,25 295,25 294,25 293,25 292,25 291,25 290,25 289,25 288,25 287,26 286,26 285,26 284,26 283,26 282,26 281,26 280,26 279,26 278,26 277,26 276,27 275,27 274,27 273,28 272,28 271,28 270,29 269,29 268,30 267,30 266,31 265,32 264,32 263,33 262,33 261,34 260,34 259,35 258,36 257,36 256,37 255,38 254,38 253,39 252,40 251,41 250,42 249,42 248,43 247,44 246,45 245,45 244,46 243,47 242,48 241,49 240,50 239,51 238,51 237,52 236,53 236,54 235,55 234,56 234,57 234,58 234,59 234,60 233,61 233,62 233,63 232,64 232,65 232,66 231,67 231,68 231,69 231,70 230,71 230,72 230,73 230,74 229,75 229,76 229,77 229,78 228,79 228,80 228,81 228,82 227,83 227,84 227,85 227,86 226,87 226,88 226,89 226,90 226,91 225,92 225,93 225,94 225,95 224,96 224,97 224,98 224,99 224,100 224,101 223,102 223,103 223,104 223,105 222,106 222,107 222,108 222,109 222,110 222,111 222,112 221,113 221,114 221,115 221,116 221,117 221,118 221,119 221,120 220,121 220,122 220,123 220,124 220,125 220,126 220,127 220,128 221,129 221,130 221,131 221,132 221,133 221,134 222,135 222,136 223,137 223,138 223,139 223,140 223,141 224,142 224,143 224,144 224,145 224,146 225,147 225,148 225,149 226,150 226,151 226,152 226,153 227,154 227,155 227,156 228,157 228,158 228,159 229,160 229,161 229,162 229,163 230,164 230,165 231,166 231,167 231,168 232,169 232,170 233,171 233,172 234,173 234,174 234,175 235,176 236,177 236,178 237,179 237,180 238,181 238,182 239,183 240,184 240,185 241,186 241,187 242,188 243,189 244,190 245,191 246,192 247,192 248,193 249,193 250,194 251,194 252,195 253,196 254,196 255,197 256,198 257,198 258,199 259,199 260,200 261,200 262,201 263,202 264,202 265,203 266,203 267,204 268,204 269,204 270,205 271,206 272,206 273,207 274,208 275,208 276,209 277,209 278,210 279,211 280,211 281,212 282,212 283,213 284,213 285,213 286,214 287,214 288,214 289,214 290,214 291,214 292,214 293,214 294,214 295,214 296,214 297,214 298,214 299,213 300,213 301,213 302,213 303,213 304,213 305,214 306,215 306,216 306,217 306,218 307,217 308,216 309,215 310,214 311,213 312,212 313,211 314,211 315,210 316,209 317,209 318,208 319,208 320,208 321,207 322,207 323,207 324,206 325,206 326,206 327,205 328,205 329,205 330,204 331,204 332,204 333,203 334,203 335,203 336,203 337,202 338,202 339,202 340,201 341,201 342,201 343,200 344,200 345,200 346,199 347,199 348,198 349,197 350,196 351,195 352,194 353,193 354,192 355,191 356,190 357,189 358,188 359,187 360,186 361,185 362,184 363,185 363,186 362,187 361,188 360,189 359,190 358,191 357,192 356,193 355,194 354,195 353,196 354,196 355,196 356,196 357,196 358,196 359,196 360,196 361,196 361,195 361,194 361,193 361,192 361,191 361,190 361,189 361,188 362,187 363,188 363,189 363,190 363,191 363,192 363,193 363,194 363,195 363,196 364,197 364,196 364,195 364,194 364,193 364,192 364,191 364,190 364,189 364,188 364,187 364,186 364,185 365,184 364,184 363,185 362,184 362,183 363,182 364,181 364,180 365,179 364,178 364,177 365,176 364,175 365,174 365,173 365,172 365,171 365,170 365,169 365,168 365,167 365,166 365,165 365,164 365,163 365,162 365,161 364,160 364,159 364,158 364,157 364,156 364,155 364,154 365,153 365,152 364,151 364,150 365,149 365,148 365,147 365,146 365,145 364,144 364,143 364,142 365,141 365,140 365,139 365,138 365,137 365,136 365,135 365,134 365,133 365,132 365,131 365,130 365,129 365,128 365,127 365,126 365,125 365,124 365,123 365,122 365,121 365,120 365,119 365,118 365,117 365,116 365,115 365,114 365,113 365,112 365,111 365,110 365,109 365,108 365,107 365,106 365,105 365,104 365,103 365,102 365,101 365,100 365,99 365,98 365,97 365,96 365,95 365,94 365,93 365,92 365,91 365,90 365,89 365,88 365,87 365,86 365,85 365,84 365,83 365,82 365,81 365,80 365,79 365,78 365,77 365,76 365,75 365,74 365,73 365,72 365,71 365,70 365,69 365,68 365,67 365,66 365,65 365,64 365,63 365,62 365,61 365,60 365,59 365,58 365,57 365,56 365,55 365,54 365,53 365,52 365,51 365,50 364,49 363,48 363,47 362,46 361,45 360,44 359,44 358,43 357,42 356,41 355,40 354,39 353,38 352,37 351,37 350,36 349,35 348,35 347,34 346,34 345,33 344,32 343,32 342,31 341,30 340,30 339,29 338,29 337,28 336,28 335,28 334,28 333,27 332,27 331,27 330,27 329,27 328,27 327,26 326,26 325,26 324,26 323,26 322,26 321,26 320,26 319,26 318,26 317,25 316,25 315,25 314,25 313,25 312,25 311,25 310,25 309,25 308,25 307,24 306,24 305,24 304,24 303,24 302,24">
      <metadata tailDirection="" confidence="0.86" linkedToCharacter="" id="UltraEleven_150_balloon_7" tailTip=""></metadata>
    </polygon>
    <polygon points="113,524 112,525 111,525 110,526 109,526 108,527 107,527 106,528 105,529 104,530 103,531 102,532 101,533 101,534 100,535 99,536 98,537 98,538 97,539 96,540 95,541 94,542 94,543 93,544 92,545 92,546 91,547 91,548 91,549 90,550 90,551 90,552 89,553 89,554 89,555 89,556 89,557 89,558 89,559 89,560 89,561 89,562 89,563 89,564 89,565 89,566 89,567 89,568 89,569 88,570 88,571 88,572 88,573 88,574 88,575 88,576 88,577 88,578 88,579 88,580 88,581 88,582 88,583 88,584 88,585 88,586 88,587 88,588 88,589 88,590 88,591 88,592 88,593 88,594 88,595 88,596 88,597 89,598 89,599 89,600 89,601 89,602 89,603 89,604 89,605 89,606 89,607 89,608 89,609 89,610 89,611 89,612 89,613 89,614 89,615 89,616 89,617 89,618 89,619 90,620 90,621 90,622 90,623 90,624 90,625 90,626 90,627 90,628 90,629 90,630 90,631 90,632 90,633 90,634 90,635 91,636 91,637 91,638 91,639 91,640 91,641 91,642 91,643 91,644 91,645 91,646 91,647 91,648 91,649 91,650 92,651 92,652 92,653 92,654 93,655 93,656 93,657 94,658 95,659 95,660 96,661 97,662 97,663 98,663 99,664 100,665 101,666 102,667 103,667 104,668 105,668 106,669 107,669 108,670 109,670 110,671 111,671 112,672 113,672 114,672 115,672 116,673 117,673 118,673 119,673 120,673 121,673 122,673 123,673 124,673 125,673 126,672 127,672 128,672 129,671 130,671 131,671 132,670 133,670 134,669 135,669 136,668 137,667 138,666 138,665 139,664 139,663 140,662 140,661 141,660 141,659 141,658 142,657 142,656 142,655 142,654 142,653 143,652 143,651 143,650 143,649 143,648 143,647 144,646 144,645 144,644 144,643 144,642 144,641 144,640 144,639 144,638 144,637 145,636 145,635 145,634 145,633 145,632 145,631 145,630 145,629 145,628 145,627 145,626 145,625 145,624 145,623 145,622 145,621 145,620 145,619 145,618 145,617 145,616 145,615 145,614 145,613 145,612 145,611 145,610 145,609 145,608 145,607 145,606 145,605 145,604 145,603 145,602 145,601 145,600 145,599 145,598 145,597 145,596 145,595 145,594 145,593 145,592 145,591 145,590 145,589 145,588 145,587 145,586 145,585 145,584 145,583 145,582 145,581 145,580 145,579 145,578 145,577 145,576 145,575 145,574 145,573 145,572 145,571 145,570 145,569 145,568 145,567 145,566 145,565 145,564 145,563 145,562 145,561 144,560 144,559 144,558 144,557 144,556 144,555 144,554 144,553 144,552 144,551 144,550 144,549 144,548 143,547 143,546 143,545 143,544 143,543 143,542 142,541 142,540 142,539 142,538 142,537 141,536 141,535 141,534 140,533 140,532 139,531 138,530 137,529 136,529 135,528 134,527 133,527 132,527 131,526 130,526 129,525 128,525 127,525 126,525 125,524 124,524 123,524 122,524 121,524 120,524 119,524 118,524 117,524 116,524 115,524 114,524 113,524">
      <metadata tailDirection="" confidence="0.99" linkedToCharacter="" id="UltraEleven_150_balloon_8" tailTip=""></metadata>
    </polygon>
    <polygon points="604,521 603,522 602,522 601,523 600,523 599,524 598,524 597,525 596,525 595,526 594,526 593,527 592,527 591,528 590,529 589,529 588,530 587,531 586,532 585,533 584,533 584,534 583,535 583,536 582,537 582,538 581,539 581,540 581,541 580,542 580,543 579,544 579,545 579,546 578,547 578,548 578,549 577,550 577,551 577,552 576,553 576,554 576,555 575,556 575,557 574,558 574,559 574,560 573,561 573,562 573,563 573,564 572,565 572,566 571,567 571,568 571,569 571,570 570,571 570,572 570,573 570,574 570,575 570,576 570,577 570,578 570,579 570,580 570,581 570,582 571,583 571,584 571,585 572,586 572,587 572,588 572,589 573,590 573,591 573,592 574,593 574,594 574,595 575,596 575,597 576,598 576,599 577,600 577,601 578,602 578,603 579,604 579,605 580,606 581,607 581,608 582,609 583,610 584,611 585,612 586,612 587,612 588,613 589,613 590,613 591,614 592,614 593,615 594,615 595,615 596,616 597,616 598,616 599,617 600,617 601,617 602,617 603,618 604,618 605,618 606,619 607,619 608,620 609,620 610,620 611,621 612,621 613,621 614,621 615,622 615,623 614,624 613,624 612,624 611,625 611,626 610,627 610,628 610,629 609,630 609,631 609,632 608,633 608,634 608,635 607,636 607,637 607,638 606,639 606,640 606,641 605,642 604,642 603,641 604,640 604,639 604,638 605,637 605,636 605,635 605,634 605,633 606,632 606,631 606,630 605,630 605,631 604,632 604,633 605,634 604,635 603,636 603,637 602,638 601,637 601,636 601,635 602,634 602,633 601,634 601,635 601,636 601,637 600,638 600,639 599,640 600,640 600,639 600,638 601,637 602,638 602,639 602,640 602,641 601,642 600,642 599,642 599,643 598,644 598,645 597,646 597,647 597,648 597,649 598,650 599,651 600,652 600,653 601,654 602,655 603,656 603,657 604,658 604,659 604,660 605,661 605,662 605,663 605,662 605,661 605,660 605,659 605,658 605,657 605,656 604,655 604,654 604,653 604,652 603,651 603,650 603,649 602,648 602,647 602,646 603,645 604,646 605,647 605,648 606,649 606,650 607,651 607,652 608,653 608,654 608,655 608,656 609,657 610,658 610,659 609,660 609,661 609,662 609,663 609,664 609,665 609,666 609,667 608,668 608,669 607,670 606,669 606,668 606,669 606,670 605,671 604,671 603,670 603,669 603,668 603,667 603,666 603,665 602,664 602,663 602,662 602,661 601,660 601,659 600,658 600,657 599,656 598,655 597,654 596,653 595,652 594,651 593,650 594,651 594,652 595,653 596,654 596,655 597,656 598,657 598,658 598,659 599,660 599,661 599,662 600,663 599,664 599,665 598,666 597,666 596,666 595,667 594,668 595,669 595,670 594,671 593,670 592,669 591,668 590,667 589,666 589,665 588,664 587,663 586,662 585,661 584,660 583,660 582,659 581,659 580,658 579,658 578,657 577,657 576,656 575,656 574,655 573,655 572,655 571,654 570,654 569,654 568,654 567,653 566,653 565,653 564,653 563,652 562,652 561,652 560,652 559,652 558,652 557,652 556,652 555,652 554,653 553,653 552,653 551,654 550,654 549,654 548,654 547,655 546,655 545,655 544,656 543,656 542,656 541,657 540,657 539,657 538,658 537,658 538,658 539,658 540,657 541,657 542,657 543,657 544,657 545,657 546,657 547,656 548,656 549,656 550,656 551,656 552,656 553,656 554,656 555,656 556,656 557,657 558,657 559,657 560,657 561,657 562,657 563,658 564,658 565,658 566,659 567,659 568,660 569,660 570,661 571,662 572,662 573,663 574,664 574,665 575,666 575,667 575,668 574,669 574,670 573,671 572,672 571,672 570,672 569,672 568,672 567,672 566,673 565,673 564,673 563,672 562,672 561,671 560,671 559,671 558,671 557,671 556,671 555,671 554,671 553,671 552,671 551,670 550,670 549,670 548,670 547,670 546,670 545,670 544,670 543,669 542,669 541,669 540,669 539,669 538,669 537,669 536,669 535,669 534,669 533,669 532,669 531,669 530,669 529,669 528,669 527,669 526,669 525,670 524,670 523,671 522,671 521,672 520,672 519,673 518,673 517,674 516,674 515,675 514,676 513,676 512,677 511,677 510,678 509,679 508,680 507,681 506,681 505,682 504,683 503,684 502,684 501,685 500,686 499,687 498,688 497,689 496,690 495,691 495,692 494,693 493,694 492,695 491,696 490,697 490,698 489,699 488,700 487,701 487,702 486,703 485,704 484,705 485,704 486,703 487,702 488,701 489,701 489,700 490,699 491,698 492,697 493,697 494,696 495,695 496,694 497,694 498,693 499,692 500,692 501,691 502,691 503,690 504,690 505,689 506,689 507,689 508,688 509,688 510,688 511,688 510,688 509,688 508,688 507,688 506,688 505,688 504,687 505,686 506,685 507,685 508,685 509,685 510,684 511,684 512,684 513,684 514,684 515,684 516,684 517,684 518,684 519,684 520,684 521,684 522,684 523,684 524,684 525,685 526,685 527,686 527,687 528,688 528,689 529,690 528,691 527,692 526,693 525,694 524,694 523,695 522,695 521,696 520,696 519,697 518,697 517,697 516,697 515,698 514,698 513,699 512,699 511,700 510,701 509,701 508,702 507,703 506,704 505,705 504,706 503,707 502,708 501,709 500,710 500,711 499,712 498,713 498,714 497,715 496,716 496,717 495,718 495,719 494,720 494,721 493,722 492,723 492,724 492,725 492,726 491,727 491,728 491,729 491,730 491,731 490,732 490,733 490,734 490,735 490,736 490,737 490,738 490,739 490,740 490,741 490,742 490,743 491,744 491,745 491,746 491,747 491,748 491,749 491,750 491,751 492,752 492,753 492,754 492,755 493,756 493,757 493,758 493,759 494,760 494,761 495,762 495,763 495,764 496,765 496,766 497,767 497,768 498,769 498,770 499,771 499,772 500,773 501,774 502,775 502,776 503,777 504,778 504,777 504,776 503,775 503,774 503,773 503,772 503,771 502,770 502,769 502,768 502,767 502,766 502,765 502,764 502,763 502,762 502,761 502,760 502,759 502,758 502,757 502,756 502,755 501,754 501,753 502,752 502,751 502,750 502,749 502,748 502,747 503,746 503,745 503,744 503,743 504,742 504,741 505,740 505,739 505,738 504,739 503,740 503,741 502,742 502,743 502,744 501,745 501,746 501,747 500,748 500,749 500,750 500,751 500,752 499,753 499,754 499,755 499,756 499,757 499,758 499,759 499,760 499,761 498,762 497,761 496,760 496,759 495,758 495,757 495,756 495,755 495,754 494,753 494,752 494,751 494,750 494,749 494,748 494,747 493,746 493,745 493,744 494,743 494,742 494,741 494,740 494,739 495,738 495,737 495,736 495,735 495,734 496,733 496,732 496,731 497,730 498,729 498,728 499,727 499,726 499,725 500,724 500,723 501,722 502,721 502,720 502,719 503,718 503,717 502,718 501,719 500,719 499,718 500,717 500,716 501,715 502,714 503,713 504,712 505,711 506,710 507,709 508,708 509,707 510,706 511,705 512,705 513,704 514,703 515,703 516,702 517,702 518,701 519,701 520,701 521,700 522,700 523,700 524,699 525,699 526,699 527,699 528,699 529,699 530,699 531,699 532,699 533,699 534,699 535,699 536,699 537,699 538,699 539,699 540,700 541,700 542,700 543,700 542,699 541,699 540,698 539,697 538,697 537,697 536,696 535,696 534,695 535,694 536,694 537,694 538,694 539,694 540,694 539,693 538,693 537,692 536,691 537,690 538,690 539,691 540,691 541,692 542,692 541,691 540,690 539,690 538,689 537,688 536,688 535,687 534,687 533,686 532,686 531,685 530,685 529,684 528,684 527,683 528,682 529,682 530,682 529,682 528,681 529,680 530,680 531,680 532,680 533,680 534,681 535,681 534,681 533,680 534,679 535,679 536,679 537,679 538,680 539,680 540,679 541,679 542,679 543,679 544,679 545,679 546,679 547,679 548,679 549,679 550,680 551,680 552,680 553,681 554,681 555,681 556,682 557,682 558,683 559,684 560,684 561,685 562,686 563,687 564,687 565,688 565,689 566,690 567,691 568,692 569,693 569,694 570,695 570,694 570,693 570,692 570,691 569,690 569,689 568,688 568,687 568,686 567,685 567,684 566,683 565,682 565,681 564,680 563,679 562,678 561,677 560,676 559,675 558,674 559,673 560,673 561,673 562,674 563,674 564,675 565,676 566,676 567,677 568,678 569,679 570,680 569,679 569,678 569,677 570,676 571,677 571,678 572,679 573,679 574,678 575,679 576,680 577,681 577,682 578,683 578,684 579,685 579,686 580,687 580,688 580,689 580,690 581,691 581,692 581,691 581,690 581,689 581,688 581,687 581,686 581,685 581,684 581,683 581,682 581,681 581,680 581,679 581,678 581,677 581,676 581,675 580,674 580,673 580,672 580,671 579,670 579,669 578,668 578,667 577,666 577,665 577,664 578,663 579,663 580,664 580,665 581,666 582,667 582,668 583,669 584,670 584,671 585,672 586,673 587,674 587,675 588,676 588,677 589,678 590,678 591,679 592,680 592,681 593,682 594,682 594,681 595,680 595,679 595,678 596,677 596,676 596,675 597,674 597,673 597,672 597,671 597,670 597,669 598,668 599,668 600,669 600,670 600,671 601,672 601,673 601,674 601,675 601,676 601,677 601,678 601,679 601,680 600,681 600,682 601,681 602,680 602,679 603,678 603,677 604,676 605,677 605,678 605,679 605,680 604,681 604,682 604,683 603,684 604,684 605,685 605,686 604,687 604,688 603,689 602,690 601,691 601,692 600,693 599,693 598,694 597,695 596,696 595,697 594,697 593,698 592,699 591,699 590,699 591,699 592,699 593,698 594,698 595,698 596,698 597,697 598,697 599,696 600,696 601,696 602,695 603,695 604,694 605,694 606,695 605,696 604,697 603,697 602,698 603,698 604,697 605,697 606,697 607,698 606,699 605,700 604,700 603,701 602,702 601,702 600,703 601,703 602,703 603,702 604,702 605,702 606,702 607,703 606,704 605,704 604,705 603,705 604,705 605,705 606,705 607,704 608,704 609,704 610,704 611,705 610,706 609,707 608,707 607,708 606,708 605,708 606,708 607,708 608,708 609,708 610,708 611,708 612,708 613,707 614,708 615,708 616,708 617,708 618,708 619,707 620,707 621,707 622,707 623,706 624,706 625,706 626,706 627,705 628,705 629,704 630,704 631,704 632,703 633,703 634,702 635,702 636,701 637,701 638,700 639,700 640,701 639,702 638,703 637,704 636,704 635,705 634,706 633,706 632,707 631,707 630,708 631,708 632,707 633,707 634,707 635,708 634,709 633,709 632,710 631,711 630,711 629,711 629,712 628,713 627,714 626,714 627,714 628,715 629,715 630,715 631,714 632,714 633,715 632,716 631,717 632,718 631,719 630,720 629,720 628,721 627,721 628,722 627,723 626,723 627,723 628,723 629,723 630,722 631,722 632,722 633,723 632,724 631,724 630,725 629,725 628,726 627,726 626,726 625,727 624,727 625,727 626,727 627,727 628,726 629,726 630,726 631,726 632,726 633,726 634,725 635,725 636,725 637,726 636,727 635,727 634,728 633,728 632,729 631,729 632,729 633,728 634,728 635,728 636,728 637,727 638,727 639,727 640,728 639,729 640,729 641,729 642,728 643,728 644,728 645,729 644,730 643,730 642,731 641,731 640,732 641,731 642,731 643,731 644,732 643,733 642,734 641,734 640,735 640,736 639,737 638,737 639,737 640,738 639,739 639,740 640,741 639,742 638,743 637,744 636,745 635,746 636,746 637,745 638,744 639,743 640,743 641,742 642,741 642,740 643,739 643,738 644,737 645,736 645,735 646,734 646,733 647,732 647,731 647,730 648,729 649,730 650,729 650,728 651,727 651,726 652,725 652,724 653,723 653,722 654,721 654,720 655,719 655,718 656,717 656,716 656,715 657,714 657,713 657,712 658,711 657,712 657,713 656,714 655,715 655,716 654,717 654,718 653,719 652,720 651,721 651,722 650,723 649,724 648,725 647,725 646,725 645,725 644,725 643,724 642,723 642,722 643,721 643,720 644,719 645,718 645,717 644,716 644,715 645,714 645,713 645,712 646,711 646,710 647,709 647,708 648,707 648,706 647,707 646,708 645,708 644,707 645,706 645,705 646,704 646,703 647,702 648,701 648,700 649,699 650,698 650,697 651,696 651,695 652,694 652,693 653,692 653,691 654,690 654,689 655,688 655,687 655,686 656,685 656,684 656,683 656,682 657,681 656,681 655,682 655,683 654,684 653,684 652,685 651,686 650,686 649,687 648,687 647,688 646,688 645,688 644,688 643,688 642,688 641,688 640,688 639,687 638,687 637,686 636,686 635,685 634,684 633,683 632,682 631,681 630,680 629,679 628,678 627,677 626,676 625,676 624,675 623,675 622,674 621,674 620,674 619,674 618,674 617,674 616,675 615,675 614,675 613,675 612,674 611,674 610,673 610,672 611,671 612,670 611,670 610,671 609,672 608,672 607,671 607,670 608,669 609,668 610,667 610,666 610,665 611,664 611,663 611,662 612,661 612,660 613,659 613,658 614,657 615,658 615,659 615,660 614,661 614,662 614,663 613,664 613,665 614,665 615,664 616,664 617,664 618,663 619,663 619,662 620,661 620,660 620,659 621,658 622,657 623,658 623,659 622,660 622,661 622,662 621,663 622,662 622,661 623,660 623,659 623,658 624,657 625,656 625,655 625,654 626,653 627,652 627,651 627,650 628,649 628,648 629,647 629,646 630,645 630,644 630,643 631,642 631,641 631,640 632,639 631,640 631,641 631,642 630,643 629,644 629,645 629,646 628,647 627,648 626,647 626,646 626,645 627,644 627,643 627,642 626,641 627,640 628,640 628,639 627,638 627,637 627,636 627,635 627,634 628,633 628,632 629,631 629,630 629,629 629,628 629,629 628,630 628,631 628,632 627,633 627,634 626,635 626,636 625,637 625,638 624,639 624,640 624,641 623,642 623,643 622,644 622,645 621,646 621,647 621,648 620,649 619,650 619,651 618,652 618,653 617,654 617,655 617,656 616,657 615,658 614,657 614,656 614,655 615,654 615,653 615,652 614,651 615,650 616,650 616,649 615,648 616,647 616,646 616,645 616,644 617,643 617,642 617,641 617,640 617,641 617,642 616,643 616,644 616,645 615,646 614,647 614,648 614,649 613,650 612,649 612,648 612,647 612,646 613,645 613,644 613,643 614,642 614,641 614,640 615,639 615,638 615,637 616,636 616,635 616,634 617,633 617,632 617,631 618,630 618,629 618,628 618,627 619,626 619,625 618,625 618,626 617,627 616,626 616,625 616,624 615,623 616,622 617,622 618,622 619,622 620,622 621,622 622,622 623,622 624,621 625,621 626,621 627,621 628,620 629,619 630,619 631,618 632,618 633,617 634,616 635,616 636,615 637,614 638,613 639,612 640,611 641,610 642,609 643,608 643,607 644,606 645,605 646,604 646,603 647,602 648,601 648,600 649,599 649,598 650,597 651,596 651,595 652,594 652,593 653,592 653,591 654,590 654,589 655,588 655,587 656,586 656,585 656,584 657,583 657,582 657,581 657,580 657,579 657,578 657,577 657,576 658,575 658,574 658,573 658,572 657,571 657,570 657,569 657,568 657,567 657,566 657,565 656,564 656,563 656,562 656,561 656,560 655,559 655,558 655,557 655,556 654,555 654,554 654,553 654,552 653,551 653,550 653,549 653,548 652,547 652,546 651,545 651,544 651,543 651,542 650,541 650,540 649,539 649,538 649,537 648,536 648,535 647,534 647,533 646,532 645,531 645,530 644,529 643,528 642,527 641,527 640,526 639,526 638,525 637,524 636,524 635,524 634,524 633,523 632,523 631,523 630,523 629,522 628,522 627,522 626,522 625,522 624,522 623,521 622,521 621,521 620,521 619,521 618,521 617,521 616,521 615,521 614,521 613,521 612,521 611,521 610,521 609,521 608,521 607,521 606,521 605,521 604,521">
      <metadata tailDirection="" confidence="0.80" linkedToCharacter="" id="UltraEleven_150_balloon_9" tailTip=""></metadata>
    </polygon>
    <polygon points="691,509 690,510 689,510 688,510 687,510 686,510 685,510 684,510 683,511 682,511 681,512 680,513 679,513 678,514 677,515 676,516 675,516 674,517 673,518 672,519 672,520 671,521 670,522 670,523 669,524 669,525 669,526 668,527 668,528 668,529 668,530 668,531 668,532 668,533 667,534 667,535 667,536 667,537 667,538 667,539 667,540 667,541 667,542 667,543 667,544 667,545 667,546 667,547 667,548 666,549 666,550 666,551 666,552 666,553 666,554 666,555 666,556 666,557 666,558 666,559 666,560 666,561 666,562 666,563 666,564 666,565 667,566 667,567 667,568 667,569 668,570 668,571 669,572 670,573 671,574 672,575 673,575 674,576 675,576 676,577 677,577 678,578 679,578 680,579 681,579 682,579 683,580 684,580 685,580 686,580 687,581 688,581 689,581 690,581 691,581 692,581 693,581 694,581 695,581 696,581 697,581 698,580 699,580 700,580 701,580 702,579 703,579 704,579 705,578 706,578 707,577 708,577 709,576 710,576 711,575 712,574 713,573 714,572 714,571 715,570 715,569 716,568 716,567 717,566 717,565 717,564 718,563 718,562 718,561 718,560 718,559 718,558 719,557 719,556 719,555 719,554 719,553 719,552 720,551 720,550 720,549 720,548 720,547 720,546 720,545 720,544 720,543 720,542 719,541 719,540 719,539 719,538 719,537 719,536 719,535 718,534 718,533 718,532 718,531 717,530 717,529 717,528 716,527 716,526 715,525 715,524 714,523 714,522 713,521 712,520 712,519 711,518 710,517 709,516 708,515 707,514 706,513 705,513 704,512 703,511 702,511 701,511 700,510 699,510 698,510 697,510 696,509 695,509 694,509 693,509 692,509 691,509">
      <metadata tailDirection="" confidence="0.99" linkedToCharacter="" id="UltraEleven_150_balloon_10" tailTip=""></metadata>
    </polygon>
  </svg>
</svg>
