<?xml version="1.0" encoding="UTF-8" standalone="no"?>
<svg width="827" xmlns="http://www.w3.org/2000/svg" version="1.0" height="1170">
  <title>UltraEleven_135</title>
  <svg contentScriptType="text/ecmascript" zoomAndPan="magnify" contentStyleType="text/css" class="Page" preserveAspectRatio="xMidYMid meet" version="1.0">
    <image xmlns:xlink="http://www.w3.org/1999/xlink" x="0" y="0" width="827" height="1170" xlink:href="./../../dataset_Manga109/UltraEleven/UltraEleven_135.jpg" xlink:type="simple" xlink:actuate="onLoad" preserveAspectRatio="xMidYMid meet" xlink:show="embed"/>
  </svg>
  <style type="text/css" xml:space="preserve">
        * { stroke-linejoin: round; }
        .Unclassified   { fill: orange; stroke: none;   opacity: 1.0; visibility: hidden; }
        .Noise          { fill: pink;   stroke: none;   opacity: 0.2; visibility: hidden; }
        .Panel          { fill: none;   stroke: red;    stroke-width:3; opacity: 0.5; visibility: visible; image-rendering: optimizeSpeed; }
        .Line           { fill: green;  stroke: none;   opacity: 0.5; visibility: visible; image-rendering: optimizeSpeed; }
        .TextArea       { fill: grey;   stroke: none;   opacity: 0.2; visibility: visible; image-rendering: optimizeSpeed; }
        .Balloon        { fill: cyan;   stroke: none;   opacity: 0.5; visibility: visible; image-rendering: optimizeSpeed; }
        .Letter         { fill: blue;   stroke: none;   opacity: 0.2; visibility: hidden; }
        .Object, .Character, .Face  { fill: yellow; stroke: none;   opacity: 0.5; visibility: visible; image-rendering: optimizeSpeed; }
        .Page           { fill: white;  stroke: none;    opacity: 0.5; visibility: visible; }
        .linkSBSC { fill: blue; stroke: none; opacity: 1.0; visibility: visible; }
        polygon:hover { opacity:1.0; stroke:red; }
</style>
  <svg xmlns="http://www.w3.org/2000/svg" contentScriptType="text/ecmascript" zoomAndPan="magnify" contentStyleType="text/css" class="Balloon" preserveAspectRatio="xMidYMid meet" version="1.0">
    <polygon points="329,730 328,731 327,732 326,732 325,733 324,734 323,735 322,736 321,737 320,738 319,739 319,740 318,741 317,742 317,743 316,744 315,745 315,746 314,747 314,748 313,749 313,750 312,751 311,752 311,753 311,754 310,755 310,756 309,757 309,758 309,759 308,760 308,761 307,762 307,763 307,764 307,765 306,766 306,767 306,768 305,769 305,770 305,771 305,772 304,773 304,774 304,775 304,776 304,777 303,778 303,779 303,780 303,781 303,782 303,783 302,784 302,785 302,786 302,787 302,788 302,789 302,790 302,791 301,792 301,793 301,794 301,795 301,796 301,797 301,798 301,799 301,800 301,801 301,802 300,803 300,804 300,805 300,806 300,807 300,808 300,809 300,810 300,811 300,812 300,813 300,814 300,815 300,816 300,817 300,818 300,819 300,820 300,821 300,822 300,823 300,824 300,825 301,826 301,827 301,828 301,829 301,830 301,831 301,832 301,833 302,834 302,835 302,836 302,837 302,838 303,839 303,840 303,841 303,842 304,843 304,844 304,845 304,846 304,847 305,848 305,849 305,850 306,851 306,852 306,853 307,854 307,855 307,856 308,857 308,858 309,859 309,860 309,861 310,862 310,863 311,864 311,865 311,866 312,867 312,868 313,869 313,870 314,871 314,872 315,873 316,874 316,875 317,876 318,877 318,878 319,879 320,880 321,881 322,882 323,883 324,884 324,885 325,886 326,887 327,888 328,889 329,889 330,890 331,891 332,892 333,893 334,893 335,894 336,895 337,895 338,896 339,896 340,897 341,898 342,898 343,899 344,899 345,900 346,900 347,901 348,901 349,902 350,902 351,903 352,903 353,904 354,904 355,904 356,905 357,905 358,905 359,906 360,906 361,906 362,907 363,907 364,907 365,907 366,907 367,908 368,908 369,908 370,908 371,908 372,908 373,909 374,909 375,909 376,909 377,909 378,909 379,909 380,909 381,909 382,909 383,909 384,909 385,909 386,910 387,910 388,910 389,910 390,910 391,909 392,910 393,910 394,910 395,910 396,910 397,909 398,909 399,909 400,909 401,909 402,909 403,909 404,909 405,909 406,909 407,909 408,909 409,908 410,908 411,908 412,908 413,908 414,908 415,908 416,907 417,907 418,907 419,907 420,907 421,906 422,906 423,906 424,906 425,905 426,905 427,905 428,904 429,904 430,903 431,903 432,903 433,902 434,901 435,901 436,900 437,900 438,900 439,899 440,898 441,898 442,898 443,897 444,896 445,896 446,895 447,896 448,897 448,898 448,899 448,900 448,901 448,902 448,903 448,904 448,905 448,906 448,905 449,904 449,903 449,902 450,901 450,900 450,899 450,898 451,897 451,896 451,895 451,894 452,893 453,892 454,891 455,890 456,890 456,889 457,888 458,887 459,887 460,886 461,885 462,884 463,883 464,882 465,881 466,880 467,879 468,878 469,877 470,876 470,875 471,874 472,873 472,872 472,871 472,870 472,869 472,868 472,867 472,866 472,865 472,864 472,863 472,862 472,861 472,860 472,859 472,858 472,857 472,856 472,855 472,854 472,853 472,852 472,851 472,850 472,849 472,848 472,847 472,846 472,845 472,844 472,843 472,842 472,841 472,840 472,839 472,838 471,837 471,836 471,835 471,834 471,833 471,832 471,831 471,830 471,829 471,828 471,827 471,826 471,825 471,824 471,823 472,822 472,821 471,820 471,819 472,818 472,817 471,816 471,815 471,814 471,813 472,812 471,811 471,810 471,809 472,808 471,807 471,806 471,805 471,804 471,803 471,802 471,801 471,800 471,799 471,798 471,797 471,796 471,795 471,794 471,793 471,792 471,791 471,790 471,789 471,788 471,787 471,786 471,785 471,784 471,783 471,782 471,781 471,780 471,779 471,778 471,777 471,776 471,775 471,774 471,773 471,772 471,771 471,770 471,769 471,768 471,767 471,766 471,765 471,764 471,763 471,762 471,761 471,760 471,759 471,758 471,757 471,756 471,755 471,754 471,753 471,752 471,751 471,750 471,749 471,748 471,747 471,746 471,745 471,744 471,743 471,742 471,741 471,740 471,739 471,738 471,737 471,736 471,735 471,734 471,733 471,732 471,731 470,731 469,731 468,731 467,731 466,731 465,731 464,731 463,731 462,731 461,731 460,731 459,731 458,731 457,731 456,731 455,731 454,731 453,731 452,731 451,731 450,731 449,731 448,731 447,731 446,731 445,731 444,731 443,731 442,731 441,731 440,731 439,731 438,731 437,731 436,731 435,731 434,731 433,731 432,731 431,731 430,731 429,731 428,731 427,731 426,731 425,731 424,731 423,731 422,731 421,731 420,731 419,731 418,731 417,731 416,731 415,731 414,731 413,731 412,731 411,731 410,731 409,731 408,731 407,731 406,731 405,731 404,731 403,731 402,731 401,730 400,730 399,731 398,731 397,731 396,731 395,730 394,730 393,730 392,730 391,731 390,731 389,731 388,731 387,731 386,731 385,731 384,731 383,730 382,731 381,731 380,731 379,731 378,731 377,731 376,731 375,731 374,730 373,730 372,730 371,730 370,730 369,730 368,730 367,731 366,730 365,730 364,730 363,730 362,731 361,730 360,730 359,730 358,730 357,730 356,730 355,730 354,730 353,730 352,730 351,730 350,730 349,730 348,730 347,731 346,731 345,730 344,730 343,730 342,730 341,730 340,730 339,730 338,730 337,730 336,730 335,731 334,730 333,730 332,730 331,730 330,730 329,730">
      <metadata tailDirection="" confidence="0.93" linkedToCharacter="" id="UltraEleven_135_balloon_0" tailTip=""></metadata>
    </polygon>
    <polygon points="78,730 78,731 78,732 78,733 78,734 78,735 78,736 78,737 78,738 78,739 78,740 78,741 78,742 78,743 78,744 78,745 78,746 78,747 78,748 78,749 78,750 78,751 78,752 78,753 78,754 78,755 78,756 78,757 78,758 78,759 78,760 78,761 78,762 78,763 78,764 78,765 78,766 78,767 78,768 78,769 78,770 78,771 78,772 78,773 78,774 78,775 78,776 78,777 78,778 78,779 78,780 78,781 78,782 78,783 78,784 78,785 78,786 78,787 78,788 78,789 78,790 78,791 78,792 78,793 78,794 78,795 78,796 78,797 78,798 78,799 78,800 78,801 78,802 78,803 78,804 78,805 78,806 78,807 78,808 78,809 78,810 78,811 78,812 78,813 78,814 78,815 78,816 78,817 78,818 78,819 78,820 78,821 78,822 78,823 78,824 78,825 78,826 78,827 78,828 78,829 78,830 78,831 78,832 78,833 78,834 78,835 78,836 78,837 78,838 78,839 78,840 78,841 78,842 78,843 78,844 78,845 78,846 78,847 78,848 78,849 78,850 78,851 78,852 78,853 78,854 78,855 78,856 78,857 78,858 78,859 78,860 78,861 78,862 78,863 78,864 78,865 78,866 78,867 78,868 78,869 78,870 78,871 78,872 78,873 78,874 78,875 78,876 79,877 79,878 80,879 81,880 82,881 83,882 84,883 85,883 86,884 87,885 88,886 89,886 90,887 91,888 92,889 93,889 94,890 95,891 96,891 97,892 98,893 99,893 100,894 101,894 102,895 103,895 104,896 105,896 106,897 107,897 108,898 109,898 110,898 111,899 112,899 113,899 114,900 115,900 116,900 117,901 118,901 119,901 120,901 121,901 122,901 123,902 124,902 125,902 126,902 127,902 128,902 129,902 130,902 131,902 132,902 133,902 134,902 135,902 136,902 137,902 138,902 139,902 140,902 141,902 142,902 143,902 144,902 145,902 146,902 147,902 148,902 149,902 150,902 151,901 152,901 153,901 154,901 155,901 156,901 157,901 158,901 159,900 160,900 161,900 162,900 163,900 164,900 165,899 166,899 167,899 168,899 169,898 170,898 171,898 172,897 173,897 174,897 175,896 176,896 177,896 178,895 179,894 180,894 181,893 182,893 183,893 184,892 185,891 186,891 187,890 188,889 189,889 190,888 191,887 192,886 193,886 194,885 195,884 196,884 197,883 198,882 199,881 200,880 201,879 202,879 203,878 204,877 205,876 206,875 207,875 208,874 209,873 209,872 210,871 211,870 212,869 213,868 214,867 215,866 216,865 217,864 218,863 219,862 220,861 220,860 221,859 222,858 223,857 223,856 224,855 225,854 225,853 226,852 226,851 227,850 227,849 228,848 228,847 228,846 229,845 229,844 230,843 230,842 231,841 231,840 231,839 231,838 232,837 232,836 232,835 233,834 233,833 233,832 233,831 234,830 234,829 234,828 235,827 235,826 235,825 235,824 235,823 235,822 235,821 235,820 235,819 236,818 236,817 236,816 236,815 236,814 236,813 236,812 236,811 236,810 236,809 236,808 236,807 236,806 236,805 236,804 236,803 236,802 236,801 236,800 236,799 236,798 236,797 236,796 236,795 236,794 236,793 236,792 236,791 236,790 236,789 236,788 235,787 235,786 235,785 235,784 235,783 235,782 235,781 235,780 235,779 234,778 234,777 234,776 234,775 233,774 233,773 233,772 232,771 232,770 232,769 231,768 231,767 231,766 230,765 230,764 229,763 229,762 228,761 228,760 227,759 227,758 226,757 226,756 226,755 225,754 224,753 224,752 224,751 223,750 223,749 222,748 221,747 221,746 220,745 220,744 219,743 219,742 218,741 217,740 217,739 216,738 215,737 214,736 213,735 212,734 211,733 211,732 210,731 209,730 208,730 207,730 206,730 205,730 204,730 203,730 202,730 201,730 200,730 199,730 198,730 197,730 196,730 195,730 194,730 193,730 192,730 191,730 190,730 189,730 188,730 187,730 186,730 185,730 184,730 183,730 182,730 181,730 180,730 179,730 178,730 177,730 176,730 175,730 174,730 173,730 172,730 171,730 170,730 169,730 168,730 167,730 166,730 165,730 164,730 163,730 162,730 161,730 160,730 159,730 158,730 157,730 156,730 155,730 154,730 153,730 152,730 151,730 150,730 149,730 148,730 147,730 146,730 145,730 144,730 143,730 142,730 141,730 140,730 139,730 138,730 137,730 136,730 135,730 134,730 133,730 132,730 131,730 130,730 129,730 128,730 127,730 126,730 125,730 124,730 123,730 122,730 121,730 120,730 119,730 118,730 117,730 116,730 115,730 114,730 113,730 112,730 111,730 110,730 109,730 108,730 107,730 106,730 105,730 104,730 103,730 102,730 101,730 100,730 99,730 98,730 97,730 96,730 95,730 94,730 93,730 92,730 91,730 90,730 89,730 88,730 87,730 86,730 85,730 84,730 83,730 82,730 81,730 80,730 79,730 78,730">
      <metadata tailDirection="" confidence="0.90" linkedToCharacter="" id="UltraEleven_135_balloon_1" tailTip=""></metadata>
    </polygon>
    <polygon points="163,355 162,356 161,357 160,358 159,358 158,359 157,360 156,360 155,361 154,362 153,363 152,363 151,364 150,365 149,365 148,366 147,366 146,367 145,367 144,368 143,368 142,368 141,368 140,369 139,369 138,369 137,369 136,369 135,369 134,369 133,369 132,368 131,368 130,368 129,368 128,368 127,367 126,367 125,366 124,366 123,365 122,365 121,364 120,364 119,363 118,362 117,361 116,360 115,361 115,362 115,363 114,364 114,365 114,366 114,367 113,368 113,369 112,370 112,371 111,372 111,373 111,374 110,375 109,376 109,377 108,378 107,379 107,380 106,381 105,382 104,383 103,384 102,385 101,386 100,387 99,388 98,388 97,389 96,389 95,390 94,390 93,390 93,391 94,392 94,393 94,394 94,395 94,396 93,397 93,398 93,399 93,400 93,401 93,402 92,403 92,404 92,405 91,406 91,407 90,408 90,409 90,410 89,411 89,412 88,413 87,414 86,415 86,416 85,417 84,418 83,419 82,420 81,421 81,422 80,423 79,424 80,424 81,425 82,426 83,427 84,428 85,429 86,430 86,431 87,432 88,433 88,434 88,435 89,436 89,437 89,438 89,439 90,440 90,441 90,442 90,443 90,444 90,445 91,446 91,447 91,448 91,449 91,450 91,451 91,452 90,453 90,454 90,455 90,456 90,457 90,458 89,459 89,460 89,461 88,462 88,463 88,464 88,465 87,466 87,467 86,468 86,469 86,470 85,471 85,472 84,473 84,474 83,475 82,476 82,477 83,477 84,477 85,478 86,479 87,480 88,481 89,482 90,483 91,484 91,485 92,486 92,487 93,488 94,489 94,490 94,491 95,492 95,493 95,494 96,495 96,496 96,497 96,498 96,499 96,500 96,501 96,502 96,503 96,504 96,505 96,506 96,507 96,508 96,509 96,510 96,511 95,512 95,513 95,514 95,515 94,516 95,515 96,514 97,514 98,513 99,512 100,512 101,511 102,511 103,510 104,510 105,509 106,509 107,508 108,508 109,508 110,508 111,507 112,507 113,507 114,507 115,507 116,507 117,507 118,507 119,507 120,507 121,507 122,507 123,507 124,507 125,507 126,507 127,507 128,507 129,507 130,508 131,508 132,508 133,509 134,509 135,510 136,510 137,510 138,511 139,511 140,512 141,513 142,513 143,514 144,515 145,515 146,516 147,517 148,518 149,519 150,520 151,521 152,522 153,523 154,524 154,525 155,526 155,527 156,528 156,527 156,526 157,525 157,524 157,523 158,522 158,521 158,520 158,519 159,518 159,517 159,516 159,515 160,514 160,513 161,512 161,511 162,510 162,509 163,508 164,507 165,506 165,505 166,504 167,503 168,502 169,501 170,500 171,499 172,498 173,497 174,496 175,495 176,495 177,494 178,493 179,492 180,492 181,492 182,491 183,491 184,490 185,490 186,489 187,489 188,489 189,488 190,488 191,488 192,487 193,487 194,487 195,487 196,487 197,486 198,486 199,486 200,486 201,486 202,486 203,486 204,486 205,485 206,485 207,486 207,485 207,484 207,483 207,482 207,481 207,480 206,479 206,478 206,477 206,476 206,475 206,474 206,473 206,472 206,471 206,470 206,469 206,468 207,467 207,466 207,465 207,464 207,463 207,462 208,461 208,460 208,459 208,458 209,457 209,456 209,455 209,454 210,453 210,452 210,451 211,450 211,449 211,448 212,447 212,446 212,445 213,444 213,443 214,442 214,441 215,440 215,439 215,438 216,437 217,436 217,435 218,434 218,433 219,432 219,431 220,430 221,429 221,428 222,427 223,426 223,425 224,424 225,423 225,422 226,421 227,420 226,420 225,420 224,420 223,420 222,420 221,420 220,420 219,420 218,420 217,419 216,419 215,419 214,418 213,418 212,417 211,416 210,415 209,415 208,414 207,413 206,412 206,411 205,410 204,409 204,408 204,407 203,406 203,405 203,404 202,403 202,402 202,401 202,400 202,399 202,398 202,397 202,396 202,395 202,394 202,393 202,392 202,391 202,390 202,389 202,388 202,387 202,386 203,385 203,384 203,383 203,382 203,381 204,380 204,379 204,378 203,379 202,379 201,380 200,380 199,380 198,381 197,381 196,381 195,381 194,381 193,381 192,381 191,382 190,382 189,382 188,381 187,381 186,381 185,381 184,381 183,381 182,380 181,380 180,379 179,379 178,378 177,378 176,377 175,376 174,375 173,374 172,373 172,372 171,371 170,370 169,369 169,368 168,367 168,366 167,365 167,364 166,363 166,362 165,361 165,360 165,359 164,358 164,357 164,356 163,355">
      <metadata tailDirection="" confidence="0.96" linkedToCharacter="" id="UltraEleven_135_balloon_2" tailTip=""></metadata>
    </polygon>
  </svg>
</svg>
