<?xml version="1.0" encoding="UTF-8" standalone="no"?>
<svg width="827" xmlns="http://www.w3.org/2000/svg" version="1.0" height="1170">
  <title>UltraEleven_106</title>
  <svg contentScriptType="text/ecmascript" zoomAndPan="magnify" contentStyleType="text/css" class="Page" preserveAspectRatio="xMidYMid meet" version="1.0">
    <image xmlns:xlink="http://www.w3.org/1999/xlink" x="0" y="0" width="827" height="1170" xlink:href="./../../dataset_Manga109/UltraEleven/UltraEleven_106.jpg" xlink:type="simple" xlink:actuate="onLoad" preserveAspectRatio="xMidYMid meet" xlink:show="embed"/>
  </svg>
  <style type="text/css" xml:space="preserve">
        * { stroke-linejoin: round; }
        .Unclassified   { fill: orange; stroke: none;   opacity: 1.0; visibility: hidden; }
        .Noise          { fill: pink;   stroke: none;   opacity: 0.2; visibility: hidden; }
        .Panel          { fill: none;   stroke: red;    stroke-width:3; opacity: 0.5; visibility: visible; image-rendering: optimizeSpeed; }
        .Line           { fill: green;  stroke: none;   opacity: 0.5; visibility: visible; image-rendering: optimizeSpeed; }
        .TextArea       { fill: grey;   stroke: none;   opacity: 0.2; visibility: visible; image-rendering: optimizeSpeed; }
        .Balloon        { fill: cyan;   stroke: none;   opacity: 0.5; visibility: visible; image-rendering: optimizeSpeed; }
        .Letter         { fill: blue;   stroke: none;   opacity: 0.2; visibility: hidden; }
        .Object, .Character, .Face  { fill: yellow; stroke: none;   opacity: 0.5; visibility: visible; image-rendering: optimizeSpeed; }
        .Page           { fill: white;  stroke: none;    opacity: 0.5; visibility: visible; }
        .linkSBSC { fill: blue; stroke: none; opacity: 1.0; visibility: visible; }
        polygon:hover { opacity:1.0; stroke:red; }
</style>
  <svg xmlns="http://www.w3.org/2000/svg" contentScriptType="text/ecmascript" zoomAndPan="magnify" contentStyleType="text/css" class="Balloon" preserveAspectRatio="xMidYMid meet" version="1.0">
    <polygon points="155,157 154,158 153,158 152,158 151,158 150,158 149,158 148,158 147,158 146,158 145,158 144,158 143,158 142,158 141,158 140,158 139,158 138,158 137,158 136,158 135,158 134,158 133,158 132,158 131,158 130,158 129,158 128,158 127,158 126,158 125,158 124,158 123,158 122,158 121,158 120,158 119,158 118,158 117,158 116,158 115,158 114,158 113,158 112,158 111,158 110,158 109,158 108,158 107,158 106,158 105,158 104,158 103,158 102,158 101,158 100,158 99,158 98,158 97,158 96,158 95,158 94,158 94,159 94,160 94,161 94,162 94,163 94,164 94,165 94,166 94,167 94,168 94,169 94,170 94,171 94,172 94,173 94,174 94,175 94,176 94,177 94,178 94,179 94,180 94,181 94,182 94,183 94,184 94,185 94,186 94,187 94,188 94,189 94,190 94,191 94,192 94,193 94,194 95,195 95,196 95,197 95,198 95,199 95,200 95,201 95,202 95,203 95,204 95,205 95,206 95,207 95,208 95,209 95,210 95,211 95,212 95,213 95,214 95,215 95,216 95,217 95,218 95,219 95,220 95,221 95,222 95,223 95,224 95,225 95,226 95,227 95,228 95,229 95,230 95,231 95,232 95,233 95,234 95,235 95,236 95,237 95,238 95,239 95,240 95,241 95,242 95,243 95,244 96,245 95,246 96,247 96,248 96,249 96,250 96,251 96,252 96,253 96,254 96,255 96,256 96,257 96,258 96,259 96,260 96,261 96,262 96,263 96,264 96,265 96,266 96,267 96,268 96,269 96,270 96,271 96,272 96,273 96,274 96,275 96,276 96,277 96,278 96,279 96,280 96,281 96,282 96,283 96,284 96,285 96,286 96,287 96,288 96,289 96,290 96,291 96,292 96,293 96,294 96,295 96,296 96,297 96,298 96,299 96,300 96,301 96,302 96,303 96,304 96,305 96,306 96,307 95,308 95,309 96,310 96,311 95,312 95,313 95,314 95,315 95,316 95,317 95,318 95,319 95,320 95,321 95,322 95,323 95,324 95,325 95,326 95,327 95,328 95,329 95,330 95,331 95,332 95,333 95,334 95,335 95,336 95,337 95,338 95,339 95,340 95,341 95,342 95,343 95,344 95,345 95,346 95,347 95,348 95,349 95,350 95,351 95,352 95,353 95,354 95,355 95,356 95,357 95,358 95,359 95,360 95,361 95,362 95,363 95,364 95,365 95,366 95,367 95,368 95,369 95,370 95,371 95,372 95,373 95,374 95,375 95,376 95,377 95,378 95,379 95,380 95,381 95,382 95,383 95,384 95,385 95,386 95,387 95,388 95,389 95,390 95,391 95,392 95,393 95,394 95,395 95,396 95,397 95,398 96,399 96,400 96,401 96,402 96,403 96,404 96,405 97,405 98,405 99,405 100,405 101,405 102,405 103,405 104,405 105,405 106,405 107,405 108,405 109,405 110,405 111,405 112,405 113,405 114,405 115,405 116,405 117,405 118,405 119,405 120,405 121,405 122,405 123,405 124,405 125,406 126,406 127,406 128,405 129,405 130,406 131,406 132,405 133,405 134,405 135,406 136,406 137,406 138,406 139,406 140,406 141,406 142,406 143,406 144,406 145,406 146,406 147,406 148,406 149,406 150,406 151,406 152,406 153,406 154,406 155,406 156,406 157,406 158,406 159,406 160,406 161,406 162,406 163,406 164,406 165,406 166,406 167,406 168,406 169,406 170,406 171,406 172,406 173,406 174,406 175,406 176,406 177,406 178,406 179,406 180,406 181,406 182,406 183,406 184,406 185,405 186,404 187,404 188,404 189,404 190,404 191,404 192,404 193,404 194,404 195,404 196,404 197,404 198,405 199,405 200,405 201,405 202,406 203,406 204,406 205,406 206,406 207,406 208,406 209,406 210,406 211,406 212,406 213,406 214,406 215,406 216,406 217,406 218,406 219,406 220,406 221,406 222,406 223,406 224,406 225,406 226,406 227,406 228,406 229,406 230,406 231,406 232,406 233,406 234,406 235,406 236,406 237,406 238,406 239,406 240,406 241,406 242,406 243,406 244,406 245,406 246,406 247,406 248,406 249,406 250,406 251,406 252,406 253,406 254,406 255,406 256,406 257,406 258,406 259,406 260,406 261,406 262,406 263,406 264,406 265,406 266,406 267,406 268,406 269,406 270,406 271,406 272,407 273,406 274,407 275,406 274,405 274,404 274,403 274,402 274,401 274,400 274,399 274,398 274,397 274,396 274,395 274,394 274,393 274,392 274,391 274,390 274,389 274,388 274,387 274,386 274,385 274,384 274,383 274,382 274,381 274,380 274,379 274,378 274,377 274,376 274,375 274,374 274,373 274,372 274,371 274,370 274,369 274,368 274,367 274,366 274,365 274,364 274,363 274,362 274,361 274,360 274,359 274,358 274,357 274,356 274,355 274,354 274,353 274,352 274,351 274,350 274,349 274,348 274,347 274,346 274,345 274,344 274,343 274,342 274,341 274,340 274,339 274,338 274,337 274,336 274,335 274,334 274,333 274,332 274,331 274,330 274,329 274,328 274,327 274,326 274,325 274,324 274,323 274,322 274,321 274,320 274,319 274,318 274,317 274,316 274,315 274,314 274,313 274,312 274,311 274,310 273,309 274,308 274,307 274,306 274,305 274,304 274,303 273,302 273,301 273,300 274,299 273,298 274,297 274,296 274,295 274,294 274,293 274,292 274,291 273,290 273,289 274,288 274,287 273,286 273,285 273,284 273,283 273,282 273,281 274,280 273,279 273,278 273,277 274,276 273,275 273,274 273,273 273,272 273,271 274,270 273,269 274,268 274,267 274,266 273,265 273,264 273,263 273,262 274,261 274,260 274,259 274,258 274,257 274,256 274,255 274,254 274,253 274,252 274,251 274,250 274,249 274,248 274,247 274,246 274,245 274,244 274,243 274,242 274,241 274,240 274,239 274,238 274,237 274,236 274,235 274,234 274,233 274,232 274,231 274,230 274,229 274,228 274,227 274,226 274,225 274,224 274,223 274,222 273,221 273,220 273,219 274,218 274,217 274,216 274,215 273,214 274,213 274,212 274,211 273,210 273,209 274,208 274,207 274,206 274,205 274,204 274,203 274,202 274,201 274,200 274,199 274,198 274,197 274,196 274,195 274,194 274,193 274,192 274,191 273,190 273,189 274,188 274,187 274,186 274,185 274,184 274,183 274,182 274,181 274,180 274,179 274,178 274,177 274,176 274,175 274,174 274,173 274,172 274,171 274,170 274,169 274,168 274,167 274,166 274,165 274,164 274,163 274,162 274,161 274,160 273,159 273,158 273,157 272,157 271,157 270,157 269,157 268,157 267,157 266,157 265,157 264,157 263,157 262,157 261,157 260,157 259,157 258,157 257,157 256,157 255,157 254,157 253,157 252,157 251,157 250,157 249,157 248,157 247,157 246,157 245,157 244,157 243,157 242,157 241,157 240,157 239,157 238,157 237,157 236,157 235,157 234,157 233,157 232,157 231,157 230,157 229,157 228,157 227,157 226,157 225,157 224,157 223,157 222,157 221,157 220,157 219,157 218,157 217,157 216,157 215,157 214,157 213,157 212,157 211,157 210,157 209,157 208,157 207,157 206,157 205,157 204,157 203,157 202,157 201,157 200,157 199,157 198,157 197,157 196,157 195,157 194,157 193,157 192,157 191,157 190,157 189,157 188,157 187,157 186,157 185,158 184,158 183,158 182,157 181,157 180,157 179,157 178,157 177,157 176,157 175,157 174,157 173,157 172,158 171,158 170,157 169,157 168,157 167,157 166,157 165,157 164,157 163,158 162,157 161,157 160,157 159,157 158,158 157,158 156,158 155,157">
      <metadata tailDirection="" confidence="0.94" linkedToCharacter="" id="UltraEleven_106_balloon_0" tailTip=""></metadata>
    </polygon>
    <polygon points="671,58 670,59 669,59 668,59 667,59 666,59 665,59 664,59 663,59 662,59 661,59 660,59 659,59 658,59 657,59 656,59 655,59 654,59 653,59 652,59 651,59 650,59 649,59 648,59 647,59 646,59 645,59 644,59 643,59 642,59 641,59 640,59 639,59 638,59 637,59 636,59 635,59 634,59 633,59 632,59 631,59 630,59 629,59 628,59 627,59 626,59 625,59 624,59 623,59 622,59 621,59 620,59 619,59 618,59 617,59 616,59 615,59 614,59 613,59 612,59 611,59 610,59 609,59 608,59 607,59 606,59 605,59 604,59 603,59 602,59 601,59 600,59 599,59 598,59 597,59 596,59 595,59 594,59 593,59 592,59 591,59 590,59 589,59 588,59 588,60 588,61 588,62 588,63 588,64 588,65 588,66 588,67 588,68 588,69 588,70 588,71 588,72 588,73 588,74 588,75 588,76 588,77 588,78 588,79 588,80 588,81 588,82 588,83 588,84 588,85 588,86 588,87 588,88 588,89 588,90 588,91 587,92 587,93 587,94 587,95 587,96 587,97 587,98 587,99 587,100 587,101 587,102 587,103 587,104 587,105 587,106 587,107 587,108 587,109 587,110 587,111 587,112 587,113 587,114 587,115 587,116 587,117 587,118 587,119 587,120 587,121 587,122 587,123 587,124 587,125 587,126 587,127 587,128 587,129 587,130 587,131 587,132 587,133 587,134 587,135 587,136 587,137 587,138 587,139 587,140 587,141 587,142 587,143 587,144 587,145 587,146 587,147 587,148 587,149 587,150 587,151 587,152 587,153 587,154 587,155 587,156 587,157 587,158 587,159 587,160 587,161 587,162 587,163 587,164 587,165 587,166 587,167 587,168 587,169 587,170 587,171 587,172 587,173 587,174 587,175 587,176 587,177 587,178 587,179 587,180 587,181 587,182 587,183 587,184 587,185 587,186 587,187 587,188 587,189 587,190 587,191 587,192 587,193 587,194 587,195 587,196 587,197 587,198 587,199 587,200 587,201 587,202 587,203 587,204 587,205 587,206 587,207 587,208 587,209 587,210 587,211 587,212 587,213 587,214 587,215 587,216 587,217 587,218 587,219 587,220 587,221 587,222 587,223 587,224 587,225 587,226 587,227 587,228 587,229 587,230 587,231 587,232 587,233 587,234 587,235 587,236 587,237 587,238 587,239 587,240 587,241 587,242 587,243 587,244 587,245 587,246 587,247 587,248 587,249 587,250 587,251 587,252 587,253 587,254 587,255 587,256 587,257 587,258 587,259 587,260 587,261 587,262 587,263 587,264 587,265 587,266 587,267 588,267 589,267 590,267 591,267 592,267 593,267 594,267 595,267 596,267 597,267 598,267 599,267 600,267 601,267 602,267 603,267 604,267 605,267 606,267 607,267 608,267 609,267 610,267 611,267 612,267 613,267 614,267 615,267 616,267 617,267 618,267 619,267 620,267 621,267 622,267 623,267 624,267 625,267 626,267 627,267 628,267 629,267 630,267 631,267 632,267 633,267 634,267 635,267 636,267 637,267 638,267 639,267 640,267 641,267 642,267 643,267 644,267 645,267 646,267 647,267 648,267 649,267 650,267 651,267 652,267 653,267 654,267 655,267 656,267 657,267 658,267 659,267 660,267 661,267 662,267 663,267 664,267 665,267 666,267 667,267 668,267 669,267 670,267 671,267 672,267 673,267 674,267 675,267 676,267 677,267 678,267 679,267 680,267 681,267 682,267 683,267 684,267 685,267 686,267 687,267 688,267 689,267 690,267 691,267 692,267 693,267 694,267 695,267 696,267 697,267 698,267 699,267 700,267 701,267 702,267 703,267 704,267 705,267 706,267 707,267 708,267 709,267 710,267 711,267 712,267 713,267 714,267 715,267 716,267 717,267 718,267 719,267 720,267 721,267 722,267 723,267 724,267 725,267 726,267 727,267 728,267 729,267 730,267 731,267 732,267 733,267 734,267 735,267 736,267 737,267 738,267 739,267 740,267 741,267 742,267 743,266 743,265 743,264 743,263 743,262 743,261 743,260 743,259 743,258 743,257 743,256 743,255 743,254 743,253 743,252 743,251 743,250 743,249 743,248 743,247 743,246 743,245 743,244 743,243 743,242 743,241 743,240 743,239 743,238 743,237 743,236 743,235 743,234 743,233 743,232 743,231 743,230 743,229 743,228 743,227 743,226 743,225 743,224 743,223 743,222 743,221 743,220 743,219 743,218 743,217 743,216 743,215 743,214 743,213 743,212 743,211 743,210 743,209 743,208 743,207 743,206 743,205 743,204 743,203 743,202 743,201 743,200 743,199 743,198 743,197 743,196 743,195 743,194 743,193 743,192 743,191 743,190 743,189 743,188 743,187 743,186 743,185 743,184 743,183 743,182 743,181 743,180 743,179 743,178 743,177 743,176 743,175 743,174 743,173 743,172 743,171 743,170 743,169 743,168 742,167 742,166 742,165 742,164 742,163 742,162 742,161 742,160 742,159 742,158 742,157 742,156 742,155 742,154 742,153 742,152 742,151 742,150 742,149 742,148 742,147 742,146 742,145 742,144 742,143 742,142 742,141 742,140 742,139 742,138 742,137 742,136 742,135 742,134 742,133 742,132 742,131 742,130 742,129 742,128 742,127 742,126 742,125 742,124 742,123 742,122 742,121 742,120 742,119 742,118 742,117 742,116 742,115 742,114 742,113 742,112 742,111 742,110 742,109 742,108 742,107 742,106 742,105 742,104 742,103 742,102 742,101 742,100 742,99 742,98 742,97 742,96 742,95 742,94 742,93 743,92 743,91 743,90 743,89 743,88 743,87 743,86 743,85 743,84 743,83 743,82 743,81 743,80 743,79 743,78 743,77 743,76 743,75 743,74 743,73 743,72 743,71 743,70 743,69 743,68 744,67 743,66 743,65 743,64 744,63 744,62 744,61 744,60 744,59 744,58 743,58 742,58 741,58 740,58 739,58 738,58 737,58 736,58 735,58 734,58 733,58 732,58 731,58 730,58 729,58 728,58 727,58 726,58 725,58 724,58 723,58 722,58 721,58 720,58 719,58 718,58 717,58 716,58 715,58 714,58 713,58 712,58 711,58 710,58 709,58 708,58 707,58 706,58 705,58 704,58 703,58 702,58 701,58 700,58 699,58 698,58 697,58 696,58 695,58 694,58 693,58 692,58 691,58 690,58 689,58 688,59 687,59 686,59 685,59 684,59 683,59 682,59 681,59 680,59 679,58 678,58 677,59 676,59 675,59 674,59 673,59 672,59 671,58">
      <metadata tailDirection="" confidence="0.94" linkedToCharacter="" id="UltraEleven_106_balloon_1" tailTip=""></metadata>
    </polygon>
    <polygon points="628,856 627,857 626,857 625,857 624,857 623,857 622,857 621,857 620,857 619,857 618,857 617,857 616,857 615,857 614,858 613,858 612,859 611,859 610,860 609,860 608,861 607,861 606,862 605,863 604,864 603,865 602,866 601,867 600,868 599,869 598,870 597,871 596,872 595,873 594,874 594,875 593,876 593,877 592,878 591,879 591,880 590,881 589,882 589,883 588,884 588,885 587,886 586,887 586,888 585,889 584,890 584,891 583,892 583,893 583,894 582,895 582,896 582,897 581,898 581,899 581,900 581,901 581,902 580,903 580,904 580,905 580,906 579,907 579,908 579,909 579,910 579,911 578,912 578,913 578,914 578,915 577,916 577,917 577,918 577,919 577,920 576,921 576,922 576,923 576,924 576,925 575,926 575,927 575,928 575,929 574,930 574,931 574,932 574,933 574,934 574,935 573,936 573,937 573,938 573,939 573,940 573,941 572,942 572,943 572,944 572,945 572,946 572,947 571,948 571,949 571,950 571,951 571,952 571,953 571,954 570,955 570,956 570,957 570,958 570,959 570,960 570,961 570,962 570,963 570,964 570,965 570,966 570,967 570,968 570,969 571,970 571,971 571,972 571,973 571,974 571,975 571,976 572,977 572,978 572,979 572,980 573,981 573,982 573,983 574,984 574,985 574,986 574,987 574,988 575,989 575,990 575,991 575,992 576,993 576,994 576,995 576,996 577,997 577,998 577,999 577,1000 578,1001 578,1002 578,1003 578,1004 579,1005 579,1006 579,1007 579,1008 579,1009 580,1010 580,1011 580,1012 581,1013 581,1014 581,1015 581,1016 582,1017 582,1018 582,1019 582,1020 582,1021 583,1022 583,1023 583,1024 583,1025 584,1026 584,1027 584,1028 584,1029 585,1030 585,1031 585,1032 586,1033 586,1034 586,1035 586,1036 587,1037 587,1038 587,1039 588,1040 588,1041 589,1042 589,1043 589,1044 590,1045 590,1046 591,1047 591,1048 592,1049 592,1050 593,1051 593,1052 594,1053 594,1054 595,1055 596,1055 597,1056 597,1057 598,1057 599,1058 600,1058 601,1059 602,1060 603,1060 604,1061 605,1062 606,1062 607,1063 608,1063 609,1063 610,1064 611,1064 612,1064 613,1065 614,1065 615,1065 616,1065 617,1066 618,1066 619,1066 620,1066 621,1066 622,1066 623,1066 624,1066 625,1066 626,1066 627,1066 628,1066 629,1066 630,1065 631,1065 632,1064 633,1064 634,1063 635,1062 636,1062 637,1061 638,1060 639,1060 640,1059 641,1059 642,1058 643,1057 644,1057 645,1057 646,1057 647,1058 648,1059 648,1060 647,1061 648,1060 649,1060 650,1059 651,1059 652,1059 653,1059 654,1059 655,1059 656,1059 657,1060 658,1060 659,1061 660,1062 661,1063 662,1064 662,1065 663,1064 664,1064 665,1063 666,1062 667,1062 668,1061 669,1060 670,1059 671,1058 672,1057 673,1057 674,1056 675,1055 676,1054 677,1054 678,1053 679,1052 680,1052 681,1051 682,1050 683,1050 684,1049 685,1048 686,1047 687,1046 688,1045 688,1044 689,1043 690,1042 690,1041 691,1040 692,1039 692,1038 692,1037 693,1036 693,1035 694,1034 694,1033 694,1032 695,1031 695,1030 695,1029 696,1028 696,1027 696,1026 697,1025 697,1024 697,1023 698,1022 698,1021 698,1020 699,1019 699,1018 699,1017 700,1016 700,1015 700,1014 701,1013 701,1012 701,1011 702,1010 702,1009 702,1008 702,1007 703,1006 703,1005 703,1004 704,1003 704,1002 704,1001 705,1000 705,999 705,998 705,997 706,996 706,995 706,994 706,993 707,992 707,991 707,990 708,989 708,988 708,987 709,986 709,985 709,984 710,983 710,982 710,981 711,980 711,979 712,978 712,977 712,976 712,975 713,974 713,973 713,972 713,971 714,970 714,969 714,968 714,967 714,966 715,965 715,964 715,963 715,962 715,961 715,960 714,959 714,958 714,957 713,956 713,955 713,954 712,953 712,952 711,951 711,950 710,949 710,948 709,947 708,946 708,945 707,944 707,943 706,942 706,941 705,940 705,939 704,938 704,937 705,936 706,935 707,935 708,935 709,935 710,935 711,936 712,936 713,936 714,937 715,937 716,937 717,937 718,938 719,938 720,938 721,938 722,938 723,938 724,938 725,937 726,937 727,937 728,936 729,936 730,935 731,935 732,934 733,934 734,934 735,933 736,933 737,932 738,932 739,931 740,931 741,930 742,930 742,929 742,928 742,927 742,926 742,925 742,924 742,923 742,922 742,921 742,920 742,919 742,918 742,917 742,916 742,915 742,914 742,913 742,912 742,911 742,910 742,909 742,908 742,907 742,906 742,905 742,904 742,903 742,902 742,901 742,900 742,899 742,898 742,897 742,896 742,895 742,894 742,893 742,892 742,891 742,890 742,889 742,888 742,887 742,886 742,885 742,884 742,883 742,882 742,881 742,880 742,879 742,878 742,877 742,876 742,875 742,874 742,873 742,872 742,871 742,870 742,869 742,868 742,867 742,866 742,865 742,864 742,863 741,862 741,861 741,860 742,859 742,858 741,857 740,857 739,857 738,857 737,857 736,857 735,857 734,857 733,856 732,856 731,856 730,856 729,857 728,857 727,857 726,857 725,857 724,856 723,856 722,856 721,856 720,856 719,857 718,857 717,857 716,857 715,857 714,856 713,857 712,857 711,857 710,857 709,856 708,856 707,856 706,856 705,856 704,857 703,857 702,856 701,856 700,857 699,857 698,857 697,857 696,857 695,857 694,857 693,857 692,856 691,857 690,857 689,857 688,858 687,859 686,860 685,861 685,862 684,863 683,863 682,863 681,862 680,862 679,861 678,860 677,859 676,858 675,857 674,857 673,857 672,857 671,856 670,856 669,856 668,856 667,856 666,856 665,856 664,856 663,856 662,856 661,856 660,856 659,856 658,856 657,857 656,857 655,856 654,857 653,857 652,857 651,856 650,856 649,856 648,857 647,856 646,856 645,856 644,856 643,856 642,857 641,857 640,856 639,857 638,857 637,857 636,857 635,857 634,857 633,856 632,856 631,856 630,856 629,856 628,856">
      <metadata tailDirection="" confidence="0.88" linkedToCharacter="" id="UltraEleven_106_balloon_2" tailTip=""></metadata>
    </polygon>
    <polygon points="291,857 291,858 292,859 292,860 291,861 291,862 290,863 289,864 288,864 287,865 288,866 289,867 290,868 290,869 290,870 290,871 290,872 289,873 289,874 288,875 287,876 286,877 285,878 284,879 283,880 282,881 281,881 280,882 279,883 278,883 277,884 276,884 275,885 274,885 273,886 272,886 271,886 270,887 271,887 272,887 273,887 274,888 275,888 276,888 277,889 278,890 279,890 280,891 280,892 281,893 281,894 281,895 281,896 281,897 281,898 282,899 283,900 284,901 285,902 285,903 285,904 285,905 285,906 285,907 284,908 284,909 283,910 283,911 282,912 281,913 281,914 280,915 279,916 280,916 281,916 282,916 283,916 284,916 285,916 286,916 287,916 288,917 289,918 290,919 290,920 290,921 290,922 290,923 290,924 290,925 289,926 289,927 289,928 288,929 287,930 287,931 286,932 286,933 287,933 288,933 289,933 290,932 291,932 292,932 293,932 294,933 295,933 296,934 297,935 297,936 297,937 297,938 297,939 297,940 297,941 297,942 297,943 298,943 299,943 300,943 301,943 302,944 303,945 304,946 305,947 305,948 305,949 305,950 305,951 305,952 306,951 307,951 306,950 306,949 306,948 307,947 307,946 308,945 308,944 308,943 307,943 306,942 305,941 305,940 306,939 307,939 308,939 308,938 308,937 309,936 310,936 311,936 312,937 313,938 314,939 315,939 316,938 317,939 318,939 319,939 318,938 318,937 319,936 320,936 321,935 322,935 323,935 324,936 324,937 324,938 323,939 323,940 322,941 321,941 321,942 320,943 319,943 318,943 317,943 316,942 315,941 314,941 313,942 312,943 311,944 311,945 311,946 311,947 311,948 310,949 310,950 309,951 309,952 310,952 311,953 311,954 312,955 312,956 313,956 314,956 315,956 316,957 317,957 318,957 319,957 320,957 321,956 322,956 323,955 324,955 325,955 326,954 327,954 328,954 329,954 330,955 331,956 332,957 333,958 333,959 333,960 334,961 334,962 334,963 334,964 335,965 335,966 335,967 335,968 335,969 335,970 335,971 335,972 335,973 335,974 335,973 336,972 337,971 337,970 338,969 339,968 340,967 340,966 341,965 342,964 343,963 344,962 345,961 346,960 347,960 348,959 349,959 350,959 351,959 352,959 353,959 354,959 355,959 356,960 357,960 358,960 359,961 360,961 360,960 361,959 361,958 362,957 363,956 364,955 365,954 366,954 367,953 368,953 369,953 370,953 371,953 372,953 373,953 373,952 373,951 373,950 373,949 374,948 374,947 374,946 375,945 375,944 376,943 377,942 378,941 379,940 379,939 379,938 379,937 379,936 379,935 379,934 379,933 379,932 379,931 379,930 379,929 379,928 379,927 379,926 379,925 379,924 379,923 379,922 379,921 379,920 379,919 379,918 379,917 379,916 379,915 379,914 379,913 379,912 379,911 379,910 379,909 379,908 379,907 379,906 379,905 379,904 379,903 379,902 379,901 379,900 379,899 379,898 379,897 379,896 379,895 379,894 379,893 379,892 379,891 379,890 379,889 379,888 379,887 379,886 379,885 379,884 379,883 379,882 379,881 379,880 379,879 379,878 379,877 379,876 379,875 379,874 379,873 379,872 379,871 379,870 379,869 379,868 379,867 379,866 379,865 379,864 379,863 379,862 379,861 379,860 379,859 379,858 378,857 377,857 376,857 375,857 374,857 373,857 372,857 371,857 370,857 369,857 368,857 367,857 366,857 365,857 364,857 363,857 362,857 361,857 360,857 359,857 358,857 357,857 356,857 355,857 354,857 353,857 352,857 351,857 350,857 349,857 348,857 347,857 346,857 345,857 344,857 343,857 342,857 341,857 340,857 339,857 338,857 337,857 336,857 335,857 334,857 333,857 332,857 331,857 330,857 329,857 328,857 327,857 326,857 325,857 324,857 323,857 322,857 321,857 320,857 319,857 318,857 317,857 316,857 315,857 314,857 313,857 312,857 311,857 310,857 309,857 308,857 307,857 306,857 305,857 304,857 303,857 302,857 301,857 300,857 299,857 298,857 297,857 296,857 295,857 294,857 293,857 292,857 291,857">
      <metadata tailDirection="" confidence="0.90" linkedToCharacter="" id="UltraEleven_106_balloon_3" tailTip=""></metadata>
    </polygon>
    <polygon points="73,856 73,857 73,858 73,859 72,860 72,861 73,862 72,863 72,864 72,865 73,866 73,867 73,868 73,869 73,870 73,871 73,872 73,873 73,874 73,875 73,876 73,877 73,878 73,879 73,880 73,881 73,882 73,883 73,884 73,885 73,886 73,887 73,888 73,889 73,890 73,891 73,892 73,893 73,894 73,895 73,896 73,897 73,898 73,899 73,900 73,901 73,902 73,903 73,904 73,905 73,906 73,907 73,908 73,909 73,910 73,911 73,912 73,913 73,914 73,915 73,916 73,917 73,918 74,919 73,920 73,921 73,922 73,923 73,924 73,925 73,926 73,927 73,928 73,929 73,930 73,931 73,932 73,933 73,934 73,935 73,936 73,937 73,938 73,939 73,940 73,941 73,942 73,943 73,944 73,945 73,946 73,947 73,948 73,949 73,950 73,951 73,952 73,953 73,954 73,955 73,956 73,957 73,958 73,959 73,960 73,961 73,962 73,963 73,964 73,965 74,964 75,963 76,963 77,963 78,962 79,962 80,962 81,961 82,961 83,961 84,961 85,962 86,963 87,964 88,965 88,966 88,967 88,968 88,969 88,970 88,971 88,972 87,973 87,974 87,975 88,975 89,974 90,973 91,973 92,972 93,972 94,972 95,972 96,972 97,972 98,973 99,974 100,975 100,976 101,977 101,978 101,979 101,980 102,981 102,982 102,983 102,984 102,983 102,982 103,981 104,980 104,979 105,978 106,977 107,976 107,975 108,974 109,973 110,973 111,972 112,971 113,970 114,970 115,969 116,968 117,968 118,967 119,967 120,967 121,967 122,966 123,966 124,966 125,966 126,966 127,966 128,966 129,966 128,965 128,964 128,963 128,962 128,961 128,960 129,959 130,958 131,958 132,957 133,956 134,956 135,956 136,956 137,956 138,956 139,956 140,956 140,955 139,954 139,953 139,952 139,951 140,950 140,949 140,948 141,947 141,946 142,945 143,944 143,943 144,942 145,941 146,940 147,940 148,939 149,938 150,938 151,937 152,937 153,936 154,936 155,936 156,935 155,934 155,933 155,932 155,931 155,930 156,929 156,928 157,927 158,926 159,925 160,924 161,923 162,923 163,922 164,921 165,921 166,921 165,921 164,920 163,919 162,919 161,918 161,917 160,916 159,915 159,914 158,913 158,912 158,911 158,910 159,909 159,908 160,907 161,906 161,905 162,904 163,904 162,903 161,902 160,901 160,900 160,899 160,898 161,897 161,896 162,895 162,894 161,893 160,892 160,891 159,890 159,889 159,888 160,887 160,886 161,885 161,884 162,883 162,882 163,881 164,880 164,879 165,878 166,877 167,876 168,875 169,874 170,873 171,872 172,871 171,871 170,871 169,871 168,872 167,872 166,872 165,872 164,873 163,873 162,873 161,873 160,873 159,873 158,873 157,874 156,874 155,873 154,873 153,872 152,872 151,871 151,870 151,869 151,868 151,867 152,866 153,865 153,864 154,863 155,862 154,862 153,862 152,863 151,863 150,864 149,864 148,864 147,864 146,864 145,864 144,864 143,863 142,862 142,861 142,860 142,859 143,858 143,857 142,857 141,857 140,857 139,857 138,857 137,856 136,856 135,856 134,856 133,856 132,856 131,856 130,856 129,856 128,856 127,856 126,856 125,856 124,856 123,857 122,857 121,856 120,856 119,856 118,856 117,856 116,856 115,856 114,856 113,856 112,856 111,856 110,856 109,856 108,856 107,856 106,856 105,856 104,856 103,856 102,856 101,856 100,856 99,856 98,856 97,856 96,856 95,856 94,856 93,856 92,856 91,856 90,856 89,856 88,856 87,856 86,856 85,856 84,856 83,856 82,856 81,856 80,856 79,856 78,856 77,856 76,856 75,856 74,856 73,856">
      <metadata tailDirection="" confidence="0.85" linkedToCharacter="" id="UltraEleven_106_balloon_4" tailTip=""></metadata>
    </polygon>
  </svg>
</svg>
