<?xml version="1.0" encoding="UTF-8" standalone="no"?>
<svg width="827" xmlns="http://www.w3.org/2000/svg" version="1.0" height="1170">
  <title>UltraEleven_152</title>
  <svg contentScriptType="text/ecmascript" zoomAndPan="magnify" contentStyleType="text/css" class="Page" preserveAspectRatio="xMidYMid meet" version="1.0">
    <image xmlns:xlink="http://www.w3.org/1999/xlink" x="0" y="0" width="827" height="1170" xlink:href="./../../dataset_Manga109/UltraEleven/UltraEleven_152.jpg" xlink:type="simple" xlink:actuate="onLoad" preserveAspectRatio="xMidYMid meet" xlink:show="embed"/>
  </svg>
  <style type="text/css" xml:space="preserve">
        * { stroke-linejoin: round; }
        .Unclassified   { fill: orange; stroke: none;   opacity: 1.0; visibility: hidden; }
        .Noise          { fill: pink;   stroke: none;   opacity: 0.2; visibility: hidden; }
        .Panel          { fill: none;   stroke: red;    stroke-width:3; opacity: 0.5; visibility: visible; image-rendering: optimizeSpeed; }
        .Line           { fill: green;  stroke: none;   opacity: 0.5; visibility: visible; image-rendering: optimizeSpeed; }
        .TextArea       { fill: grey;   stroke: none;   opacity: 0.2; visibility: visible; image-rendering: optimizeSpeed; }
        .Balloon        { fill: cyan;   stroke: none;   opacity: 0.5; visibility: visible; image-rendering: optimizeSpeed; }
        .Letter         { fill: blue;   stroke: none;   opacity: 0.2; visibility: hidden; }
        .Object, .Character, .Face  { fill: yellow; stroke: none;   opacity: 0.5; visibility: visible; image-rendering: optimizeSpeed; }
        .Page           { fill: white;  stroke: none;    opacity: 0.5; visibility: visible; }
        .linkSBSC { fill: blue; stroke: none; opacity: 1.0; visibility: visible; }
        polygon:hover { opacity:1.0; stroke:red; }
</style>
  <svg xmlns="http://www.w3.org/2000/svg" contentScriptType="text/ecmascript" zoomAndPan="magnify" contentStyleType="text/css" class="Balloon" preserveAspectRatio="xMidYMid meet" version="1.0">
    <polygon points="419,606 418,607 417,607 416,607 416,608 416,609 416,610 416,611 416,612 416,613 416,614 416,615 416,616 416,617 416,618 416,619 416,620 416,621 416,622 416,623 416,624 416,625 416,626 416,627 416,628 416,629 416,630 416,631 416,632 416,633 416,634 416,635 416,636 416,637 416,638 416,639 416,640 416,641 416,642 416,643 416,644 416,645 416,646 416,647 416,648 416,649 416,650 416,651 416,652 416,653 416,654 416,655 416,656 416,657 416,658 416,659 416,660 416,661 416,662 416,663 416,664 416,665 416,666 416,667 416,668 416,669 416,670 416,671 416,672 416,673 416,674 416,675 416,676 416,677 416,678 416,679 416,680 416,681 416,682 416,683 416,684 416,685 416,686 416,687 416,688 416,689 416,690 416,691 416,692 416,693 416,694 416,695 416,696 416,697 416,698 416,699 416,700 416,701 416,702 416,703 416,704 416,705 416,706 416,707 416,708 416,709 416,710 416,711 416,712 416,713 416,714 416,715 416,716 416,717 416,718 416,719 416,720 416,721 416,722 416,723 416,724 416,725 416,726 416,727 416,728 416,729 416,730 416,731 417,731 418,731 419,731 420,731 421,731 422,731 423,731 424,731 425,731 426,731 427,731 428,731 429,731 430,731 431,731 432,731 433,731 434,731 435,731 436,731 437,731 438,731 439,731 440,731 441,731 442,731 443,731 444,731 445,731 446,731 447,731 448,731 449,731 450,731 451,731 452,731 453,731 454,731 455,731 456,731 457,731 458,731 459,731 460,731 461,731 462,731 463,731 464,731 465,731 466,731 467,731 468,731 469,731 470,731 471,731 472,731 473,731 474,731 475,731 476,731 477,731 478,731 479,731 480,731 481,731 482,731 482,730 482,729 483,728 484,727 485,727 486,727 487,727 488,727 489,727 490,727 491,727 492,727 492,726 493,725 494,724 495,724 496,723 497,723 498,723 499,723 500,723 501,723 502,724 503,724 504,724 505,725 506,725 505,724 505,723 505,722 505,721 504,720 505,719 505,718 505,717 506,716 507,715 508,714 509,714 510,714 511,714 512,714 513,714 514,714 515,714 516,714 517,714 518,715 519,715 520,715 521,715 522,716 522,715 521,714 520,713 520,712 519,711 518,710 518,709 518,708 517,707 517,706 516,705 516,704 516,703 516,702 517,701 517,700 518,699 519,698 520,698 521,698 522,697 523,697 524,697 525,697 526,697 527,697 528,697 529,697 528,696 527,695 527,694 526,693 525,692 525,691 525,690 524,689 524,688 524,687 524,686 525,685 526,684 527,683 528,682 529,681 530,681 531,681 532,680 533,680 534,680 535,680 536,680 537,679 538,679 539,679 540,679 541,679 542,679 543,679 544,679 545,679 545,678 544,678 543,677 542,676 541,675 540,674 539,673 538,673 537,672 536,671 535,670 534,670 533,669 533,668 532,667 531,666 531,665 530,664 530,663 530,662 530,661 530,660 530,659 530,658 530,657 531,656 532,655 533,654 534,653 535,653 536,652 537,652 538,651 539,651 540,650 541,650 542,649 541,649 540,649 539,649 538,649 537,648 536,648 535,648 534,648 533,648 532,647 531,646 530,646 529,645 528,644 528,643 527,642 527,641 527,640 527,639 527,638 527,637 527,636 528,635 528,634 529,633 530,632 531,633 532,633 533,633 534,633 535,632 536,631 536,630 537,629 538,628 539,627 539,626 540,625 541,624 542,623 543,622 544,621 545,621 545,620 544,620 543,620 542,620 541,620 540,620 539,620 538,620 537,620 536,620 535,620 534,620 533,620 532,620 531,620 530,620 529,621 528,621 527,622 526,622 525,623 526,624 527,624 528,624 529,624 530,624 531,624 532,624 533,624 534,624 535,624 536,624 537,624 538,623 539,623 540,624 539,625 538,626 537,627 536,628 535,629 534,630 533,629 533,628 534,627 533,627 532,627 531,628 530,628 529,628 528,628 527,628 526,628 525,628 524,628 523,627 522,627 521,626 521,625 520,624 520,623 520,622 520,621 521,620 521,619 521,618 522,617 523,616 523,615 524,614 525,613 524,613 523,613 522,614 521,614 520,614 519,615 518,615 517,615 516,615 515,614 514,614 513,613 512,612 511,611 511,610 511,609 511,608 511,607 511,606 510,606 509,606 508,606 507,606 506,606 505,606 504,606 503,606 502,606 501,606 500,606 499,606 498,606 497,606 496,606 495,606 494,606 493,606 492,606 491,606 490,606 489,606 488,606 487,606 486,606 485,606 484,606 483,606 482,606 481,606 480,606 479,606 478,606 477,606 476,606 475,606 474,606 473,606 472,606 471,606 470,606 469,606 468,606 467,606 466,606 465,606 464,606 463,606 462,606 461,606 460,606 459,606 458,606 457,606 456,606 455,606 454,606 453,606 452,606 451,606 450,606 449,606 448,606 447,606 446,606 445,606 444,606 443,607 442,607 441,607 440,607 439,606 438,606 437,606 436,606 435,606 434,606 433,606 432,606 431,606 430,606 429,606 428,606 427,607 426,607 425,607 424,607 423,607 422,607 421,606 420,606 419,606">
      <metadata tailDirection="" confidence="0.83" linkedToCharacter="" id="UltraEleven_152_balloon_0" tailTip=""></metadata>
    </polygon>
    <polygon points="393,344 392,345 391,346 390,346 389,347 389,348 388,349 387,350 386,351 386,352 385,353 384,354 384,355 383,356 383,357 382,358 382,359 382,360 381,361 381,362 381,363 381,364 381,365 380,366 380,367 380,368 380,369 380,370 380,371 380,372 380,373 380,374 380,375 380,376 380,377 380,378 380,379 380,380 380,381 380,382 380,383 380,384 380,385 380,386 380,387 380,388 380,389 380,390 380,391 380,392 380,393 381,394 381,395 381,396 381,397 380,398 381,399 381,400 381,401 381,402 381,403 381,404 381,405 381,406 381,407 381,408 381,409 381,410 381,411 381,412 381,413 381,414 381,415 381,416 381,417 381,418 381,419 381,420 381,421 381,422 381,423 381,424 381,425 381,426 381,427 381,428 381,429 382,430 382,431 382,432 382,433 382,434 382,435 383,436 383,437 383,438 383,439 384,440 384,441 385,442 385,443 386,444 387,445 388,446 388,447 389,448 390,449 391,450 392,450 393,451 394,452 395,452 396,453 397,453 398,453 399,453 400,453 401,453 402,454 403,454 404,454 405,455 406,456 407,457 407,458 408,458 409,457 410,457 411,456 412,456 413,456 414,456 415,456 416,456 417,456 418,456 419,456 420,456 421,456 422,456 423,456 424,455 425,455 426,455 427,454 428,454 429,454 430,453 431,452 432,452 433,451 434,450 435,450 436,449 436,448 437,447 438,446 438,445 438,444 438,443 438,442 438,441 438,440 438,439 438,438 438,437 438,436 438,435 438,434 438,433 438,432 438,431 438,430 438,429 438,428 438,427 438,426 438,425 438,424 438,423 438,422 438,421 438,420 438,419 438,418 438,417 438,416 438,415 438,414 438,413 438,412 438,411 438,410 439,409 439,408 439,407 439,406 439,405 439,404 439,403 438,402 438,401 438,400 439,399 439,398 438,397 438,396 438,395 438,394 438,393 438,392 438,391 438,390 438,389 438,388 439,387 439,386 439,385 439,384 438,383 438,382 438,381 438,380 438,379 438,378 438,377 438,376 438,375 438,374 439,373 439,372 439,371 439,370 439,369 439,368 438,367 438,366 439,365 439,364 439,363 439,362 439,361 439,360 439,359 439,358 439,357 439,356 439,355 439,354 439,353 439,352 439,351 439,350 439,349 438,348 438,347 438,346 438,345 438,344 437,344 436,344 435,344 434,344 433,344 432,344 431,344 430,344 429,344 428,344 427,344 426,344 425,344 424,344 423,344 422,344 421,344 420,344 419,344 418,344 417,344 416,344 415,344 414,344 413,344 412,344 411,344 410,344 409,344 408,344 407,344 406,344 405,344 404,344 403,344 402,344 401,344 400,344 399,344 398,344 397,344 396,344 395,344 394,344 393,344">
      <metadata tailDirection="" confidence="0.82" linkedToCharacter="" id="UltraEleven_152_balloon_1" tailTip=""></metadata>
    </polygon>
    <polygon points="225,344 224,345 223,346 222,347 221,347 220,348 219,349 218,350 217,351 216,352 215,353 214,354 213,355 212,356 211,357 211,358 210,359 209,360 209,361 208,362 208,363 207,364 207,365 207,366 207,367 207,368 207,369 207,370 207,371 207,372 207,373 207,374 206,375 206,376 206,377 206,378 206,379 206,380 206,381 206,382 206,383 206,384 206,385 207,386 208,387 209,388 209,389 210,390 210,391 211,392 212,393 212,394 213,395 213,396 214,397 214,398 215,399 215,400 215,401 216,402 216,403 216,404 216,405 217,406 217,407 217,408 217,409 218,410 218,411 218,412 218,413 218,414 219,415 219,416 219,417 219,418 219,419 220,420 221,420 222,421 223,421 224,422 225,423 226,424 227,424 228,425 229,426 230,426 231,427 232,427 233,428 234,429 235,429 236,430 237,430 238,431 239,432 240,432 241,432 242,433 243,433 244,434 245,434 246,434 247,434 248,435 249,435 250,435 251,435 252,435 253,435 254,435 255,435 256,435 257,435 258,435 259,434 260,434 261,434 262,434 263,434 264,434 265,434 266,434 267,433 268,433 269,433 270,433 271,433 272,433 273,433 274,432 275,432 276,432 277,432 278,432 279,432 280,432 281,433 282,433 283,433 284,434 285,434 285,433 286,432 287,431 288,430 289,430 290,430 291,430 292,430 293,430 294,429 295,429 296,429 297,429 298,429 299,429 300,429 301,429 302,428 303,428 304,428 305,428 306,427 307,427 308,427 309,427 310,426 311,426 312,426 313,425 314,425 315,425 316,424 317,423 318,423 319,422 320,422 321,421 322,420 323,420 324,419 325,418 326,417 327,416 328,415 329,415 330,414 331,413 332,412 333,411 333,410 334,409 334,408 335,407 335,406 336,405 336,404 337,403 337,402 337,401 337,400 337,399 338,398 338,397 338,396 338,395 338,394 338,393 338,392 338,391 338,390 338,389 338,388 338,387 338,386 338,385 338,384 338,383 338,382 338,381 338,380 338,379 338,378 338,377 338,376 338,375 338,374 338,373 338,372 338,371 338,370 338,369 338,368 338,367 338,366 338,365 338,364 338,363 338,362 337,361 337,360 337,359 337,358 336,357 336,356 336,355 335,354 335,353 334,352 334,351 333,350 332,349 331,348 330,347 329,346 328,346 327,345 326,344 325,344 324,344 323,344 322,344 321,344 320,344 319,344 318,344 317,344 316,344 315,344 314,344 313,344 312,344 311,344 310,344 309,344 308,344 307,344 306,344 305,344 304,344 303,344 302,344 301,344 300,344 299,344 298,344 297,344 296,344 295,344 294,344 293,344 292,344 291,344 290,344 289,344 288,344 287,344 286,344 285,344 284,344 283,344 282,344 281,344 280,344 279,344 278,344 277,344 276,344 275,344 274,344 273,344 272,344 271,344 270,344 269,344 268,344 267,344 266,344 265,344 264,344 263,344 262,344 261,344 260,344 259,344 258,344 257,344 256,344 255,344 254,344 253,344 252,344 251,344 250,344 249,344 248,344 247,344 246,344 245,344 244,344 243,344 242,344 241,344 240,344 239,344 238,344 237,344 236,344 235,344 234,344 233,344 232,344 231,344 230,344 229,344 228,344 227,344 226,344 225,344">
      <metadata tailDirection="" confidence="0.92" linkedToCharacter="" id="UltraEleven_152_balloon_2" tailTip=""></metadata>
    </polygon>
    <polygon points="71,344 71,345 71,346 71,347 71,348 71,349 71,350 71,351 71,352 71,353 71,354 71,355 71,356 71,357 71,358 71,359 71,360 71,361 71,362 71,363 71,364 71,365 71,366 71,367 71,368 71,369 71,370 71,371 71,372 71,373 71,374 71,375 71,376 71,377 71,378 71,379 71,380 71,381 71,382 71,383 71,384 71,385 71,386 71,387 71,388 71,389 71,390 71,391 71,392 71,393 71,394 71,395 71,396 71,397 71,398 71,399 71,400 71,401 71,402 71,403 71,404 71,405 72,405 73,406 74,406 75,407 76,407 77,408 78,408 79,408 80,409 81,409 82,409 83,409 84,410 85,410 86,410 87,410 88,410 89,410 90,409 91,409 92,409 93,408 94,408 95,408 96,408 97,408 98,409 99,409 100,410 101,410 102,409 103,408 104,407 105,406 106,406 107,406 108,405 109,405 110,404 111,404 112,404 113,404 114,403 115,403 116,403 117,402 118,402 119,401 120,401 121,400 122,399 122,398 123,397 124,396 125,395 125,394 126,393 126,392 127,391 127,390 128,389 128,388 129,387 129,386 129,385 130,384 130,383 130,382 130,381 130,380 130,379 130,378 130,377 130,376 130,375 130,374 130,373 130,372 130,371 130,370 130,369 130,368 130,367 130,366 129,365 129,364 129,363 129,362 128,361 128,360 128,359 127,358 127,357 126,356 126,355 125,354 124,353 123,352 122,351 121,350 120,349 119,348 118,348 117,347 116,346 115,346 114,345 113,344 112,344 111,344 110,344 109,344 108,344 107,344 106,344 105,344 104,344 103,344 102,344 101,344 100,344 99,344 98,344 97,344 96,344 95,344 94,344 93,344 92,344 91,344 90,344 89,344 88,344 87,344 86,344 85,344 84,344 83,344 82,344 81,344 80,344 79,344 78,344 77,344 76,344 75,344 74,344 73,344 72,344 71,344">
      <metadata tailDirection="" confidence="0.80" linkedToCharacter="" id="UltraEleven_152_balloon_3" tailTip=""></metadata>
    </polygon>
    <polygon points="451,344 451,345 451,346 451,347 451,348 451,349 451,350 451,351 451,352 451,353 451,354 451,355 451,356 451,357 451,358 451,359 451,360 451,361 451,362 451,363 451,364 451,365 451,366 451,367 451,368 451,369 451,370 451,371 451,372 451,373 451,374 451,375 451,376 451,377 451,378 451,379 451,380 451,381 451,382 451,383 451,384 451,385 451,386 451,387 451,388 451,389 451,390 451,391 451,392 451,393 451,394 451,395 451,396 451,397 451,398 451,399 451,400 451,401 451,402 451,403 451,404 451,405 451,406 451,407 451,408 451,409 451,410 451,411 451,412 451,413 451,414 451,415 451,416 451,417 451,418 451,419 451,420 451,421 451,422 451,423 451,424 451,425 451,426 451,427 451,428 451,429 451,430 451,431 451,432 451,433 451,434 451,435 451,436 451,437 451,438 451,439 451,440 451,441 451,442 451,443 451,444 451,445 451,446 451,447 451,448 451,449 451,450 451,451 451,452 451,453 451,454 451,455 451,456 451,457 451,458 451,459 451,460 451,461 451,462 451,463 451,464 451,465 451,466 451,467 451,468 451,469 451,470 451,471 451,472 451,473 451,474 451,475 451,476 451,477 451,478 451,479 451,480 451,481 451,482 451,483 451,484 451,485 451,486 451,487 451,488 451,489 451,490 451,491 451,492 451,493 451,494 451,495 451,496 451,497 451,498 451,499 451,500 451,501 451,502 451,503 451,504 451,505 451,506 451,507 451,508 451,509 451,510 451,511 451,512 451,513 451,514 451,515 451,516 451,517 451,518 451,519 451,520 451,521 451,522 451,523 451,524 451,525 451,526 451,527 451,528 451,529 451,530 451,531 451,532 451,533 451,534 451,535 451,536 451,537 451,538 451,539 451,540 451,541 451,542 451,543 451,544 451,545 451,546 451,547 451,548 451,549 452,549 453,549 454,549 455,549 456,550 457,551 458,552 458,553 459,554 459,555 460,556 460,557 461,558 461,559 461,560 461,561 462,562 462,563 462,564 462,565 463,565 463,564 463,563 463,562 464,561 464,560 464,559 465,558 465,557 466,556 466,555 467,554 467,553 468,552 469,551 470,550 470,549 471,548 472,548 473,547 474,546 475,546 476,545 477,545 478,545 479,545 480,545 481,546 482,545 483,544 484,543 485,542 486,542 487,542 488,542 489,542 490,542 490,541 490,540 491,539 491,538 492,537 493,536 494,535 495,534 496,533 497,533 498,532 499,532 500,531 501,531 502,531 503,531 504,531 505,531 506,531 507,531 508,531 509,531 510,532 511,532 512,533 513,533 514,533 515,534 516,534 515,533 515,532 514,531 514,530 513,529 513,528 512,527 512,526 511,525 511,524 511,523 510,522 510,521 510,520 510,519 510,518 510,517 510,516 510,515 511,514 511,513 512,512 513,511 513,510 514,509 515,509 516,508 517,508 517,507 517,506 517,505 517,504 517,503 517,502 518,501 518,500 519,499 519,498 520,497 521,496 522,495 523,494 524,494 525,493 526,493 526,492 525,491 525,490 524,489 523,488 522,487 522,486 521,485 521,484 521,483 520,482 520,481 520,480 520,479 520,478 520,477 520,476 520,475 520,474 521,473 522,472 522,471 523,470 524,469 524,468 524,467 524,466 524,465 525,464 525,463 526,462 527,461 528,460 529,459 530,458 531,458 531,457 530,456 529,455 529,454 529,453 529,452 529,451 530,450 531,450 532,450 533,450 534,450 535,450 536,451 537,451 538,451 539,450 540,450 541,450 542,450 543,450 544,450 545,450 546,450 547,451 548,451 549,451 549,450 549,449 548,448 547,447 546,446 545,445 544,444 544,443 543,443 542,443 541,443 540,443 539,443 538,443 537,444 536,444 535,445 534,446 533,447 532,446 532,445 533,444 534,443 535,442 536,442 537,441 536,441 535,440 534,440 533,440 532,440 531,439 530,439 529,438 528,438 527,437 526,436 525,435 524,434 523,433 522,432 522,431 521,430 521,429 521,428 521,427 521,426 522,425 522,424 522,423 523,422 524,421 524,420 525,419 526,418 525,417 524,416 524,415 524,414 524,413 525,412 525,411 526,410 526,409 527,408 528,407 529,406 528,406 527,406 526,406 525,405 524,405 523,405 522,404 521,404 520,403 520,402 519,401 519,400 519,399 519,398 519,397 520,396 520,395 521,394 521,393 522,392 522,391 523,390 523,389 523,388 523,387 522,386 522,385 523,384 523,383 524,382 524,381 525,380 525,379 526,378 527,377 528,376 527,376 526,375 525,374 524,373 523,372 523,371 523,370 523,369 523,368 523,367 524,366 525,365 525,364 526,363 526,362 527,361 527,360 528,359 529,358 529,357 528,358 527,358 526,358 525,359 524,359 523,359 522,359 521,359 520,359 519,358 518,358 517,357 516,357 515,356 515,355 514,354 514,353 514,352 514,351 514,350 514,349 514,348 514,347 514,346 515,345 515,344 514,344 513,344 512,344 511,344 510,344 509,344 508,344 507,344 506,344 505,344 504,344 503,344 502,344 501,344 500,344 499,344 498,344 497,344 496,344 495,344 494,344 493,344 492,344 491,344 490,344 489,344 488,344 487,344 486,344 485,344 484,344 483,344 482,344 481,344 480,344 479,344 478,344 477,344 476,344 475,344 474,344 473,344 472,344 471,344 470,344 469,344 468,344 467,344 466,344 465,344 464,344 463,344 462,344 461,344 460,344 459,344 458,344 457,344 456,344 455,344 454,344 453,344 452,344 451,344">
      <metadata tailDirection="" confidence="0.90" linkedToCharacter="" id="UltraEleven_152_balloon_4" tailTip=""></metadata>
    </polygon>
    <polygon points="634,343 633,344 632,344 631,344 630,344 629,344 628,344 629,345 629,346 630,347 630,348 630,349 630,350 629,351 629,352 628,353 627,354 626,355 625,356 624,357 624,358 624,359 624,360 625,361 625,362 624,363 624,364 624,365 623,366 622,367 621,368 620,369 619,370 618,371 617,372 616,373 615,373 614,374 613,375 612,375 611,376 610,376 609,377 608,377 607,378 607,379 607,380 607,381 606,382 605,383 604,383 603,384 602,385 601,385 600,386 599,387 598,387 597,388 596,388 597,388 598,388 599,389 600,389 601,389 602,390 603,390 604,391 605,391 606,392 607,392 608,393 609,394 610,395 611,396 612,397 613,398 614,399 614,400 614,401 614,402 614,403 614,404 613,405 613,406 614,406 615,406 616,406 617,406 618,407 619,408 620,409 621,410 621,411 621,412 621,413 621,414 621,415 620,416 620,417 619,418 618,419 617,420 617,421 616,422 615,423 614,424 615,425 616,424 617,424 618,424 619,424 620,424 621,424 622,424 623,425 624,425 625,425 626,426 627,427 628,428 629,429 630,430 630,431 630,432 630,433 630,434 630,435 630,436 630,437 629,438 629,439 630,439 631,439 632,438 633,438 634,438 635,437 636,437 637,437 638,437 639,437 640,437 641,437 642,437 643,437 644,437 645,437 646,438 647,439 648,440 648,441 649,442 649,443 649,444 650,444 651,443 652,443 653,443 654,442 655,442 656,442 657,442 658,441 659,441 660,441 661,440 662,440 663,441 664,441 665,441 666,441 667,441 668,441 669,441 670,441 671,441 672,441 673,441 674,442 675,442 676,443 677,443 678,444 679,445 679,446 680,447 681,447 682,446 683,446 684,446 685,445 686,445 687,444 688,444 689,444 690,444 691,444 692,444 693,443 694,443 695,443 696,443 697,443 698,443 699,443 700,444 701,444 702,444 703,444 704,444 705,445 706,445 707,445 708,446 709,446 710,447 711,448 712,448 712,447 713,446 714,445 715,445 716,444 717,443 718,443 719,442 720,442 721,441 722,441 723,440 724,440 725,440 726,439 727,439 728,439 729,439 730,438 731,438 732,438 733,438 734,438 735,438 735,437 735,436 736,435 736,434 737,433 738,432 739,431 740,430 741,429 742,429 743,428 744,428 744,427 744,426 744,425 744,424 744,423 744,422 744,421 744,420 744,419 744,418 744,417 744,416 744,415 744,414 744,413 744,412 744,411 744,410 744,409 744,408 744,407 744,406 744,405 744,404 744,403 744,402 744,401 744,400 744,399 744,398 744,397 744,396 744,395 744,394 744,393 744,392 744,391 744,390 744,389 744,388 744,387 744,386 744,385 744,384 744,383 744,382 744,381 744,380 744,379 744,378 744,377 744,376 744,375 744,374 744,373 744,372 744,371 744,370 744,369 744,368 744,367 744,366 744,365 744,364 744,363 744,362 744,361 744,360 744,359 744,358 744,357 744,356 744,355 744,354 744,353 744,352 744,351 744,350 744,349 744,348 744,347 744,346 744,345 744,344 744,343 743,343 742,343 741,343 740,343 739,343 738,343 737,343 736,343 735,343 734,343 733,343 732,343 731,343 730,343 729,343 728,343 727,343 726,343 725,343 724,343 723,343 722,343 721,343 720,343 719,343 718,343 717,343 716,343 715,343 714,343 713,343 712,343 711,343 710,343 709,343 708,343 707,343 706,343 705,343 704,343 703,343 702,343 701,343 700,343 699,343 698,343 697,343 696,343 695,343 694,343 693,343 692,343 691,343 690,343 689,343 688,343 687,343 686,343 685,343 684,343 683,343 682,343 681,343 680,343 679,343 678,343 677,343 676,343 675,343 674,343 673,343 672,343 671,343 670,343 669,343 668,344 667,343 666,343 665,343 664,343 663,343 662,343 661,343 660,343 659,343 658,344 657,344 656,344 655,344 654,344 653,344 652,343 651,343 650,343 649,343 648,343 647,343 646,344 645,343 644,343 643,343 642,343 641,343 640,343 639,344 638,344 637,344 636,343 635,343 634,343">
      <metadata tailDirection="" confidence="0.86" linkedToCharacter="" id="UltraEleven_152_balloon_5" tailTip=""></metadata>
    </polygon>
  </svg>
</svg>
