<?xml version="1.0" encoding="UTF-8" standalone="no"?>
<svg width="827" xmlns="http://www.w3.org/2000/svg" version="1.0" height="1170">
  <title>UltraEleven_045</title>
  <svg contentScriptType="text/ecmascript" zoomAndPan="magnify" contentStyleType="text/css" class="Page" preserveAspectRatio="xMidYMid meet" version="1.0">
    <image xmlns:xlink="http://www.w3.org/1999/xlink" x="0" y="0" width="827" height="1170" xlink:href="./../../dataset_Manga109/UltraEleven/UltraEleven_045.jpg" xlink:type="simple" xlink:actuate="onLoad" preserveAspectRatio="xMidYMid meet" xlink:show="embed"/>
  </svg>
  <style type="text/css" xml:space="preserve">
        * { stroke-linejoin: round; }
        .Unclassified   { fill: orange; stroke: none;   opacity: 1.0; visibility: hidden; }
        .Noise          { fill: pink;   stroke: none;   opacity: 0.2; visibility: hidden; }
        .Panel          { fill: none;   stroke: red;    stroke-width:3; opacity: 0.5; visibility: visible; image-rendering: optimizeSpeed; }
        .Line           { fill: green;  stroke: none;   opacity: 0.5; visibility: visible; image-rendering: optimizeSpeed; }
        .TextArea       { fill: grey;   stroke: none;   opacity: 0.2; visibility: visible; image-rendering: optimizeSpeed; }
        .Balloon        { fill: cyan;   stroke: none;   opacity: 0.5; visibility: visible; image-rendering: optimizeSpeed; }
        .Letter         { fill: blue;   stroke: none;   opacity: 0.2; visibility: hidden; }
        .Object, .Character, .Face  { fill: yellow; stroke: none;   opacity: 0.5; visibility: visible; image-rendering: optimizeSpeed; }
        .Page           { fill: white;  stroke: none;    opacity: 0.5; visibility: visible; }
        .linkSBSC { fill: blue; stroke: none; opacity: 1.0; visibility: visible; }
        polygon:hover { opacity:1.0; stroke:red; }
</style>
  <svg xmlns="http://www.w3.org/2000/svg" contentScriptType="text/ecmascript" zoomAndPan="magnify" contentStyleType="text/css" class="Balloon" preserveAspectRatio="xMidYMid meet" version="1.0">
    <polygon points="674,684 673,685 672,685 671,685 670,685 669,685 668,685 667,685 666,685 665,685 664,685 663,685 662,685 661,685 660,685 659,685 658,685 657,685 656,685 655,685 654,685 653,685 652,685 651,685 650,685 649,685 648,685 647,685 646,685 645,685 644,685 643,685 642,685 641,685 640,685 639,685 638,685 637,685 636,685 635,685 634,685 633,685 632,685 631,685 630,685 629,685 628,686 627,687 626,688 625,689 624,690 623,691 622,692 621,693 620,694 619,695 618,696 617,697 617,698 616,699 615,700 614,701 614,702 613,703 612,704 612,705 612,706 611,707 611,708 611,709 611,710 611,711 611,712 611,713 611,714 611,715 611,716 611,717 611,718 611,719 611,720 611,721 611,722 611,723 611,724 611,725 611,726 611,727 611,728 611,729 611,730 611,731 611,732 611,733 611,734 611,735 611,736 611,737 611,738 611,739 611,740 611,741 611,742 611,743 611,744 611,745 611,746 611,747 611,748 611,749 611,750 611,751 611,752 611,753 611,754 611,755 611,756 611,757 611,758 612,759 612,760 612,761 612,762 612,763 612,764 612,765 612,766 612,767 613,768 613,769 613,770 613,771 614,772 614,773 615,774 615,775 616,776 616,777 617,778 618,779 619,780 620,781 621,782 622,783 623,784 624,785 625,786 626,787 627,788 628,789 629,790 630,791 631,792 632,793 633,794 634,795 635,796 636,797 637,797 638,798 639,799 640,800 641,801 642,802 643,803 644,804 645,804 646,805 647,806 648,807 649,807 650,808 651,809 652,809 653,810 654,810 655,811 656,811 657,811 658,812 659,812 660,813 661,813 662,813 663,813 664,814 665,814 666,814 667,814 668,814 669,814 670,815 671,815 672,815 673,815 674,815 675,815 676,815 677,815 678,815 679,816 680,816 681,816 682,816 683,816 684,816 685,816 686,816 687,816 688,816 689,816 690,817 691,817 692,817 693,817 694,817 695,817 696,817 697,818 698,818 699,818 700,819 700,820 700,821 700,822 700,823 700,824 701,823 702,822 703,821 704,820 705,820 706,820 707,820 708,820 709,820 710,821 711,821 712,821 713,821 714,822 715,822 716,822 717,822 718,822 719,822 720,822 721,822 722,822 723,821 724,821 725,820 726,820 727,819 728,818 729,818 730,817 731,816 732,816 733,815 734,814 735,814 736,813 737,812 738,811 739,811 740,810 741,809 742,809 743,808 744,807 745,806 746,806 747,805 748,804 749,803 750,803 751,802 752,801 753,800 754,799 755,798 755,797 755,796 755,795 755,794 755,793 755,792 755,791 755,790 755,789 755,788 755,787 755,786 755,785 755,784 755,783 756,782 756,781 756,780 755,779 756,778 756,777 755,776 756,775 756,774 756,773 756,772 756,771 756,770 756,769 756,768 756,767 756,766 756,765 756,764 756,763 756,762 756,761 756,760 756,759 756,758 756,757 756,756 756,755 756,754 756,753 756,752 756,751 756,750 756,749 756,748 756,747 756,746 756,745 756,744 756,743 756,742 756,741 756,740 756,739 756,738 756,737 756,736 756,735 756,734 756,733 756,732 756,731 756,730 756,729 756,728 756,727 756,726 756,725 756,724 756,723 756,722 756,721 756,720 756,719 756,718 756,717 756,716 756,715 756,714 756,713 756,712 756,711 756,710 756,709 756,708 756,707 756,706 756,705 756,704 756,703 756,702 756,701 756,700 756,699 756,698 756,697 756,696 756,695 756,694 756,693 756,692 756,691 756,690 756,689 756,688 756,687 756,686 756,685 756,684 755,684 754,684 753,684 752,684 751,684 750,684 749,684 748,684 747,684 746,684 745,684 744,684 743,684 742,684 741,684 740,684 739,684 738,684 737,684 736,684 735,684 734,684 733,684 732,684 731,684 730,684 729,684 728,684 727,684 726,684 725,684 724,684 723,684 722,684 721,684 720,684 719,684 718,684 717,684 716,684 715,684 714,684 713,684 712,685 711,684 710,684 709,684 708,684 707,684 706,684 705,684 704,684 703,684 702,684 701,684 700,684 699,684 698,684 697,684 696,684 695,684 694,684 693,684 692,684 691,685 690,685 689,684 688,685 687,685 686,685 685,685 684,685 683,685 682,685 681,685 680,685 679,685 678,684 677,684 676,684 675,684 674,684">
      <metadata tailDirection="" confidence="0.89" linkedToCharacter="" id="UltraEleven_045_balloon_0" tailTip=""></metadata>
    </polygon>
    <polygon points="291,686 290,687 289,688 288,689 287,690 286,691 285,691 284,692 283,693 282,694 281,695 280,696 279,697 278,698 277,699 277,700 276,701 275,702 275,703 274,704 273,705 273,706 272,707 272,708 271,709 271,710 271,711 271,712 270,713 270,714 270,715 270,716 270,717 270,718 270,719 270,720 270,721 269,722 269,723 270,724 270,725 270,726 269,727 269,728 269,729 269,730 269,731 269,732 269,733 269,734 269,735 269,736 269,737 269,738 269,739 269,740 269,741 269,742 269,743 269,744 269,745 269,746 269,747 269,748 269,749 269,750 269,751 269,752 269,753 269,754 269,755 269,756 269,757 269,758 269,759 269,760 269,761 269,762 269,763 269,764 269,765 269,766 269,767 269,768 269,769 269,770 269,771 269,772 269,773 269,774 269,775 269,776 269,777 269,778 269,779 269,780 269,781 269,782 270,783 270,784 270,785 270,786 270,787 270,788 270,789 270,790 270,791 270,792 270,793 270,794 270,795 270,796 270,797 271,798 271,799 272,800 273,801 273,802 274,803 275,804 276,805 277,806 278,807 279,808 279,809 280,810 281,811 282,812 282,813 283,814 284,815 285,816 285,817 286,818 287,819 288,820 289,821 290,822 291,823 292,824 293,824 294,825 294,826 295,827 296,827 297,828 298,829 299,830 300,830 301,830 302,831 303,831 304,831 305,831 306,832 307,832 308,832 309,832 310,832 311,832 312,832 313,832 314,832 315,832 316,832 317,832 318,832 319,832 320,832 321,832 322,832 323,832 324,832 325,832 326,832 327,831 328,831 329,831 330,832 330,833 329,834 328,835 327,836 326,835 326,834 325,834 325,835 326,835 327,836 326,837 325,838 325,839 324,840 325,839 326,839 327,838 328,837 329,836 330,836 331,835 332,834 333,834 334,833 335,832 336,832 337,832 338,832 339,832 340,832 341,832 342,832 343,832 344,832 345,832 346,832 347,832 348,832 349,831 350,831 351,831 352,831 353,831 354,831 355,831 356,831 357,831 358,831 359,831 360,831 361,831 362,831 363,831 364,831 365,831 366,831 367,831 368,831 369,831 370,831 371,831 372,831 373,831 374,831 375,831 376,831 377,831 378,830 379,829 380,829 381,828 382,827 383,826 384,826 385,825 386,824 387,824 388,823 389,822 390,821 391,820 392,820 393,819 394,818 395,817 396,817 397,816 398,815 399,814 400,813 401,813 402,812 403,811 404,810 405,809 405,808 406,807 406,806 406,805 406,804 406,803 406,802 406,801 406,800 406,799 406,798 406,797 406,796 406,795 406,794 406,793 406,792 406,791 406,790 406,789 406,788 406,787 406,786 406,785 406,784 406,783 406,782 406,781 406,780 406,779 406,778 405,777 405,776 406,775 406,774 406,773 406,772 406,771 406,770 406,769 405,768 405,767 405,766 405,765 405,764 405,763 405,762 405,761 405,760 405,759 405,758 405,757 405,756 405,755 405,754 405,753 405,752 405,751 405,750 405,749 405,748 405,747 405,746 405,745 405,744 405,743 405,742 405,741 405,740 405,739 405,738 405,737 405,736 405,735 405,734 405,733 405,732 405,731 405,730 405,729 405,728 405,727 405,726 405,725 405,724 405,723 405,722 405,721 405,720 405,719 405,718 405,717 405,716 405,715 405,714 405,713 405,712 405,711 405,710 405,709 405,708 405,707 405,706 405,705 405,704 405,703 405,702 405,701 405,700 405,699 405,698 405,697 405,696 405,695 405,694 405,693 405,692 405,691 405,690 405,689 405,688 405,687 405,686 404,686 403,686 402,686 401,686 400,686 399,686 398,686 397,686 396,686 395,686 394,686 393,686 392,686 391,686 390,686 389,686 388,686 387,686 386,686 385,686 384,686 383,686 382,686 381,686 380,686 379,686 378,686 377,686 376,686 375,686 374,686 373,686 372,686 371,686 370,686 369,686 368,686 367,686 366,686 365,686 364,686 363,686 362,686 361,686 360,686 359,686 358,686 357,686 356,686 355,686 354,686 353,686 352,686 351,686 350,686 349,686 348,686 347,686 346,686 345,686 344,686 343,686 342,686 341,686 340,686 339,686 338,686 337,686 336,686 335,686 334,686 333,686 332,686 331,686 330,686 329,686 328,686 327,686 326,686 325,686 324,686 323,686 322,686 321,686 320,686 319,686 318,686 317,686 316,686 315,686 314,686 313,686 312,686 311,686 310,686 309,686 308,686 307,686 306,686 305,686 304,686 303,686 302,686 301,686 300,686 299,686 298,686 297,686 296,686 295,686 294,686 293,686 292,686 291,686">
      <metadata tailDirection="" confidence="0.92" linkedToCharacter="" id="UltraEleven_045_balloon_1" tailTip=""></metadata>
    </polygon>
    <polygon points="271,441 270,442 269,443 268,444 267,445 267,446 266,447 265,448 265,449 264,450 264,451 263,452 263,453 263,454 263,455 263,456 263,457 263,458 263,459 263,460 263,461 263,462 263,463 263,464 263,465 263,466 263,467 262,468 262,469 262,470 262,471 262,472 262,473 262,474 262,475 262,476 262,477 262,478 262,479 262,480 262,481 262,482 262,483 262,484 262,485 262,486 262,487 262,488 262,489 262,490 262,491 262,492 262,493 262,494 262,495 263,496 263,497 263,498 264,499 265,500 266,501 267,502 268,503 269,504 270,505 271,506 272,507 272,508 272,509 272,510 272,511 273,511 274,510 275,510 276,511 277,511 278,512 279,513 280,513 281,514 282,515 283,515 284,516 285,517 286,517 287,518 288,518 289,518 290,517 291,517 292,517 293,517 294,517 295,517 296,517 297,516 298,516 299,516 300,516 301,516 302,516 303,515 304,515 305,515 306,515 307,514 307,513 307,512 307,511 307,510 307,509 307,508 307,507 307,506 307,505 307,504 307,503 307,502 307,501 307,500 307,499 307,498 307,497 307,496 307,495 307,494 307,493 307,492 307,491 307,490 307,489 307,488 307,487 307,486 307,485 307,484 307,483 307,482 307,481 307,480 307,479 307,478 307,477 307,476 307,475 307,474 307,473 307,472 307,471 307,470 307,469 307,468 307,467 307,466 307,465 307,464 307,463 307,462 307,461 307,460 307,459 307,458 307,457 307,456 307,455 307,454 307,453 307,452 307,451 307,450 307,449 307,448 307,447 307,446 307,445 307,444 307,443 307,442 307,441 306,441 305,441 304,441 303,441 302,441 301,441 300,441 299,441 298,441 297,441 296,441 295,441 294,441 293,441 292,441 291,441 290,441 289,441 288,441 287,441 286,441 285,441 284,441 283,441 282,441 281,441 280,441 279,441 278,441 277,441 276,441 275,441 274,441 273,441 272,441 271,441">
      <metadata tailDirection="" confidence="0.99" linkedToCharacter="" id="UltraEleven_045_balloon_2" tailTip=""></metadata>
    </polygon>
    <polygon points="407,497 406,498 405,499 404,499 403,500 402,501 401,502 400,503 399,504 398,505 397,506 396,507 396,508 396,509 396,510 396,511 396,512 396,513 396,514 396,515 396,516 396,517 395,518 394,519 393,519 392,520 391,521 390,521 389,522 388,523 387,523 386,524 385,525 385,526 385,527 385,528 385,529 385,530 385,531 385,532 384,533 384,534 384,535 384,536 384,537 384,538 384,539 383,540 383,541 383,542 383,543 383,544 382,545 382,546 382,547 382,548 381,549 381,550 381,551 381,552 380,553 380,554 380,555 379,556 379,557 379,558 378,559 377,560 377,561 377,562 376,563 376,564 375,565 374,566 373,567 372,568 372,569 372,570 371,571 371,572 371,573 372,574 371,575 371,576 372,577 372,578 372,579 372,580 372,581 372,582 372,583 372,584 373,585 373,586 373,587 373,588 374,589 374,590 374,591 374,592 375,593 375,594 375,595 376,596 377,597 378,598 379,599 380,599 381,600 382,600 383,601 384,601 385,602 386,603 387,603 388,604 389,604 390,605 391,605 392,606 393,606 394,607 395,607 396,608 397,608 398,609 399,609 400,610 400,609 400,608 400,607 400,606 401,605 402,606 403,606 404,607 405,608 406,609 407,610 408,611 409,612 410,612 411,613 412,614 413,614 414,614 415,614 416,614 417,614 418,614 419,614 420,614 421,614 422,614 423,614 424,614 425,614 426,614 427,614 428,614 429,614 430,614 431,614 432,614 433,614 434,613 435,613 436,613 437,613 438,613 439,613 440,613 441,613 442,613 443,612 444,612 445,612 446,612 447,611 448,611 449,612 449,613 448,614 447,615 448,616 449,617 450,618 451,619 451,620 452,621 453,622 454,623 454,624 455,624 456,625 457,626 458,626 459,626 460,625 461,625 462,624 463,623 464,623 465,622 466,621 467,620 468,619 469,619 470,618 471,617 472,616 473,615 474,614 475,613 476,612 477,612 477,611 478,610 478,609 478,608 478,607 478,606 478,605 478,604 478,603 478,602 478,601 479,600 479,599 479,598 479,597 479,596 479,595 478,596 478,597 478,598 477,599 476,600 475,601 474,602 473,603 472,604 471,604 470,605 469,605 468,606 467,606 466,607 465,607 464,608 463,608 462,609 461,609 460,610 459,610 458,611 457,611 456,611 455,612 454,612 453,613 452,613 451,613 450,613 449,612 450,611 451,610 452,610 453,609 454,609 455,609 456,608 457,608 458,607 459,607 460,606 461,606 462,605 463,605 464,604 465,604 466,604 467,603 468,602 469,602 470,601 471,601 472,600 473,599 474,598 475,597 475,596 475,595 476,594 476,593 476,592 477,591 477,590 477,589 477,588 478,587 478,586 478,585 478,584 479,583 479,582 479,581 479,580 479,579 479,578 479,577 480,576 480,575 480,574 480,573 480,572 480,571 480,570 480,569 480,568 480,567 480,566 479,565 479,564 478,563 477,562 476,561 476,560 475,559 474,558 474,557 473,556 473,555 472,554 472,553 472,552 471,551 471,550 471,549 470,548 470,547 470,546 470,545 469,544 469,543 469,542 469,541 468,540 468,539 468,538 468,537 468,536 467,535 467,534 467,533 467,532 467,531 467,530 467,529 467,528 467,527 467,526 466,525 465,524 464,524 463,523 462,522 461,522 460,521 459,520 458,520 457,519 456,519 455,518 454,517 454,516 454,515 454,514 454,513 454,512 454,511 454,510 454,509 454,508 453,507 452,506 451,505 450,504 449,503 448,502 447,501 446,500 445,500 444,499 443,498 442,497 441,497 440,497 439,498 438,498 437,499 436,499 435,500 434,500 433,500 432,501 431,501 430,501 429,501 428,501 427,501 426,501 425,501 424,501 423,501 422,501 421,501 420,501 419,501 418,500 417,500 416,500 415,499 414,499 413,499 412,498 411,498 410,497 409,497 408,497 407,497">
      <metadata tailDirection="" confidence="0.88" linkedToCharacter="" id="UltraEleven_045_balloon_3" tailTip=""></metadata>
    </polygon>
    <polygon points="108,276 107,277 106,277 105,277 104,277 103,277 102,277 101,278 100,278 99,278 98,278 97,278 96,278 95,279 94,280 93,280 92,281 91,281 90,282 89,282 88,283 87,283 86,284 85,285 84,286 83,287 82,288 82,289 82,290 82,291 82,292 82,293 82,294 82,295 82,296 82,297 82,298 82,299 82,300 82,301 82,302 82,303 82,304 82,305 82,306 82,307 82,308 82,309 82,310 82,311 82,312 82,313 82,314 82,315 82,316 82,317 82,318 82,319 82,320 82,321 82,322 82,323 82,324 82,325 82,326 82,327 82,328 82,329 82,330 82,331 82,332 82,333 82,334 82,335 82,336 82,337 82,338 82,339 82,340 82,341 82,342 82,343 82,344 82,345 82,346 82,347 82,348 82,349 82,350 82,351 82,352 82,353 82,354 82,355 82,356 82,357 82,358 82,359 82,360 82,361 82,362 82,363 82,364 82,365 82,366 82,367 82,368 82,369 82,370 82,371 82,372 82,373 82,374 82,375 82,376 82,377 82,378 82,379 82,380 82,381 82,382 82,383 82,384 82,385 82,386 82,387 82,388 82,389 82,390 82,391 82,392 82,393 82,394 82,395 82,396 82,397 82,398 82,399 82,400 82,401 82,402 82,403 82,404 82,405 82,406 82,407 82,408 82,409 82,410 83,410 84,410 85,410 86,410 87,410 88,410 89,410 90,410 91,410 92,410 93,410 94,410 95,410 96,410 97,410 98,410 99,410 100,410 101,410 102,410 103,410 104,410 105,410 106,410 107,410 108,410 109,410 110,410 111,410 112,410 113,410 114,410 115,410 116,410 117,410 118,410 119,410 120,410 121,410 122,410 123,410 124,410 125,410 126,410 127,410 128,410 129,410 130,410 131,410 132,410 133,410 134,410 135,410 136,410 137,410 138,410 139,410 140,410 141,410 142,410 143,410 144,410 145,411 146,410 147,410 148,410 149,410 150,410 151,410 152,410 153,410 154,410 155,410 156,410 157,410 158,410 159,410 160,410 161,410 162,410 162,409 163,408 164,407 165,406 165,405 166,404 167,403 167,402 168,401 169,400 169,399 170,398 170,397 171,396 172,395 173,394 174,393 175,393 175,392 175,391 176,390 175,389 175,388 175,387 175,386 175,385 175,384 175,383 176,382 176,381 176,380 176,379 176,378 176,377 176,376 176,375 176,374 176,373 175,372 176,371 176,370 175,369 175,368 175,367 175,366 175,365 175,364 175,363 175,362 175,361 175,360 175,359 175,358 175,357 175,356 175,355 175,354 175,353 175,352 175,351 175,350 175,349 175,348 175,347 174,346 174,345 174,344 174,343 174,342 174,341 174,340 174,339 174,338 174,337 174,336 174,335 174,334 174,333 174,332 174,331 174,330 174,329 174,328 174,327 174,326 174,325 173,324 173,323 173,322 173,321 173,320 173,319 173,318 173,317 173,316 172,315 172,314 172,313 172,312 172,311 172,310 172,309 172,308 172,307 171,306 171,305 171,304 170,303 170,302 169,301 168,300 167,299 166,298 165,297 164,296 163,295 162,294 161,293 160,292 159,291 158,290 157,289 156,288 155,287 154,287 153,286 152,285 151,284 150,283 149,282 148,282 147,281 146,280 145,280 144,279 143,279 142,279 141,278 140,278 139,278 138,278 137,278 136,277 135,277 134,277 133,277 132,277 131,277 130,277 129,277 128,277 127,277 126,277 125,276 124,276 123,276 122,276 121,276 120,276 119,276 118,276 117,276 116,276 115,276 114,276 113,276 112,276 111,276 110,276 109,276 108,276">
      <metadata tailDirection="" confidence="0.92" linkedToCharacter="" id="UltraEleven_045_balloon_4" tailTip=""></metadata>
    </polygon>
  </svg>
</svg>
