<?xml version="1.0" encoding="UTF-8" standalone="no"?>
<svg width="700" xmlns="http://www.w3.org/2000/svg" version="1.0" height="720">
  <title>CYB_TRAFFIC_006</title>
  <svg contentScriptType="text/ecmascript" zoomAndPan="magnify" contentStyleType="text/css" class="Page" preserveAspectRatio="xMidYMid meet" version="1.0">
    <image xmlns:xlink="http://www.w3.org/1999/xlink" x="0" y="0" width="700" height="720" xlink:href="../Pages/CYB_TRAFFIC_006.jpg" xlink:type="simple" xlink:actuate="onLoad" preserveAspectRatio="xMidYMid meet" xlink:show="embed"/>
  </svg>
  <style type="text/css" xml:space="preserve">
        * { stroke-width: 0; stroke-linejoin: round; }
        .Unclassified { fill: orange; stroke: none; opacity: 1.0; visibility: hidden; }
        .Noise { fill: pink; stroke: none; opacity: 0.2; visibility: hidden; }
        .Panel { fill: red; stroke: none; opacity: 0.5; visibility: visible; image-rendering: optimizeSpeed; }
        .Line { fill: green; stroke: none; opacity: 0.5; visibility: visible; image-rendering: optimizeSpeed; }
        .TextArea { fill: grey; stroke: none; opacity: 0.2; visibility: visible; image-rendering: optimizeSpeed; }
        .Balloon { fill: cyan; stroke: none; opacity: 0.5; visibility: visible; image-rendering: optimizeSpeed; }
        .Letter { fill: blue; stroke: none; opacity: 0.2; visibility: hidden; }
        .Object { fill: yellow; stroke: none; opacity: 0.5; visibility: visible; image-rendering: optimizeSpeed; }
        .Page { fill: white; stroke: none; opacity: 0.5; visibility: visible; }
        polygon:hover { opacity:0.2; }
</style>
  <svg xmlns="http://www.w3.org/2000/svg" contentScriptType="text/ecmascript" zoomAndPan="magnify" contentStyleType="text/css" class="Balloon" preserveAspectRatio="xMidYMid meet" version="1.0">
    <polygon points="242,361 241,367 239,369 237,370 203,385 202,385 149,372 128,366 116,360 97,350 96,342 96,281 97,270 241,270 242,271 242,361">
      <metadata tailDirection="NW" confidence="0.0" id="CYB_TRAFFIC_006_balloon_0" tailTip="116,360"/>
    </polygon>
    <polygon points="245,99 243,242 242,246 241,247 59,247 56,244 56,96 58,71 59,64 60,63 73,62 244,60 245,89 245,99">
      <metadata tailDirection="S" confidence="0.0" id="CYB_TRAFFIC_006_balloon_1" tailTip="56,244"/>
    </polygon>
  </svg>
</svg>
