<?xml version="1.0" encoding="UTF-8" standalone="no"?>
<svg width="1280" xmlns="http://www.w3.org/2000/svg" version="1.0" height="1798">
  <title>CYB_MOUETTEMAN_004</title>
  <svg contentScriptType="text/ecmascript" zoomAndPan="magnify" contentStyleType="text/css" class="Page" preserveAspectRatio="xMidYMid meet" version="1.0">
    <image xmlns:xlink="http://www.w3.org/1999/xlink" x="0" y="0" width="1280" height="1798" xlink:href="../Pages/CYB_MOUETTEMAN_004.jpg" xlink:type="simple" xlink:actuate="onLoad" preserveAspectRatio="xMidYMid meet" xlink:show="embed"/>
  </svg>
  <style type="text/css" xml:space="preserve">
        * { stroke-width: 0; stroke-linejoin: round; }
        .Unclassified { fill: orange; stroke: none; opacity: 1.0; visibility: hidden; }
        .Noise { fill: pink; stroke: none; opacity: 0.2; visibility: hidden; }
        .Panel { fill: red; stroke: none; opacity: 0.5; visibility: visible; image-rendering: optimizeSpeed; }
        .Line { fill: green; stroke: none; opacity: 0.5; visibility: visible; image-rendering: optimizeSpeed; }
        .TextArea { fill: grey; stroke: none; opacity: 0.2; visibility: visible; image-rendering: optimizeSpeed; }
        .Balloon { fill: cyan; stroke: none; opacity: 0.5; visibility: visible; image-rendering: optimizeSpeed; }
        .Letter { fill: blue; stroke: none; opacity: 0.2; visibility: hidden; }
        .Object { fill: yellow; stroke: none; opacity: 0.5; visibility: visible; image-rendering: optimizeSpeed; }
        .Page { fill: white; stroke: none; opacity: 0.5; visibility: visible; }
        polygon:hover { opacity:0.2; }
</style>
  <svg xmlns="http://www.w3.org/2000/svg" contentScriptType="text/ecmascript" zoomAndPan="magnify" contentStyleType="text/css" class="Balloon" preserveAspectRatio="xMidYMid meet" version="1.0">
    <polygon points="984,1484 960,1545 958,1547 951,1552 947,1554 946,1554 768,1512 764,1511 750,1507 744,1505 736,1502 731,1500 724,1497 712,1491 705,1487 702,1485 698,1482 682,1468 678,1464 674,1459 671,1454 668,1448 666,1442 665,1438 664,1431 664,1428 665,1421 666,1417 667,1414 669,1409 671,1405 675,1399 678,1395 690,1383 694,1380 712,1379 984,1379 984,1484">
      <metadata tailDirection="SW" confidence="0.0" id="CYB_MOUETTEMAN_004_balloon_0" tailTip="946,1554"/>
    </polygon>
    <polygon points="884,565 883,571 882,576 880,582 878,586 875,591 873,594 870,598 859,609 854,613 848,617 843,620 829,627 824,629 816,632 813,633 735,653 734,653 672,622 644,601 639,595 635,589 632,583 630,578 628,570 628,554 629,550 631,544 635,536 638,531 642,526 652,516 655,514 711,514 858,515 864,520 865,521 871,528 874,532 876,535 881,545 883,553 884,560 884,565">
      <metadata tailDirection="none" confidence="0.0" id="CYB_MOUETTEMAN_004_balloon_1" tailTip=""/>
    </polygon>
  </svg>
</svg>
