<?xml version="1.0" encoding="UTF-8" standalone="no"?>
<svg width="569" xmlns="http://www.w3.org/2000/svg" version="1.0" height="661">
  <title>CYB_COSMOZONE_012</title>
  <svg contentScriptType="text/ecmascript" zoomAndPan="magnify" contentStyleType="text/css" class="Page" preserveAspectRatio="xMidYMid meet" version="1.0">
    <image xmlns:xlink="http://www.w3.org/1999/xlink" x="0" y="0" width="569" height="661" xlink:href="../Pages/CYB_COSMOZONE_012.jpg" xlink:type="simple" xlink:actuate="onLoad" preserveAspectRatio="xMidYMid meet" xlink:show="embed"/>
  </svg>
  <style type="text/css" xml:space="preserve">
        * { stroke-width: 0; stroke-linejoin: round; }
        .Unclassified { fill: orange; stroke: none; opacity: 1.0; visibility: hidden; }
        .Noise { fill: pink; stroke: none; opacity: 0.2; visibility: hidden; }
        .Panel { fill: red; stroke: none; opacity: 0.5; visibility: visible; image-rendering: optimizeSpeed; }
        .Line { fill: green; stroke: none; opacity: 0.5; visibility: visible; image-rendering: optimizeSpeed; }
        .TextArea { fill: grey; stroke: none; opacity: 0.2; visibility: visible; image-rendering: optimizeSpeed; }
        .Balloon { fill: cyan; stroke: none; opacity: 0.5; visibility: visible; image-rendering: optimizeSpeed; }
        .Letter { fill: blue; stroke: none; opacity: 0.2; visibility: hidden; }
        .Object { fill: yellow; stroke: none; opacity: 0.5; visibility: visible; image-rendering: optimizeSpeed; }
        .Page { fill: white; stroke: none; opacity: 0.5; visibility: visible; }
        polygon:hover { opacity:0.2; }
</style>
  <svg xmlns="http://www.w3.org/2000/svg" contentScriptType="text/ecmascript" zoomAndPan="magnify" contentStyleType="text/css" class="Balloon" preserveAspectRatio="xMidYMid meet" version="1.0">
    <polygon points="563,91 560,301 559,355 558,356 556,357 508,357 291,356 289,354 288,352 282,134 282,84 283,83 286,82 293,80 302,80 373,81 560,88 562,89 563,90 563,91">
      <metadata tailDirection="S" confidence="0.0" id="CYB_COSMOZONE_012_balloon_0" tailTip="282,134"/>
    </polygon>
    <polygon points="417,197 415,202 413,206 411,209 407,214 403,218 381,235 332,223 324,221 314,216 309,211 305,205 304,203 303,200 302,196 302,192 303,186 305,181 307,178 311,173 317,167 321,164 326,161 334,157 340,155 350,153 356,152 373,152 382,153 392,155 400,159 404,162 411,169 414,175 417,183 417,197">
      <metadata tailDirection="SE" confidence="0.0" id="CYB_COSMOZONE_012_balloon_1" tailTip="381,235"/>
    </polygon>
    <polygon points="375,106 372,131 306,133 305,133 285,130 284,121 284,105 285,88 286,87 288,86 292,85 364,85 373,86 375,104 375,106">
      <metadata tailDirection="none" confidence="0.0" id="CYB_COSMOZONE_012_balloon_2" tailTip=""/>
    </polygon>
  </svg>
</svg>
