<?xml version="1.0" encoding="UTF-8" standalone="no"?>
<svg width="2481" xmlns="http://www.w3.org/2000/svg" version="1.0" height="3492">
  <title>SAINTOGAN_ZIGPUCE_ET_ALFRED_020</title>
  <svg contentScriptType="text/ecmascript" zoomAndPan="magnify" contentStyleType="text/css" class="Page" preserveAspectRatio="xMidYMid meet" version="1.0">
    <image xmlns:xlink="http://www.w3.org/1999/xlink" x="0" y="0" width="2481" height="3492" xlink:href="../Pages/SAINTOGAN_ZIGPUCE_ET_ALFRED_020.jpg" xlink:type="simple" xlink:actuate="onLoad" preserveAspectRatio="xMidYMid meet" xlink:show="embed"/>
  </svg>
  <style type="text/css" xml:space="preserve">
        * { stroke-width: 0; stroke-linejoin: round; }
        .Unclassified { fill: orange; stroke: none; opacity: 1.0; visibility: hidden; }
        .Noise { fill: pink; stroke: none; opacity: 0.2; visibility: hidden; }
        .Panel { fill: red; stroke: none; opacity: 0.5; visibility: visible; image-rendering: optimizeSpeed; }
        .Line { fill: green; stroke: none; opacity: 0.5; visibility: visible; image-rendering: optimizeSpeed; }
        .TextArea { fill: grey; stroke: none; opacity: 0.2; visibility: visible; image-rendering: optimizeSpeed; }
        .Balloon { fill: cyan; stroke: none; opacity: 0.5; visibility: visible; image-rendering: optimizeSpeed; }
        .Letter { fill: blue; stroke: none; opacity: 0.2; visibility: hidden; }
        .Object { fill: yellow; stroke: none; opacity: 0.5; visibility: visible; image-rendering: optimizeSpeed; }
        .Page { fill: white; stroke: none; opacity: 0.5; visibility: visible; }
        polygon:hover { opacity:0.2; }
</style>
  <svg xmlns="http://www.w3.org/2000/svg" contentScriptType="text/ecmascript" zoomAndPan="magnify" contentStyleType="text/css" class="Balloon" preserveAspectRatio="xMidYMid meet" version="1.0">
    <polygon points="1531,2758 1530,2763 1527,2769 1524,2773 1523,2773 1275,2729 1271,2728 1229,2714 1227,2713 1219,2707 1214,2703 1211,2699 1207,2692 1205,2688 1195,2644 1195,2635 1196,2631 1223,2563 1227,2553 1231,2545 1233,2542 1237,2539 1239,2538 1251,2534 1262,2532 1269,2532 1352,2533 1408,2535 1425,2537 1434,2539 1442,2541 1445,2542 1451,2545 1454,2547 1457,2550 1462,2556 1464,2559 1465,2561 1527,2726 1528,2729 1531,2739 1531,2758">
      <metadata tailDirection="SE" confidence="0.0" id="SAINTOGAN_ZIGPUCE_ET_ALFRED_020_balloon_0" tailTip="1527,2726"/>
    </polygon>
    <polygon points="1200,2594 1198,2610 1197,2614 1194,2620 1068,2756 1053,2751 1049,2749 1046,2747 882,2625 879,2622 878,2620 875,2611 871,2531 871,2527 872,2525 878,2523 886,2522 901,2522 1166,2523 1184,2524 1187,2525 1191,2527 1194,2529 1196,2531 1197,2534 1198,2543 1200,2590 1200,2594">
      <metadata tailDirection="SE" confidence="0.0" id="SAINTOGAN_ZIGPUCE_ET_ALFRED_020_balloon_1" tailTip="1068,2756"/>
    </polygon>
    <polygon points="803,2646 796,2756 795,2759 794,2761 789,2766 562,2930 561,2930 472,2761 471,2759 470,2754 470,2747 473,2687 476,2632 477,2629 487,2615 490,2612 492,2611 541,2605 551,2604 571,2604 758,2608 779,2609 787,2613 792,2616 796,2620 798,2623 802,2631 803,2637 803,2646">
      <metadata tailDirection="S" confidence="0.0" id="SAINTOGAN_ZIGPUCE_ET_ALFRED_020_balloon_2" tailTip="562,2930"/>
    </polygon>
    <polygon points="2235,1885 2214,2141 2212,2141 1806,2034 1803,2033 1797,2030 1794,2028 1789,2024 1786,2020 1782,2011 1781,1997 1781,1969 1786,1866 1788,1850 1789,1845 1790,1843 1795,1837 1797,1835 1802,1833 1805,1832 1824,1831 1826,1831 2187,1847 2201,1848 2214,1850 2218,1852 2224,1857 2228,1862 2234,1873 2235,1876 2235,1885">
      <metadata tailDirection="SE" confidence="0.0" id="SAINTOGAN_ZIGPUCE_ET_ALFRED_020_balloon_3" tailTip="2214,2141"/>
    </polygon>
    <polygon points="2354,1151 2347,1792 2344,1795 2339,1795 1794,1786 1738,1785 1628,1783 1624,1782 1622,1780 1621,1777 1621,1763 1625,1235 1626,1149 1627,1115 1628,1111 1631,1108 1633,1107 1675,1107 1872,1110 1928,1111 2348,1119 2350,1120 2351,1121 2354,1149 2354,1151">
      <metadata tailDirection="none" confidence="0.0" id="SAINTOGAN_ZIGPUCE_ET_ALFRED_020_balloon_4" tailTip=""/>
    </polygon>
    <polygon points="378,1555 371,1604 370,1610 368,1614 364,1618 361,1619 238,1652 237,1651 214,1617 212,1611 211,1606 211,1597 217,1554 218,1549 220,1543 222,1538 223,1536 230,1528 235,1525 237,1524 242,1522 247,1521 256,1520 271,1519 285,1519 327,1521 343,1522 354,1523 358,1524 364,1526 368,1528 374,1534 377,1540 378,1544 378,1555">
      <metadata tailDirection="none" confidence="0.0" id="SAINTOGAN_ZIGPUCE_ET_ALFRED_020_balloon_5" tailTip=""/>
    </polygon>
    <polygon points="862,1605 795,1695 793,1695 441,1668 460,1439 462,1433 465,1430 471,1427 482,1426 774,1425 776,1425 786,1426 790,1427 797,1429 799,1430 801,1432 806,1442 809,1450 862,1602 862,1605">
      <metadata tailDirection="S" confidence="0.0" id="SAINTOGAN_ZIGPUCE_ET_ALFRED_020_balloon_6" tailTip="793,1695"/>
    </polygon>
    <polygon points="1567,599 1564,609 1563,612 1561,616 1557,623 1553,628 1549,632 1544,636 1540,638 1359,709 1358,709 1289,634 1288,588 1288,581 1289,574 1315,490 1318,481 1324,475 1332,469 1338,465 1342,463 1349,460 1356,458 1361,457 1380,454 1393,454 1459,465 1465,467 1469,469 1522,513 1531,522 1533,525 1562,574 1563,576 1566,585 1567,596 1567,599">
      <metadata tailDirection="S" confidence="0.0" id="SAINTOGAN_ZIGPUCE_ET_ALFRED_020_balloon_7" tailTip="1358,709"/>
    </polygon>
  </svg>
</svg>
