<?xml version="1.0" encoding="UTF-8" standalone="no"?>
<svg width="2461" xmlns="http://www.w3.org/2000/svg" version="1.0" height="3519">
  <title>SAINTOGAN_ZIGPUCE_MILLIONAIRES_015</title>
  <svg contentScriptType="text/ecmascript" zoomAndPan="magnify" contentStyleType="text/css" class="Page" preserveAspectRatio="xMidYMid meet" version="1.0">
    <image xmlns:xlink="http://www.w3.org/1999/xlink" x="0" y="0" width="2461" height="3519" xlink:href="../Pages/SAINTOGAN_ZIGPUCE_MILLIONAIRES_015.jpg" xlink:type="simple" xlink:actuate="onLoad" preserveAspectRatio="xMidYMid meet" xlink:show="embed"/>
  </svg>
  <style type="text/css" xml:space="preserve">
        * { stroke-width: 0; stroke-linejoin: round; }
        .Unclassified { fill: orange; stroke: none; opacity: 1.0; visibility: hidden; }
        .Noise { fill: pink; stroke: none; opacity: 0.2; visibility: hidden; }
        .Panel { fill: red; stroke: none; opacity: 0.5; visibility: visible; image-rendering: optimizeSpeed; }
        .Line { fill: green; stroke: none; opacity: 0.5; visibility: visible; image-rendering: optimizeSpeed; }
        .TextArea { fill: grey; stroke: none; opacity: 0.2; visibility: visible; image-rendering: optimizeSpeed; }
        .Balloon { fill: cyan; stroke: none; opacity: 0.5; visibility: visible; image-rendering: optimizeSpeed; }
        .Letter { fill: blue; stroke: none; opacity: 0.2; visibility: hidden; }
        .Object { fill: yellow; stroke: none; opacity: 0.5; visibility: visible; image-rendering: optimizeSpeed; }
        .Page { fill: white; stroke: none; opacity: 0.5; visibility: visible; }
        polygon:hover { opacity:0.2; }
</style>
  <svg xmlns="http://www.w3.org/2000/svg" contentScriptType="text/ecmascript" zoomAndPan="magnify" contentStyleType="text/css" class="Balloon" preserveAspectRatio="xMidYMid meet" version="1.0">
    <polygon points="607,1969 605,2017 561,2098 557,2098 550,2096 102,1966 99,1965 97,1964 91,1958 89,1954 88,1951 90,1884 91,1881 92,1879 94,1877 96,1876 101,1875 179,1875 493,1881 543,1882 548,1883 552,1887 603,1955 605,1958 606,1960 607,1964 607,1969">
      <metadata tailDirection="SE" confidence="0.0" id="SAINTOGAN_ZIGPUCE_MILLIONAIRES_015_balloon_0" tailTip="561,2098"/>
    </polygon>
    <polygon points="2258,1242 2255,1303 2250,1348 2249,1354 2247,1362 2246,1365 2243,1368 2235,1371 2231,1372 1761,1448 1759,1448 1658,1357 1656,1354 1655,1352 1654,1347 1654,1340 1660,1205 1661,1199 1662,1195 1663,1193 1666,1191 1668,1190 1671,1189 1678,1189 2226,1192 2234,1193 2247,1199 2248,1200 2251,1205 2255,1213 2256,1216 2258,1228 2258,1242">
      <metadata tailDirection="W" confidence="0.0" id="SAINTOGAN_ZIGPUCE_MILLIONAIRES_015_balloon_1" tailTip="1759,1448"/>
    </polygon>
    <polygon points="1576,1957 1573,2155 1572,2158 1571,2160 1569,2162 1567,2163 1286,2196 1284,2196 1195,2161 1192,2159 1190,2157 1189,2155 1188,2152 1188,2145 1189,2087 1194,1951 1195,1949 1197,1947 1202,1944 1558,1937 1561,1937 1566,1938 1568,1939 1571,1941 1575,1945 1576,1949 1576,1957">
      <metadata tailDirection="S" confidence="0.0" id="SAINTOGAN_ZIGPUCE_MILLIONAIRES_015_balloon_2" tailTip="1286,2196"/>
    </polygon>
    <polygon points="2104,1908 2099,2017 2098,2021 2092,2040 2089,2043 2087,2044 1887,2059 1886,2059 1696,2041 1693,2040 1691,2039 1688,2037 1687,2036 1685,2033 1684,2031 1681,1965 1681,1955 1682,1910 1684,1901 1686,1896 1687,1895 1691,1893 1695,1892 1700,1891 1757,1888 1779,1888 2068,1894 2095,1895 2098,1896 2100,1897 2103,1900 2104,1905 2104,1908">
      <metadata tailDirection="none" confidence="0.0" id="SAINTOGAN_ZIGPUCE_MILLIONAIRES_015_balloon_3" tailTip=""/>
    </polygon>
    <polygon points="2128,619 2127,666 2126,669 2125,671 2123,674 2122,675 2118,677 2011,701 1970,702 1966,702 1889,674 1886,671 1885,666 1885,574 1886,572 1889,568 1890,567 1899,564 1913,562 1937,562 2094,567 2118,568 2124,570 2126,572 2127,574 2128,612 2128,619">
      <metadata tailDirection="W" confidence="0.0" id="SAINTOGAN_ZIGPUCE_MILLIONAIRES_015_balloon_4" tailTip="1966,702"/>
    </polygon>
    <polygon points="1558,564 1552,955 1549,1115 1548,1152 1547,1163 1544,1166 1537,1167 1534,1167 961,1159 841,1155 828,1154 826,1152 826,999 829,658 830,587 832,484 833,482 834,481 846,480 1303,474 1440,474 1530,476 1538,479 1542,482 1556,495 1558,497 1558,564">
      <metadata tailDirection="none" confidence="0.0" id="SAINTOGAN_ZIGPUCE_MILLIONAIRES_015_balloon_5" tailTip=""/>
    </polygon>
    <polygon points="1269,521 1264,605 1263,608 1257,616 1256,617 1249,621 1122,690 1121,690 852,614 850,613 847,611 845,608 844,605 844,553 845,503 848,496 851,493 923,493 1137,496 1192,498 1239,502 1250,503 1261,506 1266,509 1267,511 1268,515 1269,520 1269,521">
      <metadata tailDirection="S" confidence="0.0" id="SAINTOGAN_ZIGPUCE_MILLIONAIRES_015_balloon_6" tailTip="1122,690"/>
    </polygon>
    <polygon points="805,538 798,1105 797,1150 794,1153 686,1156 685,1156 108,1148 85,1147 72,1146 69,1143 68,1108 74,689 78,477 79,475 100,452 106,446 117,443 123,443 435,444 794,481 802,482 804,484 805,486 805,538">
      <metadata tailDirection="none" confidence="0.0" id="SAINTOGAN_ZIGPUCE_MILLIONAIRES_015_balloon_7" tailTip=""/>
    </polygon>
  </svg>
</svg>
