<?xml version="1.0" encoding="UTF-8" standalone="no"?>
<svg width="569" xmlns="http://www.w3.org/2000/svg" version="1.0" height="661">
  <title>CYB_COSMOZONE_016</title>
  <svg contentScriptType="text/ecmascript" zoomAndPan="magnify" contentStyleType="text/css" class="Page" preserveAspectRatio="xMidYMid meet" version="1.0">
    <image xmlns:xlink="http://www.w3.org/1999/xlink" x="0" y="0" width="569" height="661" xlink:href="../Pages/CYB_COSMOZONE_016.jpg" xlink:type="simple" xlink:actuate="onLoad" preserveAspectRatio="xMidYMid meet" xlink:show="embed"/>
  </svg>
  <style type="text/css" xml:space="preserve">
        * { stroke-width: 0; stroke-linejoin: round; }
        .Unclassified { fill: orange; stroke: none; opacity: 1.0; visibility: hidden; }
        .Noise { fill: pink; stroke: none; opacity: 0.2; visibility: hidden; }
        .Panel { fill: red; stroke: none; opacity: 0.5; visibility: visible; image-rendering: optimizeSpeed; }
        .Line { fill: green; stroke: none; opacity: 0.5; visibility: visible; image-rendering: optimizeSpeed; }
        .TextArea { fill: grey; stroke: none; opacity: 0.2; visibility: visible; image-rendering: optimizeSpeed; }
        .Balloon { fill: cyan; stroke: none; opacity: 0.5; visibility: visible; image-rendering: optimizeSpeed; }
        .Letter { fill: blue; stroke: none; opacity: 0.2; visibility: hidden; }
        .Object { fill: yellow; stroke: none; opacity: 0.2; visibility: visible; image-rendering: optimizeSpeed; }
        .Page { fill: white; stroke: none; opacity: 0.5; visibility: visible; }
</style>
  <svg xmlns="http://www.w3.org/2000/svg" contentScriptType="text/ecmascript" zoomAndPan="magnify" contentStyleType="text/css" class="Line" preserveAspectRatio="xMidYMid meet" version="1.0">
    <polygon points="490,501 535,501 535,514 490,514 490,501">
      <metadata confidence="0.0" speechType="" typography="" rank="" method="ocr" id="CYB_COSMOZONE_016_line_0">super  </metadata>
    </polygon>
    <polygon points="465,488 550,488 550,500 465,500 465,488">
      <metadata confidence="0.0" speechType="" typography="" rank="" method="ocr" id="CYB_COSMOZONE_016_line_1">wsmus uw</metadata>
    </polygon>
    <polygon points="474,459 530,459 530,477 474,477 474,459">
      <metadata confidence="0.0" speechType="" typography="" rank="" method="ocr" id="CYB_COSMOZONE_016_line_2">nev  r  </metadata>
    </polygon>
    <polygon points="466,444 560,444 560,465 466,465 466,444">
      <metadata confidence="0.0" speechType="" typography="" rank="" method="ocr" id="CYB_COSMOZONE_016_line_3">un super msvmw    de</metadata>
    </polygon>
    <polygon points="479,444 503,444 503,453 479,453 479,444">
      <metadata confidence="0.0" speechType="" typography="" rank="" method="ocr" id="CYB_COSMOZONE_016_line_4">ns  </metadata>
    </polygon>
    <polygon points="469,429 557,429 557,444 469,444 469,429">
      <metadata confidence="0.0" speechType="" typography="" rank="" method="ocr" id="CYB_COSMOZONE_016_line_5"> me de mrufef</metadata>
    </polygon>
    <polygon points="463,419 564,419 564,430 463,430 463,419">
      <metadata confidence="0.0" speechType="" typography="" rank="" method="ocr" id="CYB_COSMOZONE_016_line_6">menu H Queue</metadata>
    </polygon>
    <polygon points="468,407 553,407 553,420 468,420 468,407">
      <metadata confidence="0.0" speechType="" typography="" rank="" method="ocr" id="CYB_COSMOZONE_016_line_7">Uesna   nou</metadata>
    </polygon>
    <polygon points="408,594 443,594 443,609 408,609 408,594">
      <metadata confidence="0.0" speechType="" typography="" rank="" method="ocr" id="CYB_COSMOZONE_016_line_8">711</metadata>
    </polygon>
    <polygon points="300,464 379,464 379,485 300,485 300,464">
      <metadata confidence="0.0" speechType="" typography="" rank="" method="ocr" id="CYB_COSMOZONE_016_line_9">   Q 5   </metadata>
    </polygon>
    <polygon points="225,589 276,589 276,617 225,617 225,589">
      <metadata confidence="0.0" speechType="" typography="" rank="" method="ocr" id="CYB_COSMOZONE_016_line_10">H yz </metadata>
    </polygon>
    <polygon points="28,591 94,591 94,618 28,618 28,591">
      <metadata confidence="0.0" speechType="" typography="" rank="" method="ocr" id="CYB_COSMOZONE_016_line_11">EW </metadata>
    </polygon>
    <polygon points="34,513 72,513 72,525 34,525 34,513">
      <metadata confidence="0.0" speechType="" typography="" rank="" method="ocr" id="CYB_COSMOZONE_016_line_12">vh </metadata>
    </polygon>
    <polygon points="27,491 125,491 125,508 27,508 27,491">
      <metadata confidence="0.0" speechType="" typography="" rank="" method="ocr" id="CYB_COSMOZONE_016_line_13">k    f  k</metadata>
    </polygon>
    <polygon points="39,480 97,480 97,494 39,494 39,480">
      <metadata confidence="0.0" speechType="" typography="" rank="" method="ocr" id="CYB_COSMOZONE_016_line_14"> le     </metadata>
    </polygon>
    <polygon points="183,185 262,185 262,207 183,207 183,185">
      <metadata confidence="0.0" speechType="" typography="" rank="" method="ocr" id="CYB_COSMOZONE_016_line_15">wmmanuancmoi</metadata>
    </polygon>
    <polygon points="202,168 242,168 242,183 202,183 202,168">
      <metadata confidence="0.0" speechType="" typography="" rank="" method="ocr" id="CYB_COSMOZONE_016_line_16">i    r T</metadata>
    </polygon>
    <polygon points="188,159 263,159 263,170 188,170 188,159">
      <metadata confidence="0.0" speechType="" typography="" rank="" method="ocr" id="CYB_COSMOZONE_016_line_17">vnumme du</metadata>
    </polygon>
    <polygon points="183,147 279,147 279,160 183,160 183,147">
      <metadata confidence="0.0" speechType="" typography="" rank="" method="ocr" id="CYB_COSMOZONE_016_line_18"> sse  a narme   </metadata>
    </polygon>
    <polygon points="173,134 280,134 280,148 173,148 173,134">
      <metadata confidence="0.0" speechType="" typography="" rank="" method="ocr" id="CYB_COSMOZONE_016_line_19">E1 mam1Em   1  </metadata>
    </polygon>
    <polygon points="228,341 276,341 276,355 228,355 228,341">
      <metadata confidence="0.0" speechType="" typography="" rank="" method="ocr" id="CYB_COSMOZONE_016_line_20"> 1 U 1</metadata>
    </polygon>
    <polygon points="156,336 183,336 183,346 156,346 156,336">
      <metadata confidence="0.0" speechType="" typography="" rank="" method="ocr" id="CYB_COSMOZONE_016_line_21">fs</metadata>
    </polygon>
    <polygon points="221,328 269,328 269,348 221,348 221,328">
      <metadata confidence="0.0" speechType="" typography="" rank="" method="ocr" id="CYB_COSMOZONE_016_line_22">MK </metadata>
    </polygon>
    <polygon points="19,226 115,226 115,246 19,246 19,226">
      <metadata confidence="0.0" speechType="" typography="" rank="" method="ocr" id="CYB_COSMOZONE_016_line_23">ati </metadata>
    </polygon>
    <polygon points="41,207 79,207 79,220 41,220 41,207">
      <metadata confidence="0.0" speechType="" typography="" rank="" method="ocr" id="CYB_COSMOZONE_016_line_24">nil</metadata>
    </polygon>
    <polygon points="92,198 142,198 142,216 92,216 92,198">
      <metadata confidence="0.0" speechType="" typography="" rank="" method="ocr" id="CYB_COSMOZONE_016_line_25">kf     </metadata>
    </polygon>
    <polygon points="519,311 551,311 551,331 519,331 519,311">
      <metadata confidence="0.0" speechType="" typography="" rank="" method="ocr" id="CYB_COSMOZONE_016_line_26">   DvVD</metadata>
    </polygon>
    <polygon points="383,217 421,217 421,225 383,225 383,217">
      <metadata confidence="0.0" speechType="" typography="" rank="" method="ocr" id="CYB_COSMOZONE_016_line_27">   v 1</metadata>
    </polygon>
    <polygon points="333,205 364,205 364,219 333,219 333,205">
      <metadata confidence="0.0" speechType="" typography="" rank="" method="ocr" id="CYB_COSMOZONE_016_line_28">LU</metadata>
    </polygon>
    <polygon points="388,154 461,154 461,166 388,166 388,154">
      <metadata confidence="0.0" speechType="" typography="" rank="" method="ocr" id="CYB_COSMOZONE_016_line_29">mnmacx   et</metadata>
    </polygon>
    <polygon points="308,142 554,142 554,156 308,156 308,142">
      <metadata confidence="0.0" speechType="" typography="" rank="" method="ocr" id="CYB_COSMOZONE_016_line_30">wa  v  g  zanen  quam mm   gem   va</metadata>
    </polygon>
    <polygon points="337,130 548,130 548,146 337,146 337,130">
      <metadata confidence="0.0" speechType="" typography="" rank="" method="ocr" id="CYB_COSMOZONE_016_line_31">Y 9         1a 5           S   9HE        lZ l      </metadata>
    </polygon>
    <polygon points="421,118 540,118 540,132 421,132 421,118">
      <metadata confidence="0.0" speechType="" typography="" rank="" method="ocr" id="CYB_COSMOZONE_016_line_32">Je wuma  s un W</metadata>
    </polygon>
    <polygon points="320,118 395,118 395,129 320,129 320,118">
      <metadata confidence="0.0" speechType="" typography="" rank="" method="ocr" id="CYB_COSMOZONE_016_line_33">une au de</metadata>
    </polygon>
    <polygon points="313,106 548,106 548,117 313,117 313,106">
      <metadata confidence="0.0" speechType="" typography="" rank="" method="ocr" id="CYB_COSMOZONE_016_line_34">manenaai  pas au mm    .Guer dans</metadata>
    </polygon>
    <polygon points="479,93 539,93 539,108 479,108 479,93">
      <metadata confidence="0.0" speechType="" typography="" rank="" method="ocr" id="CYB_COSMOZONE_016_line_35">que  pe</metadata>
    </polygon>
    <polygon points="322,93 463,93 463,107 322,107 322,93">
      <metadata confidence="0.0" speechType="" typography="" rank="" method="ocr" id="CYB_COSMOZONE_016_line_36">mem    mus 12 anis m</metadata>
    </polygon>
    <polygon points="159,50 230,50 230,68 159,68 159,50">
      <metadata confidence="0.0" speechType="" typography="" rank="" method="ocr" id="CYB_COSMOZONE_016_line_37"> 5F    eme</metadata>
    </polygon>
    <polygon points="23,38 192,38 192,62 23,62 23,38">
      <metadata confidence="0.0" speechType="" typography="" rank="" method="ocr" id="CYB_COSMOZONE_016_line_38">g1 wdf  wwg</metadata>
    </polygon>
  </svg>
</svg>
