<?xml version="1.0" encoding="UTF-8" standalone="no"?>
<svg width="569" xmlns="http://www.w3.org/2000/svg" version="1.0" height="661">
  <title>CYB_COSMOZONE_010</title>
  <svg contentScriptType="text/ecmascript" zoomAndPan="magnify" contentStyleType="text/css" class="Page" preserveAspectRatio="xMidYMid meet" version="1.0">
    <image xmlns:xlink="http://www.w3.org/1999/xlink" x="0" y="0" width="569" height="661" xlink:href="../Pages/CYB_COSMOZONE_010.jpg" xlink:type="simple" xlink:actuate="onLoad" preserveAspectRatio="xMidYMid meet" xlink:show="embed"/>
  </svg>
  <style type="text/css" xml:space="preserve">
        * { stroke-width: 0; stroke-linejoin: round; }
        .Unclassified { fill: orange; stroke: none; opacity: 1.0; visibility: hidden; }
        .Noise { fill: pink; stroke: none; opacity: 0.2; visibility: hidden; }
        .Panel { fill: red; stroke: none; opacity: 0.5; visibility: visible; image-rendering: optimizeSpeed; }
        .Line { fill: green; stroke: none; opacity: 0.5; visibility: visible; image-rendering: optimizeSpeed; }
        .TextArea { fill: grey; stroke: none; opacity: 0.2; visibility: visible; image-rendering: optimizeSpeed; }
        .Balloon { fill: cyan; stroke: none; opacity: 0.5; visibility: visible; image-rendering: optimizeSpeed; }
        .Letter { fill: blue; stroke: none; opacity: 0.2; visibility: hidden; }
        .Object { fill: yellow; stroke: none; opacity: 0.2; visibility: visible; image-rendering: optimizeSpeed; }
        .Page { fill: white; stroke: none; opacity: 0.5; visibility: visible; }
</style>
  <svg xmlns="http://www.w3.org/2000/svg" contentScriptType="text/ecmascript" zoomAndPan="magnify" contentStyleType="text/css" class="Line" preserveAspectRatio="xMidYMid meet" version="1.0">
    <polygon points="301,561 400,561 400,591 301,591 301,561">
      <metadata confidence="0.0" speechType="" typography="" rank="" method="ocr" id="CYB_COSMOZONE_010_line_0">    ggj</metadata>
    </polygon>
    <polygon points="460,540 498,540 498,557 460,557 460,540">
      <metadata confidence="0.0" speechType="" typography="" rank="" method="ocr" id="CYB_COSMOZONE_010_line_1">um </metadata>
    </polygon>
    <polygon points="314,514 385,514 385,529 314,529 314,514">
      <metadata confidence="0.0" speechType="" typography="" rank="" method="ocr" id="CYB_COSMOZONE_010_line_2">7 v  </metadata>
    </polygon>
    <polygon points="321,494 357,494 357,509 321,509 321,494">
      <metadata confidence="0.0" speechType="" typography="" rank="" method="ocr" id="CYB_COSMOZONE_010_line_3">V   .</metadata>
    </polygon>
    <polygon points="379,428 462,428 462,438 379,438 379,428">
      <metadata confidence="0.0" speechType="" typography="" rank="" method="ocr" id="CYB_COSMOZONE_010_line_4">un vm meuf</metadata>
    </polygon>
    <polygon points="371,415 473,415 473,428 371,428 371,415">
      <metadata confidence="0.0" speechType="" typography="" rank="" method="ocr" id="CYB_COSMOZONE_010_line_5">pmznmieuemem</metadata>
    </polygon>
    <polygon points="409,403 435,403 435,414 409,414 409,403">
      <metadata confidence="0.0" speechType="" typography="" rank="" method="ocr" id="CYB_COSMOZONE_010_line_6">Sms</metadata>
    </polygon>
    <polygon points="386,390 464,390 464,405 386,405 386,390">
      <metadata confidence="0.0" speechType="" typography="" rank="" method="ocr" id="CYB_COSMOZONE_010_line_7">msuns que </metadata>
    </polygon>
    <polygon points="20,565 99,565 99,591 20,591 20,565">
      <metadata confidence="0.0" speechType="" typography="" rank="" method="ocr" id="CYB_COSMOZONE_010_line_8"> SQ</metadata>
    </polygon>
    <polygon points="13,498 107,498 107,527 13,527 13,498">
      <metadata confidence="0.0" speechType="" typography="" rank="" method="ocr" id="CYB_COSMOZONE_010_line_9">54 511</metadata>
    </polygon>
    <polygon points="41,488 104,488 104,502 41,502 41,488">
      <metadata confidence="0.0" speechType="" typography="" rank="" method="ocr" id="CYB_COSMOZONE_010_line_10">4.  A</metadata>
    </polygon>
    <polygon points="288,150 385,150 385,161 288,161 288,150">
      <metadata confidence="0.0" speechType="" typography="" rank="" method="ocr" id="CYB_COSMOZONE_010_line_11">un vm mem Hz</metadata>
    </polygon>
    <polygon points="263,137 412,137 412,158 263,158 263,137">
      <metadata confidence="0.0" speechType="" typography="" rank="" method="ocr" id="CYB_COSMOZONE_010_line_12">m  cn    cner    lsms</metadata>
    </polygon>
    <polygon points="288,124 416,124 416,139 288,139 288,124">
      <metadata confidence="0.0" speechType="" typography="" rank="" method="ocr" id="CYB_COSMOZONE_010_line_13">H    lmgoss Faut Das</metadata>
    </polygon>
    <polygon points="316,115 374,115 374,125 316,125 316,115">
      <metadata confidence="0.0" speechType="" typography="" rank="" method="ocr" id="CYB_COSMOZONE_010_line_14">us un vm</metadata>
    </polygon>
    <polygon points="288,101 424,101 424,113 288,113 288,101">
      <metadata confidence="0.0" speechType="" typography="" rank="" method="ocr" id="CYB_COSMOZONE_010_line_15">Tuer cest mon mener</metadata>
    </polygon>
    <polygon points="288,89 390,89 390,102 288,102 288,89">
      <metadata confidence="0.0" speechType="" typography="" rank="" method="ocr" id="CYB_COSMOZONE_010_line_16">Ma vw  aes  la Q</metadata>
    </polygon>
    <polygon points="47,133 106,133 106,147 47,147 47,133">
      <metadata confidence="0.0" speechType="" typography="" rank="" method="ocr" id="CYB_COSMOZONE_010_line_17">    sa  s  n</metadata>
    </polygon>
    <polygon points="42,123 111,123 111,135 42,135 42,123">
      <metadata confidence="0.0" speechType="" typography="" rank="" method="ocr" id="CYB_COSMOZONE_010_line_18">Lveuxenanr</metadata>
    </polygon>
    <polygon points="97,112 131,112 131,122 97,122 97,112">
      <metadata confidence="0.0" speechType="" typography="" rank="" method="ocr" id="CYB_COSMOZONE_010_line_19">wwe</metadata>
    </polygon>
    <polygon points="24,109 67,109 67,122 24,122 24,109">
      <metadata confidence="0.0" speechType="" typography="" rank="" method="ocr" id="CYB_COSMOZONE_010_line_20">    ura If</metadata>
    </polygon>
    <polygon points="25,99 54,99 54,111 25,111 25,99">
      <metadata confidence="0.0" speechType="" typography="" rank="" method="ocr" id="CYB_COSMOZONE_010_line_21">le m</metadata>
    </polygon>
    <polygon points="72,98 121,98 121,110 72,110 72,98">
      <metadata confidence="0.0" speechType="" typography="" rank="" method="ocr" id="CYB_COSMOZONE_010_line_22">r  sente</metadata>
    </polygon>
    <polygon points="192,134 230,134 230,147 192,147 192,134">
      <metadata confidence="0.0" speechType="" typography="" rank="" method="ocr" id="CYB_COSMOZONE_010_line_23">mon 7</metadata>
    </polygon>
    <polygon points="175,122 247,122 247,134 175,134 175,122">
      <metadata confidence="0.0" speechType="" typography="" rank="" method="ocr" id="CYB_COSMOZONE_010_line_24">En ca sen a</metadata>
    </polygon>
    <polygon points="181,110 238,110 238,122 181,122 181,110">
      <metadata confidence="0.0" speechType="" typography="" rank="" method="ocr" id="CYB_COSMOZONE_010_line_25">ssassin Y</metadata>
    </polygon>
    <polygon points="177,98 246,98 246,110 177,110 177,98">
      <metadata confidence="0.0" speechType="" typography="" rank="" method="ocr" id="CYB_COSMOZONE_010_line_26">Lweurenanx</metadata>
    </polygon>
    <polygon points="366,214 401,214 401,239 366,239 366,214">
      <metadata confidence="0.0" speechType="" typography="" rank="" method="ocr" id="CYB_COSMOZONE_010_line_27">l   L </metadata>
    </polygon>
    <polygon points="325,177 389,177 389,195 325,195 325,177">
      <metadata confidence="0.0" speechType="" typography="" rank="" method="ocr" id="CYB_COSMOZONE_010_line_28"> mm   </metadata>
    </polygon>
    <polygon points="438,149 504,149 504,164 438,164 438,149">
      <metadata confidence="0.0" speechType="" typography="" rank="" method="ocr" id="CYB_COSMOZONE_010_line_29">925  Eng</metadata>
    </polygon>
    <polygon points="438,137 501,137 501,149 438,149 438,137">
      <metadata confidence="0.0" speechType="" typography="" rank="" method="ocr" id="CYB_COSMOZONE_010_line_30">neaumuu</metadata>
    </polygon>
    <polygon points="443,125 499,125 499,137 443,137 443,125">
      <metadata confidence="0.0" speechType="" typography="" rank="" method="ocr" id="CYB_COSMOZONE_010_line_31">avez m  </metadata>
    </polygon>
    <polygon points="438,113 505,113 505,125 438,125 438,113">
      <metadata confidence="0.0" speechType="" typography="" rank="" method="ocr" id="CYB_COSMOZONE_010_line_32">Ez vans en</metadata>
    </polygon>
    <polygon points="159,50 230,50 230,68 159,68 159,50">
      <metadata confidence="0.0" speechType="" typography="" rank="" method="ocr" id="CYB_COSMOZONE_010_line_33"> 5F    eme</metadata>
    </polygon>
    <polygon points="23,38 192,38 192,62 23,62 23,38">
      <metadata confidence="0.0" speechType="" typography="" rank="" method="ocr" id="CYB_COSMOZONE_010_line_34">g1  Udf  wwg</metadata>
    </polygon>
  </svg>
</svg>
