<?xml version="1.0" encoding="UTF-8" standalone="no"?>
<svg width="1280" xmlns="http://www.w3.org/2000/svg" version="1.0" height="1844">
  <title>FOX_CHILLINTALES_T17_006</title>
  <svg contentScriptType="text/ecmascript" zoomAndPan="magnify" contentStyleType="text/css" class="Page" preserveAspectRatio="xMidYMid meet" version="1.0">
    <image xmlns:xlink="http://www.w3.org/1999/xlink" x="0" y="0" width="1280" height="1844" xlink:href="../Pages/FOX_CHILLINTALES_T17_006.jpg" xlink:type="simple" xlink:actuate="onLoad" preserveAspectRatio="xMidYMid meet" xlink:show="embed"/>
  </svg>
  <style type="text/css" xml:space="preserve">
        * { stroke-width: 0; stroke-linejoin: round; }
        .Unclassified { fill: orange; stroke: none; opacity: 1.0; visibility: hidden; }
        .Noise { fill: pink; stroke: none; opacity: 0.2; visibility: hidden; }
        .Panel { fill: red; stroke: none; opacity: 0.5; visibility: visible; image-rendering: optimizeSpeed; }
        .Line { fill: green; stroke: none; opacity: 0.5; visibility: visible; image-rendering: optimizeSpeed; }
        .TextArea { fill: grey; stroke: none; opacity: 0.2; visibility: visible; image-rendering: optimizeSpeed; }
        .Balloon { fill: cyan; stroke: none; opacity: 0.5; visibility: visible; image-rendering: optimizeSpeed; }
        .Letter { fill: blue; stroke: none; opacity: 0.2; visibility: hidden; }
        .Object { fill: yellow; stroke: none; opacity: 0.2; visibility: visible; image-rendering: optimizeSpeed; }
        .Page { fill: white; stroke: none; opacity: 0.5; visibility: visible; }
</style>
  <svg xmlns="http://www.w3.org/2000/svg" contentScriptType="text/ecmascript" zoomAndPan="magnify" contentStyleType="text/css" class="Line" preserveAspectRatio="xMidYMid meet" version="1.0">
    <polygon points="466,1576 584,1576 584,1600 466,1600 466,1576">
      <metadata confidence="0.0" speechType="" typography="" rank="" method="ocr" id="FOX_CHILLINTALES_T17_006_line_0">   ig</metadata>
    </polygon>
    <polygon points="959,1346 1010,1346 1010,1372 959,1372 959,1346">
      <metadata confidence="0.0" speechType="" typography="" rank="" method="ocr" id="FOX_CHILLINTALES_T17_006_line_1">M.   </metadata>
    </polygon>
    <polygon points="988,1313 1129,1313 1129,1349 988,1349 988,1313">
      <metadata confidence="0.0" speechType="" typography="" rank="" method="ocr" id="FOX_CHILLINTALES_T17_006_line_2">  ..     </metadata>
    </polygon>
    <polygon points="202,1271 241,1271 241,1308 202,1308 202,1271">
      <metadata confidence="0.0" speechType="" typography="" rank="" method="ocr" id="FOX_CHILLINTALES_T17_006_line_3">  WMQ </metadata>
    </polygon>
    <polygon points="193,1239 354,1239 354,1274 193,1274 193,1239">
      <metadata confidence="0.0" speechType="" typography="" rank="" method="ocr" id="FOX_CHILLINTALES_T17_006_line_4">WML f  </metadata>
    </polygon>
    <polygon points="205,1186 272,1186 272,1214 205,1214 205,1186">
      <metadata confidence="0.0" speechType="" typography="" rank="" method="ocr" id="FOX_CHILLINTALES_T17_006_line_5">4 f     w</metadata>
    </polygon>
    <polygon points="212,1166 297,1166 297,1197 212,1197 212,1166">
      <metadata confidence="0.0" speechType="" typography="" rank="" method="ocr" id="FOX_CHILLINTALES_T17_006_line_6">V         Z   </metadata>
    </polygon>
    <polygon points="300,1149 378,1149 378,1175 300,1175 300,1149">
      <metadata confidence="0.0" speechType="" typography="" rank="" method="ocr" id="FOX_CHILLINTALES_T17_006_line_7">WM z  </metadata>
    </polygon>
    <polygon points="257,1133 395,1133 395,1177 257,1177 257,1133">
      <metadata confidence="0.0" speechType="" typography="" rank="" method="ocr" id="FOX_CHILLINTALES_T17_006_line_8">  7  1     W  j  y  mu       m    1.1 </metadata>
    </polygon>
    <polygon points="1095,1124 1136,1124 1136,1140 1095,1140 1095,1124">
      <metadata confidence="0.0" speechType="" typography="" rank="" method="ocr" id="FOX_CHILLINTALES_T17_006_line_9">SAV</metadata>
    </polygon>
    <polygon points="46,1118 141,1118 141,1136 46,1136 46,1118">
      <metadata confidence="0.0" speechType="" typography="" rank="" method="ocr" id="FOX_CHILLINTALES_T17_006_line_10">RECEIPT</metadata>
    </polygon>
    <polygon points="894,1096 1000,1096 1000,1116 894,1116 894,1096">
      <metadata confidence="0.0" speechType="" typography="" rank="" method="ocr" id="FOX_CHILLINTALES_T17_006_line_11">BE DEAD </metadata>
    </polygon>
    <polygon points="1067,1098 1190,1098 1190,1115 1067,1115 1067,1098">
      <metadata confidence="0.0" speechType="" typography="" rank="" method="ocr" id="FOX_CHILLINTALES_T17_006_line_12">I HAVE TO</metadata>
    </polygon>
    <polygon points="47,1094 158,1094 158,1110 47,1110 47,1094">
      <metadata confidence="0.0" speechType="" typography="" rank="" method="ocr" id="FOX_CHILLINTALES_T17_006_line_13">FOR THAT</metadata>
    </polygon>
    <polygon points="1062,1071 1225,1071 1225,1089 1062,1089 1062,1071">
      <metadata confidence="0.0" speechType="" typography="" rank="" method="ocr" id="FOX_CHILLINTALES_T17_006_line_14">WELL TO WHAT</metadata>
    </polygon>
    <polygon points="871,1073 1023,1073 1023,1090 871,1090 871,1073">
      <metadata confidence="0.0" speechType="" typography="" rank="" method="ocr" id="FOX_CHILLINTALES_T17_006_line_15">I THOUG HT YE</metadata>
    </polygon>
    <polygon points="43,1068 201,1068 201,1089 43,1089 43,1068">
      <metadata confidence="0.0" speechType="" typography="" rank="" method="ocr" id="FOX_CHILLINTALES_T17_006_line_16">STEP FARTH ER </metadata>
    </polygon>
    <polygon points="873,1048 1000,1048 1000,1064 873,1064 873,1048">
      <metadata confidence="0.0" speechType="" typography="" rank="" method="ocr" id="FOX_CHILLINTALES_T17_006_line_17">MAC CALLUM</metadata>
    </polygon>
    <polygon points="1052,1047 1214,1047 1214,1070 1052,1070 1052,1047">
      <metadata confidence="0.0" speechType="" typography="" rank="" method="ocr" id="FOX_CHILLINTALES_T17_006_line_18">ME guousrsu</metadata>
    </polygon>
    <polygon points="41,1043 173,1043 173,1063 41,1063 41,1043">
      <metadata confidence="0.0" speechType="" typography="" rank="" method="ocr" id="FOX_CHILLINTALES_T17_006_line_19">Hs     Am   A</metadata>
    </polygon>
    <polygon points="1056,1021 1219,1021 1219,1038 1056,1038 1056,1021">
      <metadata confidence="0.0" speechType="" typography="" rank="" method="ocr" id="FOX_CHILLINTALES_T17_006_line_20">FORG ET ABOUT</metadata>
    </polygon>
    <polygon points="892,1023 974,1023 974,1039 892,1039 892,1023">
      <metadata confidence="0.0" speechType="" typography="" rank="" method="ocr" id="FOX_CHILLINTALES_T17_006_line_21">DOUGAL</metadata>
    </polygon>
    <polygon points="45,1016 155,1016 155,1034 45,1034 45,1016">
      <metadata confidence="0.0" speechType="" typography="" rank="" method="ocr" id="FOX_CHILLINTALES_T17_006_line_22">GATES OF</metadata>
    </polygon>
    <polygon points="467,1127 551,1127 551,1143 467,1143 467,1127">
      <metadata confidence="0.0" speechType="" typography="" rank="" method="ocr" id="FOX_CHILLINTALES_T17_006_line_23">CASTLE.</metadata>
    </polygon>
    <polygon points="574,1123 796,1123 796,1144 574,1144 574,1123">
      <metadata confidence="0.0" speechType="" typography="" rank="" method="ocr" id="FOX_CHILLINTALES_T17_006_line_24">CAN I BE DREAMING  </metadata>
    </polygon>
    <polygon points="477,1099 829,1099 829,1118 477,1118 477,1099">
      <metadata confidence="0.0" speechType="" typography="" rank="" method="ocr" id="FOX_CHILLINTALES_T17_006_line_25">OLD PORTICOES OF REDGAUNTLET</metadata>
    </polygon>
    <polygon points="467,1073 782,1073 782,1093 467,1093 467,1073">
      <metadata confidence="0.0" speechType="" typography="" rank="" method="ocr" id="FOX_CHILLINTALES_T17_006_line_26">AWAY  I D SWEAR IT WAS THE</metadata>
    </polygon>
    <polygon points="458,1049 780,1049 780,1066 458,1066 458,1049">
      <metadata confidence="0.0" speechType="" typography="" rank="" method="ocr" id="FOX_CHILLINTALES_T17_006_line_27">IT WAS A FULL YWELVE MILES</metadata>
    </polygon>
    <polygon points="447,1016 775,1016 775,1041 447,1041 447,1016">
      <metadata confidence="0.0" speechType="" typography="" rank="" method="ocr" id="FOX_CHILLINTALES_T17_006_line_28">w   STRAN7GE..lFI DlDN T KNOW</metadata>
    </polygon>
    <polygon points="869,984 1059,984 1059,1013 869,1013 869,984">
      <metadata confidence="0.0" speechType="" typography="" rank="" method="ocr" id="FOX_CHILLINTALES_T17_006_line_29">SHAN DQLGAE.. .</metadata>
    </polygon>
    <polygon points="42,986 158,986 158,1008 42,1008 42,986">
      <metadata confidence="0.0" speechType="" typography="" rank="" method="ocr" id="FOX_CHILLINTALES_T17_006_line_30">G0 T0 THE</metadata>
    </polygon>
    <polygon points="455,981 831,981 831,1010 455,1010 455,981">
      <metadata confidence="0.0" speechType="" typography="" rank="" method="ocr" id="FOX_CHILLINTALES_T17_006_line_31">T0 THE DOOR OFA GRIM CASTLE.</metadata>
    </polygon>
    <polygon points="45,964 184,964 184,983 45,983 45,964">
      <metadata confidence="0.0" speechType="" typography="" rank="" method="ocr" id="FOX_CHILLINTALES_T17_006_line_32">COURAGE T0</metadata>
    </polygon>
    <polygon points="963,955 1215,955 1215,985 963,985 963,955">
      <metadata confidence="0.0" speechType="" typography="" rank="" method="ocr" id="FOX_CHILLINTALES_T17_006_line_33">EETEU BY NON   OYHER </metadata>
    </polygon>
    <polygon points="454,946 816,946 816,985 454,985 454,946">
      <metadata confidence="0.0" speechType="" typography="" rank="" method="ocr" id="FOX_CHILLINTALES_T17_006_line_34">sun  au au  num wmv. 1  mTHE MAN   ND THEY SOON CAME</metadata>
    </polygon>
    <polygon points="881,935 1179,935 1179,978 881,978 881,935">
      <metadata confidence="0.0" speechType="" typography="" rank="" method="ocr" id="FOX_CHILLINTALES_T17_006_line_35">Ha moon oweuia am  THE veks  RE E1517 BY mme o1 H</metadata>
    </polygon>
    <polygon points="483,930 788,930 788,963 483,963 483,930">
      <metadata confidence="0.0" speechType="" typography="" rank="" method="ocr" id="FOX_CHILLINTALES_T17_006_line_36">ND S0 STEENIE VIENT WITH</metadata>
    </polygon>
    <polygon points="52,939 191,939 191,957 52,957 52,939">
      <metadata confidence="0.0" speechType="" typography="" rank="" method="ocr" id="FOX_CHILLINTALES_T17_006_line_37">I HAVE TH E</metadata>
    </polygon>
    <polygon points="242,1064 365,1064 365,1084 242,1084 242,1064">
      <metadata confidence="0.0" speechType="" typography="" rank="" method="ocr" id="FOX_CHILLINTALES_T17_006_line_38">STEENSON </metadata>
    </polygon>
    <polygon points="266,1043 364,1043 364,1059 266,1059 266,1043">
      <metadata confidence="0.0" speechType="" typography="" rank="" method="ocr" id="FOX_CHILLINTALES_T17_006_line_39">STEENIE</metadata>
    </polygon>
    <polygon points="225,1014 412,1014 412,1033 225,1033 225,1014">
      <metadata confidence="0.0" speechType="" typography="" rank="" method="ocr" id="FOX_CHILLINTALES_T17_006_line_40">THEN COME WITH</metadata>
    </polygon>
    <polygon points="480,621 517,621 517,643 480,643 480,621">
      <metadata confidence="0.0" speechType="" typography="" rank="" method="ocr" id="FOX_CHILLINTALES_T17_006_line_41">2   R</metadata>
    </polygon>
    <polygon points="153,409 212,409 212,433 153,433 153,409">
      <metadata confidence="0.0" speechType="" typography="" rank="" method="ocr" id="FOX_CHILLINTALES_T17_006_line_42">V      r</metadata>
    </polygon>
    <polygon points="157,256 294,256 294,277 157,277 157,256">
      <metadata confidence="0.0" speechType="" typography="" rank="" method="ocr" id="FOX_CHILLINTALES_T17_006_line_43">wo  ns ms </metadata>
    </polygon>
    <polygon points="121,234 372,234 372,251 121,251 121,234">
      <metadata confidence="0.0" speechType="" typography="" rank="" method="ocr" id="FOX_CHILLINTALES_T17_006_line_44">HOME WILL BE TAKEN</metadata>
    </polygon>
    <polygon points="522,212 629,212 629,256 522,256 522,212">
      <metadata confidence="0.0" speechType="" typography="" rank="" method="ocr" id="FOX_CHILLINTALES_T17_006_line_45">NUE</metadata>
    </polygon>
    <polygon points="129,206 334,206 334,225 129,225 129,206">
      <metadata confidence="0.0" speechType="" typography="" rank="" method="ocr" id="FOX_CHILLINTALES_T17_006_line_46">AVE  I AM LOST </metadata>
    </polygon>
    <polygon points="675,208 716,208 716,223 675,223 675,208">
      <metadata confidence="0.0" speechType="" typography="" rank="" method="ocr" id="FOX_CHILLINTALES_T17_006_line_47">YOU</metadata>
    </polygon>
    <polygon points="643,182 785,182 785,198 643,198 643,182">
      <metadata confidence="0.0" speechType="" typography="" rank="" method="ocr" id="FOX_CHILLINTALES_T17_006_line_48">LOOKING FOR</metadata>
    </polygon>
    <polygon points="648,157 759,157 759,172 648,172 648,157">
      <metadata confidence="0.0" speechType="" typography="" rank="" method="ocr" id="FOX_CHILLINTALES_T17_006_line_49">HAVE BEEN</metadata>
    </polygon>
    <polygon points="658,130 772,130 772,147 658,147 658,130">
      <metadata confidence="0.0" speechType="" typography="" rank="" method="ocr" id="FOX_CHILLINTALES_T17_006_line_50">STEENIE. I</metadata>
    </polygon>
    <polygon points="496,157 598,157 598,173 496,173 496,157">
      <metadata confidence="0.0" speechType="" typography="" rank="" method="ocr" id="FOX_CHILLINTALES_T17_006_line_51">ARE YOU </metadata>
    </polygon>
    <polygon points="482,129 596,129 596,146 482,146 482,129">
      <metadata confidence="0.0" speechType="" typography="" rank="" method="ocr" id="FOX_CHILLINTALES_T17_006_line_52">HUH  WHO</metadata>
    </polygon>
    <polygon points="447,90 790,90 790,123 447,123 447,90">
      <metadata confidence="0.0" speechType="" typography="" rank="" method="ocr" id="FOX_CHILLINTALES_T17_006_line_53">   STRANGEB STQPPED BEFORE HI</metadata>
    </polygon>
    <polygon points="467,70 807,70 807,112 467,112 467,70">
      <metadata confidence="0.0" speechType="" typography="" rank="" method="ocr" id="FOX_CHILLINTALES_T17_006_line_54">UDDENLYJROM A DARK THICKET STRANGER STEPPED BEFORE HIM</metadata>
    </polygon>
    <polygon points="41,172 158,172 158,191 41,191 41,172">
      <metadata confidence="0.0" speechType="" typography="" rank="" method="ocr" id="FOX_CHILLINTALES_T17_006_line_55">PITMURKIE</metadata>
    </polygon>
    <polygon points="39,146 373,146 373,164 39,164 39,146">
      <metadata confidence="0.0" speechType="" typography="" rank="" method="ocr" id="FOX_CHILLINTALES_T17_006_line_56">THE DARK WOODS OF HAUNTED</metadata>
    </polygon>
    <polygon points="40,122 410,122 410,138 40,138 40,122">
      <metadata confidence="0.0" speechType="" typography="" rank="" method="ocr" id="FOX_CHILLINTALES_T17_006_line_57">AND MADE HIS WAY HOMETI ROUGH</metadata>
    </polygon>
    <polygon points="39,96 373,96 373,113 39,113 39,96">
      <metadata confidence="0.0" speechType="" typography="" rank="" method="ocr" id="FOX_CHILLINTALES_T17_006_line_58">TIFIED HIMSELF WITH BRANDY</metadata>
    </polygon>
    <polygon points="67,71 386,71 386,88 67,88 67,71">
      <metadata confidence="0.0" speechType="" typography="" rank="" method="ocr" id="FOX_CHILLINTALES_T17_006_line_59">Y GRANDFATHER.  l EEN  E.FOR</metadata>
    </polygon>
    <polygon points="979,819 1041,819 1041,848 979,848 979,819">
      <metadata confidence="0.0" speechType="" typography="" rank="" method="ocr" id="FOX_CHILLINTALES_T17_006_line_60">547  a</metadata>
    </polygon>
    <polygon points="1021,794 1067,794 1067,819 1021,819 1021,794">
      <metadata confidence="0.0" speechType="" typography="" rank="" method="ocr" id="FOX_CHILLINTALES_T17_006_line_61">24.7</metadata>
    </polygon>
    <polygon points="1069,545 1132,545 1132,572 1069,572 1069,545">
      <metadata confidence="0.0" speechType="" typography="" rank="" method="ocr" id="FOX_CHILLINTALES_T17_006_line_62">sg</metadata>
    </polygon>
    <polygon points="1055,274 1199,274 1199,291 1055,291 1055,274">
      <metadata confidence="0.0" speechType="" typography="" rank="" method="ocr" id="FOX_CHILLINTALES_T17_006_line_63">THE RECEIP    </metadata>
    </polygon>
    <polygon points="1063,249 1219,249 1219,266 1063,266 1063,249">
      <metadata confidence="0.0" speechType="" typography="" rank="" method="ocr" id="FOX_CHILLINTALES_T17_006_line_64">WILL Gl lE YOU</metadata>
    </polygon>
    <polygon points="1064,222 1186,222 1186,239 1064,239 1064,222">
      <metadata confidence="0.0" speechType="" typography="" rank="" method="ocr" id="FOX_CHILLINTALES_T17_006_line_65">SEE HIM. HE</metadata>
    </polygon>
    <polygon points="1061,197 1231,197 1231,216 1061,216 1061,197">
      <metadata confidence="0.0" speechType="" typography="" rank="" method="ocr" id="FOX_CHILLINTALES_T17_006_line_66">TURE T0 G0 AND</metadata>
    </polygon>
    <polygon points="1061,171 1220,171 1220,192 1061,192 1061,171">
      <metadata confidence="0.0" speechType="" typography="" rank="" method="ocr" id="FOX_CHILLINTALES_T17_006_line_67">IF YE DARE VEN</metadata>
    </polygon>
    <polygon points="914,146 959,146 959,163 914,163 914,146">
      <metadata confidence="0.0" speechType="" typography="" rank="" method="ocr" id="FOX_CHILLINTALES_T17_006_line_68">ME </metadata>
    </polygon>
    <polygon points="1058,141 1213,141 1213,162 1058,162 1058,141">
      <metadata confidence="0.0" speechType="" typography="" rank="" method="ocr" id="FOX_CHILLINTALES_T17_006_line_69">vous cuaszs  </metadata>
    </polygon>
    <polygon points="875,121 1021,121 1021,137 875,137 875,121">
      <metadata confidence="0.0" speechType="" typography="" rank="" method="ocr" id="FOX_CHILLINTALES_T17_006_line_70">YE WANT WITH</metadata>
    </polygon>
    <polygon points="1057,120 1202,120 1202,136 1057,136 1057,120">
      <metadata confidence="0.0" speechType="" typography="" rank="" method="ocr" id="FOX_CHILLINTALES_T17_006_line_71">HIS GRAVE BY</metadata>
    </polygon>
    <polygon points="875,95 1024,95 1024,111 875,111 875,95">
      <metadata confidence="0.0" speechType="" typography="" rank="" method="ocr" id="FOX_CHILLINTALES_T17_006_line_72">ON AIRTH CAN</metadata>
    </polygon>
    <polygon points="1057,95 1229,95 1229,111 1057,111 1057,95">
      <metadata confidence="0.0" speechType="" typography="" rank="" method="ocr" id="FOX_CHILLINTALES_T17_006_line_73">IS DISTURBED IN</metadata>
    </polygon>
    <polygon points="884,69 999,69 999,86 884,86 884,69">
      <metadata confidence="0.0" speechType="" typography="" rank="" method="ocr" id="FOX_CHILLINTALES_T17_006_line_74">ME  WHAT</metadata>
    </polygon>
    <polygon points="1059,69 1228,69 1228,85 1059,85 1059,69">
      <metadata confidence="0.0" speechType="" typography="" rank="" method="ocr" id="FOX_CHILLINTALES_T17_006_line_75">THE AULD LAIRD</metadata>
    </polygon>
  </svg>
</svg>
