<?xml version="1.0" encoding="UTF-8" standalone="no"?>
<svg width="2482" xmlns="http://www.w3.org/2000/svg" version="1.0" height="3438">
  <title>FRED_PHILEMON9_011</title>
  <svg contentScriptType="text/ecmascript" zoomAndPan="magnify" contentStyleType="text/css" class="Page" preserveAspectRatio="xMidYMid meet" version="1.0">
    <image xmlns:xlink="http://www.w3.org/1999/xlink" x="0" y="0" width="2482" height="3438" xlink:href="../Pages/FRED_PHILEMON9_011.jpg" xlink:type="simple" xlink:actuate="onLoad" preserveAspectRatio="xMidYMid meet" xlink:show="embed"/>
  </svg>
  <style type="text/css" xml:space="preserve">
        * { stroke-width: 0; stroke-linejoin: round; }
        .Unclassified { fill: orange; stroke: none; opacity: 1.0; visibility: hidden; }
        .Noise { fill: pink; stroke: none; opacity: 0.2; visibility: hidden; }
        .Panel { fill: red; stroke: none; opacity: 0.5; visibility: visible; image-rendering: optimizeSpeed; }
        .Line { fill: green; stroke: none; opacity: 0.5; visibility: visible; image-rendering: optimizeSpeed; }
        .TextArea { fill: grey; stroke: none; opacity: 0.2; visibility: visible; image-rendering: optimizeSpeed; }
        .Balloon { fill: cyan; stroke: none; opacity: 0.5; visibility: visible; image-rendering: optimizeSpeed; }
        .Letter { fill: blue; stroke: none; opacity: 0.2; visibility: hidden; }
        .Object { fill: yellow; stroke: none; opacity: 0.2; visibility: visible; image-rendering: optimizeSpeed; }
        .Page { fill: white; stroke: none; opacity: 0.5; visibility: visible; }
</style>
  <svg xmlns="http://www.w3.org/2000/svg" contentScriptType="text/ecmascript" zoomAndPan="magnify" contentStyleType="text/css" class="Line" preserveAspectRatio="xMidYMid meet" version="1.0">
    <polygon points="1711,1451 2068,1451 2068,1526 1711,1526 1711,1451">
      <metadata confidence="0.0" speechType="" typography="" rank="" method="ocr" id="FRED_PHILEMON9_011_line_0">    I   ..EI</metadata>
    </polygon>
    <polygon points="2116,1116 2304,1116 2304,1158 2116,1158 2116,1116">
      <metadata confidence="0.0" speechType="" typography="" rank="" method="ocr" id="FRED_PHILEMON9_011_line_1">MIWMf.1l</metadata>
    </polygon>
    <polygon points="1508,1099 2108,1099 2108,1159 1508,1159 1508,1099">
      <metadata confidence="0.0" speechType="" typography="" rank="" method="ocr" id="FRED_PHILEMON9_011_line_2">M l MMI I0MMMr   </metadata>
    </polygon>
    <polygon points="1497,3077 1750,3077 1750,3156 1497,3156 1497,3077">
      <metadata confidence="0.0" speechType="" typography="" rank="" method="ocr" id="FRED_PHILEMON9_011_line_3">   V    z  </metadata>
    </polygon>
    <polygon points="1712,3048 1877,3048 1877,3088 1712,3088 1712,3048">
      <metadata confidence="0.0" speechType="" typography="" rank="" method="ocr" id="FRED_PHILEMON9_011_line_4"> rw</metadata>
    </polygon>
    <polygon points="567,3039 984,3039 984,3075 567,3075 567,3039">
      <metadata confidence="0.0" speechType="" typography="" rank="" method="ocr" id="FRED_PHILEMON9_011_line_5">  il</metadata>
    </polygon>
    <polygon points="736,2721 1316,2721 1316,2818 736,2818 736,2721">
      <metadata confidence="0.0" speechType="" typography="" rank="" method="ocr" id="FRED_PHILEMON9_011_line_6">  U i P1</metadata>
    </polygon>
    <polygon points="1071,2718 1196,2718 1196,2752 1071,2752 1071,2718">
      <metadata confidence="0.0" speechType="" typography="" rank="" method="ocr" id="FRED_PHILEMON9_011_line_7"> 47 </metadata>
    </polygon>
    <polygon points="1070,2576 1309,2576 1309,2664 1070,2664 1070,2576">
      <metadata confidence="0.0" speechType="" typography="" rank="" method="ocr" id="FRED_PHILEMON9_011_line_8">V                    4</metadata>
    </polygon>
    <polygon points="1323,2231 1403,2231 1403,2290 1323,2290 1323,2231">
      <metadata confidence="0.0" speechType="" typography="" rank="" method="ocr" id="FRED_PHILEMON9_011_line_9"> ME</metadata>
    </polygon>
    <polygon points="1108,2186 1323,2186 1323,2295 1108,2295 1108,2186">
      <metadata confidence="0.0" speechType="" typography="" rank="" method="ocr" id="FRED_PHILEMON9_011_line_10">  Q 4  .    </metadata>
    </polygon>
    <polygon points="122,2091 227,2091 227,2157 122,2157 122,2091">
      <metadata confidence="0.0" speechType="" typography="" rank="" method="ocr" id="FRED_PHILEMON9_011_line_11">r 14 P1</metadata>
    </polygon>
    <polygon points="1602,1004 1749,1004 1749,1042 1602,1042 1602,1004">
      <metadata confidence="0.0" speechType="" typography="" rank="" method="ocr" id="FRED_PHILEMON9_011_line_12"> W N </metadata>
    </polygon>
    <polygon points="1609,946 1673,946 1673,987 1609,987 1609,946">
      <metadata confidence="0.0" speechType="" typography="" rank="" method="ocr" id="FRED_PHILEMON9_011_line_13">  4N   </metadata>
    </polygon>
    <polygon points="1991,890 2138,890 2138,946 1991,946 1991,890">
      <metadata confidence="0.0" speechType="" typography="" rank="" method="ocr" id="FRED_PHILEMON9_011_line_14">V21</metadata>
    </polygon>
    <polygon points="847,470 1426,470 1426,523 847,523 847,470">
      <metadata confidence="0.0" speechType="" typography="" rank="" method="ocr" id="FRED_PHILEMON9_011_line_15">  fnz Fouonov    </metadata>
    </polygon>
    <polygon points="845,415 1458,415 1458,471 845,471 845,415">
      <metadata confidence="0.0" speechType="" typography="" rank="" method="ocr" id="FRED_PHILEMON9_011_line_16">  HIL  M  N Liu v       </metadata>
    </polygon>
    <polygon points="910,371 1399,371 1399,421 910,421 910,371">
      <metadata confidence="0.0" speechType="" typography="" rank="" method="ocr" id="FRED_PHILEMON9_011_line_17">M5 35916   b   ux</metadata>
    </polygon>
    <polygon points="287,1006 418,1006 418,1042 287,1042 287,1006">
      <metadata confidence="0.0" speechType="" typography="" rank="" method="ocr" id="FRED_PHILEMON9_011_line_18">Umm.</metadata>
    </polygon>
    <polygon points="555,992 654,992 654,1035 555,1035 555,992">
      <metadata confidence="0.0" speechType="" typography="" rank="" method="ocr" id="FRED_PHILEMON9_011_line_19">km </metadata>
    </polygon>
    <polygon points="125,973 341,973 341,1030 125,1030 125,973">
      <metadata confidence="0.0" speechType="" typography="" rank="" method="ocr" id="FRED_PHILEMON9_011_line_20">3  INXH</metadata>
    </polygon>
    <polygon points="164,907 249,907 249,952 164,952 164,907">
      <metadata confidence="0.0" speechType="" typography="" rank="" method="ocr" id="FRED_PHILEMON9_011_line_21">RW</metadata>
    </polygon>
    <polygon points="63,878 233,878 233,936 63,936 63,878">
      <metadata confidence="0.0" speechType="" typography="" rank="" method="ocr" id="FRED_PHILEMON9_011_line_22"> m V   E</metadata>
    </polygon>
    <polygon points="129,771 264,771 264,821 129,821 129,771">
      <metadata confidence="0.0" speechType="" typography="" rank="" method="ocr" id="FRED_PHILEMON9_011_line_23">l WW</metadata>
    </polygon>
    <polygon points="260,507 442,507 442,547 260,547 260,507">
      <metadata confidence="0.0" speechType="" typography="" rank="" method="ocr" id="FRED_PHILEMON9_011_line_24">7    C  </metadata>
    </polygon>
    <polygon points="452,451 566,451 566,506 452,506 452,451">
      <metadata confidence="0.0" speechType="" typography="" rank="" method="ocr" id="FRED_PHILEMON9_011_line_25"> cm</metadata>
    </polygon>
    <polygon points="48,436 364,436 364,507 48,507 48,436">
      <metadata confidence="0.0" speechType="" typography="" rank="" method="ocr" id="FRED_PHILEMON9_011_line_26"> az   </metadata>
    </polygon>
  </svg>
</svg>
