<?xml version="1.0" encoding="UTF-8" standalone="no"?>
<svg width="3078" xmlns="http://www.w3.org/2000/svg" version="1.0" height="4196">
  <title>MCCAY_LITTLENEMO_090</title>
  <svg contentScriptType="text/ecmascript" zoomAndPan="magnify" contentStyleType="text/css" class="Page" preserveAspectRatio="xMidYMid meet" version="1.0">
    <image xmlns:xlink="http://www.w3.org/1999/xlink" x="0" y="0" width="3078" height="4196" xlink:href="../Pages/MCCAY_LITTLENEMO_090.jpg" xlink:type="simple" xlink:actuate="onLoad" preserveAspectRatio="xMidYMid meet" xlink:show="embed"/>
  </svg>
  <style type="text/css" xml:space="preserve">
        * { stroke-width: 0; stroke-linejoin: round; }
        .Unclassified { fill: orange; stroke: none; opacity: 1.0; visibility: hidden; }
        .Noise { fill: pink; stroke: none; opacity: 0.2; visibility: hidden; }
        .Panel { fill: red; stroke: none; opacity: 0.5; visibility: visible; image-rendering: optimizeSpeed; }
        .Line { fill: green; stroke: none; opacity: 0.5; visibility: visible; image-rendering: optimizeSpeed; }
        .TextArea { fill: grey; stroke: none; opacity: 0.2; visibility: visible; image-rendering: optimizeSpeed; }
        .Balloon { fill: cyan; stroke: none; opacity: 0.5; visibility: visible; image-rendering: optimizeSpeed; }
        .Letter { fill: blue; stroke: none; opacity: 0.2; visibility: hidden; }
        .Object { fill: yellow; stroke: none; opacity: 0.2; visibility: visible; image-rendering: optimizeSpeed; }
        .Page { fill: white; stroke: none; opacity: 0.5; visibility: visible; }
</style>
  <svg xmlns="http://www.w3.org/2000/svg" contentScriptType="text/ecmascript" zoomAndPan="magnify" contentStyleType="text/css" class="Line" preserveAspectRatio="xMidYMid meet" version="1.0">
    <polygon points="1945,3967 2090,3967 2090,4008 1945,4008 1945,3967">
      <metadata confidence="0.0" speechType="" typography="" rank="" method="ocr" id="MCCAY_LITTLENEMO_090_line_0"> Ka    </metadata>
    </polygon>
    <polygon points="1344,3965 1449,3965 1449,4019 1344,4019 1344,3965">
      <metadata confidence="0.0" speechType="" typography="" rank="" method="ocr" id="MCCAY_LITTLENEMO_090_line_1">ki</metadata>
    </polygon>
    <polygon points="2577,3930 2847,3930 2847,3994 2577,3994 2577,3930">
      <metadata confidence="0.0" speechType="" typography="" rank="" method="ocr" id="MCCAY_LITTLENEMO_090_line_2">  ff f </metadata>
    </polygon>
    <polygon points="1748,3774 1828,3774 1828,3827 1748,3827 1748,3774">
      <metadata confidence="0.0" speechType="" typography="" rank="" method="ocr" id="MCCAY_LITTLENEMO_090_line_3">  Hi</metadata>
    </polygon>
    <polygon points="1975,3642 2135,3642 2135,3717 1975,3717 1975,3642">
      <metadata confidence="0.0" speechType="" typography="" rank="" method="ocr" id="MCCAY_LITTLENEMO_090_line_4"> rmru </metadata>
    </polygon>
    <polygon points="737,3620 1167,3620 1167,3736 737,3736 737,3620">
      <metadata confidence="0.0" speechType="" typography="" rank="" method="ocr" id="MCCAY_LITTLENEMO_090_line_5">.    .    nul  V.    f        V   r  4   f    </metadata>
    </polygon>
    <polygon points="2098,3608 2300,3608 2300,3679 2098,3679 2098,3608">
      <metadata confidence="0.0" speechType="" typography="" rank="" method="ocr" id="MCCAY_LITTLENEMO_090_line_6"> A  VY  n    r     il</metadata>
    </polygon>
    <polygon points="2148,3582 2214,3582 2214,3624 2148,3624 2148,3582">
      <metadata confidence="0.0" speechType="" typography="" rank="" method="ocr" id="MCCAY_LITTLENEMO_090_line_7">Afl</metadata>
    </polygon>
    <polygon points="625,3553 869,3553 869,3638 625,3638 625,3553">
      <metadata confidence="0.0" speechType="" typography="" rank="" method="ocr" id="MCCAY_LITTLENEMO_090_line_8">   rw    a</metadata>
    </polygon>
    <polygon points="1679,3558 1923,3558 1923,3641 1679,3641 1679,3558">
      <metadata confidence="0.0" speechType="" typography="" rank="" method="ocr" id="MCCAY_LITTLENEMO_090_line_9"> WA.  .</metadata>
    </polygon>
    <polygon points="100,3480 2203,3480 2203,3607 100,3607 100,3480">
      <metadata confidence="0.0" speechType="" typography="" rank="" method="ocr" id="MCCAY_LITTLENEMO_090_line_10">       I  W      ff                 2      .                      if  </metadata>
    </polygon>
    <polygon points="2766,3488 2932,3488 2932,3539 2766,3539 2766,3488">
      <metadata confidence="0.0" speechType="" typography="" rank="" method="ocr" id="MCCAY_LITTLENEMO_090_line_11">FNT 0.116 SE   Rervugl</metadata>
    </polygon>
    <polygon points="1712,3447 1972,3447 1972,3510 1712,3510 1712,3447">
      <metadata confidence="0.0" speechType="" typography="" rank="" method="ocr" id="MCCAY_LITTLENEMO_090_line_12">J    i .</metadata>
    </polygon>
    <polygon points="2764,3460 2837,3460 2837,3485 2764,3485 2764,3460">
      <metadata confidence="0.0" speechType="" typography="" rank="" method="ocr" id="MCCAY_LITTLENEMO_090_line_13">CES</metadata>
    </polygon>
    <polygon points="2868,3456 2966,3456 2966,3482 2868,3482 2868,3456">
      <metadata confidence="0.0" speechType="" typography="" rank="" method="ocr" id="MCCAY_LITTLENEMO_090_line_14">KILNE</metadata>
    </polygon>
    <polygon points="1999,3440 2241,3440 2241,3514 1999,3514 1999,3440">
      <metadata confidence="0.0" speechType="" typography="" rank="" method="ocr" id="MCCAY_LITTLENEMO_090_line_15">  fh .  DN</metadata>
    </polygon>
    <polygon points="2772,3420 2984,3420 2984,3453 2772,3453 2772,3420">
      <metadata confidence="0.0" speechType="" typography="" rank="" method="ocr" id="MCCAY_LITTLENEMO_090_line_16">LTANT LA NU    Z</metadata>
    </polygon>
    <polygon points="1718,3399 1859,3399 1859,3472 1718,3472 1718,3399">
      <metadata confidence="0.0" speechType="" typography="" rank="" method="ocr" id="MCCAY_LITTLENEMO_090_line_17">   . l   </metadata>
    </polygon>
    <polygon points="561,3377 1060,3377 1060,3477 561,3477 561,3377">
      <metadata confidence="0.0" speechType="" typography="" rank="" method="ocr" id="MCCAY_LITTLENEMO_090_line_18">       Y      E   r       Q    z N. I              f             .  . Q.    z    0     Q                .</metadata>
    </polygon>
    <polygon points="1941,3365 2215,3365 2215,3443 1941,3443 1941,3365">
      <metadata confidence="0.0" speechType="" typography="" rank="" method="ocr" id="MCCAY_LITTLENEMO_090_line_19">iv     </metadata>
    </polygon>
    <polygon points="2885,3387 2971,3387 2971,3418 2885,3418 2885,3387">
      <metadata confidence="0.0" speechType="" typography="" rank="" method="ocr" id="MCCAY_LITTLENEMO_090_line_20">GlTE T</metadata>
    </polygon>
    <polygon points="1571,3368 1696,3368 1696,3449 1571,3449 1571,3368">
      <metadata confidence="0.0" speechType="" typography="" rank="" method="ocr" id="MCCAY_LITTLENEMO_090_line_21">   r   7     Q</metadata>
    </polygon>
    <polygon points="2756,3360 2876,3360 2876,3389 2756,3389 2756,3360">
      <metadata confidence="0.0" speechType="" typography="" rank="" method="ocr" id="MCCAY_LITTLENEMO_090_line_22">ffoumu</metadata>
    </polygon>
    <polygon points="840,3332 966,3332 966,3398 840,3398 840,3332">
      <metadata confidence="0.0" speechType="" typography="" rank="" method="ocr" id="MCCAY_LITTLENEMO_090_line_23">1  1       J     5</metadata>
    </polygon>
    <polygon points="775,3279 1131,3279 1131,3351 775,3351 775,3279">
      <metadata confidence="0.0" speechType="" typography="" rank="" method="ocr" id="MCCAY_LITTLENEMO_090_line_24">    JMV  </metadata>
    </polygon>
    <polygon points="2590,3255 2718,3255 2718,3310 2590,3310 2590,3255">
      <metadata confidence="0.0" speechType="" typography="" rank="" method="ocr" id="MCCAY_LITTLENEMO_090_line_25">WW  11</metadata>
    </polygon>
    <polygon points="406,3188 501,3188 501,3221 406,3221 406,3188">
      <metadata confidence="0.0" speechType="" typography="" rank="" method="ocr" id="MCCAY_LITTLENEMO_090_line_26">000 11</metadata>
    </polygon>
    <polygon points="403,3146 568,3146 568,3200 403,3200 403,3146">
      <metadata confidence="0.0" speechType="" typography="" rank="" method="ocr" id="MCCAY_LITTLENEMO_090_line_27">        ET    Wu</metadata>
    </polygon>
    <polygon points="893,3114 1052,3114 1052,3191 893,3191 893,3114">
      <metadata confidence="0.0" speechType="" typography="" rank="" method="ocr" id="MCCAY_LITTLENEMO_090_line_28">MW</metadata>
    </polygon>
    <polygon points="404,3116 537,3116 537,3144 404,3144 404,3116">
      <metadata confidence="0.0" speechType="" typography="" rank="" method="ocr" id="MCCAY_LITTLENEMO_090_line_29">ARRETEZ</metadata>
    </polygon>
    <polygon points="407,3077 493,3077 493,3109 407,3109 407,3077">
      <metadata confidence="0.0" speechType="" typography="" rank="" method="ocr" id="MCCAY_LITTLENEMO_090_line_30">000H </metadata>
    </polygon>
    <polygon points="151,3051 300,3051 300,3113 151,3113 151,3051">
      <metadata confidence="0.0" speechType="" typography="" rank="" method="ocr" id="MCCAY_LITTLENEMO_090_line_31">       FN</metadata>
    </polygon>
    <polygon points="782,2995 913,2995 913,3097 782,3097 782,2995">
      <metadata confidence="0.0" speechType="" typography="" rank="" method="ocr" id="MCCAY_LITTLENEMO_090_line_32">I7     .   </metadata>
    </polygon>
    <polygon points="185,2961 307,2961 307,3066 185,3066 185,2961">
      <metadata confidence="0.0" speechType="" typography="" rank="" method="ocr" id="MCCAY_LITTLENEMO_090_line_33"> W   fx</metadata>
    </polygon>
    <polygon points="241,2921 341,2921 341,2965 241,2965 241,2921">
      <metadata confidence="0.0" speechType="" typography="" rank="" method="ocr" id="MCCAY_LITTLENEMO_090_line_34">V99</metadata>
    </polygon>
    <polygon points="535,2835 664,2835 664,2906 535,2906 535,2835">
      <metadata confidence="0.0" speechType="" typography="" rank="" method="ocr" id="MCCAY_LITTLENEMO_090_line_35">      I Q </metadata>
    </polygon>
    <polygon points="912,2837 999,2837 999,2894 912,2894 912,2837">
      <metadata confidence="0.0" speechType="" typography="" rank="" method="ocr" id="MCCAY_LITTLENEMO_090_line_36">g  h</metadata>
    </polygon>
    <polygon points="2170,2770 2630,2770 2630,2825 2170,2825 2170,2770">
      <metadata confidence="0.0" speechType="" typography="" rank="" method="ocr" id="MCCAY_LITTLENEMO_090_line_37">WM         f</metadata>
    </polygon>
    <polygon points="1884,2775 1987,2775 1987,2825 1884,2825 1884,2775">
      <metadata confidence="0.0" speechType="" typography="" rank="" method="ocr" id="MCCAY_LITTLENEMO_090_line_38">K7</metadata>
    </polygon>
    <polygon points="161,2679 414,2679 414,2759 161,2759 161,2679">
      <metadata confidence="0.0" speechType="" typography="" rank="" method="ocr" id="MCCAY_LITTLENEMO_090_line_39">ai  vv  </metadata>
    </polygon>
    <polygon points="2112,2667 2281,2667 2281,2742 2112,2742 2112,2667">
      <metadata confidence="0.0" speechType="" typography="" rank="" method="ocr" id="MCCAY_LITTLENEMO_090_line_40">VK  </metadata>
    </polygon>
    <polygon points="2715,2649 3018,2649 3018,2737 2715,2737 2715,2649">
      <metadata confidence="0.0" speechType="" typography="" rank="" method="ocr" id="MCCAY_LITTLENEMO_090_line_41">.   Q      .              . x        If</metadata>
    </polygon>
    <polygon points="94,2647 440,2647 440,2709 94,2709 94,2647">
      <metadata confidence="0.0" speechType="" typography="" rank="" method="ocr" id="MCCAY_LITTLENEMO_090_line_42">     a           J  .   1               </metadata>
    </polygon>
    <polygon points="537,2638 631,2638 631,2721 537,2721 537,2638">
      <metadata confidence="0.0" speechType="" typography="" rank="" method="ocr" id="MCCAY_LITTLENEMO_090_line_43">gli   </metadata>
    </polygon>
    <polygon points="917,2604 1044,2604 1044,2661 917,2661 917,2604">
      <metadata confidence="0.0" speechType="" typography="" rank="" method="ocr" id="MCCAY_LITTLENEMO_090_line_44">   a a         r EE QQ  3</metadata>
    </polygon>
    <polygon points="359,2587 867,2587 867,2662 359,2662 359,2587">
      <metadata confidence="0.0" speechType="" typography="" rank="" method="ocr" id="MCCAY_LITTLENEMO_090_line_45">            3         f       </metadata>
    </polygon>
    <polygon points="96,2536 663,2536 663,2649 96,2649 96,2536">
      <metadata confidence="0.0" speechType="" typography="" rank="" method="ocr" id="MCCAY_LITTLENEMO_090_line_46">  V  7     G       .      W     .   f        ..           J </metadata>
    </polygon>
    <polygon points="759,2517 1022,2517 1022,2588 759,2588 759,2517">
      <metadata confidence="0.0" speechType="" typography="" rank="" method="ocr" id="MCCAY_LITTLENEMO_090_line_47">1        x 0 .   .. </metadata>
    </polygon>
    <polygon points="226,2486 425,2486 425,2567 226,2567 226,2486">
      <metadata confidence="0.0" speechType="" typography="" rank="" method="ocr" id="MCCAY_LITTLENEMO_090_line_48">fg</metadata>
    </polygon>
    <polygon points="504,2430 1027,2430 1027,2530 504,2530 504,2430">
      <metadata confidence="0.0" speechType="" typography="" rank="" method="ocr" id="MCCAY_LITTLENEMO_090_line_49">1   .  . H       1 .Fi  </metadata>
    </polygon>
    <polygon points="1490,2422 1545,2422 1545,2472 1490,2472 1490,2422">
      <metadata confidence="0.0" speechType="" typography="" rank="" method="ocr" id="MCCAY_LITTLENEMO_090_line_50"> ii</metadata>
    </polygon>
    <polygon points="1267,2334 1613,2334 1613,2427 1267,2427 1267,2334">
      <metadata confidence="0.0" speechType="" typography="" rank="" method="ocr" id="MCCAY_LITTLENEMO_090_line_51">WOXQE</metadata>
    </polygon>
    <polygon points="2450,2306 2775,2306 2775,2420 2450,2420 2450,2306">
      <metadata confidence="0.0" speechType="" typography="" rank="" method="ocr" id="MCCAY_LITTLENEMO_090_line_52">      vE      </metadata>
    </polygon>
    <polygon points="413,2271 504,2271 504,2329 413,2329 413,2271">
      <metadata confidence="0.0" speechType="" typography="" rank="" method="ocr" id="MCCAY_LITTLENEMO_090_line_53">vl         g</metadata>
    </polygon>
    <polygon points="1413,2213 1499,2213 1499,2287 1413,2287 1413,2213">
      <metadata confidence="0.0" speechType="" typography="" rank="" method="ocr" id="MCCAY_LITTLENEMO_090_line_54">Wi</metadata>
    </polygon>
    <polygon points="146,2161 372,2161 372,2240 146,2240 146,2161">
      <metadata confidence="0.0" speechType="" typography="" rank="" method="ocr" id="MCCAY_LITTLENEMO_090_line_55">Mg  Q</metadata>
    </polygon>
    <polygon points="2539,2157 2728,2157 2728,2225 2539,2225 2539,2157">
      <metadata confidence="0.0" speechType="" typography="" rank="" method="ocr" id="MCCAY_LITTLENEMO_090_line_56">E   lI    J                    </metadata>
    </polygon>
    <polygon points="448,2120 517,2120 517,2149 448,2149 448,2120">
      <metadata confidence="0.0" speechType="" typography="" rank="" method="ocr" id="MCCAY_LITTLENEMO_090_line_57">Mo  1</metadata>
    </polygon>
    <polygon points="928,2082 1162,2082 1162,2147 928,2147 928,2082">
      <metadata confidence="0.0" speechType="" typography="" rank="" method="ocr" id="MCCAY_LITTLENEMO_090_line_58">             J   3    3    f L </metadata>
    </polygon>
    <polygon points="2243,2072 2811,2072 2811,2176 2243,2176 2243,2072">
      <metadata confidence="0.0" speechType="" typography="" rank="" method="ocr" id="MCCAY_LITTLENEMO_090_line_59">FA    g  fnp  fs Y... 1 V      Nam I       </metadata>
    </polygon>
    <polygon points="140,2080 529,2080 529,2165 140,2165 140,2080">
      <metadata confidence="0.0" speechType="" typography="" rank="" method="ocr" id="MCCAY_LITTLENEMO_090_line_60">SuivezMgf </metadata>
    </polygon>
    <polygon points="854,2068 1051,2068 1051,2127 854,2127 854,2068">
      <metadata confidence="0.0" speechType="" typography="" rank="" method="ocr" id="MCCAY_LITTLENEMO_090_line_61">                 a0</metadata>
    </polygon>
    <polygon points="1949,2064 2033,2064 2033,2090 1949,2090 1949,2064">
      <metadata confidence="0.0" speechType="" typography="" rank="" method="ocr" id="MCCAY_LITTLENEMO_090_line_62">50MBA</metadata>
    </polygon>
    <polygon points="1257,2037 1455,2037 1455,2102 1257,2102 1257,2037">
      <metadata confidence="0.0" speechType="" typography="" rank="" method="ocr" id="MCCAY_LITTLENEMO_090_line_63">J 2 135Q 3.  M  h  </metadata>
    </polygon>
    <polygon points="2912,2026 3013,2026 3013,2069 2912,2069 2912,2026">
      <metadata confidence="0.0" speechType="" typography="" rank="" method="ocr" id="MCCAY_LITTLENEMO_090_line_64"> EW</metadata>
    </polygon>
    <polygon points="1129,2010 1371,2010 1371,2118 1129,2118 1129,2010">
      <metadata confidence="0.0" speechType="" typography="" rank="" method="ocr" id="MCCAY_LITTLENEMO_090_line_65">1 H   A  0             I  </metadata>
    </polygon>
    <polygon points="436,2014 728,2014 728,2081 436,2081 436,2014">
      <metadata confidence="0.0" speechType="" typography="" rank="" method="ocr" id="MCCAY_LITTLENEMO_090_line_66">Au      HT     .L</metadata>
    </polygon>
    <polygon points="1802,1987 2961,1987 2961,2103 1802,2103 1802,1987">
      <metadata confidence="0.0" speechType="" typography="" rank="" method="ocr" id="MCCAY_LITTLENEMO_090_line_67">   ..    .         Qj   gig ag       ses    ON  NE d  g  h     ffou  ng 05 T VOUS      ES PAS    L           .       B0Ma RbER AVEC Q FA IT              .        .. hzrnr V</metadata>
    </polygon>
    <polygon points="1321,1975 1681,1975 1681,2078 1321,2078 1321,1975">
      <metadata confidence="0.0" speechType="" typography="" rank="" method="ocr" id="MCCAY_LITTLENEMO_090_line_68">  u xjS f    .Q      X          1.i.   </metadata>
    </polygon>
    <polygon points="542,1954 1481,1954 1481,2027 542,2027 542,1954">
      <metadata confidence="0.0" speechType="" typography="" rank="" method="ocr" id="MCCAY_LITTLENEMO_090_line_69">     n     I  E  .   f . .   f   ..     </metadata>
    </polygon>
    <polygon points="110,1966 340,1966 340,2015 110,2015 110,1966">
      <metadata confidence="0.0" speechType="" typography="" rank="" method="ocr" id="MCCAY_LITTLENEMO_090_line_70">E           3    . . f    </metadata>
    </polygon>
    <polygon points="1859,1943 2386,1943 2386,2015 1859,2015 1859,1943">
      <metadata confidence="0.0" speechType="" typography="" rank="" method="ocr" id="MCCAY_LITTLENEMO_090_line_71">NE    zee  r   ez j       duc PEG.  nl SE     HW</metadata>
    </polygon>
    <polygon points="328,1728 3010,1728 3010,1872 328,1872 328,1728">
      <metadata confidence="0.0" speechType="" typography="" rank="" method="ocr" id="MCCAY_LITTLENEMO_090_line_72"> L W .      .  .            L   .  I .  pv       .       35      r           kj     .      I   Il      blu  I     2  gf  ii      W  W            I                         .   K       V                   iq   li  </metadata>
    </polygon>
    <polygon points="81,1629 767,1629 767,1744 81,1744 81,1629">
      <metadata confidence="0.0" speechType="" typography="" rank="" method="ocr" id="MCCAY_LITTLENEMO_090_line_73">         I 7 </metadata>
    </polygon>
    <polygon points="596,1562 3012,1562 3012,1708 596,1708 596,1562">
      <metadata confidence="0.0" speechType="" typography="" rank="" method="ocr" id="MCCAY_LITTLENEMO_090_line_74">V JU                f      k          M  .       W      ill  m             A A     1   </metadata>
    </polygon>
    <polygon points="243,1486 724,1486 724,1587 243,1587 243,1486">
      <metadata confidence="0.0" speechType="" typography="" rank="" method="ocr" id="MCCAY_LITTLENEMO_090_line_75">T    .   . .     . A     ..     </metadata>
    </polygon>
    <polygon points="1013,1464 1223,1464 1223,1552 1013,1552 1013,1464">
      <metadata confidence="0.0" speechType="" typography="" rank="" method="ocr" id="MCCAY_LITTLENEMO_090_line_76">            lf  ff  </metadata>
    </polygon>
    <polygon points="94,1429 450,1429 450,1549 94,1549 94,1429">
      <metadata confidence="0.0" speechType="" typography="" rank="" method="ocr" id="MCCAY_LITTLENEMO_090_line_77">    r    .     ..   Y v    .    Uv ff     </metadata>
    </polygon>
    <polygon points="844,1424 931,1424 931,1467 844,1467 844,1424">
      <metadata confidence="0.0" speechType="" typography="" rank="" method="ocr" id="MCCAY_LITTLENEMO_090_line_78">       f if.</metadata>
    </polygon>
    <polygon points="532,1392 739,1392 739,1444 532,1444 532,1392">
      <metadata confidence="0.0" speechType="" typography="" rank="" method="ocr" id="MCCAY_LITTLENEMO_090_line_79">    H           1 l  </metadata>
    </polygon>
    <polygon points="352,1382 406,1382 406,1406 352,1406 352,1382">
      <metadata confidence="0.0" speechType="" typography="" rank="" method="ocr" id="MCCAY_LITTLENEMO_090_line_80">HE</metadata>
    </polygon>
    <polygon points="1073,1344 1253,1344 1253,1423 1073,1423 1073,1344">
      <metadata confidence="0.0" speechType="" typography="" rank="" method="ocr" id="MCCAY_LITTLENEMO_090_line_81">       ff    </metadata>
    </polygon>
    <polygon points="334,1317 383,1317 383,1339 334,1339 334,1317">
      <metadata confidence="0.0" speechType="" typography="" rank="" method="ocr" id="MCCAY_LITTLENEMO_090_line_82">AV</metadata>
    </polygon>
    <polygon points="1044,1269 1274,1269 1274,1326 1044,1326 1044,1269">
      <metadata confidence="0.0" speechType="" typography="" rank="" method="ocr" id="MCCAY_LITTLENEMO_090_line_83">      z Ji</metadata>
    </polygon>
    <polygon points="336,1280 478,1280 478,1306 336,1306 336,1280">
      <metadata confidence="0.0" speechType="" typography="" rank="" method="ocr" id="MCCAY_LITTLENEMO_090_line_84"> IOUSALLEZ</metadata>
    </polygon>
    <polygon points="254,1193 589,1193 589,1305 254,1305 254,1193">
      <metadata confidence="0.0" speechType="" typography="" rank="" method="ocr" id="MCCAY_LITTLENEMO_090_line_85">         i 1ouSALu  z 5  L</metadata>
    </polygon>
    <polygon points="806,1198 1087,1198 1087,1260 806,1260 806,1198">
      <metadata confidence="0.0" speechType="" typography="" rank="" method="ocr" id="MCCAY_LITTLENEMO_090_line_86"> B .ff  . .         .L   Mms nf    .. wan  P </metadata>
    </polygon>
    <polygon points="937,1181 1049,1181 1049,1207 937,1207 937,1181">
      <metadata confidence="0.0" speechType="" typography="" rank="" method="ocr" id="MCCAY_LITTLENEMO_090_line_87">CELUI D</metadata>
    </polygon>
    <polygon points="1249,1135 1303,1135 1303,1186 1249,1186 1249,1135">
      <metadata confidence="0.0" speechType="" typography="" rank="" method="ocr" id="MCCAY_LITTLENEMO_090_line_88">i  x</metadata>
    </polygon>
    <polygon points="1006,1145 1056,1145 1056,1168 1006,1168 1006,1145">
      <metadata confidence="0.0" speechType="" typography="" rank="" method="ocr" id="MCCAY_LITTLENEMO_090_line_89">B5</metadata>
    </polygon>
    <polygon points="1105,1140 1160,1140 1160,1165 1105,1165 1105,1140">
      <metadata confidence="0.0" speechType="" typography="" rank="" method="ocr" id="MCCAY_LITTLENEMO_090_line_90">QU</metadata>
    </polygon>
    <polygon points="939,1108 1177,1108 1177,1136 939,1136 939,1108">
      <metadata confidence="0.0" speechType="" typography="" rank="" method="ocr" id="MCCAY_LITTLENEMO_090_line_91">MON PALNS EST</metadata>
    </polygon>
    <polygon points="81,1079 750,1079 750,1164 81,1164 81,1079">
      <metadata confidence="0.0" speechType="" typography="" rank="" method="ocr" id="MCCAY_LITTLENEMO_090_line_92">          g                                ali   v    4          L   w E</metadata>
    </polygon>
    <polygon points="1445,1869 1538,1869 1538,1909 1445,1909 1445,1869">
      <metadata confidence="0.0" speechType="" typography="" rank="" method="ocr" id="MCCAY_LITTLENEMO_090_line_93">wa </metadata>
    </polygon>
    <polygon points="1580,1859 1737,1859 1737,1919 1580,1919 1580,1859">
      <metadata confidence="0.0" speechType="" typography="" rank="" method="ocr" id="MCCAY_LITTLENEMO_090_line_94">.il</metadata>
    </polygon>
    <polygon points="2251,1852 2705,1852 2705,1909 2251,1909 2251,1852">
      <metadata confidence="0.0" speechType="" typography="" rank="" method="ocr" id="MCCAY_LITTLENEMO_090_line_95">wm1f       </metadata>
    </polygon>
    <polygon points="1811,1842 1900,1842 1900,1916 1811,1916 1811,1842">
      <metadata confidence="0.0" speechType="" typography="" rank="" method="ocr" id="MCCAY_LITTLENEMO_090_line_96">  .1L   L  </metadata>
    </polygon>
    <polygon points="2194,1686 2439,1686 2439,1756 2194,1756 2194,1686">
      <metadata confidence="0.0" speechType="" typography="" rank="" method="ocr" id="MCCAY_LITTLENEMO_090_line_97">H  W   N     N1  l HML lHH</metadata>
    </polygon>
    <polygon points="1801,1500 1974,1500 1974,1576 1801,1576 1801,1500">
      <metadata confidence="0.0" speechType="" typography="" rank="" method="ocr" id="MCCAY_LITTLENEMO_090_line_98">I  W    W</metadata>
    </polygon>
    <polygon points="2468,1489 2608,1489 2608,1585 2468,1585 2468,1489">
      <metadata confidence="0.0" speechType="" typography="" rank="" method="ocr" id="MCCAY_LITTLENEMO_090_line_99">V    E  </metadata>
    </polygon>
    <polygon points="1757,1413 2431,1413 2431,1502 1757,1502 1757,1413">
      <metadata confidence="0.0" speechType="" typography="" rank="" method="ocr" id="MCCAY_LITTLENEMO_090_line_100">                  I.  J    i r         W .Wi  I</metadata>
    </polygon>
    <polygon points="2594,1389 2682,1389 2682,1433 2594,1433 2594,1389">
      <metadata confidence="0.0" speechType="" typography="" rank="" method="ocr" id="MCCAY_LITTLENEMO_090_line_101">il</metadata>
    </polygon>
    <polygon points="2461,1297 2568,1297 2568,1367 2461,1367 2461,1297">
      <metadata confidence="0.0" speechType="" typography="" rank="" method="ocr" id="MCCAY_LITTLENEMO_090_line_102">      .Miki </metadata>
    </polygon>
    <polygon points="2496,1260 2641,1260 2641,1284 2496,1284 2496,1260">
      <metadata confidence="0.0" speechType="" typography="" rank="" method="ocr" id="MCCAY_LITTLENEMO_090_line_103">REIE1 VOIR</metadata>
    </polygon>
    <polygon points="1858,1227 2220,1227 2220,1307 1858,1307 1858,1227">
      <metadata confidence="0.0" speechType="" typography="" rank="" method="ocr" id="MCCAY_LITTLENEMO_090_line_104">N0U5AccanPA      1.suexmsnoo           4 suwew cp  </metadata>
    </polygon>
    <polygon points="2337,1231 2454,1231 2454,1267 2337,1267 2337,1231">
      <metadata confidence="0.0" speechType="" typography="" rank="" method="ocr" id="MCCAY_LITTLENEMO_090_line_105">.       gir</metadata>
    </polygon>
    <polygon points="2187,1184 2269,1184 2269,1229 2187,1229 2187,1184">
      <metadata confidence="0.0" speechType="" typography="" rank="" method="ocr" id="MCCAY_LITTLENEMO_090_line_106">gg </metadata>
    </polygon>
    <polygon points="2456,1196 2653,1196 2653,1222 2456,1222 2456,1196">
      <metadata confidence="0.0" speechType="" typography="" rank="" method="ocr" id="MCCAY_LITTLENEMO_090_line_107">E FAlT    PAS ATI</metadata>
    </polygon>
    <polygon points="1956,1198 2070,1198 2070,1223 1956,1223 1956,1198">
      <metadata confidence="0.0" speechType="" typography="" rank="" method="ocr" id="MCCAY_LITTLENEMO_090_line_108">KINS DEVA</metadata>
    </polygon>
    <polygon points="2342,1164 2650,1164 2650,1225 2342,1225 2342,1164">
      <metadata confidence="0.0" speechType="" typography="" rank="" method="ocr" id="MCCAY_LITTLENEMO_090_line_109">   A CRI  INDRE ET  NE FAITES ms Arf</metadata>
    </polygon>
    <polygon points="1955,1165 2045,1165 2045,1189 1955,1189 1955,1165">
      <metadata confidence="0.0" speechType="" typography="" rank="" method="ocr" id="MCCAY_LITTLENEMO_090_line_110">QUE LE</metadata>
    </polygon>
    <polygon points="2542,1132 2648,1132 2648,1158 2542,1158 2542,1132">
      <metadata confidence="0.0" speechType="" typography="" rank="" method="ocr" id="MCCAY_LITTLENEMO_090_line_111">AVEZ. RIE</metadata>
    </polygon>
    <polygon points="2449,1101 2643,1101 2643,1131 2449,1131 2449,1101">
      <metadata confidence="0.0" speechType="" typography="" rank="" method="ocr" id="MCCAY_LITTLENEMO_090_line_112">OUI  OUI  MAIS</metadata>
    </polygon>
    <polygon points="85,1003 330,1003 330,1052 85,1052 85,1003">
      <metadata confidence="0.0" speechType="" typography="" rank="" method="ocr" id="MCCAY_LITTLENEMO_090_line_113">1    4</metadata>
    </polygon>
    <polygon points="429,960 1098,960 1098,1046 429,1046 429,960">
      <metadata confidence="0.0" speechType="" typography="" rank="" method="ocr" id="MCCAY_LITTLENEMO_090_line_114">  gaH 1       1   N     .   2                 l   I   a .          1   s</metadata>
    </polygon>
    <polygon points="1868,853 2210,853 2210,957 1868,957 1868,853">
      <metadata confidence="0.0" speechType="" typography="" rank="" method="ocr" id="MCCAY_LITTLENEMO_090_line_115">.W ll E       fg .. n ll .         gl     </metadata>
    </polygon>
    <polygon points="1243,809 2204,809 2204,868 1243,868 1243,809">
      <metadata confidence="0.0" speechType="" typography="" rank="" method="ocr" id="MCCAY_LITTLENEMO_090_line_116"> .      1             a                                    Q     a m     L       . .    1 .2    5i</metadata>
    </polygon>
    <polygon points="1222,718 1559,718 1559,793 1222,793 1222,718">
      <metadata confidence="0.0" speechType="" typography="" rank="" method="ocr" id="MCCAY_LITTLENEMO_090_line_117"> .     .    Im    </metadata>
    </polygon>
    <polygon points="1806,743 1873,743 1873,805 1806,805 1806,743">
      <metadata confidence="0.0" speechType="" typography="" rank="" method="ocr" id="MCCAY_LITTLENEMO_090_line_118">    .L     JQ</metadata>
    </polygon>
    <polygon points="1232,664 1780,664 1780,756 1232,756 1232,664">
      <metadata confidence="0.0" speechType="" typography="" rank="" method="ocr" id="MCCAY_LITTLENEMO_090_line_119">    I    1 Q</metadata>
    </polygon>
    <polygon points="2387,665 2691,665 2691,769 2387,769 2387,665">
      <metadata confidence="0.0" speechType="" typography="" rank="" method="ocr" id="MCCAY_LITTLENEMO_090_line_120">1 1 a     G71           Q  .. yz rf   xl </metadata>
    </polygon>
    <polygon points="461,657 1089,657 1089,780 461,780 461,657">
      <metadata confidence="0.0" speechType="" typography="" rank="" method="ocr" id="MCCAY_LITTLENEMO_090_line_121">          ia    f     in                 7         ..    M </metadata>
    </polygon>
    <polygon points="2259,618 2517,618 2517,699 2259,699 2259,618">
      <metadata confidence="0.0" speechType="" typography="" rank="" method="ocr" id="MCCAY_LITTLENEMO_090_line_122">Q S       </metadata>
    </polygon>
    <polygon points="599,576 842,576 842,642 599,642 599,576">
      <metadata confidence="0.0" speechType="" typography="" rank="" method="ocr" id="MCCAY_LITTLENEMO_090_line_123"> rnag.v vi</metadata>
    </polygon>
    <polygon points="1537,562 1766,562 1766,627 1537,627 1537,562">
      <metadata confidence="0.0" speechType="" typography="" rank="" method="ocr" id="MCCAY_LITTLENEMO_090_line_124">7Vf  1         </metadata>
    </polygon>
    <polygon points="237,520 1043,520 1043,635 237,635 237,520">
      <metadata confidence="0.0" speechType="" typography="" rank="" method="ocr" id="MCCAY_LITTLENEMO_090_line_125">  Wi        H      s oe Mol     ex        . .  H                .                   Q          ... . . .    A      . .. C        </metadata>
    </polygon>
    <polygon points="828,507 978,507 978,533 828,533 828,507">
      <metadata confidence="0.0" speechType="" typography="" rank="" method="ocr" id="MCCAY_LITTLENEMO_090_line_126">APPKOCHEZ</metadata>
    </polygon>
    <polygon points="2359,499 2518,499 2518,525 2359,525 2359,499">
      <metadata confidence="0.0" speechType="" typography="" rank="" method="ocr" id="MCCAY_LITTLENEMO_090_line_127">DANS LA JUNG</metadata>
    </polygon>
    <polygon points="84,462 975,462 975,554 84,554 84,462">
      <metadata confidence="0.0" speechType="" typography="" rank="" method="ocr" id="MCCAY_LITTLENEMO_090_line_128">5          Z 11   x     </metadata>
    </polygon>
    <polygon points="1198,464 1596,464 1596,537 1198,537 1198,464">
      <metadata confidence="0.0" speechType="" typography="" rank="" method="ocr" id="MCCAY_LITTLENEMO_090_line_129">. 37 </metadata>
    </polygon>
    <polygon points="1998,458 2960,458 2960,549 1998,549 1998,458">
      <metadata confidence="0.0" speechType="" typography="" rank="" method="ocr" id="MCCAY_LITTLENEMO_090_line_130">      PRoMENAoE          Q  gf gm    DAN5LI JUN    L   7 1  </metadata>
    </polygon>
    <polygon points="2840,432 2935,432 2935,480 2840,480 2840,432">
      <metadata confidence="0.0" speechType="" typography="" rank="" method="ocr" id="MCCAY_LITTLENEMO_090_line_131">   e  i2  </metadata>
    </polygon>
    <polygon points="2272,421 2617,421 2617,486 2272,486 2272,421">
      <metadata confidence="0.0" speechType="" typography="" rank="" method="ocr" id="MCCAY_LITTLENEMO_090_line_132"> UNE PETlTE     PROMENADE  </metadata>
    </polygon>
    <polygon points="827,437 1024,437 1024,463 827,463 827,437">
      <metadata confidence="0.0" speechType="" typography="" rank="" method="ocr" id="MCCAY_LITTLENEMO_090_line_133">A RESTER EN</metadata>
    </polygon>
    <polygon points="788,372 1016,372 1016,431 788,431 788,372">
      <metadata confidence="0.0" speechType="" typography="" rank="" method="ocr" id="MCCAY_LITTLENEMO_090_line_134">sn ous TENE</metadata>
    </polygon>
    <polygon points="2305,386 2779,386 2779,434 2305,434 2305,386">
      <metadata confidence="0.0" speechType="" typography="" rank="" method="ocr" id="MCCAY_LITTLENEMO_090_line_135">51      3931     </metadata>
    </polygon>
    <polygon points="438,353 543,353 543,416 438,416 438,353">
      <metadata confidence="0.0" speechType="" typography="" rank="" method="ocr" id="MCCAY_LITTLENEMO_090_line_136">fl  fu</metadata>
    </polygon>
    <polygon points="1591,325 1868,325 1868,418 1591,418 1591,325">
      <metadata confidence="0.0" speechType="" typography="" rank="" method="ocr" id="MCCAY_LITTLENEMO_090_line_137">Ela  H i  </metadata>
    </polygon>
    <polygon points="2183,315 2547,315 2547,409 2183,409 2183,315">
      <metadata confidence="0.0" speechType="" typography="" rank="" method="ocr" id="MCCAY_LITTLENEMO_090_line_138">          MON PALAl5     4 esfrour   PRES JusTE</metadata>
    </polygon>
    <polygon points="1767,286 1861,286 1861,337 1767,337 1767,286">
      <metadata confidence="0.0" speechType="" typography="" rank="" method="ocr" id="MCCAY_LITTLENEMO_090_line_139">rw1JM </metadata>
    </polygon>
    <polygon points="955,200 1831,200 1831,327 955,327 955,200">
      <metadata confidence="0.0" speechType="" typography="" rank="" method="ocr" id="MCCAY_LITTLENEMO_090_line_140">ma 11. W E</metadata>
    </polygon>
    <polygon points="407,207 563,207 563,265 407,265 407,207">
      <metadata confidence="0.0" speechType="" typography="" rank="" method="ocr" id="MCCAY_LITTLENEMO_090_line_141"> WH</metadata>
    </polygon>
    <polygon points="271,161 1470,161 1470,254 271,254 271,161">
      <metadata confidence="0.0" speechType="" typography="" rank="" method="ocr" id="MCCAY_LITTLENEMO_090_line_142">aiiirvz uuz       A  1ii      iii                    . hf    F    r        4           </metadata>
    </polygon>
    <polygon points="2010,158 2408,158 2408,254 2010,254 2010,158">
      <metadata confidence="0.0" speechType="" typography="" rank="" method="ocr" id="MCCAY_LITTLENEMO_090_line_143">l2   ii                  1Eiy    1 I  .g      I   M  2  T 2</metadata>
    </polygon>
    <polygon points="72,106 301,106 301,139 72,139 72,106">
      <metadata confidence="0.0" speechType="" typography="" rank="" method="ocr" id="MCCAY_LITTLENEMO_090_line_144">19 mai 1907</metadata>
    </polygon>
  </svg>
</svg>
