<?xml version="1.0" encoding="UTF-8" standalone="no"?>
<svg width="5313" xmlns="http://www.w3.org/2000/svg" version="1.0" height="3633">
  <title>SAINTOGAN_PROSPER_ET_LE_MONSTRE_MARIN_046</title>
  <svg contentScriptType="text/ecmascript" zoomAndPan="magnify" contentStyleType="text/css" class="Page" preserveAspectRatio="xMidYMid meet" version="1.0">
    <image xmlns:xlink="http://www.w3.org/1999/xlink" x="0" y="0" width="5313" height="3633" xlink:href="../Pages/SAINTOGAN_PROSPER_ET_LE_MONSTRE_MARIN_046.jpg" xlink:type="simple" xlink:actuate="onLoad" preserveAspectRatio="xMidYMid meet" xlink:show="embed"/>
  </svg>
  <style type="text/css" xml:space="preserve">
        * { stroke-width: 0; stroke-linejoin: round; }
        .Unclassified { fill: orange; stroke: none; opacity: 1.0; visibility: hidden; }
        .Noise { fill: pink; stroke: none; opacity: 0.2; visibility: hidden; }
        .Panel { fill: red; stroke: none; opacity: 0.5; visibility: visible; image-rendering: optimizeSpeed; }
        .Line { fill: green; stroke: none; opacity: 0.5; visibility: visible; image-rendering: optimizeSpeed; }
        .TextArea { fill: grey; stroke: none; opacity: 0.2; visibility: visible; image-rendering: optimizeSpeed; }
        .Balloon { fill: cyan; stroke: none; opacity: 0.5; visibility: visible; image-rendering: optimizeSpeed; }
        .Letter { fill: blue; stroke: none; opacity: 0.2; visibility: hidden; }
        .Object { fill: yellow; stroke: none; opacity: 0.2; visibility: visible; image-rendering: optimizeSpeed; }
        .Page { fill: white; stroke: none; opacity: 0.5; visibility: visible; }
</style>
  <svg xmlns="http://www.w3.org/2000/svg" contentScriptType="text/ecmascript" zoomAndPan="magnify" contentStyleType="text/css" class="Line" preserveAspectRatio="xMidYMid meet" version="1.0">
    <polygon points="496,3292 1402,3292 1402,3336 496,3336 496,3292">
      <metadata confidence="0.0" speechType="" typography="" rank="" method="ocr" id="SAINTOGAN_PROSPER_ET_LE_MONSTRE_MARIN_046_line_0">  e mesurer avec n  tre champion national</metadata>
    </polygon>
    <polygon points="4121,3299 4600,3299 4600,3339 4121,3339 4121,3299">
      <metadata confidence="0.0" speechType="" typography="" rank="" method="ocr" id="SAINTOGAN_PROSPER_ET_LE_MONSTRE_MARIN_046_line_1">Bravo   Vive Prosper </metadata>
    </polygon>
    <polygon points="3262,3297 3450,3297 3450,3329 3262,3329 3262,3297">
      <metadata confidence="0.0" speechType="" typography="" rank="" method="ocr" id="SAINTOGAN_PROSPER_ET_LE_MONSTRE_MARIN_046_line_2">Victoire  </metadata>
    </polygon>
    <polygon points="2981,3295 3172,3295 3172,3327 2981,3327 2981,3295">
      <metadata confidence="0.0" speechType="" typography="" rank="" method="ocr" id="SAINTOGAN_PROSPER_ET_LE_MONSTRE_MARIN_046_line_3">Toutoune</metadata>
    </polygon>
    <polygon points="1828,3281 2226,3281 2226,3323 1828,3323 1828,3281">
      <metadata confidence="0.0" speechType="" typography="" rank="" method="ocr" id="SAINTOGAN_PROSPER_ET_LE_MONSTRE_MARIN_046_line_4">tourner en prison  </metadata>
    </polygon>
    <polygon points="496,3252 1416,3252 1416,3299 496,3299 496,3252">
      <metadata confidence="0.0" speechType="" typography="" rank="" method="ocr" id="SAINTOGAN_PROSPER_ET_LE_MONSTRE_MARIN_046_line_5">pr  sente un champion qe jiu jitsu qui va</metadata>
    </polygon>
    <polygon points="4298,3256 4831,3256 4831,3296 4298,3296 4298,3256">
      <metadata confidence="0.0" speechType="" typography="" rank="" method="ocr" id="SAINTOGAN_PROSPER_ET_LE_MONSTRE_MARIN_046_line_6">A l   cole  Fhippopotame </metadata>
    </polygon>
    <polygon points="2976,3252 3546,3252 3546,3285 2976,3285 2976,3252">
      <metadata confidence="0.0" speechType="" typography="" rank="" method="ocr" id="SAINTOGAN_PROSPER_ET_LE_MONSTRE_MARIN_046_line_7">Ah  Ah  Ah  Tu es mort </metadata>
    </polygon>
    <polygon points="4037,3254 4217,3254 4217,3284 4037,3284 4037,3254">
      <metadata confidence="0.0" speechType="" typography="" rank="" method="ocr" id="SAINTOGAN_PROSPER_ET_LE_MONSTRE_MARIN_046_line_8">en d  lire</metadata>
    </polygon>
    <polygon points="3840,3253 4006,3253 4006,3284 3840,3284 3840,3253">
      <metadata confidence="0.0" speechType="" typography="" rank="" method="ocr" id="SAINTOGAN_PROSPER_ET_LE_MONSTRE_MARIN_046_line_9">La foule</metadata>
    </polygon>
    <polygon points="1732,3235 2584,3235 2584,3279 1732,3279 1732,3235">
      <metadata confidence="0.0" speechType="" typography="" rank="" method="ocr" id="SAINTOGAN_PROSPER_ET_LE_MONSTRE_MARIN_046_line_10">Ah  mais non  j aime encore mieux re </metadata>
    </polygon>
    <polygon points="1470,3246 1638,3246 1638,3285 1470,3285 1470,3246">
      <metadata confidence="0.0" speechType="" typography="" rank="" method="ocr" id="SAINTOGAN_PROSPER_ET_LE_MONSTRE_MARIN_046_line_11">Prosper</metadata>
    </polygon>
    <polygon points="450,3215 638,3215 638,3248 450,3248 450,3215">
      <metadata confidence="0.0" speechType="" typography="" rank="" method="ocr" id="SAINTOGAN_PROSPER_ET_LE_MONSTRE_MARIN_046_line_12">Uarbitre</metadata>
    </polygon>
    <polygon points="743,3210 968,3210 968,3243 743,3243 743,3210">
      <metadata confidence="0.0" speechType="" typography="" rank="" method="ocr" id="SAINTOGAN_PROSPER_ET_LE_MONSTRE_MARIN_046_line_13">Mesdames</metadata>
    </polygon>
    <polygon points="1009,3207 1225,3207 1225,3239 1009,3239 1009,3207">
      <metadata confidence="0.0" speechType="" typography="" rank="" method="ocr" id="SAINTOGAN_PROSPER_ET_LE_MONSTRE_MARIN_046_line_14">Messieurs</metadata>
    </polygon>
    <polygon points="1260,3212 1416,3212 1416,3245 1260,3245 1260,3212">
      <metadata confidence="0.0" speechType="" typography="" rank="" method="ocr" id="SAINTOGAN_PROSPER_ET_LE_MONSTRE_MARIN_046_line_15">Je vous</metadata>
    </polygon>
    <polygon points="996,2881 1097,2881 1097,2941 996,2941 996,2881">
      <metadata confidence="0.0" speechType="" typography="" rank="" method="ocr" id="SAINTOGAN_PROSPER_ET_LE_MONSTRE_MARIN_046_line_16">GZ</metadata>
    </polygon>
    <polygon points="1719,2838 1829,2838 1829,2874 1719,2874 1719,2838">
      <metadata confidence="0.0" speechType="" typography="" rank="" method="ocr" id="SAINTOGAN_PROSPER_ET_LE_MONSTRE_MARIN_046_line_17">  if  </metadata>
    </polygon>
    <polygon points="1219,2704 1366,2704 1366,2788 1219,2788 1219,2704">
      <metadata confidence="0.0" speechType="" typography="" rank="" method="ocr" id="SAINTOGAN_PROSPER_ET_LE_MONSTRE_MARIN_046_line_18">Y   rw  V     1</metadata>
    </polygon>
    <polygon points="850,2715 1062,2715 1062,2781 850,2781 850,2715">
      <metadata confidence="0.0" speechType="" typography="" rank="" method="ocr" id="SAINTOGAN_PROSPER_ET_LE_MONSTRE_MARIN_046_line_19">ng       1</metadata>
    </polygon>
    <polygon points="2124,2649 2263,2649 2263,2731 2124,2731 2124,2649">
      <metadata confidence="0.0" speechType="" typography="" rank="" method="ocr" id="SAINTOGAN_PROSPER_ET_LE_MONSTRE_MARIN_046_line_20">Q.  1Y A</metadata>
    </polygon>
    <polygon points="850,2639 1164,2639 1164,2693 850,2693 850,2639">
      <metadata confidence="0.0" speechType="" typography="" rank="" method="ocr" id="SAINTOGAN_PROSPER_ET_LE_MONSTRE_MARIN_046_line_21">iz        il</metadata>
    </polygon>
    <polygon points="715,2614 1342,2614 1342,2691 715,2691 715,2614">
      <metadata confidence="0.0" speechType="" typography="" rank="" method="ocr" id="SAINTOGAN_PROSPER_ET_LE_MONSTRE_MARIN_046_line_22">      vw uv r  A   f          4   i wz</metadata>
    </polygon>
    <polygon points="1274,2527 1397,2527 1397,2577 1274,2577 1274,2527">
      <metadata confidence="0.0" speechType="" typography="" rank="" method="ocr" id="SAINTOGAN_PROSPER_ET_LE_MONSTRE_MARIN_046_line_23">.       i </metadata>
    </polygon>
    <polygon points="905,2461 1120,2461 1120,2527 905,2527 905,2461">
      <metadata confidence="0.0" speechType="" typography="" rank="" method="ocr" id="SAINTOGAN_PROSPER_ET_LE_MONSTRE_MARIN_046_line_24">  .      1  klz     </metadata>
    </polygon>
    <polygon points="759,2409 1056,2409 1056,2468 759,2468 759,2409">
      <metadata confidence="0.0" speechType="" typography="" rank="" method="ocr" id="SAINTOGAN_PROSPER_ET_LE_MONSTRE_MARIN_046_line_25">  .  caff      5         5               il</metadata>
    </polygon>
    <polygon points="4109,2711 4581,2711 4581,2812 4109,2812 4109,2711">
      <metadata confidence="0.0" speechType="" typography="" rank="" method="ocr" id="SAINTOGAN_PROSPER_ET_LE_MONSTRE_MARIN_046_line_26"> ml Zlv     7   </metadata>
    </polygon>
    <polygon points="4029,2677 4428,2677 4428,2746 4029,2746 4029,2677">
      <metadata confidence="0.0" speechType="" typography="" rank="" method="ocr" id="SAINTOGAN_PROSPER_ET_LE_MONSTRE_MARIN_046_line_27">W      .A </metadata>
    </polygon>
    <polygon points="4414,2541 4958,2541 4958,2636 4414,2636 4414,2541">
      <metadata confidence="0.0" speechType="" typography="" rank="" method="ocr" id="SAINTOGAN_PROSPER_ET_LE_MONSTRE_MARIN_046_line_28">       xv            a I.   .   .  2     5     .    . aw         J            . . .      W                   ...     1</metadata>
    </polygon>
    <polygon points="3859,2515 4386,2515 4386,2642 3859,2642 3859,2515">
      <metadata confidence="0.0" speechType="" typography="" rank="" method="ocr" id="SAINTOGAN_PROSPER_ET_LE_MONSTRE_MARIN_046_line_29">0    .w 5  .      .          .  1     .   n         A ...           Q     E     I     1 wii       1 .   gg    .n         tag   ..        4    </metadata>
    </polygon>
    <polygon points="4717,2428 5023,2428 5023,2551 4717,2551 4717,2428">
      <metadata confidence="0.0" speechType="" typography="" rank="" method="ocr" id="SAINTOGAN_PROSPER_ET_LE_MONSTRE_MARIN_046_line_30">V  V         I     </metadata>
    </polygon>
    <polygon points="3428,2915 3613,2915 3613,2984 3428,2984 3428,2915">
      <metadata confidence="0.0" speechType="" typography="" rank="" method="ocr" id="SAINTOGAN_PROSPER_ET_LE_MONSTRE_MARIN_046_line_31">V  QA</metadata>
    </polygon>
    <polygon points="4458,2257 4931,2257 4931,2292 4458,2292 4458,2257">
      <metadata confidence="0.0" speechType="" typography="" rank="" method="ocr" id="SAINTOGAN_PROSPER_ET_LE_MONSTRE_MARIN_046_line_32">Retombe maintenant </metadata>
    </polygon>
    <polygon points="3833,2252 4138,2252 4138,2292 3833,2292 3833,2252">
      <metadata confidence="0.0" speechType="" typography="" rank="" method="ocr" id="SAINTOGAN_PROSPER_ET_LE_MONSTRE_MARIN_046_line_33">Hop  l   haut </metadata>
    </polygon>
    <polygon points="3289,2248 3695,2248 3695,2283 3289,2283 3289,2248">
      <metadata confidence="0.0" speechType="" typography="" rank="" method="ocr" id="SAINTOGAN_PROSPER_ET_LE_MONSTRE_MARIN_046_line_34">Tu es    ma merci </metadata>
    </polygon>
    <polygon points="2893,2247 3200,2247 3200,2287 2893,2287 2893,2247">
      <metadata confidence="0.0" speechType="" typography="" rank="" method="ocr" id="SAINTOGAN_PROSPER_ET_LE_MONSTRE_MARIN_046_line_35">Uhippopotame</metadata>
    </polygon>
    <polygon points="1970,2216 2493,2216 2493,2256 1970,2256 1970,2216">
      <metadata confidence="0.0" speechType="" typography="" rank="" method="ocr" id="SAINTOGAN_PROSPER_ET_LE_MONSTRE_MARIN_046_line_36">moi  je suis son soigneur</metadata>
    </polygon>
    <polygon points="1934,2174 2141,2174 2141,2212 1934,2212 1934,2174">
      <metadata confidence="0.0" speechType="" typography="" rank="" method="ocr" id="SAINTOGAN_PROSPER_ET_LE_MONSTRE_MARIN_046_line_37">champion</metadata>
    </polygon>
    <polygon points="2283,2169 2455,2169 2455,2209 2283,2209 2283,2169">
      <metadata confidence="0.0" speechType="" typography="" rank="" method="ocr" id="SAINTOGAN_PROSPER_ET_LE_MONSTRE_MARIN_046_line_38">jiu  jitsu</metadata>
    </polygon>
    <polygon points="1934,2138 2016,2138 2016,2161 1934,2161 1934,2138">
      <metadata confidence="0.0" speechType="" typography="" rank="" method="ocr" id="SAINTOGAN_PROSPER_ET_LE_MONSTRE_MARIN_046_line_39">a    ll</metadata>
    </polygon>
    <polygon points="2043,2136 2136,2136 2136,2160 2043,2160 2043,2136">
      <metadata confidence="0.0" speechType="" typography="" rank="" method="ocr" id="SAINTOGAN_PROSPER_ET_LE_MONSTRE_MARIN_046_line_40">OUPS</metadata>
    </polygon>
    <polygon points="2169,2130 2229,2130 2229,2158 2169,2158 2169,2130">
      <metadata confidence="0.0" speechType="" typography="" rank="" method="ocr" id="SAINTOGAN_PROSPER_ET_LE_MONSTRE_MARIN_046_line_41">QS</metadata>
    </polygon>
    <polygon points="2258,2125 2402,2125 2402,2156 2258,2156 2258,2125">
      <metadata confidence="0.0" speechType="" typography="" rank="" method="ocr" id="SAINTOGAN_PROSPER_ET_LE_MONSTRE_MARIN_046_line_42">lutteur</metadata>
    </polygon>
    <polygon points="2468,2121 2534,2121 2534,2153 2468,2153 2468,2121">
      <metadata confidence="0.0" speechType="" typography="" rank="" method="ocr" id="SAINTOGAN_PROSPER_ET_LE_MONSTRE_MARIN_046_line_43">OU</metadata>
    </polygon>
    <polygon points="1457,2091 1650,2091 1650,2123 1457,2123 1457,2091">
      <metadata confidence="0.0" speechType="" typography="" rank="" method="ocr" id="SAINTOGAN_PROSPER_ET_LE_MONSTRE_MARIN_046_line_44">Toutoune</metadata>
    </polygon>
    <polygon points="1742,2084 2096,2084 2096,2120 1742,2120 1742,2084">
      <metadata confidence="0.0" speechType="" typography="" rank="" method="ocr" id="SAINTOGAN_PROSPER_ET_LE_MONSTRE_MARIN_046_line_45">Je vais vous dire</metadata>
    </polygon>
    <polygon points="2155,2082 2259,2082 2259,2113 2155,2113 2155,2082">
      <metadata confidence="0.0" speechType="" typography="" rank="" method="ocr" id="SAINTOGAN_PROSPER_ET_LE_MONSTRE_MARIN_046_line_46">Hum</metadata>
    </polygon>
    <polygon points="2313,2078 2421,2078 2421,2111 2313,2111 2313,2078">
      <metadata confidence="0.0" speechType="" typography="" rank="" method="ocr" id="SAINTOGAN_PROSPER_ET_LE_MONSTRE_MARIN_046_line_47">Voil  </metadata>
    </polygon>
    <polygon points="2476,2084 2570,2084 2570,2108 2476,2108 2476,2084">
      <metadata confidence="0.0" speechType="" typography="" rank="" method="ocr" id="SAINTOGAN_PROSPER_ET_LE_MONSTRE_MARIN_046_line_48">IIIOII</metadata>
    </polygon>
    <polygon points="1452,2045 1743,2045 1743,2078 1452,2078 1452,2045">
      <metadata confidence="0.0" speechType="" typography="" rank="" method="ocr" id="SAINTOGAN_PROSPER_ET_LE_MONSTRE_MARIN_046_line_49">Le contr  leur</metadata>
    </polygon>
    <polygon points="1824,2040 1952,2040 1952,2073 1824,2073 1824,2040">
      <metadata confidence="0.0" speechType="" typography="" rank="" method="ocr" id="SAINTOGAN_PROSPER_ET_LE_MONSTRE_MARIN_046_line_50">Eh l   </metadata>
    </polygon>
    <polygon points="2009,2032 2557,2032 2557,2075 2009,2075 2009,2032">
      <metadata confidence="0.0" speechType="" typography="" rank="" method="ocr" id="SAINTOGAN_PROSPER_ET_LE_MONSTRE_MARIN_046_line_51">on n entre pas sans billet</metadata>
    </polygon>
    <polygon points="3394,2057 3549,2057 3549,2118 3394,2118 3394,2057">
      <metadata confidence="0.0" speechType="" typography="" rank="" method="ocr" id="SAINTOGAN_PROSPER_ET_LE_MONSTRE_MARIN_046_line_52">   MI.H</metadata>
    </polygon>
    <polygon points="3575,2006 3659,2006 3659,2077 3575,2077 3575,2006">
      <metadata confidence="0.0" speechType="" typography="" rank="" method="ocr" id="SAINTOGAN_PROSPER_ET_LE_MONSTRE_MARIN_046_line_53"> V5</metadata>
    </polygon>
    <polygon points="3250,1902 3326,1902 3326,1944 3250,1944 3250,1902">
      <metadata confidence="0.0" speechType="" typography="" rank="" method="ocr" id="SAINTOGAN_PROSPER_ET_LE_MONSTRE_MARIN_046_line_54"> WM</metadata>
    </polygon>
    <polygon points="4869,1463 4972,1463 4972,1494 4869,1494 4869,1463">
      <metadata confidence="0.0" speechType="" typography="" rank="" method="ocr" id="SAINTOGAN_PROSPER_ET_LE_MONSTRE_MARIN_046_line_55">moi </metadata>
    </polygon>
    <polygon points="4698,1460 4837,1460 4837,1492 4698,1492 4698,1460">
      <metadata confidence="0.0" speechType="" typography="" rank="" method="ocr" id="SAINTOGAN_PROSPER_ET_LE_MONSTRE_MARIN_046_line_56">laissez</metadata>
    </polygon>
    <polygon points="4342,1459 4658,1459 4658,1495 4342,1495 4342,1459">
      <metadata confidence="0.0" speechType="" typography="" rank="" method="ocr" id="SAINTOGAN_PROSPER_ET_LE_MONSTRE_MARIN_046_line_57">vous parle pas</metadata>
    </polygon>
    <polygon points="3392,1448 3580,1448 3580,1488 3392,1488 3392,1448">
      <metadata confidence="0.0" speechType="" typography="" rank="" method="ocr" id="SAINTOGAN_PROSPER_ET_LE_MONSTRE_MARIN_046_line_58">Prosper  </metadata>
    </polygon>
    <polygon points="3175,1446 3351,1446 3351,1487 3175,1487 3175,1446">
      <metadata confidence="0.0" speechType="" typography="" rank="" method="ocr" id="SAINTOGAN_PROSPER_ET_LE_MONSTRE_MARIN_046_line_59">Courage</metadata>
    </polygon>
    <polygon points="2895,1443 3086,1443 3086,1476 2895,1476 2895,1443">
      <metadata confidence="0.0" speechType="" typography="" rank="" method="ocr" id="SAINTOGAN_PROSPER_ET_LE_MONSTRE_MARIN_046_line_60">Toutoune</metadata>
    </polygon>
    <polygon points="4929,1418 5043,1418 5043,1451 4929,1451 4929,1418">
      <metadata confidence="0.0" speechType="" typography="" rank="" method="ocr" id="SAINTOGAN_PROSPER_ET_LE_MONSTRE_MARIN_046_line_61">Je ne</metadata>
    </polygon>
    <polygon points="4674,1415 4841,1415 4841,1455 4674,1455 4674,1415">
      <metadata confidence="0.0" speechType="" typography="" rank="" method="ocr" id="SAINTOGAN_PROSPER_ET_LE_MONSTRE_MARIN_046_line_62">Prosper</metadata>
    </polygon>
    <polygon points="4341,1413 4592,1413 4592,1451 4341,1451 4341,1413">
      <metadata confidence="0.0" speechType="" typography="" rank="" method="ocr" id="SAINTOGAN_PROSPER_ET_LE_MONSTRE_MARIN_046_line_63">jeune ours  </metadata>
    </polygon>
    <polygon points="2934,1401 4129,1401 4129,1445 2934,1445 2934,1401">
      <metadata confidence="0.0" speechType="" typography="" rank="" method="ocr" id="SAINTOGAN_PROSPER_ET_LE_MONSTRE_MARIN_046_line_64">entre Phippopotame et l ours Prosper est commenc   </metadata>
    </polygon>
    <polygon points="504,1377 1145,1377 1145,1432 504,1432 504,1377">
      <metadata confidence="0.0" speechType="" typography="" rank="" method="ocr" id="SAINTOGAN_PROSPER_ET_LE_MONSTRE_MARIN_046_line_65">rai  nt bien nous rattraper </metadata>
    </polygon>
    <polygon points="1366,1377 1433,1377 1433,1434 1366,1434 1366,1377">
      <metadata confidence="0.0" speechType="" typography="" rank="" method="ocr" id="SAINTOGAN_PROSPER_ET_LE_MONSTRE_MARIN_046_line_66">353</metadata>
    </polygon>
    <polygon points="4722,1371 5025,1371 5025,1406 4722,1406 4722,1371">
      <metadata confidence="0.0" speechType="" typography="" rank="" method="ocr" id="SAINTOGAN_PROSPER_ET_LE_MONSTRE_MARIN_046_line_67">O   allez vous</metadata>
    </polygon>
    <polygon points="3172,1358 4611,1358 4611,1407 3172,1407 3172,1358">
      <metadata confidence="0.0" speechType="" typography="" rank="" method="ocr" id="SAINTOGAN_PROSPER_ET_LE_MONSTRE_MARIN_046_line_68">Mesdames et AMessiel1rs  le match de lutte libre    hippopotame</metadata>
    </polygon>
    <polygon points="2890,1355 3076,1355 3076,1387 2890,1387 2890,1355">
      <metadata confidence="0.0" speechType="" typography="" rank="" method="ocr" id="SAINTOGAN_PROSPER_ET_LE_MONSTRE_MARIN_046_line_69">L arbitre</metadata>
    </polygon>
    <polygon points="474,1340 740,1340 740,1379 474,1379 474,1340">
      <metadata confidence="0.0" speechType="" typography="" rank="" method="ocr" id="SAINTOGAN_PROSPER_ET_LE_MONSTRE_MARIN_046_line_70">les policiers</metadata>
    </polygon>
    <polygon points="790,1344 892,1344 892,1368 790,1368 790,1344">
      <metadata confidence="0.0" speechType="" typography="" rank="" method="ocr" id="SAINTOGAN_PROSPER_ET_LE_MONSTRE_MARIN_046_line_71">111815</metadata>
    </polygon>
    <polygon points="924,1336 1101,1336 1101,1373 924,1373 924,1336">
      <metadata confidence="0.0" speechType="" typography="" rank="" method="ocr" id="SAINTOGAN_PROSPER_ET_LE_MONSTRE_MARIN_046_line_72">ils pour</metadata>
    </polygon>
    <polygon points="433,1295 626,1295 626,1327 433,1327 433,1295">
      <metadata confidence="0.0" speechType="" typography="" rank="" method="ocr" id="SAINTOGAN_PROSPER_ET_LE_MONSTRE_MARIN_046_line_73">Tou toune</metadata>
    </polygon>
    <polygon points="728,1293 980,1293 980,1325 728,1325 728,1293">
      <metadata confidence="0.0" speechType="" typography="" rank="" method="ocr" id="SAINTOGAN_PROSPER_ET_LE_MONSTRE_MARIN_046_line_74">Nous avons</metadata>
    </polygon>
    <polygon points="1014,1287 1122,1287 1122,1321 1014,1321 1014,1287">
      <metadata confidence="0.0" speechType="" typography="" rank="" method="ocr" id="SAINTOGAN_PROSPER_ET_LE_MONSTRE_MARIN_046_line_75">sem  </metadata>
    </polygon>
    <polygon points="1650,1251 1719,1251 1719,1295 1650,1295 1650,1251">
      <metadata confidence="0.0" speechType="" typography="" rank="" method="ocr" id="SAINTOGAN_PROSPER_ET_LE_MONSTRE_MARIN_046_line_76">yi</metadata>
    </polygon>
    <polygon points="1688,1112 1902,1112 1902,1223 1688,1223 1688,1112">
      <metadata confidence="0.0" speechType="" typography="" rank="" method="ocr" id="SAINTOGAN_PROSPER_ET_LE_MONSTRE_MARIN_046_line_77">  53</metadata>
    </polygon>
    <polygon points="4641,1061 4749,1061 4749,1137 4641,1137 4641,1061">
      <metadata confidence="0.0" speechType="" typography="" rank="" method="ocr" id="SAINTOGAN_PROSPER_ET_LE_MONSTRE_MARIN_046_line_78">1Vf  </metadata>
    </polygon>
    <polygon points="1699,1049 1933,1049 1933,1144 1699,1144 1699,1049">
      <metadata confidence="0.0" speechType="" typography="" rank="" method="ocr" id="SAINTOGAN_PROSPER_ET_LE_MONSTRE_MARIN_046_line_79">wa   </metadata>
    </polygon>
    <polygon points="688,811 900,811 900,879 688,879 688,811">
      <metadata confidence="0.0" speechType="" typography="" rank="" method="ocr" id="SAINTOGAN_PROSPER_ET_LE_MONSTRE_MARIN_046_line_80">t  v  z  </metadata>
    </polygon>
    <polygon points="709,765 825,765 825,841 709,841 709,765">
      <metadata confidence="0.0" speechType="" typography="" rank="" method="ocr" id="SAINTOGAN_PROSPER_ET_LE_MONSTRE_MARIN_046_line_81"> EZ7        u     </metadata>
    </polygon>
    <polygon points="4658,734 4710,734 4710,776 4658,776 4658,734">
      <metadata confidence="0.0" speechType="" typography="" rank="" method="ocr" id="SAINTOGAN_PROSPER_ET_LE_MONSTRE_MARIN_046_line_82">  M.</metadata>
    </polygon>
    <polygon points="665,679 815,679 815,750 665,750 665,679">
      <metadata confidence="0.0" speechType="" typography="" rank="" method="ocr" id="SAINTOGAN_PROSPER_ET_LE_MONSTRE_MARIN_046_line_83">I5 . ..</metadata>
    </polygon>
    <polygon points="1042,673 1170,673 1170,734 1042,734 1042,673">
      <metadata confidence="0.0" speechType="" typography="" rank="" method="ocr" id="SAINTOGAN_PROSPER_ET_LE_MONSTRE_MARIN_046_line_84">   1 5        </metadata>
    </polygon>
    <polygon points="2255,652 2518,652 2518,686 2255,686 2255,652">
      <metadata confidence="0.0" speechType="" typography="" rank="" method="ocr" id="SAINTOGAN_PROSPER_ET_LE_MONSTRE_MARIN_046_line_85">chercher l    </metadata>
    </polygon>
    <polygon points="2219,610 2329,610 2329,642 2219,642 2219,610">
      <metadata confidence="0.0" speechType="" typography="" rank="" method="ocr" id="SAINTOGAN_PROSPER_ET_LE_MONSTRE_MARIN_046_line_86">l id  e</metadata>
    </polygon>
    <polygon points="2451,616 2549,616 2549,640 2451,640 2451,616">
      <metadata confidence="0.0" speechType="" typography="" rank="" method="ocr" id="SAINTOGAN_PROSPER_ET_LE_MONSTRE_MARIN_046_line_87">IIOUS</metadata>
    </polygon>
    <polygon points="2219,568 2430,568 2430,597 2219,597 2219,568">
      <metadata confidence="0.0" speechType="" typography="" rank="" method="ocr" id="SAINTOGAN_PROSPER_ET_LE_MONSTRE_MARIN_046_line_88">n auront</metadata>
    </polygon>
    <polygon points="2468,571 2549,571 2549,603 2468,603 2468,571">
      <metadata confidence="0.0" speechType="" typography="" rank="" method="ocr" id="SAINTOGAN_PROSPER_ET_LE_MONSTRE_MARIN_046_line_89">pas</metadata>
    </polygon>
    <polygon points="2219,526 2328,526 2328,553 2219,553 2219,526">
      <metadata confidence="0.0" speechType="" typography="" rank="" method="ocr" id="SAINTOGAN_PROSPER_ET_LE_MONSTRE_MARIN_046_line_90">  POIIS</metadata>
    </polygon>
    <polygon points="2178,477 2371,477 2371,512 2178,512 2178,477">
      <metadata confidence="0.0" speechType="" typography="" rank="" method="ocr" id="SAINTOGAN_PROSPER_ET_LE_MONSTRE_MARIN_046_line_91">Toutoune</metadata>
    </polygon>
    <polygon points="1459,411 1962,411 1962,535 1459,535 1459,411">
      <metadata confidence="0.0" speechType="" typography="" rank="" method="ocr" id="SAINTOGAN_PROSPER_ET_LE_MONSTRE_MARIN_046_line_92"> 7       r  A</metadata>
    </polygon>
    <polygon points="3042,1225 3338,1225 3338,1325 3042,1325 3042,1225">
      <metadata confidence="0.0" speechType="" typography="" rank="" method="ocr" id="SAINTOGAN_PROSPER_ET_LE_MONSTRE_MARIN_046_line_93">mg       M M</metadata>
    </polygon>
    <polygon points="3295,1208 3379,1208 3379,1256 3295,1256 3295,1208">
      <metadata confidence="0.0" speechType="" typography="" rank="" method="ocr" id="SAINTOGAN_PROSPER_ET_LE_MONSTRE_MARIN_046_line_94">nr r QMc</metadata>
    </polygon>
    <polygon points="3289,1184 3407,1184 3407,1227 3289,1227 3289,1184">
      <metadata confidence="0.0" speechType="" typography="" rank="" method="ocr" id="SAINTOGAN_PROSPER_ET_LE_MONSTRE_MARIN_046_line_95">vvvi    </metadata>
    </polygon>
    <polygon points="2890,1008 3233,1008 3233,1093 2890,1093 2890,1008">
      <metadata confidence="0.0" speechType="" typography="" rank="" method="ocr" id="SAINTOGAN_PROSPER_ET_LE_MONSTRE_MARIN_046_line_96">vm   </metadata>
    </polygon>
    <polygon points="2956,906 3302,906 3302,994 2956,994 2956,906">
      <metadata confidence="0.0" speechType="" typography="" rank="" method="ocr" id="SAINTOGAN_PROSPER_ET_LE_MONSTRE_MARIN_046_line_97">  N    . H   Y             JII Kl     u</metadata>
    </polygon>
    <polygon points="2906,826 3300,826 3300,929 2906,929 2906,826">
      <metadata confidence="0.0" speechType="" typography="" rank="" method="ocr" id="SAINTOGAN_PROSPER_ET_LE_MONSTRE_MARIN_046_line_98">   . I I A</metadata>
    </polygon>
    <polygon points="3752,666 4105,666 4105,766 3752,766 3752,666">
      <metadata confidence="0.0" speechType="" typography="" rank="" method="ocr" id="SAINTOGAN_PROSPER_ET_LE_MONSTRE_MARIN_046_line_99">uv        .   ...             Z    .            r   U     5.       .    1       .  </metadata>
    </polygon>
    <polygon points="2890,574 3470,574 3470,672 2890,672 2890,574">
      <metadata confidence="0.0" speechType="" typography="" rank="" method="ocr" id="SAINTOGAN_PROSPER_ET_LE_MONSTRE_MARIN_046_line_100"> X   F E    V             </metadata>
    </polygon>
    <polygon points="3599,565 3769,565 3769,616 3599,616 3599,565">
      <metadata confidence="0.0" speechType="" typography="" rank="" method="ocr" id="SAINTOGAN_PROSPER_ET_LE_MONSTRE_MARIN_046_line_101">P.</metadata>
    </polygon>
    <polygon points="3100,509 3184,509 3184,567 3100,567 3100,509">
      <metadata confidence="0.0" speechType="" typography="" rank="" method="ocr" id="SAINTOGAN_PROSPER_ET_LE_MONSTRE_MARIN_046_line_102">  al  gr    </metadata>
    </polygon>
    <polygon points="393,209 1039,209 1039,256 393,256 393,209">
      <metadata confidence="0.0" speechType="" typography="" rank="" method="ocr" id="SAINTOGAN_PROSPER_ET_LE_MONSTRE_MARIN_046_line_103">CHAMPION MALGRE LUI</metadata>
    </polygon>
    <polygon points="4478,202 5069,202 5069,245 4478,245 4478,202">
      <metadata confidence="0.0" speechType="" typography="" rank="" method="ocr" id="SAINTOGAN_PROSPER_ET_LE_MONSTRE_MARIN_046_line_104">PROSPER VAINOUEUR</metadata>
    </polygon>
  </svg>
</svg>
