<?xml version="1.0" encoding="UTF-8" standalone="no"?>
<svg width="2488" xmlns="http://www.w3.org/2000/svg" version="1.0" height="3506">
  <title>SAINTOGAN_ZIGPUCE_MILLIONAIRES_005</title>
  <svg contentScriptType="text/ecmascript" zoomAndPan="magnify" contentStyleType="text/css" class="Page" preserveAspectRatio="xMidYMid meet" version="1.0">
    <image xmlns:xlink="http://www.w3.org/1999/xlink" x="0" y="0" width="2488" height="3506" xlink:href="../Pages/SAINTOGAN_ZIGPUCE_MILLIONAIRES_005.jpg" xlink:type="simple" xlink:actuate="onLoad" preserveAspectRatio="xMidYMid meet" xlink:show="embed"/>
  </svg>
  <style type="text/css" xml:space="preserve">
        * { stroke-width: 0; stroke-linejoin: round; }
        .Unclassified { fill: orange; stroke: none; opacity: 1.0; visibility: hidden; }
        .Noise { fill: pink; stroke: none; opacity: 0.2; visibility: hidden; }
        .Panel { fill: red; stroke: none; opacity: 0.5; visibility: visible; image-rendering: optimizeSpeed; }
        .Line { fill: green; stroke: none; opacity: 0.5; visibility: visible; image-rendering: optimizeSpeed; }
        .TextArea { fill: grey; stroke: none; opacity: 0.2; visibility: visible; image-rendering: optimizeSpeed; }
        .Balloon { fill: cyan; stroke: none; opacity: 0.5; visibility: visible; image-rendering: optimizeSpeed; }
        .Letter { fill: blue; stroke: none; opacity: 0.2; visibility: hidden; }
        .Object { fill: yellow; stroke: none; opacity: 0.2; visibility: visible; image-rendering: optimizeSpeed; }
        .Page { fill: white; stroke: none; opacity: 0.5; visibility: visible; }
</style>
  <svg xmlns="http://www.w3.org/2000/svg" contentScriptType="text/ecmascript" zoomAndPan="magnify" contentStyleType="text/css" class="Line" preserveAspectRatio="xMidYMid meet" version="1.0">
    <polygon points="210,3419 401,3419 401,3441 210,3441 210,3419">
      <metadata confidence="0.0" speechType="" typography="" rank="" method="ocr" id="SAINTOGAN_ZIGPUCE_MILLIONAIRES_005_line_0">HILLIONNA</metadata>
    </polygon>
    <polygon points="439,3418 478,3418 478,3438 439,3438 439,3418">
      <metadata confidence="0.0" speechType="" typography="" rank="" method="ocr" id="SAINTOGAN_ZIGPUCE_MILLIONAIRES_005_line_1">WE</metadata>
    </polygon>
    <polygon points="146,3246 743,3246 743,3292 146,3292 146,3246">
      <metadata confidence="0.0" speechType="" typography="" rank="" method="ocr" id="SAINTOGAN_ZIGPUCE_MILLIONAIRES_005_line_2">Vi     v  lli rasuir run</metadata>
    </polygon>
    <polygon points="147,3187 1243,3187 1243,3277 147,3277 147,3187">
      <metadata confidence="0.0" speechType="" typography="" rank="" method="ocr" id="SAINTOGAN_ZIGPUCE_MILLIONAIRES_005_line_3">I I    lII l.UIEI l 4Il FWG    IV g Il 4 Illurnnuni RECUEIILI mm un nu wim  nui rmm  ir nu  LA...   BE   Fi          .           W NIff    1</metadata>
    </polygon>
    <polygon points="146,3174 696,3174 696,3206 146,3206 146,3174">
      <metadata confidence="0.0" speechType="" typography="" rank="" method="ocr" id="SAINTOGAN_ZIGPUCE_MILLIONAIRES_005_line_4">II  IIREIIILMII   PGIIR 116</metadata>
    </polygon>
    <polygon points="737,3167 853,3167 853,3203 737,3203 737,3167">
      <metadata confidence="0.0" speechType="" typography="" rank="" method="ocr" id="SAINTOGAN_ZIGPUCE_MILLIONAIRES_005_line_5">in. En</metadata>
    </polygon>
    <polygon points="1817,3131 2319,3131 2319,3239 1817,3239 1817,3131">
      <metadata confidence="0.0" speechType="" typography="" rank="" method="ocr" id="SAINTOGAN_ZIGPUCE_MILLIONAIRES_005_line_6">    ..   J  J. x       .   .f  . .  .    f        A  </metadata>
    </polygon>
    <polygon points="1055,3135 1260,3135 1260,3194 1055,3194 1055,3135">
      <metadata confidence="0.0" speechType="" typography="" rank="" method="ocr" id="SAINTOGAN_ZIGPUCE_MILLIONAIRES_005_line_7">gr         </metadata>
    </polygon>
    <polygon points="922,2932 1066,2932 1066,3007 922,3007 922,2932">
      <metadata confidence="0.0" speechType="" typography="" rank="" method="ocr" id="SAINTOGAN_ZIGPUCE_MILLIONAIRES_005_line_8">fav         </metadata>
    </polygon>
    <polygon points="596,2863 736,2863 736,2921 596,2921 596,2863">
      <metadata confidence="0.0" speechType="" typography="" rank="" method="ocr" id="SAINTOGAN_ZIGPUCE_MILLIONAIRES_005_line_9">gm</metadata>
    </polygon>
    <polygon points="425,2861 581,2861 581,2904 425,2904 425,2861">
      <metadata confidence="0.0" speechType="" typography="" rank="" method="ocr" id="SAINTOGAN_ZIGPUCE_MILLIONAIRES_005_line_10">FU   nf    l 11 ff  ln </metadata>
    </polygon>
    <polygon points="1283,2826 2151,2826 2151,2919 1283,2919 1283,2826">
      <metadata confidence="0.0" speechType="" typography="" rank="" method="ocr" id="SAINTOGAN_ZIGPUCE_MILLIONAIRES_005_line_11">K N  2  .  .  . .             .    7      1    TIIJ  PILLEUR  V 3U  . . .  4 .       1      7    </metadata>
    </polygon>
    <polygon points="2151,2798 2368,2798 2368,2868 2151,2868 2151,2798">
      <metadata confidence="0.0" speechType="" typography="" rank="" method="ocr" id="SAINTOGAN_ZIGPUCE_MILLIONAIRES_005_line_12">     iiiv</metadata>
    </polygon>
    <polygon points="1500,2817 1562,2817 1562,2843 1500,2843 1500,2817">
      <metadata confidence="0.0" speechType="" typography="" rank="" method="ocr" id="SAINTOGAN_ZIGPUCE_MILLIONAIRES_005_line_13">PAR</metadata>
    </polygon>
    <polygon points="1261,2791 1642,2791 1642,2869 1261,2869 1261,2791">
      <metadata confidence="0.0" speechType="" typography="" rank="" method="ocr" id="SAINTOGAN_ZIGPUCE_MILLIONAIRES_005_line_14">      fou Rsuvvos    PAR UN      Toavi LLEUN</metadata>
    </polygon>
    <polygon points="1081,2751 2084,2751 2084,2854 1081,2854 1081,2751">
      <metadata confidence="0.0" speechType="" typography="" rank="" method="ocr" id="SAINTOGAN_ZIGPUCE_MILLIONAIRES_005_line_15">        ff   ff  U N      </metadata>
    </polygon>
    <polygon points="1492,2729 1559,2729 1559,2750 1492,2750 1492,2729">
      <metadata confidence="0.0" speechType="" typography="" rank="" method="ocr" id="SAINTOGAN_ZIGPUCE_MILLIONAIRES_005_line_16">T005</metadata>
    </polygon>
    <polygon points="1293,2704 1426,2704 1426,2751 1293,2751 1293,2704">
      <metadata confidence="0.0" speechType="" typography="" rank="" method="ocr" id="SAINTOGAN_ZIGPUCE_MILLIONAIRES_005_line_17">Ih      </metadata>
    </polygon>
    <polygon points="136,2669 393,2669 393,2782 136,2782 136,2669">
      <metadata confidence="0.0" speechType="" typography="" rank="" method="ocr" id="SAINTOGAN_ZIGPUCE_MILLIONAIRES_005_line_18">ligiz       1 1       .    E  x a    Q Wi         z e   e   c        G          Q   L ......   ..     .   a c 2        51s. f   . w  .   .    .  .          .   </metadata>
    </polygon>
    <polygon points="1411,2677 2371,2677 2371,2781 1411,2781 1411,2677">
      <metadata confidence="0.0" speechType="" typography="" rank="" method="ocr" id="SAINTOGAN_ZIGPUCE_MILLIONAIRES_005_line_19">  uw    C GRH vu. Nuu .   TOUS Nou   f NI50  4 N   S     zs aes s             I  .        z    2     x s   9 e            </metadata>
    </polygon>
    <polygon points="136,2642 330,2642 330,2699 136,2699 136,2642">
      <metadata confidence="0.0" speechType="" typography="" rank="" method="ocr" id="SAINTOGAN_ZIGPUCE_MILLIONAIRES_005_line_20"> llIl l              </metadata>
    </polygon>
    <polygon points="1701,2665 1965,2665 1965,2692 1701,2692 1701,2665">
      <metadata confidence="0.0" speechType="" typography="" rank="" method="ocr" id="SAINTOGAN_ZIGPUCE_MILLIONAIRES_005_line_21">ONTRE BAN OE. N</metadata>
    </polygon>
    <polygon points="915,2633 1619,2633 1619,2726 915,2726 915,2633">
      <metadata confidence="0.0" speechType="" typography="" rank="" method="ocr" id="SAINTOGAN_ZIGPUCE_MILLIONAIRES_005_line_22">C                       1      0   Te MP5 AvenVI  NS DE  AUVE            DEEE  laCET ENFANT Quo          vos P  sv</metadata>
    </polygon>
    <polygon points="2007,2644 2287,2644 2287,2692 2007,2692 2007,2644">
      <metadata confidence="0.0" speechType="" typography="" rank="" method="ocr" id="SAINTOGAN_ZIGPUCE_MILLIONAIRES_005_line_23"> G .  . ..         .                    .            i    i</metadata>
    </polygon>
    <polygon points="1684,2632 2015,2632 2015,2660 1684,2660 1684,2632">
      <metadata confidence="0.0" speechType="" typography="" rank="" method="ocr" id="SAINTOGAN_ZIGPUCE_MILLIONAIRES_005_line_24">No  R6 cn   cvnison 0</metadata>
    </polygon>
    <polygon points="1444,2635 1554,2635 1554,2657 1444,2657 1444,2635">
      <metadata confidence="0.0" speechType="" typography="" rank="" method="ocr" id="SAINTOGAN_ZIGPUCE_MILLIONAIRES_005_line_25">EMPS  </metadata>
    </polygon>
    <polygon points="920,2728 1206,2728 1206,2761 920,2761 920,2728">
      <metadata confidence="0.0" speechType="" typography="" rank="" method="ocr" id="SAINTOGAN_ZIGPUCE_MILLIONAIRES_005_line_26">  rmr S LA MER </metadata>
    </polygon>
    <polygon points="916,2623 1208,2623 1208,2660 916,2660 916,2623">
      <metadata confidence="0.0" speechType="" typography="" rank="" method="ocr" id="SAINTOGAN_ZIGPUCE_MILLIONAIRES_005_line_27">CQNMANPANT . E</metadata>
    </polygon>
    <polygon points="1792,2603 1920,2603 1920,2627 1792,2627 1792,2603">
      <metadata confidence="0.0" speechType="" typography="" rank="" method="ocr" id="SAINTOGAN_ZIGPUCE_MILLIONAIRES_005_line_28">USP  NCE </metadata>
    </polygon>
    <polygon points="1508,2604 1651,2604 1651,2630 1508,2630 1508,2604">
      <metadata confidence="0.0" speechType="" typography="" rank="" method="ocr" id="SAINTOGAN_ZIGPUCE_MILLIONAIRES_005_line_29">EZB EN  </metadata>
    </polygon>
    <polygon points="1398,2605 1475,2605 1475,2625 1398,2625 1398,2605">
      <metadata confidence="0.0" speechType="" typography="" rank="" method="ocr" id="SAINTOGAN_ZIGPUCE_MILLIONAIRES_005_line_30">OUS A</metadata>
    </polygon>
    <polygon points="1949,2604 2010,2604 2010,2626 1949,2626 1949,2604">
      <metadata confidence="0.0" speechType="" typography="" rank="" method="ocr" id="SAINTOGAN_ZIGPUCE_MILLIONAIRES_005_line_31">PWE</metadata>
    </polygon>
    <polygon points="1188,2377 1594,2377 1594,2478 1188,2478 1188,2377">
      <metadata confidence="0.0" speechType="" typography="" rank="" method="ocr" id="SAINTOGAN_ZIGPUCE_MILLIONAIRES_005_line_32">3             VA N S SE COURIR</metadata>
    </polygon>
    <polygon points="1404,2328 1598,2328 1598,2386 1404,2386 1404,2328">
      <metadata confidence="0.0" speechType="" typography="" rank="" method="ocr" id="SAINTOGAN_ZIGPUCE_MILLIONAIRES_005_line_33">KLEUR Ma    A  u  n nuvi</metadata>
    </polygon>
    <polygon points="1286,2221 1696,2221 1696,2297 1286,2297 1286,2221">
      <metadata confidence="0.0" speechType="" typography="" rank="" method="ocr" id="SAINTOGAN_ZIGPUCE_MILLIONAIRES_005_line_34">KWSSOMHGlsnuv  su.   </metadata>
    </polygon>
    <polygon points="1338,2189 1921,2189 1921,2260 1338,2260 1338,2189">
      <metadata confidence="0.0" speechType="" typography="" rank="" method="ocr" id="SAINTOGAN_ZIGPUCE_MILLIONAIRES_005_line_35">.. 9W     .       .A     f.                                 . e  .  m   3     e      .   </metadata>
    </polygon>
    <polygon points="1247,2157 1745,2157 1745,2224 1247,2224 1247,2157">
      <metadata confidence="0.0" speechType="" typography="" rank="" method="ocr" id="SAINTOGAN_ZIGPUCE_MILLIONAIRES_005_line_36">.1     i    </metadata>
    </polygon>
    <polygon points="1038,2001 1451,2001 1451,2078 1038,2078 1038,2001">
      <metadata confidence="0.0" speechType="" typography="" rank="" method="ocr" id="SAINTOGAN_ZIGPUCE_MILLIONAIRES_005_line_37">..           n  ...mwa</metadata>
    </polygon>
    <polygon points="1649,2003 2356,2003 2356,2037 1649,2037 1649,2003">
      <metadata confidence="0.0" speechType="" typography="" rank="" method="ocr" id="SAINTOGAN_ZIGPUCE_MILLIONAIRES_005_line_38">TBA LA     s n  mn un   .     m2Feuv </metadata>
    </polygon>
    <polygon points="1912,1975 2320,1975 2320,2005 1912,2005 1912,1975">
      <metadata confidence="0.0" speechType="" typography="" rank="" method="ocr" id="SAINTOGAN_ZIGPUCE_MILLIONAIRES_005_line_39">NGIRE AM   HI PRO </metadata>
    </polygon>
    <polygon points="147,1942 1033,1942 1033,2046 147,2046 147,1942">
      <metadata confidence="0.0" speechType="" typography="" rank="" method="ocr" id="SAINTOGAN_ZIGPUCE_MILLIONAIRES_005_line_40">u  r    u zzrx   ..  g  </metadata>
    </polygon>
    <polygon points="1150,1921 2336,1921 2336,2031 1150,2031 1150,1921">
      <metadata confidence="0.0" speechType="" typography="" rank="" method="ocr" id="SAINTOGAN_ZIGPUCE_MILLIONAIRES_005_line_41">   .... 3    BPW    f       .     giga szzza        a       g   e        Lu   yum     .      . .     ...... 1.    1.    .        s       as.       H     a           4     1          fm       .  f      rznrzrs s rmum ur  meal             1155 LAM  xa msn mum L  iua mc man</metadata>
    </polygon>
    <polygon points="722,2034 1164,2034 1164,2143 722,2143 722,2034">
      <metadata confidence="0.0" speechType="" typography="" rank="" method="ocr" id="SAINTOGAN_ZIGPUCE_MILLIONAIRES_005_line_42">  .  Q  .   2</metadata>
    </polygon>
    <polygon points="1652,1899 2328,1899 2328,1943 1652,1943 1652,1899">
      <metadata confidence="0.0" speechType="" typography="" rank="" method="ocr" id="SAINTOGAN_ZIGPUCE_MILLIONAIRES_005_line_43">  cp      mu sun ISQ  I      i  ui 1  zgG   5</metadata>
    </polygon>
    <polygon points="1291,1898 1550,1898 1550,1949 1291,1949 1291,1898">
      <metadata confidence="0.0" speechType="" typography="" rank="" method="ocr" id="SAINTOGAN_ZIGPUCE_MILLIONAIRES_005_line_44"> .r.  .z ..   H     K ..   . v .r</metadata>
    </polygon>
    <polygon points="149,1905 853,1905 853,1958 149,1958 149,1905">
      <metadata confidence="0.0" speechType="" typography="" rank="" method="ocr" id="SAINTOGAN_ZIGPUCE_MILLIONAIRES_005_line_45">                    RA n R  PER ZJG  ..      a 3  </metadata>
    </polygon>
    <polygon points="174,2282 330,2282 330,2327 174,2327 174,2282">
      <metadata confidence="0.0" speechType="" typography="" rank="" method="ocr" id="SAINTOGAN_ZIGPUCE_MILLIONAIRES_005_line_46"> t 1   </metadata>
    </polygon>
    <polygon points="155,2032 421,2032 421,2058 155,2058 155,2032">
      <metadata confidence="0.0" speechType="" typography="" rank="" method="ocr" id="SAINTOGAN_ZIGPUCE_MILLIONAIRES_005_line_47">VRE PINGOU  N</metadata>
    </polygon>
    <polygon points="150,1894 512,1894 512,1922 150,1922 150,1894">
      <metadata confidence="0.0" speechType="" typography="" rank="" method="ocr" id="SAINTOGAN_ZIGPUCE_MILLIONAIRES_005_line_48">RiEN   FA  R   PouR</metadata>
    </polygon>
    <polygon points="921,1669 1395,1669 1395,1724 921,1724 921,1669">
      <metadata confidence="0.0" speechType="" typography="" rank="" method="ocr" id="SAINTOGAN_ZIGPUCE_MILLIONAIRES_005_line_49">.EU QT  5  .   </metadata>
    </polygon>
    <polygon points="1314,1630 1445,1630 1445,1679 1314,1679 1314,1630">
      <metadata confidence="0.0" speechType="" typography="" rank="" method="ocr" id="SAINTOGAN_ZIGPUCE_MILLIONAIRES_005_line_50">BL   2</metadata>
    </polygon>
    <polygon points="562,1508 671,1508 671,1532 562,1532 562,1508">
      <metadata confidence="0.0" speechType="" typography="" rank="" method="ocr" id="SAINTOGAN_ZIGPUCE_MILLIONAIRES_005_line_51">VIENS</metadata>
    </polygon>
    <polygon points="1265,1473 1383,1473 1383,1505 1265,1505 1265,1473">
      <metadata confidence="0.0" speechType="" typography="" rank="" method="ocr" id="SAINTOGAN_ZIGPUCE_MILLIONAIRES_005_line_52">zicfu   </metadata>
    </polygon>
    <polygon points="418,1456 741,1456 741,1518 418,1518 418,1456">
      <metadata confidence="0.0" speechType="" typography="" rank="" method="ocr" id="SAINTOGAN_ZIGPUCE_MILLIONAIRES_005_line_53">H.. F.... .....  l  Nq ..J6 RE  .    N </metadata>
    </polygon>
    <polygon points="1291,1453 1340,1453 1340,1474 1291,1474 1291,1453">
      <metadata confidence="0.0" speechType="" typography="" rank="" method="ocr" id="SAINTOGAN_ZIGPUCE_MILLIONAIRES_005_line_54">LL</metadata>
    </polygon>
    <polygon points="540,1443 732,1443 732,1466 540,1466 540,1443">
      <metadata confidence="0.0" speechType="" typography="" rank="" method="ocr" id="SAINTOGAN_ZIGPUCE_MILLIONAIRES_005_line_55">ATTENOEZ</metadata>
    </polygon>
    <polygon points="411,1404 800,1404 800,1475 411,1475 411,1404">
      <metadata confidence="0.0" speechType="" typography="" rank="" method="ocr" id="SAINTOGAN_ZIGPUCE_MILLIONAIRES_005_line_56">  V     A VA  .. oun..  .....   51  s   ATV  N DE Z</metadata>
    </polygon>
    <polygon points="1325,1368 1566,1368 1566,1424 1325,1424 1325,1368">
      <metadata confidence="0.0" speechType="" typography="" rank="" method="ocr" id="SAINTOGAN_ZIGPUCE_MILLIONAIRES_005_line_57">  . Q    </metadata>
    </polygon>
    <polygon points="354,1360 757,1360 757,1415 354,1415 354,1360">
      <metadata confidence="0.0" speechType="" typography="" rank="" method="ocr" id="SAINTOGAN_ZIGPUCE_MILLIONAIRES_005_line_58"> gr      M.. . .... ...  .   J E erre  u LA msI   A    .  I  .. </metadata>
    </polygon>
    <polygon points="420,1343 755,1343 755,1382 420,1382 420,1343">
      <metadata confidence="0.0" speechType="" typography="" rank="" method="ocr" id="SAINTOGAN_ZIGPUCE_MILLIONAIRES_005_line_59"> vga    G          .    f  </metadata>
    </polygon>
    <polygon points="242,1308 804,1308 804,1366 242,1366 242,1308">
      <metadata confidence="0.0" speechType="" typography="" rank="" method="ocr" id="SAINTOGAN_ZIGPUCE_MILLIONAIRES_005_line_60">EN C.mQM NUTES v0uS Po0R  gg      1   .  anaz Remwoae  </metadata>
    </polygon>
    <polygon points="1283,1283 1361,1283 1361,1304 1283,1304 1283,1283">
      <metadata confidence="0.0" speechType="" typography="" rank="" method="ocr" id="SAINTOGAN_ZIGPUCE_MILLIONAIRES_005_line_61">LECA</metadata>
    </polygon>
    <polygon points="394,1269 707,1269 707,1298 394,1298 394,1269">
      <metadata confidence="0.0" speechType="" typography="" rank="" method="ocr" id="SAINTOGAN_ZIGPUCE_MILLIONAIRES_005_line_62">E T    P  T ROLE ENC</metadata>
    </polygon>
    <polygon points="235,1271 330,1271 330,1294 235,1294 235,1271">
      <metadata confidence="0.0" speechType="" typography="" rank="" method="ocr" id="SAINTOGAN_ZIGPUCE_MILLIONAIRES_005_line_63">C  NO</metadata>
    </polygon>
    <polygon points="666,1228 895,1228 895,1306 666,1306 666,1228">
      <metadata confidence="0.0" speechType="" typography="" rank="" method="ocr" id="SAINTOGAN_ZIGPUCE_MILLIONAIRES_005_line_64">oi     ... D  2   2     5  NcoR6    </metadata>
    </polygon>
    <polygon points="1230,1251 1332,1251 1332,1276 1230,1276 1230,1251">
      <metadata confidence="0.0" speechType="" typography="" rank="" method="ocr" id="SAINTOGAN_ZIGPUCE_MILLIONAIRES_005_line_65">E1   8</metadata>
    </polygon>
    <polygon points="237,1237 479,1237 479,1262 237,1262 237,1237">
      <metadata confidence="0.0" speechType="" typography="" rank="" method="ocr" id="SAINTOGAN_ZIGPUCE_MILLIONAIRES_005_line_66">JE VOUS ENTR</metadata>
    </polygon>
    <polygon points="517,1238 608,1238 608,1260 517,1260 517,1238">
      <metadata confidence="0.0" speechType="" typography="" rank="" method="ocr" id="SAINTOGAN_ZIGPUCE_MILLIONAIRES_005_line_67">VE UN</metadata>
    </polygon>
    <polygon points="1853,1223 1918,1223 1918,1256 1853,1256 1853,1223">
      <metadata confidence="0.0" speechType="" typography="" rank="" method="ocr" id="SAINTOGAN_ZIGPUCE_MILLIONAIRES_005_line_68">un    5.41</metadata>
    </polygon>
    <polygon points="1213,1223 1302,1223 1302,1245 1213,1245 1213,1223">
      <metadata confidence="0.0" speechType="" typography="" rank="" method="ocr" id="SAINTOGAN_ZIGPUCE_MILLIONAIRES_005_line_69">CANOT</metadata>
    </polygon>
    <polygon points="125,1179 1052,1179 1052,1260 125,1260 125,1179">
      <metadata confidence="0.0" speechType="" typography="" rank="" method="ocr" id="SAINTOGAN_ZIGPUCE_MILLIONAIRES_005_line_70">1    TI         jljjgg. SI vous ME DONNEZ  S ooq FRS     JE vous EN Tnouve UN . Mo  ...oe    </metadata>
    </polygon>
    <polygon points="1367,1198 1454,1198 1454,1219 1367,1219 1367,1198">
      <metadata confidence="0.0" speechType="" typography="" rank="" method="ocr" id="SAINTOGAN_ZIGPUCE_MILLIONAIRES_005_line_71">VOTRE</metadata>
    </polygon>
    <polygon points="1963,1304 2303,1304 2303,1367 1963,1367 1963,1304">
      <metadata confidence="0.0" speechType="" typography="" rank="" method="ocr" id="SAINTOGAN_ZIGPUCE_MILLIONAIRES_005_line_72">Nov EN quEsT  oN.  Fi  E7. VITE...   </metadata>
    </polygon>
    <polygon points="1965,1302 2034,1302 2034,1323 1965,1323 1965,1302">
      <metadata confidence="0.0" speechType="" typography="" rank="" method="ocr" id="SAINTOGAN_ZIGPUCE_MILLIONAIRES_005_line_73">NOT</metadata>
    </polygon>
    <polygon points="2108,1268 2261,1268 2261,1290 2108,1290 2108,1268">
      <metadata confidence="0.0" speechType="" typography="" rank="" method="ocr" id="SAINTOGAN_ZIGPUCE_MILLIONAIRES_005_line_74">O LA LEC.</metadata>
    </polygon>
    <polygon points="1988,1268 2075,1268 2075,1290 1988,1290 1988,1268">
      <metadata confidence="0.0" speechType="" typography="" rank="" method="ocr" id="SAINTOGAN_ZIGPUCE_MILLIONAIRES_005_line_75">EN  Z</metadata>
    </polygon>
    <polygon points="1255,1196 1336,1196 1336,1218 1255,1218 1255,1196">
      <metadata confidence="0.0" speechType="" typography="" rank="" method="ocr" id="SAINTOGAN_ZIGPUCE_MILLIONAIRES_005_line_76">ARRE</metadata>
    </polygon>
    <polygon points="1305,1167 1388,1167 1388,1188 1305,1188 1305,1167">
      <metadata confidence="0.0" speechType="" typography="" rank="" method="ocr" id="SAINTOGAN_ZIGPUCE_MILLIONAIRES_005_line_77">LES R</metadata>
    </polygon>
    <polygon points="406,1099 469,1099 469,1133 406,1133 406,1099">
      <metadata confidence="0.0" speechType="" typography="" rank="" method="ocr" id="SAINTOGAN_ZIGPUCE_MILLIONAIRES_005_line_78">E32</metadata>
    </polygon>
    <polygon points="332,1027 1145,1027 1145,1121 332,1121 332,1027">
      <metadata confidence="0.0" speechType="" typography="" rank="" method="ocr" id="SAINTOGAN_ZIGPUCE_MILLIONAIRES_005_line_79">        I    E   Z  E     j         V i   wwe      qzm           Eg     </metadata>
    </polygon>
    <polygon points="1940,1033 2127,1033 2127,1073 1940,1073 1940,1033">
      <metadata confidence="0.0" speechType="" typography="" rank="" method="ocr" id="SAINTOGAN_ZIGPUCE_MILLIONAIRES_005_line_80">    .    .  </metadata>
    </polygon>
    <polygon points="1946,1002 2058,1002 2058,1042 1946,1042 1946,1002">
      <metadata confidence="0.0" speechType="" typography="" rank="" method="ocr" id="SAINTOGAN_ZIGPUCE_MILLIONAIRES_005_line_81">E211</metadata>
    </polygon>
    <polygon points="1550,859 1676,859 1676,903 1550,903 1550,859">
      <metadata confidence="0.0" speechType="" typography="" rank="" method="ocr" id="SAINTOGAN_ZIGPUCE_MILLIONAIRES_005_line_82">    a      a       </metadata>
    </polygon>
    <polygon points="1602,818 1724,818 1724,877 1602,877 1602,818">
      <metadata confidence="0.0" speechType="" typography="" rank="" method="ocr" id="SAINTOGAN_ZIGPUCE_MILLIONAIRES_005_line_83">.       x   .     x </metadata>
    </polygon>
    <polygon points="1583,788 1703,788 1703,843 1583,843 1583,788">
      <metadata confidence="0.0" speechType="" typography="" rank="" method="ocr" id="SAINTOGAN_ZIGPUCE_MILLIONAIRES_005_line_84">n   mw.vnrg M .....       Q ....N           .  .....     .    .    .    .     </metadata>
    </polygon>
    <polygon points="882,759 1166,759 1166,829 882,829 882,759">
      <metadata confidence="0.0" speechType="" typography="" rank="" method="ocr" id="SAINTOGAN_ZIGPUCE_MILLIONAIRES_005_line_85">            fa             .      5    3    </metadata>
    </polygon>
    <polygon points="1581,751 1830,751 1830,814 1581,814 1581,751">
      <metadata confidence="0.0" speechType="" typography="" rank="" method="ocr" id="SAINTOGAN_ZIGPUCE_MILLIONAIRES_005_line_86">kk </metadata>
    </polygon>
    <polygon points="1378,701 1565,701 1565,765 1378,765 1378,701">
      <metadata confidence="0.0" speechType="" typography="" rank="" method="ocr" id="SAINTOGAN_ZIGPUCE_MILLIONAIRES_005_line_87">            5         I   </metadata>
    </polygon>
    <polygon points="228,692 599,692 599,744 228,744 228,692">
      <metadata confidence="0.0" speechType="" typography="" rank="" method="ocr" id="SAINTOGAN_ZIGPUCE_MILLIONAIRES_005_line_88">EN AM  rLiouE </metadata>
    </polygon>
    <polygon points="883,691 1220,691 1220,750 883,750 883,691">
      <metadata confidence="0.0" speechType="" typography="" rank="" method="ocr" id="SAINTOGAN_ZIGPUCE_MILLIONAIRES_005_line_89">552        A          5  l</metadata>
    </polygon>
    <polygon points="1282,660 1546,660 1546,724 1282,724 1282,660">
      <metadata confidence="0.0" speechType="" typography="" rank="" method="ocr" id="SAINTOGAN_ZIGPUCE_MILLIONAIRES_005_line_90">v  .     . ...  ..   .   .</metadata>
    </polygon>
    <polygon points="1708,651 1843,651 1843,682 1708,682 1708,651">
      <metadata confidence="0.0" speechType="" typography="" rank="" method="ocr" id="SAINTOGAN_ZIGPUCE_MILLIONAIRES_005_line_91">cena    Y</metadata>
    </polygon>
    <polygon points="1429,596 1864,596 1864,657 1429,657 1429,596">
      <metadata confidence="0.0" speechType="" typography="" rank="" method="ocr" id="SAINTOGAN_ZIGPUCE_MILLIONAIRES_005_line_92">                         5 I 0 Y FON</metadata>
    </polygon>
    <polygon points="2196,583 2350,583 2350,677 2196,677 2196,583">
      <metadata confidence="0.0" speechType="" typography="" rank="" method="ocr" id="SAINTOGAN_ZIGPUCE_MILLIONAIRES_005_line_93">Qui NouAcc  5</metadata>
    </polygon>
    <polygon points="1703,587 1881,587 1881,614 1703,614 1703,587">
      <metadata confidence="0.0" speechType="" typography="" rank="" method="ocr" id="SAINTOGAN_ZIGPUCE_MILLIONAIRES_005_line_94">STQPPONS</metadata>
    </polygon>
    <polygon points="1305,586 1376,586 1376,609 1305,609 1305,586">
      <metadata confidence="0.0" speechType="" typography="" rank="" method="ocr" id="SAINTOGAN_ZIGPUCE_MILLIONAIRES_005_line_95">PER</metadata>
    </polygon>
    <polygon points="1051,537 1950,537 1950,587 1051,587 1051,537">
      <metadata confidence="0.0" speechType="" typography="" rank="" method="ocr" id="SAINTOGAN_ZIGPUCE_MILLIONAIRES_005_line_96">Que   rzi  z Pn  L   j    1  r      i  3 L     v         r        uvs</metadata>
    </polygon>
    <polygon points="1835,519 1988,519 1988,541 1835,541 1835,519">
      <metadata confidence="0.0" speechType="" typography="" rank="" method="ocr" id="SAINTOGAN_ZIGPUCE_MILLIONAIRES_005_line_97">L ME SEM</metadata>
    </polygon>
    <polygon points="1532,519 1667,519 1667,542 1532,542 1532,519">
      <metadata confidence="0.0" speechType="" typography="" rank="" method="ocr" id="SAINTOGAN_ZIGPUCE_MILLIONAIRES_005_line_98">NE POUR</metadata>
    </polygon>
    <polygon points="1293,515 1507,515 1507,541 1293,541 1293,515">
      <metadata confidence="0.0" speechType="" typography="" rank="" method="ocr" id="SAINTOGAN_ZIGPUCE_MILLIONAIRES_005_line_99">LEURS VOUS</metadata>
    </polygon>
    <polygon points="2128,486 2335,486 2335,575 2128,575 2128,486">
      <metadata confidence="0.0" speechType="" typography="" rank="" method="ocr" id="SAINTOGAN_ZIGPUCE_MILLIONAIRES_005_line_100"> .  c EsT LE   NOT DU   PILOTE</metadata>
    </polygon>
    <polygon points="882,480 1975,480 1975,569 882,569 882,480">
      <metadata confidence="0.0" speechType="" typography="" rank="" method="ocr" id="SAINTOGAN_ZIGPUCE_MILLIONAIRES_005_line_101">  A9i rgaiue  oowwez   IMPoSSiBLE... D  Hu Qoirss Moi MoNMol v  rE un cANot.   L  URS vous ne POUR     Mi   i L ME SeoIL FAUT Oue  a Au       fuel mm LF nn rrp.   nn F mn     mm</metadata>
    </polygon>
    <polygon points="902,656 981,656 981,679 902,679 902,656">
      <metadata confidence="0.0" speechType="" typography="" rank="" method="ocr" id="SAINTOGAN_ZIGPUCE_MILLIONAIRES_005_line_102">SON </metadata>
    </polygon>
    <polygon points="1029,653 1157,653 1157,679 1029,679 1029,653">
      <metadata confidence="0.0" speechType="" typography="" rank="" method="ocr" id="SAINTOGAN_ZIGPUCE_MILLIONAIRES_005_line_103">JePAie</metadata>
    </polygon>
    <polygon points="898,623 1148,623 1148,648 898,648 898,623">
      <metadata confidence="0.0" speechType="" typography="" rank="" method="ocr" id="SAINTOGAN_ZIGPUCE_MILLIONAIRES_005_line_104">que Nous c   ou</metadata>
    </polygon>
    <polygon points="989,586 1165,586 1165,611 989,611 989,586">
      <metadata confidence="0.0" speechType="" typography="" rank="" method="ocr" id="SAINTOGAN_ZIGPUCE_MILLIONAIRES_005_line_105">LE BAT       U</metadata>
    </polygon>
    <polygon points="434,661 722,661 722,688 434,688 434,661">
      <metadata confidence="0.0" speechType="" typography="" rank="" method="ocr" id="SAINTOGAN_ZIGPUCE_MILLIONAIRES_005_line_106">LE RETROUVER</metadata>
    </polygon>
    <polygon points="442,631 507,631 507,650 442,650 442,631">
      <metadata confidence="0.0" speechType="" typography="" rank="" method="ocr" id="SAINTOGAN_ZIGPUCE_MILLIONAIRES_005_line_107">MOI</metadata>
    </polygon>
    <polygon points="483,589 741,589 741,615 483,615 483,589">
      <metadata confidence="0.0" speechType="" typography="" rank="" method="ocr" id="SAINTOGAN_ZIGPUCE_MILLIONAIRES_005_line_108">RENTRE ENFRN  </metadata>
    </polygon>
    <polygon points="317,587 455,587 455,617 317,617 317,587">
      <metadata confidence="0.0" speechType="" typography="" rank="" method="ocr" id="SAINTOGAN_ZIGPUCE_MILLIONAIRES_005_line_109">34  QU</metadata>
    </polygon>
    <polygon points="366,552 673,552 673,577 366,577 366,552">
      <metadata confidence="0.0" speechType="" typography="" rank="" method="ocr" id="SAINTOGAN_ZIGPUCE_MILLIONAIRES_005_line_110">Gr SUR CE BATEAU</metadata>
    </polygon>
    <polygon points="315,514 745,514 745,543 315,543 315,514">
      <metadata confidence="0.0" speechType="" typography="" rank="" method="ocr" id="SAINTOGAN_ZIGPUCE_MILLIONAIRES_005_line_111">JE    Eng 0 APERCEVMR</metadata>
    </polygon>
    <polygon points="319,485 416,485 416,509 319,509 319,485">
      <metadata confidence="0.0" speechType="" typography="" rank="" method="ocr" id="SAINTOGAN_ZIGPUCE_MILLIONAIRES_005_line_112">AVEC</metadata>
    </polygon>
    <polygon points="448,483 508,483 508,505 448,505 448,483">
      <metadata confidence="0.0" speechType="" typography="" rank="" method="ocr" id="SAINTOGAN_ZIGPUCE_MILLIONAIRES_005_line_113">LES</metadata>
    </polygon>
    <polygon points="537,480 712,480 712,503 537,503 537,480">
      <metadata confidence="0.0" speechType="" typography="" rank="" method="ocr" id="SAINTOGAN_ZIGPUCE_MILLIONAIRES_005_line_114">JUMELLES</metadata>
    </polygon>
    <polygon points="2073,461 2302,461 2302,486 2073,486 2073,461">
      <metadata confidence="0.0" speechType="" typography="" rank="" method="ocr" id="SAINTOGAN_ZIGPUCE_MILLIONAIRES_005_line_115">ANEW YORK</metadata>
    </polygon>
    <polygon points="2188,431 2287,431 2287,456 2188,456 2188,431">
      <metadata confidence="0.0" speechType="" typography="" rank="" method="ocr" id="SAINTOGAN_ZIGPUCE_MILLIONAIRES_005_line_116">RRNO</metadata>
    </polygon>
    <polygon points="2075,431 2150,431 2150,453 2075,453 2075,431">
      <metadata confidence="0.0" speechType="" typography="" rank="" method="ocr" id="SAINTOGAN_ZIGPUCE_MILLIONAIRES_005_line_117">NOUS</metadata>
    </polygon>
    <polygon points="2031,367 2351,367 2351,418 2031,418 2031,367">
      <metadata confidence="0.0" speechType="" typography="" rank="" method="ocr" id="SAINTOGAN_ZIGPUCE_MILLIONAIRES_005_line_118">      .  gl  </metadata>
    </polygon>
    <polygon points="125,362 352,362 352,422 125,422 125,362">
      <metadata confidence="0.0" speechType="" typography="" rank="" method="ocr" id="SAINTOGAN_ZIGPUCE_MILLIONAIRES_005_line_119">  .  .   .  .     5 15</metadata>
    </polygon>
    <polygon points="538,316 747,316 747,412 538,412 538,316">
      <metadata confidence="0.0" speechType="" typography="" rank="" method="ocr" id="SAINTOGAN_ZIGPUCE_MILLIONAIRES_005_line_120">Wiki</metadata>
    </polygon>
    <polygon points="1255,317 1303,317 1303,358 1255,358 1255,317">
      <metadata confidence="0.0" speechType="" typography="" rank="" method="ocr" id="SAINTOGAN_ZIGPUCE_MILLIONAIRES_005_line_121">FU</metadata>
    </polygon>
    <polygon points="905,310 1168,310 1168,365 905,365 905,310">
      <metadata confidence="0.0" speechType="" typography="" rank="" method="ocr" id="SAINTOGAN_ZIGPUCE_MILLIONAIRES_005_line_122">V7  7 9</metadata>
    </polygon>
    <polygon points="319,244 407,244 407,287 319,287 319,244">
      <metadata confidence="0.0" speechType="" typography="" rank="" method="ocr" id="SAINTOGAN_ZIGPUCE_MILLIONAIRES_005_line_123">I .4</metadata>
    </polygon>
  </svg>
</svg>
