<?xml version="1.0" encoding="UTF-8"?>
<svg xmlns:xlink="http://www.w3.org/1999/xlink" xmlns="http://www.w3.org/2000/svg" contentScriptType="text/ecmascript" width="270mm" zoomAndPan="magnify" contentStyleType="text/css" height="512mm" viewBox="0 0 541 1024" preserveAspectRatio="xMidYMid meet" version="1.0">
    <title>CYB_MAGICIENLOOSE_000.jpg</title>
    <svg contentScriptType="text/ecmascript" xmlns:xlink="http://www.w3.org/1999/xlink" zoomAndPan="magnify" class="Page" contentStyleType="text/css" preserveAspectRatio="xMidYMid meet" xmlns="http://www.w3.org/2000/svg" version="1.0">
        <image x="0" y="0" fill-opacity="0.5" width="541" xmlns:xlink="http://www.w3.org/1999/xlink" xlink:href="CYB_MAGICIENLOOSE_000.jpg" xlink:type="simple" xlink:actuate="onLoad" opacity="0.5" height="1024" preserveAspectRatio="xMidYMid meet" xlink:show="embed"/>
    </svg>
    <style type="text/css" xml:space="preserve"><![CDATA[
		* { stroke-width: 1; stroke-linejoin: round; }
		.Panel { fill: none; stroke: red; opacity: 1.0; visibility: visible; }
		.TextArea { fill: none; stroke: yellow; opacity: 1.0; visibility: visible; }
		.Line { fill: green; stroke: none; opacity: 0.3; visibility: visible; }
		.Balloon { fill: none; stroke: cyan; opacity: 1.0; visibility: visible; }
		.Letter { fill: none; stroke: blue; opacity: 1.0; visibility: visible; }
		.Object { fill: none; stroke: yellow; opacity: 1.0; visibility: visible; }
		.Page { fill: none; stroke: white; opacity: 0.5; visibility: visible; image-rendering: optimizeSpeed; }
		.Noise { fill: none; stroke: pink; opacity: 1.0; visibility: hidden; }
		.Debug { fill: none; stroke: red; opacity: 1.0; visibility: visible; }
		.Unclassified { fill: none; stroke: orange; opacity: 1.0; visibility: hidden; }
]]></style>
    <svg contentScriptType="text/ecmascript" xmlns:xlink="http://www.w3.org/1999/xlink" zoomAndPan="magnify" class="Panel" contentStyleType="text/css" preserveAspectRatio="xMidYMid meet" xmlns="http://www.w3.org/2000/svg" version="1.0"/>
    <svg contentScriptType="text/ecmascript" xmlns:xlink="http://www.w3.org/1999/xlink" zoomAndPan="magnify" class="Letter" contentStyleType="text/css" preserveAspectRatio="xMidYMid meet" xmlns="http://www.w3.org/2000/svg" version="1.0"/>
    <svg contentScriptType="text/ecmascript" xmlns:xlink="http://www.w3.org/1999/xlink" zoomAndPan="magnify" class="Line" contentStyleType="text/css" preserveAspectRatio="xMidYMid meet" xmlns="http://www.w3.org/2000/svg" version="1.0">
        <polygon points="34,23 102,23 102,35 34,35 34,23"/>
        <polygon points="168,34 224,34 224,42 168,42 168,34"/>
        <polygon points="157,42 236,42 236,54 157,54 157,42"/>
        <polygon points="307,23 424,23 424,31 307,31 307,23"/>
        <polygon points="310,34 421,34 421,42 310,42 310,34"/>
        <polygon points="453,46 500,46 500,55 453,55 453,46"/>
        <polygon points="470,57 484,57 484,66 470,66 470,57"/>
        <polygon points="119,221 165,221 165,231 119,231 119,221"/>
        <polygon points="88,235 196,235 196,245 88,245 88,235"/>
        <polygon points="136,249 149,249 149,259 136,259 136,249"/>
        <polygon points="201,257 233,257 233,265 201,265 201,257"/>
        <polygon points="397,228 479,228 479,240 397,240 397,228"/>
        <polygon points="386,242 488,242 488,250 386,250 386,242"/>
        <polygon points="397,252 478,252 478,262 397,262 397,252"/>
        <polygon points="411,263 464,263 464,271 411,271 411,263"/>
        <polygon points="53,424 144,424 144,435 53,435 53,424"/>
        <polygon points="61,435 138,435 138,446 61,446 61,435"/>
        <polygon points="167,430 247,430 247,439 167,439 167,430"/>
        <polygon points="158,439 255,439 255,450 158,450 158,439"/>
        <polygon points="178,453 235,453 235,462 178,462 178,453"/>
        <polygon points="373,422 479,422 479,431 373,431 373,422"/>
        <polygon points="369,433 483,433 483,441 369,441 369,433"/>
        <polygon points="364,443 488,443 488,452 364,452 364,443"/>
        <polygon points="395,454 457,454 457,462 395,462 395,454"/>
        <polygon points="379,527 409,527 409,535 379,535 379,527"/>
        <polygon points="374,538 413,538 413,546 374,546 374,538"/>
        <polygon points="133,630 241,630 241,640 133,640 133,630"/>
        <polygon points="181,644 194,644 194,655 181,655 181,644"/>
        <polygon points="406,646 478,646 478,655 406,655 406,646"/>
        <polygon points="413,657 471,657 471,666 413,666 413,657"/>
        <polygon points="176,884 225,884 225,893 176,893 176,884"/>
        <polygon points="192,895 209,895 209,904 192,904 192,895"/>
        <polygon points="404,909 448,909 448,918 404,918 404,909"/>
        <polygon points="129,512 160,512 160,520 129,520 129,512"/>
        <polygon points="387,549 399,549 399,558 387,558 387,549"/>
    </svg>
    <svg contentScriptType="text/ecmascript" xmlns:xlink="http://www.w3.org/1999/xlink" zoomAndPan="magnify" class="TextArea" contentStyleType="text/css" preserveAspectRatio="xMidYMid meet" xmlns="http://www.w3.org/2000/svg" version="1.0">
        <polygon points="34,23 34,35 102,35 102,23 34,23"/>
        <polygon points="168,34 157,42 157,54 236,54 236,42 224,34 168,34"/>
        <polygon points="307,23 307,31 310,42 421,42 424,31 424,23 307,23"/>
        <polygon points="453,46 453,55 470,66 484,66 500,55 500,46 453,46"/>
        <polygon points="119,221 88,235 88,245 136,259 149,259 196,245 196,235 165,221 119,221"/>
        <polygon points="201,257 201,265 233,265 233,257 201,257"/>
        <polygon points="397,228 386,242 386,250 397,262 411,271 464,271 478,262 488,250 488,242 479,228 397,228"/>
        <polygon points="53,424 53,435 61,446 138,446 144,435 144,424 53,424"/>
        <polygon points="167,430 158,439 158,450 178,462 235,462 255,450 255,439 247,430 167,430"/>
        <polygon points="373,422 364,443 364,452 395,462 457,462 488,452 488,443 479,422 373,422"/>
        <polygon points="379,527 374,538 374,546 387,558 399,558 413,546 413,538 409,527 379,527"/>
        <polygon points="133,630 133,640 181,655 194,655 241,640 241,630 133,630"/>
        <polygon points="406,646 406,655 413,666 471,666 478,655 478,646 406,646"/>
        <polygon points="176,884 176,893 192,904 209,904 225,893 225,884 176,884"/>
        <polygon points="404,909 404,918 448,918 448,909 404,909"/>
        <polygon points="129,512 129,520 160,520 160,512 129,512"/>
    </svg>
    <svg contentScriptType="text/ecmascript" xmlns:xlink="http://www.w3.org/1999/xlink" zoomAndPan="magnify" class="Balloon" contentStyleType="text/css" preserveAspectRatio="xMidYMid meet" xmlns="http://www.w3.org/2000/svg" version="1.0">
        <polygon points="27,26 27,29 27,32 27,35 27,38 28,40 30,42 32,43 35,44 38,45 41,46 44,47 47,47 49,47 51,47 53,48 55,48 57,48 59,48 61,48 63,48 65,49 67,50 66,51 67,50 69,50 70,49 72,49 74,49 76,49 78,49 80,49 82,49 84,49 86,49 88,49 90,49 92,49 94,48 96,46 97,44 99,43 101,42 103,40 105,39 107,36 109,33 110,29 109,23 107,19 104,18 101,18 98,18 95,18 93,18 91,18 89,18 87,18 85,18 83,18 81,18 79,18 77,18 75,18 73,18 71,18 69,18 67,18 65,18 63,18 61,18 59,18 57,18 55,18 53,18 51,18 49,18 47,18 45,18 43,18 41,18 39,18 37,18 35,18 33,18 31,19 28,20 27,23 27,26"/>
        <polygon points="155,29 153,30 151,31 150,33 148,34 147,36 146,39 144,41 142,42 142,44 143,46 142,48 142,50 143,52 144,53 145,55 146,57 148,57 150,58 152,59 154,60 156,61 158,61 161,63 164,64 167,65 170,66 173,67 175,67 177,67 179,67 181,67 183,68 185,68 187,68 189,68 191,68 193,68 195,69 197,69 199,69 201,69 203,69 205,69 207,69 209,69 211,69 214,68 216,68 218,68 220,68 223,67 225,67 227,67 229,67 231,67 233,66 235,66 237,65 239,64 241,63 243,61 244,59 246,58 248,57 248,55 250,54 250,52 251,50 252,49 251,47 251,45 250,43 249,41 248,40 247,38 245,37 244,35 242,34 241,33 240,32 239,30 237,29 234,28 230,27 227,26 224,25 221,24 219,23 217,23 215,22 213,22 211,21 209,21 207,21 205,20 203,20 201,20 199,20 197,20 195,20 193,20 191,20 189,20 187,20 185,20 183,20 181,20 179,20 177,20 175,21 172,22 169,23 167,23 165,24 163,26 161,27 158,28 155,29"/>
        <polygon points="298,23 296,26 295,28 294,30 294,32 293,34 294,36 294,38 295,40 297,40 298,42 300,44 302,45 305,46 307,47 310,48 312,48 314,48 316,48 318,48 322,48 324,48 326,48 328,48 330,48 332,48 334,48 336,48 338,48 340,48 342,48 344,48 346,49 348,50 351,51 354,52 356,52 358,52 360,52 362,53 364,53 368,53 370,53 372,53 374,53 376,53 378,53 380,53 382,53 384,53 386,53 388,53 390,54 392,54 394,53 396,53 398,53 400,53 402,53 404,53 406,53 408,53 410,53 412,52 415,51 417,51 419,50 422,49 424,49 426,49 427,47 429,47 431,46 432,44 434,43 435,41 437,38 438,36 437,34 437,32 436,30 436,28 434,26 433,24 432,22 431,21 430,19 429,18 428,16 426,16 424,16 422,16 420,16 418,16 416,16 414,16 412,16 410,16 408,16 406,16 404,16 402,16 400,16 398,16 396,16 394,16 392,16 390,16 388,16 386,16 384,16 382,16 380,16 378,16 376,16 374,16 372,16 370,16 368,16 366,16 364,16 362,16 360,16 358,16 356,16 354,16 352,16 350,16 348,16 346,16 344,16 342,16 340,16 338,16 336,16 334,16 332,16 330,16 328,16 326,16 324,16 322,16 320,16 318,16 316,16 314,16 312,16 310,16 308,16 306,16 304,16 303,18 301,20 299,21 298,23"/>
        <polygon points="445,45 443,47 442,49 440,52 440,54 441,56 440,58 441,60 442,61 443,63 443,65 445,66 447,67 447,69 449,69 451,69 455,70 459,70 461,70 463,71 466,72 468,72 470,72 472,72 474,72 476,72 478,72 480,72 482,72 484,72 486,72 488,72 490,71 492,71 494,71 496,71 499,70 501,70 503,70 505,69 507,68 509,62 511,58 512,55 513,53 513,51 513,49 511,47 510,45 510,43 508,43 507,41 505,40 503,39 501,38 499,37 496,36 494,36 492,36 490,35 488,35 486,33 484,33 482,33 480,33 478,33 476,33 474,33 472,33 470,33 468,33 466,33 464,33 462,33 460,34 458,35 456,36 454,37 452,38 449,39 448,41 446,43 445,45"/>
        <polygon points="139,215 137,215 135,215 133,215 131,215 129,215 127,215 125,215 123,215 122,216 120,216 118,216 116,217 114,217 112,218 110,218 108,218 106,218 104,218 102,218 100,219 98,219 97,220 95,220 94,221 92,222 90,223 88,223 87,224 87,225 86,226 85,227 84,228 83,229 81,230 80,231 80,233 79,234 79,235 78,236 78,237 78,239 78,241 79,242 80,243 81,244 82,245 82,247 84,248 85,249 85,250 87,250 88,251 90,251 91,252 93,252 94,253 96,253 98,254 100,254 102,255 104,255 105,256 107,256 108,257 110,257 111,258 113,258 115,259 118,260 120,260 121,262 122,263 123,264 123,265 125,266 127,266 129,267 131,267 133,267 135,267 137,267 140,268 142,268 144,269 146,268 147,267 149,267 151,267 153,267 155,267 157,267 159,267 161,267 163,267 165,267 167,267 169,267 171,264 173,263 174,262 176,262 178,262 180,262 182,261 184,261 186,260 188,259 188,258 187,257 188,258 187,257 187,256 189,255 190,254 191,253 191,252 192,251 194,251 196,251 201,244 201,244 201,244 201,244 201,244 201,244 201,244 201,244 201,244 202,243 201,244 202,243 201,244 202,243 202,242 204,242 206,241 208,241 208,239 208,237 208,235 207,234 206,232 206,231 205,230 205,229 204,228 203,227 202,226 201,225 200,224 198,223 197,222 198,223 197,222 197,221 195,221 194,220 192,219 191,218 189,218 188,217 188,216 187,215 185,215 183,215 181,215 179,215 177,215 175,215 173,215 171,215 169,215 167,215 165,215 163,215 161,215 159,215 157,215 155,215 153,215 151,215 149,215 147,215 145,215 143,215 141,215 139,215"/>
        <polygon points="194,259 195,262 196,265 197,268 198,269 201,270 204,271 206,271 208,272 210,272 212,272 214,272 217,273 219,273 221,273 223,273 226,272 229,271 233,270 236,269 238,267 238,264 239,261 239,255 238,252 237,249 234,248 231,247 228,246 226,245 223,244 219,243 215,243 211,243 209,245 207,247 204,248 201,249 196,253 195,256 194,259"/>
        <polygon points="393,225 392,226 391,227 391,227 391,228 391,227 390,229 389,230 388,231 386,232 384,234 382,236 380,238 378,239 377,241 376,243 375,244 375,246 376,248 375,250 376,251 376,253 376,255 377,257 378,258 379,259 380,260 380,261 381,263 382,264 384,265 385,266 386,267 388,268 390,269 392,269 393,270 395,270 396,271 398,271 399,272 401,273 403,273 405,273 406,274 408,275 411,276 413,276 414,277 417,277 417,277 417,277 417,277 417,277 417,277 417,277 417,277 417,277 417,277 419,277 421,277 423,277 424,276 426,276 428,276 430,276 432,276 434,276 436,276 438,276 440,276 442,276 444,276 446,276 448,277 450,277 452,277 454,277 456,277 458,277 460,277 462,277 464,277 466,277 468,276 468,275 470,274 472,274 474,274 476,273 478,272 480,272 481,271 483,271 484,270 486,270 486,268 488,267 490,265 492,263 493,261 495,259 495,257 496,254 498,253 498,251 498,249 499,247 498,246 497,244 497,242 496,241 496,240 495,239 494,238 492,237 491,236 490,235 489,234 489,233 488,232 488,230 486,230 485,228 484,227 475,223 470,222 470,222 470,222 470,222 470,222 470,222 470,222 470,222 470,222 470,222 470,222 470,222 470,222 468,222 467,223 465,223 463,223 461,223 459,222 457,222 455,222 453,222 451,221 449,221 447,221 445,221 443,221 441,221 439,221 437,221 435,221 433,221 431,221 429,221 427,221 425,221 423,221 421,221 419,221 417,222 415,222 413,222 411,223 409,223 407,223 405,223 403,223 401,224 398,223 393,225"/>
        <polygon points="48,424 48,426 48,424 48,426 48,424 48,426 47,428 45,431 46,433 47,435 48,439 49,441 51,443 52,445 53,447 55,448 57,449 58,451 61,451 63,451 64,452 66,452 68,452 70,452 72,452 74,452 76,452 78,452 80,452 82,452 84,452 86,452 88,452 90,452 92,452 94,452 96,452 98,452 100,452 102,452 104,452 106,452 108,452 110,452 111,453 113,453 114,454 116,454 118,454 119,455 121,456 123,456 125,456 127,456 129,456 131,456 133,456 135,456 137,456 138,455 140,455 142,455 144,455 146,454 145,452 144,450 145,448 145,446 146,444 146,442 148,442 148,440 150,436 150,434 150,436 150,434 152,433 152,431 153,430 154,429 154,427 155,426 155,424 156,423 157,421 156,419 154,419 152,419 150,419 148,419 146,419 144,419 142,419 140,419 138,419 136,419 134,419 132,419 130,419 128,419 126,419 124,419 122,419 120,419 118,419 116,419 114,419 112,419 110,419 108,419 106,419 104,419 102,419 100,419 98,419 96,419 94,419 92,419 90,419 88,419 86,419 84,419 82,419 80,419 78,419 76,419 74,419 72,419 70,419 68,419 66,419 64,419 62,419 60,419 58,419 56,419 54,419 51,420 48,424"/>
        <polygon points="162,421 160,421 159,423 157,424 156,425 155,426 154,427 153,428 152,430 151,432 150,434 150,436 148,440 148,439 148,440 148,442 147,444 147,446 147,448 147,450 148,452 149,454 150,456 151,458 152,460 154,461 155,463 157,465 160,467 163,469 165,470 168,471 170,471 171,472 172,474 174,474 174,474 176,474 178,474 180,475 181,477 183,477 185,477 187,476 189,476 191,476 193,476 195,476 197,476 199,476 201,476 203,476 205,476 207,476 209,476 211,476 213,476 215,476 217,476 219,476 221,476 223,476 225,476 227,476 229,476 231,476 233,476 235,476 237,476 239,475 241,475 243,475 244,474 246,474 249,473 251,472 254,471 257,467 259,463 260,461 260,459 260,457 260,455 260,453 260,451 260,449 260,447 260,445 260,443 260,441 260,439 260,437 260,435 260,433 260,431 259,429 259,427 259,425 258,423 258,421 258,419 256,419 254,419 252,419 250,419 248,419 246,419 244,419 242,419 240,419 238,419 236,419 234,419 232,419 230,419 228,419 226,419 224,419 222,419 220,419 218,419 216,419 214,419 212,419 210,419 208,419 206,419 204,419 202,419 200,419 198,419 196,419 194,419 192,419 190,419 188,419 186,419 184,419 182,419 180,419 178,419 176,419 174,419 172,419 170,419 168,419 166,419 165,420 163,420 162,421"/>
        <polygon points="373,416 371,417 370,418 369,419 367,419 365,419 363,419 362,421 361,423 360,425 359,427 357,431 355,445 353,449 353,450 353,449 353,450 353,449 353,450 353,449 353,450 353,449 353,450 353,449 353,450 355,451 357,451 358,452 359,454 359,455 360,456 361,457 363,458 365,458 367,459 369,459 370,460 371,461 372,462 374,462 376,463 379,464 382,465 384,467 387,468 389,468 391,468 394,469 396,469 398,469 400,469 402,469 404,469 406,469 409,469 411,469 413,469 415,469 417,469 420,470 422,470 424,470 426,470 428,470 430,470 432,470 434,470 436,470 438,470 440,470 442,470 444,470 446,469 448,469 450,469 452,469 454,469 456,468 458,468 460,468 462,467 464,467 466,467 468,467 470,466 472,466 474,465 476,465 478,464 480,463 483,462 485,462 487,461 489,460 491,460 492,459 493,458 495,457 496,455 498,454 498,453 499,452 499,450 501,449 502,447 502,445 503,443 504,441 505,439 505,437 506,435 506,433 507,431 506,429 505,427 506,425 504,424 504,422 503,421 502,419 500,418 498,417 496,417 494,417 492,417 490,417 488,417 486,417 484,417 482,417 478,416 474,416 472,416 472,416 472,416 472,416 470,416 468,416 466,416 461,416 458,416 458,416 458,416 458,416 458,416 458,416 456,416 454,416 452,416 450,416 448,416 446,416 444,416 442,416 440,416 438,416 436,416 434,416 432,416 430,416 428,416 426,416 424,416 421,416 421,416 421,416 421,416 421,416 421,416 421,416 421,416 419,416 417,416 415,416 413,416 411,416 409,416 407,416 405,416 403,416 401,416 399,416 397,416 395,416 393,416 391,416 389,416 387,416 385,416 383,416 381,416 379,416 377,416 375,416 373,416"/>
        <polygon points="370,518 369,520 369,522 369,524 368,526 369,528 369,530 368,532 369,534 367,536 368,538 369,540 369,542 369,545 369,547 369,550 369,553 369,556 372,562 374,565 376,567 377,568 379,569 381,571 383,571 385,569 387,569 389,569 391,569 392,568 394,568 396,568 398,568 400,568 402,568 404,568 406,567 408,567 410,566 412,566 412,566 414,565 416,563 418,562 420,561 422,559 423,557 424,555 422,553 421,551 419,550 419,548 418,546 420,545 419,543 419,541 419,539 419,537 419,535 419,533 419,530 419,528 418,526 417,524 415,522 413,520 409,515 403,512 396,510 390,508 386,508 383,509 381,509 379,509 377,510 376,511 374,511 372,513 370,515 370,515 370,518"/>
        <polygon points="146,621 144,621 142,621 140,621 138,621 136,621 134,621 132,621 131,622 130,623 129,624 128,625 127,626 126,627 125,629 125,631 123,632 123,633 123,635 124,637 125,638 126,639 127,640 127,642 128,643 129,645 130,647 131,649 131,651 132,653 134,654 136,654 137,655 139,655 140,656 141,658 143,659 145,660 147,660 149,661 150,663 152,663 154,663 155,665 157,664 157,664 159,663 161,663 163,664 164,665 166,664 168,664 170,664 172,664 174,664 176,665 178,666 178,666 180,666 182,666 184,666 185,667 187,666 188,665 190,665 192,665 194,665 196,665 198,664 200,664 202,664 204,664 206,664 208,664 210,663 212,663 214,663 216,663 218,663 220,664 222,664 224,663 225,661 227,660 229,660 231,660 232,659 234,658 236,658 238,658 240,657 240,656 241,654 243,653 244,652 244,650 244,649 245,648 247,647 247,645 247,643 247,641 248,639 248,638 248,636 249,634 249,632 249,630 249,629 247,629 246,628 245,626 244,625 243,624 242,623 241,622 240,621 238,621 236,621 234,621 232,621 230,621 228,621 226,621 224,621 222,621 220,621 218,621 216,621 214,621 212,621 210,621 208,621 206,621 204,621 202,621 200,621 198,621 196,621 194,621 192,621 190,621 188,621 186,621 184,621 182,621 180,621 178,621 176,621 174,621 172,621 170,621 168,621 166,621 164,621 162,621 160,621 158,621 156,621 154,621 152,621 150,621 148,621 146,621"/>
        <polygon points="401,643 397,647 394,651 392,654 392,658 392,663 392,666 391,668 393,670 395,671 397,671 399,671 401,671 403,672 405,672 407,672 408,673 410,673 412,673 414,673 416,674 417,675 419,675 421,676 424,676 427,675 429,674 431,674 433,674 435,674 437,674 439,674 442,674 446,674 450,674 454,674 459,674 463,673 466,672 469,673 472,674 474,674 476,674 478,674 480,674 482,674 484,672 486,671 488,669 490,667 493,665 494,662 494,660 494,657 493,655 493,653 491,651 489,649 489,647 487,645 486,643 485,641 483,641 482,639 480,638 478,638 476,637 474,637 472,636 470,636 468,636 466,636 464,636 462,636 460,636 458,635 456,635 454,635 453,636 451,635 450,634 448,634 446,633 444,632 442,631 440,631 438,631 436,631 434,631 432,631 430,633 428,634 426,636 424,636 422,636 420,638 418,638 416,638 414,638 412,638 410,638 408,638 405,639 401,643"/>
        <polygon points="164,884 162,888 161,890 160,893 159,895 161,897 161,899 163,901 165,902 168,904 170,906 172,908 174,909 177,910 180,909 182,909 184,909 184,909 186,909 188,909 190,909 192,909 194,911 195,912 197,912 199,912 202,912 203,910 205,910 207,910 209,910 211,910 213,910 215,908 217,908 219,908 221,908 223,908 225,908 227,908 229,907 232,906 234,905 236,903 237,895 237,890 236,885 235,881 233,880 231,879 230,878 228,878 226,878 224,877 222,877 220,877 218,876 216,875 215,874 213,874 212,873 211,872 209,872 207,871 206,870 204,870 202,870 201,871 199,871 197,871 195,873 193,873 191,875 189,876 187,877 185,877 183,878 181,878 177,878 175,878 173,879 171,880 168,881 164,884"/>
        <polygon points="396,912 396,915 396,918 396,920 398,922 399,924 401,925 403,926 405,926 407,927 410,928 412,928 414,929 417,930 420,931 423,931 426,931 429,931 431,931 433,931 435,931 437,931 439,931 441,930 443,929 446,928 448,927 450,925 452,924 454,924 456,924 456,922 457,920 458,918 457,916 456,914 455,912 455,910 454,908 453,906 450,904 449,902 447,901 444,900 441,899 438,898 435,897 433,897 431,897 429,897 427,897 425,897 423,897 421,897 419,897 417,897 415,897 413,898 410,899 407,900 405,900 403,902 401,903 399,904 397,906 395,908 396,912"/>
        <polygon points="123,512 122,514 123,516 122,519 122,522 123,524 125,526 128,528 130,529 132,530 136,531 140,531 144,531 148,530 151,531 154,530 156,529 159,527 162,525 164,523 166,521 165,518 167,515 167,512 166,509 164,506 162,503 157,501 153,499 149,497 145,496 142,495 139,495 136,495 133,497 131,499 128,501 129,503 128,507 125,509 123,512"/>
    </svg>
    <desc method="Christophe's extractor" lastModificationDate="Wed Feb 13 16:49:22 JST 2013"/>
</svg>
