<?xml version="1.0" encoding="UTF-8"?>
<svg xmlns:xlink="http://www.w3.org/1999/xlink" xmlns="http://www.w3.org/2000/svg" contentScriptType="text/ecmascript" width="1163mm" zoomAndPan="magnify" contentStyleType="text/css" height="1648mm" viewBox="0 0 2326 3297" preserveAspectRatio="xMidYMid meet" version="1.0">
    <title>JOLIVET_BOSTONPOLICEAFFAIREPRADI_021.jpg</title>
    <svg contentScriptType="text/ecmascript" xmlns:xlink="http://www.w3.org/1999/xlink" zoomAndPan="magnify" class="Page" contentStyleType="text/css" preserveAspectRatio="xMidYMid meet" xmlns="http://www.w3.org/2000/svg" version="1.0">
        <image x="0" y="0" fill-opacity="0.5" width="2326" xmlns:xlink="http://www.w3.org/1999/xlink" xlink:href="JOLIVET_BOSTONPOLICEAFFAIREPRADI_021.jpg" xlink:type="simple" xlink:actuate="onLoad" opacity="0.5" height="3297" preserveAspectRatio="xMidYMid meet" xlink:show="embed"/>
    </svg>
    <style type="text/css" xml:space="preserve"><![CDATA[
		* { stroke-width: 1; stroke-linejoin: round; }
		.Panel { fill: none; stroke: red; opacity: 1.0; visibility: visible; }
		.TextArea { fill: none; stroke: yellow; opacity: 1.0; visibility: visible; }
		.Line { fill: green; stroke: none; opacity: 0.3; visibility: visible; }
		.Balloon { fill: none; stroke: cyan; opacity: 1.0; visibility: visible; }
		.Letter { fill: none; stroke: blue; opacity: 1.0; visibility: visible; }
		.Object { fill: none; stroke: yellow; opacity: 1.0; visibility: visible; }
		.Page { fill: none; stroke: white; opacity: 0.5; visibility: visible; image-rendering: optimizeSpeed; }
		.Noise { fill: none; stroke: pink; opacity: 1.0; visibility: hidden; }
		.Debug { fill: none; stroke: red; opacity: 1.0; visibility: visible; }
		.Unclassified { fill: none; stroke: orange; opacity: 1.0; visibility: hidden; }
]]></style>
    <svg contentScriptType="text/ecmascript" xmlns:xlink="http://www.w3.org/1999/xlink" zoomAndPan="magnify" class="Panel" contentStyleType="text/css" preserveAspectRatio="xMidYMid meet" xmlns="http://www.w3.org/2000/svg" version="1.0"/>
    <svg contentScriptType="text/ecmascript" xmlns:xlink="http://www.w3.org/1999/xlink" zoomAndPan="magnify" class="Letter" contentStyleType="text/css" preserveAspectRatio="xMidYMid meet" xmlns="http://www.w3.org/2000/svg" version="1.0"/>
    <svg contentScriptType="text/ecmascript" xmlns:xlink="http://www.w3.org/1999/xlink" zoomAndPan="magnify" class="Line" contentStyleType="text/css" preserveAspectRatio="xMidYMid meet" xmlns="http://www.w3.org/2000/svg" version="1.0">
        <polygon points="1288,217 1460,217 1460,240 1288,240 1288,217"/>
        <polygon points="1244,244 1508,244 1508,271 1244,271 1244,244"/>
        <polygon points="1906,825 2017,825 2017,845 1906,845 1906,825"/>
        <polygon points="1835,852 2086,852 2086,875 1835,875 1835,852"/>
        <polygon points="1811,877 2113,877 2113,901 1811,901 1811,877"/>
        <polygon points="1901,906 2022,906 2022,935 1901,935 1901,906"/>
        <polygon points="192,1493 398,1493 398,1523 192,1523 192,1493"/>
        <polygon points="233,1529 358,1529 358,1555 233,1555 233,1529"/>
        <polygon points="216,1561 374,1561 374,1590 216,1590 216,1561"/>
        <polygon points="184,2437 361,2437 361,2461 184,2461 184,2437"/>
        <polygon points="196,2460 352,2460 352,2487 196,2487 196,2460"/>
    </svg>
    <svg contentScriptType="text/ecmascript" xmlns:xlink="http://www.w3.org/1999/xlink" zoomAndPan="magnify" class="TextArea" contentStyleType="text/css" preserveAspectRatio="xMidYMid meet" xmlns="http://www.w3.org/2000/svg" version="1.0">
        <polygon points="1288,217 1244,244 1244,271 1508,271 1508,244 1460,217 1288,217"/>
        <polygon points="1906,825 1835,852 1811,877 1811,901 1901,935 2022,935 2113,901 2113,877 2086,852 2017,825 1906,825"/>
        <polygon points="192,1493 192,1523 216,1590 374,1590 398,1523 398,1493 192,1493"/>
        <polygon points="184,2437 184,2461 196,2487 352,2487 361,2461 361,2437 184,2437"/>
    </svg>
    <svg contentScriptType="text/ecmascript" xmlns:xlink="http://www.w3.org/1999/xlink" zoomAndPan="magnify" class="Balloon" contentStyleType="text/css" preserveAspectRatio="xMidYMid meet" xmlns="http://www.w3.org/2000/svg" version="1.0">
        <polygon points="1292,178 1287,180 1282,182 1277,184 1272,186 1267,188 1263,190 1258,192 1254,194 1250,196 1246,198 1242,201 1238,204 1234,207 1230,211 1226,215 1223,219 1220,223 1217,227 1215,232 1213,237 1211,242 1210,247 1208,252 1206,257 1208,261 1210,265 1213,269 1216,273 1220,277 1224,280 1228,284 1232,288 1236,291 1240,294 1244,297 1249,299 1254,301 1259,303 1264,305 1269,307 1274,309 1279,310 1284,312 1289,313 1294,314 1299,315 1304,316 1309,317 1314,317 1319,317 1324,317 1329,318 1334,318 1339,319 1344,320 1349,320 1354,320 1359,320 1364,320 1369,320 1374,320 1379,319 1384,318 1389,317 1394,316 1399,315 1404,314 1409,313 1414,312 1419,311 1424,310 1429,309 1434,308 1439,306 1444,304 1449,302 1454,300 1458,298 1463,296 1467,294 1471,292 1475,290 1479,288 1483,286 1487,284 1492,282 1497,280 1502,278 1507,276 1512,274 1513,269 1514,264 1514,259 1514,254 1514,249 1513,244 1511,238 1509,231 1506,222 1500,209 1493,197 1486,191 1479,186 1472,181 1466,176 1462,172 1457,171 1452,170 1447,170 1442,169 1437,169 1432,168 1427,167 1422,167 1419,167 1414,167 1411,167 1407,167 1402,166 1397,166 1392,166 1387,166 1382,166 1377,166 1372,166 1367,166 1362,166 1357,166 1352,166 1347,167 1342,168 1337,169 1332,170 1327,171 1322,172 1317,173 1312,174 1307,175 1302,176 1297,177 1292,178"/>
        <polygon points="1893,818 1888,818 1883,818 1878,818 1873,818 1868,818 1861,822 1854,826 1848,830 1842,834 1837,837 1832,840 1827,843 1822,846 1817,849 1813,852 1809,854 1805,856 1802,859 1798,861 1795,863 1792,866 1793,868 1794,870 1795,873 1796,877 1797,881 1798,885 1800,889 1802,893 1804,897 1806,901 1808,905 1811,908 1814,911 1817,914 1820,917 1823,920 1826,923 1829,926 1832,929 1836,931 1840,933 1844,935 1848,937 1852,939 1856,939 1860,939 1864,939 1868,939 1872,939 1876,939 1880,939 1884,939 1888,939 1892,939 1896,939 1900,940 1904,940 1908,940 1912,940 1916,940 1920,940 1924,940 1928,940 1932,941 1936,942 1940,943 1944,944 1948,946 1952,948 1957,950 1962,952 1967,954 1972,955 1977,956 1982,957 1987,958 1992,959 1996,960 2000,962 2004,963 2009,963 2013,962 2017,961 2022,961 2027,961 2032,961 2037,961 2041,959 2045,957 2050,955 2054,953 2058,951 2063,950 2068,948 2072,947 2076,945 2080,943 2083,939 2086,936 2089,933 2093,931 2097,929 2100,925 2103,922 2106,919 2109,916 2112,913 2115,910 2118,907 2121,902 2122,897 2121,891 2120,886 2119,881 2119,876 2117,869 2116,863 2116,858 2116,853 2113,851 2110,848 2106,846 2102,844 2098,842 2094,840 2090,838 2086,836 2082,834 2078,832 2074,830 2070,828 2066,826 2062,824 2058,822 2054,820 2050,818 2046,817 2042,816 2037,816 2032,816 2028,814 2024,814 2020,814 2016,814 2012,814 2008,814 2004,814 2000,814 1996,814 1992,814 1988,814 1984,814 1980,815 1976,816 1971,816 1966,816 1961,816 1956,816 1951,816 1946,816 1942,817 1937,817 1932,817 1927,817 1922,817 1917,817 1912,817 1907,817 1902,817 1897,817 1893,818"/>
        <polygon points="189,1486 183,1490 177,1497 173,1504 169,1511 166,1519 165,1527 165,1533 165,1538 165,1543 168,1548 172,1554 176,1558 180,1562 184,1566 188,1570 192,1574 196,1578 200,1582 204,1586 208,1590 212,1594 216,1598 220,1602 224,1606 228,1610 233,1614 237,1618 242,1620 247,1621 253,1622 258,1622 263,1622 268,1622 273,1622 278,1622 283,1622 288,1622 293,1621 298,1620 303,1619 308,1618 313,1617 318,1616 323,1615 328,1614 333,1613 338,1612 343,1611 348,1609 353,1607 358,1605 363,1603 368,1601 373,1599 378,1597 383,1595 388,1593 393,1590 398,1587 402,1584 406,1581 407,1576 409,1571 409,1566 409,1561 410,1556 411,1551 411,1546 412,1541 412,1536 413,1531 414,1526 415,1521 416,1516 417,1511 416,1506 414,1501 412,1496 410,1491 408,1486 406,1483 404,1480 401,1477 399,1477 395,1477 390,1476 385,1474 380,1472 375,1472 370,1472 365,1472 360,1472 355,1472 350,1472 345,1472 340,1472 335,1472 330,1472 325,1472 320,1472 315,1472 310,1472 305,1472 300,1472 295,1472 290,1472 285,1472 280,1472 275,1472 270,1472 265,1472 260,1472 255,1472 250,1472 245,1472 240,1473 235,1474 230,1475 225,1476 220,1477 215,1478 210,1479 205,1480 200,1481 195,1482 189,1486"/>
        <polygon points="181,2431 179,2433 178,2436 177,2439 174,2443 173,2448 173,2453 173,2458 176,2462 179,2466 182,2471 185,2476 187,2481 190,2486 193,2491 198,2494 203,2496 208,2498 213,2500 218,2502 223,2504 228,2506 235,2508 243,2509 249,2510 255,2511 261,2511 267,2511 273,2511 279,2511 285,2511 291,2510 297,2510 303,2509 309,2508 315,2506 321,2505 327,2503 333,2501 338,2498 343,2496 348,2494 353,2492 357,2487 359,2482 361,2477 363,2472 365,2466 366,2460 366,2454 366,2448 366,2442 366,2436 361,2432 356,2429 351,2426 346,2424 341,2422 336,2420 331,2418 326,2416 321,2414 315,2412 309,2410 303,2409 297,2408 291,2407 285,2406 279,2406 273,2406 267,2406 261,2407 255,2407 249,2408 243,2409 237,2410 232,2411 227,2412 222,2413 217,2414 212,2415 207,2417 202,2419 197,2421 192,2423 187,2425 185,2427 183,2429 181,2431"/>
    </svg>
    <desc method="Christophe's extractor" lastModificationDate="Wed Feb 13 17:16:22 JST 2013"/>
</svg>
