<?xml version="1.0" encoding="UTF-8"?>
<svg xmlns:xlink="http://www.w3.org/1999/xlink" xmlns="http://www.w3.org/2000/svg" contentScriptType="text/ecmascript" width="400mm" zoomAndPan="magnify" contentStyleType="text/css" height="150mm" viewBox="0 0 800 301" preserveAspectRatio="xMidYMid meet" version="1.0">
    <title>LAMISSEB_ETPISTAF_005.jpg</title>
    <svg contentScriptType="text/ecmascript" xmlns:xlink="http://www.w3.org/1999/xlink" zoomAndPan="magnify" class="Page" contentStyleType="text/css" preserveAspectRatio="xMidYMid meet" xmlns="http://www.w3.org/2000/svg" version="1.0">
        <image x="0" y="0" fill-opacity="0.5" width="800" xmlns:xlink="http://www.w3.org/1999/xlink" xlink:href="LAMISSEB_ETPISTAF_005.jpg" xlink:type="simple" xlink:actuate="onLoad" opacity="0.5" height="301" preserveAspectRatio="xMidYMid meet" xlink:show="embed"/>
    </svg>
    <style type="text/css" xml:space="preserve"><![CDATA[
		* { stroke-width: 1; stroke-linejoin: round; }
		.Panel { fill: none; stroke: red; opacity: 1.0; visibility: visible; }
		.TextArea { fill: none; stroke: yellow; opacity: 1.0; visibility: visible; }
		.Line { fill: green; stroke: none; opacity: 0.3; visibility: visible; }
		.Balloon { fill: none; stroke: cyan; opacity: 1.0; visibility: visible; }
		.Letter { fill: none; stroke: blue; opacity: 1.0; visibility: visible; }
		.Object { fill: none; stroke: yellow; opacity: 1.0; visibility: visible; }
		.Page { fill: none; stroke: white; opacity: 0.5; visibility: visible; image-rendering: optimizeSpeed; }
		.Noise { fill: none; stroke: pink; opacity: 1.0; visibility: hidden; }
		.Debug { fill: none; stroke: red; opacity: 1.0; visibility: visible; }
		.Unclassified { fill: none; stroke: orange; opacity: 1.0; visibility: hidden; }
]]></style>
    <svg contentScriptType="text/ecmascript" xmlns:xlink="http://www.w3.org/1999/xlink" zoomAndPan="magnify" class="Panel" contentStyleType="text/css" preserveAspectRatio="xMidYMid meet" xmlns="http://www.w3.org/2000/svg" version="1.0"/>
    <svg contentScriptType="text/ecmascript" xmlns:xlink="http://www.w3.org/1999/xlink" zoomAndPan="magnify" class="Letter" contentStyleType="text/css" preserveAspectRatio="xMidYMid meet" xmlns="http://www.w3.org/2000/svg" version="1.0"/>
    <svg contentScriptType="text/ecmascript" xmlns:xlink="http://www.w3.org/1999/xlink" zoomAndPan="magnify" class="Line" contentStyleType="text/css" preserveAspectRatio="xMidYMid meet" xmlns="http://www.w3.org/2000/svg" version="1.0">
        <polygon points="20,19 182,19 182,35 20,35 20,19"/>
        <polygon points="31,37 171,37 171,51 31,51 31,37"/>
        <polygon points="55,82 193,82 193,94 55,94 55,82"/>
        <polygon points="50,94 200,94 200,109 50,109 50,94"/>
        <polygon points="67,111 182,111 182,124 67,124 67,111"/>
        <polygon points="155,174 229,174 229,186 155,186 155,174"/>
        <polygon points="144,187 238,187 238,199 144,199 144,187"/>
        <polygon points="146,201 237,201 237,214 146,214 146,201"/>
        <polygon points="280,37 372,37 372,49 280,49 280,37"/>
        <polygon points="283,50 369,50 369,63 283,63 283,50"/>
        <polygon points="273,64 378,64 378,79 273,79 273,64"/>
        <polygon points="283,79 367,79 367,90 283,90 283,79"/>
    </svg>
    <svg contentScriptType="text/ecmascript" xmlns:xlink="http://www.w3.org/1999/xlink" zoomAndPan="magnify" class="TextArea" contentStyleType="text/css" preserveAspectRatio="xMidYMid meet" xmlns="http://www.w3.org/2000/svg" version="1.0">
        <polygon points="20,19 20,35 31,51 171,51 182,35 182,19 20,19"/>
        <polygon points="55,82 50,94 50,109 67,124 182,124 200,109 200,94 193,82 55,82"/>
        <polygon points="155,174 144,187 144,199 146,214 237,214 238,199 238,187 229,174 155,174"/>
        <polygon points="280,37 273,64 273,79 283,90 367,90 378,79 378,64 372,37 280,37"/>
    </svg>
    <svg contentScriptType="text/ecmascript" xmlns:xlink="http://www.w3.org/1999/xlink" zoomAndPan="magnify" class="Balloon" contentStyleType="text/css" preserveAspectRatio="xMidYMid meet" xmlns="http://www.w3.org/2000/svg" version="1.0">
        <polygon points="16,21 14,23 14,24 13,26 13,29 13,31 13,34 13,38 13,41 14,44 15,48 18,54 21,56 23,57 26,58 30,58 34,58 38,58 40,58 42,58 44,58 46,58 50,58 52,58 54,58 56,58 58,58 60,58 62,58 64,58 66,58 68,58 70,58 72,58 74,58 76,58 78,58 80,58 82,58 84,58 86,58 88,58 90,57 92,57 94,57 95,56 97,56 99,56 102,57 105,56 107,56 109,56 111,56 113,56 115,56 117,56 119,56 121,56 122,57 124,57 126,57 128,57 130,58 134,57 136,57 138,57 140,57 142,57 144,57 146,57 149,58 153,58 155,58 157,58 159,58 161,58 163,58 166,59 169,58 171,58 174,57 178,56 182,54 185,50 187,48 187,45 188,42 189,38 189,35 190,32 189,29 189,26 188,25 188,23 187,21 187,19 187,16 183,14 180,14 176,14 167,14 164,14 162,14 160,13 157,13 153,13 149,13 145,13 141,13 137,13 133,13 129,13 127,13 125,13 123,13 121,13 119,13 117,13 115,13 113,13 111,13 109,13 107,13 105,13 103,13 101,13 99,13 97,13 95,13 93,13 91,13 89,13 87,13 85,13 83,13 81,13 79,13 77,13 75,13 73,13 71,13 69,13 66,12 63,13 60,12 57,13 54,12 51,13 48,14 44,14 42,14 39,13 36,13 32,13 30,13 28,14 26,14 24,14 22,13 20,14 16,21"/>
        <polygon points="52,78 49,80 47,83 46,85 44,87 43,89 44,91 42,94 41,98 41,103 41,108 41,113 42,116 43,119 44,122 46,124 47,126 49,128 51,131 55,132 58,133 62,133 66,133 70,133 74,133 78,133 82,133 86,133 88,133 90,133 92,133 94,133 96,132 98,132 100,132 102,132 104,132 106,132 108,132 110,132 112,132 114,132 116,132 118,132 120,132 122,132 124,132 126,132 128,132 130,132 132,132 134,132 136,132 139,131 141,131 143,131 145,131 147,131 149,131 151,131 153,131 155,131 157,131 159,131 161,131 163,131 165,130 167,131 168,132 172,131 176,131 179,130 183,130 185,130 187,130 189,129 192,127 195,126 199,125 202,122 205,119 207,116 208,113 209,111 210,109 212,107 213,104 213,101 211,99 210,97 210,95 210,92 207,87 205,82 203,78 201,77 198,76 194,76 190,76 190,76 188,76 186,76 184,76 182,76 180,75 178,75 176,75 174,75 172,75 170,75 168,75 166,75 164,75 162,75 160,75 158,75 156,75 154,75 152,75 150,75 148,75 146,74 144,74 142,74 140,72 135,72 131,72 129,72 126,73 123,74 120,75 118,75 116,75 114,75 112,75 110,75 108,75 106,75 104,75 102,75 100,75 98,75 96,75 94,75 92,75 90,75 88,75 86,75 84,75 82,75 80,75 78,75 76,75 74,75 72,75 70,75 68,75 66,75 64,75 63,76 61,76 59,76 56,77 54,77 52,78"/>
        <polygon points="151,167 149,168 147,171 145,173 144,175 143,178 141,182 139,184 138,187 137,190 137,194 137,197 138,201 138,205 139,208 139,211 141,214 143,218 145,220 148,222 151,223 154,224 157,225 159,225 162,226 165,227 170,228 173,228 175,227 177,227 179,227 181,227 184,226 187,227 190,226 193,227 196,226 199,227 202,226 205,225 208,226 211,225 215,225 219,224 223,224 227,224 231,224 233,224 235,224 237,223 239,221 241,219 242,216 243,212 244,210 244,207 244,204 245,201 245,198 244,195 244,192 244,188 244,186 245,183 243,181 242,179 241,176 240,173 238,171 236,170 234,168 232,166 230,165 227,166 225,166 223,166 220,165 217,164 214,165 211,164 207,164 203,164 199,164 199,164 197,164 195,164 193,163 191,163 189,163 187,163 185,163 183,163 181,162 178,162 175,164 172,164 169,163 165,163 163,163 161,163 159,164 156,165 153,166 151,167"/>
        <polygon points="280,32 278,32 276,33 275,34 272,35 271,37 269,39 269,42 268,44 268,47 268,49 267,51 267,53 267,55 267,58 267,61 267,64 267,67 267,69 267,72 267,77 267,80 268,83 269,86 269,89 270,92 272,95 274,97 276,99 279,100 283,100 285,100 288,101 292,101 294,101 296,101 300,100 304,100 308,100 312,100 316,100 320,100 324,100 328,100 332,100 334,100 336,100 338,100 340,100 342,100 344,100 346,100 348,100 350,100 352,100 354,100 356,99 358,99 360,99 362,99 365,98 368,99 371,98 375,97 377,95 378,93 379,91 380,90 380,88 381,86 383,85 383,83 384,80 384,78 384,76 385,73 385,70 385,67 385,64 385,62 385,60 385,58 384,56 384,53 383,50 381,48 380,46 380,43 378,40 377,37 373,32 370,30 367,29 363,28 359,28 355,27 351,27 347,27 343,27 341,27 339,27 337,27 335,27 333,27 330,26 327,27 323,27 319,27 317,27 315,27 313,27 311,27 308,28 305,27 302,28 299,27 296,28 292,28 290,29 288,29 285,30 283,30 281,31 280,32"/>
    </svg>
    <desc method="Christophe's extractor" lastModificationDate="Wed Feb 13 17:28:22 JST 2013"/>
</svg>
