<?xml version="1.0" encoding="UTF-8"?>
<svg xmlns:xlink="http://www.w3.org/1999/xlink" xmlns="http://www.w3.org/2000/svg" contentScriptType="text/ecmascript" width="1230mm" zoomAndPan="magnify" contentStyleType="text/css" height="1705mm" viewBox="0 0 2461 3411" preserveAspectRatio="xMidYMid meet" version="1.0">
    <title>LAMISSEB_LESNOEILS1_007.jpg</title>
    <svg contentScriptType="text/ecmascript" xmlns:xlink="http://www.w3.org/1999/xlink" zoomAndPan="magnify" class="Page" contentStyleType="text/css" preserveAspectRatio="xMidYMid meet" xmlns="http://www.w3.org/2000/svg" version="1.0">
        <image x="0" y="0" fill-opacity="0.5" width="2461" xmlns:xlink="http://www.w3.org/1999/xlink" xlink:href="LAMISSEB_LESNOEILS1_007.jpg" xlink:type="simple" xlink:actuate="onLoad" opacity="0.5" height="3411" preserveAspectRatio="xMidYMid meet" xlink:show="embed"/>
    </svg>
    <style type="text/css" xml:space="preserve"><![CDATA[
		* { stroke-width: 1; stroke-linejoin: round; }
		.Panel { fill: none; stroke: red; opacity: 1.0; visibility: visible; }
		.TextArea { fill: none; stroke: yellow; opacity: 1.0; visibility: visible; }
		.Line { fill: green; stroke: none; opacity: 0.3; visibility: visible; }
		.Balloon { fill: none; stroke: cyan; opacity: 1.0; visibility: visible; }
		.Letter { fill: none; stroke: blue; opacity: 1.0; visibility: visible; }
		.Object { fill: none; stroke: yellow; opacity: 1.0; visibility: visible; }
		.Page { fill: none; stroke: white; opacity: 0.5; visibility: visible; image-rendering: optimizeSpeed; }
		.Noise { fill: none; stroke: pink; opacity: 1.0; visibility: hidden; }
		.Debug { fill: none; stroke: red; opacity: 1.0; visibility: visible; }
		.Unclassified { fill: none; stroke: orange; opacity: 1.0; visibility: hidden; }
]]></style>
    <svg contentScriptType="text/ecmascript" xmlns:xlink="http://www.w3.org/1999/xlink" zoomAndPan="magnify" class="Panel" contentStyleType="text/css" preserveAspectRatio="xMidYMid meet" xmlns="http://www.w3.org/2000/svg" version="1.0"/>
    <svg contentScriptType="text/ecmascript" xmlns:xlink="http://www.w3.org/1999/xlink" zoomAndPan="magnify" class="Letter" contentStyleType="text/css" preserveAspectRatio="xMidYMid meet" xmlns="http://www.w3.org/2000/svg" version="1.0"/>
    <svg contentScriptType="text/ecmascript" xmlns:xlink="http://www.w3.org/1999/xlink" zoomAndPan="magnify" class="Line" contentStyleType="text/css" preserveAspectRatio="xMidYMid meet" xmlns="http://www.w3.org/2000/svg" version="1.0">
        <polygon points="335,204 762,204 762,242 335,242 335,204"/>
        <polygon points="309,247 788,247 788,284 309,284 309,247"/>
        <polygon points="326,290 771,290 771,327 326,327 326,290"/>
        <polygon points="368,336 727,336 727,370 368,370 368,336"/>
        <polygon points="1702,163 2158,163 2158,201 1702,201 1702,163"/>
        <polygon points="1758,949 2138,949 2138,992 1758,992 1758,949"/>
        <polygon points="999,971 1523,971 1523,1008 999,1008 999,971"/>
        <polygon points="1071,1011 1447,1011 1447,1044 1071,1044 1071,1011"/>
        <polygon points="355,966 745,966 745,1008 355,1008 355,966"/>
        <polygon points="361,1015 739,1015 739,1048 361,1048 361,1015"/>
        <polygon points="358,1057 740,1057 740,1091 358,1091 358,1057"/>
        <polygon points="1807,1746 2068,1746 2068,1781 1807,1781 1807,1746"/>
        <polygon points="1014,1747 1508,1747 1508,1792 1014,1792 1014,1747"/>
        <polygon points="1030,1802 1497,1802 1497,1838 1030,1838 1030,1802"/>
        <polygon points="1099,1842 1429,1842 1429,1878 1099,1878 1099,1842"/>
        <polygon points="340,1746 786,1746 786,1788 340,1788 340,1746"/>
        <polygon points="398,1797 729,1797 729,1831 398,1831 398,1797"/>
        <polygon points="366,2547 778,2547 778,2587 366,2587 366,2547"/>
        <polygon points="368,2598 779,2598 779,2630 368,2630 368,2598"/>
        <polygon points="1060,2544 1470,2544 1470,2579 1060,2579 1060,2544"/>
        <polygon points="1124,2589 1408,2589 1408,2625 1124,2625 1124,2589"/>
    </svg>
    <svg contentScriptType="text/ecmascript" xmlns:xlink="http://www.w3.org/1999/xlink" zoomAndPan="magnify" class="TextArea" contentStyleType="text/css" preserveAspectRatio="xMidYMid meet" xmlns="http://www.w3.org/2000/svg" version="1.0">
        <polygon points="335,204 309,247 309,284 326,327 368,370 727,370 771,327 788,284 788,247 762,204 335,204"/>
        <polygon points="1702,163 1702,201 2158,201 2158,163 1702,163"/>
        <polygon points="1758,949 1758,992 2138,992 2138,949 1758,949"/>
        <polygon points="999,971 999,1008 1071,1044 1447,1044 1523,1008 1523,971 999,971"/>
        <polygon points="355,966 355,1008 358,1091 740,1091 745,1008 745,966 355,966"/>
        <polygon points="1807,1746 1807,1781 2068,1781 2068,1746 1807,1746"/>
        <polygon points="1014,1747 1014,1792 1030,1838 1099,1878 1429,1878 1497,1838 1508,1792 1508,1747 1014,1747"/>
        <polygon points="340,1746 340,1788 398,1831 729,1831 786,1788 786,1746 340,1746"/>
        <polygon points="366,2547 366,2587 368,2630 779,2630 779,2598 778,2547 366,2547"/>
        <polygon points="1060,2544 1060,2579 1124,2625 1408,2625 1470,2579 1470,2544 1060,2544"/>
    </svg>
    <svg contentScriptType="text/ecmascript" xmlns:xlink="http://www.w3.org/1999/xlink" zoomAndPan="magnify" class="Balloon" contentStyleType="text/css" preserveAspectRatio="xMidYMid meet" xmlns="http://www.w3.org/2000/svg" version="1.0">
        <polygon points="315,206 309,213 304,218 303,225 303,232 303,239 303,246 303,253 303,260 303,267 303,274 303,281 303,288 303,295 303,302 303,309 303,316 304,323 306,331 308,338 311,345 314,352 317,358 319,365 322,371 325,377 329,380 333,383 337,385 341,388 345,392 347,394 349,397 352,397 356,398 360,399 364,401 368,403 372,406 376,410 380,410 384,410 388,410 393,411 400,411 407,412 414,413 421,414 428,415 435,413 442,413 450,413 458,413 466,413 474,413 482,413 490,413 497,412 504,412 510,413 518,413 526,413 534,413 542,412 550,412 557,410 565,409 573,408 581,408 589,408 597,408 605,408 613,408 621,408 629,408 637,408 645,408 653,408 661,408 669,408 677,408 685,408 692,407 700,405 707,403 714,402 721,401 728,400 735,399 742,398 749,397 758,394 766,392 773,387 779,380 785,371 789,363 793,356 793,349 793,342 794,335 794,328 794,321 794,314 795,307 795,300 795,293 795,286 795,279 795,272 795,265 795,258 795,251 795,244 795,237 795,230 795,223 794,216 791,209 789,202 785,196 775,190 765,184 755,179 746,175 739,171 732,171 725,171 718,171 711,171 704,171 697,171 690,171 683,171 676,171 669,171 662,171 655,171 648,171 641,171 634,171 627,171 620,171 613,171 606,171 599,171 592,171 585,171 578,171 571,171 564,171 557,171 550,171 543,171 536,171 529,171 522,171 515,171 508,171 501,171 494,171 487,171 480,171 473,171 466,171 459,171 452,171 445,171 438,171 431,171 424,171 417,171 410,171 403,171 396,171 389,172 382,173 375,174 368,176 361,178 355,181 348,183 341,186 334,189 327,192 321,199 315,206"/>
        <polygon points="1701,157 1696,165 1696,172 1696,179 1696,186 1696,193 1697,200 1709,206 1719,209 1728,211 1736,213 1743,213 1750,213 1757,213 1764,213 1772,213 1779,213 1786,213 1794,213 1801,213 1808,213 1815,213 1822,213 1829,213 1836,213 1843,213 1850,213 1857,213 1864,213 1871,213 1878,213 1885,213 1892,213 1899,213 1906,214 1913,216 1920,217 1927,217 1934,217 1941,218 1948,220 1956,219 1964,219 1972,219 1978,220 1984,220 1991,220 1998,220 2005,220 2012,220 2019,220 2026,220 2033,220 2040,220 2047,220 2054,220 2061,220 2068,220 2075,220 2082,220 2089,220 2096,220 2103,219 2110,218 2117,217 2124,216 2131,215 2138,214 2145,213 2152,210 2159,207 2164,199 2164,192 2164,185 2164,178 2164,171 2165,164 2151,158 2143,158 2135,158 2127,158 2119,158 2111,158 2103,158 2095,158 2087,158 2079,158 2071,158 2064,158 2057,158 2050,158 2043,158 2036,158 2029,158 2022,158 2015,158 2008,158 2001,157 1994,156 1987,154 1981,154 1974,153 1967,152 1960,150 1953,150 1946,150 1939,150 1932,150 1925,150 1918,150 1911,150 1904,150 1897,150 1890,150 1883,150 1876,150 1869,150 1862,149 1855,148 1848,148 1841,148 1834,148 1827,148 1820,148 1813,148 1806,148 1799,148 1792,148 1785,148 1778,148 1771,148 1764,148 1757,148 1750,148 1743,148 1736,148 1729,149 1722,150 1715,151 1708,154 1701,157"/>
        <polygon points="1757,944 1753,949 1753,955 1753,961 1753,971 1753,980 1753,988 1755,996 1760,999 1765,1002 1771,1006 1776,1010 1782,1010 1788,1010 1794,1010 1800,1010 1806,1010 1812,1010 1818,1010 1824,1010 1830,1011 1836,1012 1842,1013 1848,1014 1854,1015 1860,1016 1866,1017 1872,1018 1878,1019 1884,1020 1890,1021 1896,1021 1902,1022 1908,1023 1914,1024 1920,1023 1925,1022 1930,1020 1936,1020 1942,1020 1948,1020 1954,1020 1960,1020 1966,1020 1972,1020 1978,1020 1984,1019 1990,1019 1996,1019 2002,1019 2008,1019 2014,1019 2020,1019 2026,1018 2032,1018 2038,1018 2044,1018 2050,1018 2056,1017 2062,1014 2068,1012 2074,1011 2080,1010 2086,1009 2092,1008 2098,1007 2104,1006 2110,1005 2116,1004 2122,1003 2127,1000 2133,998 2139,997 2143,989 2145,980 2146,973 2146,967 2146,961 2144,955 2143,949 2139,944 2135,940 2129,940 2123,940 2117,940 2111,940 2105,940 2099,940 2093,940 2087,940 2081,940 2075,940 2069,940 2063,940 2057,940 2051,940 2045,940 2039,940 2033,940 2027,940 2021,940 2015,940 2009,940 2003,940 1997,940 1991,940 1985,940 1979,940 1973,940 1967,940 1961,940 1955,940 1949,940 1943,940 1937,940 1931,940 1925,940 1919,940 1913,940 1907,940 1901,940 1895,940 1889,940 1883,940 1877,940 1871,940 1865,940 1859,940 1853,940 1847,940 1841,940 1835,940 1829,940 1823,940 1817,940 1811,940 1805,940 1799,940 1793,940 1787,940 1781,940 1775,941 1769,942 1763,943 1757,944"/>
        <polygon points="996,963 995,966 994,969 994,973 994,977 994,981 994,985 994,989 994,993 994,997 994,1001 994,1006 994,1011 994,1016 994,1022 995,1029 996,1036 997,1043 1001,1049 1006,1054 1011,1059 1016,1064 1023,1064 1030,1064 1037,1064 1044,1064 1051,1064 1058,1064 1065,1064 1072,1064 1079,1064 1086,1064 1093,1064 1100,1064 1107,1064 1114,1064 1121,1064 1128,1064 1135,1064 1142,1064 1149,1064 1156,1064 1163,1064 1170,1064 1177,1064 1184,1065 1191,1066 1198,1067 1205,1068 1212,1068 1219,1068 1225,1068 1229,1068 1233,1068 1237,1068 1241,1068 1245,1068 1249,1068 1253,1068 1257,1068 1263,1068 1270,1068 1277,1068 1284,1068 1291,1068 1298,1068 1305,1068 1312,1068 1319,1068 1326,1068 1333,1068 1340,1068 1347,1068 1354,1068 1361,1068 1368,1068 1375,1068 1382,1068 1389,1067 1396,1066 1403,1065 1410,1064 1417,1063 1424,1062 1431,1061 1438,1060 1445,1059 1451,1056 1458,1054 1465,1052 1472,1050 1479,1047 1486,1044 1493,1041 1499,1036 1505,1032 1511,1028 1517,1024 1522,1019 1525,1013 1528,1006 1528,999 1528,992 1528,985 1528,978 1528,971 1523,966 1510,962 1498,958 1486,954 1475,953 1464,952 1453,951 1442,950 1431,950 1420,950 1410,950 1400,950 1390,950 1380,950 1370,950 1360,950 1350,950 1340,950 1330,950 1320,950 1310,950 1300,951 1290,952 1281,952 1276,952 1268,952 1261,952 1254,952 1247,952 1240,952 1233,952 1226,952 1219,952 1212,952 1205,952 1198,952 1191,952 1184,952 1177,952 1170,952 1163,952 1156,952 1149,952 1142,952 1135,952 1128,952 1121,952 1114,952 1107,952 1100,952 1093,952 1086,952 1079,952 1072,952 1065,952 1058,952 1051,952 1044,953 1037,954 1030,955 1023,956 1016,957 1010,960 1003,962 996,963"/>
        <polygon points="366,959 360,960 354,961 350,965 349,971 349,979 349,987 348,996 346,1005 346,1013 346,1020 346,1026 346,1032 346,1038 346,1044 346,1050 346,1056 346,1062 346,1068 346,1074 346,1080 347,1086 350,1092 355,1097 360,1102 365,1106 370,1110 376,1110 382,1111 388,1111 394,1111 400,1111 406,1111 412,1112 418,1112 424,1112 430,1112 436,1112 442,1112 448,1112 454,1112 460,1112 466,1112 472,1112 478,1112 484,1112 490,1112 496,1112 502,1112 508,1112 514,1112 520,1112 526,1112 532,1112 538,1112 544,1112 550,1112 556,1112 562,1113 568,1114 574,1115 577,1116 582,1118 587,1120 593,1120 598,1119 604,1119 610,1119 616,1118 622,1117 627,1116 633,1116 639,1116 645,1116 651,1116 657,1116 663,1116 669,1116 675,1113 681,1111 687,1110 693,1109 699,1108 705,1107 711,1106 717,1105 723,1104 729,1102 735,1100 740,1096 745,1092 749,1086 753,1081 756,1076 759,1067 761,1061 761,1055 761,1049 761,1043 761,1037 761,1031 761,1025 761,1019 761,1013 761,1007 761,1001 759,995 757,989 755,983 753,978 751,972 750,966 746,961 741,957 737,957 732,957 726,957 720,957 714,957 708,957 702,957 696,957 690,957 684,957 678,957 672,957 666,957 660,957 654,957 648,957 642,957 636,957 630,957 624,957 618,957 612,957 606,957 600,957 594,957 588,957 582,957 576,957 570,957 564,957 558,957 552,957 546,957 540,957 534,957 528,957 522,957 516,957 510,957 504,957 498,957 492,957 486,957 480,957 474,957 468,957 462,957 456,957 450,957 444,957 438,957 432,957 426,957 420,957 414,957 408,957 402,957 396,957 390,957 384,957 378,957 372,958 366,959"/>
        <polygon points="1802,1744 1798,1753 1795,1766 1795,1777 1796,1787 1802,1790 1808,1793 1816,1795 1824,1797 1833,1797 1842,1797 1851,1797 1860,1797 1869,1797 1878,1797 1887,1797 1896,1797 1905,1797 1913,1796 1922,1796 1931,1796 1941,1795 1950,1795 1959,1795 1968,1795 1977,1795 1986,1795 1995,1794 2004,1793 2013,1793 2022,1793 2031,1793 2040,1793 2049,1792 2058,1792 2065,1787 2073,1783 2073,1774 2073,1760 2073,1749 2072,1743 2069,1738 2064,1737 2058,1736 2052,1734 2044,1733 2035,1733 2027,1733 2018,1733 2009,1733 2000,1733 1991,1733 1982,1733 1973,1733 1964,1733 1955,1734 1946,1734 1937,1734 1928,1734 1919,1734 1909,1734 1900,1735 1891,1735 1882,1735 1873,1735 1864,1735 1855,1735 1846,1735 1837,1737 1828,1738 1819,1738 1810,1739 1802,1744"/>
        <polygon points="1015,1739 1010,1744 1009,1751 1009,1758 1009,1764 1009,1770 1009,1776 1009,1782 1009,1788 1009,1794 1009,1800 1009,1806 1010,1812 1011,1818 1012,1824 1015,1830 1017,1836 1020,1842 1023,1848 1026,1854 1030,1859 1034,1864 1039,1869 1043,1874 1045,1879 1047,1882 1049,1885 1051,1888 1053,1891 1056,1891 1059,1891 1062,1891 1065,1891 1068,1891 1070,1892 1073,1895 1077,1895 1083,1895 1089,1895 1095,1895 1101,1895 1107,1895 1113,1895 1119,1895 1125,1895 1131,1895 1137,1895 1143,1896 1149,1896 1155,1896 1161,1897 1167,1899 1173,1899 1179,1899 1185,1899 1191,1899 1197,1899 1203,1900 1209,1901 1215,1901 1221,1901 1227,1901 1233,1902 1239,1904 1246,1904 1252,1905 1258,1906 1261,1906 1264,1906 1268,1906 1272,1906 1276,1906 1280,1906 1286,1906 1292,1906 1298,1906 1304,1906 1310,1906 1316,1906 1322,1906 1328,1906 1334,1906 1340,1906 1346,1906 1352,1906 1358,1906 1364,1906 1370,1906 1376,1905 1382,1904 1388,1903 1394,1902 1400,1901 1406,1900 1412,1899 1418,1898 1424,1897 1430,1896 1436,1895 1442,1892 1448,1890 1455,1886 1461,1883 1467,1880 1473,1877 1478,1873 1483,1869 1488,1865 1492,1860 1496,1855 1500,1850 1503,1844 1507,1839 1509,1833 1511,1827 1511,1821 1511,1815 1511,1809 1511,1803 1512,1797 1513,1790 1513,1783 1513,1776 1513,1770 1513,1764 1513,1758 1513,1752 1513,1746 1508,1742 1496,1738 1484,1735 1473,1735 1462,1735 1452,1735 1442,1735 1432,1735 1422,1735 1412,1735 1402,1735 1392,1735 1382,1735 1372,1735 1362,1735 1352,1735 1343,1735 1336,1735 1329,1735 1322,1735 1315,1735 1308,1735 1301,1735 1294,1735 1287,1735 1280,1735 1273,1735 1266,1735 1259,1735 1252,1735 1245,1735 1238,1735 1231,1735 1224,1735 1217,1735 1210,1735 1203,1735 1196,1735 1189,1735 1182,1735 1175,1735 1168,1735 1161,1735 1154,1735 1147,1735 1140,1735 1133,1735 1126,1735 1119,1735 1112,1735 1105,1735 1098,1735 1091,1735 1084,1735 1077,1735 1070,1735 1063,1735 1057,1735 1051,1735 1045,1735 1039,1735 1033,1736 1027,1737 1021,1738 1015,1739"/>
        <polygon points="341,1741 335,1744 331,1748 331,1754 331,1760 331,1766 331,1772 331,1778 331,1784 332,1790 333,1796 336,1802 338,1808 341,1814 344,1820 348,1825 353,1829 358,1832 363,1835 368,1839 373,1841 378,1844 384,1844 390,1844 396,1844 402,1844 408,1844 414,1844 420,1844 426,1844 432,1844 438,1844 444,1844 450,1844 456,1844 462,1844 468,1844 474,1844 480,1844 486,1844 492,1844 498,1844 504,1844 510,1844 516,1844 522,1844 528,1844 534,1844 540,1844 547,1844 553,1845 559,1846 561,1846 564,1846 567,1846 573,1846 579,1846 585,1846 591,1846 597,1846 603,1846 609,1846 615,1846 621,1846 627,1846 633,1846 639,1846 645,1846 651,1846 657,1846 663,1846 669,1846 675,1846 681,1846 687,1846 693,1846 699,1846 705,1846 711,1845 717,1844 723,1843 729,1842 735,1841 741,1840 747,1839 753,1836 759,1834 764,1830 769,1826 774,1822 779,1816 782,1810 786,1805 790,1800 790,1794 791,1788 791,1782 791,1776 791,1770 791,1764 791,1758 791,1752 791,1746 781,1741 774,1740 767,1740 760,1740 753,1740 746,1740 739,1740 732,1740 725,1740 718,1740 711,1740 704,1740 697,1740 690,1740 683,1740 676,1740 669,1740 662,1740 655,1740 648,1740 641,1740 634,1740 627,1740 620,1740 613,1740 606,1740 599,1740 592,1740 585,1740 578,1740 571,1740 564,1740 557,1740 550,1740 543,1740 536,1740 529,1740 522,1740 515,1740 508,1740 501,1740 494,1740 487,1740 480,1740 473,1740 466,1740 459,1740 452,1740 445,1740 438,1740 431,1740 424,1740 417,1740 410,1740 403,1740 396,1740 389,1740 382,1740 375,1740 370,1740 364,1740 359,1740 353,1740 347,1740 341,1741"/>
        <polygon points="367,2536 362,2540 361,2546 361,2552 361,2558 361,2564 361,2570 361,2576 361,2582 361,2588 361,2595 361,2602 362,2609 362,2616 362,2623 363,2630 368,2635 375,2637 381,2639 387,2641 393,2641 399,2641 405,2642 411,2643 417,2645 423,2645 429,2645 435,2645 441,2645 447,2645 453,2645 459,2645 465,2645 471,2645 478,2645 485,2645 492,2645 499,2645 506,2645 513,2645 520,2645 527,2645 533,2645 540,2644 547,2643 554,2642 561,2642 568,2642 575,2642 582,2642 589,2642 595,2642 601,2642 607,2642 613,2642 619,2642 625,2642 631,2642 637,2642 643,2642 649,2642 655,2642 662,2642 669,2642 676,2642 683,2642 690,2642 697,2642 704,2642 711,2642 718,2642 725,2642 732,2642 739,2642 746,2641 753,2641 760,2641 767,2640 774,2640 779,2635 784,2624 784,2617 784,2610 784,2603 784,2596 784,2589 784,2582 784,2575 784,2568 784,2561 784,2554 784,2547 778,2542 772,2542 766,2541 760,2541 754,2541 748,2541 742,2541 736,2541 730,2541 724,2541 718,2541 712,2541 706,2541 700,2541 694,2541 688,2541 682,2541 676,2541 670,2541 664,2541 658,2541 652,2541 646,2541 640,2541 634,2541 628,2540 622,2538 616,2538 610,2538 604,2537 598,2537 592,2537 586,2537 580,2537 574,2536 568,2535 562,2533 555,2532 547,2531 541,2530 534,2530 527,2530 520,2530 513,2530 506,2530 499,2530 492,2530 485,2530 478,2530 471,2530 464,2530 457,2530 450,2530 443,2530 436,2530 429,2530 422,2530 415,2530 408,2530 401,2530 394,2530 387,2531 380,2531 373,2532 367,2536"/>
        <polygon points="1054,2548 1054,2552 1054,2556 1054,2560 1054,2564 1054,2569 1054,2576 1055,2583 1056,2590 1061,2595 1066,2600 1072,2605 1078,2610 1090,2618 1102,2624 1113,2627 1124,2630 1135,2633 1145,2635 1154,2637 1162,2637 1170,2637 1178,2637 1186,2637 1194,2637 1202,2637 1210,2637 1217,2638 1224,2638 1231,2639 1238,2640 1245,2641 1252,2642 1259,2642 1264,2642 1269,2642 1274,2642 1279,2642 1284,2642 1289,2642 1296,2642 1304,2642 1311,2642 1318,2642 1325,2642 1332,2642 1339,2642 1346,2642 1353,2642 1360,2642 1367,2642 1374,2642 1381,2642 1388,2642 1395,2641 1402,2640 1409,2639 1416,2638 1423,2637 1430,2636 1437,2635 1444,2634 1451,2633 1457,2628 1462,2623 1468,2619 1473,2614 1474,2607 1474,2600 1475,2593 1475,2586 1476,2579 1476,2572 1477,2565 1477,2558 1477,2551 1477,2544 1472,2539 1461,2538 1450,2537 1440,2536 1432,2536 1424,2536 1416,2536 1408,2536 1401,2536 1394,2536 1387,2536 1380,2536 1373,2536 1366,2536 1359,2536 1352,2536 1345,2536 1338,2536 1331,2536 1324,2536 1317,2536 1310,2536 1303,2536 1296,2536 1289,2536 1282,2536 1275,2536 1268,2536 1261,2536 1254,2536 1247,2536 1240,2536 1233,2536 1226,2536 1219,2536 1212,2536 1205,2536 1198,2536 1191,2536 1184,2536 1177,2536 1170,2536 1163,2536 1156,2536 1149,2536 1142,2536 1135,2536 1128,2536 1121,2536 1114,2536 1107,2536 1100,2536 1093,2536 1086,2536 1079,2536 1072,2536 1065,2536 1058,2539 1054,2544 1054,2548"/>
    </svg>
    <desc method="Christophe's extractor" lastModificationDate="Wed Feb 13 18:10:58 JST 2013"/>
</svg>
