<?xml version="1.0" encoding="UTF-8"?>
<svg xmlns:xlink="http://www.w3.org/1999/xlink" xmlns="http://www.w3.org/2000/svg" contentScriptType="text/ecmascript" width="565mm" zoomAndPan="magnify" contentStyleType="text/css" height="800mm" viewBox="0 0 1131 1600" preserveAspectRatio="xMidYMid meet" version="1.0">
    <title>LUBBIN_LESBULLESDULABO_005.jpg</title>
    <svg contentScriptType="text/ecmascript" xmlns:xlink="http://www.w3.org/1999/xlink" zoomAndPan="magnify" class="Page" contentStyleType="text/css" preserveAspectRatio="xMidYMid meet" xmlns="http://www.w3.org/2000/svg" version="1.0">
        <image x="0" y="0" fill-opacity="0.5" width="1131" xmlns:xlink="http://www.w3.org/1999/xlink" xlink:href="LUBBIN_LESBULLESDULABO_005.jpg" xlink:type="simple" xlink:actuate="onLoad" opacity="0.5" height="1600" preserveAspectRatio="xMidYMid meet" xlink:show="embed"/>
    </svg>
    <style type="text/css" xml:space="preserve"><![CDATA[
		* { stroke-width: 1; stroke-linejoin: round; }
		.Panel { fill: none; stroke: red; opacity: 1.0; visibility: visible; }
		.TextArea { fill: none; stroke: yellow; opacity: 1.0; visibility: visible; }
		.Line { fill: green; stroke: none; opacity: 0.3; visibility: visible; }
		.Balloon { fill: none; stroke: cyan; opacity: 1.0; visibility: visible; }
		.Letter { fill: none; stroke: blue; opacity: 1.0; visibility: visible; }
		.Object { fill: none; stroke: yellow; opacity: 1.0; visibility: visible; }
		.Page { fill: none; stroke: white; opacity: 0.5; visibility: visible; image-rendering: optimizeSpeed; }
		.Noise { fill: none; stroke: pink; opacity: 1.0; visibility: hidden; }
		.Debug { fill: none; stroke: red; opacity: 1.0; visibility: visible; }
		.Unclassified { fill: none; stroke: orange; opacity: 1.0; visibility: hidden; }
]]></style>
    <svg contentScriptType="text/ecmascript" xmlns:xlink="http://www.w3.org/1999/xlink" zoomAndPan="magnify" class="Panel" contentStyleType="text/css" preserveAspectRatio="xMidYMid meet" xmlns="http://www.w3.org/2000/svg" version="1.0"/>
    <svg contentScriptType="text/ecmascript" xmlns:xlink="http://www.w3.org/1999/xlink" zoomAndPan="magnify" class="Letter" contentStyleType="text/css" preserveAspectRatio="xMidYMid meet" xmlns="http://www.w3.org/2000/svg" version="1.0"/>
    <svg contentScriptType="text/ecmascript" xmlns:xlink="http://www.w3.org/1999/xlink" zoomAndPan="magnify" class="Line" contentStyleType="text/css" preserveAspectRatio="xMidYMid meet" xmlns="http://www.w3.org/2000/svg" version="1.0">
        <polygon points="37,215 185,215 185,229 37,229 37,215"/>
        <polygon points="33,230 189,230 189,247 33,247 33,230"/>
        <polygon points="405,199 523,199 523,215 405,215 405,199"/>
        <polygon points="432,214 502,214 502,228 432,228 432,214"/>
        <polygon points="421,228 513,228 513,240 421,240 421,228"/>
        <polygon points="436,240 497,240 497,255 436,255 436,240"/>
        <polygon points="626,203 834,203 834,218 626,218 626,203"/>
        <polygon points="667,218 801,218 801,229 667,229 667,218"/>
        <polygon points="646,230 815,230 815,243 646,243 646,230"/>
        <polygon points="642,242 823,242 823,255 642,255 642,242"/>
        <polygon points="899,202 1100,202 1100,217 899,217 899,202"/>
        <polygon points="965,217 1100,217 1100,231 965,231 965,217"/>
        <polygon points="912,229 1099,229 1099,245 912,245 912,229"/>
        <polygon points="1000,243 1105,243 1105,257 1000,257 1000,243"/>
        <polygon points="1022,334 1072,334 1072,348 1022,348 1022,334"/>
        <polygon points="1034,349 1065,349 1065,360 1034,360 1034,349"/>
        <polygon points="536,385 649,385 649,402 536,402 536,385"/>
        <polygon points="510,400 668,400 668,415 510,415 510,400"/>
        <polygon points="510,415 675,415 675,428 510,428 510,415"/>
        <polygon points="535,427 651,427 651,441 535,441 535,427"/>
        <polygon points="560,441 625,441 625,454 560,454 560,441"/>
        <polygon points="579,524 608,524 608,538 579,538 579,524"/>
        <polygon points="556,538 624,538 624,550 556,550 556,538"/>
        <polygon points="52,565 108,565 108,579 52,579 52,565"/>
        <polygon points="44,579 113,579 113,594 44,594 44,579"/>
        <polygon points="49,591 110,591 110,605 49,605 49,591"/>
        <polygon points="27,603 131,603 131,619 27,619 27,603"/>
        <polygon points="317,651 391,651 391,663 317,663 317,651"/>
        <polygon points="309,663 399,663 399,678 309,678 309,663"/>
        <polygon points="310,676 388,676 388,689 310,689 310,676"/>
        <polygon points="295,689 412,689 412,703 295,703 295,689"/>
        <polygon points="300,703 399,703 399,716 300,716 300,703"/>
        <polygon points="312,716 396,716 396,728 312,728 312,716"/>
        <polygon points="294,728 406,728 406,744 294,744 294,728"/>
        <polygon points="303,742 403,742 403,754 303,754 303,742"/>
        <polygon points="320,755 388,755 388,769 320,769 320,755"/>
        <polygon points="326,768 382,768 382,780 326,780 326,768"/>
        <polygon points="315,779 392,779 392,795 315,795 315,779"/>
        <polygon points="308,794 392,794 392,807 308,807 308,794"/>
        <polygon points="531,617 618,617 618,628 531,628 531,617"/>
        <polygon points="515,627 629,627 629,638 515,638 515,627"/>
        <polygon points="516,637 629,637 629,647 516,647 516,637"/>
        <polygon points="486,646 660,646 660,658 486,658 486,646"/>
        <polygon points="509,657 636,657 636,667 509,667 509,657"/>
        <polygon points="477,665 668,665 668,677 477,677 477,665"/>
        <polygon points="524,675 622,675 622,686 524,686 524,675"/>
        <polygon points="515,685 629,685 629,696 515,696 515,685"/>
        <polygon points="515,694 629,694 629,705 515,705 515,694"/>
        <polygon points="840,649 889,649 889,664 840,664 840,649"/>
        <polygon points="835,662 892,662 892,676 835,676 835,662"/>
        <polygon points="977,675 1008,675 1008,687 977,687 977,675"/>
        <polygon points="961,685 1014,685 1014,698 961,698 961,685"/>
        <polygon points="887,799 913,799 913,814 887,814 887,799"/>
        <polygon points="866,813 936,813 936,827 866,827 866,813"/>
        <polygon points="853,825 943,825 943,838 853,838 853,825"/>
        <polygon points="828,838 973,838 973,852 828,852 828,838"/>
        <polygon points="850,851 945,851 945,865 850,865 850,851"/>
        <polygon points="450,853 769,853 769,886 450,886 450,853"/>
        <polygon points="438,894 780,894 780,925 438,925 438,894"/>
        <polygon points="392,928 825,928 825,964 392,964 392,928"/>
        <polygon points="489,1029 696,1029 696,1045 489,1045 489,1029"/>
        <polygon points="512,1045 679,1045 679,1063 512,1063 512,1045"/>
        <polygon points="47,1077 270,1077 270,1096 47,1096 47,1077"/>
        <polygon points="106,1092 216,1092 216,1109 106,1109 106,1092"/>
        <polygon points="340,1087 445,1087 445,1102 340,1102 340,1087"/>
        <polygon points="311,1099 463,1099 463,1118 311,1118 311,1099"/>
        <polygon points="522,1106 549,1106 549,1121 522,1121 522,1106"/>
        <polygon points="501,1117 570,1117 570,1133 501,1133 501,1117"/>
        <polygon points="478,1132 595,1132 595,1146 478,1146 478,1132"/>
        <polygon points="477,1146 591,1146 591,1161 477,1161 477,1146"/>
        <polygon points="491,1158 575,1158 575,1174 491,1174 491,1158"/>
        <polygon points="495,1173 580,1173 580,1187 495,1187 495,1173"/>
        <polygon points="497,1184 571,1184 571,1199 497,1199 497,1184"/>
        <polygon points="875,1313 941,1313 941,1327 875,1327 875,1313"/>
        <polygon points="864,1327 948,1327 948,1342 864,1342 864,1327"/>
        <polygon points="884,1347 980,1347 980,1363 884,1363 884,1347"/>
        <polygon points="891,1361 976,1361 976,1376 891,1376 891,1361"/>
        <polygon points="913,1375 953,1375 953,1390 913,1390 913,1375"/>
        <polygon points="881,1510 993,1510 993,1530 881,1530 881,1510"/>
        <polygon points="891,1529 987,1529 987,1550 891,1550 891,1529"/>
        <polygon points="169,1193 324,1193 324,1209 169,1209 169,1193"/>
        <polygon points="154,1209 339,1209 339,1226 154,1226 154,1209"/>
    </svg>
    <svg contentScriptType="text/ecmascript" xmlns:xlink="http://www.w3.org/1999/xlink" zoomAndPan="magnify" class="TextArea" contentStyleType="text/css" preserveAspectRatio="xMidYMid meet" xmlns="http://www.w3.org/2000/svg" version="1.0">
        <polygon points="37,215 33,230 33,247 189,247 189,230 185,215 37,215"/>
        <polygon points="405,199 405,215 421,240 436,255 497,255 513,240 523,215 523,199 405,199"/>
        <polygon points="626,203 626,218 642,255 823,255 834,218 834,203 626,203"/>
        <polygon points="899,202 899,217 912,245 1000,257 1105,257 1105,243 1100,202 899,202"/>
        <polygon points="1022,334 1022,348 1034,360 1065,360 1072,348 1072,334 1022,334"/>
        <polygon points="536,385 510,400 510,428 560,454 625,454 651,441 675,428 675,415 668,400 649,385 536,385"/>
        <polygon points="579,524 556,538 556,550 624,550 624,538 608,524 579,524"/>
        <polygon points="52,565 27,603 27,619 131,619 131,603 108,565 52,565"/>
        <polygon points="317,651 309,663 295,689 294,728 294,744 308,807 392,807 406,744 412,703 412,689 399,663 391,651 317,651"/>
        <polygon points="531,617 515,627 486,646 477,665 477,677 515,705 629,705 668,677 668,665 660,646 618,617 531,617"/>
        <polygon points="840,649 835,662 835,676 892,676 892,662 889,649 840,649"/>
        <polygon points="977,675 961,685 961,698 1014,698 1014,685 1008,675 977,675"/>
        <polygon points="887,799 828,838 828,852 850,865 945,865 973,852 973,838 936,813 913,799 887,799"/>
        <polygon points="450,853 392,928 392,964 825,964 825,928 769,853 450,853"/>
        <polygon points="489,1029 489,1045 512,1063 679,1063 696,1045 696,1029 489,1029"/>
        <polygon points="47,1077 47,1096 106,1109 216,1109 270,1096 270,1077 47,1077"/>
        <polygon points="340,1087 311,1099 311,1118 463,1118 463,1099 445,1087 340,1087"/>
        <polygon points="522,1106 501,1117 478,1132 477,1146 477,1161 497,1199 571,1199 580,1187 591,1161 595,1146 595,1132 570,1117 549,1106 522,1106"/>
        <polygon points="875,1313 864,1327 864,1342 891,1376 913,1390 953,1390 976,1376 980,1363 980,1347 941,1313 875,1313"/>
        <polygon points="881,1510 881,1530 891,1550 987,1550 993,1530 993,1510 881,1510"/>
        <polygon points="169,1193 154,1209 154,1226 339,1226 339,1209 324,1193 169,1193"/>
    </svg>
    <svg contentScriptType="text/ecmascript" xmlns:xlink="http://www.w3.org/1999/xlink" zoomAndPan="magnify" class="Balloon" contentStyleType="text/css" preserveAspectRatio="xMidYMid meet" xmlns="http://www.w3.org/2000/svg" version="1.0">
        <polygon points="70,188 70,188 70,188 70,188 69,189 69,189 67,191 65,191 63,191 61,191 59,191 57,191 55,191 57,191 59,192 61,193 64,195 66,196 68,197 70,198 101,253 101,253 101,253 101,253 101,253 101,253 101,253 101,253 101,253 101,253 101,253 102,252 101,253 103,253 101,253 103,253 101,253 100,254 99,255 99,257 99,255 101,253 103,253 101,253 103,253 105,253 107,253 109,253 111,253 113,253 117,253 121,253 123,253 125,253 126,254 128,254 129,253 131,253 133,253 135,253 138,252 141,252 145,252 156,252 159,252 162,252 166,252 170,252 174,252 176,252 178,252 180,252 182,252 184,252 186,252 188,252 190,252 192,252 193,250 194,247 194,245 194,243 195,241 196,238 197,236 198,234 199,232 199,229 199,227 199,224 198,222 196,220 194,218 193,215 191,213 188,211 184,211 182,210 182,210 182,210 180,210 177,208 175,207 169,201 165,198 162,195 159,192 157,192 155,191 153,190 151,190 146,191 143,192 136,192 133,192 130,192 129,191 129,190 129,190 129,190 128,192 126,192 124,192 122,192 120,192 118,192 116,192 114,192 112,192 110,192 107,191 105,191 103,191 101,191 95,189 89,188 83,189 76,188 70,190 70,190 70,190 70,190 70,190 70,190 70,190 70,190 70,190 70,190 70,190 70,190 70,190 70,190 70,190 70,190 70,190 70,190 70,190 70,190 70,190 70,190 70,188"/>
        <polygon points="400,197 400,203 399,206 400,209 400,209 400,211 400,213 400,215 400,217 401,219 402,221 403,223 404,226 404,226 404,226 405,228 406,230 406,231 408,233 409,235 411,237 413,239 414,241 416,243 418,244 418,246 418,249 422,252 424,254 425,256 427,257 429,258 431,259 446,260 449,260 452,260 453,261 453,262 453,262 454,260 456,260 458,260 460,260 462,260 464,260 466,260 468,260 470,261 474,260 476,260 478,260 480,260 482,260 484,260 486,260 488,260 490,260 492,260 494,260 496,260 498,260 500,259 502,258 503,257 505,255 507,253 509,251 511,249 512,248 514,246 516,244 518,242 519,240 519,238 520,235 521,233 522,232 522,230 524,228 525,226 525,224 526,222 527,220 527,218 528,216 529,215 529,213 529,211 529,209 528,207 529,205 528,200 526,195 523,191 520,190 516,190 514,190 512,190 510,190 508,190 506,190 504,190 502,190 500,190 498,190 496,190 494,189 493,191 491,191 489,191 487,191 485,191 483,191 481,191 479,191 477,191 475,191 473,191 471,189 468,188 465,188 459,187 455,188 451,189 448,191 445,190 445,190 445,190 445,190 445,190 443,191 441,192 440,190 438,190 436,190 434,190 432,190 428,190 426,191 423,191 418,191 415,192 412,192 409,192 406,193 404,194 402,195 400,197"/>
        <polygon points="619,206 619,206 619,206 619,206 619,206 620,208 620,210 619,212 618,215 618,218 618,221 618,224 619,227 621,229 622,231 623,233 624,235 625,237 626,239 627,241 629,243 631,245 633,247 633,249 634,251 635,253 636,256 638,258 641,260 645,260 649,260 653,260 657,260 661,260 665,260 667,260 669,260 671,260 673,260 675,260 677,260 679,260 681,260 684,261 687,260 690,261 692,261 694,261 696,261 698,261 700,261 702,261 704,261 707,261 712,260 715,260 719,260 722,260 730,260 735,260 737,260 739,261 740,261 742,262 745,262 745,262 749,262 752,262 756,262 758,264 761,266 762,264 761,266 762,264 765,263 767,263 769,263 771,262 773,262 775,262 777,262 779,262 781,262 783,262 785,262 787,262 789,262 791,262 793,262 795,262 797,262 799,262 801,262 803,262 805,262 807,262 810,262 812,261 814,261 816,261 818,261 820,261 822,261 825,260 827,258 821,193 821,193 821,193 821,193 821,193 821,193 821,193 821,193 821,193 821,193 822,191 822,191 822,191 821,192 823,192 821,192 819,192 817,192 814,193 811,192 809,192 807,192 805,192 803,192 801,192 799,191 793,189 790,188 788,188 785,189 781,190 778,189 775,190 775,190 773,189 771,191 769,191 766,192 763,191 760,192 757,192 753,192 751,191 749,191 747,191 744,192 741,191 737,191 734,191 729,192 726,191 723,192 723,192 723,192 723,192 721,192 718,192 716,192 714,192 712,192 710,192 708,192 706,192 704,193 696,192 688,192 680,192 671,195 662,197 653,198 644,198 635,198 626,198 621,207 621,207 621,207 621,207 621,207 621,207 621,207 621,207 621,207 621,207 621,207 621,207 621,207 621,207 621,207 621,207 621,207 619,206"/>
        <polygon points="949,190 947,190 945,190 943,190 941,190 939,191 937,191 935,191 933,191 931,191 929,191 927,191 925,191 923,191 921,191 918,192 917,197 917,278 917,281 915,281 917,281 919,281 921,281 923,281 927,278 930,276 934,275 941,272 947,269 950,267 953,266 953,268 953,266 953,268 953,266 953,268 953,266 953,268 953,266 953,268 953,266 953,268 953,266 953,264 955,262 955,260 956,257 958,257 960,257 962,257 964,257 967,258 969,258 971,258 973,259 975,259 977,259 979,260 981,260 983,260 985,260 988,261 992,261 994,262 996,262 998,262 1000,262 1002,262 1004,262 1006,262 1008,263 1009,265 1009,268 1015,271 1020,274 1024,276 1025,275 1026,274 1029,274 1031,274 1034,275 1036,273 1038,272 1040,272 1043,272 1046,272 1049,272 1051,270 1053,270 1056,269 1058,269 1060,268 1062,268 1064,268 1066,267 1068,267 1070,267 1072,266 1074,266 1076,266 1078,265 1080,265 1083,263 1086,262 1088,262 1090,262 1092,262 1094,262 1096,262 1101,262 1104,262 1108,261 1110,255 1110,249 1110,241 1109,232 1107,217 1106,205 1106,202 1106,200 1105,198 1104,195 1103,193 1101,190 1101,190 1101,190 1101,190 1101,190 1101,190 1103,188 1101,190 1103,189 1101,190 1103,189 1101,190 1099,190 1097,190 1095,190 1093,190 1091,190 1086,189 1083,189 1082,190 1080,188 1075,187 1072,186 1069,186 1066,186 1063,186 1060,187 1057,187 1054,187 1051,187 1048,187 1045,187 1042,187 1039,188 1036,189 1033,189 1030,189 1027,189 1024,189 1024,189 1024,189 1024,189 1024,189 1024,189 1024,189 1024,189 1024,189 1024,189 1024,189 1021,189 1019,189 1017,189 1015,189 1013,189 1011,189 1009,189 1007,189 1005,189 1003,189 1001,189 999,189 997,189 995,189 993,189 991,189 989,189 987,189 985,189 983,189 981,189 979,189 977,189 975,189 973,189 971,189 969,189 967,189 965,189 963,189 961,189 959,189 957,189 955,190 953,190 951,190 949,190"/>
        <polygon points="1016,333 1016,336 1016,339 1016,342 1016,345 1016,348 1016,351 1018,354 1020,357 1022,359 1022,362 1023,365 1023,366 1025,369 1030,369 1033,369 1036,370 1042,371 1044,371 1046,372 1048,374 1050,373 1052,371 1055,370 1058,368 1060,366 1063,365 1063,365 1063,365 1063,365 1063,365 1066,364 1069,363 1071,361 1076,357 1076,354 1076,351 1077,348 1078,345 1078,342 1078,339 1078,336 1077,333 1076,330 1074,327 1069,324 1065,321 1062,319 1060,319 1057,319 1054,318 1046,316 1039,315 1033,315 1030,316 1027,317 1021,319 1016,321 1016,324 1016,327 1016,330 1016,333"/>
        <polygon points="533,381 531,381 530,382 528,383 527,384 526,385 524,386 522,387 520,388 518,389 515,391 512,392 510,393 508,395 506,396 505,398 503,403 501,407 500,410 499,413 498,416 497,419 497,422 497,425 501,431 502,434 502,437 504,437 502,437 504,437 502,437 504,437 507,440 507,441 510,444 512,444 513,446 515,447 519,449 521,448 519,449 521,448 523,448 525,449 527,449 529,450 532,451 534,451 536,451 538,451 540,452 542,452 544,453 546,453 548,454 550,455 552,456 554,457 556,458 557,459 559,459 561,459 563,459 565,459 567,459 569,459 571,459 573,459 575,459 577,459 579,459 581,459 583,459 585,459 587,459 589,459 591,459 593,459 595,459 597,459 599,459 601,459 603,459 605,459 607,459 609,459 611,459 616,459 619,459 622,459 624,460 626,460 627,459 632,457 637,456 640,455 640,454 642,453 640,454 642,453 640,454 642,453 640,454 642,453 645,452 647,452 649,452 651,452 653,451 655,450 657,450 659,449 661,448 663,447 665,446 668,445 671,444 673,442 676,438 678,436 680,435 682,434 684,433 686,432 688,431 690,422 690,416 688,411 687,408 686,406 684,404 683,402 682,400 681,398 680,396 679,394 677,392 675,391 672,390 669,389 666,388 663,387 659,386 657,384 655,383 653,381 650,380 646,380 642,380 638,380 634,380 630,380 628,380 626,380 624,380 620,380 618,380 616,380 614,380 610,380 608,380 606,380 604,380 602,380 600,380 598,380 596,380 594,380 592,380 590,380 588,380 586,380 584,380 582,380 580,380 578,380 576,380 574,380 572,380 570,380 568,380 566,380 564,380 562,380 560,380 558,380 556,380 554,380 552,380 550,380 548,380 546,380 544,380 542,380 540,380 538,380 536,380 533,381"/>
        <polygon points="582,519 580,519 578,519 576,520 574,521 572,522 570,523 568,524 566,526 563,527 561,529 558,531 555,532 553,534 551,538 549,541 549,544 549,547 551,551 554,555 558,555 560,555 562,555 564,555 566,556 568,556 570,556 572,556 575,557 578,556 581,557 583,557 585,557 587,557 589,557 591,557 593,557 595,557 597,557 599,557 601,557 603,557 605,557 608,556 612,555 616,555 620,555 622,555 624,555 626,555 628,553 629,547 631,541 630,538 630,535 628,533 627,530 625,528 623,527 621,526 618,525 616,524 614,522 611,519 607,518 604,519 600,519 596,519 594,519 592,519 590,519 590,519 588,519 586,519 586,519 584,519 582,519"/>
        <polygon points="83,552 81,552 76,549 73,547 71,549 67,549 68,548 66,550 63,550 61,550 59,550 57,550 55,550 51,550 48,551 46,551 44,554 43,557 38,634 38,634 38,634 38,634 38,634 38,634 38,634 38,634 37,634 37,635 38,637 39,640 37,640 39,640 41,641 43,641 45,641 47,641 50,640 52,640 55,641 58,640 60,640 62,640 64,640 66,640 68,640 70,640 74,640 76,639 78,638 80,638 82,638 86,638 88,640 94,638 100,636 105,635 108,634 111,634 114,634 117,634 120,634 123,634 126,634 129,634 131,631 133,626 135,622 136,618 137,619 136,618 137,619 136,618 137,619 136,618 137,619 136,618 137,619 136,618 137,619 136,618 137,619 136,618 137,619 136,618 137,619 136,618 137,619 136,617 136,614 136,611 136,608 136,605 136,602 135,599 134,597 133,595 131,593 130,591 129,589 127,587 126,585 125,583 124,581 123,579 122,576 120,574 119,572 117,570 116,569 115,566 114,563 112,561 110,559 107,558 105,556 102,555 100,554 98,554 96,553 94,553 92,553 90,553 87,552 85,552 83,552"/>
        <polygon points="313,642 307,643 304,643 302,644 301,646 301,648 301,650 301,652 301,654 301,656 301,658 300,660 298,662 296,664 296,666 295,668 294,670 293,672 292,675 291,677 290,678 289,680 289,682 289,685 286,689 284,693 283,696 282,699 282,702 283,705 282,710 281,712 282,714 282,716 282,719 282,721 282,723 282,725 282,728 282,730 282,732 281,734 281,737 280,740 279,742 276,744 274,748 276,749 274,748 276,749 278,751 279,753 281,755 282,756 283,757 284,760 285,762 286,764 286,767 286,769 287,771 287,773 288,776 288,779 289,781 290,784 292,786 294,791 296,794 298,797 299,798 300,800 301,802 302,805 303,808 304,810 306,812 308,812 310,812 312,812 314,812 316,812 318,812 321,813 323,814 326,815 330,816 334,817 338,818 342,818 346,818 350,818 353,817 356,818 358,818 360,818 362,818 364,818 366,818 368,818 371,817 373,817 375,816 377,816 379,815 381,815 383,814 385,813 387,812 389,812 391,812 393,812 395,810 397,809 398,807 399,805 403,802 407,799 411,797 414,795 414,792 414,788 413,786 413,784 414,782 414,780 414,777 415,775 414,772 414,770 414,768 415,765 415,762 415,759 414,756 414,753 414,751 415,748 414,746 415,748 414,746 413,744 414,742 414,740 414,738 415,736 415,734 415,732 415,730 415,728 415,725 415,723 415,720 416,718 416,716 416,714 417,710 417,707 417,705 417,703 417,701 417,699 417,695 419,691 417,691 417,688 416,686 416,684 416,682 415,680 416,678 415,676 415,674 415,672 415,670 414,668 415,666 415,663 412,661 409,659 406,658 404,656 402,654 400,652 400,652 400,652 400,652 400,652 400,652 400,652 400,652 400,652 399,650 399,650 396,649 395,648 392,646 390,646 388,646 386,646 384,644 382,643 381,642 378,641 375,641 330,639 327,639 324,639 324,639 324,639 324,639 324,639 324,639 324,639 324,639 322,639 324,639 322,640 319,641 319,641 316,642 313,642"/>
        <polygon points="527,612 525,613 523,614 521,615 518,616 516,617 513,618 510,619 508,621 506,621 505,622 503,622 501,623 500,624 498,625 494,625 492,629 491,631 488,634 486,636 484,638 482,639 482,640 480,642 479,644 478,646 476,648 476,650 474,651 474,653 473,654 474,656 474,658 473,660 473,663 472,667 472,670 472,672 472,678 474,681 476,683 477,684 479,685 480,687 482,687 484,689 486,690 487,691 489,693 491,695 494,696 495,698 497,698 498,700 500,701 502,703 505,704 507,706 509,708 512,709 515,710 519,710 523,710 527,710 531,711 535,711 539,711 543,711 546,712 548,712 550,712 552,712 554,713 556,713 558,713 560,713 562,713 564,713 566,713 568,713 570,713 572,713 574,713 576,713 578,713 580,713 582,713 584,712 586,712 588,712 590,712 592,711 594,711 597,710 599,710 601,710 603,710 605,710 607,710 609,710 611,710 613,710 615,710 617,710 619,710 621,710 623,710 625,710 627,710 629,710 631,710 632,709 633,708 636,707 637,706 639,704 640,703 642,702 644,702 645,700 647,698 649,697 650,696 652,695 654,694 655,693 657,691 659,690 661,689 663,687 664,686 666,686 667,684 669,683 673,676 673,672 673,670 673,667 673,664 672,661 670,656 668,653 668,653 668,653 668,653 668,653 668,652 667,649 667,648 666,646 665,644 663,643 662,641 659,639 657,638 655,636 653,635 647,630 643,627 640,624 640,624 640,624 640,624 640,624 640,624 640,624 638,624 637,623 635,622 633,621 631,619 628,618 627,616 624,615 621,613 617,612 613,612 609,612 605,612 601,612 597,612 593,612 589,611 585,610 581,610 578,609 576,609 574,609 572,609 570,609 568,609 566,609 564,609 562,609 560,610 557,610 555,610 552,610 550,610 548,610 546,610 544,610 542,610 540,610 538,611 531,611 529,612 527,612"/>
        <polygon points="840,644 837,645 835,648 834,651 832,653 831,655 829,657 827,660 826,664 827,667 829,670 829,673 830,676 831,679 834,681 838,681 842,681 844,681 846,681 848,681 850,681 852,682 854,682 857,684 858,683 861,682 864,681 868,681 872,681 876,681 878,681 880,681 882,681 884,681 886,681 888,681 890,681 892,681 895,680 896,678 896,675 898,673 899,671 898,666 898,663 898,660 898,657 897,654 896,651 896,648 895,647 892,645 888,644 886,643 883,642 879,642 875,642 871,642 869,642 867,643 865,643 862,644 858,644 854,644 850,644 848,644 846,644 844,644 842,644 840,644"/>
        <polygon points="975,671 972,672 970,673 968,674 965,676 963,677 961,678 955,683 955,687 955,690 955,692 956,695 956,699 962,703 965,705 967,705 970,706 973,707 976,706 979,707 981,707 983,707 985,707 987,707 989,707 991,706 993,706 996,706 999,706 1007,706 1011,704 1014,703 1017,702 1018,699 1020,699 1020,697 1019,692 1019,688 1019,685 1019,682 1018,681 1016,679 1015,677 1014,675 1012,673 1011,671 1008,670 1004,670 1000,670 998,670 996,670 994,670 992,670 990,670 988,670 986,670 984,670 982,670 980,670 978,670 975,671"/>
        <polygon points="885,794 883,795 881,796 879,797 877,797 875,797 872,798 870,798 868,798 866,799 863,800 861,800 858,801 854,801 852,802 850,802 847,802 845,804 843,805 841,806 839,807 837,808 834,809 830,810 827,812 825,814 822,819 820,824 818,827 817,831 817,837 817,842 817,844 818,846 818,849 818,852 820,854 822,855 823,856 825,857 828,858 828,858 829,859 831,860 834,861 834,861 836,863 839,864 840,865 841,866 843,867 847,869 852,870 856,870 860,870 864,870 866,870 868,870 870,870 872,871 874,873 881,875 887,877 891,879 895,882 898,884 902,885 904,886 910,887 914,887 917,887 917,888 918,886 919,884 921,882 922,880 925,879 928,878 931,877 934,876 937,875 939,875 941,876 943,876 945,875 947,873 949,872 951,872 953,872 956,871 959,870 962,870 970,867 973,866 976,866 977,865 979,864 983,861 986,859 988,856 989,853 992,849 994,843 996,841 994,840 992,838 990,836 988,834 986,832 984,830 982,828 979,827 977,825 975,823 973,822 971,821 969,820 967,819 965,818 963,817 961,816 959,815 956,814 954,812 952,810 950,808 948,806 946,806 943,805 939,802 939,802 939,802 937,802 935,802 933,801 930,800 928,800 926,800 924,799 921,798 918,796 916,795 913,794 911,794 905,794 899,794 897,794 895,794 893,794 891,794 889,794 887,794 885,794"/>
        <polygon points="449,834 443,830 436,831 433,831 430,830 426,830 424,830 421,831 419,831 417,831 415,831 410,834 404,837 398,839 392,840 386,841 380,841 374,841 369,841 364,841 360,848 356,864 353,877 353,883 354,887 355,890 356,893 357,896 358,899 358,902 358,905 358,908 358,911 358,914 358,917 358,920 358,923 358,926 358,929 358,932 358,935 358,938 358,941 361,945 364,949 371,953 380,958 383,959 385,961 386,963 386,963 386,963 386,963 387,964 387,967 388,967 387,967 389,968 391,969 393,968 395,968 398,969 398,969 398,969 398,969 398,969 398,969 398,969 398,969 398,969 398,969 398,969 398,969 398,969 401,969 404,969 408,969 412,969 415,969 418,969 421,969 425,969 428,969 431,969 434,969 437,969 440,969 443,969 446,969 450,969 453,969 456,969 459,969 462,969 465,969 468,969 471,969 474,969 477,969 480,969 483,969 486,969 489,969 492,969 495,969 498,969 502,969 509,969 516,969 523,969 530,969 537,969 544,970 551,972 558,974 565,976 572,978 578,980 581,981 583,982 585,982 587,983 589,984 591,985 593,986 595,987 597,988 599,989 601,990 603,991 605,992 607,993 609,994 611,995 613,996 615,997 617,998 619,999 621,999 623,999 625,999 627,999 629,1000 631,1000 633,1000 635,1001 637,1002 639,1003 641,1003 643,1003 645,1003 647,1005 649,1006 651,1007 653,1009 655,1009 657,1010 659,1011 662,1011 664,1011 666,1012 668,1014 669,1014 671,1015 673,1017 673,1017 678,1018 681,1016 684,1015 687,1015 690,1014 693,1014 696,1013 698,1012 700,1010 700,1010 700,1010 700,1010 700,1010 703,1009 706,1009 706,1009 708,1009 713,1008 715,1008 720,1007 720,1007 725,1006 725,1006 728,1005 731,1005 731,1005 733,1004 736,1003 739,1002 742,1001 745,1001 745,1001 747,1000 750,999 753,998 753,998 755,997 757,996 760,995 763,994 766,993 766,993 769,992 769,992 774,990 774,990 775,989 778,988 780,986 784,984 785,984 787,983 790,983 793,982 795,980 799,978 802,977 804,975 804,975 804,975 807,973 810,972 813,971 815,969 817,969 819,969 821,969 823,969 825,969 827,968 829,967 830,964 830,961 830,961 830,961 830,961 830,961 830,961 830,961 831,958 833,956 835,954 837,951 844,944 849,935 852,926 854,916 853,909 852,903 851,898 850,894 848,889 847,886 845,884 845,884 842,882 839,881 837,879 835,877 833,876 830,875 828,873 826,871 824,869 823,869 821,868 819,866 819,866 819,866 819,866 818,864 817,861 816,858 814,856 811,855 809,855 806,855 803,855 800,855 797,855 797,855 797,855 796,852 794,850 784,841 779,840 774,839 771,838 768,838 765,838 762,839 759,839 757,838 754,837 751,836 751,836 751,836 749,836 747,836 745,836 743,836 741,836 739,836 737,836 735,836 733,836 730,835 728,835 726,835 723,834 721,834 719,834 717,834 715,834 713,834 711,834 709,834 707,834 705,834 703,834 701,834 699,834 696,833 693,834 689,834 685,834 681,834 679,834 677,834 675,834 673,834 671,834 669,834 667,834 665,834 663,834 661,834 659,834 657,834 655,834 653,834 651,834 649,834 647,834 645,834 642,833 639,834 636,833 633,834 629,834 625,834 621,834 617,834 613,834 609,834 605,834 601,834 597,834 593,834 591,834 589,834 587,834 585,834 583,834 581,834 579,834 577,834 575,834 573,834 571,834 569,834 567,834 564,833 561,834 558,833 555,834 552,835 549,834 544,830 540,827 538,827 536,827 533,828 532,826 530,826 528,826 525,827 523,828 521,830 519,831 517,831 515,831 513,832 511,832 509,832 507,833 505,833 503,833 501,833 499,834 497,834 495,834 493,834 491,834 489,834 482,831 475,829 471,829 467,830 465,831 463,831 461,831 459,832 457,832 455,833 453,833 451,833 449,834"/>
        <polygon points="462,1052 461,1055 463,1057 464,1060 466,1062 468,1064 471,1068 472,1070 472,1073 472,1073 472,1073 473,1073 475,1075 477,1077 475,1078 477,1077 475,1078 477,1077 479,1077 481,1077 484,1076 487,1077 490,1076 493,1077 496,1076 499,1077 502,1077 504,1077 506,1077 508,1077 510,1077 514,1077 518,1077 522,1077 526,1077 530,1077 533,1076 536,1077 539,1076 542,1077 544,1077 546,1078 550,1078 554,1078 558,1078 561,1079 564,1078 567,1079 570,1078 573,1079 575,1079 577,1079 579,1079 581,1079 583,1079 585,1079 589,1079 593,1079 597,1079 601,1079 605,1079 609,1079 612,1078 615,1079 619,1079 623,1079 626,1080 629,1079 632,1080 634,1082 640,1083 645,1083 648,1084 648,1085 649,1083 649,1080 651,1078 653,1076 656,1075 659,1076 663,1076 667,1076 670,1075 673,1076 676,1075 679,1076 682,1075 685,1076 688,1075 691,1072 694,1070 697,1069 699,1067 701,1065 703,1061 705,1053 706,1047 706,1041 705,1037 704,1035 704,1032 704,1032 702,1030 701,1027 701,1027 701,1027 701,1027 698,1025 696,1024 694,1024 690,1022 687,1021 684,1020 684,1020 684,1020 684,1020 680,1019 677,1018 673,1017 673,1017 673,1017 673,1017 673,1017 673,1017 673,1017 668,1018 665,1019 661,1019 658,1020 655,1021 652,1022 649,1023 645,1023 642,1023 639,1022 636,1022 633,1022 630,1022 627,1022 624,1023 621,1024 615,1024 610,1024 605,1024 600,1024 595,1024 590,1024 585,1024 580,1024 575,1024 570,1024 565,1024 560,1024 555,1024 550,1024 545,1024 540,1024 535,1024 530,1024 525,1024 522,1024 519,1024 516,1024 513,1024 510,1024 507,1024 504,1024 501,1024 498,1024 495,1024 492,1024 489,1024 486,1025 484,1027 482,1029 480,1031 478,1033 476,1035 474,1037 472,1039 470,1041 468,1043 466,1045 464,1047 462,1049 462,1052"/>
        <polygon points="66,1060 66,1060 66,1060 66,1060 66,1060 66,1060 67,1063 67,1066 81,1109 84,1110 87,1110 87,1110 87,1110 87,1110 87,1110 87,1110 87,1110 87,1110 87,1110 87,1110 87,1110 87,1110 87,1110 87,1110 87,1110 87,1110 87,1110 87,1110 87,1110 91,1111 94,1112 97,1112 97,1112 97,1112 101,1113 101,1113 103,1115 105,1117 109,1121 111,1123 113,1124 115,1125 117,1126 119,1127 121,1128 123,1129 125,1130 129,1129 132,1129 135,1128 138,1127 141,1127 145,1126 150,1125 163,1122 172,1119 177,1117 180,1116 183,1115 185,1114 185,1114 185,1114 185,1114 185,1114 185,1114 185,1114 185,1114 185,1114 185,1114 185,1114 185,1114 185,1114 187,1114 189,1114 191,1114 193,1114 195,1114 197,1114 199,1114 201,1114 203,1114 205,1114 207,1114 209,1114 211,1114 213,1114 215,1114 217,1114 219,1114 221,1113 223,1113 224,1112 226,1112 228,1112 230,1111 232,1111 234,1111 236,1111 238,1110 240,1110 241,1109 243,1109 245,1109 247,1109 249,1109 251,1109 253,1108 255,1108 257,1107 259,1107 261,1105 263,1105 265,1104 267,1103 270,1102 272,1101 277,1093 278,1088 278,1085 278,1082 278,1079 278,1076 273,1070 270,1068 267,1067 264,1066 261,1065 259,1064 258,1063 257,1062 258,1063 257,1062 254,1064 252,1065 250,1067 248,1068 245,1069 242,1069 239,1070 236,1070 233,1071 230,1071 227,1071 224,1071 221,1071 212,1072 204,1072 197,1061 191,1051 186,1045 181,1041 178,1039 175,1039 172,1040 169,1041 166,1041 163,1041 160,1041 157,1041 154,1041 151,1041 148,1041 145,1041 142,1041 142,1041 142,1041 142,1041 142,1041 140,1041 138,1042 139,1044 139,1046 140,1048 140,1051 141,1053 141,1055 139,1057 136,1058 134,1058 132,1059 130,1059 128,1059 126,1059 124,1059 122,1059 120,1059 118,1059 116,1059 114,1059 112,1059 110,1059 108,1058 105,1057 101,1056 97,1055 93,1058 94,1059 92,1059 89,1059 87,1059 85,1059 83,1058 82,1057 80,1057 78,1057 75,1056 73,1056 71,1056 69,1056 66,1060 66,1060 66,1060 66,1060 66,1060 66,1060 66,1060 66,1060 66,1060 66,1060"/>
        <polygon points="338,1082 337,1083 334,1084 331,1085 329,1086 327,1086 325,1087 323,1088 321,1089 320,1090 318,1090 316,1091 315,1092 313,1092 311,1094 308,1095 306,1098 306,1102 306,1103 306,1105 306,1108 306,1111 306,1114 306,1114 307,1121 313,1123 317,1123 321,1123 325,1123 329,1123 333,1123 335,1123 337,1123 339,1123 341,1123 343,1123 345,1123 347,1123 349,1124 351,1124 353,1124 355,1125 357,1125 359,1125 361,1125 363,1125 365,1126 366,1127 368,1127 370,1127 372,1127 375,1128 382,1128 383,1126 385,1126 387,1125 389,1125 391,1125 393,1125 395,1124 397,1124 399,1124 401,1124 403,1124 405,1124 407,1124 409,1124 411,1124 413,1124 416,1123 419,1124 422,1123 425,1124 428,1123 431,1124 434,1123 436,1123 438,1123 440,1123 442,1123 444,1123 446,1123 448,1123 450,1123 452,1123 454,1123 457,1124 463,1123 467,1121 468,1117 468,1114 468,1111 468,1108 468,1105 468,1102 468,1099 467,1096 463,1093 461,1091 459,1089 457,1087 457,1087 456,1086 454,1087 452,1085 449,1083 446,1082 442,1082 438,1082 434,1082 430,1082 426,1082 422,1082 418,1082 414,1082 410,1082 406,1082 402,1082 398,1082 396,1082 392,1082 390,1082 388,1082 386,1082 384,1082 382,1082 380,1082 378,1082 376,1082 374,1082 372,1082 370,1082 368,1082 366,1082 364,1082 362,1082 360,1082 358,1082 356,1082 354,1082 352,1082 350,1082 348,1082 346,1082 344,1082 342,1082 340,1082 338,1082"/>
        <polygon points="520,1099 518,1099 516,1099 514,1100 512,1100 510,1101 508,1103 506,1103 504,1103 502,1105 500,1105 499,1106 498,1107 497,1108 495,1108 494,1110 492,1110 491,1112 488,1114 486,1115 485,1116 484,1117 482,1118 480,1119 478,1120 476,1122 475,1124 474,1126 471,1128 469,1130 464,1137 462,1143 462,1148 462,1153 462,1158 462,1161 462,1164 462,1167 467,1172 470,1177 470,1177 470,1177 470,1177 470,1177 470,1177 470,1177 470,1177 470,1177 471,1178 474,1178 475,1180 476,1182 478,1183 479,1185 481,1187 483,1188 484,1190 486,1190 487,1192 489,1194 490,1196 490,1198 491,1200 493,1202 497,1204 501,1204 505,1204 509,1204 513,1204 517,1204 521,1204 523,1204 525,1204 527,1204 529,1204 531,1204 533,1204 535,1204 537,1204 539,1204 541,1204 543,1204 545,1204 547,1204 549,1204 551,1204 553,1204 555,1204 557,1204 559,1204 561,1204 563,1204 565,1204 567,1204 569,1204 571,1204 573,1204 574,1203 575,1201 576,1200 577,1199 578,1197 580,1196 581,1195 582,1193 583,1191 585,1189 586,1187 587,1185 589,1184 590,1182 592,1180 593,1178 594,1176 595,1174 596,1171 596,1169 597,1167 598,1165 599,1163 600,1161 601,1158 602,1155 602,1153 602,1151 603,1148 603,1145 603,1142 603,1140 602,1138 602,1136 601,1135 601,1133 601,1131 599,1129 598,1127 598,1125 597,1124 596,1123 596,1121 594,1119 593,1117 590,1115 589,1113 587,1111 585,1110 582,1108 579,1106 577,1105 574,1104 572,1103 569,1102 566,1101 563,1100 561,1100 559,1099 556,1098 554,1098 552,1098 550,1098 548,1098 546,1098 544,1098 542,1098 540,1098 538,1098 536,1098 534,1098 532,1098 530,1098 528,1098 526,1098 524,1098 522,1098 520,1099"/>
        <polygon points="878,1307 873,1308 871,1310 869,1312 868,1314 866,1316 864,1318 862,1321 860,1324 857,1344 857,1346 857,1348 857,1350 856,1352 856,1352 856,1352 856,1353 857,1355 857,1358 859,1358 861,1359 863,1359 865,1359 866,1361 867,1367 869,1373 871,1377 872,1380 873,1383 874,1385 876,1385 878,1385 880,1385 882,1385 884,1385 886,1385 889,1386 891,1387 893,1388 895,1388 897,1388 900,1389 903,1390 905,1391 907,1392 909,1394 912,1395 916,1395 919,1396 922,1395 926,1395 928,1395 930,1395 932,1396 934,1396 936,1396 938,1396 940,1397 942,1397 944,1398 946,1398 949,1399 951,1399 953,1399 955,1399 957,1399 959,1399 961,1399 963,1399 965,1399 967,1399 969,1399 971,1397 972,1394 973,1391 974,1388 975,1386 977,1384 979,1383 982,1382 984,1380 986,1378 985,1375 985,1372 985,1368 985,1363 985,1360 985,1357 985,1355 985,1352 985,1349 985,1349 985,1348 986,1346 986,1343 984,1340 984,1337 979,1334 974,1332 971,1331 971,1330 971,1331 971,1330 971,1331 971,1330 971,1331 971,1330 971,1328 972,1325 969,1323 967,1321 965,1319 963,1317 960,1315 957,1314 954,1313 951,1312 948,1311 945,1309 938,1308 916,1304 896,1300 893,1299 890,1300 890,1300 890,1300 890,1300 890,1300 890,1300 890,1300 890,1300 890,1300 890,1300 890,1300 890,1300 890,1300 890,1300 890,1300 890,1300 890,1300 890,1300 890,1300 888,1300 887,1302 886,1304 881,1303 880,1302 881,1303 879,1305 878,1307"/>
        <polygon points="876,1512 876,1515 876,1516 876,1519 876,1521 876,1524 876,1525 876,1529 876,1532 876,1532 876,1532 876,1532 876,1532 877,1535 878,1537 880,1539 881,1541 882,1544 883,1547 883,1549 885,1550 888,1554 891,1555 894,1555 898,1555 901,1555 904,1555 907,1555 911,1555 914,1555 917,1555 920,1555 923,1555 926,1555 929,1555 932,1555 935,1555 938,1555 942,1555 949,1555 960,1555 968,1555 971,1555 974,1555 977,1555 980,1555 983,1555 986,1555 989,1555 991,1553 993,1551 994,1549 995,1547 996,1545 998,1543 999,1542 1000,1540 1001,1538 1003,1536 1005,1534 1006,1532 1008,1530 1008,1529 1007,1527 1006,1524 1005,1521 1004,1518 1003,1515 1002,1512 1002,1509 1001,1506 999,1503 994,1497 992,1495 990,1493 989,1490 986,1489 984,1488 981,1486 977,1484 973,1483 970,1482 967,1483 964,1482 961,1481 957,1481 955,1481 953,1481 949,1480 945,1480 943,1480 941,1480 938,1481 935,1480 932,1481 928,1481 926,1482 924,1482 922,1482 920,1483 918,1483 915,1484 912,1485 910,1486 908,1487 907,1489 904,1490 902,1492 900,1494 898,1496 896,1497 894,1498 892,1500 890,1502 888,1504 884,1505 880,1505 876,1508 876,1512"/>
        <polygon points="166,1189 164,1191 162,1193 160,1195 155,1199 153,1201 151,1203 150,1206 150,1206 150,1206 150,1206 150,1206 150,1206 150,1206 150,1206 150,1207 149,1210 149,1213 165,1231 167,1231 169,1231 171,1231 173,1231 176,1231 179,1231 181,1231 183,1231 188,1232 188,1232 192,1233 195,1233 198,1233 202,1233 204,1233 207,1234 211,1234 213,1234 215,1235 217,1235 219,1235 222,1236 224,1236 230,1237 234,1238 237,1238 240,1237 242,1237 245,1238 249,1238 251,1238 253,1238 256,1239 259,1238 262,1239 265,1238 268,1239 274,1240 278,1240 281,1240 284,1240 287,1239 290,1238 292,1238 294,1238 297,1237 300,1238 303,1237 307,1236 311,1236 315,1236 317,1236 319,1235 321,1235 323,1234 325,1233 328,1232 332,1231 336,1231 340,1231 342,1230 344,1228 343,1225 343,1222 344,1219 344,1218 343,1215 343,1212 343,1209 343,1206 341,1204 339,1201 336,1199 334,1197 332,1195 330,1192 327,1189 324,1188 320,1188 316,1188 314,1188 312,1188 310,1188 308,1188 306,1188 304,1187 302,1187 299,1186 297,1186 295,1186 293,1186 290,1185 288,1185 286,1184 285,1182 282,1181 279,1180 273,1177 270,1176 269,1178 268,1180 266,1181 264,1181 262,1181 260,1181 258,1181 256,1181 254,1181 252,1181 250,1182 248,1182 246,1183 243,1183 240,1182 237,1183 233,1183 229,1183 225,1183 223,1183 221,1183 219,1183 217,1183 214,1184 210,1184 208,1184 206,1185 204,1185 202,1185 200,1185 197,1186 194,1185 191,1186 187,1186 185,1187 182,1187 182,1187 179,1188 175,1188 173,1188 171,1188 169,1188 166,1189"/>
    </svg>
    <desc method="Christophe's extractor" lastModificationDate="Wed Feb 13 17:53:51 JST 2013"/>
</svg>
