<?xml version="1.0" encoding="UTF-8" standalone="no"?>
<svg xmlns="http://www.w3.org/2000/svg" xmlns:xlink="http://www.w3.org/1999/xlink" contentScriptType="text/ecmascript" width="640mm" zoomAndPan="magnify" contentStyleType="text/css" height="899mm" viewBox="0 0 1280 1798" preserveAspectRatio="xMidYMid meet" version="1.0">
    <title>CYB_MOUETTEMAN_006.jpg</title>
    <svg contentScriptType="text/ecmascript" zoomAndPan="magnify" contentStyleType="text/css" class="Page" preserveAspectRatio="xMidYMid meet" version="1.0">
        <image x="0" y="0" fill-opacity="0.5" width="1280" xlink:href="../Pages/CYB_MOUETTEMAN_006.jpg" xlink:type="simple" xlink:actuate="onLoad" height="1798" opacity="0.5" preserveAspectRatio="xMidYMid meet" xlink:show="embed"/>
    </svg>
    <style type="text/css" xml:space="preserve"><![CDATA[
		* { stroke-width: 0; stroke-linejoin: round; }
		.Unclassified { fill: orange; stroke: none; opacity: 1.0; visibility: hidden; }
		.Noise { fill: pink; stroke: none; opacity: 0.2; visibility: hidden; }
		.Panel { fill: red; stroke: none; opacity: 0.2; visibility: visible; image-rendering: optimizeSpeed; }
		.Line { fill: green; stroke: none; opacity: 0.2; visibility: visible; image-rendering: optimizeSpeed; }
		.TextArea { fill: grey; stroke: none; opacity: 0.2; visibility: visible; image-rendering: optimizeSpeed; }
		.Balloon { fill: cyan; stroke: none; opacity: 0.2; visibility: visible; image-rendering: optimizeSpeed; }
		.Letter { fill: blue; stroke: none; opacity: 0.2; visibility: hidden; }
		.Object { fill: yellow; stroke: none; opacity: 0.2; visibility: visible; image-rendering: optimizeSpeed; }
		.Page { fill: white; stroke: none; opacity: 0.5; visibility: visible; }
]]></style>
    <svg contentScriptType="text/ecmascript" zoomAndPan="magnify" contentStyleType="text/css" class="Panel" preserveAspectRatio="xMidYMid meet" version="1.0"/>
    <svg contentScriptType="text/ecmascript" zoomAndPan="magnify" contentStyleType="text/css" class="Line" preserveAspectRatio="xMidYMid meet" version="1.0"/>
    <svg contentScriptType="text/ecmascript" zoomAndPan="magnify" contentStyleType="text/css" class="TextArea" preserveAspectRatio="xMidYMid meet" version="1.0"/>
    <svg contentScriptType="text/ecmascript" zoomAndPan="magnify" contentStyleType="text/css" class="Balloon" preserveAspectRatio="xMidYMid meet" version="1.0">
        <polygon points="423,387 424,381 425,376 426,373 427,371 428,369 429,366 430,364 431,362 432,360 433,358 434,357 435,356 436,354 437,353 438,352 439,351 440,350 441,349 442,348 443,347 444,346 445,345 446,345 447,344 448,343 449,342 450,342 451,341 452,340 453,339 454,338 455,338 456,337 457,337 458,336 459,335 460,335 461,335 462,334 463,334 464,333 465,333 466,332 467,332 468,331 469,331 470,330 471,330 472,329 473,329 474,329 475,329 476,328 477,327 478,327 479,326 480,326 481,325 482,325 483,324 484,324 485,324 486,323 487,323 488,322 489,322 490,322 491,321 492,321 493,320 494,320 495,320 496,319 497,319 498,318 499,318 500,318 501,318 502,318 503,318 504,318 505,318 506,317 507,317 508,317 509,317 510,316 511,316 512,316 513,316 514,316 515,316 516,315 517,315 518,315 519,315 520,314 521,314 522,314 523,314 524,314 525,314 526,313 527,313 528,313 529,313 530,313 531,313 532,313 533,313 534,313 535,313 536,312 537,312 538,312 539,312 540,312 541,312 542,312 543,311 544,311 545,311 546,311 547,311 548,311 549,311 550,311 551,310 552,310 553,310 554,310 555,310 556,310 557,310 558,310 559,310 560,310 561,310 562,310 563,310 564,310 565,310 566,310 567,309 568,310 569,309 570,309 571,309 572,309 573,309 574,309 575,309 576,310 577,309 578,309 579,309 580,309 581,309 582,309 583,309 584,309 585,309 586,309 587,309 588,309 589,309 590,309 591,308 592,308 593,309 594,308 595,308 596,309 597,309 598,308 599,308 600,308 601,308 602,308 603,308 604,308 605,308 606,308 607,308 608,308 609,308 610,308 611,308 612,308 613,308 614,308 615,308 616,308 617,308 618,308 619,308 620,308 621,308 622,308 623,308 624,308 625,308 626,308 627,308 628,308 629,308 630,308 631,308 632,308 633,308 634,308 635,308 636,308 637,308 638,308 639,308 640,308 641,308 642,308 643,308 644,308 645,308 646,308 647,308 648,308 649,308 650,308 651,308 652,308 653,308 654,308 655,308 656,308 657,308 658,308 659,308 660,308 661,308 662,308 663,308 664,308 665,308 666,308 667,308 668,308 669,308 670,308 671,308 672,308 673,308 674,308 675,308 676,308 677,308 678,308 679,308 680,308 681,308 682,308 683,308 684,308 685,308 686,308 687,308 688,308 689,308 690,308 691,307 692,307 693,307 694,308 695,307 696,307 697,307 698,308 699,308 700,308 701,308 702,308 703,308 704,308 705,308 706,308 707,308 708,308 709,308 710,309 711,309 712,309 713,309 714,309 715,309 716,308 717,308 718,309 719,308 720,308 721,308 722,308 723,308 724,309 725,309 726,309 727,309 728,309 729,309 730,309 731,309 732,309 733,309 734,309 735,309 736,310 737,310 738,310 739,309 740,310 741,310 742,310 743,310 744,310 745,310 746,310 747,310 748,310 749,310 750,310 751,311 752,311 753,311 754,311 755,311 756,311 757,311 758,311 759,311 760,311 761,311 762,311 763,312 764,312 765,312 766,312 767,312 768,312 769,312 770,312 771,313 772,313 773,313 774,313 775,313 776,313 777,313 778,313 779,313 780,313 781,314 782,314 783,314 784,314 785,314 786,314 787,314 788,314 789,315 790,315 791,315 792,315 793,316 794,316 795,316 796,317 797,317 798,317 799,317 800,317 801,317 802,317 803,317 804,318 805,318 806,318 807,318 808,318 809,319 810,319 811,319 812,319 813,319 814,320 815,320 816,320 817,321 818,322 819,322 820,322 821,323 822,323 823,324 824,324 825,324 826,325 827,325 828,326 829,326 830,327 831,327 832,328 833,329 834,329 835,330 836,330 837,331 838,331 839,332 840,332 841,332 842,333 843,333 844,334 845,334 846,335 847,335 848,336 849,336 850,337 851,337 852,338 853,338 854,339 855,340 856,340 857,341 858,342 859,343 860,344 861,345 862,345 863,346 864,347 865,348 866,348 867,349 868,350 869,351 870,353 871,354 872,355 873,355 874,356 875,358 876,359 877,360 878,362 879,363 880,364 881,366 882,367 883,369 884,372 885,374 886,376 887,380 888,383 888,400 887,403 886,406 885,409 884,411 883,413 882,415 881,416 880,417 879,418 878,419 877,420 876,421 875,422 874,423 873,424 872,425 871,426 870,427 869,427 868,428 867,429 866,429 865,430 864,431 863,431 862,432 861,432 860,432 859,433 858,433 857,434 856,434 855,435 854,435 853,435 852,436 851,437 850,437 849,438 848,438 847,439 846,439 845,440 844,440 843,441 842,441 841,441 840,442 839,442 838,443 837,443 836,443 835,444 834,444 833,445 832,445 831,446 830,446 829,446 828,447 827,447 826,448 825,448 824,448 823,449 822,449 821,449 820,450 819,450 818,451 817,451 816,452 815,452 814,452 813,453 812,453 811,453 810,454 809,454 808,454 807,454 806,454 805,454 804,454 803,455 802,455 801,455 800,455 799,455 798,455 797,456 796,456 795,456 794,456 793,456 792,457 791,457 790,457 789,457 788,458 787,458 786,458 785,458 784,458 783,458 782,458 781,458 780,458 779,459 778,459 777,459 776,459 775,459 774,459 773,459 772,459 771,459 770,459 769,459 768,459 767,459 766,460 765,460 764,460 763,460 762,461 761,461 760,461 759,461 758,461 757,461 756,461 755,461 754,461 753,461 752,461 751,462 750,462 749,462 748,462 747,462 746,462 745,462 744,462 743,462 742,462 741,462 740,462 739,462 738,462 737,462 736,462 735,462 734,462 733,463 732,462 731,462 730,463 729,463 728,463 727,463 726,463 725,463 724,463 723,463 722,463 721,463 720,463 719,463 718,463 717,463 716,463 715,463 714,463 713,463 712,463 711,463 710,463 709,463 708,463 707,463 706,463 705,463 704,463 703,464 702,464 701,464 700,463 699,463 698,463 697,464 696,464 695,476 694,475 693,476 692,476 691,477 690,477 689,475 688,471 687,463 686,462 685,462 684,462 683,463 682,464 681,464 680,464 679,464 678,464 677,464 676,464 675,464 674,464 673,464 672,464 671,464 670,464 669,464 668,464 667,464 666,464 665,464 664,464 663,464 662,464 661,464 660,464 659,464 658,464 657,464 656,464 655,464 654,464 653,464 652,464 651,464 650,464 649,464 648,464 647,464 646,464 645,464 644,464 643,464 642,464 641,464 640,464 639,464 638,464 637,464 636,464 635,464 634,464 633,464 632,464 631,464 630,464 629,464 628,464 627,464 626,464 625,464 624,464 623,464 622,464 621,464 620,464 619,464 618,464 617,464 616,464 615,464 614,464 613,464 612,464 611,464 610,464 609,464 608,464 607,464 606,464 605,464 604,464 603,464 602,464 601,464 600,464 599,464 598,464 597,464 596,464 595,464 594,464 593,464 592,464 591,464 590,464 589,464 588,464 587,464 586,463 585,463 584,462 583,462 582,462 581,463 580,463 579,462 578,462 577,462 576,462 575,463 574,462 573,463 572,463 571,463 570,463 569,462 568,462 567,462 566,462 565,463 564,462 563,463 562,462 561,462 560,463 559,462 558,462 557,462 556,462 555,462 554,462 553,462 552,461 551,461 550,461 549,461 548,461 547,460 546,460 545,460 544,460 543,460 542,460 541,460 540,460 539,459 538,459 537,459 536,459 535,459 534,458 533,458 532,458 531,457 530,457 529,457 528,457 527,457 526,457 525,457 524,456 523,456 522,456 521,456 520,456 519,456 518,456 517,455 516,455 515,455 514,455 513,454 512,454 511,453 510,452 509,452 508,452 507,451 506,451 505,452 504,451 503,451 502,451 501,451 500,450 499,450 498,450 497,450 496,450 495,449 494,449 493,449 492,448 491,448 490,448 489,448 488,447 487,447 486,447 485,446 484,446 483,446 482,445 481,445 480,445 479,444 478,444 477,443 476,443 475,443 474,443 473,442 472,442 471,441 470,441 469,441 468,440 467,440 466,439 465,438 464,438 463,438 462,438 461,437 460,437 459,436 458,435 457,435 456,434 455,434 454,433 453,433 452,432 451,431 450,431 449,430 448,429 447,429 446,428 445,428 444,427 443,426 442,425 441,425 440,424 439,423 438,422 437,421 436,420 435,420 434,419 433,417 432,416 431,415 430,413 429,411 428,409 427,407 426,404 425,401 424,398 423,393 423,387">
            <metadata shape="oval"/>
        </polygon>
        <polygon points="424,865 425,861 426,857 427,853 428,852 429,849 430,847 431,845 432,843 433,841 434,839 435,837 436,836 437,835 438,834 439,833 440,832 441,831 442,830 443,829 444,828 445,828 446,827 447,826 448,824 449,823 450,822 451,822 452,821 453,821 454,820 455,819 456,818 457,817 458,816 459,816 460,816 461,816 462,815 463,815 464,814 465,814 466,813 467,812 468,812 469,811 470,810 471,810 472,809 473,808 474,808 475,807 476,807 477,806 478,806 479,806 480,806 481,805 482,805 483,805 484,805 485,804 486,804 487,803 488,803 489,803 490,802 491,802 492,802 493,801 494,801 495,801 496,801 497,801 498,800 499,800 500,800 501,800 502,800 503,800 504,800 505,799 506,799 507,799 508,799 509,799 510,798 511,798 512,798 513,798 514,798 515,798 516,797 517,797 518,797 519,797 520,796 521,796 522,796 523,796 524,796 525,796 526,795 527,795 528,795 529,795 530,795 531,795 532,794 533,795 534,795 535,794 536,794 537,794 538,794 539,794 540,794 541,794 542,794 543,793 544,793 545,793 546,793 547,793 548,793 549,792 550,792 551,792 552,792 553,792 554,792 555,792 556,792 557,792 558,792 559,792 560,792 561,792 562,792 563,791 564,791 565,791 566,791 567,791 568,791 569,791 570,791 571,791 572,791 573,791 574,791 575,791 576,791 577,791 578,791 579,791 580,790 581,790 582,790 583,790 584,790 585,790 586,790 587,790 588,790 589,790 590,790 591,790 592,790 593,790 594,790 595,790 596,790 597,790 598,790 599,790 600,790 601,790 602,790 603,790 604,790 605,790 606,790 607,790 608,790 609,790 610,790 611,789 612,789 613,789 614,790 615,789 616,789 617,789 618,790 619,790 620,790 621,790 622,790 623,790 624,790 625,790 626,790 627,790 628,790 629,790 630,791 631,791 632,791 633,791 634,791 635,791 636,791 637,791 638,791 639,791 640,791 641,791 642,791 643,792 644,792 645,792 646,792 647,792 648,792 649,792 650,792 651,792 652,792 653,792 654,792 655,792 656,792 657,793 658,793 659,793 660,793 661,793 662,794 663,794 664,794 665,794 666,794 667,794 668,794 669,794 670,795 671,795 672,795 673,795 674,795 675,795 676,795 677,795 678,795 679,796 680,795 681,796 682,796 683,796 684,796 685,796 686,797 687,797 688,797 689,797 690,798 691,798 692,798 693,798 694,799 695,799 696,799 697,799 698,799 699,799 700,799 701,799 702,799 703,800 704,800 705,800 706,800 707,800 708,801 709,801 710,801 711,802 712,802 713,803 714,803 715,803 716,804 717,804 718,805 719,805 720,805 721,806 722,806 723,807 724,807 725,808 726,808 727,809 728,810 729,810 730,811 731,812 732,812 733,812 734,813 735,813 736,814 737,814 738,814 739,815 740,815 741,816 742,817 743,817 744,818 745,818 746,820 747,821 748,821 749,822 750,823 751,823 752,824 753,824 754,825 755,825 756,826 757,827 758,827 759,828 760,829 761,830 762,831 763,832 764,833 765,834 766,835 767,836 768,837 769,838 770,839 771,840 772,842 773,843 774,845 775,846 776,847 777,849 778,851 779,854 780,856 781,858 782,862 783,868 783,877 782,883 781,886 780,889 779,892 778,894 777,896 776,897 775,898 774,900 773,901 772,901 771,903 770,904 769,904 768,906 767,907 766,907 765,908 764,908 763,909 762,910 761,910 760,911 759,912 758,912 757,913 756,913 755,913 754,914 753,914 752,915 751,915 750,916 749,916 748,917 747,917 746,918 745,918 744,919 743,918 742,918 741,919 740,921 739,921 738,922 737,922 736,922 735,923 734,923 733,923 732,925 731,925 730,925 729,926 728,926 727,926 726,927 725,927 724,928 723,928 722,929 721,929 720,929 719,930 718,930 717,930 716,931 715,931 714,932 713,932 712,932 711,933 710,933 709,933 708,934 707,934 706,934 705,935 704,935 703,935 702,935 701,935 700,935 699,935 698,936 697,936 696,936 695,936 694,936 693,936 692,937 691,937 690,937 689,937 688,937 687,938 686,938 685,938 684,939 683,939 682,939 681,939 680,939 679,939 678,939 677,939 676,939 675,939 674,940 673,940 672,940 671,940 670,940 669,940 668,940 667,940 666,940 665,941 664,941 663,941 662,941 661,941 660,941 659,941 658,942 657,942 656,942 655,942 654,942 653,942 652,942 651,942 650,943 649,943 648,943 647,943 646,943 645,943 644,944 643,944 642,944 641,944 640,944 639,944 638,944 637,944 636,944 635,945 634,945 633,945 632,945 631,945 630,945 629,945 628,945 627,945 626,945 625,945 624,945 623,945 622,945 621,945 620,945 619,945 618,945 617,945 616,945 615,945 614,945 613,945 612,945 611,945 610,946 609,946 608,946 607,945 606,945 605,945 604,945 603,945 602,945 601,945 600,945 599,945 598,945 597,945 596,945 595,945 594,945 593,945 592,945 591,945 590,945 589,945 588,945 587,945 586,945 585,945 584,945 583,945 582,945 581,945 580,945 579,945 578,945 577,945 576,945 575,945 574,945 573,945 572,945 571,945 570,945 569,945 568,945 567,945 566,945 565,945 564,945 563,944 562,944 561,944 560,944 559,944 558,944 557,944 556,944 555,944 554,943 553,943 552,943 551,942 550,942 549,943 548,944 547,944 546,945 545,947 544,948 543,949 542,950 541,964 540,966 539,967 538,968 537,969 536,970 535,971 534,972 533,961 532,960 531,939 530,939 529,939 528,938 527,938 526,938 525,938 524,937 523,937 522,937 521,937 520,937 519,937 518,937 517,937 516,937 515,936 514,936 513,936 512,935 511,935 510,934 509,934 508,934 507,934 506,933 505,933 504,933 503,933 502,933 501,932 500,932 499,932 498,931 497,931 496,931 495,931 494,931 493,930 492,930 491,930 490,929 489,929 488,929 487,929 486,928 485,928 484,928 483,928 482,927 481,927 480,926 479,926 478,926 477,925 476,925 475,925 474,924 473,924 472,923 471,923 470,923 469,922 468,922 467,921 466,920 465,919 464,920 463,919 462,919 461,918 460,918 459,917 458,917 457,916 456,916 455,915 454,915 453,914 452,913 451,913 450,912 449,911 448,911 447,910 446,910 445,909 444,908 443,907 442,907 441,906 440,905 439,905 438,904 437,903 436,901 435,901 434,900 433,898 432,897 431,895 430,894 429,892 428,890 427,888 426,885 425,882 424,878 424,865">
            <metadata shape="oval"/>
        </polygon>
        <polygon points="201,1373 202,1361 203,1353 204,1349 205,1347 206,1345 207,1342 208,1341 209,1339 210,1337 211,1335 212,1333 213,1332 214,1330 215,1329 216,1328 217,1327 218,1325 219,1325 220,1323 221,1322 222,1322 223,1321 224,1320 225,1319 226,1318 227,1317 228,1316 229,1316 230,1315 231,1314 232,1314 233,1313 234,1312 235,1311 236,1311 237,1310 238,1310 239,1309 240,1309 241,1308 242,1308 243,1307 244,1307 245,1306 246,1306 247,1306 248,1305 249,1304 250,1304 251,1304 252,1303 253,1303 254,1302 255,1302 256,1302 257,1301 258,1300 259,1300 260,1300 261,1299 262,1299 263,1299 264,1298 265,1298 266,1297 267,1297 268,1297 269,1297 270,1297 271,1296 272,1296 273,1296 274,1295 275,1295 276,1295 277,1294 278,1294 279,1294 280,1294 281,1294 282,1294 283,1295 284,1293 285,1293 286,1293 287,1292 288,1292 289,1292 290,1292 291,1291 292,1291 293,1291 294,1291 295,1291 296,1291 297,1291 298,1291 299,1291 300,1290 301,1290 302,1290 303,1290 304,1290 305,1290 306,1290 307,1289 308,1289 309,1289 310,1289 311,1289 312,1289 313,1288 314,1288 315,1289 316,1289 317,1289 318,1288 319,1288 320,1288 321,1288 322,1288 323,1288 324,1288 325,1288 326,1288 327,1288 328,1289 329,1289 330,1288 331,1288 332,1289 333,1289 334,1289 335,1289 336,1289 337,1289 338,1289 339,1289 340,1289 341,1289 342,1289 343,1289 344,1289 345,1289 346,1290 347,1290 348,1290 349,1290 350,1290 351,1290 352,1290 353,1290 354,1290 355,1290 356,1290 357,1290 358,1291 359,1291 360,1291 361,1291 362,1291 363,1291 364,1292 365,1292 366,1292 367,1292 368,1292 369,1293 370,1293 371,1293 372,1293 373,1293 374,1294 375,1294 376,1294 377,1295 378,1295 379,1295 380,1295 381,1296 382,1296 383,1296 384,1297 385,1297 386,1298 387,1298 388,1299 389,1299 390,1299 391,1300 392,1301 393,1301 394,1301 395,1302 396,1302 397,1303 398,1303 399,1304 400,1305 401,1306 402,1307 403,1308 404,1309 405,1310 406,1311 407,1312 408,1313 409,1314 410,1315 411,1316 412,1318 413,1319 414,1320 415,1322 416,1323 417,1324 418,1325 419,1327 420,1329 421,1330 422,1332 423,1334 424,1336 425,1337 426,1339 427,1341 428,1343 429,1345 430,1347 431,1351 432,1355 433,1359 434,1364 435,1373 436,1386 436,1392 435,1404 434,1409 433,1411 432,1413 431,1415 430,1417 429,1419 428,1420 427,1422 426,1424 425,1426 424,1427 423,1428 422,1429 421,1431 420,1431 419,1432 418,1433 417,1434 416,1435 415,1435 414,1436 413,1437 412,1438 411,1438 410,1439 409,1440 408,1441 407,1441 406,1442 405,1443 404,1443 403,1444 402,1444 401,1445 400,1445 399,1446 398,1446 397,1446 396,1447 395,1447 394,1447 393,1448 392,1448 391,1448 390,1449 389,1449 388,1449 387,1449 386,1449 385,1449 384,1450 383,1450 382,1450 381,1451 380,1451 379,1451 378,1451 377,1451 376,1452 375,1452 374,1452 373,1452 372,1453 371,1453 370,1453 369,1453 368,1453 367,1454 366,1454 365,1454 364,1454 363,1455 362,1455 361,1455 360,1455 359,1455 358,1455 357,1455 356,1455 355,1455 354,1455 353,1455 352,1455 351,1455 350,1455 349,1455 348,1455 347,1456 346,1456 345,1456 344,1455 343,1456 342,1456 341,1456 340,1456 339,1456 338,1456 337,1456 336,1456 335,1456 334,1456 333,1456 332,1456 331,1456 330,1456 329,1456 328,1456 327,1456 326,1456 325,1456 324,1456 323,1456 322,1456 321,1456 320,1456 319,1456 318,1456 317,1456 316,1456 315,1456 314,1456 313,1456 312,1456 311,1455 310,1455 309,1455 308,1455 307,1455 306,1455 305,1455 304,1455 303,1455 302,1454 301,1454 300,1454 299,1454 298,1454 297,1454 296,1454 295,1454 294,1454 293,1454 292,1454 291,1454 290,1454 289,1454 288,1454 287,1454 286,1454 285,1454 284,1454 283,1454 282,1454 281,1453 280,1453 279,1453 278,1453 277,1453 276,1453 275,1453 274,1453 273,1453 272,1453 271,1453 270,1452 269,1452 268,1452 267,1452 266,1452 265,1452 264,1451 263,1451 262,1451 261,1451 260,1451 259,1451 258,1450 257,1450 256,1450 255,1450 254,1450 253,1449 252,1449 251,1449 250,1449 249,1449 248,1448 247,1448 246,1448 245,1448 244,1449 243,1450 242,1452 241,1453 240,1454 239,1455 238,1457 237,1459 236,1461 235,1474 234,1473 233,1466 232,1442 231,1441 230,1440 229,1440 228,1439 227,1438 226,1437 225,1436 224,1435 223,1434 222,1433 221,1432 220,1431 219,1429 218,1428 217,1427 216,1426 215,1424 214,1423 213,1422 212,1420 211,1418 210,1415 209,1414 208,1412 207,1410 206,1407 205,1405 204,1402 203,1399 202,1393 201,1376 201,1373">
            <metadata shape="oval"/>
        </polygon>
        <polygon points="466,1357 467,1351 468,1347 469,1344 470,1341 471,1339 472,1336 473,1334 474,1333 475,1331 476,1329 477,1327 478,1325 479,1324 480,1322 481,1321 482,1320 483,1319 484,1317 485,1316 486,1314 487,1313 488,1313 489,1312 490,1311 491,1310 492,1310 493,1309 494,1308 495,1307 496,1307 497,1306 498,1305 499,1305 500,1304 501,1303 502,1302 503,1302 504,1302 505,1301 506,1301 507,1300 508,1299 509,1299 510,1298 511,1298 512,1297 513,1297 514,1296 515,1296 516,1295 517,1295 518,1294 519,1294 520,1293 521,1293 522,1292 523,1292 524,1291 525,1291 526,1290 527,1290 528,1289 529,1289 530,1289 531,1288 532,1288 533,1288 534,1287 535,1287 536,1287 537,1287 538,1286 539,1286 540,1286 541,1285 542,1285 543,1285 544,1285 545,1284 546,1284 547,1284 548,1284 549,1283 550,1283 551,1283 552,1283 553,1283 554,1282 555,1282 556,1282 557,1282 558,1282 559,1282 560,1282 561,1281 562,1281 563,1281 564,1281 565,1281 566,1280 567,1280 568,1280 569,1280 570,1280 571,1280 572,1280 573,1279 574,1279 575,1279 576,1279 577,1279 578,1279 579,1279 580,1278 581,1278 582,1278 583,1278 584,1278 585,1278 586,1278 587,1278 588,1278 589,1278 590,1278 591,1278 592,1278 593,1278 594,1278 595,1278 596,1278 597,1278 598,1278 599,1278 600,1278 601,1277 602,1278 603,1277 604,1278 605,1278 606,1278 607,1278 608,1278 609,1278 610,1278 611,1278 612,1278 613,1278 614,1277 615,1278 616,1278 617,1278 618,1278 619,1278 620,1278 621,1278 622,1278 623,1278 624,1278 625,1278 626,1278 627,1278 628,1278 629,1278 630,1278 631,1279 632,1279 633,1279 634,1279 635,1279 636,1279 637,1279 638,1280 639,1280 640,1280 641,1280 642,1280 643,1280 644,1280 645,1281 646,1281 647,1281 648,1281 649,1282 650,1282 651,1282 652,1282 653,1282 654,1282 655,1282 656,1282 657,1283 658,1283 659,1283 660,1283 661,1283 662,1284 663,1284 664,1284 665,1284 666,1285 667,1285 668,1285 669,1285 670,1285 671,1286 672,1286 673,1286 674,1287 675,1287 676,1288 677,1288 678,1288 679,1288 680,1288 681,1289 682,1289 683,1289 684,1290 685,1290 686,1291 687,1292 688,1292 689,1293 690,1293 691,1294 692,1295 693,1295 694,1295 695,1296 696,1297 697,1297 698,1298 699,1298 700,1299 701,1300 702,1301 703,1302 704,1303 705,1304 706,1305 707,1307 708,1307 709,1309 710,1310 711,1311 712,1312 713,1313 714,1314 715,1315 716,1317 717,1318 718,1319 719,1321 720,1323 721,1324 722,1326 723,1328 724,1330 725,1332 726,1333 727,1336 728,1339 729,1346 730,1356 731,1367 731,1372 730,1383 729,1389 728,1392 727,1394 726,1396 725,1398 724,1401 723,1402 722,1404 721,1405 720,1408 719,1409 718,1410 717,1446 716,1448 715,1437 714,1434 713,1432 712,1431 711,1430 710,1428 709,1427 708,1425 707,1424 706,1423 705,1423 704,1423 703,1425 702,1426 701,1426 700,1427 699,1427 698,1428 697,1428 696,1428 695,1429 694,1429 693,1430 692,1430 691,1431 690,1431 689,1431 688,1431 687,1432 686,1432 685,1432 684,1433 683,1433 682,1433 681,1433 680,1433 679,1434 678,1434 677,1434 676,1434 675,1435 674,1435 673,1435 672,1435 671,1435 670,1436 669,1436 668,1436 667,1436 666,1437 665,1436 664,1437 663,1437 662,1437 661,1437 660,1437 659,1437 658,1438 657,1438 656,1438 655,1438 654,1438 653,1438 652,1438 651,1438 650,1438 649,1438 648,1439 647,1439 646,1439 645,1439 644,1439 643,1439 642,1439 641,1440 640,1440 639,1440 638,1440 637,1440 636,1440 635,1440 634,1440 633,1440 632,1441 631,1441 630,1441 629,1441 628,1441 627,1441 626,1441 625,1441 624,1441 623,1441 622,1441 621,1441 620,1441 619,1441 618,1441 617,1441 616,1441 615,1441 614,1442 613,1442 612,1442 611,1442 610,1442 609,1442 608,1442 607,1442 606,1442 605,1442 604,1442 603,1442 602,1442 601,1442 600,1442 599,1442 598,1442 597,1442 596,1442 595,1442 594,1442 593,1442 592,1442 591,1442 590,1442 589,1442 588,1442 587,1442 586,1442 585,1442 584,1442 583,1442 582,1442 581,1442 580,1442 579,1442 578,1442 577,1441 576,1441 575,1441 574,1441 573,1441 572,1441 571,1441 570,1441 569,1441 568,1441 567,1441 566,1441 565,1441 564,1440 563,1440 562,1440 561,1440 560,1440 559,1440 558,1440 557,1439 556,1439 555,1439 554,1439 553,1439 552,1439 551,1438 550,1438 549,1438 548,1438 547,1438 546,1437 545,1437 544,1437 543,1437 542,1437 541,1437 540,1437 539,1436 538,1436 537,1436 536,1436 535,1436 534,1435 533,1435 532,1435 531,1435 530,1435 529,1434 528,1434 527,1434 526,1434 525,1433 524,1433 523,1433 522,1433 521,1432 520,1432 519,1432 518,1431 517,1431 516,1431 515,1430 514,1430 513,1430 512,1429 511,1429 510,1429 509,1428 508,1428 507,1427 506,1427 505,1426 504,1426 503,1425 502,1424 501,1424 500,1423 499,1423 498,1422 497,1421 496,1421 495,1420 494,1420 493,1419 492,1418 491,1417 490,1417 489,1416 488,1415 487,1414 486,1413 485,1412 484,1411 483,1410 482,1409 481,1408 480,1407 479,1406 478,1405 477,1403 476,1401 475,1400 474,1398 473,1396 472,1393 471,1391 470,1389 469,1386 468,1382 467,1377 466,1367 466,1357">
            <metadata shape="oval"/>
        </polygon>
        <polygon points="841,1397 842,1381 843,1378 844,1375 845,1372 846,1369 847,1366 848,1363 849,1361 850,1359 851,1357 852,1355 853,1354 854,1352 855,1350 856,1348 857,1346 858,1345 859,1344 860,1343 861,1342 862,1341 863,1340 864,1339 865,1338 866,1337 867,1336 868,1335 869,1334 870,1333 871,1332 872,1331 873,1330 874,1329 875,1329 876,1328 877,1327 878,1326 879,1325 880,1325 881,1324 882,1323 883,1322 884,1322 885,1321 886,1321 887,1320 888,1320 889,1319 890,1319 891,1318 892,1318 893,1317 894,1317 895,1316 896,1316 897,1316 898,1315 899,1315 900,1314 901,1314 902,1314 903,1313 904,1313 905,1313 906,1313 907,1312 908,1312 909,1312 910,1311 911,1311 912,1311 913,1310 914,1310 915,1310 916,1310 917,1309 918,1309 919,1309 920,1309 921,1308 922,1308 923,1308 924,1308 925,1307 926,1307 927,1307 928,1307 929,1306 930,1307 931,1306 932,1306 933,1306 934,1306 935,1305 936,1305 937,1305 938,1305 939,1305 940,1304 941,1304 942,1304 943,1304 944,1304 945,1304 946,1303 947,1303 948,1303 949,1303 950,1303 951,1303 952,1303 953,1302 954,1302 955,1302 956,1302 957,1302 958,1302 959,1302 960,1302 961,1302 962,1302 963,1302 964,1302 965,1302 966,1302 967,1302 968,1302 969,1302 970,1302 971,1302 972,1302 973,1302 974,1302 975,1302 976,1302 977,1302 978,1303 979,1303 980,1303 981,1303 982,1303 983,1303 984,1303 985,1304 986,1304 987,1304 988,1304 989,1304 990,1304 991,1305 992,1305 993,1305 994,1305 995,1306 996,1306 997,1306 998,1306 999,1307 1000,1307 1001,1307 1002,1307 1003,1307 1004,1308 1005,1308 1006,1308 1007,1309 1008,1309 1009,1309 1010,1310 1011,1310 1012,1311 1013,1311 1014,1312 1015,1312 1016,1313 1017,1314 1018,1314 1019,1314 1020,1315 1021,1315 1022,1316 1023,1317 1024,1317 1025,1318 1026,1319 1027,1319 1028,1320 1029,1321 1030,1322 1031,1322 1032,1323 1033,1324 1034,1324 1035,1325 1036,1326 1037,1326 1038,1327 1039,1328 1040,1329 1041,1329 1042,1330 1043,1331 1044,1332 1045,1333 1046,1334 1047,1335 1048,1336 1049,1337 1050,1338 1051,1339 1052,1340 1053,1341 1054,1343 1055,1344 1056,1345 1057,1346 1058,1348 1059,1350 1060,1351 1061,1353 1062,1354 1063,1356 1064,1359 1065,1360 1066,1362 1067,1366 1068,1368 1069,1371 1070,1374 1071,1378 1072,1382 1073,1387 1074,1391 1075,1399 1075,1410 1074,1414 1073,1419 1072,1423 1071,1426 1070,1428 1069,1430 1068,1432 1067,1433 1066,1435 1065,1437 1064,1438 1063,1439 1062,1440 1061,1441 1060,1442 1059,1443 1058,1444 1057,1445 1056,1446 1055,1446 1054,1447 1053,1448 1052,1448 1051,1449 1050,1450 1049,1450 1048,1451 1047,1451 1046,1452 1045,1453 1044,1453 1043,1454 1042,1455 1041,1455 1040,1455 1039,1456 1038,1457 1037,1457 1036,1458 1035,1458 1034,1458 1033,1459 1032,1459 1031,1460 1030,1460 1029,1461 1028,1461 1027,1461 1026,1462 1025,1462 1024,1463 1023,1463 1022,1463 1021,1464 1020,1464 1019,1465 1018,1465 1017,1466 1016,1493 1015,1495 1014,1497 1013,1499 1012,1500 1011,1502 1010,1503 1009,1505 1008,1507 1007,1493 1006,1493 1005,1493 1004,1492 1003,1492 1002,1492 1001,1492 1000,1492 999,1492 998,1492 997,1492 996,1491 995,1491 994,1471 993,1471 992,1472 991,1472 990,1472 989,1472 988,1472 987,1472 986,1472 985,1472 984,1472 983,1472 982,1472 981,1472 980,1472 979,1472 978,1472 977,1472 976,1472 975,1472 974,1472 973,1472 972,1472 971,1472 970,1471 969,1471 968,1471 967,1471 966,1472 965,1471 964,1471 963,1471 962,1471 961,1471 960,1471 959,1471 958,1471 957,1470 956,1470 955,1470 954,1470 953,1470 952,1470 951,1470 950,1470 949,1470 948,1470 947,1470 946,1470 945,1470 944,1470 943,1470 942,1470 941,1470 940,1469 939,1469 938,1469 937,1469 936,1469 935,1469 934,1468 933,1468 932,1468 931,1468 930,1468 929,1468 928,1467 927,1467 926,1467 925,1467 924,1467 923,1466 922,1466 921,1466 920,1466 919,1466 918,1465 917,1465 916,1465 915,1464 914,1465 913,1464 912,1464 911,1464 910,1464 909,1464 908,1464 907,1463 906,1463 905,1463 904,1463 903,1462 902,1462 901,1462 900,1462 899,1462 898,1461 897,1461 896,1461 895,1461 894,1460 893,1460 892,1460 891,1459 890,1459 889,1459 888,1459 887,1458 886,1458 885,1457 884,1457 883,1456 882,1456 881,1455 880,1455 879,1454 878,1454 877,1453 876,1453 875,1452 874,1452 873,1451 872,1451 871,1450 870,1450 869,1449 868,1449 867,1448 866,1447 865,1447 864,1446 863,1445 862,1445 861,1444 860,1443 859,1443 858,1442 857,1442 856,1441 855,1440 854,1438 853,1437 852,1436 851,1435 850,1434 849,1432 848,1430 847,1429 846,1427 845,1425 844,1422 843,1419 842,1415 841,1411 841,1397">
            <metadata shape="oval"/>
        </polygon>
    </svg>
    <svg contentScriptType="text/ecmascript" zoomAndPan="magnify" contentStyleType="text/css" class="Object" preserveAspectRatio="xMidYMid meet" version="1.0"/>
    <metadata method="GroundTruth" lastModificationDate="Sun Nov 03 13:07:59 CET 2013" lastStepModified="Page_Ended"/>
</svg>
