<?xml version="1.0" encoding="UTF-8" standalone="no"?>
<svg xmlns="http://www.w3.org/2000/svg" xmlns:xlink="http://www.w3.org/1999/xlink" contentScriptType="text/ecmascript" width="375mm" zoomAndPan="magnify" contentStyleType="text/css" height="530mm" viewBox="0 0 750 1060" preserveAspectRatio="xMidYMid meet" version="1.0">
    <title>CYB_BUBBLEGOM_T01_034.jpg</title>
    <svg contentScriptType="text/ecmascript" zoomAndPan="magnify" contentStyleType="text/css" class="Page" preserveAspectRatio="xMidYMid meet" version="1.0">
        <image x="0" y="0" fill-opacity="0.5" width="750" xlink:href="../Pages/CYB_BUBBLEGOM_T01_034.jpg" xlink:type="simple" xlink:actuate="onLoad" height="1060" opacity="0.5" preserveAspectRatio="xMidYMid meet" xlink:show="embed"/>
    </svg>
    <style type="text/css" xml:space="preserve"><![CDATA[
		* { stroke-width: 0; stroke-linejoin: round; }
		.Unclassified { fill: orange; stroke: none; opacity: 1.0; visibility: hidden; }
		.Noise { fill: pink; stroke: none; opacity: 0.2; visibility: hidden; }
		.Panel { fill: red; stroke: none; opacity: 0.2; visibility: visible; image-rendering: optimizeSpeed; }
		.Line { fill: green; stroke: none; opacity: 0.2; visibility: visible; image-rendering: optimizeSpeed; }
		.TextArea { fill: grey; stroke: none; opacity: 0.2; visibility: visible; image-rendering: optimizeSpeed; }
		.Balloon { fill: cyan; stroke: none; opacity: 0.2; visibility: visible; image-rendering: optimizeSpeed; }
		.Letter { fill: blue; stroke: none; opacity: 0.2; visibility: hidden; }
		.Object { fill: yellow; stroke: none; opacity: 0.2; visibility: visible; image-rendering: optimizeSpeed; }
		.Page { fill: white; stroke: none; opacity: 0.5; visibility: visible; }
]]></style>
    <svg contentScriptType="text/ecmascript" zoomAndPan="magnify" contentStyleType="text/css" class="Panel" preserveAspectRatio="xMidYMid meet" version="1.0"/>
    <svg contentScriptType="text/ecmascript" zoomAndPan="magnify" contentStyleType="text/css" class="Line" preserveAspectRatio="xMidYMid meet" version="1.0"/>
    <svg contentScriptType="text/ecmascript" zoomAndPan="magnify" contentStyleType="text/css" class="TextArea" preserveAspectRatio="xMidYMid meet" version="1.0"/>
    <svg contentScriptType="text/ecmascript" zoomAndPan="magnify" contentStyleType="text/css" class="Balloon" preserveAspectRatio="xMidYMid meet" version="1.0">
        <polygon points="55,85 56,85 57,85 58,85 59,85 60,85 61,85 62,85 63,85 64,85 65,85 66,85 67,85 68,85 69,85 70,85 71,85 72,85 73,85 74,84 75,85 76,85 77,85 78,85 79,84 80,85 81,85 82,85 83,85 84,85 85,85 86,85 87,85 88,85 89,85 90,85 91,85 92,85 93,85 94,85 95,85 96,85 97,85 98,85 99,85 100,85 101,85 102,85 103,85 104,85 105,85 106,85 107,85 108,85 109,85 110,84 111,85 112,85 113,85 114,85 115,85 116,84 117,85 118,85 119,85 120,84 121,85 122,85 123,85 124,85 125,84 126,85 127,84 128,84 129,84 130,84 131,85 132,85 133,84 134,84 135,84 136,84 137,84 138,84 139,84 140,84 141,85 142,85 143,85 144,85 145,85 146,84 147,84 148,84 149,84 150,84 151,84 152,84 153,84 154,84 155,84 156,84 157,84 158,84 159,84 160,85 161,84 162,84 163,84 164,85 165,84 166,84 167,84 168,84 169,84 170,84 171,84 172,84 173,84 174,84 175,84 176,84 177,84 178,84 179,84 180,84 181,84 182,84 183,84 184,84 185,84 186,84 187,84 188,84 189,84 190,84 191,85 192,84 193,85 194,85 195,85 196,84 197,84 198,84 199,84 200,85 201,85 202,84 203,84 204,84 205,84 206,85 207,84 208,84 209,84 210,84 211,84 212,84 213,84 214,84 215,84 216,84 217,84 218,84 219,84 220,84 221,84 222,84 223,84 224,84 225,85 226,86 227,87 228,89 229,91 230,93 231,96 232,98 233,101 234,105 235,109 235,123 234,128 233,132 232,134 231,136 230,139 229,141 228,143 227,144 226,145 225,147 224,148 223,149 222,150 221,151 220,152 219,153 218,153 217,153 216,153 215,152 214,152 213,151 212,151 211,151 210,158 209,159 208,159 207,160 206,160 205,160 204,161 203,161 202,161 201,162 200,162 199,162 198,162 197,163 196,163 195,163 194,163 193,163 192,163 191,164 190,164 189,164 188,164 187,164 186,164 185,165 184,165 183,165 182,165 181,165 180,166 179,166 178,166 177,166 176,166 175,166 174,166 173,166 172,167 171,167 170,167 169,167 168,167 167,167 166,167 165,167 164,167 163,167 162,167 161,167 160,167 159,167 158,167 157,167 156,167 155,167 154,167 153,167 152,167 151,167 150,167 149,167 148,167 147,167 146,167 145,167 144,167 143,167 142,167 141,167 140,167 139,167 138,167 137,167 136,167 135,167 134,167 133,167 132,167 131,167 130,167 129,167 128,167 127,167 126,167 125,167 124,167 123,167 122,167 121,167 120,167 119,167 118,167 117,167 116,167 115,167 114,166 113,166 112,166 111,166 110,166 109,166 108,166 107,166 106,166 105,165 104,165 103,165 102,165 101,165 100,165 99,165 98,165 97,165 96,165 95,165 94,165 93,166 92,167 91,169 90,170 89,174 88,164 87,164 86,163 85,163 84,163 83,163 82,163 81,162 80,162 79,162 78,161 77,161 76,161 75,161 74,160 73,160 72,160 71,160 70,160 69,159 68,159 67,158 66,158 65,158 64,158 63,157 62,157 61,157 60,156 59,156 58,155 57,155 56,154 55,154 55,85">
            <metadata shape="oval"/>
        </polygon>
        <polygon points="245,126 246,122 247,121 248,121 249,112 250,109 251,106 252,104 253,101 254,99 255,97 256,95 257,94 258,92 259,91 260,89 261,88 262,87 263,86 264,85 265,84 266,84 267,84 268,84 269,84 270,84 271,84 272,84 273,84 274,84 275,84 276,84 277,84 278,84 279,84 280,84 281,84 282,84 283,84 284,84 285,84 286,84 287,84 288,84 289,84 290,84 291,84 292,84 293,84 294,84 295,84 296,84 297,84 298,84 299,84 300,84 301,84 302,84 303,84 304,84 305,84 306,84 307,84 308,84 309,84 310,84 311,84 312,84 313,84 314,84 315,84 316,84 317,84 318,84 319,84 320,84 321,84 322,84 323,84 324,84 325,84 326,84 327,84 328,84 329,84 330,84 331,84 332,84 333,84 334,84 335,84 336,84 337,84 338,84 339,84 340,84 341,84 342,84 343,84 344,84 345,84 346,84 347,84 348,84 349,84 350,84 351,84 352,84 353,84 354,84 355,84 356,84 357,84 358,84 359,84 360,84 361,84 362,84 363,84 364,84 365,84 366,84 367,84 368,84 369,84 370,84 371,84 372,84 373,84 374,84 375,84 376,84 377,84 378,84 379,84 380,84 381,84 382,84 383,84 384,84 385,84 386,84 387,84 388,84 389,84 390,84 391,84 392,84 393,84 394,84 395,84 396,84 397,84 398,84 399,84 400,84 401,84 402,84 403,84 404,84 405,84 406,84 407,84 407,167 406,167 405,167 404,167 403,167 402,168 401,168 400,168 399,168 398,168 397,168 396,168 395,168 394,168 393,168 392,168 391,168 390,168 389,169 388,169 387,174 386,177 385,179 384,169 383,169 382,169 381,169 380,169 379,169 378,169 377,169 376,169 375,169 374,169 373,169 372,169 371,169 370,169 369,169 368,169 367,170 366,170 365,170 364,170 363,170 362,170 361,170 360,170 359,170 358,170 357,170 356,170 355,170 354,170 353,170 352,170 351,170 350,170 349,170 348,170 347,170 346,170 345,170 344,170 343,170 342,170 341,170 340,170 339,170 338,170 337,170 336,170 335,170 334,170 333,170 332,170 331,170 330,169 329,169 328,169 327,169 326,169 325,169 324,169 323,169 322,169 321,169 320,169 319,169 318,169 317,169 316,169 315,169 314,169 313,169 312,169 311,169 310,169 309,169 308,168 307,168 306,168 305,168 304,168 303,168 302,168 301,168 300,168 299,168 298,168 297,167 296,167 295,167 294,167 293,167 292,167 291,167 290,167 289,166 288,166 287,166 286,166 285,166 284,166 283,166 282,166 281,165 280,165 279,165 278,165 277,164 276,164 275,164 274,164 273,164 272,163 271,163 270,163 269,163 268,162 267,162 266,161 265,161 264,161 263,160 262,160 261,160 260,159 259,159 258,158 257,158 256,157 255,157 254,156 253,156 252,155 251,154 250,154 249,152 248,151 247,149 246,145 245,138 245,126">
            <metadata shape="oval"/>
        </polygon>
        <polygon points="321,400 703,402 685,406 724,423 692,422 714,434 692,434 710,442 690,448 726,465 683,472 694,478 681,480 712,499 684,499 697,514 673,511 696,534 655,526 661,537 648,535 661,551 639,545 657,568 624,554 635,570 603,554 614,573 578,556 585,572 567,562 572,579 555,562 554,590 536,566 531,574 529,565 520,576 519,566 504,581 504,565 467,621 445,596 420,616 411,595 381,619 373,602 354,616 337,632 353,609 385,579 387,604 397,590 410,583 423,575 424,597 430,594 442,582 451,587 465,600 475,586 481,558 454,577 460,561 435,576 439,558 413,568 421,557 394,571 403,553 374,563 377,555 360,560 370,550 327,558 344,543 299,545 322,525 297,526 318,512 293,509 311,497 274,496 281,490 291,482 312,478 286,472 310,463 283,456 321,442 312,438 321,436 295,426 330,422 314,410 336,409 321,400">
            <metadata shape="peak" uri="" queueDirection="" area="" fillingPcent="" rank=""/>
        </polygon>
    </svg>
    <svg contentScriptType="text/ecmascript" zoomAndPan="magnify" contentStyleType="text/css" class="Object" preserveAspectRatio="xMidYMid meet" version="1.0"/>
    <metadata method="GroundTruth" lastModificationDate="Fri Dec 06 10:06:46 CET 2013" lastStepModified="Balloon_Polygons"/>
</svg>
