<?xml version="1.0" encoding="UTF-8" standalone="no"?>
<svg xmlns="http://www.w3.org/2000/svg" xmlns:xlink="http://www.w3.org/1999/xlink" contentScriptType="text/ecmascript" width="284mm" zoomAndPan="magnify" contentStyleType="text/css" height="330mm" viewBox="0 0 569 661" preserveAspectRatio="xMidYMid meet" version="1.0">
    <title>CYB_COSMOZONE_010.jpg</title>
    <svg contentScriptType="text/ecmascript" zoomAndPan="magnify" contentStyleType="text/css" class="Page" preserveAspectRatio="xMidYMid meet" version="1.0">
        <image x="0" y="0" fill-opacity="0.5" width="569" xlink:href="../Pages/CYB_COSMOZONE_010.jpg" xlink:type="simple" xlink:actuate="onLoad" height="661" opacity="0.5" preserveAspectRatio="xMidYMid meet" xlink:show="embed"/>
    </svg>
    <style type="text/css" xml:space="preserve"><![CDATA[
		* { stroke-width: 0; stroke-linejoin: round; }
		.Unclassified { fill: orange; stroke: none; opacity: 1.0; visibility: hidden; }
		.Noise { fill: pink; stroke: none; opacity: 0.2; visibility: hidden; }
		.Panel { fill: red; stroke: none; opacity: 0.2; visibility: visible; image-rendering: optimizeSpeed; }
		.Line { fill: green; stroke: none; opacity: 0.2; visibility: visible; image-rendering: optimizeSpeed; }
		.TextArea { fill: grey; stroke: none; opacity: 0.2; visibility: visible; image-rendering: optimizeSpeed; }
		.Balloon { fill: cyan; stroke: none; opacity: 0.2; visibility: visible; image-rendering: optimizeSpeed; }
		.Letter { fill: blue; stroke: none; opacity: 0.2; visibility: hidden; }
		.Object { fill: yellow; stroke: none; opacity: 0.2; visibility: visible; image-rendering: optimizeSpeed; }
		.Page { fill: white; stroke: none; opacity: 0.5; visibility: visible; }
]]></style>
    <svg contentScriptType="text/ecmascript" zoomAndPan="magnify" contentStyleType="text/css" class="Panel" preserveAspectRatio="xMidYMid meet" version="1.0"/>
    <svg contentScriptType="text/ecmascript" zoomAndPan="magnify" contentStyleType="text/css" class="Line" preserveAspectRatio="xMidYMid meet" version="1.0"/>
    <svg contentScriptType="text/ecmascript" zoomAndPan="magnify" contentStyleType="text/css" class="TextArea" preserveAspectRatio="xMidYMid meet" version="1.0"/>
    <svg contentScriptType="text/ecmascript" zoomAndPan="magnify" contentStyleType="text/css" class="Balloon" preserveAspectRatio="xMidYMid meet" version="1.0">
        <polygon points="11,90 12,90 13,90 14,90 15,90 16,90 17,90 18,90 19,90 20,90 21,90 22,90 23,90 24,90 25,90 26,90 27,90 28,90 29,90 30,90 31,90 32,90 33,90 34,90 35,90 36,90 37,90 38,90 39,90 40,90 41,90 42,90 43,90 44,90 45,90 46,90 47,90 48,90 49,90 50,90 51,90 52,90 53,90 54,90 55,90 56,90 57,90 58,90 59,90 60,90 61,90 62,90 63,90 64,90 65,90 66,90 67,90 68,90 69,90 70,90 71,90 72,90 73,90 74,90 75,90 76,90 77,90 78,90 79,90 80,90 81,90 82,90 83,90 84,90 85,90 86,90 87,90 88,90 89,90 90,90 91,90 92,90 93,90 94,90 95,90 96,90 97,90 98,90 99,90 100,90 101,90 102,90 103,90 104,90 105,90 106,90 107,90 108,90 109,90 110,90 111,90 112,90 113,90 114,90 115,90 116,90 117,90 118,90 119,90 120,90 121,90 122,90 123,90 124,90 125,90 126,90 127,90 128,90 129,90 130,90 131,90 132,90 133,90 134,90 135,90 136,91 137,92 138,93 139,94 140,95 141,95 142,97 143,98 144,99 145,101 146,103 147,105 148,110 149,115 149,124 148,127 147,130 146,131 145,133 144,134 143,135 142,137 141,138 140,139 139,139 138,140 137,141 136,142 135,142 134,142 133,143 132,144 131,144 130,145 129,145 128,146 127,146 126,146 125,147 124,147 123,148 122,148 121,148 120,148 119,149 118,149 117,149 116,149 115,150 114,150 113,151 112,151 111,151 110,151 109,152 108,152 107,152 106,152 105,153 104,153 103,153 102,153 101,154 100,154 99,154 98,154 97,154 96,155 95,155 94,155 93,155 92,155 91,155 90,155 89,155 88,155 87,155 86,155 85,155 84,156 83,156 82,156 81,156 80,156 79,156 78,156 77,156 76,157 75,164 74,167 73,169 72,171 71,172 70,161 69,159 68,157 67,157 66,157 65,156 64,156 63,156 62,156 61,156 60,156 59,156 58,156 57,156 56,156 55,156 54,155 53,155 52,155 51,155 50,155 49,154 48,154 47,154 46,154 45,153 44,153 43,153 42,152 41,152 40,152 39,151 38,151 37,151 36,150 35,150 34,150 33,149 32,149 31,148 30,148 29,148 28,147 27,147 26,146 25,146 24,145 23,144 22,143 21,143 20,142 19,142 18,141 17,140 16,139 15,139 14,138 13,137 12,136 11,134 11,90">
            <metadata shape="oval"/>
        </polygon>
        <polygon points="160,116 161,111 162,108 163,106 164,105 165,104 166,102 167,101 168,100 169,100 170,99 171,98 172,97 173,96 174,96 175,95 176,95 177,94 178,94 179,93 180,93 181,93 182,92 183,92 184,91 185,91 186,90 187,90 188,90 189,90 190,90 191,90 192,90 193,90 194,90 195,90 196,90 197,90 198,90 199,90 200,90 201,90 202,90 203,90 204,90 205,90 206,90 207,90 208,90 209,90 210,90 211,90 212,90 213,90 214,90 215,90 216,90 217,90 218,90 219,89 220,90 221,89 222,90 223,90 224,90 225,90 226,90 227,89 228,90 229,90 230,90 231,89 232,90 233,90 234,90 235,91 236,91 237,92 238,92 239,93 240,93 241,93 242,94 243,95 244,95 245,96 246,96 247,97 248,98 249,99 250,100 251,101 252,102 253,104 254,105 255,106 256,109 257,111 258,117 258,121 257,125 256,128 255,131 254,132 253,134 252,135 251,136 250,137 249,138 248,138 247,139 246,139 245,140 244,141 243,142 242,142 241,142 240,143 239,144 238,144 237,145 236,145 235,145 234,145 233,146 232,146 231,146 230,146 229,147 228,147 227,147 226,147 225,148 224,148 223,148 222,148 221,148 220,148 219,148 218,148 217,148 216,148 215,148 214,148 213,148 212,148 211,148 210,148 209,148 208,148 207,148 206,148 205,148 204,148 203,148 202,148 201,148 200,148 199,148 198,159 197,158 196,156 195,148 194,148 193,147 192,147 191,147 190,146 189,146 188,145 187,145 186,145 185,145 184,144 183,144 182,144 181,143 180,143 179,143 178,142 177,142 176,141 175,141 174,140 173,140 172,139 171,139 170,138 169,137 168,136 167,135 166,133 165,132 164,130 163,129 162,127 161,123 160,117 160,116">
            <metadata shape="oval"/>
        </polygon>
        <polygon points="421,134 422,127 423,126 424,124 425,123 426,122 427,120 428,119 429,118 430,118 431,117 432,116 433,115 434,114 435,114 436,113 437,113 438,112 439,112 440,111 441,111 442,111 443,110 444,110 445,110 446,109 447,109 448,109 449,109 450,108 451,108 452,108 453,107 454,107 455,107 456,106 457,106 458,106 459,106 460,106 461,106 462,105 463,105 464,105 465,105 466,105 467,105 468,105 469,105 470,105 471,105 472,105 473,105 474,105 475,105 476,105 477,105 478,105 479,105 480,105 481,105 482,105 483,106 484,106 485,106 486,106 487,106 488,106 489,107 490,107 491,107 492,108 493,108 494,108 495,109 496,109 497,109 498,110 499,111 500,111 501,111 502,111 503,112 504,113 505,113 506,114 507,115 508,115 509,116 510,117 511,118 512,119 513,120 514,122 515,123 516,125 517,127 518,129 518,143 517,145 516,147 515,150 514,151 513,153 512,154 511,155 510,156 509,156 508,157 507,158 506,158 505,159 504,160 503,160 502,161 501,161 500,162 499,162 498,163 497,163 496,163 495,164 494,164 493,164 492,164 491,164 490,165 489,165 488,165 487,165 486,166 485,166 484,166 483,166 482,166 481,166 480,166 479,166 478,167 477,166 476,166 475,167 474,167 473,167 472,167 471,167 470,167 469,167 468,167 467,167 466,167 465,167 464,167 463,167 462,166 461,166 460,166 459,166 458,176 457,174 456,172 455,166 454,166 453,165 452,165 451,164 450,164 449,164 448,164 447,163 446,163 445,163 444,162 443,162 442,162 441,161 440,161 439,161 438,160 437,160 436,159 435,159 434,158 433,158 432,157 431,156 430,155 429,155 428,153 427,152 426,151 425,149 424,147 423,145 422,143 421,137 421,134">
            <metadata shape="oval"/>
        </polygon>
        <polygon points="350,407 351,404 352,401 353,399 354,398 355,397 356,395 357,395 358,394 359,392 360,392 361,391 362,391 363,390 364,389 365,389 366,388 367,387 368,386 369,386 370,386 371,385 372,384 373,384 374,383 375,383 376,383 377,382 378,382 379,382 380,381 381,381 382,381 383,380 384,380 385,380 386,380 387,380 388,379 389,379 390,379 391,378 392,378 393,378 394,378 395,378 396,377 397,377 398,377 399,377 400,376 401,377 402,376 403,376 404,376 405,376 406,376 407,376 408,376 409,376 410,377 411,376 412,376 413,376 414,376 415,376 416,376 417,376 418,376 419,376 420,376 421,376 422,376 423,376 424,376 425,376 426,376 427,376 428,376 429,376 430,376 431,376 432,375 433,376 434,375 435,375 436,376 437,376 438,376 439,376 440,376 441,376 442,376 443,376 444,376 445,376 446,377 447,377 448,377 449,377 450,377 451,377 452,377 453,377 454,378 455,378 456,378 457,379 458,379 459,379 460,379 461,380 462,380 463,380 464,380 465,381 466,381 467,382 468,382 469,383 470,383 471,383 472,384 473,384 474,385 475,385 476,386 477,387 478,388 479,388 480,389 481,390 482,391 483,392 484,393 485,394 486,395 487,397 488,398 489,400 490,404 491,407 492,412 492,420 491,423 490,425 489,428 488,429 487,431 486,432 485,433 484,434 483,435 482,436 481,437 480,438 479,438 478,439 477,439 476,439 475,440 474,441 473,441 472,441 471,442 470,442 469,443 468,443 467,444 466,444 465,444 464,444 463,445 462,445 461,445 460,446 459,446 458,447 457,447 456,447 455,447 454,448 453,448 452,448 451,449 450,449 449,449 448,449 447,450 446,450 445,450 444,450 443,450 442,450 441,451 440,451 439,451 438,451 437,451 436,452 435,452 434,452 433,452 432,452 431,452 430,452 429,452 428,452 427,453 426,453 425,453 424,453 423,453 422,453 421,453 420,453 419,454 418,460 417,463 416,465 415,467 414,469 413,458 412,456 411,454 410,453 409,453 408,453 407,453 406,453 405,453 404,453 403,453 402,453 401,453 400,453 399,453 398,453 397,452 396,452 395,452 394,452 393,451 392,451 391,451 390,450 389,450 388,450 387,450 386,450 385,449 384,449 383,449 382,448 381,448 380,447 379,447 378,447 377,447 376,446 375,445 374,445 373,445 372,444 371,444 370,444 369,443 368,442 367,442 366,441 365,441 364,440 363,439 362,438 361,438 360,437 359,436 358,435 357,435 356,434 355,433 354,432 353,431 352,428 351,427 350,424 350,407">
            <metadata shape="oval"/>
        </polygon>
    </svg>
    <svg contentScriptType="text/ecmascript" zoomAndPan="magnify" contentStyleType="text/css" class="Object" preserveAspectRatio="xMidYMid meet" version="1.0"/>
    <metadata method="GroundTruth" lastModificationDate="Sun Nov 03 13:01:14 CET 2013" lastStepModified="Page_Ended"/>
</svg>
