<?xml version="1.0" encoding="UTF-8" standalone="no"?>
<svg xmlns="http://www.w3.org/2000/svg" xmlns:xlink="http://www.w3.org/1999/xlink" contentScriptType="text/ecmascript" width="375mm" zoomAndPan="magnify" contentStyleType="text/css" height="530mm" viewBox="0 0 750 1060" preserveAspectRatio="xMidYMid meet" version="1.0">
    <title>CYB_BUBBLEGOM_T01_036.jpg</title>
    <svg contentScriptType="text/ecmascript" zoomAndPan="magnify" contentStyleType="text/css" class="Page" preserveAspectRatio="xMidYMid meet" version="1.0">
        <image x="0" y="0" fill-opacity="0.5" width="750" xlink:href="../Pages/CYB_BUBBLEGOM_T01_036.jpg" xlink:type="simple" xlink:actuate="onLoad" height="1060" opacity="0.5" preserveAspectRatio="xMidYMid meet" xlink:show="embed"/>
    </svg>
    <style type="text/css" xml:space="preserve"><![CDATA[
		* { stroke-width: 0; stroke-linejoin: round; }
		.Unclassified { fill: orange; stroke: none; opacity: 1.0; visibility: hidden; }
		.Noise { fill: pink; stroke: none; opacity: 0.2; visibility: hidden; }
		.Panel { fill: red; stroke: none; opacity: 0.2; visibility: visible; image-rendering: optimizeSpeed; }
		.Line { fill: green; stroke: none; opacity: 0.2; visibility: visible; image-rendering: optimizeSpeed; }
		.TextArea { fill: grey; stroke: none; opacity: 0.2; visibility: visible; image-rendering: optimizeSpeed; }
		.Balloon { fill: cyan; stroke: none; opacity: 0.2; visibility: visible; image-rendering: optimizeSpeed; }
		.Letter { fill: blue; stroke: none; opacity: 0.2; visibility: hidden; }
		.Object { fill: yellow; stroke: none; opacity: 0.2; visibility: visible; image-rendering: optimizeSpeed; }
		.Page { fill: white; stroke: none; opacity: 0.5; visibility: visible; }
]]></style>
    <svg contentScriptType="text/ecmascript" zoomAndPan="magnify" contentStyleType="text/css" class="Panel" preserveAspectRatio="xMidYMid meet" version="1.0"/>
    <svg contentScriptType="text/ecmascript" zoomAndPan="magnify" contentStyleType="text/css" class="Line" preserveAspectRatio="xMidYMid meet" version="1.0"/>
    <svg contentScriptType="text/ecmascript" zoomAndPan="magnify" contentStyleType="text/css" class="TextArea" preserveAspectRatio="xMidYMid meet" version="1.0"/>
    <svg contentScriptType="text/ecmascript" zoomAndPan="magnify" contentStyleType="text/css" class="Balloon" preserveAspectRatio="xMidYMid meet" version="1.0">
        <polygon points="56,406 57,406 58,406 59,406 60,406 61,406 62,406 63,406 64,406 65,406 66,406 67,406 68,406 69,406 70,406 71,406 72,406 73,406 74,406 75,406 76,406 77,406 78,406 79,406 80,406 81,406 82,406 83,406 84,406 85,406 86,406 87,406 88,406 89,406 90,406 91,406 92,406 93,406 94,406 95,406 96,406 97,406 98,406 99,406 100,406 101,406 102,406 103,406 104,406 105,406 106,406 107,406 108,406 109,406 110,406 111,406 112,406 113,406 114,406 115,406 116,406 117,406 118,406 119,406 120,406 121,406 122,406 123,406 124,406 125,406 126,406 127,406 128,406 129,406 130,406 131,406 132,406 133,406 134,406 135,406 136,406 137,406 138,406 139,406 140,406 141,406 142,406 143,406 144,406 145,407 146,408 147,409 148,409 149,410 150,411 151,413 152,414 153,415 154,417 155,418 156,419 157,421 158,423 159,427 160,427 161,427 162,427 163,427 164,426 165,426 166,426 167,426 168,426 169,426 170,426 170,426 169,426 168,426 167,426 166,426 165,427 164,427 163,427 162,427 161,427 160,434 159,437 158,439 157,441 156,442 155,443 154,444 153,445 152,446 151,447 150,448 149,448 148,449 147,450 146,450 145,451 144,451 143,451 142,451 141,451 140,451 139,450 138,450 137,450 136,450 135,450 134,450 133,450 132,450 131,450 130,450 129,450 128,450 127,449 126,449 125,449 124,449 123,449 122,449 121,449 120,449 119,449 118,449 117,449 116,449 115,450 114,450 113,450 112,450 111,450 110,450 109,450 108,450 107,450 106,450 105,450 104,451 103,451 102,451 101,451 100,451 99,451 98,452 97,452 96,452 95,452 94,453 93,453 92,453 91,454 90,454 89,454 88,455 87,455 86,455 85,455 84,455 83,455 82,455 81,455 80,454 79,454 78,454 77,454 76,453 75,453 74,453 73,453 72,453 71,452 70,443 69,444 68,445 67,445 66,446 65,447 64,447 63,448 62,448 61,447 60,446 59,445 58,444 57,442 56,442 56,406">
            <metadata shape="oval"/>
        </polygon>
        <polygon points="180,430 181,430 182,430 183,430 184,430 185,430 186,430 187,430 188,430 189,430 190,430 191,424 192,422 193,419 194,418 195,418 196,418 197,418 198,418 199,419 200,419 201,412 202,411 203,411 204,410 205,409 206,409 207,408 208,408 209,408 210,407 211,407 212,407 213,406 214,406 215,406 216,406 217,406 218,406 219,406 220,406 221,406 222,406 223,406 224,406 225,406 226,406 227,406 228,406 229,406 230,406 231,406 232,406 233,406 234,406 235,406 236,406 237,406 238,406 239,406 240,406 241,406 242,406 243,406 244,406 245,406 246,406 247,406 248,406 249,406 250,406 251,406 252,406 253,406 254,406 255,406 256,406 257,406 258,406 259,406 260,407 261,406 262,406 263,406 264,406 265,406 266,406 267,406 268,406 269,406 270,406 271,406 272,406 273,406 274,407 275,406 276,406 277,407 278,407 279,407 280,407 281,407 282,407 283,407 284,407 285,407 286,407 287,407 288,407 289,407 290,407 291,407 292,407 293,407 294,407 295,407 296,407 297,407 298,407 299,407 300,407 301,409 301,471 300,471 299,472 298,472 297,472 296,473 295,472 294,472 293,472 292,474 291,478 290,480 289,476 288,474 287,473 286,473 285,473 284,474 283,475 282,475 281,475 280,476 279,476 278,476 277,476 276,476 275,476 274,476 273,476 272,476 271,476 270,476 269,476 268,476 267,476 266,476 265,476 264,476 263,476 262,476 261,476 260,476 259,476 258,475 257,475 256,475 255,475 254,475 253,475 252,475 251,475 250,475 249,475 248,474 247,474 246,474 245,474 244,474 243,474 242,474 241,473 240,473 239,473 238,473 237,473 236,473 235,472 234,472 233,472 232,472 231,471 230,471 229,471 228,471 227,470 226,470 225,470 224,470 223,469 222,469 221,468 220,468 219,468 218,467 217,467 216,467 215,466 214,466 213,465 212,465 211,464 210,464 209,463 208,463 207,462 206,462 205,461 204,461 203,460 202,460 201,459 200,458 199,457 198,457 197,456 196,455 195,454 194,453 193,451 192,449 191,447 190,444 189,430 188,430 187,430 186,430 185,430 184,430 183,430 182,430 181,430 180,430 180,430">
            <metadata shape="oval"/>
        </polygon>
        <polygon points="121,453 142,455 157,461 169,472 158,488 141,494 124,496 104,492 88,485 79,471 87,459 100,455 121,453">
            <metadata shape="oval" uri="" queueDirection="" area="" fillingPcent="" rank=""/>
        </polygon>
        <polygon points="56,672 234,673 236,684 239,695 241,704 237,713 234,726 232,735 231,748 221,756 210,759 197,764 186,767 177,768 162,775 150,778 140,779 131,779 122,780 111,781 101,781 95,780 92,784 91,791 89,794 89,799 91,802 91,805 90,808 87,812 84,816 82,820 83,823 85,827 85,832 85,836 85,840 85,843 86,845 86,847 82,847 80,842 81,829 79,826 78,823 79,817 82,813 85,808 87,803 86,800 83,798 82,795 84,791 87,788 89,785 89,780 86,780 84,780 79,780 78,782 73,783 69,783 68,784 65,782 61,779 58,778 56,778 56,672 56,672">
            <metadata shape="oval" uri="" queueDirection="" area="" fillingPcent="" rank=""/>
        </polygon>
        <polygon points="395,675 606,676 621,680 609,684 627,694 612,695 623,706 610,707 623,724 613,724 616,736 605,735 608,745 605,741 603,745 597,743 607,764 588,756 593,764 582,758 584,769 575,763 577,774 567,765 570,775 561,767 565,781 551,773 552,792 541,779 541,790 534,780 531,790 527,782 521,795 511,784 503,796 493,785 483,800 476,785 469,788 467,783 461,790 472,794 462,805 479,821 453,809 458,796 449,798 455,781 443,793 442,779 428,785 431,774 413,779 418,769 402,773 407,765 395,764 395,675">
            <metadata shape="peak" uri="" queueDirection="" area="" fillingPcent="" rank=""/>
        </polygon>
    </svg>
    <svg contentScriptType="text/ecmascript" zoomAndPan="magnify" contentStyleType="text/css" class="Object" preserveAspectRatio="xMidYMid meet" version="1.0"/>
    <metadata method="GroundTruth" lastModificationDate="Sun Nov 03 13:46:06 CET 2013" lastStepModified="Page_Ended"/>
</svg>
