<?xml version="1.0" encoding="UTF-8"?>
<svg xmlns:xlink="http://www.w3.org/1999/xlink" xmlns="http://www.w3.org/2000/svg" contentScriptType="text/ecmascript" width="1240mm" zoomAndPan="magnify" contentStyleType="text/css" height="1754mm" viewBox="0 0 2480 3508" preserveAspectRatio="xMidYMid meet" version="1.0">
    <title>FRED_PHILEMON9_024.jpg</title>
    <svg contentScriptType="text/ecmascript" xmlns:xlink="http://www.w3.org/1999/xlink" zoomAndPan="magnify" class="Page" contentStyleType="text/css" preserveAspectRatio="xMidYMid meet" xmlns="http://www.w3.org/2000/svg" version="1.0">
        <image x="0" y="0" fill-opacity="0.5" width="2480" xmlns:xlink="http://www.w3.org/1999/xlink" xlink:href="../Pages/FRED_PHILEMON9_024.jpg" xlink:type="simple" xlink:actuate="onLoad" opacity="0.5" height="3508" preserveAspectRatio="xMidYMid meet" xlink:show="embed"/>
    </svg>
    <style type="text/css" xml:space="preserve"><![CDATA[
		* { stroke-width: 1; stroke-linejoin: round; }
		.Panel { fill: none; stroke: red; opacity: 1.0; visibility: visible; }
		.TextArea { fill: none; stroke: yellow; opacity: 1.0; visibility: visible; }
		.Line { fill: green; stroke: none; opacity: 0.3; visibility: visible; }
		.Balloon { fill: none; stroke: cyan; opacity: 1.0; visibility: visible; }
		.Letter { fill: none; stroke: blue; opacity: 1.0; visibility: visible; }
		.Object { fill: none; stroke: yellow; opacity: 1.0; visibility: visible; }
		.Page { fill: none; stroke: white; opacity: 0.5; visibility: visible; image-rendering: optimizeSpeed; }
		.Noise { fill: none; stroke: pink; opacity: 1.0; visibility: hidden; }
		.Debug { fill: none; stroke: red; opacity: 1.0; visibility: visible; }
		.Unclassified { fill: none; stroke: orange; opacity: 1.0; visibility: hidden; }
]]></style>
    <svg contentScriptType="text/ecmascript" xmlns:xlink="http://www.w3.org/1999/xlink" zoomAndPan="magnify" class="Balloon" contentStyleType="text/css" preserveAspectRatio="xMidYMid meet" xmlns="http://www.w3.org/2000/svg" version="1.0">
        <polygon points="1816,2619 1817,2611 1818,2606 1819,2603 1820,2599 1821,2596 1822,2594 1823,2590 1824,2588 1825,2586 1826,2584 1827,2582 1828,2580 1829,2578 1830,2576 1831,2575 1832,2573 1833,2573 1834,2571 1835,2570 1836,2568 1837,2567 1838,2566 1839,2565 1840,2564 1841,2563 1842,2563 1843,2562 1844,2561 1845,2560 1846,2559 1847,2558 1848,2557 1849,2557 1850,2556 1851,2555 1852,2554 1853,2553 1854,2552 1855,2551 1856,2551 1857,2550 1858,2549 1859,2549 1860,2548 1861,2547 1862,2546 1863,2545 1864,2545 1865,2545 1866,2544 1867,2543 1868,2543 1869,2543 1870,2542 1871,2542 1872,2541 1873,2541 1874,2541 1875,2540 1876,2539 1877,2539 1878,2539 1879,2538 1880,2538 1881,2538 1882,2538 1883,2538 1884,2537 1885,2537 1886,2536 1887,2536 1888,2536 1889,2536 1890,2536 1891,2535 1892,2535 1893,2535 1894,2534 1895,2534 1896,2534 1897,2534 1898,2534 1899,2534 1900,2534 1901,2534 1902,2534 1903,2534 1904,2534 1905,2534 1906,2534 1907,2535 1908,2535 1909,2535 1910,2535 1911,2535 1912,2535 1913,2536 1914,2536 1915,2536 1916,2536 1917,2537 1918,2537 1919,2538 1920,2538 1921,2538 1922,2539 1923,2539 1924,2539 1925,2540 1926,2540 1927,2540 1928,2541 1929,2542 1930,2542 1931,2544 1932,2544 1933,2546 1934,2546 1935,2547 1936,2548 1937,2549 1938,2550 1939,2551 1940,2551 1941,2553 1942,2554 1943,2555 1944,2556 1945,2558 1946,2559 1947,2560 1948,2561 1949,2562 1950,2564 1951,2565 1952,2567 1953,2568 1954,2570 1955,2572 1956,2575 1957,2577 1958,2580 1959,2582 1960,2585 1961,2587 1962,2592 1963,2597 1964,2603 1965,2608 1965,2621 1964,2628 1963,2630 1962,2635 1961,2640 1960,2645 1959,2649 1958,2650 1957,2652 1956,2654 1955,2656 1954,2658 1953,2660 1952,2663 1951,2664 1950,2665 1949,2667 1948,2668 1947,2669 1946,2671 1945,2672 1944,2674 1943,2675 1942,2675 1941,2727 1940,2725 1939,2724 1938,2723 1937,2721 1936,2720 1935,2718 1934,2717 1933,2715 1932,2713 1931,2711 1930,2709 1929,2708 1928,2706 1927,2704 1926,2702 1925,2700 1924,2699 1923,2693 1922,2692 1921,2692 1920,2691 1919,2692 1918,2692 1917,2693 1916,2693 1915,2694 1914,2694 1913,2695 1912,2695 1911,2696 1910,2696 1909,2696 1908,2696 1907,2697 1906,2697 1905,2697 1904,2698 1903,2698 1902,2699 1901,2699 1900,2699 1899,2699 1898,2699 1897,2699 1896,2700 1895,2700 1894,2700 1893,2700 1892,2700 1891,2701 1890,2701 1889,2699 1888,2699 1887,2699 1886,2699 1885,2699 1884,2699 1883,2699 1882,2699 1881,2699 1880,2697 1879,2698 1878,2698 1877,2698 1876,2698 1875,2698 1874,2698 1873,2697 1872,2697 1871,2697 1870,2697 1869,2697 1868,2699 1867,2698 1866,2698 1865,2698 1864,2698 1863,2698 1862,2697 1861,2697 1860,2696 1859,2696 1858,2696 1857,2695 1856,2695 1855,2694 1854,2694 1853,2693 1852,2692 1851,2692 1850,2691 1849,2690 1848,2689 1847,2688 1846,2687 1845,2687 1844,2686 1843,2685 1842,2684 1841,2683 1840,2682 1839,2681 1838,2680 1837,2679 1836,2678 1835,2677 1834,2676 1833,2675 1832,2675 1831,2673 1830,2671 1829,2670 1828,2669 1827,2666 1826,2665 1825,2663 1824,2663 1823,2660 1822,2657 1821,2655 1820,2652 1819,2649 1818,2644 1817,2640 1816,2633 1816,2619">
            <metadata shape="oval"/>
        </polygon>
    </svg>
    <desc method="Christophe Rigaud's extractor" lastModificationDate="Tue Sep 10 09:38:52 CEST 2013"/>
</svg>
