<?xml version="1.0" encoding="UTF-8" standalone="no"?>
<svg xmlns="http://www.w3.org/2000/svg" xmlns:xlink="http://www.w3.org/1999/xlink" contentScriptType="text/ecmascript" width="350mm" zoomAndPan="magnify" contentStyleType="text/css" height="495mm" viewBox="0 0 700 990" preserveAspectRatio="xMidYMid meet" version="1.0">
    <title>INOUE_KYOUMEN_008.jpg</title>
    <svg contentScriptType="text/ecmascript" zoomAndPan="magnify" contentStyleType="text/css" class="Page" preserveAspectRatio="xMidYMid meet" version="1.0">
        <image x="0" y="0" fill-opacity="0.5" width="700" xlink:href="../Pages/INOUE_KYOUMEN_008.jpg" xlink:type="simple" xlink:actuate="onLoad" height="990" opacity="0.5" preserveAspectRatio="xMidYMid meet" xlink:show="embed"/>
    </svg>
    <style type="text/css" xml:space="preserve"><![CDATA[
		* { stroke-width: 0; stroke-linejoin: round; }
		.Unclassified { fill: orange; stroke: none; opacity: 1.0; visibility: hidden; }
		.Noise { fill: pink; stroke: none; opacity: 0.2; visibility: hidden; }
		.Panel { fill: red; stroke: none; opacity: 0.2; visibility: visible; image-rendering: optimizeSpeed; }
		.Line { fill: green; stroke: none; opacity: 0.2; visibility: visible; image-rendering: optimizeSpeed; }
		.TextArea { fill: grey; stroke: none; opacity: 0.2; visibility: visible; image-rendering: optimizeSpeed; }
		.Balloon { fill: cyan; stroke: none; opacity: 0.2; visibility: visible; image-rendering: optimizeSpeed; }
		.Letter { fill: blue; stroke: none; opacity: 0.2; visibility: hidden; }
		.Object { fill: yellow; stroke: none; opacity: 0.2; visibility: visible; image-rendering: optimizeSpeed; }
		.Page { fill: white; stroke: none; opacity: 0.5; visibility: visible; }
]]></style>
    <svg contentScriptType="text/ecmascript" zoomAndPan="magnify" contentStyleType="text/css" class="Panel" preserveAspectRatio="xMidYMid meet" version="1.0"/>
    <svg contentScriptType="text/ecmascript" zoomAndPan="magnify" contentStyleType="text/css" class="Line" preserveAspectRatio="xMidYMid meet" version="1.0"/>
    <svg contentScriptType="text/ecmascript" zoomAndPan="magnify" contentStyleType="text/css" class="TextArea" preserveAspectRatio="xMidYMid meet" version="1.0"/>
    <svg contentScriptType="text/ecmascript" zoomAndPan="magnify" contentStyleType="text/css" class="Balloon" preserveAspectRatio="xMidYMid meet" version="1.0">
        <polygon points="86,273 179,274 178,396 84,396 86,273 86,273">
            <metadata shape="rectangle" uri="" queueDirection="" area="" fillingPcent="" rank=""/>
        </polygon>
        <polygon points="309,115 318,101 326,91 338,82 347,78 358,76 367,76 373,80 381,84 388,93 398,106 403,120 406,130 408,143 409,157 409,176 409,192 405,207 403,218 397,230 390,239 382,249 368,257 347,259 333,252 324,242 313,228 306,210 300,186 300,157 309,115">
            <metadata shape="oval" uri="" queueDirection="" area="" fillingPcent="" rank=""/>
        </polygon>
        <polygon points="278,446 372,446 371,555 276,555 278,446 278,446">
            <metadata shape="rectangle" uri="" queueDirection="" area="" fillingPcent="" rank=""/>
        </polygon>
        <polygon points="530,428 625,428 623,541 527,540 530,428">
            <metadata shape="rectangle" uri="" queueDirection="" area="" fillingPcent="" rank=""/>
        </polygon>
        <polygon points="84,626 196,625 195,742 83,742 84,626">
            <metadata shape="rectangle" uri="" queueDirection="" area="" fillingPcent="" rank=""/>
        </polygon>
        <polygon points="432,772 544,773 542,909 432,908 432,772">
            <metadata shape="rectangle" uri="" queueDirection="" area="" fillingPcent="" rank=""/>
        </polygon>
    </svg>
    <svg contentScriptType="text/ecmascript" zoomAndPan="magnify" contentStyleType="text/css" class="Object" preserveAspectRatio="xMidYMid meet" version="1.0"/>
    <metadata method="GroundTruth" lastModificationDate="Sun Nov 03 13:27:35 CET 2013" lastStepModified="Page_Ended"/>
</svg>
