<?xml version="1.0" encoding="UTF-8" standalone="no"?>
<svg xmlns="http://www.w3.org/2000/svg" xmlns:xlink="http://www.w3.org/1999/xlink" contentScriptType="text/ecmascript" width="424mm" zoomAndPan="magnify" contentStyleType="text/css" height="600mm" viewBox="0 0 848 1200" preserveAspectRatio="xMidYMid meet" version="1.0">
    <title>LUBBIN_LESBULLESDULABO_001.jpg</title>
    <svg contentScriptType="text/ecmascript" zoomAndPan="magnify" contentStyleType="text/css" class="Page" preserveAspectRatio="xMidYMid meet" version="1.0">
        <image x="0" y="0" fill-opacity="0.5" width="848" xlink:href="../Pages/LUBBIN_LESBULLESDULABO_001.jpg" xlink:type="simple" xlink:actuate="onLoad" height="1200" opacity="0.5" preserveAspectRatio="xMidYMid meet" xlink:show="embed"/>
    </svg>
    <style type="text/css" xml:space="preserve"><![CDATA[
		* { stroke-width: 0; stroke-linejoin: round; }
		.Unclassified { fill: orange; stroke: none; opacity: 1.0; visibility: hidden; }
		.Noise { fill: pink; stroke: none; opacity: 0.2; visibility: hidden; }
		.Panel { fill: red; stroke: none; opacity: 0.2; visibility: visible; image-rendering: optimizeSpeed; }
		.Line { fill: green; stroke: none; opacity: 0.2; visibility: visible; image-rendering: optimizeSpeed; }
		.TextArea { fill: grey; stroke: none; opacity: 0.2; visibility: visible; image-rendering: optimizeSpeed; }
		.Balloon { fill: cyan; stroke: none; opacity: 0.2; visibility: visible; image-rendering: optimizeSpeed; }
		.Letter { fill: blue; stroke: none; opacity: 0.2; visibility: hidden; }
		.Object { fill: yellow; stroke: none; opacity: 0.2; visibility: visible; image-rendering: optimizeSpeed; }
		.Page { fill: white; stroke: none; opacity: 0.5; visibility: visible; }
]]></style>
    <svg contentScriptType="text/ecmascript" zoomAndPan="magnify" contentStyleType="text/css" class="Panel" preserveAspectRatio="xMidYMid meet" version="1.0"/>
    <svg contentScriptType="text/ecmascript" zoomAndPan="magnify" contentStyleType="text/css" class="Line" preserveAspectRatio="xMidYMid meet" version="1.0"/>
    <svg contentScriptType="text/ecmascript" zoomAndPan="magnify" contentStyleType="text/css" class="TextArea" preserveAspectRatio="xMidYMid meet" version="1.0"/>
    <svg contentScriptType="text/ecmascript" zoomAndPan="magnify" contentStyleType="text/css" class="Balloon" preserveAspectRatio="xMidYMid meet" version="1.0">
        <polygon points="236,752 237,751 238,751 239,750 240,748 241,747 242,747 243,746 244,745 245,745 246,744 247,744 248,743 249,742 250,741 251,741 252,740 253,739 254,739 255,738 256,737 257,736 258,736 259,736 260,736 261,737 262,737 263,738 264,738 265,739 266,739 267,740 268,740 269,741 270,742 271,742 272,743 273,744 274,745 275,745 276,746 277,747 278,743 279,742 280,742 281,742 282,742 283,742 284,743 297,753 284,746 284,746 285,754 289,758 289,758 290,749 291,749 297,753 297,753 297,753 297,753 297,753 297,753 297,753 297,753 297,753 297,753 291,749 290,749 289,758 288,765 287,770 286,772 285,773 284,773 283,773 282,774 281,774 280,775 279,775 278,776 277,776 276,776 275,777 274,777 273,777 272,777 271,778 270,778 269,778 268,778 267,778 266,779 260,779 259,779 258,779 257,779 256,779 255,779 254,779 253,779 252,778 251,778 250,778 249,777 248,775 247,773 246,772 245,770 244,769 243,768 242,766 241,764 240,762 239,761 238,758 237,757 236,755 236,752 236,752">
            <metadata shape="oval"/>
        </polygon>
        <polygon points="136,156 152,153 166,152 179,155 186,160 187,167 188,176 184,182 178,187 173,192 166,195 160,198 153,199 145,198 142,197 138,194 136,192 130,202 127,208 126,212 136,211 137,213 136,217 133,221 129,226 127,227 132,219 134,216 133,214 130,214 128,215 125,215 123,215 123,212 125,204 129,199 133,192 133,188 129,181 128,173 129,166 133,160 136,156">
            <metadata shape="oval" uri="" queueDirection="" area="" fillingPcent="" rank=""/>
        </polygon>
        <polygon points="225,156 248,155 256,161 262,166 267,172 270,177 274,182 279,183 273,185 271,192 269,195 270,198 268,200 265,200 263,205 261,209 260,212 257,210 252,212 243,213 235,213 229,212 227,218 223,211 218,209 212,204 207,200 200,195 195,192 192,191 195,189 195,186 196,181 199,177 191,175 200,174 205,170 205,165 210,165 212,163 217,159 225,156">
            <metadata shape="peak" uri="" queueDirection="" area="" fillingPcent="" rank=""/>
        </polygon>
        <polygon points="308,189 321,189 328,191 334,195 338,197 338,197 343,194 341,200 347,218 354,220 348,223 348,230 349,238 349,244 348,249 351,256 345,252 340,255 332,258 325,260 319,262 319,267 317,262 310,264 304,265 297,264 291,264 288,272 285,271 286,263 279,259 273,254 268,249 264,244 259,246 264,241 265,235 265,228 267,223 270,216 273,211 276,205 269,199 278,202 283,198 286,194 293,192 300,190 303,183 308,189">
            <metadata shape="peak" uri="" queueDirection="" area="" fillingPcent="" rank=""/>
        </polygon>
        <polygon points="386,156 539,158 542,165 545,172 545,178 545,186 546,192 542,196 531,202 518,206 508,208 498,209 488,211 479,211 470,226 491,218 496,219 491,224 484,230 477,236 473,241 469,246 463,250 469,242 475,236 483,228 489,222 491,220 483,224 476,228 469,231 464,231 465,225 469,220 472,214 474,211 455,212 441,212 422,211 406,210 390,207 381,204 376,201 375,167 380,162 382,159 386,156">
            <metadata shape="oval" uri="" queueDirection="" area="" fillingPcent="" rank=""/>
        </polygon>
        <polygon points="616,169 635,171 649,172 661,174 672,180 678,184 681,189 681,193 678,199 673,202 664,209 653,213 643,217 632,218 619,220 611,220 606,221 601,228 600,232 600,234 606,236 610,238 616,239 620,241 615,241 608,240 602,238 598,236 598,232 599,228 601,223 602,220 597,220 590,219 583,218 576,215 571,214 564,209 561,206 559,201 558,197 559,194 561,190 565,184 572,180 576,177 587,173 596,171 616,169">
            <metadata shape="oval" uri="" queueDirection="" area="" fillingPcent="" rank=""/>
        </polygon>
        <polygon points="74,718 81,718 87,719 91,720 97,721 110,724 113,726 116,729 116,731 113,734 112,736 113,741 115,741 116,738 117,734 118,732 119,730 120,729 121,730 122,732 122,734 122,735 123,736 124,738 124,738 125,739 125,738 126,737 126,736 127,735 128,735 130,736 131,736 132,737 133,738 133,739 132,739 131,738 129,737 128,736 127,736 127,737 127,738 125,739 124,740 123,739 122,738 122,738 121,736 120,734 120,733 120,733 119,733 119,734 118,735 118,737 117,738 117,740 117,741 116,742 116,743 115,744 115,744 114,744 112,744 112,742 110,739 110,738 109,738 106,740 104,741 101,743 98,744 95,746 93,747 90,748 86,749 82,749 78,750 72,749 67,748 61,746 57,744 52,742 47,740 43,736 41,733 40,729 41,726 46,724 52,722 62,720 65,719 74,718 74,718">
            <metadata shape="oval" uri="" queueDirection="" area="" fillingPcent="" rank=""/>
        </polygon>
        <polygon points="436,859 443,858 443,866 489,869 530,875 533,894 536,920 535,960 532,979 515,986 511,988 518,1010 515,1019 503,994 484,996 468,999 449,1004 434,1007 425,1008 422,1025 420,1036 419,1038 415,1018 415,1008 393,1012 362,1015 340,1015 322,1017 308,1016 303,1013 289,1024 297,1005 301,990 305,969 300,961 297,986 287,972 286,987 277,982 276,986 276,976 282,982 283,964 296,978 298,953 309,962 314,934 301,919 303,908 321,925 352,904 382,886 434,866 436,859 443,864 436,859">
            <metadata shape="peak" uri="" queueDirection="" area="" fillingPcent="" rank=""/>
        </polygon>
        <polygon points="267,290 293,288 312,287 337,289 344,293 347,302 350,312 350,324 344,332 333,337 318,341 297,340 270,339 253,335 245,328 240,319 240,308 240,300 243,298 239,298 233,296 225,292 219,287 217,283 214,280 210,277 206,275 201,274 197,273 195,273 192,274 188,277 185,280 184,285 187,289 190,286 191,283 191,280 189,279 187,279 184,280 181,281 179,283 176,285 176,286 174,289 174,293 176,295 177,296 179,298 179,298 181,301 183,303 183,306 182,304 179,301 177,299 175,296 173,294 173,291 172,287 174,284 175,282 178,280 180,279 184,277 187,277 190,277 192,279 193,280 193,283 193,286 191,288 187,291 185,291 184,287 183,285 183,282 183,279 185,276 186,274 188,272 192,270 196,270 199,270 204,271 209,272 212,274 215,276 217,279 219,276 221,273 225,270 229,269 234,267 239,266 244,266 248,266 252,266 256,267 259,267 262,268 264,268 267,270 269,271 270,270 271,273 271,276 272,280 269,286 267,290">
            <metadata shape="oval" uri="" queueDirection="" area="" fillingPcent="" rank=""/>
        </polygon>
        <polygon points="515,385 516,390 516,394 517,397 519,399 523,400 528,400 533,399 535,396 538,395 536,389 539,384 542,379 550,377 557,373 564,370 572,367 577,366 582,364 588,363 595,364 600,364 606,365 613,366 618,368 623,369 628,371 633,373 636,376 639,378 642,379 646,384 649,387 651,391 651,394 649,400 647,405 645,409 644,412 633,415 622,418 610,417 599,417 588,416 579,417 573,416 567,415 561,415 555,414 551,410 548,407 546,403 543,401 542,399 538,400 533,402 527,403 523,403 519,403 515,402 514,400 513,396 515,385">
            <metadata shape="oval" uri="" queueDirection="" area="" fillingPcent="" rank=""/>
        </polygon>
        <polygon points="545,931 568,920 577,927 583,935 588,944 583,954 573,965 567,965 558,963 551,959 549,961 547,963 546,967 549,968 553,968 550,970 545,971 542,969 542,965 544,962 547,959 547,958 544,957 545,931">
            <metadata shape="oval" uri="" queueDirection="" area="" fillingPcent="" rank=""/>
        </polygon>
        <polygon points="562,860 575,860 589,860 598,863 604,865 604,869 617,867 633,865 645,865 660,865 670,871 679,876 683,880 681,886 683,888 674,895 661,906 652,911 651,913 645,913 640,913 634,912 637,920 642,932 647,942 649,949 651,956 650,958 644,955 639,953 639,955 638,960 638,965 635,968 635,965 636,956 637,951 640,951 644,951 646,951 642,940 636,928 632,918 629,911 616,909 601,906 591,901 585,892 584,889 576,890 565,888 555,882 552,877 550,870 562,860">
            <metadata shape="oval" uri="" queueDirection="" area="" fillingPcent="" rank=""/>
        </polygon>
        <polygon points="718,902 737,906 744,909 741,917 748,917 763,916 777,919 787,925 798,928 810,935 823,946 815,969 803,977 792,982 782,985 779,986 775,996 774,1006 782,1006 779,1015 776,1021 775,1021 778,1011 772,1012 770,1005 772,993 774,986 759,988 746,987 729,986 717,985 709,984 700,981 693,976 687,970 683,960 681,951 690,941 701,932 710,926 706,921 703,917 703,913 718,902">
            <metadata shape="oval" uri="" queueDirection="" area="" fillingPcent="" rank=""/>
        </polygon>
    </svg>
    <svg contentScriptType="text/ecmascript" zoomAndPan="magnify" contentStyleType="text/css" class="Object" preserveAspectRatio="xMidYMid meet" version="1.0"/>
    <metadata method="GroundTruth" lastModificationDate="Fri Dec 06 10:21:53 CET 2013" lastStepModified="Balloon_Rank"/>
</svg>
