<?xml version="1.0" encoding="UTF-8" standalone="no"?>
<svg xmlns="http://www.w3.org/2000/svg" xmlns:xlink="http://www.w3.org/1999/xlink" contentScriptType="text/ecmascript" width="254mm" zoomAndPan="magnify" contentStyleType="text/css" height="386mm" viewBox="0 0 509 772" preserveAspectRatio="xMidYMid meet" version="1.0">
    <title>MONTAIGNE_TUMOURRASMOINSBETE_T01_123.jpg</title>
    <svg contentScriptType="text/ecmascript" zoomAndPan="magnify" contentStyleType="text/css" class="Page" preserveAspectRatio="xMidYMid meet" version="1.0">
        <image x="0" y="0" fill-opacity="0.5" width="509" xlink:href="../Pages/MONTAIGNE_TUMOURRASMOINSBETE_T01_123.jpg" xlink:type="simple" xlink:actuate="onLoad" height="772" opacity="0.5" preserveAspectRatio="xMidYMid meet" xlink:show="embed"/>
    </svg>
    <style type="text/css" xml:space="preserve"><![CDATA[
		* { stroke-width: 0; stroke-linejoin: round; }
		.Unclassified { fill: orange; stroke: none; opacity: 1.0; visibility: hidden; }
		.Noise { fill: pink; stroke: none; opacity: 0.2; visibility: hidden; }
		.Panel { fill: red; stroke: none; opacity: 0.2; visibility: visible; image-rendering: optimizeSpeed; }
		.Line { fill: green; stroke: none; opacity: 0.2; visibility: visible; image-rendering: optimizeSpeed; }
		.TextArea { fill: grey; stroke: none; opacity: 0.2; visibility: visible; image-rendering: optimizeSpeed; }
		.Balloon { fill: cyan; stroke: none; opacity: 0.2; visibility: visible; image-rendering: optimizeSpeed; }
		.Letter { fill: blue; stroke: none; opacity: 0.2; visibility: hidden; }
		.Object { fill: yellow; stroke: none; opacity: 0.2; visibility: visible; image-rendering: optimizeSpeed; }
		.Page { fill: white; stroke: none; opacity: 0.5; visibility: visible; }
]]></style>
    <svg contentScriptType="text/ecmascript" zoomAndPan="magnify" contentStyleType="text/css" class="Panel" preserveAspectRatio="xMidYMid meet" version="1.0"/>
    <svg contentScriptType="text/ecmascript" zoomAndPan="magnify" contentStyleType="text/css" class="Line" preserveAspectRatio="xMidYMid meet" version="1.0"/>
    <svg contentScriptType="text/ecmascript" zoomAndPan="magnify" contentStyleType="text/css" class="TextArea" preserveAspectRatio="xMidYMid meet" version="1.0"/>
    <svg contentScriptType="text/ecmascript" zoomAndPan="magnify" contentStyleType="text/css" class="Balloon" preserveAspectRatio="xMidYMid meet" version="1.0">
        <polygon points="129,38 134,40 138,43 144,44 147,43 151,45 151,45 157,46 160,46 164,44 167,43 170,45 173,47 177,46 183,46 187,47 191,47 194,48 195,49 201,51 204,53 206,54 208,60 209,64 209,67 208,74 207,77 203,82 202,83 200,85 200,89 200,91 198,93 196,96 193,96 188,97 186,97 183,99 178,99 176,98 170,98 168,98 165,100 162,100 158,99 155,101 154,101 151,103 150,111 151,116 151,118 148,112 146,108 142,99 140,97 138,97 134,98 128,97 124,95 118,91 115,87 112,83 111,77 114,70 108,63 108,54 109,48 113,42 129,38">
            <metadata shape="cloud" uri="" queueDirection="" area="" fillingPcent="" rank=""/>
        </polygon>
    </svg>
    <svg contentScriptType="text/ecmascript" zoomAndPan="magnify" contentStyleType="text/css" class="Object" preserveAspectRatio="xMidYMid meet" version="1.0"/>
    <metadata method="GroundTruth" lastModificationDate="Fri Dec 06 10:27:01 CET 2013" lastStepModified="Balloon_Rank"/>
</svg>
