<?xml version="1.0" encoding="UTF-8" standalone="no"?>
<svg xmlns="http://www.w3.org/2000/svg" xmlns:xlink="http://www.w3.org/1999/xlink" contentScriptType="text/ecmascript" width="740mm" zoomAndPan="magnify" contentStyleType="text/css" height="1118mm" viewBox="0 0 1480 2236" preserveAspectRatio="xMidYMid meet" version="1.0">
    <title>PIKE_BOYLOVEGIRLS_T41_012.jpg</title>
    <svg contentScriptType="text/ecmascript" zoomAndPan="magnify" contentStyleType="text/css" class="Page" preserveAspectRatio="xMidYMid meet" version="1.0">
        <image x="0" y="0" fill-opacity="0.5" width="1480" xlink:href="../Pages/PIKE_BOYLOVEGIRLS_T41_012.jpg" xlink:type="simple" xlink:actuate="onLoad" height="2236" opacity="0.5" preserveAspectRatio="xMidYMid meet" xlink:show="embed"/>
    </svg>
    <style type="text/css" xml:space="preserve"><![CDATA[
		* { stroke-width: 0; stroke-linejoin: round; }
		.Unclassified { fill: orange; stroke: none; opacity: 1.0; visibility: hidden; }
		.Noise { fill: pink; stroke: none; opacity: 0.2; visibility: hidden; }
		.Panel { fill: red; stroke: none; opacity: 0.2; visibility: visible; image-rendering: optimizeSpeed; }
		.Line { fill: green; stroke: none; opacity: 0.2; visibility: visible; image-rendering: optimizeSpeed; }
		.TextArea { fill: grey; stroke: none; opacity: 0.2; visibility: visible; image-rendering: optimizeSpeed; }
		.Balloon { fill: cyan; stroke: none; opacity: 0.2; visibility: visible; image-rendering: optimizeSpeed; }
		.Letter { fill: blue; stroke: none; opacity: 0.2; visibility: hidden; }
		.Object { fill: yellow; stroke: none; opacity: 0.2; visibility: visible; image-rendering: optimizeSpeed; }
		.Page { fill: white; stroke: none; opacity: 0.5; visibility: visible; }
]]></style>
    <svg contentScriptType="text/ecmascript" zoomAndPan="magnify" contentStyleType="text/css" class="Panel" preserveAspectRatio="xMidYMid meet" version="1.0"/>
    <svg contentScriptType="text/ecmascript" zoomAndPan="magnify" contentStyleType="text/css" class="Line" preserveAspectRatio="xMidYMid meet" version="1.0"/>
    <svg contentScriptType="text/ecmascript" zoomAndPan="magnify" contentStyleType="text/css" class="TextArea" preserveAspectRatio="xMidYMid meet" version="1.0"/>
    <svg contentScriptType="text/ecmascript" zoomAndPan="magnify" contentStyleType="text/css" class="Balloon" preserveAspectRatio="xMidYMid meet" version="1.0">
        <polygon points="37,186 38,115 39,113 40,112 41,111 42,110 43,109 44,108 45,106 46,106 47,104 48,104 49,103 50,102 51,102 52,101 53,101 54,100 55,99 56,99 57,99 58,99 59,99 60,99 61,99 62,99 63,99 64,99 65,99 66,99 67,99 68,99 69,99 70,99 71,99 72,99 73,99 74,99 75,99 76,99 77,99 78,99 79,99 80,99 81,99 82,99 83,99 84,99 85,99 86,99 87,99 88,99 89,99 90,99 91,99 92,99 93,99 94,99 95,99 96,99 97,99 98,99 99,99 100,99 101,99 102,99 103,99 104,99 105,99 106,99 107,99 108,99 109,99 110,99 111,99 112,99 113,99 114,99 115,99 116,99 117,99 118,99 119,99 120,99 121,99 122,99 123,99 124,99 125,99 126,99 127,98 128,99 129,99 130,99 131,99 132,99 133,99 134,99 135,99 136,99 137,99 138,99 139,99 140,98 141,98 142,98 143,98 144,98 145,98 146,98 147,98 148,98 149,98 150,98 151,98 152,99 153,99 154,99 155,98 156,98 157,98 158,98 159,99 160,98 161,99 162,99 163,99 164,99 165,99 166,99 167,99 168,99 169,99 170,99 171,99 172,99 173,99 174,99 175,99 176,99 177,99 178,99 179,99 180,99 181,99 182,99 183,99 184,99 185,99 186,99 187,99 188,98 189,99 190,99 191,98 192,98 193,98 194,99 195,99 196,99 197,99 198,99 199,98 200,98 201,99 202,99 203,99 204,99 205,98 206,98 207,98 208,99 209,98 210,98 211,98 212,98 213,98 214,98 215,98 216,98 217,98 218,98 219,98 220,98 221,98 222,98 223,99 224,100 225,102 226,103 227,103 228,105 229,107 230,110 231,112 232,114 233,115 234,115 235,115 236,115 237,115 238,115 239,116 240,117 241,118 242,119 243,120 244,122 245,124 246,126 247,127 248,129 249,132 250,135 251,140 252,147 253,155 253,159 252,169 251,175 250,178 249,182 248,184 247,186 246,188 245,190 244,192 243,194 242,196 241,197 240,198 239,199 238,201 237,202 236,202 235,202 234,206 233,207 232,208 231,209 230,210 229,211 228,213 227,213 226,214 225,215 224,215 223,216 222,217 221,218 220,219 219,219 218,220 217,221 216,222 215,223 214,223 213,224 212,225 211,225 210,226 209,226 208,227 207,227 206,228 205,228 204,228 203,229 202,230 201,230 200,231 199,231 198,231 197,232 196,232 195,232 194,233 193,233 192,234 191,234 190,234 189,234 188,235 187,235 186,235 185,235 184,235 183,236 182,236 181,236 180,236 179,236 178,237 177,237 176,237 175,237 174,237 173,237 172,238 171,238 170,238 169,238 168,238 167,239 166,239 165,239 164,239 163,239 162,244 161,248 160,250 159,254 158,259 157,262 156,266 155,267 154,263 153,259 152,256 151,253 150,249 149,245 148,243 147,242 146,242 145,242 144,243 143,243 142,243 141,242 140,242 139,243 138,243 137,243 136,242 135,242 134,242 133,243 132,243 131,243 130,242 129,242 128,242 127,242 126,242 125,242 124,242 123,242 122,242 121,242 120,242 119,241 118,241 117,241 116,241 115,241 114,241 113,241 112,240 111,240 110,240 109,240 108,239 107,239 106,239 105,239 104,239 103,239 102,239 101,239 100,239 99,238 98,238 97,238 96,238 95,237 94,237 93,237 92,237 91,236 90,236 89,236 88,236 87,235 86,235 85,235 84,234 83,234 82,234 81,234 80,233 79,233 78,232 77,232 76,231 75,231 74,231 73,231 72,231 71,230 70,230 69,230 68,229 67,229 66,228 65,228 64,227 63,227 62,226 61,226 60,226 59,225 58,224 57,224 56,224 55,223 54,222 53,222 52,222 51,221 50,220 49,219 48,218 47,218 46,217 45,217 44,216 43,216 42,215 41,214 40,214 39,213 38,212 37,209 37,186">
            <metadata shape="oval"/>
        </polygon>
        <polygon points="243,204 244,203 245,202 246,201 247,199 248,197 249,196 250,194 251,122 252,120 253,118 254,117 255,116 256,114 257,113 258,112 259,111 260,110 261,109 262,108 263,107 264,106 265,106 266,105 267,105 268,104 269,103 270,103 271,102 272,102 273,101 274,100 275,99 276,99 277,99 278,99 279,99 280,98 281,98 282,98 283,98 284,98 285,98 286,98 287,98 288,98 289,98 290,98 291,98 292,98 293,98 294,98 295,98 296,98 297,98 298,98 299,98 300,98 301,98 302,98 303,98 304,98 305,98 306,98 307,98 308,98 309,98 310,98 311,98 312,98 313,97 314,97 315,97 316,97 317,97 318,97 319,97 320,97 321,97 322,97 323,97 324,97 325,98 326,98 327,98 328,97 329,97 330,97 331,97 332,97 333,97 334,97 335,97 336,97 337,97 338,97 339,97 340,97 341,97 342,97 343,97 344,97 345,97 346,97 347,97 348,97 349,97 350,97 351,97 352,97 353,97 354,97 355,98 356,98 357,97 358,97 359,97 360,97 361,97 362,97 363,97 364,97 365,97 366,97 367,97 368,97 369,97 370,97 371,97 372,97 373,97 374,97 375,97 376,97 377,97 378,97 379,97 380,97 381,97 382,97 383,97 384,97 385,97 386,97 387,97 388,97 389,97 390,97 391,97 392,97 393,97 394,97 395,97 396,97 397,97 398,97 399,97 400,97 401,97 402,97 403,97 404,97 405,97 406,97 407,97 408,97 409,97 410,97 411,97 412,97 413,97 414,97 415,97 416,97 417,97 418,96 419,96 420,96 421,96 422,96 423,96 424,96 425,96 426,96 427,96 428,96 429,96 430,96 431,96 432,96 433,96 434,96 435,96 436,96 437,96 438,96 439,96 440,96 441,96 442,96 443,96 444,96 445,96 446,96 447,96 448,96 449,96 450,97 451,96 452,96 453,96 454,96 455,96 456,96 457,96 458,96 459,96 460,96 461,96 462,96 463,96 464,96 465,97 466,98 467,99 468,100 469,106 470,107 471,108 472,108 473,108 474,108 475,107 476,105 477,105 478,105 479,105 480,107 480,218 479,221 478,222 477,223 476,224 475,225 474,226 473,227 472,227 471,228 470,228 469,229 468,229 467,230 466,231 465,231 464,232 463,232 462,233 461,233 460,234 459,234 458,234 457,235 456,235 455,236 454,236 453,237 452,237 451,237 450,238 449,238 448,239 447,239 446,240 445,240 444,240 443,241 442,241 441,242 440,242 439,242 438,242 437,243 436,243 435,244 434,244 433,244 432,244 431,245 430,245 429,245 428,246 427,246 426,246 425,246 424,247 423,247 422,247 421,248 420,248 419,248 418,248 417,248 416,248 415,248 414,248 413,248 412,249 411,249 410,249 409,250 408,250 407,250 406,250 405,250 404,250 403,250 402,250 401,250 400,250 399,250 398,251 397,251 396,251 395,251 394,251 393,251 392,251 391,252 390,252 389,252 388,252 387,252 386,253 385,253 384,253 383,253 382,253 381,253 380,253 379,253 378,253 377,253 376,253 375,253 374,253 373,253 372,254 371,254 370,254 369,254 368,254 367,254 366,254 365,254 364,254 363,254 362,254 361,254 360,254 359,254 358,254 357,254 356,254 355,254 354,254 353,254 352,254 351,254 350,254 349,254 348,254 347,253 346,253 345,253 344,253 343,253 342,253 341,253 340,253 339,253 338,254 337,254 336,253 335,254 334,254 333,254 332,254 331,254 330,254 329,254 328,254 327,254 326,254 325,254 324,254 323,254 322,254 321,254 320,254 319,254 318,254 317,255 316,257 315,258 314,260 313,262 312,267 311,273 310,273 309,271 308,269 307,266 306,262 305,259 304,255 303,253 302,252 301,252 300,251 299,250 298,250 297,249 296,249 295,249 294,249 293,248 292,248 291,248 290,247 289,247 288,247 287,246 286,246 285,245 284,245 283,244 282,244 281,244 280,243 279,242 278,242 277,241 276,241 275,240 274,239 273,239 272,239 271,238 270,238 269,237 268,236 267,236 266,235 265,234 264,233 263,232 262,231 261,231 260,230 259,229 258,228 257,227 256,225 255,225 254,224 253,222 252,221 251,220 250,219 249,218 248,216 247,213 246,211 245,210 244,208 243,206 243,204">
            <metadata shape="oval"/>
        </polygon>
        <polygon points="509,187 510,160 511,159 512,158 513,157 514,156 515,155 516,154 517,154 518,152 519,151 520,151 521,151 522,150 523,150 524,149 525,149 526,149 527,149 528,149 529,149 530,149 531,149 532,149 533,149 534,149 535,149 536,149 537,149 538,149 539,149 540,149 541,149 542,149 543,149 544,148 545,149 546,149 547,149 548,149 549,149 550,149 551,149 552,149 553,149 554,149 555,149 556,149 557,148 558,148 559,148 560,148 561,148 562,148 563,148 564,148 565,148 566,149 567,148 568,148 569,148 570,148 571,148 572,148 573,148 574,148 575,149 576,149 577,149 578,148 579,148 580,148 581,148 582,148 583,148 584,148 585,148 586,148 587,148 588,148 589,148 590,148 591,148 592,148 593,148 594,148 595,148 596,148 597,148 598,148 599,147 600,148 601,148 602,148 603,148 604,148 605,148 606,148 607,148 608,148 609,147 610,147 611,147 612,147 613,148 614,148 615,148 616,148 617,148 618,148 619,148 620,148 621,148 622,147 623,148 624,148 625,148 626,148 627,148 628,148 629,148 630,148 631,148 632,147 633,147 634,147 635,147 636,148 637,147 638,147 639,147 640,147 641,147 642,147 643,147 644,147 645,147 646,147 647,147 648,147 649,147 650,148 651,147 652,147 653,147 654,147 655,148 656,147 657,147 658,147 659,147 660,147 661,148 662,148 663,148 664,147 665,147 666,147 667,147 668,147 669,147 670,147 671,147 672,148 673,148 674,148 675,147 676,147 677,147 678,147 679,147 680,147 681,147 682,147 683,147 684,147 685,147 686,147 687,147 688,147 689,147 690,147 691,147 692,148 693,148 694,148 695,147 696,147 697,147 698,147 699,147 700,147 701,147 702,147 703,147 704,147 705,147 706,147 707,147 708,147 709,147 710,147 711,147 712,147 713,147 714,147 715,147 716,147 717,147 718,147 719,147 720,147 721,147 722,147 723,147 724,147 725,147 726,147 727,147 728,147 729,147 730,147 731,147 732,147 733,147 734,147 735,147 736,147 737,147 738,147 739,147 740,147 741,147 742,147 743,147 744,147 745,147 746,147 747,147 748,147 749,147 750,147 751,147 752,147 753,147 754,147 755,147 756,147 757,147 758,147 759,147 760,147 761,147 762,147 763,147 764,147 765,147 766,147 767,147 768,147 769,147 770,147 771,147 772,147 773,147 774,147 775,147 776,147 777,147 778,147 779,147 780,147 781,147 782,147 783,147 784,147 785,147 786,147 787,147 788,147 789,147 790,147 791,147 792,147 793,147 794,147 795,147 796,147 797,147 798,147 799,147 800,147 801,147 802,147 803,147 804,147 805,147 806,147 807,147 808,147 809,147 810,147 811,147 812,147 813,147 814,147 815,147 816,147 817,147 818,147 819,147 820,147 821,147 822,147 823,147 824,147 825,147 826,147 827,147 828,147 829,147 830,147 831,147 832,147 833,147 834,147 835,147 836,147 837,147 838,147 839,147 840,147 841,147 842,147 843,147 844,147 845,147 846,147 847,147 848,147 849,147 850,147 851,147 852,147 853,147 854,147 855,148 856,148 857,148 858,147 859,147 860,147 861,147 862,147 863,147 864,147 865,147 866,147 867,147 868,147 869,147 870,147 871,147 872,147 873,147 874,147 875,147 876,147 877,147 878,147 879,148 880,147 881,147 882,147 883,147 884,147 885,147 886,147 887,147 888,147 889,148 890,148 891,147 892,147 893,147 894,147 895,147 896,147 897,147 898,148 899,147 900,147 901,147 902,147 903,147 904,147 905,148 906,148 907,147 908,147 909,147 910,148 911,148 912,147 913,147 914,147 915,147 916,147 917,147 918,147 919,147 920,147 921,148 922,148 923,149 924,150 925,151 926,151 927,152 928,154 929,157 930,157 931,156 932,161 933,162 934,163 935,163 936,162 937,164 938,165 939,165 940,168 941,162 942,162 943,163 943,239 942,240 941,240 940,240 939,241 938,241 937,241 936,242 935,242 934,242 933,243 932,243 931,243 930,243 929,243 928,243 927,243 926,243 925,243 924,243 923,243 922,242 921,242 920,242 919,241 918,241 917,241 916,241 915,241 914,241 913,240 912,240 911,239 910,239 909,238 908,238 907,246 906,251 905,255 904,259 903,261 902,263 901,264 900,265 899,266 898,267 897,268 896,269 895,269 894,270 893,271 892,272 891,273 890,274 889,274 888,274 887,275 886,276 885,276 884,277 883,278 882,278 881,279 880,279 879,280 878,280 877,281 876,281 875,281 874,281 873,282 872,282 871,282 870,283 869,283 868,283 867,283 866,283 865,284 864,284 863,284 862,284 861,284 860,285 859,285 858,285 857,285 856,285 855,285 854,285 853,285 852,286 851,291 850,293 849,297 848,300 847,302 846,306 845,307 844,307 843,304 842,300 841,297 840,294 839,292 838,289 837,287 836,286 835,286 834,286 833,286 832,286 831,286 830,286 829,286 828,286 827,286 826,286 825,286 824,286 823,287 822,287 821,287 820,287 819,287 818,287 817,287 816,287 815,287 814,287 813,287 812,287 811,287 810,287 809,287 808,287 807,287 806,287 805,287 804,287 803,288 802,288 801,288 800,288 799,288 798,288 797,288 796,288 795,288 794,288 793,288 792,288 791,288 790,289 789,289 788,289 787,289 786,289 785,289 784,288 783,288 782,288 781,288 780,289 779,289 778,289 777,289 776,289 775,289 774,289 773,289 772,289 771,289 770,289 769,289 768,289 767,289 766,289 765,289 764,289 763,289 762,289 761,289 760,289 759,289 758,289 757,289 756,290 755,289 754,289 753,289 752,290 751,290 750,290 749,290 748,290 747,290 746,290 745,290 744,290 743,290 742,290 741,290 740,290 739,290 738,290 737,290 736,290 735,290 734,290 733,290 732,290 731,290 730,290 729,290 728,290 727,290 726,290 725,290 724,290 723,290 722,290 721,290 720,290 719,290 718,290 717,290 716,290 715,290 714,290 713,290 712,290 711,290 710,290 709,290 708,290 707,290 706,290 705,290 704,290 703,290 702,290 701,290 700,290 699,290 698,290 697,290 696,290 695,290 694,290 693,290 692,290 691,290 690,290 689,290 688,290 687,290 686,290 685,290 684,290 683,290 682,290 681,290 680,290 679,290 678,290 677,290 676,290 675,290 674,290 673,290 672,290 671,290 670,290 669,290 668,290 667,290 666,290 665,290 664,290 663,290 662,290 661,290 660,290 659,290 658,290 657,290 656,290 655,290 654,290 653,290 652,290 651,290 650,290 649,290 648,290 647,290 646,290 645,290 644,290 643,290 642,290 641,290 640,290 639,290 638,290 637,290 636,290 635,290 634,290 633,290 632,290 631,289 630,289 629,289 628,289 627,289 626,289 625,289 624,289 623,289 622,289 621,289 620,289 619,289 618,289 617,289 616,289 615,289 614,288 613,288 612,288 611,288 610,288 609,288 608,288 607,288 606,288 605,287 604,287 603,287 602,287 601,287 600,287 599,287 598,287 597,287 596,287 595,287 594,286 593,286 592,286 591,286 590,286 589,286 588,285 587,286 586,285 585,285 584,285 583,285 582,285 581,285 580,284 579,284 578,284 577,284 576,284 575,284 574,284 573,283 572,283 571,283 570,283 569,282 568,282 567,282 566,282 565,282 564,281 563,281 562,281 561,281 560,280 559,280 558,280 557,280 556,280 555,279 554,279 553,278 552,278 551,278 550,277 549,277 548,277 547,276 546,276 545,276 544,276 543,276 542,275 541,275 540,275 539,275 538,274 537,274 536,274 535,273 534,273 533,272 532,272 531,272 530,272 529,271 528,271 527,270 526,270 525,269 524,269 523,268 522,268 521,267 520,266 519,266 518,265 517,265 516,264 515,264 514,263 513,262 512,261 511,260 510,259 509,258 509,187">
            <metadata shape="oval"/>
        </polygon>
        <polygon points="999,248 1000,242 1001,239 1002,237 1003,234 1004,232 1005,230 1006,229 1007,227 1008,225 1009,224 1010,222 1011,221 1012,219 1013,218 1014,217 1015,216 1016,215 1017,214 1018,213 1019,212 1020,212 1021,212 1022,211 1023,211 1024,210 1025,210 1026,209 1027,212 1028,212 1029,212 1030,211 1031,209 1032,208 1033,208 1034,208 1035,208 1036,209 1037,209 1038,209 1039,208 1040,209 1041,208 1042,208 1043,209 1044,209 1045,209 1046,209 1047,209 1048,209 1049,209 1050,208 1051,208 1052,208 1053,208 1054,208 1055,208 1056,208 1057,208 1058,208 1059,208 1060,208 1061,208 1062,209 1063,208 1064,208 1065,208 1066,208 1067,208 1068,208 1069,208 1070,208 1071,208 1072,208 1073,208 1074,208 1075,208 1076,208 1077,208 1078,208 1079,208 1080,208 1081,208 1082,208 1083,208 1084,208 1085,208 1086,208 1087,208 1088,208 1089,208 1090,209 1091,208 1092,208 1093,208 1094,208 1095,208 1096,208 1097,208 1098,208 1099,208 1100,208 1101,208 1102,208 1103,208 1104,208 1105,208 1106,208 1107,208 1108,208 1109,208 1110,208 1111,208 1112,208 1113,208 1114,208 1115,208 1116,208 1117,208 1118,208 1119,208 1120,208 1121,208 1122,208 1123,208 1124,208 1125,208 1126,208 1127,207 1128,207 1129,207 1130,207 1131,207 1132,207 1133,207 1134,207 1135,207 1136,207 1137,207 1138,207 1139,207 1140,207 1141,207 1142,207 1143,207 1144,208 1145,207 1146,207 1147,207 1148,207 1149,207 1150,207 1151,207 1152,208 1153,208 1154,208 1155,208 1156,207 1157,207 1158,207 1159,207 1160,207 1161,207 1162,207 1163,207 1164,207 1165,207 1166,207 1167,207 1168,207 1169,207 1170,207 1171,207 1172,207 1173,207 1174,207 1175,207 1176,207 1177,207 1178,207 1179,207 1180,207 1181,207 1182,207 1183,207 1184,207 1185,207 1186,207 1187,207 1188,207 1189,207 1190,207 1191,207 1192,207 1193,207 1194,207 1195,207 1196,207 1197,207 1198,207 1199,207 1200,207 1201,207 1202,207 1203,207 1204,207 1205,207 1206,207 1207,207 1208,207 1209,207 1210,207 1211,207 1212,207 1213,207 1214,207 1215,207 1216,207 1217,207 1218,207 1219,207 1220,207 1221,207 1222,207 1223,207 1224,207 1225,207 1226,207 1227,207 1228,207 1229,207 1230,206 1231,206 1232,207 1233,207 1234,207 1235,207 1236,207 1237,207 1238,207 1239,207 1240,207 1241,207 1242,207 1243,207 1244,207 1245,207 1246,207 1247,207 1248,206 1249,206 1250,206 1251,206 1252,206 1253,206 1254,206 1255,206 1256,206 1257,206 1258,206 1259,206 1260,206 1261,206 1262,206 1263,206 1264,206 1265,206 1266,206 1267,206 1268,206 1269,206 1270,206 1271,206 1272,206 1273,206 1274,206 1275,206 1276,206 1277,206 1278,206 1279,206 1280,206 1281,206 1282,206 1283,206 1284,206 1285,206 1286,206 1287,206 1288,206 1289,206 1290,206 1291,206 1292,206 1293,206 1294,206 1295,206 1296,206 1297,206 1298,206 1299,206 1300,206 1301,206 1302,206 1303,206 1304,206 1305,206 1306,206 1307,206 1308,206 1309,206 1310,206 1311,206 1312,206 1313,206 1314,206 1315,205 1316,205 1317,205 1318,205 1319,206 1320,206 1321,206 1322,206 1323,206 1324,206 1325,206 1326,206 1327,207 1328,207 1329,207 1330,207 1331,208 1332,208 1333,210 1334,212 1335,213 1336,215 1337,216 1338,215 1339,215 1340,216 1341,214 1342,214 1343,215 1344,216 1345,217 1346,218 1347,218 1348,220 1349,220 1350,221 1351,222 1352,224 1353,224 1354,225 1355,226 1356,227 1357,230 1358,231 1359,232 1360,234 1361,236 1362,238 1363,240 1364,244 1365,247 1365,268 1364,273 1363,275 1362,278 1361,280 1360,282 1359,283 1358,285 1357,287 1356,288 1355,289 1354,291 1353,292 1352,293 1351,293 1350,295 1349,296 1348,297 1347,298 1346,299 1345,299 1344,301 1343,302 1342,302 1341,303 1340,304 1339,304 1338,304 1337,305 1336,306 1335,306 1334,307 1333,307 1332,308 1331,309 1330,310 1329,310 1328,310 1327,311 1326,311 1325,312 1324,312 1323,313 1322,313 1321,314 1320,314 1319,315 1318,315 1317,315 1316,316 1315,316 1314,316 1313,317 1312,318 1311,318 1310,318 1309,319 1308,319 1307,320 1306,320 1305,320 1304,321 1303,321 1302,321 1301,321 1300,322 1299,322 1298,322 1297,322 1296,323 1295,323 1294,323 1293,324 1292,324 1291,324 1290,324 1289,325 1288,325 1287,325 1286,325 1285,326 1284,326 1283,326 1282,326 1281,326 1280,327 1279,327 1278,327 1277,327 1276,327 1275,327 1274,327 1273,328 1272,361 1271,361 1270,359 1269,357 1268,356 1267,354 1266,353 1265,351 1264,349 1263,347 1262,346 1261,343 1260,342 1259,340 1258,338 1257,336 1256,334 1255,332 1254,331 1253,330 1252,330 1251,330 1250,330 1249,330 1248,330 1247,330 1246,330 1245,330 1244,330 1243,330 1242,330 1241,331 1240,331 1239,331 1238,331 1237,331 1236,331 1235,331 1234,331 1233,331 1232,331 1231,331 1230,331 1229,331 1228,332 1227,332 1226,332 1225,332 1224,332 1223,332 1222,332 1221,332 1220,332 1219,332 1218,332 1217,332 1216,332 1215,332 1214,332 1213,332 1212,332 1211,332 1210,333 1209,333 1208,333 1207,333 1206,333 1205,333 1204,333 1203,333 1202,333 1201,333 1200,333 1199,333 1198,333 1197,333 1196,333 1195,333 1194,333 1193,333 1192,333 1191,333 1190,333 1189,333 1188,333 1187,333 1186,333 1185,333 1184,333 1183,333 1182,333 1181,333 1180,333 1179,333 1178,333 1177,333 1176,333 1175,333 1174,333 1173,333 1172,333 1171,333 1170,333 1169,333 1168,333 1167,333 1166,333 1165,333 1164,333 1163,333 1162,333 1161,333 1160,333 1159,333 1158,333 1157,333 1156,333 1155,333 1154,333 1153,333 1152,333 1151,333 1150,333 1149,333 1148,333 1147,333 1146,333 1145,333 1144,333 1143,333 1142,333 1141,333 1140,333 1139,333 1138,333 1137,333 1136,333 1135,333 1134,333 1133,333 1132,333 1131,333 1130,333 1129,332 1128,332 1127,332 1126,332 1125,332 1124,332 1123,332 1122,332 1121,331 1120,331 1119,331 1118,331 1117,331 1116,331 1115,331 1114,331 1113,331 1112,331 1111,331 1110,331 1109,331 1108,330 1107,330 1106,329 1105,329 1104,329 1103,329 1102,329 1101,329 1100,329 1099,329 1098,329 1097,328 1096,328 1095,328 1094,328 1093,328 1092,328 1091,327 1090,327 1089,327 1088,327 1087,326 1086,326 1085,326 1084,326 1083,325 1082,325 1081,325 1080,325 1079,324 1078,324 1077,324 1076,324 1075,324 1074,323 1073,323 1072,323 1071,323 1070,322 1069,322 1068,321 1067,321 1066,321 1065,320 1064,320 1063,320 1062,319 1061,319 1060,318 1059,318 1058,317 1057,317 1056,316 1055,316 1054,316 1053,316 1052,315 1051,315 1050,314 1049,313 1048,313 1047,312 1046,312 1045,311 1044,310 1043,310 1042,310 1041,309 1040,309 1039,309 1038,308 1037,308 1036,307 1035,306 1034,306 1033,305 1032,305 1031,304 1030,303 1029,302 1028,301 1027,300 1026,300 1025,299 1024,299 1023,298 1022,297 1021,296 1020,296 1019,295 1018,294 1017,293 1016,292 1015,291 1014,290 1013,289 1012,288 1011,286 1010,285 1009,284 1008,283 1007,282 1006,280 1005,279 1004,277 1003,275 1002,273 1001,271 1000,268 999,263 999,248">
            <metadata shape="oval"/>
        </polygon>
        <polygon points="926,848 927,836 928,830 929,827 930,826 931,823 932,820 933,818 934,816 935,814 936,813 937,811 938,810 939,809 940,807 941,806 942,805 943,805 944,804 945,803 946,802 947,801 948,801 949,800 950,800 951,800 952,800 953,800 954,800 955,800 956,800 957,799 958,799 959,799 960,800 961,800 962,799 963,799 964,799 965,799 966,799 967,799 968,799 969,799 970,799 971,799 972,799 973,799 974,799 975,799 976,799 977,799 978,799 979,799 980,799 981,799 982,799 983,799 984,799 985,799 986,799 987,799 988,799 989,799 990,799 991,799 992,799 993,799 994,800 995,800 996,799 997,799 998,799 999,799 1000,799 1001,799 1002,799 1003,799 1004,799 1005,799 1006,799 1007,799 1008,799 1009,799 1010,799 1011,799 1012,799 1013,799 1014,799 1015,799 1016,799 1017,799 1018,799 1019,799 1020,799 1021,799 1022,799 1023,799 1024,799 1025,799 1026,799 1027,799 1028,799 1029,799 1030,799 1031,799 1032,799 1033,799 1034,799 1035,799 1036,799 1037,799 1038,799 1039,799 1040,799 1041,799 1042,799 1043,799 1044,799 1045,799 1046,799 1047,799 1048,799 1049,799 1050,799 1051,799 1052,799 1053,799 1054,799 1055,799 1056,799 1057,799 1058,799 1059,799 1060,799 1061,799 1062,799 1063,799 1064,799 1065,799 1066,799 1067,799 1068,799 1069,799 1070,799 1071,799 1072,799 1073,799 1074,799 1075,799 1076,799 1077,799 1078,799 1079,799 1080,799 1081,799 1082,799 1083,799 1084,799 1085,799 1086,799 1087,799 1088,799 1089,799 1090,799 1091,799 1092,799 1093,799 1094,799 1095,799 1096,799 1097,799 1098,799 1099,798 1100,798 1101,799 1102,799 1103,799 1104,799 1105,799 1106,799 1107,798 1108,798 1109,798 1110,798 1111,798 1112,799 1113,799 1114,798 1115,798 1116,799 1117,799 1118,799 1119,799 1120,799 1121,799 1122,799 1123,798 1124,798 1125,798 1126,798 1127,798 1128,799 1129,799 1130,799 1131,799 1132,799 1133,799 1134,799 1135,799 1136,799 1137,799 1138,799 1139,799 1140,799 1141,799 1142,799 1143,799 1144,799 1145,799 1146,799 1147,799 1148,799 1149,799 1150,799 1151,798 1152,798 1153,798 1154,799 1155,799 1156,798 1157,798 1158,798 1159,798 1160,798 1161,798 1162,798 1163,798 1164,798 1165,798 1166,798 1167,798 1168,798 1169,798 1170,798 1171,799 1172,799 1173,798 1174,798 1175,798 1176,798 1177,799 1178,799 1179,798 1180,798 1181,798 1182,799 1183,799 1184,799 1185,799 1186,799 1187,798 1188,798 1189,798 1190,798 1191,798 1192,798 1193,798 1194,798 1195,798 1196,798 1197,798 1198,798 1199,798 1200,798 1201,798 1202,799 1203,799 1204,798 1205,798 1206,798 1207,798 1208,798 1209,798 1210,798 1211,799 1212,799 1213,799 1214,799 1215,798 1216,798 1217,798 1218,798 1219,798 1220,798 1221,798 1222,798 1223,798 1224,798 1225,798 1226,798 1227,798 1228,798 1229,798 1230,798 1231,798 1232,798 1233,798 1234,798 1235,798 1236,798 1237,798 1238,798 1239,798 1240,799 1241,799 1242,799 1243,799 1244,799 1245,798 1246,798 1247,798 1248,798 1249,798 1250,798 1251,799 1252,799 1253,798 1254,798 1255,798 1256,798 1257,799 1258,799 1259,798 1260,798 1261,798 1262,799 1263,799 1264,799 1265,799 1266,799 1267,799 1268,799 1269,799 1270,798 1271,798 1272,798 1273,798 1274,799 1275,799 1276,799 1277,799 1278,799 1279,799 1280,798 1281,798 1282,798 1283,798 1284,798 1285,798 1286,798 1287,798 1288,798 1289,798 1290,798 1291,798 1292,798 1293,798 1294,798 1295,798 1296,798 1297,798 1298,798 1299,798 1300,798 1301,798 1302,798 1303,798 1304,798 1305,798 1306,798 1307,798 1308,798 1309,798 1310,798 1311,798 1312,798 1313,798 1314,798 1315,798 1316,798 1317,798 1318,798 1319,798 1320,798 1321,798 1322,798 1323,798 1324,798 1325,798 1326,798 1327,798 1328,798 1329,798 1330,798 1331,798 1332,798 1333,798 1334,798 1335,798 1336,798 1337,798 1338,798 1339,798 1340,798 1341,798 1342,798 1343,798 1344,798 1345,798 1346,798 1347,798 1348,798 1349,798 1350,798 1351,798 1352,798 1353,798 1354,798 1355,798 1356,798 1357,798 1358,798 1359,798 1360,798 1361,798 1362,798 1363,798 1364,798 1365,799 1366,799 1367,799 1368,799 1369,799 1370,800 1371,800 1372,801 1373,803 1374,804 1375,805 1376,804 1377,804 1378,805 1379,805 1380,806 1381,806 1382,807 1383,807 1384,815 1385,823 1386,823 1387,822 1388,822 1389,823 1390,823 1391,823 1392,823 1393,823 1394,823 1395,823 1396,823 1397,824 1398,824 1399,824 1400,824 1401,824 1402,825 1403,825 1404,825 1405,826 1406,826 1407,826 1408,827 1409,827 1410,828 1411,828 1412,829 1413,829 1414,830 1415,830 1416,831 1417,832 1418,832 1419,833 1420,835 1420,846 1419,856 1418,858 1417,859 1416,861 1415,862 1414,863 1413,864 1412,866 1411,866 1410,867 1409,867 1408,869 1407,869 1406,870 1405,871 1404,871 1403,872 1402,873 1401,873 1400,874 1399,874 1398,874 1397,875 1396,875 1395,876 1394,877 1393,877 1392,877 1391,878 1390,878 1389,878 1388,879 1387,879 1386,879 1385,879 1384,880 1383,880 1382,880 1381,881 1380,881 1379,881 1378,882 1377,882 1376,882 1375,883 1374,883 1373,883 1372,883 1371,884 1370,884 1369,884 1368,885 1367,885 1366,885 1365,885 1364,885 1363,886 1362,886 1361,886 1360,886 1359,886 1358,886 1357,886 1356,886 1355,886 1354,887 1353,887 1352,887 1351,887 1350,887 1349,887 1348,888 1347,888 1346,888 1345,888 1344,888 1343,888 1342,888 1341,888 1340,888 1339,888 1338,888 1337,888 1336,889 1335,889 1334,889 1333,889 1332,889 1331,889 1330,889 1329,889 1328,889 1327,889 1326,889 1325,889 1324,890 1323,890 1322,890 1321,890 1320,890 1319,890 1318,890 1317,890 1316,890 1315,890 1314,890 1313,890 1312,890 1311,891 1310,891 1309,891 1308,891 1307,891 1306,891 1305,891 1304,891 1303,891 1302,891 1301,891 1300,891 1299,891 1298,891 1297,891 1296,891 1295,891 1294,891 1293,891 1292,891 1291,891 1290,891 1289,891 1288,891 1287,891 1286,891 1285,891 1284,891 1283,891 1282,891 1281,891 1280,891 1279,891 1278,891 1277,891 1276,891 1275,891 1274,891 1273,891 1272,891 1271,891 1270,891 1269,891 1268,891 1267,891 1266,891 1265,892 1264,892 1263,891 1262,892 1261,892 1260,891 1259,891 1258,891 1257,891 1256,892 1255,892 1254,892 1253,892 1252,892 1251,892 1250,892 1249,892 1248,892 1247,892 1246,892 1245,891 1244,891 1243,892 1242,892 1241,892 1240,892 1239,891 1238,891 1237,892 1236,892 1235,892 1234,892 1233,892 1232,892 1231,892 1230,892 1229,892 1228,892 1227,892 1226,892 1225,891 1224,892 1223,892 1222,892 1221,892 1220,892 1219,892 1218,892 1217,892 1216,892 1215,892 1214,891 1213,891 1212,891 1211,891 1210,891 1209,891 1208,891 1207,891 1206,891 1205,891 1204,891 1203,891 1202,891 1201,891 1200,891 1199,891 1198,891 1197,890 1196,890 1195,890 1194,890 1193,890 1192,890 1191,890 1190,890 1189,890 1188,890 1187,890 1186,890 1185,890 1184,890 1183,890 1182,890 1181,890 1180,890 1179,889 1178,889 1177,889 1176,889 1175,889 1174,889 1173,889 1172,889 1171,889 1170,888 1169,888 1168,888 1167,888 1166,888 1165,888 1164,888 1163,888 1162,888 1161,888 1160,887 1159,887 1158,887 1157,887 1156,887 1155,887 1154,886 1153,886 1152,886 1151,886 1150,886 1149,886 1148,885 1147,885 1146,885 1145,885 1144,884 1143,883 1142,883 1141,883 1140,883 1139,888 1138,890 1137,892 1136,894 1135,895 1134,896 1133,897 1132,898 1131,900 1130,901 1129,902 1128,903 1127,904 1126,905 1125,906 1124,906 1123,907 1122,907 1121,908 1120,908 1119,909 1118,909 1117,910 1116,910 1115,911 1114,911 1113,912 1112,912 1111,912 1110,913 1109,913 1108,914 1107,914 1106,914 1105,914 1104,914 1103,914 1102,915 1101,915 1100,916 1099,916 1098,916 1097,917 1096,917 1095,917 1094,917 1093,918 1092,918 1091,918 1090,918 1089,919 1088,919 1087,919 1086,919 1085,919 1084,919 1083,920 1082,920 1081,919 1080,919 1079,919 1078,920 1077,920 1076,920 1075,920 1074,920 1073,920 1072,920 1071,920 1070,919 1069,919 1068,920 1067,920 1066,920 1065,919 1064,919 1063,920 1062,920 1061,920 1060,920 1059,919 1058,919 1057,920 1056,920 1055,918 1054,918 1053,918 1052,919 1051,919 1050,920 1049,919 1048,919 1047,919 1046,919 1045,919 1044,919 1043,919 1042,918 1041,918 1040,918 1039,918 1038,918 1037,918 1036,918 1035,918 1034,918 1033,917 1032,917 1031,917 1030,917 1029,917 1028,917 1027,917 1026,917 1025,917 1024,915 1023,917 1022,917 1021,917 1020,917 1019,917 1018,917 1017,917 1016,917 1015,916 1014,916 1013,916 1012,916 1011,916 1010,916 1009,915 1008,915 1007,915 1006,915 1005,915 1004,915 1003,915 1002,914 1001,913 1000,913 999,913 998,913 997,913 996,913 995,912 994,912 993,913 992,913 991,912 990,912 989,912 988,911 987,911 986,910 985,910 984,911 983,911 982,912 981,913 980,913 979,915 978,917 977,918 976,919 975,920 974,922 973,923 972,924 971,925 970,920 969,906 968,904 967,903 966,903 965,902 964,902 963,901 962,900 961,900 960,900 959,899 958,899 957,898 956,898 955,897 954,896 953,896 952,895 951,894 950,894 949,893 948,892 947,891 946,890 945,889 944,888 943,887 942,887 941,886 940,884 939,883 938,882 937,880 936,879 935,878 934,876 933,875 932,874 931,871 930,868 929,866 928,860 927,855 926,849 926,848">
            <metadata shape="oval"/>
        </polygon>
    </svg>
    <svg contentScriptType="text/ecmascript" zoomAndPan="magnify" contentStyleType="text/css" class="Object" preserveAspectRatio="xMidYMid meet" version="1.0"/>
    <metadata method="GroundTruth" lastModificationDate="Sat Nov 02 21:45:03 CET 2013" lastStepModified="Line_Metadata"/>
</svg>
