<?xml version="1.0" encoding="UTF-8" standalone="no"?>
<svg xmlns="http://www.w3.org/2000/svg" xmlns:xlink="http://www.w3.org/1999/xlink" contentScriptType="text/ecmascript" width="732mm" zoomAndPan="magnify" contentStyleType="text/css" height="1117mm" viewBox="0 0 1465 2235" preserveAspectRatio="xMidYMid meet" version="1.0">
    <title>PIKE_BOYLOVEGIRLS_T41_005.jpg</title>
    <svg contentScriptType="text/ecmascript" zoomAndPan="magnify" contentStyleType="text/css" class="Page" preserveAspectRatio="xMidYMid meet" version="1.0">
        <image x="0" y="0" fill-opacity="0.5" width="1465" xlink:href="../Pages/PIKE_BOYLOVEGIRLS_T41_005.jpg" xlink:type="simple" xlink:actuate="onLoad" height="2235" opacity="0.5" preserveAspectRatio="xMidYMid meet" xlink:show="embed"/>
    </svg>
    <style type="text/css" xml:space="preserve"><![CDATA[
		* { stroke-width: 0; stroke-linejoin: round; }
		.Unclassified { fill: orange; stroke: none; opacity: 1.0; visibility: hidden; }
		.Noise { fill: pink; stroke: none; opacity: 0.2; visibility: hidden; }
		.Panel { fill: red; stroke: none; opacity: 0.2; visibility: visible; image-rendering: optimizeSpeed; }
		.Line { fill: green; stroke: none; opacity: 0.2; visibility: visible; image-rendering: optimizeSpeed; }
		.TextArea { fill: grey; stroke: none; opacity: 0.2; visibility: visible; image-rendering: optimizeSpeed; }
		.Balloon { fill: cyan; stroke: none; opacity: 0.2; visibility: visible; image-rendering: optimizeSpeed; }
		.Letter { fill: blue; stroke: none; opacity: 0.2; visibility: hidden; }
		.Object { fill: yellow; stroke: none; opacity: 0.2; visibility: visible; image-rendering: optimizeSpeed; }
		.Page { fill: white; stroke: none; opacity: 0.5; visibility: visible; }
]]></style>
    <svg contentScriptType="text/ecmascript" zoomAndPan="magnify" contentStyleType="text/css" class="Panel" preserveAspectRatio="xMidYMid meet" version="1.0"/>
    <svg contentScriptType="text/ecmascript" zoomAndPan="magnify" contentStyleType="text/css" class="Line" preserveAspectRatio="xMidYMid meet" version="1.0"/>
    <svg contentScriptType="text/ecmascript" zoomAndPan="magnify" contentStyleType="text/css" class="TextArea" preserveAspectRatio="xMidYMid meet" version="1.0"/>
    <svg contentScriptType="text/ecmascript" zoomAndPan="magnify" contentStyleType="text/css" class="Balloon" preserveAspectRatio="xMidYMid meet" version="1.0">
        <polygon points="39,130 40,107 41,106 42,106 43,107 44,107 45,107 46,107 47,107 48,107 49,106 50,106 51,106 52,107 53,107 54,107 55,107 56,107 57,107 58,107 59,107 60,107 61,107 62,107 63,107 64,107 65,107 66,107 67,107 68,107 69,107 70,107 71,107 72,107 73,107 74,107 75,107 76,107 77,107 78,107 79,106 80,106 81,106 82,106 83,106 84,106 85,106 86,106 87,106 88,106 89,106 90,106 91,106 92,106 93,106 94,106 95,106 96,106 97,107 98,107 99,107 100,106 101,106 102,106 103,106 104,106 105,106 106,106 107,106 108,107 109,107 110,107 111,106 112,106 113,106 114,106 115,106 116,106 117,106 118,106 119,106 120,106 121,106 122,106 123,106 124,106 125,106 126,106 127,106 128,106 129,106 130,106 131,106 132,106 133,106 134,106 135,106 136,106 137,106 138,106 139,106 140,106 141,106 142,106 143,106 144,105 145,106 146,106 147,106 148,106 149,106 150,106 151,106 152,106 153,106 154,105 155,105 156,106 157,106 158,106 159,106 160,106 161,106 162,106 163,106 164,106 165,106 166,106 167,106 168,106 169,106 170,106 171,106 172,106 173,105 174,105 175,105 176,105 177,105 178,105 179,105 180,105 181,106 182,106 183,106 184,106 185,106 186,105 187,105 188,105 189,105 190,105 191,105 192,105 193,105 194,105 195,104 196,104 197,104 198,105 199,105 200,105 201,105 202,105 203,105 204,105 205,105 206,105 207,105 208,105 209,105 210,106 211,106 212,107 213,107 214,106 215,105 216,105 217,105 218,106 219,106 220,106 221,106 222,106 223,106 224,106 225,106 226,106 227,106 228,105 229,105 230,105 231,105 232,106 233,106 234,106 235,106 236,105 237,105 238,105 239,106 240,106 241,105 242,105 243,105 244,105 245,105 246,106 247,106 248,105 249,105 250,105 251,105 252,105 253,106 254,106 255,106 256,106 257,105 258,105 259,105 260,105 261,104 262,104 263,104 264,104 265,104 266,105 267,105 268,105 269,105 270,105 271,105 272,105 273,105 274,105 275,105 276,105 277,105 278,105 279,105 280,105 281,105 282,105 283,104 284,104 285,105 286,105 287,105 288,105 289,105 290,105 291,105 292,105 293,105 294,105 295,105 296,105 297,105 298,105 299,105 300,105 301,104 302,105 303,105 304,105 305,104 306,104 307,104 308,104 309,104 310,104 311,104 312,104 313,104 314,104 315,104 316,104 317,104 318,104 319,104 320,104 321,104 322,104 323,105 324,105 325,105 326,105 327,104 328,104 329,105 330,105 331,105 332,104 333,104 334,104 335,104 336,104 337,104 338,104 339,104 340,104 341,104 342,104 343,104 344,104 345,104 346,104 347,103 348,103 349,104 350,104 351,104 352,104 353,104 354,104 355,104 356,104 357,103 358,103 359,103 360,104 361,104 362,104 363,105 364,104 365,104 366,104 367,104 368,104 369,104 370,104 371,104 372,104 373,104 374,104 375,104 376,103 377,104 378,104 379,103 380,104 381,104 382,104 383,104 384,103 385,103 386,103 387,103 388,104 389,104 390,104 391,103 392,103 393,103 394,103 395,103 396,103 397,103 398,103 399,103 400,103 401,103 402,103 403,104 404,105 405,105 406,104 407,103 408,103 409,103 410,103 411,103 412,103 413,103 414,103 415,103 416,103 417,103 418,103 419,103 420,103 421,103 422,103 423,103 424,103 425,102 426,102 427,103 428,103 429,103 430,103 431,103 432,103 433,103 434,103 435,103 436,103 437,103 438,103 439,103 440,103 441,103 442,103 443,103 444,103 445,103 446,103 447,103 448,103 449,103 450,103 451,105 452,105 453,104 454,103 455,103 456,103 457,103 458,103 459,103 460,103 461,103 462,103 463,103 464,103 465,103 466,103 467,103 468,102 469,102 470,102 471,102 472,102 473,102 474,103 475,103 476,103 477,103 478,103 479,102 480,102 481,102 482,103 483,102 484,102 485,102 486,102 487,102 488,102 489,102 490,102 491,102 492,102 493,102 494,102 495,102 496,102 497,102 498,102 499,103 500,103 501,102 502,102 503,102 504,103 505,103 506,103 507,103 508,103 509,102 510,102 511,102 512,103 513,103 514,103 515,103 516,102 517,103 518,103 519,104 520,102 521,102 522,102 523,103 524,103 525,103 526,102 527,102 528,102 529,102 530,103 531,103 532,102 533,102 534,102 535,102 536,102 537,102 538,102 539,102 540,102 541,102 542,102 543,102 544,102 545,102 546,102 547,102 548,102 549,104 550,104 551,103 552,103 553,102 554,102 555,102 556,102 557,102 558,101 559,101 560,102 561,102 562,102 563,102 564,102 565,102 566,103 567,103 568,102 569,102 570,102 571,101 572,101 573,102 574,102 575,102 576,102 577,102 578,102 579,101 580,101 581,101 582,101 583,102 584,102 585,102 586,102 587,102 588,102 589,102 590,102 591,101 592,101 593,101 594,101 595,101 596,101 597,101 598,101 599,101 600,101 601,101 602,101 603,101 604,101 605,101 606,101 607,102 608,102 609,102 610,101 611,101 612,101 613,101 614,102 615,102 616,102 617,102 618,102 619,102 620,102 621,102 622,102 623,102 624,102 625,102 626,102 627,102 628,102 629,102 630,102 631,102 632,102 633,102 634,102 635,102 636,102 637,102 638,102 639,102 640,102 641,102 642,102 643,102 644,102 645,102 646,102 647,102 648,102 649,102 650,102 651,102 652,102 653,102 654,102 655,102 656,102 657,102 658,102 659,102 660,102 661,101 662,102 663,102 664,102 665,102 666,102 667,102 668,102 669,102 670,102 671,102 672,102 673,102 674,102 675,102 676,101 677,102 678,102 679,102 680,102 681,102 682,102 683,102 684,102 685,102 686,102 687,102 688,102 689,102 690,102 691,102 692,102 693,102 694,102 695,102 696,102 697,102 698,102 699,102 700,102 701,102 702,102 703,102 704,102 705,103 706,103 707,102 708,102 709,102 710,102 711,102 712,103 713,103 713,135 712,135 711,135 710,135 709,135 708,135 707,135 706,135 705,135 704,135 703,135 702,135 701,135 700,135 699,135 698,135 697,135 696,135 695,135 694,135 693,135 692,135 691,135 690,135 689,135 688,135 687,134 686,135 685,135 684,135 683,135 682,135 681,135 680,135 679,135 678,135 677,135 676,135 675,135 674,135 673,135 672,135 671,135 670,134 669,135 668,135 667,135 666,135 665,134 664,134 663,135 662,135 661,135 660,135 659,134 658,134 657,135 656,135 655,134 654,134 653,134 652,134 651,134 650,134 649,134 648,134 647,134 646,134 645,134 644,134 643,134 642,134 641,134 640,134 639,134 638,135 637,135 636,135 635,135 634,135 633,135 632,135 631,135 630,135 629,135 628,135 627,135 626,135 625,135 624,135 623,135 622,135 621,135 620,135 619,135 618,135 617,135 616,135 615,135 614,135 613,135 612,135 611,135 610,135 609,135 608,135 607,135 606,135 605,135 604,135 603,135 602,135 601,135 600,135 599,135 598,135 597,135 596,135 595,135 594,135 593,135 592,135 591,135 590,135 589,135 588,134 587,135 586,135 585,135 584,135 583,135 582,135 581,135 580,135 579,134 578,134 577,134 576,134 575,134 574,134 573,134 572,134 571,134 570,134 569,134 568,135 567,134 566,134 565,134 564,134 563,134 562,135 561,135 560,135 559,135 558,135 557,135 556,135 555,135 554,135 553,135 552,135 551,134 550,134 549,134 548,134 547,135 546,135 545,135 544,134 543,134 542,134 541,135 540,135 539,135 538,135 537,134 536,134 535,134 534,134 533,134 532,134 531,134 530,135 529,134 528,134 527,134 526,134 525,134 524,134 523,135 522,135 521,135 520,135 519,135 518,135 517,135 516,135 515,135 514,135 513,135 512,135 511,135 510,135 509,135 508,134 507,134 506,134 505,135 504,135 503,135 502,135 501,135 500,135 499,135 498,135 497,134 496,134 495,135 494,135 493,135 492,135 491,135 490,135 489,135 488,135 487,135 486,135 485,135 484,135 483,135 482,135 481,135 480,135 479,135 478,135 477,135 476,135 475,135 474,135 473,135 472,135 471,135 470,135 469,135 468,135 467,135 466,135 465,135 464,135 463,135 462,135 461,135 460,135 459,135 458,135 457,135 456,135 455,135 454,135 453,135 452,135 451,135 450,135 449,135 448,135 447,135 446,135 445,135 444,134 443,134 442,135 441,135 440,135 439,135 438,135 437,135 436,136 435,136 434,135 433,135 432,135 431,135 430,135 429,135 428,135 427,135 426,135 425,135 424,135 423,135 422,135 421,135 420,135 419,135 418,135 417,134 416,134 415,135 414,135 413,135 412,135 411,136 410,136 409,135 408,135 407,135 406,135 405,135 404,135 403,135 402,136 401,136 400,136 399,135 398,135 397,135 396,136 395,136 394,136 393,136 392,136 391,136 390,136 389,136 388,136 387,136 386,156 385,157 384,156 383,156 382,156 381,156 380,156 379,156 378,156 377,157 376,157 375,156 374,156 373,156 372,156 371,156 370,156 369,156 368,156 367,156 366,156 365,157 364,157 363,156 362,156 361,156 360,157 359,157 358,157 357,157 356,157 355,157 354,157 353,157 352,157 351,157 350,157 349,157 348,157 347,157 346,157 345,157 344,157 343,157 342,157 341,157 340,157 339,157 338,157 337,157 336,157 335,157 334,157 333,157 332,157 331,157 330,157 329,157 328,157 327,157 326,157 325,157 324,157 323,157 322,157 321,157 320,157 319,157 318,157 317,157 316,157 315,157 314,157 313,157 312,157 311,157 310,157 309,157 308,157 307,157 306,157 305,157 304,157 303,157 302,157 301,157 300,157 299,157 298,158 297,158 296,157 295,157 294,157 293,157 292,157 291,157 290,157 289,157 288,157 287,157 286,158 285,158 284,158 283,157 282,157 281,157 280,157 279,158 278,158 277,158 276,158 275,158 274,158 273,158 272,158 271,157 270,157 269,157 268,157 267,157 266,158 265,158 264,158 263,157 262,157 261,158 260,158 259,158 258,158 257,158 256,158 255,158 254,158 253,158 252,158 251,158 250,158 249,158 248,158 247,158 246,158 245,158 244,158 243,158 242,158 241,158 240,158 239,158 238,158 237,158 236,158 235,158 234,158 233,158 232,158 231,158 230,158 229,158 228,158 227,158 226,158 225,158 224,158 223,158 222,158 221,158 220,158 219,158 218,158 217,158 216,158 215,158 214,158 213,158 212,158 211,158 210,158 209,158 208,158 207,158 206,158 205,158 204,158 203,158 202,158 201,158 200,158 199,158 198,158 197,158 196,158 195,158 194,158 193,158 192,158 191,158 190,158 189,158 188,158 187,158 186,158 185,158 184,158 183,158 182,158 181,158 180,158 179,158 178,158 177,158 176,158 175,158 174,158 173,158 172,158 171,159 170,159 169,159 168,159 167,159 166,159 165,159 164,159 163,159 162,159 161,159 160,159 159,159 158,159 157,159 156,159 155,159 154,159 153,159 152,159 151,158 150,158 149,158 148,159 147,159 146,159 145,159 144,159 143,159 142,159 141,159 140,159 139,159 138,159 137,159 136,159 135,159 134,159 133,159 132,159 131,159 130,159 129,159 128,159 127,159 126,159 125,159 124,159 123,159 122,159 121,159 120,159 119,159 118,159 117,159 116,159 115,159 114,159 113,159 112,159 111,159 110,159 109,159 108,159 107,159 106,159 105,159 104,159 103,159 102,159 101,159 100,159 99,159 98,159 97,159 96,159 95,159 94,159 93,159 92,159 91,159 90,159 89,159 88,159 87,159 86,159 85,158 84,158 83,158 82,158 81,158 80,158 79,157 78,157 77,158 76,158 75,158 74,158 73,158 72,158 71,158 70,158 69,158 68,158 67,158 66,158 65,158 64,158 63,158 62,159 61,159 60,159 59,158 58,158 57,158 56,158 55,158 54,158 53,159 52,159 51,158 50,158 49,158 48,159 47,159 46,158 45,158 44,158 43,158 42,158 41,158 40,159 39,158 39,130">
            <metadata shape="rectangle"/>
        </polygon>
        <polygon points="145,163 146,163 147,163 148,163 149,163 150,163 151,163 152,163 153,163 154,163 155,163 156,163 157,163 158,163 159,163 160,164 161,164 162,164 163,163 164,163 165,163 166,163 167,163 168,163 169,163 170,163 171,163 172,163 173,163 174,163 175,163 176,163 177,163 178,163 179,163 180,163 181,163 182,163 183,163 184,163 185,163 186,163 187,163 188,163 189,163 190,163 191,163 192,163 193,163 194,163 195,163 196,163 197,163 198,163 199,163 200,163 201,163 202,163 203,163 204,163 205,163 206,163 207,163 208,163 209,163 210,163 211,163 212,163 213,163 214,163 215,163 216,163 217,163 218,163 219,163 220,163 221,163 222,163 223,163 224,163 225,163 226,163 227,163 228,163 229,163 230,163 231,163 232,163 233,163 234,163 235,163 236,163 237,163 238,163 239,163 240,163 241,163 242,163 243,163 244,163 245,163 246,163 247,163 248,163 249,163 250,163 251,163 252,163 253,163 254,163 255,163 256,163 257,163 258,163 259,163 260,163 261,163 262,163 263,163 264,163 265,163 266,163 267,163 268,163 269,163 270,163 271,163 272,163 273,163 274,163 275,163 276,163 277,163 278,163 279,163 280,163 281,163 282,163 283,163 284,163 285,163 286,163 287,163 288,163 289,163 290,162 291,163 292,163 293,163 294,163 295,162 296,162 297,162 298,162 299,162 300,162 301,162 302,163 303,163 304,162 305,162 306,162 307,162 308,162 309,162 310,162 311,162 312,162 313,162 314,162 315,162 316,162 317,162 318,162 319,162 320,162 321,162 322,162 323,162 324,162 325,162 326,162 327,162 328,162 329,162 330,162 331,162 332,162 333,162 334,162 335,162 336,162 337,162 338,162 339,162 340,162 341,162 342,162 343,162 344,162 345,162 346,162 347,162 348,162 349,162 350,162 351,162 352,162 353,162 354,162 355,162 356,162 357,162 358,162 359,162 360,162 361,162 362,162 363,162 364,162 365,162 366,162 367,162 368,162 369,162 370,162 371,162 372,162 373,162 374,162 375,162 376,162 377,162 378,162 379,162 380,162 381,162 382,162 383,162 384,162 385,161 386,161 387,162 388,162 389,162 390,141 391,141 392,141 393,141 394,141 395,141 396,141 397,141 398,141 399,141 400,141 401,142 402,142 403,142 404,143 405,144 406,146 407,147 408,147 409,147 410,147 411,153 412,153 413,153 414,153 415,152 416,152 417,151 418,155 419,154 420,154 421,154 422,157 423,157 424,157 425,158 426,160 427,161 428,162 429,163 430,164 431,166 432,167 433,171 434,173 435,176 436,179 437,183 438,186 439,193 439,202 438,204 437,210 436,213 435,215 434,217 433,218 432,219 431,220 430,221 429,222 428,223 427,224 426,225 425,226 424,227 423,228 422,228 421,229 420,230 419,231 418,232 417,233 416,233 415,233 414,234 413,235 412,235 411,236 410,236 409,237 408,238 407,238 406,239 405,239 404,240 403,240 402,241 401,241 400,241 399,242 398,242 397,243 396,243 395,243 394,244 393,244 392,245 391,245 390,245 389,245 388,246 387,246 386,246 385,246 384,247 383,247 382,247 381,247 380,248 379,248 378,248 377,248 376,249 375,249 374,249 373,249 372,249 371,250 370,250 369,250 368,250 367,250 366,250 365,250 364,250 363,250 362,251 361,251 360,251 359,251 358,251 357,252 356,252 355,252 354,252 353,253 352,253 351,253 350,253 349,253 348,253 347,254 346,254 345,254 344,254 343,253 342,253 341,253 340,254 339,254 338,254 337,254 336,254 335,254 334,254 333,254 332,254 331,254 330,254 329,255 328,255 327,255 326,255 325,255 324,255 323,254 322,254 321,254 320,254 319,254 318,254 317,254 316,254 315,254 314,254 313,254 312,254 311,254 310,254 309,254 308,255 307,257 306,260 305,263 304,265 303,269 302,272 301,272 300,270 299,268 298,266 297,265 296,263 295,260 294,258 293,256 292,254 291,252 290,251 289,251 288,251 287,252 286,252 285,251 284,251 283,251 282,251 281,251 280,251 279,251 278,251 277,251 276,251 275,251 274,251 273,251 272,251 271,251 270,251 269,251 268,251 267,251 266,251 265,251 264,251 263,251 262,251 261,251 260,251 259,251 258,251 257,251 256,250 255,250 254,250 253,250 252,250 251,250 250,250 249,250 248,250 247,250 246,250 245,250 244,250 243,250 242,250 241,250 240,250 239,249 238,249 237,249 236,249 235,249 234,249 233,249 232,249 231,249 230,249 229,249 228,249 227,249 226,248 225,248 224,248 223,248 222,248 221,247 220,247 219,247 218,247 217,246 216,246 215,246 214,246 213,246 212,246 211,245 210,245 209,245 208,245 207,244 206,244 205,243 204,243 203,242 202,242 201,241 200,241 199,241 198,241 197,240 196,240 195,239 194,239 193,238 192,237 191,237 190,236 189,236 188,235 187,234 186,232 185,230 184,229 183,227 182,223 181,216 180,209 179,209 178,210 177,210 176,211 175,211 174,211 173,212 172,212 171,213 170,213 169,213 168,213 167,212 166,212 165,212 164,212 163,212 162,212 161,212 160,211 159,210 158,210 157,209 156,209 155,208 154,208 153,208 152,207 151,206 150,203 149,203 148,201 147,200 146,200 145,199 145,163">
            <metadata shape="oval"/>
        </polygon>
        <polygon points="38,948 39,813 40,813 41,813 42,813 43,813 44,814 45,813 46,813 47,813 48,813 49,813 50,813 51,813 52,813 53,813 54,813 55,813 56,813 57,813 58,813 59,813 60,813 61,813 62,813 63,813 64,813 65,813 66,813 67,813 68,813 69,813 70,813 71,813 72,813 73,813 74,813 75,813 76,813 77,813 78,813 79,813 80,813 81,813 82,813 83,813 84,813 85,813 86,813 87,813 88,813 89,813 90,813 91,813 92,813 93,813 94,813 95,813 96,813 97,813 98,813 99,813 100,813 101,813 102,813 103,813 104,813 105,813 106,813 107,813 108,813 109,813 110,813 111,813 112,813 113,813 114,813 115,813 116,813 117,813 118,813 119,813 120,813 121,813 122,813 123,813 124,813 125,813 126,813 127,813 128,813 129,813 130,813 131,813 132,813 133,813 134,813 135,813 136,813 137,813 138,813 139,813 140,813 141,813 142,813 143,813 144,813 145,813 146,813 147,813 148,813 149,813 150,813 151,813 152,813 153,813 154,813 155,813 156,813 157,813 158,813 159,813 160,813 161,813 162,813 163,813 164,813 165,813 166,813 167,813 168,813 169,812 170,812 171,813 172,813 173,813 174,813 175,813 176,813 177,813 178,812 179,812 180,812 181,813 182,813 183,813 184,813 185,813 186,813 187,813 188,813 189,813 190,813 191,813 192,812 193,813 194,813 195,813 196,813 197,813 198,812 199,812 200,812 201,812 202,812 203,812 204,812 205,812 206,812 207,812 208,812 209,812 210,812 211,812 212,812 213,812 214,812 215,812 216,812 217,812 218,812 219,812 220,812 221,812 222,812 223,812 224,812 225,812 226,812 227,812 228,812 229,812 230,812 231,812 232,812 233,812 234,812 235,812 236,812 237,812 238,812 239,812 240,812 241,812 242,812 243,812 244,812 245,812 246,812 247,812 248,812 249,812 250,812 251,812 252,812 253,812 254,812 255,812 256,812 257,812 258,812 259,812 260,812 261,812 262,812 263,812 264,812 265,812 266,812 267,812 268,812 269,812 270,812 271,812 272,1034 273,1466 273,1468 272,1469 271,1469 270,1469 269,1469 268,1469 267,1469 266,1469 265,1469 264,1469 263,1469 262,1469 261,1468 260,1468 259,1468 258,1468 257,1469 256,1469 255,1468 254,1469 253,1469 252,1469 251,1469 250,1469 249,1469 248,1468 247,1468 246,1468 245,1469 244,1469 243,1468 242,1468 241,1468 240,1468 239,1468 238,1469 237,1469 236,1469 235,1469 234,1468 233,1468 232,1468 231,1468 230,1468 229,1468 228,1468 227,1468 226,1468 225,1469 224,1469 223,1468 222,1469 221,1469 220,1469 219,1469 218,1468 217,1469 216,1469 215,1468 214,1469 213,1469 212,1469 211,1468 210,1468 209,1468 208,1468 207,1468 206,1468 205,1468 204,1468 203,1468 202,1468 201,1468 200,1468 199,1468 198,1468 197,1468 196,1468 195,1468 194,1468 193,1468 192,1468 191,1468 190,1468 189,1468 188,1467 187,1468 186,1468 185,1468 184,1468 183,1468 182,1468 181,1468 180,1468 179,1468 178,1468 177,1468 176,1468 175,1468 174,1468 173,1468 172,1468 171,1468 170,1468 169,1468 168,1468 167,1468 166,1468 165,1468 164,1468 163,1468 162,1468 161,1468 160,1468 159,1468 158,1468 157,1468 156,1468 155,1468 154,1468 153,1468 152,1468 151,1468 150,1468 149,1468 148,1468 147,1468 146,1469 145,1469 144,1468 143,1468 142,1468 141,1468 140,1468 139,1468 138,1468 137,1468 136,1468 135,1468 134,1468 133,1468 132,1468 131,1468 130,1468 129,1468 128,1468 127,1468 126,1468 125,1468 124,1467 123,1467 122,1468 121,1468 120,1468 119,1468 118,1468 117,1468 116,1468 115,1468 114,1468 113,1468 112,1468 111,1468 110,1468 109,1468 108,1468 107,1468 106,1468 105,1468 104,1468 103,1468 102,1468 101,1468 100,1468 99,1468 98,1468 97,1468 96,1468 95,1468 94,1468 93,1468 92,1468 91,1468 90,1468 89,1468 88,1468 87,1468 86,1468 85,1468 84,1468 83,1468 82,1468 81,1468 80,1468 79,1468 78,1468 77,1468 76,1468 75,1468 74,1468 73,1468 72,1468 71,1468 70,1468 69,1468 68,1468 67,1468 66,1468 65,1468 64,1468 63,1468 62,1468 61,1468 60,1468 59,1468 58,1468 57,1468 56,1468 55,1468 54,1468 53,1468 52,1468 51,1468 50,1468 49,1468 48,1468 47,1468 46,1468 45,1468 44,1468 43,1468 42,1469 41,1468 40,1468 39,1468 38,1467 38,948">
            <metadata shape="rectangle"/>
        </polygon>
        <polygon points="863,810 864,808 865,808 866,808 867,808 868,808 869,808 870,808 871,808 872,808 873,808 874,808 875,808 876,808 877,808 878,808 879,808 880,808 881,808 882,808 883,808 884,808 885,808 886,808 887,808 888,808 889,808 890,808 891,808 892,808 893,808 894,808 895,808 896,808 897,808 898,808 899,808 900,808 901,808 902,808 903,808 904,808 905,808 906,808 907,808 908,808 909,808 910,808 911,808 912,808 913,808 914,808 915,808 916,808 917,808 918,807 919,807 920,807 921,807 922,808 923,808 924,808 925,808 926,808 927,808 928,808 929,808 930,808 931,808 932,808 933,808 934,808 935,808 936,808 937,808 938,808 939,808 940,808 941,808 942,808 943,808 944,808 945,808 946,808 947,808 948,808 949,808 950,808 951,808 952,808 953,808 954,808 955,808 956,808 957,808 958,808 959,808 960,808 961,808 962,808 963,808 964,808 965,808 966,808 967,808 968,808 969,808 970,808 971,808 972,808 973,808 974,808 975,808 976,808 977,808 978,808 979,808 980,808 981,808 982,808 983,808 984,808 985,808 986,808 987,808 988,808 989,808 990,808 991,808 992,808 993,808 994,808 995,808 996,807 997,807 998,808 999,808 1000,808 1001,808 1002,808 1003,808 1004,808 1005,808 1006,808 1007,807 1008,808 1009,808 1010,808 1011,808 1012,808 1013,808 1014,808 1015,808 1016,808 1017,808 1018,808 1019,807 1020,808 1021,808 1022,808 1023,808 1024,808 1025,808 1026,808 1027,808 1028,808 1029,808 1030,808 1031,808 1032,808 1033,808 1034,808 1035,808 1036,808 1037,808 1038,808 1039,808 1040,808 1041,808 1042,808 1043,808 1044,808 1045,808 1046,808 1047,808 1048,808 1049,808 1050,807 1051,808 1052,808 1053,808 1054,808 1055,808 1056,808 1057,807 1058,807 1059,808 1060,807 1061,807 1062,807 1063,807 1064,808 1065,808 1066,807 1067,807 1068,807 1069,808 1070,808 1071,808 1072,808 1073,808 1074,808 1075,808 1076,808 1077,808 1078,808 1079,808 1080,808 1081,808 1082,807 1083,808 1084,808 1085,808 1086,808 1087,807 1088,807 1089,808 1090,808 1091,808 1092,808 1093,808 1094,808 1095,808 1096,808 1097,808 1098,808 1099,807 1100,808 1101,808 1102,808 1103,808 1104,808 1105,808 1106,808 1107,808 1108,808 1109,808 1110,808 1111,808 1112,808 1113,808 1114,808 1115,808 1116,808 1117,808 1118,808 1119,808 1120,808 1121,808 1122,808 1123,807 1124,807 1125,808 1126,808 1127,807 1128,807 1129,807 1130,808 1131,808 1132,808 1133,808 1134,808 1135,808 1136,807 1137,807 1138,807 1139,807 1140,808 1141,808 1142,808 1143,807 1144,808 1145,808 1146,808 1147,808 1148,808 1149,807 1150,807 1151,807 1152,807 1153,807 1154,807 1155,808 1156,808 1157,807 1158,807 1159,807 1160,808 1161,807 1162,807 1163,807 1164,807 1165,807 1166,807 1167,807 1168,807 1169,807 1170,807 1171,807 1172,807 1173,807 1174,807 1175,807 1176,807 1177,807 1178,807 1179,807 1180,807 1181,807 1182,807 1183,807 1184,807 1185,807 1186,807 1187,807 1188,807 1189,807 1190,807 1191,807 1192,807 1193,807 1194,807 1195,807 1196,807 1197,807 1198,807 1199,807 1200,807 1201,807 1202,807 1203,807 1204,807 1205,807 1206,807 1207,807 1208,807 1209,807 1210,807 1211,807 1212,807 1213,807 1214,807 1215,807 1216,808 1217,807 1218,807 1219,807 1220,807 1221,807 1222,807 1223,807 1224,807 1225,807 1226,807 1227,807 1228,807 1229,807 1230,807 1231,807 1232,807 1233,807 1234,807 1235,807 1236,807 1237,807 1238,808 1239,808 1240,807 1241,807 1242,807 1243,807 1244,807 1245,807 1246,807 1247,807 1248,807 1249,807 1250,807 1251,807 1252,807 1253,807 1254,807 1255,807 1256,807 1257,807 1258,807 1259,807 1260,807 1261,807 1262,807 1263,807 1264,808 1265,808 1266,807 1267,807 1268,807 1269,807 1270,807 1271,807 1272,807 1273,807 1274,807 1275,807 1276,807 1277,807 1278,807 1279,807 1280,807 1281,807 1282,807 1283,807 1284,807 1285,807 1286,807 1287,807 1288,807 1289,807 1290,807 1291,807 1292,807 1293,807 1294,807 1295,807 1296,807 1297,807 1298,807 1299,807 1300,807 1301,807 1302,807 1303,807 1304,807 1305,807 1306,806 1307,806 1308,806 1309,806 1310,806 1311,807 1312,807 1313,807 1314,807 1315,806 1316,806 1317,806 1318,807 1319,807 1320,807 1321,807 1322,806 1323,806 1324,806 1325,806 1326,806 1327,806 1328,806 1329,806 1330,806 1331,806 1332,806 1333,806 1334,807 1335,807 1336,807 1337,806 1338,806 1339,806 1340,806 1341,806 1342,807 1343,807 1344,806 1345,806 1346,806 1347,806 1348,806 1349,806 1350,806 1351,806 1352,806 1353,806 1354,806 1355,806 1356,806 1357,806 1358,806 1359,806 1360,806 1361,806 1362,806 1363,806 1364,806 1365,806 1366,806 1367,806 1368,806 1369,806 1370,806 1371,806 1372,806 1373,806 1374,806 1375,806 1376,806 1377,806 1378,806 1379,806 1380,806 1381,806 1382,806 1383,806 1384,806 1385,806 1386,806 1387,806 1388,806 1389,806 1390,806 1391,806 1392,806 1393,806 1394,806 1395,806 1396,806 1397,806 1398,806 1399,806 1400,806 1401,806 1402,806 1403,806 1404,806 1405,806 1406,806 1407,806 1408,806 1409,806 1410,806 1411,806 1412,806 1413,806 1414,806 1415,806 1416,809 1417,809 1418,809 1419,806 1420,806 1421,806 1422,806 1423,806 1424,843 1424,904 1423,905 1422,906 1421,906 1420,906 1419,905 1418,905 1417,905 1416,905 1415,905 1414,905 1413,906 1412,906 1411,906 1410,906 1409,906 1408,906 1407,906 1406,906 1405,906 1404,906 1403,906 1402,906 1401,906 1400,906 1399,906 1398,906 1397,906 1396,906 1395,906 1394,906 1393,906 1392,906 1391,906 1390,906 1389,906 1388,906 1387,906 1386,906 1385,906 1384,906 1383,906 1382,906 1381,906 1380,906 1379,906 1378,906 1377,906 1376,906 1375,906 1374,906 1373,905 1372,906 1371,906 1370,906 1369,906 1368,907 1367,907 1366,907 1365,907 1364,906 1363,906 1362,906 1361,906 1360,906 1359,906 1358,906 1357,906 1356,906 1355,907 1354,907 1353,907 1352,907 1351,907 1350,907 1349,907 1348,907 1347,907 1346,907 1345,907 1344,907 1343,907 1342,907 1341,907 1340,907 1339,907 1338,907 1337,907 1336,907 1335,906 1334,907 1333,907 1332,907 1331,907 1330,907 1329,907 1328,907 1327,906 1326,906 1325,906 1324,907 1323,907 1322,907 1321,907 1320,907 1319,907 1318,907 1317,906 1316,906 1315,906 1314,906 1313,907 1312,907 1311,907 1310,907 1309,907 1308,907 1307,906 1306,906 1305,906 1304,907 1303,907 1302,907 1301,907 1300,907 1299,907 1298,907 1297,907 1296,907 1295,906 1294,906 1293,906 1292,906 1291,907 1290,907 1289,907 1288,907 1287,906 1286,906 1285,907 1284,907 1283,907 1282,907 1281,907 1280,907 1279,907 1278,907 1277,906 1276,907 1275,907 1274,907 1273,907 1272,907 1271,907 1270,907 1269,907 1268,907 1267,907 1266,907 1265,907 1264,907 1263,907 1262,907 1261,907 1260,907 1259,907 1258,907 1257,907 1256,907 1255,907 1254,907 1253,907 1252,907 1251,907 1250,907 1249,907 1248,907 1247,907 1246,907 1245,907 1244,907 1243,907 1242,907 1241,907 1240,907 1239,907 1238,907 1237,907 1236,907 1235,907 1234,907 1233,907 1232,907 1231,907 1230,907 1229,907 1228,907 1227,907 1226,907 1225,907 1224,907 1223,907 1222,907 1221,907 1220,907 1219,907 1218,907 1217,907 1216,907 1215,907 1214,907 1213,907 1212,907 1211,907 1210,907 1209,907 1208,907 1207,907 1206,907 1205,907 1204,907 1203,907 1202,907 1201,907 1200,907 1199,907 1198,907 1197,907 1196,907 1195,907 1194,907 1193,907 1192,907 1191,907 1190,907 1189,907 1188,907 1187,907 1186,907 1185,907 1184,907 1183,907 1182,907 1181,907 1180,907 1179,908 1178,908 1177,908 1176,908 1175,907 1174,907 1173,908 1172,908 1171,908 1170,907 1169,908 1168,908 1167,908 1166,908 1165,908 1164,908 1163,908 1162,908 1161,908 1160,908 1159,907 1158,907 1157,908 1156,908 1155,908 1154,908 1153,908 1152,908 1151,908 1150,908 1149,908 1148,908 1147,908 1146,908 1145,908 1144,908 1143,907 1142,907 1141,907 1140,907 1139,907 1138,907 1137,907 1136,907 1135,907 1134,907 1133,907 1132,907 1131,907 1130,907 1129,907 1128,907 1127,907 1126,907 1125,907 1124,908 1123,908 1122,908 1121,907 1120,907 1119,907 1118,907 1117,907 1116,907 1115,907 1114,907 1113,907 1112,907 1111,908 1110,908 1109,908 1108,908 1107,908 1106,908 1105,908 1104,907 1103,907 1102,907 1101,907 1100,907 1099,907 1098,907 1097,907 1096,907 1095,907 1094,907 1093,907 1092,907 1091,908 1090,908 1089,907 1088,907 1087,907 1086,907 1085,907 1084,907 1083,908 1082,908 1081,907 1080,907 1079,907 1078,907 1077,907 1076,907 1075,907 1074,907 1073,907 1072,907 1071,907 1070,907 1069,907 1068,907 1067,907 1066,907 1065,907 1064,907 1063,908 1062,908 1061,908 1060,908 1059,908 1058,908 1057,908 1056,908 1055,908 1054,908 1053,908 1052,908 1051,908 1050,908 1049,908 1048,908 1047,908 1046,908 1045,908 1044,908 1043,908 1042,908 1041,908 1040,908 1039,908 1038,908 1037,908 1036,908 1035,908 1034,907 1033,907 1032,907 1031,907 1030,908 1029,908 1028,907 1027,907 1026,907 1025,907 1024,907 1023,907 1022,907 1021,907 1020,907 1019,907 1018,907 1017,907 1016,907 1015,907 1014,907 1013,907 1012,907 1011,907 1010,907 1009,907 1008,907 1007,907 1006,907 1005,907 1004,907 1003,907 1002,907 1001,907 1000,907 999,907 998,907 997,907 996,907 995,907 994,907 993,907 992,907 991,907 990,907 989,907 988,907 987,907 986,907 985,907 984,907 983,908 982,908 981,908 980,908 979,907 978,907 977,907 976,907 975,907 974,907 973,907 972,907 971,907 970,907 969,907 968,907 967,907 966,907 965,907 964,907 963,907 962,907 961,907 960,907 959,907 958,907 957,906 956,906 955,906 954,906 953,906 952,906 951,907 950,907 949,907 948,907 947,907 946,907 945,907 944,907 943,907 942,907 941,907 940,907 939,907 938,907 937,907 936,907 935,907 934,907 933,907 932,907 931,907 930,907 929,907 928,907 927,907 926,907 925,907 924,907 923,907 922,907 921,907 920,907 919,907 918,907 917,907 916,907 915,907 914,907 913,907 912,907 911,907 910,907 909,907 908,907 907,907 906,907 905,907 904,907 903,907 902,907 901,907 900,907 899,907 898,907 897,907 896,907 895,907 894,907 893,907 892,907 891,907 890,907 889,907 888,907 887,907 886,907 885,906 884,906 883,906 882,907 881,907 880,907 879,907 878,907 877,907 876,906 875,906 874,907 873,907 872,907 871,906 870,906 869,906 868,906 867,906 866,906 865,907 864,907 863,906 863,810">
            <metadata shape="rectangle"/>
        </polygon>
        <polygon points="862,919 863,911 864,911 865,912 866,912 867,911 868,911 869,912 870,912 871,912 872,912 873,912 874,912 875,912 876,912 877,912 878,912 879,912 880,912 881,912 882,912 883,912 884,912 885,912 886,912 887,912 888,912 889,912 890,912 891,912 892,912 893,912 894,912 895,912 896,912 897,912 898,912 899,912 900,912 901,912 902,912 903,912 904,912 905,912 906,912 907,912 908,912 909,912 910,912 911,912 912,912 913,912 914,912 915,912 916,912 917,912 918,912 919,912 920,912 921,912 922,912 923,912 924,912 925,912 926,912 927,912 928,912 929,912 930,912 931,912 932,912 933,912 934,912 935,912 936,912 937,912 938,912 939,912 940,912 941,912 942,912 943,912 944,912 945,912 946,912 947,912 948,912 949,912 950,912 951,912 952,912 953,912 954,912 955,912 956,912 957,912 958,912 959,912 960,912 961,912 962,912 963,912 964,912 965,912 966,912 967,912 968,912 969,913 970,912 971,912 972,912 973,912 974,912 975,912 976,912 977,912 978,912 979,912 980,912 981,912 982,912 983,912 984,912 985,912 986,912 987,912 988,912 989,912 990,912 991,912 992,912 993,912 994,912 995,912 996,912 997,912 998,912 999,912 1000,912 1001,912 1002,912 1003,912 1004,912 1005,912 1006,912 1007,912 1008,912 1009,912 1010,912 1011,913 1012,913 1013,913 1014,912 1015,912 1016,912 1017,912 1018,913 1019,913 1020,912 1021,912 1022,912 1023,912 1024,912 1025,912 1026,912 1027,912 1028,912 1029,912 1030,912 1031,912 1032,912 1033,912 1034,913 1035,912 1036,912 1037,912 1038,913 1039,912 1040,912 1041,912 1042,912 1043,912 1044,912 1045,912 1046,912 1047,912 1048,912 1049,912 1050,912 1051,912 1052,912 1053,912 1054,912 1055,912 1056,912 1057,912 1058,912 1059,912 1060,912 1061,912 1062,912 1063,912 1064,912 1065,912 1066,912 1067,912 1068,912 1069,912 1070,912 1071,913 1072,912 1073,913 1074,913 1075,913 1076,913 1077,913 1078,912 1079,912 1080,912 1081,912 1082,912 1083,912 1084,912 1085,912 1086,913 1087,913 1088,913 1089,913 1090,913 1091,912 1092,912 1093,912 1094,912 1095,912 1096,912 1097,913 1098,913 1099,913 1100,913 1101,912 1102,912 1103,912 1104,912 1105,913 1106,913 1107,913 1108,913 1109,912 1110,913 1111,913 1112,913 1113,912 1114,912 1115,912 1116,912 1117,912 1118,913 1119,912 1120,913 1121,913 1122,913 1123,913 1124,913 1125,913 1126,913 1127,913 1128,913 1129,913 1130,913 1131,913 1132,913 1133,913 1134,913 1135,913 1136,913 1137,913 1138,913 1139,913 1140,913 1141,913 1142,913 1143,913 1144,913 1145,913 1146,913 1147,913 1148,913 1149,913 1150,913 1151,913 1152,913 1153,913 1154,913 1155,914 1156,916 1157,917 1158,918 1159,920 1160,921 1161,922 1162,924 1163,926 1164,928 1165,929 1166,931 1167,934 1168,936 1169,938 1170,941 1171,943 1172,948 1173,952 1174,958 1174,974 1173,990 1172,993 1171,996 1170,1000 1169,1002 1168,1005 1167,1007 1166,1010 1165,1011 1164,1014 1163,1016 1162,1018 1161,1020 1160,1022 1159,1023 1158,1025 1157,1027 1156,1029 1155,1031 1154,1032 1153,1033 1152,1035 1151,1036 1150,1037 1149,1039 1148,1040 1147,1041 1146,1043 1145,1044 1144,1045 1143,1046 1142,1047 1141,1049 1140,1049 1139,1050 1138,1051 1137,1052 1136,1053 1135,1054 1134,1055 1133,1055 1132,1056 1131,1058 1130,1058 1129,1059 1128,1059 1127,1061 1126,1062 1125,1062 1124,1063 1123,1063 1122,1064 1121,1065 1120,1066 1119,1067 1118,1068 1117,1069 1116,1081 1115,1087 1114,1094 1113,1100 1112,1107 1111,1107 1110,1105 1109,1102 1108,1101 1107,1098 1106,1097 1105,1095 1104,1094 1103,1091 1102,1089 1101,1087 1100,1085 1099,1083 1098,1082 1097,1081 1096,1080 1095,1079 1094,1078 1093,1077 1092,1077 1091,1078 1090,1078 1089,1079 1088,1079 1087,1079 1086,1079 1085,1080 1084,1080 1083,1080 1082,1080 1081,1080 1080,1081 1079,1081 1078,1081 1077,1081 1076,1081 1075,1082 1074,1082 1073,1082 1072,1082 1071,1082 1070,1083 1069,1083 1068,1083 1067,1083 1066,1083 1065,1083 1064,1083 1063,1084 1062,1083 1061,1082 1060,1082 1059,1082 1058,1084 1057,1085 1056,1085 1055,1085 1054,1085 1053,1085 1052,1085 1051,1085 1050,1085 1049,1085 1048,1086 1047,1086 1046,1086 1045,1086 1044,1086 1043,1086 1042,1086 1041,1086 1040,1086 1039,1086 1038,1086 1037,1086 1036,1086 1035,1086 1034,1086 1033,1086 1032,1086 1031,1086 1030,1086 1029,1086 1028,1087 1027,1087 1026,1087 1025,1087 1024,1087 1023,1088 1022,1088 1021,1087 1020,1087 1019,1087 1018,1087 1017,1087 1016,1088 1015,1088 1014,1088 1013,1087 1012,1088 1011,1088 1010,1087 1009,1087 1008,1088 1007,1088 1006,1088 1005,1088 1004,1088 1003,1088 1002,1088 1001,1088 1000,1088 999,1088 998,1088 997,1088 996,1088 995,1088 994,1088 993,1088 992,1088 991,1088 990,1088 989,1088 988,1088 987,1088 986,1088 985,1088 984,1088 983,1088 982,1088 981,1088 980,1088 979,1088 978,1088 977,1088 976,1088 975,1088 974,1088 973,1088 972,1088 971,1088 970,1088 969,1088 968,1088 967,1088 966,1088 965,1088 964,1087 963,1087 962,1087 961,1087 960,1087 959,1087 958,1087 957,1087 956,1087 955,1087 954,1086 953,1086 952,1086 951,1086 950,1086 949,1086 948,1086 947,1085 946,1085 945,1085 944,1085 943,1085 942,1085 941,1084 940,1084 939,1084 938,1084 937,1084 936,1084 935,1084 934,1083 933,1083 932,1083 931,1083 930,1083 929,1083 928,1083 927,1082 926,1082 925,1082 924,1082 923,1082 922,1081 921,1081 920,1081 919,1080 918,1080 917,1080 916,1080 915,1079 914,1079 913,1079 912,1078 911,1078 910,1078 909,1078 908,1077 907,1077 906,1077 905,1076 904,1076 903,1075 902,1075 901,1075 900,1075 899,1074 898,1074 897,1074 896,1073 895,1072 894,1072 893,1072 892,1071 891,1071 890,1071 889,1070 888,1070 887,1069 886,1068 885,1068 884,1067 883,1066 882,1066 881,1065 880,1065 879,1064 878,1064 877,1063 876,1063 875,1062 874,1061 873,1060 872,1060 871,1059 870,1058 869,1058 868,1057 867,1056 866,1055 865,1054 864,1054 863,1053 862,983 862,919">
            <metadata shape="oval"/>
        </polygon>
        <polygon points="1141,1056 1142,1055 1143,1053 1144,1053 1145,1052 1146,1051 1147,1050 1148,1049 1149,1048 1150,1046 1151,1045 1152,1044 1153,1042 1154,1041 1155,1040 1156,1039 1157,1037 1158,1036 1180,969 1160,912 1161,912 1163,913 1163,912 1163,913 1163,913 1163,913 1167,913 1168,912 1169,913 1170,913 1171,913 1172,913 1173,913 1174,913 1175,913 1176,913 1177,913 1178,913 1179,913 1180,913 1181,913 1182,913 1183,913 1184,913 1185,913 1186,913 1187,913 1188,913 1189,913 1190,913 1191,913 1192,913 1193,913 1194,913 1195,913 1196,913 1197,913 1198,913 1199,913 1200,913 1201,913 1202,913 1203,913 1204,913 1205,912 1206,912 1207,912 1208,913 1209,913 1210,913 1211,913 1212,913 1213,913 1214,913 1215,913 1216,913 1217,913 1218,913 1219,913 1220,913 1221,913 1222,913 1223,913 1224,913 1225,913 1226,913 1227,913 1228,913 1229,913 1230,913 1231,913 1232,913 1233,913 1234,913 1235,913 1236,913 1237,913 1238,913 1239,913 1240,913 1241,913 1242,913 1243,913 1244,913 1245,913 1246,913 1247,913 1248,913 1249,913 1250,912 1251,912 1252,913 1253,913 1254,913 1255,913 1256,913 1257,913 1258,913 1259,913 1260,913 1261,913 1262,913 1263,913 1264,913 1265,913 1266,913 1267,913 1268,913 1269,913 1270,913 1271,913 1272,913 1273,913 1274,913 1275,913 1276,913 1277,913 1278,913 1279,913 1280,913 1281,913 1282,913 1283,913 1284,912 1285,912 1286,912 1287,912 1288,912 1289,912 1290,912 1291,912 1292,912 1293,912 1294,913 1295,913 1296,912 1297,912 1298,912 1299,913 1300,913 1301,912 1302,912 1303,912 1304,913 1305,914 1306,913 1307,913 1308,912 1309,912 1310,912 1311,912 1312,912 1313,912 1314,912 1315,912 1316,912 1317,912 1318,912 1319,912 1320,912 1321,912 1322,912 1323,912 1324,912 1325,912 1326,913 1327,913 1328,912 1329,912 1330,912 1331,912 1332,912 1333,912 1334,912 1335,912 1336,912 1337,912 1338,912 1339,912 1340,912 1341,912 1342,912 1343,912 1344,912 1345,912 1346,912 1347,912 1348,912 1349,912 1350,912 1351,912 1352,912 1353,912 1354,912 1355,912 1356,912 1357,912 1358,912 1359,912 1360,912 1361,912 1362,912 1363,912 1364,912 1365,912 1366,912 1367,912 1368,912 1369,912 1370,912 1371,912 1372,912 1373,912 1374,912 1375,912 1376,912 1377,912 1378,912 1379,912 1380,912 1381,912 1382,912 1383,912 1384,912 1385,912 1386,912 1387,913 1388,913 1389,912 1390,912 1391,912 1392,912 1393,912 1394,912 1395,912 1396,912 1397,912 1398,912 1399,912 1400,912 1401,912 1402,912 1403,913 1404,912 1405,912 1406,912 1407,913 1408,913 1409,913 1410,912 1411,912 1412,912 1413,912 1414,912 1415,912 1416,913 1417,913 1418,913 1419,913 1420,912 1421,912 1422,912 1423,912 1424,912 1424,1090 1423,1091 1422,1092 1421,1093 1420,1094 1419,1096 1418,1097 1417,1098 1416,1098 1415,1097 1414,1101 1413,1102 1412,1103 1411,1105 1410,1106 1409,1106 1408,1107 1407,1108 1406,1109 1405,1110 1404,1111 1403,1111 1402,1112 1401,1113 1400,1113 1399,1114 1398,1115 1397,1116 1396,1116 1395,1117 1394,1117 1393,1117 1392,1118 1391,1119 1390,1119 1389,1120 1388,1120 1387,1120 1386,1121 1385,1121 1384,1121 1383,1121 1382,1121 1381,1122 1380,1123 1379,1123 1378,1124 1377,1124 1376,1124 1375,1125 1374,1125 1373,1126 1372,1126 1371,1126 1370,1127 1369,1127 1368,1128 1367,1128 1366,1128 1365,1128 1364,1128 1363,1129 1362,1129 1361,1129 1360,1130 1359,1130 1358,1130 1357,1130 1356,1129 1355,1130 1354,1131 1353,1131 1352,1131 1351,1131 1350,1131 1349,1131 1348,1131 1347,1131 1346,1130 1345,1128 1344,1125 1343,1130 1342,1132 1341,1132 1340,1132 1339,1133 1338,1133 1337,1134 1336,1134 1335,1134 1334,1134 1333,1133 1332,1133 1331,1134 1330,1134 1329,1134 1328,1134 1327,1134 1326,1135 1325,1135 1324,1135 1323,1135 1322,1136 1321,1138 1320,1143 1319,1146 1318,1148 1317,1152 1316,1154 1315,1157 1314,1159 1313,1161 1312,1163 1311,1165 1310,1167 1309,1170 1308,1172 1307,1172 1306,1161 1305,1155 1304,1152 1303,1147 1302,1143 1301,1138 1300,1134 1299,1132 1298,1131 1297,1130 1296,1130 1295,1131 1294,1131 1293,1131 1292,1131 1291,1131 1290,1130 1289,1130 1288,1130 1287,1130 1286,1130 1285,1130 1284,1130 1283,1130 1282,1130 1281,1130 1280,1130 1279,1130 1278,1130 1277,1130 1276,1130 1275,1130 1274,1130 1273,1130 1272,1130 1271,1130 1270,1130 1269,1129 1268,1129 1267,1129 1266,1129 1265,1128 1264,1128 1263,1128 1262,1128 1261,1128 1260,1128 1259,1127 1258,1127 1257,1127 1256,1127 1255,1127 1254,1127 1253,1127 1252,1127 1251,1126 1250,1126 1249,1126 1248,1126 1247,1126 1246,1125 1245,1125 1244,1125 1243,1125 1242,1125 1241,1125 1240,1125 1239,1124 1238,1124 1237,1124 1236,1124 1235,1123 1234,1123 1233,1123 1232,1123 1231,1123 1230,1122 1229,1122 1228,1122 1227,1122 1226,1121 1225,1121 1224,1121 1223,1121 1222,1120 1221,1120 1220,1119 1219,1119 1218,1119 1217,1118 1216,1118 1215,1118 1214,1118 1213,1117 1212,1117 1211,1116 1210,1116 1209,1116 1208,1115 1207,1115 1206,1114 1205,1114 1204,1114 1203,1114 1202,1113 1201,1113 1200,1113 1199,1112 1198,1111 1197,1111 1196,1111 1195,1110 1194,1109 1193,1109 1192,1109 1191,1108 1190,1107 1189,1107 1188,1107 1187,1106 1186,1106 1185,1106 1184,1105 1183,1104 1182,1104 1181,1103 1180,1103 1179,1102 1178,1102 1177,1101 1176,1100 1175,1100 1174,1099 1173,1099 1172,1098 1171,1098 1170,1097 1169,1096 1168,1096 1167,1094 1166,1094 1165,1093 1164,1092 1163,1091 1162,1090 1161,1090 1160,1089 1159,1088 1158,1087 1157,1085 1156,1084 1155,1083 1154,1082 1153,1081 1152,1080 1151,1079 1150,1077 1149,1076 1148,1075 1147,1074 1146,1072 1145,1071 1144,1069 1143,1067 1142,1063 1141,1060 1141,1056">
            <metadata shape="oval"/>
        </polygon>
        <polygon points="747,1503 1425,1499 1426,1568 747,1569 747,1503">
            <metadata shape="rectangle" uri="" queueDirection="" area="" fillingPcent="" rank=""/>
        </polygon>
        <polygon points="38,165 141,164 150,172 152,183 148,192 143,199 134,207 138,226 143,240 150,252 158,270 163,281 170,298 144,269 127,250 114,230 107,224 95,220 83,221 68,219 53,214 46,210 39,204 38,165">
            <metadata shape="oval" uri="" queueDirection="" area="" fillingPcent="" rank=""/>
        </polygon>
        <polygon points="773,1573 1014,1572 1017,1582 1017,1595 1011,1605 1006,1613 999,1618 978,1626 975,1636 975,1649 975,1655 966,1638 960,1627 942,1629 928,1629 907,1629 889,1630 868,1629 845,1627 822,1626 801,1624 785,1618 776,1610 769,1599 767,1585 773,1573">
            <metadata shape="oval" uri="" queueDirection="" area="" fillingPcent="" rank=""/>
        </polygon>
        <polygon points="1017,1574 1382,1571 1389,1581 1390,1596 1383,1612 1375,1620 1366,1626 1357,1630 1336,1634 1288,1639 1234,1640 1197,1640 1147,1640 1143,1652 1138,1667 1139,1681 1134,1663 1124,1647 1121,1639 1094,1637 1075,1637 1057,1636 1040,1631 1029,1629 1018,1623 1010,1613 1018,1599 1020,1587 1017,1574">
            <metadata shape="oval" uri="" queueDirection="" area="" fillingPcent="" rank=""/>
        </polygon>
    </svg>
    <svg contentScriptType="text/ecmascript" zoomAndPan="magnify" contentStyleType="text/css" class="Object" preserveAspectRatio="xMidYMid meet" version="1.0"/>
    <metadata method="GroundTruth" lastModificationDate="Fri Dec 06 10:27:29 CET 2013" lastStepModified="Balloon_Polygons"/>
</svg>
