<?xml version="1.0" encoding="UTF-8" standalone="no"?>
<svg xmlns="http://www.w3.org/2000/svg" xmlns:xlink="http://www.w3.org/1999/xlink" contentScriptType="text/ecmascript" width="967mm" zoomAndPan="magnify" contentStyleType="text/css" height="1335mm" viewBox="0 0 1935 2670" preserveAspectRatio="xMidYMid meet" version="1.0">
    <title>ROUDIER_LESTERRESCREUSEES_012.jpg</title>
    <svg contentScriptType="text/ecmascript" zoomAndPan="magnify" contentStyleType="text/css" class="Page" preserveAspectRatio="xMidYMid meet" version="1.0">
        <image x="0" y="0" fill-opacity="0.5" width="1935" xlink:href="../Pages/ROUDIER_LESTERRESCREUSEES_012.jpg" xlink:type="simple" xlink:actuate="onLoad" height="2670" opacity="0.5" preserveAspectRatio="xMidYMid meet" xlink:show="embed"/>
    </svg>
    <style type="text/css" xml:space="preserve"><![CDATA[
		* { stroke-width: 0; stroke-linejoin: round; }
		.Unclassified { fill: orange; stroke: none; opacity: 1.0; visibility: hidden; }
		.Noise { fill: pink; stroke: none; opacity: 0.2; visibility: hidden; }
		.Panel { fill: red; stroke: none; opacity: 0.2; visibility: visible; image-rendering: optimizeSpeed; }
		.Line { fill: green; stroke: none; opacity: 0.2; visibility: visible; image-rendering: optimizeSpeed; }
		.TextArea { fill: grey; stroke: none; opacity: 0.2; visibility: visible; image-rendering: optimizeSpeed; }
		.Balloon { fill: cyan; stroke: none; opacity: 0.2; visibility: visible; image-rendering: optimizeSpeed; }
		.Letter { fill: blue; stroke: none; opacity: 0.2; visibility: hidden; }
		.Object { fill: yellow; stroke: none; opacity: 0.2; visibility: visible; image-rendering: optimizeSpeed; }
		.Page { fill: white; stroke: none; opacity: 0.5; visibility: visible; }
]]></style>
    <svg contentScriptType="text/ecmascript" zoomAndPan="magnify" contentStyleType="text/css" class="Panel" preserveAspectRatio="xMidYMid meet" version="1.0"/>
    <svg contentScriptType="text/ecmascript" zoomAndPan="magnify" contentStyleType="text/css" class="Line" preserveAspectRatio="xMidYMid meet" version="1.0"/>
    <svg contentScriptType="text/ecmascript" zoomAndPan="magnify" contentStyleType="text/css" class="TextArea" preserveAspectRatio="xMidYMid meet" version="1.0"/>
    <svg contentScriptType="text/ecmascript" zoomAndPan="magnify" contentStyleType="text/css" class="Balloon" preserveAspectRatio="xMidYMid meet" version="1.0">
        <polygon points="355,486 356,482 357,480 358,478 359,474 360,472 361,468 362,466 363,463 364,462 365,461 366,460 367,459 368,458 369,457 370,455 371,455 372,453 373,452 374,452 375,451 376,450 377,449 378,448 379,447 380,446 381,446 382,446 383,445 384,444 385,443 386,443 387,442 388,442 389,442 390,441 391,441 392,441 393,440 394,439 395,438 396,438 397,437 398,437 399,437 400,436 401,436 402,435 403,435 404,435 405,435 406,435 407,434 408,433 409,433 410,433 411,432 412,432 413,432 414,432 415,431 416,431 417,431 418,431 419,431 420,430 421,430 422,430 423,430 424,430 425,430 426,429 427,429 428,429 429,429 430,428 431,428 432,428 433,428 434,428 435,428 436,428 437,428 438,428 439,428 440,428 441,427 442,427 443,427 444,427 445,427 446,428 447,427 448,427 449,427 450,427 451,427 452,427 453,427 454,427 455,427 456,427 457,427 458,427 459,427 460,427 461,427 462,427 463,427 464,427 465,427 466,427 467,427 468,427 469,427 470,427 471,427 472,427 473,427 474,427 475,427 476,427 477,427 478,427 479,427 480,427 481,427 482,426 483,426 484,426 485,426 486,427 487,427 488,427 489,427 490,427 491,427 492,427 493,427 494,427 495,427 496,427 497,427 498,428 499,427 500,427 501,427 502,427 503,427 504,427 505,427 506,427 507,428 508,428 509,427 510,427 511,428 512,428 513,428 514,428 515,428 516,428 517,428 518,428 519,428 520,428 521,428 522,428 523,428 524,429 525,429 526,429 527,429 528,429 529,429 530,429 531,429 532,429 533,429 534,429 535,429 536,429 537,429 538,429 539,429 540,429 541,429 542,429 543,429 544,429 545,429 546,429 547,429 548,429 549,429 550,429 551,429 552,430 553,430 554,430 555,430 556,430 557,430 558,430 559,430 560,430 561,430 562,430 563,430 564,430 565,430 566,430 567,430 568,430 569,430 570,430 571,430 572,430 573,430 574,430 575,430 576,430 577,431 578,431 579,431 580,431 581,431 582,431 583,431 584,431 585,431 586,431 587,431 588,431 589,432 590,432 591,432 592,431 593,431 594,431 595,431 596,431 597,431 598,430 599,430 600,431 601,430 602,430 603,432 604,432 605,431 606,430 607,431 608,431 609,430 610,430 611,430 612,430 613,430 614,430 615,431 616,431 617,431 618,431 619,430 620,431 621,430 622,431 623,431 624,431 625,430 626,431 627,431 628,431 629,431 630,431 631,431 632,430 633,430 634,430 635,430 636,430 637,430 638,430 639,431 640,431 641,431 642,431 643,430 644,431 645,431 646,431 647,430 648,430 649,430 650,430 651,430 652,430 653,430 654,430 655,430 656,430 657,430 658,430 659,430 660,429 661,430 662,430 663,430 664,430 665,430 666,430 667,429 668,430 669,429 670,429 671,430 672,430 673,429 674,430 675,429 676,429 677,429 678,429 679,429 680,429 681,429 682,429 683,429 684,428 685,428 686,429 687,429 688,429 689,429 690,429 691,429 692,429 693,428 694,429 695,429 696,429 697,429 698,429 699,428 700,428 701,428 702,428 703,428 704,428 705,429 706,428 707,428 708,428 709,428 710,428 711,428 712,429 713,428 714,428 715,428 716,428 717,429 718,429 719,429 720,429 721,429 722,429 723,428 724,427 725,427 726,427 727,427 728,427 729,428 730,428 731,428 732,428 733,428 734,428 735,428 736,428 737,428 738,428 739,428 740,429 741,429 742,429 743,429 744,429 745,429 746,430 747,430 748,431 749,430 750,430 751,430 752,431 753,431 754,432 755,431 756,432 757,432 758,432 759,432 760,432 761,433 762,434 763,434 764,434 765,434 766,434 767,437 768,437 769,437 770,438 771,439 772,440 773,440 774,441 775,442 776,443 777,446 778,445 779,446 780,447 781,447 782,449 783,451 784,452 785,452 786,453 787,455 788,457 789,458 790,459 791,461 792,463 793,464 794,465 795,467 796,469 797,470 798,473 799,476 800,480 801,490 802,495 803,523 804,524 805,524 806,525 807,526 808,526 809,528 810,529 811,529 812,530 813,530 814,531 815,532 816,532 817,533 818,533 819,535 820,535 821,535 822,536 823,536 824,537 825,537 826,537 827,537 828,538 829,539 830,538 831,539 832,540 833,540 834,540 835,540 836,540 837,541 838,541 839,542 840,542 841,542 842,543 843,543 844,543 845,544 846,544 847,545 848,545 849,545 850,545 851,546 852,546 853,547 854,548 855,548 856,548 857,548 858,549 859,549 860,549 861,550 862,550 863,550 864,550 865,551 866,551 867,551 868,552 869,552 870,552 871,552 871,552 870,552 869,552 868,552 867,552 866,551 865,551 864,551 863,551 862,551 861,551 860,551 859,550 858,550 857,550 856,550 855,549 854,549 853,549 852,549 851,548 850,548 849,548 848,548 847,548 846,548 845,548 844,547 843,546 842,546 841,547 840,547 839,547 838,546 837,546 836,546 835,546 834,546 833,545 832,545 831,545 830,545 829,544 828,544 827,543 826,543 825,543 824,543 823,543 822,542 821,542 820,542 819,542 818,541 817,541 816,540 815,539 814,540 813,539 812,539 811,538 810,538 809,537 808,537 807,537 806,536 805,536 804,535 803,534 802,534 801,533 800,533 799,532 798,532 797,532 796,531 795,530 794,530 793,529 792,529 791,529 790,528 789,528 788,528 787,529 786,530 785,531 784,532 783,532 782,534 781,535 780,535 779,535 778,535 777,536 776,536 775,538 774,538 773,539 772,539 771,540 770,541 769,541 768,542 767,543 766,543 765,543 764,544 763,544 762,544 761,546 760,546 759,546 758,546 757,547 756,548 755,548 754,548 753,548 752,549 751,550 750,550 749,549 748,549 747,550 746,552 745,552 744,551 743,551 742,553 741,554 740,555 739,555 738,555 737,555 736,555 735,555 734,555 733,555 732,555 731,555 730,555 729,556 728,557 727,557 726,557 725,558 724,558 723,558 722,558 721,559 720,560 719,560 718,560 717,561 716,561 715,561 714,561 713,561 712,562 711,562 710,562 709,563 708,563 707,563 706,564 705,564 704,564 703,564 702,565 701,565 700,564 699,564 698,565 697,566 696,566 695,565 694,565 693,565 692,565 691,564 690,564 689,565 688,565 687,565 686,565 685,565 684,566 683,566 682,566 681,566 680,566 679,566 678,566 677,566 676,566 675,566 674,566 673,566 672,567 671,567 670,567 669,566 668,566 667,567 666,567 665,567 664,567 663,567 662,566 661,566 660,566 659,566 658,567 657,567 656,567 655,567 654,568 653,567 652,567 651,567 650,567 649,567 648,567 647,566 646,566 645,566 644,566 643,567 642,567 641,567 640,566 639,566 638,566 637,566 636,566 635,567 634,567 633,567 632,566 631,566 630,566 629,566 628,565 627,565 626,565 625,565 624,566 623,565 622,565 621,565 620,565 619,565 618,565 617,565 616,565 615,565 614,565 613,565 612,565 611,565 610,565 609,566 608,566 607,565 606,565 605,565 604,565 603,565 602,565 601,564 600,564 599,564 598,565 597,565 596,565 595,565 594,565 593,564 592,564 591,565 590,565 589,565 588,564 587,564 586,564 585,564 584,564 583,564 582,565 581,564 580,564 579,564 578,564 577,564 576,565 575,564 574,564 573,564 572,564 571,564 570,564 569,564 568,564 567,563 566,563 565,564 564,564 563,564 562,564 561,564 560,564 559,563 558,563 557,564 556,564 555,564 554,564 553,564 552,563 551,563 550,564 549,564 548,564 547,563 546,563 545,563 544,563 543,563 542,564 541,564 540,564 539,563 538,563 537,563 536,564 535,564 534,564 533,564 532,564 531,564 530,564 529,564 528,564 527,564 526,564 525,564 524,564 523,564 522,565 521,564 520,564 519,564 518,564 517,564 516,564 515,564 514,563 513,563 512,563 511,563 510,563 509,564 508,563 507,563 506,563 505,564 504,564 503,563 502,563 501,563 500,563 499,563 498,563 497,564 496,564 495,564 494,563 493,563 492,563 491,563 490,563 489,563 488,563 487,563 486,563 485,563 484,563 483,563 482,562 481,562 480,562 479,562 478,562 477,562 476,561 475,562 474,562 473,562 472,562 471,561 470,561 469,561 468,561 467,562 466,562 465,561 464,562 463,561 462,561 461,561 460,561 459,561 458,561 457,561 456,561 455,561 454,561 453,561 452,561 451,561 450,560 449,560 448,560 447,561 446,560 445,560 444,560 443,560 442,559 441,559 440,559 439,559 438,559 437,558 436,558 435,558 434,558 433,558 432,557 431,557 430,557 429,557 428,557 427,557 426,557 425,556 424,557 423,556 422,556 421,556 420,556 419,555 418,555 417,554 416,554 415,553 414,554 413,554 412,553 411,552 410,553 409,552 408,552 407,551 406,551 405,551 404,550 403,550 402,550 401,550 400,550 399,549 398,549 397,548 396,548 395,548 394,547 393,547 392,547 391,545 390,545 389,545 388,544 387,544 386,544 385,543 384,542 383,541 382,541 381,540 380,540 379,538 378,538 377,537 376,535 375,536 374,535 373,534 372,534 371,533 370,531 369,530 368,529 367,527 366,527 365,524 364,522 363,521 362,520 361,518 360,516 359,513 358,509 357,509 356,506 355,502 355,486">
            <metadata shape="oval"/>
        </polygon>
        <polygon points="1600,219 1601,216 1602,209 1603,207 1604,203 1605,200 1606,197 1607,193 1608,191 1609,189 1610,188 1611,186 1612,183 1613,180 1614,179 1615,178 1616,177 1617,176 1618,174 1619,172 1620,170 1621,169 1622,168 1623,167 1624,166 1625,163 1626,162 1627,161 1628,160 1629,159 1630,158 1631,157 1632,156 1633,155 1634,154 1635,154 1636,152 1637,152 1638,152 1639,151 1640,149 1641,149 1642,148 1643,148 1644,147 1645,146 1646,146 1647,145 1648,145 1649,144 1650,144 1651,143 1652,142 1653,142 1654,141 1655,140 1656,140 1657,140 1658,140 1659,139 1660,139 1661,139 1662,138 1663,138 1664,138 1665,137 1666,136 1667,136 1668,136 1669,135 1670,135 1671,135 1672,135 1673,134 1674,134 1675,134 1676,133 1677,133 1678,133 1679,133 1680,132 1681,132 1682,131 1683,131 1684,131 1685,131 1686,130 1687,130 1688,130 1689,129 1690,129 1691,129 1692,129 1693,129 1694,128 1695,128 1696,128 1697,128 1698,127 1699,127 1700,127 1701,127 1702,127 1703,126 1704,126 1705,126 1706,127 1707,127 1708,127 1709,126 1710,126 1711,126 1712,126 1713,126 1714,125 1715,125 1716,125 1717,125 1718,126 1719,124 1720,125 1721,125 1722,125 1723,124 1724,124 1725,124 1726,124 1727,124 1728,124 1729,123 1730,123 1731,123 1732,123 1733,123 1734,123 1735,122 1736,123 1737,123 1738,123 1739,123 1740,122 1741,122 1742,122 1743,122 1744,122 1745,122 1746,122 1747,122 1748,122 1749,122 1750,122 1751,122 1752,122 1753,122 1754,122 1755,122 1756,122 1757,122 1758,122 1759,122 1760,122 1761,122 1762,122 1763,122 1764,122 1765,122 1766,122 1767,123 1768,123 1769,123 1770,123 1771,124 1772,124 1773,123 1774,124 1775,124 1776,124 1777,124 1778,124 1779,124 1780,124 1781,124 1782,124 1783,124 1784,124 1785,124 1786,124 1787,124 1788,125 1789,125 1790,125 1791,125 1792,125 1793,126 1794,126 1795,127 1796,127 1797,127 1798,127 1799,127 1800,128 1801,128 1802,129 1803,129 1804,129 1805,130 1806,130 1807,130 1808,130 1809,131 1810,131 1811,132 1812,132 1813,133 1814,133 1815,134 1816,134 1817,134 1818,134 1819,135 1820,136 1821,136 1822,137 1823,137 1824,138 1825,139 1826,140 1827,141 1828,141 1829,142 1830,143 1831,144 1832,145 1833,147 1834,147 1835,148 1836,148 1837,149 1838,150 1839,151 1840,151 1841,152 1842,153 1843,154 1844,155 1845,156 1846,157 1847,158 1848,159 1849,161 1850,161 1851,162 1852,164 1853,165 1854,166 1855,167 1856,169 1857,171 1858,172 1859,173 1860,174 1861,175 1862,177 1863,178 1864,180 1865,182 1866,183 1867,185 1868,186 1869,187 1870,188 1871,190 1872,193 1873,197 1874,198 1875,199 1876,203 1877,205 1878,209 1879,212 1880,222 1880,231 1879,237 1878,244 1877,246 1876,251 1875,254 1874,256 1873,261 1872,263 1871,268 1870,270 1869,272 1868,274 1867,276 1866,280 1865,282 1864,283 1863,284 1862,287 1861,289 1860,292 1859,293 1858,295 1857,296 1856,297 1855,299 1854,300 1853,301 1852,302 1851,302 1850,304 1849,305 1848,305 1847,307 1846,307 1845,308 1844,309 1843,309 1842,310 1841,311 1840,311 1839,312 1838,313 1837,314 1836,314 1835,314 1834,315 1833,316 1832,317 1831,318 1830,318 1829,318 1828,318 1827,319 1826,319 1825,319 1824,319 1823,320 1822,320 1821,320 1820,321 1819,321 1818,321 1817,321 1816,321 1815,322 1814,322 1813,322 1812,322 1811,323 1810,323 1809,323 1808,324 1807,324 1806,325 1805,325 1804,324 1803,324 1802,324 1801,324 1800,325 1799,325 1798,325 1797,325 1796,326 1795,326 1794,326 1793,326 1792,326 1791,326 1790,327 1789,327 1788,327 1787,327 1786,328 1785,327 1784,327 1783,326 1782,327 1781,327 1780,327 1779,326 1778,326 1777,326 1776,326 1775,327 1774,326 1773,326 1772,326 1771,326 1770,326 1769,327 1768,327 1767,327 1766,327 1765,326 1764,326 1763,326 1762,326 1761,326 1760,326 1759,326 1758,325 1757,326 1756,325 1755,325 1754,325 1753,325 1752,325 1751,325 1750,325 1749,325 1748,325 1747,324 1746,324 1745,326 1744,326 1743,327 1742,331 1741,332 1740,333 1739,336 1738,339 1737,341 1736,344 1735,348 1734,350 1733,352 1732,355 1731,356 1730,358 1729,360 1728,362 1727,364 1726,366 1725,368 1724,369 1723,372 1722,373 1721,374 1720,375 1719,377 1718,377 1717,325 1716,325 1715,325 1714,325 1713,325 1712,325 1711,326 1710,326 1709,325 1708,325 1707,325 1706,325 1705,325 1704,325 1703,325 1702,324 1701,324 1700,325 1699,325 1698,324 1697,324 1696,323 1695,323 1694,323 1693,323 1692,323 1691,322 1690,322 1689,321 1688,321 1687,321 1686,321 1685,321 1684,320 1683,319 1682,319 1681,319 1680,319 1679,319 1678,318 1677,318 1676,317 1675,317 1674,316 1673,316 1672,315 1671,315 1670,315 1669,315 1668,314 1667,313 1666,313 1665,313 1664,312 1663,312 1662,311 1661,310 1660,311 1659,311 1658,310 1657,309 1656,309 1655,308 1654,308 1653,307 1652,307 1651,306 1650,306 1649,305 1648,305 1647,305 1646,304 1645,303 1644,303 1643,303 1642,302 1641,301 1640,300 1639,300 1638,299 1637,298 1636,298 1635,297 1634,297 1633,296 1632,295 1631,294 1630,294 1629,294 1628,292 1627,292 1626,291 1625,289 1624,289 1623,287 1622,286 1621,286 1620,284 1619,283 1618,283 1617,281 1616,280 1615,280 1614,278 1613,278 1612,277 1611,275 1610,274 1609,272 1608,271 1607,268 1606,267 1605,267 1604,263 1603,261 1602,253 1601,250 1600,241 1600,219">
            <metadata shape="oval"/>
        </polygon>
        <polygon points="684,1677 685,1672 686,1669 687,1668 688,1661 689,1659 690,1656 691,1653 692,1652 693,1650 694,1647 695,1644 696,1643 697,1641 698,1640 699,1638 700,1636 701,1635 702,1632 703,1631 704,1630 705,1630 706,1628 707,1626 708,1625 709,1623 710,1621 711,1620 712,1618 713,1618 714,1617 715,1614 716,1613 717,1612 718,1611 719,1610 720,1609 721,1607 722,1606 723,1605 724,1604 725,1603 726,1602 727,1602 728,1601 729,1601 730,1599 731,1598 732,1598 733,1598 734,1597 735,1596 736,1595 737,1595 738,1595 739,1593 740,1593 741,1592 742,1592 743,1591 744,1590 745,1590 746,1589 747,1589 748,1588 749,1587 750,1587 751,1587 752,1587 753,1586 754,1585 755,1584 756,1584 757,1584 758,1584 759,1584 760,1583 761,1583 762,1582 763,1582 764,1582 765,1581 766,1581 767,1581 768,1580 769,1580 770,1580 771,1580 772,1579 773,1578 774,1579 775,1578 776,1578 777,1578 778,1577 779,1577 780,1577 781,1577 782,1576 783,1576 784,1576 785,1575 786,1575 787,1575 788,1575 789,1574 790,1574 791,1574 792,1573 793,1574 794,1573 795,1573 796,1573 797,1573 798,1572 799,1572 800,1572 801,1571 802,1571 803,1571 804,1572 805,1571 806,1571 807,1571 808,1571 809,1571 810,1570 811,1570 812,1570 813,1570 814,1570 815,1570 816,1570 817,1570 818,1569 819,1569 820,1569 821,1570 822,1569 823,1569 824,1569 825,1568 826,1568 827,1568 828,1568 829,1568 830,1568 831,1568 832,1568 833,1568 834,1567 835,1568 836,1568 837,1567 838,1567 839,1567 840,1567 841,1567 842,1567 843,1566 844,1566 845,1566 846,1566 847,1566 848,1566 849,1566 850,1566 851,1566 852,1566 853,1566 854,1565 855,1565 856,1565 857,1565 858,1565 859,1565 860,1565 861,1565 862,1565 863,1566 864,1566 865,1566 866,1566 867,1566 868,1566 869,1565 870,1566 871,1566 872,1566 873,1566 874,1566 875,1566 876,1566 877,1566 878,1566 879,1566 880,1566 881,1567 882,1567 883,1567 884,1567 885,1567 886,1567 887,1567 888,1567 889,1567 890,1567 891,1567 892,1567 893,1567 894,1568 895,1568 896,1568 897,1568 898,1568 899,1569 900,1569 901,1569 902,1569 903,1570 904,1570 905,1570 906,1570 907,1571 908,1571 909,1571 910,1571 911,1571 912,1572 913,1572 914,1572 915,1573 916,1573 917,1573 918,1574 919,1574 920,1575 921,1575 922,1575 923,1575 924,1576 925,1576 926,1576 927,1577 928,1577 929,1577 930,1578 931,1579 932,1579 933,1579 934,1580 935,1580 936,1581 937,1582 938,1582 939,1582 940,1583 941,1584 942,1584 943,1585 944,1585 945,1585 946,1586 947,1587 948,1587 949,1587 950,1589 951,1589 952,1590 953,1590 954,1591 955,1591 956,1592 957,1595 958,1596 959,1596 960,1596 961,1597 962,1599 963,1599 964,1600 965,1601 966,1602 967,1604 968,1605 969,1606 970,1607 971,1607 972,1608 973,1609 974,1609 975,1610 976,1611 977,1613 978,1613 979,1614 980,1616 981,1619 982,1620 983,1622 984,1623 985,1623 986,1624 987,1626 988,1627 989,1628 990,1630 991,1631 992,1635 993,1635 994,1636 995,1638 996,1638 997,1642 998,1643 999,1647 1000,1648 1001,1649 1002,1652 1003,1655 1004,1659 1005,1660 1006,1663 1007,1663 1008,1672 1009,1677 1010,1682 1010,1697 1009,1703 1008,1707 1007,1710 1006,1715 1005,1719 1004,1724 1003,1726 1002,1727 1001,1729 1000,1730 999,1731 998,1731 997,1734 996,1734 995,1735 994,1736 993,1738 992,1739 991,1741 990,1741 989,1742 988,1744 987,1744 986,1745 985,1746 984,1747 983,1748 982,1749 981,1750 980,1751 979,1751 978,1753 977,1753 976,1754 975,1756 974,1756 973,1757 972,1757 971,1758 970,1759 969,1760 968,1760 967,1760 966,1761 965,1762 964,1763 963,1763 962,1764 961,1764 960,1764 959,1765 958,1765 957,1766 956,1767 955,1767 954,1768 953,1768 952,1768 951,1769 950,1769 949,1769 948,1770 947,1770 946,1770 945,1771 944,1771 943,1772 942,1772 941,1772 940,1773 939,1773 938,1773 937,1774 936,1774 935,1774 934,1774 933,1775 932,1775 931,1775 930,1775 929,1775 928,1775 927,1775 926,1776 925,1776 924,1776 923,1776 922,1777 921,1776 920,1777 919,1777 918,1777 917,1777 916,1778 915,1778 914,1778 913,1777 912,1778 911,1778 910,1778 909,1778 908,1779 907,1779 906,1779 905,1779 904,1779 903,1780 902,1780 901,1780 900,1780 899,1779 898,1780 897,1780 896,1780 895,1780 894,1780 893,1781 892,1781 891,1781 890,1781 889,1781 888,1781 887,1781 886,1781 885,1781 884,1781 883,1781 882,1782 881,1782 880,1782 879,1782 878,1782 877,1782 876,1782 875,1782 874,1782 873,1782 872,1782 871,1782 870,1783 869,1783 868,1783 867,1783 866,1784 865,1784 864,1784 863,1784 862,1784 861,1785 860,1785 859,1785 858,1785 857,1786 856,1785 855,1785 854,1785 853,1785 852,1785 851,1785 850,1786 849,1786 848,1766 847,1766 846,1766 845,1767 844,1768 843,1769 842,1769 841,1770 840,1773 839,1774 838,1775 837,1777 836,1778 835,1779 834,1780 833,1782 832,1783 831,1785 830,1787 829,1787 828,1786 827,1786 826,1786 825,1756 824,1757 823,1758 822,1759 821,1760 820,1761 819,1763 818,1766 817,1771 816,1776 815,1779 814,1783 813,1784 812,1784 811,1784 810,1784 809,1784 808,1784 807,1784 806,1784 805,1784 804,1784 803,1783 802,1783 801,1782 800,1781 799,1781 798,1780 797,1779 796,1780 795,1778 794,1778 793,1778 792,1778 791,1778 790,1778 789,1778 788,1778 787,1779 786,1779 785,1779 784,1779 783,1779 782,1778 781,1778 780,1778 779,1778 778,1777 777,1777 776,1777 775,1777 774,1777 773,1777 772,1777 771,1776 770,1776 769,1776 768,1776 767,1776 766,1775 765,1775 764,1775 763,1774 762,1774 761,1773 760,1773 759,1773 758,1773 757,1772 756,1772 755,1772 754,1771 753,1771 752,1770 751,1770 750,1770 749,1770 748,1769 747,1768 746,1768 745,1769 744,1769 743,1769 742,1769 741,1770 740,1772 739,1774 738,1775 737,1777 736,1780 735,1782 734,1783 733,1785 732,1787 731,1788 730,1790 729,1791 728,1792 727,1793 726,1794 725,1795 724,1796 723,1797 722,1798 721,1753 720,1752 719,1751 718,1751 717,1750 716,1749 715,1748 714,1748 713,1747 712,1745 711,1745 710,1744 709,1743 708,1742 707,1741 706,1741 705,1740 704,1739 703,1737 702,1736 701,1735 700,1734 699,1732 698,1731 697,1730 696,1729 695,1728 694,1725 693,1725 692,1723 691,1722 690,1716 689,1713 688,1712 687,1709 686,1705 685,1704 684,1700 684,1677">
            <metadata shape="oval"/>
        </polygon>
        <polygon points="881,2018 882,2018 883,2018 884,2018 885,2017 886,2017 887,2017 888,2016 889,2016 890,2016 891,2015 892,2015 893,2015 894,2014 895,2014 896,2014 897,2013 898,2013 899,2013 900,2013 901,2012 902,2012 903,2012 904,2012 905,2011 906,2010 907,2010 908,2010 909,2010 910,2009 911,2008 912,2008 913,2008 914,2008 915,2007 916,2007 917,2007 918,2007 919,2006 920,2006 921,2006 922,2006 923,2005 924,2005 925,2005 926,2005 927,2005 928,2005 929,2004 930,2004 931,2004 932,2004 933,2004 934,2004 935,2004 936,2003 937,2003 938,2003 939,2003 940,2003 941,2003 942,2003 943,2004 944,2004 945,2003 946,2003 947,2003 948,1994 949,1990 950,1984 951,1982 952,1980 953,1978 954,1975 955,1974 956,1972 957,1971 958,1969 959,1969 960,1968 961,1966 962,1964 963,1963 964,1962 965,1960 966,1959 967,1957 968,1956 969,1955 970,1954 971,1954 972,1953 973,1953 974,1952 975,1950 976,1950 977,1949 978,1948 979,1947 980,1946 981,1947 982,1945 983,1944 984,1943 985,1943 986,1942 987,1941 988,1940 989,1940 990,1939 991,1939 992,1938 993,1938 994,1937 995,1937 996,1937 997,1935 998,1935 999,1935 1000,1934 1001,1933 1002,1932 1003,1932 1004,1932 1005,1931 1006,1931 1007,1931 1008,1930 1009,1930 1010,1930 1011,1930 1012,1929 1013,1929 1014,1928 1015,1928 1016,1927 1017,1927 1018,1927 1019,1926 1020,1926 1021,1925 1022,1926 1023,1925 1024,1925 1025,1925 1026,1925 1027,1924 1028,1924 1029,1924 1030,1923 1031,1923 1032,1923 1033,1922 1034,1922 1035,1923 1036,1922 1037,1922 1038,1922 1039,1922 1040,1921 1041,1921 1042,1921 1043,1921 1044,1921 1045,1920 1046,1920 1047,1920 1048,1920 1049,1920 1050,1919 1051,1919 1052,1919 1053,1919 1054,1919 1055,1919 1056,1919 1057,1919 1058,1919 1059,1919 1060,1918 1061,1918 1062,1918 1063,1918 1064,1918 1065,1918 1066,1917 1067,1917 1068,1917 1069,1917 1070,1917 1071,1917 1072,1917 1073,1917 1074,1917 1075,1917 1076,1917 1077,1916 1078,1916 1079,1916 1080,1916 1081,1916 1082,1916 1083,1916 1084,1916 1085,1916 1086,1916 1087,1916 1088,1916 1089,1917 1090,1917 1091,1917 1092,1917 1093,1916 1094,1916 1095,1916 1096,1916 1097,1915 1098,1915 1099,1915 1100,1915 1101,1915 1102,1915 1103,1915 1104,1915 1105,1915 1106,1915 1107,1915 1108,1915 1109,1915 1110,1915 1111,1915 1112,1915 1113,1915 1114,1916 1115,1917 1116,1916 1117,1916 1118,1916 1119,1915 1120,1916 1121,1916 1122,1916 1123,1916 1124,1916 1125,1915 1126,1916 1127,1915 1128,1916 1129,1916 1130,1917 1131,1917 1132,1916 1133,1916 1134,1916 1135,1916 1136,1917 1137,1917 1138,1916 1139,1916 1140,1916 1141,1916 1142,1916 1143,1916 1144,1917 1145,1917 1146,1917 1147,1916 1148,1917 1149,1916 1150,1916 1151,1917 1152,1917 1153,1917 1154,1917 1155,1916 1156,1917 1157,1917 1158,1917 1159,1917 1160,1917 1161,1917 1162,1918 1163,1918 1164,1918 1165,1918 1166,1917 1167,1917 1168,1917 1169,1917 1170,1918 1171,1918 1172,1918 1173,1918 1174,1918 1175,1918 1176,1918 1177,1918 1178,1918 1179,1918 1180,1918 1181,1918 1182,1918 1183,1918 1184,1918 1185,1918 1186,1918 1187,1918 1188,1918 1189,1918 1190,1919 1191,1919 1192,1919 1193,1919 1194,1919 1195,1919 1196,1919 1197,1919 1198,1919 1199,1920 1200,1919 1201,1920 1202,1920 1203,1920 1204,1920 1205,1920 1206,1920 1207,1920 1208,1920 1209,1921 1210,1921 1211,1921 1212,1921 1213,1921 1214,1921 1215,1921 1216,1921 1217,1920 1218,1921 1219,1921 1220,1921 1221,1921 1222,1921 1223,1921 1224,1921 1225,1920 1226,1921 1227,1921 1228,1921 1229,1921 1230,1921 1231,1921 1232,1921 1233,1921 1234,1921 1235,1921 1236,1921 1237,1922 1238,1922 1239,1922 1240,1922 1241,1922 1242,1922 1243,1922 1244,1922 1245,1922 1246,1922 1247,1922 1248,1922 1249,1922 1250,1922 1251,1922 1252,1923 1253,1923 1254,1923 1255,1923 1256,1923 1257,1923 1258,1923 1259,1923 1260,1923 1261,1923 1262,1923 1263,1923 1264,1924 1265,1924 1266,1924 1267,1924 1268,1924 1269,1924 1270,1924 1271,1924 1272,1924 1273,1925 1274,1925 1275,1925 1276,1925 1277,1925 1278,1925 1279,1925 1280,1925 1281,1925 1282,1925 1283,1925 1284,1926 1285,1925 1286,1926 1287,1925 1288,1925 1289,1925 1290,1926 1291,1926 1292,1926 1293,1926 1294,1926 1295,1925 1296,1925 1297,1926 1298,1926 1299,1927 1300,1926 1301,1926 1302,1927 1303,1927 1304,1927 1305,1927 1306,1927 1307,1927 1308,1927 1309,1927 1310,1927 1311,1927 1312,1927 1313,1927 1314,1927 1315,1927 1316,1927 1317,1927 1318,1927 1319,1927 1320,1928 1321,1928 1322,1928 1323,1928 1324,1928 1325,1928 1326,1929 1327,1929 1328,1929 1329,1929 1330,1929 1331,1929 1332,1929 1333,1929 1334,1929 1335,1929 1336,1929 1337,1930 1338,1930 1339,1930 1340,1930 1341,1930 1342,1930 1343,1931 1344,1930 1345,1930 1346,1930 1347,1930 1348,1931 1349,1931 1350,1931 1351,1931 1352,1931 1353,1931 1354,1931 1355,1931 1356,1932 1357,1931 1358,1931 1359,1931 1360,1932 1361,1932 1362,1932 1363,1932 1364,1932 1365,1932 1366,1933 1367,1933 1368,1932 1369,1933 1370,1933 1371,1933 1372,1933 1373,1933 1374,1934 1375,1934 1376,1934 1377,1934 1378,1934 1379,1934 1380,1934 1381,1935 1382,1935 1383,1935 1384,1935 1385,1934 1386,1934 1387,1935 1388,1935 1389,1935 1390,1935 1391,1935 1392,1936 1393,1935 1394,1936 1395,1936 1396,1936 1397,1936 1398,1937 1399,1936 1400,1937 1401,1937 1402,1937 1403,1937 1404,1937 1405,1937 1406,1937 1407,1937 1408,1937 1409,1938 1410,1938 1411,1938 1412,1938 1413,1939 1414,1939 1415,1939 1416,1939 1417,1940 1418,1940 1419,1939 1420,1939 1421,1940 1422,1941 1423,1941 1424,1941 1425,1942 1426,1942 1427,1942 1428,1942 1429,1943 1430,1944 1431,1944 1432,1945 1433,1945 1434,1946 1435,1947 1436,1947 1437,1947 1438,1948 1439,1949 1440,1949 1441,1950 1442,1950 1443,1951 1444,1951 1445,1952 1446,1953 1447,1953 1448,1954 1449,1955 1450,1956 1451,1958 1452,1958 1453,1958 1454,1959 1455,1960 1456,1961 1457,1962 1458,1963 1459,1965 1460,1968 1461,1969 1462,1970 1463,1972 1464,1975 1465,1979 1466,1981 1467,1985 1468,1987 1469,1989 1470,1993 1471,1999 1472,2004 1473,2008 1474,2019 1474,2030 1473,2040 1472,2044 1471,2048 1470,2053 1469,2055 1468,2058 1467,2060 1466,2062 1465,2064 1464,2067 1463,2068 1462,2069 1461,2072 1460,2073 1459,2075 1458,2076 1457,2078 1456,2078 1455,2079 1454,2082 1453,2083 1452,2084 1451,2085 1450,2085 1449,2087 1448,2088 1447,2088 1446,2088 1445,2088 1444,2089 1443,2091 1442,2091 1441,2092 1440,2092 1439,2093 1438,2095 1437,2095 1436,2095 1435,2095 1434,2096 1433,2096 1432,2097 1431,2098 1430,2098 1429,2099 1428,2099 1427,2100 1426,2100 1425,2100 1424,2100 1423,2101 1422,2101 1421,2102 1420,2102 1419,2102 1418,2103 1417,2103 1416,2104 1415,2104 1414,2104 1413,2104 1412,2105 1411,2106 1410,2106 1409,2106 1408,2106 1407,2106 1406,2106 1405,2107 1404,2107 1403,2107 1402,2108 1401,2108 1400,2108 1399,2108 1398,2108 1397,2109 1396,2109 1395,2109 1394,2109 1393,2110 1392,2110 1391,2110 1390,2110 1389,2110 1388,2110 1387,2111 1386,2111 1385,2111 1384,2111 1383,2111 1382,2112 1381,2111 1380,2111 1379,2111 1378,2111 1377,2112 1376,2112 1375,2112 1374,2112 1373,2113 1372,2113 1371,2113 1370,2113 1369,2113 1368,2113 1367,2113 1366,2113 1365,2113 1364,2114 1363,2114 1362,2114 1361,2114 1360,2114 1359,2114 1358,2114 1357,2114 1356,2115 1355,2115 1354,2115 1353,2115 1352,2115 1351,2116 1350,2116 1349,2116 1348,2116 1347,2116 1346,2116 1345,2116 1344,2116 1343,2116 1342,2116 1341,2117 1340,2117 1339,2117 1338,2117 1337,2117 1336,2117 1335,2117 1334,2117 1333,2117 1332,2117 1331,2118 1330,2118 1329,2117 1328,2117 1327,2117 1326,2118 1325,2118 1324,2117 1323,2117 1322,2118 1321,2118 1320,2118 1319,2118 1318,2117 1317,2117 1316,2118 1315,2118 1314,2118 1313,2117 1312,2117 1311,2117 1310,2117 1309,2117 1308,2118 1307,2118 1306,2118 1305,2118 1304,2116 1303,2117 1302,2117 1301,2117 1300,2117 1299,2118 1298,2118 1297,2118 1296,2116 1295,2117 1294,2117 1293,2117 1292,2117 1291,2117 1290,2117 1289,2116 1288,2116 1287,2117 1286,2117 1285,2117 1284,2117 1283,2117 1282,2117 1281,2117 1280,2117 1279,2117 1278,2117 1277,2116 1276,2116 1275,2116 1274,2116 1273,2116 1272,2116 1271,2115 1270,2116 1269,2115 1268,2115 1267,2115 1266,2115 1265,2115 1264,2115 1263,2115 1262,2115 1261,2115 1260,2115 1259,2115 1258,2115 1257,2115 1256,2115 1255,2115 1254,2115 1253,2115 1252,2115 1251,2115 1250,2115 1249,2115 1248,2115 1247,2115 1246,2115 1245,2115 1244,2114 1243,2114 1242,2114 1241,2115 1240,2114 1239,2114 1238,2114 1237,2114 1236,2114 1235,2113 1234,2113 1233,2113 1232,2113 1231,2113 1230,2112 1229,2112 1228,2112 1227,2112 1226,2113 1225,2113 1224,2113 1223,2112 1222,2112 1221,2112 1220,2112 1219,2112 1218,2112 1217,2112 1216,2111 1215,2111 1214,2112 1213,2112 1212,2111 1211,2111 1210,2111 1209,2111 1208,2111 1207,2111 1206,2111 1205,2111 1204,2111 1203,2111 1202,2111 1201,2111 1200,2110 1199,2110 1198,2110 1197,2110 1196,2110 1195,2110 1194,2110 1193,2110 1192,2110 1191,2110 1190,2110 1189,2110 1188,2110 1187,2110 1186,2110 1185,2110 1184,2110 1183,2110 1182,2110 1181,2110 1180,2110 1179,2110 1178,2110 1177,2110 1176,2110 1175,2110 1174,2110 1173,2110 1172,2110 1171,2110 1170,2110 1169,2110 1168,2110 1167,2110 1166,2110 1165,2110 1164,2110 1163,2110 1162,2110 1161,2110 1160,2110 1159,2110 1158,2110 1157,2110 1156,2110 1155,2110 1154,2110 1153,2110 1152,2110 1151,2110 1150,2110 1149,2110 1148,2111 1147,2111 1146,2111 1145,2111 1144,2110 1143,2110 1142,2110 1141,2110 1140,2110 1139,2109 1138,2110 1137,2110 1136,2110 1135,2110 1134,2110 1133,2110 1132,2110 1131,2110 1130,2110 1129,2110 1128,2110 1127,2110 1126,2110 1125,2110 1124,2110 1123,2110 1122,2110 1121,2110 1120,2110 1119,2111 1118,2111 1117,2111 1116,2111 1115,2111 1114,2111 1113,2110 1112,2110 1111,2111 1110,2111 1109,2111 1108,2111 1107,2112 1106,2112 1105,2112 1104,2112 1103,2112 1102,2112 1101,2111 1100,2111 1099,2112 1098,2111 1097,2112 1096,2112 1095,2111 1094,2111 1093,2111 1092,2111 1091,2111 1090,2112 1089,2112 1088,2112 1087,2111 1086,2111 1085,2112 1084,2111 1083,2111 1082,2112 1081,2110 1080,2110 1079,2111 1078,2111 1077,2110 1076,2110 1075,2110 1074,2110 1073,2110 1072,2110 1071,2110 1070,2110 1069,2110 1068,2109 1067,2110 1066,2110 1065,2110 1064,2109 1063,2109 1062,2109 1061,2109 1060,2109 1059,2109 1058,2109 1057,2109 1056,2109 1055,2109 1054,2109 1053,2108 1052,2108 1051,2108 1050,2108 1049,2108 1048,2108 1047,2108 1046,2107 1045,2107 1044,2107 1043,2107 1042,2107 1041,2107 1040,2107 1039,2107 1038,2107 1037,2107 1036,2107 1035,2106 1034,2106 1033,2107 1032,2107 1031,2106 1030,2106 1029,2106 1028,2106 1027,2106 1026,2105 1025,2105 1024,2105 1023,2106 1022,2105 1021,2104 1020,2104 1019,2104 1018,2103 1017,2103 1016,2103 1015,2102 1014,2102 1013,2102 1012,2102 1011,2101 1010,2101 1009,2101 1008,2100 1007,2100 1006,2099 1005,2099 1004,2099 1003,2098 1002,2098 1001,2098 1000,2098 999,2097 998,2096 997,2095 996,2094 995,2095 994,2095 993,2094 992,2093 991,2093 990,2092 989,2092 988,2091 987,2090 986,2090 985,2088 984,2089 983,2088 982,2087 981,2086 980,2086 979,2084 978,2085 977,2084 976,2084 975,2082 974,2081 973,2080 972,2079 971,2078 970,2076 969,2074 968,2075 967,2072 966,2071 965,2070 964,2069 963,2067 962,2064 961,2064 960,2062 959,2061 958,2060 957,2059 956,2051 955,2050 954,2049 953,2046 952,2045 951,2043 950,2037 949,2036 948,2021 947,2012 946,2012 945,2012 944,2013 943,2013 942,2013 941,2012 940,2013 939,2013 938,2013 937,2012 936,2012 935,2012 934,2012 933,2012 932,2013 931,2012 930,2013 929,2013 928,2013 927,2013 926,2013 925,2014 924,2013 923,2013 922,2014 921,2014 920,2013 919,2014 918,2014 917,2014 916,2014 915,2013 914,2014 913,2015 912,2015 911,2015 910,2015 909,2015 908,2015 907,2015 906,2016 905,2016 904,2016 903,2016 902,2017 901,2017 900,2017 899,2017 898,2017 897,2017 896,2017 895,2018 894,2018 893,2018 892,2018 891,2018 890,2018 889,2018 888,2018 887,2018 886,2018 885,2019 884,2019 883,2019 882,2019 881,2018 881,2018">
            <metadata shape="oval"/>
        </polygon>
        <polygon points="567,36 654,43 731,48 776,57 812,73 828,97 844,137 841,181 826,203 793,232 765,253 729,258 691,263 663,269 625,276 602,277 583,298 571,307 555,314 538,309 564,293 574,270 548,269 501,267 474,262 435,267 399,260 364,255 338,237 314,218 300,201 290,178 281,154 286,130 295,114 316,90 338,69 375,52 435,40 567,36">
            <metadata shape="rectangle" uri="" queueDirection="" area="" fillingPcent="" rank=""/>
        </polygon>
    </svg>
    <svg contentScriptType="text/ecmascript" zoomAndPan="magnify" contentStyleType="text/css" class="Object" preserveAspectRatio="xMidYMid meet" version="1.0"/>
    <metadata method="GroundTruth" lastModificationDate="Sat Nov 02 21:43:44 CET 2013" lastStepModified="Line_Metadata"/>
</svg>
