<svg xmlns="http://www.w3.org/2000/svg" width="2407" version="1.0" height="3297"><title>JOLIVET_BOSTONPOLICEAFFAIREPRADI_077</title><svg contentScriptType="text/ecmascript" zoomAndPan="magnify" contentStyleType="text/css" class="Page" preserveAspectRatio="xMidYMid meet" version="1.0"><image xmlns:xlink="http://www.w3.org/1999/xlink" x="0" y="0" width="2407" height="3297" xlink:href="../Pages/JOLIVET_BOSTONPOLICEAFFAIREPRADI_077.jpg" xlink:type="simple" xlink:actuate="onLoad" preserveAspectRatio="xMidYMid meet" xlink:show="embed"/></svg><style type="text/css" xml:space="preserve">
            * { stroke-width: 0; stroke-linejoin: round; }
            .Unclassified { fill: orange; stroke: none; opacity: 1.0; visibility: hidden; }
            .Noise { fill: pink; stroke: none; opacity: 0.2; visibility: hidden; }
            .Panel { fill: red; stroke: none; opacity: 0.5; visibility: visible; image-rendering: optimizeSpeed; }
            .Line { fill: green; stroke: none; opacity: 0.5; visibility: visible; image-rendering: optimizeSpeed; }
            .TextArea { fill: grey; stroke: none; opacity: 0.2; visibility: visible; image-rendering: optimizeSpeed; }
            .Balloon { fill: cyan; stroke: none; opacity: 0.5; visibility: visible; image-rendering: optimizeSpeed; }
            .Letter { fill: blue; stroke: none; opacity: 0.2; visibility: hidden; }
            .Object { fill: yellow; stroke: none; opacity: 0.2; visibility: visible; image-rendering: optimizeSpeed; }
            .Page { fill: white; stroke: none; opacity: 0.5; visibility: visible; }
            polygon:hover { opacity:0.2; }
    </style><ns0:svg xmlns:ns0="http://www.w3.org/2000/svg" contentScriptType="text/ecmascript" zoomAndPan="magnify" class="Panel" contentStyleType="text/css" preserveAspectRatio="xMidYMid meet" version="1.0">
        <ns0:polygon points="2201,1713 1309,1716 1309,947 2201,947 2201,1713">
            <ns0:metadata id="JOLIVET_BOSTONPOLICEAFFAIREPRADI_077_panel_3" rank="4"/>
        </ns0:polygon>
        <ns0:polygon points="1021,3108 73,3115 73,2378 1017,2375 1021,3108">
            <ns0:metadata id="JOLIVET_BOSTONPOLICEAFFAIREPRADI_077_panel_5" rank="6"/>
        </ns0:polygon>
        <ns0:polygon points="1211,924 60,924 60,132 1211,132 1211,924">
            <ns0:metadata id="JOLIVET_BOSTONPOLICEAFFAIREPRADI_077_panel_0" rank="1"/>
        </ns0:polygon>
        <ns0:polygon points="1620,3099 1043,3104 1039,2370 1616,2368 1620,3099">
            <ns0:metadata id="JOLIVET_BOSTONPOLICEAFFAIREPRADI_077_panel_6" rank="7"/>
        </ns0:polygon>
        <ns0:polygon points="2211,3097 1641,3097 1641,2364 2206,2364 2211,3097">
            <ns0:metadata id="JOLIVET_BOSTONPOLICEAFFAIREPRADI_077_panel_7" rank="8"/>
        </ns0:polygon>
        <ns0:polygon points="2197,921 1233,921 1233,134 2197,134 2197,921">
            <ns0:metadata id="JOLIVET_BOSTONPOLICEAFFAIREPRADI_077_panel_1" rank="2"/>
        </ns0:polygon>
        <ns0:polygon points="1286,1721 66,1725 66,950 1286,950 1286,1721">
            <ns0:metadata id="JOLIVET_BOSTONPOLICEAFFAIREPRADI_077_panel_2" rank="3"/>
        </ns0:polygon>
        <ns0:polygon points="2208,2342 71,2357 69,1748 2204,1737 2208,2342">
            <ns0:metadata id="JOLIVET_BOSTONPOLICEAFFAIREPRADI_077_panel_4" rank="5"/>
        </ns0:polygon>
    </ns0:svg>
    <ns1:svg xmlns:ns1="http://www.w3.org/2000/svg" contentScriptType="text/ecmascript" zoomAndPan="magnify" class="Balloon" contentStyleType="text/css" preserveAspectRatio="xMidYMid meet" version="1.0">
        <ns1:polygon points="1091,292 1083,322 1060,350 835,511 836,500 860,297 871,266 882,251 906,225 953,209 983,205 1014,209 1052,224 1073,239 1090,265 1091,292">
            <ns1:metadata id="JOLIVET_BOSTONPOLICEAFFAIREPRADI_077_balloon_0" tailTip="835,511" tailDirection="SW" rank="1"/>
        </ns1:polygon>
        <ns1:polygon points="689,1458 680,1490 651,1526 608,1547 560,1552 518,1548 480,1537 451,1522 424,1496 411,1461 419,1421 437,1394 463,1373 507,1356 672,1314 673,1318 687,1432 689,1458">
            <ns1:metadata id="JOLIVET_BOSTONPOLICEAFFAIREPRADI_077_balloon_2" tailTip="673,1318" tailDirection="NE" rank="5"/>
        </ns1:polygon>
        <ns1:polygon points="1878,2399 1877,2430 1876,2459 1871,2490 1863,2512 1822,2620 1805,2625 1660,2567 1643,2552 1638,2545 1640,2364 1867,2362 1878,2399">
            <ns1:metadata id="JOLIVET_BOSTONPOLICEAFFAIREPRADI_077_balloon_5" tailTip="1822,2620" tailDirection="E" rank="11"/>
        </ns1:polygon>
        <ns1:polygon points="1949,1847 1925,1912 1797,2169 1779,2165 1537,2072 1531,2068 1749,1833 1846,1800 1949,1847">
            <ns1:metadata id="JOLIVET_BOSTONPOLICEAFFAIREPRADI_077_balloon_4" tailDirection="SW" rank="9"/>
        </ns1:polygon>
        <ns1:polygon points="1207,1137 1203,1179 1185,1211 1146,1237 1078,1251 1020,1249 958,1221 799,1118 809,1112 1013,1048 1083,1049 1133,1062 1173,1081 1197,1111 1207,1137">
            <ns1:metadata id="JOLIVET_BOSTONPOLICEAFFAIREPRADI_077_balloon_1" tailTip="799,1118" tailDirection="W" rank="3"/>
        </ns1:polygon>
        <ns1:polygon points="2148,1622 2143,1641 2119,1666 2082,1680 2043,1684 2010,1680 1976,1671 1952,1651 1833,1544 1808,1521 1794,1498 1789,1481 1753,1331 1958,1351 2009,1358 2053,1383 2081,1407 2103,1433 2113,1453 2148,1622">
            <ns1:metadata id="JOLIVET_BOSTONPOLICEAFFAIREPRADI_077_balloon_3" tailTip="1753,1331" tailDirection="NW" rank="7"/>
        </ns1:polygon>
    </ns1:svg>
    <ns2:svg xmlns:ns2="http://www.w3.org/2000/svg" contentScriptType="text/ecmascript" zoomAndPan="magnify" class="Line" contentStyleType="text/css" preserveAspectRatio="xMidYMid meet" version="1.0">
        <ns2:polygon points="644,1495 463,1495 463,1476 644,1476 644,1495">
            <ns2:metadata id="JOLIVET_BOSTONPOLICEAFFAIREPRADI_077_line_13" rank="27"/>
        </ns2:polygon>
        <ns2:polygon points="2071,1491 1825,1491 1825,1468 2071,1468 2071,1491">
            <ns2:metadata id="JOLIVET_BOSTONPOLICEAFFAIREPRADI_077_line_19" rank="39"/>
        </ns2:polygon>
        <ns2:polygon points="1124,1107 1004,1107 1004,1085 1124,1085 1124,1107">
            <ns2:metadata id="JOLIVET_BOSTONPOLICEAFFAIREPRADI_077_line_4" rank="9"/>
        </ns2:polygon>
        <ns2:polygon points="668,1427 435,1427 435,1407 668,1407 668,1427">
            <ns2:metadata id="JOLIVET_BOSTONPOLICEAFFAIREPRADI_077_line_10" rank="21"/>
        </ns2:polygon>
        <ns2:polygon points="1037,263 919,263 919,243 1037,243 1037,263">
            <ns2:metadata id="JOLIVET_BOSTONPOLICEAFFAIREPRADI_077_line_0" rank="1"/>
        </ns2:polygon>
        <ns2:polygon points="2127,1629 1966,1629 1966,1611 2127,1611 2127,1629">
            <ns2:metadata id="JOLIVET_BOSTONPOLICEAFFAIREPRADI_077_line_23" rank="47"/>
        </ns2:polygon>
        <ns2:polygon points="1818,2546 1694,2546 1694,2525 1818,2525 1818,2546">
            <ns2:metadata id="JOLIVET_BOSTONPOLICEAFFAIREPRADI_077_line_33" rank="67"/>
        </ns2:polygon>
        <ns2:polygon points="1046,290 912,290 912,266 1046,266 1046,290">
            <ns2:metadata id="JOLIVET_BOSTONPOLICEAFFAIREPRADI_077_line_1" rank="3"/>
        </ns2:polygon>
        <ns2:polygon points="1848,2407 1663,2408 1663,2387 1848,2387 1848,2407">
            <ns2:metadata id="JOLIVET_BOSTONPOLICEAFFAIREPRADI_077_line_27" rank="55"/>
        </ns2:polygon>
        <ns2:polygon points="1822,2499 1689,2499 1689,2480 1822,2480 1822,2499">
            <ns2:metadata id="JOLIVET_BOSTONPOLICEAFFAIREPRADI_077_line_31" rank="63"/>
        </ns2:polygon>
        <ns2:polygon points="1161,1135 966,1135 966,1113 1161,1113 1161,1135">
            <ns2:metadata id="JOLIVET_BOSTONPOLICEAFFAIREPRADI_077_line_5" rank="11"/>
        </ns2:polygon>
        <ns2:polygon points="2040,1536 1855,1536 1855,1515 2040,1515 2040,1536">
            <ns2:metadata id="JOLIVET_BOSTONPOLICEAFFAIREPRADI_077_line_21" rank="43"/>
        </ns2:polygon>
        <ns2:polygon points="1852,2454 1659,2454 1659,2433 1852,2433 1852,2454">
            <ns2:metadata id="JOLIVET_BOSTONPOLICEAFFAIREPRADI_077_line_29" rank="59"/>
        </ns2:polygon>
        <ns2:polygon points="2098,1604 1994,1604 1994,1586 2098,1586 2098,1604">
            <ns2:metadata id="JOLIVET_BOSTONPOLICEAFFAIREPRADI_077_line_22" rank="45"/>
        </ns2:polygon>
        <ns2:polygon points="1168,1187 958,1187 958,1168 1168,1168 1168,1187">
            <ns2:metadata id="JOLIVET_BOSTONPOLICEAFFAIREPRADI_077_line_7" rank="15"/>
        </ns2:polygon>
        <ns2:polygon points="617,1404 489,1404 489,1383 617,1383 617,1404">
            <ns2:metadata id="JOLIVET_BOSTONPOLICEAFFAIREPRADI_077_line_9" rank="19"/>
        </ns2:polygon>
        <ns2:polygon points="662,1448 442,1448 442,1427 662,1427 662,1448">
            <ns2:metadata id="JOLIVET_BOSTONPOLICEAFFAIREPRADI_077_line_11" rank="23"/>
        </ns2:polygon>
        <ns2:polygon points="1868,1912 1814,1912 1814,1868 1868,1868 1868,1912">
            <ns2:metadata id="JOLIVET_BOSTONPOLICEAFFAIREPRADI_077_line_25" rank="51"/>
        </ns2:polygon>
        <ns2:polygon points="663,1472 442,1472 442,1454 663,1454 663,1472">
            <ns2:metadata id="JOLIVET_BOSTONPOLICEAFFAIREPRADI_077_line_12" rank="25"/>
        </ns2:polygon>
        <ns2:polygon points="628,1519 480,1519 480,1501 628,1501 628,1519">
            <ns2:metadata id="JOLIVET_BOSTONPOLICEAFFAIREPRADI_077_line_14" rank="29"/>
        </ns2:polygon>
        <ns2:polygon points="1044,345 915,345 915,321 1044,321 1044,345">
            <ns2:metadata id="JOLIVET_BOSTONPOLICEAFFAIREPRADI_077_line_3" rank="7"/>
        </ns2:polygon>
        <ns2:polygon points="1828,2522 1683,2522 1683,2502 1828,2502 1828,2522">
            <ns2:metadata id="JOLIVET_BOSTONPOLICEAFFAIREPRADI_077_line_32" rank="65"/>
        </ns2:polygon>
        <ns2:polygon points="2018,1422 1877,1422 1877,1399 2018,1399 2018,1422">
            <ns2:metadata id="JOLIVET_BOSTONPOLICEAFFAIREPRADI_077_line_16" rank="33"/>
        </ns2:polygon>
        <ns2:polygon points="1864,2429 1648,2430 1648,2411 1864,2411 1864,2429">
            <ns2:metadata id="JOLIVET_BOSTONPOLICEAFFAIREPRADI_077_line_28" rank="57"/>
        </ns2:polygon>
        <ns2:polygon points="1995,1398 1898,1398 1898,1380 1995,1380 1995,1398">
            <ns2:metadata id="JOLIVET_BOSTONPOLICEAFFAIREPRADI_077_line_15" rank="31"/>
        </ns2:polygon>
        <ns2:polygon points="1855,2476 1655,2476 1655,2456 1855,2456 1855,2476">
            <ns2:metadata id="JOLIVET_BOSTONPOLICEAFFAIREPRADI_077_line_30" rank="61"/>
        </ns2:polygon>
        <ns2:polygon points="1057,318 900,318 900,297 1057,297 1057,318">
            <ns2:metadata id="JOLIVET_BOSTONPOLICEAFFAIREPRADI_077_line_2" rank="5"/>
        </ns2:polygon>
        <ns2:polygon points="2123,1654 1970,1654 1970,1636 2123,1636 2123,1654">
            <ns2:metadata id="JOLIVET_BOSTONPOLICEAFFAIREPRADI_077_line_24" rank="49"/>
        </ns2:polygon>
        <ns2:polygon points="2068,1468 1827,1468 1827,1449 2068,1449 2068,1468">
            <ns2:metadata id="JOLIVET_BOSTONPOLICEAFFAIREPRADI_077_line_18" rank="37"/>
        </ns2:polygon>
        <ns2:polygon points="1134,1217 996,1217 996,1195 1134,1195 1134,1217">
            <ns2:metadata id="JOLIVET_BOSTONPOLICEAFFAIREPRADI_077_line_8" rank="17"/>
        </ns2:polygon>
        <ns2:polygon points="2050,1444 1845,1444 1845,1426 2050,1426 2050,1444">
            <ns2:metadata id="JOLIVET_BOSTONPOLICEAFFAIREPRADI_077_line_17" rank="35"/>
        </ns2:polygon>
        <ns2:polygon points="2070,1513 1826,1514 1826,1495 2070,1495 2070,1513">
            <ns2:metadata id="JOLIVET_BOSTONPOLICEAFFAIREPRADI_077_line_20" rank="41"/>
        </ns2:polygon>
        <ns2:polygon points="1131,1161 998,1161 998,1135 1131,1135 1131,1161">
            <ns2:metadata id="JOLIVET_BOSTONPOLICEAFFAIREPRADI_077_line_6" rank="13"/>
        </ns2:polygon>
    </ns2:svg>
    <svg xmlns="http://www.w3.org/2000/svg" contentScriptType="text/ecmascript" zoomAndPan="magnify" contentStyleType="text/css" class="Object" preserveAspectRatio="xMidYMid meet" version="1.0"><polygon points="532,514 843,514 843,799 532,799 532,514"><metadata id="JOLIVET_BOSTONPOLICEAFFAIREPRADI_077_character_1" idBalloon="JOLIVET_BOSTONPOLICEAFFAIREPRADI_077_balloon_0" idPanel="JOLIVET_BOSTONPOLICEAFFAIREPRADI_077_panel_0"/>
        </polygon><polygon points="483,967 815,967 815,1433 483,1433 483,967"><metadata id="JOLIVET_BOSTONPOLICEAFFAIREPRADI_077_character_3" idBalloon="JOLIVET_BOSTONPOLICEAFFAIREPRADI_077_balloon_1" idPanel="JOLIVET_BOSTONPOLICEAFFAIREPRADI_077_panel_2"/>
        </polygon><polygon points="683,961 1266,961 1266,1316 683,1316 683,961"><metadata id="JOLIVET_BOSTONPOLICEAFFAIREPRADI_077_character_4" idBalloon="JOLIVET_BOSTONPOLICEAFFAIREPRADI_077_balloon_2" idPanel="JOLIVET_BOSTONPOLICEAFFAIREPRADI_077_panel_2"/>
        </polygon><polygon points="1814,2390 2039,2390 2039,2828 1814,2828 1814,2390"><metadata id="JOLIVET_BOSTONPOLICEAFFAIREPRADI_077_character_5" idBalloon="JOLIVET_BOSTONPOLICEAFFAIREPRADI_077_balloon_5" idPanel="JOLIVET_BOSTONPOLICEAFFAIREPRADI_077_panel_7"/>
        </polygon><polygon points="1434,1040 1770,1040 1770,1333 1434,1333 1434,1040"><metadata id="JOLIVET_BOSTONPOLICEAFFAIREPRADI_077_character_2" idBalloon="JOLIVET_BOSTONPOLICEAFFAIREPRADI_077_balloon_3" idPanel="JOLIVET_BOSTONPOLICEAFFAIREPRADI_077_panel_3"/>
        </polygon></svg><metadata lastModificationDate="Wed, 07 May 2014 11+:40:18 +0000" method="Christophe Rigaud's extractor"/></svg>
