<svg xmlns="http://www.w3.org/2000/svg" width="5313" version="1.0" height="3633"><title>SAINTOGAN_PROSPER_ET_LE_MONSTRE_MARIN_046</title><svg contentScriptType="text/ecmascript" zoomAndPan="magnify" contentStyleType="text/css" class="Page" preserveAspectRatio="xMidYMid meet" version="1.0"><image xmlns:xlink="http://www.w3.org/1999/xlink" x="0" y="0" width="5313" height="3633" xlink:href="../Pages/SAINTOGAN_PROSPER_ET_LE_MONSTRE_MARIN_046.jpg" xlink:type="simple" xlink:actuate="onLoad" preserveAspectRatio="xMidYMid meet" xlink:show="embed"/></svg><style type="text/css" xml:space="preserve">
            * { stroke-width: 0; stroke-linejoin: round; }
            .Unclassified { fill: orange; stroke: none; opacity: 1.0; visibility: hidden; }
            .Noise { fill: pink; stroke: none; opacity: 0.2; visibility: hidden; }
            .Panel { fill: red; stroke: none; opacity: 0.5; visibility: visible; image-rendering: optimizeSpeed; }
            .Line { fill: green; stroke: none; opacity: 0.5; visibility: visible; image-rendering: optimizeSpeed; }
            .TextArea { fill: grey; stroke: none; opacity: 0.2; visibility: visible; image-rendering: optimizeSpeed; }
            .Balloon { fill: cyan; stroke: none; opacity: 0.5; visibility: visible; image-rendering: optimizeSpeed; }
            .Letter { fill: blue; stroke: none; opacity: 0.2; visibility: hidden; }
            .Object { fill: yellow; stroke: none; opacity: 0.2; visibility: visible; image-rendering: optimizeSpeed; }
            .Page { fill: white; stroke: none; opacity: 0.5; visibility: visible; }
            polygon:hover { opacity:0.2; }
    </style><ns0:svg xmlns:ns0="http://www.w3.org/2000/svg" contentScriptType="text/ecmascript" zoomAndPan="magnify" class="Panel" contentStyleType="text/css" preserveAspectRatio="xMidYMid meet" version="1.0">
        <ns0:polygon points="2602,3241 1457,3241 1457,2172 2602,2172 2602,3241">
            <ns0:metadata id="SAINTOGAN_PROSPER_ET_LE_MONSTRE_MARIN_046_panel_5" rank="8"/>
        </ns0:polygon>
        <ns0:polygon points="1380,2238 429,2238 429,1347 1380,1347 1380,2238">
            <ns0:metadata id="SAINTOGAN_PROSPER_ET_LE_MONSTRE_MARIN_046_panel_3" rank="3"/>
        </ns0:polygon>
        <ns0:polygon points="4263,1347 2888,1342 2887,301 4259,303 4263,1347">
            <ns0:metadata id="SAINTOGAN_PROSPER_ET_LE_MONSTRE_MARIN_046_panel_6" rank="5"/>
        </ns0:polygon>
        <ns0:polygon points="1543,3193 445,3193 445,2133 1543,2133 1543,3193">
            <ns0:metadata id="SAINTOGAN_PROSPER_ET_LE_MONSTRE_MARIN_046_panel_4" rank="7"/>
        </ns0:polygon>
        <ns0:polygon points="3745,1508 3739,2232 2889,2227 2889,1502 3745,1508">
            <ns0:metadata id="SAINTOGAN_PROSPER_ET_LE_MONSTRE_MARIN_046_panel_8" rank="9"/>
        </ns0:polygon>
        <ns0:polygon points="1297,1268 413,1268 413,316 1297,316 1297,1268">
            <ns0:metadata id="SAINTOGAN_PROSPER_ET_LE_MONSTRE_MARIN_046_panel_0" rank="1"/>
        </ns0:polygon>
        <ns0:polygon points="5039,2319 5033,3243 3664,3237 3669,2313 5039,2319">
            <ns0:metadata id="SAINTOGAN_PROSPER_ET_LE_MONSTRE_MARIN_046_panel_12" rank="13"/>
        </ns0:polygon>
        <ns0:polygon points="2596,1981 1186,1981 1186,663 2596,663 2596,1981">
            <ns0:metadata id="SAINTOGAN_PROSPER_ET_LE_MONSTRE_MARIN_046_panel_2" rank="4"/>
        </ns0:polygon>
        <ns0:polygon points="2179,830 1218,830 1218,298 2179,298 2179,830">
            <ns0:metadata id="SAINTOGAN_PROSPER_ET_LE_MONSTRE_MARIN_046_panel_1" rank="2"/>
        </ns0:polygon>
        <ns0:polygon points="5040,1527 5038,2241 4314,2237 4315,1517 5040,1527">
            <ns0:metadata id="SAINTOGAN_PROSPER_ET_LE_MONSTRE_MARIN_046_panel_10" rank="11"/>
        </ns0:polygon>
        <ns0:polygon points="3630,2312 3629,3238 2885,3236 2886,2311 3630,2312">
            <ns0:metadata id="SAINTOGAN_PROSPER_ET_LE_MONSTRE_MARIN_046_panel_11" rank="12"/>
        </ns0:polygon>
        <ns0:polygon points="4277,2234 3778,2232 3781,1510 4276,1515 4277,2234">
            <ns0:metadata id="SAINTOGAN_PROSPER_ET_LE_MONSTRE_MARIN_046_panel_9" rank="10"/>
        </ns0:polygon>
        <ns0:polygon points="5041,305 5040,1352 4301,1348 4296,304 5041,305">
            <ns0:metadata id="SAINTOGAN_PROSPER_ET_LE_MONSTRE_MARIN_046_panel_7" rank="6"/>
        </ns0:polygon>
    </ns0:svg>
    <ns1:svg xmlns:ns1="http://www.w3.org/2000/svg" contentScriptType="text/ecmascript" zoomAndPan="magnify" class="Balloon" contentStyleType="text/css" preserveAspectRatio="xMidYMid meet" version="1.0"/>
    <ns2:svg xmlns:ns2="http://www.w3.org/2000/svg" contentScriptType="text/ecmascript" zoomAndPan="magnify" class="Line" contentStyleType="text/css" preserveAspectRatio="xMidYMid meet" version="1.0"/>
    <svg xmlns="http://www.w3.org/2000/svg" contentScriptType="text/ecmascript" zoomAndPan="magnify" contentStyleType="text/css" class="Object" preserveAspectRatio="xMidYMid meet" version="1.0"/><metadata lastModificationDate="Wed, 07 May 2014 11+:40:20 +0000" method="Christophe Rigaud's extractor"/></svg>
