<?xml version="1.0" encoding="UTF-8" standalone="no"?>
<svg width="541" xmlns="http://www.w3.org/2000/svg" version="1.0" height="1024">
  <title>CYB_MAGICIENLOOSE_001</title>
  <svg contentScriptType="text/ecmascript" zoomAndPan="magnify" contentStyleType="text/css" class="Page" preserveAspectRatio="xMidYMid meet" version="1.0">
    <image xmlns:xlink="http://www.w3.org/1999/xlink" x="0" y="0" width="541" height="1024" xlink:href="../Pages/CYB_MAGICIENLOOSE_001.jpg" xlink:type="simple" xlink:actuate="onLoad" preserveAspectRatio="xMidYMid meet" xlink:show="embed"/>
  </svg>
  <style type="text/css" xml:space="preserve">
        * { stroke-width: 0; stroke-linejoin: round; }
        .Unclassified { fill: orange; stroke: none; opacity: 1.0; visibility: hidden; }
        .Noise { fill: pink; stroke: none; opacity: 0.2; visibility: hidden; }
        .Panel { fill: red; stroke: none; opacity: 0.5; visibility: visible; image-rendering: optimizeSpeed; }
        .Line { fill: green; stroke: none; opacity: 0.5; visibility: visible; image-rendering: optimizeSpeed; }
        .TextArea { fill: grey; stroke: none; opacity: 0.2; visibility: visible; image-rendering: optimizeSpeed; }
        .Balloon { fill: cyan; stroke: none; opacity: 0.5; visibility: visible; image-rendering: optimizeSpeed; }
        .Letter { fill: blue; stroke: none; opacity: 0.2; visibility: hidden; }
        .Object { fill: yellow; stroke: none; opacity: 0.5; visibility: visible; image-rendering: optimizeSpeed; }
        .Page { fill: white; stroke: none; opacity: 0.5; visibility: visible; }
        polygon:hover { opacity:0.2; }
</style>
  <svg xmlns="http://www.w3.org/2000/svg" contentScriptType="text/ecmascript" zoomAndPan="magnify" contentStyleType="text/css" class="Panel" preserveAspectRatio="xMidYMid meet" version="1.0">
    <polygon points="521,1009 458,1010 279,1010 279,822 280,821 521,821 521,1009">
      <metadata confidence="0.0" id="CYB_MAGICIENLOOSE_001_panel_0"/>
    </polygon>
    <polygon points="268,1009 267,1010 243,1011 26,1011 25,941 25,821 27,820 266,820 267,863 268,1004 268,1009">
      <metadata confidence="0.0" id="CYB_MAGICIENLOOSE_001_panel_1"/>
    </polygon>
    <polygon points="521,808 520,809 279,809 278,808 278,619 444,619 521,620 521,808">
      <metadata confidence="0.0" id="CYB_MAGICIENLOOSE_001_panel_2"/>
    </polygon>
    <polygon points="266,809 27,809 25,808 24,787 23,629 24,618 36,618 264,619 265,620 266,696 266,809">
      <metadata confidence="0.0" id="CYB_MAGICIENLOOSE_001_panel_3"/>
    </polygon>
    <polygon points="522,606 279,606 278,488 278,417 521,417 522,605 522,606">
      <metadata confidence="0.0" id="CYB_MAGICIENLOOSE_001_panel_4"/>
    </polygon>
    <polygon points="265,605 264,606 113,606 24,605 23,524 23,418 24,417 265,417 265,605">
      <metadata confidence="0.0" id="CYB_MAGICIENLOOSE_001_panel_5"/>
    </polygon>
    <polygon points="521,404 520,405 278,405 277,216 519,216 520,217 521,219 521,404">
      <metadata confidence="0.0" id="CYB_MAGICIENLOOSE_001_panel_6"/>
    </polygon>
    <polygon points="265,404 264,406 23,404 22,262 22,216 24,215 118,215 263,216 264,217 265,286 265,404">
      <metadata confidence="0.0" id="CYB_MAGICIENLOOSE_001_panel_7"/>
    </polygon>
    <polygon points="521,202 519,204 374,204 277,203 277,13 307,13 462,14 520,15 521,33 521,202">
      <metadata confidence="0.0" id="CYB_MAGICIENLOOSE_001_panel_8"/>
    </polygon>
    <polygon points="264,203 248,204 24,204 22,203 21,58 21,13 22,12 260,13 264,14 264,203">
      <metadata confidence="0.0" id="CYB_MAGICIENLOOSE_001_panel_9"/>
    </polygon>
  </svg>
</svg>
