<?xml version="1.0" encoding="UTF-8" standalone="no"?>
<svg width="800" xmlns="http://www.w3.org/2000/svg" version="1.0" height="328">
  <title>LAMISSEB_ETPISTAF_013</title>
  <svg contentScriptType="text/ecmascript" zoomAndPan="magnify" contentStyleType="text/css" class="Page" preserveAspectRatio="xMidYMid meet" version="1.0">
    <image xmlns:xlink="http://www.w3.org/1999/xlink" x="0" y="0" width="800" height="328" xlink:href="../Pages/LAMISSEB_ETPISTAF_013.jpg" xlink:type="simple" xlink:actuate="onLoad" preserveAspectRatio="xMidYMid meet" xlink:show="embed"/>
  </svg>
  <style type="text/css" xml:space="preserve">
        * { stroke-width: 0; stroke-linejoin: round; }
        .Unclassified { fill: orange; stroke: none; opacity: 1.0; visibility: hidden; }
        .Noise { fill: pink; stroke: none; opacity: 0.2; visibility: hidden; }
        .Panel { fill: red; stroke: none; opacity: 0.5; visibility: visible; image-rendering: optimizeSpeed; }
        .Line { fill: green; stroke: none; opacity: 0.5; visibility: visible; image-rendering: optimizeSpeed; }
        .TextArea { fill: grey; stroke: none; opacity: 0.2; visibility: visible; image-rendering: optimizeSpeed; }
        .Balloon { fill: cyan; stroke: none; opacity: 0.5; visibility: visible; image-rendering: optimizeSpeed; }
        .Letter { fill: blue; stroke: none; opacity: 0.2; visibility: hidden; }
        .Object { fill: yellow; stroke: none; opacity: 0.5; visibility: visible; image-rendering: optimizeSpeed; }
        .Page { fill: white; stroke: none; opacity: 0.5; visibility: visible; }
        polygon:hover { opacity:0.2; }
</style>
  <svg xmlns="http://www.w3.org/2000/svg" contentScriptType="text/ecmascript" zoomAndPan="magnify" contentStyleType="text/css" class="Panel" preserveAspectRatio="xMidYMid meet" version="1.0">
    <polygon points="794,124 793,127 792,129 790,131 767,149 764,151 762,151 697,77 695,74 694,72 693,69 692,65 692,59 693,55 694,52 695,50 697,47 703,41 725,41 741,42 751,43 759,44 761,45 777,65 794,112 794,124">
      <metadata confidence="0.0" id="LAMISSEB_ETPISTAF_013_panel_0"/>
    </polygon>
    <polygon points="756,89 755,99 754,100 651,153 648,153 634,149 521,113 518,109 516,106 513,100 510,91 509,87 508,81 508,70 509,63 510,58 512,52 514,47 519,38 522,35 524,34 527,33 532,32 542,31 577,30 605,30 660,31 665,32 668,33 670,34 754,83 755,85 756,89">
      <metadata confidence="0.0" id="LAMISSEB_ETPISTAF_013_panel_1"/>
    </polygon>
    <polygon points="789,253 512,319 508,319 300,305 235,295 235,114 236,34 238,33 303,22 327,20 357,20 392,22 488,33 750,138 753,141 754,143 789,252 789,253">
      <metadata confidence="0.0" id="LAMISSEB_ETPISTAF_013_panel_2"/>
    </polygon>
    <polygon points="214,287 213,296 51,311 47,311 40,309 4,296 4,161 5,47 6,33 39,17 135,13 175,13 202,23 214,34 214,287">
      <metadata confidence="0.0" id="LAMISSEB_ETPISTAF_013_panel_3"/>
    </polygon>
  </svg>
</svg>
