<?xml version="1.0" encoding="UTF-8" standalone="no"?>
<svg width="749" xmlns="http://www.w3.org/2000/svg" version="1.0" height="848">
  <title>CYB_PSYCOCHON_001</title>
  <svg contentScriptType="text/ecmascript" zoomAndPan="magnify" contentStyleType="text/css" class="Page" preserveAspectRatio="xMidYMid meet" version="1.0">
    <image xmlns:xlink="http://www.w3.org/1999/xlink" x="0" y="0" width="749" height="848" xlink:href="../Images/CYB_PSYCOCHON_001.jpg" xlink:type="simple" xlink:actuate="onLoad" preserveAspectRatio="xMidYMid meet" xlink:show="embed"/>
  </svg>
  <style type="text/css" xml:space="preserve">
        * { stroke-linejoin: round; }
        .Unclassified   { fill: orange; stroke: none;   opacity: 1.0; visibility: hidden; }
        .Noise          { fill: pink;   stroke: none;   opacity: 0.2; visibility: hidden; }
        .Panel          { fill: none;   stroke: red;    stroke-width:3; opacity: 0.5; visibility: visible; image-rendering: optimizeSpeed; }
        .Line           { fill: green;  stroke: none;   opacity: 0.5; visibility: visible; image-rendering: optimizeSpeed; }
        .TextArea       { fill: grey;   stroke: none;   opacity: 0.2; visibility: visible; image-rendering: optimizeSpeed; }
        .Balloon        { fill: cyan;   stroke: none;   opacity: 0.5; visibility: visible; image-rendering: optimizeSpeed; }
        .Letter         { fill: blue;   stroke: none;   opacity: 0.2; visibility: hidden; }
        .Object, .Character, .Face  { fill: yellow; stroke: none;   opacity: 0.5; visibility: visible; image-rendering: optimizeSpeed; }
        .Page           { fill: white;  stroke: none;    opacity: 0.5; visibility: visible; }
        .linkSBSC { fill: blue; stroke: none; opacity: 1.0; visibility: visible; }
        polygon:hover { opacity:1.0; stroke:red; }
</style>
  <svg xmlns="http://www.w3.org/2000/svg" contentScriptType="text/ecmascript" zoomAndPan="magnify" contentStyleType="text/css" class="Balloon" preserveAspectRatio="xMidYMid meet" version="1.0">
    <polygon points="657,679 656,680 655,680 654,680 653,680 652,680 651,680 650,680 649,681 648,681 647,681 646,681 645,682 644,682 643,683 642,683 641,683 641,684 641,685 641,686 641,687 640,688 640,689 640,690 640,691 640,692 640,693 640,694 640,695 639,696 639,697 639,698 639,699 639,700 638,701 638,702 638,703 637,704 636,705 635,706 634,706 633,707 632,708 631,709 630,709 629,709 628,709 627,710 626,710 625,710 624,711 625,711 626,712 625,713 624,713 623,713 623,714 623,715 624,716 624,717 624,718 624,719 624,720 625,721 625,722 625,723 625,724 625,725 625,726 624,727 624,728 624,729 623,730 622,731 622,732 622,733 623,734 623,735 624,736 624,737 625,738 626,739 627,740 628,741 629,741 630,742 631,743 632,743 633,743 634,744 635,744 636,745 637,745 638,745 639,746 640,746 641,746 642,747 643,747 644,747 645,747 646,747 647,747 648,748 649,748 650,748 651,748 652,748 653,748 654,748 655,748 656,748 657,748 658,748 659,748 660,748 661,748 662,748 663,747 664,747 665,747 666,747 667,747 668,746 669,746 670,746 670,745 671,744 672,744 673,744 674,745 675,744 676,744 677,743 678,743 679,742 679,741 679,740 679,739 679,738 680,737 681,736 682,735 683,736 684,735 684,734 685,733 685,732 684,731 683,730 683,729 683,728 682,727 682,726 683,725 683,724 684,723 685,723 684,723 683,722 683,721 684,720 685,719 685,718 685,717 685,716 684,715 683,714 682,714 681,713 680,712 679,711 678,710 677,709 676,708 675,707 675,706 675,705 675,704 674,703 674,702 674,701 674,700 674,699 674,698 674,697 674,696 675,695 675,694 675,693 674,692 674,691 673,690 673,689 672,688 672,687 673,686 674,685 674,684 675,683 676,683 677,682 678,681 679,680 680,679 679,679 678,679 677,680 676,680 675,681 674,682 673,683 672,684 671,684 670,683 669,682 668,682 667,681 666,681 665,680 664,680 663,680 662,680 661,680 660,680 659,679 658,679 657,679">
      <metadata tailDirection="" confidence="0.66" linkedToCharacter="" id="CYB_PSYCOCHON_001_balloon_0" tailTip=""></metadata>
    </polygon>
    <polygon points="590,580 589,581 588,581 587,581 586,581 585,581 584,581 583,581 582,581 581,581 580,581 579,582 578,582 577,582 576,582 575,582 574,582 573,582 572,583 571,583 570,583 569,583 568,584 567,584 566,584 565,585 564,585 563,585 562,586 561,586 560,587 559,587 558,587 557,588 556,588 555,589 554,589 553,590 552,591 551,591 550,592 549,593 548,593 547,594 546,595 545,596 544,597 543,598 542,599 542,600 541,601 540,602 540,603 539,604 539,605 538,606 538,607 538,608 538,609 537,610 537,611 537,612 537,613 537,614 537,615 537,616 538,617 538,618 538,619 538,620 539,621 539,622 540,623 540,624 541,625 542,626 542,627 543,628 544,629 545,630 546,631 547,632 548,633 549,634 550,634 551,635 552,636 553,636 554,637 555,637 556,638 557,638 558,639 559,639 560,640 561,640 562,640 563,641 564,641 565,642 566,642 567,642 568,642 569,643 570,643 571,643 572,644 573,644 574,644 575,644 576,644 577,645 578,645 579,645 580,645 581,645 582,645 583,646 583,647 584,648 584,649 584,650 584,651 585,652 585,653 586,654 586,655 587,656 588,657 589,658 589,659 590,660 591,661 592,661 591,660 590,659 589,658 588,657 588,656 587,655 587,654 587,653 586,652 586,651 586,650 585,649 585,648 585,647 586,646 587,646 588,646 589,646 590,646 591,646 592,646 593,646 594,645 595,645 596,645 597,645 598,645 599,645 600,645 601,645 602,645 603,645 604,644 605,644 606,644 607,644 608,644 609,643 610,643 611,643 612,642 613,642 614,642 615,642 616,641 617,641 618,640 619,640 620,640 621,639 622,639 623,638 624,638 625,637 626,637 627,636 628,636 629,635 630,634 631,634 632,633 633,632 634,631 635,630 636,629 637,628 638,627 638,626 639,625 640,624 640,623 641,622 641,621 642,620 642,619 642,618 642,617 642,616 643,615 643,614 643,613 643,612 643,611 642,610 642,609 642,608 642,607 641,606 641,605 640,604 640,603 640,602 639,601 638,600 638,599 637,598 636,597 635,596 634,595 633,594 632,593 631,593 630,592 629,591 628,591 627,590 626,590 625,589 624,589 623,588 622,587 621,587 620,587 619,586 618,586 617,585 616,585 615,585 614,584 613,584 612,584 611,584 610,583 609,583 608,583 607,582 606,582 605,582 604,582 603,582 602,582 601,582 600,581 599,581 598,581 597,581 596,581 595,581 594,581 593,581 592,581 591,581 590,580">
      <metadata tailDirection="" confidence="0.97" linkedToCharacter="" id="CYB_PSYCOCHON_001_balloon_1" tailTip=""></metadata>
    </polygon>
    <polygon points="655,406 654,407 653,407 652,407 651,407 650,407 649,407 648,407 647,408 646,408 645,408 644,409 643,409 642,409 641,410 640,410 640,411 640,412 640,413 640,414 640,415 640,416 640,417 640,418 640,419 640,420 639,421 640,422 640,423 640,424 639,425 639,426 638,427 637,428 637,429 636,430 635,431 634,432 633,433 632,434 631,434 630,435 629,436 628,436 627,436 626,436 625,437 624,437 623,438 624,439 623,440 622,441 622,442 623,443 623,444 623,445 623,446 624,447 624,448 624,449 624,450 624,451 624,452 624,453 623,454 623,455 623,456 622,457 621,458 621,459 621,460 622,461 622,462 623,463 623,464 624,465 625,466 626,467 627,468 628,468 629,469 630,470 631,470 632,471 633,471 634,472 635,472 636,472 637,473 638,473 639,473 640,474 641,474 642,474 643,474 644,474 645,475 646,475 647,475 648,475 649,475 650,475 651,475 652,475 653,475 654,475 655,475 656,475 657,475 658,475 659,475 660,475 661,474 662,474 663,474 664,474 665,474 666,474 667,473 668,473 669,473 670,472 671,471 672,471 673,471 674,471 675,471 676,470 677,469 678,469 679,468 679,467 679,466 680,465 681,464 682,464 682,463 683,462 683,461 682,460 682,459 683,458 683,457 683,456 682,456 681,455 681,454 681,453 682,452 682,451 683,450 684,450 683,450 682,449 682,448 683,447 684,447 684,446 684,445 684,444 684,443 683,442 682,441 681,441 680,440 679,439 678,438 677,437 676,436 675,435 674,434 674,433 674,432 674,431 674,430 673,429 673,428 673,427 673,426 673,425 674,424 674,423 674,422 674,421 674,420 673,419 672,418 672,417 672,416 671,415 671,414 672,413 672,412 673,411 674,410 675,410 676,409 677,408 678,407 679,406 678,406 677,406 676,406 675,407 674,408 673,409 672,410 671,411 670,411 669,410 668,409 667,409 666,408 665,408 664,407 663,407 662,407 661,407 660,407 659,406 658,406 657,406 656,406 655,406">
      <metadata tailDirection="" confidence="0.78" linkedToCharacter="" id="CYB_PSYCOCHON_001_balloon_2" tailTip=""></metadata>
    </polygon>
    <polygon points="461,289 460,290 459,290 458,290 457,290 456,290 455,290 454,290 453,290 452,290 451,290 450,290 449,290 448,290 447,291 446,291 445,291 444,291 443,291 442,292 441,292 440,292 439,292 438,292 437,293 436,293 435,293 434,293 433,294 432,294 431,294 430,295 429,295 428,295 427,296 426,296 425,296 424,297 423,297 422,298 421,298 420,298 419,299 418,299 417,300 416,300 415,301 414,301 413,302 412,302 411,303 410,304 409,304 408,305 407,305 406,306 405,307 404,308 403,308 402,309 401,310 400,311 399,312 398,313 397,313 396,314 395,315 395,316 394,317 393,318 392,319 391,320 391,321 390,322 389,323 389,324 388,325 388,326 387,327 387,328 386,329 386,330 385,331 385,332 385,333 384,334 384,335 384,336 384,337 383,338 383,339 383,340 383,341 382,342 382,343 382,344 382,345 382,346 382,347 382,348 382,349 382,350 382,351 383,352 383,353 383,354 383,355 383,356 384,357 384,358 384,359 385,360 385,361 385,362 386,363 386,364 387,365 387,366 388,367 388,368 389,369 389,370 390,371 391,372 391,373 392,374 393,375 394,376 395,377 395,378 396,379 397,380 398,381 399,382 400,382 401,383 402,384 403,385 404,386 405,386 406,387 407,388 408,388 409,389 410,390 411,390 412,391 413,391 414,392 415,392 416,393 417,393 418,394 419,394 420,395 421,395 422,396 423,396 424,396 425,397 426,397 427,398 428,398 429,398 430,399 431,399 432,399 433,399 434,400 435,400 436,400 437,401 438,401 439,401 440,401 441,401 442,402 443,402 444,402 445,402 446,402 447,403 448,403 449,403 450,403 451,403 452,404 452,405 452,406 452,407 453,408 453,409 453,410 453,411 453,412 454,413 454,414 455,415 455,416 456,417 456,418 457,419 458,420 459,421 458,420 457,419 457,418 457,417 456,416 456,415 456,414 456,413 455,412 455,411 455,410 455,409 455,408 455,407 455,406 455,405 456,404 457,404 458,404 459,404 460,404 461,404 462,404 463,404 464,404 465,404 466,404 467,404 468,404 469,404 470,404 471,404 472,404 473,403 474,403 475,403 476,403 477,403 478,403 479,403 480,402 481,402 482,402 483,402 484,402 485,402 486,401 487,401 488,401 489,401 490,401 491,400 492,400 493,400 494,399 495,399 496,399 497,399 498,398 499,398 500,397 501,397 502,397 503,396 504,396 505,395 506,395 507,395 508,394 509,394 510,393 511,393 512,392 513,392 514,391 515,391 516,390 517,389 518,389 519,388 520,387 521,387 522,386 523,385 524,385 525,384 526,383 527,382 528,381 529,380 530,379 531,378 532,377 533,376 534,375 535,374 535,373 536,372 537,371 537,370 538,369 538,368 539,367 540,366 540,365 540,364 541,363 541,362 542,361 542,360 542,359 543,358 543,357 543,356 544,355 544,354 544,353 544,352 544,351 544,350 544,349 544,348 545,347 545,346 544,345 544,344 544,343 544,342 544,341 544,340 544,339 544,338 543,337 543,336 543,335 542,334 542,333 542,332 541,331 541,330 540,329 540,328 540,327 539,326 538,325 538,324 537,323 537,322 536,321 535,320 534,319 534,318 533,317 532,316 531,315 530,314 529,313 528,312 527,311 526,310 525,309 524,309 523,308 522,307 521,306 520,306 519,305 518,304 517,304 516,303 515,303 514,302 513,301 512,301 511,301 510,300 509,299 508,299 507,299 506,298 505,298 504,297 503,297 502,296 501,296 500,296 499,295 498,295 497,295 496,294 495,294 494,294 493,294 492,293 491,293 490,293 489,292 488,292 487,292 486,292 485,292 484,291 483,291 482,291 481,291 480,291 479,290 478,290 477,290 476,290 475,290 474,290 473,290 472,290 471,290 470,290 469,290 468,290 467,290 466,289 465,289 464,289 463,289 462,289 461,289">
      <metadata tailDirection="" confidence="0.96" linkedToCharacter="" id="CYB_PSYCOCHON_001_balloon_3" tailTip=""></metadata>
    </polygon>
    <polygon points="678,133 677,134 676,134 675,135 674,136 673,137 672,138 671,138 670,138 669,137 668,136 667,136 666,135 665,135 664,134 663,134 662,134 661,134 660,134 659,134 658,134 657,134 656,134 655,134 654,134 653,134 652,134 651,134 650,134 649,135 648,135 647,135 646,135 645,136 644,136 643,136 642,137 641,137 640,137 639,136 639,135 638,134 638,135 639,136 640,137 640,138 641,139 641,140 641,141 641,142 641,143 641,144 641,145 641,146 641,147 640,148 639,149 640,148 641,149 641,150 640,151 640,152 640,153 639,154 638,155 638,156 637,157 636,158 635,159 634,160 633,161 632,161 631,162 630,163 629,163 628,164 627,163 626,164 625,165 624,165 623,166 623,167 623,168 623,169 623,170 624,171 624,172 624,173 624,174 624,175 624,176 624,177 625,178 625,179 624,180 624,181 624,182 623,183 623,184 622,185 622,186 622,187 622,188 623,189 623,190 624,191 624,192 625,193 626,194 627,194 628,195 629,196 630,197 631,197 632,197 633,198 634,198 635,199 636,199 637,199 638,200 639,200 640,200 641,201 642,201 643,201 644,201 645,201 646,202 647,202 648,202 649,202 650,202 651,202 652,202 653,202 654,202 655,202 656,202 657,202 658,202 659,202 660,202 661,202 662,202 663,202 664,202 665,201 666,201 667,201 668,200 669,200 670,200 671,199 672,199 673,198 674,199 675,199 676,198 677,197 678,196 679,196 680,195 680,194 680,193 680,192 681,191 682,191 683,190 683,189 683,188 683,187 683,186 684,185 684,184 683,184 682,183 682,182 682,181 682,180 683,179 684,178 685,178 684,177 683,176 684,175 684,174 684,173 684,172 685,171 685,170 684,169 683,169 682,168 681,167 680,167 679,166 678,165 677,164 676,163 675,162 675,161 674,160 674,159 674,158 674,157 674,156 674,155 674,154 674,153 674,152 674,151 674,150 674,149 675,148 675,147 674,146 673,145 672,144 672,143 672,142 672,141 673,140 673,139 674,138 675,137 676,137 677,136 678,135 679,134 680,134 679,133 678,133">
      <metadata tailDirection="" confidence="0.77" linkedToCharacter="" id="CYB_PSYCOCHON_001_balloon_4" tailTip=""></metadata>
    </polygon>
    <polygon points="452,34 451,35 450,35 449,35 448,35 447,36 446,36 445,36 444,36 443,36 442,37 441,37 440,37 439,37 438,38 437,38 436,38 435,39 434,39 433,39 432,40 431,40 430,41 429,41 428,42 427,42 426,42 425,43 424,44 423,44 422,45 421,45 420,46 419,47 418,47 417,48 416,49 415,49 414,50 413,51 412,52 411,53 410,54 409,55 408,56 407,57 407,58 406,59 405,60 405,61 404,62 403,63 403,64 402,65 402,66 401,67 401,68 401,69 400,70 400,71 400,72 400,73 399,74 399,75 399,76 399,77 399,78 399,79 399,80 399,81 399,82 399,83 399,84 399,85 400,86 400,87 400,88 400,89 401,90 401,91 401,92 402,93 402,94 403,95 403,96 404,97 404,98 405,99 406,100 406,101 407,102 408,103 409,104 410,105 411,106 412,107 413,108 414,109 415,110 416,111 417,111 418,112 419,113 420,113 421,114 422,115 423,115 424,116 425,116 426,117 427,117 428,118 429,118 430,119 431,119 432,120 433,120 434,120 435,121 436,121 437,121 438,122 439,122 440,122 441,122 442,123 443,123 444,123 445,124 446,124 447,124 448,124 449,124 450,124 451,125 452,125 453,125 454,125 455,126 456,127 456,128 456,129 456,130 456,131 456,132 457,133 457,134 457,135 458,136 459,137 459,138 460,139 461,140 460,139 459,138 459,137 459,136 458,135 458,134 458,133 458,132 458,131 458,130 458,129 458,128 458,127 458,126 459,125 460,126 461,126 462,126 463,126 464,126 465,126 466,126 467,126 468,126 469,126 470,125 471,125 472,125 473,125 474,125 475,125 476,125 477,125 478,124 479,124 480,124 481,124 482,124 483,124 484,123 485,123 486,123 487,123 488,122 489,122 490,122 491,121 492,121 493,121 494,120 495,120 496,120 497,119 498,119 499,118 500,118 501,118 502,117 503,117 504,116 505,115 506,115 507,114 508,114 509,113 510,112 511,112 512,111 513,110 514,109 515,109 516,108 517,107 518,106 519,105 520,104 521,103 521,102 522,101 523,100 523,99 524,98 525,97 525,96 526,95 526,94 527,93 527,92 527,91 528,90 528,89 528,88 529,87 529,86 529,85 529,84 529,83 529,82 529,81 530,80 530,79 529,78 529,77 529,76 529,75 529,74 529,73 529,72 528,71 528,70 528,69 527,68 527,67 527,66 526,65 525,64 525,63 525,62 524,61 523,60 523,59 522,58 521,57 520,56 520,55 519,54 518,53 517,52 516,51 515,51 514,50 513,49 512,48 511,48 510,47 509,46 508,46 507,45 506,44 505,44 504,43 503,43 502,42 501,42 500,41 499,41 498,40 497,40 496,40 495,39 494,39 493,38 492,38 491,38 490,38 489,37 488,37 487,37 486,36 485,36 484,36 483,36 482,36 481,35 480,35 479,35 478,35 477,35 476,34 475,34 474,34 473,34 472,34 471,34 470,34 469,34 468,34 467,34 466,34 465,34 464,34 463,34 462,34 461,34 460,34 459,34 458,34 457,34 456,34 455,34 454,34 453,34 452,34">
      <metadata tailDirection="" confidence="0.92" linkedToCharacter="" id="CYB_PSYCOCHON_001_balloon_5" tailTip=""></metadata>
    </polygon>
  </svg>
</svg>
