<?xml version="1.0" encoding="UTF-8" standalone="no"?>
<svg width="1280" xmlns="http://www.w3.org/2000/svg" version="1.0" height="1798">
  <title>CYB_MOUETTEMAN_004</title>
  <svg contentScriptType="text/ecmascript" zoomAndPan="magnify" contentStyleType="text/css" class="Page" preserveAspectRatio="xMidYMid meet" version="1.0">
    <image xmlns:xlink="http://www.w3.org/1999/xlink" x="0" y="0" width="1280" height="1798" xlink:href="../Images/CYB_MOUETTEMAN_004.jpg" xlink:type="simple" xlink:actuate="onLoad" preserveAspectRatio="xMidYMid meet" xlink:show="embed"/>
  </svg>
  <style type="text/css" xml:space="preserve">
        * { stroke-linejoin: round; }
        .Unclassified   { fill: orange; stroke: none;   opacity: 1.0; visibility: hidden; }
        .Noise          { fill: pink;   stroke: none;   opacity: 0.2; visibility: hidden; }
        .Panel          { fill: none;   stroke: red;    stroke-width:3; opacity: 0.5; visibility: visible; image-rendering: optimizeSpeed; }
        .Line           { fill: green;  stroke: none;   opacity: 0.5; visibility: visible; image-rendering: optimizeSpeed; }
        .TextArea       { fill: grey;   stroke: none;   opacity: 0.2; visibility: visible; image-rendering: optimizeSpeed; }
        .Balloon        { fill: cyan;   stroke: none;   opacity: 0.5; visibility: visible; image-rendering: optimizeSpeed; }
        .Letter         { fill: blue;   stroke: none;   opacity: 0.2; visibility: hidden; }
        .Object, .Character, .Face  { fill: yellow; stroke: none;   opacity: 0.5; visibility: visible; image-rendering: optimizeSpeed; }
        .Page           { fill: white;  stroke: none;    opacity: 0.5; visibility: visible; }
        .linkSBSC { fill: blue; stroke: none; opacity: 1.0; visibility: visible; }
        polygon:hover { opacity:1.0; stroke:red; }
</style>
  <svg xmlns="http://www.w3.org/2000/svg" contentScriptType="text/ecmascript" zoomAndPan="magnify" contentStyleType="text/css" class="Balloon" preserveAspectRatio="xMidYMid meet" version="1.0">
    <polygon points="660,1592 659,1593 658,1593 657,1594 656,1594 655,1595 654,1596 653,1596 652,1597 651,1598 650,1599 649,1600 648,1601 647,1601 646,1601 645,1601 644,1601 643,1601 642,1602 641,1602 640,1602 639,1602 638,1602 637,1601 636,1602 635,1602 634,1602 633,1602 632,1602 631,1602 630,1602 629,1602 628,1602 627,1602 626,1602 625,1602 624,1603 623,1603 622,1603 621,1603 620,1603 619,1603 618,1603 617,1603 616,1604 615,1604 614,1604 613,1604 612,1604 611,1605 610,1605 609,1606 608,1606 607,1606 606,1606 605,1606 604,1607 603,1607 602,1607 601,1608 600,1609 599,1609 598,1610 597,1611 596,1612 595,1613 594,1614 594,1615 593,1616 593,1617 593,1618 593,1619 593,1620 593,1621 594,1622 593,1623 594,1624 594,1625 594,1626 594,1627 594,1628 594,1629 595,1629 596,1630 597,1631 598,1632 599,1633 600,1633 601,1634 602,1634 603,1634 604,1635 605,1635 606,1635 607,1636 608,1637 609,1637 610,1637 611,1637 612,1638 613,1638 614,1638 615,1639 616,1639 617,1639 618,1639 619,1639 620,1639 621,1639 622,1640 623,1640 624,1640 625,1641 626,1641 627,1641 628,1641 629,1641 630,1641 631,1642 632,1642 633,1642 634,1642 635,1642 636,1642 637,1642 638,1642 638,1641 638,1640 639,1639 640,1638 641,1639 642,1640 641,1641 641,1642 641,1643 642,1644 642,1645 642,1646 642,1647 642,1648 642,1649 642,1650 642,1651 642,1652 642,1653 643,1654 642,1655 643,1655 644,1655 645,1655 646,1655 647,1655 648,1655 649,1655 650,1654 651,1654 652,1654 653,1653 654,1653 655,1653 655,1652 655,1651 655,1650 656,1649 656,1648 656,1647 656,1646 656,1645 656,1644 656,1643 655,1642 656,1641 657,1640 658,1641 659,1642 659,1643 660,1644 661,1644 662,1644 663,1644 664,1644 665,1644 666,1644 667,1643 668,1643 669,1643 670,1643 671,1643 672,1643 673,1643 674,1643 675,1643 676,1643 677,1642 678,1642 679,1642 680,1642 681,1642 682,1642 683,1641 684,1641 685,1641 686,1641 687,1640 688,1640 689,1640 690,1639 691,1639 692,1638 693,1637 694,1636 695,1635 696,1635 697,1635 698,1635 699,1635 700,1635 701,1634 702,1634 703,1633 704,1633 705,1632 706,1632 707,1631 708,1630 709,1629 710,1628 711,1627 712,1626 712,1625 713,1624 714,1623 714,1622 715,1621 715,1620 716,1619 716,1618 716,1617 716,1616 715,1615 714,1614 713,1613 712,1613 711,1612 710,1612 709,1611 708,1611 707,1611 706,1610 705,1610 704,1609 703,1609 702,1609 701,1608 700,1608 699,1608 698,1608 697,1607 696,1607 695,1607 694,1607 693,1606 692,1606 691,1606 690,1605 689,1605 688,1605 687,1604 686,1604 685,1603 684,1603 683,1603 682,1603 681,1603 680,1603 679,1603 678,1602 677,1602 676,1602 675,1602 674,1602 673,1601 672,1600 671,1599 670,1598 669,1597 668,1596 667,1595 666,1594 665,1594 664,1593 663,1592 662,1592 661,1592 660,1592">
      <metadata tailDirection="" confidence="0.97" linkedToCharacter="" id="CYB_MOUETTEMAN_004_balloon_0" tailTip=""></metadata>
    </polygon>
    <polygon points="735,1379 734,1380 733,1380 732,1380 731,1380 730,1380 729,1380 728,1380 727,1380 726,1380 725,1380 724,1380 723,1380 722,1380 721,1380 720,1380 719,1380 718,1380 717,1380 716,1380 715,1380 714,1380 713,1380 712,1380 711,1380 710,1380 709,1380 708,1380 707,1380 706,1380 705,1380 704,1380 703,1380 702,1380 701,1380 700,1380 699,1380 698,1380 697,1380 696,1380 695,1380 694,1380 693,1381 692,1382 691,1383 690,1383 689,1384 688,1385 687,1386 686,1387 685,1388 684,1389 683,1390 682,1391 681,1392 680,1393 679,1394 679,1395 678,1396 677,1397 676,1398 675,1399 675,1400 674,1401 673,1402 673,1403 672,1404 672,1405 671,1406 670,1407 670,1408 669,1409 669,1410 669,1411 668,1412 668,1413 668,1414 667,1415 667,1416 667,1417 666,1418 666,1419 666,1420 666,1421 665,1422 665,1423 665,1424 665,1425 665,1426 665,1427 665,1428 664,1429 664,1430 665,1431 665,1432 665,1433 665,1434 665,1435 665,1436 665,1437 665,1438 666,1439 666,1440 666,1441 667,1442 667,1443 667,1444 668,1445 668,1446 668,1447 669,1448 669,1449 669,1450 670,1451 670,1452 671,1453 672,1454 672,1455 673,1456 673,1457 674,1458 675,1459 675,1460 676,1461 677,1462 678,1463 678,1464 679,1465 680,1466 681,1467 682,1468 683,1468 684,1468 685,1469 686,1469 687,1470 688,1471 689,1471 690,1472 691,1472 692,1473 693,1474 694,1474 695,1475 695,1476 696,1477 696,1478 696,1479 697,1480 697,1481 698,1482 699,1482 700,1483 701,1484 702,1485 703,1485 704,1486 705,1487 706,1487 707,1488 708,1488 709,1489 710,1489 711,1490 712,1491 713,1491 714,1492 715,1492 716,1493 717,1493 718,1494 719,1494 720,1495 721,1495 722,1496 723,1496 724,1497 725,1497 726,1497 727,1498 728,1498 729,1499 730,1499 731,1500 732,1500 733,1500 734,1501 735,1501 736,1502 737,1502 738,1502 739,1503 740,1503 741,1503 742,1504 743,1504 744,1504 745,1505 746,1505 747,1506 748,1506 749,1506 750,1507 751,1507 752,1507 753,1507 754,1508 755,1508 756,1508 757,1508 758,1509 759,1509 760,1509 761,1510 762,1510 763,1510 764,1510 765,1511 766,1511 767,1511 768,1512 769,1512 770,1512 771,1512 772,1512 773,1513 774,1513 775,1513 776,1513 777,1513 778,1514 779,1514 780,1514 781,1514 782,1514 783,1515 784,1515 785,1515 786,1515 787,1515 788,1516 789,1516 790,1516 791,1516 792,1516 793,1517 794,1517 795,1517 796,1517 797,1517 798,1517 799,1517 800,1518 801,1518 802,1518 803,1518 804,1518 805,1518 806,1518 807,1518 808,1518 809,1518 810,1519 811,1519 812,1519 813,1519 814,1519 815,1519 816,1519 817,1519 818,1519 819,1519 820,1519 821,1520 822,1520 823,1520 824,1520 825,1520 826,1520 827,1520 828,1520 829,1520 829,1519 830,1518 831,1517 832,1516 833,1516 834,1515 835,1514 836,1514 837,1514 838,1514 839,1513 840,1513 841,1513 842,1513 843,1514 844,1515 845,1516 846,1517 847,1517 848,1517 849,1516 850,1516 851,1515 852,1515 853,1515 854,1514 855,1514 856,1513 857,1513 858,1513 859,1513 860,1512 861,1512 862,1512 863,1512 864,1512 865,1512 866,1512 867,1512 868,1512 869,1513 870,1514 871,1515 870,1516 870,1517 870,1518 871,1517 872,1517 873,1517 874,1517 875,1517 876,1517 877,1517 878,1516 879,1516 880,1516 881,1516 882,1516 883,1516 884,1516 885,1516 886,1516 887,1516 888,1517 889,1516 890,1516 891,1516 892,1516 893,1516 894,1516 895,1515 896,1515 897,1515 898,1515 899,1515 900,1514 901,1514 902,1514 903,1514 904,1514 905,1513 906,1513 907,1513 908,1513 909,1513 910,1513 911,1512 912,1512 913,1512 914,1512 915,1512 916,1511 917,1511 918,1511 919,1511 920,1510 921,1510 922,1510 923,1510 924,1509 925,1509 926,1509 927,1508 928,1508 929,1508 930,1508 931,1507 932,1507 933,1507 934,1507 935,1506 936,1506 937,1506 938,1505 939,1505 940,1505 941,1504 942,1504 943,1504 944,1504 945,1505 946,1506 947,1507 948,1508 949,1509 950,1510 951,1511 951,1512 952,1513 953,1514 954,1515 954,1516 954,1517 955,1518 955,1519 955,1520 954,1521 953,1521 952,1522 951,1522 950,1523 949,1523 948,1523 947,1524 946,1524 945,1525 944,1525 943,1526 942,1526 941,1527 940,1527 939,1528 938,1529 938,1530 939,1531 940,1531 941,1532 942,1532 943,1533 944,1533 945,1534 946,1534 947,1535 948,1536 949,1537 950,1537 951,1538 952,1539 953,1540 953,1541 954,1542 953,1543 953,1544 953,1545 952,1546 951,1547 951,1548 950,1549 949,1550 948,1551 948,1552 947,1553 946,1554 947,1554 948,1553 949,1553 950,1552 951,1552 952,1551 953,1550 954,1549 955,1548 956,1548 957,1547 958,1547 959,1546 960,1545 960,1544 960,1543 960,1542 959,1541 958,1540 957,1539 957,1538 956,1537 955,1536 954,1536 953,1535 952,1534 951,1533 950,1532 949,1532 948,1531 947,1530 947,1529 948,1528 949,1527 950,1526 951,1526 952,1525 953,1525 954,1524 955,1524 956,1523 957,1523 958,1523 959,1522 959,1521 958,1520 958,1519 958,1518 957,1517 957,1516 957,1515 956,1514 955,1513 955,1512 954,1511 953,1510 953,1509 952,1508 952,1507 951,1506 950,1505 949,1504 949,1503 949,1502 950,1501 951,1501 952,1501 953,1500 954,1500 955,1499 956,1499 957,1498 958,1498 959,1497 960,1497 961,1497 962,1496 963,1496 964,1495 965,1495 966,1494 967,1494 968,1493 969,1493 970,1492 971,1492 972,1491 973,1491 974,1490 975,1490 976,1489 977,1489 978,1488 979,1487 980,1487 981,1486 982,1486 983,1485 984,1484 984,1483 984,1482 984,1481 984,1480 984,1479 984,1478 984,1477 984,1476 984,1475 984,1474 984,1473 984,1472 984,1471 984,1470 984,1469 984,1468 984,1467 984,1466 984,1465 984,1464 984,1463 984,1462 984,1461 984,1460 984,1459 984,1458 984,1457 984,1456 984,1455 984,1454 984,1453 984,1452 984,1451 984,1450 984,1449 984,1448 984,1447 984,1446 984,1445 984,1444 984,1443 984,1442 984,1441 984,1440 984,1439 984,1438 984,1437 984,1436 984,1435 984,1434 984,1433 984,1432 984,1431 984,1430 984,1429 984,1428 984,1427 984,1426 984,1425 984,1424 984,1423 984,1422 984,1421 984,1420 984,1419 984,1418 984,1417 984,1416 984,1415 984,1414 984,1413 984,1412 984,1411 984,1410 984,1409 984,1408 984,1407 984,1406 984,1405 984,1404 984,1403 984,1402 984,1401 984,1400 984,1399 984,1398 984,1397 984,1396 984,1395 984,1394 984,1393 984,1392 984,1391 984,1390 984,1389 984,1388 984,1387 984,1386 984,1385 984,1384 984,1383 984,1382 984,1381 984,1380 984,1379 983,1379 982,1379 981,1379 980,1379 979,1379 978,1379 977,1379 976,1379 975,1379 974,1379 973,1379 972,1379 971,1379 970,1379 969,1379 968,1379 967,1379 966,1379 965,1379 964,1379 963,1379 962,1379 961,1379 960,1379 959,1379 958,1379 957,1379 956,1379 955,1379 954,1379 953,1379 952,1379 951,1379 950,1379 949,1379 948,1379 947,1379 946,1379 945,1379 944,1379 943,1379 942,1379 941,1379 940,1379 939,1379 938,1379 937,1379 936,1379 935,1379 934,1379 933,1379 932,1379 931,1379 930,1379 929,1379 928,1379 927,1379 926,1379 925,1379 924,1379 923,1379 922,1379 921,1379 920,1379 919,1379 918,1379 917,1379 916,1379 915,1379 914,1379 913,1379 912,1379 911,1379 910,1379 909,1379 908,1379 907,1379 906,1379 905,1379 904,1379 903,1379 902,1379 901,1379 900,1379 899,1379 898,1379 897,1379 896,1379 895,1379 894,1379 893,1379 892,1379 891,1379 890,1379 889,1379 888,1379 887,1379 886,1379 885,1379 884,1379 883,1379 882,1379 881,1379 880,1379 879,1379 878,1379 877,1379 876,1379 875,1379 874,1379 873,1379 872,1379 871,1379 870,1379 869,1379 868,1379 867,1379 866,1379 865,1379 864,1379 863,1379 862,1379 861,1379 860,1379 859,1379 858,1379 857,1379 856,1379 855,1379 854,1379 853,1379 852,1379 851,1379 850,1379 849,1379 848,1379 847,1379 846,1379 845,1379 844,1379 843,1379 842,1379 841,1379 840,1379 839,1379 838,1379 837,1379 836,1379 835,1379 834,1379 833,1379 832,1379 831,1379 830,1379 829,1379 828,1379 827,1379 826,1379 825,1379 824,1379 823,1379 822,1379 821,1379 820,1379 819,1379 818,1379 817,1379 816,1379 815,1379 814,1379 813,1379 812,1379 811,1379 810,1379 809,1379 808,1379 807,1379 806,1379 805,1379 804,1379 803,1379 802,1379 801,1379 800,1379 799,1379 798,1379 797,1379 796,1379 795,1379 794,1379 793,1379 792,1379 791,1379 790,1379 789,1379 788,1379 787,1379 786,1379 785,1379 784,1379 783,1379 782,1379 781,1379 780,1379 779,1379 778,1380 777,1379 776,1379 775,1379 774,1379 773,1379 772,1379 771,1379 770,1379 769,1379 768,1379 767,1379 766,1379 765,1379 764,1379 763,1379 762,1379 761,1379 760,1379 759,1379 758,1379 757,1379 756,1379 755,1379 754,1379 753,1379 752,1379 751,1380 750,1379 749,1379 748,1380 747,1379 746,1379 745,1380 744,1379 743,1379 742,1380 741,1379 740,1380 739,1380 738,1380 737,1380 736,1380 735,1379">
      <metadata tailDirection="" confidence="0.96" linkedToCharacter="" id="CYB_MOUETTEMAN_004_balloon_1" tailTip=""></metadata>
    </polygon>
    <polygon points="845,1206 844,1207 843,1207 842,1207 841,1207 840,1207 839,1208 838,1208 837,1208 836,1208 835,1209 834,1209 833,1209 832,1209 831,1210 830,1210 829,1211 828,1211 827,1210 826,1210 825,1210 824,1210 823,1210 822,1211 821,1211 820,1211 819,1212 818,1212 817,1212 816,1213 816,1214 816,1215 815,1216 814,1216 813,1217 813,1218 812,1219 812,1220 812,1221 812,1222 812,1223 812,1224 812,1225 812,1226 812,1227 812,1228 812,1229 812,1230 813,1231 814,1231 815,1231 816,1232 817,1233 818,1233 819,1233 820,1234 821,1234 822,1234 823,1235 824,1235 825,1235 826,1235 827,1236 828,1236 829,1236 830,1236 831,1236 832,1236 833,1237 834,1237 835,1237 836,1237 837,1236 838,1236 839,1236 840,1235 841,1235 842,1236 843,1237 843,1238 843,1239 844,1239 845,1239 846,1239 847,1239 848,1239 849,1239 850,1239 851,1239 852,1239 853,1239 854,1240 855,1240 856,1240 857,1241 858,1240 858,1239 859,1238 860,1237 861,1236 862,1236 863,1235 864,1236 865,1236 866,1237 865,1238 864,1238 863,1238 864,1238 865,1238 866,1239 867,1239 868,1239 869,1239 870,1239 871,1239 872,1239 873,1239 874,1239 875,1239 876,1239 877,1238 878,1238 879,1238 880,1238 881,1238 882,1237 883,1237 884,1237 885,1236 885,1235 886,1234 887,1233 888,1232 888,1231 888,1230 889,1229 889,1228 889,1227 890,1226 890,1225 890,1224 890,1223 890,1222 890,1221 890,1220 889,1219 889,1218 888,1218 887,1217 886,1217 885,1216 884,1215 883,1215 882,1214 881,1213 880,1213 879,1213 878,1212 877,1212 876,1212 875,1211 874,1211 873,1210 872,1210 871,1209 870,1208 869,1208 868,1208 867,1208 866,1208 865,1207 864,1207 863,1207 862,1207 861,1206 860,1206 859,1207 858,1207 857,1207 856,1208 855,1208 854,1208 853,1208 852,1208 851,1207 850,1207 849,1206 848,1206 847,1206 846,1206 845,1206">
      <metadata tailDirection="" confidence="0.97" linkedToCharacter="" id="CYB_MOUETTEMAN_004_balloon_2" tailTip=""></metadata>
    </polygon>
    <polygon points="632,1061 632,1062 632,1063 632,1064 632,1065 631,1066 630,1067 630,1068 629,1069 629,1070 628,1071 627,1072 626,1073 625,1074 624,1075 623,1076 622,1076 621,1077 620,1078 619,1079 618,1079 617,1079 616,1080 615,1080 614,1081 613,1081 612,1082 611,1082 610,1082 609,1083 608,1083 607,1083 606,1083 605,1083 604,1083 603,1083 602,1083 601,1084 600,1084 599,1084 598,1084 597,1084 596,1084 595,1084 594,1084 593,1084 592,1084 591,1084 590,1083 589,1083 588,1083 587,1082 586,1081 585,1081 585,1082 584,1083 584,1084 583,1085 583,1086 583,1087 582,1088 582,1089 582,1090 581,1091 581,1092 581,1093 581,1094 580,1095 580,1096 581,1097 582,1098 583,1099 584,1100 585,1101 585,1102 586,1103 587,1104 587,1105 588,1106 588,1107 589,1108 589,1109 589,1110 589,1111 589,1112 590,1113 590,1114 590,1115 590,1114 591,1113 592,1112 593,1111 594,1110 595,1109 596,1109 597,1108 598,1107 599,1106 600,1105 601,1104 602,1104 603,1103 604,1103 605,1102 606,1102 607,1102 608,1101 609,1101 610,1101 611,1100 612,1100 613,1100 614,1099 615,1099 616,1099 617,1099 618,1099 619,1099 620,1099 621,1099 622,1099 623,1099 624,1099 625,1099 626,1099 627,1099 628,1100 629,1100 630,1100 631,1100 632,1101 633,1101 634,1101 635,1102 636,1102 637,1103 638,1103 639,1104 640,1105 641,1105 642,1106 643,1107 644,1108 645,1109 646,1110 647,1111 648,1112 649,1113 650,1114 651,1115 652,1116 653,1117 654,1118 655,1119 655,1118 655,1117 655,1116 655,1115 655,1114 654,1113 654,1112 654,1111 653,1110 653,1109 653,1108 653,1107 652,1106 652,1105 651,1104 651,1103 651,1102 650,1101 650,1100 650,1099 650,1098 649,1097 649,1096 648,1095 648,1094 648,1093 647,1092 648,1091 649,1091 650,1092 650,1093 651,1094 651,1095 652,1096 652,1097 653,1098 653,1099 653,1100 653,1101 654,1102 654,1103 655,1104 655,1105 656,1106 656,1107 656,1108 657,1109 657,1110 657,1111 657,1112 658,1113 658,1114 659,1115 659,1116 659,1117 659,1118 659,1119 659,1120 659,1121 659,1122 660,1123 660,1124 660,1125 660,1126 660,1127 660,1128 660,1129 660,1130 659,1131 658,1132 657,1133 656,1134 656,1135 655,1136 655,1137 655,1138 655,1139 655,1140 655,1141 654,1142 654,1143 654,1144 654,1145 653,1146 653,1147 653,1148 653,1149 652,1150 652,1151 652,1152 651,1153 651,1154 650,1155 649,1156 648,1157 647,1158 646,1159 645,1159 644,1160 643,1160 642,1161 641,1161 640,1161 639,1161 638,1161 637,1160 636,1160 635,1159 634,1159 633,1158 632,1158 631,1157 630,1156 629,1155 628,1154 627,1153 626,1152 626,1151 625,1150 624,1149 624,1148 624,1147 624,1146 623,1145 623,1144 623,1143 623,1142 622,1141 622,1140 622,1139 622,1138 622,1137 622,1136 622,1135 622,1134 622,1133 623,1132 623,1131 623,1130 623,1129 623,1128 623,1127 623,1126 624,1125 624,1124 624,1123 625,1122 625,1121 625,1120 626,1119 627,1118 628,1117 629,1116 630,1115 631,1114 632,1113 633,1112 634,1112 635,1112 636,1111 637,1111 638,1111 639,1111 640,1112 641,1112 640,1111 639,1111 638,1111 637,1111 636,1111 635,1111 634,1110 633,1110 632,1109 631,1109 630,1109 629,1108 628,1108 627,1108 626,1108 625,1108 624,1108 623,1108 622,1108 621,1108 620,1109 619,1109 618,1109 617,1109 616,1110 615,1110 614,1111 613,1111 612,1112 611,1113 610,1114 609,1115 608,1115 608,1116 607,1117 606,1117 606,1118 605,1119 604,1119 603,1120 602,1121 601,1122 601,1123 600,1124 600,1125 599,1126 599,1127 598,1128 598,1129 598,1130 597,1131 597,1132 597,1133 597,1134 597,1135 596,1136 597,1137 597,1138 597,1139 597,1140 597,1141 597,1142 597,1143 597,1144 597,1145 597,1146 597,1147 597,1148 597,1149 597,1150 597,1151 598,1152 598,1153 598,1154 598,1155 598,1156 598,1157 598,1158 599,1159 599,1160 600,1161 601,1162 602,1163 602,1164 602,1165 603,1165 604,1165 605,1165 606,1166 605,1167 604,1168 603,1168 602,1169 601,1170 600,1171 599,1172 598,1172 598,1173 599,1173 599,1172 600,1171 601,1171 602,1170 603,1169 604,1169 605,1168 606,1167 607,1166 608,1166 609,1165 610,1164 611,1164 612,1164 613,1165 612,1166 611,1167 610,1168 609,1168 608,1169 607,1169 606,1170 605,1171 606,1170 607,1170 608,1169 609,1169 610,1169 611,1168 612,1168 613,1168 614,1168 615,1167 616,1167 617,1166 618,1166 619,1165 620,1165 621,1164 622,1164 623,1164 624,1165 623,1166 622,1167 621,1167 622,1167 623,1167 624,1166 625,1166 626,1166 627,1166 628,1166 629,1165 630,1165 631,1164 632,1164 633,1164 634,1163 635,1163 636,1162 637,1162 638,1161 639,1162 639,1163 638,1164 637,1164 636,1165 635,1165 634,1166 633,1166 634,1166 635,1166 636,1165 637,1165 638,1165 639,1165 640,1165 641,1165 642,1165 643,1165 644,1165 645,1165 646,1165 647,1165 648,1165 649,1164 650,1163 651,1163 652,1162 653,1161 654,1160 655,1160 656,1159 657,1158 658,1158 659,1157 660,1157 661,1156 662,1156 663,1156 664,1156 665,1156 666,1157 667,1158 668,1158 669,1159 670,1160 671,1161 672,1161 673,1162 674,1163 675,1164 676,1165 677,1166 678,1166 679,1166 680,1166 681,1166 682,1166 683,1165 684,1165 685,1165 686,1164 687,1164 688,1165 687,1166 686,1167 685,1167 686,1167 687,1167 688,1168 689,1168 690,1167 691,1167 692,1166 693,1166 694,1166 695,1166 696,1166 697,1167 696,1168 695,1168 694,1169 693,1169 692,1169 691,1169 692,1169 693,1169 694,1170 695,1170 696,1169 697,1169 698,1169 699,1169 700,1169 701,1169 702,1169 703,1170 702,1171 701,1171 700,1171 701,1171 702,1172 703,1172 704,1172 705,1171 706,1171 707,1171 708,1171 709,1172 708,1173 707,1173 707,1174 708,1175 709,1175 710,1175 710,1174 710,1173 711,1172 711,1171 711,1170 712,1169 712,1168 712,1167 712,1166 712,1165 712,1164 712,1163 713,1162 713,1161 713,1160 713,1159 713,1158 714,1157 714,1156 714,1155 714,1154 715,1153 715,1152 715,1151 715,1150 715,1149 715,1148 715,1147 715,1146 716,1145 716,1144 716,1143 716,1142 716,1141 716,1140 716,1139 716,1138 717,1137 717,1136 717,1135 717,1134 717,1133 717,1132 717,1131 717,1130 717,1129 718,1128 718,1127 718,1126 718,1125 718,1124 718,1123 718,1122 718,1121 718,1120 718,1119 718,1118 719,1117 719,1116 719,1115 719,1114 719,1113 719,1112 719,1111 719,1110 718,1109 718,1108 718,1107 718,1106 718,1105 718,1104 718,1103 718,1102 718,1101 717,1100 717,1099 717,1098 717,1097 716,1096 716,1095 716,1094 716,1093 715,1092 715,1091 715,1090 715,1089 714,1088 714,1087 714,1086 713,1085 713,1084 713,1083 712,1083 711,1084 710,1085 709,1085 708,1085 707,1085 706,1085 705,1085 705,1086 704,1087 703,1086 702,1085 701,1085 700,1085 699,1084 698,1083 697,1083 696,1083 695,1082 694,1081 693,1080 692,1079 691,1078 690,1077 690,1076 689,1075 688,1074 687,1073 687,1072 687,1073 686,1074 686,1075 685,1076 685,1077 684,1078 684,1079 683,1080 683,1081 682,1082 681,1082 681,1083 680,1084 679,1084 678,1084 677,1085 676,1086 675,1087 674,1087 673,1088 672,1088 671,1088 670,1088 669,1088 668,1088 667,1088 666,1088 665,1089 664,1089 663,1089 662,1089 661,1088 660,1088 659,1088 658,1088 657,1087 656,1087 655,1087 654,1087 653,1087 652,1086 651,1087 650,1086 649,1085 648,1084 647,1084 646,1083 645,1083 644,1082 643,1081 642,1080 641,1079 640,1078 640,1077 639,1076 639,1075 639,1074 638,1073 638,1072 638,1071 638,1070 638,1069 638,1068 638,1067 639,1066 639,1065 638,1064 638,1063 637,1063 636,1063 635,1063 635,1064 634,1065 633,1065 632,1064 633,1063 632,1062 632,1061">
      <metadata tailDirection="" confidence="0.72" linkedToCharacter="" id="CYB_MOUETTEMAN_004_balloon_3" tailTip=""></metadata>
    </polygon>
    <polygon points="612,626 612,627 612,628 612,629 612,630 611,631 610,631 609,631 608,632 607,633 606,632 605,631 606,630 606,629 606,630 605,631 605,632 605,633 604,634 603,635 603,636 603,637 602,638 601,638 601,639 600,640 599,641 598,642 597,643 596,643 595,644 594,645 593,646 592,646 591,646 590,647 589,648 588,648 587,648 586,648 585,649 584,649 583,650 582,650 581,650 580,650 579,650 578,650 577,651 576,651 575,651 574,651 573,651 572,651 571,651 570,651 569,651 568,651 567,651 566,651 565,651 564,651 563,650 562,650 561,649 560,649 559,648 558,648 557,649 557,650 557,651 556,652 556,653 555,654 555,655 555,656 554,657 554,658 554,659 553,660 553,661 553,662 552,663 553,663 554,664 555,664 556,665 557,666 557,667 558,668 559,669 559,670 560,671 561,672 562,673 562,674 562,675 563,676 563,677 563,678 563,679 563,680 563,681 563,682 563,683 563,682 564,681 565,680 566,679 567,678 568,677 569,676 570,675 571,674 572,674 573,673 574,672 575,672 576,671 577,670 578,669 579,669 580,669 581,669 582,669 583,668 584,668 585,668 586,667 587,667 588,667 589,667 590,666 591,666 592,666 593,666 594,666 595,666 596,667 597,666 598,667 599,667 600,667 601,667 602,667 603,667 604,668 605,668 606,668 607,669 608,669 609,669 610,670 611,670 612,671 613,671 614,672 615,673 616,674 617,675 618,676 619,676 620,677 621,678 622,679 622,680 623,681 624,682 625,683 626,684 627,685 628,686 629,687 629,686 629,685 629,684 629,683 628,682 628,681 628,680 627,679 627,678 627,677 627,676 626,675 626,674 626,673 625,672 625,671 625,670 624,669 624,668 624,667 624,666 623,665 623,664 622,663 622,662 621,661 621,660 621,659 622,658 623,659 624,660 624,661 625,662 625,663 626,664 626,665 626,666 627,667 627,668 627,669 628,670 628,671 629,672 629,673 629,674 630,675 630,676 630,677 631,678 631,679 631,680 632,681 632,682 632,683 632,684 633,685 633,686 633,687 633,688 633,689 633,690 633,691 634,692 634,693 634,694 634,695 634,696 633,697 632,698 631,699 630,700 629,700 628,700 628,701 628,702 628,703 628,704 628,705 628,706 628,707 628,708 628,709 628,710 628,711 628,712 627,713 627,714 627,715 626,716 626,717 626,718 625,719 625,720 625,721 624,722 623,723 622,724 621,725 620,726 619,726 618,727 617,727 616,728 615,728 614,728 613,728 612,728 611,728 610,727 609,727 608,726 607,726 606,725 605,724 604,723 603,723 602,722 601,721 600,720 600,719 599,718 598,717 598,716 598,715 597,714 597,713 597,712 597,711 596,710 596,709 596,708 596,707 596,706 596,705 596,704 596,703 596,702 596,701 596,700 596,699 596,698 597,697 597,696 597,695 597,694 597,693 597,692 598,691 598,690 598,689 599,688 599,687 600,686 601,685 601,684 602,683 603,682 604,682 605,681 606,680 607,679 608,679 609,679 610,679 611,679 612,679 613,679 614,679 613,678 612,678 611,678 610,678 609,678 608,678 607,677 606,677 605,676 604,676 603,676 602,676 601,675 600,675 599,675 598,675 597,675 596,675 595,675 594,676 593,676 592,676 591,676 590,677 589,677 588,678 587,678 586,679 585,680 584,681 583,682 582,682 582,683 581,684 580,684 579,685 579,686 578,687 577,687 576,688 575,689 575,690 574,691 573,692 573,693 572,694 572,695 572,696 571,697 571,698 571,699 571,700 571,701 570,702 570,703 570,704 570,705 570,706 570,707 570,708 570,709 570,710 570,711 571,712 571,713 571,714 571,715 571,716 571,717 571,718 571,719 572,720 572,721 572,722 572,723 572,724 572,725 572,726 573,727 573,728 574,729 575,730 576,731 576,732 577,732 578,732 579,731 580,731 581,732 580,733 579,734 578,735 577,735 576,736 575,737 574,738 573,739 572,739 571,740 570,741 570,742 571,741 572,740 573,739 574,738 575,738 576,737 577,736 578,735 579,735 580,734 581,733 582,733 583,732 584,732 585,731 586,731 587,730 588,730 589,731 588,732 587,733 586,734 585,734 584,735 583,735 582,736 581,737 580,737 579,738 580,737 581,737 582,736 583,736 584,735 585,735 586,735 587,735 588,735 589,734 590,734 591,733 592,733 593,732 594,732 595,731 596,730 597,730 598,731 599,732 598,733 597,733 596,734 595,734 596,734 597,734 598,734 599,734 600,734 601,733 602,733 603,732 604,732 605,731 606,731 607,730 608,730 609,730 610,729 611,729 612,729 613,730 612,731 611,732 610,732 609,732 608,733 607,733 608,733 609,733 610,733 611,732 612,732 613,732 614,732 615,732 616,732 617,732 618,732 619,732 620,732 621,732 622,732 623,731 624,730 625,729 626,729 627,728 628,727 629,726 630,726 631,725 632,725 633,724 634,724 635,723 636,723 637,723 638,724 639,724 640,725 641,725 642,726 643,726 644,727 645,728 646,729 647,730 648,730 649,731 649,732 650,733 651,733 652,733 653,733 654,734 655,734 656,733 657,733 658,732 659,731 660,731 661,731 662,732 661,733 660,734 659,734 660,735 661,735 662,735 663,735 664,734 665,734 666,733 667,733 668,733 669,733 670,734 669,735 668,735 667,736 666,736 665,736 666,736 667,736 668,737 669,737 670,736 671,736 672,736 673,736 674,736 675,736 676,736 677,737 677,738 676,739 675,739 674,739 675,739 676,739 677,739 678,739 679,739 680,738 681,738 682,738 683,739 682,740 681,741 682,742 683,742 684,743 684,742 684,741 684,740 684,739 685,738 685,737 685,736 685,735 686,734 686,733 686,732 686,731 686,730 687,729 687,728 687,727 687,726 687,725 687,724 688,723 688,722 688,721 688,720 688,719 688,718 688,717 688,716 689,715 689,714 689,713 689,712 689,711 689,710 690,709 690,708 690,707 690,706 690,705 690,704 690,703 690,702 691,701 690,700 691,699 691,698 691,697 691,696 691,695 692,694 692,693 692,692 692,691 692,690 692,689 692,688 692,687 692,686 692,685 692,684 692,683 692,682 692,681 692,680 692,679 692,678 692,677 692,676 692,675 692,674 692,673 691,672 692,671 692,670 691,669 691,668 691,667 691,666 690,665 690,664 690,663 689,662 689,661 689,660 689,659 689,658 689,657 688,656 688,655 688,654 687,653 687,652 686,651 686,650 685,651 684,652 683,652 683,653 684,654 684,655 684,656 683,657 682,658 681,657 680,656 679,655 680,656 681,657 682,658 683,659 684,660 683,659 682,658 683,657 684,656 685,657 686,658 686,659 686,660 686,661 685,662 686,663 687,664 688,665 688,666 689,667 689,668 690,669 690,670 691,671 691,672 691,673 691,674 691,675 691,676 692,677 691,678 692,679 692,680 691,681 691,682 691,683 691,684 691,685 691,686 691,687 690,688 689,687 689,686 689,685 689,684 688,683 688,682 688,681 688,680 688,679 688,678 688,677 688,676 688,675 687,674 687,673 687,672 686,671 686,670 685,669 685,668 684,667 683,666 682,665 681,664 680,663 679,662 678,661 678,660 677,659 676,658 675,658 674,658 673,657 672,657 671,657 670,657 669,657 668,658 667,658 666,658 665,659 664,660 663,660 662,661 661,662 660,663 659,663 658,664 657,664 656,665 655,666 654,667 653,668 652,669 651,670 650,671 649,672 649,673 648,674 647,675 646,676 646,677 645,678 644,679 644,680 643,681 643,682 643,683 642,684 641,685 640,684 640,683 640,682 640,681 640,680 640,679 640,678 640,677 640,676 640,675 640,674 640,673 640,672 639,671 639,670 639,669 639,668 639,667 639,666 639,665 639,664 639,663 639,662 640,661 641,660 642,661 642,662 642,663 642,664 642,665 642,666 642,667 642,668 642,669 642,670 642,671 643,672 643,673 643,674 643,675 644,674 645,673 645,672 646,671 647,670 648,669 649,668 650,667 651,666 652,665 653,664 654,663 655,662 656,661 657,660 658,659 659,659 660,658 661,657 662,656 663,656 664,655 665,654 666,654 667,653 668,653 669,653 670,652 671,652 672,652 673,652 674,653 675,653 675,652 674,652 673,652 672,651 671,650 670,650 669,649 668,649 667,648 666,647 665,646 665,645 664,644 663,643 662,642 662,641 661,640 661,639 660,640 660,641 659,642 659,643 658,644 658,645 657,646 656,647 656,648 655,649 655,650 654,651 653,651 652,652 651,652 650,653 649,653 648,654 647,655 646,655 645,655 644,655 643,655 642,656 641,656 640,656 639,656 638,656 637,656 636,656 635,656 634,656 633,655 632,655 631,655 630,655 629,654 628,654 627,654 626,653 625,653 624,652 623,652 622,651 621,650 620,649 619,648 618,647 617,646 616,645 616,644 615,643 615,642 614,641 614,640 614,639 613,638 613,637 613,636 613,635 613,634 612,633 612,632 612,631 612,630 612,629 612,628 612,627 612,626">
      <metadata tailDirection="" confidence="0.69" linkedToCharacter="" id="CYB_MOUETTEMAN_004_balloon_4" tailTip=""></metadata>
    </polygon>
    <polygon points="921,594 920,595 919,595 918,595 917,595 916,595 915,595 914,595 913,595 912,596 911,596 910,596 909,596 908,596 907,596 906,597 905,597 904,597 903,597 902,597 901,598 900,598 899,598 898,599 897,599 896,600 895,600 894,601 893,601 892,601 891,602 890,602 889,603 888,603 887,604 886,604 885,605 884,606 883,606 882,607 881,607 880,608 879,609 878,610 877,611 876,611 875,612 874,613 873,614 872,615 871,616 870,617 870,618 869,619 868,620 867,621 867,622 866,623 865,624 865,625 864,626 864,627 863,628 863,629 862,630 862,631 862,632 861,633 861,634 861,635 860,636 860,637 860,638 859,639 859,640 859,641 859,642 859,643 859,644 859,645 859,646 859,647 859,648 859,649 859,650 859,651 859,652 859,653 859,654 860,655 860,656 860,657 860,658 861,659 861,660 861,661 862,662 862,663 862,664 863,664 864,664 865,664 866,664 867,665 868,665 869,666 870,667 870,668 869,669 869,670 868,671 869,672 870,672 871,672 872,673 873,673 874,674 875,674 876,675 877,675 878,676 879,677 880,678 881,679 882,680 882,681 883,682 882,683 882,684 882,685 881,686 882,687 883,688 884,688 885,689 886,689 887,690 888,690 889,691 890,691 891,692 892,692 893,693 894,693 895,694 896,694 897,695 898,695 899,695 900,695 901,696 902,696 903,696 904,697 905,697 906,697 907,697 908,698 909,698 910,698 911,698 912,698 913,699 914,699 915,699 916,699 917,699 918,699 919,699 920,699 921,700 922,701 922,702 922,703 923,704 923,705 923,706 923,707 923,708 924,709 924,710 924,711 924,712 924,713 924,714 924,715 924,716 924,717 924,718 924,719 923,720 923,721 922,722 921,723 920,723 919,724 918,725 917,725 916,726 915,726 914,727 913,728 912,728 913,728 914,727 915,727 916,727 917,726 918,726 919,726 920,726 921,725 922,725 923,725 924,724 925,723 926,723 926,722 927,721 928,720 928,719 928,718 928,717 928,716 928,715 928,714 928,713 928,712 927,711 927,710 927,709 927,708 927,707 927,706 927,705 927,704 927,703 927,702 927,701 927,700 928,699 929,699 930,699 931,699 932,699 933,699 934,699 935,699 936,699 937,698 938,698 939,698 940,698 941,698 942,697 943,697 944,697 945,697 946,696 947,696 948,696 949,695 950,695 951,695 952,695 953,694 954,694 955,693 956,693 957,693 958,692 959,692 960,691 961,690 962,690 963,690 964,689 965,688 966,688 967,687 968,686 969,686 970,685 971,684 972,683 973,683 974,682 975,681 976,680 977,679 978,678 979,677 979,676 980,675 981,674 982,673 983,672 983,671 984,670 984,669 984,668 984,667 984,666 984,665 984,664 984,663 984,662 984,661 984,660 984,659 984,658 984,657 984,656 984,655 984,654 984,653 984,652 984,651 984,650 984,649 984,648 984,647 984,646 984,645 984,644 984,643 984,642 984,641 984,640 984,639 984,638 984,637 984,636 984,635 984,634 984,633 984,632 984,631 984,630 984,629 984,628 984,627 984,626 984,625 984,624 983,623 983,622 982,621 981,620 981,619 980,618 979,617 978,616 977,615 976,614 975,613 974,612 973,611 972,610 971,609 970,609 969,608 968,607 967,607 966,606 965,605 964,605 963,604 962,603 961,603 960,602 959,602 958,602 957,601 956,601 955,600 954,600 953,599 952,599 951,599 950,598 949,598 948,598 947,597 946,597 945,597 944,597 943,596 942,596 941,596 940,596 939,596 938,596 937,595 936,595 935,595 934,595 933,595 932,595 931,595 930,595 929,595 928,594 927,594 926,594 925,594 924,594 923,594 922,594 921,594">
      <metadata tailDirection="" confidence="0.81" linkedToCharacter="" id="CYB_MOUETTEMAN_004_balloon_5" tailTip=""></metadata>
    </polygon>
    <polygon points="654,515 653,516 652,517 651,517 650,518 649,519 648,520 647,521 646,522 645,523 644,524 643,525 643,526 642,527 641,528 640,529 639,530 639,531 638,532 637,533 637,534 636,535 635,536 635,537 634,538 634,539 633,540 633,541 632,542 632,543 632,544 631,545 631,546 630,547 630,548 630,549 629,550 629,551 629,552 629,553 629,554 628,555 628,556 628,557 628,558 628,559 628,560 628,561 628,562 628,563 628,564 628,565 628,566 628,567 628,568 628,569 628,570 629,571 629,572 629,573 629,574 630,575 630,576 630,577 631,578 631,579 631,580 632,581 632,582 633,583 633,584 633,585 634,586 634,587 635,588 636,589 636,590 637,591 638,592 638,593 639,594 639,595 640,596 641,597 642,598 643,599 644,600 644,601 645,601 646,601 647,601 648,601 649,601 650,601 651,601 652,601 653,601 654,602 655,602 656,602 657,602 658,603 659,603 660,603 661,604 662,605 663,605 664,606 665,606 666,607 667,608 668,608 669,609 670,610 670,611 671,612 671,613 672,614 672,615 672,616 671,617 671,618 671,619 670,620 671,621 672,622 673,622 674,623 675,623 676,624 677,624 678,625 679,625 680,625 681,626 682,626 683,627 684,627 685,628 686,628 687,629 688,629 689,629 690,629 691,630 692,630 693,631 694,631 695,631 696,632 697,632 698,632 699,633 700,633 701,633 702,634 703,634 704,634 705,634 706,634 707,635 708,635 709,635 710,635 711,636 712,636 713,636 714,636 715,637 716,637 717,637 718,637 719,638 720,638 721,638 722,638 723,638 724,638 725,639 726,639 727,639 728,639 729,639 730,639 731,639 732,639 733,639 734,640 735,640 736,640 737,640 738,641 738,642 739,643 738,644 738,645 737,646 737,647 737,648 736,649 736,650 735,651 735,652 734,653 735,652 736,652 736,651 737,650 738,649 739,648 740,647 741,647 742,646 743,645 743,644 744,643 745,642 746,641 747,640 748,640 749,641 750,641 751,641 752,641 753,641 754,641 755,641 756,641 757,641 758,641 759,641 760,641 761,641 762,641 763,641 764,640 765,640 766,640 767,640 768,640 769,640 770,640 771,640 772,640 773,640 774,640 775,640 776,640 777,640 778,639 779,639 780,639 781,639 782,639 783,639 784,639 785,639 786,639 787,638 788,638 789,638 790,638 791,638 792,638 793,637 794,637 795,637 796,637 797,636 798,636 799,636 800,636 801,635 802,635 803,635 804,635 805,634 806,634 807,634 808,634 809,634 810,633 811,633 812,633 813,632 814,632 815,632 816,631 817,631 818,631 819,630 820,630 821,630 822,629 823,629 824,629 825,628 826,628 827,627 828,627 829,627 830,626 831,626 832,625 833,625 834,624 835,624 836,623 837,623 838,622 839,622 840,621 841,621 842,620 843,619 844,619 845,618 846,618 847,617 848,617 849,616 850,615 851,614 852,614 853,613 854,612 855,612 856,611 857,610 858,609 859,608 860,608 861,607 862,606 863,605 864,604 865,603 866,602 867,601 868,600 869,599 870,598 870,597 871,596 872,595 873,594 873,593 874,592 875,591 875,590 876,589 876,588 877,587 877,586 878,585 879,584 879,583 880,582 880,581 880,580 881,579 881,578 881,577 881,576 882,575 882,574 882,573 882,572 883,571 883,570 883,569 883,568 883,567 883,566 883,565 884,564 884,563 884,562 884,561 884,560 883,559 883,558 883,557 883,556 883,555 883,554 882,553 882,552 882,551 882,550 881,549 881,548 881,547 881,546 880,545 880,544 880,543 879,542 879,541 878,540 878,539 877,538 877,537 876,536 875,535 875,534 874,533 874,532 873,531 872,530 871,529 871,528 870,527 869,526 868,525 867,524 866,523 865,522 864,521 863,520 862,519 861,518 860,517 859,516 858,515 857,515 856,515 855,515 854,515 853,515 852,515 851,515 850,515 849,515 848,515 847,515 846,515 845,515 844,515 843,515 842,515 841,515 840,515 839,515 838,515 837,515 836,515 835,515 834,515 833,515 832,515 831,515 830,515 829,515 828,515 827,515 826,515 825,515 824,515 823,515 822,515 821,515 820,515 819,515 818,515 817,515 816,515 815,515 814,515 813,515 812,515 811,515 810,515 809,515 808,515 807,515 806,515 805,515 804,515 803,515 802,515 801,515 800,515 799,515 798,515 797,515 796,515 795,515 794,515 793,515 792,515 791,515 790,515 789,515 788,515 787,515 786,515 785,515 784,515 783,515 782,515 781,515 780,515 779,515 778,515 777,515 776,515 775,515 774,515 773,515 772,515 771,515 770,515 769,515 768,515 767,515 766,515 765,515 764,515 763,515 762,515 761,515 760,515 759,515 758,515 757,515 756,515 755,515 754,515 753,515 752,515 751,515 750,515 749,515 748,515 747,515 746,515 745,515 744,515 743,515 742,515 741,515 740,515 739,515 738,515 737,515 736,515 735,515 734,515 733,515 732,515 731,515 730,515 729,515 728,515 727,515 726,515 725,515 724,515 723,515 722,515 721,515 720,515 719,515 718,515 717,515 716,515 715,515 714,515 713,515 712,515 711,515 710,515 709,515 708,515 707,515 706,515 705,515 704,515 703,515 702,515 701,515 700,515 699,515 698,515 697,515 696,515 695,515 694,515 693,515 692,515 691,515 690,515 689,515 688,515 687,515 686,515 685,515 684,515 683,515 682,515 681,515 680,515 679,515 678,515 677,515 676,515 675,515 674,515 673,515 672,515 671,515 670,515 669,515 668,515 667,515 666,515 665,515 664,515 663,515 662,515 661,515 660,515 659,515 658,515 657,515 656,515 655,515 654,515">
      <metadata tailDirection="" confidence="0.96" linkedToCharacter="" id="CYB_MOUETTEMAN_004_balloon_6" tailTip=""></metadata>
    </polygon>
    <polygon points="403,402 402,403 401,403 401,404 401,405 401,406 401,407 401,408 401,409 401,410 401,411 401,412 401,413 401,414 401,415 401,416 401,417 401,418 401,419 401,420 402,420 403,420 404,420 405,420 406,420 407,420 408,420 409,419 410,420 411,420 412,420 413,420 414,419 415,420 416,419 417,419 418,419 419,420 420,420 421,420 422,420 423,420 424,419 425,419 426,419 427,419 426,418 426,417 425,416 425,415 425,414 425,413 426,412 426,411 427,410 428,409 429,409 430,408 431,408 432,408 433,408 434,409 435,409 436,410 436,411 436,412 436,413 435,414 435,415 435,416 434,417 433,418 433,419 432,420 431,420 430,420 431,420 432,420 433,420 434,420 435,419 436,419 437,419 438,419 439,419 440,418 441,418 442,418 442,417 442,416 441,415 441,414 442,413 443,412 443,411 444,410 445,409 446,408 447,408 448,408 449,408 450,409 451,409 452,410 453,411 454,412 454,413 453,414 452,415 453,416 452,417 453,418 454,418 455,418 456,418 457,418 458,419 459,419 460,419 459,418 458,417 458,416 458,415 458,414 458,413 458,412 459,411 460,410 461,409 462,409 463,409 464,409 465,409 466,409 467,409 468,410 469,411 469,412 469,413 469,414 469,415 469,416 470,416 471,415 472,415 473,415 474,415 475,415 476,415 477,414 478,414 479,414 480,414 481,414 482,415 483,415 484,415 485,415 486,415 486,414 486,413 486,412 486,411 487,410 488,409 489,409 490,409 491,409 492,409 493,409 494,409 495,409 496,409 497,409 498,409 499,409 500,409 501,409 502,409 503,409 504,409 505,409 506,409 507,409 508,409 509,409 510,409 511,409 512,409 513,409 514,409 515,409 516,409 517,409 518,409 519,409 520,410 521,409 522,409 523,409 524,409 525,410 526,410 527,411 528,412 528,413 528,414 527,415 526,416 525,416 524,416 523,416 522,415 521,415 520,415 519,416 518,416 517,416 516,416 515,416 514,416 513,416 512,417 511,417 510,416 509,416 508,416 507,416 506,416 505,416 504,416 503,416 502,416 501,416 500,416 499,415 498,415 497,415 496,416 495,415 494,415 493,415 492,416 491,416 490,416 489,416 488,416 489,416 490,416 491,417 492,418 493,418 494,418 495,419 496,419 497,418 498,418 499,418 500,419 501,418 502,419 503,419 504,419 505,419 506,419 507,419 508,419 509,419 510,419 511,419 512,419 513,419 514,419 515,419 516,419 517,419 518,419 519,419 520,419 521,419 522,419 523,419 524,419 525,419 526,419 527,419 528,419 529,419 530,419 531,419 532,419 533,419 534,419 535,419 536,419 537,419 538,419 539,419 540,419 541,419 542,419 543,419 544,419 545,419 546,419 547,419 548,419 549,419 550,418 551,419 552,419 553,419 554,419 555,419 556,419 557,419 558,419 559,419 560,419 561,419 562,419 563,419 564,419 565,419 566,419 567,419 568,419 569,419 570,419 571,419 572,419 573,419 574,419 575,419 576,419 577,419 578,419 579,419 580,419 581,419 582,419 583,419 584,419 585,419 586,419 587,419 588,419 589,419 590,419 591,419 592,419 593,419 594,419 595,419 596,418 597,418 598,418 599,418 600,418 601,418 601,417 602,416 603,415 604,414 605,413 606,412 607,412 608,412 609,411 610,411 610,410 611,409 610,408 610,407 611,406 611,405 610,405 609,405 608,405 607,405 606,405 605,405 604,405 603,405 602,405 601,404 600,405 599,405 598,405 597,405 596,405 595,405 594,405 593,405 592,405 591,405 590,405 589,405 588,405 587,405 586,404 585,404 584,405 583,404 582,404 581,404 580,404 579,404 578,404 577,404 576,404 575,404 574,404 573,404 572,404 571,404 570,404 569,404 568,404 567,404 566,403 565,403 564,404 563,404 562,403 561,403 560,403 559,403 558,404 557,404 556,403 555,404 554,403 553,404 552,403 551,403 550,403 549,403 548,403 547,403 546,403 545,403 544,403 543,403 542,403 541,403 540,404 539,403 538,404 537,404 536,404 535,403 534,403 533,403 532,403 531,403 530,403 529,404 528,404 527,403 526,403 525,403 524,403 523,403 522,403 521,403 520,403 519,403 518,403 517,403 516,403 515,403 514,403 513,403 512,403 511,403 510,403 509,403 508,403 507,403 506,403 505,403 504,403 503,403 502,403 501,403 500,403 499,403 498,403 497,403 496,403 495,403 494,403 493,403 492,403 491,403 490,403 489,403 488,403 487,403 486,403 485,403 484,403 483,403 482,403 481,403 480,403 479,404 478,404 477,403 476,404 475,404 474,403 473,404 472,404 471,404 470,404 469,403 468,404 467,404 466,404 465,403 464,403 463,403 462,403 461,403 460,403 459,403 458,403 457,403 456,403 455,403 454,403 453,403 452,403 451,403 450,403 449,403 448,403 447,403 446,403 445,403 444,403 443,403 442,403 441,403 440,403 439,403 438,402 437,403 436,402 435,402 434,402 433,402 432,402 431,402 430,403 429,403 428,402 427,402 426,402 425,402 424,402 423,402 422,402 421,402 420,402 419,402 418,402 417,402 416,402 415,402 414,402 413,402 412,402 411,402 410,402 409,402 408,402 407,402 406,402 405,402 404,402 403,402">
      <metadata tailDirection="" confidence="0.93" linkedToCharacter="" id="CYB_MOUETTEMAN_004_balloon_7" tailTip=""></metadata>
    </polygon>
    <polygon points="400,350 400,351 400,352 400,353 400,354 400,355 400,356 400,357 400,358 401,358 402,358 403,358 404,358 405,358 406,358 407,358 408,358 409,358 410,359 411,359 412,359 413,360 414,360 415,360 416,360 417,359 418,359 419,359 420,359 421,359 422,360 423,359 424,359 425,360 426,360 427,361 428,361 429,361 430,362 431,363 431,364 431,365 431,366 431,367 430,368 429,369 428,369 428,370 428,371 428,372 428,373 428,374 428,375 427,376 427,377 427,378 427,379 426,380 426,381 426,382 425,383 424,383 424,384 423,385 422,385 422,386 422,387 422,388 422,389 422,390 422,391 422,392 422,393 421,394 420,394 419,394 418,393 418,392 418,391 418,390 419,389 419,388 419,387 419,386 418,386 417,386 416,386 415,385 414,384 413,383 413,382 412,381 412,380 411,379 411,378 411,377 411,376 411,375 411,374 411,373 411,372 411,371 411,370 411,369 411,368 411,367 412,366 411,367 410,367 409,368 409,369 410,370 409,371 409,372 409,373 409,374 409,375 409,376 409,377 409,378 409,379 408,380 409,381 409,382 408,383 407,383 406,384 405,384 405,385 405,386 405,387 405,388 405,389 406,390 406,391 406,392 405,393 405,394 404,395 403,395 402,394 402,393 402,392 402,391 402,390 402,389 401,388 401,387 401,386 401,385 400,384 400,385 399,386 400,387 399,388 400,389 399,390 399,391 400,392 400,393 400,394 400,395 400,396 400,397 400,398 400,399 400,400 401,400 402,399 403,399 404,399 405,399 406,399 407,399 408,399 409,399 410,399 411,399 412,399 413,399 414,399 415,399 416,399 417,399 418,399 419,399 420,399 421,399 422,399 423,400 424,400 425,399 426,400 427,399 428,399 429,400 430,400 431,400 432,399 433,399 434,399 435,399 436,399 437,399 438,399 439,399 440,399 441,400 442,400 443,400 444,400 445,400 446,400 447,400 448,400 449,400 450,400 451,400 452,400 453,400 454,400 455,400 456,400 457,400 458,400 459,400 460,400 461,400 462,400 463,400 464,400 465,400 466,401 467,400 468,401 469,401 470,401 471,401 472,401 473,401 474,401 475,401 476,401 477,401 478,401 479,401 480,400 481,400 482,400 483,400 484,400 485,400 486,400 487,400 488,400 489,400 490,400 491,400 492,400 493,400 494,400 495,400 496,400 497,400 498,400 499,400 500,400 501,400 502,400 503,400 504,400 505,400 506,400 507,400 508,400 509,400 510,400 511,400 512,400 513,400 514,400 515,400 516,400 517,400 518,400 519,400 520,400 521,400 522,400 523,400 524,400 525,400 526,400 527,400 528,400 529,400 530,400 531,400 532,400 533,400 534,401 535,401 536,400 537,401 538,400 539,400 540,401 541,401 542,401 543,400 544,400 545,400 546,400 547,400 548,400 549,400 550,401 551,401 552,401 553,401 554,400 555,401 556,401 557,401 558,400 559,400 560,401 561,400 562,400 563,400 564,400 565,401 566,400 567,400 568,400 569,401 570,401 571,401 572,401 573,401 574,401 575,401 576,401 577,401 578,401 579,402 580,402 581,402 582,402 583,402 584,402 585,402 586,402 587,402 588,402 589,402 590,402 591,402 592,402 593,402 594,402 595,402 596,402 597,402 598,402 599,402 600,402 601,402 602,402 603,402 604,402 605,402 606,402 607,402 608,402 609,402 610,402 611,402 611,401 611,400 611,399 612,398 612,397 612,396 613,395 614,394 615,393 616,392 617,391 618,390 619,389 619,388 620,387 621,387 622,386 623,386 624,386 625,387 626,387 627,386 628,386 629,386 630,385 631,385 632,385 633,384 634,384 635,384 635,383 634,382 633,382 632,381 632,380 632,379 632,378 632,377 632,376 633,375 634,374 634,373 635,372 636,372 637,372 638,372 639,372 640,373 641,373 642,374 643,373 644,373 645,372 646,372 647,371 648,371 649,370 650,370 651,369 651,368 651,369 650,370 649,370 648,371 647,371 646,370 645,370 644,369 643,368 642,369 641,370 640,369 639,368 640,367 641,367 640,367 639,367 638,367 637,367 636,367 635,367 634,367 633,367 632,366 631,366 630,366 629,366 628,366 627,366 626,366 625,366 624,367 623,366 622,367 621,366 620,366 619,366 618,366 617,366 616,366 615,366 614,366 613,366 612,366 611,366 610,366 609,365 608,365 607,365 606,365 605,365 604,365 603,365 602,365 601,365 600,365 599,364 598,364 597,364 596,364 595,364 594,364 593,363 592,363 591,363 590,363 589,363 588,363 587,363 586,363 585,363 584,363 583,362 582,362 581,362 580,362 579,362 578,362 577,362 576,362 575,362 574,362 573,362 572,362 571,362 570,362 569,362 568,362 567,362 566,362 565,362 564,362 563,361 562,362 561,362 560,362 559,362 558,362 557,361 556,361 555,361 554,361 553,361 552,361 551,361 550,361 549,361 548,360 547,360 546,360 545,360 544,360 543,360 542,360 541,360 540,360 539,360 538,360 537,360 536,360 535,360 534,360 533,359 532,359 531,359 530,359 529,359 528,359 527,359 526,359 525,359 524,358 523,358 522,358 521,358 520,358 519,357 518,358 517,358 516,358 515,358 514,357 513,357 512,357 511,357 510,357 509,357 508,357 507,357 506,357 505,357 504,358 503,357 502,357 501,357 500,357 501,357 502,358 501,359 500,360 499,359 498,360 497,359 496,358 495,358 494,359 493,358 492,357 493,356 494,356 493,356 492,356 491,356 490,356 489,357 488,357 489,357 490,358 489,359 489,360 490,361 489,362 488,362 487,362 486,361 486,360 485,361 484,360 483,360 482,361 481,360 480,360 479,361 478,361 477,360 476,360 475,361 475,362 475,361 476,360 477,360 478,361 478,362 479,362 480,361 481,361 482,361 483,362 484,362 485,363 486,363 487,363 488,363 489,363 490,363 491,363 492,363 493,363 494,363 495,363 496,363 497,363 498,363 499,363 500,363 501,363 502,363 503,363 504,363 505,363 506,363 507,363 508,363 509,363 510,364 511,364 512,364 513,364 514,364 515,364 516,364 517,363 518,364 519,364 520,364 521,364 522,364 523,364 524,364 525,364 526,365 527,365 528,365 529,365 530,365 531,365 532,365 533,365 534,365 535,366 536,365 537,366 538,366 539,366 540,366 541,366 542,366 543,366 544,366 545,366 546,366 547,367 548,367 549,367 550,367 551,367 552,367 553,367 554,367 555,367 556,367 557,367 558,368 559,368 560,368 561,368 562,368 563,368 564,368 565,368 566,368 567,368 568,368 569,368 570,368 571,368 572,368 573,368 574,368 575,369 576,369 577,369 578,369 579,369 580,369 581,370 581,371 582,372 582,373 582,374 582,375 582,376 582,377 581,378 582,379 581,380 580,381 579,381 578,380 577,380 576,380 575,380 574,381 573,380 572,381 571,380 570,380 569,380 568,380 567,380 566,380 565,380 564,380 563,380 562,380 561,380 560,380 559,380 558,380 557,380 556,379 555,380 554,380 553,379 552,379 551,379 550,380 549,379 548,379 547,379 546,379 545,379 544,379 543,379 542,379 541,379 540,379 539,379 538,379 537,379 536,379 535,379 534,378 533,378 532,378 531,378 530,378 529,378 528,378 527,378 526,378 525,377 524,377 523,377 522,377 521,377 520,377 519,377 518,377 517,378 516,378 515,378 514,377 513,377 512,377 511,377 510,377 509,377 508,377 507,377 506,377 505,377 504,377 503,377 502,378 501,378 500,377 499,377 498,377 497,377 496,377 495,377 494,377 493,377 492,377 491,377 490,377 489,377 488,377 487,377 486,377 485,377 484,377 483,377 482,377 481,377 480,377 479,377 478,377 477,377 476,377 475,377 474,376 473,376 472,376 471,376 470,376 469,376 468,376 467,376 466,376 465,376 464,376 463,376 462,376 461,375 460,375 459,375 458,375 457,375 456,376 455,376 454,376 453,376 454,376 455,377 455,378 454,379 453,380 454,380 455,380 456,380 457,380 458,380 459,380 460,380 461,380 462,380 463,380 464,380 465,380 466,380 467,380 468,380 469,380 470,380 471,380 472,380 473,380 474,380 475,380 476,381 477,381 478,381 479,381 480,381 481,381 482,381 483,381 484,381 485,381 486,381 487,381 488,381 489,381 490,381 491,381 492,381 493,381 494,381 495,381 496,381 497,381 498,381 499,381 500,381 501,382 502,382 503,382 504,382 505,382 506,382 507,382 508,382 509,382 510,382 511,382 512,382 513,382 514,382 515,382 516,382 517,382 518,382 519,382 520,382 521,382 522,382 523,382 524,382 525,382 526,382 527,382 528,382 529,383 530,383 531,383 532,383 533,383 534,383 535,383 536,383 537,383 538,383 539,383 540,383 541,383 542,383 543,383 544,383 545,383 546,383 547,383 548,383 549,383 550,383 551,383 552,383 553,383 554,383 555,383 556,383 557,383 558,384 559,384 560,384 561,384 562,384 563,384 564,384 565,384 566,384 567,384 568,384 569,384 570,384 571,384 572,384 573,384 574,384 575,385 576,385 577,385 578,385 579,385 580,385 581,386 581,387 581,388 581,389 581,390 581,391 581,392 581,393 581,394 580,395 579,395 578,395 577,396 576,395 575,395 574,395 573,395 572,396 571,395 570,395 569,395 568,395 567,396 566,395 565,395 564,395 563,395 562,395 561,395 560,395 559,395 558,395 557,395 556,395 555,395 554,395 553,395 552,395 551,395 550,395 549,394 548,394 547,394 546,394 545,394 544,394 543,394 542,395 541,395 540,394 539,394 538,394 537,394 536,394 535,394 534,394 533,394 532,394 531,394 530,394 529,394 528,394 527,394 526,394 525,394 524,394 523,394 522,394 521,394 520,394 519,394 518,394 517,394 516,394 515,394 514,394 513,394 512,394 511,394 510,394 509,394 508,394 507,394 506,394 505,394 504,394 503,394 502,394 501,394 500,394 499,394 498,394 497,394 496,394 495,393 494,394 493,394 492,394 491,394 490,394 489,394 488,394 487,394 486,394 485,393 484,393 483,394 482,394 481,394 480,394 479,393 478,393 477,393 476,394 475,393 474,393 473,394 472,393 471,393 470,393 469,394 468,393 467,393 466,393 465,394 464,393 463,393 462,394 461,394 460,394 459,394 458,394 457,394 456,393 455,393 454,393 453,393 452,393 451,393 450,393 449,393 448,393 447,394 446,394 445,394 444,394 443,394 442,394 441,394 440,394 439,393 439,392 438,391 439,390 439,389 439,388 439,387 439,386 439,385 439,384 439,383 439,382 440,381 441,380 442,380 441,380 440,379 439,378 439,377 440,376 440,375 441,374 440,373 440,372 440,371 440,370 440,369 440,368 440,367 440,366 440,365 440,364 440,363 440,362 441,361 442,361 443,361 444,361 445,361 446,361 447,361 448,361 449,361 450,361 451,362 452,362 453,362 454,362 455,362 456,362 457,362 458,362 459,362 460,361 461,362 462,362 463,362 464,362 465,362 466,362 467,362 468,362 469,362 470,362 471,362 472,362 473,361 473,360 472,359 472,358 472,357 471,358 470,359 470,360 469,361 468,360 467,361 466,360 466,359 467,358 466,358 465,358 464,357 463,356 462,355 461,356 460,356 459,355 458,354 459,353 460,353 461,353 462,353 463,353 464,354 465,354 466,354 467,354 466,354 465,354 464,354 463,353 462,353 461,353 460,353 459,353 458,353 457,353 456,353 455,353 454,353 453,353 452,353 451,352 450,353 449,353 448,353 447,352 446,352 445,352 444,352 443,352 442,352 441,352 440,352 439,352 438,352 437,352 436,352 435,352 434,352 433,352 432,351 431,351 430,351 429,352 428,351 427,351 426,351 425,351 424,351 423,351 422,351 421,351 420,351 419,351 418,351 417,351 416,351 415,351 414,351 413,351 412,351 411,351 410,351 409,351 408,351 407,351 406,351 405,350 404,351 403,350 402,350 401,350 400,350">
      <metadata tailDirection="" confidence="0.17" linkedToCharacter="" id="CYB_MOUETTEMAN_004_balloon_8" tailTip=""></metadata>
    </polygon>
    <polygon points="362,132 362,133 362,134 362,135 362,136 362,137 362,138 362,139 362,140 362,141 362,142 362,143 362,144 362,145 362,146 362,147 362,148 362,149 362,150 362,151 362,152 362,153 362,154 362,155 362,156 362,157 362,158 362,159 362,160 362,161 362,162 362,163 362,164 362,165 362,166 362,167 362,168 363,169 363,170 363,171 363,172 363,173 362,174 362,175 362,176 362,177 362,178 362,179 362,180 363,181 363,182 363,183 363,184 363,185 363,186 363,187 363,188 363,189 363,190 363,191 363,192 363,193 363,194 363,195 363,196 363,197 363,198 363,199 362,200 363,201 363,202 363,203 363,204 363,205 363,206 363,207 363,208 363,209 363,210 363,211 363,212 363,213 363,214 363,215 363,216 363,217 363,218 363,219 363,220 364,221 365,221 366,221 367,221 368,221 369,222 370,222 371,222 372,222 373,223 374,223 375,223 376,223 377,224 378,224 379,224 380,224 381,225 382,225 383,225 384,225 385,226 386,226 387,226 388,226 389,227 390,227 391,227 392,227 393,228 394,228 395,229 396,230 397,231 397,232 398,233 398,234 399,235 399,236 399,237 399,238 399,239 399,240 399,241 399,242 399,243 399,244 399,245 399,246 399,247 399,248 399,249 399,250 399,251 398,252 398,253 398,254 399,255 399,256 399,257 399,258 399,259 399,260 399,261 399,262 399,263 400,264 400,265 400,266 399,267 399,268 399,269 400,270 400,271 400,272 401,273 401,274 401,275 402,276 401,277 400,277 400,278 400,279 401,280 401,281 401,282 401,283 401,284 401,285 401,286 401,287 401,288 401,289 401,290 401,291 401,292 401,293 401,294 401,295 401,296 401,297 401,298 401,299 401,300 401,301 401,302 400,303 400,304 400,305 400,306 400,307 400,308 400,309 400,310 400,311 400,312 400,313 400,314 400,315 401,316 401,317 400,318 400,319 401,320 401,321 401,322 400,323 400,324 400,325 400,326 400,327 400,328 400,329 400,330 400,331 401,332 402,332 403,332 404,332 405,332 406,332 407,332 408,332 409,333 410,333 411,333 412,333 413,333 414,333 415,333 416,333 417,333 418,333 419,333 420,333 421,333 422,333 423,333 424,334 425,333 426,333 427,333 428,334 429,334 430,334 431,334 432,334 433,334 434,334 435,334 436,334 437,334 438,334 439,334 440,335 441,335 442,335 443,335 444,335 445,335 446,335 447,335 448,335 449,335 450,335 451,335 452,335 453,335 454,335 455,336 456,336 457,336 458,336 459,336 460,336 461,336 462,336 463,337 464,337 465,337 466,337 467,337 468,338 469,338 470,338 471,338 472,338 473,338 474,338 475,338 476,338 477,338 478,338 479,339 480,338 481,339 482,339 483,339 484,339 485,339 486,339 487,339 488,339 489,339 490,339 491,339 492,339 493,339 494,340 495,340 496,340 497,340 498,340 499,340 500,340 501,340 502,341 503,341 504,341 505,341 506,341 507,341 508,342 509,342 510,342 511,342 512,342 513,342 514,342 515,342 516,342 517,342 518,343 519,343 520,343 521,343 522,343 523,343 524,343 525,343 526,343 527,344 528,344 529,344 530,344 531,344 532,344 533,344 534,344 535,344 536,344 537,345 538,345 539,345 540,345 541,345 542,345 543,345 544,345 545,346 546,346 547,346 548,346 549,346 550,346 551,346 552,346 553,346 554,346 555,346 556,346 557,347 558,347 559,347 560,347 561,347 562,347 563,347 564,347 565,347 566,347 567,347 568,348 569,348 570,347 571,348 572,348 573,348 574,348 575,348 576,348 577,348 578,348 579,349 580,348 581,348 582,349 583,349 584,349 585,349 586,349 587,349 588,349 589,350 590,350 591,350 592,350 593,350 594,350 595,350 596,350 597,350 598,351 599,351 600,351 601,351 602,351 603,351 604,351 605,351 606,351 607,351 608,351 609,351 610,351 611,351 612,351 613,351 614,351 615,351 616,352 617,352 618,352 619,352 620,352 621,352 622,352 623,352 624,352 625,352 626,352 627,352 628,352 629,352 630,352 631,353 632,353 633,353 634,353 635,353 636,353 637,353 638,353 639,353 640,353 641,353 642,353 643,354 644,354 645,354 646,354 646,353 646,352 646,351 646,350 646,349 646,348 646,347 646,346 646,345 646,344 646,343 646,342 646,341 646,340 646,339 646,338 645,337 645,336 645,335 645,334 645,333 645,332 645,331 645,330 645,329 645,328 645,327 645,326 645,325 645,324 645,323 645,322 645,321 645,320 645,319 644,318 644,317 644,316 644,315 644,314 644,313 644,312 644,311 644,310 644,309 644,308 644,307 644,306 644,305 644,304 644,303 644,302 644,301 644,300 644,299 644,298 644,297 644,296 644,295 644,294 644,293 644,292 644,291 644,290 644,289 644,288 644,287 644,286 644,285 644,284 644,283 644,282 644,281 644,280 644,279 644,278 644,277 644,276 644,275 644,274 644,273 644,272 644,271 644,270 644,269 644,268 643,267 643,266 644,265 644,264 644,263 644,262 644,261 644,260 644,259 643,258 643,257 644,256 643,255 643,254 643,253 643,252 643,251 643,250 643,249 643,248 643,247 643,246 643,245 643,244 644,243 644,242 644,241 644,240 644,239 644,238 644,237 644,236 644,235 644,234 644,233 644,232 644,231 644,230 644,229 644,228 644,227 644,226 644,225 644,224 644,223 644,222 644,221 644,220 644,219 644,218 644,217 644,216 644,215 644,214 644,213 644,212 645,211 644,210 645,209 645,208 645,207 645,206 645,205 644,204 644,203 644,202 644,201 644,200 644,199 644,198 644,197 643,197 642,197 641,197 640,196 639,196 638,195 637,195 636,195 635,194 634,194 633,194 632,194 631,193 630,193 629,193 628,193 627,193 626,193 625,193 624,192 623,192 622,192 621,192 620,192 619,191 618,191 617,191 616,190 615,190 614,190 613,190 612,190 611,189 610,189 609,189 608,188 607,188 606,188 605,188 604,188 603,188 602,187 601,187 600,187 599,187 598,186 597,186 596,186 595,186 594,185 593,185 592,185 591,184 590,184 589,184 588,183 587,183 586,183 585,183 584,183 583,183 582,182 581,182 580,182 579,182 578,182 577,182 576,181 575,181 574,181 573,180 572,180 571,180 570,179 569,179 568,179 567,179 566,178 565,178 564,178 563,177 562,177 561,177 560,177 559,177 558,177 557,176 556,176 555,176 554,176 553,176 552,175 551,175 550,175 549,174 548,174 547,174 546,174 545,173 544,173 543,173 542,173 541,173 540,173 539,172 538,172 537,172 536,172 535,172 534,172 533,171 532,171 531,171 530,170 529,170 528,170 527,170 526,169 525,169 524,169 523,168 522,168 521,168 520,168 519,168 518,168 517,167 516,167 515,167 514,167 513,166 512,166 511,166 510,166 509,165 508,165 507,165 506,165 505,164 504,164 503,164 502,163 501,163 500,163 499,162 498,162 497,162 496,162 495,162 494,161 493,161 492,161 491,161 490,161 489,160 488,160 487,160 486,160 485,159 484,159 483,159 482,159 481,158 480,158 479,158 478,158 477,158 476,157 475,157 474,157 473,157 472,157 471,157 470,157 469,156 468,156 467,156 466,156 465,155 464,155 463,155 462,155 461,154 460,154 459,154 458,154 457,154 456,154 455,153 454,153 453,153 452,153 451,153 450,152 449,152 448,152 447,151 446,151 445,151 444,151 443,151 442,151 441,151 440,150 439,150 438,150 437,150 436,149 435,149 434,149 433,149 432,148 431,148 430,148 429,147 428,147 427,147 426,147 425,147 424,146 423,146 422,146 421,146 420,146 419,145 418,145 417,145 416,145 415,144 414,144 413,144 412,144 411,143 410,143 409,143 408,143 407,143 406,142 405,142 404,141 403,141 402,141 401,141 400,141 399,140 398,140 397,140 396,139 395,139 394,139 393,139 392,138 391,138 390,138 389,138 388,137 387,137 386,137 385,137 384,136 383,136 382,136 381,136 380,136 379,135 378,135 377,135 376,135 375,135 374,135 373,134 372,134 371,134 370,134 369,133 368,133 367,133 366,133 365,132 364,132 363,132 362,132">
      <metadata tailDirection="" confidence="0.84" linkedToCharacter="" id="CYB_MOUETTEMAN_004_balloon_9" tailTip=""></metadata>
    </polygon>
    <polygon points="365,57 365,58 365,59 365,60 364,61 364,62 364,63 364,64 364,65 364,66 364,67 364,68 364,69 364,70 364,71 364,72 364,73 364,74 364,75 364,76 363,77 363,78 363,79 363,80 363,81 363,82 363,83 363,84 363,85 363,86 363,87 363,88 363,89 363,90 363,91 363,92 363,93 363,94 363,95 363,96 363,97 363,98 363,99 363,100 363,101 363,102 363,103 363,104 363,105 363,106 363,107 363,108 363,109 363,110 363,111 363,112 364,112 365,112 366,113 367,113 368,113 369,113 370,114 371,114 372,114 373,115 374,115 375,115 376,115 377,115 378,116 379,116 380,117 381,117 382,117 383,117 384,117 385,118 386,118 387,118 388,118 389,118 390,118 391,119 392,119 393,119 394,119 395,119 396,120 397,120 398,120 399,121 400,121 401,121 402,122 403,122 404,122 405,122 406,123 407,123 408,123 409,124 410,124 411,124 412,125 413,125 414,125 415,125 414,124 413,124 412,124 411,123 411,122 410,121 411,120 410,121 409,120 408,119 409,118 408,117 407,117 406,116 407,115 406,114 406,113 407,112 408,113 409,113 410,114 411,114 412,115 413,115 414,116 415,116 416,116 417,116 418,117 419,117 420,117 421,118 422,118 423,118 424,118 425,119 426,119 427,119 428,119 429,119 430,120 431,120 432,120 433,120 434,120 435,120 436,120 437,120 438,120 439,120 440,121 441,120 442,120 443,119 444,119 445,119 446,119 447,118 448,118 449,118 450,119 451,119 450,118 451,117 452,117 453,117 454,118 453,119 453,120 452,121 451,121 450,122 450,123 449,124 448,123 448,122 448,121 448,122 448,123 447,124 446,123 446,122 446,121 446,122 446,123 445,124 444,124 443,124 442,124 441,124 440,124 440,125 439,126 438,126 437,126 436,126 435,126 434,127 435,128 435,129 434,130 433,129 432,129 431,129 430,129 429,128 429,127 428,128 429,129 430,129 431,129 432,129 433,130 434,130 435,130 436,130 437,130 438,131 439,131 440,131 441,132 442,132 443,132 444,132 445,132 446,132 447,133 448,133 449,133 450,133 451,133 452,134 453,134 454,134 455,134 456,134 457,135 458,135 459,136 460,136 461,136 462,137 463,137 464,137 465,137 466,137 467,137 468,137 469,138 470,138 471,138 472,138 473,138 474,138 475,139 476,139 477,139 478,140 479,140 480,140 481,140 482,140 483,141 484,141 485,141 486,141 487,142 487,141 487,140 487,139 487,138 487,137 487,136 487,135 487,134 487,133 487,132 487,131 487,130 487,129 487,128 487,127 487,126 487,125 487,124 487,123 487,122 487,121 487,120 487,119 487,118 487,117 487,116 487,115 487,114 487,113 487,112 487,111 487,110 487,109 487,108 487,107 487,106 487,105 487,104 487,103 487,102 487,101 487,100 487,99 487,98 487,97 487,96 487,95 487,94 487,93 487,92 487,91 487,90 487,89 487,88 487,87 487,86 487,85 487,84 487,83 487,82 486,81 486,80 486,79 486,78 486,77 486,76 486,75 486,74 486,73 486,72 486,71 486,70 486,69 486,68 486,67 486,66 486,65 486,64 486,63 486,62 486,61 486,60 486,59 486,58 486,57 485,57 484,57 483,57 482,57 481,57 480,57 479,57 478,57 477,57 476,57 475,57 474,57 473,57 472,57 471,57 470,57 469,57 468,57 467,57 466,57 465,57 464,57 463,57 462,57 461,57 460,57 459,57 458,57 457,57 456,57 455,57 454,57 453,57 452,57 451,57 450,57 449,57 448,57 447,57 446,57 445,57 444,57 443,57 442,57 441,57 440,57 439,57 438,57 437,57 436,57 435,57 434,57 433,57 432,57 431,57 430,57 429,57 428,58 427,57 426,57 425,57 424,57 423,57 422,57 421,57 420,57 419,57 418,57 417,57 416,57 415,57 414,57 413,57 412,57 411,57 410,57 409,57 408,57 407,57 406,57 405,57 404,57 403,57 402,57 401,57 400,57 399,57 398,57 397,57 396,57 395,57 394,57 393,57 392,57 391,57 390,57 389,57 388,57 387,57 386,57 385,57 384,57 383,57 382,57 381,57 380,57 379,57 378,57 377,57 376,57 375,57 374,57 373,57 372,57 371,57 370,57 369,57 368,57 367,57 366,57 365,57">
      <metadata tailDirection="" confidence="0.74" linkedToCharacter="" id="CYB_MOUETTEMAN_004_balloon_10" tailTip=""></metadata>
    </polygon>
  </svg>
</svg>
