<?xml version="1.0" encoding="UTF-8" standalone="no"?>
<svg width="749" xmlns="http://www.w3.org/2000/svg" version="1.0" height="1052">
  <title>CYB_MOUETTEMAN_002</title>
  <svg contentScriptType="text/ecmascript" zoomAndPan="magnify" contentStyleType="text/css" class="Page" preserveAspectRatio="xMidYMid meet" version="1.0">
    <image xmlns:xlink="http://www.w3.org/1999/xlink" x="0" y="0" width="749" height="1052" xlink:href="../Images/CYB_MOUETTEMAN_002.jpg" xlink:type="simple" xlink:actuate="onLoad" preserveAspectRatio="xMidYMid meet" xlink:show="embed"/>
  </svg>
  <style type="text/css" xml:space="preserve">
        * { stroke-linejoin: round; }
        .Unclassified   { fill: orange; stroke: none;   opacity: 1.0; visibility: hidden; }
        .Noise          { fill: pink;   stroke: none;   opacity: 0.2; visibility: hidden; }
        .Panel          { fill: none;   stroke: red;    stroke-width:3; opacity: 0.5; visibility: visible; image-rendering: optimizeSpeed; }
        .Line           { fill: green;  stroke: none;   opacity: 0.5; visibility: visible; image-rendering: optimizeSpeed; }
        .TextArea       { fill: grey;   stroke: none;   opacity: 0.2; visibility: visible; image-rendering: optimizeSpeed; }
        .Balloon        { fill: cyan;   stroke: none;   opacity: 0.5; visibility: visible; image-rendering: optimizeSpeed; }
        .Letter         { fill: blue;   stroke: none;   opacity: 0.2; visibility: hidden; }
        .Object, .Character, .Face  { fill: yellow; stroke: none;   opacity: 0.5; visibility: visible; image-rendering: optimizeSpeed; }
        .Page           { fill: white;  stroke: none;    opacity: 0.5; visibility: visible; }
        .linkSBSC { fill: blue; stroke: none; opacity: 1.0; visibility: visible; }
        polygon:hover { opacity:1.0; stroke:red; }
</style>
  <svg xmlns="http://www.w3.org/2000/svg" contentScriptType="text/ecmascript" zoomAndPan="magnify" contentStyleType="text/css" class="Balloon" preserveAspectRatio="xMidYMid meet" version="1.0">
    <polygon points="359,960 358,961 357,961 356,962 355,962 354,963 353,963 352,964 352,965 351,966 351,967 351,968 350,969 350,970 350,971 350,972 349,973 349,974 349,975 349,976 349,977 349,978 349,979 349,980 349,981 350,981 351,982 352,983 352,984 351,985 350,984 351,985 351,986 352,987 353,988 353,989 353,990 353,991 353,992 353,993 354,994 355,995 356,995 355,995 354,994 353,993 353,992 353,991 353,990 353,989 353,988 352,987 353,986 354,986 355,985 356,985 357,985 358,985 359,986 359,987 359,988 359,989 359,990 359,991 359,992 360,993 360,994 360,995 360,996 360,997 360,996 360,995 360,994 360,993 360,992 359,991 359,990 359,989 359,988 359,987 359,986 360,985 361,986 362,987 362,988 362,989 363,990 363,991 364,992 364,993 365,994 366,994 367,993 367,992 367,991 367,990 367,989 367,988 367,987 367,986 366,985 367,984 368,983 369,982 370,983 370,984 369,985 369,986 370,986 371,985 372,985 373,984 374,984 375,984 376,984 377,984 378,984 379,984 380,985 381,985 382,985 383,985 384,985 385,985 385,984 386,983 385,983 384,983 383,983 382,983 381,983 380,983 379,983 378,983 377,982 377,981 378,980 379,981 380,981 381,981 382,981 383,981 384,981 385,980 386,980 387,980 388,980 389,980 390,980 391,981 391,982 390,983 390,984 390,985 390,986 390,987 390,988 389,989 389,990 389,991 388,992 388,993 387,994 386,995 385,995 384,994 383,993 383,992 384,991 384,990 384,989 383,989 382,989 381,988 380,988 379,988 378,988 377,988 376,988 376,989 377,990 378,991 379,991 380,992 381,993 382,993 383,993 384,994 384,995 385,996 385,997 386,998 386,999 386,1000 386,1001 386,1000 386,999 387,998 388,997 388,996 389,995 390,994 391,994 392,994 393,993 394,993 395,992 396,992 397,991 398,990 398,989 399,988 399,987 398,987 397,986 396,986 396,987 396,988 395,989 394,990 393,990 392,990 391,989 392,988 393,987 393,986 392,985 391,984 391,983 392,982 393,981 393,980 394,979 395,979 396,980 397,980 398,980 399,980 400,980 401,980 400,979 400,978 400,977 400,976 399,975 399,974 399,973 399,972 399,971 399,970 399,969 398,968 398,967 398,966 397,966 396,966 395,966 394,966 393,966 392,966 391,967 390,967 389,967 390,967 391,967 392,967 393,968 392,969 391,969 390,969 389,970 388,970 387,969 386,969 385,969 384,969 383,969 382,969 381,969 380,969 379,969 378,969 377,969 376,969 375,969 374,969 373,969 373,970 374,970 375,970 376,969 377,969 378,969 379,969 380,969 381,970 382,971 381,972 380,972 379,972 378,972 377,972 376,972 375,972 374,973 373,973 372,973 371,973 370,973 369,974 368,975 367,974 366,974 365,975 364,975 363,974 362,975 361,975 360,974 360,973 360,972 360,971 361,970 361,969 361,968 361,967 361,966 361,965 362,964 362,963 362,962 361,961 360,961 359,960">
      <metadata tailDirection="" confidence="0.66" linkedToCharacter="" id="CYB_MOUETTEMAN_002_balloon_0" tailTip=""></metadata>
    </polygon>
    <polygon points="434,914 433,915 432,916 431,917 430,917 429,917 428,917 427,918 427,919 427,920 427,921 427,922 427,923 427,924 427,925 428,926 428,927 428,928 429,929 429,930 430,931 430,932 430,933 430,934 429,935 429,936 429,937 428,938 428,939 428,940 427,941 427,942 427,943 427,944 427,945 427,946 427,947 427,948 427,949 427,950 427,951 427,952 427,953 427,954 427,955 427,956 427,957 427,958 427,959 427,960 426,961 425,961 424,960 424,959 424,958 424,957 424,956 424,955 424,954 424,953 424,952 424,951 424,950 424,949 424,950 424,951 424,952 424,953 424,954 424,955 424,956 424,957 424,958 424,959 424,960 423,961 422,962 421,961 421,960 421,959 421,958 420,959 420,960 419,961 418,962 418,963 418,964 419,965 419,966 419,967 419,968 419,969 419,970 419,971 420,972 420,973 419,974 418,973 417,972 417,971 417,970 417,969 416,968 416,967 416,966 415,965 414,964 413,965 412,965 411,965 410,964 409,964 408,963 407,963 406,963 405,964 404,964 403,965 402,965 401,965 401,966 402,967 402,968 402,969 402,970 402,971 403,972 403,973 403,974 403,975 403,976 403,977 403,978 404,979 404,980 405,980 406,979 407,979 408,979 408,978 408,977 408,976 408,975 407,974 407,973 407,972 407,971 407,970 407,969 406,968 406,967 405,966 406,965 407,965 408,965 409,966 409,967 410,968 411,969 412,970 412,971 412,972 411,973 411,974 411,975 411,976 412,976 413,977 413,978 413,979 413,980 413,981 413,982 414,983 413,984 412,985 411,986 410,987 409,988 409,989 408,990 407,989 407,988 407,987 408,986 409,985 408,985 407,986 406,986 405,986 404,986 403,986 402,987 402,988 402,989 401,990 400,991 399,992 398,993 397,994 397,995 397,996 397,997 397,998 398,998 399,999 400,998 401,998 402,997 403,997 404,997 405,997 406,998 407,999 408,998 408,997 408,996 408,995 409,994 410,994 411,995 412,994 412,993 412,992 413,991 414,992 415,991 415,990 416,989 417,989 418,989 419,990 420,990 421,990 422,990 423,989 424,989 425,989 425,988 425,987 425,986 425,985 425,984 425,983 426,982 427,982 428,983 428,984 428,985 428,986 428,987 429,986 430,986 431,986 432,985 433,985 434,985 435,985 436,986 437,986 438,987 439,988 440,989 440,990 441,991 440,992 439,992 438,991 437,990 436,989 435,989 434,988 433,988 432,989 431,989 430,989 429,990 428,990 427,991 426,992 425,992 424,992 425,993 426,994 427,995 428,996 428,997 428,996 428,995 428,994 428,993 429,992 430,991 431,990 432,990 433,990 434,990 435,991 436,992 437,993 438,994 438,995 439,996 439,997 439,998 439,999 440,1000 440,1001 440,1002 440,1003 441,1004 441,1005 442,1006 443,1007 443,1008 443,1009 444,1010 444,1011 444,1012 445,1013 445,1014 445,1015 445,1016 444,1017 444,1018 444,1019 445,1020 446,1021 447,1022 448,1022 449,1023 450,1024 451,1024 452,1025 453,1026 454,1027 455,1028 456,1029 457,1030 458,1031 458,1032 459,1033 460,1033 461,1032 462,1032 463,1032 464,1032 465,1033 466,1033 467,1033 468,1032 469,1033 469,1032 469,1031 469,1030 470,1029 471,1028 472,1028 473,1027 474,1026 475,1025 475,1024 476,1023 477,1022 477,1021 476,1021 475,1021 474,1020 473,1020 472,1020 471,1021 470,1021 469,1022 468,1023 467,1024 467,1025 466,1026 466,1027 466,1028 466,1029 466,1030 465,1031 464,1030 464,1029 463,1029 462,1028 463,1027 464,1026 464,1025 464,1024 465,1023 466,1022 467,1021 468,1020 469,1019 470,1019 469,1018 469,1017 469,1016 470,1015 471,1015 472,1016 473,1017 474,1017 475,1017 476,1017 477,1018 478,1018 479,1017 478,1017 477,1016 477,1015 478,1014 479,1013 478,1013 477,1013 476,1013 475,1014 474,1014 473,1014 472,1014 471,1014 470,1014 469,1013 469,1014 469,1015 469,1016 468,1017 467,1017 466,1018 465,1018 464,1019 463,1020 462,1021 461,1022 461,1023 461,1024 460,1025 459,1025 458,1024 458,1023 459,1022 459,1021 460,1020 459,1020 458,1020 457,1020 456,1020 455,1020 454,1020 453,1020 452,1020 451,1020 450,1020 449,1020 448,1019 447,1019 446,1018 446,1017 446,1016 446,1015 447,1014 448,1013 449,1013 449,1012 449,1011 449,1010 449,1009 449,1008 449,1007 448,1006 448,1005 447,1004 447,1003 447,1002 447,1001 446,1000 445,1000 444,1000 443,1000 442,1000 441,999 440,998 439,997 439,996 439,995 440,994 441,994 442,995 442,996 443,996 444,996 445,997 446,997 446,996 445,995 444,994 443,994 442,993 442,992 441,991 441,990 440,989 440,988 441,987 442,986 442,985 442,984 441,983 442,982 443,982 444,981 445,982 446,983 446,984 446,983 447,982 448,982 449,982 450,982 451,983 452,982 453,982 454,982 455,983 456,983 457,983 458,983 459,983 460,983 461,983 462,983 463,983 464,984 465,984 466,984 467,984 468,984 469,985 470,985 471,986 470,987 471,987 472,987 473,987 474,987 474,986 474,985 475,984 476,984 477,984 478,984 479,984 480,983 481,983 481,982 481,981 482,980 482,979 482,978 482,977 482,976 482,975 481,974 481,973 481,972 481,971 481,970 481,969 482,968 483,967 484,968 484,969 484,970 484,971 485,972 485,973 485,974 485,975 486,976 486,977 486,978 486,979 487,979 488,979 489,980 490,979 491,979 492,979 493,979 494,979 494,978 493,977 493,976 493,975 493,974 493,973 493,972 493,971 492,970 492,969 492,968 491,967 491,966 490,965 489,964 489,963 490,962 491,963 492,964 493,964 494,964 495,965 496,965 497,966 498,967 498,968 499,969 499,970 499,971 500,972 501,973 501,974 502,974 502,973 502,972 502,971 501,970 501,969 500,968 500,967 501,966 502,966 503,967 504,968 505,969 506,968 507,967 508,967 509,966 510,966 511,967 511,968 511,969 510,970 509,971 509,972 508,973 507,974 507,975 506,976 505,977 504,978 503,977 504,978 504,979 503,980 502,981 501,982 502,982 503,982 504,982 505,981 506,980 507,981 508,982 509,983 510,983 511,984 511,983 511,982 510,981 509,980 508,979 507,978 507,977 508,976 509,975 510,976 511,977 511,978 511,977 511,976 511,975 511,974 511,973 511,972 511,971 511,970 511,969 511,968 511,967 511,966 511,965 511,964 511,963 511,962 511,961 511,960 511,959 511,958 511,957 511,956 511,955 511,954 511,953 511,952 511,951 511,950 511,949 511,948 511,947 511,946 511,945 511,944 511,943 511,942 511,941 511,940 511,939 511,938 510,939 509,938 508,937 508,936 507,935 507,934 506,934 506,935 506,936 505,937 504,938 503,938 502,938 501,938 501,939 501,940 501,941 501,942 501,943 500,944 499,944 498,945 497,945 496,946 495,946 494,946 493,946 493,947 493,948 493,949 493,950 493,951 493,952 494,952 495,952 496,953 497,954 496,955 495,955 494,955 493,955 492,954 491,954 490,954 489,953 489,952 489,951 489,950 489,949 490,948 491,947 490,947 490,948 489,949 489,950 488,951 487,951 486,951 485,951 485,952 484,953 483,953 482,952 482,951 482,950 483,949 482,949 481,948 480,947 479,946 479,945 478,945 477,945 476,945 475,946 474,946 473,945 474,944 473,945 472,945 471,946 470,946 469,945 468,945 467,945 468,946 468,947 468,948 468,949 467,950 466,951 465,952 464,952 463,952 462,952 463,952 464,953 465,954 465,955 464,956 464,957 463,958 464,958 465,958 466,958 467,958 468,958 469,958 470,958 471,957 472,956 472,955 471,955 470,954 470,953 471,952 472,952 473,952 474,952 475,952 476,951 477,951 478,951 479,952 479,953 478,954 477,954 476,955 477,956 477,957 476,958 475,958 474,958 473,959 473,960 473,961 473,962 474,962 475,963 476,963 477,963 478,962 478,961 479,960 479,959 480,958 481,958 482,959 482,960 482,961 483,961 484,961 485,962 484,963 483,964 482,964 481,964 480,965 479,965 478,965 477,966 476,966 475,966 474,966 473,966 472,965 471,965 470,964 469,964 468,964 467,964 466,964 465,964 464,964 463,964 462,964 461,963 460,963 459,964 458,965 457,965 456,965 455,965 454,965 453,964 453,963 452,963 451,963 450,963 449,963 448,963 447,962 446,961 445,962 444,962 443,962 442,961 442,960 442,959 441,958 441,957 442,956 443,955 444,955 445,955 446,954 447,954 448,953 447,953 446,953 445,954 444,955 443,955 442,955 441,955 440,954 439,953 439,952 438,951 438,950 438,949 438,948 437,947 437,946 437,945 437,944 437,943 436,942 436,941 436,940 436,939 435,938 435,937 435,936 434,935 434,934 434,933 433,932 433,931 433,930 433,929 433,928 432,927 433,926 432,925 432,924 432,923 432,922 432,921 432,920 431,919 431,918 431,917 432,916 433,915 434,914">
      <metadata tailDirection="" confidence="0.51" linkedToCharacter="" id="CYB_MOUETTEMAN_002_balloon_1" tailTip=""></metadata>
    </polygon>
    <polygon points="306,873 306,874 305,875 305,876 305,877 305,878 305,879 305,880 305,881 305,882 305,883 304,884 304,885 304,886 304,887 304,888 304,889 304,890 304,891 304,892 304,893 304,894 304,895 304,896 304,897 304,898 304,899 304,900 304,901 304,902 304,903 304,904 304,905 304,906 304,907 304,908 304,909 305,910 305,911 305,912 306,913 306,914 306,915 307,916 308,917 308,918 308,919 308,920 307,921 306,921 305,922 304,922 303,922 302,922 301,923 300,924 299,924 298,924 297,923 297,922 296,921 297,920 297,919 297,918 297,917 297,916 297,915 298,914 298,913 299,912 299,911 298,911 298,912 297,913 296,913 295,912 296,911 295,911 294,911 293,911 294,912 293,913 292,913 291,914 290,914 289,913 289,912 289,911 289,910 289,909 289,908 289,907 289,906 289,905 289,904 288,904 287,904 286,903 287,902 286,902 285,901 284,900 284,899 285,898 286,898 287,899 287,898 287,897 286,896 287,895 288,895 289,895 290,894 289,894 288,894 287,894 286,894 285,894 284,893 283,893 282,893 283,894 283,895 282,896 281,896 280,896 279,896 278,895 279,894 279,893 278,892 278,893 278,894 278,895 277,896 278,897 278,898 278,899 278,900 278,901 278,902 278,903 279,903 279,902 279,901 279,900 279,899 279,898 280,897 281,897 282,898 282,899 281,900 282,901 281,902 281,903 282,903 282,902 282,901 282,900 282,899 282,898 282,897 282,896 283,895 284,895 285,896 284,897 284,898 284,899 284,900 284,901 284,902 284,903 285,904 286,905 286,906 286,907 286,908 285,909 284,908 283,909 282,908 282,907 282,906 281,907 280,907 279,907 278,906 278,905 277,905 276,905 277,905 278,906 278,907 277,908 276,908 275,908 274,908 273,909 272,908 271,909 270,908 270,909 269,910 268,910 267,910 266,910 265,910 264,911 264,912 263,913 262,912 261,911 260,911 259,910 258,911 257,912 256,911 255,910 254,910 254,911 253,912 252,913 251,912 250,911 251,910 251,909 251,908 250,908 249,909 248,910 247,911 246,911 245,911 244,912 243,913 244,913 245,914 245,915 244,916 243,916 243,917 244,917 245,918 246,919 246,920 246,921 245,922 244,923 243,922 242,922 243,922 244,923 243,924 242,924 242,925 242,926 242,927 243,928 243,929 243,930 243,931 244,932 244,933 245,934 244,935 243,935 242,934 241,934 240,935 239,935 238,935 237,936 236,936 235,936 235,937 235,938 235,939 236,940 237,940 238,941 238,942 238,943 238,944 238,945 238,946 239,947 240,946 241,946 241,945 241,944 241,943 241,942 242,941 243,942 243,943 243,944 244,945 245,945 246,945 247,945 248,944 249,944 250,945 251,945 252,945 253,946 253,947 253,946 254,945 255,946 256,946 257,945 258,944 259,943 260,942 261,942 262,943 262,944 261,945 260,946 259,947 258,948 257,949 257,950 256,951 256,952 256,953 255,954 255,955 256,955 257,956 256,957 255,957 254,957 254,958 254,959 254,960 254,961 254,962 254,963 254,964 254,965 254,966 254,967 253,968 252,967 252,968 253,969 252,970 251,970 250,969 249,969 248,968 247,967 246,967 245,967 244,968 243,968 242,968 241,969 242,970 242,971 243,972 243,973 243,974 243,975 243,976 243,977 243,978 243,979 243,980 243,981 243,982 243,983 243,984 243,985 242,986 241,985 240,984 239,983 239,982 238,981 238,982 239,983 239,984 240,985 240,986 240,987 241,988 241,989 241,990 240,991 239,992 238,991 237,991 238,992 238,993 238,994 239,995 240,996 241,996 242,995 243,994 244,994 245,993 246,992 247,992 248,992 249,993 249,994 249,995 248,996 248,997 247,998 246,999 247,999 248,999 249,998 250,998 251,998 252,998 253,998 254,998 255,998 256,998 257,999 257,1000 257,1001 256,1002 255,1003 256,1003 257,1003 258,1003 259,1003 260,1004 261,1004 262,1004 263,1005 264,1005 265,1006 266,1006 267,1007 266,1008 265,1009 264,1010 264,1011 265,1010 266,1010 267,1009 268,1009 269,1008 270,1007 270,1006 269,1006 268,1005 267,1005 266,1004 265,1003 265,1002 265,1001 266,1000 266,999 266,998 266,997 266,996 266,995 267,994 268,995 268,996 268,997 269,996 270,995 271,994 272,994 273,993 274,992 275,991 275,990 274,989 273,989 272,988 271,987 270,986 269,985 269,984 268,983 268,982 267,981 267,980 266,981 265,981 264,982 264,983 265,984 265,985 265,986 265,987 264,988 264,989 263,990 262,991 262,992 261,993 260,994 260,995 259,996 258,996 257,995 257,994 257,993 257,992 257,991 257,990 258,989 258,988 258,987 258,986 258,985 258,984 258,983 257,982 258,981 259,981 260,980 261,979 262,979 263,979 264,979 265,978 266,978 266,977 266,976 265,975 265,974 265,973 265,972 264,971 264,970 264,969 264,968 263,969 262,969 261,968 261,967 262,966 263,966 264,966 264,965 264,964 264,963 264,962 264,961 264,960 265,959 265,958 265,957 266,956 266,955 267,954 268,953 268,952 269,951 270,951 271,950 272,949 273,948 274,948 275,948 276,949 276,948 275,947 275,946 275,945 274,944 273,943 273,944 272,945 271,944 270,943 270,942 270,943 269,944 268,944 269,944 270,944 271,945 271,946 270,947 269,947 268,947 267,948 266,949 265,949 264,950 264,951 263,952 263,953 262,954 262,955 261,956 261,957 261,958 261,959 260,960 260,961 260,962 260,963 260,964 259,965 258,964 257,963 257,962 258,961 258,960 258,959 258,958 258,957 258,956 259,955 259,954 258,955 257,954 257,953 257,952 258,951 259,950 259,949 260,948 261,947 262,946 263,946 263,945 263,944 264,943 265,942 266,942 267,942 266,941 267,940 268,940 269,940 270,940 271,939 272,939 273,938 274,937 275,936 276,937 277,938 277,939 278,940 278,941 278,942 279,943 279,944 279,945 279,946 280,947 280,948 280,949 281,948 282,948 283,948 284,947 285,947 286,947 287,947 288,948 289,949 290,950 290,951 290,952 290,953 290,954 289,955 289,956 288,957 287,958 286,959 287,958 288,957 289,956 290,955 291,955 292,954 293,954 294,954 295,954 296,954 297,955 298,955 299,955 300,956 301,957 301,958 301,959 301,960 300,961 300,962 299,963 298,964 297,964 297,965 298,966 298,967 298,968 298,969 297,970 297,971 297,972 296,973 295,974 295,975 296,976 297,977 298,978 298,979 299,980 299,981 299,982 299,983 299,984 299,985 299,986 299,987 298,988 298,989 297,990 296,991 295,991 294,992 293,992 293,993 293,994 294,995 294,996 294,997 295,998 295,999 295,1000 295,1001 295,1002 295,1003 295,1004 295,1005 295,1006 295,1007 295,1008 294,1009 293,1009 292,1010 291,1010 290,1010 289,1011 289,1012 289,1013 289,1014 288,1015 288,1016 288,1017 287,1018 287,1019 286,1020 285,1021 285,1022 284,1023 284,1024 283,1025 282,1026 281,1027 280,1027 279,1028 278,1029 277,1029 276,1030 276,1031 276,1032 276,1033 277,1033 277,1032 278,1031 279,1030 280,1030 281,1030 282,1029 283,1029 284,1028 285,1027 286,1026 285,1025 286,1024 287,1023 287,1022 288,1021 288,1020 289,1019 289,1018 290,1017 290,1016 291,1015 291,1014 292,1013 293,1013 294,1013 295,1012 296,1012 297,1012 298,1012 299,1012 300,1013 300,1014 301,1015 301,1016 302,1016 303,1016 304,1015 305,1014 306,1013 306,1012 307,1011 308,1010 309,1009 309,1008 310,1007 310,1006 310,1005 310,1004 310,1003 309,1004 309,1005 308,1006 307,1007 307,1008 306,1009 305,1010 304,1011 303,1012 303,1013 302,1014 301,1014 300,1013 300,1012 300,1011 300,1010 300,1009 300,1008 299,1009 298,1009 297,1009 296,1008 296,1007 297,1006 298,1005 299,1005 300,1005 301,1005 302,1005 302,1004 303,1003 304,1002 304,1001 304,1000 304,999 303,998 303,997 303,996 303,995 303,994 303,993 302,992 302,991 302,990 302,989 302,988 301,987 301,986 301,985 301,984 301,983 301,982 301,981 300,980 300,979 299,979 298,978 297,977 296,976 297,975 298,974 298,973 299,972 299,971 299,970 300,969 301,968 302,968 303,967 304,968 305,968 306,968 307,968 308,967 309,967 310,967 311,967 312,967 313,966 314,966 313,966 312,966 311,966 310,966 309,966 308,966 307,967 306,967 305,967 304,967 303,967 302,968 301,968 300,969 299,968 299,967 299,966 300,965 301,965 302,965 303,964 304,964 305,964 306,963 307,963 308,963 309,963 310,963 311,963 312,963 313,963 313,962 313,961 313,960 314,959 315,959 316,959 317,959 318,959 319,959 320,959 321,960 321,961 320,962 321,961 322,961 323,961 324,961 325,961 326,961 327,961 328,962 329,963 329,964 329,965 329,966 329,967 328,968 327,968 326,969 325,969 324,969 323,969 322,969 321,969 320,969 319,969 318,968 318,967 318,966 318,967 317,968 317,969 318,969 319,969 320,969 321,969 322,969 323,970 323,971 324,971 325,971 326,971 327,971 328,970 329,970 330,970 331,971 332,972 333,973 334,974 334,975 335,974 336,974 337,974 338,974 339,974 340,973 341,973 342,972 343,972 344,972 345,972 346,972 347,971 347,970 347,969 348,968 347,967 346,968 345,967 344,967 343,966 344,965 345,964 346,964 347,965 348,965 349,965 349,964 350,963 350,962 349,961 349,960 348,959 348,958 347,957 347,956 346,955 346,954 345,953 345,952 344,951 344,950 343,949 342,948 342,947 341,946 341,945 340,944 340,943 339,942 339,941 338,940 338,939 338,938 338,937 338,936 338,935 338,934 338,933 339,932 339,931 340,930 340,929 341,928 341,927 341,926 342,925 342,924 343,923 343,922 343,921 344,920 344,919 345,918 345,917 345,916 346,915 346,914 347,913 348,912 349,911 349,910 349,909 350,908 351,907 350,906 349,907 349,908 348,909 348,910 348,911 348,912 347,913 346,913 345,913 344,912 344,911 345,910 345,909 345,908 345,907 346,906 346,905 345,904 345,903 345,902 345,901 344,900 344,899 343,899 342,900 342,901 342,902 342,903 342,904 342,905 342,906 342,907 342,908 341,909 340,909 339,908 339,907 338,906 338,905 339,904 338,903 339,902 338,903 337,904 336,905 336,906 336,907 335,908 334,909 333,909 332,908 333,907 333,906 333,905 334,904 334,903 334,902 335,901 335,900 336,899 336,898 336,897 337,896 337,895 337,894 338,893 338,892 339,891 340,890 341,891 341,890 341,889 341,888 341,887 341,886 340,885 339,885 338,885 337,885 336,884 335,884 334,884 333,884 332,884 331,883 330,883 329,882 328,882 327,882 326,881 325,881 324,880 323,880 322,879 321,879 320,878 319,877 318,877 317,876 316,876 315,875 314,874 313,874 312,874 311,874 310,874 309,874 308,873 307,873 306,873">
      <metadata tailDirection="" confidence="0.72" linkedToCharacter="" id="CYB_MOUETTEMAN_002_balloon_2" tailTip=""></metadata>
    </polygon>
    <polygon points="342,817 341,818 340,818 339,818 338,818 337,818 336,819 335,819 334,819 333,819 332,820 331,820 330,821 329,821 328,821 327,822 326,822 325,823 324,823 323,824 322,824 321,825 320,825 319,826 318,827 317,827 316,828 315,829 314,830 313,830 312,831 311,832 311,833 310,834 309,835 309,836 308,837 307,838 307,839 306,840 306,841 306,842 305,843 305,844 305,845 304,846 304,847 304,848 304,849 304,850 304,851 304,852 304,853 305,854 305,855 305,856 306,857 306,858 306,859 307,860 307,861 308,862 308,863 309,864 310,865 311,866 311,867 312,868 313,869 314,869 315,870 316,871 317,872 318,872 319,873 320,874 321,874 322,875 323,875 324,876 325,876 326,877 327,877 328,878 329,878 330,878 331,879 332,879 333,879 334,880 335,880 336,880 337,880 338,881 339,881 340,881 341,881 342,882 343,882 344,882 345,883 345,884 345,885 345,886 345,887 345,888 345,889 344,890 345,891 345,892 345,893 345,894 346,895 346,896 346,897 347,898 347,899 348,900 348,901 348,900 348,899 348,898 347,897 347,896 347,895 347,894 347,893 347,892 347,891 347,890 348,889 348,888 348,887 348,886 349,885 349,884 350,883 351,883 352,882 353,882 354,882 355,882 356,882 357,882 358,882 359,882 360,882 361,882 362,882 363,882 364,882 365,881 366,881 367,881 368,881 369,880 370,880 371,880 372,880 373,879 374,879 375,879 376,878 377,878 378,878 379,877 380,877 381,876 382,876 383,875 384,875 385,874 386,874 387,873 388,872 389,872 390,871 391,870 392,869 393,868 394,867 395,866 396,865 397,864 397,863 398,862 399,861 399,860 400,859 400,858 400,857 401,856 401,855 401,854 401,853 402,852 402,851 402,850 402,849 402,848 402,847 402,846 401,845 401,844 401,843 400,842 400,841 400,840 399,839 399,838 398,837 397,836 397,835 396,834 395,833 395,832 394,831 393,830 392,830 391,829 390,828 389,827 388,827 387,826 386,825 385,825 384,824 383,824 382,823 381,823 380,822 379,822 378,821 377,821 376,821 375,820 374,820 373,820 372,819 371,819 370,819 369,819 368,818 367,818 366,818 365,818 364,817 363,817 362,817 361,817 360,817 359,817 358,817 357,817 356,817 355,817 354,817 353,817 352,817 351,817 350,817 349,817 348,817 347,817 346,817 345,817 344,817 343,817 342,817">
      <metadata tailDirection="" confidence="0.97" linkedToCharacter="" id="CYB_MOUETTEMAN_002_balloon_3" tailTip=""></metadata>
    </polygon>
    <polygon points="309,558 308,559 308,560 308,561 307,562 307,563 306,564 305,565 306,565 307,566 308,566 309,567 310,567 311,567 312,568 313,569 314,569 315,569 316,570 317,570 318,571 319,571 320,571 321,572 322,572 323,572 324,572 325,573 326,573 327,573 328,573 329,574 330,574 331,574 332,575 333,576 334,576 335,576 336,576 337,577 338,578 339,578 340,577 341,578 342,579 342,580 341,581 341,582 341,583 341,584 341,585 341,586 341,587 341,588 341,589 341,590 341,591 341,592 341,593 342,594 342,595 342,596 342,597 342,598 342,599 341,600 341,601 341,602 341,603 341,604 341,605 341,606 341,607 341,608 341,609 341,610 340,611 340,612 339,613 338,613 337,613 336,613 335,613 334,612 333,611 333,612 333,613 332,614 331,615 330,615 329,614 328,614 327,614 326,615 327,616 328,617 327,618 326,619 325,619 324,619 323,619 322,618 321,618 320,617 319,617 318,617 317,616 316,616 315,615 314,615 313,615 312,614 311,614 310,614 309,614 308,614 307,614 306,614 305,615 305,616 305,617 305,618 305,619 305,620 305,621 305,622 305,623 305,624 304,625 304,626 304,627 304,628 304,629 304,630 304,631 304,632 304,633 304,634 304,635 304,636 304,637 304,638 304,639 304,640 304,641 304,642 304,643 304,644 304,645 304,646 304,647 304,648 304,649 304,650 305,651 305,652 305,653 306,654 306,655 306,656 307,657 308,658 308,659 308,660 307,661 306,662 305,662 304,663 303,663 302,664 301,664 300,664 299,665 298,665 297,665 296,666 295,666 294,666 293,666 292,666 291,666 290,666 289,666 288,666 287,666 286,666 285,666 284,666 283,665 282,665 281,665 280,665 279,664 278,664 277,664 276,664 275,664 274,664 273,664 272,664 271,664 270,664 269,663 268,663 267,663 266,663 265,663 264,663 263,663 262,663 261,663 260,663 259,663 258,663 257,663 256,662 255,661 255,660 255,659 254,658 255,657 255,656 255,655 255,654 254,654 253,653 252,653 251,652 251,651 251,650 251,649 251,648 250,649 249,650 248,651 247,652 246,652 245,651 245,650 246,649 246,648 245,647 245,646 245,645 245,644 246,643 246,642 246,641 246,640 246,639 246,638 246,637 246,636 246,635 247,634 247,633 247,632 247,631 247,630 247,629 247,628 247,627 247,626 247,625 247,624 248,623 249,623 248,622 248,621 248,620 248,619 248,618 248,617 249,616 249,615 249,614 249,613 249,612 249,611 249,610 250,609 249,608 249,607 249,606 249,605 249,604 249,603 249,602 249,601 249,600 249,599 249,598 249,597 249,596 249,595 249,594 249,593 249,592 249,591 248,591 247,591 247,592 246,593 245,593 246,594 245,595 244,595 243,595 243,596 242,597 241,597 240,597 239,597 238,598 237,598 238,599 237,600 238,599 239,600 240,600 241,601 240,602 239,603 238,603 239,603 240,604 239,605 238,605 237,606 236,606 236,607 236,608 236,609 237,610 237,611 237,612 237,613 237,614 238,614 239,615 240,616 240,617 241,617 242,618 241,619 240,619 239,619 238,619 237,620 236,621 236,622 237,623 238,623 239,624 239,625 238,626 237,626 237,627 237,628 238,628 239,628 240,628 241,629 240,630 239,630 239,631 238,632 237,632 237,633 238,633 239,634 240,635 239,636 238,637 237,637 236,637 237,637 238,638 239,638 240,638 241,639 242,640 241,641 240,641 239,642 238,642 237,642 238,642 239,642 240,643 239,644 240,643 241,644 241,645 241,646 241,647 242,648 243,648 244,648 245,649 244,650 243,651 242,651 241,652 240,651 241,652 242,653 241,654 242,654 243,655 242,656 241,656 240,657 240,658 241,658 242,659 243,660 242,661 241,661 240,661 239,662 240,662 241,662 242,661 243,662 243,663 242,664 241,664 240,665 241,666 240,667 240,668 241,667 242,666 243,667 244,668 244,669 244,670 243,671 242,672 243,672 244,673 245,674 244,675 243,675 242,675 241,674 240,674 241,674 242,675 241,676 241,677 241,678 240,679 239,679 240,679 241,680 242,680 243,681 242,682 241,682 240,682 239,682 239,683 240,684 239,685 240,685 241,684 242,683 243,682 244,681 244,680 245,679 246,678 247,677 248,676 249,675 250,675 251,674 252,674 253,673 254,673 255,673 256,673 257,674 258,673 259,673 260,672 261,673 262,673 263,672 264,673 265,673 266,673 267,673 268,673 269,673 270,674 271,674 272,674 273,675 273,676 274,675 275,676 275,677 276,678 276,679 277,680 278,681 278,682 278,683 279,684 279,685 279,686 280,687 280,688 280,689 280,690 280,691 280,692 279,693 278,694 277,694 276,693 276,692 276,691 276,690 276,689 275,688 275,687 275,686 274,685 274,684 273,684 272,684 271,685 270,684 270,683 270,682 269,682 268,682 267,682 266,681 267,680 268,680 268,679 267,679 266,678 265,678 264,677 263,678 262,678 261,677 260,677 259,678 258,677 257,678 256,678 255,679 254,679 253,680 252,681 251,682 251,683 251,684 250,685 249,686 250,686 251,686 252,686 253,687 254,688 253,689 252,689 251,689 250,689 249,689 248,689 248,690 248,691 248,692 248,693 248,694 247,695 246,695 247,695 248,696 248,697 247,698 248,697 249,697 249,696 250,695 251,696 250,695 251,694 252,694 253,693 254,693 254,692 255,691 254,691 253,690 254,689 254,688 255,687 256,687 257,687 258,687 259,686 260,686 261,686 262,686 263,685 263,684 264,683 265,683 266,683 267,682 268,682 269,682 270,683 269,684 268,685 267,685 267,686 266,687 265,686 264,687 265,687 266,687 267,688 266,689 265,690 264,689 263,689 262,689 263,689 264,690 263,691 262,691 261,692 260,692 259,693 260,694 259,695 258,695 257,696 256,696 256,697 255,698 255,699 254,700 253,701 252,701 251,702 252,703 253,704 254,703 255,704 256,704 257,705 258,706 257,707 256,707 255,706 254,706 253,706 254,706 255,707 256,707 257,707 258,707 259,706 258,706 257,705 256,704 257,703 258,702 259,703 260,703 261,703 262,703 263,704 262,705 262,706 261,707 262,706 263,706 264,707 264,708 263,709 262,709 261,710 260,710 259,711 258,711 257,711 256,712 255,711 254,711 253,711 252,711 251,711 250,710 249,709 248,708 247,707 246,707 245,706 244,705 243,704 242,703 241,704 240,703 239,703 238,704 239,705 240,705 241,705 242,705 243,706 242,707 241,707 240,708 239,709 238,710 238,711 239,711 240,711 241,712 241,713 240,714 241,713 242,713 243,714 243,715 244,714 245,715 245,716 244,717 243,717 242,717 241,717 240,718 239,717 238,717 237,718 236,718 235,718 235,719 236,718 237,719 238,719 239,719 240,719 241,719 242,719 243,719 244,719 245,719 246,719 247,719 248,719 249,719 250,719 251,719 252,719 253,719 254,719 255,719 256,719 257,719 258,720 259,720 260,720 261,720 262,719 263,719 264,719 265,720 266,721 265,722 264,722 264,723 264,724 263,725 262,724 262,723 262,722 261,723 260,723 260,724 260,725 260,726 261,727 261,728 262,729 261,730 260,730 259,729 259,728 258,727 258,726 257,725 257,724 257,723 256,723 255,722 254,722 253,722 252,722 251,722 250,722 249,722 248,722 247,722 246,722 245,722 244,722 243,722 243,723 242,724 242,725 242,726 242,727 241,728 241,729 241,730 241,731 241,732 240,733 240,734 240,735 240,736 239,737 238,736 238,735 237,734 236,734 235,734 234,735 234,736 234,737 234,736 235,735 236,735 237,736 237,737 238,738 238,739 239,740 240,741 240,742 241,741 242,740 243,739 244,739 245,738 246,737 247,737 248,737 249,738 249,739 249,740 248,741 248,742 247,743 246,744 247,744 248,744 249,744 250,743 251,743 252,743 253,743 254,743 255,743 256,743 257,744 257,745 257,746 256,747 255,748 256,748 257,748 258,748 259,748 260,749 261,749 262,749 263,750 264,750 265,751 266,751 267,752 266,753 265,754 264,755 264,756 265,755 266,755 267,754 268,754 269,753 270,752 270,751 269,751 268,750 267,750 266,749 265,748 265,747 266,746 266,745 267,744 268,743 268,742 269,741 270,740 271,740 272,739 273,738 274,737 275,736 275,735 274,734 273,734 272,733 271,732 270,731 269,730 269,729 268,728 268,727 267,726 267,725 266,724 266,723 266,722 266,721 265,720 265,719 265,718 265,717 264,716 264,715 264,714 264,713 264,712 264,711 264,710 264,709 264,708 264,707 264,706 264,705 265,704 265,703 265,702 266,701 266,700 267,699 268,698 269,697 270,696 271,695 272,694 273,694 274,694 275,694 276,694 277,694 278,695 279,694 280,694 281,693 282,693 283,693 284,692 285,692 286,692 287,692 288,693 289,694 290,695 290,696 290,697 290,698 290,699 289,700 289,701 288,702 287,703 286,704 287,703 288,702 289,701 290,700 291,700 292,699 293,699 294,699 295,699 296,699 297,699 298,699 299,700 300,701 301,702 301,703 301,704 301,705 300,706 300,707 299,708 298,709 297,709 297,710 298,711 298,712 298,713 298,714 297,715 297,716 297,717 296,718 295,719 295,720 296,721 297,722 298,723 298,724 299,725 299,726 299,727 299,728 299,729 299,730 299,731 299,732 298,733 298,734 297,735 296,736 295,736 294,737 293,737 293,738 293,739 294,740 294,741 294,742 295,743 295,744 295,745 295,746 295,747 295,748 295,749 295,750 295,751 295,752 295,753 294,754 293,754 292,755 291,755 290,755 289,756 289,757 289,758 289,759 288,760 288,761 288,762 287,763 287,764 286,765 285,766 285,767 284,768 284,769 283,770 282,771 281,772 280,773 279,773 278,774 279,774 280,774 281,774 282,774 283,774 284,774 285,773 286,772 285,773 284,773 283,773 282,773 281,772 282,771 283,770 284,770 285,769 286,769 287,769 288,769 289,769 290,769 291,769 292,768 293,768 294,768 295,768 296,768 297,768 298,768 299,768 300,769 301,769 302,769 303,768 304,768 305,768 306,768 307,768 308,768 309,768 310,768 311,768 312,767 313,767 314,767 315,766 316,766 317,767 317,768 317,769 317,770 317,771 317,772 317,773 317,772 317,771 317,770 317,769 317,768 317,767 317,766 317,765 318,764 318,763 319,762 320,761 321,760 322,759 323,758 324,757 323,756 322,755 321,754 321,753 320,752 320,751 319,750 319,749 318,748 318,747 318,746 318,745 319,744 319,743 319,742 320,741 321,740 322,739 323,739 324,738 325,738 326,738 327,738 328,738 329,738 330,738 331,739 332,739 333,739 334,740 335,741 336,742 337,743 338,744 338,745 339,746 340,747 340,748 341,749 341,750 342,751 342,752 342,753 342,754 342,755 343,755 344,755 345,756 346,757 346,758 347,759 347,760 347,761 346,762 346,763 345,764 344,765 343,766 342,766 341,766 340,766 339,767 339,768 339,769 339,770 339,771 340,772 341,773 342,774 342,773 341,772 340,771 340,770 339,769 340,768 341,767 342,767 343,766 344,766 345,765 346,765 346,764 346,763 347,762 348,761 348,760 348,759 348,758 349,757 350,757 351,756 352,756 353,756 354,755 354,754 354,753 355,752 356,751 357,750 358,749 358,748 358,747 358,746 358,745 357,744 357,743 357,742 357,741 356,742 355,742 354,742 353,742 352,743 351,743 350,743 349,743 348,743 347,743 346,743 345,744 345,745 345,746 344,747 344,748 344,749 344,750 345,751 344,752 344,753 343,754 342,753 342,752 342,751 342,750 341,749 341,748 341,747 341,746 342,745 342,744 342,743 342,742 343,741 343,740 343,739 343,738 344,737 344,736 344,735 344,734 344,733 344,732 345,731 345,730 345,729 345,728 346,727 346,726 346,725 346,724 346,723 346,722 346,721 346,720 346,719 346,718 345,719 344,719 343,719 342,720 341,720 340,720 339,720 338,720 337,720 336,720 335,720 336,721 335,722 335,723 335,724 334,725 335,726 335,727 335,728 335,729 335,730 335,731 335,732 335,733 334,734 334,735 334,736 334,737 334,738 333,739 332,738 332,737 331,737 330,737 329,736 329,735 329,736 328,737 327,737 326,736 326,735 327,734 327,733 327,732 327,731 327,730 327,729 327,728 327,727 327,728 327,729 326,730 325,730 324,729 324,728 324,729 325,730 324,731 324,732 324,733 324,734 324,735 324,736 324,737 323,738 322,738 321,737 321,736 321,735 321,734 321,733 321,732 321,731 321,730 321,729 321,728 321,729 320,730 319,729 318,728 318,727 319,726 319,725 318,725 317,724 318,723 317,724 316,724 317,725 317,726 318,727 318,728 318,729 318,730 318,731 318,732 318,733 318,734 318,735 318,736 318,737 318,738 318,739 319,740 318,741 318,742 318,743 318,744 318,745 317,746 317,747 318,748 318,749 318,750 319,751 319,752 320,753 321,754 322,755 323,756 323,757 322,758 321,758 320,759 319,759 318,760 317,760 316,760 315,761 314,761 313,761 312,761 311,761 310,761 309,762 308,762 307,762 306,762 305,763 304,763 303,763 302,763 301,763 300,764 299,764 298,764 297,764 296,765 295,765 294,766 293,767 292,767 291,766 292,765 291,766 290,766 289,766 288,766 287,765 288,764 288,763 288,762 289,761 289,760 290,759 290,758 290,757 291,756 292,756 293,756 294,755 295,755 296,754 297,753 298,753 299,753 300,753 301,753 302,753 303,753 304,753 304,752 304,751 304,750 304,749 304,748 303,748 302,749 301,749 300,749 299,749 298,749 297,749 296,748 296,747 297,746 298,746 299,746 300,746 301,745 302,745 303,745 304,745 304,744 304,743 304,742 304,741 303,740 303,739 303,738 303,737 303,736 303,735 303,734 303,733 302,732 302,731 302,730 302,729 301,728 301,727 301,726 301,725 301,724 301,723 301,722 300,721 300,720 299,720 298,720 297,720 296,719 296,718 297,717 297,716 298,715 299,714 299,713 299,712 299,711 300,710 301,709 302,708 301,708 300,707 301,706 302,705 303,705 304,704 305,704 306,704 307,704 308,704 309,704 310,704 311,704 312,704 313,703 313,702 313,701 314,700 315,700 316,699 317,699 318,699 319,699 320,698 321,698 322,698 323,698 324,698 325,698 326,698 327,698 328,697 329,697 330,697 331,696 332,697 333,698 333,699 333,700 333,701 333,702 334,702 335,702 336,702 337,703 338,703 339,703 340,703 341,704 342,704 343,704 344,704 345,705 346,705 347,705 348,705 349,705 349,704 350,703 350,702 349,701 348,700 348,699 347,698 347,697 346,696 346,695 345,694 345,693 344,692 344,691 343,690 343,689 342,688 341,687 341,686 340,685 339,684 339,683 339,682 338,681 338,680 338,679 337,678 337,677 338,676 338,675 338,674 338,673 339,672 339,671 340,670 340,669 341,668 341,667 341,666 342,665 342,664 343,663 343,662 343,661 344,660 344,659 345,658 345,657 346,656 346,655 347,654 347,653 348,652 349,651 349,650 349,649 350,648 351,647 352,646 353,645 354,645 355,644 356,644 356,643 356,642 356,641 357,640 358,639 359,639 360,638 361,638 362,638 362,637 363,636 364,635 365,634 366,634 367,634 368,634 369,635 370,635 370,634 371,633 371,632 372,631 373,630 374,630 375,630 376,630 377,630 378,631 378,632 379,633 380,634 380,633 381,632 382,632 383,631 384,631 385,631 386,631 387,632 387,633 388,634 389,633 390,632 391,631 392,631 393,631 394,631 395,632 396,633 396,634 397,635 398,635 399,634 400,634 401,634 402,634 403,634 404,635 404,636 405,637 405,638 406,637 407,637 408,637 409,636 410,636 411,637 412,638 412,639 412,640 412,641 412,642 413,642 414,642 415,642 416,642 417,643 418,644 418,645 418,646 418,647 418,648 418,649 418,650 418,651 419,650 420,651 421,650 421,649 421,648 421,647 421,646 421,645 421,644 421,643 421,642 421,641 421,640 421,639 421,638 420,637 420,636 420,635 420,634 420,633 420,632 420,631 420,630 420,629 420,628 420,627 420,626 420,625 420,624 420,623 420,622 420,621 420,620 420,619 420,618 420,617 420,616 420,615 420,614 420,613 420,612 419,611 418,611 417,611 416,611 415,610 414,610 413,610 412,610 411,609 410,609 409,609 408,608 407,608 406,608 405,607 404,607 403,607 402,606 401,606 400,606 399,605 398,605 397,604 396,604 395,603 394,603 393,602 392,602 391,601 390,601 389,600 388,600 387,599 386,598 385,598 384,597 383,596 382,597 381,597 380,598 379,597 379,596 380,595 381,595 380,594 379,593 378,592 377,591 376,590 375,589 374,588 373,587 372,586 371,585 370,585 369,584 369,583 369,582 368,581 368,580 367,579 367,578 366,577 365,577 364,577 363,576 362,576 361,575 360,575 359,574 358,574 357,574 356,573 355,573 354,572 353,572 352,572 351,572 350,571 349,571 348,571 347,571 346,570 345,570 344,570 343,570 342,570 341,569 340,569 339,568 338,568 337,568 336,567 335,567 334,566 333,566 332,566 331,565 330,565 329,565 328,565 327,564 326,564 325,564 324,563 323,563 322,563 321,562 320,562 319,561 318,561 317,561 316,560 315,560 314,560 313,559 312,559 311,559 310,558 309,558">
      <metadata tailDirection="" confidence="0.82" linkedToCharacter="" id="CYB_MOUETTEMAN_002_balloon_4" tailTip=""></metadata>
    </polygon>
    <polygon points="234,275 234,276 234,277 234,278 234,279 234,280 233,281 233,282 233,283 233,284 233,285 233,286 233,287 233,288 233,289 233,290 233,291 233,292 233,293 233,294 233,295 233,296 233,297 233,298 233,299 233,300 233,301 233,302 233,303 233,304 233,305 233,306 233,307 233,308 233,309 233,310 233,311 233,312 233,313 233,314 233,315 233,316 233,317 233,318 233,319 233,320 233,321 233,322 233,323 233,324 233,325 233,326 233,327 233,328 233,329 233,330 233,331 233,332 233,333 233,334 233,335 233,336 233,337 233,338 233,339 233,340 233,341 233,342 233,343 233,344 233,345 233,346 233,347 233,348 233,349 233,350 233,351 233,352 233,353 233,354 233,355 233,356 233,357 233,358 233,359 233,360 233,361 233,362 234,363 234,364 235,365 236,366 237,367 238,368 239,369 240,369 241,370 242,371 243,371 244,372 245,372 246,373 247,373 248,374 249,374 250,375 251,375 252,376 253,376 254,377 255,377 256,377 257,378 258,378 259,378 260,379 261,379 262,380 263,380 264,380 265,381 266,381 267,381 268,382 269,382 270,382 271,382 272,383 273,383 274,383 275,383 276,384 277,384 278,384 279,384 280,384 281,385 282,385 283,385 284,385 285,385 286,385 287,385 288,385 289,386 289,387 289,388 289,389 288,390 288,391 287,392 287,393 287,394 286,395 286,396 285,397 285,398 285,399 284,400 283,401 283,402 282,403 282,404 281,405 281,406 282,406 283,406 284,406 285,406 286,406 287,406 288,406 289,406 290,406 291,406 292,407 293,408 293,409 293,410 292,411 292,412 291,413 291,414 291,415 290,416 290,417 290,418 289,419 289,420 289,421 289,422 288,423 288,424 288,425 289,425 290,426 291,426 292,426 293,426 294,426 295,426 296,426 297,426 298,426 299,426 300,426 301,426 302,426 303,426 304,427 305,427 306,427 307,427 308,427 307,426 306,426 305,426 304,425 303,425 302,424 301,424 300,424 299,424 298,424 297,423 296,423 295,423 294,422 293,421 293,420 293,419 293,418 294,417 294,416 295,415 295,414 295,413 296,412 296,411 297,410 297,409 298,408 299,407 299,406 298,405 297,405 296,405 295,404 294,404 293,404 292,403 291,403 290,402 290,401 290,400 290,399 291,398 291,397 292,396 293,395 294,394 295,393 295,392 296,391 296,390 296,389 297,388 298,388 299,387 300,388 301,388 302,388 303,388 304,388 305,388 306,388 307,388 308,388 309,388 310,388 311,389 312,389 313,389 314,389 315,389 316,389 317,389 318,389 319,389 320,389 321,389 322,389 323,389 324,389 325,389 326,389 327,389 328,389 329,389 330,389 331,389 332,389 333,389 334,389 335,389 336,389 337,389 338,390 339,390 340,390 341,390 342,390 343,390 344,390 345,390 346,389 347,389 348,389 349,389 350,389 351,389 352,389 353,389 354,389 355,389 356,389 357,389 358,389 359,388 360,387 360,386 361,385 361,384 360,383 359,383 358,382 357,382 356,381 355,381 354,380 353,380 352,379 352,378 352,377 352,376 353,375 354,374 354,373 355,372 356,371 357,370 358,369 359,369 360,368 361,367 362,366 363,366 364,365 365,365 366,364 367,364 368,363 369,363 370,363 371,362 372,362 373,362 374,362 375,361 376,361 377,361 378,361 379,361 380,361 381,361 382,361 383,361 384,360 385,360 386,360 387,359 388,359 389,358 390,358 391,358 392,357 393,357 394,357 395,356 396,356 397,356 398,356 399,356 400,355 401,355 402,355 403,355 404,355 405,354 406,354 407,354 408,354 409,354 410,354 411,354 412,354 413,354 414,354 415,354 416,354 417,354 418,354 419,354 420,354 421,354 422,354 423,354 424,354 425,354 426,354 427,354 428,354 429,354 430,354 431,354 432,355 433,355 434,355 435,356 436,356 437,356 438,356 439,357 440,357 441,357 442,357 443,358 444,358 445,358 446,359 447,360 448,360 449,361 450,361 451,362 452,363 453,364 454,365 455,365 456,366 457,367 458,368 459,369 460,369 461,368 462,368 463,367 464,366 465,366 466,365 467,364 468,363 469,363 470,362 471,361 472,360 473,359 474,359 475,358 475,357 476,356 477,356 478,355 479,354 479,353 480,352 481,351 481,350 482,349 483,348 483,347 484,346 484,345 485,344 485,343 485,342 486,341 486,340 487,339 487,338 487,337 487,336 488,335 488,334 488,333 488,332 488,331 488,330 488,329 488,328 488,327 488,326 488,325 488,324 488,323 488,322 488,321 488,320 488,319 488,318 488,317 488,316 488,315 488,314 488,313 487,312 487,311 487,310 487,309 487,308 486,307 486,306 486,305 485,304 485,303 485,302 484,301 484,300 483,299 483,298 483,297 482,296 481,295 481,294 481,293 480,292 479,291 479,290 479,289 478,288 477,287 477,286 476,285 476,284 475,283 474,282 474,281 473,280 472,279 471,278 470,277 469,276 468,275 467,275 466,275 465,275 464,275 463,275 462,275 461,275 460,275 459,276 458,275 457,275 456,275 455,275 454,275 453,275 452,275 451,275 450,275 449,275 448,275 447,275 446,275 445,275 444,275 443,275 442,275 441,275 440,275 439,275 438,275 437,275 436,275 435,275 434,275 433,275 432,275 431,275 430,275 429,275 428,275 427,275 426,275 425,275 424,275 423,275 422,275 421,275 420,275 419,275 418,275 417,275 416,275 415,275 414,275 413,275 412,275 411,275 410,275 409,275 408,275 407,275 406,275 405,275 404,275 403,275 402,275 401,275 400,275 399,275 398,275 397,275 396,275 395,275 394,275 393,275 392,275 391,275 390,275 389,275 388,275 387,275 386,275 385,275 384,275 383,275 382,275 381,275 380,275 379,275 378,275 377,275 376,275 375,275 374,275 373,275 372,275 371,275 370,275 369,275 368,275 367,275 366,275 365,275 364,275 363,275 362,275 361,275 360,275 359,275 358,275 357,275 356,275 355,275 354,275 353,275 352,275 351,275 350,275 349,275 348,275 347,275 346,275 345,275 344,275 343,275 342,275 341,275 340,275 339,275 338,275 337,275 336,275 335,275 334,275 333,275 332,275 331,275 330,275 329,275 328,275 327,275 326,275 325,275 324,275 323,275 322,275 321,275 320,275 319,275 318,275 317,275 316,275 315,275 314,275 313,275 312,275 311,275 310,275 309,275 308,275 307,275 306,275 305,275 304,275 303,275 302,275 301,275 300,275 299,275 298,275 297,275 296,275 295,275 294,275 293,275 292,275 291,275 290,275 289,275 288,275 287,275 286,275 285,275 284,275 283,275 282,275 281,275 280,275 279,275 278,275 277,275 276,275 275,275 274,275 273,275 272,275 271,275 270,275 269,275 268,275 267,275 266,275 265,275 264,275 263,275 262,275 261,275 260,275 259,275 258,275 257,275 256,275 255,275 254,275 253,275 252,275 251,275 250,275 249,275 248,275 247,275 246,275 245,275 244,275 243,275 242,275 241,275 240,275 239,275 238,275 237,275 236,275 235,275 234,275">
      <metadata tailDirection="" confidence="0.96" linkedToCharacter="" id="CYB_MOUETTEMAN_002_balloon_5" tailTip=""></metadata>
    </polygon>
    <polygon points="494,18 493,19 492,20 491,19 492,20 491,21 490,21 489,20 489,19 488,20 487,20 486,20 485,20 484,21 483,21 482,21 481,22 480,22 479,23 478,24 477,25 476,24 476,23 476,22 476,21 475,21 474,21 473,21 472,21 471,21 470,21 469,22 468,22 467,22 467,23 467,24 467,25 467,26 467,27 467,28 467,29 467,30 467,31 467,32 467,33 467,34 467,35 468,36 467,37 466,38 465,39 466,40 465,41 464,42 463,41 462,42 461,42 460,42 459,42 458,42 457,43 456,43 456,44 455,45 454,44 454,43 453,44 452,44 451,43 452,42 451,41 451,40 451,39 451,38 450,38 449,38 448,38 447,38 446,38 445,38 444,39 443,39 442,39 442,40 442,41 442,42 442,43 442,44 442,45 442,46 441,47 440,46 440,45 440,44 440,43 440,42 439,41 438,40 437,39 436,39 435,38 434,38 433,38 432,38 431,38 430,38 429,38 428,38 427,39 427,40 427,41 427,42 427,43 427,44 427,45 427,46 427,47 427,48 427,49 426,50 425,49 424,50 423,49 422,49 421,49 420,49 419,49 418,49 418,50 417,51 416,50 416,49 416,48 416,47 415,46 414,45 413,45 412,44 411,44 410,44 409,44 408,44 407,44 406,43 407,42 408,41 409,41 410,41 411,41 412,42 413,42 414,42 414,41 415,40 415,39 415,38 414,38 413,38 412,38 411,38 410,38 409,38 408,38 407,38 406,38 405,39 404,40 403,40 403,41 403,42 403,43 403,44 403,45 404,46 405,46 406,47 407,47 408,47 409,48 410,48 411,49 410,50 409,50 408,50 407,50 406,50 405,50 404,49 403,49 403,50 403,51 403,52 402,53 401,52 401,51 401,50 400,50 399,50 398,50 397,50 396,50 395,50 394,49 394,48 395,47 396,47 397,47 398,47 398,46 398,45 398,44 397,44 396,44 395,44 394,43 394,42 395,41 396,41 397,41 398,41 399,41 400,41 400,40 400,39 400,38 399,38 398,38 397,38 396,38 395,38 394,39 393,39 392,39 391,40 390,41 389,40 389,39 388,39 387,38 386,38 385,38 384,38 383,38 382,38 381,38 380,38 379,38 378,39 377,38 376,38 375,38 374,38 373,39 373,40 373,41 373,42 373,43 373,44 373,45 372,46 372,47 372,48 371,49 370,50 369,50 368,50 367,49 367,48 367,47 367,46 367,45 367,44 367,43 368,42 368,41 368,40 369,39 369,38 368,38 367,38 366,38 365,39 365,40 365,41 364,42 364,43 364,44 364,45 363,46 363,47 363,48 363,49 363,50 364,51 364,52 365,53 366,53 367,53 368,53 369,53 370,53 371,53 372,52 373,53 374,53 375,53 376,52 376,51 376,50 375,49 375,48 375,47 375,46 376,45 376,44 376,43 376,42 376,41 376,40 376,39 377,38 378,39 379,40 379,41 379,42 379,43 379,44 379,45 379,46 379,47 379,48 379,49 379,50 379,51 378,52 378,53 379,53 380,53 381,53 382,53 382,52 382,51 383,50 384,51 384,52 385,53 386,53 387,53 388,52 389,51 389,50 388,50 387,49 386,48 387,47 388,46 389,45 389,44 390,43 391,44 391,45 391,46 391,47 391,48 391,49 391,50 391,51 391,52 392,53 393,53 394,53 395,53 396,53 397,53 398,53 399,54 398,55 397,55 396,55 395,55 394,55 393,55 392,55 391,56 390,55 389,55 388,56 387,56 386,57 385,56 384,56 383,57 382,56 382,55 382,56 381,57 380,57 379,57 378,56 377,57 376,57 375,57 374,57 373,57 372,57 371,56 370,56 369,57 368,57 367,56 366,56 365,56 364,56 363,57 362,56 361,55 360,56 359,56 358,56 357,56 356,55 355,56 354,55 353,54 354,53 355,53 356,53 357,53 358,52 358,51 358,50 358,49 358,48 358,47 358,46 358,45 358,44 358,43 357,42 358,41 359,41 360,41 361,40 362,40 362,39 362,38 361,38 360,38 359,38 358,38 357,38 356,38 355,38 354,38 353,38 352,38 351,38 350,38 350,39 350,40 350,41 350,42 351,42 352,42 353,42 354,43 354,44 354,45 354,46 354,47 354,48 354,49 354,50 354,51 354,52 354,53 353,54 352,55 351,55 350,56 349,56 348,56 347,56 346,56 345,55 344,55 343,56 342,55 341,55 340,56 339,55 338,55 337,55 336,56 335,56 334,56 333,56 332,55 331,56 330,56 329,56 328,56 327,56 326,55 325,56 324,56 323,56 322,56 321,56 320,55 319,56 318,56 317,55 316,55 315,55 314,55 313,56 312,55 311,55 310,54 309,55 308,54 307,55 306,55 305,55 304,54 305,53 306,53 307,52 307,51 307,50 306,49 306,48 305,47 305,46 305,45 305,44 304,43 304,42 304,41 304,40 303,39 303,38 302,38 301,38 300,38 299,39 298,40 298,41 298,42 298,43 297,44 297,45 296,46 296,47 296,48 295,49 295,50 295,51 294,52 293,51 292,52 291,52 290,51 291,50 290,51 289,51 288,51 287,51 286,50 285,50 284,49 283,50 282,50 281,49 280,49 279,49 278,49 277,49 276,48 275,47 274,48 273,47 273,46 272,45 271,46 270,45 269,45 268,46 267,45 267,44 266,43 265,44 264,45 263,44 262,45 261,45 260,44 259,45 258,44 257,44 256,45 255,46 254,47 253,46 253,45 252,46 253,46 254,47 255,48 254,49 253,49 252,49 251,49 250,50 249,51 248,52 247,53 248,54 247,55 247,56 246,57 246,58 245,59 244,60 244,61 245,62 244,63 243,64 243,65 243,66 242,67 242,68 242,69 242,70 241,71 241,72 240,73 240,74 240,75 240,76 239,77 239,78 239,79 239,80 239,81 239,82 238,83 239,84 239,85 238,86 238,87 238,88 238,89 238,90 238,91 238,92 238,93 239,94 239,95 239,96 239,97 239,98 239,99 240,100 240,101 240,102 241,103 241,104 241,105 242,106 242,107 242,108 242,109 242,110 243,111 242,112 243,113 242,114 243,115 243,116 243,117 244,118 243,119 244,120 244,121 244,122 244,123 244,124 244,125 245,126 245,127 244,128 245,127 246,128 246,129 245,130 245,131 244,132 244,133 244,134 244,135 245,134 246,135 246,136 245,137 245,138 244,139 245,140 245,141 244,142 244,143 244,144 243,145 244,146 244,147 243,148 243,149 243,150 243,151 243,152 243,153 243,154 243,155 243,156 243,157 242,158 242,159 242,160 242,161 242,162 242,163 242,164 242,165 242,166 242,167 241,168 241,169 241,170 240,171 241,172 240,173 240,174 240,175 241,176 240,177 240,178 240,179 240,180 239,181 239,182 239,183 239,184 239,185 238,186 238,187 238,188 238,189 238,190 238,191 238,192 238,193 238,194 238,195 238,196 237,197 237,198 238,199 238,200 238,201 237,202 238,203 238,204 237,205 238,206 238,207 238,208 238,209 238,210 239,211 238,212 238,213 238,214 238,215 238,216 239,217 238,218 239,219 239,220 239,221 240,222 239,223 240,223 241,224 241,225 241,226 242,227 241,228 241,229 242,230 242,231 243,232 243,233 242,234 243,235 243,236 243,237 244,238 244,239 245,238 246,239 246,240 246,241 247,242 248,243 249,242 250,243 250,244 251,245 252,244 253,245 253,246 254,246 255,247 254,248 253,248 252,248 251,248 252,248 253,248 254,248 255,248 256,248 257,248 258,248 259,248 260,248 261,248 262,248 263,248 264,248 265,248 266,248 267,248 268,248 269,248 270,248 271,248 272,248 273,248 274,248 275,248 276,248 277,248 278,248 279,248 280,248 281,248 282,248 283,248 284,248 285,248 286,248 287,248 288,248 289,248 290,248 291,248 292,248 293,248 294,248 295,248 296,248 297,248 298,248 299,248 300,248 301,248 302,248 303,248 304,248 305,248 306,248 307,248 308,248 309,248 310,248 311,248 312,248 313,248 314,248 315,248 316,248 317,248 318,248 319,248 320,248 321,248 322,248 323,248 324,248 325,248 326,249 327,249 328,249 329,249 330,248 331,249 332,249 333,248 334,248 335,249 336,249 337,249 338,248 339,249 340,249 341,249 342,249 343,249 344,249 345,249 346,249 347,249 348,249 349,249 350,249 351,249 352,249 353,249 354,249 355,249 356,249 357,249 358,249 359,249 360,249 361,249 362,249 363,249 364,249 365,249 366,249 367,249 368,249 369,249 370,249 371,249 372,249 373,249 374,249 375,249 376,249 377,249 378,249 379,249 380,249 381,249 382,249 383,249 384,249 385,249 386,249 387,249 388,249 389,249 390,249 391,249 392,249 393,249 394,249 395,249 396,249 397,249 398,249 399,249 400,249 401,249 402,249 403,249 404,249 405,249 406,249 407,249 408,249 409,249 410,249 411,249 412,249 413,249 414,249 415,249 416,249 417,249 418,249 419,249 420,249 421,249 422,249 423,249 424,249 425,249 426,249 427,249 428,249 429,249 430,249 431,249 432,249 433,249 434,249 435,249 436,249 437,249 438,249 439,249 440,249 441,249 442,249 443,249 444,249 445,249 446,249 447,249 448,249 449,249 450,249 451,249 452,249 453,249 454,249 455,249 456,249 457,249 458,249 459,249 460,249 461,249 462,249 463,250 464,249 465,249 466,249 467,249 468,249 469,250 470,249 471,249 472,249 473,249 474,249 475,249 476,249 477,249 478,249 479,250 480,250 481,249 482,250 483,250 484,249 485,249 486,249 487,250 488,249 489,249 490,249 491,249 492,249 493,249 494,249 495,249 496,249 497,249 498,249 499,249 500,249 501,250 502,250 503,249 504,249 505,249 506,249 507,249 508,249 509,249 510,249 510,248 510,247 510,246 510,245 510,244 510,243 510,242 510,241 510,240 510,239 510,238 510,237 510,236 510,235 510,234 510,233 510,232 510,231 510,230 510,229 510,228 510,227 510,226 510,225 510,224 510,223 510,222 510,221 510,220 510,219 510,218 510,217 510,216 510,215 510,214 510,213 510,212 510,211 510,210 510,209 510,208 510,207 510,206 510,205 510,204 510,203 510,202 510,201 510,200 510,199 510,198 510,197 510,196 510,195 510,194 510,193 510,192 510,191 510,190 510,189 510,188 510,187 510,186 510,185 510,184 510,183 510,182 510,181 510,180 510,179 510,178 510,177 510,176 510,175 510,174 510,173 510,172 510,171 510,170 510,169 510,168 510,167 510,166 510,165 510,164 510,163 510,162 510,161 510,160 510,159 510,158 510,157 510,156 510,155 510,154 510,153 510,152 510,151 510,150 510,149 510,148 510,147 510,146 510,145 510,144 510,143 510,142 510,141 510,140 510,139 510,138 510,137 510,136 510,135 510,134 510,133 510,132 510,131 510,130 510,129 510,128 510,127 510,126 510,125 510,124 510,123 510,122 510,121 510,120 510,119 510,118 510,117 510,116 510,115 510,114 510,113 510,112 510,111 510,110 510,109 510,108 510,107 510,106 510,105 510,104 510,103 510,102 510,101 510,100 510,99 510,98 510,97 510,96 510,95 510,94 510,93 510,92 510,91 510,90 510,89 510,88 510,87 510,86 510,85 510,84 510,83 510,82 510,81 510,80 510,79 510,78 510,77 510,76 510,75 510,74 510,73 510,72 510,71 510,70 510,69 510,68 510,67 510,66 510,65 510,64 510,63 510,62 510,61 510,60 510,59 510,58 510,57 510,56 510,55 510,54 510,53 510,52 510,51 510,50 510,49 510,48 510,47 510,46 510,45 510,44 510,43 510,42 510,41 510,40 510,39 510,38 510,37 510,36 510,35 510,34 510,33 510,32 510,31 510,30 510,29 510,28 510,27 510,26 510,25 510,24 510,23 510,24 510,25 510,26 509,27 508,27 507,27 506,26 506,25 507,24 508,25 507,24 507,23 506,23 505,22 504,23 503,23 502,22 502,21 502,20 501,21 500,20 500,19 499,19 498,19 497,18 496,18 495,19 494,18">
      <metadata tailDirection="" confidence="0.84" linkedToCharacter="" id="CYB_MOUETTEMAN_002_balloon_6" tailTip=""></metadata>
    </polygon>
  </svg>
</svg>
