<?xml version="1.0" encoding="UTF-8" standalone="no"?>
<svg width="569" xmlns="http://www.w3.org/2000/svg" version="1.0" height="661">
  <title>CYB_COSMOZONE_008</title>
  <svg contentScriptType="text/ecmascript" zoomAndPan="magnify" contentStyleType="text/css" class="Page" preserveAspectRatio="xMidYMid meet" version="1.0">
    <image xmlns:xlink="http://www.w3.org/1999/xlink" x="0" y="0" width="569" height="661" xlink:href="../Images/CYB_COSMOZONE_008.jpg" xlink:type="simple" xlink:actuate="onLoad" preserveAspectRatio="xMidYMid meet" xlink:show="embed"/>
  </svg>
  <style type="text/css" xml:space="preserve">
        * { stroke-linejoin: round; }
        .Unclassified   { fill: orange; stroke: none;   opacity: 1.0; visibility: hidden; }
        .Noise          { fill: pink;   stroke: none;   opacity: 0.2; visibility: hidden; }
        .Panel          { fill: none;   stroke: red;    stroke-width:3; opacity: 0.5; visibility: visible; image-rendering: optimizeSpeed; }
        .Line           { fill: green;  stroke: none;   opacity: 0.5; visibility: visible; image-rendering: optimizeSpeed; }
        .TextArea       { fill: grey;   stroke: none;   opacity: 0.2; visibility: visible; image-rendering: optimizeSpeed; }
        .Balloon        { fill: cyan;   stroke: none;   opacity: 0.5; visibility: visible; image-rendering: optimizeSpeed; }
        .Letter         { fill: blue;   stroke: none;   opacity: 0.2; visibility: hidden; }
        .Object, .Character, .Face  { fill: yellow; stroke: none;   opacity: 0.5; visibility: visible; image-rendering: optimizeSpeed; }
        .Page           { fill: white;  stroke: none;    opacity: 0.5; visibility: visible; }
        .linkSBSC { fill: blue; stroke: none; opacity: 1.0; visibility: visible; }
        polygon:hover { opacity:1.0; stroke:red; }
</style>
  <svg xmlns="http://www.w3.org/2000/svg" contentScriptType="text/ecmascript" zoomAndPan="magnify" contentStyleType="text/css" class="Balloon" preserveAspectRatio="xMidYMid meet" version="1.0">
    <polygon points="473,514 472,515 471,515 470,515 469,515 468,515 467,515 466,516 465,516 464,516 463,516 462,517 461,517 460,518 459,518 458,518 457,519 456,519 455,520 454,520 453,521 452,522 451,523 450,524 450,525 449,526 448,527 448,528 447,529 447,530 446,531 446,532 445,533 445,534 445,535 444,536 444,537 444,538 443,539 443,540 443,541 443,542 443,543 444,543 445,542 446,542 447,541 448,541 449,541 450,540 451,540 452,540 453,540 454,540 455,540 456,540 457,540 458,539 459,539 460,539 461,539 462,539 463,538 464,538 465,538 466,538 467,538 468,538 469,538 470,538 471,538 472,538 473,538 474,538 475,538 476,537 477,537 478,538 479,538 480,538 481,538 482,538 483,538 484,538 485,538 486,538 487,538 488,538 489,538 490,539 491,539 492,539 493,539 494,540 495,540 496,540 497,540 498,541 499,541 500,542 501,543 500,544 499,544 499,545 499,546 499,547 499,548 499,549 500,550 501,550 502,551 503,551 504,552 505,552 505,551 504,550 504,549 504,548 503,547 503,546 503,545 504,544 505,543 506,543 507,543 508,543 509,543 510,543 511,543 511,542 510,541 509,541 508,540 507,539 506,539 505,538 504,538 503,537 502,536 502,535 502,534 503,533 504,532 505,532 506,531 506,530 505,529 504,528 504,527 503,527 502,526 501,526 500,525 499,525 498,525 497,524 497,523 498,522 499,522 500,521 501,521 502,521 503,520 504,520 504,519 503,518 502,517 501,517 500,517 499,516 498,516 497,516 496,515 495,515 494,515 493,515 492,515 491,515 490,514 489,514 488,514 487,514 486,514 485,514 484,514 483,514 482,514 481,514 480,514 479,514 478,514 477,514 476,514 475,514 474,514 473,514">
      <metadata tailDirection="" confidence="0.28" linkedToCharacter="" id="CYB_COSMOZONE_008_balloon_0" tailTip=""></metadata>
    </polygon>
    <polygon points="437,393 436,394 435,394 434,394 433,394 432,394 431,394 430,394 429,395 428,395 427,395 426,395 425,395 424,395 423,396 422,396 421,396 420,396 419,397 418,397 417,398 416,398 415,399 414,399 413,399 412,400 411,400 410,400 409,401 408,402 407,402 406,403 405,403 404,404 403,405 402,405 401,406 400,406 399,407 398,408 397,409 397,410 396,411 395,412 395,413 395,414 394,415 394,416 394,417 394,418 394,419 394,420 394,421 394,422 395,423 395,424 395,425 395,426 396,427 396,428 397,429 397,430 398,431 399,432 400,433 401,434 402,435 403,436 404,437 405,437 406,438 407,439 408,439 409,440 410,441 411,441 412,441 413,442 414,442 415,443 416,443 417,443 418,444 419,444 420,445 421,445 422,445 423,446 424,446 425,446 426,446 427,446 428,447 429,447 430,447 431,447 432,448 433,448 434,448 435,449 436,449 437,448 438,448 439,448 440,449 441,449 442,449 443,449 444,449 445,449 446,449 447,449 448,449 449,449 450,449 451,449 452,449 453,449 454,449 455,449 456,449 457,449 458,449 459,449 460,449 461,449 462,449 463,449 464,449 465,449 466,449 467,449 468,448 469,448 470,448 471,448 472,448 473,447 474,447 475,447 476,447 477,447 478,447 479,446 480,446 481,446 482,446 483,445 484,445 485,445 486,444 487,444 488,444 489,444 490,444 491,444 492,445 493,446 494,447 494,448 495,449 495,448 495,447 495,446 495,445 494,444 494,443 494,442 494,441 495,440 496,439 497,439 498,438 499,438 500,437 501,436 502,436 503,435 504,435 505,434 506,433 507,432 508,431 509,430 509,429 510,428 511,427 511,426 512,425 512,424 512,423 513,422 513,421 513,420 513,419 513,418 513,417 513,416 512,415 512,414 511,413 511,412 510,411 510,410 509,409 508,408 508,407 507,406 506,405 505,404 504,403 503,402 502,401 501,400 500,400 499,399 498,399 497,399 496,398 495,398 494,398 493,397 492,397 491,397 490,397 489,397 488,396 487,396 486,396 485,396 484,396 483,396 482,396 481,396 480,395 479,395 478,395 477,395 476,395 475,394 474,394 473,394 472,394 471,394 470,394 469,394 468,394 467,394 466,394 465,394 464,394 463,393 462,393 461,393 460,393 459,393 458,393 457,393 456,393 455,393 454,393 453,393 452,393 451,393 450,393 449,393 448,393 447,393 446,393 445,393 444,393 443,393 442,393 441,393 440,393 439,393 438,393 437,393">
      <metadata tailDirection="" confidence="0.98" linkedToCharacter="" id="CYB_COSMOZONE_008_balloon_1" tailTip=""></metadata>
    </polygon>
    <polygon points="194,511 193,512 192,512 191,512 190,512 189,512 188,512 187,512 186,513 185,513 184,513 183,513 182,513 181,514 180,514 179,515 178,515 177,515 176,516 175,517 174,517 173,518 172,519 171,520 170,521 170,522 169,523 168,524 168,525 167,526 167,527 166,528 165,529 164,530 164,531 164,532 164,533 163,534 163,535 163,536 162,537 162,538 162,539 162,540 162,541 162,542 162,543 163,543 164,542 165,542 166,541 167,541 168,541 169,540 170,540 171,540 172,539 173,539 174,539 175,538 176,538 177,538 178,538 179,537 180,537 181,537 182,537 183,537 184,536 185,536 186,536 187,536 188,536 189,536 190,536 191,536 192,536 193,536 194,536 195,536 196,536 197,536 198,536 199,536 200,536 201,536 202,536 203,536 204,537 205,537 206,537 207,537 208,537 209,537 210,538 211,538 212,538 213,538 214,539 215,539 216,539 217,540 218,540 219,541 220,542 221,543 221,544 220,545 219,544 219,545 219,546 219,547 219,548 220,548 221,548 222,549 223,549 224,549 225,549 224,548 223,547 223,546 222,545 222,544 222,543 223,542 224,542 225,541 226,541 227,540 228,540 229,540 230,540 229,539 228,538 228,537 227,536 226,536 225,535 224,535 223,534 222,533 222,532 221,531 222,530 223,529 224,529 225,528 226,528 227,527 228,527 228,526 227,526 226,525 225,524 224,524 223,523 222,523 221,522 220,522 219,521 219,520 219,519 220,518 221,518 222,517 222,516 221,516 220,516 219,516 218,515 217,515 216,514 215,514 214,513 213,513 212,513 211,513 210,512 209,512 208,512 207,512 206,511 205,511 204,511 203,511 202,511 201,511 200,511 199,511 198,511 197,511 196,511 195,511 194,511">
      <metadata tailDirection="" confidence="0.28" linkedToCharacter="" id="CYB_COSMOZONE_008_balloon_2" tailTip=""></metadata>
    </polygon>
    <polygon points="473,231 472,232 471,232 470,232 469,232 468,232 467,232 466,233 465,233 464,233 463,233 462,233 461,234 460,234 459,235 458,235 457,236 456,236 455,237 454,237 453,238 452,239 451,240 450,240 449,241 448,242 448,243 447,244 446,245 446,246 445,247 445,248 444,249 444,250 444,251 443,252 443,253 443,254 442,255 442,256 442,257 442,258 442,259 442,260 442,261 442,262 442,263 443,262 444,262 445,261 446,261 447,260 448,260 449,259 450,259 451,259 452,258 453,258 454,257 455,257 456,256 457,256 458,256 459,256 460,255 460,254 461,253 462,252 463,251 464,250 465,250 466,250 467,250 468,251 469,252 468,253 467,254 466,254 465,254 464,255 465,255 466,255 467,255 468,255 469,255 470,255 471,255 472,255 473,254 474,254 475,254 476,254 477,254 478,254 479,254 480,254 481,254 482,254 483,255 484,255 485,255 486,255 487,255 488,255 489,255 490,255 491,256 492,256 493,256 494,256 495,257 496,257 497,258 498,259 499,259 500,260 501,261 502,262 501,263 500,264 499,264 498,263 498,264 498,265 499,266 499,267 499,268 499,269 500,268 501,268 502,268 503,268 504,269 505,269 506,269 505,268 505,267 504,266 503,265 504,264 505,263 506,262 507,261 508,261 509,260 510,260 511,259 511,258 510,257 509,256 508,255 508,254 507,253 506,252 505,251 504,250 503,249 502,248 502,247 503,246 504,245 505,245 506,244 507,244 506,243 506,242 505,242 504,241 503,240 502,239 501,239 500,239 499,238 498,237 498,236 499,235 500,235 501,234 502,234 503,234 502,233 501,233 500,232 499,232 498,232 497,232 496,232 495,232 494,231 493,231 492,231 491,231 490,231 489,231 488,231 487,231 486,231 485,231 484,231 483,231 482,231 481,231 480,231 479,231 478,231 477,231 476,231 475,231 474,231 473,231">
      <metadata tailDirection="" confidence="0.26" linkedToCharacter="" id="CYB_COSMOZONE_008_balloon_3" tailTip=""></metadata>
    </polygon>
    <polygon points="295,88 295,89 295,90 295,91 295,92 295,93 295,94 295,95 295,96 295,97 295,98 295,99 295,100 295,101 295,102 295,103 295,104 295,105 295,106 295,107 295,108 295,109 295,110 295,111 295,112 295,113 295,114 295,115 295,116 295,117 295,118 295,119 295,120 295,121 294,122 294,123 294,124 294,125 294,126 294,127 294,128 294,129 294,130 294,131 294,132 294,133 294,134 294,135 294,136 294,137 294,138 294,139 294,140 294,141 294,142 294,143 294,144 294,145 294,146 294,147 294,148 295,149 295,150 296,151 297,152 297,153 298,154 298,155 299,155 300,156 300,157 301,158 302,159 303,160 304,161 305,162 306,163 307,164 308,165 309,166 310,167 311,168 312,168 313,169 314,170 315,170 316,171 317,172 318,172 319,173 320,174 321,174 322,175 323,175 324,176 325,176 326,177 327,177 328,178 329,178 330,179 331,179 332,179 333,180 334,180 335,180 336,181 337,181 338,181 339,182 340,183 341,183 342,183 343,184 344,185 344,186 345,187 345,188 345,189 345,190 345,191 345,192 345,193 345,194 345,195 345,196 345,197 345,198 345,199 345,198 345,197 345,196 346,195 346,194 346,193 346,192 346,191 347,190 347,189 347,188 347,187 348,186 349,186 350,186 351,186 352,187 353,187 354,187 355,187 356,188 357,188 358,188 359,188 360,188 361,188 362,188 363,189 364,189 365,189 366,189 367,189 368,190 369,190 370,190 371,190 372,190 373,190 374,190 375,190 376,191 377,191 378,191 379,191 380,191 381,191 382,191 383,191 384,191 385,191 386,191 387,191 388,191 389,191 390,191 391,192 392,192 393,192 394,192 395,192 396,192 397,192 398,192 399,192 400,192 401,192 402,192 403,192 404,192 405,192 406,192 407,192 408,192 409,192 410,192 411,192 412,192 413,192 414,192 415,191 416,191 417,191 418,191 419,191 420,191 421,191 422,191 423,191 424,190 425,190 426,190 427,189 428,189 429,189 430,189 431,188 432,188 433,188 434,188 435,187 436,187 437,187 438,187 439,187 440,186 441,186 442,186 443,185 444,185 445,184 446,184 447,184 448,183 449,183 450,183 451,182 452,182 453,181 454,181 455,181 456,181 457,180 458,180 459,179 460,179 461,179 462,179 463,178 464,178 465,177 466,176 467,176 468,175 469,174 470,173 471,173 472,172 473,171 474,171 475,170 476,169 477,168 478,167 479,166 480,165 481,164 482,164 483,163 484,162 485,162 486,161 486,160 487,159 488,158 489,157 489,156 489,155 490,154 490,153 491,152 491,151 492,150 492,149 493,148 494,147 494,146 494,145 495,144 495,143 495,142 495,141 496,140 496,139 496,138 496,137 496,136 496,135 497,134 497,133 497,132 497,131 497,130 497,129 497,128 497,127 497,126 497,125 497,124 496,123 496,122 496,121 495,120 495,119 494,118 494,117 494,116 493,115 493,114 492,113 492,112 491,111 491,110 490,109 490,108 489,107 488,106 487,105 486,104 486,103 485,102 484,101 483,100 482,99 481,98 480,98 479,97 478,96 477,95 477,94 476,93 475,92 474,91 473,91 472,90 471,89 470,89 469,88 468,88 467,88 466,88 465,88 464,88 463,88 462,88 461,88 460,88 459,88 458,88 457,88 456,88 455,88 454,88 453,88 452,88 451,88 450,88 449,88 448,88 447,88 446,88 445,88 444,88 443,88 442,88 441,88 440,88 439,88 438,88 437,88 436,88 435,88 434,88 433,88 432,88 431,88 430,88 429,88 428,88 427,88 426,88 425,88 424,88 423,88 422,88 421,88 420,88 419,88 418,88 417,88 416,88 415,88 414,88 413,88 412,88 411,88 410,88 409,88 408,88 407,88 406,88 405,88 404,88 403,88 402,88 401,88 400,88 399,88 398,88 397,88 396,88 395,88 394,88 393,88 392,88 391,88 390,88 389,88 388,88 387,88 386,88 385,88 384,88 383,88 382,88 381,88 380,88 379,88 378,88 377,88 376,88 375,88 374,88 373,88 372,88 371,88 370,88 369,88 368,88 367,88 366,88 365,88 364,88 363,88 362,88 361,88 360,88 359,88 358,88 357,88 356,88 355,88 354,88 353,88 352,88 351,88 350,88 349,88 348,88 347,88 346,88 345,88 344,88 343,88 342,88 341,88 340,88 339,88 338,88 337,88 336,88 335,88 334,88 333,88 332,88 331,88 330,88 329,88 328,88 327,88 326,88 325,88 324,88 323,88 322,88 321,88 320,88 319,88 318,88 317,88 316,88 315,88 314,88 313,88 312,88 311,88 310,88 309,88 308,88 307,88 306,88 305,88 304,88 303,88 302,88 301,88 300,88 299,88 298,88 297,88 296,88 295,88">
      <metadata tailDirection="" confidence="0.99" linkedToCharacter="" id="CYB_COSMOZONE_008_balloon_4" tailTip=""></metadata>
    </polygon>
    <polygon points="197,231 196,232 195,232 194,232 193,232 192,232 191,232 190,232 189,233 188,233 187,233 186,233 185,233 184,233 183,234 182,234 181,234 180,235 179,235 178,235 177,236 176,236 175,237 174,237 173,238 172,239 171,240 170,241 169,242 168,243 168,244 167,245 166,246 166,247 165,248 165,249 165,250 164,251 164,252 164,253 164,254 163,255 163,256 163,257 163,258 163,259 163,260 162,261 162,262 162,263 163,263 164,262 165,262 166,261 167,260 168,260 169,260 170,259 171,259 172,259 173,259 174,258 175,258 176,258 177,257 178,257 179,256 180,256 181,256 182,256 183,256 184,256 185,256 186,256 187,255 188,255 189,255 190,255 191,255 192,255 193,255 194,255 195,254 196,254 197,254 198,254 199,254 200,254 201,254 202,254 203,254 204,254 205,255 206,255 207,255 208,255 209,255 210,255 211,256 212,256 213,256 214,257 215,257 216,258 217,259 218,259 219,259 220,260 221,261 220,262 219,262 219,263 219,264 219,265 219,266 220,267 221,266 222,266 223,266 224,266 225,266 226,266 227,266 228,266 229,266 230,266 231,265 231,264 230,263 230,262 229,261 228,260 227,259 226,258 225,257 224,256 224,255 224,254 225,253 226,253 227,252 228,252 227,252 226,251 225,251 224,250 223,250 222,249 222,248 223,247 224,246 225,246 226,245 226,244 225,244 224,243 223,243 222,242 221,242 220,241 219,240 218,239 218,238 219,237 220,236 221,236 222,235 223,235 222,234 221,234 220,234 219,233 218,233 217,233 216,233 215,233 214,233 213,232 212,232 211,232 210,232 209,232 208,232 207,232 206,231 205,231 204,231 203,231 202,231 201,231 200,231 199,231 198,231 197,231">
      <metadata tailDirection="" confidence="0.28" linkedToCharacter="" id="CYB_COSMOZONE_008_balloon_5" tailTip=""></metadata>
    </polygon>
    <polygon points="14,88 14,89 14,90 14,91 14,92 14,93 14,94 14,95 14,96 14,97 14,98 14,99 14,100 14,101 14,102 13,103 14,104 14,105 14,106 14,107 14,108 14,109 14,110 14,111 14,112 14,113 14,114 14,115 14,116 14,117 14,118 14,119 14,120 14,121 13,122 14,123 14,124 13,125 14,126 14,127 14,128 14,129 13,130 13,131 14,132 13,133 14,134 14,135 13,136 13,137 14,138 14,139 13,140 13,141 14,142 14,143 14,144 14,145 14,146 13,147 13,148 13,149 14,150 13,151 13,152 13,153 13,154 13,155 14,156 15,157 16,158 17,159 18,159 19,160 20,160 21,161 22,162 23,162 24,163 25,163 26,164 27,165 28,165 29,166 30,166 31,167 32,167 33,168 34,168 35,169 36,169 37,169 38,170 39,170 40,171 41,171 42,172 43,172 44,172 45,173 46,173 47,173 48,174 49,174 50,174 51,175 52,175 53,175 54,175 55,176 56,176 57,176 58,176 59,177 60,177 61,177 62,177 63,178 64,178 65,178 66,178 67,178 68,178 69,178 70,178 71,178 72,178 73,179 73,180 74,181 74,182 74,183 74,182 74,181 75,180 76,179 77,178 78,178 79,178 80,178 81,179 82,179 83,179 84,179 85,179 86,179 87,179 88,179 89,180 90,179 91,179 92,179 93,179 94,179 95,179 96,179 97,179 98,179 99,179 100,179 101,179 102,179 103,179 104,179 105,179 106,179 107,179 108,179 109,179 110,179 111,179 112,179 113,179 114,179 115,178 116,178 117,178 118,178 119,178 120,178 121,177 122,177 123,177 124,177 125,177 126,177 127,177 128,176 129,176 130,176 131,176 132,176 133,175 134,175 135,175 136,175 137,175 138,174 139,174 140,174 141,174 142,173 143,173 144,172 145,172 146,172 147,171 148,171 149,170 150,170 151,170 152,169 153,169 154,168 155,168 156,168 157,167 158,167 159,166 160,165 161,164 162,164 163,163 164,162 165,162 166,161 167,160 168,160 169,159 170,158 171,157 172,156 173,155 174,154 174,153 175,152 176,151 176,150 177,149 178,148 179,147 179,146 179,145 180,144 180,143 181,142 181,141 182,140 182,139 182,138 182,137 183,136 183,135 183,134 184,133 184,132 184,131 183,130 184,129 184,128 184,127 184,126 184,125 184,124 184,123 184,122 183,121 183,120 183,119 183,118 183,117 183,116 183,115 182,114 182,113 182,112 182,111 181,110 181,109 180,108 180,107 180,106 179,105 179,104 179,103 178,102 178,101 177,100 177,99 176,98 175,97 175,96 174,95 174,94 173,93 172,92 172,91 171,90 170,89 170,88 169,88 168,88 167,88 166,88 165,88 164,88 163,88 162,88 161,88 160,88 159,88 158,88 157,88 156,88 155,88 154,88 153,88 152,88 151,88 150,88 149,88 148,88 147,88 146,88 145,88 144,88 143,88 142,88 141,88 140,88 139,88 138,88 137,88 136,88 135,88 134,88 133,88 132,88 131,88 130,88 129,88 128,88 127,88 126,88 125,88 124,88 123,88 122,88 121,88 120,88 119,88 118,88 117,88 116,88 115,88 114,88 113,88 112,88 111,88 110,88 109,88 108,88 107,88 106,88 105,88 104,88 103,88 102,88 101,88 100,88 99,88 98,88 97,88 96,88 95,88 94,88 93,88 92,88 91,88 90,88 89,88 88,88 87,88 86,88 85,88 84,88 83,88 82,88 81,88 80,88 79,88 78,88 77,88 76,88 75,88 74,88 73,88 72,88 71,88 70,88 69,88 68,88 67,88 66,88 65,88 64,88 63,88 62,88 61,88 60,88 59,88 58,88 57,88 56,88 55,88 54,88 53,88 52,88 51,88 50,88 49,88 48,88 47,88 46,88 45,88 44,88 43,88 42,88 41,88 40,88 39,88 38,88 37,88 36,88 35,88 34,88 33,88 32,88 31,88 30,88 29,88 28,88 27,88 26,88 25,88 24,88 23,88 22,88 21,88 20,88 19,88 18,88 17,88 16,88 15,88 14,88">
      <metadata tailDirection="" confidence="0.99" linkedToCharacter="" id="CYB_COSMOZONE_008_balloon_6" tailTip=""></metadata>
    </polygon>
  </svg>
</svg>
