<?xml version="1.0" encoding="UTF-8" standalone="no"?>
<svg width="700" xmlns="http://www.w3.org/2000/svg" version="1.0" height="990">
  <title>INOUE_KYOUMEN_016</title>
  <svg contentScriptType="text/ecmascript" zoomAndPan="magnify" contentStyleType="text/css" class="Page" preserveAspectRatio="xMidYMid meet" version="1.0">
    <image xmlns:xlink="http://www.w3.org/1999/xlink" x="0" y="0" width="700" height="990" xlink:href="../Images/INOUE_KYOUMEN_016.jpg" xlink:type="simple" xlink:actuate="onLoad" preserveAspectRatio="xMidYMid meet" xlink:show="embed"/>
  </svg>
  <style type="text/css" xml:space="preserve">
        * { stroke-linejoin: round; }
        .Unclassified   { fill: orange; stroke: none;   opacity: 1.0; visibility: hidden; }
        .Noise          { fill: pink;   stroke: none;   opacity: 0.2; visibility: hidden; }
        .Panel          { fill: none;   stroke: red;    stroke-width:3; opacity: 0.5; visibility: visible; image-rendering: optimizeSpeed; }
        .Line           { fill: green;  stroke: none;   opacity: 0.5; visibility: visible; image-rendering: optimizeSpeed; }
        .TextArea       { fill: grey;   stroke: none;   opacity: 0.2; visibility: visible; image-rendering: optimizeSpeed; }
        .Balloon        { fill: cyan;   stroke: none;   opacity: 0.5; visibility: visible; image-rendering: optimizeSpeed; }
        .Letter         { fill: blue;   stroke: none;   opacity: 0.2; visibility: hidden; }
        .Object, .Character, .Face  { fill: yellow; stroke: none;   opacity: 0.5; visibility: visible; image-rendering: optimizeSpeed; }
        .Page           { fill: white;  stroke: none;    opacity: 0.5; visibility: visible; }
        .linkSBSC { fill: blue; stroke: none; opacity: 1.0; visibility: visible; }
        polygon:hover { opacity:1.0; stroke:red; }
</style>
  <svg xmlns="http://www.w3.org/2000/svg" contentScriptType="text/ecmascript" zoomAndPan="magnify" contentStyleType="text/css" class="Balloon" preserveAspectRatio="xMidYMid meet" version="1.0">
    <polygon points="363,750 362,751 361,751 360,752 359,753 360,754 359,755 358,755 357,754 357,753 357,754 356,755 355,754 355,753 354,753 353,753 354,754 353,755 353,756 353,757 353,758 352,759 351,758 350,758 349,758 349,759 349,760 350,760 351,760 352,761 352,762 352,763 353,763 354,763 355,763 356,763 357,763 358,764 358,765 358,766 358,767 359,767 360,767 359,766 358,765 358,764 358,763 359,762 360,763 361,763 362,764 361,765 362,765 363,764 364,765 365,766 366,766 367,766 368,765 369,766 369,767 369,768 369,769 368,770 369,771 368,772 369,772 370,773 371,774 370,775 369,775 369,776 369,777 368,778 367,778 366,779 365,779 364,778 365,777 366,776 367,776 366,775 366,774 366,773 366,772 365,773 364,772 363,772 362,771 362,770 362,769 363,768 364,769 364,770 365,770 366,769 365,768 364,768 363,767 362,768 362,769 361,770 360,770 359,771 360,770 361,770 362,771 362,772 361,773 360,774 361,775 360,776 360,777 359,778 358,779 357,778 357,777 357,776 357,775 358,774 358,773 357,772 356,771 357,770 357,769 356,768 356,767 355,766 354,766 353,765 352,765 352,766 351,767 350,766 350,765 350,764 349,763 348,763 347,764 346,764 345,764 344,765 343,765 342,764 341,764 340,764 339,765 338,765 338,766 339,767 339,768 338,769 337,768 337,769 338,770 338,771 338,772 337,773 336,774 335,773 334,773 333,773 334,773 335,774 336,774 337,775 336,776 335,776 334,777 335,778 334,779 334,780 334,781 335,782 336,783 337,784 336,785 335,785 334,785 333,784 332,784 331,784 330,784 329,783 330,782 329,782 329,783 330,784 330,785 331,785 332,784 333,785 334,786 335,786 336,785 337,785 337,784 337,783 338,782 338,781 338,780 339,779 340,778 340,777 341,776 342,777 343,778 342,779 342,780 342,781 343,781 344,782 343,783 342,783 341,783 340,782 340,783 339,784 339,785 339,786 339,785 339,784 340,783 341,784 342,784 343,783 344,784 344,785 344,786 344,787 345,787 346,787 346,786 347,785 348,786 348,787 348,788 348,789 347,790 346,790 345,790 345,791 344,792 343,791 343,790 342,790 341,790 340,791 339,791 340,792 341,792 342,792 343,793 344,794 345,795 345,796 344,797 344,798 344,799 343,800 342,799 342,798 341,797 342,796 341,795 340,795 339,795 338,794 337,793 336,792 335,791 334,790 333,789 333,788 332,788 331,787 330,787 331,788 331,789 331,790 332,791 333,792 332,793 332,794 333,795 334,795 335,795 336,796 337,796 338,795 339,796 339,797 339,798 338,799 337,798 337,799 336,800 335,799 336,800 336,801 337,802 338,802 337,801 338,800 339,800 340,801 340,802 340,803 340,804 339,805 340,806 340,807 340,808 340,809 341,809 342,810 342,811 343,812 344,813 345,812 346,813 347,814 348,815 347,816 347,817 346,818 345,817 345,816 345,817 346,818 347,819 347,820 348,819 349,820 349,821 350,822 349,823 350,824 349,825 350,825 351,826 351,827 351,828 352,829 352,830 353,831 353,832 353,833 353,834 354,835 355,835 356,836 355,837 355,838 355,839 356,839 357,838 358,839 358,840 359,841 358,842 357,842 358,842 359,842 359,841 359,840 360,839 361,840 362,841 363,841 364,842 364,841 365,840 366,841 367,841 368,840 369,839 370,839 371,840 372,841 372,842 373,841 374,841 375,841 375,840 376,839 377,840 377,841 377,842 378,842 379,841 380,841 381,841 382,842 382,841 382,840 383,839 384,840 384,841 384,840 383,839 384,838 384,837 384,836 384,835 383,834 383,833 383,832 382,832 381,831 381,830 382,829 381,829 380,830 379,829 379,828 380,827 381,826 380,827 379,826 379,825 380,824 380,823 381,822 382,823 382,824 383,825 383,826 384,826 384,825 383,824 383,823 384,822 383,822 382,821 383,820 384,820 384,819 384,818 384,817 384,816 384,815 383,814 384,813 384,812 383,811 384,810 384,809 384,808 384,807 384,806 384,805 384,804 383,805 382,805 381,806 380,805 379,805 378,806 377,806 376,805 377,804 377,803 378,802 379,802 380,803 381,803 382,803 382,802 383,801 384,802 383,801 383,800 384,799 385,799 384,798 384,797 383,796 383,795 384,794 385,793 384,792 383,792 382,793 381,792 381,793 380,794 379,793 379,792 379,791 379,790 380,789 381,789 381,788 381,787 380,786 381,785 380,786 380,787 379,788 378,787 378,786 378,785 377,785 376,786 375,785 374,784 375,783 376,783 377,782 378,783 379,783 380,783 381,783 380,782 379,782 378,783 377,782 376,781 376,780 377,779 378,778 379,779 380,780 381,779 382,780 382,781 382,780 382,779 382,778 383,777 382,778 381,778 380,779 379,778 378,778 377,777 376,776 376,775 375,776 374,775 373,775 372,774 373,773 374,773 374,772 374,771 375,770 376,769 376,768 377,767 378,768 379,768 380,769 379,770 379,771 378,772 377,771 376,772 376,773 377,773 378,772 379,772 379,771 380,770 381,770 381,769 380,769 379,768 379,767 379,766 378,766 377,766 376,765 377,764 376,763 376,762 376,761 377,760 378,760 379,761 378,762 379,761 378,760 377,759 378,758 377,758 377,759 377,760 376,761 375,762 374,761 375,762 375,763 374,764 373,764 372,764 371,764 372,764 373,764 374,765 373,766 374,765 375,765 376,765 377,766 376,767 375,767 374,768 374,769 373,770 372,771 371,770 370,769 370,768 370,767 370,766 369,766 368,765 367,765 366,765 365,764 366,763 366,762 366,761 365,761 364,762 363,763 362,764 361,763 361,762 361,761 360,762 359,761 358,762 357,761 356,761 357,762 356,763 355,763 354,763 353,762 353,761 352,761 351,760 352,759 353,758 354,758 355,759 354,758 354,757 353,756 354,755 355,754 356,755 357,755 358,755 359,755 360,754 361,755 362,756 361,757 362,758 361,759 362,759 363,759 364,759 365,759 366,759 367,758 366,757 365,758 364,758 363,759 362,758 361,757 362,756 363,755 364,755 365,755 366,755 367,754 368,754 369,755 369,756 370,756 371,756 370,755 371,754 372,754 373,755 373,754 373,753 373,752 373,753 372,754 371,754 370,755 369,755 368,754 368,753 367,753 367,754 366,755 365,755 364,754 364,753 363,752 363,751 363,750">
      <metadata tailDirection="" confidence="0.74" linkedToCharacter="" id="INOUE_KYOUMEN_016_balloon_0" tailTip=""></metadata>
    </polygon>
    <polygon points="619,67 619,68 620,69 620,70 619,71 619,72 618,73 619,74 620,74 621,75 621,76 620,77 621,76 622,76 623,77 622,78 621,79 620,79 620,80 620,81 621,81 622,80 623,81 623,82 623,83 623,84 622,85 621,84 620,84 619,83 618,84 617,85 616,85 615,84 614,85 613,85 612,85 613,85 614,85 615,86 615,87 616,86 617,85 618,84 619,85 620,86 621,87 620,88 619,88 618,88 617,88 616,89 615,90 614,91 614,92 614,91 615,90 616,91 616,92 616,93 616,94 615,95 614,94 614,95 615,96 616,97 615,98 615,99 616,98 617,98 618,99 618,100 619,101 620,101 621,101 622,102 622,103 623,103 624,102 625,103 626,104 625,105 624,105 623,105 622,105 621,105 620,106 621,107 622,107 623,108 624,109 623,110 622,110 621,109 622,110 622,111 623,112 623,113 624,112 625,111 626,112 626,113 625,114 624,115 623,116 624,117 625,116 625,115 625,114 626,113 627,113 628,113 629,113 630,113 629,112 630,111 630,110 629,109 629,108 630,107 629,106 630,105 631,104 632,105 633,106 632,107 632,108 632,109 632,110 632,111 632,112 633,113 633,114 632,115 631,115 630,115 631,115 632,116 632,117 633,117 634,117 635,118 634,119 633,119 632,120 631,120 630,119 629,119 628,118 628,117 628,116 628,115 627,115 628,116 627,117 628,118 627,119 628,120 628,121 628,120 629,119 630,120 630,121 631,122 632,121 633,120 634,121 635,122 634,123 634,124 633,125 632,124 632,125 631,126 630,125 629,125 628,124 627,123 627,124 628,124 629,125 629,126 630,126 631,126 632,125 633,125 634,126 635,127 635,128 635,129 634,130 633,130 632,129 633,128 632,129 631,128 630,128 629,128 628,128 627,128 626,129 627,129 628,128 629,128 630,129 631,129 632,130 632,131 631,132 630,132 631,133 632,133 633,134 634,134 635,135 634,136 633,136 632,136 633,137 633,138 634,138 635,139 635,140 635,141 636,142 636,143 636,144 635,145 636,146 635,147 636,146 637,147 636,146 637,145 636,144 636,143 637,142 637,141 636,141 635,140 636,139 636,138 637,137 637,136 637,135 637,134 637,135 636,136 635,135 635,134 634,134 633,134 632,133 631,132 632,131 633,130 634,131 634,132 635,131 636,132 637,132 637,131 637,130 637,129 637,130 636,131 635,130 635,129 635,128 636,127 637,127 637,126 637,125 637,124 636,125 635,124 635,123 636,122 637,122 637,121 637,120 636,120 635,119 636,118 637,117 637,116 637,115 636,114 637,113 637,112 636,111 637,110 637,109 636,108 636,107 637,106 637,105 637,104 637,103 636,102 637,101 637,100 637,99 637,98 636,97 637,96 637,95 637,94 637,93 637,92 636,91 637,90 637,89 637,88 637,87 636,88 635,87 635,86 636,85 637,85 638,84 638,83 637,83 636,82 635,81 635,80 636,79 637,79 638,80 637,79 637,78 636,78 635,77 636,76 637,76 637,75 636,74 636,73 635,72 636,71 637,71 638,72 638,73 638,72 637,71 637,70 637,69 638,68 638,67 637,67 636,67 635,67 634,67 633,67 632,67 631,67 630,67 629,67 628,67 627,68 626,68 625,67 624,67 623,67 622,68 621,67 620,67 619,67">
      <metadata tailDirection="" confidence="0.56" linkedToCharacter="" id="INOUE_KYOUMEN_016_balloon_1" tailTip=""></metadata>
    </polygon>
    <polygon points="610,433 610,434 609,435 608,434 608,435 608,436 609,436 610,437 610,438 609,439 609,440 609,441 609,442 610,441 611,442 611,443 610,444 609,444 610,445 611,446 610,447 610,448 610,449 610,450 611,451 610,452 610,453 610,454 610,455 611,455 612,456 612,457 611,458 611,459 612,460 613,460 614,461 615,461 616,460 617,460 618,461 618,462 617,463 616,463 615,463 615,464 615,465 614,466 613,465 612,466 613,467 614,467 614,466 615,465 616,465 617,466 616,467 617,468 618,469 619,470 619,471 618,472 617,472 616,472 615,471 616,470 615,469 614,469 613,469 614,470 614,471 615,471 616,472 616,473 616,474 617,474 618,475 617,476 616,476 615,476 616,477 617,477 618,477 619,476 620,476 621,476 622,476 623,477 624,478 625,478 626,478 627,478 628,479 628,480 629,480 630,479 631,480 632,480 633,479 634,478 634,477 633,476 634,475 633,474 633,473 632,472 632,471 632,470 631,470 630,471 629,471 628,470 628,469 628,468 628,467 628,466 628,465 627,465 626,465 627,466 627,467 628,468 628,469 627,470 626,469 625,469 624,469 623,468 623,467 622,466 623,465 624,465 624,464 625,463 625,462 626,461 627,462 627,463 628,462 629,463 629,462 628,461 628,460 628,459 628,458 627,458 626,457 627,456 627,455 627,454 627,453 626,452 625,452 624,453 623,452 622,451 622,450 623,449 624,450 625,450 625,449 624,448 623,447 624,446 623,445 623,444 622,444 621,443 620,442 620,441 620,440 621,439 621,438 622,437 623,436 623,435 622,435 622,436 622,437 621,438 620,438 619,438 618,437 618,436 618,435 617,435 616,435 616,436 615,437 614,436 613,437 612,437 611,436 611,435 612,434 613,434 614,434 615,433 616,433 617,433 618,433 619,433 620,434 621,433 622,433 623,433 624,433 625,433 626,433 627,433 628,433 629,433 630,433 631,434 630,435 630,436 629,437 628,436 628,435 627,435 627,436 626,437 625,437 625,438 626,438 627,439 627,440 628,441 628,442 627,443 626,442 625,441 624,441 623,440 624,441 625,442 625,443 625,444 626,445 627,445 628,446 627,447 627,448 628,449 629,450 629,451 629,452 630,452 631,453 631,454 632,454 633,455 632,456 633,457 634,458 633,459 632,459 631,459 630,458 630,457 630,456 629,455 630,456 630,457 630,458 631,459 631,460 632,461 632,462 632,463 633,464 634,464 635,465 635,466 634,467 635,466 636,467 636,468 637,467 638,467 637,466 636,466 635,465 635,464 636,463 637,464 637,463 637,462 637,461 637,460 637,459 637,458 637,457 638,456 637,455 637,454 637,453 637,452 636,451 637,450 637,449 637,448 637,447 637,446 637,445 636,444 637,443 637,442 637,441 637,440 637,439 636,438 636,437 636,436 636,435 637,434 637,433 636,433 635,433 634,433 633,433 632,433 631,433 630,433 629,433 628,433 627,433 626,433 625,433 624,433 623,433 622,433 621,433 620,433 619,433 618,433 617,433 616,433 615,433 614,433 613,433 612,433 611,433 610,433">
      <metadata tailDirection="" confidence="0.65" linkedToCharacter="" id="INOUE_KYOUMEN_016_balloon_2" tailTip=""></metadata>
    </polygon>
  </svg>
</svg>
