<?xml version="1.0" encoding="UTF-8" standalone="no"?>
<svg width="700" xmlns="http://www.w3.org/2000/svg" version="1.0" height="990">
  <title>INOUE_KYOUMEN_006</title>
  <svg contentScriptType="text/ecmascript" zoomAndPan="magnify" contentStyleType="text/css" class="Page" preserveAspectRatio="xMidYMid meet" version="1.0">
    <image xmlns:xlink="http://www.w3.org/1999/xlink" x="0" y="0" width="700" height="990" xlink:href="../Images/INOUE_KYOUMEN_006.jpg" xlink:type="simple" xlink:actuate="onLoad" preserveAspectRatio="xMidYMid meet" xlink:show="embed"/>
  </svg>
  <style type="text/css" xml:space="preserve">
        * { stroke-linejoin: round; }
        .Unclassified   { fill: orange; stroke: none;   opacity: 1.0; visibility: hidden; }
        .Noise          { fill: pink;   stroke: none;   opacity: 0.2; visibility: hidden; }
        .Panel          { fill: none;   stroke: red;    stroke-width:3; opacity: 0.5; visibility: visible; image-rendering: optimizeSpeed; }
        .Line           { fill: green;  stroke: none;   opacity: 0.5; visibility: visible; image-rendering: optimizeSpeed; }
        .TextArea       { fill: grey;   stroke: none;   opacity: 0.2; visibility: visible; image-rendering: optimizeSpeed; }
        .Balloon        { fill: cyan;   stroke: none;   opacity: 0.5; visibility: visible; image-rendering: optimizeSpeed; }
        .Letter         { fill: blue;   stroke: none;   opacity: 0.2; visibility: hidden; }
        .Object, .Character, .Face  { fill: yellow; stroke: none;   opacity: 0.5; visibility: visible; image-rendering: optimizeSpeed; }
        .Page           { fill: white;  stroke: none;    opacity: 0.5; visibility: visible; }
        .linkSBSC { fill: blue; stroke: none; opacity: 1.0; visibility: visible; }
        polygon:hover { opacity:1.0; stroke:red; }
</style>
  <svg xmlns="http://www.w3.org/2000/svg" contentScriptType="text/ecmascript" zoomAndPan="magnify" contentStyleType="text/css" class="Balloon" preserveAspectRatio="xMidYMid meet" version="1.0">
    <polygon points="530,769 530,770 529,771 529,772 529,773 529,774 529,775 529,776 529,777 529,778 529,779 529,780 529,781 529,782 529,783 529,784 529,785 529,786 529,787 529,788 529,789 530,790 530,791 530,792 530,793 530,794 530,795 530,796 530,797 530,798 530,799 530,800 529,801 529,802 530,803 529,804 529,805 530,806 529,807 529,808 530,809 530,810 530,811 530,812 529,813 529,814 530,815 530,816 530,817 530,818 529,819 529,820 529,821 530,822 530,823 530,824 529,825 529,826 529,827 529,828 529,829 529,830 529,831 530,832 529,833 529,834 529,835 529,836 529,837 529,838 529,839 529,840 529,841 529,842 529,843 529,844 529,845 529,846 529,847 529,848 529,849 529,850 529,851 529,852 529,853 529,854 529,855 529,856 529,857 529,858 528,859 528,860 529,861 529,862 529,863 529,864 529,865 529,866 529,867 529,868 529,869 529,870 529,871 529,872 530,872 531,872 532,872 533,872 534,872 535,872 536,872 537,872 538,872 539,872 540,872 541,872 542,872 543,872 544,872 545,872 546,872 547,872 548,872 549,872 550,872 551,872 552,872 553,872 554,872 555,872 556,872 557,872 558,872 559,872 560,872 561,872 562,872 563,872 564,872 565,872 566,872 567,872 568,872 569,872 570,872 571,872 572,872 573,872 574,872 575,872 576,872 577,872 578,872 579,872 580,872 581,872 582,872 583,872 584,872 585,872 586,872 587,873 588,873 589,873 590,873 591,873 592,873 593,872 594,873 595,873 596,872 597,873 598,873 599,873 600,873 601,873 602,873 603,873 604,873 605,873 606,873 607,873 608,873 609,873 610,873 611,873 612,873 613,873 614,873 615,873 616,873 617,873 618,873 619,873 619,872 619,871 620,870 620,869 620,868 620,867 620,866 620,865 620,864 620,863 620,862 620,861 620,860 620,859 620,858 620,857 620,856 620,855 620,854 620,853 620,852 620,851 620,850 620,849 620,848 620,847 620,846 620,845 620,844 620,843 620,842 620,841 620,840 620,839 620,838 620,837 621,836 620,835 620,834 620,833 620,832 620,831 621,830 620,829 620,828 621,827 621,826 621,825 621,824 621,823 621,822 621,821 621,820 621,819 621,818 621,817 621,816 621,815 621,814 621,813 621,812 621,811 621,810 621,809 621,808 621,807 621,806 621,805 621,804 621,803 621,802 621,801 621,800 621,799 621,798 621,797 621,796 621,795 621,794 621,793 621,792 621,791 621,790 621,789 621,788 621,787 621,786 621,785 621,784 621,783 621,782 621,781 621,780 621,779 621,778 621,777 621,776 621,775 621,774 621,773 621,772 621,771 621,770 620,770 619,769 618,769 617,769 616,769 615,770 614,769 613,769 612,769 611,769 610,769 609,769 608,769 607,769 606,769 605,769 604,769 603,769 602,769 601,769 600,769 599,769 598,769 597,769 596,769 595,769 594,769 593,769 592,769 591,769 590,769 589,769 588,769 587,769 586,769 585,769 584,769 583,769 582,769 581,769 580,769 579,769 578,769 577,769 576,769 575,769 574,769 573,769 572,769 571,769 570,769 569,769 568,769 567,769 566,769 565,769 564,769 563,769 562,769 561,769 560,769 559,769 558,769 557,769 556,769 555,769 554,769 553,769 552,769 551,769 550,769 549,769 548,769 547,769 546,769 545,769 544,769 543,769 542,769 541,769 540,769 539,769 538,769 537,769 536,769 535,769 534,769 533,769 532,769 531,769 530,769">
      <metadata tailDirection="" confidence="0.95" linkedToCharacter="" id="INOUE_KYOUMEN_006_balloon_0" tailTip=""></metadata>
    </polygon>
    <polygon points="87,422 87,423 87,424 87,425 86,426 86,427 86,428 86,429 86,430 86,431 86,432 86,433 86,434 86,435 86,436 86,437 86,438 86,439 86,440 86,441 86,442 86,443 86,444 86,445 86,446 86,447 86,448 86,449 86,450 86,451 86,452 86,453 86,454 86,455 86,456 86,457 86,458 86,459 86,460 86,461 86,462 86,463 86,464 86,465 86,466 86,467 86,468 86,469 86,470 86,471 86,472 86,473 86,474 86,475 86,476 86,477 86,478 86,479 86,480 86,481 86,482 86,483 86,484 86,485 86,486 86,487 86,488 86,489 86,490 86,491 86,492 86,493 86,494 86,495 86,496 86,497 86,498 86,499 86,500 86,501 86,502 86,503 86,504 86,505 86,506 86,507 86,508 86,509 86,510 86,511 86,512 86,513 86,514 86,515 86,516 86,517 86,518 86,519 86,520 86,521 86,522 86,523 86,524 86,525 86,526 86,527 86,528 86,529 86,530 86,531 86,532 86,533 86,534 86,535 86,536 86,537 86,538 86,539 86,540 86,541 86,542 86,543 86,544 86,545 86,546 86,547 86,548 86,549 86,550 86,551 86,552 86,553 86,554 86,555 86,556 86,557 86,558 86,559 87,559 88,559 89,559 90,559 91,559 92,559 93,559 94,559 95,559 96,559 97,559 98,559 99,559 100,559 101,559 102,559 103,559 104,559 105,559 106,559 107,559 108,559 109,559 110,559 111,559 112,559 113,559 114,559 115,559 116,559 117,559 118,559 119,559 120,559 121,559 122,559 123,559 124,559 125,559 126,559 127,559 128,559 129,559 130,559 131,559 132,559 133,559 134,559 135,559 136,559 137,559 138,559 139,559 140,559 141,559 142,559 143,559 144,559 145,560 146,560 147,560 148,560 149,560 150,560 151,560 152,560 153,560 154,560 155,560 156,560 157,560 158,560 159,560 160,560 161,560 162,560 163,560 164,560 165,560 166,560 167,561 167,562 167,563 168,564 167,565 168,566 169,565 170,565 171,565 172,566 172,565 171,564 172,563 173,563 174,564 175,565 174,564 174,563 173,563 172,563 171,562 170,561 171,560 172,560 173,560 174,560 175,560 176,560 177,560 178,560 179,560 180,560 181,560 182,560 183,560 184,560 185,560 186,560 187,560 188,560 189,560 190,560 191,560 192,560 193,560 194,560 195,560 196,560 197,560 198,560 199,560 200,560 201,560 202,560 203,560 204,560 205,560 206,560 207,560 208,560 209,560 210,560 211,560 212,560 212,559 212,558 212,557 212,556 212,555 212,554 212,553 212,552 212,551 212,550 212,549 212,548 212,547 212,546 212,545 212,544 212,543 212,542 212,541 212,540 212,539 212,538 212,537 212,536 212,535 212,534 212,533 212,532 212,531 212,530 212,529 212,528 212,527 212,526 212,525 212,524 212,523 212,522 212,521 212,520 212,519 212,518 212,517 212,516 212,515 212,514 213,513 212,512 213,511 212,510 212,509 213,508 213,507 213,506 213,505 213,504 213,503 213,502 213,501 213,500 213,499 213,498 213,497 213,496 213,495 213,494 213,493 213,492 213,491 213,490 213,489 213,488 213,487 213,486 213,485 213,484 213,483 213,482 213,481 213,480 213,479 213,478 213,477 213,476 213,475 213,474 213,473 213,472 213,471 213,470 213,469 213,468 213,467 213,466 213,465 213,464 213,463 213,462 213,461 213,460 213,459 213,458 213,457 213,456 213,455 213,454 213,453 213,452 213,451 213,450 213,449 213,448 213,447 213,446 213,445 213,444 213,443 213,442 213,441 213,440 213,439 213,438 213,437 213,436 213,435 213,434 213,433 213,432 213,431 213,430 213,429 213,428 213,427 213,426 213,425 213,424 212,423 212,422 211,422 210,423 209,423 208,423 207,422 206,422 205,422 204,422 203,422 202,422 201,422 200,422 199,422 198,422 197,422 196,422 195,422 194,422 193,422 192,422 191,422 190,422 189,422 188,422 187,422 186,422 185,422 184,422 183,422 182,422 181,422 180,422 179,422 178,422 177,422 176,422 175,422 174,422 173,422 172,422 171,422 170,422 169,422 168,422 167,422 166,422 165,422 164,422 163,422 162,422 161,422 160,422 159,422 158,422 157,422 156,422 155,422 154,422 153,422 152,422 151,422 150,422 149,422 148,422 147,422 146,422 145,422 144,422 143,422 142,422 141,422 140,422 139,422 138,422 137,422 136,422 135,422 134,422 133,422 132,422 131,422 130,422 129,422 128,422 127,422 126,422 125,422 124,422 123,422 122,422 121,422 120,422 119,422 118,422 117,422 116,422 115,422 114,422 113,422 112,422 111,422 110,422 109,422 108,422 107,422 106,422 105,422 104,422 103,422 102,422 101,422 100,422 99,422 98,422 97,422 96,422 95,422 94,422 93,422 92,422 91,422 90,422 89,422 88,422 87,422">
      <metadata tailDirection="" confidence="0.92" linkedToCharacter="" id="INOUE_KYOUMEN_006_balloon_1" tailTip=""></metadata>
    </polygon>
    <polygon points="532,281 532,282 532,283 532,284 531,285 531,286 531,287 531,288 531,289 531,290 531,291 531,292 531,293 531,294 531,295 531,296 531,297 531,298 531,299 531,300 531,301 531,302 531,303 531,304 531,305 531,306 531,307 531,308 531,309 531,310 531,311 531,312 531,313 531,314 531,315 531,316 531,317 531,318 531,319 531,320 531,321 531,322 531,323 531,324 531,325 531,326 530,327 530,328 530,329 530,330 530,331 530,332 530,333 530,334 530,335 530,336 530,337 530,338 530,339 530,340 530,341 530,342 530,343 530,344 530,345 530,346 530,347 530,348 530,349 530,350 530,351 530,352 530,353 530,354 530,355 530,356 530,357 530,358 530,359 530,360 530,361 530,362 530,363 530,364 530,365 530,366 530,367 530,368 530,369 530,370 530,371 530,372 530,373 530,374 530,375 530,376 530,377 530,378 530,379 530,380 530,381 530,382 530,383 530,384 530,385 530,386 529,387 528,388 527,389 526,389 525,389 524,389 523,389 522,389 521,388 520,389 519,388 518,388 517,388 516,388 515,388 514,388 513,388 512,388 511,388 510,388 509,388 508,388 507,388 506,388 505,387 504,388 503,387 502,387 501,387 500,387 499,387 498,387 497,387 496,387 495,387 494,387 493,387 492,387 491,387 490,387 489,387 488,387 487,387 486,387 485,387 484,387 483,387 482,387 481,387 480,387 479,387 478,387 477,387 476,387 475,387 474,387 473,387 472,387 471,387 470,387 469,387 468,387 467,387 466,387 465,387 464,387 463,387 462,387 461,387 460,387 459,387 458,387 457,387 456,387 455,387 454,387 453,387 452,387 451,387 450,387 449,387 448,387 447,387 446,387 445,387 444,387 443,387 442,387 441,387 440,387 439,387 438,386 437,387 437,388 437,389 437,390 437,391 437,392 437,393 437,394 437,395 437,396 437,397 437,398 437,399 437,400 437,401 437,402 437,403 437,404 437,405 437,406 437,407 437,408 437,409 437,410 437,411 437,412 437,413 437,414 436,415 437,416 437,417 437,418 437,419 437,420 437,421 437,422 437,423 436,424 437,425 436,426 436,427 437,428 437,429 436,430 436,431 436,432 436,433 436,434 436,435 436,436 436,437 436,438 436,439 436,440 436,441 436,442 436,443 436,444 436,445 436,446 436,447 436,448 436,449 436,450 436,451 436,452 436,453 436,454 436,455 436,456 436,457 436,458 436,459 436,460 436,461 436,462 436,463 436,464 436,465 436,466 436,467 436,468 436,469 436,470 436,471 436,472 436,473 436,474 436,475 436,476 436,477 436,478 436,479 436,480 436,481 436,482 436,483 436,484 436,485 436,486 436,487 436,488 436,489 436,490 436,491 436,492 436,493 436,494 436,495 436,496 436,497 436,498 436,499 436,500 436,501 436,502 436,503 436,504 437,505 437,506 436,507 436,508 436,509 436,510 436,511 436,512 437,512 438,512 439,512 440,513 441,513 442,513 443,513 444,513 445,513 446,513 447,513 448,513 449,513 450,513 451,513 452,513 453,513 454,513 455,513 456,513 457,513 458,513 459,513 460,513 461,513 462,513 463,513 464,513 465,513 466,513 467,513 468,513 469,513 470,513 471,513 472,513 473,513 474,513 475,513 476,513 477,513 478,513 479,513 480,513 481,513 482,513 483,513 484,513 485,513 486,513 487,513 488,513 489,513 490,513 491,513 492,513 493,513 494,513 495,513 496,513 497,513 498,513 499,513 500,513 501,513 502,513 503,513 504,513 505,513 506,513 507,513 508,513 509,513 510,513 511,513 512,513 513,513 514,513 515,513 516,513 517,513 518,513 519,513 520,513 521,513 522,513 523,513 524,514 525,513 526,514 527,514 528,513 529,514 530,514 531,514 532,514 533,514 534,514 535,514 536,514 537,513 538,514 539,514 540,514 541,514 541,513 541,512 541,511 541,510 541,509 541,508 541,507 541,506 541,505 541,504 541,503 541,502 541,501 541,500 541,499 541,498 542,497 541,496 541,495 541,494 542,493 542,492 542,491 541,490 542,489 542,488 542,487 542,486 542,485 542,484 542,483 542,482 542,481 542,480 541,479 542,478 542,477 542,476 542,475 542,474 542,473 542,472 542,471 542,470 542,469 542,468 542,467 542,466 542,465 542,464 542,463 542,462 542,461 542,460 542,459 542,458 542,457 542,456 542,455 542,454 542,453 542,452 543,451 543,450 542,449 542,448 543,447 543,446 543,445 543,444 543,443 543,442 543,441 543,440 543,439 543,438 543,437 543,436 543,435 543,434 543,433 543,432 543,431 543,430 543,429 543,428 543,427 543,426 543,425 543,424 543,423 543,422 543,421 543,420 543,419 543,418 543,417 543,416 543,415 543,414 543,413 543,412 543,411 543,410 543,409 543,408 543,407 543,406 543,405 543,404 543,403 543,402 543,401 543,400 543,399 543,398 543,397 543,396 543,395 543,394 544,393 545,393 546,393 547,393 548,393 549,393 550,393 551,393 552,393 553,393 554,393 555,393 556,394 557,393 558,394 559,394 560,393 561,394 562,394 563,394 564,394 565,394 566,394 567,394 568,394 569,394 570,394 571,394 572,394 573,394 574,394 575,394 576,394 577,394 578,394 579,394 580,394 581,394 582,394 583,394 584,394 585,394 586,394 587,394 588,394 589,394 590,394 591,394 592,394 593,394 594,394 595,394 596,394 597,394 598,394 599,394 600,394 601,394 602,394 603,395 604,395 605,394 606,394 607,395 608,395 609,395 610,394 611,395 612,395 613,395 614,394 615,395 616,395 617,395 618,395 619,394 620,395 621,395 621,394 621,393 621,392 621,391 621,390 622,389 622,388 621,387 621,386 621,385 622,384 622,383 622,382 622,381 622,380 622,379 622,378 622,377 622,376 622,375 622,374 622,373 622,372 622,371 622,370 622,369 622,368 622,367 622,366 622,365 622,364 622,363 622,362 622,361 622,360 622,359 622,358 622,357 622,356 622,355 622,354 622,353 622,352 622,351 622,350 622,349 622,348 622,347 622,346 622,345 622,344 622,343 622,342 622,341 622,340 622,339 622,338 622,337 622,336 622,335 622,334 622,333 622,332 622,331 622,330 622,329 622,328 622,327 622,326 622,325 622,324 622,323 622,322 622,321 622,320 622,319 622,318 622,317 622,316 622,315 622,314 622,313 622,312 622,311 622,310 622,309 622,308 622,307 622,306 622,305 622,304 622,303 622,302 622,301 622,300 622,299 622,298 622,297 622,296 622,295 622,294 622,293 622,292 622,291 622,290 622,289 622,288 622,287 622,286 622,285 622,284 622,283 622,282 622,281 621,281 620,281 619,281 618,281 617,281 616,281 615,281 614,281 613,281 612,281 611,281 610,281 609,281 608,281 607,281 606,281 605,281 604,281 603,281 602,281 601,281 600,281 599,281 598,281 597,281 596,281 595,281 594,281 593,281 592,281 591,281 590,281 589,281 588,281 587,281 586,281 585,281 584,281 583,281 582,281 581,281 580,281 579,281 578,281 577,281 576,281 575,281 574,281 573,281 572,281 571,281 570,281 569,281 568,281 567,281 566,281 565,281 564,281 563,281 562,281 561,281 560,281 559,281 558,281 557,281 556,281 555,281 554,281 553,281 552,281 551,281 550,281 549,281 548,281 547,281 546,281 545,281 544,281 543,281 542,281 541,281 540,281 539,281 538,281 537,281 536,281 535,281 534,281 533,281 532,281">
      <metadata tailDirection="" confidence="0.93" linkedToCharacter="" id="INOUE_KYOUMEN_006_balloon_2" tailTip=""></metadata>
    </polygon>
    <polygon points="231,104 231,105 231,106 231,107 231,108 231,109 231,110 231,111 231,112 231,113 231,114 231,115 231,116 230,117 230,118 230,119 230,120 230,121 230,122 230,123 230,124 230,125 230,126 230,127 230,128 230,129 230,130 230,131 230,132 230,133 230,134 230,135 230,136 230,137 230,138 230,139 230,140 230,141 230,142 230,143 230,144 230,145 230,146 230,147 230,148 230,149 230,150 230,151 230,152 230,153 230,154 230,155 230,156 230,157 230,158 230,159 230,160 230,161 230,162 230,163 230,164 230,165 230,166 230,167 230,168 230,169 230,170 230,171 230,172 230,173 230,174 230,175 230,176 230,177 230,178 230,179 230,180 230,181 230,182 230,183 230,184 230,185 230,186 230,187 230,188 230,189 230,190 230,191 230,192 230,193 230,194 230,195 230,196 230,197 230,198 230,199 230,200 230,201 230,202 230,203 230,204 230,205 230,206 230,207 230,208 230,209 230,210 230,211 230,212 230,213 230,214 230,215 230,216 230,217 230,218 230,219 230,220 230,221 230,222 230,223 231,223 232,224 233,224 234,224 235,224 236,224 237,224 238,224 239,224 240,224 241,224 242,224 243,224 244,224 245,224 246,224 247,224 248,224 249,224 250,224 251,224 252,224 253,224 254,224 255,224 256,224 257,224 258,224 259,224 260,224 261,224 262,224 263,224 264,224 265,224 266,224 267,224 268,224 269,224 270,224 271,224 272,224 273,224 274,224 275,224 276,224 277,224 278,224 279,224 280,224 281,224 282,224 283,224 284,224 285,224 286,224 287,224 288,224 289,224 290,224 291,224 292,224 293,224 294,224 295,224 296,224 297,224 298,224 299,224 300,224 301,224 302,224 303,224 304,224 305,224 306,224 307,224 308,224 309,224 310,224 311,224 312,224 312,223 312,222 312,221 312,220 312,219 312,218 312,217 312,216 312,215 312,214 312,213 312,212 312,211 312,210 312,209 312,208 312,207 312,206 312,205 312,204 312,203 312,202 312,201 312,200 312,199 312,198 312,197 312,196 312,195 312,194 312,193 312,192 312,191 312,190 312,189 312,188 312,187 312,186 312,185 312,184 312,183 312,182 312,181 312,180 312,179 312,178 312,177 312,176 312,175 312,174 312,173 312,172 312,171 312,170 312,169 312,168 313,167 312,166 313,165 313,164 312,163 313,162 313,161 312,160 312,159 313,158 313,157 312,156 313,155 313,154 313,153 313,152 313,151 313,150 313,149 313,148 313,147 313,146 313,145 313,144 313,143 313,142 313,141 313,140 313,139 313,138 313,137 313,136 313,135 313,134 313,133 313,132 313,131 313,130 313,129 313,128 313,127 313,126 313,125 313,124 313,123 313,122 313,121 313,120 313,119 313,118 313,117 313,116 313,115 313,114 313,113 313,112 313,111 313,110 313,109 313,108 313,107 313,106 313,105 313,104 312,104 311,104 310,104 309,104 308,104 307,104 306,104 305,104 304,104 303,104 302,104 301,104 300,104 299,104 298,104 297,104 296,104 295,104 294,104 293,104 292,104 291,104 290,104 289,104 288,104 287,104 286,104 285,104 284,104 283,104 282,104 281,104 280,104 279,104 278,104 277,104 276,104 275,104 274,104 273,104 272,104 271,104 270,104 269,104 268,104 267,104 266,104 265,104 264,104 263,104 262,104 261,104 260,104 259,104 258,104 257,104 256,104 255,104 254,104 253,104 252,104 251,104 250,104 249,104 248,104 247,104 246,104 245,104 244,104 243,104 242,104 241,104 240,104 239,104 238,104 237,104 236,104 235,104 234,104 233,104 232,104 231,104">
      <metadata tailDirection="" confidence="1.00" linkedToCharacter="" id="INOUE_KYOUMEN_006_balloon_3" tailTip=""></metadata>
    </polygon>
  </svg>
</svg>
