<?xml version="1.0" encoding="UTF-8" standalone="no"?>
<svg width="800" xmlns="http://www.w3.org/2000/svg" version="1.0" height="328">
  <title>LAMISSEB_ETPISTAF_013</title>
  <svg contentScriptType="text/ecmascript" zoomAndPan="magnify" contentStyleType="text/css" class="Page" preserveAspectRatio="xMidYMid meet" version="1.0">
    <image xmlns:xlink="http://www.w3.org/1999/xlink" x="0" y="0" width="800" height="328" xlink:href="../Images/LAMISSEB_ETPISTAF_013.jpg" xlink:type="simple" xlink:actuate="onLoad" preserveAspectRatio="xMidYMid meet" xlink:show="embed"/>
  </svg>
  <style type="text/css" xml:space="preserve">
        * { stroke-linejoin: round; }
        .Unclassified   { fill: orange; stroke: none;   opacity: 1.0; visibility: hidden; }
        .Noise          { fill: pink;   stroke: none;   opacity: 0.2; visibility: hidden; }
        .Panel          { fill: none;   stroke: red;    stroke-width:3; opacity: 0.5; visibility: visible; image-rendering: optimizeSpeed; }
        .Line           { fill: green;  stroke: none;   opacity: 0.5; visibility: visible; image-rendering: optimizeSpeed; }
        .TextArea       { fill: grey;   stroke: none;   opacity: 0.2; visibility: visible; image-rendering: optimizeSpeed; }
        .Balloon        { fill: cyan;   stroke: none;   opacity: 0.5; visibility: visible; image-rendering: optimizeSpeed; }
        .Letter         { fill: blue;   stroke: none;   opacity: 0.2; visibility: hidden; }
        .Object, .Character, .Face  { fill: yellow; stroke: none;   opacity: 0.5; visibility: visible; image-rendering: optimizeSpeed; }
        .Page           { fill: white;  stroke: none;    opacity: 0.5; visibility: visible; }
        .linkSBSC { fill: blue; stroke: none; opacity: 1.0; visibility: visible; }
        polygon:hover { opacity:1.0; stroke:red; }
</style>
  <svg xmlns="http://www.w3.org/2000/svg" contentScriptType="text/ecmascript" zoomAndPan="magnify" contentStyleType="text/css" class="Balloon" preserveAspectRatio="xMidYMid meet" version="1.0">
    <polygon points="703,43 702,44 701,45 700,46 699,47 699,48 698,49 697,50 697,51 696,52 696,53 696,54 695,55 695,56 695,57 694,58 694,59 694,60 694,61 694,62 694,63 694,64 694,65 694,66 694,67 695,68 695,69 695,70 696,71 696,72 697,73 697,74 698,75 699,76 700,76 701,76 702,76 703,76 704,76 705,77 706,77 707,77 708,77 709,77 710,77 711,77 712,77 713,77 714,77 715,77 716,77 717,77 718,77 719,77 720,77 721,77 722,77 723,77 724,76 725,76 726,76 727,76 728,76 729,76 730,76 731,76 732,76 733,76 734,76 735,76 736,75 737,75 738,75 739,75 740,75 741,75 742,75 743,75 744,75 745,75 746,75 747,74 748,74 749,74 750,74 751,74 752,74 753,74 754,74 755,74 756,73 757,73 758,73 759,72 759,71 760,70 760,69 760,68 761,67 761,66 762,65 763,64 764,64 765,64 766,64 767,64 768,64 769,64 770,65 771,65 772,66 773,67 774,68 774,69 773,70 773,71 772,72 772,73 771,74 770,75 770,76 770,77 770,78 771,78 772,79 773,79 774,80 775,80 776,81 777,82 777,83 777,84 778,85 778,86 778,87 778,88 778,89 778,90 777,91 777,92 776,93 776,94 775,95 775,96 774,97 774,98 773,99 773,100 772,101 771,102 771,103 771,104 771,105 770,106 769,107 768,106 767,106 766,106 765,106 764,107 763,107 762,107 761,107 760,108 759,108 758,109 757,109 756,110 755,110 754,111 753,112 752,112 751,113 750,114 750,115 749,116 748,117 748,118 748,119 747,120 747,121 747,122 747,123 747,124 747,125 747,126 748,127 748,128 748,129 749,130 749,131 750,131 751,132 752,132 753,132 754,132 755,132 756,132 757,132 758,132 759,132 760,132 761,132 762,131 763,131 764,131 765,131 766,132 766,133 766,134 767,135 768,136 769,137 770,137 771,138 770,137 770,136 769,135 769,134 769,133 770,132 771,132 772,132 773,132 774,132 775,132 776,132 777,132 778,132 779,131 780,131 781,131 782,131 783,131 784,131 785,131 786,130 787,130 788,129 789,129 790,128 791,127 791,126 792,125 792,124 792,123 792,122 792,121 792,120 792,119 792,118 792,117 792,116 792,115 792,114 792,113 792,112 791,111 791,110 790,109 789,108 788,108 787,108 786,108 785,107 784,107 783,107 782,107 781,107 780,107 779,107 778,107 777,107 776,107 775,107 774,107 773,106 773,105 773,104 773,103 773,102 774,101 774,100 774,99 775,98 775,97 775,96 776,95 776,94 776,93 777,92 777,91 778,90 778,89 778,88 778,87 778,86 778,85 778,84 778,83 778,82 777,81 776,81 775,80 774,79 773,78 772,77 772,76 772,75 772,74 772,73 773,72 773,71 774,70 775,69 775,68 776,67 776,66 775,65 774,65 773,65 772,64 771,64 770,63 769,63 768,63 767,63 766,63 765,63 764,62 763,62 762,62 761,61 761,60 762,59 762,58 761,57 761,56 761,55 761,54 761,53 761,52 761,51 760,50 760,49 760,48 760,47 759,46 758,46 757,46 756,46 755,46 754,46 753,45 752,45 751,45 750,45 749,45 748,45 747,45 746,45 745,45 744,45 743,44 742,44 741,44 740,44 739,44 738,44 737,44 736,44 735,44 734,44 733,44 732,44 731,43 730,43 729,43 728,43 727,43 726,43 725,43 724,43 723,43 722,43 721,43 720,43 719,43 718,43 717,43 716,43 715,43 714,43 713,43 712,43 711,43 710,43 709,43 708,43 707,43 706,43 705,43 704,43 703,43">
      <metadata tailDirection="" confidence="0.67" linkedToCharacter="" id="LAMISSEB_ETPISTAF_013_balloon_0" tailTip=""></metadata>
    </polygon>
    <polygon points="580,32 579,33 578,33 577,33 576,33 575,33 574,33 573,33 572,33 571,33 570,33 569,33 568,33 567,33 566,33 565,33 564,33 563,33 562,33 561,33 560,33 559,33 558,33 557,33 556,33 555,33 554,33 553,33 552,33 551,33 550,33 549,33 548,33 547,33 546,33 545,33 544,33 543,33 542,33 541,33 540,33 539,33 538,34 537,34 536,34 535,34 534,34 533,34 532,34 531,34 530,35 529,35 528,35 527,35 526,35 525,36 524,36 523,37 522,38 521,39 520,40 520,41 519,42 519,43 518,44 518,45 517,46 517,47 516,48 516,49 515,50 515,51 514,52 514,53 513,54 513,55 513,56 513,57 512,58 512,59 512,60 512,61 511,62 511,63 511,64 511,65 511,66 511,67 510,68 510,69 510,70 510,71 510,72 510,73 510,74 510,75 510,76 510,77 510,78 510,79 510,80 510,81 510,82 510,83 511,84 511,85 511,86 511,87 511,88 512,89 512,90 512,91 512,92 513,93 513,94 513,95 514,96 514,97 514,98 515,99 515,100 516,101 516,102 517,103 517,104 518,105 519,106 519,107 520,108 521,109 521,110 522,111 523,111 524,111 525,112 526,112 527,112 528,112 529,112 530,113 531,113 532,113 533,113 534,113 535,113 536,114 537,114 538,114 539,114 540,114 541,114 542,114 543,114 544,115 545,115 546,115 547,115 548,115 549,115 550,115 551,115 552,115 553,115 554,116 555,116 556,116 557,116 558,116 559,116 560,116 561,116 562,116 563,116 564,115 565,116 566,116 567,116 568,116 569,116 570,116 571,116 572,116 573,116 574,116 575,116 576,116 577,116 578,116 579,116 580,116 581,116 582,116 583,115 584,115 585,115 586,115 587,115 588,115 589,115 590,115 591,115 592,115 593,115 594,115 595,115 596,115 597,115 598,115 599,115 600,115 601,115 602,115 603,115 604,115 605,115 606,115 607,115 608,115 609,115 610,115 611,115 612,115 613,115 614,115 615,115 616,115 617,115 618,115 619,115 620,116 621,116 622,116 623,116 624,116 625,116 626,117 627,118 628,119 629,120 629,121 630,122 630,123 629,124 629,125 629,126 628,127 628,128 627,129 627,130 626,131 625,132 625,133 624,134 623,135 623,136 623,137 622,138 622,139 622,140 622,141 623,142 624,143 625,143 626,144 627,144 628,145 629,145 630,146 631,146 630,146 629,145 628,145 627,144 626,143 625,142 625,141 624,140 624,139 624,138 624,137 625,136 625,135 626,134 627,133 627,132 628,131 629,130 630,129 631,128 632,127 632,126 633,125 633,124 634,123 634,122 634,121 634,120 634,119 634,118 633,117 633,116 633,115 634,114 635,114 636,114 637,114 638,114 639,114 640,114 641,114 642,114 643,114 644,114 645,114 646,115 647,115 648,115 649,115 650,115 651,115 652,115 653,115 654,115 655,115 656,115 657,115 658,115 659,115 660,115 661,115 662,115 663,115 664,115 665,115 666,115 667,115 668,115 669,114 670,114 671,114 672,113 673,112 673,111 674,110 675,109 676,108 676,107 677,106 678,105 678,104 678,103 678,102 679,101 680,100 681,100 682,99 683,99 684,98 685,98 686,97 687,97 688,97 689,96 690,96 691,96 692,96 693,95 694,95 695,95 696,95 697,96 698,96 699,97 700,97 701,97 702,97 703,97 704,97 705,97 706,96 707,96 708,96 709,96 710,96 711,96 712,95 713,96 714,97 714,98 715,99 715,100 716,101 717,101 718,101 719,101 720,101 721,101 722,101 723,101 724,101 725,101 726,101 727,101 728,101 729,101 730,101 731,101 732,101 733,101 734,101 735,101 736,101 737,101 738,101 739,101 740,100 741,100 742,100 743,100 744,100 745,100 746,100 747,99 748,99 749,99 750,99 751,99 752,98 753,98 753,97 753,96 754,95 754,94 754,93 754,92 754,91 753,90 753,89 753,88 753,87 753,86 753,85 752,84 751,84 750,84 749,84 748,83 747,83 746,83 745,83 744,83 743,83 742,82 741,82 740,82 739,82 738,82 737,82 736,82 735,82 734,82 733,82 732,82 731,82 730,82 729,82 728,82 727,82 726,82 725,83 724,83 723,83 722,83 721,83 720,83 719,83 718,84 717,84 716,84 715,84 715,85 715,86 715,87 714,88 714,89 714,90 714,91 714,92 714,93 714,94 713,95 712,95 711,95 710,96 709,96 708,96 707,96 706,96 705,97 704,97 703,97 702,97 701,96 700,96 699,95 698,94 697,93 696,93 695,93 694,93 693,93 692,93 691,93 690,93 689,94 688,94 687,94 686,95 685,95 684,96 683,96 682,95 682,94 682,93 682,92 683,91 683,90 683,89 683,88 683,87 683,86 684,85 684,84 684,83 684,82 684,81 684,80 684,79 684,78 684,77 684,76 684,75 684,74 683,73 683,72 683,71 683,70 683,69 683,68 683,67 683,66 682,65 682,64 682,63 682,62 681,61 681,60 681,59 681,58 681,57 680,56 680,55 680,54 679,53 679,52 679,51 678,50 678,49 677,48 677,47 677,46 676,45 676,44 675,43 674,42 674,41 673,40 672,39 671,38 671,37 670,36 669,36 668,35 667,35 666,35 665,34 664,34 663,34 662,34 661,33 660,33 659,33 658,33 657,33 656,33 655,33 654,33 653,33 652,33 651,33 650,33 649,33 648,33 647,33 646,33 645,33 644,33 643,33 642,33 641,33 640,33 639,33 638,33 637,33 636,33 635,33 634,33 633,33 632,33 631,33 630,32 629,32 628,32 627,33 626,33 625,33 624,33 623,33 622,33 621,33 620,33 619,33 618,33 617,33 616,33 615,33 614,33 613,33 612,33 611,32 610,32 609,32 608,32 607,32 606,32 605,32 604,32 603,32 602,32 601,32 600,32 599,32 598,32 597,32 596,32 595,32 594,32 593,32 592,32 591,32 590,32 589,32 588,32 587,32 586,32 585,32 584,32 583,32 582,32 581,32 580,32">
      <metadata tailDirection="" confidence="0.95" linkedToCharacter="" id="LAMISSEB_ETPISTAF_013_balloon_1" tailTip=""></metadata>
    </polygon>
    <polygon points="436,35 435,36 434,36 433,36 432,36 431,36 430,36 429,36 428,36 427,36 428,37 428,38 429,39 429,40 430,41 430,42 430,43 430,44 431,45 431,46 431,47 431,48 431,49 431,50 431,51 430,52 430,53 430,54 430,55 430,56 431,57 431,58 432,59 432,60 432,61 433,62 433,63 433,64 433,65 434,66 434,67 434,68 434,69 434,70 434,71 433,72 433,73 433,74 433,75 433,76 433,77 432,78 432,79 432,80 432,81 431,82 431,83 430,84 430,85 430,86 429,87 428,88 428,89 427,90 426,91 425,92 424,93 423,93 422,94 421,94 420,94 419,94 418,95 417,95 416,95 415,95 414,95 414,96 414,97 413,98 413,99 412,100 412,101 411,102 410,103 409,104 408,105 407,106 406,107 405,107 404,108 403,108 402,108 401,109 400,109 399,109 398,109 397,109 396,109 395,109 394,108 393,108 392,108 391,107 390,107 389,106 388,105 388,104 387,103 387,102 387,101 387,100 387,99 387,98 387,97 387,96 388,95 388,94 388,93 387,94 386,94 385,94 384,94 383,94 382,94 381,94 380,94 379,94 378,95 377,95 376,95 375,95 374,95 373,95 372,95 371,94 370,94 369,94 368,93 367,93 366,92 365,92 364,92 363,93 362,93 361,93 360,93 359,94 358,94 357,94 356,94 355,95 354,95 353,95 352,95 351,95 350,95 349,96 348,96 347,96 346,96 345,96 344,96 343,96 342,96 341,97 340,97 339,96 338,96 337,96 336,96 335,96 334,96 333,96 332,96 331,96 330,95 329,95 328,95 327,95 326,94 325,94 324,93 323,93 322,93 321,92 320,92 319,92 318,92 317,93 316,93 315,93 314,93 313,93 312,93 311,94 310,94 309,94 308,94 307,94 306,94 305,94 304,94 303,94 302,94 301,94 300,94 299,94 298,93 297,93 296,93 295,93 294,93 293,92 292,92 291,91 290,90 289,89 288,89 287,88 287,87 286,86 285,85 285,84 284,83 284,82 283,81 283,80 282,79 282,78 282,77 282,76 281,75 281,74 281,73 281,72 281,71 281,70 281,69 281,68 280,67 281,66 281,65 281,64 281,63 281,62 282,61 282,60 282,59 282,58 282,57 282,56 282,55 282,54 281,53 281,52 281,51 281,50 281,49 281,48 281,47 281,46 281,45 281,44 281,43 282,42 282,41 282,40 282,39 283,38 283,37 284,36 283,36 282,36 281,36 280,36 279,36 278,36 277,36 276,36 275,36 274,36 273,36 272,36 271,36 270,36 269,36 268,36 267,36 266,36 265,36 264,36 263,36 262,36 261,36 260,36 259,36 258,36 257,36 257,37 257,38 257,39 258,40 258,41 258,42 258,43 259,44 259,45 259,46 259,47 259,48 260,49 260,50 260,51 260,52 260,53 261,54 261,55 261,56 261,57 262,58 262,59 262,60 262,61 262,62 263,63 263,64 263,65 263,66 263,67 264,68 264,69 264,70 264,71 265,72 265,73 265,74 265,75 264,76 263,76 262,75 262,74 262,73 262,72 261,71 261,70 261,69 261,68 261,67 260,66 260,65 260,64 260,63 259,62 259,61 259,60 259,59 259,58 258,57 258,56 258,55 258,54 258,53 257,52 257,51 257,50 257,49 256,48 256,47 256,46 256,45 256,44 255,43 255,42 255,41 255,40 255,39 255,38 254,37 254,36 253,36 252,36 251,36 250,36 249,36 248,36 247,36 246,36 245,36 244,36 243,36 242,36 241,36 240,36 239,36 238,36 238,37 238,38 238,39 238,40 238,41 238,42 238,43 238,44 238,45 238,46 238,47 238,48 238,49 238,50 238,51 238,52 238,53 238,54 238,55 238,56 238,57 238,58 238,59 238,60 238,61 238,62 238,63 238,64 238,65 238,66 238,67 238,68 238,69 238,70 238,71 238,72 238,73 238,74 238,75 238,76 238,77 238,78 238,79 238,80 238,81 239,82 240,83 240,84 241,85 241,86 242,87 243,88 243,89 244,90 245,91 245,92 246,93 247,94 247,95 248,96 248,97 247,98 246,97 245,96 244,95 244,94 243,93 242,92 242,91 241,90 241,89 240,88 239,87 239,86 238,85 238,84 238,85 238,86 238,87 238,88 238,89 238,90 238,91 238,92 238,93 238,94 238,95 238,96 238,97 238,98 238,99 238,100 238,101 238,102 238,103 238,104 238,105 238,106 238,107 238,108 238,109 238,110 238,111 238,112 238,113 238,114 238,115 238,116 238,117 238,118 238,119 238,120 238,121 238,122 238,123 239,122 240,121 241,121 242,120 243,119 244,119 245,118 246,117 247,117 248,116 249,116 250,116 251,116 252,116 253,116 254,116 255,116 256,117 257,117 258,117 259,117 260,118 261,118 262,118 263,118 264,118 265,118 266,118 267,118 268,119 268,120 269,121 269,122 269,123 270,124 270,125 270,126 271,127 272,128 272,129 273,130 273,131 273,130 273,129 273,128 274,127 274,126 275,125 276,124 277,125 277,126 277,127 276,128 276,129 276,130 276,131 276,132 276,133 275,134 275,135 275,136 274,137 274,138 274,139 274,140 275,141 275,142 275,143 276,144 276,145 276,146 277,147 278,148 278,149 279,150 279,151 280,150 281,151 282,152 282,153 282,154 283,155 283,156 283,157 283,158 284,157 284,156 284,155 284,154 284,153 285,152 285,151 286,150 287,150 288,151 288,152 287,153 287,154 287,155 287,156 286,157 286,158 286,159 286,160 286,161 285,162 286,163 287,162 287,161 288,160 288,159 289,158 289,157 289,156 290,155 291,154 292,155 292,156 293,157 293,158 293,159 294,159 294,158 294,157 294,156 294,155 294,154 295,153 296,152 297,153 297,154 297,155 297,156 297,157 296,158 296,159 296,160 296,161 296,162 295,163 294,164 293,163 292,162 292,161 291,160 291,159 291,160 290,161 290,162 289,163 289,164 288,165 287,166 288,167 289,168 290,168 291,168 292,168 293,168 294,168 295,168 296,168 297,168 298,169 299,170 299,171 298,172 297,173 297,174 298,173 299,173 300,174 300,175 300,176 300,177 299,178 298,179 298,180 297,181 297,182 298,182 299,182 300,182 301,182 302,183 302,184 302,185 301,186 301,187 300,188 301,188 302,188 303,188 304,188 305,188 306,187 307,187 308,186 309,186 310,185 311,185 312,185 313,185 314,185 315,186 316,186 317,186 318,187 319,187 320,188 321,188 322,189 323,190 324,191 325,192 326,193 327,194 327,195 328,196 328,197 328,198 328,199 327,200 326,201 325,202 324,203 323,203 322,204 321,204 320,205 319,205 318,206 317,206 316,207 315,207 314,207 313,208 312,208 311,209 310,209 309,209 308,209 307,209 306,209 305,210 304,210 303,210 302,210 301,210 300,210 299,210 298,210 297,210 296,210 295,211 294,211 293,211 292,211 291,211 290,211 289,211 288,211 287,211 286,211 285,212 284,212 283,211 282,211 281,212 280,212 279,211 278,211 277,211 276,211 275,211 274,211 273,210 272,210 271,209 270,208 269,207 269,206 270,205 271,204 270,204 269,204 268,204 267,204 266,204 265,204 264,204 263,203 262,202 263,201 264,200 264,199 263,199 262,198 261,197 262,196 263,195 262,194 261,194 260,193 260,192 260,191 261,190 261,189 260,188 259,188 258,187 258,186 257,186 256,187 256,188 256,189 256,190 256,191 257,192 257,193 257,194 258,195 258,196 258,197 259,198 259,199 258,200 258,201 257,202 256,202 255,203 254,204 253,204 252,205 252,206 253,207 253,208 254,209 255,210 255,211 256,212 257,213 257,214 258,215 258,216 259,217 260,218 261,219 261,220 262,221 263,222 263,223 264,224 265,225 265,226 266,227 267,228 268,229 269,230 270,231 271,232 272,232 273,233 274,234 275,235 276,235 277,236 278,236 279,236 280,235 281,234 282,233 282,232 283,231 284,230 284,229 285,228 286,227 287,226 288,225 288,224 289,223 290,222 291,222 292,221 293,220 294,220 295,219 296,219 297,219 298,219 299,219 300,219 301,219 302,219 303,220 303,221 304,221 305,221 306,221 307,221 308,221 309,221 310,221 311,221 312,221 313,221 314,220 315,220 316,220 317,220 318,220 319,220 320,220 321,220 322,221 323,221 324,222 325,223 326,224 327,225 328,226 328,227 328,228 329,229 329,230 330,231 330,232 330,233 331,234 331,235 331,236 332,237 332,238 332,239 331,240 331,241 331,242 331,243 330,244 329,245 328,246 327,247 326,248 325,248 324,249 325,250 325,251 326,252 326,253 327,254 327,255 326,256 326,257 325,258 325,259 324,260 323,261 322,262 321,263 320,264 319,264 318,265 317,266 317,267 317,268 317,269 316,270 316,271 316,272 316,273 316,274 316,275 315,276 314,277 313,278 312,279 311,279 310,279 309,279 308,279 307,278 306,278 305,278 304,278 303,278 302,278 301,278 300,278 299,279 298,279 297,279 296,279 295,279 294,278 293,277 292,276 292,275 292,274 292,273 292,272 292,271 292,270 293,269 293,268 294,267 293,268 292,268 291,269 290,269 289,270 288,270 287,271 286,271 285,270 284,270 283,269 282,269 281,268 280,268 279,268 278,268 277,267 276,267 275,267 274,267 273,268 272,268 271,268 270,268 269,268 268,269 267,270 266,271 266,272 267,272 268,272 269,272 270,272 271,273 272,274 273,275 273,276 273,277 273,278 273,279 273,280 273,281 273,282 273,283 273,284 272,285 272,286 271,287 270,288 269,288 268,289 267,289 266,290 265,290 264,289 263,289 262,289 261,289 260,289 259,289 258,289 257,289 256,289 255,289 254,289 253,289 252,289 251,289 250,289 249,288 248,288 247,287 246,286 245,285 245,284 245,283 245,282 246,281 246,280 247,279 247,278 247,277 248,276 248,275 249,274 249,273 250,272 250,271 251,270 251,269 252,268 252,267 253,266 253,265 253,264 253,263 253,262 252,261 253,260 253,259 253,258 254,257 255,256 256,255 257,254 256,253 256,252 256,251 255,250 255,249 254,248 253,247 253,246 252,245 251,244 251,243 250,242 249,241 248,240 247,239 246,238 245,238 244,237 243,236 242,235 241,235 240,235 239,234 238,234 237,233 237,234 237,235 237,236 237,237 237,238 237,239 237,240 237,241 237,242 237,243 237,244 237,245 237,246 237,247 237,248 237,249 237,250 237,251 237,252 237,253 237,254 237,255 237,256 237,257 237,258 237,259 237,260 237,261 237,262 237,263 237,264 237,265 237,266 237,267 237,268 237,269 237,270 237,271 237,272 237,273 237,274 237,275 237,276 237,277 237,278 237,279 237,280 237,281 237,282 237,283 237,284 237,285 237,286 237,287 237,288 237,289 237,290 237,291 237,292 237,293 237,294 238,293 239,293 240,293 241,293 242,293 243,294 244,294 245,294 246,293 247,294 248,294 249,294 250,294 251,294 252,294 253,294 254,294 255,294 256,294 257,294 258,294 259,294 260,294 261,294 262,294 263,294 264,294 265,294 266,294 267,294 268,294 269,294 270,294 271,293 272,293 273,293 274,293 275,293 276,293 277,293 278,292 279,291 280,290 281,289 282,288 283,287 283,286 284,285 285,285 286,284 287,283 288,283 289,283 290,283 291,283 292,283 293,284 294,284 295,284 296,284 297,285 298,285 299,285 300,286 301,286 302,286 303,287 304,287 305,287 306,287 307,288 308,288 309,288 310,288 311,288 312,287 313,286 314,285 315,284 316,283 317,283 318,282 319,281 320,280 321,279 322,279 323,278 324,277 325,276 326,276 327,275 328,275 328,274 328,273 329,272 330,271 331,270 331,269 332,268 332,267 333,266 333,265 333,264 334,263 334,262 334,261 335,260 336,259 337,259 338,260 338,261 337,262 337,263 336,264 336,265 336,266 335,267 335,268 334,269 334,270 333,271 333,272 332,273 331,274 331,275 331,276 330,277 329,277 328,278 327,278 326,279 325,280 324,280 323,281 322,282 321,283 320,283 319,284 318,285 317,286 316,287 315,288 314,288 313,289 312,290 311,291 310,291 309,291 308,291 307,291 306,290 305,290 304,290 303,290 302,289 301,289 300,289 299,289 298,288 297,288 296,288 295,287 294,287 293,287 292,286 291,286 290,286 289,286 288,286 287,287 286,287 285,288 284,289 283,290 282,291 282,292 281,293 282,293 283,293 284,293 285,293 286,293 287,293 288,293 289,293 290,293 291,293 292,293 293,293 294,293 295,293 296,293 297,293 298,293 299,293 300,293 301,293 302,293 303,293 304,293 305,293 306,293 307,293 308,293 309,293 310,293 311,293 312,293 313,293 314,293 315,293 316,293 317,293 318,293 319,293 320,293 321,293 322,293 323,292 324,291 325,290 326,289 326,288 327,287 328,286 329,285 330,285 331,284 332,283 333,283 334,284 335,284 336,284 337,284 338,283 338,282 339,281 339,280 339,279 340,278 340,277 341,276 341,275 342,274 342,273 342,272 343,271 343,270 344,269 344,268 345,267 345,266 345,265 346,264 347,263 348,263 349,264 349,265 348,266 348,267 347,268 347,269 346,270 346,271 345,272 345,273 345,274 344,275 344,276 343,277 343,278 342,279 342,280 342,281 341,282 341,283 340,284 340,285 339,286 338,287 337,288 336,287 335,287 334,287 333,287 332,287 331,287 330,288 329,289 328,290 327,291 326,292 325,293 326,293 327,293 328,293 329,293 330,293 331,293 332,293 333,293 334,293 335,293 336,293 337,293 338,293 339,293 340,293 341,294 342,294 343,294 344,293 345,293 346,293 347,293 348,293 349,293 350,293 351,293 352,293 353,293 354,293 355,293 356,293 357,293 358,293 359,293 360,293 361,293 362,293 363,293 364,293 365,293 366,293 367,293 368,293 369,293 370,293 371,293 372,293 373,293 373,292 372,291 371,290 371,289 370,288 369,287 369,286 368,285 367,284 367,283 366,282 365,281 365,280 364,279 363,278 363,277 362,276 361,275 361,274 360,273 359,272 359,271 358,270 358,269 357,268 357,267 358,266 359,266 360,267 360,268 361,269 361,270 362,271 363,272 363,273 364,274 364,275 365,276 366,277 366,278 367,279 368,280 368,281 369,282 370,283 370,284 371,285 372,286 372,287 373,288 374,289 374,290 375,291 375,292 376,293 377,293 378,293 379,293 380,293 381,293 382,293 383,293 384,293 385,293 386,293 387,293 388,293 389,293 390,293 391,293 392,293 393,293 394,293 395,293 396,293 397,293 398,293 399,294 400,294 401,294 402,294 403,294 404,294 405,294 406,294 407,294 408,294 409,294 410,294 411,294 412,293 413,293 414,293 415,293 416,293 417,293 418,293 419,293 420,293 421,293 422,293 423,293 424,293 425,293 426,293 427,293 428,293 429,293 430,293 431,293 432,293 433,293 434,293 435,293 436,293 437,293 438,293 439,293 440,293 441,293 442,293 443,293 444,293 445,293 446,293 447,293 448,293 449,293 450,293 451,293 452,293 453,293 454,293 453,293 452,293 451,293 450,293 449,293 448,293 447,293 446,292 445,292 444,291 443,290 443,289 443,288 443,287 444,286 444,285 444,284 444,283 443,282 442,282 441,282 440,282 439,281 439,280 438,279 437,278 437,277 436,276 436,275 435,274 435,273 435,272 434,271 434,270 434,269 433,268 433,267 432,266 431,265 430,264 429,263 428,263 427,262 426,261 425,260 425,259 424,258 423,257 423,256 422,255 421,254 420,253 419,252 418,251 417,251 416,251 415,251 414,250 413,250 412,249 411,249 410,248 409,247 408,246 407,246 406,245 405,245 404,244 403,244 402,243 401,242 400,242 399,241 398,240 397,240 396,239 395,239 394,239 393,238 392,238 391,238 390,238 389,238 388,238 387,238 386,238 385,239 384,239 383,239 382,240 381,240 380,240 379,241 378,241 377,242 376,242 375,243 374,243 373,244 372,245 371,245 370,245 370,246 371,246 372,246 373,246 374,246 375,247 376,247 377,247 378,248 379,248 380,248 381,249 382,249 383,249 384,248 385,248 386,248 387,248 388,248 389,249 390,250 390,251 391,251 392,250 393,250 394,249 395,249 396,250 397,251 397,252 397,253 398,254 399,255 400,256 401,257 401,258 402,259 402,260 403,261 403,262 403,263 404,264 404,265 404,266 405,267 405,268 405,269 406,270 406,271 407,272 407,273 408,274 408,275 408,276 408,277 409,278 409,279 409,280 409,281 409,282 409,283 409,284 409,285 408,286 408,287 407,288 406,288 405,289 404,289 403,290 402,290 401,289 400,289 399,289 398,288 397,288 396,287 395,286 395,285 394,284 393,283 393,282 392,281 392,280 392,279 392,278 392,277 392,276 393,275 393,274 392,273 391,272 391,271 390,271 389,272 388,272 387,272 386,272 385,271 384,270 384,269 384,268 383,268 382,269 381,270 380,270 379,269 378,268 377,268 376,267 376,266 375,265 374,264 373,263 373,262 372,261 371,261 370,260 369,260 368,259 367,259 366,259 365,259 364,258 363,258 362,258 361,258 360,259 359,259 358,258 357,258 356,258 355,258 354,258 353,257 352,257 351,257 350,257 349,256 348,256 347,256 346,256 345,256 344,255 343,254 342,253 342,252 342,251 342,250 342,249 342,248 343,247 344,246 344,245 345,244 346,243 347,242 348,241 349,240 350,239 351,238 352,237 352,236 353,235 354,234 355,233 356,232 357,231 358,230 359,229 360,228 361,227 362,226 363,225 364,225 365,225 366,224 367,224 368,223 369,222 370,221 371,220 372,220 373,219 374,218 375,217 376,216 377,216 377,215 377,214 377,213 377,212 377,211 377,210 377,209 377,208 377,207 376,206 376,205 376,204 375,203 374,202 374,201 374,200 373,200 372,199 371,198 370,198 369,197 368,196 367,195 366,194 365,193 365,192 364,191 364,190 364,189 364,188 364,187 364,186 364,185 365,184 365,183 366,182 367,181 368,181 369,181 370,181 371,181 372,181 373,181 374,180 375,180 376,180 377,180 378,180 378,179 378,178 377,177 376,177 375,178 375,179 374,180 373,180 372,180 371,180 370,180 369,180 368,180 367,181 366,181 365,182 364,182 363,183 362,183 361,184 360,184 359,184 358,184 357,184 356,184 355,183 354,182 353,182 352,181 351,180 350,179 350,178 351,177 352,177 353,178 354,178 355,178 356,178 357,178 358,177 359,177 360,176 361,175 361,174 360,173 359,173 358,173 357,172 356,171 355,170 355,169 354,168 353,167 353,166 353,165 352,164 352,163 353,162 353,161 353,160 354,159 354,158 354,157 353,158 352,158 351,158 350,157 351,156 351,155 352,154 353,155 354,155 353,155 352,154 351,153 351,152 350,151 350,150 350,149 350,148 349,149 348,148 347,148 346,148 345,147 344,147 343,146 343,145 342,144 342,143 341,142 341,141 341,140 342,139 342,138 342,137 343,136 343,135 344,134 344,133 345,132 345,131 346,130 347,129 348,128 349,127 350,127 351,126 352,126 353,126 354,126 355,125 356,125 357,126 358,126 359,126 360,126 361,125 362,124 363,123 364,122 365,122 366,121 367,121 368,120 369,119 370,119 371,118 372,118 373,117 374,117 375,117 376,117 377,116 378,116 379,116 380,116 381,116 382,116 383,116 384,116 385,116 386,117 387,117 388,118 389,118 390,118 391,119 392,119 393,120 394,120 395,121 396,122 397,123 398,124 399,125 399,126 400,127 400,128 400,129 400,130 400,131 401,132 401,133 401,134 401,135 401,136 401,137 401,138 401,139 401,140 401,141 401,142 401,143 401,144 401,145 401,146 401,147 401,148 401,149 401,150 401,151 402,152 402,153 403,154 403,155 404,156 405,156 406,157 407,157 408,158 409,158 410,157 411,157 412,157 413,156 414,155 415,154 415,153 416,152 416,151 417,150 417,149 417,148 418,147 419,147 420,148 420,149 420,150 420,151 420,152 420,153 420,154 420,155 420,156 419,157 419,158 419,159 418,160 418,161 417,162 417,163 416,164 415,165 414,166 413,167 412,168 411,168 410,169 409,169 408,170 407,170 406,171 405,171 404,171 403,172 402,172 403,172 404,172 405,173 406,174 405,175 404,175 403,175 402,175 401,175 400,174 399,174 398,174 397,174 396,174 395,173 394,173 393,173 392,172 391,172 390,172 391,173 391,174 390,175 389,175 388,175 387,176 386,176 385,176 384,176 384,177 385,178 386,178 387,178 388,178 389,177 390,176 391,176 392,176 393,175 394,176 395,176 396,176 397,176 398,177 399,177 400,178 401,178 402,179 403,179 404,179 405,180 406,180 407,180 408,180 409,180 410,180 411,181 412,182 413,183 414,183 415,183 416,184 417,184 418,184 419,185 420,185 421,186 422,186 423,186 424,186 425,186 426,187 427,187 428,187 429,188 430,188 431,189 432,189 433,189 434,190 435,190 436,191 437,191 438,192 439,192 440,192 441,193 442,193 443,193 444,193 445,193 446,194 447,194 448,194 449,193 449,192 450,191 451,190 452,190 453,190 454,189 455,190 456,190 457,191 458,192 459,193 459,194 460,195 460,196 461,196 462,196 463,196 464,197 465,198 466,199 466,200 467,200 468,201 468,202 468,203 469,204 469,205 470,206 470,207 470,208 470,209 469,210 469,211 468,212 467,213 468,214 468,215 469,216 469,217 469,218 470,219 470,220 471,221 471,222 471,223 472,224 472,225 473,226 473,227 473,228 474,229 474,230 475,231 475,232 476,233 476,234 476,235 477,236 477,237 478,238 478,239 479,240 480,241 481,241 482,240 483,240 484,240 485,240 486,240 487,240 488,240 489,239 490,239 491,239 492,239 493,239 494,239 494,238 495,237 494,236 495,235 495,234 495,233 495,232 495,231 495,230 495,229 495,228 495,227 495,226 495,225 495,224 495,223 495,222 495,221 495,220 495,219 494,218 494,217 494,216 494,215 494,214 494,213 494,212 495,211 494,210 494,209 494,208 494,207 494,206 494,205 494,204 494,203 494,202 493,201 493,200 493,199 493,198 493,197 493,196 492,195 492,194 492,193 492,192 491,191 491,190 491,189 491,188 490,187 490,186 490,185 490,184 489,183 489,182 489,181 488,180 488,179 488,178 488,177 487,176 487,175 487,174 487,173 486,172 486,171 486,170 486,169 485,168 485,167 485,166 485,165 485,164 484,163 484,162 484,161 484,160 484,159 483,158 483,157 483,156 483,155 482,154 481,155 480,155 479,155 478,155 477,156 476,156 475,156 474,156 473,156 472,157 471,157 470,157 469,157 468,158 467,158 466,158 465,158 464,158 463,159 462,159 461,159 460,159 459,160 458,160 457,160 456,160 455,160 454,161 453,161 452,161 451,161 450,162 449,162 448,162 447,162 446,162 445,163 444,163 443,163 442,163 441,164 440,164 439,164 438,164 437,164 436,165 435,165 434,165 433,166 432,166 431,166 430,166 429,166 428,167 427,167 426,166 426,165 427,164 428,164 429,164 430,163 431,163 432,163 433,163 434,163 435,162 436,162 437,162 438,161 439,161 440,161 441,161 442,161 443,160 444,160 445,160 446,160 447,159 448,159 449,159 450,159 451,159 452,158 453,158 454,158 455,158 456,157 457,157 458,157 459,157 460,157 461,156 462,156 463,156 464,156 465,155 466,155 467,155 468,155 469,155 470,154 471,154 472,154 473,154 474,153 475,153 476,153 477,153 478,153 479,152 480,152 481,152 482,152 482,151 482,150 481,149 481,148 481,147 481,146 481,145 480,144 480,143 480,142 480,141 479,140 479,139 479,138 479,137 479,136 479,135 479,134 479,133 479,132 478,131 478,130 478,129 478,128 478,127 478,126 477,126 476,127 475,127 474,128 473,128 472,128 471,129 470,129 469,129 468,130 467,130 466,130 465,131 464,131 463,131 462,132 461,132 460,132 459,133 458,133 457,133 456,134 455,134 454,134 453,135 452,135 451,135 450,136 449,136 448,135 448,134 449,133 450,133 451,132 452,132 453,132 454,131 455,131 456,131 457,130 458,130 459,130 460,129 461,129 462,129 463,128 464,128 465,128 466,127 467,127 468,127 469,126 470,126 471,126 472,125 473,125 474,125 475,124 476,124 477,124 478,123 477,122 477,121 477,120 477,119 477,118 477,117 477,116 477,115 477,114 477,113 477,112 477,111 477,110 477,109 477,108 477,107 477,106 477,105 477,104 477,103 477,102 477,101 477,100 477,99 477,98 477,97 477,96 477,95 477,94 478,93 478,92 478,91 478,90 478,89 478,88 478,87 477,88 476,89 475,89 474,90 473,90 472,91 471,91 470,92 469,93 468,93 467,94 466,94 465,95 464,96 463,96 462,97 461,97 460,98 459,98 458,99 457,100 456,100 455,101 454,101 453,102 452,103 451,103 450,104 449,104 448,105 447,106 446,106 445,107 444,107 443,108 442,108 441,109 440,110 439,110 438,111 437,111 436,112 435,113 434,114 433,113 432,112 433,111 434,110 435,110 436,109 437,108 438,108 439,107 440,107 441,106 442,105 443,105 444,104 445,104 446,103 447,102 448,102 449,101 450,101 451,100 452,100 453,99 454,98 455,98 456,97 457,97 458,96 459,95 460,95 461,94 462,94 463,93 464,93 465,92 466,91 467,91 468,90 469,90 470,89 471,89 472,88 473,88 474,87 475,86 476,86 477,85 478,85 478,84 478,83 478,82 478,81 478,80 479,79 479,78 479,77 479,76 479,75 479,74 479,73 479,72 479,71 479,70 479,69 480,68 480,67 480,66 480,65 480,64 480,63 480,62 480,61 480,60 481,59 481,58 481,57 481,56 481,55 481,54 481,53 481,52 481,51 482,50 482,49 482,48 482,47 482,46 483,45 483,44 483,43 483,42 484,41 484,40 484,39 484,38 485,37 485,36 485,35 484,35 483,35 482,35 481,35 480,35 479,36 478,37 477,38 476,39 475,40 474,41 473,42 472,43 471,44 470,45 469,46 468,47 467,47 466,48 465,49 464,50 463,51 462,52 461,53 460,54 459,55 458,55 457,56 456,57 455,58 454,59 453,60 452,61 451,62 450,63 449,63 448,64 447,65 446,66 445,67 444,68 443,69 442,70 441,70 440,69 440,68 441,67 442,67 443,66 444,65 445,64 446,63 447,62 448,61 449,60 450,59 451,58 452,58 453,57 454,56 455,55 456,54 457,53 458,52 459,51 460,50 461,50 462,49 463,48 464,47 465,46 466,45 467,44 468,43 469,42 470,41 471,41 472,40 473,39 474,38 475,37 476,36 477,35 476,35 475,35 474,35 473,35 472,35 471,35 470,35 469,35 468,35 467,35 466,35 465,35 464,35 463,35 462,35 461,35 460,35 459,35 458,35 457,35 456,35 455,35 454,35 453,35 452,35 451,35 450,35 449,35 448,35 447,35 446,35 445,35 444,35 443,35 442,35 441,35 440,35 439,35 438,35 437,35 436,35">
      <metadata tailDirection="" confidence="0.59" linkedToCharacter="" id="LAMISSEB_ETPISTAF_013_balloon_2" tailTip=""></metadata>
    </polygon>
    <polygon points="329,22 328,23 327,23 326,23 325,23 324,23 323,24 322,24 321,24 320,25 319,25 318,26 317,26 316,25 316,24 315,24 314,24 313,24 312,24 311,24 310,24 309,24 308,24 307,24 306,24 305,24 304,24 303,25 302,25 301,25 300,25 299,26 298,26 297,27 296,27 295,28 294,28 293,29 292,30 291,31 290,32 289,33 288,34 288,35 287,36 286,37 286,38 285,39 285,40 285,41 285,42 284,43 284,44 284,45 284,46 284,47 284,48 284,49 284,50 284,51 284,52 284,53 285,54 285,55 285,56 285,57 285,58 286,59 285,60 285,61 284,62 284,63 284,64 284,65 284,66 284,67 284,68 284,69 284,70 284,71 284,72 284,73 284,74 284,75 285,76 285,77 285,78 285,79 286,80 286,81 287,82 287,83 288,84 288,85 289,86 290,87 291,88 292,88 293,89 294,89 295,89 296,90 297,90 298,90 299,90 300,90 301,90 302,90 303,90 304,90 305,90 306,90 307,90 308,90 309,90 310,90 311,90 312,90 313,90 314,90 315,90 316,90 317,89 318,89 319,89 320,89 321,88 322,88 323,88 324,89 324,90 325,90 326,91 327,91 328,92 329,92 330,92 331,92 332,93 333,93 334,93 335,93 336,93 337,93 338,93 339,93 340,93 341,93 342,93 343,93 344,93 345,93 346,93 347,93 348,92 349,92 350,92 351,92 352,92 353,92 354,91 355,91 356,91 357,91 358,90 359,90 360,90 361,90 362,89 363,89 364,89 365,89 366,88 367,89 368,89 369,90 370,90 371,91 372,91 373,91 374,91 375,91 376,91 377,91 378,91 379,91 380,91 381,91 382,91 383,91 384,91 385,90 386,90 387,90 388,90 389,90 390,90 391,89 392,89 393,88 394,88 395,87 396,87 397,86 398,86 399,86 400,86 401,85 402,85 403,85 404,85 405,86 406,86 407,86 408,87 409,87 410,88 411,89 412,90 413,91 414,91 415,91 416,91 417,91 418,91 419,91 420,91 421,91 422,90 423,90 424,89 425,88 425,87 426,86 427,85 427,84 428,83 428,82 428,81 429,80 429,79 429,78 429,77 430,76 430,75 430,74 430,73 430,72 430,71 431,70 431,69 431,68 431,67 431,66 430,65 430,64 430,63 430,62 429,61 429,60 428,59 428,58 427,57 427,56 426,55 426,54 426,53 427,52 428,51 428,50 428,49 428,48 428,47 428,46 428,45 427,44 427,43 427,42 427,41 426,40 426,39 425,38 424,37 424,36 423,35 422,34 421,34 420,33 419,32 418,31 417,31 416,31 415,30 414,30 413,30 412,29 411,29 410,29 409,29 408,29 407,29 406,28 405,27 404,27 403,27 402,26 401,26 400,26 399,25 398,25 397,25 396,25 395,25 394,25 393,25 392,25 391,25 390,25 389,25 388,25 387,25 386,24 385,24 384,24 383,24 382,24 381,24 380,24 379,24 378,24 377,24 376,24 375,24 374,25 373,25 372,25 371,25 370,26 369,26 368,27 367,28 366,28 365,27 365,26 365,25 364,25 363,24 362,24 361,24 360,23 359,23 358,23 357,23 356,22 355,22 354,22 353,22 352,22 351,22 350,22 349,22 348,22 347,22 346,22 345,22 344,22 343,22 342,22 341,22 340,22 339,22 338,22 337,22 336,22 335,22 334,22 333,22 332,22 331,22 330,22 329,22">
      <metadata tailDirection="" confidence="0.94" linkedToCharacter="" id="LAMISSEB_ETPISTAF_013_balloon_3" tailTip=""></metadata>
    </polygon>
    <polygon points="59,80 59,81 59,82 59,83 59,84 59,85 59,86 59,87 59,88 59,89 59,90 59,91 59,92 59,93 59,94 59,95 59,96 59,97 59,98 59,99 59,100 59,101 59,102 59,103 59,104 60,105 61,106 61,107 60,108 59,108 59,109 59,110 59,111 60,112 59,113 59,114 59,115 59,116 59,117 59,118 60,118 61,119 61,120 61,119 61,118 62,117 62,116 63,115 64,116 64,117 64,118 64,119 64,120 64,121 64,122 64,123 63,124 62,125 61,124 61,123 60,122 60,123 61,124 60,125 59,125 59,126 59,127 59,128 59,129 60,128 61,128 62,128 63,127 64,127 65,128 66,128 67,128 68,128 69,129 70,130 70,131 69,132 68,132 67,131 66,131 65,131 64,130 63,130 62,130 61,131 60,131 59,132 59,133 59,134 59,135 59,136 59,137 59,138 59,139 59,140 59,141 59,142 59,143 59,144 59,145 60,144 61,143 62,143 63,142 64,141 65,140 66,139 67,138 68,138 69,137 70,136 71,136 72,136 73,135 74,135 75,135 76,135 77,135 78,135 79,136 79,137 78,138 77,138 76,138 75,138 74,138 73,139 72,139 71,139 70,139 69,140 68,141 67,142 66,142 65,143 64,144 63,145 62,146 61,147 60,147 59,148 59,149 59,150 59,151 59,152 59,153 59,154 59,155 59,156 60,156 61,156 62,156 63,156 64,155 65,155 66,154 67,154 68,153 69,153 70,152 71,151 72,150 73,150 73,149 74,148 74,147 75,146 76,145 77,144 78,143 79,143 80,143 81,142 82,142 83,142 84,141 85,141 86,140 87,140 88,139 89,139 90,138 91,138 92,137 93,137 94,137 95,136 96,136 97,137 98,137 99,138 100,138 101,138 102,138 103,138 104,138 105,138 106,138 107,138 108,139 109,140 109,141 109,142 109,143 109,144 110,144 111,145 112,145 113,145 114,145 115,146 116,146 117,147 118,148 119,149 119,150 119,151 119,152 119,153 119,154 119,155 120,156 120,157 120,158 121,159 121,160 121,161 121,162 121,163 121,164 120,165 119,166 118,167 117,168 116,168 115,168 114,168 113,168 112,168 111,168 110,167 109,167 108,166 108,165 107,164 106,163 106,162 106,161 106,160 105,159 104,159 104,160 104,161 104,162 103,163 103,164 103,165 102,166 101,167 100,168 99,169 98,169 97,169 96,169 95,170 94,170 93,169 92,168 91,169 90,169 89,169 88,169 87,169 86,169 85,168 84,168 83,169 82,170 81,171 80,172 79,173 78,174 77,175 76,176 76,177 75,178 75,179 74,180 74,181 74,182 73,183 73,184 73,185 73,186 73,187 74,188 74,189 74,190 73,191 73,192 73,193 73,194 73,195 73,196 72,197 72,198 72,199 71,200 71,201 71,202 71,203 70,204 70,205 69,206 68,207 68,208 67,209 66,209 65,210 64,211 63,211 62,211 61,211 60,212 60,213 60,214 60,215 60,216 60,217 60,218 60,219 60,220 60,221 60,222 60,223 60,224 61,223 62,223 63,223 64,223 65,223 66,223 67,223 68,223 69,223 70,223 71,223 72,223 73,224 74,224 75,225 75,226 76,227 77,228 78,229 79,229 80,230 81,230 82,230 83,231 84,231 85,231 86,232 87,232 88,233 89,233 90,234 91,235 91,236 91,237 91,238 91,239 91,240 91,241 91,242 91,243 91,244 91,245 91,246 91,247 91,248 91,249 90,250 90,251 89,252 88,253 88,254 87,255 86,255 85,256 84,256 83,257 82,257 81,258 80,258 79,259 78,259 77,260 76,260 75,261 76,261 77,261 78,260 79,260 80,260 81,260 82,259 83,259 84,259 85,259 86,259 87,259 88,258 89,258 90,258 91,258 92,257 93,257 94,257 95,257 95,256 96,255 96,254 97,253 98,252 98,251 99,250 100,249 101,248 101,247 102,246 102,245 103,244 103,243 104,242 105,242 106,243 106,244 106,245 105,246 104,247 104,248 103,249 102,250 102,251 101,252 100,253 99,254 99,255 98,256 99,256 100,256 101,256 102,256 103,256 104,255 105,255 106,255 107,255 108,255 108,254 109,253 109,252 110,251 110,250 111,249 111,248 112,247 112,246 113,245 113,244 114,243 115,243 116,244 116,245 115,246 115,247 114,248 114,249 113,250 113,251 112,252 112,253 111,254 111,255 112,254 113,254 114,254 115,254 116,254 117,254 118,254 119,254 120,253 121,253 122,253 123,253 124,253 125,253 126,253 127,252 128,252 129,252 129,251 129,250 129,249 129,248 129,247 129,246 129,245 129,244 129,243 129,242 129,241 129,240 129,239 129,238 129,237 129,236 129,235 129,234 129,233 128,232 128,231 128,230 128,229 128,228 128,227 128,226 128,225 128,224 128,223 128,222 128,221 128,220 127,219 127,218 128,217 128,216 127,215 127,214 128,213 128,212 128,211 128,210 128,209 128,208 128,207 128,206 128,205 128,204 128,203 128,202 128,201 128,200 128,199 128,198 128,197 128,196 128,195 128,194 128,193 128,192 127,193 126,194 125,195 124,195 124,196 124,197 123,198 123,199 123,200 124,201 124,202 124,203 125,204 125,205 124,206 123,207 122,207 121,207 120,206 119,205 119,204 118,203 117,204 116,204 115,205 114,205 113,204 112,203 113,202 112,203 111,203 110,204 109,205 108,206 107,206 106,207 105,208 104,209 103,209 102,209 101,208 101,207 101,206 100,206 99,206 98,205 98,204 99,203 100,202 101,201 102,200 101,200 100,200 99,200 98,199 98,198 99,197 100,196 101,196 102,195 103,195 104,195 103,195 102,194 102,193 103,192 104,191 105,191 106,191 107,191 108,191 109,191 110,191 111,191 112,191 113,190 114,190 115,190 116,190 117,190 118,189 119,188 120,187 121,186 122,185 123,185 124,184 125,183 126,182 127,181 127,180 127,179 127,178 127,177 127,176 127,175 127,174 127,173 127,172 127,171 127,170 127,169 127,168 127,167 127,166 127,165 127,164 127,163 127,162 127,161 127,160 127,159 127,158 127,157 127,156 127,155 127,154 127,153 127,152 127,151 127,150 127,149 127,148 127,147 127,146 127,145 127,144 127,143 127,142 127,141 127,140 127,139 127,138 127,137 127,136 127,135 127,134 127,133 127,132 128,131 128,130 128,129 127,129 126,129 125,129 124,128 123,128 122,128 121,128 120,127 119,127 118,127 117,127 116,127 115,126 114,126 113,126 112,126 111,125 110,125 109,125 108,124 107,124 106,124 105,123 104,123 103,122 102,122 101,121 100,120 99,119 98,118 97,117 97,116 96,115 96,114 96,113 96,112 97,111 97,110 98,109 99,108 100,107 101,106 102,106 103,105 104,104 105,104 106,103 106,102 107,101 106,101 105,101 104,100 103,100 102,100 101,100 100,100 99,100 98,100 97,99 96,99 95,99 94,99 93,99 92,99 91,98 90,98 89,97 88,96 87,95 87,94 87,93 87,92 87,91 88,90 88,89 89,88 89,87 90,86 90,85 91,84 91,83 90,83 89,83 88,83 87,83 86,83 85,82 84,82 83,82 82,82 81,82 80,82 79,82 78,82 77,82 76,81 75,81 74,81 73,81 72,81 71,81 70,81 69,81 68,81 67,81 66,81 65,81 64,81 63,80 62,80 61,80 60,80 59,80">
      <metadata tailDirection="" confidence="0.42" linkedToCharacter="" id="LAMISSEB_ETPISTAF_013_balloon_4" tailTip=""></metadata>
    </polygon>
    <polygon points="8,35 8,36 8,37 8,38 8,39 8,40 7,41 7,42 7,43 7,44 7,45 7,46 7,47 7,48 7,49 7,50 7,51 7,52 7,53 7,54 7,55 7,56 7,57 7,58 7,59 7,60 7,61 7,62 7,63 7,64 7,65 7,66 7,67 7,68 7,69 7,70 7,71 7,72 7,73 7,74 7,75 7,76 7,77 7,78 7,79 7,80 7,81 7,82 7,83 7,84 7,85 7,86 7,87 7,88 7,89 7,90 7,91 7,92 7,93 7,94 7,95 7,96 7,97 7,98 7,99 7,100 7,101 7,102 7,103 7,104 7,105 7,106 7,107 7,108 7,109 7,110 7,111 7,112 7,113 7,114 7,115 7,116 7,117 7,118 7,119 7,120 7,121 7,122 7,123 7,124 7,125 7,126 7,127 7,128 7,129 7,130 7,131 7,132 7,133 7,134 7,135 7,136 8,137 9,136 10,137 11,137 12,137 13,137 14,138 15,139 16,139 17,140 18,140 19,141 20,141 21,142 22,143 23,143 24,144 25,144 26,145 27,146 28,146 29,147 30,147 31,148 32,148 33,149 34,149 35,149 36,150 37,150 38,150 39,150 40,151 41,151 42,151 43,151 44,152 45,152 46,152 47,152 48,152 49,153 50,153 50,152 50,151 50,150 50,149 50,148 50,147 50,146 50,145 49,145 48,144 47,143 46,143 45,143 44,143 43,144 42,145 41,145 40,146 39,147 38,148 37,147 36,147 35,146 34,145 33,144 33,143 32,142 31,141 30,140 29,139 28,138 27,138 26,137 25,136 24,135 23,134 22,133 21,133 20,132 19,132 18,131 17,131 16,130 15,129 15,128 16,127 17,127 18,128 19,129 20,129 21,130 22,130 23,131 24,132 25,132 26,133 27,134 28,135 29,136 30,137 31,138 32,139 33,140 34,141 35,142 36,143 37,144 38,145 39,144 40,143 41,142 42,142 43,141 44,140 45,140 46,139 47,139 48,140 49,141 50,142 51,141 51,140 51,139 51,138 51,137 51,136 50,135 50,134 49,133 48,132 47,132 46,131 45,131 44,130 43,130 42,129 41,129 40,130 39,131 38,132 37,133 36,133 35,133 34,132 33,131 32,130 31,129 30,129 29,128 28,127 27,127 26,126 25,125 24,125 23,124 22,124 21,123 20,123 19,122 18,122 17,121 16,121 15,120 14,119 14,118 15,117 16,117 17,118 18,118 19,119 20,119 21,120 22,120 23,121 24,121 25,122 26,123 27,123 28,124 29,124 30,125 31,126 32,127 33,128 34,128 35,129 36,130 37,130 38,129 39,128 40,127 41,126 42,126 43,126 44,127 45,128 46,128 47,129 48,129 49,130 50,131 50,130 50,129 50,128 50,127 50,126 50,125 50,124 50,123 50,122 50,121 50,120 49,121 48,122 47,121 47,120 48,119 49,118 49,117 50,116 50,115 50,114 50,113 50,112 50,111 50,110 50,109 50,108 51,107 51,106 50,106 49,105 48,104 47,104 46,104 45,103 44,103 43,102 43,101 43,100 44,99 45,99 46,99 47,98 48,98 49,97 50,97 49,96 48,96 47,95 46,94 46,93 47,92 48,93 49,93 50,94 51,94 51,93 51,92 51,91 51,90 51,89 51,88 51,87 51,86 51,85 51,84 52,83 53,82 54,81 55,80 56,79 57,78 58,77 59,77 60,77 61,77 62,77 63,78 64,78 65,78 66,78 67,78 68,78 69,78 70,78 71,78 72,78 73,78 74,78 75,78 76,78 77,79 78,79 79,79 80,79 81,79 82,79 83,79 84,79 85,80 86,80 87,80 88,80 89,80 90,80 91,81 92,81 93,81 93,80 94,79 94,78 95,77 96,76 96,75 97,74 98,73 99,72 99,71 100,70 101,69 102,68 101,67 100,67 99,67 98,67 97,67 96,67 95,67 94,67 93,67 92,67 91,67 90,67 89,67 88,67 87,67 86,67 85,67 84,67 83,67 82,67 81,68 80,68 79,68 78,68 77,69 76,69 75,69 74,69 73,69 72,70 71,70 70,71 69,71 68,72 67,73 66,74 65,74 64,73 63,73 62,72 61,72 60,71 59,71 58,71 57,71 56,70 55,70 54,70 53,69 52,69 51,69 50,69 49,69 48,68 47,68 46,68 45,68 44,68 43,68 42,68 41,68 40,68 39,68 38,68 37,68 36,68 35,68 34,68 33,69 32,69 31,69 30,69 29,69 28,69 27,69 26,68 26,67 27,66 28,65 29,65 30,64 31,64 32,63 33,62 34,61 35,61 36,60 37,59 38,58 39,57 39,56 39,55 40,54 40,53 40,52 40,51 40,50 40,49 39,48 39,47 38,46 37,45 37,44 38,43 39,42 40,41 41,41 42,40 43,39 44,38 45,37 45,36 46,35 45,35 44,35 43,35 42,35 41,35 40,35 39,35 38,35 37,35 36,35 35,35 34,35 33,35 32,35 31,35 30,35 29,35 28,35 27,35 26,35 25,35 24,35 23,35 22,35 21,35 20,35 19,35 18,35 17,35 16,35 15,35 14,35 13,35 12,35 11,35 10,35 9,35 8,35">
      <metadata tailDirection="" confidence="0.73" linkedToCharacter="" id="LAMISSEB_ETPISTAF_013_balloon_5" tailTip=""></metadata>
    </polygon>
    <polygon points="134,16 133,17 132,18 131,18 130,19 129,19 128,20 127,20 126,20 125,21 124,21 123,22 122,22 121,22 120,22 119,22 118,22 117,23 116,23 115,23 114,23 113,23 112,23 111,23 110,23 109,23 108,23 107,23 106,23 105,23 104,23 103,23 102,23 101,23 100,23 99,23 98,23 97,22 96,22 95,22 94,22 93,21 92,21 91,21 90,20 89,20 88,20 87,20 86,21 85,21 84,22 83,22 82,22 81,22 80,23 79,23 78,23 77,23 76,24 75,24 74,24 73,24 72,24 71,24 70,24 69,24 68,24 67,24 66,24 65,24 64,24 63,23 62,23 61,23 60,23 59,23 58,23 57,23 56,22 55,22 54,22 53,22 52,22 51,22 50,21 49,21 48,21 47,21 46,20 45,20 44,20 43,20 42,20 43,20 44,21 45,22 45,23 46,24 47,25 48,26 48,27 48,28 49,29 49,30 49,31 49,32 49,33 49,34 48,35 48,36 48,37 47,38 46,39 45,40 45,41 44,42 43,43 42,43 41,44 41,45 42,46 42,47 43,48 43,49 43,50 43,51 43,52 43,53 43,54 43,55 42,56 42,57 41,58 41,59 40,60 39,60 39,61 38,62 37,63 36,63 35,64 34,65 33,65 32,66 33,66 34,65 35,65 36,65 37,65 38,65 39,65 40,65 41,65 42,65 43,65 44,65 45,65 46,65 47,65 48,65 49,65 50,65 51,66 52,66 53,66 54,66 55,67 56,67 57,67 58,68 59,68 60,68 61,68 62,69 63,69 64,70 65,70 66,70 67,69 68,69 69,68 70,67 71,67 72,67 73,66 74,66 75,66 76,66 77,65 78,65 79,65 80,65 81,64 82,64 83,64 84,64 85,64 86,64 87,64 88,64 89,64 90,64 91,64 92,64 93,64 94,64 95,64 96,64 97,64 98,64 99,64 100,64 101,64 102,64 103,65 104,65 105,64 106,63 107,64 107,65 106,66 106,67 105,68 104,69 103,70 103,71 102,72 101,73 100,74 100,75 99,76 98,77 98,78 97,79 96,80 96,81 95,82 94,83 94,84 93,85 93,86 92,87 92,88 91,89 91,90 90,91 90,92 90,93 90,94 91,95 92,96 93,96 94,96 95,96 96,96 97,96 98,97 99,97 100,97 101,97 102,97 103,97 104,97 105,98 106,98 107,98 108,99 109,99 110,100 110,101 109,102 109,103 108,104 107,105 106,106 105,107 104,107 103,108 102,109 101,110 100,111 99,112 99,113 99,114 99,115 100,116 100,117 101,118 102,118 103,119 104,120 105,120 106,121 105,120 104,120 103,119 102,118 101,117 101,116 101,115 100,114 101,113 101,112 102,111 103,110 104,109 104,108 105,107 106,106 107,106 108,105 109,104 110,103 110,102 110,101 110,100 110,99 109,99 108,98 107,98 106,98 105,97 104,97 103,97 102,97 101,96 100,96 99,96 98,95 97,94 96,93 95,92 95,91 95,90 95,89 95,88 96,87 96,86 97,85 98,84 99,83 99,82 100,81 101,80 102,79 103,78 104,77 105,76 106,75 107,74 108,74 109,73 110,72 111,71 112,70 113,70 114,69 115,68 116,67 117,66 118,66 119,65 120,65 121,64 122,64 123,64 124,64 125,63 126,63 127,63 128,63 129,63 130,63 131,63 132,62 133,62 134,62 135,62 136,62 137,62 138,62 139,62 140,62 141,62 142,62 143,63 144,63 145,63 146,63 147,63 148,63 149,63 150,63 151,64 152,64 153,64 154,64 155,64 156,65 157,65 158,65 159,66 160,66 161,66 162,67 163,67 164,68 165,68 166,67 167,66 168,65 169,65 170,64 171,63 172,63 173,62 174,61 175,61 176,60 177,60 178,59 179,59 180,58 181,58 182,58 183,57 184,57 185,57 186,57 187,57 188,57 189,56 190,56 191,56 192,56 193,56 194,56 194,55 193,54 192,53 192,52 191,51 190,50 190,49 190,48 189,47 189,46 189,45 189,44 189,43 189,42 189,41 189,40 189,39 189,38 189,37 189,36 189,35 190,34 190,33 191,32 191,31 192,30 192,29 193,28 194,27 195,26 196,25 195,25 194,25 193,25 192,25 191,25 190,25 189,25 188,25 187,24 186,24 185,24 184,24 183,23 182,23 181,22 180,22 179,22 178,21 177,20 176,20 175,19 174,18 174,17 173,16 172,16 171,17 170,17 169,17 168,17 167,18 166,18 165,18 164,18 163,18 162,19 161,19 160,19 159,19 158,19 157,19 156,19 155,19 154,20 153,20 152,20 151,20 150,20 149,20 148,20 147,20 146,20 145,20 144,20 143,20 142,20 141,19 140,19 139,19 138,19 137,18 136,18 135,17 134,16">
      <metadata tailDirection="" confidence="0.89" linkedToCharacter="" id="LAMISSEB_ETPISTAF_013_balloon_6" tailTip=""></metadata>
    </polygon>
  </svg>
</svg>
