<?xml version="1.0" encoding="UTF-8" standalone="no"?>
<svg width="3054" xmlns="http://www.w3.org/2000/svg" version="1.0" height="4196">
  <title>MCCAY_LITTLENEMO_168</title>
  <svg contentScriptType="text/ecmascript" zoomAndPan="magnify" contentStyleType="text/css" class="Page" preserveAspectRatio="xMidYMid meet" version="1.0">
    <image xmlns:xlink="http://www.w3.org/1999/xlink" x="0" y="0" width="3054" height="4196" xlink:href="../Pages/MCCAY_LITTLENEMO_168.jpg" xlink:type="simple" xlink:actuate="onLoad" preserveAspectRatio="xMidYMid meet" xlink:show="embed"/>
  </svg>
  <style type="text/css" xml:space="preserve">
        * { stroke-width: 0; stroke-linejoin: round; }
        .Unclassified { fill: orange; stroke: none; opacity: 1.0; visibility: hidden; }
        .Noise { fill: pink; stroke: none; opacity: 0.2; visibility: hidden; }
        .Panel { fill: red; stroke: none; opacity: 0.5; visibility: visible; image-rendering: optimizeSpeed; }
        .Line { fill: green; stroke: none; opacity: 0.5; visibility: visible; image-rendering: optimizeSpeed; }
        .TextArea { fill: grey; stroke: none; opacity: 0.2; visibility: visible; image-rendering: optimizeSpeed; }
        .Balloon { fill: cyan; stroke: none; opacity: 0.5; visibility: visible; image-rendering: optimizeSpeed; }
        .Letter { fill: blue; stroke: none; opacity: 0.2; visibility: hidden; }
        .Object { fill: yellow; stroke: none; opacity: 0.5; visibility: visible; image-rendering: optimizeSpeed; }
        .Page { fill: white; stroke: none; opacity: 0.5; visibility: visible; }
        polygon:hover { opacity:0.2; }
</style>
  <svg xmlns="http://www.w3.org/2000/svg" contentScriptType="text/ecmascript" zoomAndPan="magnify" contentStyleType="text/css" class="Panel" preserveAspectRatio="xMidYMid meet" version="1.0">
    <polygon points="1545,3386 1539,3890 1538,3921 1536,3933 1535,3934 1529,3939 1525,3942 1519,3945 1516,3946 1512,3947 1210,3948 1114,3948 868,3946 851,3944 833,3940 827,3937 819,3932 814,3928 813,3927 811,3916 810,3901 809,3885 807,3825 807,3331 813,3027 814,3019 816,3011 820,3003 823,2999 828,2994 831,2992 840,2991 1340,2991 1508,2992 1521,2994 1527,2997 1530,2999 1536,3005 1539,3009 1542,3016 1543,3030 1545,3283 1545,3386">
      <metadata confidence="0.0" id="MCCAY_LITTLENEMO_168_panel_0"/>
    </polygon>
    <polygon points="3006,3751 3003,3910 3002,3926 3001,3930 2994,3941 2992,3943 2985,3948 2973,3952 2914,3956 2554,3956 1624,3952 1575,3948 1571,3947 1564,3944 1561,3942 1557,3939 1554,3936 1553,3934 1551,3928 1550,3920 1550,3566 1551,3282 1553,3106 1554,3058 1555,3019 1558,3011 1559,3009 1562,3005 1569,2998 1575,2995 1583,2993 1589,2992 1629,2991 1748,2990 2329,2991 2825,2995 2950,2998 2971,2999 2978,3000 2982,3001 2988,3005 2990,3007 2991,3009 2998,3024 2999,3028 3000,3037 3001,3050 3002,3085 3006,3749 3006,3751">
      <metadata confidence="0.0" id="MCCAY_LITTLENEMO_168_panel_1"/>
    </polygon>
    <polygon points="803,3147 800,3904 799,3914 798,3918 794,3930 793,3932 789,3938 788,3939 783,3942 774,3944 757,3945 523,3949 107,3950 97,3947 93,3945 90,3943 83,3938 78,3931 76,3928 75,3925 74,3920 72,3902 71,3884 69,3825 70,3653 76,3034 77,3025 79,3016 83,3007 87,3002 90,2999 94,2996 98,2994 104,2992 110,2991 263,2990 716,2989 759,2989 770,2990 774,2991 783,2994 793,2998 798,3008 802,3025 803,3032 803,3147">
      <metadata confidence="0.0" id="MCCAY_LITTLENEMO_168_panel_2"/>
    </polygon>
    <polygon points="2278,2257 2272,2920 2271,2952 2270,2966 2268,2970 2262,2976 2259,2978 2252,2981 2240,2984 2235,2985 2181,2985 1591,2982 1581,2981 1573,2979 1567,2976 1563,2973 1562,2972 1560,2969 1557,2963 1555,2957 1554,2946 1554,2790 1556,2435 1558,2321 1562,2109 1563,2088 1564,2077 1567,2071 1571,2067 1576,2063 1579,2062 1589,2061 1652,2060 1744,2059 2237,2059 2249,2060 2256,2061 2262,2063 2264,2064 2267,2066 2272,2071 2274,2074 2275,2076 2276,2079 2277,2085 2278,2105 2278,2257">
      <metadata confidence="0.0" id="MCCAY_LITTLENEMO_168_panel_3"/>
    </polygon>
    <polygon points="3006,2507 3002,2934 3001,2948 3000,2955 2995,2975 2989,2981 2984,2984 2975,2986 2969,2987 2933,2988 2493,2986 2316,2985 2310,2984 2305,2983 2297,2980 2293,2978 2290,2976 2286,2972 2283,2966 2282,2958 2281,2792 2281,2791 2287,2233 2289,2121 2290,2089 2291,2084 2294,2073 2301,2066 2306,2063 2311,2061 2327,2060 2598,2057 2826,2057 2838,2058 3005,2504 3006,2507">
      <metadata confidence="0.0" id="MCCAY_LITTLENEMO_168_panel_4"/>
    </polygon>
    <polygon points="1552,2288 1547,2860 1545,2924 1544,2948 1543,2954 1540,2966 1539,2968 1532,2976 1530,2978 1526,2980 1517,2982 1509,2983 1475,2984 1186,2984 982,2983 840,2982 835,2981 832,2980 826,2975 821,2969 817,2964 815,2956 814,2951 813,2943 812,2672 814,2153 815,2091 816,2081 817,2076 819,2071 821,2068 828,2061 834,2059 872,2058 1031,2057 1039,2057 1424,2058 1474,2059 1521,2060 1528,2061 1536,2065 1541,2069 1546,2074 1549,2079 1550,2082 1551,2096 1552,2287 1552,2288">
      <metadata confidence="0.0" id="MCCAY_LITTLENEMO_168_panel_5"/>
    </polygon>
    <polygon points="805,2954 804,2958 802,2963 801,2965 799,2968 790,2977 785,2979 782,2980 774,2982 106,2982 97,2981 93,2978 88,2974 83,2969 82,2967 80,2962 78,2955 77,2950 76,2944 75,2930 74,2744 73,2079 73,2077 75,2072 77,2068 81,2064 84,2063 96,2060 104,2059 176,2058 280,2057 286,2057 690,2058 757,2059 766,2060 774,2061 786,2065 796,2070 798,2073 801,2079 802,2085 803,2092 804,2100 805,2355 805,2954">
      <metadata confidence="0.0" id="MCCAY_LITTLENEMO_168_panel_6"/>
    </polygon>
    <polygon points="3008,1554 3007,1557 2845,2032 2844,2033 2755,2039 2516,2040 2304,2040 2300,2039 2292,2036 2282,2030 2279,2027 2277,2023 2274,2016 2271,1995 2277,1162 2278,1144 2279,1129 2281,1122 2284,1116 2286,1113 2292,1107 2298,1104 2311,1102 2681,1102 2929,1104 2964,1105 2974,1106 2980,1107 2989,1110 2995,1117 3003,1129 3004,1134 3005,1140 3007,1216 3008,1448 3008,1554">
      <metadata confidence="0.0" id="MCCAY_LITTLENEMO_168_panel_7"/>
    </polygon>
    <polygon points="2268,1154 2266,1562 2262,1995 2261,2018 2260,2024 2259,2026 2256,2029 2249,2035 2245,2037 2240,2038 2229,2040 2129,2041 1665,2042 1580,2042 1570,2039 1565,2037 1559,2033 1553,2028 1552,2025 1551,2020 1550,2013 1550,1902 1552,1294 1553,1177 1554,1150 1555,1134 1557,1126 1558,1123 1561,1116 1564,1112 1568,1107 1576,1103 1603,1102 1744,1102 2234,1104 2241,1105 2246,1106 2251,1108 2254,1110 2259,1115 2262,1120 2266,1131 2268,1137 2268,1154">
      <metadata confidence="0.0" id="MCCAY_LITTLENEMO_168_panel_8"/>
    </polygon>
    <polygon points="1542,1459 1539,2009 1538,2017 1535,2026 1532,2031 1529,2034 1526,2036 1521,2039 1519,2040 1505,2041 1378,2043 1377,2043 933,2038 850,2037 842,2035 839,2034 833,2030 830,2027 825,2019 823,2015 820,2008 819,2000 818,1519 818,1135 820,1125 823,1117 826,1111 828,1109 837,1101 839,1100 848,1098 854,1097 992,1096 994,1096 1339,1097 1413,1098 1509,1100 1519,1101 1523,1102 1531,1107 1532,1108 1535,1113 1536,1117 1540,1138 1541,1145 1542,1153 1542,1459">
      <metadata confidence="0.0" id="MCCAY_LITTLENEMO_168_panel_9"/>
    </polygon>
    <polygon points="809,1258 808,1997 807,2018 803,2026 798,2030 790,2034 787,2035 780,2037 758,2038 415,2038 128,2036 100,2032 91,2028 89,2027 88,2026 84,2021 83,2019 81,2013 77,1985 77,1709 78,1188 80,1158 81,1144 82,1138 84,1130 86,1123 89,1113 90,1111 92,1108 95,1105 99,1103 124,1100 149,1099 362,1096 366,1096 775,1098 786,1099 788,1100 793,1103 798,1108 801,1113 802,1115 803,1118 807,1132 809,1145 809,1258">
      <metadata confidence="0.0" id="MCCAY_LITTLENEMO_168_panel_10"/>
    </polygon>
    <polygon points="3010,205 3009,690 3007,904 3006,963 3005,1004 3003,1069 3000,1078 2999,1080 2987,1094 2983,1095 2900,1096 2349,1096 129,1092 115,1091 108,1090 99,1087 90,1078 87,1072 84,1064 81,1055 80,1032 79,968 78,851 77,725 76,255 76,250 79,162 80,158 83,149 85,146 89,143 96,139 99,138 105,137 121,136 156,134 320,134 2885,136 2986,137 2989,138 2999,143 3004,148 3009,158 3010,169 3010,205">
      <metadata confidence="0.0" id="MCCAY_LITTLENEMO_168_panel_11"/>
    </polygon>
  </svg>
</svg>
