<?xml version="1.0" encoding="UTF-8" standalone="no"?>
<svg width="2488" xmlns="http://www.w3.org/2000/svg" version="1.0" height="3506">
  <title>SAINTOGAN_ZIGPUCE_MILLIONAIRES_005</title>
  <svg contentScriptType="text/ecmascript" zoomAndPan="magnify" contentStyleType="text/css" class="Page" preserveAspectRatio="xMidYMid meet" version="1.0">
    <image xmlns:xlink="http://www.w3.org/1999/xlink" x="0" y="0" width="2488" height="3506" xlink:href="../Pages/SAINTOGAN_ZIGPUCE_MILLIONAIRES_005.jpg" xlink:type="simple" xlink:actuate="onLoad" preserveAspectRatio="xMidYMid meet" xlink:show="embed"/>
  </svg>
  <style type="text/css" xml:space="preserve">
        * { stroke-width: 0; stroke-linejoin: round; }
        .Unclassified { fill: orange; stroke: none; opacity: 1.0; visibility: hidden; }
        .Noise { fill: pink; stroke: none; opacity: 0.2; visibility: hidden; }
        .Panel { fill: red; stroke: none; opacity: 0.5; visibility: visible; image-rendering: optimizeSpeed; }
        .Line { fill: green; stroke: none; opacity: 0.5; visibility: visible; image-rendering: optimizeSpeed; }
        .TextArea { fill: grey; stroke: none; opacity: 0.2; visibility: visible; image-rendering: optimizeSpeed; }
        .Balloon { fill: cyan; stroke: none; opacity: 0.5; visibility: visible; image-rendering: optimizeSpeed; }
        .Letter { fill: blue; stroke: none; opacity: 0.2; visibility: hidden; }
        .Object { fill: yellow; stroke: none; opacity: 0.5; visibility: visible; image-rendering: optimizeSpeed; }
        .Page { fill: white; stroke: none; opacity: 0.5; visibility: visible; }
        polygon:hover { opacity:0.2; }
</style>
  <svg xmlns="http://www.w3.org/2000/svg" contentScriptType="text/ecmascript" zoomAndPan="magnify" contentStyleType="text/css" class="Panel" preserveAspectRatio="xMidYMid meet" version="1.0">
    <polygon points="864,3258 863,3295 862,3296 845,3297 712,3299 234,3305 137,3305 135,3303 133,3167 131,2809 131,2669 132,2642 133,2641 135,2640 159,2639 195,2638 750,2632 856,2632 858,2634 859,2681 864,3257 864,3258">
      <metadata confidence="0.0" id="SAINTOGAN_ZIGPUCE_MILLIONAIRES_005_panel_0"/>
    </polygon>
    <polygon points="2396,2756 2381,3279 2378,3283 2371,3284 1039,3296 894,3296 891,3293 890,3263 889,2634 889,2632 890,2631 908,2614 911,2612 915,2610 919,2609 924,2608 1392,2591 1881,2586 2024,2585 2035,2585 2364,2613 2368,2615 2369,2616 2370,2620 2371,2625 2396,2752 2396,2756">
      <metadata confidence="0.0" id="SAINTOGAN_ZIGPUCE_MILLIONAIRES_005_panel_1"/>
    </polygon>
    <polygon points="1617,2577 1616,2578 1612,2579 1284,2585 894,2591 891,2591 890,2590 884,2232 884,2228 885,1908 886,1905 889,1902 916,1901 1041,1899 1609,1892 1611,1892 1612,1893 1613,1911 1615,2046 1617,2529 1617,2577">
      <metadata confidence="0.0" id="SAINTOGAN_ZIGPUCE_MILLIONAIRES_005_panel_2"/>
    </polygon>
    <polygon points="2367,2538 2366,2566 2365,2570 2364,2571 1986,2576 1679,2579 1675,2579 1649,2578 1647,2577 1638,2063 1642,1896 1643,1895 1646,1893 1980,1890 2271,1888 2360,1888 2363,1889 2364,1945 2365,2060 2367,2312 2367,2538">
      <metadata confidence="0.0" id="SAINTOGAN_ZIGPUCE_MILLIONAIRES_005_panel_3"/>
    </polygon>
    <polygon points="860,2347 859,2524 858,2589 856,2591 134,2601 130,2601 127,2600 127,2598 128,1912 129,1909 141,1888 145,1885 147,1884 153,1882 276,1878 437,1877 451,1877 519,1878 843,1901 856,1902 857,1903 860,2264 860,2347">
      <metadata confidence="0.0" id="SAINTOGAN_ZIGPUCE_MILLIONAIRES_005_panel_4"/>
    </polygon>
    <polygon points="856,1837 855,1861 853,1863 847,1864 828,1866 181,1869 132,1869 129,1868 127,1867 126,1865 123,1615 123,1183 124,1181 153,1180 541,1176 846,1176 850,1177 852,1178 853,1179 854,1184 856,1377 856,1837">
      <metadata confidence="0.0" id="SAINTOGAN_ZIGPUCE_MILLIONAIRES_005_panel_5"/>
    </polygon>
    <polygon points="2364,1845 2361,1848 2081,1851 1957,1852 1822,1853 1685,1854 1642,1854 1640,1853 1637,1174 1638,1172 1639,1171 2356,1165 2360,1165 2364,1698 2364,1845">
      <metadata confidence="0.0" id="SAINTOGAN_ZIGPUCE_MILLIONAIRES_005_panel_6"/>
    </polygon>
    <polygon points="1613,1853 1611,1855 1591,1856 1357,1859 1084,1861 930,1862 886,1862 884,1861 879,1724 879,1723 881,1180 882,1178 884,1176 1217,1156 1240,1155 1456,1149 1606,1173 1608,1175 1610,1319 1611,1469 1613,1829 1613,1853">
      <metadata confidence="0.0" id="SAINTOGAN_ZIGPUCE_MILLIONAIRES_005_panel_7"/>
    </polygon>
    <polygon points="853,1140 852,1141 599,1143 129,1146 125,1146 123,1144 121,486 121,472 122,470 126,466 463,462 617,461 686,461 839,463 846,464 850,468 851,470 852,579 853,847 853,1140">
      <metadata confidence="0.0" id="SAINTOGAN_ZIGPUCE_MILLIONAIRES_005_panel_8"/>
    </polygon>
    <polygon points="2358,1113 2357,1124 2352,1127 2336,1128 1336,1137 1136,1138 900,1139 896,1139 881,1138 880,1137 878,840 878,839 879,465 880,463 883,462 2071,422 2176,422 2335,423 2340,424 2344,426 2348,430 2350,433 2351,435 2354,463 2358,1013 2358,1113">
      <metadata confidence="0.0" id="SAINTOGAN_ZIGPUCE_MILLIONAIRES_005_panel_9"/>
    </polygon>
    <polygon points="2359,134 2356,415 2354,417 2352,418 2233,419 1978,421 1261,425 1011,426 1010,426 124,425 123,422 122,370 121,295 121,138 122,134 123,132 148,131 176,130 207,129 300,127 369,126 2153,120 2155,120 2356,124 2358,125 2359,127 2359,134">
      <metadata confidence="0.0" id="SAINTOGAN_ZIGPUCE_MILLIONAIRES_005_panel_10"/>
    </polygon>
  </svg>
</svg>
