<?xml version="1.0" encoding="UTF-8"?>
<svg xmlns:xlink="http://www.w3.org/1999/xlink" xmlns="http://www.w3.org/2000/svg" contentScriptType="text/ecmascript" width="311mm" zoomAndPan="magnify" contentStyleType="text/css" height="429mm" viewBox="0 0 623 859" preserveAspectRatio="xMidYMid meet" version="1.0">
    <title>6388484847_b3e72db88a_o.jpg</title>
    <svg contentScriptType="text/ecmascript" xmlns:xlink="http://www.w3.org/1999/xlink" zoomAndPan="magnify" class="Page" contentStyleType="text/css" preserveAspectRatio="xMidYMid meet" xmlns="http://www.w3.org/2000/svg" version="1.0">
        <image x="0" y="0" fill-opacity="0.5" width="623" xmlns:xlink="http://www.w3.org/1999/xlink" xlink:href="6388484847_b3e72db88a_o.jpg" xlink:type="simple" xlink:actuate="onLoad" opacity="0.5" height="859" preserveAspectRatio="xMidYMid meet" xlink:show="embed"/>
    </svg>
    <style type="text/css" xml:space="preserve"><![CDATA[
		* { stroke-width: 1; stroke-linejoin: round; }
		.Panel { fill: none; stroke: red; opacity: 1.0; visibility: visible; }
		.TextArea { fill: none; stroke: yellow; opacity: 1.0; visibility: visible; }
		.Line { fill: green; stroke: none; opacity: 0.3; visibility: visible; }
		.Balloon { fill: none; stroke: cyan; opacity: 1.0; visibility: visible; }
		.Letter { fill: none; stroke: blue; opacity: 1.0; visibility: visible; }
		.Object { fill: none; stroke: yellow; opacity: 1.0; visibility: visible; }
		.Page { fill: none; stroke: white; opacity: 0.5; visibility: visible; image-rendering: optimizeSpeed; }
		.Noise { fill: none; stroke: pink; opacity: 1.0; visibility: hidden; }
		.Debug { fill: none; stroke: red; opacity: 1.0; visibility: visible; }
		.Unclassified { fill: none; stroke: orange; opacity: 1.0; visibility: hidden; }
]]></style>
    <svg contentScriptType="text/ecmascript" xmlns:xlink="http://www.w3.org/1999/xlink" zoomAndPan="magnify" class="Panel" contentStyleType="text/css" preserveAspectRatio="xMidYMid meet" xmlns="http://www.w3.org/2000/svg" version="1.0"/>
    <svg contentScriptType="text/ecmascript" xmlns:xlink="http://www.w3.org/1999/xlink" zoomAndPan="magnify" class="Letter" contentStyleType="text/css" preserveAspectRatio="xMidYMid meet" xmlns="http://www.w3.org/2000/svg" version="1.0"/>
    <svg contentScriptType="text/ecmascript" xmlns:xlink="http://www.w3.org/1999/xlink" zoomAndPan="magnify" class="Line" contentStyleType="text/css" preserveAspectRatio="xMidYMid meet" xmlns="http://www.w3.org/2000/svg" version="1.0">
        <polygon points="225,6 308,6 308,22 225,22 225,6"/>
        <polygon points="31,27 122,27 122,42 31,42 31,27"/>
        <polygon points="528,30 565,30 565,43 528,43 528,30"/>
        <polygon points="213,24 368,24 368,38 213,38 213,24"/>
        <polygon points="182,37 197,37 197,47 182,47 182,37"/>
        <polygon points="18,41 115,41 115,56 18,56 18,41"/>
        <polygon points="140,45 156,45 156,54 140,54 140,45"/>
        <polygon points="225,41 341,41 341,55 225,55 225,41"/>
        <polygon points="118,58 529,58 529,184 118,184 118,58"/>
        <polygon points="10,278 228,278 228,293 10,293 10,278"/>
        <polygon points="493,274 576,274 576,293 493,293 493,274"/>
        <polygon points="490,296 508,296 508,303 490,303 490,296"/>
        <polygon points="9,301 248,301 248,316 9,316 9,301"/>
        <polygon points="497,315 559,315 559,332 497,332 497,315"/>
        <polygon points="10,322 257,322 257,338 10,338 10,322"/>
        <polygon points="310,331 331,331 331,342 310,342 310,331"/>
        <polygon points="11,343 272,343 272,359 11,359 11,343"/>
        <polygon points="377,324 524,324 524,359 377,359 377,324"/>
        <polygon points="9,366 271,366 271,381 9,381 9,366"/>
        <polygon points="9,388 253,388 253,403 9,403 9,388"/>
        <polygon points="11,408 207,408 207,423 11,423 11,408"/>
        <polygon points="15,430 89,430 89,444 15,444 15,430"/>
        <polygon points="348,550 518,550 518,573 348,573 348,550"/>
        <polygon points="334,575 530,575 530,593 334,593 334,575"/>
        <polygon points="158,596 166,596 166,603 158,603 158,596"/>
        <polygon points="166,594 243,594 243,650 166,650 166,594"/>
        <polygon points="434,614 500,614 500,634 434,634 434,614"/>
    </svg>
    <svg contentScriptType="text/ecmascript" xmlns:xlink="http://www.w3.org/1999/xlink" zoomAndPan="magnify" class="TextArea" contentStyleType="text/css" preserveAspectRatio="xMidYMid meet" xmlns="http://www.w3.org/2000/svg" version="1.0">
        <polygon points="225,6 213,24 213,38 225,55 341,55 368,38 368,24 308,6 225,6"/>
        <polygon points="31,27 18,41 18,56 115,56 122,42 122,27 31,27"/>
        <polygon points="528,30 528,43 565,43 565,30 528,30"/>
        <polygon points="182,37 182,47 197,47 197,37 182,37"/>
        <polygon points="140,45 140,54 156,54 156,45 140,45"/>
        <polygon points="118,58 118,184 529,184 529,58 118,58"/>
        <polygon points="10,278 9,301 9,403 11,423 15,444 89,444 207,423 253,403 271,381 272,359 272,343 248,301 228,278 10,278"/>
        <polygon points="493,274 493,293 576,293 576,274 493,274"/>
        <polygon points="490,296 490,303 508,303 508,296 490,296"/>
        <polygon points="497,315 497,332 559,332 559,315 497,315"/>
        <polygon points="310,331 310,342 331,342 331,331 310,331"/>
        <polygon points="377,324 377,359 524,359 524,324 377,324"/>
        <polygon points="348,550 334,575 334,593 530,593 530,575 518,550 348,550"/>
        <polygon points="158,596 158,603 166,603 166,596 158,596"/>
        <polygon points="166,594 166,650 243,650 243,594 166,594"/>
        <polygon points="434,614 434,634 500,634 500,614 434,614"/>
    </svg>
    <svg contentScriptType="text/ecmascript" xmlns:xlink="http://www.w3.org/1999/xlink" zoomAndPan="magnify" class="Balloon" contentStyleType="text/css" preserveAspectRatio="xMidYMid meet" xmlns="http://www.w3.org/2000/svg" version="1.0">
        <polygon points="214,9 210,11 209,12 207,13 206,16 205,19 203,22 202,24 201,28 202,32 203,36 204,40 205,45 206,50 209,52 212,55 217,57 222,59 228,60 233,60 238,60 243,60 248,60 253,60 258,60 263,60 268,60 273,60 278,60 283,60 288,60 293,60 298,60 302,60 306,60 310,60 314,60 318,60 322,60 326,60 330,60 334,60 338,60 341,60 345,59 348,57 352,56 355,54 359,52 363,49 367,47 370,45 373,43 376,41 378,37 380,33 379,28 379,23 377,19 373,17 368,15 363,14 358,13 353,11 348,10 343,9 338,8 333,7 327,6 320,4 312,2 302,1 292,1 283,1 275,1 268,1 263,1 258,1 253,1 248,1 244,1 240,1 236,1 232,1 228,1 224,1 220,3 217,6 214,9"/>
        <polygon points="31,20 26,23 22,26 18,28 15,32 12,37 11,43 11,49 12,56 25,61 31,61 36,62 42,62 48,61 54,61 60,61 66,61 72,61 78,61 84,61 89,62 93,62 98,62 103,61 110,61 119,59 122,57 124,55 126,52 127,49 127,45 127,39 127,33 127,27 117,22 110,20 104,18 99,19 93,19 87,19 81,17 74,16 68,17 62,16 55,16 49,16 44,18 38,19 35,20 31,20"/>
        <polygon points="522,32 522,34 522,38 523,44 531,49 533,49 538,49 544,49 548,49 552,49 559,48 570,43 570,40 570,35 570,29 565,25 559,25 553,25 542,25 535,25 529,25 524,27 522,32"/>
        <polygon points="177,35 177,41 179,51 182,52 188,52 195,52 203,47 204,43 202,37 198,32 190,32 180,32 177,35"/>
        <polygon points="137,41 134,46 135,52 142,59 151,59 158,59 162,54 162,52 161,49 154,39 147,39 140,40 137,41"/>
        <polygon points="126,51 123,53 102,60 99,61 99,61 99,61 99,61 99,61 99,61 99,62 99,62 100,63 100,65 99,68 100,72 100,76 100,80 100,84 99,88 100,92 101,96 101,100 101,104 101,109 101,113 101,117 101,121 102,125 101,129 101,133 101,138 103,142 103,146 105,151 107,158 110,166 113,174 119,189 124,189 129,189 134,189 139,189 144,189 149,189 154,189 159,189 164,189 169,189 174,189 179,189 184,189 189,189 194,189 199,189 204,189 209,189 214,189 219,189 224,189 229,189 234,189 239,189 244,189 249,189 254,189 259,189 264,189 269,189 274,189 279,189 284,189 289,189 294,189 299,189 304,189 309,189 314,189 319,189 324,189 329,189 334,189 339,189 344,189 349,189 354,189 359,189 364,189 369,189 374,189 379,189 384,189 389,189 394,189 399,189 404,189 409,189 414,189 419,189 424,189 429,189 434,189 439,189 444,189 449,189 453,189 457,189 461,189 465,189 469,189 473,189 477,189 481,189 485,189 489,189 493,189 497,189 501,189 505,189 508,189 511,190 516,189 521,189 530,189 534,185 534,182 534,177 535,174 534,169 535,165 536,160 537,157 538,154 536,150 535,146 535,141 534,138 535,136 536,132 536,128 537,124 538,119 539,114 541,107 543,103 544,100 545,97 543,93 541,88 539,84 537,80 537,78 537,74 536,70 535,63 535,57 532,53 526,49 522,49 517,49 512,49 507,49 501,49 497,49 493,49 491,49 488,49 484,49 481,49 479,48 476,48 472,47 467,47 462,47 457,47 452,47 447,46 441,45 434,43 422,41 417,41 413,41 409,41 405,41 401,41 397,41 393,41 389,40 386,40 382,41 378,42 375,44 372,46 368,48 365,49 361,50 358,51 354,52 349,53 344,53 339,53 334,53 329,53 324,53 319,53 314,53 309,53 304,53 297,53 289,53 282,53 276,53 271,53 266,53 261,53 257,53 253,53 249,53 245,53 241,53 237,53 233,53 229,53 225,53 221,53 217,53 213,53 209,53 205,53 201,52 196,52 191,52 187,52 182,51 177,52 173,53 169,53 165,53 161,52 158,51 153,50 145,49 141,49 139,47 136,46 133,46 129,48 126,51"/>
        <polygon points="4,290 4,295 4,300 4,305 4,310 4,315 4,320 4,325 4,330 4,335 4,340 4,345 4,350 4,355 4,360 4,365 4,370 4,375 4,380 4,385 4,390 4,395 4,400 4,405 4,410 4,415 4,420 4,424 4,428 5,432 6,436 8,440 10,444 12,448 17,449 22,449 27,449 32,449 37,449 42,449 47,449 52,449 56,449 60,449 64,449 68,449 72,449 76,449 80,449 84,449 88,449 92,449 96,449 100,449 104,449 108,449 112,449 116,449 120,449 124,449 128,449 132,449 136,449 140,449 144,448 148,447 152,446 156,445 160,444 164,443 168,442 172,441 176,440 180,439 184,438 188,437 192,436 196,435 200,434 204,433 208,432 212,431 216,430 220,429 224,428 228,427 232,426 236,425 240,424 244,423 248,422 252,421 256,420 260,419 264,418 268,417 272,415 276,413 276,409 276,406 277,402 276,398 277,394 278,390 279,386 279,382 279,378 279,374 280,370 280,367 281,363 282,359 282,356 281,352 281,349 279,345 277,341 275,337 272,333 270,329 268,325 266,321 263,317 261,313 259,309 257,305 254,301 252,297 249,294 246,291 244,287 241,284 238,281 235,278 232,275 227,273 222,273 217,273 212,273 207,273 202,273 197,273 192,273 187,273 182,273 177,273 172,273 167,273 162,273 157,273 152,273 147,273 142,273 138,273 134,273 130,273 126,273 122,273 118,273 114,273 110,273 106,273 102,273 98,273 94,273 90,273 86,273 82,273 78,273 74,273 70,273 66,273 62,273 58,273 54,273 50,273 46,273 42,273 38,273 34,273 30,273 26,273 22,273 18,273 14,273 10,273 6,275 5,280 4,285 4,290"/>
        <polygon points="492,268 483,279 483,289 484,297 492,304 498,304 504,304 509,300 512,299 517,298 523,298 526,299 530,301 540,305 548,308 554,308 560,308 566,307 572,304 577,300 581,295 582,292 582,289 582,285 582,280 581,274 577,268 571,266 565,266 559,266 553,266 547,266 541,266 535,266 529,265 523,266 517,266 511,266 505,266 499,266 492,268"/>
        <polygon points="484,294 484,299 484,305 490,308 495,309 502,308 510,308 514,302 513,297 505,291 495,291 488,291 484,294"/>
        <polygon points="545,310 543,310 541,310 539,310 537,310 535,310 533,310 529,337 529,337 531,337 529,337 526,337 529,338 532,339 538,339 543,340 547,339 551,339 554,338 557,337 564,331 565,326 566,321 566,313 567,310 567,310 567,310 567,310 567,309 567,309 565,310 563,310 561,310 559,310 557,310 555,310 553,310 551,310 549,310 547,310 545,310"/>
        <polygon points="318,351 318,351 318,351 318,351 318,351 317,352 316,353 316,353 316,353 317,352 318,351 318,351 318,351"/>
        <polygon points="369,355 369,355 369,355 369,355 369,355 369,355 370,357 372,359 375,363 380,364 385,365 390,366 394,367 398,367 402,366 406,364 413,366 419,367 424,366 429,366 434,366 438,365 441,364 447,364 450,367 454,372 459,372 464,373 469,372 470,373 476,374 481,374 486,375 494,377 501,377 506,374 512,371 520,367 524,364 528,362 531,358 529,353 530,350 528,346 529,341 529,341 529,338 529,333 527,314 522,312 517,310 513,310 509,310 505,310 500,308 495,309 490,308 485,308 481,307 476,306 471,305 466,304 461,303 456,302 451,301 447,300 443,299 440,298 439,299 437,300 435,302 432,304 430,306 427,308 425,310 424,312 420,315 416,317 412,319 371,356 369,355"/>
        <polygon points="349,543 346,545 343,547 340,550 336,553 335,558 333,563 332,568 329,573 329,579 329,585 329,592 336,598 341,601 347,602 353,603 359,603 364,604 370,605 376,606 382,606 388,606 394,606 400,607 406,608 411,609 416,610 420,610 425,609 429,606 434,605 438,603 442,602 448,601 454,602 460,602 465,602 470,600 476,599 484,598 490,598 496,598 502,598 507,599 512,599 518,599 524,599 530,598 535,593 535,591 538,586 540,581 541,574 542,567 540,561 539,555 535,551 530,547 525,543 520,542 514,542 509,541 504,538 499,535 494,534 489,532 484,531 479,530 473,530 467,531 462,533 457,536 452,537 447,536 441,536 436,534 432,532 426,531 420,530 414,530 409,531 404,534 399,535 393,534 387,534 382,534 378,533 372,534 366,535 360,537 355,540 352,542 349,543"/>
        <polygon points="174,574 171,573 168,570 167,571 173,571 186,579 184,581 179,578 174,574"/>
        <polygon points="161,584 158,585 154,588 151,592 148,596 145,600 144,605 144,610 145,614 147,618 150,622 153,625 155,629 157,633 159,638 160,643 161,648 167,655 173,655 184,656 189,656 194,656 197,657 199,657 204,657 212,657 218,657 223,656 228,655 232,656 238,656 243,656 249,654 249,655 249,654 249,651 249,646 249,641 250,637 249,632 250,627 251,622 252,616 251,611 251,606 251,601 249,595 246,590 243,589 236,588 231,587 227,587 223,589 215,588 211,588 207,588 203,587 198,587 193,586 188,586 184,586 180,586 175,585 166,583 161,584"/>
        <polygon points="429,614 427,619 426,624 427,630 429,635 437,639 442,639 446,640 449,641 452,642 454,642 458,642 462,642 466,642 471,642 476,642 482,642 494,641 502,639 506,632 508,627 509,622 508,617 507,612 505,607 504,604 500,603 495,601 491,600 486,598 481,599 475,600 469,600 464,601 459,602 453,602 448,603 442,605 437,607 432,609 429,614"/>
    </svg>
    <desc method="Christophe Rigaud's extractor" lastModificationDate="Sun Feb 17 12:52:03 JST 2013"/>
</svg>
