<?xml version="1.0" encoding="UTF-8"?>
<svg xmlns:xlink="http://www.w3.org/1999/xlink" xmlns="http://www.w3.org/2000/svg" contentScriptType="text/ecmascript" width="325mm" zoomAndPan="magnify" contentStyleType="text/css" height="509mm" viewBox="0 0 650 1019" preserveAspectRatio="xMidYMid meet" version="1.0">
    <title>6845746215_5339278ab7_o.jpg</title>
    <svg contentScriptType="text/ecmascript" xmlns:xlink="http://www.w3.org/1999/xlink" zoomAndPan="magnify" class="Page" contentStyleType="text/css" preserveAspectRatio="xMidYMid meet" xmlns="http://www.w3.org/2000/svg" version="1.0">
        <image x="0" y="0" fill-opacity="0.5" width="650" xmlns:xlink="http://www.w3.org/1999/xlink" xlink:href="6845746215_5339278ab7_o.jpg" xlink:type="simple" xlink:actuate="onLoad" opacity="0.5" height="1019" preserveAspectRatio="xMidYMid meet" xlink:show="embed"/>
    </svg>
    <style type="text/css" xml:space="preserve"><![CDATA[
		* { stroke-width: 1; stroke-linejoin: round; }
		.Panel { fill: none; stroke: red; opacity: 1.0; visibility: visible; }
		.TextArea { fill: none; stroke: yellow; opacity: 1.0; visibility: visible; }
		.Line { fill: green; stroke: none; opacity: 0.3; visibility: visible; }
		.Balloon { fill: none; stroke: cyan; opacity: 1.0; visibility: visible; }
		.Letter { fill: none; stroke: blue; opacity: 1.0; visibility: visible; }
		.Object { fill: none; stroke: yellow; opacity: 1.0; visibility: visible; }
		.Page { fill: none; stroke: white; opacity: 0.5; visibility: visible; image-rendering: optimizeSpeed; }
		.Noise { fill: none; stroke: pink; opacity: 1.0; visibility: hidden; }
		.Debug { fill: none; stroke: red; opacity: 1.0; visibility: visible; }
		.Unclassified { fill: none; stroke: orange; opacity: 1.0; visibility: hidden; }
]]></style>
    <svg contentScriptType="text/ecmascript" xmlns:xlink="http://www.w3.org/1999/xlink" zoomAndPan="magnify" class="Panel" contentStyleType="text/css" preserveAspectRatio="xMidYMid meet" xmlns="http://www.w3.org/2000/svg" version="1.0"/>
    <svg contentScriptType="text/ecmascript" xmlns:xlink="http://www.w3.org/1999/xlink" zoomAndPan="magnify" class="Letter" contentStyleType="text/css" preserveAspectRatio="xMidYMid meet" xmlns="http://www.w3.org/2000/svg" version="1.0"/>
    <svg contentScriptType="text/ecmascript" xmlns:xlink="http://www.w3.org/1999/xlink" zoomAndPan="magnify" class="Line" contentStyleType="text/css" preserveAspectRatio="xMidYMid meet" xmlns="http://www.w3.org/2000/svg" version="1.0">
        <polygon points="28,1 621,1 621,22 28,22 28,1"/>
        <polygon points="31,29 184,29 184,47 31,47 31,29"/>
        <polygon points="420,61 609,61 609,98 420,98 420,61"/>
        <polygon points="96,81 329,81 329,110 96,110 96,81"/>
        <polygon points="404,92 551,92 551,122 404,122 404,92"/>
        <polygon points="409,223 451,223 451,262 409,262 409,223"/>
        <polygon points="23,122 327,122 327,324 23,324 23,122"/>
        <polygon points="429,381 580,381 580,405 429,405 429,381"/>
        <polygon points="23,378 127,378 127,420 23,420 23,378"/>
        <polygon points="449,408 579,408 579,438 449,438 449,408"/>
        <polygon points="19,413 55,413 55,435 19,435 19,413"/>
        <polygon points="402,498 487,498 487,540 402,540 402,498"/>
        <polygon points="166,506 186,506 186,540 166,540 166,506"/>
        <polygon points="426,563 640,563 640,639 426,639 426,563"/>
        <polygon points="57,699 330,699 330,776 57,776 57,699"/>
        <polygon points="86,761 134,761 134,789 86,789 86,761"/>
        <polygon points="323,923 360,923 360,935 323,935 323,923"/>
    </svg>
    <svg contentScriptType="text/ecmascript" xmlns:xlink="http://www.w3.org/1999/xlink" zoomAndPan="magnify" class="TextArea" contentStyleType="text/css" preserveAspectRatio="xMidYMid meet" xmlns="http://www.w3.org/2000/svg" version="1.0">
        <polygon points="28,1 28,22 31,47 184,47 621,22 621,1 28,1"/>
        <polygon points="420,61 404,92 404,122 551,122 609,98 609,61 420,61"/>
        <polygon points="96,81 96,110 329,110 329,81 96,81"/>
        <polygon points="409,223 409,262 451,262 451,223 409,223"/>
        <polygon points="23,122 23,324 327,324 327,122 23,122"/>
        <polygon points="429,381 429,405 449,438 579,438 580,405 580,381 429,381"/>
        <polygon points="23,378 19,413 19,435 55,435 127,420 127,378 23,378"/>
        <polygon points="402,498 402,540 426,639 640,639 640,563 487,498 402,498"/>
        <polygon points="166,506 166,540 186,540 186,506 166,506"/>
        <polygon points="57,699 57,776 330,776 330,699 57,699"/>
        <polygon points="86,761 86,789 134,789 134,761 86,761"/>
        <polygon points="323,923 323,935 360,935 360,923 323,923"/>
    </svg>
    <svg contentScriptType="text/ecmascript" xmlns:xlink="http://www.w3.org/1999/xlink" zoomAndPan="magnify" class="Balloon" contentStyleType="text/css" preserveAspectRatio="xMidYMid meet" xmlns="http://www.w3.org/2000/svg" version="1.0">
        <polygon points="123,61 118,61 113,61 108,61 103,61 98,61 93,61 87,61 82,61 76,61 70,61 65,61 59,61 53,63 59,62 65,62 72,63 79,64 86,65 93,66 100,67 107,68 114,69 121,70 128,71 135,73 142,75 149,77 156,79 163,81 170,83 177,85 184,87 191,89 198,91 205,93 212,95 219,97 226,99 233,101 240,103 247,105 254,107 261,109 268,111 275,113 282,115 289,117 296,119 303,121 311,123 318,125 325,127 332,129 340,131 347,133 354,135 361,138 368,140 375,142 383,145 390,149 396,153 402,156 408,160 414,164 421,168 427,172 433,176 439,179 445,182 451,184 458,184 465,182 472,180 478,178 485,176 492,174 498,171 504,169 510,165 515,161 520,157 525,153 528,147 529,141 524,136 518,132 512,128 505,124 498,120 490,116 481,112 471,108 460,104 449,100 438,96 427,92 416,89 405,86 394,83 383,80 373,78 366,77 360,76 354,75 348,74 342,73 336,72 330,71 324,70 318,69 312,68 306,67 300,66 294,65 288,64 282,63 276,62 270,61 264,61 259,61 254,61 249,61 245,61 241,61 237,61 233,61 229,61 225,61 221,61 217,61 213,61 209,61 205,61 201,61 197,61 193,61 189,61 185,61 181,61 176,61 171,61 165,61 160,61 154,61 149,61 145,61 141,61 137,61 133,61 129,61 123,61"/>
        <polygon points="400,125 404,132 409,138 414,144 419,150 424,156 429,162 434,168 439,174 444,180 450,185 456,190 464,190 472,189 480,188 487,185 494,181 500,177 506,172 513,167 519,163 524,157 530,151 534,144 534,144 534,144 534,144 534,144 534,144 534,144 534,144 534,144 534,144 534,144 534,144 534,144 534,144 534,144 534,143 534,142 534,141 531,139 427,56 417,57 413,64 409,71 405,78 402,85 399,93 399,101 399,109 399,117 400,125"/>
        <polygon points="91,86 91,94 91,102 91,110 97,115 104,115 111,115 118,115 125,115 132,115 139,115 146,115 153,115 160,115 167,115 174,115 181,115 188,115 195,115 202,115 209,115 216,115 225,115 233,115 241,115 249,115 257,115 265,115 273,115 281,115 289,115 297,115 305,115 313,115 321,115 329,115 334,106 334,98 334,90 334,82 329,76 322,76 315,76 308,76 301,76 294,76 287,76 280,76 273,76 266,76 259,76 252,76 245,76 238,76 231,76 224,76 217,76 209,76 201,76 193,76 185,76 177,76 169,76 161,76 153,76 145,76 137,76 129,76 121,76 113,76 105,76 97,76 91,86"/>
        <polygon points="456,222 456,237 456,248 456,259 456,262 456,262 455,265 453,267 456,262 456,248 456,241 456,235 458,222 458,222 458,222 458,222 456,222"/>
        <polygon points="43,117 34,117 25,117 18,136 18,148 18,160 18,172 18,184 18,196 18,208 18,219 18,228 18,237 18,246 18,255 18,264 18,273 18,282 18,291 18,300 18,309 18,318 19,327 26,332 34,336 42,340 51,343 60,346 69,349 78,352 86,355 94,358 102,361 110,364 118,367 126,369 133,371 141,375 151,378 172,383 181,383 190,381 199,379 208,377 216,373 224,369 232,365 240,361 248,356 256,351 265,345 273,341 280,337 287,333 292,332 297,330 297,330 297,330 297,330 297,330 299,330 302,329 332,319 332,310 332,301 332,292 332,283 332,274 332,264 332,254 332,244 332,236 332,227 332,218 332,209 332,200 332,191 332,182 332,173 332,164 332,155 332,146 332,137 332,128 331,119 322,117 313,117 304,117 295,117 286,117 277,117 268,117 259,117 250,117 241,117 232,117 223,117 214,117 205,117 196,117 187,117 178,117 169,117 160,117 151,117 142,117 133,117 124,117 115,117 106,117 97,117 88,117 79,117 70,117 61,117 52,117 43,117"/>
        <polygon points="424,384 423,396 424,406 428,415 432,422 437,431 443,438 451,443 459,444 469,444 477,444 487,444 497,444 505,444 511,444 520,444 527,444 534,444 543,445 552,446 564,446 574,445 583,441 585,430 585,421 586,411 586,401 585,386 579,376 570,376 560,376 551,376 542,376 532,376 522,376 512,376 503,376 494,376 485,375 475,374 465,373 454,374 444,375 433,376 424,384"/>
        <polygon points="16,386 14,393 13,401 12,410 12,419 12,428 14,437 28,440 37,441 46,440 58,440 67,439 75,438 84,436 92,434 101,432 111,429 138,426 138,417 136,408 133,399 135,394 136,390 135,384 134,380 134,377 126,373 116,373 106,373 96,373 86,373 76,373 62,373 52,373 43,373 34,373 25,373 18,379 16,386"/>
        <polygon points="398,494 397,500 397,509 396,518 396,527 395,536 394,545 393,554 395,563 398,571 402,579 404,582 405,586 407,594 411,602 411,606 412,613 414,621 417,630 420,638 423,643 431,644 436,644 442,645 449,645 454,645 461,645 469,644 478,644 484,644 489,644 495,645 502,644 505,645 510,646 514,646 519,645 523,645 528,645 532,645 539,645 545,645 553,644 562,644 571,644 580,644 589,644 598,644 607,644 617,644 627,644 636,644 645,619 645,610 645,602 645,594 645,586 645,578 645,570 645,562 638,557 631,554 619,548 608,542 600,538 590,534 582,530 574,526 566,519 559,513 553,511 547,509 541,507 535,505 529,502 524,498 518,493 474,455 443,480 436,485 430,489 423,491 415,490 406,490 398,494"/>
        <polygon points="161,503 160,510 160,518 161,528 161,539 175,547 187,549 191,538 194,526 194,514 190,503 172,501 161,503"/>
        <polygon points="52,709 52,719 52,728 52,737 52,746 52,755 52,764 52,773 57,781 64,785 72,788 80,791 88,794 95,797 103,800 111,803 119,806 127,809 136,810 145,809 154,808 162,808 173,808 183,808 192,809 202,809 211,807 220,804 229,801 236,797 244,792 251,788 259,784 268,784 277,785 288,786 297,783 306,783 314,783 323,786 327,784 333,781 338,774 337,765 338,756 337,747 337,738 336,729 335,720 327,708 319,694 309,694 299,693 290,690 281,686 273,682 265,678 257,674 250,671 242,668 234,665 225,663 216,659 206,655 195,652 186,650 177,649 167,648 157,647 148,648 139,652 130,655 121,659 113,664 105,669 97,674 89,679 80,684 72,689 63,694 52,709"/>
        <polygon points="100,756 81,778 81,788 89,794 97,798 104,802 111,805 118,807 123,811 127,812 130,813 129,808 126,798 122,787 116,773 110,756 100,756"/>
        <polygon points="317,923 318,934 329,941 342,940 355,940 366,933 365,928 352,918 340,916 328,918 317,923"/>
    </svg>
    <desc method="Christophe Rigaud's extractor" lastModificationDate="Sun Feb 17 12:57:21 JST 2013"/>
</svg>
