<?xml version="1.0" encoding="UTF-8"?>
<svg xmlns:xlink="http://www.w3.org/1999/xlink" xmlns="http://www.w3.org/2000/svg" contentScriptType="text/ecmascript" width="1230mm" zoomAndPan="magnify" contentStyleType="text/css" height="1705mm" viewBox="0 0 2461 3411" preserveAspectRatio="xMidYMid meet" version="1.0">
    <title>LAMISSEB_LESNOEILS1_007.jpg</title>
    <svg contentScriptType="text/ecmascript" xmlns:xlink="http://www.w3.org/1999/xlink" zoomAndPan="magnify" class="Page" contentStyleType="text/css" preserveAspectRatio="xMidYMid meet" xmlns="http://www.w3.org/2000/svg" version="1.0">
        <image x="0" y="0" fill-opacity="0.5" width="2461" xmlns:xlink="http://www.w3.org/1999/xlink" xlink:href="LAMISSEB_LESNOEILS1_007.jpg" xlink:type="simple" xlink:actuate="onLoad" opacity="0.5" height="3411" preserveAspectRatio="xMidYMid meet" xlink:show="embed"/>
    </svg>
    <style type="text/css" xml:space="preserve"><![CDATA[
		* { stroke-width: 1; stroke-linejoin: round; }
		.Panel { fill: none; stroke: red; opacity: 1.0; visibility: visible; }
		.TextArea { fill: none; stroke: yellow; opacity: 1.0; visibility: visible; }
		.Line { fill: green; stroke: none; opacity: 0.3; visibility: visible; }
		.Balloon { fill: none; stroke: cyan; opacity: 1.0; visibility: visible; }
		.Letter { fill: none; stroke: blue; opacity: 1.0; visibility: visible; }
		.Object { fill: none; stroke: yellow; opacity: 1.0; visibility: visible; }
		.Page { fill: none; stroke: white; opacity: 0.5; visibility: visible; image-rendering: optimizeSpeed; }
		.Noise { fill: none; stroke: pink; opacity: 1.0; visibility: hidden; }
		.Debug { fill: none; stroke: red; opacity: 1.0; visibility: visible; }
		.Unclassified { fill: none; stroke: orange; opacity: 1.0; visibility: hidden; }
]]></style>
    <svg contentScriptType="text/ecmascript" xmlns:xlink="http://www.w3.org/1999/xlink" zoomAndPan="magnify" class="Panel" contentStyleType="text/css" preserveAspectRatio="xMidYMid meet" xmlns="http://www.w3.org/2000/svg" version="1.0"/>
    <svg contentScriptType="text/ecmascript" xmlns:xlink="http://www.w3.org/1999/xlink" zoomAndPan="magnify" class="Letter" contentStyleType="text/css" preserveAspectRatio="xMidYMid meet" xmlns="http://www.w3.org/2000/svg" version="1.0"/>
    <svg contentScriptType="text/ecmascript" xmlns:xlink="http://www.w3.org/1999/xlink" zoomAndPan="magnify" class="Line" contentStyleType="text/css" preserveAspectRatio="xMidYMid meet" xmlns="http://www.w3.org/2000/svg" version="1.0">
        <polygon points="1704,166 2152,166 2152,200 1704,200 1704,166"/>
        <polygon points="338,205 761,205 761,240 338,240 338,205"/>
        <polygon points="311,241 786,241 786,282 311,282 311,241"/>
        <polygon points="328,291 770,291 770,327 328,327 328,291"/>
        <polygon points="371,337 722,337 722,368 371,368 371,337"/>
        <polygon points="1760,951 2130,951 2130,990 1760,990 1760,951"/>
        <polygon points="1000,973 1520,973 1520,1005 1000,1005 1000,973"/>
        <polygon points="355,966 744,966 744,1006 355,1006 355,966"/>
        <polygon points="1071,1012 1446,1012 1446,1043 1071,1043 1071,1012"/>
        <polygon points="362,1016 732,1016 732,1048 362,1048 362,1016"/>
        <polygon points="360,1058 734,1058 734,1090 360,1090 360,1058"/>
        <polygon points="1839,1748 2062,1748 2062,1780 1839,1780 1839,1748"/>
        <polygon points="342,1747 785,1747 785,1786 342,1786 342,1747"/>
        <polygon points="1016,1751 1502,1751 1502,1792 1016,1792 1016,1751"/>
        <polygon points="398,1799 728,1799 728,1830 398,1830 398,1799"/>
        <polygon points="1030,1802 1495,1802 1495,1837 1030,1837 1030,1802"/>
        <polygon points="1100,1845 1399,1845 1399,1877 1100,1877 1100,1845"/>
        <polygon points="1755,2137 2183,2137 2183,2291 1755,2291 1755,2137"/>
        <polygon points="1063,2548 1470,2548 1470,2579 1063,2579 1063,2548"/>
        <polygon points="370,2550 775,2550 775,2584 370,2584 370,2550"/>
        <polygon points="369,2597 771,2597 771,2631 369,2631 369,2597"/>
        <polygon points="1127,2591 1401,2591 1401,2622 1127,2622 1127,2591"/>
        <polygon points="1744,2937 2213,2937 2213,3100 1744,3100 1744,2937"/>
    </svg>
    <svg contentScriptType="text/ecmascript" xmlns:xlink="http://www.w3.org/1999/xlink" zoomAndPan="magnify" class="TextArea" contentStyleType="text/css" preserveAspectRatio="xMidYMid meet" xmlns="http://www.w3.org/2000/svg" version="1.0">
        <polygon points="1704,166 1704,200 2152,200 2152,166 1704,166"/>
        <polygon points="338,205 311,241 311,282 328,327 371,368 722,368 770,327 786,282 786,241 761,205 338,205"/>
        <polygon points="1760,951 1760,990 2130,990 2130,951 1760,951"/>
        <polygon points="1000,973 1000,1005 1071,1043 1446,1043 1520,1005 1520,973 1000,973"/>
        <polygon points="355,966 355,1006 360,1090 734,1090 744,1006 744,966 355,966"/>
        <polygon points="1839,1748 1839,1780 2062,1780 2062,1748 1839,1748"/>
        <polygon points="342,1747 342,1786 398,1830 728,1830 785,1786 785,1747 342,1747"/>
        <polygon points="1016,1751 1016,1792 1030,1837 1100,1877 1399,1877 1495,1837 1502,1792 1502,1751 1016,1751"/>
        <polygon points="1755,2137 1755,2291 2183,2291 2183,2137 1755,2137"/>
        <polygon points="1063,2548 1063,2579 1127,2622 1401,2622 1470,2579 1470,2548 1063,2548"/>
        <polygon points="370,2550 369,2597 369,2631 771,2631 775,2584 775,2550 370,2550"/>
        <polygon points="1744,2937 1744,3100 2213,3100 2213,2937 1744,2937"/>
    </svg>
    <svg contentScriptType="text/ecmascript" xmlns:xlink="http://www.w3.org/1999/xlink" zoomAndPan="magnify" class="Balloon" contentStyleType="text/css" preserveAspectRatio="xMidYMid meet" xmlns="http://www.w3.org/2000/svg" version="1.0">
        <polygon points="1699,171 1696,179 1696,186 1696,193 1697,200 1708,206 1716,209 1724,209 1732,209 1740,209 1747,209 1754,209 1761,209 1768,209 1775,209 1782,209 1789,209 1796,209 1803,209 1810,209 1817,209 1824,209 1831,209 1838,209 1845,209 1852,209 1859,209 1866,209 1873,209 1880,210 1887,212 1894,212 1901,212 1908,212 1915,212 1922,212 1929,212 1936,213 1943,214 1950,215 1958,216 1966,216 1974,216 1982,216 1990,216 1998,216 2006,216 2014,216 2021,216 2028,216 2035,216 2042,216 2049,216 2056,216 2063,216 2070,216 2077,216 2084,216 2091,216 2098,216 2105,216 2112,216 2119,216 2126,215 2133,214 2140,213 2147,210 2154,207 2159,193 2159,183 2159,174 2157,167 2147,161 2139,158 2132,158 2125,158 2118,158 2111,158 2104,158 2097,158 2090,158 2083,158 2076,158 2069,158 2062,158 2055,158 2048,158 2041,158 2034,158 2027,158 2020,158 2013,158 2006,158 1999,157 1992,156 1985,154 1978,154 1971,153 1964,152 1957,150 1950,150 1943,150 1936,150 1929,150 1922,150 1915,150 1908,150 1901,150 1894,150 1887,150 1880,150 1873,150 1866,149 1859,148 1852,148 1845,148 1838,148 1831,148 1824,148 1817,148 1810,148 1803,148 1796,148 1789,148 1782,148 1775,148 1768,148 1761,148 1754,148 1747,148 1740,149 1733,152 1726,154 1719,156 1712,159 1705,161 1699,171"/>
        <polygon points="326,205 318,210 312,216 308,222 303,232 303,243 303,254 303,265 303,276 303,287 304,298 307,309 309,320 314,332 320,342 325,352 330,362 338,371 346,375 354,378 363,381 372,384 382,388 392,392 403,395 414,397 425,397 436,397 447,398 458,398 470,398 481,399 493,399 505,400 517,400 529,400 541,400 552,400 563,400 574,400 585,400 596,399 607,398 618,397 629,396 640,395 651,394 662,393 673,389 684,386 695,384 706,382 717,380 728,378 739,375 749,370 760,364 769,357 776,349 782,340 786,329 789,318 790,307 791,296 792,285 794,274 794,263 794,252 793,241 789,230 785,219 778,210 771,201 755,193 741,190 727,187 713,184 700,182 688,182 677,181 666,181 655,180 644,178 633,178 622,177 611,176 600,174 589,174 578,174 567,174 556,174 545,174 534,174 523,174 512,174 501,174 490,174 479,174 468,174 457,174 446,174 435,174 424,174 413,177 402,179 390,183 379,186 368,189 357,192 346,195 336,200 326,205"/>
        <polygon points="1762,944 1755,954 1755,967 1755,982 1757,995 1766,998 1775,1001 1786,1004 1796,1008 1808,1008 1820,1008 1832,1009 1844,1010 1856,1011 1868,1012 1880,1012 1892,1013 1904,1014 1916,1014 1928,1014 1940,1014 1952,1013 1964,1012 1976,1011 1988,1010 2000,1009 2012,1008 2024,1007 2036,1006 2048,1005 2060,1004 2072,1003 2084,1001 2096,999 2108,998 2120,995 2131,995 2136,984 2139,973 2141,961 2145,945 2134,940 2122,940 2110,940 2098,940 2086,940 2074,940 2062,940 2050,940 2038,940 2026,940 2014,940 2002,940 1990,940 1978,940 1966,940 1954,940 1942,940 1930,940 1918,940 1906,940 1894,940 1882,940 1870,940 1858,940 1846,940 1834,940 1822,940 1810,940 1798,941 1786,942 1774,943 1762,944"/>
        <polygon points="996,970 995,979 995,989 995,999 997,1009 1005,1016 1013,1023 1021,1030 1036,1037 1051,1043 1065,1049 1079,1053 1093,1057 1107,1059 1121,1061 1134,1062 1147,1063 1160,1064 1173,1065 1186,1066 1199,1067 1212,1067 1228,1065 1241,1063 1254,1061 1266,1058 1276,1056 1286,1055 1296,1055 1306,1054 1316,1054 1326,1053 1336,1053 1346,1051 1356,1050 1366,1049 1376,1049 1386,1049 1396,1049 1406,1049 1416,1049 1426,1049 1436,1049 1446,1049 1456,1049 1466,1047 1475,1044 1484,1041 1493,1038 1502,1035 1511,1032 1516,1029 1521,1026 1522,1022 1522,1018 1523,1014 1524,1011 1525,1007 1525,1003 1525,999 1525,995 1525,991 1525,987 1525,983 1525,979 1525,975 1524,970 1518,967 1510,963 1502,959 1492,956 1483,953 1473,952 1463,951 1453,950 1443,950 1433,950 1423,950 1413,950 1403,950 1393,950 1383,950 1373,950 1363,950 1353,950 1343,950 1333,950 1323,950 1313,950 1303,951 1293,952 1283,952 1273,953 1263,953 1253,953 1243,953 1233,953 1223,953 1213,953 1203,953 1193,953 1183,953 1173,953 1163,953 1153,953 1143,953 1133,953 1123,954 1113,955 1103,955 1093,955 1083,955 1073,955 1063,955 1053,955 1043,956 1033,956 1023,957 1014,962 1005,966 996,970"/>
        <polygon points="365,960 353,961 350,974 349,989 349,1002 349,1014 349,1026 349,1038 349,1050 349,1062 349,1074 350,1086 354,1097 362,1101 370,1105 380,1110 392,1111 404,1111 416,1112 428,1112 440,1112 452,1112 464,1112 476,1112 489,1112 500,1112 512,1112 524,1112 536,1112 548,1112 560,1112 572,1112 584,1112 596,1111 608,1110 620,1109 632,1108 644,1107 656,1106 668,1105 680,1104 692,1103 704,1101 716,1099 728,1096 739,1092 747,1081 755,1066 761,1052 761,1040 761,1028 759,1016 757,1004 755,992 752,980 749,969 744,961 737,957 725,957 713,957 701,957 689,957 677,957 665,957 653,957 641,957 629,957 617,957 605,957 593,957 581,957 569,957 557,957 545,957 533,957 521,957 509,957 497,957 485,957 473,957 461,957 449,957 437,957 425,957 413,957 401,957 389,958 377,959 365,960"/>
        <polygon points="1839,1743 1833,1759 1832,1765 1833,1771 1834,1777 1836,1784 1842,1789 1849,1793 1856,1797 1863,1801 1871,1801 1879,1801 1887,1801 1894,1801 1902,1801 1910,1801 1918,1801 1926,1801 1934,1801 1942,1801 1950,1801 1958,1801 1967,1801 1975,1801 1983,1801 1991,1801 1999,1801 2007,1801 2015,1800 2023,1799 2031,1798 2039,1795 2047,1792 2055,1789 2062,1785 2068,1777 2070,1772 2072,1765 2076,1758 2087,1743 2079,1743 2071,1742 2063,1741 2055,1739 2047,1739 2039,1739 2031,1738 2023,1738 2015,1738 2007,1738 1999,1738 1991,1738 1983,1738 1975,1738 1967,1738 1959,1738 1951,1738 1943,1738 1935,1738 1927,1738 1919,1738 1911,1737 1903,1735 1895,1735 1887,1735 1879,1735 1871,1735 1863,1736 1855,1738 1847,1740 1839,1743"/>
        <polygon points="337,1747 336,1760 337,1772 337,1783 338,1793 345,1800 352,1807 360,1813 375,1822 389,1830 401,1835 413,1839 423,1842 432,1842 441,1842 450,1842 459,1842 468,1842 477,1842 486,1842 495,1842 504,1842 513,1842 522,1842 531,1843 540,1844 554,1843 568,1842 581,1841 593,1841 605,1841 617,1841 629,1840 640,1840 649,1840 658,1840 667,1840 676,1840 685,1840 694,1840 703,1840 712,1839 721,1838 730,1835 739,1833 748,1831 757,1829 766,1826 774,1822 782,1817 786,1814 790,1811 795,1808 795,1803 795,1798 796,1793 796,1788 796,1783 796,1778 796,1773 796,1767 796,1761 796,1756 796,1750 795,1744 786,1741 777,1741 768,1741 759,1740 750,1740 741,1740 732,1740 723,1740 714,1740 705,1740 696,1740 687,1740 678,1740 669,1740 660,1740 651,1740 642,1740 633,1740 624,1740 615,1740 606,1740 597,1740 588,1740 579,1740 570,1740 561,1740 552,1740 543,1740 534,1740 525,1740 516,1740 507,1740 498,1740 489,1740 480,1740 471,1740 462,1740 453,1740 444,1740 435,1740 426,1740 417,1740 408,1740 399,1740 390,1740 381,1740 372,1740 363,1740 354,1741 345,1742 337,1747"/>
        <polygon points="1010,1784 1011,1794 1011,1804 1011,1814 1011,1824 1012,1833 1016,1842 1021,1850 1027,1858 1034,1866 1048,1874 1060,1878 1071,1881 1082,1884 1093,1887 1103,1890 1112,1890 1121,1890 1130,1890 1139,1890 1148,1890 1157,1890 1166,1890 1175,1890 1184,1890 1193,1890 1202,1891 1211,1892 1220,1894 1229,1895 1238,1896 1247,1898 1258,1899 1268,1899 1277,1899 1287,1899 1297,1899 1307,1899 1317,1899 1327,1899 1337,1899 1347,1899 1357,1899 1366,1898 1375,1897 1384,1896 1393,1893 1402,1890 1410,1884 1417,1878 1425,1873 1438,1868 1450,1862 1462,1857 1477,1850 1491,1844 1502,1828 1505,1816 1506,1806 1507,1797 1507,1791 1508,1784 1508,1783 1508,1780 1508,1777 1508,1774 1508,1771 1509,1768 1509,1765 1509,1762 1509,1759 1509,1755 1508,1751 1503,1745 1490,1740 1478,1735 1468,1735 1458,1735 1448,1735 1438,1735 1428,1735 1418,1735 1408,1735 1398,1735 1388,1735 1378,1735 1368,1735 1358,1735 1348,1735 1338,1735 1328,1735 1318,1735 1308,1735 1298,1735 1288,1735 1278,1735 1269,1735 1260,1735 1251,1735 1242,1735 1233,1735 1224,1735 1215,1735 1206,1735 1197,1735 1188,1735 1179,1735 1170,1735 1161,1735 1152,1735 1143,1735 1134,1735 1125,1735 1116,1735 1107,1735 1098,1735 1089,1735 1080,1735 1071,1735 1062,1735 1053,1735 1044,1735 1035,1736 1026,1737 1017,1739 1010,1754 1010,1764 1010,1774 1010,1784"/>
        <polygon points="1761,2132 1750,2144 1746,2153 1744,2165 1742,2177 1740,2189 1742,2202 1743,2214 1743,2223 1743,2233 1743,2243 1744,2252 1745,2262 1747,2271 1748,2281 1749,2291 1756,2298 1766,2298 1776,2298 1786,2298 1796,2298 1806,2298 1816,2298 1826,2298 1836,2298 1846,2298 1856,2298 1866,2297 1876,2296 1886,2296 1896,2296 1907,2296 1917,2296 1925,2296 1933,2296 1943,2298 1953,2299 1963,2298 1973,2297 1983,2297 1992,2297 2002,2297 2009,2296 2017,2296 2027,2296 2038,2296 2048,2297 2060,2298 2071,2298 2081,2298 2091,2298 2101,2298 2111,2298 2121,2298 2131,2298 2141,2298 2151,2298 2161,2298 2171,2298 2180,2296 2188,2292 2189,2286 2191,2278 2194,2269 2193,2259 2193,2249 2193,2239 2193,2229 2193,2219 2193,2209 2193,2199 2192,2189 2192,2179 2192,2169 2192,2159 2189,2150 2188,2141 2182,2132 2172,2132 2162,2130 2152,2128 2142,2127 2132,2126 2122,2127 2112,2128 2102,2128 2093,2129 2084,2130 2074,2130 2065,2131 2055,2131 2045,2131 2035,2131 2025,2131 2015,2131 2003,2131 1992,2131 1982,2131 1972,2131 1962,2132 1952,2132 1941,2132 1931,2132 1923,2132 1914,2132 1904,2132 1897,2132 1890,2132 1880,2132 1871,2130 1861,2131 1851,2132 1841,2132 1831,2132 1821,2132 1811,2132 1801,2132 1791,2132 1781,2132 1771,2132 1761,2132"/>
        <polygon points="1059,2540 1057,2547 1055,2555 1055,2563 1055,2571 1056,2579 1061,2588 1066,2596 1072,2605 1079,2613 1086,2621 1093,2624 1100,2627 1107,2630 1116,2634 1123,2634 1130,2634 1137,2634 1144,2635 1151,2637 1159,2637 1167,2637 1175,2637 1185,2638 1195,2639 1205,2640 1215,2641 1225,2642 1236,2643 1247,2644 1258,2644 1266,2643 1275,2642 1285,2641 1295,2640 1305,2639 1315,2637 1326,2636 1337,2636 1348,2636 1359,2635 1370,2635 1381,2634 1392,2634 1402,2630 1412,2626 1422,2622 1432,2618 1441,2611 1450,2605 1458,2599 1466,2593 1475,2587 1476,2576 1477,2565 1476,2554 1472,2543 1457,2540 1442,2538 1427,2537 1412,2536 1397,2536 1382,2536 1368,2536 1354,2536 1340,2536 1326,2536 1312,2536 1298,2536 1284,2536 1270,2536 1257,2536 1244,2536 1231,2536 1218,2536 1205,2536 1192,2536 1180,2536 1169,2536 1158,2536 1147,2536 1136,2536 1125,2536 1114,2536 1103,2536 1092,2536 1081,2537 1070,2539 1059,2540"/>
        <polygon points="367,2546 362,2552 362,2564 362,2576 362,2588 362,2600 362,2612 363,2624 368,2636 383,2641 396,2641 409,2641 422,2641 435,2641 448,2641 461,2641 474,2641 487,2641 500,2641 512,2641 524,2641 536,2641 548,2642 561,2642 574,2642 587,2642 600,2642 613,2642 626,2642 639,2642 652,2642 664,2642 676,2642 688,2642 700,2642 712,2642 724,2642 736,2642 748,2641 760,2636 768,2636 776,2626 778,2616 780,2604 782,2591 783,2578 784,2566 781,2554 768,2545 755,2541 742,2541 729,2541 716,2541 703,2541 690,2541 677,2541 664,2541 651,2541 638,2541 625,2541 612,2541 599,2541 586,2541 573,2541 560,2541 547,2541 534,2541 521,2541 511,2541 499,2541 487,2541 475,2541 463,2541 451,2541 439,2541 427,2541 415,2541 403,2540 391,2540 379,2543 367,2546"/>
        <polygon points="1739,2941 1735,2951 1734,2964 1733,2976 1731,2988 1730,3000 1729,3012 1728,3023 1727,3034 1729,3043 1731,3051 1734,3058 1736,3066 1737,3074 1738,3082 1739,3090 1739,3098 1748,3105 1756,3105 1763,3106 1771,3105 1779,3104 1785,3105 1791,3107 1798,3107 1806,3106 1813,3106 1821,3106 1829,3106 1837,3106 1845,3106 1853,3107 1860,3105 1868,3105 1876,3105 1880,3105 1887,3105 1895,3105 1901,3105 1909,3105 1917,3105 1925,3105 1933,3105 1941,3105 1949,3105 1957,3105 1963,3105 1969,3105 1976,3105 1985,3104 1991,3105 1997,3105 2005,3105 2013,3105 2021,3105 2029,3105 2034,3105 2042,3105 2051,3105 2055,3105 2061,3105 2067,3105 2073,3105 2079,3105 2086,3105 2094,3105 2102,3105 2110,3105 2118,3105 2126,3105 2134,3105 2142,3105 2150,3105 2158,3105 2166,3105 2174,3105 2182,3105 2193,3105 2203,3105 2211,3105 2218,3094 2218,3088 2218,3078 2218,3069 2218,3057 2219,3045 2220,3032 2221,3021 2222,3010 2221,3001 2220,2993 2218,2985 2218,2974 2219,2964 2218,2956 2218,2946 2211,2932 2203,2932 2195,2932 2191,2932 2187,2932 2183,2932 2178,2931 2172,2931 2166,2931 2158,2930 2150,2929 2142,2928 2134,2927 2126,2927 2118,2927 2110,2927 2102,2927 2094,2927 2086,2927 2078,2927 2070,2928 2064,2931 2056,2932 2048,2932 2040,2932 2032,2932 2024,2932 2016,2932 2009,2932 2003,2932 1997,2932 1991,2932 1983,2932 1975,2932 1967,2932 1959,2932 1952,2932 1946,2932 1940,2932 1934,2932 1928,2932 1922,2932 1916,2932 1908,2932 1900,2932 1892,2932 1884,2932 1876,2931 1867,2931 1860,2928 1851,2928 1843,2928 1835,2928 1827,2928 1819,2928 1811,2928 1803,2928 1795,2928 1787,2928 1779,2928 1771,2928 1763,2928 1755,2931 1747,2932 1739,2941"/>
    </svg>
    <desc method="Christophe Rigaud's extractor" lastModificationDate="Sun Feb 17 14:06:04 JST 2013"/>
</svg>
