<?xml version="1.0" encoding="UTF-8"?>
<svg xmlns:xlink="http://www.w3.org/1999/xlink" xmlns="http://www.w3.org/2000/svg" contentScriptType="text/ecmascript" width="1217mm" zoomAndPan="magnify" contentStyleType="text/css" height="1732mm" viewBox="0 0 2434 3465" preserveAspectRatio="xMidYMid meet" version="1.0">
    <title>MIDAM_KIDPADDLE7_015.jpg</title>
    <svg contentScriptType="text/ecmascript" xmlns:xlink="http://www.w3.org/1999/xlink" zoomAndPan="magnify" class="Page" contentStyleType="text/css" preserveAspectRatio="xMidYMid meet" xmlns="http://www.w3.org/2000/svg" version="1.0">
        <image x="0" y="0" fill-opacity="0.5" width="2434" xmlns:xlink="http://www.w3.org/1999/xlink" xlink:href="MIDAM_KIDPADDLE7_015.jpg" xlink:type="simple" xlink:actuate="onLoad" opacity="0.5" height="3465" preserveAspectRatio="xMidYMid meet" xlink:show="embed"/>
    </svg>
    <style type="text/css" xml:space="preserve"><![CDATA[
		* { stroke-width: 1; stroke-linejoin: round; }
		.Panel { fill: none; stroke: red; opacity: 1.0; visibility: visible; }
		.TextArea { fill: none; stroke: yellow; opacity: 1.0; visibility: visible; }
		.Line { fill: green; stroke: none; opacity: 0.3; visibility: visible; }
		.Balloon { fill: none; stroke: cyan; opacity: 1.0; visibility: visible; }
		.Letter { fill: none; stroke: blue; opacity: 1.0; visibility: visible; }
		.Object { fill: none; stroke: yellow; opacity: 1.0; visibility: visible; }
		.Page { fill: none; stroke: white; opacity: 0.5; visibility: visible; image-rendering: optimizeSpeed; }
		.Noise { fill: none; stroke: pink; opacity: 1.0; visibility: hidden; }
		.Debug { fill: none; stroke: red; opacity: 1.0; visibility: visible; }
		.Unclassified { fill: none; stroke: orange; opacity: 1.0; visibility: hidden; }
]]></style>
    <svg contentScriptType="text/ecmascript" xmlns:xlink="http://www.w3.org/1999/xlink" zoomAndPan="magnify" class="Panel" contentStyleType="text/css" preserveAspectRatio="xMidYMid meet" xmlns="http://www.w3.org/2000/svg" version="1.0"/>
    <svg contentScriptType="text/ecmascript" xmlns:xlink="http://www.w3.org/1999/xlink" zoomAndPan="magnify" class="Letter" contentStyleType="text/css" preserveAspectRatio="xMidYMid meet" xmlns="http://www.w3.org/2000/svg" version="1.0"/>
    <svg contentScriptType="text/ecmascript" xmlns:xlink="http://www.w3.org/1999/xlink" zoomAndPan="magnify" class="Line" contentStyleType="text/css" preserveAspectRatio="xMidYMid meet" xmlns="http://www.w3.org/2000/svg" version="1.0">
        <polygon points="189,144 206,144 206,152 189,152 189,144"/>
        <polygon points="586,371 1008,371 1008,410 586,410 586,371"/>
        <polygon points="1199,367 1587,367 1587,414 1199,414 1199,367"/>
        <polygon points="64,372 1031,372 1031,449 64,449 64,372"/>
        <polygon points="1754,369 2258,369 2258,408 1754,408 1754,369"/>
        <polygon points="47,412 192,412 192,448 47,448 47,412"/>
        <polygon points="1182,407 1479,407 1479,447 1182,447 1182,407"/>
        <polygon points="1744,407 2231,407 2231,454 1744,454 1744,407"/>
        <polygon points="1734,440 2275,440 2275,482 1734,482 1734,440"/>
        <polygon points="1188,447 1655,447 1655,486 1188,486 1188,447"/>
        <polygon points="558,438 1070,438 1070,520 558,520 558,438"/>
        <polygon points="1187,481 1542,481 1542,520 1187,520 1187,481"/>
        <polygon points="564,483 800,483 800,522 564,522 564,483"/>
        <polygon points="1734,483 2185,483 2185,518 1734,518 1734,483"/>
        <polygon points="1758,513 2234,513 2234,555 1758,555 1758,513"/>
        <polygon points="142,1102 512,1102 512,1146 142,1146 142,1102"/>
        <polygon points="59,1100 1086,1100 1086,1181 59,1181 59,1100"/>
        <polygon points="598,1107 1155,1107 1155,1148 598,1148 598,1107"/>
        <polygon points="1272,1108 1627,1108 1627,1143 1272,1143 1272,1108"/>
        <polygon points="1768,1097 2239,1097 2239,1142 1768,1142 1768,1097"/>
        <polygon points="48,1145 157,1145 157,1180 48,1180 48,1145"/>
        <polygon points="2010,1144 2277,1144 2277,1180 2010,1180 2010,1144"/>
        <polygon points="1255,1141 1811,1141 1811,1180 1255,1180 1255,1141"/>
        <polygon points="1760,1179 2153,1179 2153,1217 1760,1217 1760,1179"/>
        <polygon points="593,1180 1555,1180 1555,1294 593,1294 593,1180"/>
        <polygon points="1248,1171 1635,1171 1635,1214 1248,1214 1248,1171"/>
        <polygon points="58,1182 422,1182 422,1233 58,1233 58,1182"/>
        <polygon points="585,1216 679,1216 679,1254 585,1254 585,1216"/>
        <polygon points="586,1257 962,1257 962,1294 586,1294 586,1257"/>
        <polygon points="911,1303 1210,1303 1210,1329 911,1329 911,1303"/>
        <polygon points="953,1329 1185,1329 1185,1356 953,1356 953,1329"/>
        <polygon points="921,1353 1187,1353 1187,1384 921,1384 921,1353"/>
        <polygon points="1328,1842 1586,1842 1586,1878 1328,1878 1328,1842"/>
        <polygon points="53,1844 563,1844 563,1882 53,1882 53,1844"/>
        <polygon points="1954,1865 2160,1865 2160,1914 1954,1914 1954,1865"/>
        <polygon points="1282,1878 1614,1878 1614,1914 1282,1914 1282,1878"/>
        <polygon points="51,1880 723,1880 723,1921 51,1921 51,1880"/>
        <polygon points="1300,1914 1563,1914 1563,1952 1300,1952 1300,1914"/>
        <polygon points="912,1934 1165,1934 1165,1974 912,1974 912,1934"/>
        <polygon points="53,1920 582,1920 582,1957 53,1957 53,1920"/>
        <polygon points="1097,1991 1138,1991 1138,2008 1097,2008 1097,1991"/>
        <polygon points="1365,2021 1536,2021 1536,2060 1365,2060 1365,2021"/>
        <polygon points="1398,2575 1802,2575 1802,2611 1398,2611 1398,2575"/>
        <polygon points="459,2578 1041,2578 1041,2622 459,2622 459,2578"/>
        <polygon points="1407,2610 1762,2610 1762,2649 1407,2649 1407,2610"/>
        <polygon points="95,2617 250,2617 250,2655 95,2655 95,2617"/>
        <polygon points="406,2618 985,2618 985,2657 406,2657 406,2618"/>
        <polygon points="426,2655 1015,2655 1015,2692 426,2692 426,2655"/>
        <polygon points="188,2725 350,2725 350,2766 188,2766 188,2725"/>
        <polygon points="533,2720 707,2720 707,2775 533,2775 533,2720"/>
        <polygon points="522,2748 595,2748 595,2776 522,2776 522,2748"/>
        <polygon points="1638,2755 1669,2755 1669,2793 1638,2793 1638,2755"/>
        <polygon points="1940,2856 1975,2856 1975,2926 1940,2926 1940,2856"/>
        <polygon points="1978,3216 2004,3216 2004,3231 1978,3231 1978,3216"/>
        <polygon points="1143,3345 1183,3345 1183,3375 1143,3375 1143,3345"/>
    </svg>
    <svg contentScriptType="text/ecmascript" xmlns:xlink="http://www.w3.org/1999/xlink" zoomAndPan="magnify" class="TextArea" contentStyleType="text/css" preserveAspectRatio="xMidYMid meet" xmlns="http://www.w3.org/2000/svg" version="1.0">
        <polygon points="189,144 189,152 206,152 206,144 189,144"/>
        <polygon points="586,371 64,372 64,449 564,522 800,522 1070,520 1070,438 1031,372 1008,371 586,371"/>
        <polygon points="1199,367 1182,407 1182,447 1187,520 1542,520 1655,486 1655,447 1587,367 1199,367"/>
        <polygon points="1754,369 1734,440 1734,518 1758,555 2234,555 2275,482 2275,440 2258,369 1754,369"/>
        <polygon points="47,412 47,448 192,448 192,412 47,412"/>
        <polygon points="59,1100 48,1145 48,1180 58,1233 422,1233 1086,1181 1086,1100 59,1100"/>
        <polygon points="598,1107 598,1148 1155,1148 1155,1107 598,1107"/>
        <polygon points="1272,1108 1255,1141 1248,1171 1248,1214 1635,1214 1811,1180 1811,1141 1627,1108 1272,1108"/>
        <polygon points="1768,1097 1760,1179 1760,1217 2153,1217 2277,1180 2277,1144 2239,1097 1768,1097"/>
        <polygon points="593,1180 593,1294 1555,1294 1555,1180 593,1180"/>
        <polygon points="585,1216 585,1254 586,1294 921,1384 1187,1384 1210,1329 1210,1303 962,1257 679,1216 585,1216"/>
        <polygon points="1328,1842 1282,1878 1282,1914 1300,1952 1563,1952 1614,1914 1614,1878 1586,1842 1328,1842"/>
        <polygon points="53,1844 51,1880 51,1921 53,1957 582,1957 723,1921 723,1880 563,1844 53,1844"/>
        <polygon points="1954,1865 1954,1914 2160,1914 2160,1865 1954,1865"/>
        <polygon points="912,1934 912,1974 1165,1974 1165,1934 912,1934"/>
        <polygon points="1097,1991 1097,2008 1138,2008 1138,1991 1097,1991"/>
        <polygon points="1365,2021 1365,2060 1536,2060 1536,2021 1365,2021"/>
        <polygon points="1398,2575 1398,2611 1407,2649 1762,2649 1802,2611 1802,2575 1398,2575"/>
        <polygon points="459,2578 406,2618 406,2657 426,2692 522,2776 595,2776 707,2775 1015,2692 1041,2622 1041,2578 459,2578"/>
        <polygon points="95,2617 95,2655 250,2655 250,2617 95,2617"/>
        <polygon points="188,2725 188,2766 350,2766 350,2725 188,2725"/>
        <polygon points="1638,2755 1638,2793 1669,2793 1669,2755 1638,2755"/>
        <polygon points="1940,2856 1940,2926 1975,2926 1975,2856 1940,2856"/>
        <polygon points="1978,3216 1978,3231 2004,3231 2004,3216 1978,3216"/>
        <polygon points="1143,3345 1143,3375 1183,3375 1183,3345 1143,3345"/>
    </svg>
    <svg contentScriptType="text/ecmascript" xmlns:xlink="http://www.w3.org/1999/xlink" zoomAndPan="magnify" class="Balloon" contentStyleType="text/css" preserveAspectRatio="xMidYMid meet" xmlns="http://www.w3.org/2000/svg" version="1.0">
        <polygon points="184,146 184,150 187,157 196,157 202,137 192,139 184,146"/>
        <polygon points="584,366 576,366 568,366 560,366 552,366 542,366 532,366 524,366 516,366 508,366 500,366 492,366 484,366 476,365 465,366 455,366 445,366 435,366 425,366 417,366 409,366 401,366 393,366 385,366 377,366 369,366 361,366 353,366 345,366 337,366 329,366 321,366 313,366 305,366 297,366 289,366 281,366 273,366 265,366 257,366 249,366 241,366 233,366 225,366 217,366 209,366 201,366 193,366 185,366 177,366 169,366 161,366 153,366 145,366 137,366 129,366 121,366 113,366 105,366 97,366 89,366 81,367 73,367 65,367 59,375 57,387 57,398 57,409 57,420 58,430 58,439 59,449 64,457 71,460 78,463 86,466 93,469 100,472 107,475 114,478 121,482 128,486 136,487 143,488 151,488 159,488 167,488 175,488 183,488 191,488 199,488 207,488 215,488 223,488 231,488 239,488 247,488 255,488 263,488 271,488 279,488 287,488 295,488 302,489 309,490 317,492 325,493 333,494 343,498 351,502 360,505 368,507 378,508 386,509 394,509 400,509 408,509 413,509 421,509 429,511 437,513 445,514 453,515 461,516 469,517 477,518 487,519 496,519 503,519 509,520 517,521 523,522 529,522 536,523 541,524 546,526 551,527 556,528 561,529 566,530 571,531 576,532 581,533 586,534 591,535 596,537 601,539 607,541 612,542 617,543 623,544 630,545 637,547 644,549 652,550 660,551 668,552 676,553 684,554 692,555 700,556 708,556 716,556 724,556 732,556 740,556 748,556 756,556 764,556 772,556 780,556 788,556 796,556 804,556 812,556 820,556 828,556 836,556 844,555 852,555 860,554 868,554 876,554 884,553 892,552 900,551 908,551 916,550 924,549 932,548 940,547 948,546 956,545 964,544 972,543 980,542 988,540 996,539 1004,538 1012,536 1020,535 1028,533 1036,531 1044,529 1052,527 1060,526 1068,525 1075,522 1082,518 1086,511 1088,504 1090,497 1091,489 1092,481 1093,473 1094,465 1094,457 1094,449 1093,441 1091,433 1089,425 1087,418 1086,410 1084,402 1082,394 1079,387 1075,380 1071,373 1064,369 1056,368 1048,367 1040,366 1032,366 1024,366 1016,366 1008,366 1000,366 992,366 984,366 976,366 968,366 960,366 952,366 944,366 936,366 928,366 920,366 912,366 904,366 896,366 888,366 880,366 872,366 864,366 856,366 848,366 840,366 832,366 824,366 816,366 808,366 800,366 792,366 784,366 776,366 768,366 760,366 752,366 744,366 736,366 728,366 720,366 712,366 704,366 696,366 688,366 680,366 672,366 664,366 656,366 648,366 640,366 632,366 624,366 616,366 608,366 600,366 592,366 584,366"/>
        <polygon points="1190,373 1187,378 1184,384 1181,390 1177,395 1177,402 1177,408 1176,414 1175,420 1175,426 1176,432 1175,438 1175,445 1176,451 1177,457 1176,463 1176,469 1176,475 1177,481 1177,487 1176,493 1176,499 1176,505 1177,511 1177,517 1182,522 1188,525 1194,526 1200,527 1206,528 1212,529 1218,530 1224,531 1230,533 1236,534 1242,536 1248,538 1254,538 1260,538 1267,539 1274,540 1280,541 1286,542 1293,542 1300,542 1307,542 1314,542 1321,542 1328,542 1335,542 1342,542 1349,542 1356,542 1363,542 1370,542 1377,542 1384,542 1391,542 1398,542 1405,541 1412,541 1419,541 1426,541 1433,540 1440,540 1447,539 1454,539 1461,539 1468,539 1475,539 1482,538 1489,538 1496,538 1503,538 1510,538 1517,537 1524,537 1531,537 1538,537 1545,536 1552,536 1559,535 1566,534 1573,534 1580,533 1587,532 1594,531 1601,530 1608,528 1615,526 1621,524 1627,521 1633,518 1639,515 1643,510 1647,505 1652,501 1655,496 1658,490 1660,483 1661,476 1662,469 1663,462 1663,455 1663,448 1658,441 1653,435 1648,430 1644,425 1640,421 1636,416 1633,411 1629,406 1625,401 1621,396 1617,391 1613,386 1609,382 1604,377 1599,372 1593,366 1587,362 1581,362 1575,362 1569,362 1563,362 1557,362 1551,362 1545,362 1539,362 1533,362 1527,362 1521,362 1515,362 1509,362 1503,362 1497,362 1491,362 1485,362 1479,362 1473,362 1467,362 1461,362 1455,362 1449,362 1443,362 1437,362 1431,362 1425,362 1419,362 1413,362 1407,362 1401,362 1395,362 1389,362 1383,362 1377,362 1371,362 1365,362 1359,362 1353,362 1347,362 1341,362 1335,362 1329,362 1322,362 1315,362 1308,362 1301,362 1294,362 1287,362 1280,362 1273,362 1266,362 1259,362 1252,362 1245,362 1238,362 1231,362 1224,362 1217,362 1210,362 1203,362 1196,363 1193,368 1190,373"/>
        <polygon points="1760,364 1752,364 1748,371 1746,378 1744,385 1742,392 1740,399 1738,406 1736,413 1733,420 1731,427 1729,434 1727,441 1726,448 1725,455 1725,463 1725,471 1725,479 1726,487 1727,495 1727,503 1728,511 1729,519 1730,527 1732,535 1736,542 1741,546 1746,550 1752,555 1758,560 1765,561 1772,562 1779,563 1786,565 1793,567 1800,569 1807,571 1814,572 1821,573 1828,575 1835,576 1842,577 1849,578 1856,579 1863,580 1870,582 1878,583 1886,584 1894,584 1902,584 1910,584 1918,584 1926,584 1934,584 1942,584 1950,584 1958,584 1966,584 1974,583 1982,583 1990,583 1998,583 2006,583 2014,583 2022,583 2030,582 2038,582 2045,582 2052,582 2059,581 2067,581 2075,581 2083,580 2091,580 2099,579 2107,579 2115,579 2123,578 2131,578 2139,577 2147,576 2155,576 2163,576 2171,575 2179,574 2187,573 2195,573 2203,571 2211,570 2218,566 2225,563 2232,560 2239,557 2246,553 2253,550 2259,546 2262,540 2265,534 2266,527 2268,520 2270,512 2272,504 2275,497 2278,490 2280,483 2280,476 2280,468 2281,460 2280,452 2280,440 2279,429 2278,421 2278,413 2275,405 2273,397 2271,389 2269,381 2266,374 2263,367 2257,364 2250,364 2243,364 2236,364 2229,364 2222,364 2215,364 2208,364 2200,364 2192,364 2184,364 2176,364 2168,364 2160,364 2152,364 2144,364 2136,364 2128,364 2120,364 2112,364 2104,364 2096,364 2088,364 2080,364 2072,364 2064,364 2056,364 2048,364 2040,364 2032,364 2024,364 2016,364 2008,364 2000,364 1992,364 1984,364 1976,364 1968,364 1960,364 1952,364 1944,364 1936,364 1928,364 1920,364 1912,364 1904,364 1896,364 1888,364 1880,364 1872,364 1864,364 1856,364 1848,364 1840,364 1832,364 1824,364 1816,364 1808,364 1800,364 1792,364 1784,364 1776,364 1768,364 1760,364"/>
        <polygon points="48,407 42,412 42,422 42,432 42,442 44,452 53,455 62,458 71,461 80,464 90,464 101,465 111,465 121,466 131,467 141,468 151,468 161,465 171,461 181,458 190,453 197,443 200,432 202,409 198,400 188,400 178,400 168,400 158,400 148,400 138,400 128,400 118,400 108,400 98,400 88,401 78,404 68,406 61,406 51,407 48,407"/>
        <polygon points="135,1095 129,1095 123,1095 117,1095 111,1095 105,1095 99,1095 93,1095 87,1095 81,1095 75,1095 69,1095 63,1095 56,1096 49,1097 43,1099 42,1106 42,1113 42,1120 41,1127 40,1134 40,1141 41,1148 41,1155 41,1162 42,1169 42,1176 42,1183 42,1190 42,1197 42,1204 42,1211 45,1218 48,1224 51,1230 54,1236 60,1240 66,1244 71,1249 78,1252 84,1255 90,1257 97,1259 105,1260 112,1261 120,1262 128,1263 135,1264 143,1264 150,1265 157,1265 164,1266 172,1266 179,1267 186,1268 194,1268 201,1269 208,1270 215,1269 222,1270 229,1271 236,1270 243,1271 250,1270 257,1271 264,1270 271,1271 278,1270 285,1270 291,1271 298,1272 305,1271 312,1272 319,1271 326,1270 333,1271 340,1270 347,1271 354,1270 361,1271 368,1270 375,1269 381,1269 387,1268 394,1267 401,1266 408,1265 414,1264 422,1263 429,1262 433,1260 437,1258 444,1257 451,1256 457,1254 464,1253 470,1251 476,1248 482,1246 489,1244 495,1242 501,1240 507,1238 513,1236 519,1234 525,1232 531,1230 537,1230 543,1230 550,1229 557,1228 557,1228 557,1228 557,1228 557,1228 557,1228 557,1228 559,1228 561,1228 563,1230 564,1232 564,1235 564,1237 564,1239 564,1240 564,1242 564,1244 565,1246 565,1248 566,1250 567,1252 567,1254 567,1256 570,1258 573,1260 576,1262 579,1265 582,1268 585,1271 589,1274 595,1277 602,1280 609,1282 616,1283 635,1109 636,1102 637,1095 641,1095 645,1095 651,1095 657,1095 663,1095 669,1095 675,1095 681,1095 688,1094 695,1095 702,1094 709,1095 716,1094 723,1095 730,1094 737,1095 744,1094 751,1095 758,1094 765,1095 772,1094 779,1095 786,1094 793,1095 800,1094 807,1095 814,1094 821,1095 828,1094 835,1095 842,1094 849,1095 856,1094 863,1095 870,1094 877,1095 884,1095 890,1094 896,1094 902,1094 908,1094 914,1094 920,1094 926,1094 932,1094 938,1094 944,1094 950,1094 956,1094 962,1094 968,1094 974,1094 980,1094 986,1094 992,1094 998,1094 1004,1094 1010,1094 1016,1094 1022,1094 1028,1094 1034,1094 1040,1094 1046,1094 1052,1094 1058,1094 1064,1094 1070,1094 1076,1094 1082,1094 1088,1094 1091,1100 1091,1107 1091,1100 1078,1094 1068,1094 1060,1094 1052,1094 1044,1094 1036,1094 1028,1094 1020,1094 1012,1094 1004,1094 996,1094 988,1094 980,1094 972,1094 964,1094 956,1094 948,1094 940,1094 932,1094 924,1094 916,1094 908,1094 900,1094 892,1094 884,1094 876,1094 868,1094 860,1094 852,1094 844,1094 836,1094 828,1094 820,1094 812,1094 804,1094 796,1094 788,1094 780,1094 772,1094 764,1094 756,1094 748,1094 740,1094 732,1094 724,1094 716,1094 708,1094 700,1094 692,1094 684,1094 676,1094 668,1094 660,1094 652,1094 644,1094 636,1094 628,1094 620,1094 612,1094 604,1094 596,1094 589,1095 581,1095 573,1095 565,1095 557,1095 549,1095 541,1095 533,1095 525,1095 517,1095 509,1095 501,1095 493,1095 485,1095 477,1095 469,1095 461,1095 453,1095 445,1095 437,1095 429,1095 421,1095 413,1095 405,1095 397,1095 389,1095 381,1095 373,1095 366,1094 359,1095 353,1095 347,1095 341,1095 335,1095 329,1095 323,1095 319,1095 315,1095 309,1095 303,1095 297,1095 291,1095 285,1095 279,1095 273,1095 267,1095 261,1095 255,1095 249,1095 243,1095 237,1095 231,1095 225,1095 219,1095 213,1095 207,1095 201,1095 195,1095 189,1095 183,1095 177,1095 171,1095 165,1095 159,1095 153,1095 147,1095 141,1095 135,1095"/>
        <polygon points="708,1091 702,1091 696,1092 690,1094 684,1094 679,1090 684,1094 690,1094 696,1094 702,1094 708,1094 715,1093 722,1094 730,1094 738,1094 746,1094 754,1094 762,1094 770,1094 778,1094 786,1094 794,1094 800,1094 807,1093 814,1094 822,1094 830,1094 838,1094 846,1094 854,1094 862,1094 870,1094 878,1094 885,1095 892,1094 898,1094 904,1094 910,1094 916,1094 922,1094 928,1094 934,1094 940,1094 946,1094 952,1094 958,1094 964,1094 970,1094 976,1094 982,1094 988,1094 994,1094 1000,1094 1007,1093 1014,1094 1021,1093 1028,1094 1035,1093 1042,1094 1049,1093 1056,1094 1063,1093 1070,1094 1077,1093 1084,1094 1091,1093 1098,1094 1105,1094 1111,1094 1117,1094 1123,1093 1129,1093 1135,1093 1129,1093 1122,1092 1115,1093 1108,1092 1101,1093 1094,1092 1087,1093 1080,1092 1073,1093 1066,1092 1059,1092 1051,1092 1043,1092 1037,1093 1031,1093 1025,1093 1019,1093 1013,1093 1007,1093 1001,1093 995,1093 989,1093 983,1093 977,1093 971,1093 965,1093 958,1094 951,1093 944,1094 937,1093 930,1094 923,1093 916,1094 909,1093 902,1094 895,1093 888,1094 881,1093 874,1094 867,1093 860,1094 853,1093 846,1094 840,1094 834,1094 828,1094 822,1094 816,1094 810,1094 804,1094 798,1094 792,1094 786,1094 780,1094 774,1094 768,1094 762,1094 756,1094 750,1094 744,1094 738,1094 732,1094 726,1094 720,1093 714,1091 708,1091"/>
        <polygon points="1262,1106 1257,1115 1253,1121 1248,1126 1243,1131 1243,1135 1243,1138 1243,1140 1242,1142 1242,1144 1242,1148 1242,1152 1242,1156 1242,1160 1242,1164 1242,1167 1242,1171 1243,1175 1243,1181 1243,1188 1243,1195 1243,1202 1243,1209 1248,1218 1255,1219 1262,1219 1269,1219 1276,1219 1336,1326 1343,1326 1348,1325 1354,1323 1360,1321 1367,1320 1373,1317 1377,1312 1383,1308 1389,1305 1395,1303 1400,1300 1407,1298 1413,1296 1420,1294 1427,1292 1434,1290 1441,1289 1448,1289 1454,1288 1460,1286 1467,1285 1474,1284 1481,1282 1488,1280 1494,1278 1500,1276 1506,1274 1512,1271 1518,1268 1523,1263 1528,1258 1530,1255 1533,1253 1537,1252 1541,1251 1547,1250 1553,1248 1559,1246 1561,1243 1566,1242 1574,1243 1580,1243 1590,1243 1592,1243 1595,1244 1597,1244 1603,1245 1610,1245 1619,1245 1626,1245 1631,1242 1636,1239 1641,1236 1647,1233 1653,1230 1659,1227 1665,1224 1671,1221 1677,1218 1683,1215 1685,1212 1688,1210 1692,1209 1696,1209 1700,1210 1704,1211 1710,1212 1716,1213 1722,1215 1729,1217 1736,1218 1743,1219 1750,1220 1757,1221 1764,1222 1771,1223 1778,1223 1785,1221 1792,1219 1798,1216 1804,1213 1810,1209 1816,1205 1842,1129 1836,1126 1830,1124 1824,1121 1818,1118 1811,1118 1804,1118 1797,1118 1790,1118 1783,1118 1776,1118 1769,1118 1762,1118 1755,1118 1748,1118 1741,1118 1734,1118 1729,1118 1723,1118 1720,1118 1715,1117 1709,1116 1705,1116 1700,1114 1694,1113 1688,1111 1681,1110 1674,1109 1674,1109 1674,1109 1674,1109 1674,1109 1674,1109 1674,1109 1674,1109 1672,1109 1672,1109 1670,1110 1668,1110 1665,1109 1663,1108 1662,1106 1661,1104 1654,1103 1647,1103 1640,1103 1633,1103 1626,1103 1619,1103 1612,1103 1605,1103 1598,1103 1591,1103 1584,1103 1577,1103 1570,1103 1563,1103 1556,1103 1549,1103 1542,1103 1535,1103 1528,1103 1521,1103 1514,1103 1507,1103 1500,1103 1493,1103 1486,1103 1479,1103 1472,1103 1465,1103 1458,1103 1451,1103 1444,1103 1437,1103 1430,1103 1423,1103 1416,1103 1409,1103 1402,1103 1395,1103 1388,1103 1381,1103 1374,1103 1367,1103 1360,1103 1353,1103 1346,1103 1339,1103 1332,1103 1325,1103 1318,1103 1311,1103 1304,1103 1297,1103 1290,1103 1283,1103 1276,1103 1269,1104 1262,1106"/>
        <polygon points="1794,1091 1787,1090 1780,1091 1773,1090 1766,1091 1762,1100 1758,1107 1754,1114 1751,1121 1748,1129 1745,1139 1743,1149 1742,1160 1741,1172 1741,1181 1741,1189 1743,1196 1745,1203 1747,1209 1749,1215 1751,1219 1753,1221 1755,1224 1758,1225 1761,1225 1764,1226 1768,1227 1772,1228 1776,1230 1780,1233 1786,1234 1793,1235 1800,1236 1807,1237 1814,1238 1821,1239 1828,1240 1835,1241 1842,1243 1851,1244 1859,1244 1867,1244 1875,1244 1883,1244 1891,1244 1899,1244 1907,1244 1915,1244 1923,1244 1931,1244 1939,1244 1947,1244 1955,1244 1963,1244 1971,1244 1979,1244 1987,1244 1995,1244 2003,1244 2011,1244 2019,1244 2027,1244 2035,1244 2043,1244 2050,1244 2057,1244 2064,1244 2072,1244 2079,1243 2086,1242 2093,1241 2100,1240 2107,1239 2114,1238 2121,1237 2128,1236 2135,1235 2142,1234 2149,1233 2156,1232 2163,1231 2170,1230 2177,1229 2184,1228 2191,1227 2198,1226 2205,1225 2212,1224 2219,1223 2226,1221 2233,1219 2240,1217 2247,1215 2252,1209 2257,1203 2262,1198 2268,1194 2273,1190 2278,1185 2282,1179 2282,1169 2282,1159 2282,1150 2281,1140 2281,1132 2276,1125 2271,1119 2267,1113 2259,1107 2252,1101 2245,1096 2238,1092 2231,1089 2225,1089 2219,1089 2213,1089 2207,1089 2201,1089 2195,1089 2187,1089 2179,1089 2171,1089 2163,1089 2156,1090 2149,1089 2141,1089 2134,1090 2127,1089 2121,1089 2115,1089 2109,1090 2101,1090 2093,1090 2087,1090 2081,1090 2075,1090 2069,1090 2063,1090 2057,1090 2051,1090 2045,1090 2039,1090 2033,1090 2027,1090 2021,1090 2015,1090 2009,1090 2003,1090 1997,1090 1989,1090 1981,1090 1973,1090 1965,1090 1957,1090 1949,1090 1941,1090 1933,1090 1925,1090 1917,1090 1910,1091 1903,1090 1897,1090 1891,1090 1885,1090 1879,1090 1871,1090 1864,1091 1857,1090 1850,1091 1843,1090 1836,1091 1829,1090 1822,1091 1815,1090 1808,1091 1801,1090 1794,1091"/>
        <polygon points="588,1182 586,1187 585,1194 584,1200 582,1206 581,1211 579,1217 577,1223 577,1228 578,1234 579,1241 580,1248 580,1256 581,1264 583,1272 585,1280 587,1287 588,1295 595,1299 602,1301 609,1303 616,1305 623,1307 631,1309 638,1312 645,1315 652,1319 659,1321 666,1323 674,1326 682,1327 690,1328 699,1331 707,1333 714,1336 721,1340 731,1346 743,1351 753,1356 761,1359 769,1360 777,1361 785,1362 793,1363 801,1363 810,1361 820,1363 831,1365 841,1368 851,1371 861,1374 871,1376 880,1378 889,1381 897,1383 905,1385 914,1387 923,1388 931,1388 939,1388 947,1388 955,1388 963,1388 971,1387 979,1387 987,1387 995,1387 1003,1384 1011,1381 1019,1379 1027,1378 1035,1378 1043,1378 1051,1378 1059,1377 1067,1377 1075,1377 1083,1376 1091,1376 1099,1375 1107,1375 1115,1374 1123,1371 1130,1368 1137,1365 1144,1362 1151,1359 1158,1356 1164,1351 1170,1346 1175,1343 1180,1340 1182,1336 1185,1332 1188,1328 1192,1324 1197,1320 1203,1315 1209,1310 1215,1305 1220,1302 1229,1301 1237,1301 1243,1302 1250,1304 1257,1307 1266,1310 1274,1312 1282,1314 1289,1317 1302,1320 1309,1320 1317,1320 1324,1319 1332,1318 1339,1317 1346,1316 1353,1315 1360,1314 1367,1312 1374,1310 1381,1308 1388,1305 1395,1303 1402,1300 1409,1300 1420,1299 1429,1299 1439,1299 1445,1299 1451,1299 1458,1300 1466,1301 1474,1302 1483,1302 1491,1301 1499,1300 1507,1300 1515,1300 1521,1299 1532,1300 1541,1300 1549,1300 1557,1300 1560,1294 1560,1289 1560,1282 1560,1277 1560,1271 1560,1264 1560,1256 1560,1248 1560,1245 1561,1243 1561,1240 1561,1237 1561,1234 1561,1231 1561,1227 1560,1221 1560,1213 1552,1208 1544,1203 1536,1198 1528,1189 1520,1175 1509,1161 1499,1148 1489,1137 1480,1130 1473,1125 1466,1122 1458,1122 1450,1122 1442,1122 1434,1122 1426,1122 1418,1122 1410,1123 1402,1123 1394,1123 1386,1123 1378,1123 1370,1123 1362,1123 1354,1123 1346,1123 1338,1123 1330,1123 1322,1123 1314,1126 1306,1128 1298,1131 1291,1135 1284,1139 1279,1144 1274,1149 1269,1154 1263,1159 1257,1162 1251,1165 1244,1168 1239,1168 1234,1169 1227,1170 1220,1172 1216,1170 1210,1167 1203,1163 1197,1158 1191,1153 1184,1148 1176,1143 1169,1138 1163,1133 1155,1129 1147,1127 1139,1126 1131,1127 1123,1127 1115,1127 1107,1127 1099,1127 1091,1127 1083,1127 1075,1127 1067,1127 1059,1127 1051,1127 1043,1127 1035,1127 1027,1127 1019,1127 1011,1127 1003,1127 995,1127 987,1127 979,1127 971,1127 963,1127 955,1127 947,1127 939,1127 931,1127 923,1127 915,1127 907,1127 899,1127 891,1127 883,1128 875,1128 866,1128 858,1128 850,1128 842,1128 834,1128 826,1128 818,1128 810,1128 802,1128 794,1128 786,1128 778,1128 770,1128 762,1128 754,1128 746,1128 738,1128 730,1128 722,1128 714,1128 706,1128 698,1128 690,1128 682,1128 674,1128 666,1129 658,1131 651,1134 644,1138 637,1142 630,1146 623,1150 617,1155 612,1161 607,1169 602,1175 594,1175 588,1182"/>
        <polygon points="580,1217 576,1221 576,1226 576,1231 576,1236 576,1242 576,1249 576,1256 575,1263 573,1270 571,1277 571,1281 572,1284 574,1289 577,1295 580,1299 584,1301 588,1303 592,1305 597,1307 602,1309 609,1310 616,1312 623,1314 631,1315 638,1317 645,1318 652,1319 659,1320 665,1321 671,1322 678,1324 684,1326 690,1328 696,1329 703,1331 711,1335 718,1338 725,1341 732,1344 739,1348 744,1350 749,1352 753,1353 757,1353 762,1354 767,1355 773,1357 779,1360 784,1360 789,1360 794,1360 799,1360 805,1361 809,1361 812,1361 817,1362 822,1363 826,1364 830,1365 834,1366 841,1368 849,1370 856,1372 863,1374 870,1376 876,1378 882,1379 889,1381 897,1383 908,1386 918,1389 926,1391 934,1394 942,1396 950,1398 960,1397 970,1396 979,1396 987,1396 996,1396 1004,1396 1012,1396 1020,1396 1028,1395 1036,1395 1044,1395 1052,1395 1060,1394 1068,1394 1076,1394 1084,1393 1092,1393 1100,1392 1108,1392 1116,1391 1124,1391 1132,1391 1140,1390 1148,1389 1156,1389 1164,1389 1172,1389 1180,1389 1188,1389 1193,1383 1197,1377 1200,1370 1203,1363 1206,1356 1209,1349 1212,1342 1215,1335 1216,1328 1216,1321 1215,1315 1215,1308 1215,1300 1207,1297 1200,1295 1193,1293 1186,1291 1178,1290 1170,1289 1162,1288 1153,1286 1145,1284 1137,1283 1129,1282 1121,1281 1113,1279 1104,1277 1096,1276 1088,1275 1078,1274 1068,1272 1059,1270 1050,1268 1040,1267 1030,1265 1019,1262 1009,1261 998,1259 988,1257 978,1255 967,1253 955,1251 942,1249 930,1247 921,1246 912,1245 904,1244 896,1242 888,1241 881,1240 874,1239 867,1238 860,1237 853,1236 846,1235 839,1234 832,1233 825,1232 818,1231 811,1230 804,1229 764,1168 761,1175 758,1182 755,1191 752,1200 750,1210 748,1221 741,1220 734,1219 727,1218 719,1217 711,1215 703,1214 695,1213 688,1212 681,1212 674,1211 667,1211 660,1211 653,1211 647,1211 641,1211 635,1211 630,1211 624,1211 619,1211 612,1211 605,1211 598,1211 592,1211 585,1211 580,1217"/>
        <polygon points="1330,1837 1322,1839 1314,1841 1306,1843 1298,1846 1294,1851 1290,1857 1286,1863 1282,1869 1278,1875 1277,1884 1277,1892 1277,1900 1277,1908 1277,1916 1278,1924 1280,1932 1282,1940 1285,1948 1292,1953 1299,1958 1305,1964 1313,1967 1321,1969 1329,1971 1337,1973 1345,1975 1353,1977 1361,1979 1369,1982 1377,1985 1385,1987 1393,1990 1401,1993 1410,1995 1471,1997 1478,1994 1482,1992 1486,1990 1491,1989 1494,1987 1498,1985 1505,1983 1511,1981 1517,1979 1525,1976 1533,1973 1541,1970 1549,1967 1557,1964 1565,1961 1572,1957 1578,1952 1584,1947 1591,1942 1598,1937 1605,1932 1611,1926 1617,1919 1622,1912 1624,1904 1624,1896 1623,1888 1621,1881 1618,1873 1614,1866 1610,1859 1605,1852 1599,1847 1593,1842 1586,1837 1578,1837 1570,1837 1562,1837 1554,1837 1546,1837 1538,1837 1530,1837 1522,1837 1514,1837 1506,1837 1498,1837 1490,1837 1482,1837 1474,1837 1466,1837 1458,1837 1450,1837 1442,1837 1434,1837 1426,1837 1418,1837 1410,1837 1402,1837 1394,1837 1386,1837 1378,1837 1370,1837 1362,1837 1354,1837 1346,1837 1338,1837 1330,1837"/>
        <polygon points="47,1847 44,1855 43,1863 43,1871 43,1879 44,1887 44,1895 44,1903 44,1911 44,1919 44,1927 44,1935 45,1943 45,1951 48,1958 55,1962 62,1965 69,1968 77,1970 85,1972 93,1974 101,1975 109,1976 117,1977 125,1978 133,1979 141,1979 149,1980 157,1981 165,1982 173,1982 181,1982 189,1982 197,1982 205,1982 213,1983 221,1983 229,1983 237,1983 245,1983 253,1983 261,1983 269,1983 277,1983 285,1983 293,1983 301,1983 309,1983 317,1983 325,1983 333,1983 341,1983 349,1983 357,1983 365,1983 373,1983 381,1984 389,1984 397,1984 405,1984 413,1984 421,1984 429,1984 437,1984 445,1984 453,1984 461,1984 469,1984 477,1984 485,1984 493,1984 501,1984 509,1984 517,1984 525,1984 533,1984 541,1984 549,1984 557,1984 565,1984 573,1984 581,1983 589,1982 597,1981 605,1980 613,1979 621,1978 629,1977 637,1976 645,1974 653,1972 661,1970 668,1967 675,1964 682,1961 689,1958 696,1955 703,1952 710,1948 715,1941 720,1935 724,1928 728,1921 728,1913 729,1905 729,1897 730,1889 728,1881 726,1874 724,1867 720,1860 712,1856 704,1852 696,1849 689,1846 681,1844 673,1842 665,1840 657,1838 650,1834 641,1834 633,1834 625,1834 617,1834 609,1834 601,1834 593,1834 585,1834 577,1834 569,1834 561,1834 553,1834 545,1834 537,1834 529,1834 521,1834 513,1834 505,1834 498,1835 490,1835 482,1835 474,1835 466,1835 458,1835 450,1835 442,1835 434,1835 426,1835 418,1835 410,1835 402,1835 394,1835 386,1835 378,1835 370,1835 362,1835 354,1835 346,1835 338,1835 330,1835 322,1835 314,1835 306,1835 298,1835 290,1835 282,1835 274,1835 266,1835 258,1835 250,1835 242,1835 234,1835 225,1836 217,1836 209,1836 201,1836 193,1836 185,1836 177,1836 169,1836 161,1836 153,1836 145,1836 137,1836 129,1836 121,1836 113,1836 105,1836 97,1836 88,1837 78,1837 70,1837 62,1837 54,1837 47,1847"/>
        <polygon points="1949,1864 1944,1870 1943,1878 1942,1885 1941,1892 1941,1899 1940,1906 1944,1912 1948,1918 1953,1924 1958,1930 1965,1934 1972,1937 1979,1940 1987,1941 1994,1942 2001,1943 2008,1944 2015,1946 2022,1948 2029,1948 2036,1948 2043,1948 2050,1948 2057,1948 2064,1947 2071,1946 2078,1945 2085,1944 2092,1943 2099,1942 2106,1941 2113,1940 2120,1939 2127,1937 2134,1935 2141,1933 2147,1930 2153,1927 2159,1923 2165,1919 2168,1912 2171,1905 2173,1898 2174,1891 2174,1884 2174,1877 2172,1870 2170,1863 2164,1858 2158,1855 2151,1853 2144,1852 2136,1851 2129,1851 2122,1851 2114,1850 2107,1850 2100,1850 2093,1850 2086,1850 2079,1850 2072,1850 2065,1849 2058,1849 2051,1849 2044,1849 2037,1849 2030,1849 2023,1849 2016,1849 2009,1849 2002,1849 1995,1849 1988,1850 1981,1851 1974,1852 1967,1853 1960,1854 1954,1859 1949,1864"/>
        <polygon points="907,1937 906,1946 905,1955 906,1964 907,1973 914,1979 922,1982 930,1985 938,1985 946,1986 954,1987 962,1988 970,1990 978,1992 986,1993 994,1993 1002,1994 1010,1994 1018,1994 1026,1994 1035,1993 1044,1992 1051,1991 1059,1990 1068,1989 1074,1987 1081,1985 1089,1983 1099,1981 1109,1980 1121,1980 1129,1980 1138,1980 1146,1979 1155,1979 1164,1979 1170,1967 1171,1956 1172,1946 1170,1937 1166,1929 1158,1929 1150,1929 1142,1928 1133,1928 1125,1928 1117,1928 1109,1927 1101,1926 1095,1926 1089,1926 1084,1926 1078,1925 1069,1922 1061,1919 1053,1916 1043,1913 1030,1910 1021,1907 1013,1906 1004,1905 995,1906 986,1906 977,1906 967,1907 958,1909 950,1912 941,1915 933,1918 926,1922 918,1925 912,1929 907,1937"/>
        <polygon points="1090,1991 1091,2001 1093,2011 1100,2013 1109,2013 1117,2014 1127,2015 1137,2013 1144,2005 1145,1994 1138,1986 1128,1986 1110,1986 1099,1986 1090,1991"/>
        <polygon points="1360,2027 1358,2035 1357,2042 1356,2049 1355,2056 1359,2062 1363,2067 1370,2069 1377,2071 1384,2072 1391,2073 1398,2074 1405,2075 1412,2076 1420,2077 1428,2078 1436,2079 1444,2080 1452,2080 1460,2080 1467,2080 1474,2080 1482,2080 1489,2079 1496,2078 1503,2077 1510,2076 1517,2075 1524,2074 1530,2069 1536,2065 1541,2058 1542,2051 1543,2044 1544,2037 1546,2030 1543,2024 1540,2018 1534,2015 1528,2011 1522,2008 1515,2007 1508,2006 1501,2005 1494,2005 1486,2006 1478,2007 1471,2008 1462,2009 1452,2009 1442,2009 1434,2009 1427,2009 1420,2009 1414,2009 1407,2009 1401,2009 1394,2009 1387,2010 1380,2012 1373,2014 1366,2016 1360,2027"/>
        <polygon points="1391,2572 1391,2579 1391,2585 1391,2591 1390,2597 1389,2603 1388,2609 1387,2615 1386,2621 1385,2627 1388,2633 1390,2639 1393,2645 1397,2650 1403,2652 1410,2654 1417,2655 1424,2655 1430,2656 1437,2657 1444,2658 1451,2659 1458,2660 1465,2661 1472,2661 1479,2661 1486,2661 1493,2661 1500,2661 1507,2661 1514,2661 1521,2661 1527,2661 1534,2661 1540,2661 1546,2662 1552,2662 1558,2662 1564,2662 1570,2662 1576,2662 1582,2662 1588,2662 1594,2662 1600,2662 1606,2662 1612,2662 1618,2662 1624,2662 1630,2662 1636,2662 1642,2662 1648,2662 1654,2662 1660,2662 1666,2662 1672,2662 1678,2662 1684,2662 1690,2662 1696,2662 1702,2662 1708,2662 1714,2662 1720,2662 1726,2662 1732,2661 1738,2660 1744,2659 1750,2658 1756,2656 1762,2654 1768,2651 1774,2648 1780,2645 1786,2642 1792,2639 1797,2635 1802,2631 1807,2627 1809,2618 1810,2608 1811,2598 1811,2589 1809,2582 1807,2575 1799,2570 1792,2570 1785,2570 1778,2570 1771,2570 1764,2570 1757,2570 1750,2570 1743,2570 1736,2570 1729,2570 1722,2570 1715,2570 1708,2570 1701,2570 1694,2570 1687,2570 1680,2570 1673,2570 1666,2570 1659,2570 1652,2570 1645,2570 1638,2570 1631,2570 1625,2570 1620,2570 1613,2570 1607,2570 1601,2570 1595,2570 1589,2570 1583,2570 1577,2570 1571,2570 1565,2570 1559,2570 1553,2570 1547,2570 1541,2570 1535,2570 1529,2570 1523,2570 1517,2570 1511,2570 1505,2570 1499,2570 1493,2570 1487,2570 1481,2570 1475,2570 1469,2570 1463,2570 1457,2570 1451,2570 1445,2570 1439,2570 1433,2570 1427,2570 1421,2570 1415,2570 1409,2570 1403,2570 1397,2570 1391,2572"/>
        <polygon points="449,2578 442,2582 435,2586 429,2590 423,2595 416,2599 409,2603 405,2610 401,2616 399,2623 400,2631 401,2639 401,2647 401,2655 403,2663 406,2670 410,2677 414,2684 418,2691 423,2697 429,2702 435,2707 441,2712 447,2717 452,2722 456,2726 465,2733 473,2740 477,2744 483,2749 487,2753 492,2758 498,2763 504,2768 510,2773 515,2777 522,2781 529,2783 537,2784 545,2785 553,2786 561,2787 569,2788 577,2789 585,2790 593,2790 601,2790 609,2790 617,2790 625,2790 633,2790 641,2789 649,2789 657,2788 665,2787 673,2787 681,2785 689,2784 697,2782 705,2781 713,2780 721,2779 725,2776 730,2774 736,2773 743,2771 750,2769 756,2768 763,2766 767,2765 772,2763 776,2762 780,2762 784,2761 788,2759 792,2758 796,2757 800,2757 805,2756 810,2755 817,2754 824,2752 831,2750 838,2748 845,2747 852,2745 859,2743 867,2741 875,2739 883,2738 891,2737 900,2735 908,2732 915,2728 922,2724 928,2722 932,2721 936,2720 941,2718 947,2717 954,2715 957,2714 962,2713 966,2711 970,2710 977,2709 984,2707 991,2704 999,2702 1007,2700 1015,2697 1021,2691 1025,2685 1030,2678 1036,2672 1039,2664 1042,2656 1045,2648 1048,2641 1051,2634 1052,2625 1052,2617 1051,2610 1050,2602 1048,2594 1047,2586 1046,2578 1032,2573 1022,2573 1012,2573 1002,2573 992,2573 982,2573 972,2573 962,2573 952,2573 942,2573 932,2573 922,2573 912,2573 902,2573 892,2573 882,2573 872,2573 862,2573 852,2573 842,2573 832,2573 822,2573 812,2573 802,2573 792,2573 782,2573 772,2573 762,2573 752,2573 742,2573 732,2573 722,2573 712,2573 702,2573 692,2573 682,2573 672,2573 664,2573 656,2573 648,2573 640,2573 632,2573 624,2573 616,2573 608,2573 600,2573 592,2573 584,2573 576,2573 568,2573 560,2573 552,2573 544,2573 536,2573 528,2573 520,2573 512,2573 504,2573 496,2573 488,2573 480,2573 472,2573 464,2573 456,2574 449,2578"/>
        <polygon points="91,2613 90,2624 90,2634 90,2644 90,2654 99,2660 111,2663 122,2665 133,2667 144,2667 155,2667 166,2666 177,2666 188,2666 199,2666 209,2665 219,2664 229,2663 239,2662 249,2660 256,2652 259,2642 259,2632 257,2622 254,2612 244,2611 234,2609 224,2608 214,2607 203,2606 192,2606 181,2606 170,2606 160,2606 150,2606 140,2606 130,2605 121,2606 111,2608 101,2610 91,2613"/>
        <polygon points="183,2727 183,2736 183,2745 183,2754 183,2763 189,2771 198,2773 208,2774 218,2775 227,2777 237,2779 247,2780 255,2781 264,2781 273,2781 282,2781 291,2781 300,2781 309,2781 318,2780 327,2779 336,2777 342,2774 348,2771 355,2765 358,2756 356,2746 355,2736 355,2726 344,2720 334,2718 324,2717 314,2715 304,2714 294,2713 284,2712 274,2711 264,2711 254,2712 244,2712 235,2713 226,2714 217,2715 208,2716 199,2718 190,2720 183,2727"/>
        <polygon points="1633,2754 1633,2764 1633,2774 1633,2784 1633,2787 1645,2798 1655,2798 1665,2798 1674,2791 1675,2783 1676,2775 1674,2765 1674,2754 1664,2750 1655,2750 1645,2750 1633,2754"/>
        <polygon points="1974,2851 1970,2865 1966,2879 1963,2891 1961,2899 1960,2907 1960,2915 1959,2923 1958,2931 1963,2931 1970,2931 1978,2930 1980,2924 1981,2917 1980,2910 1980,2899 1981,2890 1981,2882 1980,2874 1981,2871 1982,2868 1982,2865 1981,2861 1980,2856 1974,2851"/>
        <polygon points="1990,3211 1985,3224 1981,3236 1989,3236 1996,3236 2004,3236 2010,3226 2009,3218 2009,3215 2008,3213 2004,3211 1997,3211 1990,3211"/>
        <polygon points="1144,3340 1138,3350 1138,3360 1138,3369 1140,3379 1150,3380 1160,3381 1171,3381 1181,3380 1188,3370 1188,3360 1188,3349 1187,3339 1176,3339 1165,3339 1154,3339 1144,3340"/>
    </svg>
    <desc method="Christophe Rigaud's extractor" lastModificationDate="Sun Feb 17 14:49:58 JST 2013"/>
</svg>
