<?xml version="1.0" encoding="UTF-8"?>
<svg xmlns:xlink="http://www.w3.org/1999/xlink" xmlns="http://www.w3.org/2000/svg" contentScriptType="text/ecmascript" width="967mm" zoomAndPan="magnify" contentStyleType="text/css" height="1335mm" viewBox="0 0 1935 2670" preserveAspectRatio="xMidYMid meet" version="1.0">
    <title>ROUDIER_LESTERRESCREUSEES_010.jpg</title>
    <svg contentScriptType="text/ecmascript" xmlns:xlink="http://www.w3.org/1999/xlink" zoomAndPan="magnify" class="Page" contentStyleType="text/css" preserveAspectRatio="xMidYMid meet" xmlns="http://www.w3.org/2000/svg" version="1.0">
        <image x="0" y="0" fill-opacity="0.5" width="1935" xmlns:xlink="http://www.w3.org/1999/xlink" xlink:href="ROUDIER_LESTERRESCREUSEES_010.jpg" xlink:type="simple" xlink:actuate="onLoad" opacity="0.5" height="2670" preserveAspectRatio="xMidYMid meet" xlink:show="embed"/>
    </svg>
    <style type="text/css" xml:space="preserve"><![CDATA[
		* { stroke-width: 1; stroke-linejoin: round; }
		.Panel { fill: none; stroke: red; opacity: 1.0; visibility: visible; }
		.TextArea { fill: none; stroke: yellow; opacity: 1.0; visibility: visible; }
		.Line { fill: green; stroke: none; opacity: 0.3; visibility: visible; }
		.Balloon { fill: none; stroke: cyan; opacity: 1.0; visibility: visible; }
		.Letter { fill: none; stroke: blue; opacity: 1.0; visibility: visible; }
		.Object { fill: none; stroke: yellow; opacity: 1.0; visibility: visible; }
		.Page { fill: none; stroke: white; opacity: 0.5; visibility: visible; image-rendering: optimizeSpeed; }
		.Noise { fill: none; stroke: pink; opacity: 1.0; visibility: hidden; }
		.Debug { fill: none; stroke: red; opacity: 1.0; visibility: visible; }
		.Unclassified { fill: none; stroke: orange; opacity: 1.0; visibility: hidden; }
]]></style>
    <svg contentScriptType="text/ecmascript" xmlns:xlink="http://www.w3.org/1999/xlink" zoomAndPan="magnify" class="Panel" contentStyleType="text/css" preserveAspectRatio="xMidYMid meet" xmlns="http://www.w3.org/2000/svg" version="1.0"/>
    <svg contentScriptType="text/ecmascript" xmlns:xlink="http://www.w3.org/1999/xlink" zoomAndPan="magnify" class="Letter" contentStyleType="text/css" preserveAspectRatio="xMidYMid meet" xmlns="http://www.w3.org/2000/svg" version="1.0"/>
    <svg contentScriptType="text/ecmascript" xmlns:xlink="http://www.w3.org/1999/xlink" zoomAndPan="magnify" class="Line" contentStyleType="text/css" preserveAspectRatio="xMidYMid meet" xmlns="http://www.w3.org/2000/svg" version="1.0">
        <polygon points="384,73 747,73 747,117 384,117 384,73"/>
        <polygon points="363,118 769,118 769,162 363,162 363,118"/>
        <polygon points="365,165 768,165 768,209 365,209 365,165"/>
        <polygon points="1637,176 1855,176 1855,217 1637,217 1637,176"/>
        <polygon points="410,215 695,215 695,254 410,254 410,215"/>
        <polygon points="1661,217 1831,217 1831,250 1661,250 1661,217"/>
        <polygon points="1677,260 1802,260 1802,292 1677,292 1677,260"/>
        <polygon points="180,299 485,299 485,336 180,336 180,299"/>
        <polygon points="101,345 509,345 509,388 101,388 101,345"/>
        <polygon points="402,458 761,458 761,504 402,504 402,458"/>
        <polygon points="439,504 734,504 734,539 439,539 439,504"/>
        <polygon points="99,620 495,620 495,660 99,660 99,620"/>
        <polygon points="669,681 866,681 866,713 669,713 669,681"/>
        <polygon points="134,664 451,664 451,705 134,705 134,664"/>
        <polygon points="639,728 885,728 885,765 639,765 639,728"/>
        <polygon points="1396,762 1720,762 1720,805 1396,805 1396,762"/>
        <polygon points="1417,806 1667,806 1667,848 1417,848 1417,806"/>
        <polygon points="1522,904 1862,904 1862,944 1522,944 1522,904"/>
        <polygon points="1491,944 1895,944 1895,982 1491,982 1491,944"/>
        <polygon points="1539,986 1850,986 1850,1035 1539,1035 1539,986"/>
        <polygon points="750,1620 949,1620 949,1661 750,1661 750,1620"/>
        <polygon points="771,1673 928,1673 928,1694 771,1694 771,1673"/>
        <polygon points="734,1708 954,1708 954,1736 734,1736 734,1708"/>
        <polygon points="173,1948 319,1948 319,1980 173,1980 173,1948"/>
        <polygon points="1048,1955 1359,1955 1359,1989 1048,1989 1048,1955"/>
        <polygon points="178,1994 333,1994 333,2027 178,2027 178,1994"/>
        <polygon points="987,2001 1419,2001 1419,2046 987,2046 987,2001"/>
        <polygon points="1041,2048 1355,2048 1355,2092 1041,2092 1041,2048"/>
        <polygon points="1750,2185 1847,2185 1847,2233 1750,2233 1750,2185"/>
    </svg>
    <svg contentScriptType="text/ecmascript" xmlns:xlink="http://www.w3.org/1999/xlink" zoomAndPan="magnify" class="TextArea" contentStyleType="text/css" preserveAspectRatio="xMidYMid meet" xmlns="http://www.w3.org/2000/svg" version="1.0">
        <polygon points="384,73 363,118 363,162 365,209 410,254 695,254 768,209 769,162 769,118 747,73 384,73"/>
        <polygon points="1637,176 1637,217 1677,292 1802,292 1855,217 1855,176 1637,176"/>
        <polygon points="180,299 101,345 101,388 509,388 509,345 485,299 180,299"/>
        <polygon points="402,458 402,504 439,539 734,539 761,504 761,458 402,458"/>
        <polygon points="99,620 99,660 134,705 451,705 495,660 495,620 99,620"/>
        <polygon points="669,681 639,728 639,765 885,765 885,728 866,681 669,681"/>
        <polygon points="1396,762 1396,805 1417,848 1667,848 1720,805 1720,762 1396,762"/>
        <polygon points="1522,904 1491,944 1491,982 1539,1035 1850,1035 1895,982 1895,944 1862,904 1522,904"/>
        <polygon points="750,1620 734,1708 734,1736 954,1736 954,1708 949,1620 750,1620"/>
        <polygon points="173,1948 173,1980 178,2027 333,2027 333,1994 319,1948 173,1948"/>
        <polygon points="1048,1955 987,2001 987,2046 1041,2092 1355,2092 1419,2046 1419,2001 1359,1955 1048,1955"/>
        <polygon points="1750,2185 1750,2233 1847,2233 1847,2185 1750,2185"/>
    </svg>
    <svg contentScriptType="text/ecmascript" xmlns:xlink="http://www.w3.org/1999/xlink" zoomAndPan="magnify" class="Balloon" contentStyleType="text/css" preserveAspectRatio="xMidYMid meet" xmlns="http://www.w3.org/2000/svg" version="1.0">
        <polygon points="318,101 313,107 308,114 303,121 300,128 297,135 295,143 298,153 300,162 303,170 306,177 309,184 313,190 317,197 322,203 327,209 333,215 338,221 343,227 349,231 355,235 362,239 369,243 376,247 382,252 388,254 396,256 404,257 412,259 419,260 426,261 434,261 442,262 449,263 456,264 463,265 471,265 479,265 487,265 495,265 503,265 511,265 519,265 526,266 534,267 542,267 549,268 557,268 565,268 573,269 581,271 588,273 594,273 601,272 603,271 606,270 610,270 614,270 618,270 622,270 626,270 632,270 638,270 644,270 650,270 656,269 663,268 670,268 677,267 684,266 691,265 697,264 703,264 710,263 717,262 724,260 731,258 738,257 745,255 751,252 758,249 765,246 771,243 776,240 782,237 788,233 796,229 804,224 809,218 815,212 822,203 828,196 830,186 832,178 833,170 834,162 833,154 832,146 831,138 830,130 828,122 825,115 821,108 816,102 811,96 805,90 799,84 792,80 785,76 777,73 770,70 762,67 754,64 746,62 738,60 730,58 722,57 714,56 706,55 698,54 690,53 682,52 674,51 666,50 658,49 650,48 642,47 634,46 626,46 618,46 610,46 602,46 594,46 586,46 578,46 570,46 562,46 554,46 546,46 538,46 530,46 522,46 514,47 506,47 498,47 490,47 482,47 474,48 466,49 458,50 450,51 442,52 434,53 426,54 418,55 410,57 402,59 394,61 386,63 378,65 371,67 364,71 357,74 350,78 343,82 337,86 330,90 324,95 318,101"/>
        <polygon points="1629,174 1625,181 1621,187 1618,194 1615,201 1613,208 1611,216 1610,225 1610,233 1613,240 1615,247 1617,254 1622,260 1626,266 1631,271 1636,276 1642,281 1648,285 1655,289 1662,293 1669,296 1676,299 1683,302 1690,304 1697,306 1704,307 1711,309 1718,311 1725,311 1732,312 1740,312 1747,312 1754,312 1761,312 1768,309 1775,307 1782,304 1789,302 1794,299 1801,297 1805,296 1810,292 1812,291 1813,290 1815,288 1822,285 1828,281 1835,276 1844,272 1852,268 1857,262 1862,256 1866,250 1868,242 1869,235 1870,228 1870,221 1869,214 1868,207 1867,200 1866,193 1865,186 1864,179 1859,172 1854,165 1845,160 1836,156 1829,153 1823,149 1817,145 1810,142 1802,142 1795,141 1788,139 1781,138 1774,137 1767,137 1759,138 1752,139 1745,142 1738,144 1731,146 1725,150 1720,152 1716,153 1710,156 1703,158 1699,158 1695,157 1689,155 1678,154 1667,154 1656,156 1647,160 1639,163 1634,168 1629,174"/>
        <polygon points="177,288 170,289 163,289 157,290 151,291 145,292 139,294 133,296 127,299 121,303 115,307 110,313 105,318 101,324 97,330 94,336 91,342 90,349 90,356 90,362 90,369 90,376 93,382 96,388 104,393 111,395 118,397 125,398 131,400 137,401 143,401 149,402 155,402 161,402 167,402 173,403 179,403 185,403 191,403 197,403 203,403 209,403 215,403 221,403 227,403 234,403 241,403 248,403 255,403 262,403 269,403 275,404 281,405 288,405 295,405 301,406 307,407 313,408 320,408 326,409 332,410 339,410 346,409 353,408 360,408 367,408 374,408 381,407 388,407 395,407 402,407 409,407 416,406 423,406 430,406 437,406 444,406 451,406 458,406 465,406 471,405 477,404 483,403 489,402 495,401 501,400 507,398 511,393 514,389 516,384 516,381 516,379 516,374 515,368 515,361 514,355 514,347 514,329 513,322 512,316 509,312 505,307 500,303 494,300 489,296 483,294 477,294 471,294 465,294 459,294 453,294 447,294 441,294 435,294 429,294 423,294 417,294 410,294 403,294 396,294 389,294 383,293 377,292 371,291 365,291 358,291 352,290 346,289 340,289 334,288 328,288 322,288 316,287 310,287 304,287 298,286 292,286 286,286 280,286 274,286 268,286 261,286 254,286 247,286 240,286 233,287 226,287 219,287 212,287 205,287 198,287 191,287 184,287 177,288"/>
        <polygon points="387,459 382,468 379,479 378,489 381,501 387,513 394,524 402,532 410,539 416,544 422,546 429,548 436,549 443,550 450,551 457,552 464,553 471,554 478,555 485,556 492,557 499,558 506,558 513,558 520,558 527,558 534,558 541,558 548,558 555,558 562,558 569,558 576,558 583,558 590,558 597,558 604,558 611,558 618,558 625,558 632,558 639,558 646,558 653,558 660,557 667,557 674,556 681,556 688,555 695,555 702,554 708,553 714,551 720,549 726,547 733,545 740,543 745,536 750,531 754,526 757,519 760,514 763,510 765,507 767,501 767,499 768,496 769,492 770,487 772,481 775,475 779,469 782,465 781,463 780,461 779,459 777,457 775,455 772,453 769,450 766,447 761,444 755,441 748,439 741,438 734,437 727,436 720,436 713,436 706,436 699,436 692,436 685,436 678,436 671,436 664,436 657,436 650,436 643,436 636,436 629,436 622,436 615,436 608,436 601,436 594,436 587,436 580,436 573,436 566,436 559,436 552,436 545,436 538,436 531,436 524,436 517,436 510,436 503,436 496,436 489,436 482,436 475,436 468,436 461,436 454,437 447,437 440,437 433,438 426,439 419,441 412,442 405,444 399,447 393,451 387,459"/>
        <polygon points="89,604 84,608 80,613 76,618 73,623 70,629 69,635 68,641 68,647 69,653 70,659 73,664 78,668 82,673 86,678 90,683 94,688 99,692 104,696 108,701 112,706 117,709 123,711 129,714 135,716 141,718 148,720 155,721 162,721 169,721 175,722 182,722 189,722 195,723 201,723 207,723 213,723 219,723 225,723 231,723 238,723 245,723 252,723 259,723 266,723 273,723 280,723 287,723 294,723 301,723 308,723 315,723 322,723 329,723 336,723 343,723 350,723 357,723 364,723 371,723 378,723 385,723 392,723 399,723 405,722 411,721 417,720 423,719 429,718 435,717 441,716 447,715 453,714 459,712 465,710 471,708 477,706 483,704 488,698 493,692 498,684 502,678 506,672 509,666 511,659 512,652 511,645 510,639 508,633 506,627 503,621 500,616 496,611 491,607 485,603 478,600 471,597 464,594 457,591 450,590 443,589 436,588 429,587 422,586 415,584 408,581 402,581 396,581 389,582 383,582 377,582 371,582 365,582 359,582 353,582 347,582 341,582 335,582 329,581 323,580 316,581 309,581 302,581 295,581 289,581 283,581 277,581 271,581 265,581 259,581 253,581 247,581 241,581 235,581 229,581 223,581 217,581 211,581 205,581 199,581 193,581 186,581 179,581 172,581 166,582 160,583 154,584 148,585 142,586 136,587 130,588 124,589 118,591 112,593 106,595 100,597 94,600 89,604"/>
        <polygon points="655,680 649,686 643,692 637,698 633,705 630,713 628,721 627,729 627,737 628,744 630,751 632,758 634,765 642,770 650,771 658,772 665,774 672,774 679,775 686,775 693,776 700,776 707,777 714,777 721,777 728,777 735,777 742,777 749,777 757,777 765,777 772,777 780,777 788,777 796,777 804,777 812,776 820,775 828,774 836,774 844,773 852,772 860,771 868,770 876,770 884,770 890,758 893,751 893,746 894,739 896,732 899,725 902,718 903,711 902,704 899,697 896,690 892,684 887,678 882,672 876,667 869,666 862,665 855,664 848,664 841,663 834,662 827,660 820,660 813,660 806,660 799,660 792,660 785,660 778,660 771,661 763,662 755,662 747,663 739,663 731,663 723,664 715,665 707,665 699,666 691,666 683,667 675,667 667,669 661,674 655,680"/>
        <polygon points="1414,745 1407,748 1400,751 1394,754 1388,757 1382,761 1376,765 1371,771 1367,777 1363,783 1360,790 1358,797 1359,804 1360,811 1362,818 1365,824 1370,830 1375,835 1380,840 1385,845 1391,849 1398,852 1405,855 1412,857 1419,860 1426,861 1433,863 1440,865 1447,866 1454,868 1461,869 1468,870 1475,871 1482,872 1489,873 1496,874 1503,875 1510,876 1517,877 1722,864 1718,858 1716,858 1714,858 1712,858 1710,855 1708,852 1706,849 1704,846 1702,843 1699,838 1699,838 1699,838 1699,838 1699,838 1702,838 1705,838 1708,838 1712,839 1716,841 1719,840 1722,839 1725,837 1728,835 1730,833 1732,831 1734,829 1736,827 1738,824 1741,821 1743,817 1745,813 1746,808 1747,803 1749,796 1750,789 1751,782 1751,775 1752,768 1750,764 1746,760 1742,756 1738,752 1733,749 1728,746 1722,743 1715,740 1708,739 1701,737 1694,736 1687,735 1680,734 1673,734 1666,734 1659,734 1652,734 1645,733 1638,733 1631,733 1624,733 1617,733 1610,732 1603,732 1596,732 1589,731 1582,731 1575,730 1568,730 1561,729 1554,729 1547,729 1540,728 1533,728 1526,728 1519,728 1512,728 1505,728 1498,728 1491,728 1484,729 1477,730 1470,731 1463,732 1456,733 1449,734 1442,736 1435,738 1428,740 1421,742 1414,745"/>
        <polygon points="1472,919 1469,925 1466,931 1463,937 1460,943 1458,949 1456,955 1455,962 1454,969 1456,976 1458,982 1459,989 1461,995 1464,1001 1468,1006 1472,1010 1476,1015 1481,1019 1486,1023 1491,1027 1497,1030 1503,1032 1509,1034 1515,1036 1521,1038 1527,1039 1533,1040 1539,1041 1545,1042 1551,1043 1557,1043 1563,1043 1569,1043 1575,1043 1581,1043 1587,1043 1593,1043 1600,1043 1607,1043 1614,1043 1618,1043 1622,1042 1628,1041 1628,1041 1630,1042 1633,1042 1636,1043 1640,1045 1646,1048 1652,1051 1658,1052 1664,1052 1670,1052 1676,1052 1682,1052 1688,1052 1694,1052 1700,1052 1706,1052 1712,1052 1718,1052 1724,1052 1730,1052 1736,1052 1742,1052 1749,1052 1756,1052 1763,1052 1770,1052 1777,1052 1784,1052 1791,1052 1800,1050 1808,1048 1816,1046 1823,1045 1830,1044 1837,1043 1844,1042 1851,1041 1858,1040 1865,1038 1871,1035 1877,1032 1883,1029 1889,1025 1894,1018 1899,1009 1904,1001 1909,993 1913,984 1917,976 1920,969 1922,961 1924,953 1925,944 1927,939 1927,935 1928,931 1927,929 1926,927 1925,925 1924,922 1923,919 1922,916 1920,913 1918,910 1916,907 1914,904 1912,901 1909,898 1906,895 1903,892 1900,889 1896,886 1892,883 1886,881 1880,879 1874,878 1868,877 1862,877 1856,876 1850,875 1844,875 1838,875 1832,874 1826,874 1820,874 1814,873 1808,873 1802,873 1796,872 1790,872 1784,871 1778,871 1772,871 1766,871 1760,871 1754,871 1748,870 1742,869 1735,868 1728,867 1722,864 1717,863 1711,863 1706,861 1702,859 1698,857 1694,854 1690,851 1685,848 1680,845 1673,844 1553,865 1547,866 1542,868 1538,871 1533,873 1529,876 1524,879 1520,883 1515,887 1509,890 1503,893 1497,897 1491,901 1485,905 1480,909 1476,914 1472,919"/>
        <polygon points="730,1618 725,1624 721,1630 717,1636 713,1642 709,1649 706,1656 703,1663 701,1671 701,1678 702,1685 703,1692 705,1699 707,1706 709,1713 711,1720 716,1726 721,1732 725,1738 731,1742 737,1746 744,1749 752,1752 759,1755 766,1757 773,1759 781,1760 788,1761 795,1761 802,1761 809,1761 815,1760 822,1759 829,1757 837,1757 845,1757 852,1757 859,1758 866,1760 873,1762 884,1764 892,1763 900,1762 907,1761 914,1760 921,1757 927,1753 933,1749 939,1745 944,1743 949,1742 955,1741 960,1735 961,1734 962,1733 962,1731 963,1728 965,1725 968,1722 971,1718 976,1711 992,1685 994,1677 994,1670 991,1663 988,1656 984,1649 980,1642 977,1635 972,1629 967,1623 962,1617 957,1611 951,1606 945,1601 939,1596 933,1591 926,1587 919,1584 912,1582 904,1580 897,1578 890,1577 882,1576 874,1575 866,1575 858,1575 850,1575 842,1576 834,1577 826,1578 818,1579 810,1580 802,1581 795,1582 788,1584 781,1586 774,1589 767,1593 760,1597 753,1601 747,1605 741,1609 735,1613 730,1618"/>
        <polygon points="171,1937 165,1943 160,1949 155,1956 150,1963 149,1972 147,1980 146,1988 146,1996 147,2004 149,2011 151,2019 155,2027 160,2034 167,2040 173,2046 180,2052 188,2057 196,2061 204,2064 212,2066 220,2066 228,2067 236,2068 244,2068 252,2068 260,2068 268,2068 276,2068 284,2066 292,2064 298,2059 305,2054 311,2048 317,2042 322,2036 325,2034 329,2032 332,2032 338,2027 338,2023 338,2018 339,2011 340,2003 342,1994 343,1979 342,1965 336,1952 329,1940 320,1931 312,1922 304,1914 296,1911 289,1908 282,1906 274,1905 266,1904 258,1902 250,1902 242,1902 234,1904 226,1906 219,1909 212,1912 205,1915 198,1919 191,1923 184,1927 177,1932 171,1937"/>
        <polygon points="1051,1929 1045,1930 1039,1931 1033,1932 1027,1934 1021,1936 1015,1938 1009,1940 1003,1943 998,1946 993,1949 988,1952 983,1955 978,1959 974,1964 970,1969 966,1974 963,1980 960,1986 958,1993 958,2000 958,2007 958,2014 958,2021 959,2028 960,2035 961,2041 964,2047 967,2053 970,2059 973,2065 977,2070 982,2075 989,2080 995,2084 1001,2088 1007,2091 1013,2094 1019,2097 1025,2100 1031,2103 1036,2107 1043,2108 1049,2109 1055,2110 1061,2110 1067,2110 1073,2111 1080,2112 1088,2112 1096,2112 1104,2112 1112,2111 1120,2111 1128,2111 1136,2111 1144,2111 1152,2111 1160,2111 1168,2111 1176,2111 1184,2111 1190,2111 1197,2112 1203,2112 1209,2112 1215,2112 1221,2113 1228,2114 1235,2115 1243,2115 1250,2116 1258,2116 1265,2117 1272,2118 1278,2118 1284,2118 1290,2118 1296,2118 1302,2118 1308,2118 1314,2118 1320,2118 1326,2118 1332,2118 1338,2118 1344,2117 1351,2116 1358,2115 1365,2114 1371,2113 1377,2112 1382,2109 1387,2106 1393,2103 1399,2100 1405,2097 1411,2095 1417,2093 1423,2090 1429,2088 1435,2085 1440,2081 1445,2077 1449,2071 1453,2066 1456,2060 1459,2054 1461,2048 1462,2042 1463,2036 1464,2030 1464,2024 1464,2018 1463,2012 1462,2006 1461,2000 1460,1994 1458,1989 1456,1983 1454,1977 1451,1971 1447,1966 1442,1962 1437,1959 1432,1955 1427,1952 1421,1950 1415,1949 1409,1947 1404,1947 1398,1946 1393,1945 1387,1945 1381,1944 1375,1943 1369,1943 1363,1942 1357,1941 1351,1941 1345,1940 1339,1939 1333,1939 1327,1939 1321,1938 1315,1937 1309,1937 1303,1937 1297,1936 1291,1935 1285,1935 1279,1935 1273,1934 1267,1933 1261,1933 1255,1932 1249,1932 1243,1931 1237,1931 1231,1930 1225,1930 1219,1930 1213,1930 1207,1930 1201,1929 1195,1928 1189,1928 1183,1927 1177,1927 1171,1927 1165,1927 1159,1927 1153,1926 1147,1926 1141,1926 1135,1926 1129,1926 1123,1925 1117,1925 1111,1925 1105,1925 1099,1925 1093,1925 1087,1925 1081,1925 1075,1925 1069,1926 1063,1927 1057,1928 1051,1929"/>
        <polygon points="1749,2180 1745,2183 1745,2190 1745,2197 1745,2204 1745,2211 1745,2218 1745,2225 1745,2232 1755,2238 1763,2238 1770,2238 1774,2238 1780,2239 1781,2238 1783,2238 1783,2238 1785,2238 1788,2238 1791,2238 1795,2238 1799,2238 1803,2238 1808,2238 1885,2225 1881,2219 1877,2213 1873,2207 1869,2200 1863,2191 1856,2183 1850,2179 1844,2176 1837,2177 1830,2177 1825,2177 1819,2177 1814,2177 1808,2177 1804,2177 1800,2178 1794,2180 1789,2179 1782,2179 1775,2179 1768,2180 1759,2180 1751,2180 1749,2180"/>
    </svg>
    <desc method="Christophe Rigaud's extractor" lastModificationDate="Sun Feb 17 14:55:34 JST 2013"/>
</svg>
